<svg xmlns="http://www.w3.org/2000/svg" xmlns:xlink="http://www.w3.org/1999/xlink" id="Layer_1" x="0" y="0" version="1.1" viewBox="0 0 48.9 55" xml:space="preserve"><style>.st0{fill:#d2a8ff}.st2{fill:#8957e5}</style><defs><circle id="SVGID_3_" cx="38.9" cy="46" r="1"/></defs><clipPath id="SVGID_2_"><use overflow="visible" xlink:href="#SVGID_3_"/></clipPath><g clip-path="url(#SVGID_2_)"><path d="M33 40h11.9v12h-12z" class="st2"/></g><path d="M36.3 46h-.4c-1 0-2-1.1-2-2.1s.4-1.7 1.2-2.2l.2-.9c.2-1.2.6-3.8 3.6-3.8s3.3 2.5 3.6 3.8l.2 1c.8.3 1.2 1 1.2 2 0 .6-.3 1.1-.7 1.6-.4.4-.9.6-1.3.6h-5.6zm-.2-2h5.7a.4.4 0 00.1-.2c0-.3 0-.3-.2-.3a1.4 1.4 0 01-.3-.2c-.4-.3-.6-.8-.9-2.1-.3-1.8-.6-2.2-1.6-2.2s-1.3.3-1.6 2.1c-.2 1.2-.4 1.7-.8 2a1 1 0 01-.4.4c-.1 0-.2 0-.2.3l.2.2zm5.8 0zm-.6-.9zm-4.6-.3z" class="st2"/><path d="M38.9 52a10 10 0 110-20 10 10 0 010 20zm0-18a8 8 0 100 16 8 8 0 000-16z" class="st2"/><path d="M24 31H6c-.6 0-1-.5-1-1s.4-1 1-1h18c.5 0 1 .5 1 1 0 .6-.5 1-1 1zm10 0h-5c-.6 0-1-.5-1-1s.4-1 1-1h5c.5 0 1 .5 1 1 0 .6-.5 1-1 1zm-7 6h-8c-.6 0-1-.5-1-1s.4-1 1-1h8c.5 0 1 .4 1 1s-.5 1-1 1zm-13 0H6c-.6 0-1-.5-1-1s.4-1 1-1h8c.5 0 1 .4 1 1s-.5 1-1 1z" class="st0"/><path d="M24 11H6c-.6 0-1-.4-1-1s.4-1 1-1h18c.5 0 1 .5 1 1 0 .6-.5 1-1 1z" class="st2"/><path d="M37.9 11h-9c-.5 0-1-.4-1-1s.5-1 1-1h9c.6 0 1 .5 1 1s-.5 1-1 1z" class="st0"/><path d="M37.9 17h-19c-.5 0-1-.4-1-1s.5-1 1-1h19c.6 0 1 .5 1 1s-.5 1-1 1z" class="st2"/><path d="M14 17H6c-.6 0-1-.4-1-1s.4-1 1-1h8c.5 0 1 .5 1 1s-.5 1-1 1z" class="st0"/><path d="M40.9 23h-38A3 3 0 010 20V6a3 3 0 013-3h37.9a3 3 0 013 3v14a3 3 0 01-3 3zM2.9 5a1 1 0 00-1 1v14c0 .6.5 1 1 1h38c.5 0 1-.4 1-1V6c0-.5-.5-1-1-1h-38z" class="st2"/><path d="M26 43H3a3 3 0 01-3-3V26c0-.5.5-1 1-1s1 .5 1 1v14c0 .5.4 1 1 1h23c.5 0 1 .4 1 1 0 .5-.5 1-1 1zm16.9-12a1 1 0 01-1-1v-4c0-.5.4-1 1-1s1 .5 1 1v4c0 .6-.5 1-1 1z" class="st0"/></svg>
