<svg fill="none" height="48" viewBox="0 0 48 48" width="48" xmlns="http://www.w3.org/2000/svg" xmlns:xlink="http://www.w3.org/1999/xlink"><linearGradient id="a" gradientUnits="userSpaceOnUse" x1="2" x2="38.8126" y1="-11.3913" y2="-9.65666"><stop offset="0" stop-color="#bef5cb"/><stop offset="1" stop-color="#79b8ff"/></linearGradient><g fill="url(#a)"><path d="m24 14c.8284 0 1.5.6716 1.5 1.5v9c0 .8284-.6716 1.5-1.5 1.5s-1.5-.6716-1.5-1.5v-9c0-.8284.6716-1.5 1.5-1.5z"/><path d="m26 32c0 1.1046-.8954 2-2 2s-2-.8954-2-2 .8954-2 2-2 2 .8954 2 2z"/><path clip-rule="evenodd" d="m24 2c-12.1503 0-22 9.8497-22 22s9.8497 22 22 22 22-9.8497 22-22-9.8497-22-22-22zm-19 22c0-10.4934 8.5066-19 19-19s19 8.5066 19 19-8.5066 19-19 19-19-8.5066-19-19z" fill-rule="evenodd"/></g></svg>