<svg fill="none" height="423" viewBox="0 0 457 423" width="457" xmlns="http://www.w3.org/2000/svg" xmlns:xlink="http://www.w3.org/1999/xlink"><linearGradient id="a"><stop offset=".13" stop-color="#59626c"/><stop offset=".23" stop-color="#949aa0"/><stop offset=".32" stop-color="#c2c5c9"/><stop offset=".4" stop-color="#e3e5e6"/><stop offset=".47" stop-color="#f8f8f8"/><stop offset=".51" stop-color="#fff"/><stop offset=".59" stop-color="#f9fafa"/><stop offset=".7" stop-color="#e9ebed"/><stop offset=".81" stop-color="#ced2d6"/><stop offset=".94" stop-color="#a8afb7"/><stop offset="1" stop-color="#949da7"/></linearGradient><linearGradient id="b" gradientUnits="userSpaceOnUse" x1="151.406" x2="318.387" xlink:href="#a" y1="104.429" y2="104.429"/><linearGradient id="c" gradientUnits="userSpaceOnUse" x1="19126.8" x2="24995.9" xlink:href="#a" y1="3774" y2="3774"/><linearGradient id="d" gradientUnits="userSpaceOnUse" x1="127.767" x2="392.226" y1="289.276" y2="289.276"><stop offset=".07" stop-color="#57606a"/><stop offset=".08" stop-color="#636c75"/><stop offset=".1" stop-color="#8d939a"/><stop offset=".13" stop-color="#b0b4b9"/><stop offset=".15" stop-color="#cdcfd2"/><stop offset=".18" stop-color="#e3e5e6"/><stop offset=".21" stop-color="#f3f3f4"/><stop offset=".24" stop-color="#fcfcfc"/><stop offset=".29" stop-color="#eaecee"/><stop offset=".3" stop-color="#cfd3d8"/><stop offset=".31" stop-color="#b9bfc6"/><stop offset=".32" stop-color="#a8b0b8"/><stop offset=".34" stop-color="#9da5ae"/><stop offset=".36" stop-color="#969fa9"/><stop offset=".42" stop-color="#949da7"/></linearGradient><linearGradient id="e" gradientUnits="userSpaceOnUse" x1="117.394" x2="353.835" y1="330.392" y2="330.392"><stop offset=".13" stop-color="#59626c"/><stop offset=".17" stop-color="#949aa0"/><stop offset=".21" stop-color="#c2c5c9"/><stop offset=".24" stop-color="#e3e5e6"/><stop offset=".27" stop-color="#f8f8f8"/><stop offset=".29" stop-color="#fff"/><stop offset=".31" stop-color="#f9fafa"/><stop offset=".34" stop-color="#e9ebed"/><stop offset=".37" stop-color="#ced2d6"/><stop offset=".41" stop-color="#a8afb7"/><stop offset=".42" stop-color="#949da7"/></linearGradient><linearGradient id="f" gradientUnits="userSpaceOnUse" x1="177.109" x2="261.715" y1="309.844" y2="309.844"><stop offset=".13" stop-color="#57606a"/><stop offset=".27" stop-color="#78818b"/><stop offset=".39" stop-color="#8d96a0"/><stop offset=".47" stop-color="#949da7"/><stop offset=".89" stop-color="#fff"/></linearGradient><linearGradient id="g"><stop offset=".41" stop-color="#6fdd8b"/><stop offset=".48" stop-color="#65d596"/><stop offset=".65" stop-color="#56c7a8"/><stop offset=".81" stop-color="#4cbfb3"/><stop offset="1" stop-color="#49bcb7"/></linearGradient><linearGradient id="h" gradientUnits="userSpaceOnUse" x1="234.904" x2="306.391" xlink:href="#g" y1="248.181" y2="248.181"/><linearGradient id="i" gradientUnits="userSpaceOnUse" x1="14519.2" x2="15924" xlink:href="#g" y1="4680.71" y2="4680.71"/><linearGradient id="j" gradientUnits="userSpaceOnUse" x1="13969.2" x2="15374" xlink:href="#g" y1="5361.47" y2="5361.47"/><linearGradient id="k" gradientUnits="userSpaceOnUse" x1="264.828" x2="318.449" y1="207.065" y2="207.065"><stop offset=".41" stop-color="#6fdd8b"/><stop offset=".46" stop-color="#65d596"/><stop offset=".57" stop-color="#56c7a8"/><stop offset=".69" stop-color="#4cbfb3"/><stop offset=".82" stop-color="#49bcb7"/></linearGradient><linearGradient id="l" gradientUnits="userSpaceOnUse" x1="19662.1" x2="25398" xlink:href="#g" y1="17625.8" y2="17625.8"/><linearGradient id="m" gradientUnits="userSpaceOnUse" x1="29871.2" x2="43189.7" xlink:href="#a" y1="3547.84" y2="3547.84"/><path d="m34.4235 197.671 4.6662 13.364 13.5893-.102-11.072 8.903 4.0932 12.566-11.2767-7.88-11.2972 7.88 4.0932-12.566-11.0515-8.903 13.5893.102z" fill="#949da7"/><path d="m34.4235 317.294 4.6662 13.364 13.5893-.102-11.072 8.902 4.0932 12.567-11.2767-7.859-11.2972 7.859 4.0932-12.567-11.0515-8.902 13.5893.102z" fill="#949da7"/><path d="m77.4821 360.948 4.6867 13.384 13.5893-.102-11.072 8.903 4.0931 12.566-11.2971-7.88-11.2767 7.88 4.0932-12.566-11.072-8.903 13.5893.102z" fill="#949da7"/><path d="m138.8 376.215 4.667 13.364 13.589-.102-11.072 8.903 4.093 12.566-11.277-7.88-11.276 7.88 4.093-12.566-11.072-8.903 13.589.102z" fill="#949da7"/><path d="m18.276 255.978 4.6662 13.385 13.5893-.123-11.072 8.903 4.0932 12.566-11.2767-7.859-11.29716 7.859 4.09316-12.566-11.072-8.903 13.5893.123z" fill="#949da7"/><path d="m378.042 48.2705 4.666 13.3641 13.589-.1023-11.072 8.9027 4.093 12.566-11.276-7.8589-11.298 7.8589 4.094-12.566-11.072-8.9027 13.589.1023z" fill="#949da7"/><path d="m422.599 92.8246 4.667 13.3844 13.589-.102-11.052 8.882 4.093 12.587-11.297-7.88-11.276 7.88 4.093-12.587-11.072-8.882 13.589.102z" fill="#949da7"/><path d="m422.599 212.468 4.667 13.364 13.589-.102-11.052 8.902 4.093 12.566-11.297-7.879-11.276 7.879 4.093-12.566-11.072-8.902 13.589.102z" fill="#949da7"/><path d="m437.845 151.152 4.687 13.364 13.589-.102-11.072 8.903 4.094 12.566-11.298-7.859-11.276 7.859 4.093-12.566-11.072-8.903 13.589.102z" fill="#949da7"/><path d="m77.3388 180.071v-26.524l-4.5229 12.934-13.5893-.123 11.072 8.903-4.0932 12.566z" fill="#949da7"/><path d="m396.301 269.383-13.59.123-4.543-13.016v26.585l11.154 7.798-4.093-12.587z" fill="#949da7"/><path d="m328.93 64.1724-3.213-9.885 11.072-8.9026-13.589.1023-4.666-13.3642-4.687 13.3642-13.589-.1023 6.262 5.0346z" fill="#949da7"/><g fill="#57606a"><path d="m197.293 115.48h-86.816l-34.6079-21.1 152.6549-93.651683v41.136383h-31.231zm-86.386-1.535h84.851v-73.6767h31.231v-36.83849l-148.1728 90.88879z"/><path d="m226.986 423v-152.859l74.332-52.72h54.521v47.071h23.086v65.245l-.348.225zm1.535-152.102v149.401l148.869-91.319v-62.933h-23.086v-47.071h-52.495z"/><path d="m111.845 114.723h-1.534v234.313h1.534z"/><path d="m137.099 131.935h-1.535v233.617h1.535z"/><path d="m178.092 102.853h-1.535v287.709h1.535z"/><path d="m227.704 340.195h-132.0458v1.535h132.0458z"/><path d="m227.05 381.659h-63.198v1.535h63.198z"/><path d="m255.455 298.875h-177.9706v1.535h177.9706z"/><path d="m282.88 257.984h-205.3956v1.535h205.3956z"/><path d="m301.544 237.395h-224.0596v1.535h224.0596z"/><path d="m314.315 217.052h-236.8306v1.535h236.8306z"/><path d="m268.779 196.013h-191.2946v1.535h191.2946z"/><path d="m268.779 175.711h-191.2946v1.535h191.2946z"/><path d="m283.105 155.266h-205.6206v1.535h205.6206z"/><path d="m274.038 134.063h-196.5536v1.535h196.5536z"/><path d="m274.038 114.437h-196.5536v1.534h196.5536z"/><path d="m110.59 299.533-33.7541 29.27 1.0056 1.16 33.7535-29.27z"/><path d="m111.427 176.064-.952 1.204 25.384 20.097.953-1.203z"/><path d="m111.571 155.665-.966 1.193 25.261 20.449.966-1.193z"/><path d="m188.972 285.551-53.615 55.114 1.101 1.071 53.614-55.114z"/></g><path d="m318.387 94.1549h-166.981v20.5481h166.981z" fill="url(#b)"/><path d="m193.218 94.1549h-41.812v20.5481h41.812z" fill="#fff"/><path d="m275.78 114.723h-165.098v20.548h165.098z" fill="#6fdd8b"/><path d="m275.778 114.723h-25.419v20.548h25.419z" fill="#fff"/><path d="m234.885 135.209h-98.973v20.548h98.973z" fill="url(#c)"/><path d="m323.524 135.209h-98.973v20.548h98.973z" fill="#6fdd8b"/><path d="m275.777 176.223h-124.371v20.548h124.371z" fill="#6fdd8b"/><path d="m318.387 196.791h-166.981v20.548h166.981z" fill="#6fdd8b"/><path d="m306.29 237.907h-170.378v20.548h170.378z" fill="#6fdd8b"/><path d="m318.409 279.002h-156.727v20.548h156.727z" fill="#6fdd8b"/><path d="m252.752 279.002h-116.84v20.548h116.84z" fill="url(#d)"/><path d="m318.409 320.118h-161.005v20.548h161.005z" fill="url(#e)"/><path d="m284.209 258.455h-84.605v20.547h84.605z" fill="#6fdd8b"/><path d="m261.715 299.55h-84.606v20.548h84.606z" fill="url(#f)"/><path d="m338.689 217.339h-227.621v20.548h227.621z" fill="#6fdd8b"/><path d="m291.638 155.757h-91.605v20.548h91.605z" fill="#6fdd8b"/><path d="m306.391 237.907h-71.487v20.548h71.487z" fill="url(#h)"/><path d="m338.669 217.339h-53.62v20.548h53.62z" fill="url(#i)"/><path d="m318.449 279.002h-53.621v20.548h53.621z" fill="url(#j)"/><path d="m318.449 196.791h-53.621v20.548h53.621z" fill="url(#k)"/><path d="m177.112 176.223v20.568h26.646v21.039h-33.114v20.548h48.771v20.077h-83.501v-20.548h-24.846v-20.568h40.339v-41.116z" fill="url(#l)"/><path d="m275.78 114.723h-165.098v20.548h165.098z" fill="url(#m)"/><path d="m227.742 422.836-.532-.327-150.9151-92.567v-235.562h2.0671v234.395l149.38 91.646 149.401-91.646v-234.395h2.046v235.562l-.491.307z" fill="#fff"/><path d="m227.743 187.663c-.187.004-.372-.045-.532-.143l-150.424-92.2804c-.1481-.0918-.2703-.2198-.355-.3721-.0848-.1522-.1293-.3235-.1293-.4977s.0445-.3456.1293-.4978c.0847-.1522.2069-.2802.355-.372l150.424-92.28049c.163-.0994.351-.15196.542-.15196.192 0 .379.05256.543.15196l150.403 92.28049c.148.0918.27.2198.355.372s.129.3236.129.4978-.044.3455-.129.4977c-.085.1523-.207.2803-.355.3721l-150.403 92.2804c-.168.097-.359.147-.553.143zm-148.4387-93.3034 148.4387 91.0734 148.459-91.0734-148.459-91.05257z" fill="#fff"/><path d="m228.786 186.64h-2.067v234.989h2.067z" fill="#fff"/><path d="m333.467 176.223h-15.145v20.548h15.145z" fill="#fff"/><path d="m151.774 196.791h-15.145v20.548h15.145z" fill="#fff"/><path d="m173.57 78.0278c2.08 0 3.766-1.686 3.766-3.7657 0-2.0798-1.686-3.7657-3.766-3.7657-2.079 0-3.765 1.6859-3.765 3.7657 0 2.0797 1.686 3.7657 3.765 3.7657z" fill="#fff"/><path d="m343.768 280.844c2.079 0 3.765-1.686 3.765-3.765 0-2.08-1.686-3.766-3.765-3.766-2.08 0-3.766 1.686-3.766 3.766 0 2.079 1.686 3.765 3.766 3.765z" fill="#fff"/><path d="m265.461 369.482c2.08 0 3.766-1.686 3.766-3.766s-1.686-3.766-3.766-3.766-3.766 1.686-3.766 3.766 1.686 3.766 3.766 3.766z" fill="#fff"/><path d="m111.066 262.507c2.08 0 3.766-1.686 3.766-3.766s-1.686-3.766-3.766-3.766c-2.079 0-3.765 1.686-3.765 3.766s1.686 3.766 3.765 3.766z" fill="#fff"/><path d="m151.408 78.0278c2.08 0 3.766-1.686 3.766-3.7657 0-2.0798-1.686-3.7657-3.766-3.7657-2.079 0-3.765 1.6859-3.765 3.7657 0 2.0797 1.686 3.7657 3.765 3.7657z" fill="#fff"/><path d="m136.32 179.989c2.08 0 3.766-1.686 3.766-3.766s-1.686-3.766-3.766-3.766c-2.079 0-3.765 1.686-3.765 3.766s1.686 3.766 3.765 3.766z" fill="#fff"/><path d="m110.905 302.415c1.289 0 2.333-1.044 2.333-2.333 0-1.288-1.044-2.333-2.333-2.333-1.288 0-2.333 1.045-2.333 2.333 0 1.289 1.045 2.333 2.333 2.333z" fill="#fff"/><path d="m207.669 43.3791c1.289 0 2.333-1.0445 2.333-2.3331 0-1.2885-1.044-2.3331-2.333-2.3331-1.288 0-2.333 1.0446-2.333 2.3331 0 1.2886 1.045 2.3331 2.333 2.3331z" fill="#fff"/></svg>