<?xml version="1.0" encoding="utf-8"?>
<!-- Generator: Adobe Illustrator 22.1.0, SVG Export Plug-In . SVG Version: 6.00 Build 0)  -->
<svg version="1.1" id="Layer_1" xmlns="http://www.w3.org/2000/svg" xmlns:xlink="http://www.w3.org/1999/xlink" x="0px" y="0px"
	 viewBox="0 0 138.7 131.7" style="enable-background:new 0 0 138.7 131.7;" xml:space="preserve">
<style type="text/css">
	.st0{fill:none;stroke:#F1B631;stroke-width:3.77;}
	.st1{fill:none;stroke:#F1B631;stroke-width:3.731;stroke-linecap:round;}
	.st2{fill:none;stroke:#FFFFFF;stroke-width:3.731;stroke-linecap:round;stroke-linejoin:round;}
</style>
<title>Satellite Logo</title>
<path class="st0" d="M122.5,35.7c-5,2.3-7.2,8.1-5,13s8.1,7.1,13.1,4.9c5-2.3,7.2-8.1,5-13C133.3,35.7,127.4,33.5,122.5,35.7z"/>
<path class="st1" d="M128.7,80.5c-6.6,28.2-32.1,49.2-62.4,49.2c-35.7,0-64.6-29.1-64.1-64.7C2.7,29.9,31.7,1.7,67,2.1
	c23.9,0.2,44.7,13.5,55.5,33"/>
<path class="st2" d="M73.1,118.4c0.2-7.9-4.4-12.3-4-12.3c14.2-0.2,35-8.2,37.4-24.1c0.4-2.3,0.3-4.7-0.4-6.9
	c0.4-2.8-1.6-3.9-2.2-4.2c-1-0.5-2.1-0.5-3.1,0c-3.4-9.6-1.8-16.6-4.3-24.1C91,30.1,69.5,24,53.9,29c-0.6,0.2-1.2,0-1.5-0.5
	c-1.1-1.7-2.9-3.7-3.2-3.6c-5.7,1.6-10,6.6-11.4,13.6c-8,7.1-13,17.4-13,28.9c0,20.3,15.8,37,35.8,38.7c1.1,0.1-6,1.5-9.9,10.7"/>
</svg>
