<svg width="56" height="56" fill="none" xmlns="http://www.w3.org/2000/svg"><path fill-rule="evenodd" clip-rule="evenodd" d="M45 3a3 3 0 012 1 3 3 0 011 2v38a3 3 0 01-1 2 3 3 0 01-2 1H31a1 1 0 110-2h14l.7-.3.3-.7v-5.2a3.4 3.4 0 01-1 .2H11h-.1c-.3 0-.9.3-.9 1v4l.3.7.7.3h2a1 1 0 110 2h-2a3 3 0 01-2-1 3 3 0 01-1-2V6a3 3 0 011-2 3 3 0 012-1h34zM10 6l.3-.7.7-.3h2.1v32h-2l-1.1.1V6zm36 30V6a1 1 0 00-.3-.7A1 1 0 0045 5H15.1v32h29.8c.7 0 1.1-.6 1.1-1z" fill="#79B8FF"/><path d="M19.5 12a1.5 1.5 0 100-3 1.5 1.5 0 000 3zM21 24.5a1.5 1.5 0 11-3 0 1.5 1.5 0 013 0zM21 31.5a1.5 1.5 0 11-3 0 1.5 1.5 0 013 0zM21 17.5a1.5 1.5 0 11-3 0 1.5 1.5 0 013 0z" fill="#2188FF"/><path fill-rule="evenodd" clip-rule="evenodd" d="M19 41a3 3 0 00-3 3v6a1 1 0 001.4 1l4.6-2 4.6 2a1 1 0 001.4-1v-6a3 3 0 00-3-3h-6zm-1 3c0-.6.4-1 1-1h6c.6 0 1 .4 1 1v4.5l-3.6-1.4a1 1 0 00-.8 0L18 48.5V44z" fill="#2188FF"/></svg>
