<svg width="56" height="56" xmlns="http://www.w3.org/2000/svg"><g transform="translate(5 5)" fill="none" fill-rule="evenodd"><path stroke="#79B8FF" stroke-width="2" stroke-linecap="round" d="M19 14v18M19 8a3 3 0 110 6 3 3 0 010-6zm0 24a3 3 0 11-.001 6.001A3 3 0 0119 32zm.014-1.994c-.018-.96.91-3.943 2.526-5.006 1.025-.675 2.458-1.262 4.466-1.767 2.141-.539 3.23-1.781 3.7-2.944"/><rect stroke="#2088FF" stroke-width="2" x="32" y="34" width="14" height="12" rx="2"/><path d="M35 33.606v-2.723c0-1.997 1.945-3.869 4.01-3.869 1.973 0 3.99 1.782 3.99 3.87v2.722" stroke="#2088FF" stroke-width="2" stroke-linejoin="round"/><path d="M41.001 38.996a2 2 0 11-4 0 2 2 0 014 0z" fill="#2088FF"/><path stroke="#2088FF" stroke-width="2" stroke-linecap="round" stroke-linejoin="round" d="M39.014 42.035v-2"/><path d="M30 14a3 3 0 110 6 3 3 0 010-6z" stroke="#79B8FF" stroke-width="2" stroke-linecap="round"/><path d="M27.765 45.506A23.096 23.096 0 0123 46C10.297 46 0 35.703 0 23S10.297 0 23 0s23 10.297 23 23c0 1.374-.12 2.72-.351 4.027" stroke="#79B8FF" stroke-width="2" stroke-linecap="round" stroke-linejoin="round"/></g></svg>