<svg fill="none" height="48" viewBox="0 0 41 48" width="41" xmlns="http://www.w3.org/2000/svg" xmlns:xlink="http://www.w3.org/1999/xlink"><clipPath id="a"><path d="m0 0h41v48h-41z"/></clipPath><g clip-path="url(#a)"><path d="m19.1128 35.2911c5.3079-.9377 9.6919-1.7136 9.7423-1.7243l.0915-.0194-5.0111-5.9606c-2.7562-3.2783-5.0112-5.9733-5.0112-5.9889 0-.0294 5.1745-14.27868 5.2035-14.32937.0098-.01695 3.5311 6.06257 8.5361 14.73727 4.6857 8.1213 8.5488 14.8174 8.5847 14.8801l.0653.1141-15.9259-.0021-15.92584-.002zm-19.1128-1.8177c0-.0084 2.36124-4.1073 5.24719-9.1087l5.24721-9.0935 6.115-5.1317c3.3632-2.82245 6.124-5.13517 6.1351-5.13938.0111-.00422-.0332.10713-.0983.24745-.0652.14032-3.0532 6.54933-6.6401 14.24213l-6.52153 13.987-4.74228.006c-2.60826.0033-4.74229-.0009-4.74229-.0093z" fill="#24292e"/></g></svg>