<svg fill="none" height="48" viewBox="0 0 191 48" width="191" xmlns="http://www.w3.org/2000/svg"><path clip-rule="evenodd" d="m91.5158 11.5179h-18.4963v24.9676h18.4963v-4.8293h-12.4597v-5.7952h11.4455v-4.8293h-11.4455v-4.6362h12.4597zm-28.9277 0h7.5338s-9.9002 11.1557-10.2865 11.5904c.3863.4346 10.866 13.4255 10.866 13.4255h-7.9201s-6.8094-9.8518-7.8235-11.0592v11.0592h-5.6986v-25.0159h5.6986v9.4655c.9175-1.1108 7.6303-9.4655 7.6303-9.4655zm-19.0758 4.7327c-.8693-.5312-1.8835-.821-2.9942-.821-2.9459 0-5.3606 1.4488-5.3606 4.7811 0 3.3322 2.4147 4.781 5.3606 4.781 1.1107 0 2.1249-.2898 2.9942-.821l1.7385 4.0567c-1.6419.8209-3.6703 1.159-5.7952 1.159-5.9883 0-9.8035-3.4288-9.8035-9.1757s3.8152-9.1758 9.8035-9.1758c2.1249 0 4.1533.3864 5.7952 1.1591zm-35.54391-4.7327s4.49131 13.8602 4.97421 15.309c.4829-1.4488 4.9742-15.309 4.9742-15.309h7.9684v25.0159h-5.5537v-17.1441c-.9176 2.8493-5.4089 17.1441-5.4089 17.1441h-4.2015s-4.2498-14.1499-5.16737-17.0958v17.0958h-5.55373v-25.0159zm145.07261 25.4988c7.679 0 11.832-5.4571 11.832-13.0874 0-7.5821-4.249-12.8944-11.832-12.9426-7.678 0-11.831 5.2639-11.831 12.9426 0 7.7269 4.105 13.0874 11.831 13.0874zm0-20.7178c4.105 0 5.796 3.9118 5.796 7.6786 0 3.8635-1.546 7.8236-5.796 7.8236-4.249 0-5.795-3.9118-5.795-7.8236 0-3.7668 1.691-7.6786 5.795-7.6786zm32.357 11.3489v-16.1299h5.602v25.0159h-7.051s-8.548-14.9226-9.514-16.5646v16.5646h-5.65v-25.0159h7.341s8.354 14.488 9.272 16.1299zm-78.876-6.5529c.29.0735.585.1483.882.2265 3.815 1.0142 8.258 2.4147 8.258 7.4372 0 2.0766-.724 3.9117-2.124 5.264-1.884 1.8834-5.023 2.9458-8.838 2.9458-3.477 0-5.6504-.6278-9.2724-2.0283l1.6419-5.0225c2.6562 1.5454 4.8775 2.2215 7.3405 2.2215 2.125 0 5.264-.6761 5.264-2.6078 0-1.677-1.965-2.1893-4.19-2.7692-.338-.0881-.682-.1778-1.026-.2733-.106-.0312-.214-.0625-.321-.094-3.893-1.1354-8.4197-2.456-8.4197-7.3432 0-4.9259 3.8635-8.0167 10.1417-8.0649 3.429-.0483 5.892.6761 9.079 1.7868l-1.207 5.0708c-2.125-1.159-3.671-1.642-6.278-1.8351-1.739-.0966-3.912.1448-4.878 1.0624-.386.3864-.531.821-.531 1.3039.043 1.594 2.084 2.1119 4.478 2.7194zm22.698 0c.29.0735.585.1483.882.2265 3.767 1.0142 8.258 2.4147 8.258 7.4372 0 2.0766-.724 3.9117-2.076 5.264-1.932 1.8834-5.071 2.9458-8.886 2.9458-3.477 0-5.699-.6278-9.273-2.0283l1.642-5.0225c2.657 1.5454 4.878 2.2215 7.341 2.2215 2.125 0 5.264-.6761 5.264-2.6078 0-1.677-1.965-2.1893-4.19-2.7692-.338-.0881-.682-.1778-1.026-.2733-.106-.0312-.214-.0625-.321-.094-3.893-1.1354-8.42-2.456-8.42-7.3432 0-4.9259 3.864-8.0167 10.142-8.0649 3.477-.0483 5.892.6761 9.079 1.7868l-1.207 5.0708c-2.125-1.159-3.671-1.642-6.279-1.8351-1.69-.0966-3.911.1448-4.877 1.0624-.338.3864-.531.821-.531 1.3039.043 1.594 2.084 2.1119 4.478 2.7194zm-84.6457 10.8992h-13.5704v4.5396h13.5704z" fill="#fff" fill-rule="evenodd"/></svg>