<svg fill="none" height="36" viewBox="0 0 258 36" width="258" xmlns="http://www.w3.org/2000/svg" xmlns:xlink="http://www.w3.org/1999/xlink"><linearGradient id="a"><stop offset="0" stop-color="#f97583"/><stop offset=".201907" stop-color="#ec6cb9" stop-opacity=".75"/><stop offset=".582123" stop-color="#b392f0" stop-opacity=".5"/><stop offset="1" stop-color="#b392f0" stop-opacity="0"/></linearGradient><linearGradient id="b" gradientUnits="userSpaceOnUse" x1="257.836" x2="272.531" xlink:href="#a" y1="34.442" y2="23.0246"/><linearGradient id="c" gradientUnits="userSpaceOnUse" x1="241.836" x2="256.531" xlink:href="#a" y1="34.442" y2="23.0246"/><linearGradient id="d" gradientUnits="userSpaceOnUse" x1="225.836" x2="240.531" xlink:href="#a" y1="34.442" y2="23.0246"/><linearGradient id="e" gradientUnits="userSpaceOnUse" x1="209.836" x2="224.531" xlink:href="#a" y1="34.442" y2="23.0246"/><linearGradient id="f" gradientUnits="userSpaceOnUse" x1="193.836" x2="208.531" xlink:href="#a" y1="34.442" y2="23.0246"/><linearGradient id="g" gradientUnits="userSpaceOnUse" x1="177.836" x2="192.531" xlink:href="#a" y1="34.442" y2="23.0246"/><linearGradient id="h" gradientUnits="userSpaceOnUse" x1="161.836" x2="176.531" xlink:href="#a" y1="34.442" y2="23.0246"/><linearGradient id="i" gradientUnits="userSpaceOnUse" x1="145.836" x2="160.531" xlink:href="#a" y1="34.442" y2="23.0246"/><linearGradient id="j" gradientUnits="userSpaceOnUse" x1="129.836" x2="144.531" xlink:href="#a" y1="34.442" y2="23.0246"/><linearGradient id="k" gradientUnits="userSpaceOnUse" x1="113.836" x2="128.531" xlink:href="#a" y1="34.442" y2="23.0246"/><linearGradient id="l" gradientUnits="userSpaceOnUse" x1="97.8361" x2="112.531" xlink:href="#a" y1="34.442" y2="23.0246"/><linearGradient id="m" gradientUnits="userSpaceOnUse" x1="81.8361" x2="96.5309" xlink:href="#a" y1="34.442" y2="23.0246"/><linearGradient id="n" gradientUnits="userSpaceOnUse" x1="65.8361" x2="80.5309" xlink:href="#a" y1="34.442" y2="23.0246"/><linearGradient id="o" gradientUnits="userSpaceOnUse" x1="49.8361" x2="64.5309" xlink:href="#a" y1="34.442" y2="23.0246"/><linearGradient id="p" gradientUnits="userSpaceOnUse" x1="33.8361" x2="48.5309" xlink:href="#a" y1="34.442" y2="23.0246"/><linearGradient id="q" gradientUnits="userSpaceOnUse" x1="17.8361" x2="32.5309" xlink:href="#a" y1="34.442" y2="23.0246"/><linearGradient id="r" gradientUnits="userSpaceOnUse" x1="1.83607" x2="16.5309" xlink:href="#a" y1="34.442" y2="23.0246"/><g stroke-linecap="round" stroke-width="2"><path d="m257 35v-34" stroke="url(#b)"/><path d="m241 35v-34" stroke="url(#c)"/><path d="m225 35v-34" stroke="url(#d)"/><path d="m209 35v-34" stroke="url(#e)"/><path d="m193 35v-34" stroke="url(#f)"/><path d="m177 35v-34" stroke="url(#g)"/><path d="m161 35v-34" stroke="url(#h)"/><path d="m145 35v-34" stroke="url(#i)"/><path d="m129 35v-34" stroke="url(#j)"/><path d="m113 35v-34" stroke="url(#k)"/><path d="m97 35v-34" stroke="url(#l)"/><path d="m81 35v-34" stroke="url(#m)"/><path d="m65 35v-34" stroke="url(#n)"/><path d="m49 35v-34" stroke="url(#o)"/><path d="m33 35v-34" stroke="url(#p)"/><path d="m17 35v-34" stroke="url(#q)"/><path d="m1 35-.000002-34" stroke="url(#r)"/></g></svg>