<svg fill="none" height="48" viewBox="0 0 77 48" width="77" xmlns="http://www.w3.org/2000/svg" xmlns:xlink="http://www.w3.org/1999/xlink"><clipPath id="a"><path d="m0 0h76.9034v48h-76.9034z"/></clipPath><g clip-path="url(#a)"><path clip-rule="evenodd" d="m41.6346 8v4.3365l-5.3619 1.1536v-4.35791zm11.1508 6.75c-2.0935 0-3.4393.9827-4.1869 1.6662l-.2778-1.3244h-4.6996v24.9082l5.3405-1.1322.0214-6.0455c.769.5554 1.9012 1.3458 3.7811 1.3458 3.8238 0 7.3058-3.0761 7.3058-9.8479-.0214-6.195-3.5461-9.5702-7.2845-9.5702zm-1.2817 14.7185c-1.2604 0-2.008-.4486-2.5207-1.004l-.0214-7.9254c.5554-.6195 1.3245-1.0467 2.5421-1.0467 1.9439 0 3.2898 2.1789 3.2898 4.9773 0 2.8626-1.3245 4.9988-3.2898 4.9988zm25.3996-4.9347c0-5.4687-2.6489-9.7838-7.7117-9.7838-5.0842 0-8.1604 4.3151-8.1604 9.7411 0 6.43 3.6316 9.677 8.8439 9.677 2.5421 0 4.4647-.5768 5.9173-1.3885v-4.2724c-1.4526.7263-3.1188 1.1749-5.2337 1.1749-2.0721 0-3.9092-.7263-4.1442-3.247h10.446c0-.1177.0077-.3848.0165-.6927l.0001-.0005v-.0002c.012-.4187.0262-.9125.0262-1.2079zm-10.5529-2.0294c0-2.4139 1.474-3.4179 2.8198-3.4179 1.3031 0 2.6916 1.004 2.6916 3.4179zm-24.7158-7.3904h-5.3619v18.6918h5.3619zm-11.4497-.0001.3418 1.5808c1.2604-2.3071 3.7597-1.8372 4.4433-1.5808v4.9133c-.6622-.235-2.7984-.5341-4.0588 1.1108v12.6677h-5.3405v-18.6918zm-10.3379-4.6354-5.2124 1.1108-.0213 17.1111c0 3.1615 2.3712 5.49 5.5328 5.49 1.7516 0 3.0334-.3204 3.7383-.7049v-4.3365c-.6836.2777-4.0588 1.2603-4.0588-1.9013v-7.5835h4.0588v-4.5501h-4.0588zm-12.62662 8.9071c-1.13219 0-1.81578.3204-1.81578 1.1535 0 .9097 1.17647 1.3098 2.636 1.8062 2.3794.8093 5.5111 1.8745 5.5243 5.8201 0 3.8238-3.0548 6.0241-7.49807 6.0241-1.83714 0-3.84518-.3632-5.831848-1.2177v-5.0841c1.794418.9826 4.058798 1.7089 5.831848 1.7089 1.19627 0 2.05076-.3204 2.05076-1.303 0-1.0076-1.27531-1.4682-2.81496-2.0242-2.34477-.8468-5.30263-1.9149-5.30263-5.4739 0-3.7811 2.88388-6.0455 7.22038-6.0455 1.77305 0 3.52472.2777 5.29782.9827v5.02c-1.6235-.8758-3.6743-1.3671-5.29782-1.3671z" fill="#24292e" fill-rule="evenodd"/></g></svg>