<svg fill="none" height="47" viewBox="0 0 189 47" width="189" xmlns="http://www.w3.org/2000/svg"><path d="m0 47v-47h189v47z" fill="#0080c4"/><path d="m33.3 21.2c-.4-2.8-1.6-5.2-3.5-6.9-2.7-2.4-5.5-2.9-9.6-2.9h-8.7v24.2h9.5c3.6 0 6-.5 8.7-3 1.9-1.8 3.1-4 3.5-6.7v9.6h13.9v-5.3h-7.6v-4.4h6.6v-5.2h-6.6v-3.9h7.6v-5.3h-13.8zm-13.1 9.1h-2.5v-13.7h2.5c4.6 0 7.1 2.5 7.1 6.8-.1 4.8-2.3 6.9-7.1 6.9zm46.7-4c-.9 1.4-2.9 3.7-6 3.6-4.9-.1-6.8-3.5-6.8-6.5 0-3.5 2.8-6.4 6.4-6.5 4.1-.1 7.1 3.8 7.1 3.8l3.2-5.1s-3.6-4.9-10.3-4.7c-10 .2-12.9 8.6-12.9 12.4 0 8.1 6.3 12.2 11.4 12.7 7.4.7 11.5-4.1 11.5-4.1h.2 5.4v3.6h6v-24.1h-6.5c.1 0-7.9 13.6-8.7 14.9zm9.4.6h-3.2l3.2-5.5zm7.2-15.5h15.9v5.8h-4.8v18.4h-6.2v-18.4h-4.9zm30 0h6.2v24.2h-6.2v-9.2h-6.5v9.2h-6.2v-24.2h6.2v9.2h6.4v-9.2zm57.8 0v13.4l-9.4-13.4h-5.6v8.2c-.6-1.9-1.7-3.7-3.2-5.1-2.4-2.3-5.5-3.6-8.8-3.6-3.5 0-6.5 1.2-9 3.6-2.4 2.4-3.7 5.4-3.7 8.8 0 2.6.6 5 1.9 7h-5.6v-18.9h-6.2v24.2h13.5v-3.2c2.4 2.5 5.5 3.7 9.1 3.7 3.4 0 6.7-1.3 9.1-3.8 1.4-1.4 2.4-3.1 3-5v8.3h6.3v-13.5l9.5 13.5h5.5v-24.2zm-27.1 18.7c-3.4 0-6.5-2.9-6.5-6.8 0-3.6 2.9-6.4 6.5-6.4 3.5 0 6.3 2.8 6.3 6.4.1 4-2.8 6.8-6.3 6.8z" fill="#fff"/></svg>