<svg height="51.069916mm" viewBox="0 0 180.16617 180.9564" width="50.846897mm" xmlns="http://www.w3.org/2000/svg"><g transform="matrix(.26292766 0 0 .26292766 -237.73115 126.95726)"><g fill="#0d2a30"><path d="m956.51758 158.28125c-4.79165.10403-9.5799.68693-12.59375 1.71094-6.258 2.12627-12.71887 7.49452-15.67383 13.02539-2.0113 3.76459-2.24403 5.83051-2.54883 22.64258-.22055 12.16496.0658 19.83587.83399 22.40039 2.57541 8.59791 9.25157 15.27415 18.17187 18.17187 2.8229.917 7.62787 1.30337 13.82617 1.11133 14.9063-.46186 23.36082-5.29026 28.13282-16.06445 1.9472-4.39622 2.32392-7.24812 2.66992-20.21289.4633-17.36059-.62042-24.34611-4.73242-30.46875-3.2546-4.84591-9.59957-9.41665-15.47657-11.15235-3.02345-.89294-7.81772-1.26809-12.60937-1.16406zm1.32422 14.94727c4.27123.12014 8.4846 1.60803 11.30468 4.54882l2.88672 3.00977.28321 16.18555c.321 18.33982-.42181 20.8645-7.06641 24.01757-7.2171 3.42472-16.76398 1.32412-21.14648-4.65429-1.8865-2.57356-2.07032-4.22211-2.07032-18.5 0-13.72515.23423-16.02327 1.89063-18.4668 2.83972-4.18929 8.42638-6.29509 13.91797-6.14062z" transform="translate(68.266318 -39.827305)"/><path d="m1231.5633 196.83742c-8.1658-2.45875-13.3171-8.41445-14.6676-16.95799l-.7978-5.0463h8.2294c8.2239 0 8.2302.002 9.4878 3.03822 2.1945 5.29794 8.5338 6.67703 13.3345 2.90083l2.6201-2.06095.2648-29.68905.2648-29.68905h8 8l.2654 29.44109c.3104 34.43863-.1999 37.70705-6.7649 43.32645-2.192 1.87624-5.7285 3.9336-7.859 4.5719-4.3788 1.31192-16.249 1.40794-20.3775.16485z"/><path d="m1249.5332 158.23828c-8.2863-.008-10.2671.34438-15.498 2.76367-7.4094 3.42686-9.9698 5.76554-13.3184 12.15821-2.4716 4.71853-2.6421 5.96661-3 22.16015-.3045 13.77841-.057 18.26889 1.2578 22.79102 2.5827 8.88395 10.5648 16.28983 20.0586 18.61133 5.7407 1.40379 18.1089.98951 23.6348-.79102 7.6398-2.46164 15.1363-9.92816 17.2715-17.20312 2.1605-7.36117 2.2351-34.54111.1152-41.67969-2.0818-7.01017-7.1373-12.48534-14.709-15.92969-5.5278-2.51462-7.4944-2.87286-15.8125-2.88086zm.2266 15.04688c3.357.0639 6.7229.79924 8.9629 2.18359 5.2539 3.2471 5.8105 5.45634 5.8105 23.10352 0 14.71226-.1517 16.01085-2.168 18.57421-1.1924 1.51582-3.6537 3.37642-5.4687 4.13477-7.4316 3.1051-16.8742.87003-20.3399-4.81445-1.7895-2.93516-2.0195-5.03025-2.0195-18.65235 0-16.9851.6513-19.33788 6.3184-22.68554 2.2005-1.29989 5.5472-1.90761 8.9043-1.84375z" transform="translate(68.266318 -39.827305)"/><path d="m1540.9726 196.34909c-5.7627-1.79838-11.4503-5.85224-14.516-10.34629-2.7152-3.98029-5.1146-11.62077-4.1431-13.19274.3321-.53731 4.096-.97693 8.3643-.97693 7.753 0 7.7619.003 9.191 3.17861 2.4221 5.3821 6.1036 7.32139 13.8988 7.32139 8.0819 0 11.0317-1.87173 11.0317-7 0-4.69079-2.5722-6.34983-14.6786-9.46753-13.9341-3.58837-15.4109-4.21508-20.2634-8.59904-8.6007-7.77014-9.2831-21.75106-1.4831-30.38466 11.5474-12.78166 38.6882-11.18592 47.9567 2.81959 1.4017 2.11821 2.8144 5.48937 3.1393 7.49147l.5907 3.64017h-8.0474c-7.4617 0-8.1819-.18455-9.8944-2.53552-5.6934-7.8157-22.3198-5.95199-22.3198 2.50189 0 4.28819 3.51 6.41343 15.5926 9.44104 12.1723 3.0501 15.5812 4.55779 20.1848 8.92727 3.4116 3.23821 6.2271 10.52791 6.217 16.09682-.017 9.65214-6.4781 18.14981-15.9337 20.95781-6.5217 1.93675-18.8856 1.99967-24.8874.12665z"/><path d="m844.0332 159.16016-.26172 38.75-.26171 38.75h19.19531c22.94362 0 28.41233-1.12219 35.38281-7.25782 8.06979-7.10332 8.88199-9.68479 9.27149-29.48632.27309-13.88379.0239-18.1917-1.27735-22.10938-2.32556-7.0016-7.30716-12.3067-14.73633-15.69726-6.29173-2.87146-6.38246-2.88252-26.8125-2.91602zm16.5 15.5h10.63086c8.82498 0 11.1743.33507 13.81446 1.96679 5.37246 3.32036 6.05468 5.75807 6.05468 21.61719 0 16.01198-.76354 18.1922-7.57226 21.66406-2.56939 1.31016-5.87178 1.749-13.17774 1.75l-9.75.002v-23.5-23.5z" transform="translate(68.266318 -39.827305)"/><path d="m1087.2998 194.58313c-1.6435-6.87947-14.5005-72.45622-14.5005-73.95952 0-1.56987.9755-1.79048 7.9171-1.79048h7.9171l.9752 4.75c.5363 2.6125 2.6821 14.07895 4.7685 25.481s3.9291 20.59527 4.095 20.42938 2.5883-7.91984 5.383-17.231c2.7948-9.31116 6.2095-20.66422 7.5884-25.22902l2.507-8.29963 5.1207.29963 5.1207.29964 7.47 25.25033c4.1085 13.88768 7.5988 25.12142 7.7564 24.96388.1575-.15755 2.3356-11.23045 4.8402-24.60644 2.5046-13.376 4.8024-24.72224 5.1062-25.21388.6663-1.07798 15.1233-1.20985 15.7748-.14389.2522.4125-2.9778 17.9625-7.1778 39l-7.6362 38.25h-9.0375-9.0376l-6.3784-20.5c-3.5081-11.275-6.6472-20.49134-6.9756-20.48076-.3285.0106-2.0246 4.62309-3.7692 10.25-1.7446 5.62692-4.6173 14.84326-6.3838 20.48076l-3.2118 10.25h-8.8472c-8.3489 0-8.8774-.12672-9.3847-2.25z"/><path d="m1369.0375 158.08313.2618-38.75 8-.27383 8-.27383 15.5 24.76424 15.5 24.76423.2674-24.7404.2675-24.74041h7.9825 7.9826v39 39l-8.25-.004-8.25-.004-15-23.94866-15-23.94866-.2678 23.95222-.2678 23.95223h-8.494-8.4939l.2617-38.75z"/><path d="m1453.7993 157.81625v-39.01688l25.75.26688 25.75.26688v7.5 7.5l-17.25.27361-17.25.27362v7.45034 7.45034l15.25.27604 15.25.27605.2938 7.25.2938 7.25h-15.5438-15.5438v8.5 8.5h17.5 17.5v7.5 7.5h-26-26z"/></g><path d="m1060.7993-252.19345v-223.02658l122.75.30726 122.75.30725 10.5 2.62983c50.9104 12.751 88.2509 45.26841 106.5234 92.76423 4.3985 11.43323 8.4331 29.95744 9.1742 42.12275l.6045 9.92184h-37.0898-37.0898l-.577-4.75c-1.9175-15.78461-6.8958-28.35928-15.8179-39.95419-8.9237-11.597-22.3507-20.99953-37.2276-26.06948l-8-2.72633-80.75-.28373-80.75-.28372v149.03372 149.03373h37 37v37 37h-74.5-74.5z" fill="#13a3d7"/><path d="m1265.7993-65.87135v-36.99127l13.25-.6735c7.2875-.37043 16.0992-1.34223 19.5816-2.15957 21.3767-5.01719 42.0781-21.36347 51.7184-40.83796 8.0639-16.29002 7.7732-13.72171 8.1914-72.38322l.3725-52.25h37.0029 37.0029l-.3776 56.75-.3776 56.75-2.5869 10.5c-7.2704 29.50903-19.8883 52.08759-40.7892 72.98848-16.9641 16.96416-35.7096 28.77239-57.8299 36.4285-16.5194 5.71758-27.3928 7.61685-47.4085 8.28091l-17.75.58889z" fill="#13a3d7"/></g></svg>