<svg enable-background="new 0 0 250 250" viewBox="0 0 250 250" xmlns="http://www.w3.org/2000/svg" xmlns:xlink="http://www.w3.org/1999/xlink"><clipPath id="a"><path d="m0 1.3h250v247.3h-250z"/></clipPath><clipPath id="b"><path d="m0 1.3h250v247.3h-250z"/></clipPath><clipPath id="c"><path d="m0 1.3h250v247.3h-250z"/></clipPath><clipPath id="d"><path d="m0 1.3h250v247.3h-250z"/></clipPath><clipPath id="e"><path d="m0 1.3h250v247.3h-250z"/></clipPath><clipPath id="f"><path d="m0 1.3h250v247.3h-250z"/></clipPath><clipPath id="g"><path d="m0 1.3h250v247.3h-250z"/></clipPath><clipPath id="h"><path d="m0 1.3h250v247.3h-250z"/></clipPath><clipPath id="i"><path d="m0 1.3h250v247.3h-250z"/></clipPath><clipPath id="j"><path d="m0 1.3h250v247.3h-250z"/></clipPath><clipPath id="k"><path d="m0 1.3h250v247.3h-250z"/></clipPath><clipPath id="l"><path d="m0 1.3h250v247.3h-250z"/></clipPath><clipPath id="m"><path d="m0 1.3h250v247.3h-250z"/></clipPath><clipPath id="n"><path d="m0 1.3h250v247.3h-250z"/></clipPath><g fill="#822b2f"><path d="m0 178.6v6.1h8.6v22.4h6.6v-22.4h8.6v-6.1m21.7 28.5v-11.4h-11v11.4h-6.6v-28.5h6.6v11.2h11v-11.2h6.6v28.5m5.6 0v-28.5h18.1v6.1h-11.5v5.1h10.5v5.7h-10.5v5.6h11.5v6m-32.3 24 2.8 6.9h-5.7zm-.4-11.7-13.5 28.8h6.8l2.2-5.2h9.9l2.2 5.2h6.9l-13.6-28.8z"/><path clip-path="url(#a)" d="m71.1 225.4c-1 0-1.6 0-2.6.2v7.9c.9.1 1.3.1 2.1.1 3.2 0 5.2-1.5 5.2-4.4 0-2.4-1.8-3.8-4.7-3.8m5.9 22.8-4.9-9.3c-.4 0-.7 0-1.1 0-1 0-1.5 0-2.5-.1v9.3h-6.6v-28.3c2.4-.3 5.1-.5 8.4-.5 8.9 0 12.4 4.3 12.4 9.5 0 3.4-1.8 6.4-4.9 8.2l6.7 11z"/><path d="m114.7 219.7v28.5h6.6v-10.4h9.8v-5.8h-9.8v-6.3h11.5v-6.1"/><path clip-path="url(#b)" d="m208.7 225.4c-1.1 0-1.7 0-2.7.2v16.8c1.2.1 1.7.2 3.2.2 6.3 0 9-3.5 9-8.8-.1-5.3-3.4-8.4-9.5-8.4m-.7 23c-3.4 0-5.2-.2-8.7-.5v-28c3.3-.3 5.6-.5 8.5-.5 11.9 0 17.4 6.2 17.4 14.2 0 8.5-5.3 14.8-17.2 14.8"/><path d="m86.2 219.7v6.1h8.6v22.4h6.6v-22.4h8.6v-6.1m-91.3 0v11.2h-11v-11.2h-6.6v28.5h6.6v-11.4h11v11.4h6.6v-28.5"/><path clip-path="url(#c)" d="m181 225.4c-1 0-1.6 0-2.6.2v7.9c.9.1 1.3.1 2.1.1 3.2 0 5.2-1.5 5.2-4.4 0-2.4-1.9-3.8-4.7-3.8m5.9 22.8-4.9-9.3c-.4 0-.8 0-1.1 0-1 0-1.5 0-2.5-.1v9.3h-6.6v-28.3c2.4-.3 5.1-.5 8.4-.5 8.9 0 12.4 4.3 12.4 9.5 0 3.4-1.8 6.4-4.9 8.2l6.7 11zm-35.3-23.1c-4.5 0-7.6 3.7-7.6 8.8s3.1 8.8 7.6 8.8 7.6-3.7 7.6-8.8-3.1-8.8-7.6-8.8m-.1 23.6c-8.9 0-14.5-6.3-14.5-14.7s5.9-14.8 14.8-14.8c8.8 0 14.5 6.3 14.5 14.8 0 8.3-6 14.7-14.8 14.7"/></g><path clip-path="url(#d)" d="m89.7 99.4v19.3c10.3-.2 20.6-.3 30.7-.2 19.4-8.2 37.7-15.6 58-18.7.1-.2.3-.3.3-.5z" fill="#eff4f9"/><path clip-path="url(#e)" d="m161 112.5c2.7-1.7 3.5-2.3 6.9-3.3.5-.2 2.8-1.6 3.2-1.8.6-.3 1.3-1.9 1.9-2.6 1.6-1.7 2.9-2.7 4.8-4.2.2-.1.4-.4.6-.7-20.3 3-38.5 10.4-58 18.7 5.3.1 10.5.2 15.6.4 10.8-3.9 22.1-4.8 25-6.5" fill="#deeaf3"/><path clip-path="url(#f)" d="m89.7 131.1c10.8-4.1 20.9-8.4 30.7-12.5-10.1-.1-20.4 0-30.7.2z" fill="#deeaf3"/><path clip-path="url(#g)" d="m115.2 144.4c-.4-14.5 9.9-21.6 20.9-25.5-5.2-.2-10.4-.3-15.6-.4-9.8 4.1-19.9 8.5-30.7 12.5v27c9.7 1.4 19 1.9 27.7 1.6-1-2.6-1.8-5.5-2.3-8.6-.3-1.9-.3-3.4-.1-4.8 0-.8.1-1.4.1-1.8" fill="#cee1ee"/><path clip-path="url(#h)" d="m130 176c-.9-.9-2-1.6-3-2.5-3.8-3.4-6.1-6.4-8.7-11.7-.3-.7-.7-1.5-1-2.3-8.7.3-17.9-.1-27.7-1.6v38.2c14-1.1 29.4-3 44.3-5.5.1-1 .2-1.8.2-1.9s.2-4.9.1-5.1c-1.3-2.3-2.3-5.8-4.2-7.6m87.1-28.5c-.4 2.6-1 5.3-2.2 9.3 0 0-1.4 3.7-2 5-.9 1.9-1.4 4.4-2.2 6.9 0 .1-.2.6-.5 1.2 0 0-.2.4-.2.5 3.7-1.4 7.3-2.7 8.2-2.9v-21.7c-.5.6-1 1.4-1.1 1.7m-27.3 21.7c-.8-1.3-1.4-3.8-2.5-4-1 .8-3.5 1.6-5.8 2.2 0 0-.9.7-4.2 1.2l-2.7.4c-1.3.2-2.7.6-4.1.6-.6 0-1.2 0-1.8.1-.3 1.3 0 2.4-1.5 2.8-1.9.5-5.8-1-9.6.8-.7.6-1.2 1.4-1.5 2.1-1.4 3.1-1.6 3.5-2.8 5-.4.5-3.4 3.6-3.8 4-1.4 1.4-2.1 2.8-2.5 4.1 18.8-3.6 35.6-7.9 46.3-12.3-1-2.2-1.9-4.2-1.9-4.3-.7-.9-.8-1.4-1.6-2.7m8.2-9.9c.2 2.3.2 3.7 1 5.4.2.5 1.1 6.5 1.7 8.9l2.7-.9c.1-2.8.3-11.1.3-12 0-.1.1-.6.1-.8 0-.1-.1-.7-.1-1.2-1.8.4-3.8.6-5.7.6" fill="#bbd6e9"/><path clip-path="url(#i)" d="m234.8 32.9c-3.4 4.2-10.5 6.3-14.3 9-1 .7-1.8 1.6-3.2 2.5-.4.3-1.8 1.1-2.8 1.6-.1 0-.6.4-.7.2-.2-.3 1.3-2.1 1.5-2.3 3.9-5 7.5-9.9 8.2-17.5.1-1.7.2-3.1.1-4.4h1.2c4.8.2 11.2.7 11.8 5.4.3 2.5-.8 4.3-1.8 5.5m.1 5.7c-1.4 3.4-6.1 6.3-10 7.6-1.1.4-3.5 1.7-4.2 1.2-.3-.2 1.2-1.5 1.6-1.7 3.4-2.7 7.9-4.8 11.3-7.4.8-.7 1.6-1.2 1.7-1.4-.1.4-.1 1-.4 1.7m-31.2 122.1c-.1.9-.2 9.2-.4 12-1.2.4-2.1.7-2.7.9-.7-2.4-1.5-8.4-1.7-8.9-.8-1.7-.8-3.1-1-5.4 1.9 0 3.9-.2 5.7-.6.1.6.1 1.1.1 1.2zm-56.7 27.7c.4-1.3 1.1-2.7 2.5-4.1.4-.4 3.4-3.5 3.8-4 1.2-1.5 1.4-1.9 2.8-5 .3-.7.8-1.5 1.5-2.1 3.9-1.8 7.7-.3 9.6-.8 1.4-.4 1.2-1.5 1.5-2.8.6 0 1.2-.1 1.8-.1 1.4 0 2.8-.4 4.1-.6l2.7-.4c3.3-.5 4.2-1.2 4.2-1.2 2.4-.6 4.8-1.4 5.8-2.2 1.1.1 1.7 2.6 2.4 4 .8 1.3.9 1.8 1.6 2.7.1.1 1 2.1 1.9 4.3-10.5 4.4-27.4 8.8-46.2 12.3m38-135.4c-.2-.2-1.2-.4-1-1.2.1-.2.6-.4.8-.4 1.6-.3 4.3.5 3.5 2 0 0-1.4 1-1.5 1 0 0-.7-.3-.8-.3-.4-.3-.8-.9-1-1.1m-41.2-16.3c-.4-.3-.7-.6-1-1-1.1-1-1.9-2.7-2.4-4.4-.9-3.4-1.8-2.7.3-4.8.5-.5 1.3-1.1 2.3-1.6.6-.3 1.4-.7 1.9-.8.2-.1.2-.1.5-.1 0 .4.1.9.1 1.5.3 5.5 1.2 9.8 3.5 13.9-2-.9-3.3-1.6-5.2-2.7m-2.7-14.3c1-1.2 3.3-2.6 4.2-3.1.1-.1.2-.2.3-.2-.1 1-.2 2-.3 2.5-.5.2-1.4.5-2.3.8-.5.2-1.2.6-2 .8-.6.1-.1-.5.1-.8m95.8-15.5c.9 2.1 4.2 9.3 3.8 11.3-.2.8-.5 2.9-.8 3.4-.1.2-.7 1.2-1.3 1.1-1.3-.1-1.4-3.9-1.7-5.1-.5-1.5-1.5-2.7-2.8-4.1-.4-.4-1.3-1.1-1.7-1.5-2.8-2.5-6.2-7.5-10.2-8.4h-.1s0 .2.1.2c.2.1 1.1.9 3 2.8 1.1 1.1 2.6 2.6 3.5 3.9 1.1 1.5 3.7 3.9 4.6 5.2.6.9 1.5 2.4 1.7 3.8.1.9.1 1.2-.4 1.3-.3.1-2.6-.8-6.1-1-.3 0-3.2-.3-3.5-.3-4.4-.5-4.1-.3-7.9-1.5-2.5-.8-5.5-1.9-8.3-2.4-.3-.1-3.9-1.3-4.1-1-.2.2 1 .9 1.3 1 1.1.5 4.1 1.6 5.3 2.2 1.5.7 2.8 1.3 4.2 1.8 2.1.8 4 1.6 6.5 2.1-.2 3-.8 8-2 10.1-2.4 4.3-5.7 8.5-9.1 11.7-.7.7-1.4 1.7-2.4 2.6-.9.8-2 2.1-2.8 2.3-.5.1-1.2 0-1.8.1-.8.2-1.5.6-2.2.5s-.9-.7-1.6-1.1c-.8-.4-2.1-.6-3.1-.8-.8-.1-1.1 0-.9-.7 0 0 .1-.1.1-.5.2-2.3.2-4.4.2-6-.1-6.6-4.2-11.8-6.7-16.2-.6-1.1-1.9-3.6-2.9-4.7-1.1-1.2-.4.9-.3 1.6.2.8.9 1.7 1.1 2.3.2.4.3.9.4 1.3 1.3 3.9 4.6 9.1 5.1 13.8 0 .3.1.7.1.9-.3 3.1-.8 6.9-3.6 7.5-.2.1-.4.1-.6.1-4.6 0-8.5-6.3-10.5-9.5-2-3.3-3.5-6.3-4.9-10.6-.6-2-.9-7.7-1.1-9.8 0-.3-.1-2.5-.1-2.8 0-.1-.1-.3-.1-.3-.2 0-.6 1.9-.7 2.5-.4 1.7-.5 5.3-.5 6.7 0 4.1 1.2 8.2 2.9 11.8 1 2.2 3.2 6.5 4.4 8.6.4.6 1.3 1.8 1.2 2.3-.1 1.1-2.1 1-2.8 1.2-3.2.5-7.4.1-11-1-3.6-1-6.9-2.1-9.8-4-.3-.2-.7-.4-.9-.8-3.9-3.1-6.3-10.2-7.1-15.6-.1-.9-.2-2.1-.2-2.3.4-.1.7-.2 1-.3 4.1-1 9.7-4.7 12.8-6.6 1.1-.6 2.1-1.3 3.1-2.1.1-.1.2-.2.1-.2 0 0-.1 0-.2 0-4.5 1.4-10.5 5.1-14.7 6.2-.3.1-1.5.4-2.2.5 0-.4 0-1.2 0-1.4 0-.5 0-.9 0-1.4.5-.3 1-.8 1.6-1.3 3.6-2.8 6-10.9 8.4-14.9 0 0 .1-.2.1-.2s-.1 0-.2.1c-4.3 2-6.4 11-10.2 13.5-3.1 2.1-7.1 3.7-9.2 6.6-.2.3-.8 1.6-1.2 1.7-.2 0-.8.6-1.1.4-1.2-.7-2.2-2.9-3-4.1-1.1-1.8-.8-7.1-.6-9.1.4-3 2.9-6.9 4.3-9.4 0-.1.1-.1 0-.1h-.1c-.6.2-2 1.5-2.2 1.8-2 2.3-4.7 6.2-4.9 9.4-.2 3 .6 9.8 2.6 11.8.4.4.7.8 1.1 1.1 2.4 2.2 3.5 5.4 4.8 8.5.4 1 .8 1.8 1.5 2.8 2.2 3.3 6.4 5.1 10.2 7 3.6 1.8 7.7 3.6 11.7 4.8 2.5.8 5.8 1.6 8.9 2.2 1.1.2 2.1.4 2.7.9.4.3.7 1.8.9 2.5.3.9.6 1.8.9 2.5.7 1.9 1.1 3.6 1.8 5 1 1.8 3.3 2.6 5.4 3.4.3 0 1.6.4 3.1.4 1 0 1.1 1.1 1.1 1.7 0 .8.1 1.3.1 2.1 0 2 .1 2-.1 3.8-.1.4-.5 1.6-.8 2.6-.1.2-.2.3-.2.5-.2 1-.3 2.8-.6 3.8s-1.6 4.2-1.9 9c-.1 2-.8 3.8-1.7 5.7-.4.9-.3 1.4-.7 2.4-.3 1-.5 1.8-.9 2.4-.1.2-.7 1.1-1.1 1.3-1.9 1.5-3.2 2.5-4.8 4.2-.6.6-1.3 2.3-1.9 2.6-.4.2-2.7 1.7-3.2 1.8-3.4 1-4.2 1.6-6.9 3.3-5.9 3.6-46.6 3.5-45.8 32 0 .3-.1 1-.2 1.7-.2 1.4-.2 2.9.1 4.8.6 4.1 1.8 7.8 3.3 10.9 2.5 5.3 4.9 8.3 8.7 11.7 1 .9 2 1.6 3 2.5 1.9 1.8 2.8 5.4 4.3 7.8.2.2-.1 5-.1 5.1s-.1 1-.2 1.9c-14.9 2.5-30.3 4.4-44.3 5.5v10.9h128.5v-39.7c-.9.2-4.5 1.5-8.2 2.9l.2-.5c.3-.6.4-1.1.5-1.2.8-2.4 1.3-5 2.2-6.8.6-1.2 2-4.9 2-5 1.3-4 1.8-6.6 2.2-9.3.1-.6 2-3 2-3 .6-.8 1-1.8 1.7-2.7 0 0 3.1-6.5 3-12.1 0-1 .3-5.7.3-9.7 0-.2.1-.4.1-.7 0-.8-.1-1.5-.2-2.2 0-.1 0-.1 0-.2 0-.2 0-.3 0-.5-.2-1 .1-3.1 0-4-.1-1.2-.5-1.1-.6-2.3-.1-.9-.3-1.5-.6-2.3-.2-.6-.5-1.1-.8-1.6-.1-.3-.1-.6-.1-.7.2-4.3-2.7-9.5-2.8-9.7-1.4-3.2-1.2-3.3-1-7.1-.2-4.7-.9-7.3-1.4-8.5-.2-.1-1.7-3.3-2.1-4.3-.2-.4-.2-.9-.1-1.3.3-1.4 2.7-1.7 3.6-2.4.6-.4 1.3-1.4 1.6-2.2 0-.1 0-.1 0-.2v-1.4c0-.1-.1-.2-.1-.3 0-.2 0-.5 0-.8 0-.1 0-.1 0-.2.8-2.5 1.7-4.8-.8-6.1-1-.5-2.3-.8-2.3-1.8 0-.8 1-1 1.6-1.4 1.5-1 2.6-1.9 3.5-3.4.4-.6.4-2.3.8-2.7.3-.3 1.2-.6 1.7-.9 1.8-.9 3.7-1.6 5.3-2.5 4.4-2.5 9.3-7.4 12.7-10.9 1.7-1.7 4.4-4.9 5.6-7.1 1-1.8 1.9-6.3 2-8.7 0-.6.2-2.5.2-2.6s0-.2-.1-.2c0 0-.1 0-.1.1-1.2 2.9-2.3 8.1-4.2 10.6-1.4 1.8-5.5 6.4-7.5 7.7l-.3.2c.1-.2.2-.4.2-.5.1-.2.1-.5.2-.7.5-2.9 1.8-5 1.8-9.9 0-.5.9-1.3 1.1-1.7 1.6-2.7 1.7-6.3 1.3-9-.3-1.8-2.9-6.4-3.9-7.5-.1-.1-1.6-2-1.8-1.7-.4.2-.3.6-.2.7" fill="#822b2f"/><path clip-path="url(#j)" d="m187.9 77.3c.6-.5.2-3.8.2-3.9s-.5.5-.6.8c-.2.3 0 1.7 0 1.7v.3s0 .1-.1.1-.3.3-.7.6c.1 0-.5 1.7 1.2.4m30.4-7.5c-.8-.7-.5.3-1 .5-.8.5-1.5.2-2.8 0-2-1.7-4.8 1.2-7.3-.2-.2-.3.1-.6.3-.9 2.3-.2.7.5 3.1 0 0 0 1-.1.9-.4s-1.8.4-3.7-.5c-2-.2-.7 1.7-2.2 2.2-.6.2-.1 1.1.4.9s1-.9 2.9-.4c1 1.1 1.5-1.3 2.2.9.2.5.4 0 .4 0-.1-.5.1-.6.3-.9.2.3.4.7.9.8l.3-1.1c.5.6 1.4 1 2.3 1 1.4-.7 3.2-.5 3-1.9m-10.9-11.5c.5.5 1.4.5 2 .1.5-.4.8 0 1.4 0 .6-.1-1.1-1.3-1.3-.8-.1.4-.4.1-.8.3-.6.1-.8-.6-1.2-.8 0-.3.2-.5.4-.7l.2-.2c.5-.4.5-.8.1-1.3-.4.5-.8.4-1.4.4-.7 0-1 .3-1 1 .2.4.8.6.7 1-.3.7-1.2.4-1.6.2-1.2.3-2.4.5-3.1 1.7.4.2.7.1 1-.2l.3-.3c.1-.1.2-.2.3-.2 1.4-.4 2.9 1.1 4-.2m-13.2 1.4c-.5-.1-.7-.3-1.1-.2-.5 0 .8 1.2 1 1.2.3.1 1.6.3 1.7.3 1-.1 1.2-1 1.6-1.6-.6.5-2.1.5-3.2.3m1.3-2.5c-.8-1.1-2.1.1-3 .5.5 1.8 1.8-.5 3-.5m14.3 5.3c-.2.9-.4 1.7.1 2.6.3.2 1.7 1.4 3.9 1 2.3.3.9-3 4-2.3.9.2.3-.6 1-1.1 0 0 .3-.3 0-.4s-.6-.2-1.1.5c-1.8 0-3.9-1.7-5.2.2.7.4 1.7-.9 2.5.1.1 1-.7 1.9-1.5 1.9-1 0-1.2 0-2.1-.4-1.3-.4-.5-1.3-.6-2.1.6-1.1 1.9-.7 2.8-1.4-1.5-.1-3.3 0-3.8 1.4m-16.5 9c.1 0 .2-.1.3-.1-.1-.2-.4-.4-.6-.5l-2.2-1c-.1-.1-.3-.2-.4-.3 0-.1-.1-.3-.1-.4-.1-.1-.1-.2-.2-.3v-.1h-.1s-.1-.1-.1-.1v-.4c.5.2 1.5.6 1.9 1h.3c-.3-.7-1.2-1-1.6-1.6-.3-.4-.5-.9-.8-1.3v-.2c.5.1.9.4 1.2.6h.3c-.2-.3-.8-1.3-1.3-1.8.1-.1.2-.2.2-.4.1-.5-.3-1.5-.6-2-.4.2-.9.8-1.4 1.3v.1c.2.6.1 1.4-.1 2 .1 3.4 2.8 5.2 4.9 6.1.4.1.8.2 1.2.2.2 0 .3 0 .5.1-.1-.2-.2-.3-.3-.4-.4-.2-.6-.4-1-.5" fill="#fff"/><path clip-path="url(#k)" d="m199.3 55.1-.9-.6c-.8-.6-1.5-.8-2.6-1-2.5-.3-3.9.6-5.4 2.3l.3.2c.6-.9 1.2-1 2.2-1.5.6-.1 2.1-.5 2.6.3-1 .2-2.6.4-3 1.5.6-.5 1.7-.7 2.5-.5.5.2 1 .6 1.5 1 .1.1.3.2.4.2-.1 0-.2.1-.2.1-.5 1.2 1.2 1.2 1.2.3.5.2 1.1.2 1.7-.2.8-.7.1-1.6-.3-2.1m-13.5 1.4c-.1-.1-.1-.4-.2-.5-.6-.7-1.3-.9-2-1.4-.6-.4-1.1-1-1.7-1.4-1.7-1.3-3.6-3-5.8-3.5-.4-.1-1.5-.1-1.6 0-.4.4.6 2.6.7 3 .1.3 0 .7.1 1.1.4 1.6 1.6 4.1 2.1 5.6.4 1 .3 1.7.8 2.2.7.7 2.9 1.2 4.3 1.4.3 0 1.4.2 1.5.1.2-.1.9-1.6.6-1.9-.4-.6-2.3.1-3.2.1-1.3-.1-.9-.6-1.3-1.9-.5-1.4-1.7-2.4-2.2-3.8-.1-.4-.2-1-.3-1.6-.1-.2-.7-1-.3-1.3.2-.2 1.2 1 1.4 1.4.1.2.4 2.2.7 2.2.3-.1.3-2.3.8-2 .2.1-.2 2 .3 2.3.3.2.7-.1.9-.5.2-.1 0-.7.3-.8.6.1.3 2.7 1.3 2.3.4-.2 0-1.2.3-1.3s.8 1.5.8 1.7v.7c.7.5.6-1.4.8-1.5.1 0 1.5 1.2 1.5 1.2.1.4-1 .8-1.1 1-.2.7.8 1.4 1 1.4.5-.1.7-1.3 1-1.4.2-.1.4-.6.2-.9-.3-1.4-1.1-1.4-1.7-2m-40.2 96.9c-.6-.2-.5.5-1 .6l-.3.1c-.6.2-.6.2-.3 1.1 1.2.6 1.7 0 2.1-1.2 0 0 0-.4-.5-.6m-4.1 2.2c-.6.3-.6.7-.6 1.3v.4c.4.3.6.4 1 .2l.2-.1.2-.1c.3-.2 0 0 .6-.4.6-.3.3-.6-.3-.9-.3-.2-.7-.3-1.1-.4m9.1-1.3-.2.3-.2.3c-.1.2-.3.4-.5.6l.7.6c1-.5 1.5-1.2 1.6-2.3h-.1c-.7 0-1 .2-1.3.5m12.9-4c-1.1.2-2.1-.3-2.8.8l.4.4c1 .6 1.9 0 2.8-.3.1-.5-.1-.7-.4-.9m-4 3.2c-.2.4-.1.6.1 1l.2-.2c.6-.4 1.8.2 1.9-1.2-.6-.2-1-.5-1.7-.3-.2.2-.4.4-.5.7m-.2 2.2c-.7-.1-1.4.4-1.1.9.5.8 1.3.4 2.1.3l.1-.3c-.2-.1-.3-.2-.6-.3s-.4-.2-.5-.6m-3.6-4.4c-.3.6-.6.8-1.2 1.1l-.4.2c-.5.2-.6.3-.6.6v.2l.3.2.2.2c.1-.2.3-.3.6-.3h.4.1.3c.4-.7 1.3-.8 1.3-1.4 0-.1 0-.2-.1-.3-.1-.4-.7-.5-.9-.5m-24.4 4c.7 0 1.2-1.4 2-1.7.9-.2 1.6-.7 2.4-1 .3-.5.7-.6 1.1-.6.6 0 1.3.3 2.1.3.3 0 .5-.1.8-.2h.1c.6 0 1.2-.1 1.6-.2l.3-.1-.1.3c-.2.5-.5.9-1 1.1-.2.2-.5.2-.8.2-.5 0-1.1-.2-1.5-.2-.5.7-1.8.7-1.8 1.6 0 .1 0 .2.1.4s.3.3.6.3c.1 0 .2 0 .4-.1.8-1.8 4 0 5.1-2.3.7-2.1 3.4-3.5 4.2-3.8v-.1c0-.2-.4-.5-.4-.9 0-.2.1-.3.2-.5l.4-.3h.1c.7.3 1.2.8 1.8 1 .3 0 .5.1.7.1.9 0 1.3-.5 1.3-.8s-.3-.5-.8-.5c-.1 0-.1 0-.2 0-.3-.1-.8-.1-1.2-.3-.1-.1-.3 0-.3-.2 0-.1 0-.1.1-.2.5-.2.9-.3 1.4-.5 2.6-1 1.2-1.7 2.1-2.5.2-.2.6-.3.9-.3.4 0 .9.1 1.3.1.5 0 1-.1 1.4-.6.2-.2.4-.4.3-.7 0-.1 0-.3-.1-.4s-.1-.1-.2-.2v-.1-.1c.2-1.2.6-1.6.5-2.4 0-.3-.4-.4-.6-.8-.9.5-1 .7-1.6 1.3.1.8.2.9.4 1.6v.2h-.2-.1c-.2 0-.2 0-.4.2l.2.8-.2-.1c-.3-.1-.5-.1-.7-.1-1 0-1.5.7-2.1 1.3-.6.8-1.2 1.7-2.5 1.7h-.2c-.2.5-.4.7-.9.9l-.4.2c-.5.2-1 .4-1.1 1v.1h-.1c-1.5.2-1 1.4-1.5 2.4v.1h-.1c-.2 0-.4 0-.5.1l-.7.5c-1.1.2-2.6.7-3.9.7-.5 0-.9-.1-1.3-.2-.1.1-.2.3-.4.3-.1 0-.1 0-.2 0l-.3-.1c-.2-.1-.3-.1-.5-.1-.1 0-.3.1-.4.1-1 0-.9.7-1.5 1.4-.3.4-.6.5-.8.6-.4 0-.6-.4-1-.7s-.7-.5-1.1-.5c-.2 0-.4 0-.6.1-.6 1-1.5 1-2.1 1.6 0 0-.2.4-.2.7 0 .1 0 .2.2.2.1 0 .2 0 .5-.1.3-.2.9-.6 1.5-.7h.1c.1.1.2.2.2.3 0 .4-.4.9-.4 1.3.2.1.4.1.6.1m7.5-22.2c-1 0-1.7.4-1.7 1.1 0 .2.1.3.1.5l.3-.2c.3 0 .4 0 .7-.1.7-1 2.8-1.7 3.2-2.2 0-.2-.1-.4-.1-.6-.1-.3-.2-.4-.5-.4-.1.4-1.1 1.8-1.6 1.9-.1 0-.2 0-.2-.1zm-1.1-2.3c-.4.3-.6.5-1 .8.1.2.6.4.9.4.5-.1 1.3-1.1 1.3-1.4-.2-.1-.3-.1-.5-.1s-.4.1-.7.3" fill="#fff"/><path clip-path="url(#l)" d="m127.8 149.4v.1c.2.2.4.4.6.3.1 0 .3 0 .5-.1.1 0 .2-.1.2-.1.1 0 .2.1.3.1.4.3.8.4 1.2.4s.8-.1 1.2-.2 1.2-.2 2.2-.3l.6-.1c.6-.1 1.1-.3 1.5-.7.4-.2.8-.3 1.2-.3.8 0 1.6.3 2.3.4 1-.2 2.4-1.1 2.3-2.2 0-.2-.1-.3-.1-.5v-.1l.1-.1c.2-.2.4-.6.6-.9l.2-.3c.2-.2.5-.4.8-.4h.3.2c.9 0 2.4-1.8 3.3-2 .8-.2.9-.5 1.1-1l.2-.2c.2-.4.6-.5 1-.5.1-.7.4-.9 1.2-1.2.8-.4 1.1-.5 1.4-1.3-.2-.6-.4-1.7-.9-1.7-.1 0-.2 0-.3.1-.2.4-.2.8-.2 1.3-.2.7-.5 1.2-1.3 1.2-1.5 1.3-2.8 2-4 3.5l-.1.1h-.1c-.2 0-.3 0-.4 0-1.6 0-2.8 1.9-4.2 2.2h-.1c-.1-.1-.1-.2-.1-.3v-.1-.1c0-.1 0-.2 0-.3.1-.3.3-.6.6-.6l.3-.2c.6-.2.7-.5.8-1.1-.1-.1 0-.1-.2-.1-.4 0-1.4.5-4.3 2.3h-.1-.1c-.2-.2-.2-.4-.4-.6-.1-.2-.2-.2-.3-.3-.4.1-.7.2-.9.4h-.1-.1c-.4-.2-.7-.3-1-.3-1.3 0-1 2-2.6 2.1-.2 0-.4 0-.6-.1-.4-.2-.5-.4-.5-.7 0-.4.2-.7.2-1 0-.1-.1-.2-.6-.2h-.3c-.2 0-.2.1-.4.2l-.5.2c-.3.2-.6.4-.7.9-.6.6-1.9.3-1.8 1.3v.2c.1.2.3.3.6.3h.2c.2-.1.6-.4 1-.4.2 0 .5.1.6.4l.4.1.6-.1c.3-.3.6-.5 1-.5.7 0 1.3.4 1.9.4.4 0 .7-.2 1-.7l.1-.1.1.1c.2.1.4.2.5.2.4 0 .7-.5.9-.8.1-.2.2-.3.5-.4 1.5.2 3.1-.2 4.5 1v.1c0 .9-1.5 1.1-2.1 1.3h-.1l-.1-.1c-.2-.4-.5-.4-.7-.4s-.3.1-.5.1l-.3.2c-.1 0-.3.1-.4.1-.2 0-.4-.1-.6-.2-1.1.2-1 .7-1.8 1.4-.2 0-.3.1-.5.1-1 0-1.5-.7-2.5-.6-.2 0-.4 0-.6.1-.4.5-.8.6-1.3.9h-.1c-.9-.1-1.5 0-1.4.4m-1.2 5.3c0-.4-.3-1.1-.4-1.5l-1.4.9c-.2.7-.7 1 .1 1.6l.3-.3c.1 0 .3.1.4.2.5-.1 1-.3 1-.9m-1.5-3.3.3.2c.4.3.8.4 1.2 0 0-.5-.2-.7-.6-1l-.3-.2c-.5-.3-.6-.5-.5-1-.8-.2-1 .2-1.5.5-.2.1-.3.2-.4.2-.2.9-.5 1.3-.2 2.3l1-.9c.4-.4.6-.4 1-.1m-.8-4.1c.5 0 .8.4 1 .4.2-.3.4-.4.4-.4 0-.1-.2-.1-.2-.3-.1-.3-.2-.5-.2-.8 0-.2 1-1.2-.2-.7-.1.1-.9.3-.9.3-1.3.4-1.3.7-2.2 1.7-.1.1-.1.1-.1.1s.1.1.3.2h.3c.1 0 .2 0 .3-.1h.1s1.3-.4 1.4-.4m.6-4.9-.1.1c-.6.1-1.2.4-1.6.8l-.5.5c.1.3.2.4.3.7.1.3.1.5.7.2.4-.2.3-.4.3-.4s.6-.5 1.2-.5c.2 0 .6-.2.6-.2.3-.3.3-.1.4-.5l.1-.4c0-.2.3-.7 0-.7h-.7c-.3.1-.5.1-.7.4m1.3-3.3-.2-.3c-.3-.4-.5-.6-.9-.6-.1 0-1.5 1.6-2.2 2.3-.2.2-.5.4-.7.7-.1.1-.1.1-.3.2l-.3.1c-.4.3-.5.4-.5.7l1.2-.2c1.4-1.1 3.4-1.1 3.9-2.9m14.5-5.1c-.7.5-1.1 1.8-2.2 2.2l.7.5c1.5-.3 3.2-.3 3.8-1.7l.7-1h.1.2c.2 0 .2.1.2.2l.2.1c.3-.1.2-.2.2-.4 0-.1 0-.2-.1-.4v-.2c-.5-.3-.9-.4-1.2-.4-.7 0-1.9 1.4-2.1 2.3v.1h-.1c-.1 0-.2 0-.2 0-.3 0 0-.3-.2-.4v-.7zm-4.3-4.7c.8-.5 1.9-.7 2-1.2-.2-.2-.5-.3-.8-.3-.6 0-1.3.5-1.3 1.2 0 .1 0 .1.1.3zm-13.1 7.4c0 .1 0 .2-.1.3-.2.5-.4 1-.4 1.3.3-.1 1.2-.7 1.2-1l.1-.3c.1-.3.4-.6.8-.7h.1.2c.4 0 .8-.2 1.1-.4l.4-.3c.5-.3.9-.6 1.4-.6h.2c.3.2.5.3.7.3s.4-.1.6-.3l.3-.3c.3-.3.5-.5.8-.5.2 0 .4.1.7.3.8-.3 1.1-.6 1.6-1.2l.3-.6h.1.1c.3 0 .4.3.4.5v.3c0 .3.1.5.3.6.1 0 .2.1.3.1.2 0 .3-.1.5-.3s.3-.3.5-.5c-.1-.1-.2-.2-.3-.4 0-.2.1-.4.3-.5.2-.2.3-.3.3-.5 0-.1 0-.1 0-.2-.3-.1-.8-.3-1.3-.3-.4 0-.7.1-.9.4h-.1c-1.3.4-2.1 1.9-3.7 2h-.1c-.6-.4-1.2-.5-1.6-.5-.8 0-1.4.4-1.9.8l-.7.6c-.2.2-.5.4-.7.5-.4.3-.9.3-1.3.3-.1 0-.3 0-.4 0h-.1c-.3 0-.4.1-.4.1 0 .2.7.4.7 1m1.1-3 .5-.3c1.1-1.2 2.6-1.5 3.9-2.2h.1.1c.3.1.5.2.6.1.5 0 .9-.4 1.5-.5.2 0 .5.1.8.3.2.1.4.1.6 0 .6-.1 1.1-.5 1.5-1.1l.2-.3c.1-.1.3-.2.2-.5-.2 0-.6.3-.9.3-.1 0-.2 0-.3-.1-.1-.1-.1-.2-.1-.2 0-.3.3-.5.7-.7.8-.3 1.8-.9 1.7-1.1 0-.1-.1-.1-.4-.1s-.7.3-1.1.4c-.2 0-.3.3-.5.3l-.3.1c-.2 0-.3-.1-.4 0-.8 0-.6.8-1 1.5l-.1.1h-.1l-.2-.1c-.2 0-.3 0-.4 0-2.7 2-5.2-.5-7.2 3.3v.1c-.2.3.2.6.6.7m11.1 1.7c-.1 0-.2-.1-.3-.1s-.2 0-.3.1-.1 0-.1.1c-.1 0-.1.1-.3.1h-.1c-.1 0-.2-.1-.3-.2l-1.1 1.1c-.6.1-1.3.5-2 .5-.3 0-.6-.1-.9-.3-.2-.1-.4-.1-.6-.1-1 0-1.5.8-2.6 1.2.1.4.2.5.4.5.1 0 .3 0 .4-.1l.5-.2.1.1c.1.1.1.3.2.4 0 .3-.2.5-.4.7l-.3.3c-.3.3-.4.5-.4.8v.1c.1.1.2.1.3.1.2 0 .4-.2.7-.5l.3-.3c.1-.1.2-.2.4-.2 1.1-.2 1.6-.7 2.6-1 0-.1 0-.2 0-.3 0-.2 0-.4.2-.6.1-.2.4-.2.6-.2h.5l.7.1c.2 0 .5.1.7.1.4 0 .7-.1 1-.3l.1-.1.1.1c.3.2.5.3.8.3.2 0 .4-.1.6-.1.5-.2.7-.2 1.1-.2h.5c-.3-.4-.6-.6-1.2-.6-.2.1-.3.2-.4.2-.4 0-.4-.3-.6-.6-.4-.6-.6-.8-.9-.9m23.3 11.5c-.2.1-.3.3-.5.4-.3.2-.4.2-.7.1.1.6.2.9.9 1 .4.1.6 0 1.1.2.1-.2.3-.4.5-.6.1-.2.3-.4.3-.7-.6-.7-1-.8-1.6-.4m2.4-6.8c-.2-.6-.3-.7-.9-.7l-.7.1c-.1 0-1.1.6-1.2.6l-.3.5c-.2.3-.4.7-.4 1.1 0 .2.1.3.1.5l.1.1v.1c-.3.4-.8.2-1 .5v.2c0 .2.1.3.4.5l.4.3-.1.1c-.4.4-.9.4-1.3.4-.3.1-.3.2-.3.3 0 .2.3.6.5.8.3-.2.6-.3.9-.3.2 0 .4 0 .5.1.9-.2 1.3-.5 1.3-.9 0-.2-.1-.4-.3-.7-.2-.4-.5-.7-.5-1.1 0-.3.1-.5.4-.8 0-.2.1-.4.4-.4l.4-.3c.3-.1 1.6-.7 1.6-1" fill="#fff"/><path clip-path="url(#m)" d="m137 140-.1.1-.9-1.1c-.2 0-.3-.2-.5-.2-.9 0-1.7.4-2.1 1.1l-.1.1-.1-.1c-.1 0-.2-.1-.3-.1-.3 0-.6.3-1 .4h-.1-.1c-.2-.2-.4-.2-.6-.2-.3 0-.7.3-1 .7-.2.2-.4.3-.5.3s-.3 0-.4-.1c.3.9.9.9 2.1 1.1.8-.1 1.9-.4 2.3-1h.1.1c.7 0 1.4.5 1.9.5.2 0 .5-.1.7-.3l.1-.1h.1.3c.4 0 .7-.1 1-.3l.4-.2c.2-.1.5-.2.7-.3.3 0 .5.1.8.4.2.1.5.1.8.1.7 0 1.4-.3 1.9-.5l.3-.2c.3-.4.6-.8.8-1.3v-.1h.1.2c.5 0 1.4-.2 1.9-.3h.3c1.1-.3 2.4-1.6 2.6-2.3 0 0-.7.1-1.1.1s-4.1.9-6.3 2.9c-.4.3-.8.4-1.2.4-.6 0-1.1-.1-1.6-.1-.6.1-1 .2-1.5.6m24.6 2.6-.4-.1c-.5-.1-.4-.1-.9.3-.1.2-.1.4-.1.5 0 .3.1.4.6.7h.1v.1s.1.1.1.3-.1.6-.5.9c.2.6.4.7.7.7s.4-.1.8-.4c.2-.1 0-.2.2-.3.1-.3.2-.5.2-.7-.1-1 .2-1.9-.8-2m-12.9-7.8c1-.5 2.8.1 2.7-1.8-1.3-.9-2.8-.1-3.3 1-.2.4 0 .7.3.9zm-2.2-1.6c1.1-.3 1.5-1.9 1.2-2.3-.9 0-.9.1-1.5.6l-.2.2c-.3.2-.3 0-.5.3l-.2.5.2.3c.1.5.4.7 1 .4m-4.8-2.9c0 .5.4.5 1.1.7.3.1.4.2.5.4.5-.7.8-1.1 1.5-1.6-.2-.2-.5-.2-.8-.2-.7 0-1.6.4-2.3.5zm1-2.7c0-.2-.1-.3-.2-.4l-.2-.2s-.1-.1-.2-.1h-.1c-.1 0-.1 0-.2.1l-.1.1h-.1-.1c-.1 0-.2 0-.3 0-.6 0-1.6 1.8-1.9 2.4h.4c1-.1 2.4-1.3 3-1.9m3.7 1.2c.2 0 .4.1.6.1.5-.2.5-.7.5-1.2v-.3c.1-.3-.4-.7-.7-.5-.5.2-.9.7-1.1 1.2l-.1.4-.1.3c.4 0 .5-.1.9 0m17.5 17.5c-.1.4-.3.6-.6.7.3.2.6.4.9.4s.4 0 .5-.6c0-.1 0-.1 0-.2 0-.3 0-.7.1-1s.2-.7.6-.9l-.5-.6c-.8.1-1 .3-1.1.7v.6.4c.1.1.1.2.1.5zm-2.5 1.8-.2.2-.2.3c-.2.4-.2.6-.6.7.1.2.2.2.5.2h.1.2c.7-.3 1.6-.6 1.5-1.2 0-.1 0-.2-.1-.3-.2-.1-.4-.2-.5-.2-.3 0-.5-.1-.7.3m-11.6-17.9c.4-.3.7-.5.7-1-.4-.6-1-.6-1.5-.2-.5.3-.8.7-1 1.2l.7.4c.4-.1.7-.1 1.1-.4m2.5 1.9c.1.8.3 1.4 1.3 1.5.2-.7.1-.5.8-.8l.4-.1c.2 0 .5-.2.6-.2.3-.2.5-.9.5-1.2-1.4-.6-2.7-.3-3.6.8m.7 5.4.4-.4c.5-.5 1.8-.1 1.9-1.5-1-1.1-2.5-.2-2.8.8.7.5.1.8.5 1.1m6.3 12.2c-.8-1.1-2.1-.3-2.5.4 0 .5.2.9.8.9.4-.5 1.4-.1 1.7-1.3m-2.6-2.4c0-.1-.1-.3-.1-.5-.4-.5-1.2-.2-1.9-.4-.3.2-2.4 1.2-2.3 2.6 0 .2-.2.2 0 .5v.1l-.1.1c-.4.6-1.1.7-1.7 1h-.1c-.4-.2-.7-.3-.9-.3-.7 0-1.1.5-1.4 1l-.2.3-.1.2c-.3.3-.4.4-.6.4-.4 0-.2-.3-.5-.6-.2.1-.7.3-.7.6v.1l.3.2c.1.3.4 1 .9 1h.2c.2.1.3.1.5.1.8 0 .9-1 1.4-1.6h.1.1.3c1.7 0 2.1-1.1 3.9-1.4l.4-.4c-.2-.5-.1-.8-.4-1.1v-.1-.1c.1-.6.8-.7 1.2-.8.2-.1.3-.2.4-.3 0-.3.2-.5.4-.5h.1.3c.2-.1.3-.1.5-.1zm4.4-26.6c.2-.2.4-.4.7-.6h.1c.1 0 .2-.1.4-.1.9-.3 1.4-.5 1.7-1.4-.1-.2-.1-.2-.2-.2h-.1-.1c-.1 0-.2 0-.2 0-.9.6-2.3 1.3-2.5 2.3.2 0 .2.1.2 0m4.5 5.4c.3-.5.3-.7.4-1.2v-.4c-.2-.2-.4-.2-.5-.2s-.1 0-.1 0c-.6.6-1.1 1.4-1 2.5 0 .7 0 .5.2 1l.3-.3c.1-.9.3-.7.7-1.4m-6.8 12.1c.2-.2 0-.3.4-.5.3-.2.4-.4.8-.5-.1-.1-.2-.2-.3-.3l-.2-.2c-.2-.1-.4-.2-.6-.2-.6.2-1 .5-1.3 1-.2.3-.2.3-.3.4s-.1.2-.3.3c.5.4.8.6 1.1.6.2-.1.4-.2.7-.6m-2.8-3.3.2.3c.1.1.2.3.3.4.5.5.5.2 1.1.2 0 0-.2-.4.1-.8.2-.3.3-.6.6-.9l-.2-.2c-.4-.6-.7-.8-1.3-.5-.3.5-1.1.6-.8 1.5m-4.2-5.8c-.2.3 0 .5.3.7l.3-.1c.9-.4 2.5.1 2.4-1.4-1.2-.7-2.5 0-3 .8m1.5-3.5c.5-.3.8-.5.8-1.1-.5-.6-1.1-.6-1.7-.2-.5.3-.9.8-1.2 1.4l.8.4c.5-.1.8-.2 1.3-.5m3.9 2.7c.1-.4.1-.3.5-.5h.3c.1 0 .3-.1.4-.1.2-.1.3-.5.3-.7-.9-.3-1.7-.2-2.3.5.1.4.2.8.8.8m7.9 3.2c.3-.2.4-.6.4-.9-1-.4-2.1-.3-2.8.6.1.6.2 1 1 1.2.2-.5.1-.4.6-.6l.3-.1c.1-.1.4-.2.5-.2m-7.1-2c-.3.5-.9.6-.7 1.2l.2.2.3.3c.4.4.4.2.9.2 0 0-.2-.3 0-.6s.3-.5.5-.7l-.1-.2c-.3-.5-.6-.7-1.1-.4m3.3 3.8-.1-.9c0-.5-.5-.5-.7-.4 0 .4-.1.4-.5.5l-.2.1c-.1 0-.2 0-.3.1-.2.1-.3.3-.4.5.7.6 1.6.3 2.2.1m-.6 2.8h.2c.3-.3 1.9.2 1.5-.9-.4-.6-1.2-.2-1.8-.1-.2.2-.2.8.1 1m10.9-18.7c-.1.2-.2.4-.5.4-1.5.9-2.1 1.1-2.1 1.1 0 .1-.2.7-.2.8l-.5.4c-.1.3-.2.5-.2.7 0 .1-.2 0-.2.2v.1c0 .4-.5.5-.7.7l-.6.3c-.4.3-.7.6-.7.6l.4.3s1.5-.6 2.6-.9c.4 0 .5-.6 1-.8h.1c.2.1.1.2.2.2 0 .1 0 .1.1.2l.1.3v.1c.1.4 1.6 1 2.1 1.1.3.1.6.1.8.1 1.1 0 1.8-.6 2.2-1.6-.3-.1-.5-.1-.7-.1s-.4.1-.7.2-.5.3-.9.3c-.2 0-.4-.1-.7-.2l-.1-.1.1-.1c.7-1.3 1-1.4 2.5-1.8.8-.1.8-.7.8-1.4-.2-.1-.5-.1-.7-.1-1.1 0-1.7 1.2-2.8 1.8-.1 0-.1 0-.2 0-.3 0-1-.2-1.1-.7 0-.1 0-.1 0-.1.1-.4.7-.7 1.2-1.2.6-.5 1.1-1 1.1-1.2 0-.1-.1-.1-.2-.2-.1 0-.2-.1-.2-.1-.1 0-.2 0-.3 0-.3 0-.6.2-.8.5z" fill="#fff"/><path clip-path="url(#n)" d="m163.8 116.4h.5.1c.2 0-.1.3.2.5h.1c.3 0 1-.6 1.6-1.1.1-.1.3-.1.4-.1.3 0 .5.3.6.3l.1.1v.1c-.3.9-.3 1.5-1.4 1.9l-.4.4c0 .2-.1.6-.3.9 0 0-.4.3-1 1-.6.6-1.2 1.4-1.1 1.6.3 0 1.3-.5 2.1-1 1.7-.3 1.3-2.2 2.3-3.2l.1-.1 1.7-1.5c0-.1.1-.3.2-.4.3-.2.5-.4.7-.8v-.1c0-.4 0-1.3-.4-2v-.1-.1c.1-.2.3-.3.5-.3l.5-.3c.3 0 .5-.2.7-.4.2-.3.4-.3.3-.6 0-.3-.3-.6-1.1-.6h-.5c-.1.1-.2.2-.3.2-.2.3-.3.5-.7.7h-.1-.1c-.3 0-.2.5-.4.6-.4.2-.4.1-.4.4 0 .4-.2.6-.2.6l.4.9c-.1.2-.2.5-.5.5-.2 0-1.2-.7-1.2-.4-.4 1.3-1.9 1.3-3 1.4-1.2.2-1.9.2-1.8 2.1 1.2.1 1.1-.4 1.8-1.1m3.9 31c-.4-.3-.9.2-.9.2-1 .6-2.1 0-1.9 1.7 1 .5 1.5-.5 2.2-.8l.2.2c.3.2.5.2.9 0l-.1-.5s-.1-.6-.4-.8m-4.3 5.4h-.3c.2.5.4.7 1 .8.4.1.5 0 .8.3l.2-.1c.4-.3.5-1 .5-1.4-1-.4-1.3.4-2.2.4m-29.4 4.2c.3-.5.4-.6 1-.3 1-.6.5-1.2.7-1.8l-.4-.2c-.7 1.7-3 .5-4.1 2.3-.3.9-.1 2.2.3 2.9l.8.2c.7-.9-.2-2 .4-2.5.8.3 1.2-.3 1.3-.6m-7.2.2-.2.2c-.2.2-.3.3-.5.5.4.3.6.4 1 .1.2-.1.3-.3.6-.3.4-.2.7-.2.5-.8-.6-.4-1-.1-1.4.3m9.9 1.1h.3l.3.1c.4.3.2.4.2.6h.9c.3-.2.4-.5.4-.8 0-.1 0-.2 0-.3l-.1-.2v-.2c-.2-.1-.5-.1-.7-.2l-.5-.2c-.5-.2-.8-.3-1.3-.3l-.2 1.2c.1.2.3.3.7.3m-1.7.5c-1.4.8-.9 1.9-1.3 3.2.8.4 1.2.3 1.3-.5l.1-.4c0-.1.1-.2.1-.3.1-.3.3-.4.6-.5-.1-.6-.1-1.2-.8-1.5m62.4-69.6c.1.1.1.1.1.1h.1.1c.2-.1.1-.1.1-.1s0-.1.1-.2c0-.1 0-.2 0-.4s.5-.9.5-1.1c0 0 0 0 0-.1 0 0-.3-.3-.4-.3-.2 0-.6.1-.8.2-.2.2-.2.9-.2.9s0 .1-.1.1c0 .1.2.3.2.4.2.4.3.5.3.5m-10.7-4.3c-.2 0-.3.1-.5.3s-.2.9-.2 1v.2c0 .2.2.3.2.4s.1.1.1.2c.1.1.1.1.1.1h.1.1c.2-.1.1-.1.1-.1s0-.1 0-.2 0-.2 0-.4c0-.3.5-.9.5-1.1 0 0-.3 0-.3-.1.2 0-.1-.3-.2-.3m19.4 5.9c.1.3 0 1 .1 1.2 0 0 0 0 .1.1 0 0 .5.2.6.2.1-.1.2-.2.3-.3.1-.2-.1-1-.1-1s0-.1 0-.2c0-.1-.5-.3-.5-.4s-.1-.1-.1-.2c-.1 0-.1-.1-.1-.1-.1 0-.1 0-.1 0-.1.1-.1.1-.1.1v.2c-.1.1-.1.3-.1.4m-10.9-4c.1.1.1.2.2.2.1.1.1 0 .1.1h.2c.1 0 .1-.1.1-.1 0-.1 0-.5.1-1.1.1-.8.7-2 .7-2.4 0 0 0 0 0-.1 0 0-.1-.1-.2-.1-.2 0-.3.1-.4.2s-.2.2-.4.3c-.2.2-.3.5-.5.9-.1.2-.1.3-.2.4 0 .1 0 .1-.1.1s0 .2-.1.3c0 .3.3.7.3.8.1.3.1.4.2.5m-5.2.6c.1-.1.3-.3.3-.3s.1-.5.1-1-.1-1.9-.1-2-.1-.3-.3-.2-.5.7-.5.8-.1.3-.1.4c0 .2-.1.6-.1.8 0 .1-.3.8-.5 1.2s-1.3 1.2-1.2 1.4.5.2.8.1 1.2-.8 1.3-.9.2-.3.3-.3m-2-6c.2-.2.3-.6.4-.7 0-.1.1-.4.1-.4h.2.1c.2 0 .4-.2.5-.3.3-.1.3-.3.3-.5 0-.1 0-.5 0-.7 0-.1-.1 0-.1-.2.2-.5-.9 0-.9 0-.1.5-.3.7-.9 1.4-.3.4-.8.7-1.1 1-.1.1-.2.3-.3.3-.1.1-.1.1-.1.2v.1c0 .2.1.5.1.8 0 .2.1.4.2.6 0 .1.1.2.1.3 0 0 0 .1.1.1v.1s0 .1.1.1h.1c.1-.1.1-.2.1-.3v-.1c0-.2 0-.3.1-.8.3-.2.6-.6.9-1m3.6 9c0-.2.3-.5.3-.6s.1 0 .2.1.2.1.2-.1.2-.8.3-1 .4-.9.2-1.2-.3-.8-.3-1 .2-.6.2-.6 0 0 .1-.1c0 0 .2-.2.4-.3.2-.2.1-1 .1-1.3-.1-.3.1-1.4.1-1.6s.5-.9.4-1.1-.3-.2-.5 0c-.2.1-1 1-1.1 1.3s-.3.7-.3.7.2.7.2.7c.1 0 .1.1 0 .2 0 0-.2-.2-.4.1s-.3 1.2-.3 1.4.2 1.1.3 1.3.4 1.3.3 1.6-1.3.8-1.3.8h-.1-.1s-.1 0-.2 0-.3.4-.4.5-.2.6-.3.7c-.1.2-.4.7-.5.8 0 0-.9 2.7 0 2.1.2-.2.8-.9.8-.9h.2c.1 0 .2-.4.3-.5.1-.2.3-.8.4-1 .3-.2.7-.9.8-1m3.8 9.3c.3-.1.2-.5.4-.8s1.3-.1 1.3-.1.4-.4.5-.7c.2-.3.6-1.4.8-1.9.3-.5.3-.7.2-.8-.1-.2-.3-.1-.4 0s-.6 1.2-.8 1.4c-.1.2-.7.7-.8.8s-.2.1-.2-.1.1-.6.3-1 .7-1.3.9-1.6c.2-.2.3-1.1.2-1.3 0-.2-.1-1.6-.1-1.8 0-.1 0-.5.1-.6.1 0 .2-.2.2-.2s.1-.1.1-.1 0 0-.1-.1c0-.1-.2-.2-.3-.1s-.4.7-.5.9c-.1.3-.3 1-.4 1.3s-.3 1.1-.4 1.4c-.1.2-.3.7-.3.7s-.2.2-.4.4-.8.7-1 .9-1 .3-1.1.3-.3 0-.4-.1c-.1 0 .1-.4.5-.9.6-.6.8-1.2.8-1.3s0-.5 0-.7.3-.8.3-.9 0-.5 0-.6-.1-.3-.2-.4v-.1s.1-.2.1-.3c.1-.2.5-.5.6-.6.1-.2-.1-.7-.1-.7s0-.1-.1-.1v-.1s.1-.3.2-.6.1-1 .1-1-.4-.2-.6.2-.8 1.4-.8 1.4c.1 0 .2.1.3.1 0 0 0 .2-.1.3s-.3.4-.4.7c-.1.2-.2 1-.2 1v.2c0 .1-.1.1-.1.1-.1 0 0 .3-.2.3-.2.1-.1.8-.2 1.1s-.4.8-.4.9v.3.1l-.8.8s-.7.8-.5 1 1.1.3 1.2.3-.3.4-1 .8-1.1.9-1.1.9c.1 0 .4.3.6.3s.7-.3.8-.3.5-.4.6-.5c.2-.1.9-.8 1.2-1 .2-.2 1-.4 1-.4.1 0 .2 0 .3.1.1 0 .1.1.1.2s-.6.8-1.3 1.7c-.7.8-1.4 2-1.4 2s-.3.4-.2.5c.2.2.4 0 .5 0 .2 0 .8-.7 1.1-.6.8-.1 1.3-.9 1.6-1m12-5.8c-.1-.3-.7-.2-.7-.1s-.1.4-.1.5v1c0 .2 0 1.1-.1 1.4s-.4 1.3-.5 1.5c-.1.1-.1.2-.3.2s-.2-.1-.3-.3c0-.2-.1-.6-.2-.8 0-.1 0-.4 0-.6 0-.4 0-.9.1-1.1.1-.4.1-1.6.1-1.7 0-.1-.1-.6-.2-.9-.1-.2-.5-1.1-.6-1.2 0 0-.1-1.1-.2-1.2s-.5-.2-.5.1c0 .4.1 1.4.2 1.7.1.4.2 1.5.2 1.8 0 .2.1.8.1.9v.2s0 0 0 .1v.2c0 .1-.1.3-.1.5-.1.4-.6.8-.7 1.2-.2.5-1.3 1.1-1.5 1.2l-.3.3c-.2 0 .1-.4.1-.5 0 0 .1-.4.1-.4.1-.1 0 .2.2-.6s-.3-1.3-.3-1.8c0-.2 0-.4 0-.5-.1-.4-.1-1.7-.2-2-.1-.2-.1-.7-.2-.8 0 0-.1-.1-.1-.1l-.1-.2v-.3c0-.2 0-.4 0-.6 0-.1 0-.4 0-.7 0-.2 0-.4 0-.4 0-.1-.1-.3-.1-.3s-.1-.1-.1-.2c0 0-.1-.4-.1-.8 0-.1-.1-.3-.1-.5-.2-.2-.4 0-.4.1 0 .4-.5 1.4-.6 1.7h.1c.1 0 .1.1.2.1s.1.1.2.2v.2.2c0 .2-.1.4-.1.5v.2.7c0 .2.3 1.1.3 1.1v.1c0 .1-.1 1.5-.1 2.1 0 .3 0 .5.1.7.1.5 0 1.3.1 1.4v.1.1.1s0 .1-.1.1l-.2.3c-.2.2-.1.5-.4.8-.5.5-1.7 2.8-1.7 3.7 0 0-.1.8-.1.5 0 .6.4 1.3.4 1.8 0 0 .5.5.5-.1 0-.4-.1-.9.2-1.6.5-1.4 1.3-2.9 2.9-3.1.1-.1.1-.1.2-.1.1 0 .2.1.2.1v.1c0 .4-.4 1.4-.7 2.7-.3 1.1-.4 1.7-.5 2.1 0 0 .3.3.3.3.7.2.8-.7.9-.8s0-.1.1-.2c0-.1.1-.3.1-.5.1-.4.2-.9.2-1.4.1-1 .4-2.9.6-3.3.1-.4.6-.8.9-1 .1-.1.2-.1.2-.1h.1c.2 0 .3.1.3.2 0 .1.4 2.1.7 4.2v.1s-.2 1.4-.2 2.9v.5c.1 1.4-.3 3 .2 3.1.1 0 .2 0 .2-.1.2-.1.5-1 .5-1.5v-.1c0-.1 0-.1 0-.2 0-.6.3-1.3.3-1.6 0-.4.2-.9.2-1 0-.2 0-.4 0-.5v-.1c0-.1.2-1.5.2-1.9 0-.5-.3-1.2-.3-1.6h-.2c0-.5.2-1 .3-1.2 0-.2.3-.6.3-.8 0-.3.3-1.8.5-2.7.1-.7-.1-.7-.1-1 0 0 .2-.4.2-.4zm6.3 4.8c0-.1-.2-.9 0-1.5.1-.6 0-1.9-.2-2.2-.2-.2.3-.5.3-.5-.1 0-.1-.1-.1-.1s-.1-.6-.1-.9 0-.4 0-.5 0-.1 0-.3 0-.2.1-.3c.1-.2.1-.3.1-.3s.1-.2.2-.4c0-.1-.1-1.1-.2-1.7 0-.5-.4-.5-.4-.6 0 0-.3.1-.3 1.1 0 .4-.1 1-.1 1v.1s-.2 0-.2.2v1 .8-.2s0 0-.1.1c0 0-.1.3-.1.6-.1.3-.4 1.5-.5 1.8s0 1.5.2 2.6c.3 1.1.3 1.4.1 1.5-.3.2-1.1-.7-1.3-1.1-.1-.4-.7-1.3-.8-1.7s-.2-.7-.2-.7 0-.1 0-.2 0-.6.1-.9c0-.3.2-1.4.2-1.8s.1-1 .2-1.3c0-.3 0-1.3-.1-1.5s-.2-.2-.2-.2c-.8 0-.5 1.1-.5 1.3-.1.1.3.9.2.9-.1.1-.1.4-.1.4v.1.1s-.7.5-.8.8-.2.8-.2.9 0 1.3.1 1.8.4 1.5.3 1.7c0 .2-.1.6-.2.8v.1s-.2 1.2-.3 2.6c0 .6.5.7.6 1.3.2 1.2.7 3.3.9 3.6.2.4.3.6.4.6s.3.2.4.4c.3.5.4.5.6.7.2.1.2-.2.2-.3s-.9-2.8-1.3-5c-.4-2.1-.2-3.3-.2-3.4s0-.3.1-.3.7.2.9.6c.1.4.6 2.3.9 3.3.2 1 .2 1.5.3 1.6s.7.7.9.8.4.2.4.2.1-.7-.4-2.3c-.6-1.5-.7-3-.6-3 .5-.1 1.8 1.1 2.5 2.7.7 1.5 1 2.2 1.1 2 .3-.3-.1-1-.3-1.9-.1-.9-1.1-2.6-1.7-3.2-.7-.6-.8-1.7-.8-1.8zm2.3-1.8s.2 0 .2-.1c-.1-.4.3-.3.3-.3s.1 0 .1.1c0 0 .7 1.2 1.2 1.8.4.5.6.6.6.5.1 0-.4-.7-.4-1.2.1-.5-.3-1-.5-1-.1-.1-.9-.8-1-1.1-.1-.4-.5-2-.7-2.5s.1-.7 0-.8c0 0-.1-.1 0-.1 0 0-.1-.3-.1-.3s.1-.7.1-1-.1-.4-.2-.4c0 .1-.6 1.6-.9 2.3s.1 2.8.5 3.4c.7.5.8.7.8.7m-37.4 54.9c.3 0 .5 0 .7-.2.1-.3.2-.3.1-.5 0-.2-.1-.4-.3-.6-.2.5-.5.8-.9.8-.3 0-.7-.2-1.1-.5-.1.1-.2.1-.4.2-.4.2-.6.4-.6.7v.1c-.1.1-.2.3-.2.4 0 .3.6.8 1 .9l.1-.7c.2-.4.5-.5.9-.5.1.1.4-.1.7-.1m-.6 2.6c-.1.3-.1.3.1.7l.2-.2c.4-.4 1.4.7 1.4-.5-.5-.2-.8-.4-1.3-.3-.2.1-.4 0-.4.3m-3.7-38.4c.2-.5.1-.4.7-.6h.4c.1 0 .4-.1.5-.2.3-.2.4-.7.4-1-1.2-.5-2.3-.3-3.2.7.2.5.4 1 1.2 1.1m16.8-34.4c.1-.1.3-.3.3-.4.2-.2.1-.6 0-.8-1.1.2-1.9.8-2.2 1.7.3.4.6.6 1.3.4 0-.4-.1-.3.3-.7zm-12.9 37.9c-.6.2-.9.5-1.2.9-.2.3-.2.3-.3.4s-.1.2-.3.2c.4.3.8.6 1 .5.2 0 .4-.1.7-.5.1-.2 0-.3.3-.5s.4-.3.7-.5c-.1-.1-.2-.2-.3-.2l-.2-.2c-.1 0-.2-.1-.4-.1m-1 7.7c-.2.3-.2.3-.2.4-.1.1-.1.2-.3.2.4.3.8.6 1 .6s.4-.1.7-.5c.1-.2 0-.3.3-.5s.4-.4.7-.5c-.1-.1-.2-.2-.3-.2l-.2-.2c-.2-.1-.3-.2-.5-.2-.6.1-.9.4-1.2.9m-.7-9.7.3.1c.1 0 .2.1.3.1.5.1.5-.1 1.1-.3 0 0-.2-.1 0-.4.2-.2.3-.4.5-.6l-.2-.1c-.5-.2-.8-.2-1.4.2-.3.4-1 .7-.6 1m-6.8 16.7c0-.1 0-.3 0-.4 0-.2 0-.4 0-.6v-.1h.1c.1 0 .2-.1.3-.1l.3-.2c.2-.2.4-.3.7-.3.7-.3 1.8-.7 1.7-1.3 0-.2-.1-.3-.3-.6l-.1-.1v-.1c.3-1.3 1.8-2.3 2.8-3-.1-.2-.2-.5-.2-.7 0-.5.2-.8.6-1.3l.3-.2c.2-.3.4-.6.3-.8 0-.1-.1-.3-.2-.4-.2-.2-.4-.3-.5-.3s-.2 0-.3.3l-.1.2c-.1.2-.2.1-.4.2-.4.4-.8.5-1.2.5-.8 0-1.5-.6-2.1-.6-.1 0-.2 0-.3 0h-.1-.1c-.2-.2-.3-.2-.4-.2-.2-.1-.3.6-.8.9-1.6.8-2.4 3.5-2.4 4.3v.1c.5 0 2.8-1.8 2.8-2v-.1c0-.1-.2-.2-.3-.5 0-.2.2-.3.3-.3l.3-.1c.3-.1.6-.3.7-.6l.1-.1h.1c.6.2 1.6.7 2.1 1.1l.1.1-.1.1c-.1.3-.3.5-.6.7-1 .7-2.1 1.1-2.1 2.1 0 .2.1.4.2.7v.1.1c-.2.8-.7 1.1-1.3 1.1-.2 0-.4 0-.7 0l-.7-.1c-.2 0-.5-.1-.6 0-.6 0-1 .2-1.4.6.2.2.3.4.3.5v.3l1.3-.7.1.1c.5.4.6.8.6 1.2v.1.7c0 .3.1.5.3.9.9-.5.9-.8.9-1.2m9.7 3.7c-.1 1.5-1.6.9-2.3 1.8-.3.4-.5.9-.5 1.3 0 .1 0 .3.1.4l.1-.1c.6-.4 1.1-1.1 1.7-1.6h.2.1c.2 0 0 .4.1.5.5-.2.8-.5.8-.9v-.1l.1-.1v-.1c.3-.2.6-.4.8-.7l.2-.3c.2-.4 0-.3.4-.3.1 0 .3-.2.4-.2.3-.3.5-.3.5-.4 0 0-.5-.1-.6-.2-1.3 0-.8.4-2.1 1m-4.3 3.7c-.1 0-.3 0-.4.1-.8.5-1.2.9-2.1.9-.2 0-.4 0-.7 0-1.3 1.2-1.3 2-1.3 2.9l1 .2-.1-.6c-.1-1.1 1.5-1.4 1.5-1.4 1.4-.6 2-.7 2.9-1.7-.1-.3-.5-.4-.8-.4m3.8.7c-.5 0-.1.4-.5.7l-.1.1h-.1c-.1 0-.3.2-.4.2-.9-.1-2.5 1.2-2.6 1.2-.6.9-.8 1.7-1.9 2.5.2.2.4.3.6.3s.4-.1.6-.3.4-.5.9-.6c.3-1.3 1.2-1.7 2.7-2l.6-1.1c1.3-.3 1.2-.3 1.8-1.2-.3.1-.5.1-.9.2zm-1.1 6.2c.1-.4.2-.7.5-1l.4-.4.3-.2-.2-.7c-.8.1-1 .5-1.2.9l-.2.3c-.3.4-.5.6-.9.8-.2.1-.5.2-.7.2-.5 0-1-.1-1.4-.2-.2.1-.2.3-.2.4v.2l.1.4v.3c.1 0 .2.1.2.1.1 0 .2 0 .2-.1l.2-.3h.1.2.2c.2 0 .3.1.4.2.7-.1 1.6-.3 2-.9m-2.9-10.2c.1-.5.6-.7 1.1-.7.2 0 .4.1.6.2l.1-.2.1-.8h.1c.8-.7.8-.2 1.9-.3-.1-.2-.1-.3-.1-.5-.1-1.6 1-2.1 1.1-3.6-.2-.2-.4-.4-.7-.4h-.1c-.2.4-.5.9-.4 1.3v.1.1h-.1c-1.3.6-.3.5-1 1.6l-.1.1h-.1c-.2 0-.3-.1-.4-.1-.5 0-.8.4-1.1.7l-.3.4c-.4.5-1.1.7-1.2 1-.2 1.1-.6 1-1.5 1.8-.3.2-.5.3-.7.3-.3 0-.5-.2-.6-.3 0 0 0-.1-.1-.1 0-.2.1-.3.1-.3.3-.4.5-.8.5-1.1 0-.1 0-.2-.1-.3v-.1l.1-.1c.8-.9 1.3-1.8 1.7-2.8.3-.7 1.1-1.2 1.9-1.3h.1l.1.1c.1.1.2.2.4.2l.2.1c.1.1.2.1.3.2.3-.1.3-.2.3-.4v-.1c-.4-.3-.5-.6-.5-1 0-.7.5-1.4.8-2-.4-.2-.6-.3-.8-.3-.3 0-.4.2-.5.8l-.1.5c-.1.4-.1 1-.6 1.2-.1 0-.1 0-.2 0-1.4 0-1.7 1.6-2.9 2.3v1c-.3.3-.7.5-1 .8-.1.1-.2.2-.4.3.2.2.3.4.3.6s-.1.4-.3.7c-.5.6-1.1.7-1.1 1.2v.1l.4.3c.8.1 1.7 1 2.6 1.1.8-.5 1.8-1.1 2.2-2.3m41.4-39.8c-.2 0 .1 1-.1 1 .3.7.7 1.5 1.7 1.4-.1-.8-.9-1.2-1.3-2zm-75.2 61.4.2-.1c.3-.2.5-.3.5-.7-.5-.4-.8-.8-1.3-1-.3-.1-.5-.1-.8.1.4.9.2 1.3-.4 2l-.4.4c-.6.6-.7 1-.6 1.8 1.3-.4 1.9-.9 2.8-1.9-.1-.3-.3-.5 0-.6m3.8 6c-.2 0-.5.1-.7.3l-.1.1v.1.3.1h.1c.2 0 .5.2.8.2.2 0 .4-.1.6-.5v-.1-.1c-.3-.2-.5-.4-.7-.4m-3-.6c-.8-.2-1.6-.2-2.3-.2l.5 1.7h.8c0-.4-.1-.6.5-.6s.9.1 1.4-.4l-.3-.4zm-4.5-3.1c-.8.1-.9.5-.8 1.3 0 .3.1.5.1.8s.1.3 0 .4c0 0 .1.3.2.4.2.1.8-.4.8-.4.4-.4.3-.9 0-1.5zm6.5-.8c-2.3-.7-1.5 2-2.1 2.6l.2.2c.8-.4 1.3-1 1.5-1.6.8-.7 1.7-.5 2.5-1.5-.8-.7-1.5-.4-2.1.3m75.2-107.6c-.9.8-2.1 2.3-3.4 2.6-.7.1-2.6-.1-2.8-.5-.1-.4 2.2-2 2.8-2.3s1.1-.3 1.9-.6c.4-.2 1.4-.7 1.7-.7.5.1.7.4.5.9-.1.3-.4.3-.7.6" fill="#fff"/></svg>