<svg width="43" height="43" fill="none" xmlns="http://www.w3.org/2000/svg"><path d="M21.518 0C9.634 0 0 9.618 0 21.482c0 9.106 5.667 16.886 13.672 20.015-.195-1.697-.354-4.314.071-6.17.39-1.68 2.515-10.68 2.515-10.68s-.638-1.29-.638-3.182c0-2.988 1.736-5.216 3.896-5.216 1.842 0 2.728 1.379 2.728 3.023 0 1.839-1.17 4.597-1.789 7.161-.513 2.14 1.08 3.89 3.188 3.89 3.825 0 6.765-4.032 6.765-9.83 0-5.146-3.701-8.735-8.997-8.735-6.127 0-9.722 4.58-9.722 9.318 0 1.838.708 3.819 1.594 4.897a.639.639 0 01.141.62c-.16.671-.531 2.139-.602 2.44-.088.388-.319.476-.726.282-2.692-1.255-4.374-5.163-4.374-8.328 0-6.771 4.923-12.995 14.22-12.995 7.457 0 13.266 5.304 13.266 12.412 0 7.408-4.676 13.367-11.158 13.367-2.178 0-4.233-1.132-4.923-2.476l-1.346 5.11c-.478 1.874-1.789 4.208-2.674 5.64 2.019.62 4.144.955 6.375.955C33.366 43 43 33.382 43 21.518 43.035 9.618 33.4 0 21.518 0z" fill="#E60019"/></svg>