<svg fill="none" height="32" viewBox="0 0 137 32" width="137" xmlns="http://www.w3.org/2000/svg" xmlns:xlink="http://www.w3.org/1999/xlink"><mask id="a" height="32" maskUnits="userSpaceOnUse" width="137" x="0" y="0"><path d="m.043945 0h136v32h-136z" fill="#d9d9d9"/></mask><g fill="#8b949e" mask="url(#a)"><path clip-rule="evenodd" d="m12 4.75c-6.35375 0-11.5 5.14625-11.5 11.5 0 5.0887 3.29187 9.3869 7.86312 10.9106.575.1006.79063-.2444.79063-.5462 0-.2732-.01437-1.1788-.01437-2.1419-2.88938.5319-3.63688-.7044-3.86688-1.3513-.12937-.3306-.69-1.3512-1.17875-1.6243-.4025-.2157-.9775-.7475-.01437-.7619.90562-.0144 1.55249.8337 1.76812 1.1787 1.035 1.7394 2.68813 1.2507 3.34938.9488.10062-.7475.4025-1.2506.73312-1.5381-2.55875-.2875-5.2325-1.2794-5.2325-5.6782 0-1.2506.44562-2.2856 1.17875-3.0906-.115-.2875-.5175-1.4662.115-3.04748 0 0 .96313-.30187 3.1625 1.17878.92005-.2588 1.89755-.3882 2.87505-.3882s1.955.1294 2.875.3882c2.1993-1.49502 3.1624-1.17878 3.1624-1.17878.6325 1.58128.23 2.75998.115 3.04748.7332.805 1.1788 1.8256 1.1788 3.0906 0 4.4132-2.6881 5.3907-5.2469 5.6782.4169.3593.7763 1.0493.7763 2.1275 0 1.5381-.0144 2.7743-.0144 3.1625 0 .3018.2156.6612.7906.5462 4.5425-1.5237 7.8344-5.8362 7.8344-10.9106 0-6.35375-5.1462-11.5-11.5-11.5z" fill-rule="evenodd"/><path d="m30.848 24v-16.038h11.44v2.508h-9.174l.638-.638v5.456l-.638-.638h8.096v2.354h-8.096l.638-.638v5.764l-.638-.638h9.218v2.508zm13.382 0v-11.704h2.64l.11 2.222h.132c.3373-.8213.8507-1.43 1.54-1.826.6893-.4107 1.4593-.616 2.31-.616.5867 0 1.1293.0953 1.628.286.5133.176.9533.462 1.32.858.3814.3813.6747.8873.88 1.518.22.616.33 1.364.33 2.244v7.018h-2.75v-6.424c0-.7333-.088-1.3347-.264-1.804-.176-.484-.4473-.8433-.814-1.078-.352-.2347-.814-.352-1.386-.352-.616 0-1.144.1467-1.584.44-.4253.2933-.7553.682-.99 1.166s-.352 1.0193-.352 1.606v6.446zm16.8378 0c-.7187 0-1.2834-.1027-1.694-.308-.396-.22-.6747-.528-.836-.924-.1614-.396-.242-.8727-.242-1.43v-6.82h-2.156v-2.222h2.156v-3.3l2.728-.286v3.586h2.486v2.222h-2.486v6.314c0 .3667.0806.616.242.748.1613.1173.4106.176.748.176h1.496v2.244zm9.3515.198c-1.2027 0-2.2293-.2493-3.08-.748s-1.5107-1.1953-1.98-2.09c-.4547-.8947-.682-1.9433-.682-3.146 0-1.2467.2273-2.3247.682-3.234.4547-.924 1.1073-1.6353 1.958-2.134.8507-.5133 1.848-.77 2.992-.77 1.3347 0 2.4273.2933 3.278.88s1.4593 1.3787 1.826 2.376c.3813.9973.506 2.134.374 3.41h-8.404c0 .704.1247 1.3053.374 1.804.264.4987.6233.88 1.078 1.144s.9827.396 1.584.396c.704 0 1.298-.154 1.782-.462.484-.3227.792-.748.924-1.276h2.618c-.1027.7627-.396 1.4373-.88 2.024-.484.572-1.1073 1.0193-1.87 1.342s-1.6207.484-2.574.484zm-3.036-6.952-.242-.352h6.226l-.264.352c.0293-.704-.0807-1.276-.33-1.716-.2347-.4547-.572-.792-1.012-1.012-.4253-.22-.9093-.33-1.452-.33-.5867 0-1.1.1247-1.54.374-.4253.2493-.7627.6013-1.012 1.056-.2347.4547-.3593.9973-.374 1.628zm10.2343 6.754v-11.704h2.486l.132 1.958h.088c.264-.748.6893-1.2833 1.276-1.606.6013-.3373 1.2833-.506 2.046-.506h.352.33v2.596c-.088 0-.198 0-.33 0-.1173-.0147-.2493-.022-.396-.022-.704 0-1.2907.1173-1.76.352-.4693.22-.8287.5427-1.078.968-.2347.4253-.3667.946-.396 1.562v6.402zm8.2878 3.674.022-15.378h2.64l.088 2.156h.176c.2787-.704.748-1.276 1.408-1.716.6747-.44 1.4887-.66 2.442-.66.704 0 1.342.132 1.914.396.5867.2493 1.0853.6307 1.496 1.144.4253.5133.748 1.1513.968 1.914.2347.748.352 1.6207.352 2.618 0 1.32-.198 2.4347-.594 3.344-.396.8947-.9533 1.5767-1.672 2.046-.704.4547-1.5253.682-2.464.682-.6307 0-1.2027-.0953-1.716-.286-.5133-.2053-.9533-.484-1.32-.836-.352-.3667-.6233-.7847-.814-1.254h-.176v5.83zm5.764-5.698c.5867 0 1.1-.1393 1.54-.418.44-.2933.7773-.7187 1.012-1.276.2493-.572.374-1.2833.374-2.134 0-.8653-.1247-1.5767-.374-2.134-.2347-.572-.572-.9973-1.012-1.276s-.9533-.418-1.54-.418c-.66 0-1.21.154-1.65.462s-.77.704-.99 1.188-.33 1.0047-.33 1.562v1.232c0 .4107.0587.8067.176 1.188.132.3813.3153.726.55 1.034.2493.2933.5573.5353.924.726.3813.176.8213.264 1.32.264zm7.503 2.024v-11.704h2.4856l.132 1.958h.088c.264-.748.69-1.2833 1.276-1.606.602-.3373 1.284-.506 2.046-.506h.352.33v2.596c-.088 0-.198 0-.33 0-.117-.0147-.249-.022-.396-.022-.704 0-1.29.1173-1.76.352-.469.22-.828.5427-1.078.968-.234.4253-.366.946-.396 1.562v6.402zm8.2876 0v-11.704h2.75v11.704zm0-13.354v-2.684h2.75v2.684zm9.609 13.574c-1.657 0-2.941-.3593-3.85-1.078-.895-.7187-1.335-1.6573-1.32-2.816h2.706c.015.704.257 1.2173.726 1.54.469.308 1.071.462 1.804.462.748 0 1.313-.132 1.694-.396.396-.2787.594-.6453.594-1.1 0-.396-.095-.6967-.286-.902-.191-.22-.477-.3813-.858-.484-.381-.1173-.873-.2127-1.474-.286-.66-.1027-1.269-.22-1.826-.352-.557-.1467-1.041-.3447-1.452-.594s-.733-.5793-.968-.99-.352-.924-.352-1.54c0-.792.205-1.452.616-1.98.425-.5427 1.005-.946 1.738-1.21.733-.2787 1.591-.418 2.574-.418s1.833.1467 2.552.44 1.269.7113 1.65 1.254c.396.5427.601 1.2027.616 1.98h-2.684c-.015-.4107-.117-.7407-.308-.99-.176-.264-.425-.462-.748-.594s-.704-.198-1.144-.198c-.689 0-1.217.132-1.584.396-.352.264-.528.6087-.528 1.034 0 .3373.095.6087.286.814s.484.3667.88.484c.396.1027.902.198 1.518.286.601.0733 1.173.176 1.716.308.557.132 1.049.3227 1.474.572s.755.594.99 1.034c.249.4253.374.9827.374 1.672 0 1.2467-.462 2.1707-1.386 2.772-.909.5867-2.156.88-3.74.88zm12.273-.022c-1.202 0-2.229-.2493-3.08-.748-.85-.4987-1.51-1.1953-1.98-2.09-.454-.8947-.682-1.9433-.682-3.146 0-1.2467.228-2.3247.682-3.234.455-.924 1.108-1.6353 1.958-2.134.851-.5133 1.848-.77 2.992-.77 1.335 0 2.428.2933 3.278.88.851.5867 1.46 1.3787 1.826 2.376.382.9973.506 2.134.374 3.41h-8.404c0 .704.125 1.3053.374 1.804.264.4987.624.88 1.078 1.144.455.264.983.396 1.584.396.704 0 1.298-.154 1.782-.462.484-.3227.792-.748.924-1.276h2.618c-.102.7627-.396 1.4373-.88 2.024-.484.572-1.107 1.0193-1.87 1.342-.762.3227-1.62.484-2.574.484zm-3.036-6.952-.242-.352h6.226l-.264.352c.03-.704-.08-1.276-.33-1.716-.234-.4547-.572-.792-1.012-1.012-.425-.22-.909-.33-1.452-.33-.586 0-1.1.1247-1.54.374-.425.2493-.762.6013-1.012 1.056-.234.4547-.359.9973-.374 1.628z"/></g></svg>
