<svg fill="none" height="32" viewBox="0 0 150 32" width="150" xmlns="http://www.w3.org/2000/svg"><path d="m150 14.5162v-2.5676h-3.276v-3.99169l-.11.03305-3.077.91632-.061.01794v3.02448h-4.856v-1.6849c0-.78453.18-1.38492.535-1.78532.353-.39559.858-.59671 1.501-.59671.463 0 .942.10607 1.424.31523l.121.05254v-2.70406l-.057-.02034c-.45-.15733-1.062-.23657-1.82-.23657-.955 0-1.823.20239-2.58.6035-.758.40167-1.354.97508-1.771 1.70413-.416.7282-.628 1.56925-.628 2.5v1.8524h-2.281v2.5676h2.281v10.817h3.275v-10.817h4.856v6.874c0 2.8311 1.372 4.2657 4.078 4.2657.445 0 .913-.0507 1.39-.15.487-.1019.818-.2038 1.013-.3125l.043-.0249v-2.5913l-.133.0857c-.178.1152-.399.2094-.658.2795-.261.0713-.479.107-.647.107-.634 0-1.103-.1662-1.394-.4943-.294-.331-.444-.9099-.444-1.7198v-6.3191zm-24.248 8.5337c-1.189 0-2.126-.3836-2.786-1.1392-.665-.7594-1.001-1.8421-1.001-3.2178 0-1.4192.336-2.53 1.001-3.3029.661-.7677 1.589-1.1574 2.759-1.1574 1.135 0 2.039.3722 2.687 1.1067.65.7384.981 1.8403.981 3.2761 0 1.4534-.311 2.5699-.923 3.3167-.608.7412-1.523 1.1178-2.718 1.1178zm.145-11.4237c-2.267 0-4.068.6467-5.352 1.9222-1.284 1.2756-1.934 3.0409-1.934 5.2472 0 2.0957.635 3.7813 1.888 5.0093 1.252 1.2285 2.957 1.8507 5.067 1.8507 2.198 0 3.963-.6557 5.247-1.9489 1.283-1.2917 1.933-3.0403 1.933-5.1951 0-2.1284-.61-3.8266-1.814-5.0464-1.204-1.2204-2.899-1.839-5.035-1.839zm-12.566 0c-1.542 0-2.818.384-3.793 1.1411-.981.7617-1.478 1.7607-1.478 2.9695 0 .6283.107 1.1865.319 1.6599.212.475.541.8932.978 1.2441.434.3482 1.103.7128 1.991 1.0839.745.2987 1.302.5513 1.655.7505.345.1952.59.3913.729.5824.134.187.203.4429.203.7587 0 .8993-.692 1.3368-2.116 1.3368-.528 0-1.13-.1073-1.79-.3189-.655-.2084-1.273-.5135-1.833-.9047l-.136-.0949v3.0685l.05.0226c.463.2082 1.047.3838 1.736.5219.687.1383 1.311.2086 1.854.2086 1.673 0 3.021-.3858 4.005-1.1475.99-.7669 1.491-1.7895 1.491-3.0401 0-.9022-.27-1.6759-.802-2.2998-.529-.6189-1.446-1.1871-2.726-1.6893-1.019-.3983-1.673-.7289-1.942-.9827-.26-.2452-.392-.592-.392-1.0311 0-.3892.163-.701.497-.9536.337-.2538.806-.3828 1.394-.3828.546 0 1.104.0838 1.659.2482s1.042.3846 1.449.654l.133.0889v-2.9108l-.051-.0215c-.375-.1566-.87-.2906-1.471-.3994-.598-.108-1.141-.1625-1.613-.1625zm-13.8076 11.4237c-1.1882 0-2.1256-.3836-2.7858-1.1392-.6646-.7594-1.0006-1.8419-1.0006-3.2178 0-1.4192.3365-2.53 1.0013-3.3029.6602-.7677 1.5882-1.1574 2.7589-1.1574 1.1348 0 2.0388.3722 2.6868 1.1067.65.7384.981 1.8403.981 3.2761 0 1.4534-.311 2.5699-.923 3.3167-.609.7412-1.523 1.1178-2.7186 1.1178zm.146-11.4237c-2.2681 0-4.0693.6467-5.3527 1.9222-1.2833 1.2756-1.9344 3.0409-1.9344 5.2472 0 2.0965.6356 3.7813 1.8884 5.0093 1.2528 1.2285 2.9576 1.8507 5.067 1.8507 2.1973 0 3.9633-.6557 5.2473-1.9489 1.283-1.2917 1.933-3.0403 1.933-5.1951 0-2.1284-.61-3.8266-1.814-5.0464-1.205-1.2204-2.899-1.839-5.0346-1.839zm-12.2577 2.6403v-2.3179h-3.2347v13.3843h3.2347v-6.8466c0-1.1642.2712-2.1206.8063-2.843.5283-.7138 1.2324-1.0755 2.0919-1.0755.2914 0 .6185.0467.9727.1392.3505.092.6045.1918.7542.2969l.136.0959v-3.1741l-.0524-.0219c-.3012-.1245-.7274-.1874-1.2666-.1874-.8129 0-1.5403.2542-2.1634.7548-.5468.4399-.9421 1.0431-1.2444 1.7953zm-9.0274-2.6403c-1.4839 0-2.8076.3097-3.9334.9202-1.1282.612-2.0007 1.4857-2.5943 2.5966-.591 1.1083-.8911 2.4028-.8911 3.8465 0 1.2646.2909 2.4252.866 3.448.5753 1.0245 1.3896 1.826 2.4204 2.3819 1.0294.5552 2.2191.8367 3.5364.8367 1.5372 0 2.8496-.2992 3.9019-.8891l.0425-.0237v-2.8845l-.1359.0966c-.4767.338-1.0094.6078-1.5825.8021-.5717.1942-1.0929.2924-1.55.2924-1.2692 0-2.2881-.3866-3.0277-1.1487-.7412-.7631-1.117-1.8346-1.117-3.183 0-1.3568.3919-2.4559 1.1643-3.2669.77-.8085 1.7908-1.2187 3.0338-1.2187 1.0632 0 2.0992.3504 3.0794 1.0425l.1356.0959v-3.0392l-.0438-.024c-.3688-.201-.8719-.367-1.4964-.4928-.6219-.1256-1.2302-.1888-1.8082-.1888zm-9.6466.3225h-3.2346v13.3842h3.2346zm-1.5842-5.70171c-.5324 0-.9967.1764-1.3782.52595-.3831.35055-.5774.7919-.5774 1.31277 0 .51268.192.94599.5714 1.28721.377.34023.8428.51268 1.3843.51268.5414 0 1.0089-.17245 1.3904-.51212.384-.34178.5787-.77495.5787-1.28777 0-.50265-.1895-.93949-.5629-1.29864-.373-.35846-.8464-.54008-1.4063-.54008zm-8.0707 4.71421v14.3717h3.3011v-18.67619h-4.5688l-5.8074 13.87209-5.6356-13.87209h-4.7549v18.67609h3.1022v-14.373h.1065l5.9511 14.3731h2.3411l5.8582-14.3717z" fill="#737373"/><path d="m15.2167 15.2269h-15.2167v-14.810884h15.2167z" fill="#f1511b"/><path d="m32.0177 15.2269h-15.2164v-14.810884h15.2164z" fill="#80cc28"/><path d="m15.2163 31.5857h-15.2163v-14.8108h15.2163z" fill="#00adef"/><path d="m32.0177 31.5857h-15.2164v-14.8108h15.2164z" fill="#fbbc09"/></svg>