<?xml version="1.0" encoding="utf-8"?>
<!-- Generator: Adobe Illustrator 17.0.2, SVG Export Plug-In . SVG Version: 6.00 Build 0)  -->
<!DOCTYPE svg PUBLIC "-//W3C//DTD SVG 1.1//EN" "http://www.w3.org/Graphics/SVG/1.1/DTD/svg11.dtd">
<svg version="1.1"
	 id="svg2" xmlns:svg="http://www.w3.org/2000/svg" xmlns:cc="http://creativecommons.org/ns#" xmlns:inkscape="http://www.inkscape.org/namespaces/inkscape" xmlns:rdf="http://www.w3.org/1999/02/22-rdf-syntax-ns#" xmlns:dc="http://purl.org/dc/elements/1.1/"
	 xmlns="http://www.w3.org/2000/svg" xmlns:xlink="http://www.w3.org/1999/xlink" x="0px" y="0px" width="280.5px" height="75.1px"
	 viewBox="0 0 280.5 75.1" style="enable-background:new 0 0 280.5 75.1;" xml:space="preserve">
<g id="g10" transform="matrix(1.25,0,0,-1.25,0,112.5)">
	<g id="g12">
		<g>
			<g id="g14">
				<g id="g20" transform="translate(107.4727,49.3306)">
					<path id="path22" inkscape:connector-curvature="0" d="M-64.7,14.9h-18.7c-0.5,0-0.9-0.4-0.9-0.9V4.9c0-0.5,0.4-0.9,0.9-0.9
						h7.3V-7.3c0,0-1.6-0.6-6.2-0.6c-5.3,0-12.8,2-12.8,18.3c0,16.4,7.8,18.5,15,18.5c6.3,0,9-1.1,10.8-1.6c0.5-0.2,1,0.4,1,0.9
						l2.1,8.8c0,0.2-0.1,0.5-0.3,0.7c-0.7,0.5-5,2.9-15.8,2.9c-12.5,0-25.3-5.3-25.3-30.8c0-25.5,14.6-29.3,27-29.3
						c10.2,0,16.4,4.4,16.4,4.4c0.3,0.1,0.3,0.5,0.3,0.7v28.5C-63.8,14.6-64.2,14.9-64.7,14.9"/>
				</g>
				<g id="g24" transform="translate(204.4727,71.9976)">
					<path id="path26" inkscape:connector-curvature="0" d="M-64.7,14.9c0,0.5-0.4,0.9-0.9,0.9h-10.5c-0.5,0-0.9-0.4-0.9-0.9
						c0,0,0-20.3,0-20.3h-16.4v20.3c0,0.5-0.4,0.9-0.9,0.9h-10.5c-0.5,0-0.9-0.4-0.9-0.9v-55c0-0.5,0.4-0.9,0.9-0.9h10.5
						c0.5,0,0.9,0.4,0.9,0.9v23.5h16.4c0,0,0-23.5,0-23.5c0-0.5,0.4-0.9,0.9-0.9h10.5c0.5,0,0.9,0.4,0.9,0.9V14.9z"/>
				</g>
				<g id="g28" transform="translate(127.6943,64.7793)">
					<path id="path30" inkscape:connector-curvature="0" d="M-64.7,14.9c0,3.8-3,6.8-6.8,6.8c-3.7,0-6.8-3.1-6.8-6.8s3-6.9,6.8-6.9
						C-67.7,8.1-64.7,11.2-64.7,14.9"/>
				</g>
				<g id="g32" transform="translate(126.9424,28.583)">
					<path id="path34" inkscape:connector-curvature="0" d="M-64.7,14.9v25.4c0,0.5-0.4,0.9-0.9,0.9H-76c-0.5,0-0.9-0.5-0.9-1V3.8
						c0-1.1,0.7-1.4,1.5-1.4h9.4c1,0,1.3,0.5,1.3,1.4V14.9z"/>
				</g>
				<g id="g36" transform="translate(245.2749,54.7749)">
					<path id="path38" inkscape:connector-curvature="0" d="M-64.7,14.9h-10.4c-0.5,0-0.9-0.4-0.9-0.9v-27c0,0-2.7-1.9-6.4-1.9
						c-3.8,0-4.8,1.7-4.8,5.4v23.5c0,0.5-0.4,0.9-0.9,0.9h-10.6c-0.5,0-0.9-0.4-0.9-0.9v-25.3c0-11,6.1-13.6,14.5-13.6
						c6.9,0,12.4,3.8,12.4,3.8s0.3-2,0.4-2.2c0.1-0.2,0.4-0.5,0.8-0.5l6.7,0c0.5,0,0.9,0.4,0.9,0.9l0,36.9
						C-63.8,14.6-64.2,14.9-64.7,14.9"/>
				</g>
				<g id="g40" transform="translate(270.2505,25.0088)">
					<path id="path42" inkscape:connector-curvature="0" d="M-64.7,14.9c-3.6,0.1-6.1,1.8-6.1,1.8v17.4c0,0,2.4,1.5,5.4,1.8
						c3.8,0.3,7.4-0.8,7.4-9.8C-58,16.7-59.6,14.8-64.7,14.9 M-60.6,45.9c-5.9,0-10-2.6-10-2.6v18.6c0,0.5-0.4,0.9-0.9,0.9h-10.5
						c-0.5,0-0.9-0.4-0.9-0.9v-55c0-0.5,0.4-0.9,0.9-0.9h7.3c0.3,0,0.6,0.2,0.8,0.5c0.2,0.3,0.4,2.5,0.4,2.5s4.3-4.1,12.5-4.1
						c9.6,0,15.1,4.9,15.1,21.8C-45.8,43.7-54.6,45.9-60.6,45.9"/>
				</g>
				<g id="g44" transform="translate(156.9712,54.8623)">
					<path id="path46" inkscape:connector-curvature="0" d="M-64.7,14.9h-7.9c0,0,0,10.4,0,10.4c0,0.4-0.2,0.6-0.7,0.6H-84
						c-0.4,0-0.6-0.2-0.6-0.6V14.6c0,0-5.4-1.3-5.8-1.4c-0.4-0.1-0.6-0.4-0.6-0.8V5.6c0-0.5,0.4-0.9,0.9-0.9h5.5v-16.3
						c0-12.1,8.5-13.3,14.2-13.3c2.6,0,5.7,0.8,6.3,1c0.3,0.1,0.5,0.4,0.5,0.8l0,7.5c0,0.5-0.4,0.9-0.9,0.9c-0.5,0-1.6-0.2-2.8-0.2
						c-3.9,0-5.2,1.8-5.2,4.1c0,2.3,0,15.5,0,15.5h7.9c0.5,0,0.9,0.4,0.9,0.9v8.5C-63.8,14.6-64.2,14.9-64.7,14.9"/>
				</g>
			</g>
		</g>
	</g>
</g>
</svg>
