<svg width="146" height="26" fill="none" xmlns="http://www.w3.org/2000/svg"><path d="M39.137 7.457c.388 0 .721.307.721.704v13.452c0 .379-.351.686-.721.686h-1.87c-.35 0-.702-.271-.702-.65v-1.246c-.944 1.354-2.572 2.293-4.941 2.293-3.96 0-6.403-2.564-6.403-6.374V8.125c0-.38.352-.686.722-.686h1.869c.389 0 .703.307.703.686v7.674c0 2.473 1.332 4.116 3.96 4.116 2.572 0 4.09-1.697 4.09-4.08v-7.71c0-.38.351-.686.703-.686l1.869.018zM11.565 0C5.163 0 0 4.857 0 11.339c0 6.5 5.163 11.339 11.565 11.339a12.01 12.01 0 003.146-.416l1.258 3.16c.13.343.389.56.851.56h1.999c.481 0 .833-.307.61-.903l-1.628-4.135c3.201-1.968 5.33-5.452 5.33-9.623C23.13 4.857 17.967 0 11.564 0zm5.033 17.93l-1.461-3.702c-.13-.307-.389-.596-.944-.596h-1.906c-.481 0-.851.307-.63.903l1.925 4.857a8.115 8.115 0 01-2.017.234c-4.681 0-8.012-3.593-8.012-8.287 0-4.695 3.33-8.288 8.012-8.288s8.013 3.593 8.013 8.288c0 2.744-1.13 5.092-2.98 6.59zm128.346 3.61c.167.38-.037.74-.499.74h-2.091c-.389 0-.703-.18-.833-.56l-3.867-10.146-3.923 10.147c-.167.397-.444.56-.833.56h-1.869c-.388 0-.666-.163-.833-.56l-3.959-10.202-3.905 10.202c-.166.379-.444.56-.833.56h-1.961c-.389 0-.666-.181-.833-.56l-3.867-10.202-3.997 10.202c-.167.397-.444.56-.833.56h-1.869c-.388 0-.666-.163-.832-.56l-3.905-10.202-3.904 10.202c-.13.379-.444.56-.833.56H96.63c-.481 0-.666-.38-.5-.74l5.292-13.506c.167-.397.444-.596.833-.596h2.276c.389 0 .666.18.833.596l3.812 9.858 3.774-9.858c.167-.397.445-.596.833-.596h2.239c.389 0 .666.18.833.596l3.738 9.858 3.738-9.858c.166-.397.444-.596.832-.596h2.258c.388 0 .666.18.833.596l3.793 9.858 3.701-9.858c.166-.397.444-.596.832-.596h2.277c.388 0 .666.18.832.596l5.255 13.505zM57.252 7.457h-1.869a.714.714 0 00-.721.704V9.39c-.944-1.39-2.794-2.383-4.978-2.383-4.126 0-7.66 3.177-7.66 7.818 0 4.694 3.552 7.854 7.642 7.854 2.22 0 4.015-.993 5.014-2.384v1.3c0 .38.352.687.722.687h1.869a.695.695 0 00.703-.687V8.161a.726.726 0 00-.722-.704zm-7.216 12.26c-2.72 0-4.663-2.167-4.663-4.857 0-2.727 1.924-4.821 4.663-4.821 2.701 0 4.663 2.094 4.663 4.82-.019 2.71-1.98 4.858-4.663 4.858zm29.514.47c.407.487.056.866-.166 1.028-1.296.957-3.017 1.48-4.885 1.48-4.72 0-7.865-3.376-7.865-7.817 0-4.442 3.146-7.854 7.865-7.854 1.868 0 3.57.523 4.885 1.48.222.163.536.488.166 1.03l-.888 1.21c-.352.469-.759.342-1.11.125-.833-.487-1.814-.902-2.943-.902-2.757 0-4.589 2.166-4.589 4.91 0 2.745 1.832 4.894 4.59 4.894 1.147 0 2.053-.434 2.886-.903.352-.18.722-.343 1.11.163l.944 1.155zm8.808-13.145c-4.44 0-7.975 3.394-7.975 7.818 0 4.46 3.553 7.818 7.975 7.818 4.441 0 7.976-3.377 7.976-7.818.018-4.406-3.535-7.818-7.976-7.818zm0 12.657c-2.72 0-4.663-2.13-4.663-4.821 0-2.727 1.925-4.821 4.663-4.821 2.72 0 4.663 2.094 4.663 4.82 0 2.691-1.924 4.822-4.663 4.822zM63.803.397a.71.71 0 01.703.704v20.475c0 .38-.278.705-.703.705h-1.869c-.389 0-.722-.343-.722-.705V1.12c0-.379.352-.704.722-.704l1.869-.018z" fill="#3254DC"/></svg>