<svg fill="none" height="32" viewBox="0 0 163 32" width="163" xmlns="http://www.w3.org/2000/svg"><g fill="#959da5"><path d="m158.629 31.9088h-1.829c0-14.8115-12.251-26.88003-27.245-26.88003v-1.82857c16 0 29.074 12.8914 29.074 28.7086z"/><path d="m159.909 22.0337c-2.194-9.3257-9.691-17.00572-19.2-19.74858l.457-1.462854c9.966 2.834284 17.829 11.062834 20.206 20.845734z"/><path d="m161.28 13.3483c-2.285-4.93711-6.125-9.23425-10.88-12.15997l.64-1.005713c4.938 3.017143 9.052 7.497143 11.338 12.708583z"/><path d="m.731429 27.7032c.822861.4572 2.560001 1.0972 3.840001 1.0972 1.37143 0 1.92-.4572 1.92-1.1886s-.45714-1.0971-2.10286-1.6457c-3.01714-1.0057-4.114284-2.6514-4.114284-4.3886 0-2.6514 2.285714-4.7543 5.942854-4.7543 1.64572 0 3.2.3658 4.11426.8229l-.82283 3.1086c-.64-.3657-1.92-.8229-3.10857-.8229-1.09714 0-1.73714.4572-1.73714 1.1886 0 .64.54857 1.0057 2.37714 1.6457 2.74286.9143 3.9314 2.3771 3.9314 4.48 0 2.7429-2.10283 4.6629-6.30854 4.6629-1.92 0-3.56572-.4572-4.66286-1.0058z"/><path d="m26.7885 24.229c0 5.3028-3.7486 7.7714-7.68 7.7714-4.2057 0-7.4972-2.7429-7.4972-7.4972 0-4.7542 3.1086-7.68 7.7715-7.68 4.3885 0 7.4057 3.0172 7.4057 7.4058zm-10.5143.0914c0 2.4686 1.0057 4.3886 2.9257 4.3886 1.7371 0 2.8343-1.7372 2.8343-4.3886 0-2.1943-.8229-4.3886-2.8343-4.3886-2.1029.0914-2.9257 2.2857-2.9257 4.3886z"/><path d="m28.3434 21.7604c0-1.8286-.0914-3.3829-.0914-4.6629h3.9314l.1828 2.0115h.0915c.5485-.9143 2.1028-2.2858 4.48-2.2858 2.9257 0 5.2114 1.92 5.2114 6.2172v8.5943h-4.48v-8.0457c0-1.8286-.64-3.1086-2.2857-3.1086-1.28 0-2.0114.8228-2.2857 1.6457-.1829.2743-.1829.7314-.1829 1.0971v8.32h-4.5714z"/><path d="m52.846 31.6343-.2743-1.4629h-.0914c-.9143 1.1886-2.4686 1.7372-4.1143 1.7372-2.9257 0-4.6629-2.1029-4.6629-4.48 0-3.7486 3.3829-5.5772 8.5029-5.5772v-.1828c0-.7314-.4572-1.8286-2.6514-1.8286-1.4629 0-3.0172.5486-4.0229 1.0972l-.8229-2.9258c1.0058-.5485 3.0172-1.28 5.6686-1.28 4.8457 0 6.4 2.8343 6.4 6.2172v5.0286c0 1.3714.0914 2.7428.1829 3.5657h-4.1143zm-.5486-6.8571c-2.3771 0-4.2057.5485-4.2057 2.2857 0 1.1885.7314 1.7371 1.7371 1.7371 1.0972 0 2.0115-.7314 2.3772-1.6457.0914-.2743.0914-.5486.0914-.7314z"/><path d="m59.0621 21.8514c0-2.1028-.0914-3.5657-.0914-4.7542h3.84l.1829 2.6514h.0914c.7314-2.1029 2.56-3.0172 3.9314-3.0172.4572 0 .64 0 .9143.0915v4.2057c-.2743 0-.7314-.0914-1.1886-.0914-1.6457 0-2.7428.9142-3.1085 2.2857-.0915.2743-.0915.64-.0915 1.0057v7.3143h-4.48z"/><path d="m69.1205 28.983c.7314.4571 2.1028 1.0057 3.4743 1.0057 1.92 0 2.7428-.9143 2.7428-2.1028 0-1.28-.7314-1.92-2.6514-2.6515-2.56-.9143-3.84-2.3771-3.84-4.0228 0-2.2857 1.8286-4.2057 4.9371-4.2057 1.4629 0 2.7429.4571 3.5657.9142l-.64 1.92c-.5485-.3657-1.6457-.8228-2.9257-.8228-1.5543 0-2.3771.9143-2.3771 1.92 0 1.1886.8228 1.7371 2.7428 2.4686 2.4686.9142 3.7486 2.1942 3.7486 4.2971 0 2.56-1.92 4.2971-5.3943 4.2971-1.5543 0-3.0171-.3657-4.0228-1.0057z"/><path d="m93.0745 24.3198c0 5.3028-3.6571 7.5885-7.1314 7.5885-3.84 0-6.8572-2.8342-6.8572-7.4057 0-4.8457 3.1086-7.5885 7.1315-7.5885 4.0228 0 6.8571 3.0171 6.8571 7.4057zm-11.4286.1828c0 3.1086 1.8286 5.4857 4.3886 5.4857 2.4686 0 4.3886-2.3771 4.3886-5.5771 0-2.4686-1.1886-5.4857-4.2972-5.4857-3.1085 0-4.48 2.8343-4.48 5.5771z"/><path d="m107.154 27.7028c0 1.4628 0 2.7428.092 3.9314h-2.286l-.183-2.3772h-.091c-.64 1.1886-2.195 2.6515-4.7547 2.6515-2.2857 0-4.9372-1.28-4.9372-6.3086v-8.4114h2.6515v7.9543c0 2.7428.8228 4.5714 3.2004 4.5714 1.737 0 2.925-1.1886 3.474-2.3772.183-.3657.274-.8228.274-1.3714v-8.7771h2.652v10.5143z"/><path d="m110.263 21.7601c0-1.6457 0-3.1085-.091-4.48h2.286l.091 2.8343h.091c.64-1.92 2.195-3.1085 3.932-3.1085.274 0 .548 0 .731.0914v2.4686c-.274-.0915-.548-.0915-.914-.0915-1.829 0-3.109 1.3715-3.474 3.3829-.092.3657-.092.7314-.092 1.1886v7.68h-2.56z"/><path d="m128.732 31.0859c-.64.3657-2.194.8228-4.114.8228-4.297 0-7.132-2.9257-7.132-7.3143 0-4.3885 3.017-7.5885 7.68-7.5885 1.555 0 2.926.3657 3.657.7314l-.64 2.0114c-.64-.3657-1.554-.64-3.017-.64-3.291 0-5.028 2.4686-5.028 5.3943 0 3.2914 2.103 5.3943 4.937 5.3943 1.463 0 2.468-.3657 3.2-.7314z"/><path d="m131.931 24.8683c.092 3.5658 2.286 5.0286 4.938 5.0286 1.828 0 3.017-.3657 3.931-.7314l.457 1.8286c-.914.4571-2.468.9142-4.754.9142-4.389 0-7.04-2.9257-7.04-7.2228 0-4.2972 2.56-7.7714 6.766-7.7714 4.662 0 5.942 4.1142 5.942 6.7657 0 .5485-.091.9143-.091 1.1885zm7.589-1.8285c0-1.6457-.64-4.2057-3.657-4.2057-2.652 0-3.84 2.4685-4.023 4.2057z"/></g></svg>