<svg fill="none" height="32" viewBox="0 0 32 32" width="32" xmlns="http://www.w3.org/2000/svg"><g clip-rule="evenodd" fill-rule="evenodd"><path d="m14.28.021c-.163.007-.296.027-.296.044s-.1.03-.222.03-.231.015-.242.032c-.01.018-.098.032-.194.032s-.174.015-.174.032c0 .018-.08.032-.176.032-.097 0-.176.015-.176.032 0 .018-.057.032-.126.032-.07 0-.135.015-.146.032-.01.018-.084.032-.162.032s-.142.015-.142.032c0 .018-.05.032-.11.032s-.12.015-.13.032c-.01.018-.07.032-.13.032s-.11.015-.11.032c0 .018-.05.032-.112.032s-.112.015-.112.032c0 .018-.05.032-.112.032s-.112.015-.112.032c0 .018-.043.032-.096.032s-.096.015-.096.032c0 .018-.043.032-.096.032s-.096.013-.096.028-.067.037-.149.048a.643.643 0 0 0 -.184.046.876.876 0 0 1 -.163.066c-.134.043-.25.089-.344.136a.28.28 0 0 1 -.104.028c-.026 0-.048.012-.048.027 0 .014-.072.045-.16.07-.088.023-.16.055-.16.07 0 .014-.029.025-.064.025s-.064.015-.064.032c0 .018-.02.032-.045.032a.6.6 0 0 0 -.168.062c-.068.034-.17.08-.227.104-.057.023-.104.053-.104.066 0 .014-.029.024-.064.024s-.064.015-.064.032c0 .018-.029.032-.064.032s-.064.015-.064.032c0 .018-.029.032-.064.032s-.064.012-.064.026c0 .015-.05.046-.112.07-.062.025-.112.056-.112.07 0 .015-.022.026-.048.026s-.048.015-.048.032c0 .018-.029.032-.064.032s-.064.015-.064.032c0 .018-.029.032-.064.032s-.064.015-.064.032c0 .018-.022.032-.048.032s-.048.012-.048.025c0 .014-.04.042-.088.062a1.648 1.648 0 0 0 -.296.17.73.73 0 0 1 -.104.06c-.048.026-.088.058-.088.073 0 .014-.026.026-.057.026s-.078.03-.103.064c-.025.036-.069.064-.096.064s-.07.03-.096.064c-.025.036-.062.064-.082.064s-.082.044-.137.096c-.055.053-.119.096-.142.096-.022 0-.062.03-.087.064-.025.036-.061.065-.08.065-.029 0-.11.066-.375.303a1.076 1.076 0 0 1 -.176.125 1.593 1.593 0 0 0 -.251.203c-.09.085-.211.19-.272.233a3.12 3.12 0 0 0 -.318.295c-.258.27-.463.475-.753.753a3.27 3.27 0 0 0 -.302.325c-.043.061-.148.183-.234.272-.086.09-.178.204-.204.255a.962.962 0 0 1 -.11.16c-.258.288-.316.36-.317.388 0 .018-.029.054-.064.08-.035.025-.064.06-.064.078a.468.468 0 0 1 -.096.145.468.468 0 0 0 -.096.145c0 .018-.029.054-.064.08-.035.025-.064.068-.064.095 0 .028-.029.071-.064.096-.035.026-.064.066-.064.089s-.029.073-.064.11c-.035.039-.064.088-.064.111 0 .024-.014.042-.032.042s-.032.02-.032.043c0 .024-.028.069-.062.1a.33.33 0 0 0 -.083.149c-.01.05-.033.092-.05.092-.016 0-.029.022-.029.048 0 .027-.014.048-.032.048s-.032.03-.032.064c0 .036-.014.064-.032.064s-.032.03-.032.064c0 .036-.014.064-.032.064s-.032.022-.032.048c0 .027-.012.048-.026.048s-.046.05-.07.112-.056.112-.07.112-.026.03-.026.064c0 .036-.014.064-.032.064s-.032.03-.032.064c0 .036-.014.064-.032.064s-.032.03-.032.064c0 .036-.01.064-.024.065-.029 0-.104.155-.104.214 0 .023-.014.041-.032.041s-.032.028-.032.062c0 .035-.014.072-.032.082-.018.011-.032.048-.032.082s-.014.062-.032.062-.032.03-.032.064c0 .036-.012.064-.026.064-.015 0-.046.072-.07.16s-.055.16-.07.16c-.014 0-.026.022-.026.049a.28.28 0 0 1 -.028.104c-.096.189-.232.57-.25.703-.01.075-.031.136-.046.136-.016 0-.028.044-.028.096 0 .053-.014.096-.032.096s-.032.044-.032.096c0 .053-.014.096-.032.096s-.032.05-.032.112-.014.112-.032.112-.032.05-.032.112-.014.112-.032.112-.032.05-.032.112-.014.112-.032.112-.032.058-.032.128-.014.128-.032.128-.032.064-.032.143c0 .078-.014.15-.032.161s-.032.077-.032.146c0 .07-.014.126-.032.126s-.032.072-.032.159c0 .086-.014.166-.032.177s-.032.098-.032.192c0 .095-.014.181-.032.192s-.032.119-.032.24c0 .147-.013.223-.04.232-.031.01-.04.437-.04 1.985 0 1.535.009 1.981.04 2.012.024.024.04.126.04.258 0 .124.014.217.032.217s.032.086.032.192c0 .107.014.192.032.192s.032.072.032.16.014.16.032.16.032.065.032.144c0 .08.014.144.032.144s.032.057.032.127c0 .069.014.134.032.145s.032.069.032.128c0 .06.014.117.032.128s.032.07.032.13.014.11.032.11.032.05.032.11c0 .061.014.12.032.13.018.011.032.063.032.114 0 .052.014.094.032.094s.032.05.032.112.014.112.032.112.032.035.032.079c0 .042.013.086.029.096s.039.09.051.177c.012.088.035.16.051.16s.029.035.029.078.014.088.032.098c.018.011.032.042.032.068s.029.107.064.18a.644.644 0 0 1 .064.19c0 .032.014.058.032.058s.032.03.032.064c0 .036.014.064.032.064s.032.035.032.078.014.087.032.098.032.048.032.082c0 .035.014.062.032.062s.032.03.032.064c0 .036.014.064.032.064s.032.03.032.064c0 .036.014.064.032.064s.032.02.032.045.043.127.096.227.096.203.096.228c0 .024.014.044.032.044s.032.02.032.042c0 .023.029.073.064.111s.064.09.064.118c0 .027.014.05.032.05s.032.028.032.063c0 .036.014.064.032.064s.032.03.032.064c0 .036.014.064.032.064s.032.02.032.042c0 .023.029.073.064.111s.064.087.064.11.03.085.065.137c.036.053.087.141.114.196a.842.842 0 0 0 .103.16c.03.033.074.1.1.148.024.049.057.088.071.088.015 0 .027.02.027.042 0 .023.029.073.064.111s.064.082.064.097c0 .016.043.074.096.13.053.055.096.118.096.141s.029.062.064.087c.035.026.064.065.064.087 0 .023.014.041.032.041s.032.015.032.034c0 .018.032.068.072.11.094.1.218.251.366.448.065.088.156.196.202.24.045.044.118.13.16.192.044.062.209.238.367.392.365.354.418.407.681.681.119.124.266.26.328.304.061.043.181.147.267.231a.846.846 0 0 0 .184.152c.016 0 .088.058.16.128.073.07.152.128.175.128.024 0 .054.02.068.042a.65.65 0 0 0 .138.118c.062.043.135.103.164.135.028.031.072.057.097.057s.066.03.091.064c.025.036.061.064.079.064s.083.044.145.096a.535.535 0 0 0 .137.096c.014 0 .057.03.094.064.038.036.088.064.111.064s.042.013.042.029c0 .015.043.046.096.067.053.022.096.053.096.068 0 .016.015.028.034.028s.097.044.174.096a.907.907 0 0 0 .16.096c.01 0 .072.036.137.08a.46.46 0 0 0 .174.08c.032 0 .057.015.057.032 0 .018.029.032.064.032s.064.015.064.032c0 .018.029.032.064.032s.064.015.064.032c0 .018.029.032.064.032s.064.011.064.024c0 .03.156.104.214.104.043 0 .048-.759.042-6.12-.001-1.165.008-1.592.035-1.592.02 0 .203.084.408.187a11.579 11.579 0 0 0 2.837.936c.314.07.777.14 1.453.221 2.756.33 4.963-.682 5.551-2.544.583-1.843.089-3.771-1.184-4.622-1.072-.717-3.024-1.03-4.796-.77l-.48.066c-.303.04-1.147.176-1.392.225-.425.085-.441.083-.73-.095a4.688 4.688 0 0 0 -.278-.164 4.49 4.49 0 0 1 -.272-.16 4.312 4.312 0 0 0 -.272-.16c-.007 0-.107-.059-.222-.131-.239-.15-.229-.116-.18-.627.016-.173.046-.522.065-.778l.065-.816c.017-.193.045-.56.064-.816l.064-.816c.016-.193.045-.56.064-.816l.064-.816.064-.8c.052-.684.09-1.173.128-1.648.02-.237.077-.963.128-1.612.05-.65.105-1.193.12-1.208.015-.016 2.54-.024 5.666-.02l5.638.008v-1.921c0-1.4.01-1.932.037-1.958.027-.028.013-.043-.056-.06a.44.44 0 0 1 -.126-.047.696.696 0 0 0 -.2-.048c-.092-.012-.167-.034-.167-.05 0-.015-.043-.028-.096-.028s-.096-.014-.096-.032c0-.017-.035-.032-.078-.032s-.087-.014-.098-.032c-.01-.017-.062-.032-.114-.032s-.094-.014-.094-.032c0-.017-.05-.032-.112-.032s-.112-.013-.112-.032c0-.017-.058-.032-.128-.032s-.128-.014-.128-.032c0-.017-.058-.032-.128-.032s-.128-.014-.128-.032c0-.017-.058-.032-.128-.032s-.128-.014-.128-.032c0-.017-.064-.032-.142-.032s-.151-.014-.162-.032c-.01-.017-.083-.032-.16-.032s-.15-.014-.16-.032c-.01-.017-.105-.032-.208-.032-.104 0-.197-.014-.208-.032-.01-.017-.119-.032-.24-.032-.143 0-.223-.013-.232-.039-.013-.038-2.855-.066-3.6-.035z" fill="#6a737d"/><path d="m10.16 4.864c-.011.018-.062.562-.113 1.208-.05.647-.108 1.37-.127 1.608-.038.474-.076.963-.128 1.648l-.064.8c-.016.193-.045.56-.064.816l-.064.816c-.016.193-.045.56-.064.816-.019.255-.047.622-.064.816-.016.193-.046.56-.065.816-.02.255-.049.605-.065.777-.049.512-.059.477.18.627.115.072.215.132.221.132.007 0 .13.072.273.16s.266.16.272.16.131.073.278.163c.289.178.305.18.73.095a36.467 36.467 0 0 1 1.872-.29c.763-.113 1.925-.101 2.768.027 2.414.369 3.62 1.861 3.424 4.238-.18 2.206-1.388 3.338-3.913 3.67-.32.042-1.5.042-1.85 0a16.003 16.003 0 0 1 -1.757-.285 11.58 11.58 0 0 1 -2.533-.872 3.641 3.641 0 0 0 -.408-.186c-.025 0-.035.443-.035 1.57v1.57l.392.187c.97.463 2.136.763 3.48.894 1.85.18 3.72.076 4.992-.28l.304-.084c1.554-.418 3.062-1.514 3.88-2.82.645-1.03.957-2.094 1.064-3.618.234-3.372-1.622-6.006-4.753-6.745a7.305 7.305 0 0 0 -.687-.143c-.655-.103-.828-.114-1.792-.111-1.074.003-1.29.021-2.368.204-.436.073-.593.091-.614.07-.012-.012.005-.318.038-.678l.095-1.04.067-.736c.04-.437.088-.961.126-1.36.016-.168.045-.506.065-.752.02-.247.046-.52.058-.608l.021-.16 4.112-.017c2.262-.009 4.116-.02 4.12-.024.005-.004.005-.702 0-1.551l-.008-1.544-5.638-.008c-3.804-.006-5.645.002-5.658.024z" fill="#fbfbfa"/><path d="m21.496.978c-.013.013-.024 1.584-.024 3.49 0 1.908-.004 3.471-.008 3.475s-1.858.015-4.12.024l-4.112.017-.021.16a17.91 17.91 0 0 0 -.058.608c-.02.246-.05.584-.065.752a282.5 282.5 0 0 0 -.193 2.096c-.18 1.975-.192 1.753.09 1.71l.383-.061c1.102-.185 1.3-.202 2.376-.205.964-.003 1.137.008 1.792.11.538.084 1.16.256 1.68.465 2.552 1.022 3.967 3.44 3.76 6.424-.107 1.524-.42 2.588-1.064 3.617-.818 1.307-2.326 2.403-3.88 2.821l-.304.083c-1.023.287-2.627.428-3.987.351-1.105-.062-1.734-.138-2.461-.296-.83-.18-1.375-.36-1.996-.654-.2-.095-.376-.165-.392-.155s-.028 1.003-.028 2.271c0 1.482-.011 2.255-.032 2.255a.032.032 0 0 0 -.032.032c0 .017.028.032.062.032s.071.014.082.032c.01.017.048.032.082.032s.062.014.062.032c0 .017.029.032.064.032s.064.014.064.032c0 .017.029.032.064.032s.064.014.064.032c0 .017.029.032.064.032s.064.014.064.032c0 .017.028.032.062.032s.071.014.082.032c.01.017.055.032.098.032s.078.014.078.032c0 .017.029.032.064.032s.064.014.064.032c0 .017.043.032.096.032s.096.014.096.032c0 .017.022.032.048.032a.31.31 0 0 1 .112.032l.128.064a.34.34 0 0 0 .128.032c.035 0 .064.014.064.032 0 .017.034.032.075.032.04 0 .084.01.096.021.04.04.256.103.428.125.093.011.169.034.169.05 0 .015.043.028.096.028s.096.014.096.032c0 .017.05.032.112.032s.112.014.112.032c0 .017.058.032.128.032s.128.014.128.032c0 .017.05.032.11.032s.12.014.13.032c.01.017.076.032.146.032s.126.014.126.032c0 .017.064.032.142.032s.151.014.162.032c.01.017.084.032.162.032s.142.014.142.032c0 .017.085.032.192.032s.192.014.192.032.094.032.218.032c.131 0 .233.015.257.04.059.058 3.977.058 3.997 0 .009-.027.086-.04.235-.04.126 0 .221-.014.221-.032s.085-.032.192-.032.192-.015.192-.032c0-.018.08-.032.176-.032.097 0 .176-.015.176-.032 0-.018.058-.032.128-.032s.128-.015.128-.032c0-.018.072-.032.16-.032s.16-.015.16-.032c0-.018.058-.032.128-.032s.128-.015.128-.032c0-.018.05-.032.112-.032s.112-.015.112-.032c0-.018.05-.032.112-.032s.112-.015.112-.032c0-.018.05-.032.112-.032s.112-.015.112-.032c0-.018.035-.032.078-.032.079 0 .564-.143.666-.196a.275.275 0 0 1 .104-.028c.026 0 .048-.015.048-.032 0-.018.029-.032.064-.032a.341.341 0 0 0 .128-.032l.128-.064a.309.309 0 0 1 .112-.032c.026 0 .048-.015.048-.032 0-.018.035-.032.078-.032s.087-.015.098-.032c.01-.018.048-.032.082-.032s.062-.015.062-.032c0-.018.029-.032.064-.032s.064-.015.064-.032c0-.018.029-.032.064-.032s.064-.015.064-.032c0-.018.027-.032.06-.032.064 0 .461-.193.479-.232.006-.014.038-.024.072-.024.033 0 .061-.015.061-.032 0-.018.029-.032.064-.032s.064-.015.064-.032c0-.018.022-.032.05-.032.026 0 .08-.03.117-.064.038-.036.088-.064.111-.064s.042-.015.042-.032c0-.018.022-.032.05-.032a.72.72 0 0 0 .27-.125c.009-.01.06-.04.112-.067.133-.065.478-.294.49-.326.006-.015.036-.026.066-.026s.075-.03.1-.064c.025-.036.069-.064.096-.064s.07-.03.096-.064c.025-.036.065-.064.087-.064.023 0 .087-.044.142-.096.055-.053.117-.096.137-.096s.057-.03.082-.064c.025-.036.062-.064.08-.064.02 0 .09-.05.158-.112a.677.677 0 0 1 .144-.112c.012 0 .076-.05.144-.112a.587.587 0 0 1 .15-.112c.014 0 .106-.08.203-.176.096-.097.19-.176.207-.176s.186-.158.376-.35l.388-.393c.545-.54.742-.743.742-.766 0-.016.08-.108.176-.205.097-.097.176-.188.176-.203s.05-.082.112-.15a.677.677 0 0 0 .112-.144c0-.012.05-.076.112-.144a.517.517 0 0 0 .112-.157c0-.019.029-.055.064-.08.035-.026.064-.065.064-.088 0-.022.043-.086.096-.142.053-.055.096-.116.096-.136s.029-.057.064-.082c.035-.026.064-.069.064-.096 0-.028.029-.071.064-.096.035-.026.064-.071.064-.1 0-.03.012-.06.026-.066.032-.013.262-.358.327-.49a.555.555 0 0 1 .067-.112.718.718 0 0 0 .124-.27c0-.028.014-.05.032-.05s.032-.02.032-.042c0-.024.029-.073.064-.111s.064-.091.064-.118.014-.05.032-.05.032-.028.032-.063c0-.036.014-.064.032-.064s.032-.028.032-.062c0-.033.01-.066.024-.072.013-.006.073-.111.131-.234.06-.124.12-.25.136-.28a.277.277 0 0 0 .029-.104c0-.027.014-.048.032-.048s.032-.03.032-.064c0-.036.014-.064.032-.064s.032-.028.032-.063c0-.034.014-.07.032-.081s.032-.055.032-.098.014-.078.032-.078.032-.03.032-.064c0-.036.014-.064.032-.064s.032-.03.032-.065.013-.09.028-.12c.07-.137.144-.331.198-.52a.904.904 0 0 1 .066-.176.743.743 0 0 0 .046-.2c.012-.092.035-.167.05-.167s.028-.05.028-.112.014-.112.032-.112.032-.043.032-.095c0-.051.014-.103.032-.113.018-.011.032-.07.032-.13s.014-.11.032-.11.032-.058.032-.128.014-.128.032-.128.032-.064.032-.142c0-.079.014-.152.032-.162.018-.011.032-.077.032-.146 0-.07.014-.126.032-.126s.032-.072.032-.159.014-.167.032-.177c.018-.011.032-.106.032-.21 0-.106.014-.19.032-.19s.032-.096.032-.222c0-.143.014-.226.038-.234.054-.018.076-3.017.026-3.592-.02-.23-.043-.52-.052-.648-.01-.128-.03-.232-.047-.232-.016 0-.029-.079-.029-.175 0-.095-.014-.183-.032-.193-.018-.011-.032-.083-.032-.16 0-.078-.014-.15-.032-.16-.018-.011-.032-.084-.032-.162 0-.079-.014-.142-.032-.142s-.032-.058-.032-.128-.014-.128-.032-.128-.032-.058-.032-.128-.014-.128-.032-.128-.032-.058-.032-.128-.014-.128-.032-.128-.032-.05-.032-.112-.014-.112-.032-.112-.032-.044-.032-.096c0-.053-.013-.096-.029-.096s-.039-.087-.051-.192c-.012-.106-.035-.192-.051-.192s-.029-.036-.029-.079-.014-.087-.032-.097c-.018-.011-.032-.063-.032-.114 0-.052-.014-.094-.032-.094s-.032-.03-.032-.065a.34.34 0 0 0 -.032-.128l-.064-.127a.31.31 0 0 1 -.032-.112c0-.027-.014-.048-.032-.048s-.032-.036-.032-.079c0-.042-.014-.087-.032-.097-.018-.011-.032-.048-.032-.082 0-.035-.014-.062-.032-.062s-.032-.028-.032-.063c0-.034-.014-.07-.032-.081s-.032-.055-.032-.098-.014-.078-.032-.078-.032-.03-.032-.064c0-.036-.014-.064-.032-.064s-.032-.03-.032-.064c0-.036-.014-.064-.032-.064s-.032-.03-.032-.064c0-.036-.014-.064-.032-.064s-.032-.03-.032-.064c0-.036-.014-.064-.032-.064s-.032-.03-.032-.064c0-.036-.014-.064-.032-.064s-.032-.022-.032-.048c0-.027-.014-.048-.032-.048s-.032-.03-.032-.064c0-.036-.014-.064-.032-.064s-.032-.03-.032-.064c0-.036-.014-.064-.032-.064s-.032-.03-.032-.064c0-.036-.014-.064-.032-.064s-.032-.03-.032-.064c0-.036-.014-.064-.032-.064s-.032-.028-.032-.062a.174.174 0 0 0 -.04-.104.713.713 0 0 1 -.087-.138 2.52 2.52 0 0 0 -.136-.23.714.714 0 0 1 -.089-.161c0-.015-.029-.048-.064-.073-.035-.026-.064-.072-.064-.103 0-.032-.012-.057-.027-.057-.014 0-.047-.04-.072-.088a.853.853 0 0 0 -.101-.15c-.03-.035-.056-.078-.056-.097 0-.02-.029-.056-.064-.081-.035-.026-.064-.069-.064-.096 0-.028-.029-.071-.064-.096-.035-.026-.064-.063-.064-.083s-.043-.081-.096-.136c-.053-.056-.096-.115-.096-.133a.032.032 0 0 0 -.032-.032c-.018 0-.032-.022-.032-.048 0-.027-.014-.048-.031-.048s-.052-.04-.077-.088a.999.999 0 0 0 -.137-.184 2.162 2.162 0 0 1 -.17-.208 2.068 2.068 0 0 0 -.192-.225 3.376 3.376 0 0 1 -.225-.256 3.065 3.065 0 0 0 -.265-.287c-.17-.16-.243-.232-.56-.56a3.862 3.862 0 0 0 -.333-.312 3.637 3.637 0 0 1 -.282-.248 1.145 1.145 0 0 0 -.186-.16.514.514 0 0 1 -.123-.089 3.371 3.371 0 0 0 -.19-.151 1.645 1.645 0 0 1 -.161-.136c-.04-.04-.088-.072-.107-.072a.033.033 0 0 1 -.033-.032.032.032 0 0 0 -.032-.032c-.018 0-.078-.044-.133-.096-.055-.053-.117-.096-.137-.096s-.057-.03-.082-.064c-.025-.036-.069-.064-.096-.064s-.07-.03-.096-.064c-.025-.036-.069-.064-.096-.064s-.07-.03-.096-.064c-.025-.036-.069-.064-.096-.064s-.07-.03-.096-.064c-.025-.036-.058-.064-.073-.064a.748.748 0 0 1 -.167-.096.888.888 0 0 0 -.16-.096c-.011 0-.042-.022-.069-.048a.18.18 0 0 0 -.11-.048c-.033 0-.061-.015-.061-.032 0-.018-.029-.032-.064-.032s-.064-.015-.064-.032c0-.018-.022-.032-.048-.032s-.048-.015-.048-.032c0-.018-.022-.032-.048-.032s-.048-.015-.048-.032c0-.018-.029-.032-.064-.032s-.064-.015-.064-.032c0-.018-.029-.032-.064-.032s-.064-.015-.064-.032c0-.018-.029-.032-.064-.032s-.064-.012-.064-.026c0-.015-.05-.046-.112-.07-.062-.025-.112-.056-.112-.07 0-.015-.029-.026-.064-.026s-.064-.015-.064-.032c0-.018-.029-.032-.064-.032s-.064-.015-.064-.032c0-.018-.029-.032-.064-.032s-.064-.015-.064-.032c0-.018-.028-.032-.062-.032s-.071-.015-.082-.032c-.01-.018-.055-.032-.098-.032s-.078-.015-.078-.032c0-.018-.029-.032-.064-.032s-.064-.015-.064-.032c0-.018-.028-.032-.062-.032s-.071-.015-.082-.032c-.01-.018-.055-.032-.098-.032s-.078-.015-.078-.032c0-.018-.029-.032-.064-.032s-.064-.013-.064-.029c0-.015-.043-.037-.096-.048l-.184-.038c-.049-.01-.1-.008-.112.005z" fill="#959da5"/></g></svg>