<svg fill="none" height="20" viewBox="0 0 98 20" width="98" xmlns="http://www.w3.org/2000/svg"><path d="m7.865 17.877c-4.836 0-7.81-4.06-7.808-8.46 0-4.65 2.66-8.377 7.762-8.375 3.75 0 6.645 2.234 6.882 5.39h-3.323c-.165-1.47-1.754-2.657-3.559-2.659-2.635 0-4.391 2.04-4.393 5.79 0 2.587 1.304 5.531 4.366 5.531 2.858 0 3.845-1.403 3.845-3.606h-3.494v-2.63h6.573v2.648c.006 3.748-1.589 6.373-6.85 6.37zm8.756-.543v-15.948h3.086v15.948zm4.549-6.746c.252-2.603 2.559-4.966 5.16-5.198 4.12-.367 6.734 2.12 6.732 6.112 0 3.702-2.304 6.146-5.935 6.144-4.08 0-6.357-2.944-5.957-7.058zm8.784.92c0-2.373-.95-3.537-2.823-3.537-1.874 0-2.825 1.162-2.827 3.534-.002 2.373.95 3.56 2.823 3.563 1.874.002 2.825-1.194 2.827-3.568v.007zm4.579 5.832v-15.95h3.038v5.792c.88-1.234 2.023-1.826 3.467-1.826 3.014 0 4.793 2.493 4.782 6.03 0 3.94-2.114 6.264-5.056 6.264-1.425 0-2.516-.552-3.252-1.734l-.023 1.423h-2.956zm8.166-5.742c0-2.391-.854-3.607-2.658-3.609-1.708 0-2.587 1.258-2.587 3.798 0 1.97 1.138 3.347 2.61 3.347 1.542 0 2.635-1.447 2.635-3.537zm12.274 5.758a4.632 4.632 0 0 1 -.184-1.044c-.735.805-1.97 1.351-3.536 1.351-2.658 0-3.892-1.307-3.892-3.205 0-3.371 2.257-3.75 5.365-4.177 1.543-.211 1.971-.52 1.971-1.327 0-.76-.76-1.21-1.97-1.21-1.399 0-1.969.685-2.112 1.73h-2.879c.05-2.422 1.38-4.107 5.13-4.105 3.702 0 4.984 1.655 4.982 4.598v7.39h-2.875zm-.211-5.721c-.31.309-.855.474-1.994.688-1.756.333-2.326.831-2.326 1.828 0 .877.522 1.304 1.495 1.306 1.589 0 2.777-1.163 2.8-2.54zm12.668 5.722v-7.079c0-1.804-.52-2.302-1.993-2.302-1.612 0-2.39.901-2.39 2.681v6.7h-3.092v-11.676h2.943v1.708c.711-1.306 1.898-2.023 3.773-2.023 2.231 0 3.862 1.354 3.862 3.894v8.092l-3.102.005zm11.976-4.381c-.068 1.287-.64 2.014-1.798 2.014-1.258 0-1.779-.855-1.779-2.326v-4.795h4.782v-2.492h-4.77v-2.849h-3.046v10.444c0 2.516 1.352 4.701 4.769 4.703 3.299 0 4.724-2.207 4.724-4.675v-.022zm6.594-12.442a.72.72 0 0 0 -1.054.822l1.377 2.054a11.921 11.921 0 0 1 0 13.262l-1.375 2.052a.72.72 0 0 0 1.051.824l11.533-8.785a.903.903 0 0 0 0-1.438l-11.532-8.79z" fill="#959da5"/></svg>