<?xml version="1.0" encoding="UTF-8"?>
<svg width="56px" height="56px" viewBox="0 0 56 56" version="1.1" xmlns="http://www.w3.org/2000/svg" xmlns:xlink="http://www.w3.org/1999/xlink">
    <!-- Generator: Sketch 56.2 (81672) - https://sketch.com -->
    <title>Matrix build</title>
    <desc>Created with Sketch.</desc>
    <g id="light" stroke="none" stroke-width="1" fill="none" fill-rule="evenodd">
        <g id="Titles" opacity="0.597353981" transform="translate(-813.000000, -1181.000000)"></g>
        <g id="Slides" transform="translate(-798.000000, -1247.000000)"></g>
        <g id="Group-62" transform="translate(4.000000, 4.000000)">
            <g id="Group-39" transform="translate(0.000000, 1.000000)">
                <g id="Group-37">
                    <path d="M8,15 C12.4183851,15 16,18.5816149 16,23 C16,27.4183851 12.4183851,31 8,31 C3.58161491,31 0,27.4183851 0,23 C0,18.5816149 3.58161491,15 8,15 Z" id="Stroke-5" stroke="#2088FF" stroke-width="2" stroke-linecap="round" stroke-linejoin="round"></path>
                    <path d="M26,17 C29.3136957,17 32,19.6863043 32,23 C32,26.3136957 29.3136957,29 26,29 C22.6863043,29 20,26.3136957 20,23 C20,19.6863043 22.6863043,17 26,17 Z" id="Stroke-3" stroke="#2088FF" stroke-width="2" stroke-linecap="round" stroke-linejoin="round"></path>
                    <path d="M42,0 C44.761413,0 47,2.23858696 47,5 C47,7.76141304 44.761413,10 42,10 C39.238587,10 37,7.76141304 37,5 C37,2.23858696 39.238587,0 42,0 Z" id="Stroke-3" stroke="#79B8FF" stroke-width="2" stroke-linecap="round" stroke-linejoin="round"></path>
                    <g id="Group-52" transform="translate(36.000000, 35.000000)" fill="#79B8FF">
                        <path d="M6,0 C6.55243665,0 7,0.447563353 7,1 C7,1.55243665 6.55243665,2 6,2 C5.44756335,2 5,1.55243665 5,1 C5,0.447563353 5.44756335,0 6,0" id="Fill-35"></path>
                        <path d="M3.44122314,2.48083496 C3.44122314,3.03327161 2.99365979,3.48083496 2.44122314,3.48083496 C1.8887865,3.48083496 1.44122314,3.03327161 1.44122314,2.48083496 C1.44122314,1.92839831 1.8887865,1.48083496 2.44122314,1.48083496 C2.99365979,1.48083496 3.44122314,1.92839831 3.44122314,2.48083496 Z" id="Fill-35"></path>
                        <path d="M10.5544434,2.48254395 C10.5544434,3.03498059 10.10688,3.48254395 9.55444336,3.48254395 C9.00200671,3.48254395 8.55444336,3.03498059 8.55444336,2.48254395 C8.55444336,1.9301073 9.00200671,1.48254395 9.55444336,1.48254395 C10.10688,1.48254395 10.5544434,1.9301073 10.5544434,2.48254395 Z" id="Fill-35"></path>
                        <path d="M3.43988037,9.50982666 C3.43988037,10.0622633 2.99231702,10.5098267 2.43988037,10.5098267 C1.88744372,10.5098267 1.43988037,10.0622633 1.43988037,9.50982666 C1.43988037,8.95739001 1.88744372,8.50982666 2.43988037,8.50982666 C2.99231702,8.50982666 3.43988037,8.95739001 3.43988037,9.50982666 Z" id="Fill-35"></path>
                        <path d="M10.4654541,9.60131836 C10.4654541,10.153755 10.0178907,10.6013184 9.4654541,10.6013184 C8.91301745,10.6013184 8.4654541,10.153755 8.4654541,9.60131836 C8.4654541,9.04888171 8.91301745,8.60131836 9.4654541,8.60131836 C10.0178907,8.60131836 10.4654541,9.04888171 10.4654541,9.60131836 Z" id="Fill-35"></path>
                        <path d="M6,10 C6.55243665,10 7,10.4475634 7,11 C7,11.5524366 6.55243665,12 6,12 C5.44756335,12 5,11.5524366 5,11 C5,10.4475634 5.44756335,10 6,10" id="Fill-35"></path>
                        <path d="M11,5 C11.5524366,5 12,5.44756335 12,6 C12,6.55243665 11.5524366,7 11,7 C10.4475634,7 10,6.55243665 10,6 C10,5.44756335 10.4475634,5 11,5" id="Fill-35"></path>
                        <path d="M1,5 C1.55243665,5 2,5.44756335 2,6 C2,6.55243665 1.55243665,7 1,7 C0.447563353,7 0,6.55243665 0,6 C0,5.44756335 0.447563353,5 1,5" id="Fill-35"></path>
                    </g>
                    <path d="M26,36 C28.761413,36 31,38.238587 31,41 C31,43.761413 28.761413,46 26,46 C23.238587,46 21,43.761413 21,41 C21,38.238587 23.238587,36 26,36 Z" id="Stroke-3" stroke="#79B8FF" stroke-width="2" stroke-linecap="round" stroke-linejoin="round"></path>
                    <polyline id="Stroke-10" stroke="#2088FF" stroke-width="2" stroke-linecap="round" stroke-linejoin="round" points="28.0356931 21.6070557 24.9665057 24.6721682 23.4757587 23.1866929"></polyline>
                    <path d="M42,17 C45.3136957,17 48,19.6863043 48,23 C48,26.3136957 45.3136957,29 42,29 C38.6863043,29 36,26.3136957 36,23 C36,19.6863043 38.6863043,17 42,17 Z" id="Stroke-3" stroke="#2088FF" stroke-width="2" stroke-linecap="round" stroke-linejoin="round"></path>
                    <path d="M7.0933645,19.7485767 L10.9392705,22.1445038 C11.4080318,22.4365333 11.5513013,23.0532762 11.2592718,23.5220375 C11.1771956,23.6537849 11.0655767,23.7646169 10.9332519,23.8457588 L7.08734597,26.2040791 C6.61653016,26.4927846 6.00081641,26.3451551 5.71211084,25.8743393 C5.61565259,25.7170369 5.56459829,25.5361132 5.56459829,25.3515916 L5.56459829,20.5973442 C5.56459829,20.0450594 6.01231354,19.5973442 6.56459829,19.5973442 C6.75152411,19.5973442 6.93470793,19.6497366 7.0933645,19.7485767 Z" id="Rectangle-50" stroke="#2088FF" stroke-width="2" stroke-linecap="round" stroke-linejoin="round" fill-rule="nonzero"></path>
                    <path d="M16,23 L20,23" id="Path-31" stroke="#2088FF" stroke-width="2"></path>
                    <path d="M32,23 L36,23" id="Path-31" stroke="#2088FF" stroke-width="2"></path>
                    <path d="M42,10 L42,13.0511475" id="Path-32" stroke="#79B8FF" stroke-width="2" stroke-linecap="round"></path>
                    <path d="M26,33 L26,36" id="Path-32" stroke="#79B8FF" stroke-width="2" stroke-linecap="round"></path>
                </g>
                <path d="M40,22 C40.5518316,22 41,22.4481684 41,23 C41,23.5526111 40.5518316,24 40,24 C39.4481684,24 39,23.5526111 39,23 C39,22.4481684 39.4481684,22 40,22" id="Fill-31" fill="#79B8FF"></path>
                <path d="M44,22 C44.5518316,22 45,22.4481684 45,23 C45,23.5526111 44.5518316,24 44,24 C43.4481684,24 43,23.5526111 43,23 C43,22.4481684 43.4481684,22 44,22" id="Fill-31" fill="#79B8FF"></path>
            </g>
            <path d="M21,36.0273438 L10,36.0273438 C8.8954305,36.0273438 8,36.9227743 8,38.0273438 L8,42.0273438" id="Path-52" stroke="#79B8FF" stroke-width="2" stroke-linecap="round" stroke-linejoin="round" transform="translate(14.500000, 39.027344) scale(1, -1) translate(-14.500000, -39.027344) "></path>
            <path d="M21,6.02734375 L10,6.02734375 C8.8954305,6.02734375 8,6.92277425 8,8.02734375 L8,12.0273438" id="Path-52" stroke="#79B8FF" stroke-width="2" stroke-linecap="round" stroke-linejoin="round"></path>
            <g id="Group-52" transform="translate(21.000000, 0.000000)" fill="#79B8FF">
                <path d="M5,0 C5.55243665,0 6,0.447563353 6,1 C6,1.55243665 5.55243665,2 5,2 C4.44756335,2 4,1.55243665 4,1 C4,0.447563353 4.44756335,0 5,0" id="Fill-35"></path>
                <path d="M2.44122314,2.48083496 C2.44122314,3.03327161 1.99365979,3.48083496 1.44122314,3.48083496 C0.888786497,3.48083496 0.441223145,3.03327161 0.441223145,2.48083496 C0.441223145,1.92839831 0.888786497,1.48083496 1.44122314,1.48083496 C1.99365979,1.48083496 2.44122314,1.92839831 2.44122314,2.48083496 Z" id="Fill-35"></path>
                <path d="M9.55444336,2.48254395 C9.55444336,3.03498059 9.10688001,3.48254395 8.55444336,3.48254395 C8.00200671,3.48254395 7.55444336,3.03498059 7.55444336,2.48254395 C7.55444336,1.9301073 8.00200671,1.48254395 8.55444336,1.48254395 C9.10688001,1.48254395 9.55444336,1.9301073 9.55444336,2.48254395 Z" id="Fill-35"></path>
                <path d="M2.43988037,9.50982666 C2.43988037,10.0622633 1.99231702,10.5098267 1.43988037,10.5098267 C0.887443724,10.5098267 0.439880371,10.0622633 0.439880371,9.50982666 C0.439880371,8.95739001 0.887443724,8.50982666 1.43988037,8.50982666 C1.99231702,8.50982666 2.43988037,8.95739001 2.43988037,9.50982666 Z" id="Fill-35"></path>
                <path d="M9.4654541,9.60131836 C9.4654541,10.153755 9.01789075,10.6013184 8.4654541,10.6013184 C7.91301745,10.6013184 7.4654541,10.153755 7.4654541,9.60131836 C7.4654541,9.04888171 7.91301745,8.60131836 8.4654541,8.60131836 C9.01789075,8.60131836 9.4654541,9.04888171 9.4654541,9.60131836 Z" id="Fill-35"></path>
                <path d="M5,10 C5.55243665,10 6,10.4475634 6,11 C6,11.5524366 5.55243665,12 5,12 C4.44756335,12 4,11.5524366 4,11 C4,10.4475634 4.44756335,10 5,10" id="Fill-35"></path>
            </g>
            <path d="M31,6.02734375 L37,6.02734375" id="Path-53" stroke="#79B8FF" stroke-width="2" stroke-linecap="round"></path>
            <path d="M32,42.0273438 L37,42.0273438" id="Path-53" stroke="#79B8FF" stroke-width="2" stroke-linecap="round"></path>
        </g>
    </g>
</svg>