<svg fill="none" height="32" viewBox="0 0 40 32" width="40" xmlns="http://www.w3.org/2000/svg"><path d="m26.6031 8.82618 3.4771-3.45678.2317-1.45553c-6.3361-5.72784-16.4081-5.07837-22.11987 1.35518-1.58656 1.78688-2.76359 4.01461-3.39125 6.31505l1.24531-.1745 6.95391-1.14.5369-.54587c3.0933-3.37739 8.3234-3.83176 11.895-.95813z" fill="#ea4335"/><path d="m35.0323 11.4825c-.7992-2.92595-2.44-5.55632-4.7214-7.56844l-4.88 4.85158c2.0607 1.67396 3.2346 4.19576 3.1842 6.84066v.8612c2.3986 0 4.3433 1.9332 4.3433 4.3179s-1.9447 4.2695-4.3433 4.2695h-8.6985l-.8541.9218v5.179l.8541.8126h8.6985c6.2391.0483 11.3363-4.8923 11.3849-11.095.0294-3.7597-1.8352-7.2844-4.9677-9.3908z" fill="#4285f4"/><path d="m11.23 31.9681h8.6864v-6.9136h-8.6864c-.6189-.0001-1.2183-.1323-1.78109-.388l-1.23235.3759-3.5014 3.4568-.305 1.1765c1.96359 1.4741 4.35937 2.303 6.81984 2.2924z" fill="#34a853"/><path d="m11.2297 9.54206c-6.23918.03698-11.2666825 5.09544-11.22949502 11.29814.02078122 3.4638 1.64796502 6.7244 4.40968502 8.8359l5.03875-5.0092c-2.18609-.9819-3.1575-3.5396-2.16984-5.7128.9875-2.1732 3.5603-3.1389 5.7461-2.1572.9633.4326 1.7347 1.1997 2.1698 2.1572l5.0388-5.0092c-2.1439-2.7864-5.4752-4.41542-9.0038-4.40284z" fill="#fbbc05"/></svg>