<?xml version="1.0" encoding="utf-8"?>
<!-- Generator: Adobe Illustrator 25.3.1, SVG Export Plug-In . SVG Version: 6.00 Build 0)  -->
<svg version="1.1" id="Layer_2" xmlns="http://www.w3.org/2000/svg" xmlns:xlink="http://www.w3.org/1999/xlink" x="0px" y="0px"
	 viewBox="0 0 75.9 72.9" style="enable-background:new 0 0 75.9 72.9;" xml:space="preserve">
<style type="text/css">
	.st0{fill-rule:evenodd;clip-rule:evenodd;fill:#79B8FF;}
	.st1{fill:#79B8FF;}
	.st2{fill-rule:evenodd;clip-rule:evenodd;fill:#2188FF;}
	.st3{fill:#2188FF;}
</style>
<path class="st0" d="M52.3,63C52.3,63,52.3,63,52.3,63l-1.5,0.1c-0.8,0-1.5-0.6-1.5-1.4c0-0.8,0.6-1.5,1.4-1.5l1.5,0
	c0,0,0.1,0,0.1,0c0.7-4.9,5-8.8,10.1-8.8c5.6,0,10.2,4.6,10.2,10.2S68,71.7,62.4,71.7C57.3,71.7,53,67.9,52.3,63z M55.1,61.5
	c0-4,3.3-7.3,7.3-7.3c4,0,7.3,3.3,7.3,7.3s-3.3,7.3-7.3,7.3C58.4,68.8,55.1,65.6,55.1,61.5z"/>
<path class="st1" d="M34.7,61.5c0-0.8-0.7-1.5-1.5-1.5c-0.8,0-1.5,0.7-1.5,1.5c0,0.8,0.7,1.5,1.5,1.5C34.1,63,34.7,62.3,34.7,61.5z"
	/>
<path class="st1" d="M39.1,60.1c0.8,0,1.5,0.7,1.5,1.5c0,0.8-0.7,1.5-1.5,1.5c-0.8,0-1.5-0.7-1.5-1.5C37.6,60.7,38.3,60.1,39.1,60.1
	z"/>
<path class="st2" d="M15.9,9.3c-1.9-1.2-4.5,0.2-4.5,2.5V21c0,2.3,2.5,3.7,4.4,2.5l7.4-4.6c1.8-1.1,1.8-3.8,0-4.9L15.9,9.3z
	 M14.3,11.7l7.4,4.7L14.3,21V11.7z"/>
<path class="st3" d="M66.4,35.2c0.6,0.6,0.6,1.5,0,2.1l-4.5,4.5c-0.6,0.6-1.5,0.6-2.1,0l-2.2-2.2c-0.6-0.6-0.6-1.5,0-2.1
	c0.6-0.6,1.5-0.6,2.1,0l1.1,1.1l3.4-3.4C64.9,34.6,65.8,34.6,66.4,35.2z"/>
<path class="st3" d="M40.2,35.2c0.6,0.6,0.6,1.5,0,2.1l-4.5,4.5c-0.6,0.6-1.5,0.6-2.1,0l-2.2-2.2c-0.6-0.6-0.6-1.5,0-2.1
	c0.6-0.6,1.5-0.6,2.1,0l1.1,1.1l3.4-3.4C38.7,34.6,39.6,34.6,40.2,35.2z"/>
<path class="st2" d="M2.7,16.4c0-8,6.5-14.6,14.6-14.6c8,0,14.6,6.5,14.6,14.6c0,8-6.4,14.5-14.4,14.6c0.7,3.3,3.6,5.8,7.1,5.8h1.6
	c0.7-4.9,5-8.7,10.1-8.7c5.1,0,9.4,3.8,10.1,8.7h6c0.7-4.9,5-8.7,10.1-8.7c5.6,0,10.2,4.6,10.2,10.2S68,48.4,62.4,48.4
	c-5.1,0-9.4-3.8-10.1-8.7h-6c-0.7,4.9-5,8.7-10.1,8.7c-5.1,0-9.4-3.8-10.1-8.7h-1.6c-2.8,0-5.4-1.2-7.2-3v14.7c0,4.8,4,8.7,8.7,8.7
	h0.1c0.7-4.9,5-8.7,10.1-8.7c5.6,0,10.2,4.6,10.2,10.2c0,5.6-4.6,10.2-10.2,10.2c-5.1,0-9.4-3.8-10.1-8.7H26
	c-6.4,0-11.7-5.2-11.7-11.7V30.7C7.7,29.3,2.7,23.4,2.7,16.4z M17.2,4.7c-6.4,0-11.7,5.2-11.7,11.7S10.8,28,17.2,28
	s11.7-5.2,11.7-11.7S23.7,4.7,17.2,4.7z M55.1,38.2c0,4,3.3,7.3,7.3,7.3c4,0,7.3-3.3,7.3-7.3c0-4-3.3-7.3-7.3-7.3
	C58.4,30.9,55.1,34.2,55.1,38.2z M36.2,68.8c-4,0-7.3-3.3-7.3-7.3c0-4,3.3-7.3,7.3-7.3s7.3,3.3,7.3,7.3
	C43.5,65.6,40.2,68.8,36.2,68.8z M36.2,30.9c-4,0-7.3,3.3-7.3,7.3c0,4,3.3,7.3,7.3,7.3s7.3-3.3,7.3-7.3
	C43.5,34.2,40.2,30.9,36.2,30.9z"/>
</svg>
