<svg fill="none" height="32" viewBox="0 0 32 32" width="32" xmlns="http://www.w3.org/2000/svg" xmlns:xlink="http://www.w3.org/1999/xlink"><clipPath id="a"><path d="m0 0h31.8603v32h-31.8603z"/></clipPath><g clip-path="url(#a)" fill="#959da5"><path d="m5.60806 27.9588c-.22279.0048-.44542.0319-.58555.0795-.29097.0989-.59137.3485-.72877.6057-.09351.175-.10433.2711-.11851 1.0528-.01025.5656.00306.9222.03878 1.0415.11975.3997.43016.7102.84491.8449.13126.0426.35467.0606.64286.0517.69308-.0215 1.08618-.246 1.30805-.747.09054-.2044.10806-.337.12414-.9398.02154-.8072-.02884-1.132-.22003-1.4166-.15133-.2254-.44634-.4379-.7196-.5186-.14057-.0415-.36349-.0589-.58628-.0541zm.06157.695c.1986.0056.3945.0747.52562.2115l.13422.1399.01317.7526c.01492.8527-.01961.9701-.32856 1.1167-.33556.1592-.77945.0616-.98322-.2164-.08771-.1197-.09626-.1963-.09626-.8602 0-.6381.01089-.745.08791-.8586.13203-.1948.39179-.2927.64712-.2855z"/><path d="m15.223 31.6031c-.3797-.1143-.6192-.3912-.682-.7885l-.0371-.2346h.3826c.3824 0 .3827.0001.4412.1413.102.2463.3968.3104.62.1349l.1218-.0959.0123-1.3804.0123-1.3804h.372.372l.0123 1.3689c.0144 1.6012-.0093 1.7532-.3145 2.0145-.102.0872-.2664.1829-.3655.2126-.2036.061-.7555.0654-.9474.0076z"/><path d="m19.2348 27.9565c-.3853-.0003-.4774.0161-.7206.1285-.3445.1594-.4636.2681-.6193.5654-.1149.2193-.1228.2774-.1395 1.0303-.0141.6406-.0026.8494.0585 1.0597.1201.4131.4912.7574.9327.8653.2669.0653.8419.046 1.0989-.0367.3552-.1145.7037-.4617.803-.7999.1005-.3423.1039-1.606.0054-1.9379-.0968-.326-.3319-.5806-.6839-.7407-.257-.1169-.3485-.1336-.7352-.134zm.0105.6997c.1561.0029.3126.0371.4167.1015.2443.151.2702.2537.2702 1.0742 0 .6841-.0071.7444-.1008.8636-.0555.0705-.1699.157-.2543.1923-.3455.1443-.7846.0404-.9457-.2239-.0832-.1365-.0939-.2339-.0939-.8672 0-.7898.0303-.8992.2938-1.0548.1023-.0604.2579-.0887.414-.0857z"/><path d="m29.6083 31.5804c-.268-.0836-.5324-.2721-.675-.4811-.1262-.185-.2378-.5403-.1926-.6134.0154-.0249.1905-.0454.3889-.0454.3605 0 .3609.0002.4274.1478.1126.2502.2837.3404.6462.3404.3758 0 .5129-.087.5129-.3255 0-.2181-.1196-.2952-.6825-.4402-.6479-.1668-.7165-.1959-.9421-.3998-.3999-.3612-.4317-1.0113-.069-1.4127.5369-.5943 1.7988-.5201 2.2298.1311.0652.0985.1308.2552.1459.3483l.0275.1692h-.3742c-.3469 0-.3804-.0085-.46-.1178-.2647-.3634-1.0378-.2768-1.0378.1163 0 .1994.1632.2982.725.439.566.1418.7245.2119.9385.415.1586.1506.2895.4895.2891.7485-.0008.4487-.3012.8438-.7409.9744-.3032.0901-.8781.093-1.1571.0059z"/><path d="m.379806 27.9995-.012168 1.8017-.012169 1.8017h.892501c1.06678 0 1.32105-.0522 1.64514-.3374.37521-.3303.41298-.4503.43109-1.371.0127-.6456.00111-.8459-.05939-1.028-.10813-.3256-.33975-.5722-.68518-.7299-.29254-.1335-.29676-.134-1.24666-.1355zm.767174.7207h.49429c.41033 0 .51956.0156.64232.0914.24979.1544.28151.2678.28151 1.0051 0 .7445-.0355.8459-.35208 1.0073-.11946.0609-.27301.0814-.6127.0814l-.45334.0001v-1.0927z"/><path d="m8.51796 31.4983c-.07642-.3198-.67421-3.3689-.67421-3.4388 0-.0729.04536-.0832.36811-.0832h.36811l.04534.2208c.02494.1215.12471.6547.22172 1.1848.09701.5302.18268.9576.1904.9499.00771-.0077.12034-.3683.25028-.8012.12995-.4329.28872-.9608.35283-1.173l.11656-.3859.2381.0139.2381.0139.3473 1.1741c.191.6457.3533 1.168.3606 1.1607.0074-.0073.1086-.5222.2251-1.1441.1164-.6219.2233-1.1495.2374-1.1723.031-.0502.7032-.0563.7335-.0067.0117.0191-.1385.8351-.3338 1.8133l-.355 1.7785h-.4202-.4202l-.2966-.9532c-.1631-.5242-.3091-.9528-.32433-.9523-.01528.0005-.09414.215-.17525.4766-.08112.2616-.21469.6902-.29682.9523l-.14934.4766h-.41136c-.38818 0-.41275-.0059-.43634-.1047z"/><path d="m21.6176 29.8013.0122-1.8017.372-.0127.3719-.0128.7207 1.1515.7207 1.1514.0124-1.1503.0125-1.1504h.3711.3712v1.8134 1.8133l-.3836-.0002-.3836-.0002-.6974-1.1135-.6975-1.1135-.0124 1.1137-.0125 1.1137h-.3949-.3949z"/><path d="m25.5586 29.7887v-1.8141l1.1973.0124 1.1972.0124v.3487.3488l-.802.0127-.8021.0127v.3464.3464l.7091.0129.709.0128.0137.3371.0137.3371h-.7228-.7227v.3952.3952h.8137.8137v.3487.3487h-1.2089-1.2089z"/><path d="m7.28516 10.7252v-10.369731l5.70734.014286 5.7073.014285.4882.122277c2.3672.592863 4.1033 2.104783 4.9529 4.313133.2045.53159.3921 1.39289.4266 1.95852l.0281.46133h-1.7245-1.7245l-.0269-.22086c-.0891-.73391-.3206-1.31858-.7354-1.85769-.415-.53921-1.0392-.97639-1.731-1.21212l-.3719-.12676-3.7545-.0132-3.7546-.01319v6.92942 6.9294h1.7204 1.7203v1.7204 1.7203h-3.4639-3.46394z"/><path d="m16.8164 19.3886v-1.7199l.6161-.0313c.3388-.0173.7485-.0624.9104-.1004.994-.2333 1.9565-.9934 2.4047-1.8988.3749-.7575.3614-.638.3809-3.3655l.0173-2.42944h1.7205 1.7204l-.0175 2.63864-.0176 2.6386-.1202.4882c-.3381 1.3721-.9248 2.4219-1.8966 3.3937-.7887.7887-1.6603 1.3378-2.6888 1.6937-.7681.2659-1.2737.3542-2.2043.3851l-.8253.0273z"/></g></svg>