<svg width="216" height="216" viewBox="0 0 216 216" fill="none" xmlns="http://www.w3.org/2000/svg">
<rect width="216" height="216" fill=""/>
<g clip-path="url(#clip0_580_26)">
<path d="M46.748 117.946L45.5155 114.049H34.1439L32.9109 117.946H25.0137L36.4298 85.8564H43.234L54.7871 117.946H46.748ZM39.8549 95.0238L35.9276 108.227H43.6908L39.8549 95.0238Z" fill="#1F2127"/>
<path d="M55.668 85.8564H63.1568V117.946H55.668V85.8564Z" fill="#1F2127"/>
<path d="M65.1749 111.39C65.5111 109.806 66.1051 108.288 66.9329 106.897C67.6528 105.722 68.5547 104.67 69.6045 103.78C70.6769 102.887 71.814 102.075 73.0063 101.351C73.9496 100.8 74.8248 100.273 75.6319 99.7689C76.3764 99.3101 77.0861 98.7968 77.7553 98.2332C78.3333 97.751 78.8205 97.1687 79.1939 96.5139C79.5504 95.8612 79.7314 95.1265 79.719 94.3822C79.719 93.0987 79.3689 92.1741 78.6689 91.6087C77.9265 91.0294 77.0057 90.7293 76.066 90.7604C74.9966 90.728 73.9566 91.1144 73.166 91.838C72.3898 92.5563 72.0017 93.756 72.0017 95.4369H64.6494C64.6362 94.0405 64.8923 92.6548 65.4033 91.356C65.8933 90.1204 66.6495 89.0089 67.6176 88.1011C68.6486 87.1498 69.8601 86.417 71.1796 85.9465C72.734 85.4014 74.3723 85.1374 76.0186 85.1668C77.4313 85.1602 78.8379 85.3532 80.1971 85.74C81.4613 86.0923 82.6469 86.6836 83.6903 87.4821C84.7156 88.2871 85.5369 89.3238 86.0876 90.5078C86.7096 91.881 87.014 93.3778 86.9779 94.886C86.9944 96.1617 86.6963 97.4218 86.1103 98.5539C85.549 99.6307 84.8337 100.619 83.987 101.488C83.1602 102.335 82.25 103.095 81.2703 103.757C80.2951 104.415 79.4122 104.973 78.6215 105.431C77.5246 106.164 76.6189 106.798 75.9044 107.334C75.2912 107.779 74.7183 108.277 74.1923 108.823C73.7987 109.228 73.4951 109.713 73.3015 110.245C73.1251 110.792 73.0402 111.365 73.0503 111.94H86.75V117.946H64.5584C64.5193 115.745 64.726 113.545 65.1749 111.39Z" fill="#1F2127"/>
<path d="M88.165 91.4919C89.4446 91.5181 90.7232 91.4027 91.9777 91.1479C92.8157 90.9882 93.6052 90.6351 94.284 90.1165C94.8287 89.6628 95.2261 89.0562 95.4255 88.3744C95.6537 87.5541 95.7613 86.7046 95.7448 85.853H102.277V117.946H94.7432V96.7197H88.165V91.4919Z" fill="#1F2127"/>
<path d="M110.751 85.8564H117.737V117.946H110.751V85.8564Z" fill="#E91E63"/>
<path d="M143.533 95.8319V117.93H136.546V114.811C136.26 115.348 135.89 115.835 135.45 116.255C134.98 116.708 134.45 117.094 133.875 117.401C133.258 117.73 132.607 117.991 131.934 118.178C131.251 118.374 130.544 118.475 129.833 118.476C128.333 118.493 126.846 118.189 125.473 117.582C124.186 117.014 123.028 116.187 122.071 115.153C121.103 114.09 120.358 112.843 119.879 111.485C118.844 108.502 118.844 105.254 119.879 102.27C120.358 100.913 121.103 99.6658 122.071 98.6025C123.028 97.5688 124.186 96.7422 125.473 96.1735C126.847 95.5677 128.334 95.2636 129.834 95.2815C130.545 95.2832 131.252 95.3834 131.935 95.5793C132.611 95.7686 133.263 96.038 133.876 96.3819C134.453 96.7052 134.983 97.1061 135.451 97.5736C135.879 97.995 136.248 98.4731 136.547 98.9946V95.8319H143.533ZM131.295 112.52C132.035 112.531 132.769 112.374 133.441 112.062C134.063 111.769 134.623 111.356 135.086 110.847C135.554 110.325 135.918 109.718 136.159 109.059C136.419 108.363 136.55 107.625 136.547 106.881C136.557 105.432 136.037 104.029 135.085 102.938C134.627 102.418 134.067 101.996 133.44 101.701C132.765 101.399 132.033 101.242 131.294 101.242C130.554 101.242 129.823 101.399 129.148 101.701C128.521 101.997 127.961 102.418 127.503 102.938C126.551 104.029 126.031 105.432 126.042 106.881C126.037 107.625 126.169 108.363 126.429 109.059C126.67 109.718 127.034 110.325 127.502 110.847C127.965 111.356 128.524 111.769 129.147 112.062C129.819 112.375 130.554 112.531 131.295 112.52Z" fill="#E91E63"/>
<path d="M152.022 117.946H145.035V85.8564H152.022V99.0118C152.321 98.4903 152.69 98.0122 153.118 97.5908C153.591 97.1194 154.129 96.7182 154.715 96.3991C155.331 96.0603 155.981 95.7911 156.656 95.5965C157.346 95.3974 158.061 95.2972 158.779 95.2987C160.28 95.2816 161.767 95.5864 163.14 96.1926C164.427 96.7615 165.585 97.5881 166.542 98.6217C167.509 99.6852 168.255 100.932 168.734 102.29C169.769 105.273 169.769 108.521 168.734 111.505C168.255 112.862 167.509 114.109 166.542 115.172C165.585 116.206 164.427 117.033 163.14 117.602C161.767 118.208 160.28 118.513 158.779 118.495C158.061 118.497 157.346 118.397 156.656 118.198C155.985 118.005 155.334 117.745 154.715 117.42C154.131 117.117 153.593 116.731 153.118 116.274C152.679 115.855 152.309 115.367 152.022 114.83V117.946ZM157.319 112.536C158.045 112.545 158.763 112.388 159.42 112.078C160.043 111.786 160.602 111.373 161.065 110.864C161.533 110.341 161.897 109.735 162.139 109.075C162.398 108.379 162.53 107.641 162.526 106.898C162.536 105.448 162.016 104.045 161.064 102.955C160.606 102.434 160.046 102.013 159.419 101.717C158.763 101.407 158.045 101.25 157.319 101.257C156.572 101.248 155.831 101.404 155.151 101.715C154.515 102.006 153.948 102.428 153.484 102.953C152.532 104.043 152.012 105.446 152.023 106.896C152.019 107.639 152.15 108.377 152.41 109.073C152.651 109.732 153.015 110.339 153.483 110.861C153.952 111.375 154.518 111.788 155.15 112.076C155.83 112.388 156.571 112.546 157.319 112.536Z" fill="#E91E63"/>
<path d="M182.638 104.926C183.612 105.201 184.525 105.499 185.378 105.82C186.175 106.111 186.928 106.513 187.615 107.012C188.249 107.48 188.771 108.082 189.145 108.777C189.553 109.602 189.749 110.516 189.716 111.436C189.754 112.593 189.486 113.74 188.939 114.76C188.42 115.663 187.682 116.42 186.793 116.961C185.815 117.551 184.741 117.962 183.62 118.175C182.349 118.426 181.056 118.548 179.761 118.541C176.625 118.541 174.152 117.854 172.341 116.479C170.529 115.103 169.989 113.132 169.989 110.564H176.474C176.474 111.726 176.801 112.559 177.455 113.063C178.192 113.593 179.084 113.859 179.99 113.819C180.713 113.85 181.431 113.684 182.067 113.338C182.333 113.174 182.548 112.939 182.689 112.66C182.829 112.381 182.891 112.068 182.866 111.757C182.885 111.382 182.762 111.014 182.524 110.725C182.225 110.415 181.868 110.165 181.474 109.992C180.883 109.717 180.272 109.487 179.647 109.304C178.901 109.074 178.01 108.792 176.976 108.456C176.063 108.181 175.195 107.883 174.373 107.562C173.602 107.269 172.873 106.876 172.204 106.393C171.581 105.936 171.073 105.339 170.72 104.651C170.327 103.821 170.139 102.909 170.172 101.991C170.172 99.6991 171.047 98.0029 172.797 96.9027C174.548 95.8025 176.915 95.2519 179.898 95.251C181.312 95.2272 182.721 95.4206 184.077 95.8242C185.163 96.1437 186.172 96.6818 187.045 97.4056C187.804 98.0554 188.405 98.871 188.803 99.7899C189.2 100.716 189.402 101.715 189.397 102.724H182.501C182.55 101.948 182.296 101.184 181.794 100.592C181.504 100.321 181.162 100.114 180.788 99.9842C180.415 99.854 180.018 99.8034 179.624 99.8356C178.982 99.8199 178.349 99.9868 177.798 100.317C177.546 100.471 177.34 100.691 177.203 100.953C177.066 101.216 177.003 101.511 177.021 101.807C177.009 102.171 177.14 102.526 177.387 102.793C177.695 103.097 178.06 103.338 178.46 103.504C179.032 103.754 179.619 103.969 180.218 104.145C180.918 104.361 181.725 104.621 182.638 104.926Z" fill="#E91E63"/>
</g>
<defs>
<clipPath id="clip0_580_26">
<rect width="165" height="33.7441" fill="white" transform="translate(25 85)"/>
</clipPath>
</defs>
</svg>
