<svg enable-background="new 0 0 1000 752.3" viewBox="0 0 1000 752.3" xmlns="http://www.w3.org/2000/svg"><g fill="#00979c"><path d="m886.5 299.5c0-99.6-84-180.6-187.3-180.6-9.5 0-19.2.6-28.8 2-80.2 11.4-133.9 69.2-164 113.4-30.2-44.3-83.8-102-164.1-113.4-9.6-1.4-19.3-2-28.8-2-103.3 0-187.3 81-187.3 180.6s84 180.6 187.2 180.6c9.6 0 19.3-.6 28.9-2 80.2-11.5 133.9-69.3 164.1-113.6 30.1 44.3 83.7 102 164 113.6 9.6 1.4 19.3 2 28.9 2 103.3 0 187.2-81 187.2-180.6m-553.2 115.2c-6.5.9-13.2 1.4-19.8 1.4-67.9 0-123.2-52.4-123.2-116.6 0-64.3 55.3-116.7 123.3-116.7 6.5 0 13.2.5 19.7 1.4 75.6 10.8 121.9 85.3 137.6 115.2-15.7 30-62 104.5-137.6 115.3m208.7-115.2c15.7-29.9 62-104.4 137.5-115.2 6.5-.9 13.2-1.4 19.7-1.4 68 0 123.2 52.4 123.2 116.7 0 64.2-55.3 116.6-123.1 116.6-6.5 0-13.2-.5-19.8-1.4-75.6-10.9-121.9-85.5-137.5-115.3"/><path d="m262 281.9h112.4v36.2h-112.4z"/><path d="m711.7 318.1h38v-36.2h-38v-38.2h-36.3v38.2h-38.1v36.2h38.1v38.1h36.3z"/><path d="m179.5 533.8-32.8 104.6h26.5l5.4-21.4h30.1l5.8 21.4h27.5l-33.3-104.6zm4 63.1 9.5-38.3 10.3 38.3z"/><path d="m340.5 568.7c0-20.1-10.9-34.9-39.9-34.9h-42.2v104.6h25.9v-33.1h13l15.7 33.1h30.6l-20.4-38.3c11.5-6.1 17.3-17 17.3-31.4m-42.4 15.8h-13.7v-29.5h13.2c12.1 0 15.4 4.6 15.4 13.9 0 11.6-5.9 15.6-14.9 15.6"/><path d="m395.7 533.8h-34.3v104.6h34.4c44.4 0 51.9-28.5 51.9-53.2.1-32.9-12.9-51.4-52-51.4m1.4 83.2h-9.8v-62h7.6c23.1 0 25.2 10.9 25.2 31.3.1 17.7-1.5 30.7-23 30.7"/><path d="m524.5 597.7c0 15.9-4.4 21.2-16.1 21.2-9.8 0-15.9-4-15.9-21.4v-63.7h-25.9v68.6c0 31.7 22.9 37.6 40.7 37.6 18.5 0 42.1-6.6 42.1-37.5v-68.7h-24.9z"/><path d="m572.5 555.2h27v61.8h-27v21.4h80.2v-21.4h-27.3v-61.8h27.3v-21.4h-80.2z"/><path d="m736.2 596.6-33.9-62.8h-28.3v104.6h24.5l-.1-66.9 35.7 66.9h26.2v-104.6h-24.1z"/><path d="m821.3 532.4c-31.7 0-43.8 23.3-43.8 54.8 0 34.6 13.8 52.8 43.9 52.8 33.6 0 44.7-23.6 44.7-53.9 0-39.9-15-53.7-44.8-53.7m.1 86.5c-14.9 0-16.4-10.6-16.4-31.6 0-25.6 2.4-33.8 16.3-33.8 15.3 0 17.4 7.1 17.4 32.7-.1 24-2.1 32.7-17.3 32.7"/><path d="m886 124.6c-1.1-2.5-2.5-4.6-4.3-6.4s-3.9-3.2-6.3-4.3-5-1.6-7.8-1.6-5.4.5-7.8 1.6-4.5 2.5-6.3 4.3-3.2 3.9-4.3 6.4c-1.1 2.4-1.6 5.1-1.6 8 0 2.8.5 5.4 1.6 7.9s2.5 4.7 4.3 6.4c1.8 1.8 3.9 3.2 6.3 4.3s5 1.6 7.8 1.6 5.4-.5 7.8-1.6 4.5-2.5 6.3-4.3 3.2-3.9 4.3-6.4c1-2.5 1.6-5.2 1.6-7.9 0-2.9-.5-5.6-1.6-8zm-4.4 14.2c-.8 1.9-1.9 3.5-3.3 5-1.4 1.4-3 2.6-4.8 3.4s-3.7 1.3-5.8 1.3-4.1-.4-5.9-1.3c-1.8-.8-3.5-2-4.8-3.4-1.4-1.4-2.4-3.1-3.2-5s-1.2-3.9-1.2-6.1.4-4.3 1.2-6.2 1.9-3.6 3.2-5c1.4-1.4 3-2.5 4.8-3.3s3.8-1.2 5.9-1.2 4 .4 5.8 1.2 3.4 1.9 4.8 3.3 2.5 3.1 3.3 5 1.2 4 1.2 6.2c0 2.1-.4 4.2-1.2 6.1z"/><path d="m872 134.6c1.1-.6 2-1.4 2.6-2.4s.9-2.1.9-3.4c0-1.9-.7-3.6-2-4.9-1.3-1.4-3.6-2.1-6.9-2.1-1.2 0-2.3 0-3.3.1s-1.9.1-2.8.3v19.9h5v-6.5h2l3.5 6.5h5.7zm-5-2.7c-.7 0-1.2 0-1.5-.2v-5.4c.3-.1.9-.2 1.7-.2 2.1 0 3.2.9 3.2 2.8 0 2-1.2 3-3.4 3z"/></g></svg>