<svg fill="none" height="49" viewBox="0 0 56 49" width="56" xmlns="http://www.w3.org/2000/svg"><path d="m13.7412 16.4607h3.496v15.1123h-3.496v-1.5755c-1.5391 1.7975-3.408 2.0416-4.48539 2.0416-4.61733 0-7.25581-3.8835-7.25581-8.0333 0-4.9265 3.34207-7.9445 7.29979-7.9445 1.09941 0 3.03421.2884 4.44141 2.1525zm-8.17925 7.6117c0 2.6185 1.62706 4.8155 4.1556 4.8155 2.19875 0 4.24355-1.62 4.24355-4.7712 0-3.3065-2.0228-4.8821-4.24355-4.8821-2.52854 0-4.1556 2.1526-4.1556 4.8378zm15.80885-7.6117h3.496v1.3537c.3958-.466.9675-.9764 1.4512-1.2649.6816-.3995 1.3412-.5104 2.1327-.5104.8575 0 1.781.1331 2.7485.7101l-1.4292 3.1956c-.7916-.5105-1.4292-.5326-1.781-.5326-.7476 0-1.4951.1109-2.1767.821-.9675 1.043-.9675 2.4855-.9675 3.4841v7.8335h-3.496v-15.0901zm12.0711 0h3.4959v1.3981c1.1654-1.4425 2.5506-1.7975 3.6939-1.7975 1.5611 0 3.0343.7545 3.8698 2.2191 1.2533-1.7975 3.1222-2.2191 4.4414-2.2191 1.825 0 3.4081.8654 4.2656 2.3744.2858.5104.7915 1.62.7915 3.817v9.3425h-3.496v-8.3217c0-1.6866-.1759-2.3745-.3298-2.6852-.2199-.577-.7476-1.3315-2.0008-1.3315-.8575 0-1.6051.466-2.0668 1.1096-.6157.8655-.6817 2.1526-.6817 3.4397v7.7891h-3.4959v-8.3217c0-1.6866-.1759-2.3745-.3298-2.6852-.2199-.577-.7476-1.3315-2.0009-1.3315-.8575 0-1.6051.466-2.0668 1.1096-.6156.8655-.6816 2.1526-.6816 3.4397v7.7891h-3.408z" fill="#586069"/></svg>