<svg fill="none" height="48" viewBox="0 0 65 48" width="65" xmlns="http://www.w3.org/2000/svg"><path d="m14.6765 14.527h4.37v18.8905h-4.37v-1.9695c-1.9239 2.2469-4.26 2.552-5.60673 2.552-5.77167 0-9.06977-4.8544-9.06977-10.0416 0-6.1581 4.17759-9.9307 9.12474-9.9307 1.37416 0 3.79276.3607 5.55176 2.6908zm-10.22407 9.5146c0 3.2732 2.03383 6.0194 5.19451 6.0194 2.74846 0 5.30446-2.0249 5.30446-5.9639 0-4.1332-2.5286-6.1026-5.30446-6.1026-3.16068 0-5.19451 2.6907-5.19451 6.0471zm19.76107-9.5146h4.37v1.6921c.4947-.5825 1.2093-1.2205 1.814-1.5811.852-.4993 1.6765-.638 2.6659-.638 1.0719 0 2.2262.1664 3.4355.8877l-1.7864 3.9944c-.9895-.638-1.7865-.6657-2.2262-.6657-.9345 0-1.869.1387-2.721 1.0263-1.2093 1.3038-1.2093 3.1068-1.2093 4.3551v9.7919h-4.37v-18.8627zm15.0888 0h4.37v1.7476c1.4567-1.803 3.1882-2.2469 4.6173-2.2469 1.9514 0 3.7929.9432 4.8372 2.774 1.5666-2.2469 3.9028-2.774 5.5518-2.774 2.2812 0 4.2601 1.0819 5.332 2.9681.3573.638.9894 2.025.9894 4.7712v11.6782h-4.37v-10.4022c0-2.1082-.2199-2.9681-.4122-3.3565-.2749-.7212-.9345-1.6643-2.5011-1.6643-1.0719 0-2.0063.5825-2.5835 1.387-.7696 1.0818-.852 2.6907-.852 4.2995v9.7365h-4.37v-10.4022c0-2.1082-.2199-2.9681-.4123-3.3565-.2748-.7212-.9344-1.6643-2.501-1.6643-1.0719 0-2.0064.5825-2.5835 1.387-.7696 1.0818-.852 2.6907-.852 4.2995v9.7365h-4.2601z" fill="#8b949e"/></svg>