<svg xmlns="http://www.w3.org/2000/svg" viewBox="0 0 500 500"><linearGradient id="atlassian-gradient-1" gradientUnits="userSpaceOnUse" x1="226.656" y1="268.694" x2="138.865" y2="116.634" gradientTransform="matrix(1 0 0 -1 0 502)"><stop offset="0" stop-color="#0052cc"/><stop offset=".923" stop-color="#2684ff"/></linearGradient><path d="M180.98 207.79c-3.24-4.24-9.29-5.04-13.53-1.81a9.703 9.703 0 00-2.89 3.59L81.37 375.9c-2.46 4.91-.46 10.88 4.45 13.34a9.94 9.94 0 004.45 1.05H206.1c3.79.09 7.28-2.07 8.89-5.5 24.99-51.63 9.85-130.14-34.01-177z" fill="url(#atlassian-gradient-1)"/><path d="M241.99 56.51c-42.17 64.88-47.04 147.19-12.81 216.59l55.85 111.69a9.94 9.94 0 008.89 5.5h115.81c5.49 0 9.94-4.45 9.94-9.94 0-1.54-.36-3.07-1.05-4.45 0 0-155.81-311.66-159.73-319.45-2.27-4.66-7.9-6.6-12.56-4.32a9.45 9.45 0 00-4.34 4.38z" fill="#2684ff"/></svg>
