<svg width="40" height="40" viewBox="0 0 40 40" fill="none" xmlns="http://www.w3.org/2000/svg">
<path d="M24.3634 7.86768C24.0359 7.86768 23.7504 8.09033 23.6706 8.40791L23.2239 10.1859L22.7834 10.4062L20.9962 9.51259C20.7213 9.37509 20.3891 9.42899 20.1717 9.64639L19.1184 10.6997C18.8777 10.9405 18.8403 11.3177 19.0292 11.601L20.0825 13.181C20.3013 13.5092 20.7448 13.5979 21.073 13.3791C21.4013 13.1602 21.49 12.7168 21.2711 12.3885L20.5426 11.2958L20.8178 11.0206L22.464 11.8437C22.6651 11.9442 22.9018 11.9442 23.1029 11.8437L24.1562 11.317C24.3424 11.2239 24.4788 11.0541 24.5295 10.8522L24.9204 9.29625H25.3863L25.7773 10.8522C25.828 11.0541 25.9643 11.2239 26.1506 11.317L27.2039 11.8437C27.405 11.9442 27.6417 11.9442 27.8428 11.8437L29.4889 11.0206L29.8142 11.3458L28.9911 12.992C28.8905 13.1931 28.8905 13.4298 28.9911 13.6308L29.5177 14.6842C29.611 14.8707 29.7811 15.0071 29.9834 15.0577L31.549 15.4491V15.9136L29.9834 16.305C29.7811 16.3556 29.611 16.4921 29.5177 16.6786L28.9911 17.7319C28.8905 17.933 28.8905 18.1697 28.9911 18.3707L29.8142 20.0169L29.4889 20.3421L27.8428 19.5191C27.4899 19.3426 27.0609 19.4857 26.8845 19.8385C26.708 20.1913 26.8511 20.6204 27.2039 20.7968L29.3105 21.8501C29.5855 21.9876 29.9176 21.9337 30.135 21.7163L31.1884 20.663C31.4058 20.4456 31.4596 20.1135 31.3222 19.8385L30.4286 18.0513L30.6486 17.6113L32.4365 17.1643C32.7545 17.0848 32.9775 16.7991 32.9775 16.4713V14.8914C32.9775 14.5636 32.7545 14.2779 32.4365 14.1984L30.6486 13.7514L30.4286 13.3114L31.3222 11.5242C31.4596 11.2492 31.4058 10.9171 31.1884 10.6997L30.135 9.64639C29.9176 9.42899 29.5855 9.37509 29.3105 9.51259L27.5233 10.4062L27.0828 10.1859L26.6361 8.40791C26.5563 8.09033 26.2708 7.86768 25.9434 7.86768H24.3634Z" fill="#9DF4D3"/>
<path fill-rule="evenodd" clip-rule="evenodd" d="M26.392 25.2973C26.1099 25.0216 25.6577 25.0267 25.3819 25.3087C25.1061 25.5908 25.1112 26.0431 25.3933 26.3188L28.9993 29.8443L27.9568 32.8573C27.0221 32.8662 26.2306 33.4734 25.9467 34.3144C25.9188 34.3111 25.8905 34.3094 25.8617 34.3094H9.40611C7.43367 34.3094 5.83468 32.7104 5.83468 30.738V14.1639C6.66696 13.8697 7.26325 13.0759 7.26325 12.1429C7.26325 10.9595 6.30386 10.0001 5.1204 10.0001C3.93693 10.0001 2.97754 10.9595 2.97754 12.1429C2.97754 13.0759 3.57383 13.8697 4.40611 14.1639V30.738C4.40611 33.4994 6.64469 35.738 9.40611 35.738H25.8617C25.8959 35.738 25.9296 35.7356 25.9625 35.7309C26.2613 36.5545 27.0507 37.1429 27.9775 37.1429C29.161 37.1429 30.1204 36.1835 30.1204 35.0001C30.1204 34.3194 29.803 33.7129 29.3082 33.3203L30.1289 30.9487L31.9868 32.7651C31.7094 33.2055 31.549 33.7269 31.549 34.2858C31.549 35.8637 32.8282 37.1429 34.4061 37.1429C35.9841 37.1429 37.2633 35.8637 37.2633 34.2858C37.2633 32.7078 35.9841 31.4286 34.4061 31.4286C33.9057 31.4286 33.4352 31.5573 33.0262 31.7834L31.2583 30.055L31.7671 29.9065C32.1458 29.796 32.3632 29.3994 32.2527 29.0207C32.1422 28.642 31.7456 28.4246 31.3669 28.5351L30.086 28.9089L26.392 25.2973ZM5.1204 12.8572C5.51489 12.8572 5.83468 12.5374 5.83468 12.1429C5.83468 11.7484 5.51489 11.4286 5.1204 11.4286C4.72591 11.4286 4.40611 11.7484 4.40611 12.1429C4.40611 12.5374 4.72591 12.8572 5.1204 12.8572ZM34.4061 32.8572C33.6171 32.8572 32.9775 33.4968 32.9775 34.2858C32.9775 35.0748 33.6171 35.7144 34.4061 35.7144C35.1951 35.7144 35.8347 35.0748 35.8347 34.2858C35.8347 33.4968 35.1951 32.8572 34.4061 32.8572ZM27.2633 35.0001C27.2633 34.6056 27.583 34.2858 27.9775 34.2858C28.372 34.2858 28.6918 34.6056 28.6918 35.0001C28.6918 35.3946 28.372 35.7144 27.9775 35.7144C27.583 35.7144 27.2633 35.3946 27.2633 35.0001Z" fill="#9DF4D3"/>
<path fill-rule="evenodd" clip-rule="evenodd" d="M2.85693 5.71408C2.85693 4.13617 4.13617 2.85693 5.71408 2.85693C7.29198 2.85693 8.57122 4.13617 8.57122 5.71408C8.57122 6.32463 8.37969 6.89046 8.05344 7.35477L10.028 9.28711L10.9137 6.6647C10.4295 6.27182 10.12 5.67194 10.12 4.99979C10.12 3.81632 11.0794 2.85693 12.2629 2.85693C13.1996 2.85693 13.9959 3.4579 14.2872 4.29529C14.3258 4.28886 14.3654 4.28551 14.4057 4.28551H30.8613C33.6228 4.28551 35.8613 6.52408 35.8613 9.28551V25.8458C36.6795 26.1474 37.2629 26.9341 37.2629 27.8569C37.2629 29.0404 36.3035 29.9998 35.12 29.9998C33.9366 29.9998 32.9772 29.0404 32.9772 27.8569C32.9772 26.9139 33.5864 26.1131 34.4328 25.8267V9.28551C34.4328 7.31306 32.8338 5.71408 30.8613 5.71408H14.4057C14.3654 5.71408 14.3258 5.71073 14.2872 5.70429C13.9959 6.54168 13.1996 7.14265 12.2629 7.14265L12.2602 7.14265L11.1613 10.3961L13.2042 12.3953C13.4861 12.6713 13.491 13.1235 13.2151 13.4054C12.9392 13.6874 12.487 13.6923 12.205 13.4164L10.2078 11.4618L8.92025 11.8375C8.54155 11.9481 8.14497 11.7306 8.03447 11.3519C7.92396 10.9733 8.14137 10.5767 8.52007 10.4662L9.03638 10.3155L6.96166 8.28515C6.58469 8.46842 6.16138 8.57122 5.71408 8.57122C4.13617 8.57122 2.85693 7.29198 2.85693 5.71408ZM5.71408 4.28551C4.92515 4.28551 4.2855 4.92515 4.2855 5.71408C4.2855 6.50301 4.92515 7.14265 5.71408 7.14265C6.50301 7.14265 7.14265 6.50301 7.14265 5.71408C7.14265 4.92515 6.50301 4.28551 5.71408 4.28551ZM35.0042 27.152C34.6648 27.2073 34.4057 27.5019 34.4057 27.8569C34.4057 28.2514 34.7255 28.5712 35.12 28.5712C35.5145 28.5712 35.8343 28.2514 35.8343 27.8569C35.8343 27.5114 35.5889 27.2231 35.2629 27.1569C35.2252 27.1631 35.1865 27.1663 35.1471 27.1663C35.0981 27.1663 35.0504 27.1614 35.0042 27.152ZM12.2629 4.28551C11.8684 4.28551 11.5486 4.6053 11.5486 4.99979C11.5486 5.39428 11.8684 5.71408 12.2629 5.71408C12.6574 5.71408 12.9772 5.39428 12.9772 4.99979C12.9772 4.6053 12.6574 4.28551 12.2629 4.28551Z" fill="#64ACFF"/>
<path fill-rule="evenodd" clip-rule="evenodd" d="M13.6915 19.9998C13.6915 19.2108 14.3311 18.5712 15.12 18.5712C15.3895 18.5712 15.6535 18.6474 15.8815 18.7911L19.5337 21.0918C20.2013 21.5123 20.4016 22.3944 19.981 23.062C19.8654 23.2455 19.7095 23.4003 19.5251 23.5146L15.8728 25.7793C15.2023 26.195 14.3217 25.9885 13.9059 25.318C13.7657 25.0919 13.6915 24.8312 13.6915 24.5651V19.9998ZM18.7723 22.3005L15.12 19.9998V24.5651L18.7723 22.3005Z" fill="#64ACFF"/>
<path fill-rule="evenodd" clip-rule="evenodd" d="M15.4306 13.1053C15.1385 13.1053 14.8759 13.2832 14.7674 13.5544L13.8745 15.7867L13.4105 16.0187L11.2238 15.144C10.9585 15.0379 10.6555 15.1001 10.4535 15.3021L9.45967 16.2959C9.25763 16.498 9.19543 16.801 9.30155 17.0663L10.1762 19.2529L9.94422 19.7169L7.71189 20.6099C7.44071 20.7183 7.26289 20.981 7.26289 21.273V23.2606C7.26289 23.5527 7.44071 23.8154 7.71189 23.9238L9.94422 24.8168L10.1762 25.2807L9.30155 27.4674C9.19543 27.7327 9.25763 28.0357 9.45967 28.2378L10.4535 29.2315C10.6555 29.4336 10.9585 29.4958 11.2238 29.3897L13.4105 28.515L13.8745 28.747L14.7674 30.9793C14.8759 31.2505 15.1385 31.4283 15.4306 31.4283H17.4182C17.7102 31.4283 17.9729 31.2505 18.0814 30.9793L18.9743 28.747L19.4383 28.515L21.6249 29.3897C21.8902 29.4958 22.1932 29.4336 22.3953 29.2315L23.3891 28.2378C23.5911 28.0357 23.6533 27.7327 23.5472 27.4674L22.6725 25.2807L22.9045 24.8168L25.1369 23.9238C25.408 23.8154 25.5859 23.5527 25.5859 23.2606V21.273C25.5859 20.9326 25.3455 20.6394 25.0117 20.5726L22.9337 20.157L22.6506 19.3078L23.5472 17.0663C23.6533 16.801 23.5911 16.498 23.3891 16.2959L22.3953 15.3021C22.1932 15.1001 21.8902 15.0379 21.6249 15.144L19.4383 16.0187L18.9743 15.7867L18.0814 13.5544C17.9729 13.2832 17.7102 13.1053 17.4182 13.1053H15.4306ZM15.1 16.5694L15.9142 14.5339H16.9346L17.7488 16.5694C17.8137 16.7318 17.936 16.8647 18.0925 16.943L19.0863 17.4399C19.2688 17.5311 19.4816 17.54 19.671 17.4642L21.7182 16.6453L22.0459 16.973L21.227 19.0202C21.1643 19.1771 21.1592 19.3511 21.2126 19.5113L21.7095 21.002C21.7905 21.2452 21.9957 21.4263 22.247 21.4766L24.1573 21.8586V22.777L22.1218 23.5912C21.9594 23.6562 21.8265 23.7785 21.7482 23.935L21.2513 24.9288C21.1601 25.1113 21.1512 25.324 21.227 25.5135L22.0459 27.5606L21.7182 27.8883L19.671 27.0695C19.4816 26.9937 19.2688 27.0026 19.0863 27.0938L18.0925 27.5907C17.936 27.6689 17.8137 27.8019 17.7488 27.9643L16.9346 29.9998H15.9142L15.1 27.9643C15.035 27.8019 14.9127 27.6689 14.7562 27.5907L13.7624 27.0938C13.58 27.0026 13.3672 26.9937 13.1777 27.0695L11.1306 27.8883L10.8029 27.5606L11.6217 25.5135C11.6975 25.324 11.6887 25.1113 11.5974 24.9288L11.1005 23.935C11.0223 23.7785 10.8893 23.6562 10.7269 23.5912L8.69146 22.777V21.7566L10.7269 20.9425C10.8893 20.8775 11.0223 20.7552 11.1005 20.5987L11.5974 19.6049C11.6887 19.4224 11.6975 19.2096 11.6217 19.0202L10.8029 16.973L11.1306 16.6453L13.1777 17.4642C13.3672 17.54 13.58 17.5311 13.7624 17.4399L14.7562 16.943C14.9127 16.8647 15.035 16.7318 15.1 16.5694Z" fill="#64ACFF"/>
<path d="M24.4867 12.511C23.6977 12.511 23.0581 13.1505 23.0581 13.9395V14.2996C23.0581 14.6941 23.3779 15.0139 23.7724 15.0139C24.1669 15.0139 24.4867 14.6941 24.4867 14.2996V13.9395L27.2337 15.6509L24.4867 17.3354C24.1504 17.5416 24.0449 17.9814 24.2511 18.3177C24.4573 18.654 24.8971 18.7595 25.2334 18.5533L27.9805 16.8687C28.1696 16.7528 28.329 16.5945 28.4463 16.4063C28.8634 15.7366 28.6588 14.8556 27.9891 14.4384L25.242 12.727C25.0154 12.5858 24.7537 12.511 24.4867 12.511Z" fill="#64ACFF"/>
</svg>
