<svg width="200" height="200" viewBox="0 0 200 200" fill="none" xmlns="http://www.w3.org/2000/svg">
<path d="M59.2762 15.2767C60.5234 11.5809 63.9892 9.09277 67.8898 9.09277H124.999L65.723 184.728C64.4757 188.423 61.0099 190.911 57.1094 190.911H12.6624C6.44306 190.911 2.06006 184.805 4.04889 178.913L59.2762 15.2767Z" fill="url(#paint0_linear_305_56)"/>
<path d="M150.574 127.273H60.5696C56.7878 127.273 54.9619 131.906 57.7266 134.486L115.561 188.465C117.244 190.036 119.461 190.91 121.763 190.91H172.726L150.574 127.273Z" fill="#0078D4"/>
<path d="M67.8898 9.09277C63.9892 9.09277 60.5234 11.5809 59.2762 15.2767L4.04889 178.913C2.06006 184.805 6.44306 190.911 12.6624 190.911H57.1094C61.0099 190.911 64.4757 188.423 65.723 184.728L76.7023 152.195L115.56 188.463C117.244 190.035 119.46 190.909 121.764 190.909H172.726L150.574 127.272H85.114L124.999 9.09277H67.8898Z" fill="url(#paint1_linear_305_56)"/>
<path d="M140.723 15.2754C139.476 11.5797 136.011 9.09155 132.11 9.09155H68.1816H68.4733C72.3738 9.09155 75.8396 11.5797 77.0869 15.2754L132.314 178.912C134.303 184.804 129.92 190.91 123.701 190.91H122.727H187.337C193.556 190.91 197.94 184.804 195.951 178.912L140.723 15.2754Z" fill="url(#paint2_linear_305_56)"/>
<defs>
<linearGradient id="paint0_linear_305_56" x1="67.5007" y1="15.3861" x2="8.20131" y2="190.571" gradientUnits="userSpaceOnUse">
<stop stop-color="#114A8B"/>
<stop offset="1" stop-color="#0669BC"/>
</linearGradient>
<linearGradient id="paint1_linear_305_56" x1="114.89" y1="127.293" x2="101.188" y2="131.927" gradientUnits="userSpaceOnUse">
<stop stop-opacity="0.3"/>
<stop offset="0.0711768" stop-opacity="0.2"/>
<stop offset="0.321031" stop-opacity="0.1"/>
<stop offset="0.623053" stop-opacity="0.05"/>
<stop offset="1" stop-opacity="0"/>
</linearGradient>
<linearGradient id="paint2_linear_305_56" x1="105.096" y1="15.3853" x2="170.187" y2="188.807" gradientUnits="userSpaceOnUse">
<stop stop-color="#3CCBF4"/>
<stop offset="1" stop-color="#2892DF"/>
</linearGradient>
</defs>
</svg>
