<svg fill="none" height="452" viewBox="0 0 955 452" width="955" xmlns="http://www.w3.org/2000/svg" xmlns:xlink="http://www.w3.org/1999/xlink"><filter id="a" color-interpolation-filters="sRGB" filterUnits="userSpaceOnUse" height="695.094" width="620.094" x="363.341" y="60.2817"><feFlood flood-opacity="0" result="BackgroundImageFix"/><feColorMatrix in="SourceAlpha" type="matrix" values="0 0 0 0 0 0 0 0 0 0 0 0 0 0 0 0 0 0 127 0"/><feOffset dy="10.3772"/><feGaussianBlur stdDeviation="4.15089"/><feColorMatrix type="matrix" values="0 0 0 0 0 0 0 0 0 0 0 0 0 0 0 0 0 0 0.0365489 0"/><feBlend in2="BackgroundImageFix" mode="normal" result="effect1_dropShadow"/><feColorMatrix in="SourceAlpha" type="matrix" values="0 0 0 0 0 0 0 0 0 0 0 0 0 0 0 0 0 0 127 0"/><feOffset dy="24.9379"/><feGaussianBlur stdDeviation="9.97515"/><feColorMatrix type="matrix" values="0 0 0 0 0 0 0 0 0 0 0 0 0 0 0 0 0 0 0.0525061 0"/><feBlend in2="effect1_dropShadow" mode="normal" result="effect2_dropShadow"/><feColorMatrix in="SourceAlpha" type="matrix" values="0 0 0 0 0 0 0 0 0 0 0 0 0 0 0 0 0 0 127 0"/><feOffset dy="46.9558"/><feGaussianBlur stdDeviation="18.7823"/><feColorMatrix type="matrix" values="0 0 0 0 0 0 0 0 0 0 0 0 0 0 0 0 0 0 0.065 0"/><feBlend in2="effect2_dropShadow" mode="normal" result="effect3_dropShadow"/><feColorMatrix in="SourceAlpha" type="matrix" values="0 0 0 0 0 0 0 0 0 0 0 0 0 0 0 0 0 0 127 0"/><feOffset dy="83.7612"/><feGaussianBlur stdDeviation="33.5045"/><feColorMatrix type="matrix" values="0 0 0 0 0 0 0 0 0 0 0 0 0 0 0 0 0 0 0.0774939 0"/><feBlend in2="effect3_dropShadow" mode="normal" result="effect4_dropShadow"/><feColorMatrix in="SourceAlpha" type="matrix" values="0 0 0 0 0 0 0 0 0 0 0 0 0 0 0 0 0 0 127 0"/><feOffset dy="156.666"/><feGaussianBlur stdDeviation="62.6664"/><feColorMatrix type="matrix" values="0 0 0 0 0 0 0 0 0 0 0 0 0 0 0 0 0 0 0.0934511 0"/><feBlend in2="effect4_dropShadow" mode="normal" result="effect5_dropShadow"/><feColorMatrix in="SourceAlpha" type="matrix" values="0 0 0 0 0 0 0 0 0 0 0 0 0 0 0 0 0 0 127 0"/><feOffset dy="375"/><feGaussianBlur stdDeviation="150"/><feColorMatrix type="matrix" values="0 0 0 0 0 0 0 0 0 0 0 0 0 0 0 0 0 0 0.13 0"/><feBlend in2="effect5_dropShadow" mode="normal" result="effect6_dropShadow"/><feBlend in="SourceGraphic" in2="effect6_dropShadow" mode="normal" result="shape"/></filter><filter id="b" color-interpolation-filters="sRGB" filterUnits="userSpaceOnUse" height="695.094" width="620.094" x="-209" y="392"><feFlood flood-opacity="0" result="BackgroundImageFix"/><feColorMatrix in="SourceAlpha" type="matrix" values="0 0 0 0 0 0 0 0 0 0 0 0 0 0 0 0 0 0 127 0"/><feOffset dy="10.3772"/><feGaussianBlur stdDeviation="4.15089"/><feColorMatrix type="matrix" values="0 0 0 0 0 0 0 0 0 0 0 0 0 0 0 0 0 0 0.0365489 0"/><feBlend in2="BackgroundImageFix" mode="normal" result="effect1_dropShadow"/><feColorMatrix in="SourceAlpha" type="matrix" values="0 0 0 0 0 0 0 0 0 0 0 0 0 0 0 0 0 0 127 0"/><feOffset dy="24.9379"/><feGaussianBlur stdDeviation="9.97515"/><feColorMatrix type="matrix" values="0 0 0 0 0 0 0 0 0 0 0 0 0 0 0 0 0 0 0.0525061 0"/><feBlend in2="effect1_dropShadow" mode="normal" result="effect2_dropShadow"/><feColorMatrix in="SourceAlpha" type="matrix" values="0 0 0 0 0 0 0 0 0 0 0 0 0 0 0 0 0 0 127 0"/><feOffset dy="46.9558"/><feGaussianBlur stdDeviation="18.7823"/><feColorMatrix type="matrix" values="0 0 0 0 0 0 0 0 0 0 0 0 0 0 0 0 0 0 0.065 0"/><feBlend in2="effect2_dropShadow" mode="normal" result="effect3_dropShadow"/><feColorMatrix in="SourceAlpha" type="matrix" values="0 0 0 0 0 0 0 0 0 0 0 0 0 0 0 0 0 0 127 0"/><feOffset dy="83.7612"/><feGaussianBlur stdDeviation="33.5045"/><feColorMatrix type="matrix" values="0 0 0 0 0 0 0 0 0 0 0 0 0 0 0 0 0 0 0.0774939 0"/><feBlend in2="effect3_dropShadow" mode="normal" result="effect4_dropShadow"/><feColorMatrix in="SourceAlpha" type="matrix" values="0 0 0 0 0 0 0 0 0 0 0 0 0 0 0 0 0 0 127 0"/><feOffset dy="156.666"/><feGaussianBlur stdDeviation="62.6664"/><feColorMatrix type="matrix" values="0 0 0 0 0 0 0 0 0 0 0 0 0 0 0 0 0 0 0.0934511 0"/><feBlend in2="effect4_dropShadow" mode="normal" result="effect5_dropShadow"/><feColorMatrix in="SourceAlpha" type="matrix" values="0 0 0 0 0 0 0 0 0 0 0 0 0 0 0 0 0 0 127 0"/><feOffset dy="375"/><feGaussianBlur stdDeviation="150"/><feColorMatrix type="matrix" values="0 0 0 0 0 0 0 0 0 0 0 0 0 0 0 0 0 0 0.13 0"/><feBlend in2="effect5_dropShadow" mode="normal" result="effect6_dropShadow"/><feBlend in="SourceGraphic" in2="effect6_dropShadow" mode="normal" result="shape"/></filter><linearGradient id="c" gradientUnits="userSpaceOnUse" x1="10.047" x2="10.047" y1="6.27936" y2="-13.8146"><stop offset="0" stop-color="#6f42c1"/><stop offset="1" stop-color="#6f42c1" stop-opacity="0"/></linearGradient><clipPath id="d"><path d="m0 0h955v452h-955z"/></clipPath><g clip-path="url(#d)"><path d="m0 0h20.0939v20.0939h-20.0939z" fill="#fafbfc" transform="matrix(1 -.00000009 -.00000009 -1 .240234 20.0938)"/><path d="m0 0h20.0939v20.0939h-20.0939z" fill="#e1e4e8" transform="matrix(1 -.00000009 -.00000009 -1 .240234 50.0938)"/><g fill="#fafbfc"><path d="m0 0h20.0939v20.0939h-20.0939z" transform="matrix(1 -.00000009 -.00000009 -1 392.072 321.502)"/><path d="m0 0h20.0939v20.0939h-20.0939z" transform="matrix(1 -.00000009 -.00000009 -1 392.072 381.784)"/><path d="m0 0h20.0939v20.0939h-20.0939z" transform="matrix(1 -.00000009 -.00000009 -1 392.072 261.221)"/><path d="m0 0h20.0939v20.0939h-20.0939z" transform="matrix(1 -.00000009 -.00000009 -1 392.072 411.926)"/><path d="m0 0h20.0939v20.0939h-20.0939z" transform="matrix(1 -.00000009 -.00000009 -1 392.072 170.798)"/><path d="m0 0h20.0939v20.0939h-20.0939z" transform="matrix(1 -.00000009 -.00000009 -1 392.072 291.362)"/><path d="m0 0h20.0939v20.0939h-20.0939z" transform="matrix(1 -.00000009 -.00000009 -1 392.072 351.644)"/><path d="m0 0h20.0939v20.0939h-20.0939z" transform="matrix(1 -.00000009 -.00000009 -1 211.228 442.066)"/><path d="m0 0h20.0939v20.0939h-20.0939z" transform="matrix(1 -.00000009 -.00000009 -1 211.228 381.784)"/><path d="m0 0h20.0939v20.0939h-20.0939z" transform="matrix(1 -.00000009 -.00000009 -1 211.228 411.926)"/><path d="m0 0h20.0939v20.0939h-20.0939z" transform="matrix(1 -.00000009 -.00000009 -1 572.919 442.066)"/><path d="m0 0h20.0939v20.0939h-20.0939z" transform="matrix(1 -.00000009 -.00000009 -1 572.919 200.939)"/><path d="m0 0h20.0939v20.0939h-20.0939z" transform="matrix(1 -.00000009 -.00000009 -1 572.919 321.502)"/><path d="m0 0h20.0939v20.0939h-20.0939z" transform="matrix(1 -.00000009 -.00000009 -1 572.919 80.3755)"/><path d="m0 0h20.0939v20.0939h-20.0939z" transform="matrix(1 -.00000009 -.00000009 -1 572.919 381.784)"/><path d="m0 0h20.0939v20.0939h-20.0939z" transform="matrix(1 -.00000009 -.00000009 -1 572.919 261.221)"/><path d="m0 0h20.0939v20.0939h-20.0939z" transform="matrix(1 -.00000009 -.00000009 -1 572.919 411.926)"/><path d="m0 0h20.0939v20.0939h-20.0939z" transform="matrix(1 -.00000009 -.00000009 -1 572.919 291.362)"/><path d="m0 0h20.0939v20.0939h-20.0939z" transform="matrix(1 -.00000009 -.00000009 -1 572.919 351.644)"/><path d="m0 0h20.0939v20.0939h-20.0939z" transform="matrix(1 -.00000009 -.00000009 -1 120.805 321.502)"/><path d="m0 0h20.0939v20.0939h-20.0939z" transform="matrix(1 -.00000009 -.00000009 -1 120.805 381.784)"/><path d="m0 0h20.0939v20.0939h-20.0939z" transform="matrix(1 -.00000009 -.00000009 -1 120.804 261.221)"/><path d="m0 0h20.0939v20.0939h-20.0939z" transform="matrix(1 -.00000009 -.00000009 -1 120.805 411.926)"/><path d="m0 0h20.0939v20.0939h-20.0939z" transform="matrix(1 -.00000009 -.00000009 -1 120.805 351.644)"/><path d="m0 0h20.0939v20.0939h-20.0939z" transform="matrix(1 -.00000009 -.00000009 -1 482.496 261.221)"/><path d="m0 0h20.0939v20.0939h-20.0939z" transform="matrix(1 -.00000009 -.00000009 -1 482.496 20.0938)"/><path d="m0 0h20.0939v20.0939h-20.0939z" transform="matrix(1 -.00000009 -.00000009 -1 482.496 170.798)"/><path d="m0 0h20.0939v20.0939h-20.0939z" transform="matrix(1 -.00000009 -.00000009 -1 482.496 291.362)"/><path d="m0 0h20.0939v20.0939h-20.0939z" transform="matrix(1 -.00000009 -.00000009 -1 482.496 110.516)"/><path d="m0 0h20.0939v20.0939h-20.0939z" transform="matrix(1 -.00000009 -.00000009 -1 482.496 231.08)"/></g><path d="m0 0h20.0939v20.0939h-20.0939z" fill="#f3f4f6" transform="matrix(1 -.00000009 -.00000009 -1 301.65 442.066)"/><path d="m0 0h20.0939v20.0939h-20.0939z" fill="#fafbfc" transform="matrix(1 -.00000009 -.00000009 -1 301.65 381.784)"/><path d="m0 0h20.0939v20.0939h-20.0939z" fill="#f3f4f6" transform="matrix(1 -.00000009 -.00000009 -1 301.65 411.926)"/><path d="m0 0h20.0939v20.0939h-20.0939z" fill="#fafbfc" transform="matrix(1 -.00000009 -.00000009 -1 301.65 351.644)"/><path d="m0 0h20.0939v20.0939h-20.0939z" fill="#fafbfc" transform="matrix(1 -.00000009 -.00000009 -1 663.341 80.3755)"/><path d="m0 0h20.0939v20.0939h-20.0939z" fill="#fafbfc" transform="matrix(1 -.00000009 -.00000009 -1 663.341 381.784)"/><path d="m0 0h20.0939v20.0939h-20.0939z" fill="#fafbfc" transform="matrix(1 -.00000009 -.00000009 -1 663.341 140.657)"/><path d="m0 0h20.0939v20.0939h-20.0939z" fill="#fafbfc" transform="matrix(1 -.00000009 -.00000009 -1 663.341 411.926)"/><path d="m0 0h20.0939v20.0939h-20.0939z" fill="#fafbfc" transform="matrix(1 -.00000009 -.00000009 -1 663.341 170.798)"/><path d="m0 0h20.0939v20.0939h-20.0939z" fill="#fafbfc" transform="matrix(1 -.00000009 -.00000009 -1 663.341 291.362)"/><path d="m0 0h20.0939v20.0939h-20.0939z" fill="#fafbfc" transform="matrix(1 -.00000009 -.00000009 -1 663.341 50.2344)"/><path d="m0 0h20.0939v20.0939h-20.0939z" fill="#fafbfc" transform="matrix(1 -.00000009 -.00000009 -1 663.341 110.516)"/><path d="m0 0h20.0939v20.0939h-20.0939z" fill="#fafbfc" transform="matrix(1 -.00000009 -.00000009 -1 693.482 110.516)"/><path d="m0 0h20.0939v20.0939h-20.0939z" fill="#fafbfc" transform="matrix(1 -.00000009 -.00000009 -1 663.341 231.08)"/><path d="m0 0h20.0939v20.0939h-20.0939z" fill="#fafbfc" transform="matrix(1 -.00000009 -.00000009 -1 60.5225 351.644)"/><path d="m0 0h20.0939v20.0939h-20.0939z" fill="#fafbfc" transform="matrix(1 -.00000009 -.00000009 -1 422.213 442.066)"/><path d="m0 0h20.0939v20.0939h-20.0939z" fill="#fafbfc" transform="matrix(1 -.00000009 -.00000009 -1 422.213 381.784)"/><path d="m0 0h20.0939v20.0939h-20.0939z" fill="#fafbfc" transform="matrix(1 -.00000009 -.00000009 -1 422.214 261.221)"/><path d="m0 0h20.0939v20.0939h-20.0939z" fill="#fafbfc" transform="matrix(1 -.00000009 -.00000009 -1 422.213 411.926)"/><path d="m0 0h20.0939v20.0939h-20.0939z" fill="#fafbfc" transform="matrix(1 -.00000009 -.00000009 -1 422.214 170.798)"/><path d="m0 0h20.0939v20.0939h-20.0939z" fill="#fafbfc" transform="matrix(1 -.00000009 -.00000009 -1 422.213 291.362)"/><path d="m0 0h20.0939v20.0939h-20.0939z" fill="#fafbfc" transform="matrix(1 -.00000009 -.00000009 -1 422.213 351.644)"/><path d="m0 0h20.0939v20.0939h-20.0939z" fill="#fafbfc" transform="matrix(1 -.00000009 -.00000009 -1 241.368 442.066)"/><path d="m0 0h20.0939v20.0939h-20.0939z" fill="#fafbfc" transform="matrix(1 -.00000009 -.00000009 -1 241.368 381.784)"/><path d="m0 0h20.0939v20.0939h-20.0939z" fill="#f3f4f6" transform="matrix(1 -.00000009 -.00000009 -1 241.368 411.926)"/><path d="m0 0h20.0939v20.0939h-20.0939z" fill="#fafbfc" transform="matrix(1 -.00000009 -.00000009 -1 603.06 442.066)"/><path d="m0 0h20.0939v20.0939h-20.0939z" fill="#fafbfc" transform="matrix(1 -.00000009 -.00000009 -1 603.06 321.502)"/><path d="m0 0h20.0939v20.0939h-20.0939z" fill="#fafbfc" transform="matrix(1 -.00000009 -.00000009 -1 603.06 80.3755)"/><path d="m0 0h20.0939v20.0939h-20.0939z" fill="#fafbfc" transform="matrix(1 -.00000009 -.00000009 -1 603.06 381.784)"/><path d="m0 0h20.0939v20.0939h-20.0939z" fill="#fafbfc" transform="matrix(1 -.00000009 -.00000009 -1 603.06 261.221)"/><path d="m0 0h20.0939v20.0939h-20.0939z" fill="#fafbfc" transform="matrix(1 -.00000009 -.00000009 -1 603.06 411.926)"/><path d="m0 0h20.0939v20.0939h-20.0939z" fill="#fafbfc" transform="matrix(1 -.00000009 -.00000009 -1 603.06 291.362)"/><path d="m0 0h20.0939v20.0939h-20.0939z" fill="#fafbfc" transform="matrix(1 -.00000009 -.00000009 -1 150.946 321.502)"/><path d="m0 0h20.0939v20.0939h-20.0939z" fill="#fafbfc" transform="matrix(1 -.00000009 -.00000009 -1 150.946 381.784)"/><path d="m0 0h20.0939v20.0939h-20.0939z" fill="#fafbfc" transform="matrix(1 -.00000009 -.00000009 -1 512.637 442.066)"/><path d="m0 0h20.0939v20.0939h-20.0939z" fill="#fafbfc" transform="matrix(1 -.00000009 -.00000009 -1 512.637 200.939)"/><path d="m0 0h20.0939v20.0939h-20.0939z" fill="#fafbfc" transform="matrix(1 -.00000009 -.00000009 -1 512.637 80.3755)"/><path d="m0 0h20.0939v20.0939h-20.0939z" fill="#fafbfc" transform="matrix(1 -.00000009 -.00000009 -1 512.637 381.784)"/><path d="m0 0h20.0939v20.0939h-20.0939z" fill="#fafbfc" transform="matrix(1 -.00000009 -.00000009 -1 512.637 140.657)"/><path d="m0 0h20.0939v20.0939h-20.0939z" fill="#fafbfc" transform="matrix(1 -.00000009 -.00000009 -1 512.637 411.926)"/><path d="m0 0h20.0939v20.0939h-20.0939z" fill="#fafbfc" transform="matrix(1 -.00000009 -.00000009 -1 512.637 291.362)"/><path d="m0 0h20.0939v20.0939h-20.0939z" fill="#fafbfc" transform="matrix(1 -.00000009 -.00000009 -1 512.637 50.2344)"/><path d="m0 0h20.0939v20.0939h-20.0939z" fill="#fafbfc" transform="matrix(1 -.00000009 -.00000009 -1 512.637 110.516)"/><path d="m0 0h20.0939v20.0939h-20.0939z" fill="#fafbfc" transform="matrix(1 -.00000009 -.00000009 -1 512.637 231.08)"/><path d="m0 0h20.0939v20.0939h-20.0939z" fill="#fafbfc" transform="matrix(1 -.00000009 -.00000009 -1 331.791 442.066)"/><path d="m0 0h20.0939v20.0939h-20.0939z" fill="#fafbfc" transform="matrix(1 -.00000009 -.00000009 -1 331.791 321.503)"/><path d="m0 0h20.0939v20.0939h-20.0939z" fill="#fafbfc" transform="matrix(1 -.00000009 -.00000009 -1 331.791 411.926)"/><g filter="url(#a)"><path d="m0 0h20.0939v20.0939h-20.0939z" fill="#f9826c" transform="matrix(1 -.00000009 -.00000009 -1 663.341 80.3755)"/></g><path d="m0 0h20.0939v20.0939h-20.0939z" fill="#fafbfc" transform="matrix(1 -.00000009 -.00000009 -1 693.482 200.939)"/><path d="m0 0h20.0939v20.0939h-20.0939z" fill="#fafbfc" transform="matrix(1 -.00000009 -.00000009 -1 693.482 321.502)"/><path d="m0 0h20.0939v20.0939h-20.0939z" fill="#fafbfc" transform="matrix(1 -.00000009 -.00000009 -1 693.482 80.3755)"/><path d="m0 0h20.0939v20.0939h-20.0939z" fill="#fafbfc" transform="matrix(1 -.00000009 -.00000009 -1 693.482 381.784)"/><path d="m0 0h20.0939v20.0939h-20.0939z" fill="#fafbfc" transform="matrix(1 -.00000009 -.00000009 -1 693.482 140.657)"/><path d="m0 0h20.0939v20.0939h-20.0939z" fill="#fafbfc" transform="matrix(1 -.00000009 -.00000009 -1 693.482 261.221)"/><path d="m0 0h20.0939v20.0939h-20.0939z" fill="#fafbfc" transform="matrix(1 -.00000009 -.00000009 -1 693.482 170.798)"/><path d="m0 0h20.0939v20.0939h-20.0939z" fill="#28a745" transform="matrix(1 -.00000009 -.00000009 -1 482.496 291.362)"/><path d="m0 0h20.0939v20.0939h-20.0939z" fill="#fafbfc" transform="matrix(1 -.00000009 -.00000009 -1 693.482 231.08)"/><path d="m0 0h20.0939v20.0939h-20.0939z" fill="#e1e4e8" transform="matrix(1 -.00000009 -.00000009 -1 90.6631 381.784)"/><path d="m0 0h20.0939v20.0939h-20.0939z" fill="#fafbfc" transform="matrix(1 -.00000009 -.00000009 -1 90.6631 351.644)"/><path d="m0 0h20.0939v20.0939h-20.0939z" fill="#fafbfc" transform="matrix(1 -.00000009 -.00000009 -1 452.354 381.784)"/><path d="m0 0h20.0939v20.0939h-20.0939z" fill="#fafbfc" transform="matrix(1 -.00000009 -.00000009 -1 452.354 261.221)"/><path d="m0 0h20.0939v20.0939h-20.0939z" fill="#fafbfc" transform="matrix(1 -.00000009 -.00000009 -1 452.354 411.926)"/><path d="m0 0h20.0939v20.0939h-20.0939z" fill="#fafbfc" transform="matrix(1 -.00000009 -.00000009 -1 452.354 291.362)"/><path d="m0 0h20.0939v20.0939h-20.0939z" fill="#fafbfc" transform="matrix(1 -.00000009 -.00000009 -1 452.354 50.2344)"/><path d="m0 0h20.0939v20.0939h-20.0939z" fill="#fafbfc" transform="matrix(1 -.00000009 -.00000009 -1 271.51 442.066)"/><path d="m0 0h20.0939v20.0939h-20.0939z" fill="#fafbfc" transform="matrix(1 -.00000009 -.00000009 -1 271.51 381.784)"/><path d="m0 0h20.0939v20.0939h-20.0939z" fill="#fafbfc" transform="matrix(1 -.00000009 -.00000009 -1 271.51 411.926)"/><path d="m0 0h20.0939v20.0939h-20.0939z" fill="#fafbfc" transform="matrix(1 -.00000009 -.00000009 -1 271.51 351.644)"/><path d="m0 0h20.0939v20.0939h-20.0939z" fill="#fafbfc" transform="matrix(1 -.00000009 -.00000009 -1 633.2 442.066)"/><path d="m0 0h20.0939v20.0939h-20.0939z" fill="#fafbfc" transform="matrix(1 -.00000009 -.00000009 -1 633.2 200.939)"/><path d="m0 0h20.0939v20.0939h-20.0939z" fill="#fafbfc" transform="matrix(1 -.00000009 -.00000009 -1 633.2 321.502)"/><path d="m0 0h20.0939v20.0939h-20.0939z" fill="#fafbfc" transform="matrix(1 -.00000009 -.00000009 -1 633.2 80.3755)"/><path d="m0 0h20.0939v20.0939h-20.0939z" fill="#fafbfc" transform="matrix(1 -.00000009 -.00000009 -1 633.2 381.784)"/><path d="m0 0h20.0939v20.0939h-20.0939z" fill="#f1f2f2" transform="matrix(1 -.00000009 -.00000009 -1 633.2 140.657)"/><path d="m0 0h20.0939v20.0939h-20.0939z" fill="#fafbfc" transform="matrix(1 -.00000009 -.00000009 -1 633.2 20.0938)"/><path d="m0 0h20.0939v20.0939h-20.0939z" fill="#fafbfc" transform="matrix(1 -.00000009 -.00000009 -1 633.2 411.926)"/><path d="m0 0h20.0939v20.0939h-20.0939z" fill="#fafbfc" transform="matrix(1 -.00000009 -.00000009 -1 633.2 291.362)"/><path d="m0 0h20.0939v20.0939h-20.0939z" fill="#fafbfc" transform="matrix(1 -.00000009 -.00000009 -1 633.2 50.2344)"/><path d="m0 0h20.0939v20.0939h-20.0939z" fill="#fafbfc" transform="matrix(1 -.00000009 -.00000009 -1 633.2 110.516)"/><path d="m0 0h20.0939v20.0939h-20.0939z" fill="#fafbfc" transform="matrix(1 -.00000009 -.00000009 -1 633.2 231.08)"/><path d="m0 0h20.0939v20.0939h-20.0939z" fill="#fafbfc" transform="matrix(1 -.00000009 -.00000009 -1 181.087 381.784)"/><path d="m0 0h20.0939v20.0939h-20.0939z" fill="#fafbfc" transform="matrix(1 -.00000009 -.00000009 -1 181.087 411.926)"/><path d="m0 0h20.0939v20.0939h-20.0939z" fill="#e1e4e8" transform="matrix(1 -.00000009 -.00000009 -1 542.777 442.066)"/><path d="m0 0h20.0939v20.0939h-20.0939z" fill="#fafbfc" transform="matrix(1 -.00000009 -.00000009 -1 542.777 200.939)"/><path d="m0 0h20.0939v20.0939h-20.0939z" fill="#fafbfc" transform="matrix(1 -.00000009 -.00000009 -1 542.777 80.3755)"/><path d="m0 0h20.0939v20.0939h-20.0939z" fill="#fafbfc" transform="matrix(1 -.00000009 -.00000009 -1 542.777 140.657)"/><path d="m0 0h20.0939v20.0939h-20.0939z" fill="#fafbfc" transform="matrix(1 -.00000009 -.00000009 -1 542.777 411.926)"/><path d="m0 0h20.0939v20.0939h-20.0939z" fill="#fafbfc" transform="matrix(1 -.00000009 -.00000009 -1 542.777 170.798)"/><path d="m0 0h20.0939v20.0939h-20.0939z" fill="#fafbfc" transform="matrix(1 -.00000009 -.00000009 -1 542.777 291.362)"/><path d="m0 0h20.0939v20.0939h-20.0939z" fill="#fafbfc" transform="matrix(1 -.00000009 -.00000009 -1 542.777 110.516)"/><path d="m0 0h20.0939v20.0939h-20.0939z" fill="#fafbfc" transform="matrix(1 -.00000009 -.00000009 -1 542.777 231.08)"/><g filter="url(#b)"><path d="m0 0h20.0939v20.0939h-20.0939z" fill="url(#c)" transform="matrix(1 -.00000009 -.00000009 -1 91 412.094)"/></g><path d="m0 0h20.0939v20.0939h-20.0939z" fill="#fafbfc" transform="matrix(1 -.00000009 -.00000009 -1 361.932 351.644)"/><path d="m0 0h20.0939v20.0939h-20.0939z" fill="#fafbfc" transform="matrix(1 -.00000009 -.00000009 -1 723.623 80.376)"/><path d="m0 0h20.0939v20.0939h-20.0939z" fill="#fafbfc" transform="matrix(1 -.00000009 -.00000009 -1 934.609 20.1406)"/><path d="m0 0h20.0939v20.0939h-20.0939z" fill="#fafbfc" transform="matrix(1 -.00000009 -.00000009 -1 723.623 170.798)"/><path d="m0 0h20.0939v20.0939h-20.0939z" fill="#fafbfc" transform="matrix(1 -.00000009 -.00000009 -1 723.623 291.361)"/><path d="m0 0h20.0939v20.0939h-20.0939z" fill="#fafbfc" transform="matrix(1 -.00000009 -.00000009 -1 723.623 110.516)"/></g></svg>