<svg fill="none" height="452" viewBox="0 0 844 452" width="844" xmlns="http://www.w3.org/2000/svg" xmlns:xlink="http://www.w3.org/1999/xlink"><clipPath id="a"><path d="m0 0h844v452h-844z"/></clipPath><g clip-path="url(#a)"><path d="m0 0h20.0939v20.0939h-20.0939z" fill="#fafbfc" transform="matrix(1 -.00000009 -.00000009 -1 20.2412 203.939)"/><path d="m0 0h20.0939v20.0939h-20.0939z" fill="#fafbfc" transform="matrix(1 -.00000009 -.00000009 -1 50.3818 173.799)"/><path d="m0 0h20.0939v20.0939h-20.0939z" fill="#fafbfc" transform="matrix(1 -.00000009 -.00000009 -1 412.073 445.066)"/><path d="m0 0h20.0939v20.0939h-20.0939z" fill="#fafbfc" transform="matrix(1 -.00000009 -.00000009 -1 412.073 324.502)"/><path d="m0 0h20.0939v20.0939h-20.0939z" fill="#fafbfc" transform="matrix(1 -.00000009 -.00000009 -1 412.073 384.785)"/><path d="m0 0h20.0939v20.0939h-20.0939z" fill="#fafbfc" transform="matrix(1 -.00000009 -.00000009 -1 412.073 414.926)"/><path d="m0 0h20.0939v20.0939h-20.0939z" fill="#fafbfc" transform="matrix(1 -.00000009 -.00000009 -1 412.073 294.361)"/><path d="m0 0h20.0939v20.0939h-20.0939z" fill="#fafbfc" transform="matrix(1 -.00000009 -.00000009 -1 412.073 354.645)"/><path d="m0 0h20.0939v20.0939h-20.0939z" fill="#fafbfc" transform="matrix(1 -.00000009 -.00000009 -1 231.229 445.066)"/><path d="m0 0h20.0939v20.0939h-20.0939z" fill="#fafbfc" transform="matrix(1 -.00000009 -.00000009 -1 231.229 384.785)"/><path d="m0 0h20.0939v20.0939h-20.0939z" fill="#fafbfc" transform="matrix(1 -.00000009 -.00000009 -1 231.229 414.926)"/><path d="m0 0h20.0939v20.0939h-20.0939z" fill="#fafbfc" transform="matrix(1 -.00000009 -.00000009 -1 592.919 445.066)"/><path d="m0 0h20.0939v20.0939h-20.0939z" fill="#fafbfc" transform="matrix(1 -.00000009 -.00000009 -1 592.919 203.939)"/><path d="m0 0h20.0939v20.0939h-20.0939z" fill="#fafbfc" transform="matrix(1 -.00000009 -.00000009 -1 592.919 324.502)"/><path d="m0 0h20.0939v20.0939h-20.0939z" fill="#fafbfc" transform="matrix(1 -.00000009 -.00000009 -1 592.919 384.785)"/><path d="m0 0h20.0939v20.0939h-20.0939z" fill="#fafbfc" transform="matrix(1 -.00000009 -.00000009 -1 592.919 143.656)"/><path d="m0 0h20.0939v20.0939h-20.0939z" fill="#fafbfc" transform="matrix(1 -.00000009 -.00000009 -1 592.919 264.221)"/><path d="m0 0h20.0939v20.0939h-20.0939z" fill="#fafbfc" transform="matrix(1 -.00000009 -.00000009 -1 592.919 173.799)"/><path d="m0 0h20.0939v20.0939h-20.0939z" fill="#fafbfc" transform="matrix(1 -.00000009 -.00000009 -1 592.919 294.361)"/><path d="m0 0h20.0939v20.0939h-20.0939z" fill="#fafbfc" transform="matrix(1 -.00000009 -.00000009 -1 592.919 354.643)"/><path d="m0 0h20.0939v20.0939h-20.0939z" fill="#fafbfc" transform="matrix(1 -.00000009 -.00000009 -1 140.806 324.502)"/><path d="m0 0h20.0939v20.0939h-20.0939z" fill="#fafbfc" transform="matrix(1 -.00000009 -.00000009 -1 140.805 264.221)"/><path d="m0 0h20.0939v20.0939h-20.0939z" fill="#fafbfc" transform="matrix(1 -.00000009 -.00000009 -1 140.805 173.799)"/><path d="m0 0h20.0939v20.0939h-20.0939z" fill="#fafbfc" transform="matrix(1 -.00000009 -.00000009 -1 502.496 384.785)"/><path d="m0 0h20.0939v20.0939h-20.0939z" fill="#fafbfc" transform="matrix(1 -.00000009 -.00000009 -1 502.496 264.221)"/><path d="m0 0h20.0939v20.0939h-20.0939z" fill="#fafbfc" transform="matrix(1 -.00000009 -.00000009 -1 502.496 414.926)"/><path d="m0 0h20.0939v20.0939h-20.0939z" fill="#fafbfc" transform="matrix(1 -.00000009 -.00000009 -1 502.496 294.361)"/><path d="m0 0h20.0939v20.0939h-20.0939z" fill="#f3f4f6" transform="matrix(1 -.00000009 -.00000009 -1 321.65 445.066)"/><path d="m0 0h20.0939v20.0939h-20.0939z" fill="#fafbfc" transform="matrix(1 -.00000009 -.00000009 -1 321.65 324.502)"/><path d="m0 0h20.0939v20.0939h-20.0939z" fill="#fafbfc" transform="matrix(1 -.00000009 -.00000009 -1 321.65 384.785)"/><path d="m0 0h20.0939v20.0939h-20.0939z" fill="#f3f4f6" transform="matrix(1 -.00000009 -.00000009 -1 321.65 414.926)"/><path d="m0 0h20.0939v20.0939h-20.0939z" fill="#fafbfc" transform="matrix(1 -.00000009 -.00000009 -1 321.65 354.645)"/><path d="m0 0h20.0939v20.0939h-20.0939z" fill="#fafbfc" transform="matrix(1 -.00000009 -.00000009 -1 683.342 83.375)"/><path d="m0 0h20.0939v20.0939h-20.0939z" fill="#fafbfc" transform="matrix(1 -.00000009 -.00000009 -1 683.342 143.656)"/><path d="m0 0h20.0939v20.0939h-20.0939z" fill="#fafbfc" transform="matrix(1 -.00000009 -.00000009 -1 683.342 173.799)"/><path d="m0 0h20.0939v20.0939h-20.0939z" fill="#fafbfc" transform="matrix(1 -.00000009 -.00000009 -1 683.342 294.361)"/><path d="m0 0h20.0939v20.0939h-20.0939z" fill="#fafbfc" transform="matrix(1 -.00000009 -.00000009 -1 683.342 53.2344)"/><path d="m0 0h20.0939v20.0939h-20.0939z" fill="#fafbfc" transform="matrix(1 -.00000009 -.00000009 -1 683.342 113.516)"/><path d="m0 0h20.0939v20.0939h-20.0939z" fill="#fafbfc" transform="matrix(1 -.00000009 -.00000009 -1 713.482 113.516)"/><path d="m0 0h20.0939v20.0939h-20.0939z" fill="#fafbfc" transform="matrix(1 -.00000009 -.00000009 -1 683.342 234.08)"/><path d="m0 0h20.0939v20.0939h-20.0939z" fill="#fafbfc" transform="matrix(1 -.00000009 -.00000009 -1 80.5225 324.502)"/><path d="m0 0h20.0939v20.0939h-20.0939z" fill="#fafbfc" transform="matrix(1 -.00000009 -.00000009 -1 442.214 445.066)"/><path d="m0 0h20.0939v20.0939h-20.0939z" fill="#fafbfc" transform="matrix(1 -.00000009 -.00000009 -1 442.214 384.785)"/><path d="m0 0h20.0939v20.0939h-20.0939z" fill="#fafbfc" transform="matrix(1 -.00000009 -.00000009 -1 442.214 414.926)"/><path d="m0 0h20.0939v20.0939h-20.0939z" fill="#fafbfc" transform="matrix(1 -.00000009 -.00000009 -1 442.214 294.361)"/><path d="m0 0h20.0939v20.0939h-20.0939z" fill="#fafbfc" transform="matrix(1 -.00000009 -.00000009 -1 442.214 354.645)"/><path d="m0 0h20.0939v20.0939h-20.0939z" fill="#fafbfc" transform="matrix(1 -.00000009 -.00000009 -1 261.369 445.066)"/><path d="m0 0h20.0939v20.0939h-20.0939z" fill="#fafbfc" transform="matrix(1 -.00000009 -.00000009 -1 261.369 384.785)"/><path d="m0 0h20.0939v20.0939h-20.0939z" fill="#f3f4f6" transform="matrix(1 -.00000009 -.00000009 -1 261.369 414.926)"/><g fill="#fafbfc"><path d="m0 0h20.0939v20.0939h-20.0939z" transform="matrix(1 -.00000009 -.00000009 -1 623.06 203.939)"/><path d="m0 0h20.0939v20.0939h-20.0939z" transform="matrix(1 -.00000009 -.00000009 -1 623.06 324.502)"/><path d="m0 0h20.0939v20.0939h-20.0939z" transform="matrix(1 -.00000009 -.00000009 -1 623.06 143.656)"/><path d="m0 0h20.0939v20.0939h-20.0939z" transform="matrix(1 -.00000009 -.00000009 -1 623.06 264.221)"/><path d="m0 0h20.0939v20.0939h-20.0939z" transform="matrix(1 -.00000009 -.00000009 -1 623.06 23.0938)"/><path d="m0 0h20.0939v20.0939h-20.0939z" transform="matrix(1 -.00000009 -.00000009 -1 623.06 173.799)"/><path d="m0 0h20.0939v20.0939h-20.0939z" transform="matrix(1 -.00000009 -.00000009 -1 623.06 294.361)"/><path d="m0 0h20.0939v20.0939h-20.0939z" transform="matrix(1 -.00000009 -.00000009 -1 623.06 113.516)"/><path d="m0 0h20.0939v20.0939h-20.0939z" transform="matrix(1 -.00000009 -.00000009 -1 623.06 234.08)"/><path d="m0 0h20.0939v20.0939h-20.0939z" transform="matrix(1 -.00000009 -.00000009 -1 170.946 324.502)"/><path d="m0 0h20.0939v20.0939h-20.0939z" transform="matrix(1 -.00000009 -.00000009 -1 532.638 445.066)"/><path d="m0 0h20.0939v20.0939h-20.0939z" transform="matrix(1 -.00000009 -.00000009 -1 532.638 203.939)"/><path d="m0 0h20.0939v20.0939h-20.0939z" transform="matrix(1 -.00000009 -.00000009 -1 532.638 384.785)"/><path d="m0 0h20.0939v20.0939h-20.0939z" transform="matrix(1 -.00000009 -.00000009 -1 532.638 264.221)"/><path d="m0 0h20.0939v20.0939h-20.0939z" transform="matrix(1 -.00000009 -.00000009 -1 532.638 414.926)"/><path d="m0 0h20.0939v20.0939h-20.0939z" transform="matrix(1 -.00000009 -.00000009 -1 532.638 294.361)"/><path d="m0 0h20.0939v20.0939h-20.0939z" transform="matrix(1 -.00000009 -.00000009 -1 351.791 445.066)"/><path d="m0 0h20.0939v20.0939h-20.0939z" transform="matrix(1 -.00000009 -.00000009 -1 351.791 203.939)"/><path d="m0 0h20.0939v20.0939h-20.0939z" transform="matrix(1 -.00000009 -.00000009 -1 351.791 324.502)"/><path d="m0 0h20.0939v20.0939h-20.0939z" transform="matrix(1 -.00000009 -.00000009 -1 351.791 414.926)"/><path d="m0 0h20.0939v20.0939h-20.0939z" transform="matrix(1 -.00000009 -.00000009 -1 351.791 294.361)"/><path d="m0 0h20.0939v20.0939h-20.0939z" transform="matrix(1 -.00000009 -.00000009 -1 713.482 203.939)"/><path d="m0 0h20.0939v20.0939h-20.0939z" transform="matrix(1 -.00000009 -.00000009 -1 713.482 324.502)"/><path d="m0 0h20.0939v20.0939h-20.0939z" transform="matrix(1 -.00000009 -.00000009 -1 713.482 83.375)"/><path d="m0 0h20.0939v20.0939h-20.0939z" transform="matrix(1 -.00000009 -.00000009 -1 713.482 384.785)"/><path d="m0 0h20.0939v20.0939h-20.0939z" transform="matrix(1 -.00000009 -.00000009 -1 713.482 143.656)"/><path d="m0 0h20.0939v20.0939h-20.0939z" transform="matrix(1 -.00000009 -.00000009 -1 713.482 264.221)"/><path d="m0 0h20.0939v20.0939h-20.0939z" transform="matrix(1 -.00000009 -.00000009 -1 713.482 173.799)"/><path d="m0 0h20.0939v20.0939h-20.0939z" transform="matrix(1 -.00000009 -.00000009 -1 713.482 234.08)"/><path d="m0 0h20.0939v20.0939h-20.0939z" transform="matrix(1 -.00000009 -.00000009 -1 110.664 324.502)"/><path d="m0 0h20.0939v20.0939h-20.0939z" transform="matrix(1 -.00000009 -.00000009 -1 472.354 324.502)"/><path d="m0 0h20.0939v20.0939h-20.0939z" transform="matrix(1 -.00000009 -.00000009 -1 472.354 384.785)"/><path d="m0 0h20.0939v20.0939h-20.0939z" transform="matrix(1 -.00000009 -.00000009 -1 472.354 414.926)"/><path d="m0 0h20.0939v20.0939h-20.0939z" transform="matrix(1 -.00000009 -.00000009 -1 472.354 294.361)"/><path d="m0 0h20.0939v20.0939h-20.0939z" transform="matrix(1 -.00000009 -.00000009 -1 472.354 354.645)"/><path d="m0 0h20.0939v20.0939h-20.0939z" transform="matrix(1 -.00000009 -.00000009 -1 291.51 445.066)"/><path d="m0 0h20.0939v20.0939h-20.0939z" transform="matrix(1 -.00000009 -.00000009 -1 291.51 384.785)"/><path d="m0 0h20.0939v20.0939h-20.0939z" transform="matrix(1 -.00000009 -.00000009 -1 291.51 414.926)"/><path d="m0 0h20.0939v20.0939h-20.0939z" transform="matrix(1 -.00000009 -.00000009 -1 291.51 354.645)"/><path d="m0 0h20.0939v20.0939h-20.0939z" transform="matrix(1 -.00000009 -.00000009 -1 653.201 203.939)"/><path d="m0 0h20.0939v20.0939h-20.0939z" transform="matrix(1 -.00000009 -.00000009 -1 653.201 324.502)"/></g><path d="m0 0h20.0939v20.0939h-20.0939z" fill="#f1f2f2" transform="matrix(1 -.00000009 -.00000009 -1 653.201 143.656)"/><path d="m0 0h20.0939v20.0939h-20.0939z" fill="#fafbfc" transform="matrix(1 -.00000009 -.00000009 -1 653.201 23.0938)"/><path d="m0 0h20.0939v20.0939h-20.0939z" fill="#fafbfc" transform="matrix(1 -.00000009 -.00000009 -1 653.201 173.799)"/><path d="m0 0h20.0939v20.0939h-20.0939z" fill="#fafbfc" transform="matrix(1 -.00000009 -.00000009 -1 653.201 294.361)"/><path d="m0 0h20.0939v20.0939h-20.0939z" fill="#fafbfc" transform="matrix(1 -.00000009 -.00000009 -1 653.201 53.2344)"/><path d="m0 0h20.0939v20.0939h-20.0939z" fill="#fafbfc" transform="matrix(1 -.00000009 -.00000009 -1 653.201 113.516)"/><path d="m0 0h20.0939v20.0939h-20.0939z" fill="#fafbfc" transform="matrix(1 -.00000009 -.00000009 -1 653.201 234.08)"/><path d="m0 0h20.0939v20.0939h-20.0939z" fill="#fafbfc" transform="matrix(1 -.00000009 -.00000009 -1 201.087 384.785)"/><path d="m0 0h20.0939v20.0939h-20.0939z" fill="#fafbfc" transform="matrix(1 -.00000009 -.00000009 -1 201.087 414.926)"/><path d="m0 0h20.0939v20.0939h-20.0939z" fill="#e1e4e8" transform="matrix(1 -.00000009 -.00000009 -1 562.778 445.066)"/><path d="m0 0h20.0939v20.0939h-20.0939z" fill="#fafbfc" transform="matrix(1 -.00000009 -.00000009 -1 562.778 203.939)"/><path d="m0 0h20.0939v20.0939h-20.0939z" fill="#fafbfc" transform="matrix(1 -.00000009 -.00000009 -1 562.778 324.502)"/><path d="m0 0h20.0939v20.0939h-20.0939z" fill="#fafbfc" transform="matrix(1 -.00000009 -.00000009 -1 562.778 414.926)"/><path d="m0 0h20.0939v20.0939h-20.0939z" fill="#fafbfc" transform="matrix(1 -.00000009 -.00000009 -1 562.778 173.799)"/><path d="m0 0h20.0939v20.0939h-20.0939z" fill="#fafbfc" transform="matrix(1 -.00000009 -.00000009 -1 562.778 294.361)"/><path d="m0 0h20.0939v20.0939h-20.0939z" fill="#fafbfc" transform="matrix(1 -.00000009 -.00000009 -1 562.778 354.645)"/><path d="m0 0h20.0939v20.0939h-20.0939z" fill="#fafbfc" transform="matrix(1 -.00000009 -.00000009 -1 562.778 234.08)"/><path d="m0 0h20.0939v20.0939h-20.0939z" fill="#fafbfc" transform="matrix(1 -.00000009 -.00000009 -1 381.933 324.502)"/><path d="m0 0h20.0939v20.0939h-20.0939z" fill="#fafbfc" transform="matrix(1 -.00000009 -.00000009 -1 381.933 354.645)"/><path d="m0 0h20.0939v20.0939h-20.0939z" fill="#fafbfc" transform="matrix(1 -.00000009 -.00000009 -1 743.623 83.375)"/><path d="m0 0h20.0939v20.0939h-20.0939z" fill="#fafbfc" transform="matrix(1 -.00000009 -.00000009 -1 743.623 173.799)"/><path d="m0 0h20.0939v20.0939h-20.0939z" fill="#fafbfc" transform="matrix(1 -.00000009 -.00000009 -1 743.623 294.361)"/><path d="m0 0h20.0939v20.0939h-20.0939z" fill="#fafbfc" transform="matrix(1 -.00000009 -.00000009 -1 823.623 294.361)"/><path d="m0 0h20.0939v20.0939h-20.0939z" fill="#fafbfc" transform="matrix(1 -.00000009 -.00000009 -1 823.623 264.361)"/><path d="m0 0h20.0939v20.0939h-20.0939z" fill="#fafbfc" transform="matrix(1 -.00000009 -.00000009 -1 743.623 113.516)"/></g></svg>