<svg viewBox="0 0 1119.48 590.35" xmlns="http://www.w3.org/2000/svg"><g fill="#0366d6"><path d="m705.21 474.48c-3.83 0-8.08-2.21-10.77-3.6l-1.1-.56c-3.18-1.59-6.22-2.28-12.08-2.73-17.24-1.33-34.86-9.35-51-23.19-25.7-22.1-39.38-56.18-40.65-101.3l3-.09c1.25 44.25 14.57 77.59 39.6 99.11 15.62 13.43 32.65 21.2 49.24 22.48 6.29.48 9.62 1.25 13.19 3l1.14.58c3.35 1.74 9.59 5 12.43 2.14.56-.56 1.18-3.28.41-8.17-.72-4.58-5.68-28.13-33.07-42.2-38.55-19.78-54.55-47.95-60.74-63.03-5-12.24-3.48-28.4-2-44 1.19-12.77 2.41-25.92.19-36.92-4.07-19.81-18.32-37.44-25.28-44l2.06-2.19c7.2 6.78 21.93 25 26.15 45.58 2.35 11.44 1.1 24.85-.12 37.82-1.49 16-2.9 31 1.82 42.61 6 14.66 21.65 42.15 59.37 61.53 22.22 11.41 32.47 30.41 34.66 44.39.39 2.48 1 8.47-1.25 10.76a7 7 0 0 1 -5.2 1.98z"/><path d="m666.37 450.65a24.1 24.1 0 0 1 -6.82-1.27 50.42 50.42 0 0 1 -16.16-9.18c-9.95-8.33-16.31-20.59-12.83-24.75 3.14-3.75 10.35 1.13 23.44 12.07 13.58 11.38 19.91 17.83 16.78 21.58-.97 1.16-2.62 1.55-4.41 1.55zm-33-33.43a.71.71 0 0 0 -.53.15c-1.43 1.72 2 11.75 12.46 20.53a47.82 47.82 0 0 0 15.16 8.62c5.07 1.65 7.58 1.15 8 .65 0 0 .68-1.07-3.43-5.54a154.87 154.87 0 0 0 -13-11.81 142.24 142.24 0 0 0 -13.52-10.37c-2.77-1.76-4.36-2.23-5.12-2.23zm-10.96-8.78c-2.77 0-6.12-3.22-8-5.33a50.42 50.42 0 0 1 -9.13-15.18 47.64 47.64 0 0 1 -3.38-17c0-3.09.48-8.45 3.42-9.59a2.89 2.89 0 0 1 2.25.07c2.75 1.21 4.87 6.47 9 17.29.47 1.21.95 2.47 1.45 3.75l1.47 3.77c4.53 11.53 6.83 17.68 5.56 20.55a2.68 2.68 0 0 1 -1.53 1.5 2.91 2.91 0 0 1 -1.11.17zm-16.1-44.34c-1.48.72-2.95 10.64 1.75 22.75 4.62 11.89 12.27 18.6 14.25 18.6h.06c.76-1.85-2.94-11.26-5.65-18.17-.48-1.24-1-2.5-1.48-3.78l-1.45-3.76c-2.61-6.8-5.87-15.25-7.48-15.64zm-95.47 45.08a274.2 274.2 0 0 1 -41.46-41.35c-12.49-15.45-22-31.27-23.18-34.34l2.8-1.05c1 2.59 10.3 18.15 22.71 33.5a271.49 271.49 0 0 0 41 40.9zm3.56 53.31c-6.38-14.36-1.8-33.17 4.36-36.92l1.56 2.56c-4 2.42-9.25 19.47-3.18 33.14z"/><path d="m516 476.8a9.49 9.49 0 0 1 -2-.2 8.59 8.59 0 0 1 -5.75-4.44 5.68 5.68 0 0 1 -.57-5c1.59-4 8.16-6.06 14-7.85a50 50 0 0 0 5.89-2.07c5.64-2.71 7.62-4.41 7.64-4.43l2 2.25c-.08.08-2.22 2-8.32 4.89a49.9 49.9 0 0 1 -6.31 2.22c-4.63 1.44-11 3.4-12 6.09a2.67 2.67 0 0 0 .39 2.45 5.6 5.6 0 0 0 3.77 3c5.34 1.13 13.64-4.94 19.71-9.38 2-1.48 3.76-2.76 5.24-3.68l1.58 2.56c-1.38.85-3.08 2.09-5 3.54-6.37 4.5-13.95 10.05-20.27 10.05zm-146.12 92.55c-5.8 0-11.15-1.8-14.15-7.2-1.86-3.34-2.18-6.14-1-8.33 2.63-4.72 11.59-5.15 21.07-5.6 1.69-.08 3.39-.16 5-.27 13.09-.84 32.79-2.11 45.31-6 13.82-7.59 27.23-15.14 31.11-17.72 6.39-4.27 4.51-10.34-1.81-21.52-2.65-4.69-6.76-13-12.46-24.4-6.75-13.56-15.15-30.45-25.25-49.68-18.43-35.11-41-86-41.27-86.55l2.74-1.22c.22.51 22.81 51.35 41.19 86.37 10.19 19.3 18.64 36.2 25.36 49.77 5.46 11 9.77 19.64 12.39 24.27 4.76 8.43 10.69 18.92.85 25.48-3.92 2.62-17.55 10.29-31.53 18h-.09c-15 8.2-30.31 16.41-34.63 18.46-4.09 1.94-13.97 6.14-22.83 6.14zm46.47-22c-11.65 2.08-25.35 3-35.27 3.61-1.67.1-3.39.19-5.1.27-7.86.37-16.77.8-18.59 4.06-.68 1.22-.36 3 1 5.41 6.32 11.38 26.91 2.74 33.07-.18 3.34-1.61 13.54-6.99 24.89-13.18z"/><path d="m371.83 550c-7.07-25 12.51-44.89 27.39-52.13l1.32 2.69c-9.68 4.71-33.17 22.63-25.82 48.63zm431.53 6.48a11.1 11.1 0 0 1 -5.82-1.34 7 7 0 0 1 -3.25-5.11 7.87 7.87 0 0 1 1.77-6.46c3.07-3.74 9.86-6 18.62-6.26l5-.13c13.15-.31 37.53-.88 48.62-3.43 5.84-2 10.58-3.69 13-4.65 4.06-1.6 6.25-3.2 6.9-5s0-4-2-7.46c-1.47-2.64-8.2-13.27-16.77-26.64-13.22-20.73-31.34-49.11-38.71-61.81l-.86-1.49c-12.11-20.84-34.64-59.63-42.47-80.2l2.8-1.07c7.75 20.34 30.2 59 42.26 79.76l.86 1.49c7.35 12.65 25.44 41 38.65 61.71 8.57 13.43 15.34 24 16.89 26.76 1.76 3.07 3.39 6.65 2.23 9.94-1 2.76-3.63 4.87-8.63 6.83-2.48 1-7.27 2.67-13.18 4.71h-.14c-16 5.52-40.17 13.47-49 16.24-5.93 1.88-11.99 3.61-16.77 3.61zm50.29-17.75c-11.29.92-24.61 1.23-33.88 1.45l-5 .13c-7.78.21-13.91 2.15-16.4 5.17a4.84 4.84 0 0 0 -1.12 4 4.06 4.06 0 0 0 1.86 3.05c3.56 2.19 11.79.06 20.15-2.57 6.38-1.96 20.84-6.69 34.39-11.23z"/><path d="m803.61 539.43c-2-10-.56-28.84 17.55-35.94l1.1 2.8c-16.26 6.37-17.53 23.46-15.71 32.56zm-436.91-234.43c-12.71 0-26.51-2.51-37.67-4.86l.62-2.93c13.26 2.79 30.3 5.82 44.48 4.46s30.71-7.36 33.39-17.3c-.37-12.79-7.14-21.66-21.16-35.51-13.48-13.31-31.51-30-41.68-36.73l1.66-2.5c13 8.69 35.54 30.59 42.12 37.1 12.28 12.12 21.7 22.6 22.07 37.77a1.75 1.75 0 0 1 0 .4c-2.88 11.54-20.19 18.24-36.06 19.76-2.56.28-5.14.34-7.77.34z"/><path d="m326.92 301.87h13.74v3h-13.74z" transform="matrix(.93175461 -.36308861 .36308861 .93175461 -87.359825 141.860093)"/></g><g fill="#e1e4e8"><path d="m95.14 558.17a63.59 63.59 0 1 1 63.59-63.59 63.66 63.66 0 0 1 -63.59 63.59zm0-125.18a61.59 61.59 0 1 0 61.59 61.59 61.66 61.66 0 0 0 -61.59-61.58zm0 114.85a53.26 53.26 0 1 1 53.26-53.26 53.32 53.32 0 0 1 -53.26 53.26zm0-104.51a51.26 51.26 0 1 0 51.26 51.25 51.31 51.31 0 0 0 -51.26-51.25z"/><path d="m95.14 547.84a53.26 53.26 0 1 1 53.26-53.26 53.32 53.32 0 0 1 -53.26 53.26zm0-104.51a51.26 51.26 0 1 0 51.26 51.25 51.31 51.31 0 0 0 -51.26-51.25zm0 92.49a41.24 41.24 0 1 1 41.24-41.24 41.29 41.29 0 0 1 -41.24 41.24zm0-80.47a39.24 39.24 0 1 0 39.24 39.23 39.28 39.28 0 0 0 -39.24-39.23z"/><path d="m95.14 535.82a41.24 41.24 0 1 1 41.24-41.24 41.29 41.29 0 0 1 -41.24 41.24zm0-80.47a39.24 39.24 0 1 0 39.24 39.23 39.28 39.28 0 0 0 -39.24-39.23z"/></g><path d="m94.87 413.38-.87.14-48 7.44-31.66 59.99 84.36 14.29-15.22 81.18 3.96 2.49 71.36-14.41 24.69-54.29-87.35-17.07-3.99-80.03z" fill="#fff"/><path d="m993.78 558.41a63.59 63.59 0 1 1 63.59-63.59 63.66 63.66 0 0 1 -63.59 63.59zm0-125.18a61.59 61.59 0 1 0 61.59 61.59 61.66 61.66 0 0 0 -61.59-61.59zm0 114.84a53.26 53.26 0 1 1 53.22-53.25 53.32 53.32 0 0 1 -53.22 53.25zm0-104.51a51.26 51.26 0 1 0 51.22 51.26 51.32 51.32 0 0 0 -51.22-51.26z" fill="#e1e4e8"/><path d="m993.78 548.07a53.26 53.26 0 1 1 53.22-53.25 53.32 53.32 0 0 1 -53.22 53.25zm0-104.51a51.26 51.26 0 1 0 51.22 51.26 51.32 51.32 0 0 0 -51.22-51.26zm0 92.5a41.24 41.24 0 1 1 41.22-41.24 41.29 41.29 0 0 1 -41.22 41.24zm0-80.48a39.24 39.24 0 1 0 39.22 39.24 39.28 39.28 0 0 0 -39.22-39.24z" fill="#e1e4e8"/><path d="m993.78 536.06a41.24 41.24 0 1 1 41.22-41.24 41.29 41.29 0 0 1 -41.22 41.24zm0-80.48a39.24 39.24 0 1 0 39.22 39.24 39.28 39.28 0 0 0 -39.22-39.24z" fill="#e1e4e8"/><path d="m993.51 413.62-.87.13-48.01 7.45-31.66 59.98 84.37 14.3-15.23 81.17 3.96 2.49 71.37-14.4 24.69-54.29-87.35-17.07-3.99-80.04z" fill="#fff"/><path d="m95.77 398.81a95.77 95.77 0 1 0 95.77 95.77 95.77 95.77 0 0 0 -95.77-95.77zm0 169.87a74.1 74.1 0 1 1 74.1-74.1 74.11 74.11 0 0 1 -74.1 74.1z" fill="#586069"/><circle cx="95.44" cy="494.91" fill="#e1e4e8" r="29.93"/><path d="m994.63 398.81a95.77 95.77 0 1 0 95.77 95.77 95.77 95.77 0 0 0 -95.77-95.77zm0 169.87a74.1 74.1 0 1 1 74.1-74.1 74.11 74.11 0 0 1 -74.1 74.1z" fill="#586069"/><path d="m129.47 404.91a95.82 95.82 0 0 0 -124.75 119.42c-3.58-40.86 10.53-71 25.21-87.28 18.29-20.28 37.58-30.32 63.18-32.59a173.9 173.9 0 0 1 36.36.45zm45.45 90.34c-1.48-14.72-3.48-29.18-18.45-43.15a74.08 74.08 0 0 1 -60.7 116.58 75.58 75.58 0 0 1 -9.92-.68c20.05 4.5 46.13 5.4 65.46-14.23 21.61-21.95 25.27-41.9 23.61-58.52zm853.08-90.34a95.84 95.84 0 0 0 -124.76 119.42c-3.57-40.86 10.53-71 25.21-87.28 18.29-20.28 37.59-30.32 63.19-32.59a173.94 173.94 0 0 1 36.36.45zm45.44 90.34c-1.44-14.72-3.44-29.18-18.44-43.15a74.08 74.08 0 0 1 -60.7 116.58 75.34 75.34 0 0 1 -9.92-.68c20 4.5 46.12 5.4 65.45-14.23 21.62-21.95 25.28-41.9 23.61-58.52z" fill="#6a737d"/><circle cx="994.3" cy="494.91" fill="#e1e4e8" r="29.93"/><path d="m90.12 333.08-3.1 12.19 6.87 2.22-.45-14.19z" fill="#e6a600"/><path d="m34.58 404.79c20-11 70.1-31.69 121.38 2.33 46.78 31 45.77 81.77 45.56 87.13-.12 3.07 1.08 4.57 2 4.93 1.61.64 4.15 0 6-4.93 1.92-5.14 29.26-71.17-46.22-126-73.24-53.25-158.3-6.35-158.3-6.35z" fill="#ffcf26"/><path d="m190.81 417.32c-11.47-18.7-36.81-31.92-44.34-31.92-6.54-3.06-15.08-14.64-48.78-20-27-4.25-59.31 8.81-76.39 20.1l13.28 19.25c20-11 70.1-31.69 121.38 2.33 46.78 31 45.77 81.77 45.56 87.13-.12 3.07 1.08 4.57 2 4.93l.31.1c8.42-25.93-2.04-64-13.02-81.92z" fill="#ffc000"/><path d="m24.61 366.22 16 20.95s46.56-22.61 93.44-2.66c47.46 20.19 56.2 38.24 70.5 68.17-1.66-39.57-31.26-71.83-69.17-88.46-40.77-17.86-91.82-5.98-110.77 2z" fill="#fffdef"/><path d="m190.81 417.32c-11.47-18.7-36.81-31.92-44.34-31.92-6.54-3.06-15.08-14.64-48.78-20-21.31-3.36-46 4.09-63.81 12.94l6.69 8.79s46.56-22.61 93.44-2.66c46.49 19.78 55.83 37.51 69.64 66.36-3.06-13.27-7.89-25.43-12.84-33.51z" fill="#fff5b1"/><path d="m179.68 381.63-18 29.59s2.77 2.22 3.54 3c9.87-7.76 23.5-23.28 23.5-23.28a92.2 92.2 0 0 0 -9.04-9.31z" fill="#e6a600"/><path d="m174.53 390.13-7.38 12.15q3.33 2.36 6.23 4.76c3.12-3 6.18-6.14 8.74-8.85-2.38-2.79-4.92-5.48-7.59-8.06z" fill="#fff5b1"/><path d="m104.06 523.21a29.82 29.82 0 0 0 17-13s-19.38-6.21-24.06-15.96c-4-13.3-9.77-28.49-9.77-28.49h-.08a29.91 29.91 0 0 0 -20.19 20s15.44 2.72 24.97 12.24a4.39 4.39 0 0 1 .3.45c-1.85 12.4 8.79 25.46 8.79 25.46.98-.17 2.03-.41 3.04-.7z" fill="#bbbfc3"/><path d="m230.89 297.16s-108 178.24-114.17 187.55-16 26.16-27.49 19.51 4-27 4-27l128.91-182.83z" fill="#ffcf26"/><path d="m221.46 312.73-3.65-1.82-36.35 53.65-.72 1.83s-62.51 105.92-69.67 117.55c-8 13-12.14 18-21.84 20.28 11.53 6.65 21.28-10.19 27.49-19.51 5.08-7.62 78.28-128.36 104.74-171.98z" fill="#ffc000"/><path d="m971 512.27a29.75 29.75 0 0 0 17.7 12.1s-.21-20.37 7.59-27.85c11.38-8 24-18.21 24-18.21v-.07a29.92 29.92 0 0 0 -25.33-12.9s2.27 15.48-3.8 27.52c-.09.13-.21.27-.33.42-12.36 2.14-21.42 16.33-21.42 16.33a27.18 27.18 0 0 0 1.59 2.66zm-183.65-143.95h-3.99l-7.54-15.74 7.31 1.56m-137.67-5.88c-3.16 4 4 9.65 4 9.65s-.16 1.82-5.48-1-4.66-7.48-4.66-9.65z" fill="#bbbfc3"/><path d="m636.65 342.77v5.83l12.64.83.66-5.16-11.14-3.66zm-215.82-19.45c-1 2.5-1.5 11.31 7.65 15.63s8 1.83 8 1.83-12.8-9-7.65-16.13a20.46 20.46 0 0 0 -8-1.33z" fill="#bbbfc3"/><path d="m417.67 318-.5 7.15 15.13 2.16 1-6.48zm-66.03 6.1-3.43 12.19 3.16-.33 5.93-11.53zm203.58 18.67 2.16 10.15 2.88.88.44-11.19z" fill="#bbbfc3"/><path d="m221.26 295.51-2.41 3.49a25.19 25.19 0 0 0 7.19 6.07c2.67-4.28 4.16-6.69 4.16-6.69z" fill="#ffc000"/><path d="m1085.41 373.37c4.16-.5 13-1 19.29 6.82s4.82 19.62 4 23.27-23.29-30.09-23.29-30.09z" fill="#ea4a5a"/><path d="m1099.25 387.67c-.5-2.66-1.66-6.49.5-7.48a4.44 4.44 0 0 1 5.82 1.33c1.5 2 4.91 8 3.74 18.33-7.81-3.49-10.56-11.52-10.56-11.52z" fill="#f97583"/><path d="m1067 376.69 11.8-6.81s2.83-1.67 5 .16 11 10.31 15.46 15.13 11.31 16 12 17.3 1.33 2.66.33 4a80.15 80.15 0 0 1 -6.32 5.82z" fill="#ffcf26"/><path d="m1071.15 378.86 17.18 12.74c1.33.56 5.66 2.11 8.21.22 2.21-1.63 2.42-4.35 2-7.36-4.64-4.9-12.73-12.67-14.79-14.42s-5-.16-5-.16l-10.85 6.26z" fill="#ffc000"/><path d="m896.64 466.76c7.1-26.16 26.82-72.53 92.45-76.71 55.64-3.55 86 31 97.32 53.32l32.81-19.18s-47-77.37-131.24-63-95.11 84.47-96.44 102c0 0-.33 9.64 2 9.75 1.82.11 3.1-6.18 3.1-6.18z" fill="#ffcf26"/><path d="m1104.55 432.77c-24.1-37.11-76.67-73.9-141.81-50.59-60.79 21.76-67.9 76.08-68.48 90.49 1.43-1.23 2.38-5.91 2.38-5.91 7.1-26.16 26.82-72.53 92.45-76.71 55.64-3.55 86 31 97.32 53.32z" fill="#ffc000"/><path d="m1104.7 417.76-16 8.32s-25.33-34-65.18-42.9c-40.24-9-67.5.33-94.44 18.62 14.63-20.62 53.87-40.57 101.42-29.26 49.22 11.69 74.2 45.22 74.2 45.22z" fill="#fffdef"/><path d="m962.74 382.18a108.55 108.55 0 0 0 -32.38 18c-.43.55-.85 1.11-1.24 1.66 26.94-18.29 54.2-27.6 94.44-18.62 39.85 8.89 65.18 42.9 65.18 42.9l7.93-4.13c-26.67-32.99-75.16-60.84-133.93-39.81z" fill="#fff5b1"/><path d="m910.09 434.66a94.76 94.76 0 0 1 10.5-14.13l-14.56-5a114.92 114.92 0 0 0 -5.73 11.83z" fill="#e6a600"/><path d="m991.53 477.18c-18.56-12.08-134.36-81-151.86-91.56-20.18-12.2-37.47-18.4-74.94-20.62-54.62-3.23-548.25-43.9-548.25-43.9l4.88-6.2-12.36-5.32-34.37 49.66 14.64 9.31 6.42-8.87 48.31 104.2s4.88 15.51 14.64 22.16 19.95 9.76 40.34 10.2 683.71 15.52 683.71 15.52 22.83.67 25.72-11.53c2.09-9.01-2.92-13.96-16.88-23.05zm-213.25-97 30.39 106.16-194.73-2.5-44.09-118c101 6.74 185.64 12.39 191.23 12.78s11.57.92 17.2 1.54zm-178.2 103.46c-73-.93-144.27-1.84-200.33-2.54l-39.75-129.25 192.11 12.82zm-312.88-3.91c-11 0-16-.34-20.61-4.33s-10-18.95-10-18.95-44.29-102.54-46.2-106.75c-1.67-3.65-1.64-5.41-1-6.43 1.11-1.77 5.32-1.1 5.32-1.1l122.78 8.18 51.62 130.65c-59.35-.78-99.29-1.27-101.91-1.27zm534.89 6.76-25.46-103.74c1.51.28 3 .57 4.35.87 10.64 2.33 23.28 10.64 23.28 10.64l144 94.11z" fill="#ffcf26"/><path d="m354.38 353.03 35.69 109.52 4.21-.23-34.29-110.47zm211.61 14.19 23.94 67.17 5.65-.33-25.73-68.21zm230.64 15.53-6.51-.24 24.27 89.46 3-3.99z" fill="#ffc000"/><path d="m191.88 359.57 1.34 3.46" fill="#6a737d"/><path d="m247.74 472.52a36.32 36.32 0 0 0 10.87 13.48c9.33 7.23 19.95 9.76 40.34 10.2s683.71 15.52 683.71 15.52 22.83.67 25.72-11.53c.1-.45.18-.89.25-1.33-3.33 8.32-20.62 7.65-20.62 7.65s-679.71-13.3-695.34-14-21.73-2-30-6-14.86-14.08-14.86-14.08m-37.42-122.73c-1.67-3.65-1.64-5.41-1-6.43 1.11-1.77 5.32-1.1 5.32-1.1l122.78 8.18 1.59 4 22.16 1.56-1.24-4.06 192.11 12.82 2 4.9 17.64 1.26-1.86-5c101 6.74 185.64 12.39 191.23 12.78s11.57.91 17.2 1.53l1.68 5.86c6.69.52 12.65 1 17.81 1.4l-1.15-4.69c1.51.28 3 .57 4.35.87a61.71 61.71 0 0 1 13.8 5.26l.72.06c-12.86-12.86-44.34-14.63-44.34-14.63l-564-38.57-5.65 13.19s3.74-5.17 9.08 1.25z" fill="#ffc000"/><path d="m195.64 359.46 21.74-38.28-.9-.08 3.37-4.28 1.12-2-.13-.17-4.32-1.85-34.61 51.07 7.27 4.63.92-1.3z" fill="#ffc000"/><circle cx="95.77" cy="493.25" fill="#e6a600" r="4.96"/><path d="m208 310.89 12.72 4.8-1.96 2.53-11.46-6.25zm-35.41 53.72 10.31 11.75 2.99-4.82-11.86-8.92z" fill="#e6a600"/><path d="m175.03 356.13 18.18 12.86-4.66 5.99-17.51-14.41zm31.26-45.89 17.29 6.65 2.44-3.54-16.41-10.42zm41.9-27.59c-5.51-1.26-11-2.76-16.41-4.55-36.58-12.2-42.34-21.73-42.34-21.73s-7.32 1.11-9.54 5.32a15.68 15.68 0 0 0 -1.77 8.2c5.32 5.55 21.28 18.63 47.89 27.27a256.23 256.23 0 0 0 26.92 7.24c-3.94-6.26-4.76-15.35-4.75-21.75zm72.93 6.35c-2.86 0-12.25.32-25-.23-4.21 9-1.05 17.71.62 21.22 5.79.34 11.89.58 18.38.73s12.19-3.1 12.63-7.75.25-13.97-6.63-13.97z" fill="#e1e4e8"/><path d="m185.14 263.38c6.82 5.74 14.19 13.58 32.59 20.45a187.4 187.4 0 0 0 37 9.23l1.44-6.32s-27.71-3.07-38.36-7.73-30.76-17.29-30.76-17.29z" fill="#f6f8fa"/><path d="m418.67 549.01 47.44-26.16.45 14.63-37.69 20.84zm242.98-35.03-36.36 40.79 11.53 3.55 34.14-33.26zm221.25 16.85-51.88 18.18 7.98 11.52 41.24-11.97z" fill="#586069"/><path d="m555.14 464.16 40.86 26.9s6.76 6.21 10.47 2 .9-6.4-3-9.47-36.74-25.84-36.74-25.84z" fill="#bbbfc3"/><circle cx="605.37" cy="490.64" fill="#e1e4e8" r="28.38"/><path d="m579.47 502.15a28.38 28.38 0 1 0 50.45-25.84c-14.51 4.23-20.59 14.41-23.33 22.93-9.25-3.6-20.28-1.04-27.12 2.91z" fill="#bbbfc3"/><circle cx="604.56" cy="490.48" fill="#6a737d" r="13.62"/><path d="m601.23 495.91 41.37 39.48s6 4.59 8.52 2.75 1.25-6.08-2.67-9.82-40.9-39.39-40.9-39.39-3-3.16-6.32-.5 0 7.48 0 7.48zm226.46 16.96 26.94 31.92s3.66 4.33 6 2.66 1.66-4-1-7.64-25.27-33.26-25.27-33.26zm-427.98-9.64 38.29 35.25s5.65 5 8.31 3.32 1.66-6-2-10-38.57-35.91-38.57-35.91z" fill="#bbbfc3"/><circle cx="395.17" cy="487.82" fill="#e1e4e8" r="28.38"/><circle cx="821.71" cy="493.14" fill="#e1e4e8" r="27.49"/><path d="m369.31 499.49a28.37 28.37 0 1 0 50.44-25.84c-14.5 4.22-20.59 14.41-23.32 22.93-9.25-3.58-20.28-1.04-27.12 2.91zm427 4.93a27.73 27.73 0 1 0 49.29-25.25c-14.17 4.13-20.11 14.08-22.79 22.4-9.04-3.52-19.81-1.02-26.5 2.85z" fill="#bbbfc3"/><circle cx="821.71" cy="493.14" fill="#6a737d" r="11.59"/><circle cx="394.84" cy="487.82" fill="#6a737d" r="13.62"/><path d="m346.84 458 38.91 29.6s6.32 6.65 10.31 2.66 1.33-6.32-2.33-9.65-34.92-28.26-34.92-28.26zm441.61-12.64 24.11 42.74s4.66 9.14 8.82 7.15c3.62-1.74 2.32-6-1.33-12s-23.61-44.89-23.61-44.89z" fill="#bbbfc3"/><path d="m355.49 454.51 36.24 31.92s1.17 1.83.34 2.33-2.5-.5-4-1.5-39.4-30.26-39.4-30.26zm482.01 59.86 20.12 26.77s1.83 2.16 1 2.66-2.66-1.17-3.49-2.17l-21.13-25.1zm-41.4-70.67 23.28 44.06s1.24 3 .33 3.66c-1.16.83-2.82-1.33-3.32-2.33s-24.28-43.09-24.28-43.09z" fill="#e1e4e8"/><path d="m317.58 455.45 6.65 10.2 46.55-13.75-1.77-11.52zm448.26-5.76 44.34-29.71 2.22 14.19-37.69 22.61zm-233.22 17.31c1.33 0 43.45-25.72 43.45-25.72l3.55 8.87-38.62 23.48z" fill="#586069"/><path d="m440 296.72c-6.48 0-20.66 6-20.66 6s-8.48 1.33-8.48 7.32 4.33 7.81 8.82 9 61.85 19.12 63 19.29c7.32 1.49 10.43-2.06 12-7 1.83-5.82-1-11.14-5.81-11.8s-60.16-11.31-60.16-11.31 9-3 13.47-4c5.18-1.22 4.49-7.5-2.18-7.5zm203.84 18.95-13.23 6.32 10.86 7.09 16.83-9.58-4.98-7.32zm-2.04 16.63 23.45 5.15-4.99 12.64-24.44-8.65 1-6.15z" fill="#e1e4e8"/><path d="m663.64 341.28-27.16-8.2 1.89-7.32 13.85-7.65-4.32-2.66-17.51 10.42 3.65 10.75 26.28 9.87z" fill="#fff"/><path d="m631.33 320.83c5.06-1 9 2.82 9.31 5.15s.5 3.33 1.33 3.66 3.33 1.16 3.49 3.33c-2 .16-5 1.49-5.48 3.15s-1.33 5.16.33 6.82c-1.17.83-3.33 1.5-7.48-.33s-7.65-6.32-8-10.81.68-9.8 6.5-10.97zm27.1 21.61c-1.1 5.34-.17 9.31 5.82 12.47s31.59 9.31 37.08 10.31 8.4-4.23 9.64-10.14c1.5-7.15.83-14.63-6.15-15.8-5.14-.85-33.42-3.16-36.75-3.32s-8.47.83-9.64 6.48zm142.44-.5 8.65-.44s5.09-.22 4.43 3.55-5.76 12-8.65 11.75-70-6.65-70-6.65-8-1-7.54-6.1c.59-6.85 7-5.54 12.41-5.54s21-.11 26.35 1.88 30.14 3.55 34.35 1.55zm-284.73-5.32c.33-7 27.6-3.81 43.23-4.1 6.1-.11 26.83-2.44 33.15-2.88 4.32-.22 10-.11 10.64 4.77s-2.44 9.47-14 11-46.33-1.61-46.33-1.61-26.95-1.67-26.69-7.18z" fill="#6a737d"/><path d="m422.83 311.93 31.13 7.18.22-2.55-28.94-7.79-2.1-1.63 18.85-7.54-.56-1.88-24.94 9.09z" fill="#fff"/><path d="m425.1 320.44c-2.88-1.55-3.11-4.88-2.66-6.87s2.44-5.32 7.54-4.66c-.23-1.77-.45-2.77-4.44-4.1-1.22-.41-.11-1-2.1-2.22-1.78-1.11-6-1.1-7.87-.33a10.22 10.22 0 0 0 -6.21 7.76c-.89 5.1 2 8.42 5.76 10s7.54 1.75 9.98.42zm37.46-7.32a9.87 9.87 0 0 0 -11.08 6.65c-.88 3.51-.65 9.55 2.88 11.31 4 2 24.39 7.32 29.49 8.2s10.42-.44 12.19-5.1 2-12.85-4.66-15.07-28.82-5.99-28.82-5.99zm-276.45-36.58a10.57 10.57 0 0 1 1.11-9.31c2-3.1 5.32-4.65 11.09-3.32l-8.65-8.21s-7.32 1.33-9.09 5.55-3.1 7.09-1.77 10a21.63 21.63 0 0 0 7.31 5.29zm111.74 11.31s22.17-.66 25-.66 7.31 6 6.87 12.63-2.44 10.64-7.76 11.53-22.83-.44-22.83-.44a14.59 14.59 0 0 1 -4.83-10.91 20.39 20.39 0 0 1 3.55-12.15zm-50.94-1.11c-1 2.5-2.33 11.31 2.33 16.8l4.16 2z" fill="#6a737d"/><circle cx="994.96" cy="495.58" fill="#e6a600" r="4.99"/><path d="m81.69 266.35c24.39 7.76 62.38 35 56.54 55.2-4.44 15.29-38.09 16.43-67 10.42l-4.87-1.33s-1.91-.46-3.77-4c-2.11-4-3-17.35-.61-31.26 3.14-18.38 10.02-25.27 12.68-27.38 2.1-1.75 4.1-2.59 7.03-1.65z" fill="#ffcf26"/><path d="m138.23 321.55a16.31 16.31 0 0 0 .54-2.92c-12.44-5.62-26.77-2.57-36.68-1.52-4.54-8.53-17.18-14.3-40.86-16.05-1.3 11.73-.42 22.14 1.4 25.59s3.77 4 3.77 4l4.87 1.35c28.87 6 62.52 4.84 66.96-10.45z" fill="#ffc000"/><path d="m75.32 300.38 13-31.6a79.29 79.29 0 0 0 -6.59-2.43c-2.93-.94-4.93-.1-7 1.6-2.73 2.16-9.61 9.05-12.73 27.44-2.35 13.91-1.5 27.27.61 31.26 1.86 3.53 3.77 4 3.77 4l4.15 1.13z" fill="#bbbfc3"/><path d="m64.26 296.14c2.11-13.42 6.49-20.86 8.32-23.7 2-3.1 4.32-5.65 8.48-6.23-2.94-.94-4.6 0-6.7 1.66-2.66 2.13-9.62 9.13-12.72 27.52-2.35 13.91-1.61 27 .5 31 1.87 3.53 2.79 3.16 2.79 3.16s-2.08-2.66-2.91-8.23c-.22-4.76.14-11.77 2.24-25.18z" fill="#fffbdd"/><path d="m66.44 330.65 4.83 1.35q3.74.78 7.55 1.38c1-9.07 5.24-41.9 18.53-60.3a100 100 0 0 0 -15.6-6.69c-4.39 7.17-14.28 26.44-15.31 64.26z" fill="#e1e4e8"/><path d="m424.54 338.06c1.56 1.45 3.15 5.53 2.89 8.87-.45 5.66-1.72 7.84-3.38 9.2 8.86.67 13 .89 13 .89s2.89-2.22 3.22-8.7c.25-4.89-1.5-8-3.38-9.31-3.03-.45-12.35-.95-12.35-.95z" fill="#bbbfc3"/><path d="m420.33 325.59s7.37 1.09 7.51 1.09a5.73 5.73 0 0 0 -.25 1.3h-7.22a15.66 15.66 0 0 1 -.04-2.39zm224.67 23.55-5.68-.36a13.75 13.75 0 0 0 .12 1.79c2.23-.27 5.37-.87 5.37-.87z" fill="#959da5"/><path d="m75.9 278.1 15.1 5.76s-6.05 15-7 20.84c-14-2.33-14.88-2.58-14.88-2.58s2.6-13.63 6.78-24.02zm3.24-7.1 14.86 7.39s-.79 1.33-1 1.74c-3.54-1.37-15.8-5.07-15.8-5.07s1.07-2.53 1.94-4.06zm-11.88 45.67 13.63 1.66-.71 4.46-.37 2.28-13.14-1s.42-4.32.59-7.4z" fill="#f6f8fa"/><path d="m183.23 361.9-3.74 5.65 9.06 7.43 4.66-5.99zm36.14-52.88-3.38 4.99 7.59 2.88 2.44-3.54z" fill="#959da5"/><path d="m223.86 301.98-5.08 6.75 3.69 2.34 3.94-6.59zm784.97 195.02c.24-7.07-5.12-11.86-17.3-19.78-18.56-12.08-134.36-81-151.86-91.56a127.07 127.07 0 0 0 -29.21-13.52c14.7 6.76 48.59 29.64 57.14 35 9 5.65 135.68 81.14 135.68 81.14s7 7.65 1.33 14.3a21.66 21.66 0 0 1 -5.32 4.66l2.84.57a13.07 13.07 0 0 0 5.24-5zm-803.32-150.23 53.87 123s3.83 9.64 16.13 9.47c-6.51-2.24-10.64-5.24-14.51-14.42s-51-116.06-51-116.06z" fill="#ffc000"/><path d="m426.61 341.64a13.36 13.36 0 0 1 .82 5.29 30.22 30.22 0 0 1 -.55 3.93c2.65.17 10.91.73 12.92.72a19.27 19.27 0 0 0 .43-3.26 14.15 14.15 0 0 0 -.72-5.55" fill="#e1e4e8"/><path d="m640 355.4c1.3 1.21 2.63 4.63 2.41 7.43a27.73 27.73 0 0 1 -.34 2.76c-.52 2.76-1.41 4.06-2.49 5 7.43.56 10.86.75 10.86.75s1.73-1.33 2.43-5a17.69 17.69 0 0 0 .27-2.27c.21-4.1-1.26-6.69-2.83-7.81-2.53-.44-10.31-.86-10.31-.86z" fill="#bbbfc3"/><path d="m641.49 357.8a14.29 14.29 0 0 1 .92 4.39 13.61 13.61 0 0 1 -.32 3.27c2.24.14 9.11.7 10.81.7.11-.69.2-1.74.25-2.77a11.38 11.38 0 0 0 -1-4.88m-236.7 151.81-2.16 1.94 26.71 25.33s2.38 2.22 3.44 1.66c1.25-.66-.11-2.19-.94-3.27s-27.05-25.66-27.05-25.66z" fill="#e1e4e8"/><path d="m94 278.39s16.27 8.83 25.77 16.58c9.9 8.07 12.51 13.86 11.72 14.38-1.71 1.14-16.49-12.13-26.49-15.35-6.07-2-15.85-5.13-15.85-5.13s4.12-10.08 4.85-10.48z" fill="#ffea7f"/><path d="m607.54 492.75 38.18 36.53s5.1 4 3.33 5.32-4.88-1.33-7.32-3.77-37.35-35.36-37.35-35.36-3.5-3.27-1.78-4.82 4.94 2.1 4.94 2.1zm-23.89-19.45-16.46-11.31-3.49 1.66 18.78 13.8z" fill="#e1e4e8"/><path d="m437.66 296.83a4.36 4.36 0 0 1 3.16 3.16 6 6 0 0 1 -.72 4.71c.22.89 1.22 1.11 2.88.78s17.18-4 17.18-4a6.31 6.31 0 0 0 2.11-6.42c-1-4.17-4.87-4.95-8.09-4.44-2.77.44-14.25 4.44-15.19 4.66-.73.17-1.11.44-1.33 1.55zm208.73 17.68c1.77-.56 3.32-.33 5.1 1.66s1.44 5.77 1.1 6.32c.78 1 2.55.44 3.77-.11s16.57-7.87 16.57-7.87a3.29 3.29 0 0 0 1.17-2.41 7 7 0 0 0 -1.5-6c-3.24-4.4-7.3-4-9.18-2.74s-15 7.48-15 7.48-2.92 2.3-2.03 3.67zm-465.62-41.4c-3-2.66-17.53-16.94-20.7-21-2-2.57-2.31-2.77-1.83-5.57a9.48 9.48 0 0 1 4-6.65 12.4 12.4 0 0 1 6.74-2.41c2-.16 3 .23 5 2.08 2.24 2.08 12.47 13.47 18.29 18.79-9 5.11-11.5 14.76-11.5 14.76z" fill="#6a737d"/><path d="m5 361.9c9.13-5.32 86.94-49.44 162.09 9.31-1.1 1.55-.27.66-.27.66s-34.42-26.87-75.33-27.76c-38.49-.81-61.41 9.58-84.25 20.89-.33-.55-1.77-2.22-2.24-3.1zm900.88 53.54c7.76-12.75 30.18-54.26 101.42-56.43 69.4-2.1 112.18 65.07 112.18 65.07l-3.1 1.77s-39.46-65-108.63-64.29-93.45 44.23-100.54 54.44a4 4 0 0 1 -1.33-.56z" fill="#fff5b1"/><path d="m173.62 366.55s-63.18 91.78-67.5 99.1-9.65 16-9.65 16l4.77 2.66c-.84 0 42.94-70.75 54.26-87.12 10.81-15.67 20.23-28.19 20.23-28.19zm4.44-8.42 30.48-45.28 2.66 1.49-30.48 45.67zm36.97-51.71 4.87-6.16 1.56 1.61-4.08 6z" fill="#ffea7f"/><path d="m323.27 287.32c-2.49-.14-7.73 2.33-7.9 11.64s3 12.39 6.64 12.39 7.49-4 7.83-11-2.33-12.78-6.57-13.03zm168.01 32.01c-4-.52-7.49 3.34-7.89 9.48-.42 6.4 1.49 10.39 5.07 10.64s7.56-1.75 8.64-9.23-3.24-10.56-5.82-10.89zm215.52 20.67c-4.19-.48-8.2 3.66-9.09 10.75s-.33 13.86 4.88 14.63 7.76-6 8.64-12 .45-12.88-4.43-13.38z" fill="#586069"/><path d="m394.76 314.9 9.5.44s5.1-.22 4.43 3.55-5.76 12-8.64 11.75l-69.36-6s-10.79-.44-10.41-5.54c.44-6 7.42-5.54 12.85-5.54s52.58 1.12 61.63 1.34z" fill="#6a737d"/><path d="m320.28 318.5c1.82 2 4.15 2.33 14.79 3.16s56.37 3.66 59.86 3.49 9.31 1 11.47-1c-1.83 3.16-2.82 5.66-5.48 6.15s-18.79-1.33-24.28-1.66-43.34-3.82-45.95-4-11.75-.32-10.41-6.14zm196.03 17.13c1.66 1.16 5.15 2.32 12.47 3.15s24.94 1.83 38.07 1.67 33.09-1.83 35.59-7c.83.84 3.49 9-10.81 11.48s-48.22-.5-53.37-1.33-26.11-2.32-21.95-7.97zm211.69 6.81c1.5 2.66 4.49 3.33 11 4.33s55 3.82 60.69 3.49 10.48-.17 13.14-1.5c0 0-4 7.93-7.47 8s-69-6.38-69-6.38-10.72-.79-8.36-7.94z" fill="#586069"/><g fill="#0366d6"><path d="m308.81 216.59a173.73 173.73 0 0 1 -34.76-3.53c-40.71-8.34-60.74-27.23-71.43-67.37-11-41.14.07-69.22 9.32-86.77l2.65 1.4c-18.81 35.71-14.19 65.38-9.07 84.6 10.35 38.85 29.73 57.13 69.13 65.2a167.24 167.24 0 0 0 81.07-3.3c15.91-4.73 53.6-22.89 52.47-39.69-.58-8.71-9-14.16-15.83-18.54-.86-.55-1.68-1.08-2.46-1.6l-.68-.45v-.83c.08-4.35.38-9.68.69-15.32.89-16.13 2-36.21-.67-50.55s-16.5-61.84-81.03-64.28c-34.52-1.29-46.92 6-47 6.09l-1.58-2.55c.52-.32 13.1-7.87 48.73-6.54 66.76 2.5 81.09 51.71 83.89 66.73 2.74 14.69 1.62 35 .72 51.26-.3 5.27-.57 10.25-.68 14.4l1.73 1.12c7 4.49 16.52 10.65 17.21 20.86.71 10.65-11.1 20.59-21.14 27a147.5 147.5 0 0 1 -33.47 15.72 167.6 167.6 0 0 1 -47.81 6.94z"/><path d="m211.88 64a82.8 82.8 0 0 1 5.76-32.8c5.64-14.1 12.78-23 19.6-24.41 8.39-1.76 26.5 12.85 39.14 28l-2.3 1.93c-17.36-20.72-32.16-27.8-36.23-26.96-5.73 1.2-12.25 9.64-17.43 22.59a80.92 80.92 0 0 0 -5.54 31.49zm171.62-8.09-2.82-1a101.09 101.09 0 0 0 5.68-22.4c1.26-10.49.52-19.38-1.86-22.11-1.95-2.26-12.32-1.6-24.65 1.57-9 2.31-16.1 5.87-19.47 8.21l-1.71-2.47c3.57-2.48 11.07-6.23 20.43-8.64 21.42-5.51 26.59-1.88 27.67-.64 4.49 5.18 3.1 20 2.57 24.44a103.85 103.85 0 0 1 -5.84 23.04z"/><path d="m379.74 48.59-2.83-1c5.16-14.64 4.77-25.19 4.26-29.51-5.4 3.22-10.69 8-16.1 14.56l-2.32-1.91c6.29-7.62 12.46-13 18.86-16.34a1.5 1.5 0 0 1 1.34 0 1.53 1.53 0 0 1 .83 1.05c.29 1.35 2.7 14.04-4.04 33.15zm-143.74 5.91c-2-14.24-.92-35.59 5.26-38 6.8-2.68 19.44 9.57 29 21.92l-2.37 1.84c-13.5-17.44-22.67-22.1-25.53-21s-5.77 17.59-3.39 34.81zm42.27 159.06c-6.35-3.55-13.13-8.88-15.38-21.44-1.79-10.07.58-17.61 3.14-23.66a17.4 17.4 0 0 0 1.5-6.21c0-1.23-3-4.65-4.4-6.29a158.05 158.05 0 0 1 -16.22-22.07c-10.41-17-11.47-33.18-3.14-48.07 11.99-21.43 29.23-20.82 44.43-17.36 3.94.89 8.11 2.25 12.53 3.68 11 3.58 23.48 7.63 36.35 5.61 15-2.35 19.67-10.39 22.74-15.7.53-.91 1-1.78 1.52-2.5 5.14-7.55 12.69-10.24 20.2-7.2l-1.12 2.78c-8.81-3.57-14.54 3.08-16.6 6.11-.43.63-.88 1.41-1.4 2.31-3.16 5.45-8.42 14.59-24.88 17.17-13.57 2.12-26.41-2-37.73-5.72-4.36-1.42-8.47-2.75-12.27-3.61-14.87-3.36-30.15-3.76-41.15 15.89-7.76 13.88-6.73 29 3.08 45a154.8 154.8 0 0 0 15.89 21.62c2.91 3.39 5.1 6.1 5.17 8.22a20.34 20.34 0 0 1 -1.74 7.47c-2.51 5.93-4.6 12.69-2.94 22 2 11.31 7.86 16 13.88 19.35zm67.54-45.32a5.46 5.46 0 0 1 -2.72-.58 3 3 0 0 1 -1.5-1.95c-.9-3.77 3.67-7.64 8.42-9.07 4.75-1.42 10.53-1 11.89 2.63a3.26 3.26 0 0 1 -.12 2.63c-1.1 2.29-4.71 3.61-8 4.67a28 28 0 0 1 -7.97 1.67zm5.06-8.72c-3.86 1.15-6.72 4-6.36 5.49 0 0 1.11 1 8.35-1.3 1.38-.44 5.58-1.79 6.22-3.11a.31.31 0 0 0 0-.28c-.51-1.36-4.21-2-8.22-.8zm-64.87 162.82a44.09 44.09 0 0 1 -13.19-2.24c-7.51-2.35-31.53-12.62-25.41-46.26 4.71-25.92 19.67-37.2 45.74-34.48 18.69 1.95 43.82 11.51 55.89 16.1l4.55 1.72c8.4 3.07 12.51 2.65 15.7 1.74l.83 2.88c-3.5 1-8.33 1.57-17.56-1.8l-4.55-1.73c-12-4.55-36.84-14-55.14-15.93-24.21-2.51-38.1 8-42.48 32-5.68 31.23 16.44 40.7 23.36 42.86 13.48 4.22 20.22 1.21 25.64-1.2l1.7-.74 1.17 2.76-1.65.72c-3.6 1.63-8.05 3.6-14.6 3.6z"/><path d="m303.09 333.61a8.16 8.16 0 0 1 -2.43-.38c-4.32-1.37-4.2-5.84-4.13-8.24v-1.14a12.77 12.77 0 0 0 -.67-4.71l2.84-.95a15.46 15.46 0 0 1 .83 5.68v1.2c-.07 2.61 0 4.66 2.05 5.3a5 5 0 0 0 3.92-.37c1.92-1 3.42-3.26 4.33-6.43 2-7.05 1.72-9.51 1.45-11.88l3-.35c.37 3.07.48 6-1.54 13.06-1.43 5-3.94 7.25-5.8 8.24a8.05 8.05 0 0 1 -3.85.97zm49.16-74.46c-6.15-17-18.13-34.7-21.65-38.57l2.22-2c3.63 4 16 22.2 22.25 39.57zm-54.17 53.78a21.31 21.31 0 0 1 -5.5-14.18c-.14-6.3 2.72-12.49 7.27-15.77l1.76 2.43c-3.78 2.73-6.15 7.94-6 13.27a18.37 18.37 0 0 0 4.69 12.2zm14.61-69.13-2.86-.91c4.35-13.73 3.7-23.18 3.42-27.21l3-.2c.29 4.2.96 14.04-3.56 28.32zm20.56 5.92-3-.45c1.27-8.48-1.55-19.57-3.86-24.4l2.71-1.29c2.57 5.31 5.53 16.94 4.15 26.14zm-9.74-3.66-3-.22a123.25 123.25 0 0 0 -.66-19.7l3-.28a126.73 126.73 0 0 1 .66 20.2zm-18.78 155.3c-15.44-20.81-29-44.86-31.58-50.48-2.41-5.29-2.46-9.92-.19-15.49 2.07-5.08 7.83-10.08 9.7-11.32s8.11-5 8.37-5.19l1.55 2.57c-.06 0-6.31 3.82-8.26 5.12s-6.9 5.81-8.58 9.95c-2 4.8-1.92 8.6.14 13.12 2.21 4.85 15.8 29.1 31.26 49.94zm38.27-46.6-1.33-2.69c8.47-4.19 17.7-8 25.85-11.29 5.48-2.25 10.22-4.18 13.74-5.85 9-4.24 19.82-11 20.26-19.34.39-7.27-1.24-12.48-5.46-17.4l2.28-1.95c4.7 5.49 6.61 11.5 6.18 19.51-.42 7.85-7.82 15.22-22 21.9-3.59 1.69-8.36 3.64-13.89 5.9-8.06 3.32-17.24 7.07-25.63 11.21z"/><path d="m307.4 456.36a112.54 112.54 0 0 1 -13.35-.77c-7.13-.85-16.55-2.77-20.94-7.1a7.36 7.36 0 0 1 -2.42-6.29 8.55 8.55 0 0 1 3.71-6.43c6.22-4.16 18.22-.77 27 1.71l1.64.45c9.05 2.53 34.45 7.48 51 5.78a237 237 0 0 0 23.83-8.37c4.33-1.88 7-4.34 8-7.3 1.71-5.21-1.85-11.33-4.44-15.81-.48-.81-.91-1.56-1.28-2.24-3.45-6.4-14.71-23.35-26-38.38s-24.62-32.06-24.75-32.23l2.36-1.85c.13.17 13.44 17.14 24.79 32.28 11.72 15.63 22.74 32.29 26.23 38.76.35.65.77 1.37 1.22 2.16 2.72 4.68 6.83 11.76 4.7 18.24-1.25 3.81-4.49 6.88-9.64 9.12-16.7 7.28-51.94 16.54-59.76 17.57a91.94 91.94 0 0 1 -11.9.7zm-25.08-19.52a11.38 11.38 0 0 0 -6.25 1.43 5.58 5.58 0 0 0 -2.4 4.28 4.45 4.45 0 0 0 1.55 3.8c6.62 6.53 30.28 8.12 43.66 6.34 3.59-.48 13.08-2.72 23.85-5.71a202.45 202.45 0 0 1 -40.52-6.16l-1.64-.46c-5.06-1.43-12.49-3.52-18.25-3.52z"/><path d="m286.29 434.68-2.94-.57c2.16-11.19 6-24.08 24.45-35.58 11.67-7.27 25.57-9.18 42.49-5.85l-.58 2.94c-16.14-3.18-29.33-1.39-40.32 5.46-17.39 10.86-21.05 23.03-23.1 33.6zm-109.29-161.6a14 14 0 0 1 3.16-14.31c3.62-3.8 7.58-5.14 14.13-4.79l-.16 3c-5.7-.31-8.79.7-11.8 3.86a11.06 11.06 0 0 0 -2.49 11.29z"/><path d="m228.12 269.49a129.54 129.54 0 0 1 -13.28-.71c-18.37-1.87-25.84-10.78-26.12-11.19l2.28-1.89c.07.08 7.07 8.36 24.1 10.1a106.37 106.37 0 0 0 34.08-1.51l.74-.14.56 3-.73.14a106 106 0 0 1 -21.63 2.2z"/><path d="m177.37 284.69a48.89 48.89 0 0 1 -16.77-2.86c-8.61-3.17-22.24-12.4-16.92-38.62 4.06-20 16.69-31.68 33.76-31.29 15.59.34 27.74 4.84 44.55 11.06 3.37 1.25 6.7 2.53 10 3.8 14.49 5.56 28.19 10.81 43.56 13.09l-.44 3c-15.7-2.32-29.54-7.63-44.2-13.25-3.3-1.27-6.61-2.54-10-3.78-16.54-6.13-28.49-10.56-43.57-10.88-15.52-.34-27 10.46-30.76 28.89-3.61 17.8 1.72 30.31 15 35.21a48.5 48.5 0 0 0 24.16 1.94l.63 2.93a45.63 45.63 0 0 1 -9 .76z"/><path d="m188.66 297.37a7.81 7.81 0 0 1 -2.39-.39c-4.36-1.38-4-7.23-3.9-9.15v-.42c0-.65-.3-2.86-.49-4.1l3-.45c.05.35.52 3.47.52 4.55v.6c-.08 1.34-.33 5.44 1.81 6.11a4 4 0 0 0 3.39-.26c1.52-.88 3.65-3.41 5.16-10.43l2.93.63c-1.42 6.59-3.57 10.64-6.59 12.39a6.74 6.74 0 0 1 -3.44.92zm101.34-68.32c-19.06 0-39.1-8-67-26.86-31.89-21.51-45.74-45.37-53.39-61.45-4.71-9.91-7.74-20.94-10.67-31.61-3.09-11.26-6-21.89-10.56-29.81-7.45-13-17.15-22.15-22.94-27.63-1.08-1-2-1.91-2.76-2.65a147.22 147.22 0 0 1 -17.8-20.84c-5.76-8.41-9.2-11.2-13.23-10.66-3.2.43-7.41 12-8.35 27.86-.85 14.43-2.61 44.46 26.06 92.59 27.16 45.59 56.93 63.18 74.71 73.7l1.59.94-1.53 2.58-1.59-.94c-18-10.66-48.2-28.5-75.75-74.74-29.15-48.93-27.35-79.53-26.48-94.3.6-10.18 3.65-29.69 10.94-30.66 6.07-.81 10.65 4 16.07 12a144.91 144.91 0 0 0 17.45 20.4c.72.72 1.63 1.59 2.69 2.59 5.92 5.59 15.81 15 23.48 28.31 4.75 8.26 7.71 19.07 10.86 30.52 2.89 10.54 5.88 21.44 10.48 31.11 15.65 32.91 37.38 50.15 52.36 60.25 27.36 18.42 46.92 26.3 65.36 26.3 13.59 0 18.19-3.91 21.24-6.5a15.41 15.41 0 0 1 2.65-2l1.43 2.63a14.86 14.86 0 0 0 -2.14 1.62c-3.4 2.91-8.51 7.25-23.18 7.25z"/><path d="m130 123.32c-7.61 0-18.27-11.81-26.09-29.5-8.76-19.82-9.65-37.38-2.05-40.75s20 9.08 28.76 28.95c8.79 19.86 9.68 37.38 2.07 40.75a6.47 6.47 0 0 1 -2.69.55zm-25.5-67.79a3.45 3.45 0 0 0 -1.45.29c-5 2.21-4.77 17.87 3.6 36.79s19.78 29.63 24.8 27.41 4.77-17.87-3.6-36.79c-7.61-17.23-17.79-27.7-23.32-27.7zm76.61 143.12c-3.63 0-8.42-2.85-11.36-4.87a87.3 87.3 0 0 1 -18.93-18.53c-5.71-7.49-10.2-15.4-12.63-22.3s-2.43-12 .13-13.94 6.87-.41 12.83 4.6c5.13 4.32 11.28 11 17.31 18.94a141.11 141.11 0 0 1 14.06 21.63c3.55 7.19 4 11.64 1.45 13.61a4.59 4.59 0 0 1 -2.86.86zm-40.2-57.45a1.28 1.28 0 0 0 -.77.19c-1.08.83-1.26 4.48.88 10.57 2.33 6.6 6.65 14.23 12.19 21.47a85 85 0 0 0 18.24 17.88c6.2 4.26 9.79 4.79 10.7 4.1.19-.15 1.75-1.67-2.32-9.9-2.81-5.7-7.7-13.21-13.75-21.14-5.9-7.73-11.89-14.28-16.86-18.46-4.4-3.71-7.03-4.71-8.31-4.71zm104.79 93.91c-1.85-2.15-6.51-5.11-11.92-8.53-3.15-2-6.72-4.26-10.3-6.71-16.88-11.6-24.19-12.66-25.09-11.35-.62.9.26 3.55 3.61 7.42l-2.27 2c-5.26-6.08-5-9.38-3.81-11.08 2-3 8.75-3.52 29.26 10.57 3.53 2.43 7.08 4.68 10.21 6.66 5.83 3.69 10.44 6.61 12.59 9.1zm-51.83-47.52a1.48 1.48 0 0 1 -1.19-.59 1.5 1.5 0 0 1 .28-2.1 60.25 60.25 0 0 1 23-10.47 1.5 1.5 0 0 1 .68 2.93 56.89 56.89 0 0 0 -21.82 9.93 1.53 1.53 0 0 1 -.95.3zm19.29 13.75a1.54 1.54 0 0 1 -.93-.32 1.51 1.51 0 0 1 -.25-2.11c3-3.8 7.32-6.89 13.64-9.75a1.5 1.5 0 1 1 1.24 2.73c-5.87 2.65-9.85 5.47-12.52 8.87a1.51 1.51 0 0 1 -1.18.58zm183.78-50.34a1.47 1.47 0 0 1 -.73-.19 1.51 1.51 0 0 1 -.58-2c4.93-8.82 14.55-19.84 32.37-22.26a1.5 1.5 0 0 1 .4 3c-16.59 2.25-25.55 12.52-30.15 20.75a1.48 1.48 0 0 1 -1.31.7zm7.32 5.56a1.53 1.53 0 0 1 -1-.4 1.49 1.49 0 0 1 -.08-2.12c4.14-4.49 12-9.41 26.15-7.34a1.5 1.5 0 0 1 -.44 3c-10.14-1.49-18.26.72-23.51 6.4a1.5 1.5 0 0 1 -1.12.46z"/><path d="m248.74 177.8c-10.14-2.3-23.36-2.49-32.14-.44l-.68-2.93c9.18-2.13 23-2 33.49.45zm-21.88 14.09-1.24-2.73c7.25-3.28 17.9-5.24 23.29-5l-.12 3c-4.93-.22-15.17 1.68-21.93 4.73zm360.28 40.23c-23.19 0-54.07-5.14-78.3-13.69-18.8-6.63-32.17-13.79-43.36-23.21-10-8.43-15.05-17-15.39-26.14-.29-7.89 4.6-14.25 8.54-19.36.74-1 1.44-1.88 2.07-2.75-.18-3-.53-6-.9-9.13-1.15-9.71-2.45-20.71.29-37.89 2.91-18.15 13.91-61.54 53.62-72.37 40.76-11.12 82.81 1 99 6.68l-1 2.83c-15.92-5.62-57.27-17.52-97.21-6.62-38 10.37-48.65 52.37-51.45 70-2.67 16.77-1.4 27.55-.27 37.07.4 3.39.77 6.58 1 9.84v.52l-.3.42c-.75 1.06-1.58 2.13-2.45 3.28-3.83 5-8.17 10.61-7.92 17.42.31 8.26 5 16.1 14.32 24 10.9 9.17 24 16.17 42.43 22.67 31.32 11.05 75.61 16.46 96.73 11.82 28.74-6.33 51-29.58 61.06-63.81 12-41 6.3-62.46-.92-78.09l2.73-1.26a85 85 0 0 1 8 31.76c.78 14.1-1.48 29.94-6.92 48.44-10.38 35.31-33.46 59.32-63.3 65.88a96.11 96.11 0 0 1 -20.1 1.69z"/><path d="m485.18 48.25-3-.21c.91-13.19 3.61-26 7.59-36 3-7.6 5.54-11.27 8.21-11.88s8.46 1.1 14.35 4.3a88.89 88.89 0 0 1 25 19.1l-2.23 2a84.8 84.8 0 0 0 -24.2-18.5c-6.1-3.31-10.83-4.33-12.25-4-.7.16-2.68 1.46-6.09 10.06-3.87 9.76-6.49 22.24-7.38 35.13z"/><path d="m491.66 41.6-3-.21c.77-11.13 4.26-26.17 9.42-33.36l1-1.38 1.25 1.15c2.27 2.11 8.67 10.2 10.93 22.1l-2.95.57a43.17 43.17 0 0 0 -8.78-19.15c-3.84 6.52-7.07 18.78-7.87 30.28zm177.01 48.28-3-.45c3.2-20.84 3.47-41.88 2.65-50.17-.57-5.66-1.62-16.18-5.5-19.65-3.45-3.09-11.52-.52-19.73 2.72-9.45 3.73-23.48 9.72-36 18.67l-1.74-2.45c12.83-9.13 27.08-15.22 36.68-19 8.86-3.55 17.97-6.55 22.83-2.18 4.38 3.92 5.6 12.81 6.48 21.59.85 8.45.58 29.83-2.67 50.92z"/><path d="m648.87 79.08-2.82-1a271.2 271.2 0 0 0 10.35-37.93c1.63-8.33.87-12.31 0-12.85-1.36-.87-8.52.79-16.08 4.3-6.77 3.15-19.68 9.92-25.91 14.48l-1.77-2.42c7.07-5.18 20.85-12.2 26.42-14.78 1.5-.7 14.81-6.74 18.95-4.12 3.26 2.08 2.52 9.83 1.33 16a274.08 274.08 0 0 1 -10.47 38.32zm-54.1 152.7-1.7-2.47c18.39-12.69 26.1-30.61 26.79-36.84a17.85 17.85 0 0 0 -4-13.68c-.43-.52-.91-1.06-1.41-1.62-1.93-2.16-4.11-4.61-4.71-7.32-.76-3.39 2.13-7.85 5.18-12.58l.67-1c3.09-4.8 6.84-11 12.94-21.24 8.61-14.49 14.93-34.15-3.81-45.5-18.49-11.21-35.77-4.94-48.39-.36-1.86.67-3.62 1.31-5.24 1.83-10 3.23-29.11 7.87-45.47 2.66-12-3.8-17.31-12.44-20.51-17.6a25.74 25.74 0 0 0 -2.1-3.11c-.58-.64-1.14-1.36-1.73-2.13-2.51-3.24-5.36-6.92-11.4-6.68-7.27.29-15.23 6.66-22.4 17.93l-2.48-1.64c7.71-12.13 16.53-19 24.81-19.32 7.6-.3 11.23 4.41 13.89 7.85.56.72 1.08 1.4 1.59 2a27.47 27.47 0 0 1 2.42 3.53c3 4.81 8 12.86 18.86 16.33 15.57 5 34 .46 43.65-2.66 1.57-.51 3.3-1.14 5.14-1.8 12.44-4.52 31.25-11.34 51 .61 16.26 9.86 18 27.47 4.83 49.6-6.12 10.32-9.89 16.5-13 21.33l-.68 1c-2.46 3.82-5.26 8.14-4.78 10.3.44 2 2.35 4.09 4 6 .53.59 1 1.16 1.49 1.71a20.83 20.83 0 0 1 4.65 15.92c-.8 6.9-8.67 25.55-28.1 38.95zm-66.89-55.57a29.86 29.86 0 0 1 -8.19-1.51c-4-1.25-9.12-3.41-8.18-7.78a4.48 4.48 0 0 1 2.22-2.75 12.6 12.6 0 0 1 9.27-1.17c5.44 1.41 11.23 6 10.55 9.85a3.55 3.55 0 0 1 -1.73 2.48 7.63 7.63 0 0 1 -3.94.88zm-8.1-10.59a8.91 8.91 0 0 0 -4.48 1.11c-.64.39-.84.73-.86.82-.39 1.82 3.13 3.33 6.15 4.28 5.45 1.72 8.59 1.58 9.64.95a.6.6 0 0 0 .33-.43c.27-1.53-3.68-5.22-8.35-6.43a9.8 9.8 0 0 0 -2.43-.3zm24.1 111.98-2.12-2.12c15.73-15.73 14.07-38.88 13.53-46.49l3-.22c.56 7.95 2.29 32.14-14.41 48.83z"/><path d="m571.2 338c-1.43 0-2.94-.05-4.53-.14-22.43-1.35-53.12-10-69.43-15.11l-1.38-.43a88.09 88.09 0 0 0 -18.16-4.2 10.12 10.12 0 0 0 -9.6 4.76c-1.76 3.11-1.18 6.87 1.64 10.58l1 1.33-1.44.86c-2.71 1.63-9.76 2.44-15.95 1.07-7.05-1.57-24.51-11.18-20.67-36.5 4.23-27.82 20.92-42.38 51-44.5 24.37-1.71 51 14.3 66.84 23.87 3.42 2.06 6.37 3.84 8.44 4.89 10.46 5.33 16.41 4.78 21.19 4.33l.6-.06.28 3-.6.06c-4.89.45-11.6 1.08-22.84-4.65-2.16-1.1-5-2.82-8.61-5-15.59-9.39-41.67-25.1-65.09-23.45-28.51 2-44.3 15.74-48.28 42-3.5 23.05 12.06 31.72 18.35 33.12a28.12 28.12 0 0 0 12.24-.11c-2.56-4.2-2.86-8.59-.77-12.27a13 13 0 0 1 12.57-6.27 91 91 0 0 1 18.73 4.31l1.28.4c16.27 5.05 46.7 13.68 68.81 15 23.09 1.39 26.85-8.08 29.59-15 .22-.55.43-1.08.64-1.58 3.95-9.42 5.77-22.49 5.43-38.85-.38-17.44-5.89-32.14-17.87-47.67l2.39-1.79c12.41 16.07 18.11 31.31 18.5 49.43.35 16.79-1.55 30.27-5.66 40.08-.21.48-.41 1-.62 1.53-2.71 6.83-6.74 16.96-28.02 16.96z"/><path d="m432.33 305.55c-13.2-7.63-10.65-22.46-6.18-33.56 8.15-20.26 30.85-31.83 54-27.51 17.94 3.35 28.77 11.8 34.59 16.34.82.65 1.54 1.21 2.16 1.65l-1.77 2.43c-.64-.46-1.38-1-2.23-1.71-5.62-4.39-16.08-12.55-33.3-15.77-21.73-4.06-43 6.75-50.65 25.69-5.85 14.54-4.2 24.58 4.9 29.85zm139.16-15.45-2.36-1.84c5.63-7.22 5.85-19.32 5-28.21-.93-10.22-3.53-19.63-5-22.78l2.72-1.26c1.55 3.33 4.29 13.19 5.26 23.77.89 9.42.62 22.33-5.62 30.32z"/><path d="m564.51 287.94-2.59-1.51c7.22-12.48 4.67-33.81 3.6-38.84l2.93-.62c1.39 6.47 3.64 27.88-3.94 40.97zm-10.51-4.94-2.43-1.77c7.13-9.77 8.25-21 8.93-27.72l.1-1 3 .31-.11 1c-.65 6.52-1.88 18.72-9.49 29.18zm41.83 290.65h-.39a9.11 9.11 0 0 1 -7-3.27c-2.14-2.55-2.86-5.12-2.15-7.64 1.26-4.46 6.86-8.29 17.12-11.71 9.75-3.25 29.73-11.84 41.8-21l.09.11c5.76-6.39 10.74-12.06 12.24-14.11l1.3-1.74c3.16-4.29 6.16-8.29 6.41-12.81.23-3.91-6.58-9.37-9-11l-.18-.15c-2.86-2.62-70-64.34-80.56-75.56-10.87-11.56-13.95-19.78-15.66-26.95-1.8-7.57-.55-15.66 4.08-26.22s13.27-26.24 13.36-26.4l2.62 1.45c-.08.16-8.66 15.7-13.24 26.15-4.34 9.93-5.54 17.43-3.9 24.32s4.53 14.55 14.93 25.59 77.52 72.78 80.31 75.34c1.48 1 10.57 7.4 10.21 13.57-.32 5.45-3.71 10-7 14.38l-1.22 1.75c-3.79 5.17-26.62 30-33 36.72-.26.2-18.48 19.18-31.17 19.18zm41.67-35a193.74 193.74 0 0 1 -33.13 15.19c-11.36 3.79-14.53 7.36-15.18 9.68-.44 1.53.07 3.14 1.55 4.9a6.17 6.17 0 0 0 4.8 2.2h.29c8.41 0 22.16-11.14 28.93-18.24 2.73-2.84 7.58-8.06 12.74-13.71z"/><path d="m590.26 557.45c-.13-.26-12.92-25.79 5.91-45 18.59-18.92 39-16.83 39.82-16.73l-.34 3c-.2 0-19.82-2-37.34 15.86-17.29 17.61-5.88 40.52-5.38 41.49z"/><path d="m591 519.91c-44.76-45.32-62.41-73.8-66.75-81.45-10.07-17.76-17.35-30.58-14.93-53.44s19.61-43.02 29.68-53.12l2.12 2.13c-9.77 9.77-26.52 29.43-28.84 51.3s4.4 33.74 14.56 51.65c4.3 7.56 21.77 35.76 66.27 80.82zm84.89-316.62c-12.68-20.29-33.22-22.58-44.34-22.13l-.11-3c11.75-.46 33.51 2 47 23.54zm-20.07 14.39c-7-17.71-18.69-20.08-25-19.89l-.08-3c17.09-.47 25.15 15.08 27.82 21.79zm-195.82-75.68c-2.4-3.42-12.92-9.41-24.75-3.93l-1.25-2.78c13.19-6.1 25.23.32 28.46 4.94zm-17 14.56-2.12-2.12c5.54-5.55 13.8-5.1 17-3.63l-1.25 2.73c-2.15-.99-9.09-1.54-13.63 3.02zm133.21 187.06-.72-2.91c9.66-2.42 27.65-6.91 30.24-12.89 2.19-5-2-21.77-3.83-27.79l2.88-.86c.69 2.32 6.72 22.89 3.71 29.85-2.94 6.76-17.56 10.92-32.28 14.6zm272.85-67.78c-18.9 0-39-7.13-74.6-25.68-18.62-9.69-33.82-20.89-45.18-33.28-11.84-12.88-16.56-23.88-18.43-30.88-5.4-20.09-1.35-45.38 11.41-71.22 13.74-27.7 30.48-41.13 46.48-52.51l1.74 2.45c-16.34 11.62-32.12 24.28-45.48 51.43-16.78 34-14.22 57.88-11.2 69.11 5.87 21.78 29.08 45.05 62.1 62.24 40.92 21.31 60.91 27.33 82.26 24.78 19.78-2.36 37.15-16.16 53.1-42.19 10.82-17.65 20.49-43.27 24.1-58.42l2.92.69c-3 12.75-12.06 39.06-24.46 59.3-16.46 26.86-34.55 41.12-55.3 43.6a78.31 78.31 0 0 1 -9.46.58zm67.25-158.84c-10.13-12.68-24.31-24.5-42.16-35.15-19.81-11.85-35.69-18.12-47.15-18.74l.16-3c12 .65 28.34 7.1 48.57 19.17 18.17 10.83 32.62 22.88 43 35.82z"/><path d="m633.26 320.86c-4.18-5.93-6.65-18.48-3.54-29.22 1.77-6.1 6.51-12.37 12.67-16.76 5.39-3.85 14.59-8.23 27.79-7.26 12.11.89 20.91 5 29.41 8.93 7.48 3.47 14.53 6.75 23.13 7.37 18.69 1.33 25.38-3.46 33.46-10.92 3.6-3.32 7.28-7.13 10.83-10.81 5-5.22 9.4-9.73 12.61-11.93l1.7 2.47c-3 2-7.42 6.66-12.15 11.55-3.59 3.71-7.3 7.55-11 10.93-8.39 7.74-15.86 13.11-35.7 11.7-9.15-.66-16.45-4.05-24.18-7.64-8.26-3.84-16.8-7.81-28.37-8.66-22.12-1.63-34.65 12.55-37.36 21.87-2.86 9.86-.66 21.3 3.12 26.65zm457.74 1.97c-12.5-34.51-36.26-54.1-72.65-59.88-44-7-79.31 14.4-100.44 27.18-2.74 1.66-5.33 3.23-7.65 4.56-19.71 11.31-33 14.62-64 5.8-27.36-7.77-38.12-26.46-42.71-34.44-.4-.69-.75-1.3-1.06-1.8l2.56-1.57c.32.52.68 1.15 1.1 1.88 4.41 7.66 14.74 25.6 40.93 33 30 8.53 42.75 5.36 61.69-5.51 2.3-1.31 4.87-2.87 7.6-4.52 21.47-13 57.42-34.74 102.46-27.58 22.28 3.54 40.44 12.5 54 26.63 9 9.36 15.84 20.87 21 35.19z"/><path d="m886.71 340c-10.91 0-23.79-2.7-42.6-10-32.58-12.65-46.23-37.49-54.38-52.34-.56-1-1.08-2-1.59-2.86l2.62-1.47 1.6 2.89c7.95 14.48 21.27 38.73 52.84 51 37.49 14.57 50.79 10.32 72.82 3.3 5.81-1.85 11.52-4.32 17.05-6.7 16.37-7.06 33.31-14.37 55.36-7.27 8.47 2.73 15.91 5.35 22.48 7.66 15.91 5.61 28.47 10 44.08 11.9 18.14 2.17 40.94-1.44 47.84-7.57a4.13 4.13 0 0 0 1.7-2.91c0-3.87-4-4.72-10.16-5.57a42.07 42.07 0 0 1 -5.37-1l.8-2.89a38.42 38.42 0 0 0 5 .89c5.68.79 12.75 1.76 12.75 8.54a6.94 6.94 0 0 1 -2.71 5.16c-7.56 6.71-31 10.59-50.18 8.3-15.94-1.9-28.64-6.38-44.73-12.05-6.54-2.3-14-4.92-22.4-7.63-21-6.76-36.66 0-53.25 7.16-5.6 2.42-11.38 4.91-17.33 6.81-11.6 3.74-20.84 6.65-32.24 6.65z"/><path d="m791.54 344.78c-2.59 0-5.44-.17-8.54-.46-11.44-1-23.42-4.24-30.52-8.16l1.45-2.62c6.77 3.73 18.28 6.79 29.34 7.8 12.77 1.16 18.6.08 21.3-4 3-13-2.5-22.44-6.17-28.68-.8-1.34-1.48-2.51-2-3.55-4-8.33-3.51-18.66-3.25-21.62l3 .26c-.5 5.71 0 14 3 20.05.45.94 1.1 2.05 1.86 3.34 3.7 6.28 9.89 16.8 6.45 31.14l-.06.24-.13.21c-2.88 4.58-8.2 6.05-15.73 6.05z"/><path d="m777.66 314.22c-3.57-25.18 2.85-51.79 2.92-52l2.89.79c-.06.24-6.32 26.21-2.84 50.83zm-12.31-9.72h-3c.2-15.74 4.8-26.94 7.85-34.36.4-1 .78-1.9 1.12-2.75l2.79 1.1c-.34.87-.73 1.8-1.13 2.79-2.98 7.17-7.44 18.05-7.63 33.22zm-37.66 161.72c-4 0-7.12-1.28-9-4.45-1.72-2.86-2-5.64-.73-8.27 2.95-6.29 14.27-10.13 23.06-11.5l6.41-1c13.91-2.13 31.23-4.79 40.84-7.62l.06.18c8.66-5.67 15.88-11 19.5-14.45 4.45-4.27 1.22-9.66-2.28-13.42-1.4-1.51-3.75-4.63-7.65-9.79-4.29-5.68-10.16-13.46-18.14-23.55-6.65-8.42-12.74-16.55-18.63-24.42-7.37-9.85-14.33-19.15-21.25-27.43l2.3-1.92c7 8.34 14 17.67 21.35 27.55 5.88 7.85 12 16 18.58 24.36 8 10.11 13.89 17.91 18.19 23.61 3.7 4.91 6.15 8.15 7.45 9.55 6.14 6.62 6.93 13 2.16 17.62-6.6 6.35-24.65 18.45-42 28.16l-1.91 1.07c-12.33 6.93-28 15.72-38.31 15.72zm53.17-27.91c-9.75 2.1-22.36 4-33 5.67l-6.41 1c-8.7 1.36-18.51 4.92-20.8 9.81a5.53 5.53 0 0 0 .58 5.45c5.37 9 28.21-3.86 43.32-12.34l1.88-1.05c4.86-2.74 9.75-5.64 14.43-8.54z"/><path d="m726.77 447.74-3-.1c.72-22.31 3.25-43.17 26-53.2 17.3-7.64 31-1.39 37.57 3l-1.66 2.5c-7.45-5-19.5-9.47-34.7-2.76-21.16 9.33-23.52 29.24-24.21 50.56z"/><path d="m732.32 410.38c-6.07-13.9-14.17-30.05-21.3-44.29-6.51-13-12.12-24.17-15.07-31.33-6.25-15.18-2.87-28.06 9.26-35.34 11.19-6.71 23.36-7.14 42-1.48 16.8 5.11 29.95 13.35 41.66 21.49l-1.71 2.46c-11.51-8-24.42-16.09-40.82-21.08-17.74-5.38-29.21-5-39.58 1.18-10.89 6.54-13.74 17.76-8 31.62 2.9 7.06 8.49 18.22 15 31.13 7.09 14.26 15.24 30.46 21.31 44.44z"/><path d="m677.6 324.33a49.61 49.61 0 0 1 -7.43-.52 94.46 94.46 0 0 1 -19-5.48c-1.53-.58-2.73-1-3.38-1.2a14.52 14.52 0 0 0 -7.25-.33l-.73-2.91a17.71 17.71 0 0 1 8.71.33 38.83 38.83 0 0 1 3.71 1.31 92.6 92.6 0 0 0 18.43 5.31c10.23 1.6 23.26-1.28 23.39-1.31l.65 2.93a87.77 87.77 0 0 1 -17.1 1.87zm167.48-48.76-.63-2.93c12.56-2.72 18.83-11.09 18.61-24.87a10.53 10.53 0 0 1 .89-4.91 12.32 12.32 0 0 1 3.75-3.16c13.57-7.06 22.37-15.13 31.7-23.68 7.8-7.15 20.22-21.83 15.74-39.76-4.42-17.66-25.82-21.37-34.81-22.15l-2.75-.22c-10.39-.82-23.33-1.83-40.66-11.95-15.51-9-23.36-24.43-28-33.67-1-2-1.88-3.7-2.64-5-4.15-7.06-11.87-20.19-30.55-16.37-26.34 5.39-34.93 44.06-39.06 62.65-.24 1-.45 2-.66 2.93a9.51 9.51 0 0 1 -1.32 3.35l-.18.26-.27.16a8.72 8.72 0 0 1 -3.29 1.05c-15.19 2.39-18.38 14.68-19 18.39l-3-.49c1.44-8.68 7.85-18.71 21.5-20.86a7.15 7.15 0 0 0 1.92-.51 8.86 8.86 0 0 0 .68-2c.2-.9.42-1.87.65-2.91 4.3-19.21 13.14-59.17 41.37-64.92 20.78-4.25 29.54 10.63 33.74 17.78.82 1.38 1.7 3.13 2.73 5.16 4.54 8.94 12.14 23.91 26.88 32.44 16.75 9.77 29.31 10.76 39.4 11.55l2.77.22c28.92 2.5 35.83 17.9 37.46 24.41 4.86 19.44-8.33 35.1-16.63 42.71-9.47 8.68-18.42 16.88-32.33 24.12a10.46 10.46 0 0 0 -2.61 2.1 9.33 9.33 0 0 0 -.42 3.27c.24 15.16-7.01 24.79-20.98 27.81zm-75.63-208.41-2.78-1.16c4.48-11.2 20-43.23 32-43.51h.12c9.26 0 25.28 23.42 31.49 42l-2.85 1c-6.77-20.32-22.06-40-28.62-40h-.07c-3.69.09-9.07 5.22-15.16 14.46a163.31 163.31 0 0 0 -14.13 27.21z"/><path d="m781.21 64-2.8-1c1.49-3.88 13-29.69 20-30 2.9-.13 6.3 3 10.53 9.61a123.12 123.12 0 0 1 9.33 18.13l-2.77 1.15c-5.81-13.89-13.67-25.89-16.94-25.89h-.06c-2.73.08-12.13 14.62-17.29 28zm153.41 112.38-1.91-2.3c14.66-12.19 31.66-40.55 28.42-47.43-.94-2-5-5.59-21.64-7.45a171.07 171.07 0 0 0 -26.56-.78l-.21-3a174.42 174.42 0 0 1 27.1.79c13.8 1.54 21.88 4.62 24 9.15 2.7 5.71-3.64 17.82-7.66 24.53-6.29 10.54-14.55 20.69-21.54 26.49z"/><path d="m935.32 160.34-1.54-2.58c9.36-5.57 18.43-23.08 17.1-26.56-.65-1.2-7.69-3.2-29.88-3.2v-3c30.68 0 32.12 3.76 32.66 5.18 2.27 5.82-9.24 24.74-18.34 30.16zm-126 55.37c-3.24 0-7.62-2.31-10.16-3.83s-9.83-5.9-7.54-10.15a4.63 4.63 0 0 1 3-2.09c2.56-.68 6.93-.37 11.54 2.53 8.45 5.31 7.51 9.84 6.72 11.55a3.35 3.35 0 0 1 -2.11 1.79 5.18 5.18 0 0 1 -1.45.2zm-12.11-13.38a6.87 6.87 0 0 0 -1.77.21 2 2 0 0 0 -1.18.61c-.37.7 1 2.91 6.44 6.15 4.7 2.82 8 3.71 9.24 3.34.21-.07.24-.14.27-.19.95-2-1.14-4.94-5.59-7.74a14.25 14.25 0 0 0 -7.41-2.38zm117.03 27.99-.83-2.88c48-13.86 70.35-24.43 100.08-56.12 30.14-32.12 34.63-88.9 34.18-102.34-.32-9.58-2.52-15.36-6-15.86s-8.68 3.93-12.45 7.16l-1.33 1.15c-15.61 12.74-27.83 40.4-38.6 64.8-2.77 6.26-5.38 12.16-7.91 17.5-11.88 25.06-26.47 35.34-47.64 44.62l-1.2-2.74c20.52-9 34.65-19 46.13-43.17 2.52-5.3 5.12-11.19 7.87-17.42 10.92-24.71 23.29-52.72 39.43-65.9l1.3-1.11c4.43-3.81 10-8.55 14.82-7.86 3.66.52 8.12 4.2 8.61 18.73.45 13.71-4.15 71.62-35 104.49-30.23 32.21-52.86 42.92-101.46 56.95z"/><path d="m1006.47 144.79a4 4 0 0 1 -1.59-.33c-6.17-2.65-2.74-19.56 3.84-34.9s16.49-29.47 22.66-26.83c2.9 1.25 3.87 5.51 2.86 12.67a91.93 91.93 0 0 1 -6.7 22.24c-6.05 14.08-14.88 27.15-21.07 27.15zm23.21-59.4c-3.16 0-11.25 9.16-18.2 25.35-7.37 17.16-8.13 29.8-5.42 31s11.35-8.09 18.72-25.26a88.39 88.39 0 0 0 6.49-21.48c.83-5.88.06-9-1.07-9.49a1.46 1.46 0 0 0 -.52-.12zm-72.18 113.95a10.33 10.33 0 0 1 -1.14-.06 4.67 4.67 0 0 1 -3.7-1.94c-3.7-5.78 1.8-10.6 9.42-17.27 2.7-2.36 5.76-5 8.84-8.12l3.32-3.34c10.47-10.56 17.38-17.54 22.56-13.68a4.54 4.54 0 0 1 1.64 3.49c.42 5.71-5 17.46-14.78 27.24-8.81 8.81-19.83 13.68-26.16 13.68zm36.13-42.43c-3.56 0-10 6.46-17.26 13.81l-3.37 3.35c-3.15 3.15-6.25 5.86-9 8.26-7.55 6.61-11.08 9.94-8.87 13.4a2.2 2.2 0 0 0 1.49.57c4.57.49 15.76-3.66 24.86-12.76 9.56-9.56 14.22-20.61 13.91-24.9a1.91 1.91 0 0 0 -.44-1.3 2.18 2.18 0 0 0 -1.32-.43zm-72.63 61.66-.85-2.88c14.45-4.24 18.76-9.31 20.05-12a3.81 3.81 0 0 0 .49-2.67c0-.07-.1-.24-.51-.41-2.24-.93-8.27.49-12.59 2.34l-1.18-2.76c3.51-1.5 11.13-3.92 14.92-2.35a3.74 3.74 0 0 1 2.14 2.07 6.48 6.48 0 0 1 -.57 5.09c-1.83 3.82-7.12 9.23-21.9 13.57zm11.83 46.34c-14.22-23.15-40.65-21.75-45.79-21.24l-.3-3c5.46-.55 33.49-2 48.65 22.65zm-25.41 9.01c-4.76-13.94-16.84-22.66-23.73-23.6l.41-3c7.37 1 20.78 9.84 26.16 25.61zm-178.63-135.5a41.39 41.39 0 0 0 -33.39-32.1l.56-2.95a44.37 44.37 0 0 1 35.77 34.41zm-7.44 2.48c-4.77-7.49-12.43-16.41-29.55-18.94l.44-3c18.53 2.74 26.93 12.9 31.64 20.3z"/></g></svg>