<svg xmlns="http://www.w3.org/2000/svg" xmlns:xlink="http://www.w3.org/1999/xlink" width="400" zoomAndPan="magnify" viewBox="0 0 300 299.999988" height="400" preserveAspectRatio="xMidYMid meet" version="1.0"><rect x="-30" width="360" fill="#ffffff" y="-29.999999" height="359.999986" fill-opacity="0"/><rect x="-30" width="360" fill="#ffffff" y="-29.999999" height="359.999986" fill-opacity="0"/><path fill="#002a2d" d="M 199.6875 187.648438 L 148.355469 191.289062 C 147.144531 191.371094 146.078125 192.09375 145.535156 193.183594 C 145.003906 194.273438 145.085938 195.554688 145.753906 196.5625 C 146.175781 197.203125 155.972656 211.742188 173.007812 211.742188 C 173.46875 211.742188 173.945312 211.742188 174.421875 211.714844 C 195.695312 210.71875 202.808594 193.03125 203.105469 192.28125 C 203.53125 191.191406 203.367188 189.964844 202.671875 189.027344 C 201.976562 188.085938 200.859375 187.566406 199.6875 187.648438 Z M 199.6875 187.648438 " fill-opacity="1" fill-rule="nonzero"/><path fill="#002a2d" d="M 116.703125 126.765625 C 111.441406 127.023438 107.382812 131.496094 107.640625 136.753906 L 108.675781 158.011719 C 108.933594 163.3125 113.472656 167.386719 118.757812 167.074219 C 123.976562 166.761719 127.972656 162.304688 127.726562 157.085938 L 126.691406 135.828125 C 126.429688 130.570312 121.960938 126.507812 116.703125 126.765625 Z M 116.703125 126.765625 " fill-opacity="1" fill-rule="nonzero"/><path fill="#002a2d" d="M 210.480469 131.726562 L 211.652344 152.234375 C 211.953125 157.492188 216.460938 161.515625 221.722656 161.214844 C 226.980469 160.914062 231 156.402344 230.699219 151.144531 L 229.527344 130.636719 C 229.230469 125.40625 224.757812 121.382812 219.511719 121.65625 C 214.238281 121.929688 210.179688 126.4375 210.492188 131.726562 Z M 210.480469 131.726562 " fill-opacity="1" fill-rule="nonzero"/><path fill="#002a2d" d="M 284.28125 123.128906 C 280.476562 119.421875 276.824219 117.324219 273.609375 115.484375 C 271.171875 114.09375 269.074219 112.882812 267.027344 111.070312 C 264.65625 108.945312 261.769531 103.207031 260.476562 99.800781 C 260.460938 99.757812 260.433594 99.703125 260.417969 99.664062 C 253.238281 78.773438 243.25 59.644531 231.082031 43.78125 C 209.265625 15.355469 182.804688 0.21875 154.554688 0 C 154.367188 0 154.160156 0 153.96875 0 C 123.527344 0 94.492188 17.945312 72.15625 50.582031 C 64.429688 61.863281 57.289062 77.601562 52.058594 89.089844 C 50.84375 91.773438 49.753906 94.144531 48.84375 96.09375 C 47.535156 98.847656 46.15625 101.273438 44.617188 103.492188 L 35.515625 21.773438 C 39.890625 19.910156 42.820312 15.996094 42.574219 11.636719 C 42.246094 5.804688 36.375 1.402344 29.453125 1.785156 C 22.53125 2.167969 17.1875 7.207031 17.515625 13.039062 C 17.773438 17.511719 21.277344 21.132812 26.019531 22.414062 L 29.535156 116.984375 L 29.015625 117.296875 C 24.792969 119.859375 20.417969 122.5 17.324219 125.484375 C 13.15625 129.507812 10.089844 135.554688 8.46875 142.96875 C 4.597656 160.722656 6.980469 189.09375 21.5625 196.152344 C 32.53125 201.46875 41.019531 210.8125 46.101562 223.1875 C 64.28125 271.042969 104.804688 299.753906 154.527344 300 C 154.746094 300 154.953125 300 155.167969 300 C 189.277344 300 219.800781 286.265625 241.152344 261.273438 C 256.535156 243.273438 266.523438 220.3125 270.542969 194.75 C 271.527344 190.445312 275.914062 185.917969 280.191406 181.546875 C 284.988281 176.625 289.949219 171.542969 291.910156 165.097656 C 294.132812 157.820312 292.878906 131.535156 284.28125 123.128906 Z M 242.964844 99.8125 C 247.992188 113.152344 251.710938 127.09375 253.949219 140.828125 C 256.578125 157.015625 256.902344 172.796875 255.0625 187.621094 C 253.445312 194.84375 247.269531 214.617188 226.996094 226.105469 C 199.304688 241.800781 157.226562 246.421875 126.949219 237.113281 C 92.882812 226.632812 72.28125 194.449219 71.84375 151.046875 C 71.394531 106.410156 93.714844 96 116.621094 89.144531 C 145.699219 80.449219 189.277344 78.269531 215.835938 84.199219 C 229.1875 87.183594 236.179688 92.019531 239.695312 95.5625 C 241.300781 97.183594 242.324219 98.65625 242.964844 99.8125 Z M 228.726562 250.644531 C 210.273438 272.242188 184.859375 283.632812 155.195312 283.632812 C 155.007812 283.632812 154.816406 283.632812 154.609375 283.632812 C 111.863281 283.417969 76.996094 258.589844 61.324219 217.21875 C 61.269531 217.097656 61.230469 216.960938 61.175781 216.835938 C 56.921875 206.5625 50.804688 197.871094 43.132812 191.070312 C 43.078125 191 43.023438 190.949219 42.96875 190.878906 C 39.03125 187.023438 40.269531 181.367188 40.53125 179.066406 C 42.464844 161.675781 37.601562 148.023438 36.210938 145.148438 C 34.617188 141.851562 33.023438 143.28125 33.375 145.203125 C 33.769531 147.410156 34.195312 150.570312 34.453125 153.828125 C 35.527344 167.222656 33.089844 179.148438 30.011719 181.273438 C 29.628906 181.53125 29.246094 181.597656 28.839844 181.492188 C 28.785156 181.464844 28.730469 181.4375 28.675781 181.410156 C 25.132812 179.691406 20.933594 162.425781 24.421875 146.429688 C 25.703125 140.570312 27.804688 138.050781 28.648438 137.230469 C 30.417969 135.515625 34.003906 133.363281 37.449219 131.265625 L 38.484375 130.636719 C 50.492188 123.347656 57.753906 115.363281 63.585938 103.070312 C 64.539062 101.066406 65.65625 98.601562 66.910156 95.835938 C 71.597656 85.507812 78.699219 69.902344 85.605469 59.804688 C 104.804688 31.761719 129.046875 16.351562 153.929688 16.351562 C 154.078125 16.351562 154.230469 16.351562 154.378906 16.351562 C 188.960938 16.609375 217.523438 45.511719 235.539062 82.628906 C 230.933594 80.152344 225.058594 77.890625 217.550781 76.210938 C 189.835938 70.027344 144.445312 72.261719 114.222656 81.308594 C 87.648438 89.253906 63.136719 103.207031 63.613281 151.128906 C 64.089844 198.277344 86.847656 233.351562 124.480469 244.9375 C 135.65625 248.371094 148.328125 250.03125 161.34375 250.03125 C 185.898438 250.03125 211.691406 244.144531 230.960938 233.230469 C 237.242188 229.671875 242.335938 225.449219 246.464844 221.035156 C 242.011719 232.03125 236.054688 242.019531 228.671875 250.65625 Z M 276.28125 160.316406 C 275.804688 161.882812 274.359375 163.804688 272.546875 165.835938 C 272.410156 156.785156 271.609375 147.546875 270.09375 138.214844 C 269.742188 136.046875 269.359375 133.894531 268.949219 131.753906 C 270.273438 132.613281 271.539062 133.550781 272.792969 134.765625 C 275.066406 137.777344 277.78125 154.972656 276.296875 160.328125 Z M 276.28125 160.316406 " fill-opacity="1" fill-rule="nonzero"/></svg>
