<svg enable-background="new 0 0 140 30" viewBox="0 0 140 30" xmlns="http://www.w3.org/2000/svg"><path d="m37 28.5h-6.6v-13.9h6.5c2.8 0 4.6 1.4 4.6 3.6 0 1.6-.8 2.4-1.8 3 1.6.6 2.6 1.5 2.6 3.4-.1 2.6-2.2 3.9-5.3 3.9zm1.4-9.8c0-.9-.7-1.4-2-1.4h-3v2.9h2.8c1.3 0 2.2-.4 2.2-1.5zm.8 5.5c0-.9-.7-1.5-2.3-1.5h-3.5v3.1h3.6c1.3 0 2.2-.5 2.2-1.6z"/><path d="m65.5 28.5-1.3-3.1h-5.9l-1.3 3.1h-3l6-14h2.8l6 14zm-4.2-10.4-1.8 4.5h3.7z"/><path d="m75.7 28.7c-4.1 0-7.1-3.2-7.1-7.2 0-4 3-7.2 7.3-7.2 2.6 0 4.2.9 5.5 2.1l-1.9 2.2c-1.1-1-2.2-1.6-3.6-1.6-2.3 0-4 1.9-4 4.3 0 2.4 1.6 4.4 4 4.4 1.6 0 2.6-.6 3.7-1.6l1.9 2c-1.5 1.7-3.1 2.6-5.8 2.6z"/><path d="m92.2 28.5-4.3-5.9-1.6 1.7v4.3h-3.1v-14h3.1v6.1l5.6-6.1h3.7l-5.7 5.9 5.9 8z"/><path d="m97.4 28.5v-13.9h3.1v11.1h6.9v2.8z"/><path d="m109.2 28.5v-13.9h3.1v13.9z"/><path d="m124.4 28.5-6.7-8.8v8.8h-3v-13.9h2.8l6.5 8.6v-8.6h3v13.9z"/><path d="m129.4 28.5v-13.9h10.5v2.7h-7.5v2.8h6.6v2.7h-6.6v2.9h7.6v2.7h-10.6z"/><path d="m53.6 25.7h-6.9v-11.1h-3v13.9h8.6z"/><path d="m24.2 13.6.4-1.7h-.9v-4.9h.5l.4-1.8h-.9v-4.3h-23.7v28.4h23.7v-7.8h.5l.4-1.8h-.9v-6.1z"/><g fill="#fab834"><path d="m24.6 2.2v-2.2h-23.7v8.7c2.7 2.3 5.2 4.7 7.6 7.3 4.8-5.2 10.2-9.8 16.1-13.8z"/><path d="m24.6 15.6v-3.7c-3.8 3.3-7.3 7.1-10.4 11.1.6.9 1.3 1.7 1.9 2.6 2.5-3.6 5.4-6.9 8.5-10z"/><path d="m10.4 18.3c.6.8 1.3 1.5 1.9 2.3 3.7-4.5 7.8-8.6 12.3-12.1v-3.3c-5.2 3.8-10 8.2-14.2 13.1z"/><path d="m10.4 23c-.6-.8-1.3-1.7-1.9-2.5-.7.8-1.3 1.6-1.9 2.5.7.9 1.3 1.7 1.9 2.6.6-.8 1.2-1.7 1.9-2.6z"/><path d="m12.3 25.7c-.6.9-1.3 1.8-1.9 2.8h3.7c-.6-1-1.2-1.9-1.8-2.8z"/><path d="m4.7 25.7c-.6.9-1.2 1.8-1.8 2.8h3.7c-.6-1-1.3-1.9-1.9-2.8z"/><path d="m17.9 28.4h6.7v-8.8c-2.4 2.8-4.7 5.7-6.7 8.8z"/><path d="m.9 25.6c.6-.9 1.2-1.7 1.8-2.6-.6-.8-1.2-1.6-1.8-2.3z"/><path d="m4.6 20.6c.6-.8 1.3-1.6 1.9-2.3-1.8-2.1-3.7-4-5.6-5.9v4c1.3 1.3 2.5 2.7 3.7 4.2z"/></g></svg>