<svg fill="none" height="26" viewBox="0 0 131 26" width="131" xmlns="http://www.w3.org/2000/svg" xmlns:xlink="http://www.w3.org/1999/xlink"><clipPath id="a"><path d="m0 0h131v26h-131z"/></clipPath><g clip-path="url(#a)" fill="#787b7e"><path d="m3.43724 3.35486h2.85978c2.6123 0 3.73968.81165 3.73968 2.46202 0 1.43392-1.15488 2.4079-3.4372 2.4079h-3.13476v-4.86992zm-3.43724 16.15194h6.98447c3.65723 0 7.34193-1.2987 7.34193-5.4381 0-2.462-1.7599-4.32882-4.1797-4.59938v-.05411c2.0074-.59521 3.3548-2.02913 3.3548-4.16649 0-3.46306-2.9973-4.788759-5.93958-4.788759h-7.56192zm3.43724-8.3871h3.29975c2.80478 0 4.09721.7034 4.09721 2.7055 0 2.5161-2.47484 2.8137-4.2347 2.8137h-3.16226z"/><path d="m16.5537 0h3.2723v19.5068h-3.2723z"/><path d="m25.3255 13.0406c0-2.0291 1.4574-3.86888 3.8497-3.86888 2.4198 0 3.8497 1.86678 3.8497 3.86888 0 2.0291-1.4574 3.8689-3.8497 3.8689-2.3923.027-3.8497-1.8398-3.8497-3.8689zm-3.2723 0c0 4.0583 3.1623 6.7908 7.1495 6.7908 3.9597 0 7.1494-2.7325 7.1494-6.7908 0-4.05827-3.1622-6.79084-7.1494-6.79084-3.9872.02705-7.1495 2.73257-7.1495 6.79084z"/><path d="m41.1093 13.0406c0-2.0291 1.4574-3.86888 3.8497-3.86888 2.4198 0 3.8497 1.86678 3.8497 3.86888 0 2.0291-1.4574 3.8689-3.8497 3.8689-2.4198.027-3.8497-1.8398-3.8497-3.8689zm-3.2997 0c0 4.0583 3.1622 6.7908 7.1494 6.7908 3.9597 0 7.1495-2.7325 7.1495-6.7908 0-4.05827-3.1623-6.79084-7.1495-6.79084-3.9597.02705-7.1494 2.73257-7.1494 6.79084z"/><path d="m54.1159 6.60151h3.1072v2.02914h.055c.5775-1.21748 1.8424-2.35379 4.0147-2.35379 2.0349 0 3.4098.78459 4.0972 2.4079.9625-1.65036 2.3648-2.4079 4.3172-2.4079 3.4922 0 4.7296 2.46201 4.7296 5.54634v7.7107h-3.2722v-7.332c0-1.6233-.495-3.00309-2.4473-3.00309-2.0624 0-2.8323 1.67739-2.8323 3.32779v7.0073h-3.2723v-7.7107c0-1.5963-.6599-2.65144-2.2548-2.65144-2.1723 0-2.9973 1.56924-2.9973 3.27364v7.0614h-3.2722v-12.90529z"/><path d="m88.021 13.0406c0 2.0291-1.4574 3.8689-3.8497 3.8689-2.4198 0-3.8497-1.8668-3.8497-3.8689 0-2.0292 1.4574-3.8689 3.8497-3.8689s3.8497 1.8668 3.8497 3.8689zm-10.8892 6.4662h3.1073v-1.948h.055c.9624 1.5692 2.6948 2.2726 4.5097 2.2726 4.0421 0 6.4895-2.949 6.4895-6.7908 0-3.81479-2.6123-6.79086-6.3521-6.79086-2.4748 0-3.7672 1.13631-4.4546 1.97502h-.0825v-8.22476h-3.2723z"/><path d="m96.0776 11.769c.2475-1.8668 1.4574-3.05722 3.3822-3.05722 2.0622 0 3.3002 1.19042 3.3272 3.05722zm10.0094 2.4079v-.8928c0-4.49117-2.502-7.03434-6.1597-7.03434-3.9597 0-7.1495 2.73257-7.1495 6.79084 0 4.0583 3.1623 6.7908 7.1495 6.7908 2.0897 0 4.0147-.7304 5.5547-2.5973l-2.365-1.7585c-.825 1.001-1.897 1.7585-3.5197 1.7585-1.8424 0-3.2997-1.1633-3.5197-3.0572z"/><path d="m108.232 6.60151h3.272v2.0562h.055c.715-1.48804 2.173-2.38085 3.877-2.38085.413 0 .798.08116 1.183.18938v3.11135c-.55-.13528-1.073-.24351-1.595-.24351-3.08 0-3.52 2.57022-3.52 3.24662v6.9261h-3.272z"/><path d="m123.988 9.17176c2.392 0 3.877 1.56924 3.877 3.78774 0 2.1644-1.485 3.7877-3.905 3.7877-2.227 0-3.849-1.7045-3.849-3.7336 0-2.2727 1.567-3.84184 3.877-3.84184zm3.877-2.57025v1.94798h-.055c-.962-1.5692-2.695-2.27263-4.509-2.27263-4.043 0-6.49 2.97606-6.49 6.79084 0 3.6524 2.612 6.6285 6.545 6.6285 1.649 0 3.327-.6223 4.289-1.8939h.055v.947c0 2.5702-.99 4.3288-4.152 4.3288-1.842 0-3.19-.6764-4.51-1.8668l-1.979 2.6514c1.869 1.6233 4.069 2.1374 6.517 2.1374 5.114 0 7.424-2.949 7.424-7.6296v-11.76899z"/></g></svg>