<?xml version="1.0" encoding="UTF-8"?>
<svg width="202px" height="165px" viewBox="0 0 202 165" version="1.1" xmlns="http://www.w3.org/2000/svg" xmlns:xlink="http://www.w3.org/1999/xlink">
    <!-- Generator: Sketch 55.2 (78181) - https://sketchapp.com -->
    <title>Group 13</title>
    <desc>Created with Sketch.</desc>
    <defs>
        <polygon id="path-1" points="0 0.341 82.2241 0.341 82.2241 158.5008 0 158.5008"></polygon>
        <polygon id="path-3" points="0.6079 0.188741909 172.739 0.188741909 172.739 159.999553 0.6079 159.999553"></polygon>
    </defs>
    <g id="Page-1" stroke="none" stroke-width="1" fill="none" fill-rule="evenodd">
        <g id="Group-13" transform="translate(0.000000, -1.000000)">
            <g id="Group-3" transform="translate(0.000000, 0.659000)">
                <mask id="mask-2" fill="white">
                    <use xlink:href="#path-1"></use>
                </mask>
                <g id="Clip-2"></g>
                <path d="M82.2241,19.7078 L43.9711,4.2888 C43.9711,4.2888 -8.6179,-16.9082 1.2281,38.9308 L17.9361,133.6878 C17.9361,133.6878 20.7091,149.4048 29.6081,158.5008 C19.0561,146.6608 30.7601,122.7818 30.7601,122.7818 L76.4251,29.6428 C78.3051,25.8068 80.2451,22.5218 82.2241,19.7078" id="Fill-1" fill="#052882" mask="url(#mask-2)"></path>
            </g>
            <g id="Group-6" transform="translate(29.000000, 5.659000)">
                <mask id="mask-4" fill="white">
                    <use xlink:href="#path-3"></use>
                </mask>
                <g id="Clip-5"></g>
                <path d="M161.0249,85.0406 L107.7059,18.0866 C107.7059,18.0866 77.5079,-19.8264 53.2239,14.7076 L93.4779,30.9326 C146.0659,52.1296 103.8989,90.0346 103.8989,90.0346 L40.9489,146.6206 C30.4829,156.0286 22.0099,159.6576 15.1829,159.8026 C19.8569,160.2496 25.5939,159.9576 32.6119,158.7016 L140.5329,139.3846 C140.5329,139.3846 196.3459,129.3946 161.0249,85.0406 M0.6079,153.5006 C1.4439,154.4386 2.4239,155.2996 3.5559,156.0686 C2.5069,155.2976 1.5239,154.4366 0.6079,153.5006" id="Fill-4" fill="#662EFF" mask="url(#mask-4)"></path>
            </g>
            <path d="M122.4775,36.5915 L82.2235,20.3665 C80.2455,23.1805 78.3055,26.4665 76.4245,30.3015 L30.7595,123.4405 C30.7595,123.4405 19.0555,147.3195 29.6075,159.1595 C30.5235,160.0955 31.5075,160.9565 32.5555,161.7275 C35.3755,163.6425 39.1605,164.9815 44.1825,165.4615 C51.0105,165.3165 59.4835,161.6875 69.9495,152.2795 L132.8985,95.6935 C132.8985,95.6935 175.0655,57.7885 122.4775,36.5915" id="Fill-7" fill="#00137D"></path>
            <path d="M68.7063,64.197 C62.3373,64.197 56.1263,66.076 50.8483,69.548 L50.8483,39.283 L36.1953,39.283 L36.1953,59.891 L36.1953,90.988 C36.1953,99.969 37.0953,108.125 42.4723,115.617 C47.0623,122.013 53.9023,126.677 61.5943,128.425 C63.5933,128.879 65.6363,129.138 67.6863,129.202 C68.0263,129.212 68.3663,129.217 68.7063,129.217 C86.6323,129.217 101.2163,114.633 101.2163,96.707 C101.2163,78.781 86.6323,64.197 68.7063,64.197 M86.7553,96.707 C86.7553,106.66 78.6593,114.757 68.7063,114.757 C58.7533,114.757 50.6563,106.66 50.6563,96.707 C50.6563,86.755 58.7533,78.658 68.7063,78.658 C78.6593,78.658 86.7553,86.755 86.7553,96.707" id="Fill-9" fill="#FEFEFE"></path>
            <path d="M141.9316,111.0228 C138.7536,113.4658 134.9586,114.7568 130.9566,114.7568 C121.0046,114.7568 112.9066,106.6598 112.9066,96.7078 C112.9066,86.7548 121.0046,78.6578 130.9566,78.6578 C134.5116,78.6578 137.9106,79.6918 140.8456,81.6298 L143.0366,83.2318 L143.0366,83.2318 L153.2846,72.9838 L151.6326,71.6198 C145.8306,66.8328 138.4876,64.1968 130.9566,64.1968 C113.0306,64.1968 98.4466,78.7808 98.4466,96.7078 C98.4466,114.6338 113.0306,129.2178 130.9566,129.2178 C138.4916,129.2178 145.8356,126.5808 151.6406,121.7908 C151.6996,121.7408 151.7586,121.6898 151.8166,121.6378 L153.5146,120.2098 L143.2866,109.9818 L141.9316,111.0228 Z" id="Fill-11" fill="#FEFEFE"></path>
        </g>
    </g>
</svg>