<svg width="56" height="56" fill="none" xmlns="http://www.w3.org/2000/svg"><path d="M33 10a1 1 0 100 2h9a1 1 0 100-2h-9zM9 31c0-.6.4-1 1-1h18a1 1 0 110 2H10a1 1 0 01-1-1zM32 31c0-.6.4-1 1-1h5a1 1 0 110 2h-5a1 1 0 01-1-1zM23 36a1 1 0 100 2h8a1 1 0 100-2h-8zM9 37c0-.6.4-1 1-1h8a1 1 0 110 2h-8a1 1 0 01-1-1zM9 17c0-.6.4-1 1-1h8a1 1 0 110 2h-8a1 1 0 01-1-1z" fill="#79B8FF"/><path d="M7 42a1 1 0 01-1-1V27a1 1 0 10-2 0v14a3 3 0 003 3h23a1 1 0 100-2H7zM47 32c.6 0 1-.4 1-1v-4a1 1 0 10-2 0v4c0 .6.4 1 1 1z" fill="#79B8FF"/><path d="M9 11c0-.6.4-1 1-1h18a1 1 0 110 2H10a1 1 0 01-1-1zM22 17c0-.6.4-1 1-1h19a1 1 0 110 2H23a1 1 0 01-1-1z" fill="#2188FF"/><path fill-rule="evenodd" clip-rule="evenodd" d="M4 7a3 3 0 013-3h38a3 3 0 013 3v14a3 3 0 01-3 3H7a3 3 0 01-3-3V7zm3-1a1 1 0 00-1 1v14c0 .6.4 1 1 1h38c.6 0 1-.4 1-1V7c0-.6-.4-1-1-1H7z" fill="#2188FF"/><path d="M43 35a8 8 0 00-8 8 1 1 0 11-2 0 10 10 0 0117-7.1V34a1 1 0 112 0v4c0 .5-.4 1-1 1h-4a1 1 0 010-2h1.3A8 8 0 0043 35zM52 42c.6 0 1 .4 1 1a10 10 0 01-17 7.1V52a1 1 0 11-2 0v-4c0-.6.4-1 1-1h4a1 1 0 110 2h-1.3A8 8 0 0051 43c0-.6.4-1 1-1z" fill="#2188FF"/><path d="M46.7 41.7a1 1 0 10-1.4-1.4L42 43.6l-1.3-1.3a1 1 0 00-1.4 1.4l2 2c.4.4 1 .4 1.4 0l4-4z" fill="#2188FF"/></svg>
