<svg viewBox="0 0 1742 309" xmlns="http://www.w3.org/2000/svg" xml:space="preserve" style="fill-rule:evenodd;clip-rule:evenodd;stroke-linejoin:round;stroke-miterlimit:2"><path d="M15.505 28.9c4.536 0 8.843.008 13.15-.006.829-.003 1.676.004 2.482-.159 3.042-.61 5.332-2.17 6.128-5.34 1.27-5.053-1.951-9.42-7.18-9.679-2.431-.12-4.872-.033-7.309-.035-2.364-.003-4.727-.001-7.164-.001-.048.524-.103.843-.103 1.162-.006 4.591-.004 9.182-.004 14.058Zm.106 29.93c.202.069.403.198.604.198 4.866.008 9.74.18 14.596-.05 5.024-.238 8.011-3.326 8.144-7.876.134-4.572-2.625-7.87-7.546-8.461-3.11-.373-6.287-.202-9.434-.246-2.086-.029-4.172-.005-6.364-.005v16.44ZM0 .173C11.743.188 23.491.012 35.228.281c9.048.208 16.137 6.353 17.663 14.748 1.728 9.502-3.203 17.616-10.809 19.793-.193.055-.351.234-.61.416 7.25 2.075 11.578 6.874 12.796 14.063 2.009 11.862-4.534 21.61-16.895 22.989-2.742.305-5.526.297-8.29.312-9.694.051-19.389.05-29.083.068V.173ZM294.216 41.234c.272-6.511-5.931-11.483-13.786-11.173-6.533.258-12.341 5.79-11.644 11.173h25.43ZM280.012 74c-1.836-.341-3.691-.603-5.504-1.037-14.2-3.404-21.433-15.625-20.193-29.128 1.04-11.306 6.738-19.572 17.596-23.399 15.156-5.343 32.733 1.871 35.327 22.038.342 2.664.325 5.375.488 8.303h-39.142c.908 4.969 3.413 8.454 7.782 10.307 7.1 3.011 13.75 1.51 20.021-2.526.371-.238.712-.522 1.073-.778.035-.025.105-.003.356-.003l6.125 9.017c-2.019 1.259-3.881 2.624-5.916 3.647-3.743 1.88-7.767 2.877-11.948 3.226-.476.039-.94.219-1.41.333h-4.655ZM324.974 41.225h25.455c.327-6.311-5.73-11.324-13.341-11.175-6.754.131-12.601 5.472-12.114 11.175ZM336.214 74c-2.259-.454-4.554-.775-6.77-1.387-10.582-2.919-17.882-11.867-18.842-22.804-.907-10.316 2.084-19.059 10.365-25.567 12.549-9.862 37.212-7.625 42.111 15.709a35.61 35.61 0 0 1 .663 5.094c.113 1.812.025 3.636.025 5.732h-38.885c.338 2.916 1.471 5.262 3.35 7.202 4.301 4.439 9.668 5.274 15.468 4.256 3.696-.649 7.107-2.052 10.177-4.683l6.26 9.177c-1.63 1.09-3.106 2.244-4.728 3.131-4.031 2.205-8.395 3.369-12.963 3.797-.531.049-1.05.226-1.575.343h-4.656ZM78.815 74c-1.663-.34-3.338-.635-4.988-1.029-10.226-2.437-16.266-10.091-16.275-20.612-.008-10.086-.002-20.171-.002-30.256v-1.807h13.822v1.925c0 9.532.028 19.063-.013 28.594-.019 4.323 1.304 7.984 5.4 9.866 4.44 2.038 8.987 1.964 13.094-.961 3.009-2.143 3.859-5.421 3.866-8.944.018-9.476.006-18.952.006-28.427v-2.084h13.672l.001 1.868c0 9.974.004 19.949-.002 29.923-.007 12.037-7.499 20.311-19.505 21.572-.593.062-1.173.245-1.759.372h-7.317ZM209.323 72.504V.222h50.274v7.012c0 1.551-.104 3.112.03 4.652.133 1.534-.483 1.832-1.894 1.824-9.92-.057-19.84-.03-29.761-.03h-3.137V28.9h1.872c7.482 0 14.964.043 22.445-.035 1.512-.016 1.866.465 1.832 1.893-.093 3.808-.032 7.62-.032 11.62h-26.23v30.126h-15.399ZM380.45 61.382h7.61c8.926-.003 14.546-5.033 15.546-13.914.718-6.376-2.731-12.718-8.224-14.97-4.838-1.983-9.893-.929-14.931-1.209l-.001 30.093Zm-13.181 11.094v-1.902l.001-48.527c0-2.124.002-2.142 2.194-2.122 7.585.07 15.202-.254 22.748.331 10.753.832 19.169 5.675 23.153 16.289 4.049 10.786.963 23.096-7.264 29.84-4.847 3.973-10.551 5.929-16.694 6.151-7.801.282-15.619.089-23.429.095-.159 0-.318-.067-.709-.155ZM135.26 32.102h-23.418V20.241h42.336c0 2.238-.112 4.487.033 6.72.134 2.058-.493 3.648-1.792 5.264-7.041 8.762-13.971 17.612-20.937 26.434-.374.473-.73.961-1.312 1.73h24.289v12.088h-42.746c0-3.302-.048-6.602.046-9.899.017-.566.585-1.156.986-1.666 7.147-9.102 14.308-18.193 21.462-27.29.298-.38.552-.794 1.053-1.52ZM158.243 32.116c0-3.743-.004-7.174.004-10.606.001-.378.064-.756.108-1.247h42.206c0 3.189.035 6.326-.037 9.462-.011.472-.477.97-.811 1.394-7.268 9.222-14.547 18.436-21.819 27.654-.359.455-.68.941-1.239 1.72h2.118c6.87 0 13.741.029 20.611-.025 1.276-.01 1.752.304 1.715 1.664-.093 3.422-.031 6.848-.031 10.376h-42.784c0-3.418-.028-6.778.034-10.136.008-.421.449-.861.75-1.244 6.979-8.886 13.967-17.765 20.951-26.646.534-.679 1.056-1.366 1.828-2.367l-23.604.001Z" style="fill:#ef3925;fill-rule:nonzero" transform="scale(4.16667)"/></svg>