<svg width="40" height="40" viewBox="0 0 40 40" fill="none" xmlns="http://www.w3.org/2000/svg">
<path fill-rule="evenodd" clip-rule="evenodd" d="M28.5716 4.64282C28.5716 3.26287 29.6906 2.14282 31.0716 2.14282C32.4518 2.14282 33.5716 3.26268 33.5716 4.64282C33.5716 5.30084 33.3174 5.89935 32.9019 6.34568L34.826 10.1409C35.1057 10.0494 35.4043 9.99997 35.7145 9.99997C37.2918 9.99997 38.5716 11.279 38.5716 12.8571C38.5716 14.4352 37.2918 15.7143 35.7145 15.7143C35.3862 15.7143 35.0707 15.6588 34.777 15.5568L33.4941 17.5511C33.484 17.5668 33.4734 17.582 33.4624 17.5966C34.8312 18.6406 35.7145 20.2886 35.7145 22.1428C35.7145 25.2986 33.1558 27.8571 29.9999 27.8571C29.6843 27.8571 29.3747 27.8315 29.0731 27.7823L27.2808 32.61C28.0584 33.1206 28.5716 34.0005 28.5716 35C28.5716 36.5776 27.2929 37.8571 25.7145 37.8571C24.1367 37.8571 22.8574 36.5777 22.8574 35C22.8574 33.4222 24.1367 32.1428 25.7145 32.1428C25.7861 32.1428 25.8572 32.1455 25.9275 32.1506L27.7003 27.3755C26.1844 26.7082 25.0135 25.4015 24.529 23.7971L20.9499 24.9652C20.5749 25.0876 20.1716 24.8828 20.0492 24.5078C19.9268 24.1328 20.1316 23.7296 20.5066 23.6072L24.2904 22.3722C24.2874 22.2961 24.2859 22.2196 24.2859 22.1428C24.2859 21.003 24.6197 19.941 25.1948 19.0494L20.0327 13.3448C19.768 13.0523 19.7905 12.6006 20.083 12.3359C20.3755 12.0712 20.8272 12.0938 21.0919 12.3863L26.1225 17.9455C27.1412 17.0039 28.5033 16.4285 29.9999 16.4285C30.7938 16.4285 31.5498 16.5904 32.2369 16.883C32.2523 16.8472 32.2709 16.8121 32.2926 16.7783L33.5878 14.7649C33.1337 14.2591 32.8574 13.5904 32.8574 12.8571C32.8574 12.1079 33.1458 11.4262 33.6176 10.9166L31.668 7.0712C31.4769 7.11801 31.2771 7.14282 31.0716 7.14282C29.6908 7.14282 28.5716 6.02371 28.5716 4.64282ZM31.0716 3.57139C30.4799 3.57139 30.0002 4.05146 30.0002 4.64282C30.0002 5.23473 30.4797 5.71425 31.0716 5.71425C31.663 5.71425 32.1431 5.23453 32.1431 4.64282C32.1431 4.05166 31.6628 3.57139 31.0716 3.57139ZM34.2859 12.8571C34.2859 12.0682 34.9259 11.4285 35.7145 11.4285C36.5031 11.4285 37.1431 12.0682 37.1431 12.8571C37.1431 13.646 36.5031 14.2857 35.7145 14.2857C34.9259 14.2857 34.2859 13.646 34.2859 12.8571ZM25.7145 22.1428C25.7145 19.776 27.633 17.8571 29.9999 17.8571C32.3669 17.8571 34.2859 19.7761 34.2859 22.1428C34.2859 24.5096 32.3669 26.4285 29.9999 26.4285C27.633 26.4285 25.7145 24.5097 25.7145 22.1428ZM25.7145 33.5714C24.9257 33.5714 24.2859 34.2112 24.2859 35C24.2859 35.7887 24.9257 36.4285 25.7145 36.4285C26.5037 36.4285 27.1431 35.7888 27.1431 35C27.1431 34.2111 26.5037 33.5714 25.7145 33.5714Z" fill="#9DF4D3"/>
<path fill-rule="evenodd" clip-rule="evenodd" d="M5.00021 7.85711C3.42271 7.85711 2.14307 9.13586 2.14307 10.7143C2.14307 12.2919 3.42257 13.5714 5.00021 13.5714C6.5786 13.5714 7.85735 12.2918 7.85735 10.7143C7.85735 10.6826 7.85684 10.6511 7.85582 10.6197L10.122 10.296C10.5125 10.2402 10.7839 9.87836 10.7281 9.48784C10.6723 9.09731 10.3105 8.82596 9.91998 8.88175L7.44541 9.23526C6.9447 8.40907 6.03706 7.85711 5.00021 7.85711ZM3.57164 10.7143C3.57164 9.92511 4.21142 9.28568 5.00021 9.28568C5.78949 9.28568 6.42878 9.92497 6.42878 10.7143C6.42878 11.503 5.78935 12.1428 5.00021 12.1428C4.21155 12.1428 3.57164 11.5029 3.57164 10.7143Z" fill="#9DF4D3"/>
<path d="M15.1953 12.8843C15.5748 12.992 15.7951 13.387 15.6873 13.7665L14.2646 18.7778C14.1569 19.1573 13.7619 19.3776 13.3824 19.2699C13.0029 19.1621 12.7826 18.7672 12.8904 18.3877L14.3131 13.3763C14.4208 12.9968 14.8158 12.7765 15.1953 12.8843Z" fill="#9DF4D3"/>
<path fill-rule="evenodd" clip-rule="evenodd" d="M14.3757 9.28578C14.6929 10.5184 15.8117 11.4286 17.1429 11.4286C18.474 11.4286 19.5928 10.5184 19.91 9.28578H21.4286C21.8231 9.28578 22.1429 8.96599 22.1429 8.5715C22.1429 8.17701 21.8231 7.85721 21.4286 7.85721H19.91C19.5928 6.62464 18.474 5.71436 17.1429 5.71436C15.8117 5.71436 14.6929 6.62464 14.3757 7.85721H12.8571C12.4627 7.85721 12.1429 8.17701 12.1429 8.5715C12.1429 8.96599 12.4627 9.28578 12.8571 9.28578H14.3757ZM15.7143 8.5715C15.7143 7.78226 16.3539 7.14293 17.1429 7.14293C17.9318 7.14293 18.5714 7.78226 18.5714 8.5715C18.5714 9.36074 17.9318 10.0001 17.1429 10.0001C16.3539 10.0001 15.7143 9.36074 15.7143 8.5715Z" fill="#64ACFF"/>
<path d="M30 21.5554C30.1308 21.1999 30.3309 20.7171 31.1571 20.7171C31.757 20.7171 32.1429 21.2521 32.1429 21.887C32.1429 22.6934 31.1921 23.5836 30 24.2858C28.7919 23.5769 27.8417 22.7052 27.8572 21.887C27.8687 21.2769 28.1873 20.7213 28.8366 20.7213C29.6474 20.7213 29.8637 21.1996 30 21.5554Z" fill="#64ACFF"/>
<path fill-rule="evenodd" clip-rule="evenodd" d="M9.2857 26.4286C9.2857 24.8506 10.565 23.5715 12.1428 23.5715C13.7214 23.5715 15 24.8507 15 26.4286C15 27.2032 14.6919 27.9058 14.1915 28.4204C14.9802 28.8993 15.5599 29.6593 15.7059 30.6054C15.7661 30.9953 15.4988 31.3601 15.109 31.4203C14.7191 31.4805 14.3542 31.2132 14.2941 30.8233C14.1695 30.0167 13.3242 29.2858 12.1428 29.2858C10.9181 29.2858 10.09 30.0494 9.99432 30.8041C9.94473 31.1955 9.58727 31.4726 9.19591 31.423C8.80455 31.3734 8.52749 31.0159 8.57708 30.6246C8.69736 29.6753 9.28221 28.9017 10.0903 28.4162C9.59224 27.9019 9.2857 27.2011 9.2857 26.4286ZM12.1428 27.8572C12.9322 27.8572 13.5714 27.2178 13.5714 26.4286C13.5714 25.6395 12.9322 25.0001 12.1428 25.0001C11.3539 25.0001 10.7143 25.6396 10.7143 26.4286C10.7143 27.2177 11.3539 27.8572 12.1428 27.8572Z" fill="#64ACFF"/>
<path fill-rule="evenodd" clip-rule="evenodd" d="M12.1429 20.7144C8.19785 20.7144 5 23.9123 5 27.8576C5 31.8022 8.19791 35.0001 12.1429 35.0001C16.0878 35.0001 19.2857 31.8022 19.2857 27.8576C19.2857 23.9123 16.0879 20.7144 12.1429 20.7144ZM6.42857 27.8576C6.42857 24.7012 8.98689 22.1429 12.1429 22.1429C15.2988 22.1429 17.8571 24.7012 17.8571 27.8576C17.8571 31.0132 15.2989 33.5715 12.1429 33.5715C8.98683 33.5715 6.42857 31.0132 6.42857 27.8576Z" fill="#64ACFF"/>
</svg>
