<svg width="56" height="56" xmlns="http://www.w3.org/2000/svg"><g fill="none" fill-rule="evenodd"><g stroke-linecap="round" stroke-width="2"><g stroke="#2088FF"><path d="M21 24l-3.397 3.398a.85.85 0 000 1.203L21 32M36.015 24l3.399 3.398a.85.85 0 010 1.203L36.014 32" stroke-linejoin="round"/><path d="M30.317 23.02l-3.615 10.026"/></g><path stroke="#79B8FF" stroke-linejoin="round" d="M23.018 10h8.984M8 16h16m9 0h15.725M8 41h9"/><path d="M5.027 34.998c.673 2.157 1.726 4.396 2.81 6.02m43.38-19.095C50.7 19.921 49.866 17.796 48.79 16" stroke="#79B8FF"/><path stroke="#2088FF" stroke-linejoin="round" d="M7.226 16H28M12 10h6M37 10h6.858"/><path stroke="#79B8FF" stroke-linejoin="round" d="M5.041 35h4.962M46 22h5.191"/></g><path d="M44.329 51H28.024c-3.737 0-6.727-3.077-6.727-6.991 0-3.914 2.99-7.009 6.727-7.009h16.247C48.01 37 51 40.168 51 44.009 51 47.849 48.01 51 44.33 51zM25 43.999h6M27.995 47v-6" stroke="#2088FF" stroke-width="2" stroke-linecap="round" stroke-linejoin="round"/><path d="M40 47.07c-.133-1.44-1.426-2.57-3-2.57s-2.865 1.129-3 2.57m3-6.57a2 2 0 110 4 2 2 0 010-4zm10 6.57c-.133-1.44-1.426-2.57-3-2.57s-2.865 1.129-3 2.57" stroke="#2088FF" stroke-width="2" stroke-linecap="round" stroke-linejoin="round"/><path d="M40.5 48.55a1.5 1.5 0 100-3 1.5 1.5 0 000 3z" fill="#2088FF" fill-rule="nonzero"/><path d="M44 40.5a2 2 0 110 4 2 2 0 010-4z" stroke="#2088FF" stroke-width="2" stroke-linecap="round" stroke-linejoin="round"/><path d="M7.174 16.064A23.89 23.89 0 004 28c0 .691.03 1.375.086 2.051M12.17 46.04a24.003 24.003 0 006.829 4.216m30.246-11.078A23.895 23.895 0 0052 28m-8.118-17.993A23.91 23.91 0 0028 4a24 24 0 00-6.972 1.028" stroke="#2088FF" stroke-width="2" stroke-linecap="round"/></g></svg>