<svg width="76" height="80" fill="none" xmlns="http://www.w3.org/2000/svg"><g clip-path="url(#a)"><path fill-rule="evenodd" clip-rule="evenodd" d="M24.4788 47.2085c2.0336 0 6.079-.1116 11.6706-2.4138 6.5161-2.6828 19.4799-7.5528 28.8319-12.5551 6.5405-3.4988 9.4076-8.1261 9.4076-14.3576 0-8.64862-7.0111-15.65977-15.6596-15.65977H22.4931C10.0705 2.22223-.00001526 12.2927-.00001526 24.7153c0 12.4227 9.42893526 22.4932 24.47881526 22.4932Z" fill="#39594D"/><path fill-rule="evenodd" clip-rule="evenodd" d="M30.6076 62.6978c0-6.0893 3.6659-11.5796 9.2901-13.9138l11.4116-4.736c11.5427-4.7905 24.2476 3.692 24.2476 16.1898 0 9.6822-7.8507 17.5306-17.5334 17.528l-12.3551-.0031c-8.3185-.0023-15.0608-6.7462-15.0608-15.0649Z" fill="#D18EE2"/><path d="M12.9666 50.1738c-7.16115 0-12.96661526 5.8049-12.96661526 12.9662v1.6796c0 7.1608 5.80524526 12.9662 12.96641526 12.9662 7.1611 0 12.9666-5.8054 12.9666-12.9662V63.14c0-7.1613-5.8052-12.9662-12.9664-12.9662Z" fill="#FF7759"/></g><defs><clipPath id="a"><path fill="#fff" d="M0 0h75.5556v80H0z"/></clipPath></defs></svg>
