<svg width="50" height="50" fill="none" xmlns="http://www.w3.org/2000/svg"><path d="M19 15h-.5v.5h.5V15Zm6.904 1.058-.36.346.121.127.175.023.064-.496ZM28.608 29l-.259-.428-1.54.928h1.799V29Zm7.33.713.303-.398-.303.398Zm6.658 5.057.302-.398-.302.398ZM19.5 7A3.5 3.5 0 0 1 23 3.5v-1A4.5 4.5 0 0 0 18.5 7h1Zm0 8V7h-1v8h1Zm3.89-.5H19v1h4.39v-1Zm2.875 1.212A3.934 3.934 0 0 0 23.39 14.5v1c.89 0 1.63.358 2.153.904l.722-.692Zm-.425.842A6.501 6.501 0 0 1 31.5 23h1a7.501 7.501 0 0 0-6.532-7.438l-.128.992ZM31.5 23a6.496 6.496 0 0 1-3.15 5.572l.516.856A7.496 7.496 0 0 0 32.5 23h-1Zm2.321 5.5h-5.213v1h5.213v-1Zm2.42.815a4 4 0 0 0-2.42-.815v1a3 3 0 0 1 1.815.611l.605-.796Zm6.657 5.057-6.657-5.057-.605.796 6.657 5.057.605-.796Zm.602-.299c0 .31-.355.486-.602.299l-.605.796c.906.688 2.207.042 2.207-1.095h-1Zm0-4.198v4.198h1v-4.198h-1Zm1.375-1.375c-.76 0-1.375.616-1.375 1.375h1c0-.207.168-.375.375-.375v-1Zm.125 0h-.125v1H45v-1Zm3.5-3.5a3.5 3.5 0 0 1-3.5 3.5v1a4.5 4.5 0 0 0 4.5-4.5h-1Zm0-18v18h1V7h-1ZM45 3.5A3.5 3.5 0 0 1 48.5 7h1A4.5 4.5 0 0 0 45 2.5v1Zm-22 0h22v-1H23v1Z" fill="url(#a)"/><g filter="url(#b)"><path fill-rule="evenodd" clip-rule="evenodd" d="M23 3a4 4 0 0 0-4 4v8h4.39c1.032 0 1.9.418 2.514 1.058A7.001 7.001 0 0 1 28.608 29h5.213a3.5 3.5 0 0 1 2.117.713l6.658 5.057A.875.875 0 0 0 44 34.073v-4.198c0-.483.392-.875.875-.875H45a4 4 0 0 0 4-4V7a4 4 0 0 0-4-4H23Z" fill="url(#c)"/></g><path fill-rule="evenodd" clip-rule="evenodd" d="M1 19v18a4 4 0 0 0 4 4h.125c.483 0 .875.392.875.875v4.198a.875.875 0 0 0 1.404.697l6.658-5.057A3.5 3.5 0 0 1 16.178 41H27a4 4 0 0 0 4-4V26.608a7 7 0 1 1-5.104-10.55 3.5 3.5 0 0 0-2.506-1.058H5a4 4 0 0 0-4 4Z" fill="#9867F0"/><path d="m7.404 46.77-.302-.398.302.398Zm6.658-5.057-.303-.398.303.398ZM31 26.608h.5v-1.799l-.928 1.54.428.259Zm-5.104-10.551-.063.496 1.422.182-1-1.027-.358.349ZM1.5 37V19h-1v18h1ZM5 40.5A3.5 3.5 0 0 1 1.5 37h-1A4.5 4.5 0 0 0 5 41.5v-1Zm.125 0H5v1h.125v-1ZM6.5 41.875c0-.76-.616-1.375-1.375-1.375v1c.207 0 .375.168.375.375h1Zm0 4.198v-4.198h-1v4.198h1Zm.602.299a.375.375 0 0 1-.602-.299h-1c0 1.137 1.301 1.783 2.207 1.095l-.605-.796Zm6.657-5.057-6.657 5.057.605.796 6.657-5.057-.605-.796Zm2.42-.815a4 4 0 0 0-2.42.815l.605.796a3 3 0 0 1 1.815-.611v-1ZM27 40.5H16.179v1H27v-1Zm3.5-3.5a3.5 3.5 0 0 1-3.5 3.5v1a4.5 4.5 0 0 0 4.5-4.5h-1Zm0-10.392V37h1V26.608h-1Zm.072-.259A6.496 6.496 0 0 1 25 29.5v1a7.496 7.496 0 0 0 6.428-3.634l-.856-.517ZM25 29.5a6.5 6.5 0 0 1-6.5-6.5h-1a7.5 7.5 0 0 0 7.5 7.5v-1ZM18.5 23a6.5 6.5 0 0 1 6.5-6.5v-1a7.5 7.5 0 0 0-7.5 7.5h1Zm6.5-6.5c.282 0 .56.018.833.053l.127-.992A7.568 7.568 0 0 0 25 15.5v1Zm-1.61-1a3 3 0 0 1 2.148.906l.716-.698A4 4 0 0 0 23.39 14.5v1ZM5 15.5h18.39v-1H5v1ZM1.5 19A3.5 3.5 0 0 1 5 15.5v-1A4.5 4.5 0 0 0 .5 19h1Z" fill="url(#d)"/><g filter="url(#e)"><path fill-rule="evenodd" clip-rule="evenodd" d="M1 19v18a4 4 0 0 0 4 4h.125c.483 0 .875.392.875.875v4.198a.875.875 0 0 0 1.404.697l6.658-5.057A3.5 3.5 0 0 1 16.178 41H27a4 4 0 0 0 4-4V26.608a7 7 0 1 1-5.104-10.55 3.5 3.5 0 0 0-2.506-1.058H5a4 4 0 0 0-4 4Z" fill="url(#f)"/></g><path d="M29.984 35.996V29.22L31 28.293v8.688a4 4 0 0 1-4 4H16.371a4 4 0 0 0-2.41.806l-6.633 5.006 6.57-5.796a4 4 0 0 1 2.646-1h9.44a4 4 0 0 0 4-4Z" fill="url(#g)"/><circle cx="25" cy="23" r="8" fill="#fff" stroke="url(#h)"/><circle cx="25" cy="23" r="8" fill="#fff"/><path fill-rule="evenodd" clip-rule="evenodd" d="M23.707 20.293a1 1 0 0 1 0 1.414L22.414 23l1.293 1.293a1 1 0 0 1-1.414 1.414l-2-2a1 1 0 0 1 0-1.414l2-2a1 1 0 0 1 1.414 0Zm2.586 0a1 1 0 0 1 1.414 0l2 2a1 1 0 0 1 0 1.414l-2 2a1 1 0 0 1-1.414-1.414L27.586 23l-1.293-1.293a1 1 0 0 1 0-1.414Z" fill="#2F363D"/><defs><linearGradient id="a" x1="21.5" y1="3" x2="44" y2="33.5" gradientUnits="userSpaceOnUse"><stop stop-color="#77D4E4"/><stop offset="1" stop-color="#fff"/></linearGradient><linearGradient id="c" x1="56" y1="34.95" x2="25" y2="8" gradientUnits="userSpaceOnUse"><stop stop-color="#C8B4F4"/><stop offset="1" stop-color="#52E4DB"/></linearGradient><linearGradient id="d" x1="4" y1="15" x2="21.5" y2="46" gradientUnits="userSpaceOnUse"><stop stop-color="#7845D5"/><stop offset="1" stop-color="#9F7BE4"/></linearGradient><linearGradient id="f" x1="-5.5" y1="7" x2="20" y2="42" gradientUnits="userSpaceOnUse"><stop stop-color="#E3D7FE" stop-opacity="0"/><stop offset=".943" stop-color="#804EDA"/></linearGradient><linearGradient id="h" x1="29.813" y1="15" x2="27.5" y2="29.5" gradientUnits="userSpaceOnUse"><stop stop-color="#5FE0DE"/><stop offset="1" stop-color="#8453DC"/></linearGradient><filter id="b" x="19" y="3" width="30" height="31.95" filterUnits="userSpaceOnUse" color-interpolation-filters="sRGB"><feFlood flood-opacity="0" result="BackgroundImageFix"/><feBlend in="SourceGraphic" in2="BackgroundImageFix" result="shape"/><feColorMatrix in="SourceAlpha" values="0 0 0 0 0 0 0 0 0 0 0 0 0 0 0 0 0 0 127 0" result="hardAlpha"/><feOffset dx="1" dy="1"/><feComposite in2="hardAlpha" operator="arithmetic" k2="-1" k3="1"/><feColorMatrix values="0 0 0 0 1 0 0 0 0 1 0 0 0 0 1 0 0 0 0.25 0"/><feBlend in2="shape" result="effect1_innerShadow_2600:30"/><feColorMatrix in="SourceAlpha" values="0 0 0 0 0 0 0 0 0 0 0 0 0 0 0 0 0 0 127 0" result="hardAlpha"/><feOffset dx="-1" dy="-1"/><feComposite in2="hardAlpha" operator="arithmetic" k2="-1" k3="1"/><feColorMatrix values="0 0 0 0 0.132188 0 0 0 0 0.5875 0 0 0 0 0.554798 0 0 0 0.08 0"/><feBlend in2="effect1_innerShadow_2600:30" result="effect2_innerShadow_2600:30"/></filter><filter id="e" x="1" y="15" width="30" height="31.95" filterUnits="userSpaceOnUse" color-interpolation-filters="sRGB"><feFlood flood-opacity="0" result="BackgroundImageFix"/><feBlend in="SourceGraphic" in2="BackgroundImageFix" result="shape"/><feColorMatrix in="SourceAlpha" values="0 0 0 0 0 0 0 0 0 0 0 0 0 0 0 0 0 0 127 0" result="hardAlpha"/><feOffset dx="1" dy="1"/><feComposite in2="hardAlpha" operator="arithmetic" k2="-1" k3="1"/><feColorMatrix values="0 0 0 0 1 0 0 0 0 1 0 0 0 0 1 0 0 0 0.25 0"/><feBlend in2="shape" result="effect1_innerShadow_2600:30"/></filter><radialGradient id="g" cx="0" cy="0" r="1" gradientUnits="userSpaceOnUse" gradientTransform="matrix(0 11.2344 -11.8359 0 19.164 35.559)"><stop stop-color="#5415C5"/><stop offset="1" stop-color="#7342CA" stop-opacity="0"/></radialGradient></defs></svg>