<svg fill="none" height="24" viewBox="0 0 28 24" width="28" xmlns="http://www.w3.org/2000/svg"><path clip-rule="evenodd" d="m7.5 6.75c0-.0663.02634-.12989.07322-.17678.04689-.04688.11048-.07322.17678-.07322h8.5c.0663 0 .1299.02634.1768.07322.0469.04689.0732.11048.0732.17678v5.5c0 .0663-.0263.1299-.0732.1768s-.1105.0732-.1768.0732h-3.5c-.1989.0002-.3895.0793-.53.22l-2.72 2.72v-2.19c0-.1989-.07902-.3897-.21967-.5303-.14065-.1407-.33142-.2197-.53033-.2197h-1c-.0663 0-.12989-.0263-.17678-.0732-.04688-.0469-.07322-.1105-.07322-.1768zm.25-1.75c-.46413 0-.90925.18437-1.23744.51256s-.51256.77331-.51256 1.23744v5.5c0 .966.784 1.75 1.75 1.75h.25v1.543c.0001.2881.08561.5697.24571.8092s.38762.4262.65379.5364.55904.1391.84161.0829c.28259-.0562.54209-.1948.74589-.3985l2.574-2.573h3.189c.4641 0 .9092-.1844 1.2374-.5126.3282-.3281.5126-.7733.5126-1.2374v-5.5c0-.46413-.1844-.90925-.5126-1.23744s-.7733-.51256-1.2374-.51256zm12.75 3.75c0-.0663-.0263-.12989-.0732-.17678-.0469-.04688-.1105-.07322-.1768-.07322h-.5c-.1989 0-.3897-.07902-.5303-.21967-.1407-.14065-.2197-.33142-.2197-.53033s.079-.38968.2197-.53033c.1406-.14065.3314-.21967.5303-.21967h.5c.966 0 1.75.784 1.75 1.75v5.5c0 .4641-.1844.9092-.5126 1.2374s-.7733.5126-1.2374.5126h-.25v1.543c-.0001.2881-.0856.5697-.2457.8092s-.3876.4262-.6538.5364-.559.1391-.8416.0829-.5421-.1948-.7459-.3985l-2.293-2.293c-.0737-.0687-.1328-.1515-.1738-.2435s-.063-.1913-.0648-.292.0168-.2007.0545-.2941.0938-.1782.1651-.2494c.0712-.0713.156-.1274.2494-.1651s.1934-.0563.2941-.0545.2.0238.292.0648.1748.1001.2435.1738l2.22 2.22v-2.19c0-.1989.079-.3897.2197-.5303.1406-.1407.3314-.2197.5303-.2197h1c.0663 0 .1299-.0263.1768-.0732s.0732-.1105.0732-.1768z" fill="#dadfe9" fill-rule="evenodd"/></svg>