<svg width="40" height="40" viewBox="0 0 40 40" fill="none" xmlns="http://www.w3.org/2000/svg">
<path d="M18.5031 2.24342C19.0096 2.18537 19.5408 2.14282 19.9998 2.14282C22.0547 2.14282 24.0428 2.40205 25.8927 2.8798C26.2746 2.97844 26.5043 3.36805 26.4057 3.75C26.307 4.13196 25.9174 4.36163 25.5355 4.26299C23.8034 3.81567 21.9354 3.57139 19.9998 3.57139C19.6178 3.57139 19.1467 3.60758 18.6658 3.6627C18.2738 3.70762 17.9197 3.42632 17.8748 3.0344C17.8299 2.64248 18.1112 2.28834 18.5031 2.24342Z" fill="#9DF4D3"/>
<path fill-rule="evenodd" clip-rule="evenodd" d="M36.0862 14.364C36.4567 14.2285 36.8669 14.419 37.0024 14.7895C37.6566 16.5783 37.8569 18.5143 37.8569 20C37.8569 29.856 29.8116 37.8571 19.9998 37.8571C14.2238 37.8571 9.16631 35.2469 5.87236 31.1627C5.6247 30.8556 5.67287 30.4059 5.97994 30.1583C6.287 29.9106 6.73669 29.9588 6.98434 30.2658C9.31889 33.1605 12.6167 35.2529 16.4465 36.061L16.4496 36.0544C16.7039 35.5223 16.7838 35.1406 16.7838 34.9369C16.7838 33.5663 15.7251 32.4491 14.3585 32.3088C14.1186 32.2841 13.9073 32.1401 13.7967 31.9258C13.6863 31.7119 13.6911 31.4567 13.8095 31.247L13.8099 31.2463L13.8141 31.2387C13.8182 31.2312 13.8249 31.2189 13.8337 31.2022C13.8515 31.1687 13.8778 31.1178 13.9094 31.0527C13.9729 30.9217 14.0561 30.7373 14.134 30.5253C14.3 30.0736 14.4003 29.6071 14.3465 29.2691C14.3407 29.2327 14.3228 29.1611 14.2922 29.0647C14.2637 28.9745 14.2319 28.8872 14.2094 28.8297C14.0661 28.4622 14.2478 28.048 14.6153 27.9047C14.9829 27.7614 15.397 27.9431 15.5403 28.3106C15.5958 28.4528 15.7157 28.7832 15.7572 29.0444C15.8708 29.7575 15.6609 30.5118 15.4749 31.018C15.4652 31.0443 15.4556 31.0701 15.4458 31.0956C17.041 31.6469 18.2124 33.1326 18.2124 34.9369C18.2124 35.3379 18.1018 35.8051 17.901 36.3022C18.587 36.3856 19.2873 36.4285 19.9998 36.4285C22.6112 36.4285 25.0869 35.812 27.2868 34.7161C27.2648 34.6869 27.2447 34.6556 27.2269 34.6223C26.8249 33.8699 26.5516 32.9937 26.4368 32.2521C26.4312 32.2159 26.4284 32.1794 26.4284 32.1428V31.4289C23.6377 31.5054 21.4284 29.2052 21.4284 26.4285C21.4284 23.7077 23.6573 21.4285 26.4284 21.4285H32.1426C33.7272 21.4285 35.1507 22.2272 36.0535 23.4932C36.2989 22.3672 36.4284 21.1985 36.4284 20L31.4284 20C30.6872 20 29.7368 19.7357 29.0555 19.2857H25.7141C25.6988 19.2857 25.6836 19.2852 25.6683 19.2842C24.1128 19.1844 22.8569 18.0064 22.8569 16.4285C22.8569 16.0087 22.9863 15.6023 23.155 15.268C23.324 14.9332 23.5587 14.6183 23.8266 14.3905C24.1272 14.1349 24.5779 14.1714 24.8335 14.4719C25.089 14.7725 25.0526 15.2233 24.7521 15.4788C24.653 15.563 24.5288 15.7167 24.4304 15.9116C24.3317 16.1071 24.2855 16.2917 24.2855 16.4285C24.2855 17.1601 24.857 17.7912 25.7387 17.8571H29.2855C29.4469 17.8571 29.6036 17.9118 29.7299 18.0122C30.1297 18.3299 30.8856 18.5714 31.4284 18.5714H36.3632C36.2668 17.5094 36.0537 16.3547 35.6607 15.2802C35.5252 14.9097 35.7157 14.4995 36.0862 14.364ZM35.4997 25.4411C35.2191 24.8218 35.0133 24.5053 34.9843 24.4606L34.9833 24.4591C34.3324 23.4571 33.2821 22.8571 32.1426 22.8571H26.4284C24.4552 22.8571 22.8569 24.4877 22.8569 26.4285C22.8569 28.4592 24.4628 30.0626 26.4055 30.0003C26.4131 30.0001 26.4207 30 26.4284 30H27.1426C27.5371 30 27.8569 30.3198 27.8569 30.7143V32.086C27.9537 32.669 28.1752 33.3656 28.4869 33.9491C28.5014 33.9761 28.5139 34.0036 28.5245 34.0315C31.7341 32.0718 34.2286 29.0424 35.4997 25.4411Z" fill="#9DF4D3"/>
<path d="M3.3522 15.0226C3.73764 15.1066 3.982 15.4872 3.898 15.8726C3.75189 16.543 3.64082 17.2303 3.56732 17.9316C3.52619 18.3239 3.1748 18.6086 2.78246 18.5675C2.39012 18.5264 2.1054 18.175 2.14653 17.7826C2.2255 17.0292 2.3449 16.2901 2.50219 15.5684C2.5862 15.183 2.96676 14.9386 3.3522 15.0226Z" fill="#9DF4D3"/>
<path d="M10.7761 16.7341C10.9345 16.3728 10.7701 15.9515 10.4088 15.793C10.0475 15.6346 9.62624 15.799 9.4678 16.1603C9.26788 16.6161 9.01626 17.0385 8.72092 17.4195C8.47926 17.7313 8.53612 18.18 8.84792 18.4217C9.15972 18.6633 9.60839 18.6065 9.85006 18.2947C10.2178 17.8202 10.5294 17.2965 10.7761 16.7341Z" fill="#9DF4D3"/>
<path d="M9.9886 7.43775C10.1175 7.01553 10.4181 6.42861 11.1561 6.42861C12.2992 6.42861 12.4858 7.22664 12.4858 7.86068C12.4858 8.98417 11.0421 10.0449 10.3937 10.5214C10.3514 10.5525 10.3122 10.5813 10.2773 10.6072C10.0908 10.746 9.88802 10.748 9.6937 10.6072L9.66244 10.585C9.02209 10.1299 7.48582 9.03805 7.48582 7.86068C7.48582 7.22664 7.73398 6.42861 8.77628 6.42861C9.45366 6.42861 9.82898 7.01553 9.95853 7.43775C9.97189 7.48117 9.97545 7.48085 9.9886 7.43775Z" fill="#64ACFF"/>
<path fill-rule="evenodd" clip-rule="evenodd" d="M5.00021 2.85718C3.81674 2.85718 2.85735 3.81657 2.85735 5.00003V12.1429C2.85735 13.3264 3.81674 14.2857 5.00021 14.2857H5.72506L5.71573 15.7096C5.71396 15.9804 5.86548 16.229 6.10703 16.3514C6.34858 16.4739 6.6386 16.4492 6.85598 16.2877L9.55056 14.2857H15.0002C16.1837 14.2857 17.1431 13.3264 17.1431 12.1429V5.00003C17.1431 3.81657 16.1837 2.85718 15.0002 2.85718H5.00021ZM4.28592 5.00003C4.28592 4.60555 4.60572 4.28575 5.00021 4.28575H15.0002C15.3947 4.28575 15.7145 4.60555 15.7145 5.00003V12.1429C15.7145 12.5374 15.3947 12.8572 15.0002 12.8572H9.31426C9.16082 12.8572 9.01145 12.9066 8.88828 12.9981L7.15365 14.2868L7.15831 13.5761C7.15956 13.3859 7.08485 13.203 6.95077 13.068C6.81668 12.9331 6.63429 12.8572 6.44404 12.8572H5.00021C4.60572 12.8572 4.28592 12.5374 4.28592 12.1429V5.00003Z" fill="#64ACFF"/>
<path d="M5.71449 23.5715C6.10866 23.5715 6.42878 23.8916 6.42878 24.2857C6.42878 24.6805 6.10866 25 5.71449 25C5.32033 25 5.00021 24.6805 5.00021 24.2857C5.00021 23.8916 5.32033 23.5715 5.71449 23.5715Z" fill="#64ACFF"/>
<path d="M9.28592 24.2857C9.28592 23.8916 8.9658 23.5715 8.57164 23.5715C8.17747 23.5715 7.85735 23.8916 7.85735 24.2857C7.85735 24.6805 8.17747 25 8.57164 25C8.9658 25 9.28592 24.6805 9.28592 24.2857Z" fill="#64ACFF"/>
<path fill-rule="evenodd" clip-rule="evenodd" d="M3.03486 20.9396C3.5171 20.444 4.2257 20 5.00021 20H9.28592C10.0604 20 10.769 20.444 11.2513 20.9396C11.7308 21.4325 12.1431 22.1373 12.1431 22.8572V30C12.1431 30.2706 11.9902 30.5179 11.7482 30.6389C11.5062 30.7599 11.2167 30.7338 11.0002 30.5715L8.33354 28.5715H5.70652C4.54594 28.5585 3.62553 28.174 3.00272 27.4792C2.3908 26.7966 2.14307 25.9002 2.14307 25V22.8572C2.14307 22.1373 2.55529 21.4325 3.03486 20.9396ZM4.05872 21.9358C3.72152 22.2824 3.57164 22.649 3.57164 22.8572V25C3.57164 25.6523 3.75069 26.1734 4.06645 26.5256C4.37086 26.8652 4.87794 27.1327 5.71866 27.1429H8.57164C8.72619 27.1429 8.87657 27.193 9.00021 27.2857L10.7145 28.5715V22.8572C10.7145 22.649 10.5646 22.2824 10.2274 21.9358C9.89288 21.592 9.53005 21.4286 9.28592 21.4286H5.00021C4.75608 21.4286 4.39325 21.592 4.05872 21.9358Z" fill="#64ACFF"/>
<path d="M30.0002 8.57146C30.3948 8.57146 30.7145 8.89115 30.7145 9.28575C30.7145 9.68035 30.3948 10 30.0002 10C29.6056 10 29.2859 9.68035 29.2859 9.28575C29.2859 8.89115 29.6056 8.57146 30.0002 8.57146Z" fill="#64ACFF"/>
<path d="M33.5716 9.28575C33.5716 8.89115 33.2519 8.57146 32.8573 8.57146C32.4628 8.57146 32.1431 8.89115 32.1431 9.28575C32.1431 9.68035 32.4628 10 32.8573 10C33.2519 10 33.5716 9.68035 33.5716 9.28575Z" fill="#64ACFF"/>
<path fill-rule="evenodd" clip-rule="evenodd" d="M33.5716 5.00003C34.3461 5.00003 35.0547 5.44399 35.537 5.9396C36.0166 6.43246 36.4288 7.13727 36.4288 7.85718V10C36.4288 10.9002 36.181 11.7966 35.5691 12.4792C34.9463 13.174 34.0259 13.5585 32.8653 13.5715H30.2383L27.5716 15.5715C27.3552 15.7338 27.0656 15.7599 26.8236 15.6389C26.5816 15.5179 26.4288 15.2706 26.4288 15V7.85718C26.4288 7.13727 26.841 6.43246 27.3206 5.9396C27.8028 5.44399 28.5114 5.00003 29.2859 5.00003H33.5716ZM35.0002 7.85718C35.0002 7.64901 34.8503 7.2824 34.5131 6.93585C34.1786 6.59205 33.8158 6.42861 33.5716 6.42861H29.2859C29.0418 6.42861 28.679 6.59205 28.3444 6.93585C28.0072 7.2824 27.8574 7.64901 27.8574 7.85718V13.5715L29.5716 12.2857C29.6953 12.193 29.8457 12.1429 30.0002 12.1429H32.8532C33.6939 12.1327 34.201 11.8652 34.5054 11.5256C34.8212 11.1734 35.0002 10.6523 35.0002 10V7.85718Z" fill="#64ACFF"/>
</svg>
