<svg width="56" height="56" viewBox="0 0 56 56" fill="none" xmlns="http://www.w3.org/2000/svg">
<path d="M22 7C22 6.44772 21.5523 6 21 6H8C7.44771 6 7 6.44772 7 7V18C7 18.5523 7.44771 19 8 19H8.96033C9.50768 19 9.95332 19.44 9.96025 19.9873L9.97323 21.013L12.3767 19.2014C12.5502 19.0707 12.7615 19 12.9786 19H15.0367C15.589 19 16.0367 19.4477 16.0367 20C16.0367 20.5523 15.589 21 15.0367 21H13.3133L9.60018 23.7986C9.29918 24.0254 8.89619 24.0638 8.55781 23.8978C8.21942 23.7317 8.00314 23.3895 7.99837 23.0127L7.9729 20.9999C6.32852 20.9853 5 19.6478 5 18V7C5 5.34315 6.34315 4 8 4H21C22.6569 4 24 5.34315 24 7V13.0472C24 13.5995 23.5523 14.0472 23 14.0472C22.4477 14.0472 22 13.5995 22 13.0472V7Z" fill="#79B8FF"/>
<path d="M34 7C34 6.44772 34.4477 6 35 6H48C48.5523 6 49 6.44772 49 7V18C49 18.5523 48.5523 19 48 19H47.0397C46.4923 19 46.0467 19.44 46.0398 19.9873L46.0268 21.013L43.6233 19.2014C43.4498 19.0707 43.2385 19 43.0214 19H41.0365C40.4842 19 40.0365 19.4477 40.0365 20C40.0365 20.5523 40.4842 21 41.0365 21H42.6867L46.3998 23.7986C46.7008 24.0254 47.1038 24.0638 47.4422 23.8978C47.7806 23.7317 47.9969 23.3895 48.0016 23.0127L48.0271 20.9999C49.6715 20.9853 51 19.6478 51 18V7C51 5.34315 49.6569 4 48 4H35C33.3431 4 32 5.34315 32 7V13.0559C32 13.6082 32.4477 14.0559 33 14.0559C33.5523 14.0559 34 13.6082 34 13.0559V7Z" fill="#79B8FF"/>
<path d="M11.5 11C12.328 11 13 11.6712 13 12.5005C13 13.3278 12.328 14 11.5 14C10.672 14 10 13.3278 10 12.5005C10 11.6712 10.672 11 11.5 11Z" fill="#79B8FF"/>
<path d="M19 12.5005C19 11.6712 18.328 11 17.5 11C16.672 11 16 11.6712 16 12.5005C16 13.3278 16.672 14 17.5 14C18.328 14 19 13.3278 19 12.5005Z" fill="#79B8FF"/>
<path d="M38.4995 11C39.3278 11 40 11.6712 40 12.5005C40 13.3278 39.3278 14 38.4995 14C37.6712 14 37 13.3278 37 12.5005C37 11.6712 37.6712 11 38.4995 11Z" fill="#79B8FF"/>
<path d="M46 12.5005C46 11.6712 45.3278 11 44.4995 11C43.6712 11 43 11.6712 43 12.5005C43 13.3278 43.6712 14 44.4995 14C45.3278 14 46 13.3278 46 12.5005Z" fill="#79B8FF"/>
<path d="M38.27 34.91L38.15 34.77C37.55 34.05 36.67 32.99 34.95 32.78L37.82 21.23C38.14 19.99 38.03 18.8 37.49 17.88C37.01 17.06 36.22 16.49 35.2 16.22C32.1 15.42 30.67 17.5 30.3 18.89L28.49 26.75L26.76 19.25C26.59 18.54 26.13 17.23 24.89 16.49C24.27 16.12 23.22 15.77 21.72 16.19C19.59 16.78 18.63 18.64 19.14 21.18L19.23 21.61C20.61 28.06 21.43 31.92 21.7 33.21C21.71 33.26 21.74 33.3 21.76 33.34C21.32 33.9 21.04 34.59 21.01 35.35C20.55 35.13 20.04 35 19.5 35C17.57 35 16 36.57 16 38.5V41.5C16 43.43 17.57 45 19.5 45C21.06 45 22.37 43.97 22.82 42.55C23.32 42.83 23.89 43 24.5 43C25.91 43 27.13 42.15 27.68 40.94C28.2 41.25 28.77 41.42 29.31 41.45C29.89 41.48 30.35 41.36 30.75 41.22C30.94 41.16 33.55 40.21 33.93 40.07C34.45 39.87 34.7 39.3 34.51 38.78C34.31 38.26 33.73 38.01 33.22 38.2C32.84 38.34 30.28 39.27 30.09 39.33C29.79 39.44 29.64 39.47 29.43 39.45C28.84 39.42 28.14 39 28.03 38.16C27.96 37.68 28.07 37.3 28.38 36.95C28.66 36.63 29.11 36.41 29.59 36.2C30.2 35.93 31.76 35.27 32.95 34.94C35.2 34.32 35.86 35.12 36.62 36.04L36.74 36.19C37.57 37.18 38.02 38.78 38 40.61C38 40.62 38 40.62 38 40.62C38 45.89 34 49.86 28.71 49.86C25.69 49.86 23.33 49.02 21.49 47.29C21.09 46.91 20.45 46.93 20.08 47.33C19.7 47.73 19.72 48.36 20.12 48.74C22.31 50.8 25.2 51.85 28.71 51.85C34.98 51.85 39.73 47.27 39.98 41.12C39.98 41.09 40 41.06 40 41.02C40.1 38.57 39.47 36.33 38.27 34.91ZM21 41.5C21 42.33 20.33 43 19.5 43C18.67 43 18 42.33 18 41.5V38.5C18 37.67 18.67 37 19.5 37C20.33 37 21 37.67 21 38.5V39.5V41.5ZM26 39.5C26 40.33 25.33 41 24.5 41C23.67 41 23 40.33 23 39.5V38.5V35.5C23 34.67 23.67 34 24.5 34C25.33 34 26 34.67 26 35.5V39.5ZM28.78 34.38C28.5 34.5 28.21 34.64 27.93 34.8C27.6 33.2 26.19 32 24.5 32C24.16 32 23.84 32.06 23.53 32.16C23.16 30.45 22.39 26.8 21.19 21.2L21.1 20.78C20.65 18.56 21.81 18.24 22.25 18.12C22.91 17.94 23.45 17.97 23.86 18.21C24.49 18.58 24.73 19.38 24.8 19.7L27.51 31.43C27.61 31.88 28.02 32.21 28.48 32.21C28.94 32.21 29.35 31.89 29.45 31.44L32.23 19.39C32.4 18.74 32.95 17.73 34.68 18.18C35.19 18.31 35.54 18.55 35.75 18.91C36.02 19.36 36.06 20.01 35.87 20.75L32.85 32.93C32.7 32.96 32.56 32.99 32.41 33.03C31.14 33.37 29.59 34.02 28.78 34.38Z" fill="#2188FF"/>
</svg>
