<svg width="850" height="600" viewBox="0 0 850 600" fill="none" xmlns="http://www.w3.org/2000/svg">
<g clip-path="url(#clip0_3_739)">
<path d="M469.65 -132.8H849.18L825.38 331.99H469.58L469.65 -132.8Z" fill="#24282E"/>
<path d="M469.58 331.99L474.49 -71.74L-62.93 -68.5L-37.45 330.53L469.58 331.99Z" fill="#24282E"/>
<path d="M911.88 332.11H-307.58" stroke="#24282E" stroke-width="2.53" stroke-miterlimit="10"/>
<path d="M445.03 426.59C673.168 426.59 858.11 410.284 858.11 390.17C858.11 370.056 673.168 353.75 445.03 353.75C216.892 353.75 31.95 370.056 31.95 390.17C31.95 410.284 216.892 426.59 445.03 426.59Z" fill="#1B1F25"/>
<path d="M480.19 24.27H717.09V207.96H480.19V24.27Z" fill="#0D1116"/>
<path d="M480.19 202.26V35L501.73 33.1C505.53 58.43 520.23 79.64 546.07 99.61C538.47 97.71 531.5 98.97 524.53 91.37C532.77 107.84 553.04 137.61 563.8 141.37C543.53 137.57 532.13 130.6 532.13 130.6C551.13 150.87 560 159.11 567.6 161.01C585.34 154.01 589.77 140.74 591.67 136.3C582.17 145.17 575.21 141.37 573.31 140.74C585.31 136.3 602.44 121.1 606.24 106.53C598.64 111.6 592.31 114.13 589.77 113.53C599.28 107.2 621.44 72.99 620.18 58.42C627.78 78.69 642.98 101.5 663.25 108.42C655.36 107.685 647.528 106.416 639.81 104.62C645.51 117.92 661.35 136.29 670.81 139.46C660.68 138.19 651.81 136.93 650.54 134.39C662 143.35 693 161.09 693 161.09L688 208L480.19 202.26Z" fill="#1B1F25"/>
<path d="M735.82 33.2901C730.91 82.8101 730.99 121.78 751.3 179.45C718.54 175.31 631.48 120.07 621.04 33.0601L661.14 19.0601L735 29.5701" fill="#30363D"/>
<path d="M650.83 38.1C656.02 75.51 730.27 179.71 719.12 162.7C688.94 116.63 660.6 47 660.6 47L650.83 38.1ZM631.84 47.44C636.79 70.44 662.71 117.21 694.34 148.98C675.18 142.25 627.89 81.09 622.67 44.52L631.84 47.44ZM707 49.76C707.76 71.76 724.19 123.18 727.25 130.92C711.82 115.92 700.25 49.48 700.25 49.48L707 49.76ZM677.58 45.14C678.31 68 701.25 105.31 701.25 105.31C693.49 88.92 682.68 44.51 682.68 44.51L677.58 45.14Z" fill="#24282E"/>
<path d="M736 33.2L735.08 29.52L662.21 22.16L623.41 37.8C624.233 42.9204 625.325 47.9941 626.68 53C637.12 53 649.3 46.35 649.37 37.52C651.75 54.21 687.09 54.6 687.98 40.33C693.52 58.78 719.35 52.33 723.98 40.33C724.98 45.02 727.28 48.62 734.21 52.15C736.09 45.17 735.61 39.26 736 33.2Z" fill="#30363D"/>
<path d="M530.23 143.35C539.73 135.75 555.49 117.71 554.94 118.01C549.24 121.18 547.33 118.01 547.33 118.01C547.33 118.01 564.44 102.18 568.24 92.6799C572.67 105.98 576.47 115.48 581.54 118.68C577.534 118.598 573.613 117.508 570.14 115.51C575.84 124.38 582.81 133.88 582.81 133.88C578.41 132.973 574.293 131.018 570.81 128.18C573.35 137.68 593.61 149.72 593.61 149.72L584.11 173.79L533.44 165.55L530.23 143.35Z" fill="#1B1F25"/>
<path d="M480.19 8.64001H744.33V23H480.19V8.64001ZM476.81 194.45H684.57V206.27H476.81V194.45Z" fill="#363C45"/>
<path d="M476.74 8.84998V43C481.36 44.85 495.19 48.54 497.04 36.54C497.96 56.84 535.78 48.54 536.7 36.54C539.47 54.99 580.98 48.54 577.29 34.7C574.52 50.38 614.19 55.92 612.34 39.31C616.03 57.76 652.01 47.61 649.24 31.93C649.24 50.38 687.06 51.3 687.98 36.54C693.52 54.99 719.35 48.54 723.98 36.54C725.2 42.02 735.34 47.54 744.35 51.13V11.18L476.74 8.84998Z" fill="#363C45"/>
<path d="M473.86 15.4L474.49 148L254.7 153.06L256.23 17.09L473.86 15.4Z" fill="#0D1116"/>
<path d="M475.13 37.57L439.65 42L449.15 90.14L431.42 88.88V101.55L423.18 100.91C423.82 85.08 409.25 74.91 409.25 74.91C410.52 67.31 411.78 57.81 407.98 57.81C404.18 57.81 406.08 74.91 406.08 74.91C397.21 76.18 390.88 109.12 391.51 113.55L375.68 112.28L377 129.42L364.33 128.78L368.13 63.54L325.64 61L328.81 130L319.3 129.37L321.2 38.79L263.56 36.25L265.46 57.79L252.16 57.16L245.16 203.48L473.83 206.01L475.13 37.57Z" fill="#1B1F25"/>
<path d="M242.03 8.64001H470.06V23H242.03V8.64001Z" fill="#30363D"/>
<path d="M242.03 8.64001H255.54V206.27H242.03V8.64001Z" fill="#30363D"/>
<path d="M242.03 194.45H470.06V206.27H242.03V194.45Z" fill="#30363D"/>
<path d="M452.64 56.57L452.96 60.06L456.44 59.42L455.49 56.26L452.64 56.57ZM439.97 111.68L439.65 116.11L442.19 115.48L442.82 112L439.97 111.68ZM453.91 134.17V138.6L457.39 137.97V134.48L453.91 134.17ZM406.72 137.33L406.4 142.4L409.88 142.08L409.25 137.65L406.72 137.33ZM280.98 53.72L280.66 58.16L305.05 58.79L304.42 54.36L280.98 53.72ZM263.88 99.01H267.05L266.73 102.5H263.25L263.88 99.01ZM351.29 123.71L352.88 124.03L353.83 128.15L351.61 126.57L351.29 123.71ZM337.36 85.39L339.89 85.71L339.57 88.24H337.36V85.39ZM414.32 124.67L417.48 124.03L416.53 127.83L414 127.52L414.32 124.67ZM433.64 173.12V168.37L437.12 168.69L436.17 172.49L433.64 173.12ZM274.97 120.23H279.08L277.82 124.35L274.01 124.03L274.97 120.23Z" fill="#0D1116"/>
<path d="M283.58 250.76C285.78 251.18 286.26 252.55 288.1 253.84C290.34 255.42 293.32 255.29 296.1 255.16C301.804 254.888 307.52 254.992 313.21 255.47C314.394 255.503 315.558 255.778 316.63 256.28C317.167 256.535 317.617 256.944 317.921 257.455C318.226 257.966 318.372 258.556 318.34 259.15C318.03 261.7 311.41 263.32 309.41 264.44C306.92 265.83 307.41 269.05 307.41 271.34V395.8C307.04 400.52 304.91 403.39 299.18 403.05C287.53 402.36 276.38 401.27 264.83 403.12C255.77 404.58 242.57 406.72 235.83 413.65C221.47 428.41 269.44 428.93 274.49 428.72C297.61 427.72 320.18 422.1 342.71 417.26C375.18 410.26 408.22 394.46 440.93 400.46C501.51 411.59 494.03 393.61 526.05 392.06C555.89 390.62 586.77 389.27 616.41 393.06C619.31 393.42 622.94 394.56 623.16 397.47C623.38 400.38 619.76 402.12 616.8 402.75C607 404.85 596.88 405.75 587.53 409.37C584.455 410.373 581.66 412.086 579.37 414.37C578.264 415.544 577.47 416.977 577.062 418.537C576.653 420.097 576.642 421.735 577.03 423.3C581.03 437.02 607.18 443.37 616.21 444.81C642.71 449.04 665.74 449.08 692.63 450C712.85 450.7 733.08 450.57 753.29 449.89C771.35 449.27 794.07 448.81 808.01 442.83C814.85 439.89 820.39 431.58 814.28 426.75C807.42 421.32 797.96 420.08 789.28 418.67C782.95 417.67 776.74 416.67 770.99 413.8C758.86 407.8 762.6 388.21 762.6 376.53V272.8C762.704 272.124 762.668 271.433 762.494 270.771C762.32 270.109 762.012 269.49 761.589 268.952C761.167 268.414 760.638 267.969 760.036 267.643C759.434 267.318 758.772 267.119 758.09 267.06C752.76 266.24 761.19 252.06 750.53 251.23" stroke="#1D6AB6" stroke-width="1.21" stroke-miterlimit="10" stroke-linecap="round"/>
<path d="M293.19 248.84C304.938 251.754 317.113 252.547 329.14 251.18C335.37 250.48 341.91 249.18 347.75 251.51C349.6 252.23 351.58 254.07 350.75 255.86C350.16 257.12 348.55 257.45 347.17 257.61L337.3 258.79C333.56 259.24 329.63 259.79 326.61 262.01C321.32 265.95 324.01 286.4 324.01 293.01V402.47C318.54 409.53 309.17 409.29 300.29 410.35C287.815 411.84 275.621 415.131 264.09 420.12C256.82 423.27 248.76 428.92 249.49 436.81C250.18 444.29 258.32 448.48 265.49 450.67C283.62 456.23 302.66 458.06 321.55 459.67C342.14 461.41 431.86 463.44 452.21 455.15C486 441.4 408.14 441 406.4 429.27C404.34 415.44 497.79 405.59 542.2 405.51C586.61 405.43 638.94 419.1 683.2 422.51C691.5 423.15 700.1 423.45 708.06 420.57C716.87 417.39 716.12 410.11 707.18 407.2C692.4 402.38 695.24 388.1 695.24 375.53V267.61C695.24 264.12 702.33 263.61 704.69 263.46C716.1 262.72 728.2 265.8 738.61 261.08C740.794 260.188 742.661 258.663 743.97 256.7C744.712 255.452 745.09 254.021 745.06 252.57C744.95 250.92 743.57 250.15 742.51 251.07" stroke="#F86324" stroke-width="1.21" stroke-miterlimit="10" stroke-linecap="round"/>
<path d="M470.69 -132.8H479.56V496.8H470.69V-132.8ZM145.75 106.4V118.65L165.38 119.7L164.96 107.25L145.75 106.4Z" fill="#0D1116"/>
<path d="M105.86 94.7699C107.29 80.4899 123.41 38.8899 135.71 45.1099C148.01 51.3299 115.49 92.1099 111.22 94.2499C106.95 96.3899 105.86 94.7699 105.86 94.7699Z" fill="#363C45"/>
<path d="M107.24 93.48C101.97 79.48 83.65 47.87 75.41 57.27C67.17 66.67 94.14 88.91 101.5 93.86C108.86 98.81 107.24 93.48 107.24 93.48Z" fill="#363C45"/>
<path d="M106.61 95.07C106.61 93.07 111.53 44.6399 111.53 44.6399C115.22 45.8699 114.81 38.49 111.53 38.08C108.25 37.67 106.2 43 108.25 43.82L106.61 68.82C98.41 67.59 97.61 56.93 100.05 53.24C102.51 54.06 103.33 48.73 100.05 47.91C96.77 47.09 94.72 51.7999 97.18 52.6199C95.54 59.6199 96.03 69.3299 105.46 70.9699L104.97 95.4699L106.61 95.07Z" fill="#363C45"/>
<path d="M235.72 327.05H68.85L63.9 118.94L235.72 121.37V327.05Z" fill="#363C45"/>
<path d="M229.23 315.61L75.73 315.49L71.44 127.36L229.06 129.5L229.23 315.61Z" fill="#24282E"/>
<path d="M232.25 189.27L69.86 192.49L69.51 185.86L232.05 182.71L232.25 189.27ZM234.21 259.2L71.33 258.3L71.19 251.79L234.21 252.76V259.2Z" fill="#363C45"/>
<path d="M117.3 183.95L102.15 183.8L100.04 138.15L116.53 135.2L117.3 183.95ZM213.82 184.89L202.08 184.78L201.85 134.78L213.67 134.94L213.82 184.89ZM94.33 251.98L81.02 251.43L78.24 198.36L93.26 198.49L94.33 251.98Z" fill="#363C45"/>
<path d="M111.63 195.56L127.94 197.33L130.57 252.13L112.65 252.04L111.63 195.56Z" fill="#24282E"/>
<path d="M99.51 183.79L83.96 183.64L81.48 131.81L98.56 133.44L99.51 183.79ZM118.99 137.79L130.43 137.94L129.13 184.23L119.76 183.95L118.99 137.79ZM96.66 204.94L109.21 202.16L110.12 252.04L97.29 251.98L96.66 204.94ZM190.03 138.74L201.87 138.89L202.08 184.78L191.76 184.67L190.03 138.74Z" fill="#363C45"/>
<path d="M166.44 184.43L158.37 179.15L180.03 137.63L190.06 143.51L166.44 184.43ZM76 95.46C87 89.55 122.92 87.86 131.79 92.93C132.64 108.99 122.92 120.83 106.01 120.83C90.32 120.83 77.64 114.48 76 95.46Z" fill="#24282E"/>
<path d="M76 95.46C87 89.55 122.92 87.86 131.79 92.93C132.64 108.99 122.92 120.83 106.01 120.83C90.32 120.83 77.64 114.48 76 95.46Z" fill="#1B1F25"/>
<path d="M119.9 105.11C115.9 107.98 111.11 110.3 106.2 109.78C102.74 109.41 99.54 107.66 96.08 107.31C92.62 106.96 86.61 109.48 83.13 113.01C88.65 118.64 96.8 120.83 105.96 120.83C121.62 120.83 131.11 110.67 131.75 96.41C127.46 98.79 123.89 102.25 119.9 105.11Z" fill="#1B1F25"/>
<path d="M110.1 93C110.55 92.41 129.41 55.53 129.41 55.53M119.63 76.21L123.22 75.18M121.62 69.65L119.65 62.73M125.43 63.9L132.81 61.34" stroke="#24282E" stroke-width="1.27" stroke-miterlimit="10"/>
<path d="M133.463 53.6873C133.564 52.277 132.547 51.0554 131.192 50.9588C129.837 50.8621 128.656 51.927 128.556 53.3372C128.455 54.7475 129.472 55.9691 130.827 56.0658C132.183 56.1624 133.363 55.0976 133.463 53.6873Z" stroke="#24282E" stroke-width="1.27" stroke-miterlimit="10"/>
<path d="M102.12 92.64C102.12 92.02 82.35 65.09 82.35 65.09" stroke="#24282E" stroke-width="1.27" stroke-miterlimit="10"/>
<path d="M81.47 65.88C82.6022 65.88 83.52 64.9622 83.52 63.83C83.52 62.6978 82.6022 61.78 81.47 61.78C80.3378 61.78 79.42 62.6978 79.42 63.83C79.42 64.9622 80.3378 65.88 81.47 65.88Z" stroke="#24282E" stroke-width="1.27" stroke-miterlimit="10"/>
<path d="M88.06 72.49L87.87 66.95M91.93 78.6499L86.81 77.2M97.03 85.03L96.85 78.2599" stroke="#24282E" stroke-width="1.27" stroke-miterlimit="10"/>
<path d="M143.51 104.29L166.26 105.73V120.49L141.87 119.46L142.07 117.21L163.81 118.64L164.01 107.37L143.31 106.75L143.51 104.29Z" fill="#24282E"/>
<path d="M166.26 105.73L205.21 106.96L204.39 120.9L166.26 120.49V105.73ZM158.48 111.06L150.48 110.24C146.59 111.24 147.82 117 147.82 117L151.3 114.13L154.79 117.62C154.79 117.62 154.79 111.26 158.48 111.06Z" fill="#30363D"/>
<path d="M512.21 365.36H502.2L501.44 196.54L566.22 200.23L566.63 286.74L578.38 287.2L615.83 285.51L616.46 367.54H607.1V296.56L567.04 294.94L566.43 374.85H554.81L556.38 294.94L509.64 295.59L512.21 365.36Z" fill="#444D56"/>
<path d="M518.36 365.36H508.35L507.59 196.54L572.37 200.23L572.78 286.74L584.52 287.2L621.98 285.51L622.61 367.54H613.25V296.56L573.19 294.94L572.58 374.85H560.96L562.53 294.94L515.79 295.59L518.36 365.36Z" fill="#575D66"/>
<path d="M254.27 115.06C244.53 109.57 234.87 89.56 239.19 86.21C247.989 79.5818 258.647 75.8845 269.66 75.64C280.39 62.48 300.37 53.56 316.05 52.19M364 176.59C380.1 163.71 391.65 139.02 393 119.76C393.694 107.882 391.014 96.05 385.27 85.63C377.72 71.69 364.81 58.16 349.55 53.72C338.92 50.63 326.96 50.8 316.06 52.19" stroke="#218BFF" stroke-width="2.43" stroke-miterlimit="10"/>
<path d="M572.78 285.87L508.19 284.98L507.59 195.67L572.37 199.36L572.78 285.87Z" fill="#1B1F25"/>
<path d="M563 77.82C579.54 74.36 613.93 73.3 632.27 114.35C635.85 122.35 635.41 131.72 634.65 137.48C632.77 151.89 625.39 162.84 625.88 171.11C626.23 176.99 632.75 182.11 630.02 187.93C626.15 196.12 606.17 208.12 581.19 206.83C558.31 205.66 537.82 199.43 523.44 181.7C503.81 157.48 503.44 119.19 528.06 98.1" stroke="#218BFF" stroke-width="2.43" stroke-miterlimit="10"/>
<path d="M527.49 99.27C526.72 94.54 531.29 75.27 549.26 69.14C561.9 69.45 567.71 87.06 568.77 90.57M633.92 119.3C637.92 111.79 647.52 94.75 644.23 89.17C643.01 87.08 619.96 88.33 615.74 89.56M634 119.83C633.21 117.75 630.93 115.9 629.21 116.02C623.02 116.42 624.12 128.72 596.21 121.02C583.54 117.52 572.44 110.34 559.82 112.47C550.95 113.97 542.31 123.66 540.1 129.85C538.1 135.58 538.7 139.79 541.62 147.55C544.54 155.31 549.86 162.93 549.24 168.46C548.78 172.52 542.67 178.76 542.98 183.56C543.64 193.98 557.98 203.75 572.4 206.07M626.74 174.34C630.17 171.59 642.86 167.92 648.52 167.47M628.06 178.14H648.82M534.24 172.93C524.691 171.84 515.049 171.84 505.5 172.93" stroke="#218BFF" stroke-width="2.43" stroke-miterlimit="10"/>
<path d="M512.03 183.36C513.623 182.853 515.19 182.373 516.73 181.92C522.4 180.139 528.298 179.193 534.24 179.11" stroke="#0366D6" stroke-width="2.53" stroke-miterlimit="10"/>
<path d="M600.09 177.77C600.075 177.547 600.108 177.324 600.188 177.115C600.267 176.906 600.391 176.717 600.55 176.56C601.67 175.19 606.2 173.93 607.87 174.81C609.32 175.58 611.2 177.73 609.07 178.71C607.59 179.39 600.44 179.76 600.09 177.77Z" stroke="#218BFF" stroke-width="2.43" stroke-miterlimit="10"/>
<path d="M528.11 234.65C525.067 235.222 521.977 235.51 518.88 235.51H517.88" stroke="#0366D6" stroke-width="2.53" stroke-miterlimit="10"/>
<path d="M548.23 225.94C548.23 225.94 562.87 212.08 564.81 211.94C566.75 211.8 557.71 225.94 557.71 225.94M576.26 217.14C576.48 219.65 573.92 228.35 574.38 231.21" stroke="#218BFF" stroke-width="2.43" stroke-miterlimit="10"/>
<path d="M583.54 213.13C585.2 219.63 582.45 236.62 582.47 236.45" stroke="#0366D6" stroke-width="2.53" stroke-miterlimit="10"/>
<path d="M583.23 207.14L644.59 248.49" stroke="#218BFF" stroke-width="2.43" stroke-miterlimit="10"/>
<path d="M653.68 245.45C653.68 245.45 664.73 227.87 682.68 228.21C691.68 228.37 696.97 231.96 699.43 234.13" stroke="#0366D6" stroke-width="2.53" stroke-miterlimit="10"/>
<path d="M689.92 238.41C689.92 238.41 694.63 231.95 705.92 234.05C710.27 234.86 713.69 236.59 714.67 239.05C715.419 241.324 715.625 243.742 715.27 246.11" stroke="#0366D6" stroke-width="2.53" stroke-miterlimit="10"/>
<path d="M520.37 246.42C520.37 246.42 521.55 235.18 540.87 227.69C550.32 224.03 568.28 224.53 580.5 236.17" stroke="#218BFF" stroke-width="2.43" stroke-miterlimit="10"/>
<path d="M569.42 239.46C569.42 239.46 584.87 234.51 589.09 237.53C593.31 240.55 582.45 244.53 582.45 244.53" stroke="#0366D6" stroke-width="2.53" stroke-miterlimit="10"/>
<path d="M560.22 203.47C560.22 203.47 497.22 231.34 488.69 250.29C487.678 252.42 487.09 254.726 486.96 257.08C487.29 267.5 495.43 279.83 507.88 281.14C520.33 282.45 530.16 268 530.16 268M583.68 222.52L616.13 252.42M588.6 225.48C588.6 225.48 590.38 222.2 594.13 224.17C595.538 224.906 596.846 225.82 598.02 226.89C599.766 228.347 601.167 230.175 602.12 232.24C602.584 233.278 602.77 234.42 602.662 235.552C602.553 236.684 602.153 237.769 601.5 238.7" stroke="#218BFF" stroke-width="2.43" stroke-miterlimit="10"/>
<path d="M607.89 243.59C610.949 243.073 614.094 243.586 616.83 245.05C619.54 246.521 622.003 248.407 624.13 250.64" stroke="#0366D6" stroke-width="2.53" stroke-miterlimit="10"/>
<path d="M529 272.77C529 272.77 521.23 285.53 530.38 285.53C539.53 285.53 584.2 285.25 584.2 285.25" stroke="#218BFF" stroke-width="2.43" stroke-miterlimit="10"/>
<path d="M585.6 280C585.6 280 576.71 304.21 572.01 311.34C569.36 315.34 562.58 321.34 569.79 330.48C577 339.62 600.85 347.27 607.79 347.68C614.12 347.87 627.64 343.75 631.36 338.49C635.08 333.23 637.06 329.72 634.21 329.72C631.36 329.72 607.14 347.31 607.14 347.31M612.87 311.1C626.38 287.54 625.81 276.92 623.49 273.1M638.16 272.48C642.22 274.99 645.88 283.1 633.53 306.66" stroke="#218BFF" stroke-width="2.43" stroke-miterlimit="10"/>
<path d="M583.14 315.73C583.14 315.73 603.22 305.11 616.73 313.99C630.24 322.87 632.18 329.25 632.18 329.25M622.09 307.48C627.178 306.56 632.417 306.939 637.32 308.58C644.38 311.1 651.46 317.21 652.01 331.9" stroke="#218BFF" stroke-width="2.43" stroke-miterlimit="10"/>
<path d="M633.29 337.4L654.76 336.12C654.76 336.12 654.95 330.43 645.22 330.43C635.49 330.43 634.57 335.57 634.57 335.57" stroke="#218BFF" stroke-width="2.43" stroke-miterlimit="10"/>
<path d="M516.73 181.92C515.19 182.373 513.623 182.853 512.03 183.36" stroke="#0366D6" stroke-width="2.43" stroke-miterlimit="10" stroke-linecap="round"/>
<path d="M641.28 178.14H648.82M518.27 172.12C514.09 172.18 509.89 172.45 505.5 172.93" stroke="#0366D6" stroke-width="2.53" stroke-miterlimit="10" stroke-linecap="round"/>
<path d="M637.56 164.11C639.677 163.585 641.829 163.214 644 163" stroke="#0366D6" stroke-width="2.43" stroke-miterlimit="10" stroke-linecap="round"/>
<path d="M254.79 127.52C254.19 123.15 255.12 117.66 256.79 116.8C260.53 114.85 266.63 119.97 269.95 121.59C274.21 123.68 277.95 124.59 282.71 123.2C288.03 121.64 308.2 105.2 318.47 104.47C336.42 103.22 345.05 118.63 346.1 127.58C346.9 134.32 346.76 146.72 344.79 153.71C344.66 154.17 355.45 158.63 357.48 173.28" stroke="#218BFF" stroke-width="2.43" stroke-miterlimit="10"/>
<path d="M292 173.76C291.72 175.25 294.45 176.19 295.3 176.4C297.03 176.848 298.864 176.653 300.46 175.85C301.21 175.46 302.4 174.63 301.9 173.96C299.21 170.29 292.55 170.91 292 173.76Z" stroke="#218BFF" stroke-width="2.53" stroke-miterlimit="10"/>
<path d="M269.66 75.64C264.06 85.52 259.22 92.24 256.24 103.75C254.38 110.9 254.79 113.39 254.56 118.07C254.332 123.092 254.667 128.123 255.56 133.07C258.07 145.3 268.21 158 274.44 168.5C276.44 171.79 276.44 172.74 276.2 176.45C275.85 182.28 281.2 186.96 285.77 189.37C295.41 194.42 327.2 194.59 352.52 184.88M340.66 188.65C340.66 188.65 339.84 198.7 339.84 202.89M348.77 196.09L349.33 204.48M352.72 232.43C352.72 232.43 365.16 300.49 367.65 313.8C370.11 326.94 373.43 358.8 386.06 366.8C390.72 369.8 396.22 370.92 401.59 371.8C418.08 374.42 428.35 373.25 444.8 372.2C454.32 371.59 455.14 357.56 444.53 361.69C433.92 365.82 424.13 369.94 413.42 372.41" stroke="#218BFF" stroke-width="2.43" stroke-miterlimit="10"/>
<path d="M357.53 174.33C357.53 174.33 351.23 176.33 352.93 185.79C354.245 192.45 356.48 198.895 359.57 204.94" stroke="#218BFF" stroke-width="2.53" stroke-miterlimit="10"/>
<path d="M261.78 88.1499C259.86 87.6699 254.41 85.4699 242.03 89.0899M313 86.25C313 86.25 309.81 69.93 316.58 63.36C323.35 56.79 341.86 52.61 360.96 67.94" stroke="#218BFF" stroke-width="2.43" stroke-miterlimit="10"/>
<path d="M318.93 70.92C318.93 70.92 319.93 65.55 324.5 65.35C329.07 65.15 344.4 71.12 351.77 93.81M363.1 158.82C363.1 158.82 378.82 151.33 402.51 153.5M364.49 165.06C376.098 165.656 387.578 167.781 398.63 171.38M254.79 127.52C254.79 127.52 217.79 71.93 189.55 90.13C161.31 108.33 183.39 152.39 195.83 156.94C197.35 160.28 197.95 165.43 201.59 165.13C203.1 165 209.88 156.43 211.59 146.32C214.06 132.03 211.46 114.68 212.88 113.79C215.31 112.28 217.73 114.7 217.73 114.7" stroke="#218BFF" stroke-width="2.43" stroke-miterlimit="10"/>
<path d="M212.19 133.15C212.19 133.15 213.68 134.01 219.19 138.06C224.7 142.11 257.36 178.84 276.45 178.84M338.84 230.8L334.25 336.56M344.42 335C344.42 335 317 340 311.52 359.84M370.42 232.71L412.78 340.22M402.31 339.23C402.31 339.23 429.64 336.7 441.96 360.63" stroke="#218BFF" stroke-width="2.43" stroke-miterlimit="10"/>
<path d="M368.84 317.36C371.07 332.11 379.05 359.1 361.32 364.82C343.96 370.42 323.87 373.26 305.43 369.66C296.97 368.01 296.43 359.76 308.22 360.59C320.01 361.42 333.9 370.49 343.83 368.84M212.19 122.32C212.19 122.32 214.81 119.71 221.05 124.94C225.028 128.335 228.665 132.109 231.91 136.21C231.91 136.21 237.35 142.44 234.13 145.06C230.91 147.68 219.13 138.06 219.13 138.06C219.13 138.06 213.43 133.85 212.83 130.06M241.72 150.4C243.95 147.19 249.93 150.73 254.52 153.69C259.11 156.65 270.91 166.83 267.62 170.77C264.33 174.71 249.76 163.37 249.76 163.37C249.76 163.37 238.76 154.67 241.72 150.4Z" stroke="#218BFF" stroke-width="2.43" stroke-miterlimit="10"/>
<path d="M394 153.11C396.71 153.11 399.56 153.23 402.53 153.5M392.36 169.45C394.44 170.02 396.54 170.66 398.63 171.38" stroke="#218BFF" stroke-width="2.43" stroke-miterlimit="10" stroke-linecap="round"/>
<path d="M386.31 230.12C393.21 247.05 412.51 248.2 410.97 227.19C409.45 206.45 414.71 187.07 443.57 187.07C473.66 187.07 471.57 210.78 471.57 210.78" stroke="#218BFF" stroke-width="2.43" stroke-miterlimit="10"/>
<path d="M463.53 218C449.91 231 451.66 271.19 402.86 269.38C381.3 268.58 379.63 255.21 379.63 255.21" stroke="#218BFF" stroke-width="2.43" stroke-miterlimit="10"/>
<path d="M463.77 209.61C471.62 210.78 487.77 210.78 485.77 216.18C483.77 221.58 440.11 212.18 435.47 218.65" stroke="#218BFF" stroke-width="2.43" stroke-miterlimit="10"/>
<path d="M440.67 216.58C438.56 226.46 436.95 235.2 441.48 235.97C446.01 236.74 452.87 227.91 455 218" stroke="#218BFF" stroke-width="2.43" stroke-miterlimit="10"/>
<path d="M443.16 253.29C443.51 249.55 442.75 246.72 440.81 245.7C436.93 243.7 433.88 247.46 428.94 256.86C427.47 259.623 426.313 262.541 425.49 265.56" stroke="#0366D6" stroke-width="2.53" stroke-miterlimit="10"/>
<path d="M116.45 273.21L119.52 410.97L141.67 411.59L134.9 274.44L116.45 273.21Z" fill="#444D56"/>
<path d="M141.308 411.53L146.838 410.91L137.618 276.84L127.768 275.61L141.308 411.53Z" fill="#30363D"/>
<path d="M133.928 286.07H116.288L116.088 278.28L133.928 278.07V286.07Z" fill="#30363D"/>
<path d="M801.53 273.21L798.45 410.97L776.31 411.59L783.08 274.44L801.53 273.21Z" fill="#444D56"/>
<path d="M775.948 411.53L770.418 410.91L779.638 276.84L789.478 275.61L775.948 411.53Z" fill="#30363D"/>
<path d="M783.328 286.07H800.958L800.888 276.53L783.058 276.33L783.328 286.07Z" fill="#30363D"/>
<path d="M158.25 252.31L160.69 387.62L177.96 388.21L172.64 253.51L158.25 252.31Z" fill="#444D56"/>
<path d="M171.128 291.6L158.518 296.52L157.908 276.23H171.128V291.6Z" fill="#30363D"/>
<path d="M177.598 388.15L181.918 387.55L174.678 255.86L166.998 254.66L177.598 388.15Z" fill="#30363D"/>
<path d="M769.88 252.31L766.27 387.63L750.87 388.2L755.49 253.51L769.88 252.31Z" fill="#444D56"/>
<path d="M755.378 299.9L768.598 297.44L768.908 275.92L755.378 275.3V299.9Z" fill="#30363D"/>
<path d="M750.508 388.14L746.658 387.56L752.728 255.86L760.408 254.66L750.508 388.14ZM197.628 263.08L183.878 263.09L183.718 255.44L197.628 255.23V263.08Z" fill="#30363D"/>
<path d="M91.16 264.63L178.56 245.54L772.85 239.72L817.13 269.24L91.16 264.63Z" fill="#575D66"/>
<path d="M96.15 263.99L98.62 278.75L813.24 276.9L817.13 269.24L96.15 263.99Z" fill="#444D56"/>
<path d="M480.83 242.8L470.06 266.87L817.13 269.24L772.85 239.72L480.83 242.8Z" fill="#6D7481"/>
<path d="M468.428 266.81L469.438 277.15L812.878 276.84L816.768 269.18L468.428 266.81Z" fill="#30363D"/>
<path d="M566.83 238.77L568.47 249.02L666.05 250.25L666.46 233.85L566.83 238.77Z" fill="#FFD051"/>
<path d="M666.39 236.93C660.13 237.69 653.86 239.46 647.77 241.13C633.55 245.04 618.86 248.49 604.2 246.94C597.72 246.26 591.33 244.6 584.81 244.57C581.27 244.57 571.81 245.74 568.17 247.07L568.47 249.02L666.05 250.25L666.39 236.93Z" fill="#FAC238"/>
<path d="M568.47 249.02L555.35 244.1L554.12 235.49L566.83 238.77L568.47 249.02Z" fill="#FEDD6A"/>
<path d="M568.32 248.09L568.22 247.45C566.56 247.33 565.22 246.02 563.7 245.33C562.349 244.807 560.918 244.519 559.47 244.48L555.59 244.14H555.43L568.36 249L568.32 248.09Z" fill="#FAC238"/>
<path d="M668.31 233.85L640.84 229.34L622.75 230.65L555.97 235.49L568.68 238.77L668.31 233.85Z" fill="#FFE888"/>
<path d="M562.53 236.52C563.14 236.72 569.7 236.31 569.7 236.31L567.24 232.62L563.14 233.03L562.53 236.52ZM573.6 236.11L575.65 232.01H579.34L580.57 235.49L573.6 236.11ZM585.69 235.29L594.3 234.47L592.05 230.78L587.54 231.8L585.69 235.29ZM600.04 234.26L608.04 233.65L606.19 229.96L602.3 230.57L600.04 234.26ZM640.33 232.11L648.32 231.49L646.48 227.8L642.58 228.42L640.33 232.11ZM615.21 233.24L620.34 233.03L618.49 229.14L613.78 229.96L612.55 233.24H615.21ZM620.54 232.83L621.77 229.14L627.51 228.93V232.21L620.54 232.83ZM629.77 232.62L637.97 232.42L635.92 228.52L630.18 228.93L629.77 232.62Z" fill="#C8E2FD"/>
<path d="M567.86 237.34L568.88 231.19H572.98L576.26 236.52L567.86 237.34ZM579.75 236.72L580.98 230.78L586.51 230.57L587.33 236.52L579.75 236.72ZM646.17 233.34L647.4 227.39L652.93 227.19L653.75 233.13L646.17 233.34ZM593.07 235.7L594.51 228.93L601.07 229.14L602.3 235.29L593.07 235.7ZM607.01 235.08L608.24 228.32L615.62 227.7L617.26 234.47L607.01 235.08ZM621.63 234.31L623.82 228.11L628.66 227.91L632.08 233.77L621.63 234.31ZM635.92 233C636.53 232.8 645.14 233.21 645.14 233.21L642.27 227.06L636.94 227.47L635.92 233Z" fill="#77BAFC"/>
<path d="M562.65 243.13C559 243.71 549.44 246.33 548.44 250.78C547.97 252.83 550.74 253.96 552.84 254.15C571.65 255.87 590.56 252.75 609.45 252.68C613.45 252.68 617.54 254.82 611.65 257.11C609.53 257.94 591.75 256.64 595.75 262.11C597.64 264.72 606.01 264.89 608.87 264.88H636.87C646.93 264.88 657 264.88 667.05 264.32C671.62 264.08 677.34 263.76 681.81 261.81C688.94 258.71 678.81 253.66 687.25 250.73C696.08 247.73 708.25 252.54 717.62 251.67" stroke="#1D6AB6" stroke-width="1.21" stroke-miterlimit="10"/>
<path d="M705.21 248.41L719.15 248C719.15 248 716.69 236.93 708.9 236.52C703.631 236.385 698.374 237.077 693.32 238.57L705.21 248.41Z" fill="#77BAFC"/>
<path d="M683.48 247.18C683.48 247.18 688.81 236.52 696.6 237.75C704.39 238.98 705.21 248.41 705.21 248.41L683.48 247.18Z" fill="#1B8CFA"/>
<path d="M702.6 236.31C704.9 236.31 705.82 238.77 705.82 238.77C706.59 238.77 708.75 238.87 707.67 236.52C706.59 234.17 704.44 234.47 702.6 236.31Z" fill="#69737D"/>
<path d="M37.44 315.21L55.21 388.84C55.48 392.47 66.07 394.65 78.86 393.72C91.65 392.79 101.86 387.92 101.55 384.3L117 325.11" fill="#575D66"/>
<path d="M117.001 325.149C117.424 321.751 99.9606 316.778 77.9948 314.042C56.029 311.306 37.879 311.843 37.4558 315.241C37.0325 318.639 54.4963 323.611 76.4621 326.347C98.428 329.083 116.578 328.547 117.001 325.149Z" fill="#6D7481"/>
<path d="M105.187 323.662C105.488 321.245 93.0527 317.707 77.4113 315.759C61.77 313.81 48.8461 314.19 48.5451 316.607C48.244 319.024 60.6798 322.563 76.3212 324.511C91.9625 326.459 104.886 326.079 105.187 323.662Z" fill="#30363D"/>
<path d="M59.8 336.43L62.51 359.27M66.38 335.27L67.15 364.69M53.21 340.3C56.7 342.23 68.32 343.01 71.8 342.23M54.76 348.82C59.41 350.75 67.54 351.14 71.76 350.75" stroke="#444D56" stroke-width="1.27" stroke-miterlimit="10"/>
<path d="M77.75 323.05V322.87C77.6 322.87 77.67 323 77.75 323.05Z" fill="#F8FAFB"/>
<path d="M77.79 322.53C77.7 322.53 77.63 322.34 77.74 322.35L77.79 322.53C77.8125 322.538 77.8374 322.538 77.86 322.53C77.97 322.43 77.91 322.26 77.86 322.14C77.3746 321.382 76.6733 320.786 75.8463 320.429C75.0194 320.073 74.1047 319.972 73.22 320.14C73.63 318.44 71.91 316.95 70.22 316.43C70.0141 316.392 69.8252 316.291 69.68 316.14C69.46 315.85 69.63 315.45 69.68 315.09C69.7201 314.885 69.7201 314.675 69.68 314.47C69.5319 314.049 69.2917 313.666 68.9768 313.349C68.662 313.033 68.2804 312.79 67.86 312.64C67.1011 312.287 66.2668 312.127 65.4311 312.174C64.5954 312.221 63.7844 312.474 63.07 312.91C62.6142 313.221 62.2207 313.614 61.91 314.07C61.1393 315.333 60.6166 316.731 60.37 318.19C59.0255 317.597 57.5543 317.35 56.09 317.47C55.556 317.55 55.0458 317.745 54.595 318.042C54.1442 318.339 53.7637 318.731 53.48 319.19C58.42 320.99 66.96 322.84 76.75 324.06L78.14 324.22C78.0765 323.647 77.9593 323.081 77.79 322.53Z" fill="#30363D"/>
<path d="M59.63 320.92H59.55C65.2034 322.272 70.9294 323.3 76.7 324L77.16 324.05C77.4531 323.791 77.7149 323.499 77.94 323.18L77.79 322.51C77.7 322.51 77.63 322.32 77.74 322.33L77.79 322.51C77.8126 322.518 77.8374 322.518 77.86 322.51C77.97 322.41 77.91 322.24 77.86 322.12C77.3746 321.361 76.6733 320.766 75.8464 320.409C75.0194 320.053 74.1047 319.952 73.22 320.12C73.3013 319.745 73.292 319.356 73.1929 318.986C73.0937 318.616 72.9076 318.274 72.65 317.99C72.3726 318.546 71.9239 318.998 71.37 319.28C70.8159 319.525 70.2128 319.639 69.6075 319.613C69.0022 319.587 68.411 319.422 67.88 319.13L68.06 319.58C67.97 319.49 67.81 319.58 67.78 319.7C67.7552 319.819 67.7552 319.941 67.78 320.06C67.7811 320.321 67.6892 320.575 67.5206 320.774C67.352 320.974 67.1178 321.107 66.86 321.15C66.3387 321.219 65.8083 321.168 65.31 321C63.4642 320.425 61.4913 320.397 59.63 320.92Z" fill="#24282E"/>
<path d="M97.63 319C97.0509 317.683 96.0182 316.619 94.72 316L96.54 314.18C96.2005 313.574 95.7247 313.055 95.1502 312.665C94.5758 312.274 93.9184 312.023 93.23 311.93C93.6307 311.227 93.7806 310.409 93.6553 309.609C93.5299 308.81 93.1367 308.077 92.54 307.53C91.9258 307.007 91.205 306.624 90.4279 306.409C89.6507 306.193 88.8359 306.149 88.04 306.28C87.1537 306.363 86.2979 306.647 85.5374 307.109C84.7768 307.572 84.1314 308.201 83.65 308.95C83.1912 309.713 83.0001 310.607 83.107 311.491C83.2138 312.375 83.6125 313.198 84.24 313.83C83.79 314.83 82.35 314.77 81.34 315.24C81.1281 315.337 80.9297 315.461 80.75 315.61C79.63 316.53 79.3 318.25 79.12 319.76C78.2156 319.526 77.2593 319.594 76.3977 319.956C75.5361 320.317 74.8168 320.951 74.35 321.76C74.0507 322.313 73.8702 322.923 73.82 323.55C74.77 323.69 75.73 323.81 76.7 323.94C83.448 324.839 90.2531 325.24 97.06 325.14C97.2733 324.817 97.4702 324.483 97.65 324.14C98.0222 323.334 98.2133 322.456 98.2099 321.568C98.2064 320.68 98.0085 319.803 97.63 319Z" fill="#30363D"/>
<path d="M94.72 316L96.54 314.18C96.2004 313.574 95.7247 313.055 95.1502 312.665C94.5758 312.274 93.9184 312.023 93.23 311.93C93.6215 311.239 93.7712 310.436 93.6552 309.65C93.5393 308.864 93.1644 308.139 92.59 307.59C92.7925 309.74 92.2487 311.894 91.05 313.69C90.876 313.884 90.7706 314.13 90.75 314.39C90.7884 314.674 90.9309 314.934 91.15 315.12C92.0764 315.973 92.7656 317.051 93.15 318.25C93.314 318.851 93.2722 319.49 93.0312 320.064C92.7902 320.639 92.3638 321.116 91.82 321.42C90.65 321.93 89.34 321.27 88.13 320.88C86.92 320.49 85.21 320.61 84.83 321.82C84.7767 322.157 84.7032 322.491 84.61 322.82C84.4575 323.096 84.2277 323.322 83.9488 323.469C83.6699 323.617 83.3541 323.68 83.04 323.65C82.4152 323.586 81.7966 323.472 81.19 323.31C79.9399 323.11 78.6599 323.373 77.59 324.05C84.062 324.883 90.5854 325.251 97.11 325.15C97.3233 324.827 97.5202 324.493 97.7 324.15C98.083 323.338 98.2816 322.452 98.2816 321.555C98.2816 320.658 98.083 319.771 97.7 318.96C97.0957 317.646 96.0375 316.595 94.72 316Z" fill="#24282E"/>
<path d="M13.66 392.59C13.8684 392.44 14.0479 392.254 14.19 392.04C14.2785 391.775 14.2651 391.487 14.1523 391.232C14.0394 390.977 13.8353 390.773 13.58 390.66C13.0638 390.455 12.5322 390.291 11.99 390.17C11.2333 389.914 10.5994 389.384 10.2122 388.686C9.82491 387.987 9.71213 387.169 9.89588 386.391C10.0796 385.614 10.5467 384.933 11.2058 384.481C11.8649 384.03 12.6686 383.841 13.46 383.95C13.0066 383.514 12.6521 382.986 12.4207 382.401C12.1892 381.816 12.0862 381.188 12.1184 380.56C12.1507 379.932 12.3176 379.318 12.6078 378.76C12.898 378.202 13.3048 377.713 13.8005 377.326C14.2962 376.939 14.8693 376.662 15.481 376.516C16.0927 376.37 16.7288 376.356 17.3461 376.477C17.9633 376.598 18.5474 376.85 19.0588 377.216C19.5702 377.583 19.9969 378.055 20.31 378.6C20.88 379.6 21.45 381.06 22.58 380.85C22.8704 380.76 23.149 380.636 23.41 380.48C24.0604 380.176 24.7967 380.11 25.4909 380.292C26.1852 380.475 26.7935 380.895 27.21 381.48C27.49 381.91 27.68 382.48 28.12 382.67C28.6326 382.88 29.2074 382.88 29.72 382.67L33.57 381.53C32.9895 380.755 32.5804 379.865 32.37 378.92C33.1556 379.36 33.8077 380.004 34.2577 380.784C34.7077 381.564 34.9387 382.45 34.9264 383.351C34.9141 384.251 34.6589 385.131 34.1879 385.899C33.7168 386.666 33.0473 387.292 32.25 387.71C32.9195 387.585 33.6109 387.656 34.2408 387.915C34.8707 388.174 35.4122 388.61 35.8 389.17C36.5603 390.318 36.8569 391.712 36.63 393.07C36.623 393.436 36.4927 393.788 36.26 394.07C36.0592 394.248 35.8245 394.384 35.57 394.47C30.51 396.47 25.81 397.92 20.33 397.9C18.25 397.87 9.37001 396.57 13.66 392.59Z" fill="#444D56"/>
<path d="M24.3 380.82C24.58 380.63 24.85 380.43 25.12 380.23C24.5378 380.14 23.9421 380.227 23.41 380.48C23.1499 380.638 22.8711 380.762 22.58 380.85C22.3485 380.884 22.112 380.854 21.8967 380.762C21.6814 380.67 21.4957 380.521 21.36 380.33C20.7708 380.93 20.1318 381.478 19.45 381.97C21.06 382.6 22.88 381.8 24.3 380.82ZM32.37 378.92C32.4321 379.206 32.5157 379.487 32.62 379.76L33.03 379.38C32.823 379.209 32.6023 379.055 32.37 378.92ZM18.26 381.56C16.2873 381.982 14.2545 382.043 12.26 381.74C12.3596 382.253 12.5492 382.743 12.82 383.19L13.45 383.34C14.3378 383.505 15.2537 383.427 16.1006 383.114C16.9475 382.8 17.6937 382.263 18.26 381.56ZM36.26 394.05C36.4926 393.768 36.623 393.415 36.63 393.05C36.8569 391.692 36.5603 390.298 35.8 389.15C35.4122 388.59 34.8707 388.154 34.2408 387.895C33.6109 387.636 32.9195 387.565 32.25 387.69C33.1806 387.226 33.9369 386.474 34.407 385.547C34.8771 384.619 35.0359 383.565 34.86 382.54L34.65 382.81C33.15 384.74 31.97 386.55 29.17 386.47C29.9725 386.574 30.7234 386.923 31.32 387.47C31.4591 387.608 31.5671 387.775 31.6367 387.959C31.7063 388.142 31.7359 388.338 31.7236 388.534C31.7113 388.73 31.6574 388.921 31.5653 389.095C31.4733 389.268 31.3454 389.42 31.19 389.54C32.2166 389.621 33.205 389.966 34.06 390.54C34.4798 390.837 34.769 391.284 34.8677 391.789C34.9664 392.293 34.867 392.817 34.59 393.25C34.2158 393.631 33.7345 393.889 33.21 393.99C32.0024 394.362 30.7159 394.397 29.49 394.09C28.8824 393.93 28.3236 393.623 27.8631 393.196C27.4026 392.768 27.0547 392.234 26.85 391.64C26.62 392.43 25.45 392.27 24.69 391.94L22.05 390.78C21.8656 390.658 21.6539 390.585 21.4339 390.566C21.2139 390.546 20.9927 390.582 20.79 390.67C20.6142 390.802 20.4762 390.978 20.39 391.18C19.9 392.07 19.39 392.96 18.94 393.85C18.7574 394.309 18.4218 394.69 17.99 394.93C16.76 395.43 15.8 393.58 14.49 393.36C14.14 393.3 13.78 393.36 13.43 393.36C13.3201 393.349 13.2123 393.322 13.11 393.28C10.28 396.79 18.36 397.96 20.33 397.97C25.81 397.97 30.51 396.58 35.57 394.54C35.8323 394.428 36.0676 394.261 36.26 394.05ZM27.29 381.65L25.29 383.46C26.214 383.264 27.1178 382.983 27.99 382.62C27.6981 382.343 27.4607 382.014 27.29 381.65ZM13 390.44C14.3991 390.58 15.8115 390.385 17.12 389.87C18.6 389.18 19.76 387.47 19.25 385.87C16.5421 387.037 13.6063 387.581 10.66 387.46C10.39 387.453 10.1217 387.417 9.85999 387.35C9.92289 387.965 10.1553 388.551 10.5314 389.042C10.9075 389.532 11.4124 389.909 11.99 390.13C12.32 390.28 12.66 390.35 13 390.44Z" fill="#30363D"/>
<path d="M40.67 390.87C42.05 392.29 44.19 392.59 45.92 393.55C47.4181 394.445 48.5645 395.827 49.1686 397.464C49.7726 399.101 49.7978 400.896 49.2399 402.55C49.8433 401.954 50.6262 401.573 51.4677 401.466C52.3091 401.36 53.1623 401.533 53.8952 401.96C54.6282 402.387 55.2002 403.043 55.5228 403.828C55.8453 404.612 55.9006 405.481 55.68 406.3C55.6066 406.64 55.4581 406.959 55.2453 407.234C55.0324 407.51 54.7607 407.734 54.45 407.89C54.1337 408.031 53.775 408.043 53.4501 407.923C53.1252 407.804 52.8596 407.562 52.7099 407.25L53.6 411.87C53.77 412.77 53.89 413.87 53.22 414.45C52.8795 414.754 52.4535 414.947 52 415C50.7829 415.155 49.5465 414.996 48.4086 414.537C47.2707 414.078 46.2693 413.336 45.5 412.38C44.5 411.14 43.4999 409.38 41.9599 409.78C41.5396 409.933 41.1575 410.175 40.84 410.49C39.11 412.02 37.37 413.72 35.13 414.29C32.89 414.86 30.01 413.67 29.75 411.37C29.762 410.353 29.9168 409.344 30.2099 408.37C30.3442 407.876 30.3316 407.354 30.1735 406.867C30.0154 406.381 29.7188 405.951 29.32 405.63C26.71 404.14 23.99 407.97 23.07 403.16C22.6 400.71 24.14 396.84 26.4 395.59C30.57 393.21 40.28 399.89 40.67 390.87Z" fill="#444D56"/>
<path d="M41.82 402.79H42.06C41.9807 402.775 41.8993 402.775 41.82 402.79Z" fill="#E9ECEE"/>
<path d="M52 415C52.4572 414.97 52.8939 414.799 53.25 414.51C53.92 413.89 53.8 412.83 53.63 411.93L53.11 409.23C52.9771 409.596 52.7277 409.909 52.4 410.12C51.859 410.39 51.2472 410.485 50.65 410.39C49.0365 410.274 47.4608 409.846 46.01 409.13C45.712 409.008 45.4478 408.816 45.24 408.57C45.0352 408.246 44.9213 407.873 44.91 407.49C44.744 405.678 44.8963 403.85 45.36 402.09C44.3274 402.544 43.2173 402.795 42.09 402.83C42.3474 402.885 42.5766 403.03 42.7363 403.239C42.8959 403.448 42.9752 403.707 42.96 403.97C42.8598 404.578 42.5525 405.133 42.09 405.54C41.17 406.54 39.71 407.35 38.61 406.62C38.4213 407.844 37.8771 408.986 37.0451 409.903C36.2131 410.82 35.1298 411.473 33.93 411.78C32.56 412.11 30.76 411.68 30.43 410.31C30.3522 409.561 30.4874 408.806 30.82 408.13C31.444 406.364 31.6959 404.488 31.56 402.62C30.0209 403.459 28.3504 404.03 26.62 404.31C25.91 404.38 24.33 403.82 23.22 403.8C24.22 407.57 26.84 404.19 29.32 405.61C29.7188 405.931 30.0154 406.361 30.1735 406.847C30.3316 407.334 30.3443 407.856 30.21 408.35C29.9168 409.324 29.762 410.333 29.75 411.35C30.01 413.65 32.89 414.83 35.13 414.27C37.37 413.71 39.13 412 40.84 410.47C41.1575 410.155 41.5396 409.913 41.96 409.76C43.47 409.34 44.53 411.12 45.5 412.36C46.2671 413.319 47.2675 414.066 48.4056 414.528C49.5436 414.99 50.7812 415.153 52 415ZM54.41 404.78C53.92 405.62 52.6 406.1 51.98 405.35C52.541 406.043 52.956 406.842 53.2 407.7V407.83C53.3868 407.933 53.5942 407.992 53.807 408.004C54.0199 408.016 54.2327 407.981 54.43 407.9C54.7407 407.744 55.0124 407.52 55.2253 407.245C55.4381 406.969 55.5866 406.65 55.66 406.31C55.8025 405.72 55.809 405.106 55.679 404.514C55.5491 403.921 55.2861 403.366 54.91 402.89C54.8615 403.546 54.692 404.186 54.41 404.78Z" fill="#30363D"/>
<path d="M101.55 384.3L111.99 344.3C107.55 344.51 103.27 347.16 99.64 349.96C97.14 351.88 94.64 354.08 93.64 357.07C92.31 361.07 93.96 365.3 95.11 369.33C96.26 373.36 96.65 378.33 93.59 381.15C91.35 383.24 87.9 383.47 84.91 382.76C81.92 382.05 79.2 380.55 76.3 379.54C72.5607 378.285 68.5976 377.837 64.6725 378.226C60.7474 378.616 56.9496 379.834 53.53 381.8L55.24 388.88C55.51 392.51 66.1 394.69 78.89 393.76C91.68 392.83 101.82 387.92 101.55 384.3Z" fill="#444D56"/>
<path d="M311.54 237.34L231.59 239.39L247.17 256.61L263.57 255.38L308.67 248.41L311.54 237.34Z" fill="#C8E2FD"/>
<path d="M257.88 240.92L268.34 240.29L258.2 244.88L257.88 240.92Z" fill="#1B8CFA"/>
<path d="M272.94 240.15L265.17 245.54L270.56 245.69L279.44 240.62L272.94 240.15Z" fill="#77BAFC"/>
<path d="M262.63 244.57L269.93 245.04L262.95 249.64L258.04 248.69L262.63 244.57ZM281.81 239.36L275.63 242.21L285.78 241.73L287.36 239.67L281.81 239.36Z" fill="#FFA875"/>
<path d="M271.35 245.04H278.8L269.77 248.69L266.44 248.37L271.35 245.04Z" fill="#FFD051"/>
<path d="M161.27 259.68L137.9 173.58L249.22 171.12L255.37 256.61L161.27 259.68Z" fill="#1B8CFA"/>
<path d="M137.9 173.58L145.9 170.51L257.83 163.13L249.22 171.12L137.9 173.58Z" fill="#C8E2FD"/>
<path d="M257.83 163.13C257.83 164.97 259.47 255.79 259.47 255.79L255.37 256.61L249.22 171.12L257.83 163.13Z" fill="#77BAFC"/>
<path d="M254.77 248.26C251.878 245.149 248.23 242.841 244.18 241.56C235.42 238.94 226.18 242.16 217.03 243.04C207.75 243.93 197.72 242.04 190.93 235.65C182.87 228.08 180.66 215.65 172.17 208.56C169.489 206.365 166.335 204.822 162.956 204.053C159.578 203.284 156.067 203.311 152.7 204.13C150.645 204.659 148.677 205.484 146.86 206.58L161.27 259.68L255.37 256.61L254.77 248.26Z" fill="#006AD2"/>
<path d="M255.37 256.61L312.77 250.46L311.54 237.34L255.37 256.61Z" fill="#77BAFC"/>
<path d="M283.99 251.16L277.44 252.27L277.23 251.06L283.78 249.33L283.99 251.16ZM294.78 249.22L287.86 250.7L288.05 248.54L294.42 247.4L294.78 249.22Z" fill="#006AD2"/>
<path d="M272.798 254.023C273.187 253.881 273.347 253.337 273.154 252.808C272.962 252.279 272.491 251.964 272.101 252.105C271.712 252.247 271.552 252.791 271.745 253.32C271.937 253.85 272.408 254.164 272.798 254.023Z" fill="#006AD2"/>
<path d="M194.93 201.1L195.86 201C195.913 201.027 195.971 201.044 196.03 201.05H197.11C198.726 201.129 200.307 201.548 201.751 202.278C203.195 203.009 204.469 204.035 205.49 205.29C207.479 207.653 208.635 210.605 208.78 213.69C208.832 214.537 208.808 215.387 208.71 216.23C208.544 217.94 208.062 219.605 207.29 221.14C206.165 223.427 204.378 225.323 202.16 226.58C201.65 226.87 201.16 227.1 200.6 227.35H200.24C200.106 227.306 199.99 227.217 199.912 227.099C199.834 226.982 199.798 226.841 199.81 226.7C199.81 226.05 199.76 225.4 199.73 224.7C199.7 224 199.73 223.59 199.65 223.03C199.598 222.327 199.301 221.665 198.81 221.16C199.785 221.016 200.72 220.676 201.56 220.16C202.113 219.853 202.598 219.438 202.988 218.939C203.378 218.441 203.664 217.87 203.83 217.26C204.03 216.488 204.151 215.697 204.19 214.9C204.339 213.387 203.89 211.876 202.94 210.69C202.912 210.653 202.891 210.612 202.879 210.567C202.867 210.522 202.864 210.476 202.87 210.43C203.157 209.232 203.084 207.976 202.66 206.82C202.6 206.67 202.54 206.56 202.38 206.61C201.928 206.698 201.489 206.839 201.07 207.03C200.42 207.41 199.81 207.9 199.19 208.33C199.096 208.394 198.983 208.423 198.87 208.41C197.753 208.193 196.611 208.146 195.48 208.27C194.582 208.375 193.699 208.587 192.85 208.9C192.812 208.917 192.771 208.926 192.73 208.926C192.689 208.926 192.648 208.917 192.61 208.9C192.17 208.67 191.74 208.42 191.3 208.18C190.717 207.846 190.05 207.69 189.38 207.73C189.3 207.73 189.17 207.81 189.16 207.89C188.863 209.042 188.915 210.257 189.31 211.38C189.342 211.435 189.358 211.497 189.358 211.56C189.358 211.623 189.342 211.685 189.31 211.74C188.882 212.419 188.622 213.19 188.55 213.99C188.458 215.39 188.687 216.792 189.22 218.09C189.461 218.769 189.866 219.377 190.4 219.86C191.194 220.528 192.143 220.986 193.16 221.19C193.57 221.28 193.98 221.32 194.4 221.38C194.07 221.811 193.876 222.329 193.84 222.87C193.837 222.911 193.826 222.951 193.807 222.987C193.788 223.023 193.762 223.055 193.73 223.08C193.13 223.394 192.432 223.466 191.78 223.28C191.219 223.041 190.745 222.636 190.42 222.12C190.125 221.678 189.708 221.33 189.22 221.12C189.058 221.034 188.88 220.984 188.697 220.974C188.514 220.964 188.331 220.993 188.16 221.06C188.01 221.14 187.98 221.25 188.1 221.38C188.225 221.522 188.366 221.65 188.52 221.76C189.143 222.151 189.631 222.723 189.92 223.4C190.202 223.943 190.641 224.389 191.18 224.68C191.672 224.923 192.228 225.007 192.77 224.92C193.14 224.92 193.51 224.84 193.89 224.8C193.895 224.83 193.895 224.86 193.89 224.89L194.07 226.89C194.1 227.024 194.082 227.164 194.02 227.286C193.958 227.408 193.856 227.505 193.73 227.56H193.38L193.2 227.48C192.033 227.096 190.933 226.532 189.94 225.81C188.477 224.759 187.251 223.414 186.34 221.86C185.507 220.458 184.925 218.922 184.62 217.32C184.583 217.151 184.536 216.984 184.48 216.82L184.35 215.76C184.355 215.717 184.355 215.673 184.35 215.63V213.89C184.394 210.44 185.736 207.134 188.11 204.63C189.784 202.842 191.99 201.639 194.4 201.2C194.578 201.177 194.755 201.144 194.93 201.1Z" fill="#0D1116"/>
<path d="M254.92 250.39L255.37 256.61L259.47 255.79C259.47 255.79 259.39 251.7 259.28 245.25C258.12 247.192 256.647 248.929 254.92 250.39Z" fill="#1B8CFA"/>
<path d="M727.908 238.81C720.688 241.81 698.188 251.32 698.188 251.32L698.388 253.16C694.288 257.26 721.388 260.95 744.308 260.54C767.228 260.13 781.618 257.26 782.438 251.54L781.208 249.19L750.048 238.42L727.908 238.81Z" fill="#30363D"/>
<path d="M729.6 226.78L728.99 242.46C737.91 245.23 750.51 244 753.9 242.46L752.67 223.4L729.6 226.78Z" fill="#69737D"/>
<path d="M729.4 232.01L753.18 228.73L752.67 223.4L729.6 225.04L729.4 232.01Z" fill="#586069"/>
<path d="M660.72 122.54L665.03 232.01L812.01 223.4L825.54 131.15L660.72 122.54Z" fill="#FFD051"/>
<path d="M825.54 131.15L814.68 124.59L650.68 120.9L660.93 124.18L825.54 131.15Z" fill="#FFE888"/>
<path d="M660.93 124.18L650.68 120.9L657.54 229.57L665.03 232.01L660.93 124.18Z" fill="#FEDD6A"/>
<path d="M665 232L812 223.39L820.75 163.73C817.438 163.267 814.091 163.107 810.75 163.25C797.75 163.73 784.17 168.56 776.36 179C770.74 186.49 768.48 196.24 762.13 203.12C752.45 213.61 735.87 214.46 722.13 210.47C715.26 208.47 708.64 205.47 701.55 204.47C694.355 203.428 687.013 204.522 680.435 207.617C673.857 210.712 668.333 215.672 664.55 221.88L665 232Z" fill="#FAC238"/>
<path d="M664.62 221.27C662.835 221.418 661.057 220.909 659.62 219.84C658.263 218.766 657.226 217.341 656.62 215.72L657.49 229.57L665 232L664.62 221.27Z" fill="#FFD051"/>
<path d="M738.28 160.4H739.28C739.332 160.433 739.39 160.457 739.45 160.47C739.85 160.47 740.25 160.54 740.64 160.59C742.396 160.827 744.085 161.42 745.604 162.333C747.122 163.246 748.438 164.46 749.47 165.9C751.41 168.565 752.393 171.807 752.26 175.1C752.227 176.002 752.113 176.899 751.92 177.78C751.478 180.031 750.498 182.142 749.063 183.933C747.628 185.723 745.781 187.139 743.68 188.06C743.09 188.31 742.48 188.5 741.89 188.72H741.49C741.348 188.663 741.23 188.56 741.153 188.428C741.077 188.295 741.048 188.141 741.07 187.99C741.12 187.3 741.15 186.61 741.18 185.91C741.21 185.21 741.27 184.73 741.26 184.14C741.268 183.387 741.005 182.656 740.52 182.08C741.598 182.038 742.658 181.787 743.64 181.34C744.277 181.084 744.854 180.7 745.335 180.211C745.817 179.723 746.193 179.14 746.44 178.5C746.731 177.706 746.942 176.886 747.07 176.05C747.218 175.26 747.205 174.449 747.034 173.664C746.862 172.879 746.534 172.136 746.07 171.48C746.041 171.44 746.021 171.394 746.011 171.346C746.001 171.298 746 171.248 746.01 171.2C746.452 169.965 746.498 168.622 746.14 167.36C746.14 167.19 746.04 167.08 745.86 167.12C745.352 167.161 744.852 167.266 744.37 167.43C743.61 167.76 742.9 168.22 742.17 168.61C742.06 168.668 741.933 168.689 741.81 168.67C740.6 168.328 739.347 168.163 738.09 168.18C737.078 168.203 736.071 168.34 735.09 168.59C735.003 168.621 734.907 168.621 734.82 168.59C734.36 168.29 733.91 167.98 733.45 167.69C732.835 167.28 732.119 167.048 731.38 167.02C731.29 167.02 731.14 167.09 731.12 167.17C730.677 168.355 730.614 169.648 730.94 170.87C730.968 170.932 730.978 171.001 730.967 171.069C730.956 171.137 730.926 171.199 730.88 171.25C730.343 171.918 729.979 172.708 729.82 173.55C729.576 175.023 729.693 176.532 730.16 177.95C730.358 178.701 730.743 179.389 731.28 179.95C732.096 180.74 733.096 181.314 734.19 181.62C734.63 181.76 735.08 181.84 735.54 181.95C735.134 182.362 734.865 182.889 734.77 183.46C734.77 183.54 734.69 183.65 734.63 183.67C733.927 183.935 733.152 183.935 732.45 183.67C731.866 183.363 731.386 182.889 731.07 182.31C730.791 181.8 730.366 181.386 729.85 181.12C729.68 181.01 729.489 180.937 729.289 180.908C729.088 180.878 728.884 180.893 728.69 180.95C728.52 181.02 728.47 181.13 728.59 181.28C728.715 181.443 728.86 181.591 729.02 181.72C729.662 182.186 730.144 182.839 730.4 183.59C730.633 184.185 731.049 184.69 731.589 185.032C732.128 185.373 732.763 185.534 733.4 185.49H734.66V187.69C734.68 187.836 734.646 187.984 734.566 188.107C734.485 188.231 734.362 188.32 734.22 188.36H733.83C733.77 188.321 733.706 188.287 733.64 188.26C732.401 187.735 731.245 187.031 730.21 186.17C728.717 184.926 727.501 183.383 726.64 181.64C725.859 180.075 725.371 178.381 725.2 176.64C725.2 176.46 725.13 176.28 725.1 176.1V174.96C725.11 174.917 725.11 174.873 725.1 174.83C725.1 174.22 725.16 173.6 725.24 172.98C725.64 169.311 727.456 165.942 730.3 163.59C732.349 161.852 734.892 160.803 737.57 160.59C737.87 160.49 738.07 160.43 738.28 160.4Z" fill="#0D1116"/>
<path d="M751.13 244.31L753.9 243.69L778.8 253.33C776.008 255.249 772.751 256.382 769.37 256.61L751.13 244.31ZM747.44 245.54L750.51 244.92L762.51 257.84H760.97L747.44 245.54Z" fill="#575D66"/>
<path d="M740.26 250.05L740.47 252.3L745.18 252.1L744.77 250.25L740.26 250.05Z" fill="#69737D"/>
<path d="M740.26 250.05L739.03 251.07L739.44 252.71L740.47 252.3L740.26 250.05Z" fill="#575D66"/>
<path d="M739.44 252.71L743.75 253.12L745.18 252.1L740.47 252.3L739.44 252.71Z" fill="#586069"/>
<path d="M747.96 250.04L748.15 251.92L752.87 252.12L752.47 250.27L747.96 250.04Z" fill="#69737D"/>
<path d="M747.96 250.04L746.72 251.05L747.19 252.94L748.15 251.92L747.96 250.04Z" fill="#575D66"/>
<path d="M747.19 252.94L751.43 253.13L752.87 252.12L748.15 251.92L747.19 252.94Z" fill="#586069"/>
<path d="M565.89 242.44L563.53 242.64V244.08H566.09L565.89 242.44Z" fill="#69737D"/>
<path d="M565.89 242.44L562.5 241.31L561.27 241.72L563.53 242.64L565.89 242.44Z" fill="#575D66"/>
<path d="M561.27 241.72L561.12 243.15L563.53 244.08V242.64L561.27 241.72Z" fill="#444D56"/>
<path d="M356.45 174.86C356.45 174.86 361.7 169.96 373.45 191.86C385.2 213.76 386.76 216.54 386.76 216.54C390.93 225.32 389.04 232.18 373.38 233.05C358.33 233.89 305.98 227.6 299.83 234.78" stroke="#218BFF" stroke-width="2.43" stroke-linejoin="round"/>
<path d="M366.75 205C359.45 206.22 306.47 196.36 296.88 197.42C285.59 198.68 263.2 212.69 270.43 230.15" stroke="#218BFF" stroke-width="2.43" stroke-linejoin="round"/>
<path d="M274.74 230.43C267.28 231.43 263.74 233.81 264.05 238.43C264.36 243.05 291.84 240.88 298.57 240.36C308.15 239.61 304.25 232.58 304.25 232.58" stroke="#218BFF" stroke-width="2.53" stroke-linejoin="round"/>
<path d="M807 72.5999L804.89 -7.56006L868.77 -4.33006L862.8 77.2599L807 72.5999Z" fill="#363C45"/>
<path d="M814.81 3.41C814.1 5.22 813.59 68.04 813.59 68.04L853.47 66.94L861.2 3L814.81 3.41Z" fill="#24282E"/>
<path d="M538.15 110.31C537.62 99.31 543.22 80.22 550.4 74.52M624.56 99.75C628.47 95.58 637.02 92.34 640.56 92.68" stroke="#218BFF" stroke-width="2.43" stroke-miterlimit="10"/>
</g>
<defs>
<clipPath id="clip0_3_739">
<rect width="850" height="600" fill="white"/>
</clipPath>
</defs>
</svg>
