
<svg width="36" height="40" viewBox="0 0 36 40" fill="none" xmlns="http://www.w3.org/2000/svg">
<path fill-rule="evenodd" clip-rule="evenodd" d="M12.7775 24.4566H5.99067C3.449 24.4566 1.38869 22.4448 1.38869 19.971V15.2172H1.27757C0.572052 15.2172 0 14.6547 0 13.9685V8.63988C0 7.95052 0.56694 7.39143 1.27757 7.39143H1.38869V4.48565C1.38869 2.00844 3.442 0 5.99067 0H30.0091C32.5507 0 34.6113 2.01159 34.6113 4.48565V7.39143H34.7222C35.4279 7.39143 36 7.95394 36 8.63988V13.9685C36 14.6581 35.4328 15.2172 34.7222 15.2172H34.6113V19.971C34.6113 22.4484 32.558 24.4566 30.0091 24.4566H23.3331V25.5979H23.9444L26.111 26.4131V26.739H26.9443V27.609C27.0858 27.6122 28.3731 27.6668 29.2645 28.6416C30.209 29.6739 30.0979 30.7611 30.0979 30.7611V31.6758H30.3629L31.4185 32.7084V35.4802L30.3906 36.486H28.2504L27.7908 36.0364V34.6643H26.9169V32.2661C26.9169 31.94 27.1873 31.6758 27.5252 31.6758H27.9891C27.9932 31.223 27.9956 30.7842 27.9867 30.7067C27.9375 30.2661 27.8201 30.1085 27.6536 29.9457C27.5018 29.7973 27.0283 29.6487 26.9443 29.6235V30.7611H26.0555V34.1307L24.8337 35.435V37.1741H25.3891C25.3891 37.1741 26.0558 37.1741 26.7223 37.4459C27.3891 37.7174 27.9445 38.261 27.9445 38.261V40H18.6111V37.1741L18.6124 36.6304H17.5001V37.0661V40H8.16641V38.261C8.16641 38.261 8.72205 37.7174 9.38854 37.4459C10.0556 37.1741 10.7221 37.0661 10.7221 37.0661H11.2777V35.435L10.111 34.0763V30.7611H9.16656V29.6547C8.9957 29.7115 8.67523 29.8286 8.55549 29.9457C8.38866 30.1085 8.27162 30.2661 8.22184 30.7067C8.21323 30.7847 8.21592 31.2288 8.21995 31.6847H8.67119C9.00888 31.6847 9.2793 31.9492 9.2793 32.2753V34.6735H8.40535V36.0456L7.94577 36.4952H5.80582L4.77768 35.4894V32.7176L5.83299 31.6847H6.11095V30.7611C6.11095 30.7611 5.99982 29.6739 6.94427 28.6416C7.72862 27.7839 8.81918 27.6384 9.16656 27.6137V26.739H9.99988V26.4131L12.1108 25.5979H12.7775V24.4566ZM2.55549 5.14402V19.0949C2.55549 20.9734 4.11774 22.5002 6.04512 22.5002H30.0105C31.9336 22.5002 33.5001 20.9755 33.5001 19.0949V5.14402C33.5001 3.26583 31.9376 1.73901 30.0105 1.73901H6.04512C4.12178 1.73901 2.55549 3.26347 2.55549 5.14402V5.14402Z" fill="black"/>
<path fill-rule="evenodd" clip-rule="evenodd" d="M11.4547 15.1351C10.551 15.1351 9.81836 13.9254 9.81836 12.4324C9.81836 10.9398 10.551 9.72974 11.4547 9.72974C12.3587 9.72974 13.0911 10.9398 13.0911 12.4324C13.0911 13.9254 12.3587 15.1351 11.4547 15.1351Z" fill="#008FF1"/>
<path fill-rule="evenodd" clip-rule="evenodd" d="M23.4547 15.1351C22.551 15.1351 21.8184 13.9254 21.8184 12.4324C21.8184 10.9398 22.551 9.72974 23.4547 9.72974C24.3584 9.72974 25.0911 10.9398 25.0911 12.4324C25.0911 13.9254 24.3584 15.1351 23.4547 15.1351Z" fill="#008FF1"/>
</svg>
