<svg width="80" height="80" fill="none" xmlns="http://www.w3.org/2000/svg"><path d="M36.8331 8.9v21.3058c-3.0143-3.7683-7.6775-6.4064-14.9326-6.4064C9.08925 23.7994.00003052 33.55.00003052 47.3024.00003052 60.9604 9.0911 70.9 21.9005 70.9c6.6419 0 11.6719-2.2621 14.6955-5.7433l.2353 4.8021h11.8701V8.9H36.8331ZM23.8458 59.6635c-2.4363 0-4.818-.7224-6.8437-2.076-2.0258-1.3536-3.6047-3.2775-4.5371-5.5284-.9323-2.2509-1.1763-4.7278-.7009-7.1173.4753-2.3896 1.6485-4.5844 3.3713-6.3072 1.7228-1.7228 3.9177-2.896 6.3073-3.3713 2.3895-.4753 4.8664-.2314 7.1173.7009 2.2509.9324 4.1747 2.5113 5.5283 4.5371 1.3535 2.0258 2.076 4.4074 2.076 6.8437-.002 3.2672-1.3002 6.4-3.6097 8.7109-2.3095 2.311-5.4416 3.6111-8.7088 3.6151v-.0075Z" fill="#23282F"/><path d="M67.9289 70.7854c-2.3733 0-4.6933-.7038-6.6666-2.0223-1.9734-1.3185-3.5115-3.1925-4.4198-5.3851-.9083-2.1926-1.146-4.6053-.6832-6.933.4629-2.3277 1.6056-4.4659 3.2837-6.1442 1.678-1.6783 3.8161-2.8214 6.1438-3.2846 2.3276-.4633 4.7403-.2258 6.933.6822 2.1928.9079 4.0671 2.4457 5.3859 4.4188 1.3188 1.9732 2.0228 4.2931 2.0232 6.6664-.0034 3.1818-1.2686 6.2322-3.5183 8.4822-2.2496 2.25-5.3 3.5158-8.4817 3.5196Zm0-16.9397c-.9766 0-1.9313.2896-2.7433.8322s-1.4449 1.3137-1.8187 2.216c-.3737.9023-.4715 1.8952-.281 2.853.1905.9579.6608 1.8377 1.3514 2.5283.6906.6906 1.5704 1.1609 2.5283 1.3514.9578.1905 1.9507.0927 2.853-.281.9023-.3737 1.6734-1.0066 2.216-1.8187.5426-.812.8322-1.7667.8322-2.7433.007-.6504-.1159-1.2957-.3616-1.898-.2457-.6022-.6091-1.1493-1.0691-1.6092-.4599-.4599-1.007-.8234-1.6092-1.0691-.6023-.2456-1.2476-.3686-1.898-.3616Z" fill="#3264FF"/></svg>
