<svg width="140" height="37" viewBox="0 0 140 37" fill="none" xmlns="http://www.w3.org/2000/svg"><defs/><path d="M65.88 11.112a1.327 1.327 0 00-1.374 1.28v6.702c-3.188-2.56-7.865-2.048-10.425 1.14a7.501 7.501 0 00-1.629 4.654 7.41 7.41 0 007.284 7.54 7.41 7.41 0 007.54-7.284V12.485c0-.372-.14-.721-.396-.977a1.468 1.468 0 00-1-.396zM64.133 26.68a4.694 4.694 0 01-2.467 2.49 4.678 4.678 0 01-3.63 0c-1.117-.465-1.978-1.373-2.444-2.467a4.62 4.62 0 010-3.607 4.61 4.61 0 012.444-2.466 4.679 4.679 0 013.63 0 4.694 4.694 0 012.467 2.49 4.506 4.506 0 010 3.56zM81.355 19.652c-2.886-2.885-7.587-2.885-10.472 0a7.397 7.397 0 00-2.164 5.236 7.41 7.41 0 007.283 7.54 7.41 7.41 0 007.54-7.284v-.256c0-.977-.186-1.931-.558-2.839a7.07 7.07 0 00-1.63-2.397zm-.955 7.005a4.56 4.56 0 01-1 1.466 4.83 4.83 0 01-1.466 1 4.678 4.678 0 01-3.63 0 4.652 4.652 0 01-2.467-2.466 4.62 4.62 0 010-3.607c.465-1.117 1.35-1.978 2.467-2.467a4.678 4.678 0 013.63 0 4.562 4.562 0 011.466 1c.419.42.768.932 1 1.467.49 1.186.49 2.49 0 3.607zM112.002 18.838c0-.186-.047-.373-.117-.535-.07-.163-.186-.303-.302-.443a1.5 1.5 0 00-.443-.302 1.377 1.377 0 00-.535-.116c-.256 0-.512.07-.744.209l-7.912 5.143V12.508a1.393 1.393 0 00-1.373-1.396c-.768 0-1.373.605-1.397 1.373v18.407c0 .372.14.721.396.977.256.28.605.42.977.42.373 0 .722-.14.978-.42.256-.256.419-.605.395-.977v-4.77l1.606-1.048 6.12 6.865c.256.233.582.372.931.35.186 0 .372-.024.535-.117.163-.07.303-.163.442-.303.117-.14.233-.279.303-.442.07-.163.116-.349.116-.535a1.44 1.44 0 00-.372-.954l-5.678-6.4 5.538-3.607c.373-.232.559-.651.536-1.093zM89.033 21.584c.42-.42.931-.768 1.49-1.001a4.867 4.867 0 011.815-.372 4.66 4.66 0 011.606.279c.511.21 1 .489 1.419.86.256.21.582.303.908.303.372.024.744-.116 1-.395.256-.256.396-.629.396-1 0-.396-.163-.792-.489-1.048a6.983 6.983 0 00-4.84-1.792 7.429 7.429 0 00-7.423 7.423c0 4.096 3.304 7.4 7.376 7.424a7.428 7.428 0 004.864-1.792c.28-.256.442-.628.442-1.024a1.327 1.327 0 00-1.28-1.373h-.093a1.48 1.48 0 00-.884.28 4.82 4.82 0 01-1.397.86 4.76 4.76 0 01-1.605.28 4.448 4.448 0 01-1.815-.373c-.559-.233-1.047-.582-1.49-1a4.656 4.656 0 01-.023-6.563c.023.047.023.047.023.024zM139.484 18.396a2.55 2.55 0 00-.931-.559 5.562 5.562 0 00-1.233-.28c-.419-.046-.838-.069-1.257-.069a7.03 7.03 0 00-2.49.442 7.613 7.613 0 00-2.164 1.21v-.279c-.023-.768-.675-1.35-1.442-1.326a1.373 1.373 0 00-1.327 1.326v12.077c.023.768.675 1.35 1.443 1.327a1.373 1.373 0 001.326-1.327v-6.027c0-.628.117-1.233.373-1.815a4.21 4.21 0 011-1.466 4.832 4.832 0 011.466-1 4.869 4.869 0 011.815-.373c.629 0 1.234.117 1.816.326.186.093.372.14.581.14.186 0 .373-.024.536-.117.162-.07.302-.163.442-.302a1.5 1.5 0 00.302-.442c.07-.163.117-.35.117-.536.023-.349-.117-.674-.373-.93zM126.639 22.05a7.558 7.558 0 00-6.865-4.562c-4.096 0-7.4 3.305-7.423 7.4a7.428 7.428 0 0012.263 5.631l.047-.046a1.1 1.1 0 00.302-.35 1.41 1.41 0 00-.349-1.954 1.372 1.372 0 00-1.699.163c-.046.047-.186.163-.186.186l-.023.023c-.396.326-.838.606-1.326.768a4.159 4.159 0 01-1.606.256 4.631 4.631 0 01-2.793-.907 4.282 4.282 0 01-1.023-1.024 4.145 4.145 0 01-.652-1.326h10.472c.372 0 .721-.14.977-.396.279-.256.419-.605.396-.977.023-1.001-.163-1.978-.512-2.886zm-11.333 1.488c.14-.488.349-.93.652-1.326a4.28 4.28 0 011.023-1.024c.396-.28.838-.512 1.304-.675a4.491 4.491 0 011.466-.233c.488 0 1 .07 1.466.233.93.303 1.745.908 2.327 1.699.302.396.512.861.675 1.326h-8.913zM134.76 30.286a.964.964 0 00-.954.978c0 .535.442.954.978.954a.958.958 0 00.954-.954.969.969 0 00-.978-.978zm0 1.722a.755.755 0 01-.791-.721.756.756 0 01.721-.791.756.756 0 01.792.721v.047a.711.711 0 01-.698.744h-.024z" fill="#959DA5"/><path d="M134.993 31.264a.227.227 0 00.186-.232c0-.094-.023-.163-.093-.21a.741.741 0 00-.326-.07c-.116 0-.256 0-.372.024v.954h.209v-.373h.093c.117 0 .187.047.21.14.023.07.046.163.07.233h.232a.453.453 0 01-.069-.233c.023-.093-.047-.186-.14-.233zm-.279-.07h-.117v-.279h.117c.139 0 .209.07.209.14.023.093-.093.163-.209.14zM49.916 14.23c-.14-.116-1.396-1.07-4.096-1.07-.698 0-1.42.07-2.117.186-.512-3.56-3.468-5.282-3.584-5.375l-.721-.419-.466.675a9.95 9.95 0 00-1.28 2.979c-.488 2.024-.186 3.932.838 5.561-1.233.698-3.235.861-3.654.884H1.793a1.56 1.56 0 00-1.559 1.56 23.548 23.548 0 001.443 8.493c1.14 2.979 2.839 5.19 5.026 6.54 2.467 1.512 6.493 2.373 11.03 2.373 2.049 0 4.096-.186 6.12-.559a25.259 25.259 0 008.006-2.908 21.91 21.91 0 005.445-4.468c2.63-2.956 4.189-6.26 5.33-9.192h.465c2.862 0 4.63-1.14 5.608-2.118.651-.605 1.14-1.35 1.49-2.187l.209-.605-.49-.35z" fill="#959DA5"/><path d="M4.864 16.697h4.422c.209 0 .395-.163.395-.396v-3.956a.392.392 0 00-.395-.395H4.864a.392.392 0 00-.395.395v3.956c.023.233.186.396.395.396zM10.961 16.697h4.421c.21 0 .396-.163.396-.396v-3.956a.392.392 0 00-.396-.396h-4.421a.392.392 0 00-.396.396v3.956c.024.233.187.396.396.396zM17.174 16.697h4.422c.209 0 .395-.163.395-.396v-3.956a.392.392 0 00-.395-.395h-4.422a.392.392 0 00-.395.395v3.956c0 .233.163.396.395.396zM23.294 16.697h4.421c.21 0 .396-.163.396-.396v-3.956a.392.392 0 00-.396-.396h-4.421a.392.392 0 00-.396.396v3.956c0 .233.187.396.396.396zM10.961 11.042h4.421c.21 0 .396-.187.396-.396V6.69a.392.392 0 00-.396-.396h-4.421a.392.392 0 00-.396.396v3.956c.024.21.187.396.396.396zM17.174 11.041h4.422c.209 0 .395-.186.395-.395V6.69a.392.392 0 00-.395-.396h-4.422a.392.392 0 00-.395.396v3.956c0 .21.163.395.395.395zM23.294 11.041h4.421c.21 0 .396-.186.396-.395V6.69a.408.408 0 00-.396-.396h-4.421a.392.392 0 00-.396.396v3.956c0 .21.187.395.396.395zM23.294 5.364h4.422c.21 0 .395-.163.395-.396V1.012a.408.408 0 00-.395-.395h-4.422a.392.392 0 00-.395.395v3.956c0 .21.186.396.395.396zM29.461 16.697h4.422c.21 0 .395-.163.395-.396v-3.956a.392.392 0 00-.395-.395H29.46a.392.392 0 00-.395.395v3.956c.023.233.186.396.395.396z" fill="#959DA5"/></svg>