<svg width="40" height="40" viewBox="0 0 40 40" fill="none" xmlns="http://www.w3.org/2000/svg">
<path fill-rule="evenodd" clip-rule="evenodd" d="M8.57122 11.2014V4.78575C8.57122 3.72063 9.43467 2.85718 10.4998 2.85718H13.7855C14.8506 2.85718 15.7141 3.72063 15.7141 4.78575V5.67967C17.0606 5.23815 18.5014 5.00003 19.9998 5.00003C21.4969 5.00003 22.938 5.24248 24.2855 5.69159V4.78575C24.2855 3.72063 25.149 2.85718 26.2141 2.85718H29.4998C30.5649 2.85718 31.4284 3.72063 31.4284 4.78575V11.2841C32.7596 13.3778 33.5426 15.87 33.5712 18.5639L33.5713 18.5715L33.5712 24.2857H35.7141C36.0727 24.2857 36.4539 24.389 36.7452 24.679C37.0371 24.9695 37.1426 25.3516 37.1426 25.7143V29.2857C37.1426 31.2444 35.5527 32.8113 33.5878 32.857C33.5322 32.8583 33.4779 32.8532 33.4256 32.8423C32.8506 35.307 30.6396 37.1429 27.9998 37.1429H11.9998C9.35999 37.1429 7.14898 35.307 6.57396 32.8423C6.52695 32.8521 6.47825 32.8572 6.42836 32.8572C4.45592 32.8572 2.85693 31.2582 2.85693 29.2857V25.7143C2.85693 25.3551 2.95929 24.9723 3.25137 24.6802C3.54344 24.3881 3.92625 24.2857 4.2855 24.2857H6.42836V18.5715L6.42845 18.5225C6.01431 18.3738 5.718 17.9766 5.718 17.51C5.718 16.985 6.09296 16.5479 6.5888 16.4537C6.88326 14.5335 7.5727 12.7556 8.57122 11.2014ZM9.99979 4.78575C9.99979 4.50961 10.2236 4.28575 10.4998 4.28575H13.7855C14.0616 4.28575 14.2855 4.50961 14.2855 4.78575V6.2398C12.6547 6.98883 11.2004 8.0509 9.99979 9.35303V4.78575ZM9.81824 11.9044C9.8636 11.8537 9.90182 11.7964 9.93131 11.7342C12.1101 8.51343 15.7997 6.42861 19.9998 6.42861C26.6442 6.42861 32.0684 11.7707 32.1426 18.5752V31.5715C32.1426 33.8595 30.2878 35.7143 27.9998 35.7143H11.9998C9.71175 35.7143 7.85693 33.8595 7.85693 31.5715V18.5715C7.85693 16.0934 8.57707 13.8081 9.81824 11.9044ZM29.9998 9.41538C28.7984 8.09705 27.3438 7.02054 25.7141 6.26059V4.78575C25.7141 4.50961 25.9379 4.28575 26.2141 4.28575H29.4998C29.7759 4.28575 29.9998 4.50961 29.9998 4.78575V9.41538ZM35.7141 29.2857C35.7141 30.4325 34.7832 31.3917 33.5712 31.4284V28.5761H35.7141V29.2857ZM35.7141 27.1475V25.7143H33.5712V27.1475H35.7141ZM6.42836 31.4286V28.5763H4.2855V29.2857C4.2855 30.4692 5.24489 31.4286 6.42836 31.4286ZM6.42836 25.7143V27.1478H4.2855V25.7143H6.42836Z" fill="#9DF4D3"/>
<path fill-rule="evenodd" clip-rule="evenodd" d="M21.1286 22.0072C21.2501 22.0929 21.4001 22.1429 21.5501 22.1429C21.6215 22.1429 21.6929 22.1357 21.7644 22.1072C23.6644 21.5286 25.0929 20.4715 26.0144 18.9786C26.7715 17.75 27.1429 16.4857 27.1429 15.1286C27.1429 12.6929 26.0644 11.0357 25.1644 10.0786C23.8286 8.66432 21.9501 7.85718 20.0001 7.85718C18.0572 7.85718 16.1001 8.71432 14.7715 10.15C13.9001 11.0929 12.8572 12.7215 12.8572 15.1286C12.8572 16.6715 13.3572 18.1857 14.2501 19.4C15.2215 20.6929 16.5215 21.5857 18.1286 22.0572C18.3429 22.1215 18.5786 22.0786 18.7572 21.9429C18.9358 21.8072 19.0429 21.5929 19.0429 21.3715V19.55C19.0429 19.3643 19.0929 19.2 19.1929 19.0429C19.3358 18.8286 19.3501 18.5643 19.2358 18.3357C19.1286 18.1143 18.9001 17.9643 18.6501 17.9429C17.8786 17.8857 16.5715 17.5072 16.5715 15.5857C16.5715 15.0429 16.7215 14.6286 17.0286 14.3072C17.2072 14.1286 17.2715 13.8643 17.2001 13.6215C17.1358 13.3715 17.1001 13.1072 17.1072 12.8215C17.2715 12.8857 17.5144 13 17.8786 13.2215C18.0644 13.3357 18.3001 13.3572 18.5001 13.2857C19.2715 13 20.2644 13.0072 21.4572 13.3143C21.7286 13.3857 21.9786 13.3215 22.1572 13.1072C22.2786 12.9929 22.6072 12.8072 22.8358 12.7286C22.8358 12.8929 22.8144 13.2 22.7572 13.7429C22.7358 13.9572 22.8072 14.1715 22.9572 14.3215C23.1858 14.55 23.3072 15 23.3072 15.6072C23.3072 16.8857 22.6429 17.6143 21.1429 17.9643C20.9215 18.0143 20.7358 18.1643 20.6501 18.3715C20.5644 18.5786 20.5715 18.8143 20.6786 19.0072C20.7858 19.2072 20.8358 19.3857 20.8358 19.55C20.8286 19.8429 20.8286 20.4715 20.8358 21.4357C20.8358 21.6643 20.9501 21.8715 21.1286 22.0072ZM22.2644 19.5786C22.2715 19.4286 22.2572 19.2786 22.2286 19.1286C24.2858 18.3715 24.7358 16.8286 24.7358 15.6C24.7358 14.7643 24.5572 14.0857 24.2072 13.5929C24.2786 12.7857 24.2644 12.4857 24.2358 12.3143C24.1572 11.7929 23.8429 11.4286 23.3786 11.3C22.7286 11.1286 21.9286 11.5143 21.4572 11.8429C20.2786 11.5857 19.2358 11.5857 18.3429 11.8357C17.4286 11.3215 16.8144 11.2072 16.3215 11.4429C16.1144 11.5429 15.7572 11.8072 15.7001 12.4072C15.6572 12.8286 15.6715 13.2357 15.7429 13.6215C15.3501 14.1643 15.1501 14.8215 15.1501 15.5786C15.1501 17.6929 16.3572 18.7929 17.6501 19.1929C17.6358 19.3143 17.6286 19.4357 17.6286 19.5572V20.35C16.7358 19.9357 16.0001 19.3429 15.4072 18.5429C14.6929 17.5857 14.2858 16.3429 14.2858 15.1286C14.2858 13.1857 15.1215 11.8786 15.8215 11.1286C16.8858 9.97146 18.4501 9.28575 20.0001 9.28575C21.5572 9.28575 23.0572 9.93575 24.1144 11.0643C24.8429 11.8357 25.7072 13.1643 25.7072 15.1357C25.7072 16.2215 25.4072 17.2357 24.7929 18.2357C24.2001 19.1929 23.3644 19.9143 22.2572 20.4072C22.2572 20.1738 22.2598 19.9796 22.2619 19.8263C22.2632 19.7262 22.2644 19.6435 22.2644 19.5786Z" fill="#64ACFF"/>
<path fill-rule="evenodd" clip-rule="evenodd" d="M10.7144 26.2143C10.7144 25.1492 11.5778 24.2857 12.6429 24.2857H27.3572C28.4223 24.2857 29.2858 25.1492 29.2858 26.2143V32.3572C29.2858 33.4223 28.4223 34.2857 27.3572 34.2857H12.6429C11.5778 34.2857 10.7144 33.4223 10.7144 32.3572V26.2143ZM12.6429 25.7143C12.3668 25.7143 12.1429 25.9382 12.1429 26.2143V27.1488H27.8572V26.2143C27.8572 25.9382 27.6334 25.7143 27.3572 25.7143H12.6429ZM12.1429 32.3572V28.5773H27.8572V32.3572C27.8572 32.6333 27.6334 32.8572 27.3572 32.8572H12.6429C12.3668 32.8572 12.1429 32.6333 12.1429 32.3572Z" fill="#64ACFF"/>
</svg>
