<svg xmlns="http://www.w3.org/2000/svg" xmlns:xlink="http://www.w3.org/1999/xlink" width="500" zoomAndPan="magnify" viewBox="0 0 375 374.999991" height="500" preserveAspectRatio="xMidYMid meet" version="1.0"><defs><clipPath id="c6d6128ca4"><path d="M 0 186.25 L 375 186.25 L 375 374.996094 L 0 374.996094 Z M 0 186.25 " clip-rule="nonzero"/></clipPath><clipPath id="459306b34b"><path d="M 0.226562 187.5 C 0.226562 290.921875 84.070312 374.761719 187.492188 374.761719 C 290.914062 374.761719 374.761719 290.921875 374.761719 187.492188 L 260.453125 186.5625 C 260.453125 226.566406 228.027344 258.992188 188.023438 258.992188 C 148.019531 258.992188 115.597656 226.566406 115.597656 186.5625 Z M 0.226562 187.5 " clip-rule="nonzero"/></clipPath><clipPath id="76ac7b5e85"><path d="M 0 186.25 L 375 186.25 L 375 374.996094 L 0 374.996094 Z M 0 186.25 " clip-rule="nonzero"/></clipPath><clipPath id="328a65f028"><path d="M 374.996094 187.265625 L 374.996094 187.492188 C 374.996094 212.800781 370.039062 237.359375 360.261719 260.472656 C 350.816406 282.800781 337.296875 302.851562 320.078125 320.070312 C 302.859375 337.292969 282.808594 350.808594 260.480469 360.253906 C 237.359375 370.039062 212.808594 374.996094 187.492188 374.996094 C 162.175781 374.996094 137.625 370.039062 114.507812 360.261719 C 92.183594 350.816406 72.132812 337.296875 54.910156 320.078125 C 37.691406 302.859375 24.171875 282.808594 14.726562 260.480469 C 4.953125 237.367188 -0.00390625 212.808594 -0.00390625 187.5 L -0.00390625 187.273438 L 0.21875 187.273438 L 115.828125 186.347656 L 115.828125 186.578125 C 115.828125 205.863281 123.339844 223.996094 136.972656 237.628906 C 150.609375 251.269531 168.738281 258.773438 188.023438 258.773438 C 207.308594 258.773438 225.445312 251.261719 239.074219 237.628906 C 252.714844 223.992188 260.21875 205.863281 260.21875 186.578125 L 260.21875 186.347656 L 260.453125 186.347656 Z M 0.453125 187.722656 C 0.484375 212.898438 5.425781 237.316406 15.148438 260.300781 C 24.570312 282.578125 38.050781 302.574219 55.234375 319.757812 C 72.410156 336.929688 92.414062 350.421875 114.6875 359.84375 C 137.75 369.59375 162.242188 374.539062 187.492188 374.539062 C 212.742188 374.539062 237.238281 369.59375 260.292969 359.84375 C 282.570312 350.421875 302.566406 336.9375 319.75 319.757812 C 336.925781 302.582031 350.414062 282.578125 359.835938 260.300781 C 369.558594 237.316406 374.5 212.898438 374.53125 187.722656 L 260.675781 186.796875 C 260.617188 206.121094 253.066406 224.273438 239.398438 237.945312 C 225.675781 251.664062 207.429688 259.222656 188.023438 259.222656 C 168.617188 259.222656 150.371094 251.664062 136.648438 237.945312 C 122.980469 224.273438 115.429688 206.121094 115.371094 186.796875 Z M 0.453125 187.722656 " clip-rule="nonzero"/></clipPath><clipPath id="f464a9840b"><path d="M 0 0 L 188.746094 0 L 188.746094 374.832031 L 0 374.832031 Z M 0 0 " clip-rule="nonzero"/></clipPath><clipPath id="87da8379d9"><path d="M 187.496094 -0.183594 C 84.074219 -0.183594 0.230469 83.660156 0.230469 187.082031 C 0.230469 290.503906 84.074219 374.351562 187.503906 374.351562 L 188.433594 260.039062 C 148.429688 260.039062 116.003906 227.617188 116.003906 187.613281 C 116.003906 147.609375 148.429688 115.183594 188.433594 115.183594 Z M 187.496094 -0.183594 " clip-rule="nonzero"/></clipPath><clipPath id="89f46b14e5"><path d="M 0 0 L 188.746094 0 L 188.746094 374.832031 L 0 374.832031 Z M 0 0 " clip-rule="nonzero"/></clipPath><clipPath id="d688237095"><path d="M 187.726562 374.585938 L 187.503906 374.585938 C 162.195312 374.585938 137.636719 369.625 114.523438 359.851562 C 92.195312 350.40625 72.144531 336.886719 54.925781 319.667969 C 37.703125 302.449219 24.183594 282.398438 14.742188 260.070312 C 4.957031 236.949219 0 212.398438 0 187.082031 C 0 161.765625 4.957031 137.210938 14.734375 114.097656 C 24.175781 91.769531 37.695312 71.71875 54.917969 54.5 C 72.136719 37.28125 92.1875 23.761719 114.515625 14.316406 C 137.628906 4.542969 162.1875 -0.414062 187.496094 -0.414062 L 187.722656 -0.414062 L 187.722656 -0.191406 L 188.648438 115.417969 L 188.417969 115.417969 C 169.132812 115.417969 150.996094 122.929688 137.367188 136.5625 C 123.726562 150.199219 116.222656 168.324219 116.222656 187.613281 C 116.222656 206.898438 123.734375 225.03125 137.367188 238.664062 C 151.003906 252.304688 169.132812 259.808594 188.417969 259.808594 L 188.648438 259.808594 L 188.648438 260.039062 Z M 187.273438 0.0429688 C 162.097656 0.0703125 137.679688 5.015625 114.695312 14.738281 C 92.417969 24.160156 72.421875 37.640625 55.238281 54.824219 C 38.0625 71.996094 24.574219 92.003906 15.152344 114.277344 C 5.398438 137.339844 0.457031 161.832031 0.457031 187.082031 C 0.457031 212.328125 5.398438 236.828125 15.152344 259.882812 C 24.574219 282.160156 38.054688 302.15625 55.238281 319.339844 C 72.414062 336.511719 92.417969 350.003906 114.695312 359.425781 C 137.679688 369.148438 162.097656 374.089844 187.273438 374.121094 L 188.199219 260.265625 C 168.875 260.207031 150.71875 252.65625 137.050781 238.984375 C 123.328125 225.265625 115.773438 207.019531 115.773438 187.613281 C 115.773438 168.207031 123.328125 149.960938 137.050781 136.238281 C 150.71875 122.570312 168.875 115.019531 188.199219 114.960938 Z M 187.273438 0.0429688 " clip-rule="nonzero"/></clipPath><clipPath id="91018dc826"><path d="M 220 0 L 375 0 L 375 155 L 220 155 Z M 220 0 " clip-rule="nonzero"/></clipPath><clipPath id="2559e9d31f"><path d="M 374.992188 64.644531 L 252.484375 187.152344 L 187.785156 122.453125 L 310.289062 -0.0546875 Z M 374.992188 64.644531 " clip-rule="nonzero"/></clipPath><clipPath id="852170cb00"><path d="M 374.992188 64.644531 L 251.046875 188.585938 L 185.1875 122.726562 L 309.128906 -1.214844 Z M 374.992188 64.644531 " clip-rule="nonzero"/></clipPath><clipPath id="68ff543dfb"><path d="M 285.535156 154.101562 L 374.992188 64.644531 L 310.289062 -0.0546875 L 220.835938 89.402344 L 220.132812 154.800781 L 285.535156 154.101562 " clip-rule="nonzero"/></clipPath></defs><g clip-path="url(#c6d6128ca4)"><g clip-path="url(#459306b34b)"><path fill="#ff5656" d="M -0.00390625 374.996094 L -0.00390625 186.25 L 375.242188 186.25 L 375.242188 374.996094 Z M -0.00390625 374.996094 " fill-opacity="1" fill-rule="nonzero"/></g></g><g clip-path="url(#76ac7b5e85)"><g clip-path="url(#328a65f028)"><path fill="#ff5656" d="M -0.00390625 374.996094 L -0.00390625 186.25 L 375.242188 186.25 L 375.242188 374.996094 Z M -0.00390625 374.996094 " fill-opacity="1" fill-rule="nonzero"/></g></g><g clip-path="url(#f464a9840b)"><g clip-path="url(#87da8379d9)"><path fill="#ff5656" d="M 0 -0.414062 L 188.746094 -0.414062 L 188.746094 374.832031 L 0 374.832031 Z M 0 -0.414062 " fill-opacity="1" fill-rule="nonzero"/></g></g><g clip-path="url(#89f46b14e5)"><g clip-path="url(#d688237095)"><path fill="#ff5656" d="M 0 -0.414062 L 188.746094 -0.414062 L 188.746094 374.832031 L 0 374.832031 Z M 0 -0.414062 " fill-opacity="1" fill-rule="nonzero"/></g></g><g clip-path="url(#91018dc826)"><g clip-path="url(#2559e9d31f)"><g clip-path="url(#852170cb00)"><g clip-path="url(#68ff543dfb)"><path stroke-linecap="butt" transform="matrix(-0.530653, 0.530653, -0.528705, -0.528705, 374.990399, 64.645719)" fill="none" stroke-linejoin="miter" d="M 168.576308 -0.000568105 L -0.00280421 -0.000568105 L 0.000876392 122.376143 L 168.576308 122.372449 L 230.859521 61.189635 L 168.576308 -0.000568105 " stroke="#ff5656" stroke-width="50" stroke-opacity="1" stroke-miterlimit="4"/></g></g></g></g></svg>