<?xml version="1.0" encoding="utf-8"?>
<!-- Generator: Adobe Illustrator 16.0.0, SVG Export Plug-In . SVG Version: 6.00 Build 0)  -->
<!DOCTYPE svg PUBLIC "-//W3C//DTD SVG 1.1//EN" "http://www.w3.org/Graphics/SVG/1.1/DTD/svg11.dtd">
<svg version="1.1" xmlns="http://www.w3.org/2000/svg" xmlns:xlink="http://www.w3.org/1999/xlink" x="0px" y="0px"
	 viewBox="0 0 208.783 134.122" enable-background="new 0 0 208.783 134.122"
	 xml:space="preserve">
<g id="Layer_2">
	<path fill="#167594" stroke="#FFFFFF" stroke-width="8" stroke-miterlimit="10" d="M204.232,108.164
		c-0.329-1.949-1.042-3.818-1.984-5.549c-1.955-3.543-5.168-6.379-8.94-7.85c-4.616-1.885-10.029-1.663-14.492,0.543
		c-1.811,0.896-3.458,2.103-4.9,3.513c-0.193-0.458-0.411-0.902-0.651-1.335c1.217-1.948,1.668-4.406,1.016-6.629
		c-0.558-2.051-1.989-3.808-3.806-4.887c-2.263-1.367-5.211-1.502-7.58-0.324c-1.956,0.963-3.529,2.705-4.24,4.771l-0.017,0.006
		c-0.812,2.335-0.409,4.987,0.89,7.069c-1.125,1.928-1.406,4.22-1.313,6.415c0.013,3.469-0.003,6.938,0.006,10.406
		c-2.086-1.056-4.632-0.969-6.729,0.01c-0.008-0.776,0.018-1.552-0.013-2.326c0.083-3.097,0.017-6.309-1.166-9.222
		c-0.693-1.857-1.81-3.549-3.21-4.95c-0.553-0.549-1.152-1.05-1.777-1.514c0.296-0.761,0.81-1.399,1.208-2.104
		c0.638-1.237,1.255-2.488,1.724-3.801c1.899-5.348,2.143-11.254,0.792-16.76l-0.052,0.021c0.06-0.194-0.08-0.405-0.104-0.601
		c-0.331-1.171-0.716-2.33-1.203-3.446c-0.622-1.496-1.417-2.915-2.294-4.274c-2.19-3.372-5.037-6.335-8.411-8.537
		c-2.769-1.827-5.892-3.082-9.111-3.849c0.483-0.919,1.074-1.783,1.476-2.743c1.72-3.83,1.934-8.239,0.953-12.292
		c-0.418-1.679-1.065-3.31-2.008-4.765c-2.177-3.614-5.502-6.562-9.431-8.133c-2.067-0.836-4.299-1.213-6.521-1.269
		c-2.294-0.052-4.605,0.284-6.764,1.073c-2.167,0.785-4.171,2.001-5.89,3.533c-0.297-0.493-0.547-1.01-0.772-1.538
		c-2.329-5.11-5.873-9.656-10.193-13.239c-2.211-1.83-4.606-3.445-7.159-4.762c-4.237-2.2-8.922-3.504-13.675-3.9
		c-2.559-0.218-5.136-0.193-7.69,0.06c-5.042,0.485-9.979,2.047-14.381,4.554c-6.67,3.856-12.208,9.684-15.622,16.6
		c-0.09,0.177-0.19,0.354-0.232,0.549l0.022,0.082l-0.089,0.033c-0.647,1.309-1.16,2.691-1.617,4.081
		c-1.534,4.833-2.056,9.971-1.66,15.021c-2.63,1.256-5.123,2.808-7.357,4.684c-2.085,1.749-3.952,3.764-5.492,6.011
		c-1.456,1.993-2.714,4.137-3.67,6.414l-0.021-0.001c-1.512,3.583-2.428,7.426-2.55,11.318c-0.261,5.434,0.703,10.954,3.055,15.876
		c0.559,1.162,1.197,2.287,1.876,3.382c0.425,0.693,0.99,1.299,1.345,2.036c-0.11,0.178-0.35,0.235-0.518,0.355
		c-3.688,2.146-6.53,5.687-7.853,9.742l-0.014-0.005c-1.682,5.171-0.898,11.095,2.195,15.586c0.897,1.316,1.971,2.516,3.188,3.546
		c2.985,2.568,6.849,4.058,10.776,4.244c0.874,0.117,1.749,0.007,2.623-0.051c2.558-0.232,5.075-1.007,7.282-2.328
		c1.388-0.797,2.582-1.878,3.742-2.969c0.353,0.852,0.81,1.659,1.388,2.378c0.496,0.584,1.075,1.094,1.719,1.506
		c3.171,2.061,7.808,1.587,10.375-1.235c2.596,2.815,7.283,3.342,10.432,1.158c1.708-1.158,2.86-3.005,3.405-4.978
		c0.26,0.834,0.526,1.673,0.982,2.425c0.345,0.563,0.741,1.097,1.208,1.564c2.267,2.337,6.024,4.225,8.976,2.9
		c1.983-0.847,3.503-1.344,4.247-3.344h0.014c0.08,0,0.159-1.752,0.239-2.001c0.045,0.008,0.137-0.606,0.182-0.599
		c0.058,0.193,0.118,0.077,0.176,0.274c0.427,1.182,1.097,2.126,2.002,3.005c2.323,2.283,6.087,2.823,9.032,1.442
		c1.851-0.833,3.287-2.493,4.03-4.367c1.24,1.132,2.534,2.211,4.017,3.017c4.432,2.483,9.907,2.872,14.706,1.265
		c0.807,0.286,1.62,0.578,2.479,0.674c2.49,0.363,5.224-0.37,6.955-2.261c2.506,2.52,6.707,3.075,9.801,1.349
		c1.947-1.106,3.281-3.097,3.839-5.239c0.421,1.329,0.998,2.642,1.964,3.67c2.945,3.316,8.736,3.415,11.767,0.163
		c1.539,1.562,3.738,2.442,5.93,2.383c2.031-0.016,4.022-0.926,5.392-2.42c0.707,0.593,1.413,1.212,2.253,1.614
		c2.457,1.16,5.488,1.084,7.843-0.293c1.558-0.887,2.678-2.387,3.361-4.019c1.018,0.965,2.091,1.889,3.292,2.623
		c2.161,1.377,4.642,2.222,7.176,2.566c1.089,0.104,2.188,0.282,3.284,0.129c1.679-0.104,3.347-0.45,4.907-1.086
		c0.713-0.271,1.365-0.669,2.07-0.96c1.98-0.869,3.81-2.131,5.22-3.783c1.543-1.655,2.73-3.633,3.504-5.758
		c0.763-2.021,1.06-4.181,1.162-6.326C204.465,110.175,204.414,109.161,204.232,108.164z"/>
</g>
<g id="Layer_1_copy">
	<path fill="#168B96" d="M204.232,108.164c-0.329-1.949-1.042-3.818-1.984-5.549c-1.955-3.543-5.168-6.379-8.94-7.85
		c-4.616-1.885-10.029-1.663-14.492,0.543c-1.811,0.896-3.458,2.103-4.9,3.513c-0.193-0.458-0.411-0.902-0.651-1.335
		c1.217-1.948,1.668-4.406,1.016-6.629c-0.558-2.051-1.989-3.808-3.806-4.887c-2.263-1.367-5.211-1.502-7.58-0.324
		c-1.956,0.963-3.529,2.705-4.24,4.771l-0.017,0.006c-0.812,2.335-0.409,4.987,0.89,7.069c-1.125,1.928-1.406,4.22-1.313,6.415
		c0.013,3.469-0.003,6.938,0.006,10.406c-2.086-1.056-4.632-0.969-6.729,0.01c-0.008-0.776,0.018-1.552-0.013-2.326
		c0.083-3.097,0.017-6.309-1.166-9.222c-0.693-1.857-1.81-3.549-3.21-4.95c-0.553-0.549-1.152-1.05-1.777-1.514
		c0.296-0.761,0.81-1.399,1.208-2.104c0.638-1.237,1.255-2.488,1.724-3.801c1.899-5.348,2.143-11.254,0.792-16.76l-0.052,0.021
		c0.06-0.194-0.08-0.405-0.104-0.601c-0.331-1.171-0.716-2.33-1.203-3.446c-0.622-1.496-1.417-2.915-2.294-4.274
		c-2.19-3.372-5.037-6.335-8.411-8.537c-2.769-1.827-5.892-3.082-9.111-3.849c0.483-0.919,1.074-1.783,1.476-2.743
		c1.72-3.83,1.934-8.239,0.953-12.292c-0.418-1.679-1.065-3.31-2.008-4.765c-2.177-3.614-5.502-6.562-9.431-8.133
		c-2.067-0.836-4.299-1.213-6.521-1.269c-2.294-0.052-4.605,0.284-6.764,1.073c-2.167,0.785-4.172,2.001-5.89,3.533
		c-0.297-0.493-0.547-1.01-0.772-1.538c-2.329-5.11-5.873-9.656-10.193-13.239c-2.211-1.83-4.606-3.445-7.159-4.762
		c-4.237-2.2-8.922-3.504-13.675-3.9c-2.559-0.218-5.136-0.193-7.69,0.06c-5.042,0.485-9.979,2.047-14.381,4.554
		c-6.67,3.856-12.208,9.684-15.622,16.6c-0.09,0.177-0.19,0.354-0.232,0.549l0.022,0.082l-0.089,0.033
		c-0.647,1.309-1.16,2.691-1.617,4.081c-1.534,4.833-2.056,9.971-1.66,15.021c-2.63,1.256-5.123,2.808-7.357,4.684
		c-2.085,1.749-3.952,3.764-5.492,6.011c-1.456,1.993-2.714,4.137-3.67,6.414l-0.021-0.001c-1.512,3.583-2.428,7.426-2.55,11.318
		c-0.261,5.434,0.703,10.954,3.055,15.876c0.559,1.162,1.197,2.287,1.876,3.382c0.425,0.693,0.99,1.299,1.345,2.036
		c-0.11,0.178-0.35,0.235-0.518,0.355c-3.688,2.146-6.53,5.687-7.853,9.742l-0.014-0.005c-1.682,5.171-0.898,11.095,2.195,15.586
		c0.897,1.316,1.971,2.516,3.188,3.546c2.985,2.568,6.849,4.058,10.776,4.244c0.874,0.117,1.749,0.007,2.623-0.051
		c2.558-0.232,5.075-1.007,7.282-2.328c1.388-0.797,2.582-1.878,3.742-2.969c0.353,0.852,0.81,1.659,1.388,2.378
		c0.496,0.584,1.075,1.094,1.719,1.506c3.171,2.061,7.808,1.587,10.375-1.235c2.596,2.815,7.283,3.342,10.432,1.158
		c1.708-1.158,2.86-3.005,3.405-4.978c0.26,0.834,0.526,1.673,0.982,2.425c0.345,0.563,0.741,1.097,1.208,1.564
		c2.267,2.337,6.024,2.725,8.976,1.4c1.983-0.847,3.503-2.844,4.247-4.844h0.014c0.08,0,0.159-0.252,0.239-0.501
		c0.045,0.008,0.137,0.144,0.182,0.151c0.058,0.193,0.118,0.452,0.176,0.649c0.427,1.182,1.097,2.313,2.002,3.192
		c2.323,2.283,6.087,2.917,9.032,1.536c1.851-0.833,3.287-2.446,4.03-4.32c1.24,1.132,2.534,2.234,4.017,3.04
		c4.432,2.483,9.907,2.884,14.706,1.276c0.807,0.286,1.62,0.584,2.479,0.68c2.49,0.363,5.224-0.364,6.955-2.255
		c2.506,2.52,6.707,3.075,9.801,1.349c1.947-1.106,3.281-3.097,3.839-5.239c0.421,1.329,0.998,2.642,1.964,3.67
		c2.945,3.316,8.736,3.415,11.767,0.163c1.539,1.562,3.738,2.442,5.93,2.383c2.031-0.016,4.022-0.926,5.392-2.42
		c0.707,0.593,1.413,1.212,2.253,1.614c2.457,1.16,5.488,1.084,7.843-0.293c1.558-0.887,2.678-2.387,3.361-4.019
		c1.018,0.965,2.091,1.889,3.292,2.623c2.161,1.377,4.642,2.222,7.176,2.566c1.089,0.104,2.188,0.282,3.284,0.129
		c1.679-0.104,3.347-0.45,4.907-1.086c0.713-0.271,1.365-0.669,2.07-0.96c1.98-0.869,3.81-2.131,5.22-3.783
		c1.543-1.655,2.73-3.633,3.504-5.758c0.763-2.021,1.06-4.181,1.162-6.326C204.465,110.175,204.414,109.161,204.232,108.164z"/>
</g>
<g id="Layer_1">
	<g>
		<path fill="#17B09B" d="M60.196,4.988c2.555-0.253,5.132-0.278,7.69-0.06c-0.655,0.802-1.409,1.522-2.204,2.185
			c-0.733,0.643-1.35,1.408-2.106,2.024c-0.808,0.651-1.454,1.474-2.26,2.126c-0.81,0.652-1.444,1.491-2.26,2.136
			c-0.813,0.647-1.442,1.488-2.253,2.135c-0.811,0.645-1.451,1.473-2.256,2.125c-0.807,0.656-1.453,1.479-2.261,2.133
			c-0.806,0.651-1.445,1.48-2.251,2.131c-0.297,0.241-0.582,0.495-0.883,0.731c-0.554,0.259-1.132,0.461-1.705,0.673
			c-3.284,1.243-6.576,2.463-9.863,3.702c-0.66,0.242-1.304,0.539-1.993,0.692c-1.873-0.296-3.729-0.709-5.609-0.949l-0.022-0.082
			c0.042-0.195,0.142-0.372,0.232-0.549c3.414-6.916,8.952-12.744,15.622-16.6C50.217,7.035,55.154,5.473,60.196,4.988z"/>
	</g>
	<g>
		<path fill="#17A99A" d="M67.887,4.928c4.753,0.396,9.438,1.7,13.675,3.9c2.553,1.317,4.948,2.932,7.159,4.762
			c-1.328,3.461-2.566,6.955-3.872,10.425c-0.197,0.558-0.345,1.146-0.702,1.631c-1.233-0.637-2.877,0.01-3.376,1.294
			c-0.336,0.916-0.624,1.85-0.935,2.775c-1.6-0.459-3.238-0.767-4.855-1.162c-8.149-1.862-16.292-3.758-24.44-5.627
			c-0.458-0.113-0.918-0.229-1.388-0.271c0.301-0.236,0.585-0.49,0.883-0.731c0.806-0.651,1.445-1.48,2.251-2.131
			c0.808-0.654,1.454-1.478,2.261-2.133c0.805-0.652,1.445-1.48,2.256-2.125c0.811-0.647,1.44-1.488,2.253-2.135
			c0.816-0.646,1.451-1.484,2.26-2.136c0.806-0.652,1.453-1.475,2.26-2.126c0.756-0.617,1.373-1.381,2.106-2.024
			C66.478,6.45,67.231,5.73,67.887,4.928z"/>
	</g>
	<g>
		<path fill="#16A79A" d="M88.721,13.59c4.32,3.583,7.864,8.129,10.193,13.239c-1.557,0.406-3.144,0.68-4.713,1.029
			c-2.729,0.578-5.458,1.154-8.187,1.729c-0.473,0.112-0.95,0.197-1.433,0.253c0.201-0.661,0.435-1.31,0.618-1.976
			c0.234-0.875-0.277-1.807-1.052-2.22c0.357-0.485,0.505-1.073,0.702-1.631C86.155,20.545,87.394,17.051,88.721,13.59z"/>
	</g>
	<g>
		<g>
			<path fill="#179D99" d="M47.448,23.328c0.573-0.212,1.151-0.414,1.705-0.673c0.47,0.041,0.93,0.158,1.388,0.271
				c8.148,1.869,16.291,3.766,24.44,5.627c1.617,0.395,3.255,0.703,4.855,1.162c-0.639,1.967-1.265,3.938-1.951,5.891
				c-9.308,5.173-18.621,10.335-27.939,15.486c-2.92-0.687-5.826-1.434-8.743-2.131c-1.29-0.312-2.74,0.603-2.966,1.92
				c-0.249,0.989,0.414,2.089,1.397,2.342c2.867,0.764,5.754,1.453,8.628,2.186c0.267,0.042,0.375,0.31,0.499,0.514
				c1.563,2.871,3.188,5.71,4.735,8.59c-0.761,0.411-1.513,0.841-2.271,1.257c-0.855-0.177-1.728-0.211-2.593-0.303
				c-6.012-0.54-12.023-1.096-18.034-1.639c-0.283-0.026-0.562-0.082-0.844-0.112c-0.071-0.007-0.217-0.024-0.288-0.033
				c2.025-11.99,4.105-23.971,6.125-35.962c0.689-0.153,1.333-0.45,1.993-0.692C40.872,25.791,44.164,24.57,47.448,23.328z
				 M61.575,28.267c-2.794,0.305-5.425,1.604-7.51,3.465c-1.986,1.777-3.287,4.267-3.743,6.882
				c-0.384,2.346,0.005,4.839,1.197,6.904c7.072-3.854,14.09-7.809,21.146-11.691c-0.796-1.489-1.97-2.78-3.383-3.706
				C67.029,28.637,64.251,28.003,61.575,28.267z"/>
		</g>
	</g>
	<g>
		<path fill="#169F99" d="M105.576,24.834c2.158-0.79,4.47-1.125,6.764-1.073c2.223,0.056,4.454,0.433,6.521,1.269
			c3.929,1.571,7.254,4.519,9.431,8.133c0.942,1.456,1.59,3.086,2.008,4.765c-1.406,0.937-2.712,2.016-4.08,3.009
			c-3.307,2.465-6.589,4.964-9.907,7.415l-0.103,0.07c-0.364-0.131-0.718-0.288-1.049-0.49c-8.96-4.785-17.908-9.592-26.871-14.375
			c-1.381-0.776-2.815-1.456-4.173-2.275c0.158-0.479,0.308-0.96,0.463-1.44c0.483-0.056,0.96-0.142,1.433-0.253
			c2.729-0.575,5.458-1.152,8.187-1.729c1.569-0.35,3.157-0.623,4.713-1.029c0.226,0.528,0.475,1.045,0.772,1.538
			C101.404,26.835,103.409,25.619,105.576,24.834z"/>
	</g>
	<g>
		<path fill="#FFFFFF" d="M80.771,26.939c0.499-1.284,2.143-1.931,3.376-1.294c0.775,0.414,1.286,1.345,1.052,2.22
			c-0.183,0.666-0.417,1.315-0.618,1.976c-0.155,0.48-0.306,0.961-0.463,1.44c-0.568,1.775-1.153,3.544-1.719,5.319
			c0.622,1.438,1.481,2.753,2.22,4.131c0.932,1.661,1.798,3.361,2.801,4.981c2.399-1.344,4.815-2.657,7.209-4.01
			c1.087-0.67,2.799-0.392,3.371,0.824c0.494,1.104-0.121,2.462-1.151,3.015c-2.431,1.364-4.88,2.697-7.311,4.062
			c1.507,2.749,2.604,5.79,2.747,8.945c0.012,0.398,0.007,0.797,0.005,1.197c3.491,0.88,6.996,1.708,10.487,2.591
			c1.267,0.345,1.999,1.969,1.315,3.119c-0.564,1.041-1.882,1.592-3.02,1.265c-3.243-0.791-6.479-1.6-9.722-2.383
			c-0.514,1.322-1.321,2.501-2.055,3.709c-1.464,2.27-3.525,4.131-5.854,5.487c-0.433-0.747-0.849-1.504-1.265-2.26
			c-1.304-2.352-2.609-4.701-3.909-7.054c-1.671-3.015-3.341-6.031-5.013-9.045c-1.686-3.042-3.373-6.083-5.068-9.12
			c-1.417,0.771-2.826,1.56-4.235,2.343c2.377,4.286,4.749,8.574,7.121,12.863c0.84,1.497,1.665,3.001,2.501,4.501
			c1.871,3.382,3.757,6.758,5.619,10.146c-3.857,1.998-8.398,2.521-12.642,1.674c-0.759,2.928-1.519,5.854-2.272,8.782
			c-0.177,0.697-0.311,1.46-0.831,1.996c-0.494,0.494-1.178,0.812-1.879,0.833c-1.127,0.005-2.15-0.976-2.211-2.097
			c0.001-0.412,0.138-0.808,0.237-1.202c0.871-3.381,1.765-6.757,2.631-10.138c-0.134-0.093-0.266-0.182-0.396-0.274
			c-2.619-1.8-4.625-4.349-6.172-7.097c-2.348,1.294-4.696,2.586-7.032,3.904c-0.543,0.346-1.197,0.536-1.842,0.444
			c-0.685-0.091-1.424-0.416-1.72-1.083c-0.514-1.105,0.055-2.515,1.109-3.076c1.681-0.941,3.372-1.865,5.055-2.805
			c0.758-0.417,1.51-0.846,2.271-1.257c-1.547-2.88-3.171-5.719-4.735-8.59c-0.124-0.204-0.232-0.473-0.499-0.514
			c-2.875-0.733-5.761-1.422-8.628-2.186c-0.984-0.253-1.646-1.353-1.397-2.342c0.226-1.317,1.676-2.232,2.966-1.92
			c2.917,0.697,5.823,1.444,8.743,2.131c9.319-5.151,18.632-10.313,27.939-15.486c0.686-1.952,1.312-3.924,1.951-5.891
			C80.147,28.79,80.435,27.855,80.771,26.939z"/>
		<path fill="#FFFFFF" d="M61.575,28.267c2.676-0.263,5.454,0.37,7.707,1.854c1.414,0.925,2.587,2.216,3.383,3.706
			c-7.056,3.882-14.074,7.837-21.146,11.691c-1.192-2.065-1.581-4.558-1.197-6.904c0.456-2.615,1.757-5.104,3.743-6.882
			C56.15,29.871,58.781,28.571,61.575,28.267z"/>
		<path fill="#FFFFFF" d="M40.132,89.494c1.121-1.554,3.64-1.677,4.979-0.349c0.768,0.802,1.052,1.938,1.105,3.019
			c0.031,9.294,0.015,18.589,0.009,27.885c-0.011,1.046-0.226,2.137-0.883,2.979c-0.467,0.618-1.211,0.934-1.941,1.112
			c-1.049,0.141-2.19-0.108-2.976-0.845c-0.798-0.81-1.083-1.981-1.113-3.087c-0.038-1.253-0.007-2.505-0.017-3.757
			c0-6.651,0-13.302,0-19.952c0-1.039,0.001-2.079-0.001-3.118C39.294,92.058,39.312,90.609,40.132,89.494z"/>
		<path fill="#FFFFFF" d="M125.376,88.973c1.305-1.044,3.402-1.007,4.61,0.177c0.854,0.881,1.077,2.167,1.09,3.352
			c0.014,2.199-0.004,4.397,0.004,6.598c2.042-0.812,4.295-1.061,6.47-0.765c1.962,0.239,3.882,0.955,5.454,2.168
			c1.591,1.2,2.675,2.985,3.224,4.888c0.433,1.512,0.546,3.094,0.555,4.66c-0.022,3.3-0.004,6.599-0.013,9.899
			c-0.01,0.996-0.176,2.025-0.719,2.879c-1.253,1.921-4.524,1.739-5.609-0.262c-0.547-0.983-0.614-2.141-0.576-3.24
			c0.01-2.591,0.001-5.181,0.004-7.772c-0.031-1.302,0.135-2.684-0.428-3.904c-0.751-1.707-2.709-2.753-4.546-2.482
			c-2.112,0.198-3.905,2.133-3.915,4.259c-0.027,3.637,0.026,7.274-0.034,10.91c0,0.679-0.143,1.357-0.411,1.98
			c-0.293,0.629-0.748,1.208-1.371,1.534c-1.043,0.483-2.317,0.441-3.325-0.111c-0.72-0.401-1.209-1.125-1.439-1.903
			c-0.288-0.976-0.243-2.003-0.244-3.009c0-2.105,0.001-4.213,0-6.319c0.005-6.709-0.001-13.418,0.004-20.127
			C124.178,91.166,124.429,89.82,125.376,88.973z"/>
		<path fill="#FFFFFF" d="M165.643,89.659c1.928-0.473,4.038,1.102,4.191,3.07c0.194,1.797-1.287,3.561-3.076,3.734
			c-1.692,0.213-3.395-1.051-3.731-2.713C162.595,91.972,163.89,90.064,165.643,89.659z"/>
		<g>
			<path fill="#FFFFFF" d="M12.906,102.261c2.907-3.042,7.33-4.562,11.49-3.909c2.498,0.358,4.874,1.5,6.732,3.207
				c1.497,1.366,2.628,3.106,3.349,4.997c0.477,1.274,0.776,2.637,0.727,4.004c-0.124,1.146-0.896,2.165-1.904,2.698
				c-0.563,0.282-1.195,0.39-1.82,0.386c-4.905,0.012-9.811-0.02-14.716,0.016c0.176,0.714,0.538,1.371,1.033,1.915
				c0.587,0.636,1.202,1.277,1.984,1.672c1.499,0.798,3.301,0.839,4.918,0.415c1.631-0.386,2.967-1.556,4.638-1.818
				c1.078-0.19,2.32,0.292,2.812,1.311c0.582,1.166,0.213,2.635-0.649,3.563c-1.437,1.538-3.336,2.605-5.353,3.177
				c-2.714,0.77-5.672,0.654-8.317-0.325c-2.85-1.044-5.313-3.116-6.819-5.751c-2.019-3.455-2.274-7.842-0.743-11.53
				C10.894,104.803,11.77,103.409,12.906,102.261z M17.124,107.848c-0.166,0.216-0.219,0.482-0.28,0.74
				c1.617,0.065,3.236,0.013,4.854,0.03c2.082-0.022,4.167,0.048,6.246-0.042c-0.935-1.889-2.878-3.226-4.978-3.414
				C20.727,104.937,18.418,106.013,17.124,107.848z"/>
		</g>
		<path fill="#FFFFFF" d="M52.413,99.002c1.393-1.226,3.787-1.001,4.893,0.507c2.125-1.18,4.642-1.492,7.034-1.204
			c2.211,0.239,4.376,1.063,6.11,2.47c1.396-1.191,3.123-1.952,4.919-2.298c2.253-0.422,4.608-0.358,6.83,0.214
			c1.44,0.401,2.819,1.074,3.959,2.05c1.32,1.114,2.259,2.634,2.79,4.269c0.556,1.659,0.685,3.426,0.662,5.164
			c-0.002,2.797,0.001,5.595-0.001,8.392c0.006,1.286,0.066,2.637-0.508,3.827c-0.288,0.562-0.728,1.052-1.278,1.364
			c-1.333,0.755-3.145,0.429-4.164-0.705c-0.682-0.831-0.933-1.923-0.962-2.976c-0.089-2.635,0.08-5.271-0.023-7.904
			c-0.053-1.26,0.153-2.539-0.14-3.781c-0.266-1.208-1.119-2.269-2.233-2.803c-1.675-0.83-3.89-0.544-5.205,0.82
			c-0.527,0.517-0.909,1.173-1.127,1.878c-0.203,0.649-0.157,1.338-0.158,2.011c0.001,3.133,0.001,6.265,0.001,9.398
			c-0.014,1.097-0.125,2.265-0.783,3.184c-0.473,0.718-1.297,1.105-2.118,1.271c-0.06,0.01-0.181,0.029-0.242,0.04
			c-1.004,0.018-2.062-0.303-2.709-1.109c-0.798-0.877-0.994-2.106-0.953-3.251c-0.045-3.224,0.004-6.449-0.016-9.674
			c0.079-1.349-0.315-2.77-1.301-3.729c-1.376-1.44-3.743-1.692-5.456-0.723c-1.075,0.611-1.842,1.726-2.056,2.941
			c-0.091,0.547-0.07,1.104-0.069,1.656c0.003,3.09-0.006,6.18,0.006,9.269c-0.009,1.261-0.217,2.63-1.102,3.593
			c-1.205,1.369-3.586,1.336-4.805,0.003c-0.324-0.346-0.527-0.785-0.69-1.224c-0.381-1.167-0.335-2.408-0.331-3.619
			c-0.004-5.309-0.005-10.618,0.004-15.927C51.176,101.177,51.46,99.841,52.413,99.002z"/>
		<g>
			<path fill="#FFFFFF" d="M97.216,101.945c2.908-2.934,7.289-4.29,11.349-3.535c1.581,0.273,3.076,0.892,4.471,1.674
				c0.912-1.577,3.138-2.142,4.697-1.211c0.921,0.521,1.41,1.551,1.585,2.557c0.163,0.984,0.078,1.986,0.104,2.979
				c-0.004,5.401,0.012,10.801-0.016,16.201c-0.142,1.045-0.436,2.168-1.269,2.883c-1.529,1.268-4.143,0.771-5.104-0.971
				c-2.795,1.732-6.267,2.281-9.471,1.579c-1.947-0.412-3.783-1.301-5.345-2.53c-3.476-2.706-5.408-7.239-4.922-11.623
				C93.588,106.921,95.018,104.037,97.216,101.945z M106.22,105.031c-1.823-0.017-3.617,0.848-4.769,2.258
				c-1.924,2.271-1.875,5.927,0.104,8.151c2.083,2.539,6.268,2.848,8.75,0.723c1.386-1.203,2.215-3.024,2.188-4.862
				c0.02-1.746-0.717-3.487-1.997-4.675c-1.087-0.959-2.505-1.604-3.97-1.587C106.62,104.813,106.143,104.8,106.22,105.031z"/>
		</g>
		<g>
			<path fill="#FFFFFF" d="M184.732,98.361c2.383-0.38,4.867-0.067,7.082,0.886c2.274,0.966,4.262,2.594,5.667,4.626
				c2.7,3.85,3.029,9.186,0.886,13.361c-2.023,4.058-6.293,6.909-10.834,7.14c-2.968,0.173-6.001-0.656-8.435-2.372
				c-3.552-2.503-5.703-6.86-5.492-11.205c0.094-2.845,1.166-5.636,2.966-7.836C178.588,100.473,181.579,98.843,184.732,98.361z
				 M185.372,105.266c-1.724,0.348-3.215,1.524-4.074,3.042c-1.182,2.025-1.027,4.746,0.392,6.615
				c1.302,1.765,3.557,2.829,5.751,2.511c2.261-0.229,4.241-1.884,5.033-3.987c0.79-1.996,0.386-4.412-1.009-6.044
				C190.021,105.665,187.598,104.724,185.372,105.266z"/>
		</g>
		<path fill="#FFFFFF" d="M165.803,98.481c1.162-0.203,2.479,0.192,3.191,1.166c0.602,0.783,0.806,1.792,0.852,2.759
			c0.039,4.803-0.034,9.605,0.009,14.407c0.005,1.171,0.008,2.344-0.009,3.515c-0.039,1.128-0.383,2.327-1.252,3.098
			c-1.328,1.076-3.506,1.009-4.671-0.284c-0.772-0.858-0.97-2.066-0.985-3.184c-0.002-5.559,0.002-11.117-0.002-16.675
			c-0.004-1.064,0.041-2.182,0.548-3.144C163.941,99.262,164.813,98.611,165.803,98.481z"/>
		<path fill="#FFFFFF" d="M154.13,118.387c0.495-0.141,1.034-0.172,1.527,0.002c1.295,0.444,2.17,1.829,2.087,3.185
			c-0.074,1.187-0.997,2.26-2.156,2.521c-1.119,0.263-2.377-0.139-3.128-1.014c-0.557-0.643-0.734-1.564-0.528-2.381
			C152.194,119.62,153.049,118.683,154.13,118.387z"/>
	</g>
	<g>
		<path fill="#17A69A" d="M29.895,26.805l0.089-0.033c1.88,0.24,3.736,0.653,5.609,0.949c-2.02,11.992-4.1,23.972-6.125,35.962
			c-0.054-0.01-0.161-0.031-0.214-0.041c-2.863-3.817-5.803-7.577-8.68-11.383c-0.442-0.554-0.857-1.126-1.313-1.669
			c2.234-1.875,4.728-3.428,7.357-4.684c-0.396-5.051,0.125-10.188,1.66-15.021C28.735,29.497,29.248,28.114,29.895,26.805z"/>
	</g>
	<g>
		<path fill="#169A99" d="M82.398,36.601c0.565-1.775,1.151-3.544,1.719-5.319c1.357,0.82,2.792,1.499,4.173,2.275
			c8.963,4.782,17.911,9.59,26.871,14.375c0.331,0.202,0.685,0.359,1.049,0.49l-0.001,0.05c-2.002,0.765-3.948,1.668-5.93,2.481
			c-4.635,1.969-9.271,3.936-13.907,5.898c-1.358,0.578-2.706,1.182-4.088,1.697c-0.143-3.155-1.24-6.196-2.747-8.945
			c2.43-1.365,4.88-2.698,7.311-4.062c1.03-0.553,1.645-1.91,1.151-3.015c-0.572-1.216-2.284-1.494-3.371-0.824
			c-2.395,1.353-4.81,2.667-7.209,4.01c-1.003-1.621-1.869-3.321-2.801-4.981C83.88,39.354,83.02,38.039,82.398,36.601z"/>
	</g>
	<g>
		<path fill="#169597" d="M126.22,40.937c1.368-0.993,2.674-2.072,4.08-3.009c0.98,4.053,0.767,8.461-0.953,12.292
			c-0.401,0.96-0.992,1.824-1.476,2.743c3.22,0.767,6.343,2.022,9.111,3.849c3.374,2.201,6.221,5.165,8.411,8.537
			c0.877,1.359,1.672,2.778,2.294,4.274c-0.34-0.034-0.623-0.221-0.882-0.425c-10.163-6.949-20.315-13.917-30.493-20.845
			C119.631,45.901,122.913,43.402,126.22,40.937z"/>
	</g>
	<g>
		<path fill="#179F99" d="M63.952,48.398c1.409-0.784,2.818-1.572,4.235-2.343c1.695,3.036,3.382,6.078,5.068,9.12
			c-0.583,1.301-1.006,2.667-1.521,3.995c-0.249,0.687-0.578,1.355-0.661,2.091C68.7,56.973,66.329,52.684,63.952,48.398z"/>
	</g>
	<g>
		<path fill="#168E96" d="M116.21,48.422l0.103-0.07c10.178,6.928,20.33,13.896,30.493,20.845c0.259,0.204,0.542,0.391,0.882,0.425
			c0.487,1.116,0.872,2.275,1.203,3.446c0.024,0.195,0.164,0.406,0.104,0.601c-2.186,0.762-4.419,1.382-6.618,2.109
			c-7.702,2.405-15.395,4.84-23.099,7.242c-0.879,0.34-1.813,0.507-2.685,0.87c0.017-1.268-0.003-2.536,0.005-3.804
			c-0.018-0.859,0.05-1.722-0.057-2.575c-0.119-0.934-0.05-1.875-0.07-2.813c0.012-3.095-0.009-6.188,0.005-9.282
			c-0.002-0.668-0.137-1.327-0.13-1.993c0.011-3.847,0-7.697-0.013-11.542c-0.166-1.13-0.079-2.271-0.125-3.408L116.21,48.422z"/>
	</g>
	<g>
		<path fill="#169297" d="M110.279,50.953c1.981-0.813,3.928-1.716,5.93-2.481c0.046,1.137-0.041,2.278,0.125,3.408
			c0.013,3.845,0.023,7.695,0.013,11.542c-0.007,0.667,0.128,1.325,0.13,1.993c-0.014,3.094,0.007,6.188-0.005,9.282
			c0.021,0.938-0.049,1.88,0.07,2.813c0.106,0.854,0.039,1.716,0.057,2.575c-0.008,1.268,0.012,2.536-0.005,3.804
			c-0.622-0.232-1.17-0.611-1.744-0.936c-7.41-4.329-14.82-8.657-22.227-12.989c-1.117-0.629-2.199-1.314-3.327-1.918
			c0.733-1.208,1.541-2.387,2.055-3.709c3.243,0.784,6.479,1.592,9.722,2.383c1.138,0.327,2.455-0.225,3.02-1.265
			c0.684-1.15-0.049-2.774-1.315-3.119c-3.491-0.883-6.996-1.711-10.487-2.591c0.002-0.4,0.007-0.799-0.005-1.197
			c1.382-0.515,2.73-1.119,4.088-1.697C101.009,54.889,105.645,52.922,110.279,50.953z"/>
	</g>
	<g>
		<path fill="#17A29A" d="M13.769,56.602c1.54-2.247,3.406-4.262,5.492-6.011c0.455,0.543,0.87,1.115,1.313,1.669
			c2.877,3.806,5.817,7.565,8.68,11.383c-1.101,0.031-2.207,0.057-3.303-0.055c-1.146-0.108-2.301,0.021-3.445-0.105
			c-1.239-0.14-2.489,0.004-3.727-0.133c-1.178-0.138-2.368,0.022-3.545-0.121c-1.101-0.128-2.211-0.014-3.314-0.097
			c-0.605-0.047-1.212-0.101-1.82-0.117C11.054,60.739,12.313,58.595,13.769,56.602z"/>
	</g>
	<g>
		<path fill="#169999" d="M71.733,59.17c0.515-1.329,0.939-2.694,1.521-3.995c1.672,3.014,3.342,6.03,5.013,9.045
			c-1.559,0.534-3.149,0.97-4.694,1.543c-0.836-1.5-1.661-3.005-2.501-4.501C71.155,60.525,71.484,59.857,71.733,59.17z"/>
	</g>
	<g>
		<path fill="#179597" d="M10.077,63.014l0.021,0.001c0.608,0.016,1.215,0.07,1.82,0.117c1.103,0.083,2.213-0.031,3.314,0.097
			c1.177,0.143,2.367-0.017,3.545,0.121c1.238,0.137,2.488-0.007,3.727,0.133c1.144,0.126,2.299-0.002,3.445,0.105
			c1.097,0.112,2.202,0.086,3.303,0.055c0.054,0.01,0.16,0.031,0.214,0.041c0.071,0.009,0.217,0.025,0.288,0.033
			c-0.125,0.048-0.247,0.103-0.368,0.163c-0.269,0.306-0.492,0.648-0.717,0.988c-5.58,7.875-11.174,15.74-16.75,23.619
			c-0.439,0.58-0.805,1.219-1.339,1.721C8.23,85.286,7.266,79.765,7.527,74.332C7.648,70.44,8.565,66.596,10.077,63.014z"/>
	</g>
	<g>
		<path fill="#179397" d="M29.388,63.88c0.121-0.06,0.242-0.115,0.368-0.163c0.282,0.03,0.561,0.085,0.844,0.112
			c6.011,0.542,12.022,1.099,18.034,1.639c0.865,0.092,1.738,0.126,2.593,0.303c-1.683,0.94-3.374,1.864-5.055,2.805
			c-1.054,0.562-1.623,1.971-1.109,3.076c0.296,0.667,1.036,0.992,1.72,1.083c0.646,0.092,1.299-0.099,1.842-0.444
			c2.335-1.318,4.684-2.61,7.032-3.904c1.548,2.748,3.554,5.297,6.172,7.097c0.014,0.104,0.027,0.206,0.043,0.309
			c-3.113,3.854-6.219,7.711-9.328,11.566c-0.524,0.617-0.985,1.286-1.536,1.881c-0.042,0.031-0.123,0.095-0.165,0.128
			c-0.541-0.726-1.142-1.406-1.728-2.095c-6.218-7.401-12.438-14.8-18.656-22.201C30.125,64.653,29.775,64.249,29.388,63.88z"/>
	</g>
	<g>
		<path fill="#178F97" d="M29.388,63.88c0.388,0.369,0.737,0.773,1.071,1.191c6.218,7.401,12.438,14.8,18.656,22.201
			c0.586,0.688,1.187,1.369,1.728,2.095c-0.818,0.548-1.669,1.041-2.504,1.562c-0.696,0.431-1.375,0.892-2.121,1.235
			c-0.054-1.081-0.337-2.217-1.105-3.019c-1.34-1.328-3.858-1.205-4.979,0.349c-0.821,1.115-0.838,2.564-0.838,3.888
			c0.002,1.039,0.001,2.079,0.001,3.118c-2.719,1.691-5.47,3.333-8.167,5.06c-1.858-1.707-4.234-2.849-6.732-3.207
			c-4.161-0.652-8.583,0.867-11.49,3.909c-1.136,1.147-2.012,2.542-2.639,4.026c-1.287-0.105-2.567-0.268-3.856-0.352
			c-0.336-0.014-0.666-0.087-0.978-0.213c1.322-4.056,4.164-7.596,7.853-9.742c0.168-0.12,0.407-0.178,0.518-0.355
			c-0.355-0.737-0.92-1.343-1.345-2.036c-0.68-1.095-1.317-2.22-1.876-3.382c0.534-0.502,0.9-1.141,1.339-1.721
			c5.576-7.879,11.17-15.744,16.75-23.619C28.896,64.528,29.119,64.186,29.388,63.88z"/>
	</g>
	<g>
		<path fill="#178D96" d="M73.573,65.763c1.545-0.573,3.135-1.009,4.694-1.543c1.3,2.353,2.605,4.703,3.909,7.054
			c-0.038,0.048-0.113,0.146-0.15,0.195c0.621,6.716,1.228,13.431,1.835,20.146c0.179,1.757,0.29,3.522,0.534,5.273
			c-0.743-0.086-1.462-0.293-2.193-0.443c-8.631-1.992-17.267-3.963-25.9-5.947c-1.761-0.437-3.553-0.751-5.294-1.26
			c0.55-0.595,1.012-1.264,1.536-1.881c3.109-3.855,6.215-7.713,9.328-11.566c-0.016-0.103-0.029-0.205-0.043-0.309
			c0.13,0.093,0.262,0.182,0.396,0.274c-0.866,3.381-1.76,6.757-2.631,10.138c-0.099,0.395-0.236,0.79-0.237,1.202
			c0.061,1.121,1.084,2.102,2.211,2.097c0.701-0.021,1.385-0.339,1.879-0.833c0.52-0.536,0.654-1.299,0.831-1.996
			c0.753-2.928,1.513-5.854,2.272-8.782c4.244,0.847,8.784,0.324,12.642-1.674C77.33,72.521,75.444,69.145,73.573,65.763z"/>
	</g>
	<g>
		<path fill="#168B96" d="M89.295,68.047c1.128,0.604,2.21,1.29,3.327,1.918c7.407,4.332,14.817,8.66,22.227,12.989
			c0.574,0.324,1.122,0.703,1.744,0.936c-7.401,2.968-14.771,6.014-22.166,8.999c-3.252,1.355-6.535,2.635-9.778,4.013
			c-0.063-0.004-0.19-0.01-0.254-0.013c-0.244-1.751-0.354-3.517-0.534-5.273c-0.608-6.716-1.215-13.431-1.835-20.146
			c0.038-0.05,0.113-0.147,0.15-0.195c0.417,0.756,0.833,1.513,1.265,2.26C85.771,72.178,87.831,70.317,89.295,68.047z"/>
	</g>
	<g>
		<path fill="#168395" d="M142.377,75.778c2.199-0.728,4.433-1.348,6.618-2.109l0.052-0.021c1.351,5.506,1.107,11.412-0.792,16.76
			c-0.469,1.313-1.086,2.563-1.724,3.801c-0.398,0.704-0.912,1.343-1.208,2.104c0.625,0.464,1.225,0.965,1.777,1.514
			c-1.344,0.926-2.779,1.716-4.097,2.677c-1.572-1.213-3.492-1.929-5.454-2.168c-2.175-0.296-4.428-0.047-6.47,0.765
			c-0.008-2.2,0.01-4.398-0.004-6.598c-0.013-1.185-0.235-2.471-1.09-3.352c-1.208-1.184-3.306-1.221-4.61-0.177
			c-0.947,0.847-1.198,2.192-1.217,3.408c-0.005,6.709,0.001,13.418-0.004,20.127c-1.583,0.884-3.05,1.961-4.624,2.862
			c-0.036,1.4-0.035,2.801-0.011,4.199c0.004,0.349-0.058,0.695-0.114,1.039c0.027-5.4,0.012-10.8,0.016-16.201
			c-0.026-0.992,0.059-1.994-0.104-2.979c-0.175-1.006-0.664-2.036-1.585-2.557c-1.56-0.931-3.785-0.366-4.697,1.211
			c-1.395-0.782-2.89-1.4-4.471-1.674c-4.06-0.755-8.44,0.602-11.349,3.535c-2.198,2.092-3.628,4.977-3.92,8.002
			c-1.063-1.348-1.956-2.821-2.961-4.211c-1.509-2.209-3.046-4.399-4.553-6.609c-0.517-0.663-0.891-1.433-1.498-2.022
			c0.118-0.074,0.241-0.141,0.366-0.202c3.243-1.378,6.526-2.657,9.778-4.013c7.395-2.985,14.765-6.031,22.166-8.999
			c0.871-0.363,1.806-0.53,2.685-0.87C126.982,80.618,134.675,78.183,142.377,75.778z"/>
	</g>
	<g>
		<path fill="#168495" d="M162.894,85.646c2.369-1.178,5.317-1.043,7.58,0.324c-1.348,0.588-2.769,0.98-4.149,1.479
			c-1.409,0.542-2.865,0.946-4.271,1.497c-0.833,0.34-1.771,0.447-2.509,0.993c-0.277,0.194-0.579,0.349-0.891,0.479
			C159.364,88.351,160.938,86.609,162.894,85.646z"/>
	</g>
	<g>
		<g>
			<path fill="#167594" d="M170.474,85.97c1.816,1.079,3.248,2.836,3.806,4.887c0.652,2.223,0.201,4.681-1.016,6.629
				c0.24,0.433,0.458,0.877,0.651,1.335c1.442-1.41,3.09-2.617,4.9-3.513c4.463-2.206,9.876-2.428,14.492-0.543
				c3.772,1.471,6.985,4.307,8.94,7.85c0.942,1.73,1.655,3.6,1.984,5.549c0.182,0.997,0.232,2.012,0.321,3.021
				c-0.103,2.146-0.399,4.305-1.162,6.326c-0.773,2.125-1.961,4.103-3.504,5.758c-1.41,1.652-3.239,2.914-5.22,3.783
				c-0.705,0.291-1.357,0.688-2.07,0.96c-1.561,0.636-3.229,0.982-4.907,1.086c-1.096,0.153-2.195-0.024-3.284-0.129
				c-2.534-0.345-5.015-1.189-7.176-2.566c-1.201-0.734-2.274-1.658-3.292-2.623c-0.684,1.632-1.804,3.132-3.361,4.019
				c-2.354,1.377-5.386,1.453-7.843,0.293c-0.84-0.402-1.546-1.021-2.253-1.614c-1.369,1.494-3.36,2.404-5.392,2.42
				c-2.191,0.06-4.391-0.821-5.93-2.383c-3.03,3.252-8.821,3.153-11.767-0.163c-0.966-1.028-1.543-2.341-1.964-3.67
				c-0.558,2.143-1.892,4.133-3.839,5.239c-3.094,1.727-7.295,1.172-9.801-1.349c-1.731,1.892-4.465,2.619-6.955,2.256
				c-0.859-0.096-1.673-0.393-2.479-0.679c-4.799,1.607-10.274,1.209-14.706-1.274c-1.483-0.806-2.777-1.904-4.017-3.036
				c-0.743,1.874-2.18,3.495-4.03,4.328c-2.944,1.381-6.709,0.762-9.032-1.521c-0.905-0.879-1.576-1.979-2.002-3.161
				c1.701-0.089,3.388-0.367,5.09-0.432c1.019,1.134,2.831,1.46,4.164,0.705c0.55-0.313,0.99-0.803,1.278-1.364
				c0.722,0.143,1.441-0.07,2.161-0.114c1.472-0.111,2.937-0.292,4.407-0.402c0.849-0.118,1.71-0.122,2.549-0.306
				c1.562,1.229,3.398,2.118,5.345,2.53c3.204,0.702,6.676,0.153,9.471-1.579c0.962,1.741,3.575,2.238,5.104,0.971
				c0.833-0.715,1.127-1.838,1.269-2.883c0.057-0.344,0.118-0.69,0.114-1.039c-0.024-1.398-0.025-2.799,0.011-4.199
				c1.574-0.901,3.041-1.979,4.624-2.862c0.001,2.106,0,4.214,0,6.319c0.001,1.006-0.044,2.033,0.244,3.009
				c0.23,0.778,0.72,1.502,1.439,1.903c1.008,0.553,2.282,0.595,3.325,0.111c0.623-0.326,1.078-0.905,1.371-1.534
				c1.012,0.049,2.03-0.053,3.038,0.085c1.184,0.142,2.379-0.03,3.565,0.102c1.095,0.14,2.202,0.064,3.303,0.063
				c1.085,2.001,4.356,2.183,5.609,0.262c0.404,0.01,0.809-0.004,1.213-0.017c1.1-2.701,2.08-5.452,3.145-8.169
				c0.363-0.88,0.616-1.805,1.068-2.646c0.03,0.774,0.005,1.55,0.013,2.326c2.098-0.979,4.644-1.065,6.729-0.01
				c-0.009-3.469,0.007-6.938-0.006-10.406c-0.093-2.195,0.188-4.487,1.313-6.415c-1.299-2.082-1.701-4.734-0.89-7.069l0.017-0.006
				c0.312-0.13,0.613-0.284,0.891-0.479c0.737-0.546,1.676-0.653,2.509-0.993c1.406-0.551,2.862-0.955,4.271-1.497
				C167.705,86.951,169.126,86.558,170.474,85.97z M165.643,89.659c-1.753,0.405-3.048,2.313-2.616,4.092
				c0.337,1.662,2.039,2.926,3.731,2.713c1.789-0.174,3.271-1.938,3.076-3.734C169.681,90.76,167.57,89.186,165.643,89.659z
				 M184.732,98.361c-3.153,0.482-6.145,2.112-8.16,4.6c-1.8,2.2-2.872,4.991-2.966,7.836c-0.211,4.345,1.94,8.702,5.492,11.205
				c2.434,1.716,5.467,2.545,8.435,2.372c4.541-0.23,8.811-3.082,10.834-7.14c2.144-4.176,1.814-9.512-0.886-13.361
				c-1.405-2.032-3.393-3.66-5.667-4.626C189.6,98.293,187.115,97.981,184.732,98.361z M165.803,98.481
				c-0.989,0.13-1.861,0.781-2.319,1.658c-0.507,0.962-0.552,2.079-0.548,3.144c0.004,5.558,0,11.116,0.002,16.675
				c0.016,1.117,0.213,2.325,0.985,3.184c1.165,1.293,3.343,1.36,4.671,0.284c0.869-0.771,1.213-1.97,1.252-3.098
				c0.017-1.171,0.014-2.344,0.009-3.515c-0.043-4.802,0.03-9.604-0.009-14.407c-0.046-0.967-0.25-1.976-0.852-2.759
				C168.281,98.673,166.965,98.278,165.803,98.481z M154.13,118.387c-1.081,0.296-1.936,1.232-2.198,2.313
				c-0.206,0.816-0.028,1.738,0.528,2.381c0.751,0.875,2.009,1.276,3.128,1.014c1.159-0.261,2.082-1.334,2.156-2.521
				c0.083-1.355-0.792-2.74-2.087-3.185C155.164,118.215,154.625,118.247,154.13,118.387z"/>
		</g>
	</g>
	<g>
		<path fill="#178596" d="M50.843,89.367c0.042-0.033,0.123-0.097,0.165-0.128c1.741,0.509,3.533,0.823,5.294,1.26
			c8.633,1.984,17.269,3.955,25.9,5.947c0.731,0.15,1.45,0.357,2.193,0.443c0.064,0.003,0.191,0.009,0.254,0.013
			c-0.125,0.062-0.248,0.128-0.366,0.202c-0.722,0.492-1.412,1.031-2.086,1.587c-2.221-0.572-4.577-0.636-6.83-0.214
			c-1.796,0.346-3.522,1.106-4.919,2.298c-1.733-1.407-3.899-2.23-6.11-2.47c-2.392-0.288-4.908,0.024-7.034,1.204
			c-1.106-1.508-3.5-1.732-4.893-0.507c-0.953,0.839-1.236,2.175-1.222,3.394c-0.009,5.309-0.008,10.618-0.004,15.927
			c-0.004,1.211-0.05,2.452,0.331,3.619c-0.326,0.109-0.677,0.37-1.021,0.18c-1.436-0.663-2.804-1.473-4.27-2.073
			c0.006-9.296,0.022-18.591-0.009-27.885c0.746-0.344,1.425-0.805,2.121-1.235C49.173,90.408,50.025,89.915,50.843,89.367z"/>
		<path fill="#178596" d="M31.128,101.559c2.697-1.727,5.448-3.368,8.167-5.06c0,6.65,0,13.301,0,19.952
			c-1.71-0.842-3.426-1.673-5.096-2.591c-0.333-0.148-0.634-0.354-0.898-0.603c1.008-0.533,1.78-1.553,1.904-2.698
			c0.049-1.367-0.25-2.729-0.727-4.004C33.757,104.666,32.625,102.925,31.128,101.559z"/>
		<path fill="#178596" d="M17.124,107.848c1.294-1.835,3.603-2.911,5.842-2.686c2.1,0.188,4.043,1.525,4.978,3.414
			c-2.08,0.09-4.164,0.02-6.246,0.042c-1.618-0.018-3.237,0.035-4.854-0.03C16.905,108.331,16.958,108.064,17.124,107.848z"/>
		<path fill="#178596" d="M60.233,105.704c1.713-0.97,4.08-0.718,5.456,0.723c0.986,0.96,1.38,2.381,1.301,3.729
			c-1.399,0.941-2.68,2.041-4.045,3.027c-1.581,1.158-3.113,2.384-4.722,3.502c-0.038-2.68,0.047-5.362-0.045-8.04
			C58.391,107.429,59.158,106.315,60.233,105.704z"/>
		<path fill="#178596" d="M5.42,105.718l0.014,0.005c0.312,0.126,0.642,0.199,0.978,0.213c1.289,0.084,2.57,0.246,3.856,0.352
			c-1.531,3.688-1.275,8.075,0.743,11.53c-0.246,0.323-0.508,0.638-0.804,0.919c-0.877,0.842-1.714,1.726-2.592,2.567
			C4.522,116.813,3.738,110.889,5.42,105.718z"/>
	</g>
	<g>
		<path fill="#167E95" d="M82.198,98.691c0.674-0.556,1.364-1.095,2.086-1.587c0.607,0.59,0.981,1.359,1.498,2.022
			c1.507,2.21,3.044,4.4,4.553,6.609c1.005,1.39,1.898,2.863,2.961,4.211c-0.486,4.384,1.446,8.917,4.922,11.623
			c-0.839,0.184-1.7,0.188-2.549,0.306c-1.47,0.11-2.936,0.291-4.407,0.402c-0.72,0.044-1.439,0.257-2.161,0.114
			c0.574-1.19,0.514-2.541,0.508-3.827c0.002-2.797-0.001-5.595,0.001-8.392c0.022-1.738-0.106-3.505-0.662-5.164
			c-0.531-1.635-1.47-3.154-2.79-4.269C85.017,99.765,83.638,99.092,82.198,98.691z"/>
		<path fill="#167E95" d="M101.451,107.289c1.151-1.41,2.945-2.274,4.769-2.258c0.077,0.001,0.229,0.007,0.306,0.008
			c1.465-0.018,2.883,0.628,3.97,1.587c1.28,1.188,2.017,2.929,1.997,4.675c0.027,1.838-0.802,3.659-2.188,4.862
			c-2.482,2.125-6.667,1.816-8.75-0.723C99.576,113.215,99.527,109.56,101.451,107.289z"/>
		<path fill="#167E95" d="M75.095,106.408c1.314-1.364,3.53-1.65,5.205-0.82c1.114,0.534,1.967,1.595,2.233,2.803
			c0.293,1.242,0.087,2.521,0.14,3.781c0.103,2.634-0.065,5.27,0.023,7.904c0.029,1.053,0.28,2.145,0.962,2.976
			c-1.702,0.064-3.389,0.343-5.09,0.432c-0.059-0.197-0.119-0.395-0.176-0.588c-0.045-0.008-0.137-0.021-0.182-0.028
			c-0.08,0.249-0.159,0.498-0.239,0.747h-0.014c-0.998-0.03-1.981,0.171-2.974,0.228c-1.359,0.089-2.708,0.354-4.073,0.309
			c0.82-0.166,1.645-0.554,2.118-1.271c0.658-0.919,0.77-2.087,0.783-3.184c0-3.134,0-6.266-0.001-9.398
			c0.001-0.673-0.045-1.361,0.158-2.011C74.186,107.581,74.568,106.924,75.095,106.408z"/>
	</g>
	<g>
		<path fill="#167A94" d="M143.004,100.502c1.317-0.961,2.753-1.751,4.097-2.677c1.4,1.401,2.517,3.093,3.21,4.95
			c1.183,2.913,1.249,6.125,1.166,9.222c-0.452,0.841-0.705,1.766-1.068,2.646c-1.064,2.717-2.045,5.468-3.145,8.169
			c-0.404,0.013-0.809,0.026-1.213,0.017c0.543-0.854,0.709-1.883,0.719-2.879c0.009-3.301-0.01-6.6,0.013-9.899
			c-0.009-1.566-0.122-3.148-0.555-4.66C145.679,103.488,144.595,101.703,143.004,100.502z"/>
		<path fill="#167A94" d="M130.98,109.426c0.01-2.126,1.803-4.061,3.915-4.259c1.837-0.271,3.795,0.775,4.546,2.482
			c0.563,1.221,0.396,2.603,0.428,3.904c-0.003,2.592,0.006,5.182-0.004,7.772c-0.038,1.1,0.029,2.257,0.576,3.24
			c-1.101,0.001-2.208,0.076-3.303-0.063c-1.187-0.132-2.382,0.04-3.565-0.102c-1.008-0.138-2.026-0.036-3.038-0.085
			c0.269-0.623,0.411-1.302,0.411-1.98C131.007,116.701,130.953,113.063,130.98,109.426z"/>
	</g>
	<g>
		<path fill="#CCCDCD" d="M106.22,105.031c-0.077-0.23,0.4-0.218,0.306,0.008C106.448,105.038,106.297,105.032,106.22,105.031z"/>
	</g>
	<g>
		<path fill="#167994" d="M185.372,105.266c2.226-0.542,4.649,0.398,6.093,2.137c1.395,1.632,1.799,4.048,1.009,6.044
			c-0.792,2.104-2.772,3.758-5.033,3.987c-2.194,0.318-4.449-0.746-5.751-2.511c-1.419-1.869-1.573-4.59-0.392-6.615
			C182.157,106.791,183.648,105.614,185.372,105.266z"/>
	</g>
	<g>
		<path fill="#167C95" d="M58.109,110.301c-0.001-0.553-0.022-1.109,0.069-1.656c0.093,2.678,0.008,5.36,0.045,8.04
			c1.609-1.118,3.141-2.344,4.722-3.502c1.365-0.986,2.646-2.086,4.045-3.027c0.02,3.225-0.029,6.45,0.016,9.674
			c-0.041,1.145,0.154,2.374,0.953,3.251c0.647,0.807,1.705,1.127,2.709,1.109c-0.632,0.209-1.301,0.167-1.952,0.261
			c-1.728,0.205-3.478,0.252-5.191,0.55c-0.456-0.752-0.722-1.591-0.982-2.425c-0.544,1.973-1.696,3.819-3.405,4.978
			c-3.149,2.184-7.836,1.657-10.432-1.158c-2.567,2.822-7.204,3.296-10.375,1.235c-0.644-0.412-1.223-0.922-1.719-1.506
			c2.057-0.53,4.096-1.128,6.153-1.655c0.239-0.05,0.438-0.194,0.637-0.329c0.73-0.179,1.474-0.494,1.941-1.112
			c0.658-0.843,0.872-1.934,0.883-2.979c1.466,0.601,2.834,1.41,4.27,2.073c0.345,0.19,0.695-0.07,1.021-0.18
			c0.163,0.438,0.366,0.878,0.69,1.224c1.219,1.333,3.601,1.366,4.805-0.003c0.885-0.963,1.093-2.332,1.102-3.593
			C58.103,116.481,58.112,113.391,58.109,110.301z"/>
	</g>
	<g>
		<path fill="#178195" d="M31.48,113.644c0.625,0.004,1.257-0.104,1.82-0.386c0.264,0.249,0.565,0.454,0.898,0.603
			c1.67,0.918,3.386,1.749,5.096,2.591c0.01,1.252-0.021,2.504,0.017,3.757c0.03,1.105,0.315,2.277,1.113,3.087
			c0.786,0.736,1.927,0.985,2.976,0.845c-0.198,0.135-0.397,0.279-0.637,0.329c-2.057,0.527-4.096,1.125-6.153,1.655
			c-0.578-0.719-1.035-1.526-1.388-2.378c-1.16,1.091-2.354,2.172-3.742,2.969c-2.208,1.321-4.725,2.096-7.282,2.328
			c-0.874,0.058-1.749,0.168-2.623,0.051c-3.927-0.187-7.791-1.676-10.776-4.244c-1.217-1.03-2.29-2.229-3.188-3.546
			c0.878-0.842,1.715-1.726,2.592-2.567c0.296-0.281,0.558-0.596,0.804-0.919c1.507,2.635,3.97,4.707,6.819,5.751
			c2.645,0.979,5.604,1.095,8.317,0.325c2.017-0.571,3.917-1.639,5.353-3.177c0.862-0.929,1.231-2.397,0.649-3.563
			c-0.492-1.019-1.734-1.501-2.812-1.311c-1.671,0.263-3.007,1.433-4.638,1.818c-1.617,0.424-3.419,0.383-4.918-0.415
			c-0.782-0.395-1.397-1.036-1.984-1.672c-0.495-0.544-0.857-1.201-1.033-1.915C21.67,113.625,26.575,113.656,31.48,113.644z"/>
	</g>
	<g>
		<path fill="#167694" d="M74.983,123.841c0.993-0.057,1.976-0.258,2.974-0.228c-0.744,2.005-2.264,3.751-4.247,4.598
			c-2.952,1.324-6.709,0.69-8.976-1.646c-0.467-0.468-0.863-1.001-1.208-1.564c1.714-0.298,3.464-0.345,5.191-0.55
			c0.65-0.094,1.32-0.052,1.952-0.261c0.061-0.011,0.182-0.03,0.242-0.04C72.275,124.196,73.625,123.93,74.983,123.841z"/>
	</g>
</g>
</svg>
