<svg width="16" height="16" viewBox="0 0 16 16" fill="none" xmlns="http://www.w3.org/2000/svg">
<g clip-path="url(#clip0)">
<path fill-rule="evenodd" clip-rule="evenodd" d="M0 8C0 3.58 3.58 0 8 0C11.7293 0 14.8607 2.5486 15.7482 6H12.7164C12.5994 5.79492 12.4595 5.60513 12.3 5.43C12.38 5.23 12.66 4.41 12.22 3.31C12.22 3.31 11.55 3.09 10.02 4.13C9.38 3.95 8.7 3.86 8.02 3.86C7.34 3.86 6.66 3.95 6.02 4.13C4.49 3.1 3.82 3.31 3.82 3.31C3.38 4.41 3.66 5.23 3.74 5.43C3.23 5.99 2.92 6.71 2.92 7.58C2.92 9.72892 3.8373 10.709 5 11.1714V12.804C4.56007 12.7683 4.08483 12.5531 3.72 11.94C3.57 11.7 3.12 11.11 2.49 11.12C1.82 11.13 2.22 11.5 2.5 11.65C2.84 11.84 3.23 12.55 3.32 12.78C3.44895 13.1427 3.81176 13.7717 5 13.8084V15.4168C2.0668 14.2297 0 11.3631 0 8Z" fill="#24292E"/>
<path d="M15.6816 7.97169L13.8272 7.07883C13.6126 6.97548 13.3561 7.01908 13.1876 7.18753L7.36697 12.2225C7.20369 12.3714 7.20387 12.6285 7.36738 12.7771L8.36324 13.7279C8.49691 13.8494 8.69822 13.8584 8.84214 13.7492L14.0001 9.75L15.2154 8.40977C15.3399 8.27243 15.4799 8.1097 15.6643 8.12891C15.8422 8.14745 16.0001 8.29396 16.0001 8.50003V8.4785C16.0001 8.26242 15.8763 8.06543 15.6816 7.97169Z" fill="url(#paint0_linear)"/>
<path d="M15.6816 15.0284L13.8272 15.9212C13.6126 16.0246 13.3561 15.981 13.1876 15.8125L7.36697 10.2776C7.20369 10.1287 7.20387 9.87161 7.36738 9.72297L8.36324 8.77218C8.49691 8.65066 8.69822 8.64171 8.84214 8.75089L14.0001 13.25L15.2154 14.5903C15.3399 14.7276 15.4799 14.8904 15.6643 14.8712C15.8423 14.8526 16.0001 14.7061 16.0001 14.5V14.5216C16.0001 14.7377 15.8763 14.9346 15.6816 15.0284Z" fill="url(#paint1_linear)"/>
<path d="M13.8272 15.9214C13.6125 16.0247 13.356 15.981 13.1875 15.8125C13.3951 16.0201 14 15.8731 14 15.5795V7.42052C14 7.12696 13.3951 6.97995 13.1875 7.18752C13.356 7.01905 13.6125 6.9754 13.8272 7.07865L15.6813 7.72029C15.8761 7.81398 16 8.01103 16 8.22721V14.7729C16 14.989 15.8761 15.1861 15.6813 15.2798L13.8272 15.9214Z" fill="url(#paint2_linear)"/>
</g>
<defs>
<linearGradient id="paint0_linear" x1="11.6224" y1="7.02332" x2="11.6224" y2="13.8254" gradientUnits="userSpaceOnUse">
<stop stop-color="#0196CA"/>
<stop offset="1" stop-color="#0065A9"/>
</linearGradient>
<linearGradient id="paint1_linear" x1="11.6224" y1="8.67465" x2="11.6224" y2="15.9768" gradientUnits="userSpaceOnUse">
<stop stop-color="#01A7DE"/>
<stop offset="1" stop-color="#007ACC"/>
</linearGradient>
<linearGradient id="paint2_linear" x1="14.5937" y1="7.02322" x2="14.5937" y2="15.9768" gradientUnits="userSpaceOnUse">
<stop stop-color="#2EC2F6"/>
<stop offset="1" stop-color="#1F9CF0"/>
</linearGradient>
<clipPath id="clip0">
<rect width="16" height="16" fill="white"/>
</clipPath>
</defs>
</svg>
