<svg fill="none" height="22" viewBox="0 0 18 22" width="18" xmlns="http://www.w3.org/2000/svg"><path clip-rule="evenodd" d="m11.015.557396c-.017-.345-.296-.6250003-.632-.5430003-2.337.5750003-6.605 4.0420043-4.2 8.8540043.474.946.392 1.675.004 2.062-.64.64-1.874.684-2.875-1.815-.131-.327-.498-.509-.803-.334-1.547.888-2.509 2.86-2.509 4.899 0 4.829 4.122 8.25 8.935 8.25 4.812 0 8.565-3.438 8.565-8.25 0-2.939-1.466-4.482-3.006-6.102-1.61-1.694-3.479-3.476-3.479-7.021004z" fill="#000" fill-rule="evenodd"/></svg>