<?xml version="1.0" encoding="UTF-8"?>
<svg id="Layer_1" data-name="Layer 1" xmlns="http://www.w3.org/2000/svg" version="1.1" viewBox="0 0 1920 1080">
  <defs>
    <style>
      .cls-1 {
        fill: #a30d4a;
      }

      .cls-1, .cls-2 {
        stroke-width: 0px;
      }

      .cls-2 {
        fill: #414345;
      }
    </style>
  </defs>
  <g>
    <path class="cls-1" d="M600.4,269.3c14.1-33.8,32.1-63.7,57.8-89.5-15.5-9.2-29.5-17.8-43.8-25.9-4.7-2.6-9.7-4.6-15-5.8-14.1-3.3-28.3-5.6-42.4-8.8-89.8-20.1-179.6-40.3-269.5-60.5-52.2-11.7-104.3-23.5-156.5-35.1-23.9-5.3-47.7-10.5-71.7-15.6-7.2-1.5-30.7-6.4-30.7-6.4l-.4,3.9c2.5,6.4,8.4,21.2,10.5,26.4,8.1,20.2,16.1,40.4,24.1,60.6,2,5.1,4.1,10.2,6.1,15.3,9.9,24.7,31.6,42.7,57.7,47.9,158.8,31.4,315.7,64.2,473.7,93.4Z"/>
    <path class="cls-1" d="M451.6,382.6c43.2,7,85.3,2,126.5-8.3,1.5-14.5,2.9-23.8,5.2-37.3,3.1-18.1,7.1-33.5,7.2-34.6-160.9-32.1-322.3-64.4-484.3-96.8,1,4.8,1.2,7.4,2.1,9.8,7.2,18.5,14.4,37,21.7,55.4,7.1,17.9,17.1,34.1,29.8,48.6,10.9,12.3,23.4,22,40.2,24.7,24.9,3.9,49.8,7.8,74.7,11.6,58.9,8.9,117.9,17.3,176.7,26.9Z"/>
    <path class="cls-1" d="M601.3,514.8c-13.2-34-19.9-67.9-21.9-103.5-7.9,1.3-15,2.2-22.1,3.5-29.1,5.3-65.4,8.9-94.8,4.8-60.2-8.5-113.2-18.4-173.3-27.7-25.5-4-51-8-77.6-12.2,1,3.8,1.3,6.4,2.3,8.8,10.4,24.6,20.6,49.3,31.6,73.6,4.1,8.9,10.1,17.1,15.8,25.2,12,17.1,28.4,26.2,49.5,26.7,8,.2,16.1.6,24.1.6,84.6,0,169.1,0,253.7.1,3.7,0,7.5,0,12.7,0Z"/>
    <path class="cls-1" d="M615.7,552.4h-234.6c0,2.9-.6,5.6.1,7.8,2.5,7.2,4.8,14.6,8.4,21.2,16.7,30.3,39.2,55.4,69,73.6,8,4.9,16.7,7.1,26.2,7,39-.2,78-.2,117,0,7.7,0,14.2-1.8,19.7-7.2,12.7-12.7,25.4-25.2,38-37.8-15-22.1-29.1-42.8-43.9-64.6Z"/>
  </g>
  <g>
    <path class="cls-1" d="M1891.2,21.7s-23.5,4.9-30.7,6.4c-23.9,5-47.8,10.3-71.7,15.6-52.2,11.6-104.3,23.4-156.5,35.1-89.8,20.2-179.6,40.4-269.5,60.5-14.1,3.2-28.4,5.5-42.4,8.8-5.2,1.2-10.3,3.2-15,5.8-14.3,8-28.3,16.6-43.8,25.9,25.7,25.8,43.7,55.6,57.8,89.5,158-29.3,314.9-62,473.7-93.4,26.1-5.2,47.8-23.2,57.7-47.9,2-5.1,4.1-10.2,6.1-15.3,8-20.2,16-40.4,24.1-60.6,2.1-5.2,8-20,10.5-26.4l-.4-3.9Z"/>
    <path class="cls-1" d="M1472.5,417.8c-29.3,4.1-56.4,4.8-95.7-.7-7.1-1.3-29.1-4.5-37-5.7-2,35.6-8.7,69.4-21.9,103.5,5.2,0,8.9,0,12.7,0,84.6,0,169.1,0,253.7-.1,8,0,16.1-.4,24.1-.6,21-.5,37.5-9.7,49.5-26.7,5.7-8.1,11.7-16.3,15.8-25.2,11.1-24.3,21.2-49,31.6-73.6,1-2.3,1.3-5,2.3-8.8-26.6,4.2-52.1,8.2-77.6,12.2-60,9.3-97.2,17.3-157.4,25.8Z"/>
    <path class="cls-1" d="M1303,552.4c-14.8,21.8-28.9,42.5-43.9,64.6,12.6,12.5,25.3,25.1,38,37.8,5.5,5.5,12,7.3,19.7,7.2,39-.2,78-.2,117,0,9.5,0,18.2-2.1,26.2-7,29.8-18.1,52.2-43.3,69-73.6,3.7-6.6,5.9-14,8.4-21.2.8-2.2.1-4.9.1-7.8h-234.6Z"/>
    <path class="cls-1" d="M1337.4,337c2.3,13.5,3.7,22.8,5.2,37.3,41.3,10.2,83.3,15.3,126.5,8.3,58.8-9.5,117.8-17.9,176.7-26.9,24.9-3.8,49.8-7.7,74.7-11.6,16.8-2.7,29.3-12.4,40.2-24.7,12.7-14.5,22.7-30.7,29.8-48.6,7.3-18.4,14.6-36.9,21.7-55.4.9-2.3,1.1-4.9,2.1-9.8-161.9,32.3-323.3,64.6-484.3,96.8.2,1,4.1,16.4,7.2,34.6Z"/>
  </g>
  <g>
    <path class="cls-2" d="M1161.9,837.1v-73.8c-24.6-27.3-51.5-49.5-73.4-78.2,57.1-24.7,101.5-62.8,135.8-112.9,34.3-50,55.8-104.9,57.3-166.9h-61.1c-8.2,137-121.9,245.5-260.9,245.5s-261.4-117-261.4-261.4,117-261.4,261.4-261.4,242.4,99,259.2,227.3h62.6c-2-11.9-3.2-23.2-5.7-34.2-23.7-104.4-84.3-179.6-181.5-223.9-61.5-28.1-126.3-33.9-193-21.8-66.3,12-124.4,40.2-171.5,88.4-81.5,83.5-107.2,184.2-83.9,297,17,82.3,62.9,146.8,132.5,193.9,17,11.5,35.1,21.4,53.5,32.4-3.4,3.9-7.2,8.6-11.4,12.9-17.7,18.1-35.2,36.2-53.3,53.8-7.4,7.2-10.9,14.8-10.6,25.3.6,19.5.2,39,.2,58.1-30.6,10.8-52.5,40-52.5,74.3s35.3,78.9,78.9,78.9,78.9-35.3,78.9-78.9-20.8-62-50.1-73.5v-47.2c26.9-28.4,53.8-56.7,81.6-86,11.3,1.8,24,3.7,37.2,5.8v193.9c-29.2,11.5-49.9,40-49.9,73.4s35.3,78.9,78.9,78.9,78.9-35.3,78.9-78.9-19.7-60.5-47.9-72.5v-195c13.4-2,25.8-3.9,37.3-5.6,26.7,28.7,52.8,56.7,78.4,84.2v48.6c-29.4,11.4-50.3,40-50.3,73.5s35.3,78.9,78.9,78.9,78.9-35.3,78.9-78.9-21.6-63.1-51.8-74.1ZM783.2,935.7c-13.3,0-24.2-10.8-24.2-24.1s10.8-24.2,24.2-24.2,24.1,10.8,24.1,24.2-10.8,24.1-24.1,24.1ZM960.5,1002.2c-13.3,0-24.2-10.8-24.2-24.1s10.8-24.2,24.2-24.2,24.2,10.8,24.2,24.2-10.8,24.1-24.2,24.1ZM1134.8,935.3c-13.3,0-24.1-10.8-24.1-24.2s10.8-24.1,24.1-24.1,24.2,10.8,24.2,24.1-10.8,24.2-24.2,24.2Z"/>
    <path class="cls-2" d="M706.2,745.2c21-21.7,42.2-43.5,64.5-66.5-14.9-11.5-28.3-21.8-43-33.2-21.8,21.8-42.7,42.7-63.9,63.9-8.2-2.9-17.1-4.5-26.3-4.5-43.5,0-78.7,35.2-78.7,78.7s35.2,78.7,78.7,78.7,78.7-35.2,78.7-78.7-3.6-27-9.9-38.3ZM637.4,807.7c-13.3,0-24.2-10.8-24.2-24.1s10.8-24.2,24.2-24.2,24.2,10.8,24.2,24.2-10.8,24.1-24.2,24.1Z"/>
    <path class="cls-2" d="M1281.2,704.8c-9.2,0-18.1,1.6-26.3,4.5-21.2-21.2-42.1-42-63.9-63.9-14.7,11.4-28.1,21.7-43,33.2,22.3,23,43.5,44.9,64.5,66.5-6.3,11.3-9.9,24.4-9.9,38.3,0,43.5,35.2,78.7,78.7,78.7s78.7-35.2,78.7-78.7-35.2-78.7-78.7-78.7ZM1281.2,807.7c-13.3,0-24.2-10.8-24.2-24.1s10.8-24.2,24.2-24.2,24.2,10.8,24.2,24.2-10.8,24.1-24.2,24.1Z"/>
    <path class="cls-2" d="M959.6,254.5c50.6,0,93.6,26.4,116.2,67.9,20.9-7.5,36.2-12.6,58-20.2-30.7-67-95.7-108.7-174.2-108.7s-179.9,73.3-192.6,168.3c-.1.9-.3,1.9-.3,2.8-.9,7.6-1.4,15.4-1.4,23.2s.8,20.7,2.4,30.6c11.1,69.8,60.8,128.1,125.3,152.2,4.3-19.8,8.6-39.9,13.2-60.7-47-20.6-79.8-67.5-79.8-122.1s59.7-133.3,133.3-133.3Z"/>
    <path class="cls-2" d="M1153.9,387.8c0-11.8-1.1-23.3-3.1-34.5-20.7,5.9-39.9,11.4-59.1,16.9.8,5.8,1.2,11.7,1.2,17.7,0,73.6-59.7,133.3-133.3,133.3s-2.4,0-3.4,0c0,.5-8.8,40-13,60.4,5.4.5,11,.7,16.5.7,107.3,0,194.3-87,194.3-194.3Z"/>
  </g>
</svg>