<svg width="36" height="40" fill="none" xmlns="http://www.w3.org/2000/svg"><path fill-rule="evenodd" clip-rule="evenodd" d="M15.925 2.512a4.526 4.526 0 002.13 8.485l1.415 2.539-1.755 6.179-6.18-1.756-1.414-2.54a4.526 4.526 0 00-6.097-6.272 4.526 4.526 0 002.13 8.484l1.968 3.531 9.268 2.634 1.968 3.53a4.526 4.526 0 006.097 6.274 4.526 4.526 0 00-2.13-8.485l-1.968-3.53 2.633-9.269-1.968-3.53a4.526 4.526 0 00-6.097-6.274zM7.562 15.494c-1.31.73-2.988.236-3.707-1.053-.719-1.29-.236-2.989 1.053-3.707 1.29-.72 2.989-.236 3.707 1.053.72 1.29.236 2.988-1.053 3.707zM24.57 32.013c-1.309.73-2.988.236-3.707-1.054-.719-1.289-.236-2.988 1.053-3.707 1.29-.719 2.989-.236 3.708 1.053.718 1.29.236 2.989-1.054 3.708zM19.463 8.86c-1.309.73-2.988.236-3.707-1.054-.718-1.289-.236-2.988 1.054-3.707 1.289-.719 2.988-.236 3.707 1.054.719 1.289.236 2.988-1.053 3.707z" fill="#e1e4e8"/></svg>
