<svg width="48" height="48" viewBox="0 0 48 48" fill="none" xmlns="http://www.w3.org/2000/svg">
<path d="M5 43H3C1.89543 43 1 42.1046 1 41V7C1 5.89543 1.89543 5 3 5H5" stroke="#79B8FF" stroke-width="2" stroke-linecap="round" stroke-linejoin="round"/>
<path d="M5 35.0022H3C2.06053 34.9538 1 35.6939 1 37.0022" stroke="#79B8FF" stroke-width="2" stroke-linecap="round" stroke-linejoin="round"/>
<path fill-rule="evenodd" clip-rule="evenodd" d="M21.02 21.5163C21.02 22.3443 20.3481 23.0163 19.5205 23.0163C18.6918 23.0163 18.02 22.3443 18.02 21.5163C18.02 20.6883 18.6918 20.0163 19.5205 20.0163C20.3481 20.0163 21.02 20.6883 21.02 21.5163Z" fill="#79B8FF"/>
<path fill-rule="evenodd" clip-rule="evenodd" d="M20.9949 28.5015C20.9949 29.3295 20.3231 30.0015 19.4954 30.0015C18.6668 30.0015 17.9949 29.3295 17.9949 28.5015C17.9949 27.6736 18.6668 27.0015 19.4954 27.0015C20.3231 27.0015 20.9949 27.6736 20.9949 28.5015Z" fill="#79B8FF"/>
<path fill-rule="evenodd" clip-rule="evenodd" d="M21.0083 7.50864C21.0083 8.33687 20.3365 9.00815 19.5088 9.00815C18.6801 9.00815 18.0083 8.33687 18.0083 7.50864C18.0083 6.67942 18.6801 6.00815 19.5088 6.00815C20.3365 6.00815 21.0083 6.67942 21.0083 7.50864Z" fill="#79B8FF"/>
<path fill-rule="evenodd" clip-rule="evenodd" d="M21.0021 14.4997C21.0021 15.328 20.3303 15.9992 19.5026 15.9992C18.6739 15.9992 18.0021 15.328 18.0021 14.4997C18.0021 13.6705 18.6739 12.9992 19.5026 12.9992C20.3303 12.9992 21.0021 13.6705 21.0021 14.4997Z" fill="#79B8FF"/>
<path fill-rule="evenodd" clip-rule="evenodd" d="M25 39C26.1046 39 27 39.8954 27 41V47L22 45L17 47L17 41C17 39.8954 17.8954 39 19 39H25Z" stroke="#79B8FF" stroke-width="2" stroke-linecap="round" stroke-linejoin="round"/>
<path d="M12.9998 43H10.9998C10.022 43 8.99982 42.0177 8.99982 41V3C8.99982 1.98229 10.022 1 10.9998 1H44.9998C45.9777 1 47 1.98229 46.9998 3V41C47 42.0177 45.9777 43 44.9998 43H30.9998" stroke="#2088FF" stroke-width="2" stroke-linecap="round" stroke-linejoin="round"/>
<path d="M9 37C9 35.7852 10.0435 34.886 11 35H45C46.0854 34.886 47 34.0479 47 33" stroke="#2088FF" stroke-width="2" stroke-linecap="round" stroke-linejoin="round"/>
<path d="M14.1 2.07401V33.9415" stroke="#2088FF" stroke-width="2" stroke-linecap="round" stroke-linejoin="round"/>
</svg>
