<svg viewBox="0 0 200 200" xmlns="http://www.w3.org/2000/svg"><g stroke="#fff" stroke-miterlimit="10" stroke-width="1.5"><path d="m199.72 100.14a98.23 98.23 0 0 1 -3.57 26.58 101.6 101.6 0 0 1 -10.05 23.87 99.31 99.31 0 0 1 -35.72 35.77 101.17 101.17 0 0 1 -23.84 10.06 100.31 100.31 0 0 1 -53.12 0 100.37 100.37 0 0 1 -44.12-25.63 99 99 0 0 1 -15.65-20.2 100.44 100.44 0 0 1 -10.08-23.87 100.85 100.85 0 0 1 0-53.19 100.15 100.15 0 0 1 69.85-69.95 97.94 97.94 0 0 1 26.58-3.58v100.14z" fill="#ffea7f"/><path d="m100 100.14v-100.14a97.94 97.94 0 0 1 26.58 3.58 100.22 100.22 0 0 1 69.85 70 98.55 98.55 0 0 1 3.57 26.56z" fill="#f9c513"/><circle cx="100" cy="100" fill="#fff" r="48.6"/></g></svg>