<svg width="138" height="138" viewBox="0 0 138 138" fill="none" xmlns="http://www.w3.org/2000/svg">
<mask id="path-1-outside-1" maskUnits="userSpaceOnUse" x="0" y="0" width="138" height="138" fill="black">
<rect fill="white" width="138" height="138"/>
<path fill-rule="evenodd" clip-rule="evenodd" d="M130.821 97.3233C136.642 84.6162 138.407 70.4238 135.874 56.678L99.4921 63.3816C99.8257 65.2037 100 67.0815 100 69C100 86.1208 86.1208 100 69 100C51.8792 100 38 86.1208 38 69C38 51.8792 51.8792 38 69 38L69 1C55.0228 1 41.3851 5.30714 29.9434 13.3351C18.5016 21.3631 9.81163 32.7219 5.05637 45.8654C0.301105 59.0088 -0.28842 73.2983 3.36801 86.7888C7.02445 100.279 14.7492 112.315 25.4908 121.258C36.2324 130.202 49.4689 135.618 63.3986 136.769C77.3283 137.92 91.2745 134.751 103.339 127.693C115.403 120.635 124.999 110.03 130.821 97.3233Z"/>
</mask>
<path fill-rule="evenodd" clip-rule="evenodd" d="M130.821 97.3233C136.642 84.6162 138.407 70.4238 135.874 56.678L99.4921 63.3816C99.8257 65.2037 100 67.0815 100 69C100 86.1208 86.1208 100 69 100C51.8792 100 38 86.1208 38 69C38 51.8792 51.8792 38 69 38L69 1C55.0228 1 41.3851 5.30714 29.9434 13.3351C18.5016 21.3631 9.81163 32.7219 5.05637 45.8654C0.301105 59.0088 -0.28842 73.2983 3.36801 86.7888C7.02445 100.279 14.7492 112.315 25.4908 121.258C36.2324 130.202 49.4689 135.618 63.3986 136.769C77.3283 137.92 91.2745 134.751 103.339 127.693C115.403 120.635 124.999 110.03 130.821 97.3233Z" fill="#FFEA7F"/>
<path d="M135.874 56.678L136.858 56.4968L136.677 55.5134L135.693 55.6946L135.874 56.678ZM130.821 97.3233L129.912 96.9068L129.912 96.9068L130.821 97.3233ZM99.4921 63.3816L99.3109 62.3982L98.3286 62.5792L98.5085 63.5617L99.4921 63.3816ZM69 38V39H70L70 38L69 38ZM69 1L70 1L70 0H69V1ZM5.05637 45.8654L5.99672 46.2056L5.99672 46.2056L5.05637 45.8654ZM3.36801 86.7888L2.40284 87.0504L3.36801 86.7888ZM25.4908 121.258L24.8509 122.027L24.8509 122.027L25.4908 121.258ZM103.339 127.693L102.834 126.83L102.834 126.83L103.339 127.693ZM134.891 56.8592C137.386 70.4029 135.648 84.3866 129.912 96.9068L131.73 97.7398C137.637 84.8459 139.428 70.4448 136.858 56.4968L134.891 56.8592ZM99.6733 64.3651L136.055 57.6615L135.693 55.6946L99.3109 62.3982L99.6733 64.3651ZM98.5085 63.5617C98.8312 65.3247 99 67.1422 99 69H101C101 67.0208 100.82 65.0828 100.476 63.2016L98.5085 63.5617ZM99 69C99 85.5685 85.5685 99 69 99V101C86.6731 101 101 86.6731 101 69H99ZM69 99C52.4314 99 39 85.5685 39 69H37C37 86.6731 51.3269 101 69 101V99ZM39 69C39 52.4315 52.4314 39 69 39V37C51.3269 37 37 51.3269 37 69H39ZM68 1L68 38L70 38L70 1L68 1ZM30.5177 14.1537C41.7912 6.2438 55.2283 2 69 2V0C54.8172 0 40.979 4.37048 29.369 12.5165L30.5177 14.1537ZM5.99672 46.2056C10.682 33.2554 19.2442 22.0637 30.5177 14.1537L29.369 12.5165C17.759 20.6626 8.94121 32.1884 4.11602 45.5251L5.99672 46.2056ZM4.33319 86.5272C0.730528 73.2351 1.31138 59.1557 5.99672 46.2056L4.11602 45.5251C-0.709173 58.8619 -1.30737 73.3615 2.40284 87.0504L4.33319 86.5272ZM26.1306 120.49C15.547 111.678 7.93585 99.8193 4.33319 86.5272L2.40284 87.0504C6.11304 100.739 13.9514 112.952 24.8509 122.027L26.1306 120.49ZM63.481 135.772C49.7561 134.638 36.7142 129.302 26.1306 120.49L24.8509 122.027C35.7505 131.102 49.1817 136.597 63.3162 137.766L63.481 135.772ZM102.834 126.83C90.9469 133.784 77.2059 136.907 63.481 135.772L63.3162 137.766C77.4508 138.934 91.602 135.718 103.844 128.556L102.834 126.83ZM129.912 96.9068C124.175 109.427 114.72 119.875 102.834 126.83L103.844 128.556C116.085 121.394 125.822 110.634 131.73 97.7398L129.912 96.9068Z" fill="white" mask="url(#path-1-outside-1)"/>
<mask id="path-3-outside-2" maskUnits="userSpaceOnUse" x="68" y="0" width="70" height="65" fill="black">
<rect fill="white" x="68" width="70" height="65"/>
<path fill-rule="evenodd" clip-rule="evenodd" d="M112.509 16.7415C100.292 6.56981 84.8973 1 69 1V38C84.2023 38 96.8488 48.943 99.4921 63.3816L135.874 56.678C132.994 41.0439 124.726 26.9133 112.509 16.7415Z"/>
</mask>
<path fill-rule="evenodd" clip-rule="evenodd" d="M112.509 16.7415C100.292 6.56981 84.8973 1 69 1V38C84.2023 38 96.8488 48.943 99.4921 63.3816L135.874 56.678C132.994 41.0439 124.726 26.9133 112.509 16.7415Z" fill="#F9C513"/>
<path d="M69 1V0H68V1H69ZM112.509 16.7415L111.869 17.51L111.869 17.51L112.509 16.7415ZM69 38H68V39H69V38ZM99.4921 63.3816L98.5085 63.5617L98.6888 64.5465L99.6734 64.3651L99.4921 63.3816ZM135.874 56.678L136.055 57.6615L137.039 57.4802L136.858 56.4968L135.874 56.678ZM69 2C84.6635 2 99.8319 7.4879 111.869 17.51L113.149 15.973C100.752 5.65172 85.131 0 69 0V2ZM70 38V1H68V38H70ZM69 39C83.7109 39 95.9506 49.5894 98.5085 63.5617L100.476 63.2016C97.7471 48.2965 84.6938 37 69 37V39ZM135.693 55.6946L99.3109 62.3982L99.6734 64.3651L136.055 57.6615L135.693 55.6946ZM111.869 17.51C123.907 27.5322 132.053 41.455 134.891 56.8592L136.858 56.4968C133.935 40.6328 125.546 26.2943 113.149 15.973L111.869 17.51Z" fill="white" mask="url(#path-3-outside-2)"/>
</svg>
