<svg width="138" height="138" viewBox="0 0 138 138" fill="none" xmlns="http://www.w3.org/2000/svg">
<mask id="path-1-outside-1" maskUnits="userSpaceOnUse" x="0" y="0" width="134" height="138" fill="black">
<rect fill="white" width="134" height="138"/>
<path fill-rule="evenodd" clip-rule="evenodd" d="M109.357 123.729C119.261 116.426 126.997 106.573 131.742 95.2197L97.6103 80.9562C92.9306 92.1413 81.883 100 69 100C51.8792 100 38 86.1208 38 69C38 51.8792 51.8792 38 69 38C69 38 69 38 69.0001 38V1C56.6951 1 44.6208 4.33887 34.064 10.6607C23.5072 16.9826 14.8637 26.0505 9.05463 36.8979C3.24559 47.7454 0.488768 59.9658 1.07806 72.2566C1.66736 84.5474 5.5807 96.448 12.4009 106.69C19.2211 116.932 28.6925 125.131 39.8057 130.414C50.9188 135.697 63.2572 137.865 75.5057 136.688C87.7542 135.511 99.4538 131.032 109.357 123.729Z"/>
</mask>
<path fill-rule="evenodd" clip-rule="evenodd" d="M109.357 123.729C119.261 116.426 126.997 106.573 131.742 95.2197L97.6103 80.9562C92.9306 92.1413 81.883 100 69 100C51.8792 100 38 86.1208 38 69C38 51.8792 51.8792 38 69 38C69 38 69 38 69.0001 38V1C56.6951 1 44.6208 4.33887 34.064 10.6607C23.5072 16.9826 14.8637 26.0505 9.05463 36.8979C3.24559 47.7454 0.488768 59.9658 1.07806 72.2566C1.66736 84.5474 5.5807 96.448 12.4009 106.69C19.2211 116.932 28.6925 125.131 39.8057 130.414C50.9188 135.697 63.2572 137.865 75.5057 136.688C87.7542 135.511 99.4538 131.032 109.357 123.729Z" fill="#FFEA7F"/>
<path d="M131.742 95.2197L132.664 95.6053L133.05 94.6826L132.127 94.297L131.742 95.2197ZM109.357 123.729L108.764 122.924L108.764 122.924L109.357 123.729ZM97.6103 80.9562L97.9959 80.0335L97.0736 79.6481L96.6878 80.5702L97.6103 80.9562ZM69.0001 38V39H70.0001V38H69.0001ZM69.0001 1H70.0001V0H69.0001V1ZM9.05463 36.8979L8.17308 36.4258L8.17308 36.4258L9.05463 36.8979ZM39.8057 130.414L39.3763 131.317L39.3763 131.317L39.8057 130.414ZM75.5057 136.688L75.6014 137.683L75.6014 137.683L75.5057 136.688ZM130.819 94.8341C126.144 106.021 118.522 115.729 108.764 122.924L109.951 124.534C120 117.124 127.85 107.126 132.664 95.6053L130.819 94.8341ZM97.2247 81.8789L131.356 96.1424L132.127 94.297L97.9959 80.0335L97.2247 81.8789ZM96.6878 80.5702C92.1582 91.3965 81.4659 99 69 99V101C82.3002 101 93.703 92.8861 98.5328 81.3422L96.6878 80.5702ZM69 99C52.4315 99 39 85.5685 39 69H37C37 86.6731 51.3269 101 69 101V99ZM39 69C39 52.4315 52.4315 39 69 39V37C51.3269 37 37 51.3269 37 69H39ZM69 39C69 39 69 39 69 39C69 39 69 39 69 39C69 39 69 39 69 39C69 39 69 39 69 39C69 39 69 39 69 39C69 39 69 39 69 39C69 39 69 39 69 39C69 39 69 39 69 39C69 39 69 39 69 39C69 39 69 39 69 39C69 39 69 39 69 39C69 39 69 39 69 39C69 39 69 39 69 39C69 39 69 39 69 39C69 39 69 39 69 39C69 39 69 39 69 39C69 39 69 39 69 39C69 39 69 39 69 39C69 39 69 39 69 39C69 39 69 39 69 39C69 39 69 39 69 39C69 39 69 39 69 39C69 39 69 39 69 39C69 39 69 39 69 39C69 39 69 39 69 39C69 39 69 39 69 39C69 39 69 39 69 39C69 39 69 39 69 39C69 39 69 39 69 39C69 39 69 39 69 39C69 39 69 39 69 39C69 39 69 39 69 39C69 39 69 39 69 39C69 39 69 39 69 39C69 39 69 39 69 39C69 39 69 39 69 39C69 39 69 39 69 39C69 39 69 39 69 39C69 39 69 39 69 39C69 39 69 39 69 39C69 39 69 39 69 39C69 39 69 39 69 39C69 39 69 39 69 39C69 39 69 39 69 39C69 39 69 39 69 39C69 39 69 39 69 39C69 39 69 39 69 39C69 39 69 39 69 39C69 39 69 39 69 39C69 39 69 39 69 39C69 39 69 39 69 39C69 39 69 39 69 39C69 39 69 39 69 39C69 39 69 39 69 39C69 39 69 39 69 39C69 39 69 39 69 39C69 39 69 39 69 39C69 39 69 39 69 39C69 39 69 39 69 39C69 39 69 39 69 39C69 39 69 39 69 39C69 39 69 39 69 39C69 39 69 39 69 39C69 39 69 39 69 39C69 39 69 39 69 39C69 39 69 39 69 39C69 39 69 39 69 39C69 39 69 39 69 39C69 39 69 39 69 39C69 39 69 39 69 39C69 39 69 39 69 39C69 39 69 39 69 39C69 39 69 39 69 39C69 39 69 39 69 39C69 39 69 39 69 39C69 39 69 39 69 39C69 39 69 39 69 39C69 39 69 39 69 39C69 39 69 39 69 39C69 39 69 39 69 39C69 39 69 39 69 39C69 39 69 39 69 39C69 39 69 39 69 39C69 39 69 39 69 39C69 39 69 39 69 39C69 39 69 39 69 39C69 39 69 39 69 39C69 39 69 39 69 39C69 39 69 39 69 39C69 39 69 39 69 39C69 39 69 39 69 39C69 39 69 39 69 39C69 39 69 39 69 39C69 39 69 39 69 39C69 39 69 39 69 39C69 39 69 39 69 39C69 39 69 39 69 39C69 39 69 39 69 39C69 39 69 39 69 39C69 39 69 39 69 39C69 39 69 39 69 39C69 39 69 39 69 39C69 39 69 39 69 39C69 39 69 39 69 39C69 39 69 39 69 39C69 39 69 39 69 39C69 39 69 39 69 39C69 39 69 39 69 39C69 39 69 39 69 39C69 39 69 39 69 39C69 39 69 39 69 39C69 39 69 39 69 39C69 39 69 39 69 39C69 39 69 39 69 39C69 39 69 39 69 39C69 39 69 39 69 39C69 39 69 39 69 39C69 39 69 39 69 39C69 39 69 39 69 39C69 39 69 39 69 39C69 39 69 39 69 39C69 39 69 39 69 39C69 39 69 39 69 39C69 39 69 39 69 39C69 39 69 39 69 39C69 39 69 39 69 39C69 39 69 39 69 39C69 39 69 39 69 39C69 39 69 39 69 39C69 39 69 39 69 39C69 39 69 39 69 39C69 39 69 39 69 39C69 39 69 39 69 39C69 39 69 39 69 39C69 39 69 39 69 39C69 39 69 39 69 39C69 39 69 39 69 39C69 39 69 39 69 39C69 39 69 39 69 39C69 39 69 39 69 39C69 39 69 39 69 39C69 39 69 39 69 39C69 39 69 39 69 39C69 39 69 39 69 39C69 39 69 39 69 39C69 39 69 39 69 39C69 39 69 39 69 39C69 39 69 39 69 39C69 39 69 39 69 39C69 39 69 39 69 39C69 39 69 39 69 39C69 39 69 39 69 39C69 39 69 39 69 39C69 39 69 39 69 39C69 39 69 39 69 39C69 39 69 39 69 39C69 39 69 39 69 39C69 39 69 39 69 39C69 39 69 39 69 39C69 39 69 39 69 39C69 39 69 39 69 39C69 39 69 39 69 39C69 39 69 39 69 39C69 39 69 39 69 39C69 39 69 39 69 39C69 39 69 39 69 39C69 39 69 39 69 39C69 39 69 39 69 39C69 39 69 39 69 39C69 39 69 39 69 39C69 39 69 39 69 39C69 39 69 39 69 39C69 39 69 39 69 39C69 39 69 39 69 39C69 39 69 39 69 39C69 39 69 39 69 39C69 39 69 39 69 39C69 39 69 39 69 39C69 39 69 39 69 39C69 39 69 39 69 39C69 39 69 39 69 39C69 39 69 39 69 39C69 39 69 39 69 39C69 39 69 39 69 39C69 39 69 39 69 39C69 39 69 39 69 39C69 39 69 39 69 39C69 39 69 39 69 39C69 39 69 39 69 39C69 39 69 39 69 39C69 39 69 39 69 39C69 39 69 39 69 39C69 39 69 39 69 39C69 39 69 39 69 39C69 39 69 39 69 39C69 39 69 39 69 39C69 39 69 39 69 39C69 39 69 39 69 39C69 39 69 39 69 39C69 39 69 39 69 39C69 39 69 39 69 39C69 39 69 39 69 39C69 39 69 39 69 39C69 39 69 39 69 39C69 39 69 39 69 39C69 39 69 39 69 39C69 39 69 39 69 39C69 39 69 39 69 39C69 39 69 39 69 39C69 39 69 39 69 39C69 39 69 39 69 39C69 39 69 39 69 39C69 39 69 39 69 39C69 39 69 39 69 39C69 39 69 39 69 39C69 39 69 39 69 39C69 39 69 39 69 39C69 39 69 39 69 39C69 39 69 39 69 39C69 39 69 39 69 39C69 39 69 39 69 39C69 39 69 39 69 39C69 39 69 39 69 39C69 39 69 39 69 39C69 39 69 39 69 39C69 39 69 39 69 39C69 39 69 39 69 39C69 39 69 39 69 39C69 39 69 39 69 39C69 39 69 39 69 39C69 39 69 39 69 39C69 39 69 39 69 39C69 39 69 39 69 39C69 39 69 39 69 39C69 39 69 39 69 39C69 39 69 39 69 39C69 39 69 39 69 39C69 39 69 39 69 39C69 39 69 39 69 39C69 39 69 39 69 39C69 39 69 39 69 39C69 39 69 39 69 39C69 39 69 39 69 39C69 39 69 39 69 39C69 39 69 39 69 39C69 39 69 39 69 39C69 39 69 39 69 39C69 39 69 39 69 39C69 39 69 39 69 39C69 39 69 39 69 39C69 39 69 39 69 39C69 39 69 39 69 39C69 39 69 39 69 39C69 39 69 39 69 39C69 39 69 39 69 39C69 39 69 39 69 39C69 39 69 39 69 39C69 39 69 39 69 39C69 39 69 39 69 39C69 39 69 39 69 39C69 39 69 39 69 39C69 39 69 39 69 39C69 39 69 39 69 39C69 39 69 39 69 39C69 39 69 39 69 39C69 39 69 39 69 39C69 39 69 39 69 39C69 39 69 39 69 39C69 39 69 39 69 39C69 39 69 39 69 39C69 39 69 39 69 39C69 39 69 39 69 39C69 39 69 39 69 39C69 39 69 39 69 39C69 39 69 39 69 39C69 39 69 39 69 39C69 39 69 39 69 39C69 39 69 39 69 39C69 39 69 39 69 39C69 39 69 39 69 39C69 39 69 39 69 39C69 39 69 39 69 39C69 39 69 39 69 39C69 39 69 39 69 39C69 39 69 39 69 39C69 39 69 39 69 39C69 39 69 39 69 39C69 39 69 39 69 39C69 39 69 39 69 39C69 39 69 39 69 39C69 39 69 39 69 39C69 39 69 39 69 39C69 39 69 39 69 39C69 39 69 39 69 39C69 39 69 39 69 39C69 39 69 39 69 39C69 39 69 39 69 39C69 39 69 39 69 39C69 39 69 39 69 39C69 39 69 39 69 39C69 39 69 39 69 39C69 39 69 39 69 39C69 39 69 39 69 39C69 39 69 39 69 39C69 39 69 39 69 39C69 39 69 39 69 39C69 39 69 39 69 39C69 39 69 39 69 39C69 39 69 39 69 39C69 39 69 39 69 39C69 39 69 39 69 39C69 39 69 39 69 39C69 39 69 39 69 39C69 39 69 39 69 39C69 39 69 39 69 39C69 39 69 39 69 39C69 39 69 39 69 39C69 39 69 39 69 39C69 39 69 39 69 39C69 39 69 39 69 39C69 39 69 39 69 39C69 39 69 39 69 39C69 39 69 39 69 39C69 39 69 39 69 39C69 39 69 39 69 39C69 39 69 39 69 39C69 39 69 39 69 39C69 39 69 39 69 39C69 39 69 39 69 39C69 39 69 39 69 39C69 39 69 39 69 39C69 39 69 39 69 39C69 39 69 39 69 39C69 39 69 39 69 39C69 39 69 39 69 39C69 39 69 39 69 39C69 39 69 39 69 39C69 39 69 39 69 39C69 39 69 39 69 39C69 39 69 39 69 39C69 39 69 39 69 39C69 39 69 39 69 39C69 39 69 39 69 39C69 39 69 39 69 39C69 39 69 39 69 39C69 39 69 39 69 39C69 39 69 39 69 39C69 39 69 39 69 39C69 39 69 39 69 39C69 39 69 39 69 39C69 39 69 39 69 39C69 39 69 39 69 39C69 39 69 39 69 39C69 39 69 39 69 39C69 39 69 39 69 39C69 39 69 39 69 39C69 39 69 39 69 39C69 39 69 39 69 39C69 39 69 39 69 39C69 39 69 39 69 39C69 39 69 39 69 39C69 39 69 39 69 39C69 39 69 39 69 39C69 39 69 39 69 39C69 39 69 39 69 39C69 39 69 39 69 39C69 39 69 39 69 39C69 39 69 39 69 39C69 39 69 39 69 39C69 39 69 39 69 39C69 39 69 39 69 39C69 39 69 39 69 39C69 39 69 39 69 39C69 39 69 39 69 39C69 39 69 39 69 39C69 39 69 39 69 39C69 39 69 39 69 39C69 39 69 39 69 39C69 39 69 39 69 39C69 39 69 39 69 39C69 39 69 39 69 39C69 39 69 39 69 39C69 39 69 39 69 39C69 39 69 39 69 39C69 39 69 39 69 39C69 39 69 39 69 39C69 39 69 39 69 39C69 39 69 39 69 39C69 39 69 39 69 39C69 39 69 39 69 39C69 39 69 39 69 39C69 39 69 39 69 39C69 39 69 39 69 39C69 39 69 39 69 39C69 39 69 39 69 39C69 39 69 39 69 39C69 39 69 39 69 39C69 39 69 39 69 39C69 39 69 39 69 39C69 39 69 39 69 39C69 39 69 39 69 39C69 39 69 39 69 39C69 39 69 39 69 39C69 39 69 39 69 39C69 39 69 39 69 39C69 39 69 39 69 39C69 39 69 39 69 39C69 39 69 39 69 39C69 39 69 39 69 39C69 39 69 39 69 39C69 39 69 39 69 39C69 39 69 39 69 39C69 39 69 39 69 39C69 39 69 39 69 39C69 39 69 39 69 39C69 39 69 39 69 39C69 39 69 39 69 39C69 39 69 39 69 39C69 39 69 39 69 39C69 39 69 39 69 39C69 39 69 39 69 39C69 39 69 39 69 39C69 39 69 39 69 39C69 39 69 39 69 39C69 39 69 39 69 39C69 39 69.0001 39 69.0001 39C69.0001 39 69.0001 39 69.0001 39C69.0001 39 69.0001 39 69.0001 39C69.0001 39 69.0001 39 69.0001 39C69.0001 39 69.0001 39 69.0001 39C69.0001 39 69.0001 39 69.0001 39C69.0001 39 69.0001 39 69.0001 39C69.0001 39 69.0001 39 69.0001 39C69.0001 39 69.0001 39 69.0001 39C69.0001 39 69.0001 39 69.0001 39C69.0001 39 69.0001 39 69.0001 39C69.0001 39 69.0001 39 69.0001 39C69.0001 39 69.0001 39 69.0001 39C69.0001 39 69.0001 39 69.0001 39C69.0001 39 69.0001 39 69.0001 39C69.0001 39 69.0001 39 69.0001 39C69.0001 39 69.0001 39 69.0001 39C69.0001 39 69.0001 39 69.0001 39C69.0001 39 69.0001 39 69.0001 39C69.0001 39 69.0001 39 69.0001 39C69.0001 39 69.0001 39 69.0001 39C69.0001 39 69.0001 39 69.0001 39C69.0001 39 69.0001 39 69.0001 39C69.0001 39 69.0001 39 69.0001 39C69.0001 39 69.0001 39 69.0001 39C69.0001 39 69.0001 39 69.0001 39C69.0001 39 69.0001 39 69.0001 39C69.0001 39 69.0001 39 69.0001 39C69.0001 39 69.0001 39 69.0001 39C69.0001 39 69.0001 39 69.0001 39C69.0001 39 69.0001 39 69.0001 39C69.0001 39 69.0001 39 69.0001 39C69.0001 39 69.0001 39 69.0001 39C69.0001 39 69.0001 39 69.0001 39C69.0001 39 69.0001 39 69.0001 39C69.0001 39 69.0001 39 69.0001 39C69.0001 39 69.0001 39 69.0001 39C69.0001 39 69.0001 39 69.0001 39C69.0001 39 69.0001 39 69.0001 39C69.0001 39 69.0001 39 69.0001 39C69.0001 39 69.0001 39 69.0001 39C69.0001 39 69.0001 39 69.0001 39C69.0001 39 69.0001 39 69.0001 39C69.0001 39 69.0001 39 69.0001 39C69.0001 39 69.0001 39 69.0001 39C69.0001 39 69.0001 39 69.0001 39C69.0001 39 69.0001 39 69.0001 39C69.0001 39 69.0001 39 69.0001 39C69.0001 39 69.0001 39 69.0001 39C69.0001 39 69.0001 39 69.0001 39C69.0001 39 69.0001 39 69.0001 39C69.0001 39 69.0001 39 69.0001 39C69.0001 39 69.0001 39 69.0001 39C69.0001 39 69.0001 39 69.0001 39C69.0001 39 69.0001 39 69.0001 39C69.0001 39 69.0001 39 69.0001 39C69.0001 39 69.0001 39 69.0001 39C69.0001 39 69.0001 39 69.0001 39C69.0001 39 69.0001 39 69.0001 39C69.0001 39 69.0001 39 69.0001 39C69.0001 39 69.0001 39 69.0001 39C69.0001 39 69.0001 39 69.0001 39C69.0001 39 69.0001 39 69.0001 39C69.0001 39 69.0001 39 69.0001 39C69.0001 39 69.0001 39 69.0001 39C69.0001 39 69.0001 39 69.0001 39C69.0001 39 69.0001 39 69.0001 39C69.0001 39 69.0001 39 69.0001 39C69.0001 39 69.0001 39 69.0001 39C69.0001 39 69.0001 39 69.0001 39C69.0001 39 69.0001 39 69.0001 39C69.0001 39 69.0001 39 69.0001 39C69.0001 39 69.0001 39 69.0001 39C69.0001 39 69.0001 39 69.0001 39C69.0001 39 69.0001 39 69.0001 39C69.0001 39 69.0001 39 69.0001 39C69.0001 39 69.0001 39 69.0001 39C69.0001 39 69.0001 39 69.0001 39C69.0001 39 69.0001 39 69.0001 39C69.0001 39 69.0001 39 69.0001 39C69.0001 39 69.0001 39 69.0001 39C69.0001 39 69.0001 39 69.0001 39C69.0001 39 69.0001 39 69.0001 39C69.0001 39 69.0001 39 69.0001 39C69.0001 39 69.0001 39 69.0001 39C69.0001 39 69.0001 39 69.0001 39C69.0001 39 69.0001 39 69.0001 39V37C69.0001 37 69.0001 37 69.0001 37C69.0001 37 69.0001 37 69.0001 37C69.0001 37 69.0001 37 69.0001 37C69.0001 37 69.0001 37 69.0001 37C69.0001 37 69.0001 37 69.0001 37C69.0001 37 69.0001 37 69.0001 37C69.0001 37 69.0001 37 69.0001 37C69.0001 37 69.0001 37 69.0001 37C69.0001 37 69.0001 37 69.0001 37C69.0001 37 69.0001 37 69.0001 37C69.0001 37 69.0001 37 69.0001 37C69.0001 37 69.0001 37 69.0001 37C69.0001 37 69.0001 37 69.0001 37C69.0001 37 69.0001 37 69.0001 37C69.0001 37 69.0001 37 69.0001 37C69.0001 37 69.0001 37 69.0001 37C69.0001 37 69.0001 37 69.0001 37C69.0001 37 69.0001 37 69.0001 37C69.0001 37 69.0001 37 69.0001 37C69.0001 37 69.0001 37 69.0001 37C69.0001 37 69.0001 37 69.0001 37C69.0001 37 69.0001 37 69.0001 37C69.0001 37 69.0001 37 69.0001 37C69.0001 37 69.0001 37 69.0001 37C69.0001 37 69.0001 37 69.0001 37C69.0001 37 69.0001 37 69.0001 37C69.0001 37 69.0001 37 69.0001 37C69.0001 37 69.0001 37 69.0001 37C69.0001 37 69.0001 37 69.0001 37C69.0001 37 69.0001 37 69.0001 37C69.0001 37 69.0001 37 69.0001 37C69.0001 37 69.0001 37 69.0001 37C69.0001 37 69.0001 37 69.0001 37C69.0001 37 69.0001 37 69.0001 37C69.0001 37 69.0001 37 69.0001 37C69.0001 37 69.0001 37 69.0001 37C69.0001 37 69.0001 37 69.0001 37C69.0001 37 69.0001 37 69.0001 37C69.0001 37 69.0001 37 69.0001 37C69.0001 37 69.0001 37 69.0001 37C69.0001 37 69.0001 37 69.0001 37C69.0001 37 69.0001 37 69.0001 37C69.0001 37 69.0001 37 69.0001 37C69.0001 37 69.0001 37 69.0001 37C69.0001 37 69.0001 37 69.0001 37C69.0001 37 69.0001 37 69.0001 37C69.0001 37 69.0001 37 69.0001 37C69.0001 37 69.0001 37 69.0001 37C69.0001 37 69.0001 37 69.0001 37C69.0001 37 69.0001 37 69.0001 37C69.0001 37 69.0001 37 69.0001 37C69.0001 37 69.0001 37 69.0001 37C69.0001 37 69.0001 37 69.0001 37C69.0001 37 69.0001 37 69.0001 37C69.0001 37 69.0001 37 69.0001 37C69.0001 37 69.0001 37 69.0001 37C69.0001 37 69.0001 37 69.0001 37C69.0001 37 69.0001 37 69.0001 37C69.0001 37 69.0001 37 69.0001 37C69.0001 37 69.0001 37 69.0001 37C69.0001 37 69.0001 37 69.0001 37C69.0001 37 69.0001 37 69.0001 37C69.0001 37 69.0001 37 69.0001 37C69.0001 37 69.0001 37 69.0001 37C69.0001 37 69.0001 37 69.0001 37C69.0001 37 69.0001 37 69.0001 37C69.0001 37 69.0001 37 69.0001 37C69.0001 37 69.0001 37 69.0001 37C69.0001 37 69.0001 37 69.0001 37C69.0001 37 69.0001 37 69.0001 37C69.0001 37 69.0001 37 69.0001 37C69.0001 37 69.0001 37 69.0001 37C69.0001 37 69.0001 37 69.0001 37C69.0001 37 69.0001 37 69.0001 37C69.0001 37 69.0001 37 69.0001 37C69.0001 37 69.0001 37 69.0001 37C69.0001 37 69.0001 37 69.0001 37C69.0001 37 69.0001 37 69.0001 37C69.0001 37 69.0001 37 69.0001 37C69.0001 37 69.0001 37 69.0001 37C69.0001 37 69.0001 37 69.0001 37C69.0001 37 69.0001 37 69.0001 37C69.0001 37 69.0001 37 69.0001 37C69.0001 37 69.0001 37 69.0001 37C69.0001 37 69.0001 37 69.0001 37C69.0001 37 69.0001 37 69.0001 37C69.0001 37 69 37 69 37C69 37 69 37 69 37C69 37 69 37 69 37C69 37 69 37 69 37C69 37 69 37 69 37C69 37 69 37 69 37C69 37 69 37 69 37C69 37 69 37 69 37C69 37 69 37 69 37C69 37 69 37 69 37C69 37 69 37 69 37C69 37 69 37 69 37C69 37 69 37 69 37C69 37 69 37 69 37C69 37 69 37 69 37C69 37 69 37 69 37C69 37 69 37 69 37C69 37 69 37 69 37C69 37 69 37 69 37C69 37 69 37 69 37C69 37 69 37 69 37C69 37 69 37 69 37C69 37 69 37 69 37C69 37 69 37 69 37C69 37 69 37 69 37C69 37 69 37 69 37C69 37 69 37 69 37C69 37 69 37 69 37C69 37 69 37 69 37C69 37 69 37 69 37C69 37 69 37 69 37C69 37 69 37 69 37C69 37 69 37 69 37C69 37 69 37 69 37C69 37 69 37 69 37C69 37 69 37 69 37C69 37 69 37 69 37C69 37 69 37 69 37C69 37 69 37 69 37C69 37 69 37 69 37C69 37 69 37 69 37C69 37 69 37 69 37C69 37 69 37 69 37C69 37 69 37 69 37C69 37 69 37 69 37C69 37 69 37 69 37C69 37 69 37 69 37C69 37 69 37 69 37C69 37 69 37 69 37C69 37 69 37 69 37C69 37 69 37 69 37C69 37 69 37 69 37C69 37 69 37 69 37C69 37 69 37 69 37C69 37 69 37 69 37C69 37 69 37 69 37C69 37 69 37 69 37C69 37 69 37 69 37C69 37 69 37 69 37C69 37 69 37 69 37C69 37 69 37 69 37C69 37 69 37 69 37C69 37 69 37 69 37C69 37 69 37 69 37C69 37 69 37 69 37C69 37 69 37 69 37C69 37 69 37 69 37C69 37 69 37 69 37C69 37 69 37 69 37C69 37 69 37 69 37C69 37 69 37 69 37C69 37 69 37 69 37C69 37 69 37 69 37C69 37 69 37 69 37C69 37 69 37 69 37C69 37 69 37 69 37C69 37 69 37 69 37C69 37 69 37 69 37C69 37 69 37 69 37C69 37 69 37 69 37C69 37 69 37 69 37C69 37 69 37 69 37C69 37 69 37 69 37C69 37 69 37 69 37C69 37 69 37 69 37C69 37 69 37 69 37C69 37 69 37 69 37C69 37 69 37 69 37C69 37 69 37 69 37C69 37 69 37 69 37C69 37 69 37 69 37C69 37 69 37 69 37C69 37 69 37 69 37C69 37 69 37 69 37C69 37 69 37 69 37C69 37 69 37 69 37C69 37 69 37 69 37C69 37 69 37 69 37C69 37 69 37 69 37C69 37 69 37 69 37C69 37 69 37 69 37C69 37 69 37 69 37C69 37 69 37 69 37C69 37 69 37 69 37C69 37 69 37 69 37C69 37 69 37 69 37C69 37 69 37 69 37C69 37 69 37 69 37C69 37 69 37 69 37C69 37 69 37 69 37C69 37 69 37 69 37C69 37 69 37 69 37C69 37 69 37 69 37C69 37 69 37 69 37C69 37 69 37 69 37C69 37 69 37 69 37C69 37 69 37 69 37C69 37 69 37 69 37C69 37 69 37 69 37C69 37 69 37 69 37C69 37 69 37 69 37C69 37 69 37 69 37C69 37 69 37 69 37C69 37 69 37 69 37C69 37 69 37 69 37C69 37 69 37 69 37C69 37 69 37 69 37C69 37 69 37 69 37C69 37 69 37 69 37C69 37 69 37 69 37C69 37 69 37 69 37C69 37 69 37 69 37C69 37 69 37 69 37C69 37 69 37 69 37C69 37 69 37 69 37C69 37 69 37 69 37C69 37 69 37 69 37C69 37 69 37 69 37C69 37 69 37 69 37C69 37 69 37 69 37C69 37 69 37 69 37C69 37 69 37 69 37C69 37 69 37 69 37C69 37 69 37 69 37C69 37 69 37 69 37C69 37 69 37 69 37C69 37 69 37 69 37C69 37 69 37 69 37C69 37 69 37 69 37C69 37 69 37 69 37C69 37 69 37 69 37C69 37 69 37 69 37C69 37 69 37 69 37C69 37 69 37 69 37C69 37 69 37 69 37C69 37 69 37 69 37C69 37 69 37 69 37C69 37 69 37 69 37C69 37 69 37 69 37C69 37 69 37 69 37C69 37 69 37 69 37C69 37 69 37 69 37C69 37 69 37 69 37C69 37 69 37 69 37C69 37 69 37 69 37C69 37 69 37 69 37C69 37 69 37 69 37C69 37 69 37 69 37C69 37 69 37 69 37C69 37 69 37 69 37C69 37 69 37 69 37C69 37 69 37 69 37C69 37 69 37 69 37C69 37 69 37 69 37C69 37 69 37 69 37C69 37 69 37 69 37C69 37 69 37 69 37C69 37 69 37 69 37C69 37 69 37 69 37C69 37 69 37 69 37C69 37 69 37 69 37C69 37 69 37 69 37C69 37 69 37 69 37C69 37 69 37 69 37C69 37 69 37 69 37C69 37 69 37 69 37C69 37 69 37 69 37C69 37 69 37 69 37C69 37 69 37 69 37C69 37 69 37 69 37C69 37 69 37 69 37C69 37 69 37 69 37C69 37 69 37 69 37C69 37 69 37 69 37C69 37 69 37 69 37C69 37 69 37 69 37C69 37 69 37 69 37C69 37 69 37 69 37C69 37 69 37 69 37C69 37 69 37 69 37C69 37 69 37 69 37C69 37 69 37 69 37C69 37 69 37 69 37C69 37 69 37 69 37C69 37 69 37 69 37C69 37 69 37 69 37C69 37 69 37 69 37C69 37 69 37 69 37C69 37 69 37 69 37C69 37 69 37 69 37C69 37 69 37 69 37C69 37 69 37 69 37C69 37 69 37 69 37C69 37 69 37 69 37C69 37 69 37 69 37C69 37 69 37 69 37C69 37 69 37 69 37C69 37 69 37 69 37C69 37 69 37 69 37C69 37 69 37 69 37C69 37 69 37 69 37C69 37 69 37 69 37C69 37 69 37 69 37C69 37 69 37 69 37C69 37 69 37 69 37C69 37 69 37 69 37C69 37 69 37 69 37C69 37 69 37 69 37C69 37 69 37 69 37C69 37 69 37 69 37C69 37 69 37 69 37C69 37 69 37 69 37C69 37 69 37 69 37C69 37 69 37 69 37C69 37 69 37 69 37C69 37 69 37 69 37C69 37 69 37 69 37C69 37 69 37 69 37C69 37 69 37 69 37C69 37 69 37 69 37C69 37 69 37 69 37C69 37 69 37 69 37C69 37 69 37 69 37C69 37 69 37 69 37C69 37 69 37 69 37C69 37 69 37 69 37C69 37 69 37 69 37C69 37 69 37 69 37C69 37 69 37 69 37C69 37 69 37 69 37C69 37 69 37 69 37C69 37 69 37 69 37C69 37 69 37 69 37C69 37 69 37 69 37C69 37 69 37 69 37C69 37 69 37 69 37C69 37 69 37 69 37C69 37 69 37 69 37C69 37 69 37 69 37C69 37 69 37 69 37C69 37 69 37 69 37C69 37 69 37 69 37C69 37 69 37 69 37C69 37 69 37 69 37C69 37 69 37 69 37C69 37 69 37 69 37C69 37 69 37 69 37C69 37 69 37 69 37C69 37 69 37 69 37C69 37 69 37 69 37C69 37 69 37 69 37C69 37 69 37 69 37C69 37 69 37 69 37C69 37 69 37 69 37C69 37 69 37 69 37C69 37 69 37 69 37C69 37 69 37 69 37C69 37 69 37 69 37C69 37 69 37 69 37C69 37 69 37 69 37C69 37 69 37 69 37C69 37 69 37 69 37C69 37 69 37 69 37C69 37 69 37 69 37C69 37 69 37 69 37C69 37 69 37 69 37C69 37 69 37 69 37C69 37 69 37 69 37C69 37 69 37 69 37C69 37 69 37 69 37C69 37 69 37 69 37C69 37 69 37 69 37C69 37 69 37 69 37C69 37 69 37 69 37C69 37 69 37 69 37C69 37 69 37 69 37C69 37 69 37 69 37C69 37 69 37 69 37C69 37 69 37 69 37C69 37 69 37 69 37C69 37 69 37 69 37C69 37 69 37 69 37C69 37 69 37 69 37C69 37 69 37 69 37C69 37 69 37 69 37C69 37 69 37 69 37C69 37 69 37 69 37C69 37 69 37 69 37C69 37 69 37 69 37C69 37 69 37 69 37C69 37 69 37 69 37C69 37 69 37 69 37C69 37 69 37 69 37C69 37 69 37 69 37C69 37 69 37 69 37C69 37 69 37 69 37C69 37 69 37 69 37C69 37 69 37 69 37C69 37 69 37 69 37C69 37 69 37 69 37C69 37 69 37 69 37C69 37 69 37 69 37C69 37 69 37 69 37C69 37 69 37 69 37C69 37 69 37 69 37C69 37 69 37 69 37C69 37 69 37 69 37C69 37 69 37 69 37C69 37 69 37 69 37C69 37 69 37 69 37C69 37 69 37 69 37C69 37 69 37 69 37C69 37 69 37 69 37C69 37 69 37 69 37C69 37 69 37 69 37C69 37 69 37 69 37C69 37 69 37 69 37C69 37 69 37 69 37C69 37 69 37 69 37C69 37 69 37 69 37C69 37 69 37 69 37C69 37 69 37 69 37C69 37 69 37 69 37C69 37 69 37 69 37C69 37 69 37 69 37C69 37 69 37 69 37C69 37 69 37 69 37C69 37 69 37 69 37C69 37 69 37 69 37C69 37 69 37 69 37C69 37 69 37 69 37C69 37 69 37 69 37C69 37 69 37 69 37C69 37 69 37 69 37C69 37 69 37 69 37C69 37 69 37 69 37C69 37 69 37 69 37C69 37 69 37 69 37C69 37 69 37 69 37C69 37 69 37 69 37C69 37 69 37 69 37C69 37 69 37 69 37C69 37 69 37 69 37C69 37 69 37 69 37C69 37 69 37 69 37C69 37 69 37 69 37C69 37 69 37 69 37C69 37 69 37 69 37C69 37 69 37 69 37C69 37 69 37 69 37C69 37 69 37 69 37C69 37 69 37 69 37C69 37 69 37 69 37C69 37 69 37 69 37C69 37 69 37 69 37C69 37 69 37 69 37C69 37 69 37 69 37C69 37 69 37 69 37C69 37 69 37 69 37C69 37 69 37 69 37C69 37 69 37 69 37C69 37 69 37 69 37C69 37 69 37 69 37C69 37 69 37 69 37C69 37 69 37 69 37C69 37 69 37 69 37C69 37 69 37 69 37C69 37 69 37 69 37C69 37 69 37 69 37C69 37 69 37 69 37C69 37 69 37 69 37C69 37 69 37 69 37C69 37 69 37 69 37C69 37 69 37 69 37C69 37 69 37 69 37C69 37 69 37 69 37C69 37 69 37 69 37C69 37 69 37 69 37C69 37 69 37 69 37C69 37 69 37 69 37C69 37 69 37 69 37C69 37 69 37 69 37C69 37 69 37 69 37C69 37 69 37 69 37C69 37 69 37 69 37C69 37 69 37 69 37C69 37 69 37 69 37C69 37 69 37 69 37C69 37 69 37 69 37C69 37 69 37 69 37C69 37 69 37 69 37C69 37 69 37 69 37C69 37 69 37 69 37C69 37 69 37 69 37C69 37 69 37 69 37C69 37 69 37 69 37C69 37 69 37 69 37C69 37 69 37 69 37C69 37 69 37 69 37C69 37 69 37 69 37C69 37 69 37 69 37C69 37 69 37 69 37C69 37 69 37 69 37C69 37 69 37 69 37C69 37 69 37 69 37C69 37 69 37 69 37V39ZM68.0001 1V38H70.0001V1H68.0001ZM34.5777 11.5187C44.9793 5.28977 56.8761 2 69.0001 2V0C56.5142 0 44.2622 3.38797 33.5502 9.8028L34.5777 11.5187ZM9.93618 37.37C15.6598 26.6821 24.1762 17.7475 34.5777 11.5187L33.5502 9.8028C22.8382 16.2176 14.0675 25.4189 8.17308 36.4258L9.93618 37.37ZM2.07692 72.2087C1.49629 60.0986 4.21257 48.0579 9.93618 37.37L8.17308 36.4258C2.27862 47.4328 -0.51875 59.8329 0.0792114 72.3045L2.07692 72.2087ZM13.2332 106.136C6.51333 96.0443 2.65755 84.3188 2.07692 72.2087L0.0792114 72.3045C0.677173 84.7761 4.64806 96.8516 11.5685 107.244L13.2332 106.136ZM40.235 129.511C29.2852 124.306 19.9531 116.227 13.2332 106.136L11.5685 107.244C18.489 117.637 28.0997 125.957 39.3763 131.317L40.235 129.511ZM75.4101 135.693C63.3417 136.853 51.1848 134.716 40.235 129.511L39.3763 131.317C50.6529 136.678 63.1728 138.878 75.6014 137.683L75.4101 135.693ZM108.764 122.924C99.0059 130.12 87.4784 134.533 75.4101 135.693L75.6014 137.683C88.03 136.489 99.9016 131.944 109.951 124.534L108.764 122.924Z" fill="white" mask="url(#path-1-outside-1)"/>
<mask id="path-3-outside-2" maskUnits="userSpaceOnUse" x="68" y="0" width="70" height="97" fill="black">
<rect fill="white" x="68" width="70" height="97"/>
<path fill-rule="evenodd" clip-rule="evenodd" d="M101.102 9.05455C91.228 3.7668 80.2007 1 69 1L69 38C86.1208 38 100 51.8792 100 69C100 73.2378 99.1497 77.277 97.6103 80.9562L131.742 95.2197C136.061 84.8851 137.76 73.6437 136.688 62.4943C135.616 51.3449 131.807 40.6329 125.599 31.3101C119.391 21.9872 110.976 14.3423 101.102 9.05455Z"/>
</mask>
<path fill-rule="evenodd" clip-rule="evenodd" d="M101.102 9.05455C91.228 3.7668 80.2007 1 69 1L69 38C86.1208 38 100 51.8792 100 69C100 73.2378 99.1497 77.277 97.6103 80.9562L131.742 95.2197C136.061 84.8851 137.76 73.6437 136.688 62.4943C135.616 51.3449 131.807 40.6329 125.599 31.3101C119.391 21.9872 110.976 14.3423 101.102 9.05455Z" fill="#F9C513"/>
<path d="M69 1V0H68L68 1L69 1ZM101.102 9.05455L100.63 9.9361L100.63 9.9361L101.102 9.05455ZM69 38L68 38L68 39H69V38ZM97.6103 80.9562L96.6878 80.5702L96.3017 81.4931L97.2247 81.8789L97.6103 80.9562ZM131.742 95.2197L131.356 96.1424L132.279 96.528L132.664 95.6053L131.742 95.2197ZM69 2C80.036 2 90.9012 4.72611 100.63 9.9361L101.574 8.173C91.5549 2.80749 80.3655 0 69 0V2ZM70 38L70 1L68 1L68 38L70 38ZM69 39C85.5685 39 99 52.4315 99 69H101C101 51.3269 86.6731 37 69 37V39ZM99 69C99 73.1029 98.1769 77.0111 96.6878 80.5702L98.5328 81.3422C100.122 77.5428 101 73.3726 101 69H99ZM132.127 94.297L97.9959 80.0335L97.2247 81.8789L131.356 96.1424L132.127 94.297ZM135.693 62.59C136.748 73.5754 135.074 84.6515 130.819 94.8341L132.664 95.6053C137.047 85.1187 138.771 73.712 137.683 62.3986L135.693 62.59ZM124.767 31.8643C130.884 41.0501 134.637 51.6046 135.693 62.59L137.683 62.3986C136.596 51.0853 132.731 40.2158 126.432 30.7558L124.767 31.8643ZM100.63 9.9361C110.359 15.1461 118.65 22.6786 124.767 31.8643L126.432 30.7558C120.132 21.2959 111.593 13.5385 101.574 8.173L100.63 9.9361Z" fill="white" mask="url(#path-3-outside-2)"/>
</svg>
