<svg fill="none" height="46" viewBox="0 0 48 46" width="48" xmlns="http://www.w3.org/2000/svg"><g stroke-linecap="round" stroke-linejoin="round" stroke-width="2"><g stroke="#79b8ff"><path d="m1 35v-14c0-1.1.9-2 2-2h5"/><path d="m47 35v-14c0-1.1-.9-2-2-2h-4"/><path d="m7.1 45h-4.1c-1.1 0-2-.9-2-2v-14"/><path d="m40.7 45h4.3c1.1 0 2-.9 2-2v-14"/><path d="m5 25h2"/><path d="m41 25h2"/></g><g stroke="#2188ff"><path d="m11 37.2v7.8h10v-3h6v3h10v-9.2"/><path d="m15 10v-2c0-1.1.9-2 2-2h14c1.1 0 2 .9 2 2v2"/><path d="m11 31v-19c0-1.1.9-2 2-2h22c1.1 0 2 .9 2 2v19"/><path d="m17 16h14"/><path d="m24 6v-5"/><path d="m21.8 38.9v-2.5c0-.5.1-.9.4-1.3-.5 0-3.8-.4-3.8-4.3 0-1 .3-1.8.9-2.5-.2-.6-.2-1.2-.1-1.9.1-.9.9-.8 2.6.2 1.3-.5 2.9-.5 4.7 0 .2-.3 2.4-1.7 2.7-.3 0 .3 0 .9-.1 2 .5.5.8 1.4.8 2.5 0 2.3-1.3 3.7-3.8 4.3.2.4.4.9.3 1.3s0 1.3 0 2.6c2.4-.7 4.1999-2.1 5.3999-4 .8-1.4 1.4001-2.9 1.4001-4.9 0-2.9-1.2-5-2.5-6.4-1.8-1.9-4.2-2.8-6.5-2.8-2.2 0-4.8.9-6.6 2.9-1.4 1.5-2.4 3.6-2.4 6.3 0 2 .7 3.9 1.8 5.4 1.1 1.7 2.7 2.8 4.8 3.4z"/></g></g></svg>