<svg version="1.1" id="Layer_1" xmlns="http://www.w3.org/2000/svg" x="0" y="0" viewBox="0 0 500 500" xml:space="preserve"><style>.st1-7DD3AAE2-90FD-40E9-8361-4441938188D6{fill-rule:evenodd;clip-rule:evenodd;fill:#33495e}</style><path d="M230.1 144.37h42.81c51.22 0 92.75 41.52 92.75 92.75v71.34c0 51.22-41.52 92.75-92.75 92.75H230.1c-51.22 0-92.75-41.52-92.75-92.75v-71.34c.01-51.23 41.53-92.75 92.75-92.75z" fill-rule="evenodd" clip-rule="evenodd" fill="#fff"/><path class="st1-7DD3AAE2-90FD-40E9-8361-4441938188D6" d="M440.43 405.86c0-.61-4.92-36.17-19.08-87.97 16-1.84 28.62-15.33 28.62-31.88 0-17.78-14.47-32.49-32.63-32.49-4.62 0-9.85 1.23-13.85 3.37-7.39-23.29-16.62-48.73-27.39-73.26-30.47-70.19-71.41-95.02-99.42-103.29L257.9 62.26l-1.54 8.28-8-15.33-1.54 10.42-8.31-15.02-.92 10.11-10.46-16.25 5.85 32.49c-25.85 3.68-77.87 22.07-114.5 106.67-10.77 24.52-20.01 49.65-27.39 73.26-4-2.15-9.23-3.37-13.85-3.37-18.16 0-32.63 14.71-32.63 32.49 0 16.55 12.62 30.34 28.62 31.88-14.16 51.8-19.08 87.36-19.08 87.97l-.31 2.15c-.62 6.74.62 7.97 5.85 10.11 41.86 19 109.88 37.39 187.75 37.39s145.89-18.08 187.75-37.09c5.23-2.45 6.46-3.68 5.85-10.42l-.61-2.14zm-193.6-13.49c-49.86.61-91.11-30.34-91.11-68.05 0-19.92 11.39-49.04 29.24-71.11-16.62-7.36-28.01-22.99-28.01-42.3 0-25.75 20.62-46.28 46.48-46.28 20.62 0 38.47 13.79 44.01 31.88 6.16-18.7 23.39-31.88 44.01-31.88 25.85 0 46.48 20.54 46.48 46.28 0 18.7-11.39 35.25-28.01 42.3 17.85 22.68 29.24 51.19 29.24 70.8-.3 37.41-41.55 68.36-92.33 68.36z"/><path class="st1-7DD3AAE2-90FD-40E9-8361-4441938188D6" d="M212.36 212.76c4.59 0 8.31 3.71 8.31 8.28 0 4.57-3.72 8.28-8.31 8.28s-8.31-3.71-8.31-8.28c0-4.58 3.72-8.28 8.31-8.28zM282.22 212.76c4.59 0 8.31 3.71 8.31 8.28 0 4.57-3.72 8.28-8.31 8.28s-8.31-3.71-8.31-8.28c0-4.58 3.72-8.28 8.31-8.28zM240.98 283.87c-.62-2.15-6.46-9.81-20.01-6.13-13.54 3.68-12 27.28 0 28.81 0 0-6.77-2.15-6.46-10.42.31-8.89 6.16-12.57 13.54-8.89 8.31 3.99 14.16.92 12.93-3.37zM253.6 283.87c.62-2.15 6.46-9.81 20.01-6.13 13.54 3.68 12 27.28 0 28.81 0 0 6.77-2.15 6.46-10.42-.62-11.03-10.77-10.42-13.54-8.89-8.31 3.99-14.16.92-12.93-3.37z"/></svg>
