<svg width="150" height="35" fill="none" xmlns="http://www.w3.org/2000/svg"><g clip-path="url(#a)" fill="#000"><path d="M50.904 27.159v-8.051h-7.077v8.05h-3.603V8.069h3.603v7.853h7.077V8.069h3.602v19.09h-3.602ZM67.715 27.159h-2.86l-.26-.945a7.623 7.623 0 0 1-4.154 1.233c-2.551 0-3.64-1.749-3.64-4.157 0-2.837 1.233-3.926 4.069-3.926h3.35V17.9c0-1.546-.428-2.09-2.662-2.09-1.3.008-2.595.147-3.866.414l-.43-2.665a18.19 18.19 0 0 1 4.786-.66c4.381 0 5.67 1.547 5.67 5.048l-.003 9.212Zm-3.495-5.275h-2.576c-1.145 0-1.459.314-1.459 1.377 0 .974.313 1.406 1.405 1.406a5.495 5.495 0 0 0 2.634-.72l-.004-2.063ZM74.478 27.443a16.432 16.432 0 0 1-4.813-.804l.486-2.664c1.351.387 2.749.59 4.154.602 1.546 0 1.776-.36 1.776-1.406 0-.858-.172-1.29-2.435-1.835-3.409-.833-3.808-1.69-3.808-4.384 0-2.809 1.232-4.042 5.213-4.042 1.409.002 2.812.165 4.183.487l-.36 2.78a24.541 24.541 0 0 0-3.837-.4c-1.517 0-1.777.36-1.777 1.204 0 1.117.087 1.204 1.978 1.69 3.906 1.035 4.28 1.551 4.28 4.403 0 2.707-.832 4.37-5.04 4.37ZM89.917 27.159v-9.735c0-.746-.313-1.117-1.117-1.117-.857 0-2.377.515-3.639 1.175v9.677h-3.495V7.494l3.495-.486v7.25a12.305 12.305 0 0 1 5.099-1.348c2.32 0 3.149 1.633 3.149 4.127v10.12h-3.492ZM95.988 11.223V7.182h3.495v4.041h-3.495Zm0 15.936v-13.96h3.495v13.96h-3.495ZM101.919 13.314c0-3.497 2.032-5.53 6.788-5.53 1.747 0 3.488.211 5.185.63l-.397 3.123a28.114 28.114 0 0 0-4.683-.487c-2.494 0-3.294.862-3.294 2.884v7.337c0 2.034.804 2.884 3.294 2.884a28.104 28.104 0 0 0 4.683-.486l.4 3.125a21.57 21.57 0 0 1-5.184.631c-4.756 0-6.788-2.033-6.788-5.53l-.004-8.58ZM121.061 27.443c-4.784 0-6.071-2.635-6.071-5.501v-3.526c0-2.867 1.29-5.502 6.071-5.502 4.782 0 6.071 2.636 6.071 5.502v3.526c-.01 2.866-1.297 5.501-6.071 5.501Zm0-11.537c-1.862 0-2.576.833-2.576 2.409v3.742c0 1.576.721 2.408 2.576 2.408 1.856 0 2.576-.832 2.576-2.408V18.3c-.007-1.575-.724-2.408-2.576-2.408v.014ZM136.404 16.123a27.333 27.333 0 0 0-3.697 2.033v9.013h-3.495V13.2h2.951l.23 1.547a15.631 15.631 0 0 1 3.668-1.835l.343 3.212ZM149.655 22.515c0 3.097-1.376 4.928-4.612 4.928a19.24 19.24 0 0 1-3.725-.404v5.769l-3.495.487V13.199h2.778l.36 1.175a7.339 7.339 0 0 1 4.41-1.46c2.807 0 4.295 1.662 4.295 4.846l-.011 4.755Zm-8.334 1.575c1.017.224 2.054.345 3.095.361 1.261 0 1.748-.602 1.748-1.864v-4.921c0-1.147-.429-1.778-1.719-1.778a4.943 4.943 0 0 0-3.124 1.262v6.94ZM13.77 0 0 7.95v19.09l5.174 2.988v-19.09L13.77 5.97V0Z"/><path d="M19.266 0v15.203H13.77V9.53l-5.174 2.989v19.479l5.174 2.996v-15.16h5.495v5.635l5.174-2.985V2.989L19.266 0Z"/><path d="m19.265 35 13.77-7.95V7.96l-5.173-2.988v19.09l-8.597 4.968V35Z"/></g><defs><clipPath id="a"><path fill="#fff" d="M0 0h149.655v35H0z"/></clipPath></defs></svg>