<svg fill="none" height="931" viewBox="0 0 1430 931" width="1430" xmlns="http://www.w3.org/2000/svg" xmlns:xlink="http://www.w3.org/1999/xlink"><filter id="a" color-interpolation-filters="sRGB" filterUnits="userSpaceOnUse" height="8.99962" width="148.528" x="-2.01318" y="251.653"><feFlood flood-opacity="0" result="BackgroundImageFix"/><feBlend in="SourceGraphic" in2="BackgroundImageFix" mode="normal" result="shape"/><feGaussianBlur result="effect1_foregroundBlur" stdDeviation="1"/></filter><filter id="b" color-interpolation-filters="sRGB" filterUnits="userSpaceOnUse" height="259.701" width="59.2999" x="478.514" y="267.559"><feFlood flood-opacity="0" result="BackgroundImageFix"/><feBlend in="SourceGraphic" in2="BackgroundImageFix" mode="normal" result="shape"/><feGaussianBlur result="effect1_foregroundBlur" stdDeviation="1"/></filter><filter id="c" color-interpolation-filters="sRGB" filterUnits="userSpaceOnUse" height="319.297" width="80.8881" x="533.657" y="154.888"><feFlood flood-opacity="0" result="BackgroundImageFix"/><feBlend in="SourceGraphic" in2="BackgroundImageFix" mode="normal" result="shape"/><feGaussianBlur result="effect1_foregroundBlur" stdDeviation="1"/></filter><filter id="d" color-interpolation-filters="sRGB" filterUnits="userSpaceOnUse" height="170.256" width="48.9666" x="482.517" y="44.8718"><feFlood flood-opacity="0" result="BackgroundImageFix"/><feBlend in="SourceGraphic" in2="BackgroundImageFix" mode="normal" result="shape"/><feGaussianBlur result="effect1_foregroundBlur" stdDeviation="1"/></filter><filter id="e" color-interpolation-filters="sRGB" filterUnits="userSpaceOnUse" height="9" width="131" x="617" y="240.652"><feFlood flood-opacity="0" result="BackgroundImageFix"/><feBlend in="SourceGraphic" in2="BackgroundImageFix" mode="normal" result="shape"/><feGaussianBlur result="effect1_foregroundBlur" stdDeviation="2"/></filter><filter id="f" color-interpolation-filters="sRGB" filterUnits="userSpaceOnUse" height="14.1517" width="155.034" x="1082.98" y="216.5"><feFlood flood-opacity="0" result="BackgroundImageFix"/><feBlend in="SourceGraphic" in2="BackgroundImageFix" mode="normal" result="shape"/><feGaussianBlur result="effect1_foregroundBlur" stdDeviation="2"/></filter><filter id="g" color-interpolation-filters="sRGB" filterUnits="userSpaceOnUse" height="27.3455" width="345.566" x="75.467" y="102.653"><feFlood flood-opacity="0" result="BackgroundImageFix"/><feBlend in="SourceGraphic" in2="BackgroundImageFix" mode="normal" result="shape"/><feGaussianBlur result="effect1_foregroundBlur" stdDeviation="1"/></filter><filter id="h" color-interpolation-filters="sRGB" filterUnits="userSpaceOnUse" height="79.0099" width="40.2607" x="584.269" y="269.754"><feFlood flood-opacity="0" result="BackgroundImageFix"/><feBlend in="SourceGraphic" in2="BackgroundImageFix" mode="normal" result="shape"/><feGaussianBlur result="effect1_foregroundBlur" stdDeviation="2"/></filter><filter id="i" color-interpolation-filters="sRGB" filterUnits="userSpaceOnUse" height="527.514" width="68.322" x="1036.5" y="384.546"><feFlood flood-opacity="0" result="BackgroundImageFix"/><feBlend in="SourceGraphic" in2="BackgroundImageFix" mode="normal" result="shape"/><feGaussianBlur result="effect1_foregroundBlur" stdDeviation="2"/></filter><filter id="j" color-interpolation-filters="sRGB" filterUnits="userSpaceOnUse" height="275.734" width="73.4721" x="529.514" y="387.535"><feFlood flood-opacity="0" result="BackgroundImageFix"/><feBlend in="SourceGraphic" in2="BackgroundImageFix" mode="normal" result="shape"/><feGaussianBlur result="effect1_foregroundBlur" stdDeviation="2"/></filter><filter id="k" color-interpolation-filters="sRGB" filterUnits="userSpaceOnUse" height="219.579" width="280.319" x="588.926" y="741.505"><feFlood flood-opacity="0" result="BackgroundImageFix"/><feBlend in="SourceGraphic" in2="BackgroundImageFix" mode="normal" result="shape"/><feGaussianBlur result="effect1_foregroundBlur" stdDeviation="2"/></filter><linearGradient id="l"><stop offset="0" stop-color="#fff"/><stop offset="1" stop-color="#fff" stop-opacity="0"/></linearGradient><linearGradient id="m" gradientUnits="userSpaceOnUse" x1="113.001" x2="20.0005" xlink:href="#l" y1="246.152" y2="259.152"/><linearGradient id="n" gradientUnits="userSpaceOnUse" x1="457.5" x2="499" xlink:href="#l" y1="247.152" y2="380.152"/><linearGradient id="o" gradientUnits="userSpaceOnUse" x1="263" x2="297" xlink:href="#l" y1="172.92" y2="53.9199"/><linearGradient id="p" gradientUnits="userSpaceOnUse" x1="481" x2="535" xlink:href="#l" y1="450" y2="264"/><linearGradient id="q" gradientUnits="userSpaceOnUse" x1="624.001" x2="644.501" xlink:href="#l" y1="303.438" y2="494.438"/><linearGradient id="r" gradientUnits="userSpaceOnUse" x1="470.026" x2="500.394" xlink:href="#l" y1="199" y2="97.6095"/><linearGradient id="s" gradientUnits="userSpaceOnUse" x1="741.001" x2="634.501" xlink:href="#l" y1="657.652" y2="723.688"/><linearGradient id="t" gradientUnits="userSpaceOnUse" x1="1068.5" x2="744.501" xlink:href="#l" y1="666.687" y2="676.687"/><linearGradient id="u" gradientUnits="userSpaceOnUse" x1="591" x2="953.5" y1="731" y2="821.687"><stop offset="0" stop-color="#fff" stop-opacity="0"/><stop offset=".391097" stop-color="#fff" stop-opacity=".72"/><stop offset="1" stop-color="#fff" stop-opacity="0"/></linearGradient><linearGradient id="v" gradientUnits="userSpaceOnUse" x1="468" x2="370" xlink:href="#l" y1="809.652" y2="871.152"/><linearGradient id="w" gradientUnits="userSpaceOnUse" x1="1259" x2="1078.5" xlink:href="#l" y1="363.477" y2="448.687"/><linearGradient id="x" gradientUnits="userSpaceOnUse" x1="864.563" x2="864.563" xlink:href="#l" y1="-.849121" y2="182.501"/><linearGradient id="y" gradientUnits="userSpaceOnUse" x1="1070" x2="1199" xlink:href="#l" y1="40.1523" y2="155.152"/><linearGradient id="z" gradientUnits="userSpaceOnUse" x1="614.001" x2="333.001" y1="71.2146" y2="99.2148"><stop offset="0" stop-color="#fff"/><stop offset=".139357" stop-color="#fff" stop-opacity=".860643"/><stop offset="1" stop-color="#fff" stop-opacity="0"/></linearGradient><linearGradient id="A" gradientUnits="userSpaceOnUse" x1="532" x2="203" xlink:href="#l" y1="79.1509" y2="141.15"/><linearGradient id="B" gradientUnits="userSpaceOnUse" x1="591" x2="599.5" xlink:href="#l" y1="268.152" y2="347.152"/><linearGradient id="C" gradientUnits="userSpaceOnUse" x1="1072.5" x2="1072" xlink:href="#l" y1="386.152" y2="662.002"/><linearGradient id="D" gradientUnits="userSpaceOnUse" x1="509.25" x2="509.25" xlink:href="#l" y1="381.652" y2="649.152"/><linearGradient id="E" gradientUnits="userSpaceOnUse" x1="1242.5" x2="1242.5" xlink:href="#l" y1="480.152" y2="516.002"/><linearGradient id="F" gradientUnits="userSpaceOnUse" x1="819" x2="638" xlink:href="#l" y1="757.697" y2="859.697"/><linearGradient id="G" gradientUnits="userSpaceOnUse" x1="683.001" x2="952.001" xlink:href="#l" y1="740.152" y2="919.697"/><clipPath id="H"><path d="m0 0h1430v931h-1430z"/></clipPath><g clip-path="url(#H)"><g filter="url(#a)"><path d="m144.501 254.152-144.50038965 4" stroke="url(#m)" stroke-dasharray="2 5"/></g><path d="m326.5 247.152h28.808c13.341 0 22.942 12.814 19.195 25.618l-12.774 43.644c-1.868 6.381 2.896 12.774 9.544 12.809l174.727.929" stroke="url(#n)" stroke-dasharray="2 5"/><path d="m330.439 30-53.439 149.92" stroke="url(#o)" stroke-dasharray="2 5" stroke-width="1.3"/><g filter="url(#b)" opacity=".4"><path d="m481 525.141 53.445-217.533c3.269-13.304-2.891-27.132-14.967-33.602l-7.478-4.006" stroke="url(#p)" stroke-dasharray="2 5"/></g><g filter="url(#c)" opacity=".4"><path d="m602 157-65.375 285.091c-2.71 11.818 5.634 23.309 17.711 24.39l58.164 5.207" stroke="url(#q)" stroke-dasharray="2 5"/></g><g filter="url(#d)" opacity=".3"><path d="m485 213 44-166" stroke="url(#r)" stroke-dasharray="2 5"/></g><g filter="url(#e)"><path d="m621 245.152h123" stroke="#0d449e" stroke-dasharray="2 5"/></g><g filter="url(#f)"><path d="m1087 226.152 147-5.152" stroke="#fff" stroke-dasharray="2 5"/></g><g stroke-dasharray="2 5"><path d="m928 180.152 14.348-86.4471c2.118-12.7565-8.245-24.1388-21.144-23.2246l-183.704 13.0197" stroke="#fff"/><path d="m621.5 725.688 94.421 11.173c10.248 1.212 19.736-5.571 21.904-15.66l24.175-112.504" stroke="url(#s)"/><path d="m795.5 622.688-6.22 34.832c-2.041 11.434 6.054 22.197 17.606 23.407l182.114 19.073" stroke="url(#t)"/><path d="m578 771 228.026 33.235c10.606 1.545 20.545-5.544 22.536-16.076l7.497-39.651c1.942-10.268 11.46-17.31 21.846-16.164l178.095 19.656" stroke="url(#u)"/><path d="m454 942 27-117" stroke="url(#v)"/><path d="m1065.33 417.2 275.76 13.463c10.95.534 20.29-7.843 20.94-18.784l3.97-66.402" stroke="url(#w)"/><path d="m1326 343-14 174" opacity=".5" stroke="#fff"/><path d="m881.994-.849121-34.863 183.350121" stroke="url(#x)"/><path d="m944.5 85.6525 9.846-58.6782c1.551-9.2446 9.315-16.1716 18.675-16.6631l462.979-24.3112" stroke="url(#y)"/><path d="m121 127 415.915-30.6536" stroke="url(#z)"/></g><g filter="url(#g)"><path d="m77.4996 127.5 341.5014-22.348" stroke="url(#A)" stroke-dasharray="2 5"/></g><g filter="url(#h)" opacity=".6"><path d="m611 344.652 8.557-37.404c2.029-8.867-2.181-17.985-10.245-22.192l-20.812-10.859" stroke="url(#B)" stroke-dasharray="2 5"/></g><g filter="url(#i)" opacity=".6"><path d="m1041 908 59.24-490.418c1.05-8.677-3.66-17.03-11.63-20.627l-17.61-7.953" stroke="url(#C)" stroke-dasharray="2 5"/></g><g filter="url(#j)" opacity=".8"><path d="m598.5 391.652-64.5 267.5" stroke="url(#D)" stroke-dasharray="2 5"/></g><path d="m1060 477 364 23" stroke="url(#E)" stroke-dasharray="2 5"/><g filter="url(#k)" opacity=".8"><path d="m839 957 25.566-149.867c1.885-11.05-5.679-21.492-16.766-23.145l-254.8-37.988" stroke="url(#F)" stroke-dasharray="2 5"/></g><path d="m1137 902.348-392.775-60.536c-16.978-2.616-28.296-18.927-24.805-35.746l14.231-68.566" stroke="url(#G)" stroke-dasharray="2 5"/></g></svg>