<svg width="56" height="56" fill="none" xmlns="http://www.w3.org/2000/svg"><path d="M28.977 5a1 1 0 10-2 0v3a1 1 0 102 0V5zM6.696 14a1 1 0 01.965.728c.157.552.245.662.286.703.043.042.16.13.723.282a1 1 0 01.006 1.929c-.561.155-.677.244-.72.287-.041.04-.129.152-.281.705a1 1 0 01-1.926.007c-.157-.552-.245-.663-.287-.704-.043-.043-.16-.13-.722-.282a1 1 0 01-.006-1.93c.56-.154.677-.243.72-.286.041-.04.129-.152.281-.705A1 1 0 016.696 14zM48.696 14a1 1 0 01.965.728c.157.552.245.662.286.703.043.042.16.13.723.282a1 1 0 01.006 1.929c-.561.155-.677.244-.72.287-.041.04-.129.152-.281.705a1 1 0 01-1.926.007c-.157-.552-.245-.663-.287-.704-.043-.043-.16-.13-.722-.282a1 1 0 01-.006-1.93c.56-.154.677-.243.72-.286.041-.04.129-.152.281-.705a1 1 0 01.961-.734zM41.62 6.225a1 1 0 01.159 1.405l-2.029 2.542a1 1 0 01-1.563-1.247l2.029-2.542a1 1 0 011.405-.158zM14.781 6.951A1 1 0 0013.22 8.2l1.954 2.445a1 1 0 001.562-1.248l-1.954-2.446z" fill="#79B8FF"/><path fill-rule="evenodd" clip-rule="evenodd" d="M20 23a1 1 0 011-1h2.74a4.377 4.377 0 018.52 0H35a1 1 0 110 2h-2.74a4.377 4.377 0 01-8.52 0H21a1 1 0 01-1-1zm5.625 0a2.375 2.375 0 114.75 0 2.375 2.375 0 01-4.75 0z" fill="#79B8FF"/><path fill-rule="evenodd" clip-rule="evenodd" d="M28 11c-7.18 0-13 5.82-13 13 0 3.322 1.247 6.355 3.297 8.652.15.167.324.356.516.565.98 1.063 2.42 2.627 3.279 4.256.388.738.66 1.847.829 3.087A26.51 26.51 0 0123.14 44a1 1 0 001 1h7.7a1 1 0 001-1c0-.97.053-2.216.216-3.426.166-1.23.436-2.33.823-3.065.869-1.65 2.333-3.237 3.314-4.3.182-.197.348-.376.49-.534A12.956 12.956 0 0041 24c0-7.18-5.82-13-13-13zM17 24c0-6.075 4.925-11 11-11s11 4.925 11 11c0 2.821-1.06 5.392-2.807 7.34-.115.128-.258.283-.422.46-.963 1.039-2.655 2.866-3.662 4.777-.553 1.05-.86 2.429-1.035 3.73A27.11 27.11 0 0030.857 43h-5.734a27.23 27.23 0 00-.22-2.71c-.178-1.308-.487-2.696-1.042-3.749-.996-1.891-2.67-3.7-3.63-4.74a39.089 39.089 0 01-.441-.48A10.955 10.955 0 0117 24z" fill="#2188FF"/><path d="M23.002 48.011a1 1 0 011-1h8a1 1 0 110 2h-8a1 1 0 01-1-1zM24.002 51.011a1 1 0 011-1h6a1 1 0 110 2h-6a1 1 0 01-1-1z" fill="#2188FF"/></svg>