<svg enable-background="new 0 0 259.5 207.5" viewBox="0 0 259.5 207.5" xmlns="http://www.w3.org/2000/svg" xmlns:xlink="http://www.w3.org/1999/xlink"><pattern id="a" height="5.78" overflow="visible" patternUnits="userSpaceOnUse" viewBox=".24 -6.02 5.78 5.78" width="5.78" x="-114.21" y="323.75"><path d="m.24-6.02h5.78v5.78h-5.78z" fill="none"/><path d="m.24-6.02h5.78v5.78h-5.78z" fill="none"/><path d="m11.56-6.04v-5.52h-5.53v5.52zm.25.25h-6.03v-6.02h6.02v6.02z" fill="#57606a"/><path d="m5.77-6.04v-5.52h-5.52v5.52zm.25.25h-6.02v-6.02h6.02z" fill="#57606a"/><path d="m11.56-.25v-5.52h-5.53v5.52zm.25.25h-6.03v-6.02h6.02v6.02z" fill="#57606a"/><path d="m5.77-.25v-5.52h-5.52v5.52zm.25.25h-6.02v-6.02h6.02z" fill="#57606a"/></pattern><pattern id="b" patternTransform="matrix(.9604 0 0 -.9604 -649.0599 -16798.9336)" xlink:href="#a"/><linearGradient id="c"><stop offset=".2681" stop-color="#6fdd8b"/><stop offset=".7999" stop-color="#49bcb7"/></linearGradient><linearGradient id="d" gradientTransform="matrix(1 0 0 -1 0 222.6636)" gradientUnits="userSpaceOnUse" x1="196.3381" x2="196.3381" xlink:href="#c" y1="180.6686" y2="87.7085"/><clipPath id="e"><path d="m170.64 123.85h-44.66v-55.65h-30.1v-47.57h72.83z"/></clipPath><linearGradient id="f"><stop offset=".1251" stop-color="#57606a"/><stop offset=".1323" stop-color="#59626c"/><stop offset=".3166" stop-color="#949aa0"/><stop offset=".4863" stop-color="#c2c5c9"/><stop offset=".6361" stop-color="#e3e5e6"/><stop offset=".7603" stop-color="#f8f8f8"/><stop offset=".8436" stop-color="#fff"/></linearGradient><linearGradient id="g" gradientTransform="matrix(1 0 0 -1 0 222.6636)" gradientUnits="userSpaceOnUse" x1="100.2081" x2="164.1781" xlink:href="#f" y1="192.0618" y2="192.0618"/><linearGradient id="h" gradientTransform="matrix(1 0 0 -1 0 222.6636)" gradientUnits="userSpaceOnUse" x1="100.2081" x2="144.0381" xlink:href="#f" y1="173.4918" y2="173.4918"/><linearGradient id="i" gradientTransform="matrix(1 0 0 -1 0 222.6636)" gradientUnits="userSpaceOnUse" x1="100.2081" x2="166.4881" xlink:href="#c" y1="164.1918" y2="164.1918"/><linearGradient id="j" gradientTransform="matrix(1 0 0 -1 0 222.6636)" gradientUnits="userSpaceOnUse" x1="119.0391" x2="166.3008" y1="145.8731" y2="144.7611"><stop offset=".5453" stop-color="#6fdd8b"/><stop offset=".776" stop-color="#49bcb7"/></linearGradient><linearGradient id="k" gradientTransform="matrix(1 0 0 -1 0 222.6636)" gradientUnits="userSpaceOnUse" x1="100.2081" x2="166.4881" xlink:href="#c" y1="126.9818" y2="126.9818"/><linearGradient id="l" gradientTransform="matrix(1 0 0 -1 0 222.6636)" gradientUnits="userSpaceOnUse" x1="114.1081" x2="155.5781" xlink:href="#c" y1="136.2818" y2="136.2818"/><linearGradient id="m" gradientTransform="matrix(1 0 0 -1 0 222.6636)" gradientUnits="userSpaceOnUse" x1="100.2081" x2="144.0381" xlink:href="#c" y1="154.8818" y2="154.8818"/><linearGradient id="n" gradientTransform="matrix(1 0 0 -1 0 222.6636)" gradientUnits="userSpaceOnUse" x1="114.1081" x2="153.9381" xlink:href="#f" y1="182.7518" y2="182.7518"/><linearGradient id="o"><stop offset=".1251" stop-color="#57606a"/><stop offset=".129" stop-color="#59626c"/><stop offset=".228" stop-color="#949aa0"/><stop offset=".3191" stop-color="#c2c5c9"/><stop offset=".3995" stop-color="#e3e5e6"/><stop offset=".4662" stop-color="#f8f8f8"/><stop offset=".511" stop-color="#fff"/><stop offset=".5906" stop-color="#f9fafa"/><stop offset=".695" stop-color="#e9ebed"/><stop offset=".8133" stop-color="#ced2d6"/><stop offset=".9408" stop-color="#a8afb7"/><stop offset="1" stop-color="#949da7"/></linearGradient><linearGradient id="p" gradientTransform="matrix(1 0 0 -1 0 222.6636)" gradientUnits="userSpaceOnUse" x1="56.2381" x2="56.2381" xlink:href="#o" y1="107.5212" y2="75.3315"/><linearGradient id="q" gradientTransform="matrix(1 0 0 -1 0 222.6636)" gradientUnits="userSpaceOnUse" x1="46.0381" x2="66.4381" xlink:href="#c" y1="98.5168" y2="98.5168"/><linearGradient id="r" gradientTransform="matrix(1 0 0 -1 0 222.6636)" gradientUnits="userSpaceOnUse" x1="101.0981" x2="101.0981" xlink:href="#o" y1="107.5212" y2="75.3315"/><linearGradient id="s" gradientTransform="matrix(1 0 0 -1 0 222.6636)" gradientUnits="userSpaceOnUse" x1="90.8481" x2="111.2481" xlink:href="#c" y1="98.5168" y2="98.5168"/><path d="m241.74 91.76-.68-.33 11.9-23.74v-52.66h.75v52.84z" fill="#57606a"/><path d="m133.15 154.77h.75v34.62h-.75z" fill="#57606a"/><path d="m124.27 190.98h13.99v.75h-13.99z" fill="#57606a" transform="matrix(.7572 -.6531 .6531 .7572 -93.1169 132.1868)"/><path d="m136.02 176.29h1.13v12.16h-1.13z" fill="#fff"/><path d="m207.36 176.29h-70.98v-22.09h55.51v-30.35h15.47z" fill="url(#b)"/><path d="m207.73 176.67h-71.73v-22.84h55.51v-30.35h16.22zm-70.98-.75h70.23v-51.69h-14.72v30.35h-55.51z" fill="#57606a"/><path d="m32.66 68.55-.73-.86 10.78-9.12h37.53v1.13h-37.12z" fill="#fff"/><path d="m192.54 154.77h-62.46v-1.13h61.33v-129.24h-11.99v-1.13h13.12z" fill="#fff"/><path d="m179.42 42.16h33.84v81.69h-33.84z" fill="url(#d)"/><g fill="#fff"><circle cx="200.68" cy="112.64" r="5.11"/><path d="m179.9 52.84h24.04v.77h-24.04z"/><path d="m179.9 59.61h24.04v.77h-24.04z"/><path d="m179.9 66.38h24.04v.77h-24.04z"/><path d="m179.9 73.14h24.04v.77h-24.04z"/><path d="m179.9 79.91h24.04v.77h-24.04z"/><path d="m179.9 86.68h24.04v.77h-24.04z"/><path d="m179.9 93.45h24.04v.77h-24.04z"/><path d="m179.9 100.22h24.04v.77h-24.04z"/><path d="m179.98 138.19h-53.99v-1.13h52.87v-129.23h-98.05v60.37h-1.13v-61.5h100.3z"/></g><g clip-path="url(#e)"><path d="m100.21 25.95h63.97v9.3h-63.97z" fill="url(#g)"/><path d="m100.21 44.52h43.83v9.3h-43.83z" fill="url(#h)"/><path d="m100.21 53.82h66.28v9.3h-66.28z" fill="url(#i)"/><path d="m100.21 72.43h62.42v9.3h-62.42z" fill="url(#j)"/><path d="m100.21 91.03h66.28v9.3h-66.28z" fill="url(#k)"/><path d="m100.21 91.03h37.13v9.3h-37.13z" fill="#6fdd8b"/><path d="m112.09 109.63h25.25v9.3h-25.25z" fill="#6fdd8b"/><path d="m114.11 81.73h41.47v9.3h-41.47z" fill="url(#l)"/><path d="m148.4 81.73h7.18v9.3h-7.18z" fill="#fff"/><path d="m100.22 53.82h11.03v9.3h-11.03z" fill="#fff"/><path d="m100.21 100.33h48.19v9.3h-48.19z" fill="#6fdd8b"/><path d="m100.21 63.13h43.83v9.3h-43.83z" fill="url(#m)"/><path d="m114.11 35.26h39.83v9.3h-39.83z" fill="url(#n)"/><path d="m134.85 35.26h19.09v9.3h-19.09z" fill="#fff"/></g><path d="m46.45 62.1h33.12v.75h-33.12z" fill="#57606a"/><path d="m43.05 64.82h36.52v.75h-36.52z" fill="#57606a"/><path d="m126.54 197.32h-94.64v-129.69h94.64zm-93.51-1.13h92.38v-127.43h-92.38z" fill="#fff"/><path d="m66.44 140.85h-20.4l10.2-33.41z" fill="url(#p)"/><path d="m66.44 140.85h-20.4l10.2-33.41-1.81 23.44z" fill="url(#q)"/><path d="m111.3 140.85h-20.4l10.2-33.41z" fill="url(#r)"/><path d="m111.25 140.85h-20.4l10.2-33.41-1.82 23.44z" fill="url(#s)"/><path d="m79.2 101.45 2.47 55.87h-6l2.47-55.87z" fill="#57606a"/><path d="m67.06 157.32h23.4v5.4h-23.4z" fill="#fff"/><path d="m101.05 107.91h-44.76" fill="none"/><path d="m56.29 107.34h44.76v1.13h-44.76z" fill="#fff"/><path d="m129.8 138.33h.75v54.04h-.75z" fill="#57606a"/><path d="m210 198.58h-67.45v-.75h66.96l31.51-71.83v-110.58h-35.41v-.75h36.16l-.03 111.56z" fill="#57606a"/><path d="m205.32 16.51-2.71-1.48 2.71-1.48.36.66-1.51.82 1.51.83z" fill="#57606a"/><circle cx="241.23" cy="125.69" fill="#fff" r="1.84"/><path d="m11.16 188.01h-.75v-173.52h53.13v.75h-52.38z" fill="#57606a"/><path d="m63.72 16.41-.36-.66 1.51-.82-1.51-.83.36-.66 2.72 1.49z" fill="#57606a"/><circle cx="10.78" cy="39.91" fill="#fff" r="1.84"/><circle cx="10.78" cy="136.01" fill="#fff" r="1.84"/><circle cx="10.78" cy="68.12" fill="#1b1e22" r="1.84"/><path d="m10.78 70.33c-1.22 0-2.21-.99-2.21-2.21s.99-2.21 2.21-2.21 2.21.99 2.21 2.21-.99 2.21-2.21 2.21zm0-3.67c-.81 0-1.46.65-1.46 1.46s.66 1.46 1.46 1.46 1.46-.65 1.46-1.46-.65-1.46-1.46-1.46z" fill="#57606a"/><circle cx="10.78" cy="186.72" fill="#1b1e22" r="1.84"/><path d="m10.78 188.93c-1.22 0-2.21-.99-2.21-2.21s.99-2.21 2.21-2.21 2.21.99 2.21 2.21-.99 2.21-2.21 2.21zm0-3.67c-.81 0-1.46.66-1.46 1.46s.66 1.46 1.46 1.46 1.46-.65 1.46-1.46-.65-1.46-1.46-1.46z" fill="#57606a"/><circle cx="209.61" cy="197.81" fill="#1b1e22" r="1.84"/><path d="m209.61 200.02c-1.22 0-2.21-.99-2.21-2.21s.99-2.21 2.21-2.21 2.21.99 2.21 2.21-.99 2.21-2.21 2.21zm0-3.67c-.81 0-1.46.65-1.46 1.46s.65 1.46 1.46 1.46 1.46-.66 1.46-1.46-.65-1.46-1.46-1.46z" fill="#57606a"/><circle cx="241.23" cy="15.04" fill="#fff" r="1.84"/><circle cx="241.23" cy="31.75" fill="#1b1e22" r="1.3"/><path d="m241.23 33.42c-.92 0-1.67-.75-1.67-1.67s.75-1.67 1.67-1.67 1.67.75 1.67 1.67-.74 1.67-1.67 1.67zm0-2.6c-.51 0-.92.41-.92.92s.41.92.92.92.92-.41.92-.92-.41-.92-.92-.92z" fill="#57606a"/><circle cx="253.34" cy="15.03" fill="#1b1e22" r="1.3"/><path d="m253.34 16.71c-.92 0-1.67-.75-1.67-1.67s.75-1.67 1.67-1.67 1.67.75 1.67 1.67-.75 1.67-1.67 1.67zm0-2.6c-.51 0-.92.41-.92.92s.41.92.92.92.92-.41.92-.92-.41-.92-.92-.92z" fill="#57606a"/><path d="m120.35 190.83h-81.77v-116.54h81.77zm-81.02-.75h80.27v-115.04h-80.27z" fill="#57606a"/><path d="m120.34 93.77-19.48-19.48h19.48zm-17.67-18.73 16.92 16.92v-16.92z" fill="#57606a"/><path d="m120.34 190.82h-19.48l19.48-19.48zm-17.67-.75h16.92v-16.92z" fill="#57606a"/><path d="m38.58 93.78v-19.48h19.48zm.75-18.73v16.92l16.92-16.92z" fill="#57606a"/><path d="m58.06 190.82h-19.48v-19.48zm-18.73-.75h16.92l-16.92-16.92z" fill="#57606a"/></svg>