<svg id="Layer_1" xmlns="http://www.w3.org/2000/svg" viewBox="0 0 207.8 123.4"><style>.st0,.st1{fill:#fff;stroke:#000;stroke-miterlimit:10}.st1{fill:none}</style><title>Asset 1</title><g id="Layer_2"><g id="Layer_2-2"><circle class="st0" cx="132.2" cy="71" r="2.6"/><path class="st0" d="M134.8 71h2.7M126.8 71h2.8"/><ellipse transform="rotate(-37.269 48.59 40.094)" class="st0" cx="48.6" cy="40.1" rx="2.6" ry="2.6"/><path class="st0" d="M50.6 38.5l2.2-1.6M44.3 43.3l2.2-1.6M156.5 52.4l-1.4 5.8 5.7-1.7zM6 89.8L.7 92.5l5 3.2zM165.8 118.7v4M167.8 120.7h-4M108.9 53.3v4M110.9 55.3h-4M16.1 66.6l-2.8 2.8M16.1 69.4l-2.8-2.8"/><circle class="st0" cx="181.1" cy="53.8" r="2.5"/><circle class="st0" cx="99.9" cy="15.9" r="2.5"/><circle class="st0" cx="99.9" cy="3.2" r="2.5"/><circle class="st0" cx="71.9" cy="15.9" r="2.5"/><circle class="st0" cx="199.7" cy="79.6" r="7.5"/><circle class="st0" cx="199.7" cy="79.6" r="2.5"/><circle class="st0" cx="148" cy="5.7" r="3.7"/><path class="st1" d="M199.7 77.1V59.8c0-3.3-2.7-6-6-6h-10.1"/><path class="st0" d="M99.9 5.7v7.7M74.4 15.9h23M2.2 27.4h15c.7 0 1.2.5 1.2 1.2v27.1c0 .7-.5 1.2-1.2 1.2h-15c-.7 0-1.2-.5-1.2-1.2V28.6c0-.7.5-1.2 1.2-1.2z"/><path class="st0" d="M29 31.9H7c-.6 0-1 .4-1 1v11.5c0 .6.4 1 1 1h3.2v4.3l5.6-4.3H29c.6 0 1-.4 1-1V32.9c0-.6-.5-1-1-1z"/><g id="Octicons"><g id="person"><path id="Shape" class="st0" d="M14.7 41.5c0 .3-.2.5-.5.5H9.5c-.3 0-.5-.2-.5-.5V41c0-1.2 1.9-1.9 1.9-1.9.1-.1.1-.3 0-.5-.4-.3-.4-.7-.5-1.9 0-.8.6-1.4 1.4-1.4.8 0 1.4.6 1.4 1.4 0 1.1-.1 1.6-.5 1.9-.1.1-.1.3 0 .5 0 0 1.9.6 1.9 1.9l.1.5z"/></g></g><path class="st0" d="M16.7 87.3h30.7c.7 0 1.2.5 1.2 1.2v18.1c0 .7-.5 1.2-1.2 1.2H16.7c-.7 0-1.2-.5-1.2-1.2V88.5c0-.6.5-1.2 1.2-1.2zM113.1 20.1h30.7c.7 0 1.2.5 1.2 1.2v18.1c0 .7-.5 1.2-1.2 1.2h-30.7c-.7 0-1.2-.5-1.2-1.2V21.2c0-.6.5-1.1 1.2-1.1zM26.7 58.2H55c.7 0 1.2.5 1.2 1.2v14.8c0 .7-.5 1.2-1.2 1.2H26.7c-.7 0-1.2-.5-1.2-1.2V59.3c0-.6.6-1.1 1.2-1.1zM126.6 95.6h42.2c.7 0 1.2.5 1.2 1.2v11.6c0 .7-.5 1.2-1.2 1.2h-42.2c-.7 0-1.2-.5-1.2-1.2V96.8c0-.7.5-1.2 1.2-1.2zM182.4 105h11.9c.7 0 1.2.5 1.2 1.2v10.3c0 .7-.5 1.2-1.2 1.2h-11.9c-.7 0-1.2-.5-1.2-1.2v-10.3c0-.7.5-1.2 1.2-1.2zM121.2 54.7h16.9c.7 0 1.2.5 1.2 1.2V81c0 .7-.5 1.2-1.2 1.2h-16.9c-.7 0-1.2-.5-1.2-1.2V55.8c0-.6.5-1.1 1.2-1.1z"/><path class="st0" d="M116 27.6h5.3v4.7H116zM20 99.8h5.3v4.7H20zM121.3 30.3H145M111.9 30.3h4.1M116 23.7h2.7M29.8 101H38M29.8 103.5h12M116 35.8h3.8M123.6 35.8h3.8M131.2 35.8h3.7M138.8 35.8h3.7M15.5 90.1h33.1v5.6H15.5zM1 29.5h17.4M17.1 36.1h5.5M17.1 38.7H27M126.3 73.8h5.8M124 76.9h10.4M17.1 41.2H25M1 52.3h17.4"/><circle class="st0" cx="31.8" cy="66.7" r=".4"/><circle class="st0" cx="50" cy="66.7" r=".4"/><path class="st0" d="M52.7 69.4v-5.3c-1.3 0-2.4-1.1-2.4-2.4H31.4c0 1.3-1.1 2.4-2.4 2.4v5.3c1.3 0 2.4 1.1 2.4 2.4h18.9c0-1.4 1.1-2.4 2.4-2.4z"/><circle class="st0" cx="40.9" cy="66.7" r="6.5"/><path class="st0" d="M41.4 69.5h-.2v.7c0 .2-.1.3-.3.3s-.3-.1-.3-.3v-.7h-1.1c-.2 0-.3-.1-.3-.3s.1-.3.3-.3h2c.5 0 .9-.4.9-.9s-.4-.9-.9-.9h-1.1c-.9 0-1.5-.7-1.5-1.5s.7-1.5 1.5-1.5h.2v-.7c0-.2.1-.3.3-.3s.3.1.3.3v.6h1c.2 0 .3.1.3.3s-.1.3-.3.3h-1.8c-.5 0-.9.4-.9.9s.4.9.9.9h1c.9 0 1.5.7 1.5 1.5s-.7 1.6-1.5 1.6zM151.7 69.2H180c.7 0 1.2.5 1.2 1.2v14.7c0 .7-.5 1.2-1.2 1.2h-28.3c-.7 0-1.2-.5-1.2-1.2V70.4c0-.7.5-1.2 1.2-1.2zM66 84.4h19.3c.7 0 1.2.5 1.2 1.2v13.1c0 .7-.5 1.2-1.2 1.2H66c-.7 0-1.2-.5-1.2-1.2V85.6c0-.6.5-1.2 1.2-1.2z"/><circle class="st0" cx="156.8" cy="77.8" r=".4"/><circle class="st0" cx="174.9" cy="77.8" r=".4"/><path class="st0" d="M177.6 80.4v-5.3c-1.3 0-2.4-1.1-2.4-2.4h-18.9c0 1.3-1.1 2.4-2.4 2.4v5.3c1.3 0 2.4 1.1 2.4 2.4h18.9c0-1.3 1.1-2.4 2.4-2.4z"/><circle class="st0" cx="165.8" cy="77.8" r="6.5"/><circle class="st0" cx="8.3" cy="79.8" r=".4"/><path class="st0" d="M168 81.2h-4c-.2 0-.3-.1-.3-.3 0-.1 0-.2.1-.3.8-.6 1.3-1.6 1.1-2.6h-1.2c-.2 0-.3-.1-.3-.3s.1-.3.3-.3h1c-.3-.8-.2-1.7.3-2.3.6-.7 1.6-1 2.6-.8.2 0 .3.2.2.4s-.2.3-.4.2c-.9-.3-1.8.2-2.1 1.1-.1.4-.1.9.1 1.3h1.3c.2 0 .3.1.3.3s-.1.3-.3.3h-1.1c.1.9-.1 1.8-.7 2.5h3.2c.2 0 .3.1.3.3s-.2.6-.4.5z"/><path d="M92.4 58.4c0 1.8-.3 3.6-.7 5.3-.1.4-.4.7-.7.6-.3-.1-.5-.4-.5-.7v-.1c.4-1.7.6-3.5.6-5.3.1-5-3.8-9.1-8.8-9.2-4.5-.1-8.4 3.2-9.1 7.7 0 .3-.1.6-.1.9s-.3.7-.7.6c-.3 0-.6-.3-.6-.7.1-2.1.9-4.2 2.3-5.8 2.4-3.2 6.5-4.5 10.3-3.5 3.9.9 6.9 4 7.6 7.8.1.3.1.7.2 1 .2.5.2 1 .2 1.4z"/><path d="M94.8 58.7c0 .4 0 .9-.1 1.3s-.3.7-.6.7c-.4 0-.6-.3-.6-.7v-.1c.1-1.5.1-3-.2-4.5-1.4-6.2-7.5-10-13.7-8.6-3.3.7-6.1 2.9-7.6 5.9-.2.4-.5.5-.8.4-.3-.1-.5-.4-.4-.8 0 0 0-.1.1-.1.5-1 1.1-1.9 1.9-2.7 3.5-3.7 7.8-5 12.7-3.7s7.9 4.8 9.1 9.8c.1.3.1.7.2 1-.1.8-.1 1.4 0 2.1z"/><path d="M90 58.4c-.1 2.5-.5 4.9-1.3 7.3-.2.4-.4.6-.8.5s-.5-.4-.3-.9c.7-2.2 1.1-4.4 1.2-6.7.3-3.6-2.3-6.9-6-7.2-3.6-.3-6.9 2.3-7.2 6v.7c0 1-.2 2-.6 3 0 .1 0 .2-.1.3-.1.3-.4.4-.7.3-.3-.1-.5-.4-.4-.7.4-1.3.6-2.6.6-3.9.6-4.3 4.5-7.3 8.7-6.7 3.4.4 6.1 3 6.7 6.4.1.4.2 1 .2 1.6z"/><path d="M96.8 54.6c0 .3-.2.6-.5.7-.3.1-.6-.1-.7-.4-.1-.4-.2-.8-.4-1.2-1.9-5.2-5.7-8.4-11.2-9.2-4.4-.7-8.8.8-11.8 4.1l-.2.2c-.2.3-.6.3-.9.1-.3-.2-.3-.6-.1-.9l.1-.1c5.6-6.1 15.1-6.5 21.2-.9 2.2 2 3.7 4.6 4.4 7.4l.1.2zM87.6 58.8c-.2 2.7-.7 5.3-1.8 7.7 0 .3-.4.6-.7.5h-.2c-.3-.1-.5-.5-.3-.8.8-1.9 1.3-3.9 1.5-5.9.1-1 .1-2 0-3-.4-2.3-2.6-3.7-4.9-3.3-1.7.3-2.9 1.6-3.3 3.3-.2.8-.1 1.6-.2 2.4-.2 1.3-.6 2.5-1.1 3.7-.1.3-.4.5-.7.4h-.1c-.3-.1-.4-.5-.3-.8.5-1.1.8-2.2 1-3.4.1-.7.1-1.5.2-2.2.4-3 3.1-5 6.1-4.6 2.4.3 4.3 2.2 4.6 4.6.2.4.2.9.2 1.4z"/><path d="M82.9 40.6c5.7.2 11 3.3 14 8.1l.2.3c.1.3 0 .6-.2.7-.2.2-.6.1-.8-.1 0-.1-.1-.1-.2-.2-4.8-7.6-14.8-9.9-22.4-5.2-.1.1-.3.2-.4.3-.1.1-.2.1-.3.2-.3.1-.6.1-.8-.2-.2-.2-.2-.6.1-.8.1-.1.2-.2.3-.2 3.1-1.9 6.7-3 10.5-2.9zM85.2 58.7c-.1 2.7-.8 5.3-1.9 7.7-.1.2-.3.4-.5.5-.2 0-.4-.1-.6-.2-.2-.2-.2-.4-.1-.7.4-1 .8-2 1.1-3.1.5-1.6.7-3.2.7-4.8 0-1-.8-1.8-1.8-1.8s-1.8.8-1.8 1.8c-.1 2.3-.7 4.6-1.8 6.8-.1.3-.5.5-.8.4-.3-.1-.4-.5-.3-.8v-.1c.7-1.5 1.2-3 1.4-4.6.1-.7.1-1.3.2-2 .1-1.6 1.5-2.9 3.2-2.8 1.6.1 2.8 1.4 2.8 3v.7z"/><path d="M95.8 43.8c.1.2.1.4 0 .6l-.2.2c-.3.2-.5 0-.7-.2-.6-.5-1.2-1.1-1.8-1.5-3.6-2.6-8-3.8-12.5-3.4-1.9.2-3.8.6-5.6 1.4-.4.2-.7.1-.8-.2-.2-.3-.1-.7.2-.8.1 0 .1-.1.2-.1 5.8-2.5 12.4-2 17.9 1.2 1.2.7 2.3 1.5 3.3 2.5v.3z"/><path d="M82.2 35.9c3.4-.1 6.8.7 9.8 2.2.1 0 .1.1.2.1.3.1.5.5.4.9-.1.3-.5.4-.8.3h-.1c-1.8-.9-3.8-1.6-5.8-1.9-2.3-.4-4.6-.4-6.8-.1h-.3c-.3.1-.6-.1-.7-.4-.1-.3.1-.6.4-.7h.1c.7-.1 1.3-.2 2-.3.5-.1 1.1-.1 1.6-.1zM82.8 58.9c-.1 2.6-.8 5.1-1.9 7.5-.1.3-.4.5-.7.4h-.1c-.3-.1-.4-.5-.3-.8v-.1c.7-1.4 1.2-3 1.5-4.5.2-.9.2-1.8.3-2.8 0-.4.3-.7.6-.7s.6.3.6.7v.3zM67.6 32.6h3.5v1.2h-2.3v2.4h-1.2v-3.6zM96.8 33.8v-1.2h3.6v3.5h-1.2v-2.4c-.7.1-1.5.1-2.4.1zM68.7 69h2.4v1.2h-3.5v-3.5h1.2l-.1 2.3zM96.8 70.2V69h2.4v-2.4h1.2v3.5l-3.6.1z"/><path class="st0" d="M129.2 48.2c1.9 0 3.4 1.5 3.4 3.4v4.7h-6.8v-4.7c0-1.9 1.6-3.4 3.4-3.4z"/><circle class="st0" cx="129.2" cy="51.5" r=".4"/><path class="st0" d="M132.6 100.6v2.2M130.6 102.1l2 .7M131.4 104.5l1.2-1.7M133.9 104.5l-1.3-1.7M134.6 102.1l-2 .7M140.1 100.6v2.2M138.1 102.1l2 .7M138.9 104.5l1.2-1.7M141.4 104.5l-1.3-1.7M142.2 102.1l-2.1.7M147.6 100.6v2.2M145.6 102.1l2 .7M146.4 104.5l1.2-1.7M148.9 104.5l-1.3-1.7M149.7 102.1l-2.1.7M155.2 100.6v2.2M153.1 102.1l2.1.7M153.9 104.5l1.3-1.7M156.4 104.5l-1.2-1.7M157.2 102.1l-2 .7M160.8 104.5h3.7M64.8 85.6l4.2 6.5h13.2l4.2-6.5M80.2 92.1H71l-5 7.8h19.2zM188.3 96.4c2.5 0 4.5 2 4.5 4.5v4h-9.1v-4c.1-2.5 2.1-4.5 4.6-4.5z"/><circle class="st0" cx="188.3" cy="110.6" r="2.2"/><path class="st0" d="M188.3 112.7v2.1M46.7 13.9h11.9c.7 0 1.2.5 1.2 1.2v10.3c0 .7-.5 1.2-1.2 1.2H46.7c-.7 0-1.2-.5-1.2-1.2V15.1c0-.7.6-1.2 1.2-1.2z"/><path class="st1" d="M57.2 13.9v-4c0-2.5-2-4.5-4.5-4.5s-4.5 2-4.5 4.5"/><circle class="st0" cx="52.7" cy="19.5" r="2.2"/><path class="st0" d="M52.7 21.6v2.1M189.7 41.5h-22.5c-2 0-3.6-1.6-3.6-3.6V9.6h26.1v31.9z"/><path class="st0" d="M167.3 41.5h27.8c2 0 3.6-1.6 3.6-3.6v-3.5h-26.1v3.5c0 2-1.6 3.6-3.6 3.6h-1.7zM168.9 15h5.2M174.8 20.1h9.1M176.9 15h2.5M181.3 27.7h2.6M168.9 17.5h16M168.9 20.1h3.5M168.9 22.6h9.3M168.9 27.7h9.3M168.9 30.3h7.5"/><circle class="st0" cx="162.8" cy="38.7" r="6"/><path class="st0" d="M169.8 33.8l-7.2 7.2-3.1-3.1"/><g id="Octicons-2"><g id="person-2"><path id="Shape-2" class="st0" d="M133.4 69.8c0 .4-.3.7-.7.7h-7c-.4 0-.7-.3-.7-.7v-.7c0-1.8 2.8-2.8 2.8-2.8.1-.2.1-.5 0-.7-.6-.4-.7-1.1-.7-2.8 0-1.2.9-2.1 2.1-2.1 1.2 0 2.1.9 2.1 2.1 0 1.7-.1 2.4-.7 2.8-.1.2-.1.5 0 .7 0 0 2.8 1 2.8 2.8v.7z"/></g></g></g></g></svg>