<?xml version="1.0" encoding="UTF-8" standalone="no"?>
<!-- Generator: Adobe Illustrator 23.0.0, SVG Export Plug-In . SVG Version: 6.00 Build 0)  -->

<svg
   version="1.1"
   id="Layer_1"
   x="0px"
   y="0px"
   viewBox="0 0 24 24"
   xml:space="preserve"
   width="239.976"
   height="239.976"
   xmlns="http://www.w3.org/2000/svg"
   xmlns:svg="http://www.w3.org/2000/svg"><defs
   id="defs11" />
<style
   type="text/css"
   id="style2">
	.st0-12315876-136882576-1242982350{fill:#FFC700;}
</style>
<path
   d="M 12,0 C 5.37,0 0,5.37 0,12 0,18.63 5.37,24 12,24 18.63,24 24,18.63 24,12 24,5.37 18.63,0 12,0 Z m 1.37,1.78 1.85,0.47 V 4.84 L 17.29,3.14 18.83,4.27 14.88,7.51 13.36,7.5 V 1.78 Z M 9.75,1.53 h 1.85 v 7.49 h 3.83 l 4.61,-3.66 1.16,1.45 -5.11,4.07 H 9.76 V 1.53 Z M 4.3,17.28 2.45,15.71 V 8.68 L 4.3,6.98 Z M 7.93,19.49 6.07,21.1 V 3 l 1.86,1.61 z m 9.37,1.55 -2.07,-1.7 v 2.59 l -1.85,0.47 v -5.72 l 1.52,-0.01 3.95,3.24 z m 2.74,-2.47 -4.61,-3.66 H 11.6 V 22.4 H 9.75 v -9.34 h 6.33 l 5.11,4.07 z m 1.44,-3.49 -3.79,-3.12 3.79,-3.12 1.18,1.43 -2.06,1.69 2.06,1.69 z"
   id="path4" />
<path
   class="st0-12315876-136882576-1242982350"
   d="M 14.89,7.51 13.37,7.5 V 1.78 l 1.85,0.47 v 2.59 l 2.07,-1.7 1.54,1.13 z M 21.19,6.8 20.03,5.35 15.42,9.01 H 11.59 V 1.52 H 9.74 v 9.34 h 6.33 z M 2.45,15.7 4.3,17.27 V 6.97 l -1.85,1.7 z m 3.63,5.4 1.86,-1.61 V 4.6 L 6.08,2.99 Z m 7.29,-4.42 v 5.72 l 1.85,-0.47 v -2.59 l 2.07,1.7 1.54,-1.13 -3.95,-3.24 z M 9.75,13.06 v 9.34 h 1.85 v -7.49 h 3.83 l 4.61,3.66 1.16,-1.45 -5.11,-4.07 H 9.75 Z m 12.91,-2.79 -1.18,-1.43 -3.79,3.12 3.79,3.12 1.18,-1.43 -2.06,-1.69 z"
   id="path6" />
</svg>
