<svg width="478" height="671" viewBox="0 0 478 671" fill="none" xmlns="http://www.w3.org/2000/svg">
<rect x="200" y="91" width="25" height="25" stroke="#DADFE9"/>
<rect x="427" y="280" width="25" height="25" stroke="#DADFE9"/>
<rect x="452" y="305" width="25" height="25" stroke="#DADFE9"/>
<rect x="427" y="330" width="25" height="25" stroke="#DADFE9"/>
<rect x="452" y="330" width="25" height="25" stroke="#DADFE9"/>
<rect x="49" y="507" width="25" height="25" stroke="#DADFE9"/>
<rect x="74" y="507" width="25" height="25" stroke="#DADFE9"/>
<rect x="49" y="457" width="25" height="25" stroke="#DADFE9"/>
<rect x="74" y="457" width="25" height="25" stroke="#DADFE9"/>
<rect x="49" y="482" width="25" height="25" stroke="#DADFE9"/>
<rect x="74" y="482" width="25" height="25" stroke="#DADFE9"/>
<rect x="99" y="457" width="25" height="25" stroke="#DADFE9"/>
<rect x="124" y="457" width="25" height="25" stroke="#DADFE9"/>
<rect x="99" y="482" width="25" height="25" stroke="#DADFE9"/>
<rect x="124" y="482" width="25" height="25" stroke="#DADFE9"/>
<rect x="300" y="380" width="25" height="25" stroke="#DADFE9"/>
<rect x="325" y="380" width="25" height="25" stroke="#DADFE9"/>
<rect x="300" y="405" width="25" height="25" stroke="#DADFE9"/>
<rect x="325" y="405" width="25" height="25" stroke="#DADFE9"/>
<rect x="100" y="166" width="25" height="25" stroke="#DADFE9"/>
<rect x="125" y="166" width="25" height="25" stroke="#DADFE9"/>
<rect x="100" y="91" width="25" height="25" stroke="#DADFE9"/>
<rect x="125" y="91" width="25" height="25" stroke="#DADFE9"/>
<rect x="100" y="66" width="25" height="25" stroke="#DADFE9"/>
<rect x="125" y="66" width="25" height="25" stroke="#DADFE9"/>
<rect x="100" y="41" width="25" height="25" stroke="#DADFE9"/>
<rect x="125" y="41" width="25" height="25" stroke="#DADFE9"/>
<rect x="100" y="16" width="25" height="25" stroke="#DADFE9"/>
<rect x="125" y="16" width="25" height="25" stroke="#DADFE9"/>
<rect x="150" y="41" width="25" height="25" stroke="#DADFE9"/>
<rect x="175" y="41" width="25" height="25" stroke="#DADFE9"/>
<rect x="150" y="16" width="25" height="25" stroke="#DADFE9"/>
<rect x="175" y="16" width="25" height="25" stroke="#DADFE9"/>
<rect x="200" y="41" width="25" height="25" stroke="#DADFE9"/>
<rect x="200" y="16" width="25" height="25" stroke="#DADFE9"/>
<rect x="250" y="41" width="25" height="25" stroke="#DADFE9"/>
<rect x="250" y="16" width="25" height="25" stroke="#DADFE9"/>
<rect x="100" y="116" width="25" height="25" stroke="#DADFE9"/>
<rect x="125" y="116" width="25" height="25" stroke="#DADFE9"/>
<rect x="175" y="91" width="25" height="25" stroke="#DADFE9"/>
<rect x="175" y="116" width="25" height="25" stroke="#DADFE9"/>
<rect x="275" y="318" width="25" height="25" stroke="#DADFE9"/>
<rect x="225" y="595" width="25" height="25" stroke="#DADFE9"/>
<rect x="124" y="595" width="25" height="25" stroke="#DADFE9"/>
<rect x="326" y="595" width="25" height="25" stroke="#DADFE9"/>
<rect x="377" y="595" width="25" height="25" stroke="#DADFE9"/>
<rect x="175" y="595" width="25" height="25" stroke="#DADFE9"/>
<rect x="175" y="570" width="25" height="25" stroke="#DADFE9"/>
<rect x="175" y="545" width="25" height="25" stroke="#DADFE9"/>
<rect x="200" y="545" width="25" height="25" stroke="#DADFE9"/>
<rect x="225" y="545" width="25" height="25" stroke="#DADFE9"/>
<rect x="250" y="545" width="25" height="25" stroke="#DADFE9"/>
<rect x="275" y="545" width="25" height="25" stroke="#DADFE9"/>
<rect x="175" y="645" width="25" height="25" stroke="#DADFE9"/>
<rect x="200" y="645" width="25" height="25" stroke="#DADFE9"/>
<rect x="225" y="645" width="25" height="25" stroke="#DADFE9"/>
<rect x="250" y="645" width="25" height="25" stroke="#DADFE9"/>
<rect x="275" y="645" width="25" height="25" stroke="#DADFE9"/>
<rect x="275" y="570" width="25" height="25" stroke="#DADFE9"/>
<rect x="275" y="595" width="25" height="25" stroke="#DADFE9"/>
<rect x="275" y="620" width="25" height="25" stroke="#DADFE9"/>
<rect x="175" y="620" width="25" height="25" stroke="#DADFE9"/>
<rect x="300" y="193" width="25" height="25" stroke="#DADFE9"/>
<rect x="325" y="457" width="25" height="25" stroke="#DADFE9"/>
<rect x="300" y="520" width="25" height="25" stroke="#DADFE9"/>
<rect x="325" y="520" width="25" height="25" stroke="#DADFE9"/>
<rect x="100" y="268" width="25" height="25" stroke="#DADFE9"/>
<rect x="225" y="343" width="25" height="25" stroke="#DADFE9"/>
<rect x="352" y="193" width="25" height="25" stroke="#DADFE9"/>
<rect x="100" y="243" width="25" height="25" stroke="#DADFE9"/>
<rect x="100" y="318" width="25" height="25" stroke="#DADFE9"/>
<rect x="125" y="318" width="25" height="25" stroke="#DADFE9"/>
<rect x="150" y="318" width="25" height="25" stroke="#DADFE9"/>
<rect x="175" y="318" width="25" height="25" stroke="#DADFE9"/>
<rect x="200" y="318" width="25" height="25" stroke="#DADFE9"/>
<rect x="100" y="218" width="25" height="25" stroke="#DADFE9"/>
<rect x="150" y="218" width="25" height="25" stroke="#DADFE9"/>
<rect x="125" y="218" width="25" height="25" stroke="#DADFE9"/>
<rect x="175" y="193" width="25" height="25" stroke="#DADFE9"/>
<rect x="200" y="193" width="25" height="25" stroke="#DADFE9"/>
<rect x="200" y="243" width="25" height="25" stroke="#DADFE9"/>
<rect x="200" y="268" width="25" height="25" stroke="#DADFE9"/>
<rect x="200" y="293" width="25" height="25" stroke="#DADFE9"/>
<rect x="100" y="293" width="25" height="25" stroke="#DADFE9"/>
<rect x="300" y="318" width="25" height="25" stroke="#DADFE9"/>
<rect x="250" y="318" width="25" height="25" stroke="#DADFE9"/>
<rect x="300" y="243" width="25" height="25" stroke="#DADFE9"/>
<rect x="300" y="268" width="25" height="25" stroke="#DADFE9"/>
<rect x="300" y="293" width="25" height="25" stroke="#DADFE9"/>
<rect x="26" y="191" width="25" height="25" stroke="#DADFE9"/>
<rect x="75" y="343" width="25" height="25" stroke="#DADFE9"/>
<rect x="50" y="318" width="25" height="25" stroke="#DADFE9"/>
<rect x="1" y="191" width="25" height="25" stroke="#DADFE9"/>
<rect x="26" y="216" width="25" height="25" stroke="#DADFE9"/>
<rect x="1" y="216" width="25" height="25" stroke="#DADFE9"/>
<rect x="100" y="368" width="25" height="25" stroke="#DADFE9"/>
<rect x="100" y="393" width="25" height="25" stroke="#DADFE9"/>
<rect x="125" y="368" width="25" height="25" stroke="#DADFE9"/>
<rect x="125" y="393" width="25" height="25" stroke="#DADFE9"/>
<rect x="26" y="241" width="25" height="25" stroke="#DADFE9"/>
<rect x="1" y="241" width="25" height="25" stroke="#DADFE9"/>
<g filter="url(#filter0_dddddd)">
<rect x="163" y="204" width="100" height="100" rx="6" fill="white"/>
<rect x="162.5" y="203.5" width="101" height="101" rx="6.5" stroke="#35485B" stroke-opacity="0.14"/>
</g>
<path fill-rule="evenodd" clip-rule="evenodd" d="M198 241C198 239.159 199.492 237.667 201.333 237.667H217.97C218.854 237.667 219.702 238.018 220.327 238.643L227.024 245.339C227.649 245.964 228 246.812 228 247.696V271C228 272.841 226.508 274.333 224.667 274.333H200.917C200.226 274.333 199.667 273.774 199.667 273.083C199.667 272.393 200.226 271.833 200.917 271.833H224.667C225.127 271.833 225.5 271.46 225.5 271V250.167H218.833C216.992 250.167 215.5 248.674 215.5 246.833V240.167H201.333C200.873 240.167 200.5 240.54 200.5 241V251.417C200.5 252.107 199.94 252.667 199.25 252.667C198.56 252.667 198 252.107 198 251.417V241ZM218 240.167V246.833C218 247.294 218.373 247.667 218.833 247.667H225.499C225.492 247.456 225.405 247.256 225.256 247.107L218.56 240.411C218.41 240.261 218.21 240.175 218 240.167Z" fill="#627597"/>
<path d="M196 257L201 262" stroke="#627597" stroke-width="2.5" stroke-linecap="round"/>
<path d="M201 257L196 262" stroke="#627597" stroke-width="2.5" stroke-linecap="round"/>
<path d="M195 265.75C194.31 265.75 193.75 266.31 193.75 267C193.75 267.69 194.31 268.25 195 268.25V265.75ZM221 268.25C221.69 268.25 222.25 267.69 222.25 267C222.25 266.31 221.69 265.75 221 265.75V268.25ZM195 268.25H221V265.75H195V268.25Z" fill="#627597"/>
<g filter="url(#filter1_dddddd)">
<rect x="86" y="1" width="50" height="50" rx="6" fill="white"/>
<rect x="85.5" y="0.5" width="51" height="51" rx="6.5" stroke="#35485B" stroke-opacity="0.14"/>
</g>
<path fill-rule="evenodd" clip-rule="evenodd" d="M111.75 16.75C111.75 16.3358 111.414 16 111 16C110.586 16 110.25 16.3358 110.25 16.75V18.4999H108.276C107.925 18.4999 107.582 18.6055 107.291 18.8029L105.596 19.9566C105.554 19.9848 105.505 19.9999 105.455 19.9999H101.353C100.938 19.9999 100.603 20.3357 100.603 20.7499C100.603 21.1641 100.938 21.4999 101.353 21.4999H102.931L99.5632 29.1797C99.4308 29.4814 99.5195 29.8502 99.7733 30.0599C99.8537 30.1244 99.9341 30.185 100.082 30.2814C100.268 30.4024 100.534 30.5591 100.874 30.7144C101.555 31.025 102.536 31.3335 103.75 31.3335C104.964 31.3335 105.945 31.025 106.626 30.7144C106.966 30.5591 107.232 30.4024 107.418 30.2814C107.567 30.1842 107.648 30.1234 107.729 30.0582C107.986 29.8445 108.071 29.4861 107.937 29.1797L104.569 21.4999H105.455C105.806 21.4999 106.149 21.3943 106.439 21.1969L108.135 20.0432C108.177 20.015 108.226 19.9999 108.276 19.9999H110.25V34.5H105.763C105.349 34.5 105.013 34.8358 105.013 35.25C105.013 35.6642 105.349 36 105.763 36H116.237C116.652 36 116.987 35.6642 116.987 35.25C116.987 34.8358 116.652 34.5 116.237 34.5H111.75V19.9999H113.724C113.774 19.9999 113.823 20.015 113.865 20.0432L115.561 21.1969C115.851 21.3943 116.194 21.4999 116.545 21.4999H117.431L114.063 29.1797C113.924 29.4959 114.02 29.866 114.294 30.0761C114.305 30.0847 114.293 30.0753 114.295 30.0769C114.325 30.0994 114.356 30.1216 114.387 30.143C114.439 30.1787 114.512 30.2266 114.605 30.2825C114.79 30.3942 115.056 30.5385 115.394 30.6814C116.072 30.9673 117.046 31.25 118.25 31.25C119.454 31.25 120.428 30.9673 121.106 30.6814C121.444 30.5385 121.71 30.3942 121.895 30.2825C122.044 30.1927 122.125 30.1366 122.206 30.0761C122.48 29.866 122.576 29.4959 122.437 29.1797L119.069 21.4999H120.647C121.062 21.4999 121.397 21.1641 121.397 20.7499C121.397 20.3357 121.062 19.9999 120.647 19.9999H116.545C116.495 19.9999 116.446 19.9848 116.404 19.9566L114.708 18.8029C114.418 18.6055 114.075 18.4999 113.724 18.4999H111.75V16.75ZM101.193 29.1981C101.283 29.2468 101.384 29.2982 101.498 29.3499C102.025 29.5907 102.793 29.8335 103.75 29.8335C104.707 29.8335 105.475 29.5907 106.002 29.3499C106.116 29.2982 106.217 29.2468 106.307 29.1981L103.75 23.3674L101.193 29.1981ZM115.703 29.1743C115.785 29.2147 115.877 29.257 115.978 29.2995C116.508 29.5232 117.283 29.75 118.25 29.75C119.217 29.75 119.992 29.5232 120.522 29.2995C120.623 29.257 120.715 29.2147 120.797 29.1743L118.25 23.3674L115.703 29.1743Z" fill="#627597"/>
<g filter="url(#filter2_dddddd)">
<rect x="86" y="382" width="50" height="50" rx="6" fill="white"/>
<rect x="85.5" y="381.5" width="51" height="51" rx="6.5" stroke="#35485B" stroke-opacity="0.14"/>
</g>
<path d="M106.25 407C105.836 407 105.5 407.336 105.5 407.75C105.5 408.164 105.836 408.5 106.25 408.5H106.75C107.164 408.5 107.5 408.164 107.5 407.75C107.5 407.336 107.164 407 106.75 407H106.25Z" fill="#627597"/>
<path d="M105.5 404.25C105.5 403.836 105.836 403.5 106.25 403.5H106.75C107.164 403.5 107.5 403.836 107.5 404.25C107.5 404.664 107.164 405 106.75 405H106.25C105.836 405 105.5 404.664 105.5 404.25Z" fill="#627597"/>
<path d="M106.25 400C105.836 400 105.5 400.336 105.5 400.75C105.5 401.164 105.836 401.5 106.25 401.5H106.75C107.164 401.5 107.5 401.164 107.5 400.75C107.5 400.336 107.164 400 106.75 400H106.25Z" fill="#627597"/>
<path d="M109 407.75C109 407.336 109.336 407 109.75 407H110.25C110.664 407 111 407.336 111 407.75C111 408.164 110.664 408.5 110.25 408.5H109.75C109.336 408.5 109 408.164 109 407.75Z" fill="#627597"/>
<path d="M109.75 403.5C109.336 403.5 109 403.836 109 404.25C109 404.664 109.336 405 109.75 405H110.25C110.664 405 111 404.664 111 404.25C111 403.836 110.664 403.5 110.25 403.5H109.75Z" fill="#627597"/>
<path d="M109 400.75C109 400.336 109.336 400 109.75 400H110.25C110.664 400 111 400.336 111 400.75C111 401.164 110.664 401.5 110.25 401.5H109.75C109.336 401.5 109 401.164 109 400.75Z" fill="#627597"/>
<path d="M113.25 407C112.836 407 112.5 407.336 112.5 407.75C112.5 408.164 112.836 408.5 113.25 408.5H113.75C114.164 408.5 114.5 408.164 114.5 407.75C114.5 407.336 114.164 407 113.75 407H113.25Z" fill="#627597"/>
<path d="M112.5 404.25C112.5 403.836 112.836 403.5 113.25 403.5H113.75C114.164 403.5 114.5 403.836 114.5 404.25C114.5 404.664 114.164 405 113.75 405H113.25C112.836 405 112.5 404.664 112.5 404.25Z" fill="#627597"/>
<path d="M113.25 400C112.836 400 112.5 400.336 112.5 400.75C112.5 401.164 112.836 401.5 113.25 401.5H113.75C114.164 401.5 114.5 401.164 114.5 400.75C114.5 400.336 114.164 400 113.75 400H113.25Z" fill="#627597"/>
<path fill-rule="evenodd" clip-rule="evenodd" d="M102 415C102 416.105 102.895 417 104 417H107.75C108.164 417 108.5 416.664 108.5 416.25V414H111.5V416.25C111.5 416.664 111.836 417 112.25 417H116C116.092 417 116.183 416.994 116.272 416.982C116.325 416.994 116.381 417 116.438 417H120.5C121.605 417 122.5 416.104 122.5 415V407.375C122.5 406.745 122.204 406.153 121.7 405.775L120.7 405.025C120.369 404.776 119.899 404.844 119.65 405.175C119.401 405.506 119.469 405.976 119.8 406.225L120.8 406.975C120.926 407.069 121 407.218 121 407.375V415C121 415.276 120.776 415.5 120.5 415.5H117.937C117.978 415.34 118 415.173 118 415V398C118 396.895 117.105 396 116 396H104C102.895 396 102 396.895 102 398V415ZM104 415.5C103.724 415.5 103.5 415.276 103.5 415V398C103.5 397.724 103.724 397.5 104 397.5H116C116.276 397.5 116.5 397.724 116.5 398V415C116.5 415.276 116.276 415.5 116 415.5H113V413.25C113 412.836 112.664 412.5 112.25 412.5H107.75C107.336 412.5 107 412.836 107 413.25V415.5H104Z" fill="#627597"/>
<defs>
<filter id="filter0_dddddd" x="82" y="203" width="262" height="282" filterUnits="userSpaceOnUse" color-interpolation-filters="sRGB">
<feFlood flood-opacity="0" result="BackgroundImageFix"/>
<feColorMatrix in="SourceAlpha" type="matrix" values="0 0 0 0 0 0 0 0 0 0 0 0 0 0 0 0 0 0 127 0"/>
<feOffset dy="2.76726"/>
<feGaussianBlur stdDeviation="1.1069"/>
<feColorMatrix type="matrix" values="0 0 0 0 0 0 0 0 0 0 0 0 0 0 0 0 0 0 0.035 0"/>
<feBlend mode="normal" in2="BackgroundImageFix" result="effect1_dropShadow"/>
<feColorMatrix in="SourceAlpha" type="matrix" values="0 0 0 0 0 0 0 0 0 0 0 0 0 0 0 0 0 0 127 0"/>
<feOffset dy="6.6501"/>
<feGaussianBlur stdDeviation="2.66004"/>
<feColorMatrix type="matrix" values="0 0 0 0 0 0 0 0 0 0 0 0 0 0 0 0 0 0 0.0216 0"/>
<feBlend mode="normal" in2="effect1_dropShadow" result="effect2_dropShadow"/>
<feColorMatrix in="SourceAlpha" type="matrix" values="0 0 0 0 0 0 0 0 0 0 0 0 0 0 0 0 0 0 127 0"/>
<feOffset dy="12.5216"/>
<feGaussianBlur stdDeviation="5.00862"/>
<feColorMatrix type="matrix" values="0 0 0 0 0 0 0 0 0 0 0 0 0 0 0 0 0 0 0.0184 0"/>
<feBlend mode="normal" in2="effect2_dropShadow" result="effect3_dropShadow"/>
<feColorMatrix in="SourceAlpha" type="matrix" values="0 0 0 0 0 0 0 0 0 0 0 0 0 0 0 0 0 0 127 0"/>
<feOffset dy="22.3363"/>
<feGaussianBlur stdDeviation="8.93452"/>
<feColorMatrix type="matrix" values="0 0 0 0 0 0 0 0 0 0 0 0 0 0 0 0 0 0 0.0141 0"/>
<feBlend mode="normal" in2="effect3_dropShadow" result="effect4_dropShadow"/>
<feColorMatrix in="SourceAlpha" type="matrix" values="0 0 0 0 0 0 0 0 0 0 0 0 0 0 0 0 0 0 127 0"/>
<feOffset dy="41.7776"/>
<feGaussianBlur stdDeviation="16.711"/>
<feColorMatrix type="matrix" values="0 0 0 0 0 0 0 0 0 0 0 0 0 0 0 0 0 0 0.0116 0"/>
<feBlend mode="normal" in2="effect4_dropShadow" result="effect5_dropShadow"/>
<feColorMatrix in="SourceAlpha" type="matrix" values="0 0 0 0 0 0 0 0 0 0 0 0 0 0 0 0 0 0 127 0"/>
<feOffset dy="100"/>
<feGaussianBlur stdDeviation="40"/>
<feColorMatrix type="matrix" values="0 0 0 0 0 0 0 0 0 0 0 0 0 0 0 0 0 0 0.01 0"/>
<feBlend mode="normal" in2="effect5_dropShadow" result="effect6_dropShadow"/>
<feBlend mode="normal" in="SourceGraphic" in2="effect6_dropShadow" result="shape"/>
</filter>
<filter id="filter1_dddddd" x="5" y="0" width="212" height="232" filterUnits="userSpaceOnUse" color-interpolation-filters="sRGB">
<feFlood flood-opacity="0" result="BackgroundImageFix"/>
<feColorMatrix in="SourceAlpha" type="matrix" values="0 0 0 0 0 0 0 0 0 0 0 0 0 0 0 0 0 0 127 0"/>
<feOffset dy="2.76726"/>
<feGaussianBlur stdDeviation="1.1069"/>
<feColorMatrix type="matrix" values="0 0 0 0 0 0 0 0 0 0 0 0 0 0 0 0 0 0 0.035 0"/>
<feBlend mode="normal" in2="BackgroundImageFix" result="effect1_dropShadow"/>
<feColorMatrix in="SourceAlpha" type="matrix" values="0 0 0 0 0 0 0 0 0 0 0 0 0 0 0 0 0 0 127 0"/>
<feOffset dy="6.6501"/>
<feGaussianBlur stdDeviation="2.66004"/>
<feColorMatrix type="matrix" values="0 0 0 0 0 0 0 0 0 0 0 0 0 0 0 0 0 0 0.0216 0"/>
<feBlend mode="normal" in2="effect1_dropShadow" result="effect2_dropShadow"/>
<feColorMatrix in="SourceAlpha" type="matrix" values="0 0 0 0 0 0 0 0 0 0 0 0 0 0 0 0 0 0 127 0"/>
<feOffset dy="12.5216"/>
<feGaussianBlur stdDeviation="5.00862"/>
<feColorMatrix type="matrix" values="0 0 0 0 0 0 0 0 0 0 0 0 0 0 0 0 0 0 0.0184 0"/>
<feBlend mode="normal" in2="effect2_dropShadow" result="effect3_dropShadow"/>
<feColorMatrix in="SourceAlpha" type="matrix" values="0 0 0 0 0 0 0 0 0 0 0 0 0 0 0 0 0 0 127 0"/>
<feOffset dy="22.3363"/>
<feGaussianBlur stdDeviation="8.93452"/>
<feColorMatrix type="matrix" values="0 0 0 0 0 0 0 0 0 0 0 0 0 0 0 0 0 0 0.0141 0"/>
<feBlend mode="normal" in2="effect3_dropShadow" result="effect4_dropShadow"/>
<feColorMatrix in="SourceAlpha" type="matrix" values="0 0 0 0 0 0 0 0 0 0 0 0 0 0 0 0 0 0 127 0"/>
<feOffset dy="41.7776"/>
<feGaussianBlur stdDeviation="16.711"/>
<feColorMatrix type="matrix" values="0 0 0 0 0 0 0 0 0 0 0 0 0 0 0 0 0 0 0.0116 0"/>
<feBlend mode="normal" in2="effect4_dropShadow" result="effect5_dropShadow"/>
<feColorMatrix in="SourceAlpha" type="matrix" values="0 0 0 0 0 0 0 0 0 0 0 0 0 0 0 0 0 0 127 0"/>
<feOffset dy="100"/>
<feGaussianBlur stdDeviation="40"/>
<feColorMatrix type="matrix" values="0 0 0 0 0 0 0 0 0 0 0 0 0 0 0 0 0 0 0.01 0"/>
<feBlend mode="normal" in2="effect5_dropShadow" result="effect6_dropShadow"/>
<feBlend mode="normal" in="SourceGraphic" in2="effect6_dropShadow" result="shape"/>
</filter>
<filter id="filter2_dddddd" x="5" y="381" width="212" height="232" filterUnits="userSpaceOnUse" color-interpolation-filters="sRGB">
<feFlood flood-opacity="0" result="BackgroundImageFix"/>
<feColorMatrix in="SourceAlpha" type="matrix" values="0 0 0 0 0 0 0 0 0 0 0 0 0 0 0 0 0 0 127 0"/>
<feOffset dy="2.76726"/>
<feGaussianBlur stdDeviation="1.1069"/>
<feColorMatrix type="matrix" values="0 0 0 0 0 0 0 0 0 0 0 0 0 0 0 0 0 0 0.035 0"/>
<feBlend mode="normal" in2="BackgroundImageFix" result="effect1_dropShadow"/>
<feColorMatrix in="SourceAlpha" type="matrix" values="0 0 0 0 0 0 0 0 0 0 0 0 0 0 0 0 0 0 127 0"/>
<feOffset dy="6.6501"/>
<feGaussianBlur stdDeviation="2.66004"/>
<feColorMatrix type="matrix" values="0 0 0 0 0 0 0 0 0 0 0 0 0 0 0 0 0 0 0.0216 0"/>
<feBlend mode="normal" in2="effect1_dropShadow" result="effect2_dropShadow"/>
<feColorMatrix in="SourceAlpha" type="matrix" values="0 0 0 0 0 0 0 0 0 0 0 0 0 0 0 0 0 0 127 0"/>
<feOffset dy="12.5216"/>
<feGaussianBlur stdDeviation="5.00862"/>
<feColorMatrix type="matrix" values="0 0 0 0 0 0 0 0 0 0 0 0 0 0 0 0 0 0 0.0184 0"/>
<feBlend mode="normal" in2="effect2_dropShadow" result="effect3_dropShadow"/>
<feColorMatrix in="SourceAlpha" type="matrix" values="0 0 0 0 0 0 0 0 0 0 0 0 0 0 0 0 0 0 127 0"/>
<feOffset dy="22.3363"/>
<feGaussianBlur stdDeviation="8.93452"/>
<feColorMatrix type="matrix" values="0 0 0 0 0 0 0 0 0 0 0 0 0 0 0 0 0 0 0.0141 0"/>
<feBlend mode="normal" in2="effect3_dropShadow" result="effect4_dropShadow"/>
<feColorMatrix in="SourceAlpha" type="matrix" values="0 0 0 0 0 0 0 0 0 0 0 0 0 0 0 0 0 0 127 0"/>
<feOffset dy="41.7776"/>
<feGaussianBlur stdDeviation="16.711"/>
<feColorMatrix type="matrix" values="0 0 0 0 0 0 0 0 0 0 0 0 0 0 0 0 0 0 0.0116 0"/>
<feBlend mode="normal" in2="effect4_dropShadow" result="effect5_dropShadow"/>
<feColorMatrix in="SourceAlpha" type="matrix" values="0 0 0 0 0 0 0 0 0 0 0 0 0 0 0 0 0 0 127 0"/>
<feOffset dy="100"/>
<feGaussianBlur stdDeviation="40"/>
<feColorMatrix type="matrix" values="0 0 0 0 0 0 0 0 0 0 0 0 0 0 0 0 0 0 0.01 0"/>
<feBlend mode="normal" in2="effect5_dropShadow" result="effect6_dropShadow"/>
<feBlend mode="normal" in="SourceGraphic" in2="effect6_dropShadow" result="shape"/>
</filter>
</defs>
</svg>
