<svg width="200" height="200" viewBox="0 0 79 82" fill="none" xmlns="http://www.w3.org/2000/svg"><path fill-rule="evenodd" clip-rule="evenodd" d="M12.357 0v18.566a10.07 10.07 0 0 1 6.811-2.643h9.998v3.291h-9.998a6.813 6.813 0 0 0-6.811 6.812v5.435h.005v8.868c0 3.542-1.822 6.655-4.577 8.459a10.1 10.1 0 0 1 4.572 8.455v14.309a6.813 6.813 0 0 0 6.811 6.812h9.998v3.29h-9.998c-5.582 0-10.102-4.526-10.102-10.102V57.244a6.813 6.813 0 0 0-6.768-6.812H0V47.14h2.299a6.813 6.813 0 0 0 6.772-6.812v-4.59h-.005v-9.713q0-.761.11-1.492c-5.046-1.603-8.7-6.323-8.7-11.9C.477 6.622 4.72 1.62 10.37.422zM9.066 4.307a9.19 9.19 0 0 0-5.298 8.326 9.2 9.2 0 0 0 5.298 8.332zm57.4 63.307v3.938a6.813 6.813 0 0 1-6.811 6.812h-9.993v3.29h9.993c5.582 0 10.102-4.526 10.102-10.102V57.243a6.813 6.813 0 0 1 6.77-6.811h2.301V47.14h-2.3a6.813 6.813 0 0 1-6.771-6.812v-4.59h.005v-9.713q0-.761-.109-1.492c5.046-1.604 8.698-6.324 8.698-11.901 0-6.011-4.242-11.012-9.892-12.211L66.472 0v18.566a10.07 10.07 0 0 0-6.812-2.643h-9.998v3.291h9.998a6.813 6.813 0 0 1 6.812 6.812v5.435h-.006v8.868c0 3.54 1.82 6.653 4.575 8.457a10.1 10.1 0 0 0-4.575 8.457zm-33.954-3.976a5.19 5.19 0 0 1-5.189-5.188h-3.29a8.48 8.48 0 0 0 15.313 5.02 8.48 8.48 0 0 0 15.313-5.02h-3.292a5.19 5.19 0 0 1-10.376 0V51.7l6.67-3.334-1.472-2.944-6.843 3.422-6.844-3.422-1.472 2.944L37.7 51.7v6.749a5.19 5.19 0 0 1-5.188 5.188m17.715-24.51a4.174 4.174 0 1 0 0-8.347 4.174 4.174 0 0 0 0 8.347m-17.589-4.173a4.174 4.174 0 1 1-8.347 0 4.174 4.174 0 0 1 8.347 0m37.124-13.99V4.307a9.19 9.19 0 0 1 5.298 8.326 9.2 9.2 0 0 1-5.298 8.332" fill="#000"/></svg>