<svg fill="none" height="49" viewBox="0 0 48 49" width="48" xmlns="http://www.w3.org/2000/svg"><path clip-rule="evenodd" d="m37.3317 26.9774c.5887 1.0536 1.1312 2.1322 1.5521 3.2684.197.5325.1552 1.0484-.2149 1.4953-.3627.4386-.832.3643-1.3066.2371-.2909-.0779-.5826-.1529-.8742-.2279-.4911-.1261-.982-.2523-1.4689-.3925-.2708-.078-.3626-.0258-.4238.2568-.3157 1.4611-.8947 2.8132-1.7983 3.9949-2.2998 3.0064-5.2592 4.4584-8.7969 4.4289-3.5377.0295-6.4972-1.4225-8.7969-4.4289-.9044-1.1817-1.4827-2.5338-1.7984-3.9949-.0611-.2826-.1529-.3348-.4238-.2568-.4868.1402-.9778.2664-1.4688.3925-.2917.075-.5834.15-.8742.2279-.4746.1265-.94323.2015-1.30663-.2371-.37011-.4462-.41265-.9628-.2149-1.4953.4216-1.1354.96333-2.214 1.55213-3.2684 1.4617-2.6171 3.234-4.9948 5.3345-7.118.1627-.1643.2724-.3545.3612-.5658.4883-1.1656.7101-2.398.9319-3.6307.0347-.1932.0695-.3864.1053-.5793.1977-1.0673.4163-2.1292.8655-3.123 1.1656-2.58149 3.1863-3.83207 5.3406-3.91918.0445 0 .0887-.0006.1327-.00119.0874-.00117.1739-.00234.2598.00119.0858-.00353.1723-.00236.2597-.00119.044.00059.0883.00119.1328.00119 2.1542.08711 4.1742 1.33769 5.3405 3.91918.4484.9945.6671 2.0565.8656 3.123.0366.1971.0722.3945.1078.5918.2213 1.2287.4427 2.4572.9294 3.6182.0888.2113.1985.4015.3611.5658 2.1006 2.124 3.8728 4.5017 5.3346 7.118zm-13.3315 9.5819c1.6282-.0045 3.1504-.4688 4.5047-1.474 2.2909-1.6998 3.2661-4.0555 3.0385-6.8824-.2328-2.8904-1.4326-5.3477-3.5541-7.3148-.676-.6272-1.4528-1.0961-2.3154-1.4142 0 0-.0827-.0318-.2233-.0761.1287-.0782.2595-.1532.3927-.2241.2253-.148.4505-.2964.6756-.4448.4502-.2967.9004-.5935 1.3525-.8869.2605-.1689.4276-.3923.4045-.7128-.0232-.3181-.2105-.5264-.4955-.6514-2.4923-1.093-4.9906-1.1953-7.5-.0583-.3015.1363-.5358.3212-.5597.684-.0246.3621.1836.5757.4627.7552.4739.3051.9444.616 1.415.9269.1941.1282.3882.2564.5825.3843.1328.0697.2627.1437.3906.2212-.1538.0478-.2451.0828-.2451.0828-.8626.3181-1.6393.787-2.3154 1.4142-2.1214 1.9671-3.3213 4.4244-3.5541 7.3148-.2276 2.8262.7477 5.1819 3.0385 6.8824 1.3543 1.0052 2.8766 1.4687 4.5048 1.474z" fill="#586069" fill-rule="evenodd"/></svg>