<svg version="1.1" id="Layer_1" xmlns="http://www.w3.org/2000/svg" x="0" y="0" viewBox="0 0 75 37">
  <path class="st0" d="M15.6 31.8c0 .5-2.1.9-4.7.9s-4.7-.4-4.7-.9 2.1-.9 4.7-.9c2.5.1 4.7.5 4.7.9zM15.9 18c2-.8 3.7-2.5 4.7-4.4 1.1-2.3 1.2-5 .4-7.3-.2-.6-.5-1.2-.8-1.7-1.3-2.1-3.4-3.5-5.8-4.2C12-.3 9.5 0 7.2 1S2.9 3.8 1.6 6C.9 7.2.5 8.4.2 9.7 0 11 0 12.2.2 13.4c.3 2.6.9 5 1.9 7.4.5 1.2 1.2 2.4 1.9 3.5.2.3.6.8 1 1.2.1.1.3.3.5.3h.2c.1 0 .2-.1.3-.1.1-.1.2-.3.1-.5v-.3c0-.1 0-.2-.1-.3V24c.1-.8.3-1.5.8-2.1.6-.8 1.4-1.4 2.3-1.7 1.1-.5 2.3-.7 3.5-1 1.1-.5 2.3-.7 3.3-1.2zm-6-6.4l-.7-1.2c-.2-.4-.7-.4-.9 0l-2.1 3.4c-.2.3-.7.3-.9 0-.6-1.1-1-2.3-.9-3.6.1-4.1 3.8-7.3 8-6.5 2.7.5 4.9 2.8 5.3 5.5.3 1.7-.1 3.3-.9 4.6-.2.4-.7.4-.9 0l-2.8-5c-.2-.4-.7-.4-1 0l-1.8 2.9c-.1.1-.3.1-.4-.1zM28.2 29.7c-1.6 0-2.4-1.5-2.4-3.4s.7-3.4 2.4-3.4c1.6 0 2.8 1.5 2.8 3.4s-1.1 3.4-2.8 3.4zm1-9.9c-2.1 0-3.1 1.2-3.1 1.2s-.4-.5-1.3-.8-1.9-.3-1.9-.3c-.2 0-.5.2-.5.4v16.3c0 .2.2.4.5.4h2.8c.2 0 .4-.2.4-.4v-5.2c.9.8 2 1.2 3.1 1.2 2.9 0 5.3-2.9 5.3-6.4 0-3.5-2.4-6.4-5.3-6.4zM74.7 31.5c-.3 0-1.3-.4-1.8-.9s-.5-3-2.5-4.4c-.1-.1-.2-.1-.3-.2-.1-.1-.1-.2-.1-.3l3.9-5.2c.2-.3 0-.7-.3-.7h-2.8c-.1 0-.2.1-.3.1l-4.3 5.5c-.1.2-.4.1-.4-.1v-9.4c0-.2-.2-.4-.4-.4h-3.1c-.2 0-.5.2-.5.4v16.4c0 .2.2.4.5.4h3.1c.2 0 .4-.2.4-.4v-5.6c0-.2.3-.3.4-.1.1.2 1.1 1 1.6 1.9.4.8.5 1.2.9 1.9s1.5 2.2 3.8 2.2c1 0 2-.5 2.3-.8.2-.1.1-.3-.1-.3zM44.7 24.6H40c-.1 0-.2-.1-.2-.2.1-1.2 1.2-2.1 2.5-2.1 1.2 0 2.4.9 2.6 2.1 0 .1-.1.2-.2.2zm.1-4.3c-2.2-.9-4.4-.7-6.4.7-2.4 1.8-3 6.7-1.1 9.2 2.5 3.3 8 3.4 10.3-.5.1-.2 0-.5-.2-.6-.3-.2-.5-.3-.7-.4-.2-.1-.4-.2-.7-.3-.2-.1-.4 0-.5.1-.9 1.2-2.5 1.4-3.9 1-1.1-.3-1.8-1.3-1.9-2.7 0-.1.1-.2.2-.2h7.8c.1 0 .3-.1.3-.2s.1-.1.1-.2c0-.4 0-.6-.1-1-.1-2.1-1-4-3.2-4.9zM56.1 27.3c-.1.5-.2.9-.4 1.3-.4.7-1.2 1.2-2 1.2-.5 0-1-.1-1.3-.4-.3-.3-.4-.8-.2-1.2.2-.5.8-.7 1.3-.9.6-.2 1.3-.4 1.9-.6.2-.1.7-.3.8-.1 0 .1-.1.5-.1.7zm4.9 4.2c-.5-.3-.8-.4-1-1-.1-.5 0-1.1 0-1.6v-1.6c0-1.2.1-2.4-.2-3.6-.1-.6-.3-1.2-.7-1.7-.3-.5-1-1.1-1.9-1.5-1.1-.5-2.2-.6-3-.6-.8 0-1.4.1-2 .3-.7.2-1.4.6-1.9 1s-1.1 1.1-1.2 1.2c-.1.1-.1.2-.2.4s0 .5.2.6c.3.1.6.2.8.3.2.1.4.2.7.3.2.1.3 0 .5-.1.2-.2.4-.5.8-.7.3-.2.7-.4 1-.5.4-.1.8-.2 1.3-.2s1.2.2 1.7.5c.4.2.6.5.6.8 0 .4-.4.6-1 .8-.6.2-.9.2-1.5.4-2 .4-4.3.8-5.2 2.8-.7 1.6-.1 3.4 1.3 4.3 1.6 1 3.9.8 5.6.2.3-.1.5-.2.8-.4.2-.1.4-.2.6 0 .3.3.5.4.8.6.9.4 1.9.4 2.8 0 .1-.2.8-.8.3-1z" fill="currentColor"/>
</svg>
