<svg width="74" height="23" viewBox="0 0 74 23" fill="none" xmlns="http://www.w3.org/2000/svg">
<path d="M7.37732 22.597C3.19384 22.597 0 19.8565 0 14.9796C0 10.1026 3.35128 7.29248 7.57975 7.29248C11.8082 7.29248 14.9346 10.0793 14.9346 14.9099C14.9346 19.7404 11.5158 22.597 7.37732 22.597ZM7.44479 10.9154C5.53299 10.9154 4.56584 12.4946 4.56584 14.9563C4.56584 17.418 5.55548 18.9508 7.46729 18.9508C9.37909 18.9508 10.3462 17.418 10.3462 14.9331C10.3462 12.4482 9.3566 10.9154 7.44479 10.9154Z" fill="white"/>
<path d="M34.0524 13.7021C34.0524 11.9836 33.3326 11.3798 32.1631 11.3798C31.3309 11.403 30.5212 11.7281 29.9139 12.3087V13.1448V22.1556H25.3031V13.7021C25.3031 11.9836 24.5608 11.3798 23.3913 11.3798C22.5591 11.3798 21.7718 11.6817 21.1421 12.2391V22.1556H16.5312L16.5537 7.61752H21.1646V9.47542C22.4016 8.15167 23.7736 7.33883 25.5955 7.36206C27.3498 7.36206 28.8343 8.22134 29.509 9.9399C30.7911 8.36068 32.4105 7.38528 34.3223 7.38528C37.0438 7.38528 38.6632 9.26641 38.6407 12.3552L38.6182 22.2021H34.0074L34.0524 13.7021Z" fill="white"/>
<path d="M43.2967 5.78303C41.6098 5.78303 40.5752 4.8773 40.5752 3.25164C40.5752 1.5563 41.6323 0.697021 43.2967 0.697021C44.9611 0.697021 46.0182 1.5563 46.0182 3.27486C46.0182 4.90053 45.0061 5.78303 43.2967 5.78303ZM41.0025 7.64093H45.6134L45.5909 22.179H40.98L41.0025 7.64093Z" fill="white"/>
<path d="M53.013 22.6667C51.1012 22.6667 48.5821 22.2255 47.1201 21.3894L48.0198 17.9523C49.5942 18.8116 51.3261 19.2761 53.1029 19.3225C54.3625 19.3225 54.9922 18.9277 54.9922 18.1613C54.9922 17.3253 54.205 17.0466 52.6306 16.675C49.3918 16.0015 47.345 14.7939 47.345 11.9838C47.345 9.28985 49.6167 7.3855 53.4853 7.3855C55.3296 7.3855 57.7587 7.94287 59.1307 8.63958L58.2086 12.0303C56.6341 11.1942 54.7448 10.7297 53.4178 10.7297C52.2932 10.7297 51.7084 11.1013 51.7084 11.798C51.7084 12.5644 52.5631 12.8895 54.0926 13.2147C57.3539 13.9578 59.3332 15.0726 59.3107 17.9523C59.3332 20.5302 57.129 22.6667 53.013 22.6667Z" fill="white"/>
<path d="M68.375 19.1831C69.9045 19.1831 71.5239 18.6257 72.9184 17.7897L73.3682 21.459C71.9737 22.2022 69.9944 22.6202 67.9477 22.6202C63.2469 22.6202 60.188 19.9263 60.188 15.0957C60.188 10.4045 63.3144 7.33897 67.7228 7.36219C71.6588 7.36219 73.818 9.80069 73.818 13.4004C73.818 14.1668 73.7281 15.3047 73.5256 15.9318L64.7088 16.0711V16.1408C64.8438 18.1148 66.1033 19.1831 68.375 19.1831ZM69.5446 13.4236C69.5446 11.705 68.8698 10.6832 67.4304 10.66C65.8559 10.66 64.8888 12.0766 64.7313 13.7023L69.5446 13.6791V13.4236Z" fill="white"/>
</svg>
