<svg width="108" height="24" viewBox="0 0 108 24" fill="none" xmlns="http://www.w3.org/2000/svg">
<path d="M37.1803 10.1068V19.1489H33.2189V11.3579C33.2189 9.48159 32.3331 8.51684 30.8215 8.51684C29.31 8.51684 28.346 9.48159 28.346 11.3579V19.1489H24.385V5.18111H27.5035L28.346 7.16189C29.2586 5.98952 30.4312 4.92066 32.4373 4.92066C35.4341 4.92066 37.1803 6.90085 37.1803 10.1068ZM8.16155 0.818237L0.423828 19.1489H5.79458L13.5323 0.818237H8.16155ZM15.9501 4.9599L13.1702 11.7908H18.8552L15.9501 4.9599ZM14.4308 14.9494L16.2076 19.1489H21.9761L20.2 14.9494H14.4308ZM50.9021 6.58829C51.9449 7.63103 52.4139 9.16891 52.4139 11.0449V19.1489H49.2222L48.583 17.6376C47.6185 18.7059 46.2897 19.4104 44.3617 19.4104C41.7286 19.4104 39.5663 17.8993 39.5663 15.1364V15.0841C39.5663 12.0357 41.8854 10.6281 45.1955 10.6281C46.6027 10.6281 47.6185 10.8619 48.6089 11.2016V10.9668C48.6089 9.32537 47.5926 8.41285 45.6122 8.41285C44.2011 8.41285 43.1747 8.66479 42.0064 9.07957L40.7676 6.14515C42.3041 5.46768 43.8153 5.02512 46.1855 5.02512C48.3484 5.02489 49.9117 5.59826 50.9021 6.58829ZM48.6606 13.5204C47.9832 13.208 47.0975 12.9991 46.1337 12.9991C44.439 12.9991 43.3967 13.677 43.3967 14.9281V14.98C43.3967 16.048 44.2825 16.6728 45.5604 16.6728C47.4097 16.6728 48.6606 15.6572 48.6606 14.2234V13.5204ZM70.121 12.1395V12.191C70.121 16.8562 67.0717 19.4106 63.7625 19.4106C61.6513 19.4106 60.3482 18.4456 59.4103 17.3252V23.5122H55.4497V5.18111H58.5551L59.4102 7.18789C60.3742 5.88493 61.704 4.92054 63.7624 4.92054C67.0196 4.92066 70.121 7.47445 70.121 12.1395ZM66.1603 12.1395C66.1603 9.81991 64.5956 8.28298 62.7463 8.28298C60.8955 8.28298 59.3583 9.81991 59.3583 12.1395V12.191C59.3583 14.5112 60.8955 16.0482 62.7463 16.0482C64.5955 16.0482 66.1603 14.5371 66.1603 12.191V12.1395ZM102.789 4.92066C100.782 4.92066 99.6096 5.9894 98.6978 7.16189L97.8551 5.18111H94.7373V19.1489H98.6978V11.3579C98.6978 9.48159 99.6618 8.51684 101.174 8.51684C102.685 8.51684 103.571 9.48159 103.571 11.3579V19.1489H107.532V10.1068C107.532 6.90085 105.786 4.92066 102.789 4.92066ZM90.1891 6.58829C91.2323 7.63103 91.7014 9.16891 91.7014 11.0449V19.1489H88.5101L87.8705 17.6376C86.9064 18.7059 85.5774 19.4104 83.6492 19.4104C81.0166 19.4104 78.8533 17.8993 78.8533 15.1364V15.0841C78.8533 12.0357 81.1731 10.6281 84.4823 10.6281C85.8902 10.6281 86.9064 10.8619 87.8964 11.2016V10.9668C87.8964 9.32537 86.8801 8.41285 84.8999 8.41285C83.4894 8.41285 82.4624 8.66479 81.2937 9.07957L80.0547 6.14515C81.5911 5.46768 83.1024 5.02512 85.4734 5.02512C87.6359 5.02489 89.1993 5.59826 90.1891 6.58829ZM87.9485 13.5204C87.2709 13.208 86.3852 12.9991 85.4212 12.9991C83.7265 12.9991 82.6844 13.677 82.6844 14.9281V14.98C82.6844 16.048 83.5711 16.6728 84.847 16.6728C86.6976 16.6728 87.9485 15.6572 87.9485 14.2234V13.5204ZM72.5074 19.1489H76.4686V0.819182H72.5074V19.1489Z" fill="white"/>
</svg>
