<?xml version="1.0" encoding="utf-8"?>
<!-- Generator: Adobe Illustrator 23.0.2, SVG Export Plug-In . SVG Version: 6.00 Build 0)  -->
<svg version="1.1" id="logoHorizontal" xmlns="http://www.w3.org/2000/svg" xmlns:xlink="http://www.w3.org/1999/xlink" x="0px"
	 y="0px" width="1306.8px" height="937.7px" viewBox="0 0 1306.8 937.7" style="enable-background:new 0 0 1306.8 937.7;"
	 xml:space="preserve">
<style type="text/css">
	.st0{fill:#2496ED;}
</style>
<g>
	<path class="st0" d="M1293.9,354c-3.5-2.8-36.6-27.8-106.4-27.8c-18.4,0.1-36.8,1.7-55,4.7c-13.5-92.6-90-137.7-93.5-139.7
		l-18.7-10.8l-12.3,17.8c-15.4,23.9-26.7,50.2-33.3,77.9c-12.5,52.8-4.9,102.5,21.9,144.9c-32.4,18.1-84.4,22.5-94.9,22.9H40.9
		c-22.5,0-40.7,18.2-40.9,40.7c-1,75.4,11.8,150.4,37.7,221.2c29.7,77.8,73.8,135,131.2,170.1c64.3,39.4,168.8,61.9,287.2,61.9
		c53.5,0.2,106.9-4.7,159.5-14.5c73.1-13.4,143.5-39,208.2-75.6c53.3-30.9,101.3-70.1,142.1-116.3c68.2-77.2,108.8-163.2,139-239.6
		c4.1,0,8.1,0,12,0c74.7,0,120.6-29.9,145.9-54.9c16.8-16,30-35.4,38.5-57l5.3-15.6L1293.9,354z"/>
	<path class="st0" d="M120.7,418.6H236c5.6,0,10.1-4.5,10.1-10.1l0,0V305.8c0-5.6-4.5-10.1-10-10.1c0,0,0,0-0.1,0H120.7
		c-5.6,0-10.1,4.5-10.1,10.1c0,0,0,0,0,0.1v102.7C110.6,414.1,115.1,418.6,120.7,418.6L120.7,418.6"/>
	<path class="st0" d="M279.6,418.6H395c5.6,0,10.1-4.5,10.1-10.1l0,0V305.8c0-5.6-4.5-10.1-10-10.1c0,0,0,0-0.1,0H279.6
		c-5.6,0-10.1,4.5-10.1,10.1v102.7C269.6,414.1,274.1,418.6,279.6,418.6"/>
	<path class="st0" d="M441,418.6h115.3c5.6,0,10.1-4.5,10.1-10.1l0,0V305.8c0-5.6-4.5-10.1-10-10.1c0,0,0,0-0.1,0H441
		c-5.6,0-10.1,4.5-10.1,10.1c0,0,0,0,0,0.1v102.7C431,414.1,435.5,418.6,441,418.6L441,418.6"/>
	<path class="st0" d="M600.5,418.6h115.3c5.6,0,10.1-4.5,10.1-10.1V305.8c0-5.6-4.5-10.1-10.1-10.1l0,0H600.5
		c-5.6,0-10.1,4.5-10.1,10.1c0,0,0,0,0,0.1v102.7C590.4,414.1,594.9,418.6,600.5,418.6L600.5,418.6"/>
	<path class="st0" d="M279.6,270.8H395c5.6,0,10.1-4.6,10.1-10.1V157.9c0-5.6-4.5-10.1-10.1-10.1l0,0H279.6
		c-5.6,0-10.1,4.5-10.1,10.1v102.7C269.6,266.3,274.1,270.8,279.6,270.8"/>
	<path class="st0" d="M441,270.8h115.3c5.6,0,10.1-4.6,10.1-10.1V157.9c0-5.6-4.5-10.1-10.1-10.1l0,0H441c-5.6,0-10.1,4.5-10.1,10.1
		l0,0v102.7C431,266.3,435.5,270.8,441,270.8"/>
	<path class="st0" d="M600.5,270.8h115.3c5.6,0,10.1-4.5,10.1-10.1V157.9c0-5.6-4.6-10.1-10.1-10.1H600.5c-5.6,0-10.1,4.5-10.1,10.1
		l0,0v102.7C590.4,266.3,594.9,270.8,600.5,270.8"/>
	<path class="st0" d="M600.5,122.9h115.3c5.6,0,10.1-4.5,10.1-10.1V10.1c0-5.6-4.6-10.1-10.1-10.1H600.5c-5.6,0-10.1,4.5-10.1,10.1
		l0,0v102.8C590.4,118.4,594.9,122.9,600.5,122.9"/>
	<path class="st0" d="M761.4,418.6h115.3c5.6,0,10.1-4.5,10.1-10.1V305.8c0-5.6-4.5-10.1-10.1-10.1l0,0H761.4
		c-5.6,0-10.1,4.5-10.1,10.1c0,0,0,0,0,0.1v102.7C751.3,414.1,755.8,418.6,761.4,418.6"/>
</g>
</svg>
