<svg id="Layer_3" data-name="Layer 3" xmlns="http://www.w3.org/2000/svg" viewBox="0 0 59.08 106.12"><title>machinelearning-flourish-4</title><g style="opacity:0.75"><path d="M1335.87,449.71V408.36a2,2,0,0,1,1-1.75l55-31.77a0.67,0.67,0,0,1,1,.58v41.35a2,2,0,0,1-1,1.75l-55,31.77A0.67,0.67,0,0,1,1335.87,449.71Z" transform="translate(-1335.87 -352.11)" style="fill:#efdbeb"/><path d="M1338.15,412.75a0.5,0.5,0,0,1-.25-0.93l16.93-9.77a4.83,4.83,0,0,1,7.25,4.18,0.5,0.5,0,0,1-1,0,3.83,3.83,0,0,0-5.75-3.32l-16.93,9.77A0.5,0.5,0,0,1,1338.15,412.75Z" transform="translate(-1335.87 -352.11)" style="fill:#631e10"/><path d="M1338.15,427.89a0.5,0.5,0,0,1-.25-0.93l52.48-30.3a0.5,0.5,0,0,1,.5.87l-52.48,30.3A0.5,0.5,0,0,1,1338.15,427.89Z" transform="translate(-1335.87 -352.11)" style="fill:#631e10"/><path d="M1338.15,435.47a0.5,0.5,0,0,1-.25-0.93l52.48-30.3a0.5,0.5,0,0,1,.5.87l-52.48,30.3A0.5,0.5,0,0,1,1338.15,435.47Z" transform="translate(-1335.87 -352.11)" style="fill:#631e10"/><path d="M1338.15,443a0.5,0.5,0,0,1-.25-0.93l52.48-30.3a0.5,0.5,0,0,1,.5.87L1338.4,443A0.5,0.5,0,0,1,1338.15,443Z" transform="translate(-1335.87 -352.11)" style="fill:#ef4f7e"/><path d="M1345.44,431.26a0.5,0.5,0,0,1-.25-0.93L1366.56,418a12.65,12.65,0,0,0,6.31-10.92V388.36a0.5,0.5,0,1,1,1,0v18.71a13.65,13.65,0,0,1-6.81,11.79l-21.36,12.33A0.5,0.5,0,0,1,1345.44,431.26Z" transform="translate(-1335.87 -352.11)" style="fill:#631e10"/><path d="M1373.36,400a0.5,0.5,0,0,1-.5-0.5,13.65,13.65,0,0,1,6.81-11.79l10.72-6.19a0.5,0.5,0,0,1,.5.87l-10.72,6.19a12.65,12.65,0,0,0-6.31,10.92A0.5,0.5,0,0,1,1373.36,400Z" transform="translate(-1335.87 -352.11)" style="fill:#ef4f7e"/><path d="M1338.15,420.32a0.5,0.5,0,0,1-.25-0.93l52.48-30.3a0.5,0.5,0,0,1,.5.87l-52.48,30.3A0.5,0.5,0,0,1,1338.15,420.32Z" transform="translate(-1335.87 -352.11)" style="fill:#ef4f7e"/><path d="M1373.36,407.57a0.5,0.5,0,0,1-.25-0.93l8.38-4.84a6.08,6.08,0,0,0,3-5.25,7.08,7.08,0,0,1,3.53-6.11l2.33-1.35a0.5,0.5,0,0,1,.5.87l-2.33,1.35a6.08,6.08,0,0,0-3,5.25,7.08,7.08,0,0,1-3.53,6.11l-8.38,4.84A0.5,0.5,0,0,1,1373.36,407.57Z" transform="translate(-1335.87 -352.11)" style="fill:#631e10"/><path d="M1338.4,435.35a0.5,0.5,0,0,1-.25-0.93l5.11-2.95a12.65,12.65,0,0,0,6.31-10.92,13.65,13.65,0,0,1,6.81-11.79l4.71-2.72a0.5,0.5,0,1,1,.5.87l-4.71,2.72a12.65,12.65,0,0,0-6.31,10.92,13.65,13.65,0,0,1-6.81,11.79l-5.11,2.95A0.5,0.5,0,0,1,1338.4,435.35Z" transform="translate(-1335.87 -352.11)" style="fill:#631e10"/><path d="M1358.29,436a0.5,0.5,0,0,1-.5-0.5V422a11.26,11.26,0,0,1,5.62-9.73l6.5-3.75a0.5,0.5,0,0,1,.5.87l-6.5,3.75a10.26,10.26,0,0,0-5.12,8.86v13.55A0.5,0.5,0,0,1,1358.29,436Z" transform="translate(-1335.87 -352.11)" style="fill:#ef4f7e"/></g><g style="opacity:0.75"><path d="M1369,384.32V366.9a1,1,0,0,1,.51-0.89l23.86-13.77a1,1,0,0,1,1.53.89v17.42a1,1,0,0,1-.51.89l-23.86,13.78A1,1,0,0,1,1369,384.32Z" transform="translate(-1335.87 -352.11)" style="fill:#631e10"/><polygon points="37.63 16.44 37.63 18.47 51.15 10.62 51.15 8.58 37.63 16.44" style="fill:#fff"/><polyline points="39.25 29.26 39.25 35.38 45.73 26.02" style="fill:#631e10"/><polygon points="43.48 17.2 43.48 19.24 54.62 12.76 54.63 10.72 43.48 17.2" style="fill:#fff"/><polygon points="37.63 20.6 37.63 22.64 41.63 20.31 41.63 18.28 37.63 20.6" style="fill:#fff"/><polygon points="37.63 24.75 37.63 26.79 46.08 21.88 46.08 19.84 37.63 24.75" style="fill:#fff"/><polygon points="47.92 18.77 47.92 20.8 52.4 18.2 52.4 16.17 47.92 18.77" style="fill:#fff"/><path d="M1374.76,388.74l-0.09,0-0.08,0h-0.37l-0.11,0H1374l-0.12,0-0.09,0-0.14.05-0.08,0-0.23.12a4.81,4.81,0,0,0-2.19,3.79,2.48,2.48,0,0,0,0,.48h0a1.75,1.75,0,0,0,.13.39h0a1.29,1.29,0,0,0,.2.31h0a1.07,1.07,0,0,0,.26.21,1.54,1.54,0,0,0,1.56-.15,4.83,4.83,0,0,0,2.19-3.79,1.53,1.53,0,0,0-.64-1.41l-0.08,0Z" transform="translate(-1335.87 -352.11)" style="fill:#631e10"/></g><g style="opacity:0.75"><path d="M1344.35,457.66V445a0.57,0.57,0,0,1,.28-0.49l13.22-7.63a0.57,0.57,0,0,1,.85.49V450a0.57,0.57,0,0,1-.28.49l-13.22,7.63A0.57,0.57,0,0,1,1344.35,457.66Z" transform="translate(-1335.87 -352.11)" style="fill:#ef4f7e"/><polyline points="20.11 86.96 20.11 82.58 15.47 89.28" style="fill:#ef4f7e"/><path d="M1359.62,428.24l-0.09,0-0.08,0h-0.37l-0.11,0h-0.09l-0.12,0-0.09,0-0.14.05-0.08,0-0.23.12a4.81,4.81,0,0,0-2.19,3.79,2.48,2.48,0,0,0,0,.48h0a1.75,1.75,0,0,0,.13.39h0a1.29,1.29,0,0,0,.2.31h0a1.07,1.07,0,0,0,.26.21,1.54,1.54,0,0,0,1.56-.15,4.83,4.83,0,0,0,2.19-3.79,1.53,1.53,0,0,0-.64-1.41l-0.08,0Z" transform="translate(-1335.87 -352.11)" style="fill:#ef4f7e"/><polygon points="15.67 91.78 16.89 93.61 19.63 92.54 17.65 95.53 18.11 98 15.67 98.03 13.22 100.63 13.69 97.65 11.71 96.78 14.44 94.92 15.67 91.78" style="fill:#fff"/></g></svg>