<svg fill="none" height="49" viewBox="0 0 48 49" width="48" xmlns="http://www.w3.org/2000/svg"><path d="m36.4284 32.9381c-.4883 1.1179-1.0663 2.147-1.736 3.0931-.9128 1.2897-1.6602 2.1825-2.2362 2.6783-.8929.8137-1.8496 1.2305-2.874 1.2542-.7355 0-1.6224-.2074-2.6548-.6281-1.0364-.4187-1.9871-.6261-2.8581-.6261-.9128 0-1.8915.2074-2.9398.6261-1.0484.4207-1.8934.6399-2.5392.6617-.9826.0414-1.9612-.3872-2.9398-1.2878-.6238-.5392-1.4031-1.4636-2.3399-2.7731-1.0025-1.3984-1.8277-3.02-2.4734-4.8687-.6896-1.9969-1.03642-3.9306-1.03642-5.803 0-2.145.46842-3.9937 1.40512-5.5442.7355-1.2444 1.7161-2.228 2.9418-2.9469 1.2258-.719 2.5492-1.0883 3.9762-1.112.7813 0 1.8038.239 3.0753.709 1.2676.4721 2.0828.7111 2.4396.7111.2671 0 1.1719-.2805 2.7046-.8375 1.451-.5175 2.6747-.7308 3.6753-.6478 2.7165.2173 4.7574 1.2779 6.1147 3.1898-2.4295 1.4597-3.6314 3.502-3.6074 6.123.0219 2.0423.7693 3.7409 2.2382 5.0899.6657.6261 1.4091 1.11 2.2362 1.4537-.1813.5175-.3707 1.0113-.572 1.4853zm-6.2304-24.29618c0 1.59988-.5899 3.09508-1.7658 4.47768-1.4191 1.6433-3.1352 2.5933-4.9967 2.4432-.0239-.1916-.0379-.393-.0379-.6064 0-1.5366.6757-3.1799 1.8735-4.525.5979-.68143 1.3593-1.24632 2.2821-1.69862.9208-.44441 1.7918-.6913 2.6109-.73278.024.21529.0339.43058.0339.64192z" fill="#586069"/></svg>