<svg width="1080" height="1380" viewBox="0 0 1080 1380" fill="none" xmlns="http://www.w3.org/2000/svg"><path d="M0 120V0h241v120H0z" fill="#000"/><path fill-rule="evenodd" clip-rule="evenodd" d="M815.992 1249H840v-24h24v-24h24v24h24v-24h24v24h-24v25h24v47h-48v23h48v-23h25v-96h119V480H961V360H841v-59.579h-60V240.37h-60V0H361v120H241v180.37h-60V360h-60v240l-60 .37v60h60V600h120v360h60v60.37h60v180h240V1320h-60v60h60v-60h214.992v-71zM720 1201.37h24l.365-24H720v24zM264 385h-23.998v-24H264v24zm624.867 599.461h24.091V960.37h-24.091v24.091zM912 1177h24v24h25v-24h-25v-24h-24v24zm-24 24h24v-24h-24v24z" fill="#000"/><path d="M840 1273h24.186l-.186 24h-24v-24z" fill="#000"/></svg>