<svg width="80" height="80" fill="none" xmlns="http://www.w3.org/2000/svg"><path d="M8.62778 48.4889c0 3.05.66944 5.3917 1.54442 6.8083 1.1472 1.8556 2.8584 2.6417 4.6028 2.6417 2.25 0 4.3083-.5583 8.275-6.0444 3.1778-4.3973 6.9222-10.5695 9.4417-14.4389L36.7583 30.9c2.9639-4.5528 6.3945-9.6139 10.3278-13.0444 3.2111-2.8 6.675-4.3556 10.1611-4.3556 5.8528 0 11.4278 3.3917 15.6945 9.7528 4.6694 6.9667 6.9361 15.7417 6.9361 24.7972 0 5.3833-1.0611 9.3389-2.8667 12.4639-1.7444 3.0222-5.1444 6.0417-10.8639 6.0417v-8.6167c4.8972 0 6.1195-4.5 6.1195-9.65 0-7.3389-1.7111-15.4833-5.4806-21.3028-2.675-4.1278-6.1417-6.65-9.9555-6.65-4.125 0-7.4445 3.1111-11.175 8.6584-1.9834 2.9472-4.0195 6.5388-6.3056 10.5916l-2.5167 4.4584c-5.0555 8.9638-6.3361 11.0055-8.8639 14.375-4.4305 5.9-8.2138 8.1361-13.1944 8.1361-5.90833 0-9.64444-2.5584-11.95833-6.4139C.927778 57 0 52.8778 0 48.1806l8.62778.3083Z" fill="#0081FB"/><path d="M6.8028 23.8611C10.7584 17.7639 16.4667 13.5 23.0139 13.5c3.7917 0 7.5611 1.1222 11.4972 4.3361 4.3056 3.5139 8.8945 9.3 14.6195 18.8361l2.0528 3.4223c4.9555 8.2555 7.775 12.5027 9.425 14.5055 2.1222 2.5722 3.6083 3.3389 5.5388 3.3389 4.8973 0 6.1195-4.5 6.1195-9.65l7.6111-.2389c0 5.3833-1.0611 9.3389-2.8667 12.4639-1.7444 3.0222-5.1444 6.0417-10.8639 6.0417-3.5555 0-6.7055-.7723-10.1888-4.0584-2.6778-2.5222-5.8084-7.0027-8.2167-11.0305L40.5778 39.5c-3.5944-6.0055-6.8917-10.4833-8.8-12.5111-2.0528-2.1806-4.6917-4.8139-8.9028-4.8139-3.4083 0-6.3028 2.3917-8.725 6.05l-7.3472-4.3639Z" fill="url(#a)"/><path d="M22.875 22.175c-3.4083 0-6.3028 2.3917-8.725 6.05-3.425 5.1695-5.52222 12.8695-5.52222 20.2639 0 3.05.66944 5.3917 1.54442 6.8083l-7.35553 4.8445C.927778 57 0 52.8778 0 48.1806c0-8.5417 2.34444-17.4445 6.80278-24.3195C10.7583 17.7639 16.4667 13.5 23.0139 13.5l-.1389 8.675Z" fill="url(#b)"/><defs><linearGradient id="a" x1="16.9445" y1="46" x2="71.9445" y2="48.7778" gradientUnits="userSpaceOnUse"><stop stop-color="#0064E1"/><stop offset=".4" stop-color="#0064E1"/><stop offset=".83" stop-color="#0073EE"/><stop offset="1" stop-color="#0082FB"/></linearGradient><linearGradient id="b" x1="12.5" y1="52.1111" x2="12.5" y2="31.8333" gradientUnits="userSpaceOnUse"><stop stop-color="#0082FB"/><stop offset="1" stop-color="#0064E0"/></linearGradient></defs></svg>
