<svg width="80" height="80" fill="none" xmlns="http://www.w3.org/2000/svg"><g clip-path="url(#a)"><path d="M8 4.00001H0V76.73h8V4.00001ZM66 4.00001h-8V76.73h8V4.00001ZM43.6364 18.5454h8v14.5455h-8V18.5454ZM37.0909 47.6364h-8v14.5454h8V47.6364Z" fill="#000"/><path d="M7.27271 62.1818H21.8182v14.5455H7.27271V62.1818ZM65.4546 62.1818H80v14.5455H65.4546V62.1818Z" fill="#EA3326"/><path d="M7.27271 47.6364H21.8182v14.5454H7.27271V47.6364ZM50.9091 47.6364H36.3636v14.5454h14.5455V47.6364ZM80 47.6364H65.4546v14.5454H80V47.6364Z" fill="#EB5829"/><path d="M7.27271 33.0909v14.5455H80V33.0909H7.27271Z" fill="#EE792F"/><path d="M36.3636 18.5454H7.27271v14.5455H36.3636V18.5454ZM80 18.5454H50.9091v14.5455H80V18.5454Z" fill="#F2A73B"/><path d="M7.27271 4.00001H21.8182V18.5455H7.27271V4.00001ZM65.4546 4.00001H80V18.5455H65.4546V4.00001Z" fill="#F7D046"/></g><defs><clipPath id="a"><path fill="#fff" d="M0 0h80v80H0z"/></clipPath></defs></svg>
