<?xml version="1.0" encoding="utf-8"?>
<!-- Generator: Adobe Illustrator 27.7.0, SVG Export Plug-In . SVG Version: 6.00 Build 0)  -->
<svg version="1.1" xmlns="http://www.w3.org/2000/svg" xmlns:xlink="http://www.w3.org/1999/xlink" x="0px" y="0px"
	 viewBox="0 0 2000 2000" style="enable-background:new 0 0 2000 2000;" xml:space="preserve">
<style type="text/css">
	.st0{fill:#3C4750;}
	.st1{fill:#424D57;}
	.st2{fill:#282828;}
	.st3{fill:#494949;}
	.st4{fill:#99C7C9;}
	.st5{opacity:0.3;fill:#091426;enable-background:new    ;}
	.st6{opacity:4.000000e-02;fill:#FFFFFF;enable-background:new    ;}
	.st7{fill:#FFC5AF;}
	.st8{fill:#A34F3E;stroke:#8E4637;stroke-width:3;stroke-miterlimit:10;}
	.st9{opacity:3.000000e-02;fill:#000D26;enable-background:new    ;}
	.st10{fill:#8D5548;}
	.st11{opacity:3.000000e-02;}
	.st12{fill:#D9E9E6;}
	.st13{fill:#C6D9D5;}
	.st14{fill:#894733;}
	.st15{fill:#A34F3E;}
	.st16{fill:#8E4637;}
	.st17{fill:#FFFFFF;}
	.st18{display:none;}
</style>
<g id="Layer_3">
	<circle class="st0" cx="995.9" cy="987.7" r="986.7"/>
	<circle class="st1" cx="995.9" cy="987.7" r="891.4"/>
</g>
<g id="Layer_1">
	<path class="st2" d="M1213.5,1623.6c-9.5-14.5-1.1-23.9,9.8-30.6l-0.5,0.1c53.8-13.5,106.1-32.1,156.4-55.4
		c-90.4,26-136.6,8.7-178.6,10.9c-70.8,3.6-132.4,56.2-205,56.2c-232.2,0-413.7-107-433.6-197.8c-19.5-88.6,25.9-132.3,23.6-157.9
		c-3.6-39.9-41.7-65.3-59.9-203.2s67.1-246.8,205-292.1c137.9-45.4,279.4,74.4,424.6,72.6c145.2-1.8,266.7-148.2,310.3-150.6
		c32.7-1.8,108.9,12.7,130.6,127c21.8,114.3-1.8,264.9,1.8,333.8c0.2,3,1.5,5.9,3.8,7.9c8.5,21.4,41.5,46.8,48.8,108.2
		c2.4,20.2-2.9,45.5-16.2,73c14-28.2,19.6-54.2,17.1-74.8c-8.2-69.1-49-92.5-50.8-116.1c-1.8-23.6,34.5-150.6,30.8-308.4
		s-79.8-234.1-166.9-310.3c-87.1-76.2-250.4-154.2-502.6-150.6C709.7,369.2,419,581.3,368.5,679.4
		c-67.1,130.6-94.3,228.6-34.5,466.3c45.8,181.7,173.9,384.6,446.3,455.4c83.9,21.8,184.6,25.6,295.7,16.3
		c6.5-0.5,13.1-1.2,19.6-1.8c6.8,6.2-6,17.4-17.9,28.5c-33.9,22.1-78.6,68-137.4,112.6c-41.2,31.2-153.6,96.9-255.6,167.6
		c64.3,21.3,131.5,36.3,200.9,44c11.1-14,23.5-29.2,38.3-47.4c34.3-42.1,84.7-99.3,126.1-145.7c-1.1,2.7-1.4,4.7-1.7,6.7l0,0v0.4
		c-0.1,0.8-0.2,1.6-0.3,2.4c-0.5,3.4-1,6.9-1.6,10.6c0,0.5-0.2,1-0.2,1.5c-0.4,2.5-0.8,5.1-1.2,7.7v0.3c-0.4,2.3-0.7,4.7-1.1,7.1
		c-0.1,0.9-0.3,1.8-0.5,2.8c-0.1,0.8-0.3,1.6-0.4,2.4c-0.1,0.7-0.2,1.4-0.4,2.2c-0.3,2-0.7,4-1,6v0.4c-0.1,0.9-0.3,1.8-0.5,2.7
		c0,0.4-0.1,0.7-0.2,1.1c-1.2,6.8-2.4,13.8-3.6,21c0,0.5-0.2,1.1-0.3,1.6c-0.2,1.3-0.5,2.6-0.7,3.9c-0.1,0.8-0.3,1.5-0.4,2.3
		c-0.9,5.2-1.9,10.5-2.9,15.9c-0.5,3-1.1,6-1.7,9.1l-0.8,4.3v0.1c-0.3,1.5-0.6,3-0.8,4.5c-0.1,0.7-0.2,1.3-0.4,1.9v0.1
		c-0.5,2.8-1,5.4-1.6,8.3v0.2v0.2c-0.5,2.5-0.9,5-1.4,7.6l-0.2,1c-0.5,2.5-1,5.1-1.4,7.6v0.2l-0.1,0.5l-0.2,1c0,0.4-0.1,0.8-0.2,1.2
		c-0.6,3.1-1.2,6.2-1.8,9.4c-0.1,0.6-0.2,1.3-0.4,1.8c-1,5.4-2.1,10.9-3.2,16.5l-0.3,1.5c-1.5,7.6-2.9,15.3-4.4,23
		c161.7-2.9,313.9-44.8,447.6-116.6C1339.7,1765.2,1259.4,1647.6,1213.5,1623.6z"/>
	<path class="st3" d="M1298.8,1777.6c17.4,38.9,34.7,83.4,50.8,131.6c13-5,25.9-10.3,38.6-15.8
		C1350.5,1848.8,1318.3,1806.4,1298.8,1777.6z"/>
	<path class="st4" d="M1364.1,1882.2c-14.8-13.5-25.5-22.6-33.8-27.3c6.6,17.5,13,35.6,19.2,54.3c10.1-3.9,20.2-7.9,30.1-12.1
		C1374.8,1892.1,1369.6,1887.1,1364.1,1882.2z"/>
	<path class="st2" d="M1041.5,1825.7v0.4l0,0V1825.7z"/>
	<path class="st2" d="M1045,1804.7v0.4l0,0V1804.7z"/>
	<path class="st2" d="M1048.5,1781.9v0.4l0,0V1781.9z"/>
	<path class="st2" d="M1042.9,1817.4c-0.1,0.7-0.2,1.5-0.4,2.2C1042.7,1818.9,1042.8,1818.2,1042.9,1817.4L1042.9,1817.4z"/>
	<path class="st2" d="M1046.5,1795.4c0,0.5-0.2,1-0.2,1.5l0,0C1046.3,1796.4,1046.4,1795.9,1046.5,1795.4z"/>
	<polygon class="st2" points="1048,1784.8 1048,1784.8 1048,1784.8 	"/>
	<path class="st2" d="M1043.8,1812.1L1043.8,1812.1c-0.1,1-0.3,1.9-0.5,2.9l0,0C1043.5,1814,1043.7,1813,1043.8,1812.1z"/>
	<path class="st2" d="M1027.5,1903v0.4v-0.2V1903z"/>
	<path class="st2" d="M1029.5,1892.7l-0.4,2v-0.1C1029.2,1893.9,1029.3,1893.3,1029.5,1892.7z"/>
	<path class="st2" d="M1041,1828.7c0,0.4-0.1,0.7-0.2,1.1C1040.8,1829.5,1040.9,1829.1,1041,1828.7L1041,1828.7z"/>
	<path class="st2" d="M1024.4,1919.6l-0.1,0.7l0.1-0.5L1024.4,1919.6z"/>
	<path class="st2" d="M1037.1,1850.8c0,0.5-0.2,1.1-0.3,1.6l0,0C1036.9,1851.9,1037,1851.4,1037.1,1850.8z"/>
	<path class="st2" d="M1036.2,1856.4l-0.4,2.3l0,0C1035.9,1857.9,1036,1857.1,1036.2,1856.4z"/>
	<path class="st2" d="M1031.1,1883.7L1031.1,1883.7c-0.3,1.5-0.6,3-0.8,4.5v-0.1L1031.1,1883.7z"/>
	<path class="st2" d="M1032.8,1874.6L1032.8,1874.6z"/>
	<path class="st2" d="M1025.8,1911.9l0.2-1L1025.8,1911.9z"/>
	<path class="st2" d="M1018.3,1951.8l0.3-1.5L1018.3,1951.8z"/>
	<path class="st2" d="M1024.1,1921.2c0,0.4-0.1,0.8-0.2,1.2C1023.9,1922.1,1024,1921.7,1024.1,1921.2L1024.1,1921.2z"/>
	<path class="st2" d="M1022.1,1931.8l-0.4,2l0,0C1021.8,1933.2,1021.9,1932.5,1022.1,1931.8z"/>
	<path class="st5" d="M1196,1711.7c10.4,53.1,20.8,129,30.2,235.6c7.1-1.7,14.2-3.5,21.3-5.4
		C1231.4,1858.7,1212.1,1773.1,1196,1711.7z"/>
	<path class="st5" d="M1258.3,1704c20.3,44,61,131.8,89.3,205.9c14.2-5.4,28.2-11.2,42.1-17.2
		C1348.9,1832.2,1304.2,1756.5,1258.3,1704z"/>
	<path class="st5" d="M1392.7,1531.2l-3.2,1.6L1392.7,1531.2z"/>
	<path class="st5" d="M1383.7,1535.5l-3.2,1.5L1383.7,1535.5z"/>
	<path class="st5" d="M1200.4,1548.5c-70.8,3.6-132.4,56.2-205,56.2c-160.9,0-297.3-51.3-372.6-113.1c-0.7-0.4-1.4-0.8-2-1.3
		c-83.5-56.2-91.2-105.6-105.2-130.6c-20.7-37,1-76.3-23.4-91.4c-57.2-35.4-170.6-360.1-49-557.9c15.2-24.7,53-47.2,74.2-67.9
		c16.3-16.1,15.2-31.3,34.3-45C706.3,486.9,943.2,449,1071.8,492.8c-117.9-39.9-149.8-49.2-126.3-69.2
		c22.4-18.9,242.5-6.8,294.3,25.5c-55.1-41.2-47-74.8-267.7-83.6c-3.4,0-6.9,0-10.3,0.1C709.6,369.2,419,581.3,368.5,679.4
		c-67.1,130.6-94.3,228.6-34.5,466.3c45.8,181.7,173.9,384.6,446.3,455.4c83.9,21.8,184.6,25.6,295.7,16.3
		c104.8-8.7,207.4-35.7,302.9-79.8C1288.7,1563.7,1242.5,1546.4,1200.4,1548.5z"/>
	<path class="st5" d="M1427.1,1513.5c0.4-0.2,0.8-0.4,1.1-0.6l0,0L1427.1,1513.5z"/>
	<path class="st5" d="M1401.5,1526.9l-2.8,1.4L1401.5,1526.9z"/>
	<path class="st5" d="M1420.9,1516.9l-2.2,1.2L1420.9,1516.9z"/>
	<path class="st5" d="M1410,1522.5l-0.3,0.2L1410,1522.5z"/>
	<path class="st5" d="M1048,1784.8c0.1-0.8,0.2-1.6,0.3-2.4C1048.3,1783.2,1048.2,1784,1048,1784.8z"/>
	<path class="st5" d="M1045.8,1799.5c-0.1,0.8-0.3,1.7-0.4,2.5c-0.1,0.8-0.3,1.8-0.4,2.7c0.4-2.6,0.8-5.2,1.2-7.7
		C1046.1,1797.8,1046,1798.6,1045.8,1799.5z"/>
	<path class="st5" d="M1036.3,1855.3c0,0.3-0.1,0.7-0.2,1.1c0.2-1.3,0.5-2.6,0.7-3.9C1036.7,1853.4,1036.5,1854.3,1036.3,1855.3z"/>
	<path class="st5" d="M1035.2,1861.5c-0.2,1.1-0.4,2.3-0.6,3.5c-0.1,0.9-0.3,1.8-0.5,2.6c-0.4,2.3-0.9,4.6-1.3,6.9
		c1-5.4,2-10.7,2.9-15.9C1035.5,1859.6,1035.4,1860.6,1035.2,1861.5z"/>
	<path class="st5" d="M1049.2,1776.3c-0.2,1.3-0.4,2.6-0.5,3.9c0,0.6-0.2,1.1-0.2,1.8c0.3-2,0.6-4,0.8-5.9l0,0
		C1049.3,1776.1,1049.3,1776.2,1049.2,1776.3z"/>
	<path class="st5" d="M1047.7,1787.1c-0.1,0.8-0.2,1.6-0.3,2.4c-0.1,0.8-0.3,1.6-0.4,2.4l-0.4,2.5c0,0.3-0.1,0.6-0.1,1
		c0.6-3.6,1.1-7.2,1.6-10.6C1047.9,1785.6,1047.8,1786.3,1047.7,1787.1z"/>
	<path class="st5" d="M1026,1911c0.5-2.5,1-5.1,1.4-7.6C1027,1906,1026.5,1908.4,1026,1911z"/>
	<path class="st5" d="M1024.4,1919.6c0.5-2.6,1-5.1,1.4-7.6C1025.3,1914.5,1024.9,1917,1024.4,1919.6z"/>
	<path class="st5" d="M1028.7,1897.1c-0.3,1.5-0.5,2.9-0.8,4.4c-0.1,0.5-0.2,1.1-0.3,1.6c0.5-2.8,1.1-5.6,1.6-8.3L1028.7,1897.1z"/>
	<path class="st5" d="M1040.5,1831.8c-0.2,1-0.4,2.1-0.5,3.1c-0.3,1.7-0.6,3.4-0.9,5.1l-0.5,3.1c-0.2,1.1-0.4,2.2-0.6,3.3l-0.5,2.7
		c0,0.6-0.2,1.2-0.3,1.8c1.3-7.3,2.5-14.2,3.6-21L1040.5,1831.8z"/>
	<path class="st5" d="M1041,1828.7c0.2-0.9,0.3-1.8,0.5-2.7C1041.3,1826.9,1041.2,1827.8,1041,1828.7z"/>
	<path class="st5" d="M1031.5,1881.6l-0.4,2.1c0.6-3.1,1.1-6.1,1.7-9.1C1032.4,1876.9,1032,1879.3,1031.5,1881.6z"/>
	<path class="st5" d="M1044.2,1809.4l-0.4,2.6c0.4-2.4,0.8-4.7,1.1-7.1C1044.7,1806.5,1044.5,1808,1044.2,1809.4z"/>
	<path class="st5" d="M1029.9,1890.3l-0.4,2.3c0.3-1.5,0.6-3,0.8-4.5C1030.2,1888.9,1030,1889.6,1029.9,1890.3z"/>
	<path class="st5" d="M1042.9,1817.4c0.1-0.8,0.3-1.6,0.4-2.4C1043.2,1815.8,1043.1,1816.6,1042.9,1817.4z"/>
	<path class="st5" d="M1013.5,1976.5c1.6-8.4,3.2-16.6,4.7-24.7C1016.7,1959.9,1015.1,1968.2,1013.5,1976.5z"/>
	<path class="st5" d="M1021.5,1934.7c-0.4,2-0.7,3.9-1.1,5.9l-0.2,0.8c-0.6,2.9-1.1,5.9-1.7,8.9c1.1-5.6,2.1-11.1,3.2-16.5
		L1021.5,1934.7z"/>
	<path class="st5" d="M1023.1,1926.5c-0.1,0.5-0.2,1-0.3,1.5c-0.2,1.3-0.5,2.5-0.7,3.8c0.6-3.2,1.2-6.3,1.8-9.4L1023.1,1926.5z"/>
	<path class="st5" d="M1024.1,1921.2l0.2-1C1024.2,1920.5,1024.2,1920.9,1024.1,1921.2z"/>
	<path class="st5" d="M1042.4,1820.5c-0.1,0.9-0.3,1.7-0.4,2.6c-0.1,0.9-0.3,1.8-0.5,2.6c0.3-2,0.7-4,1-6
		C1042.5,1819.9,1042.5,1820.2,1042.4,1820.5z"/>
	<path class="st5" d="M1100.8,1718.4c-13,14.5-31.1,34.8-51.5,57.6c-0.3,1.9-0.5,3.9-0.8,5.9v0.4c-0.1,0.8-0.2,1.6-0.3,2.4
		c-0.5,3.4-1,6.9-1.6,10.6c0,0.5-0.2,1-0.2,1.5c-0.4,2.5-0.8,5.1-1.2,7.7v0.3c-0.4,2.3-0.7,4.7-1.1,7.1c-0.1,0.9-0.3,1.8-0.5,2.8
		c-0.1,0.8-0.3,1.6-0.4,2.4c-0.1,0.7-0.2,1.4-0.4,2.2c-0.3,2-0.7,4-1,6v0.4c-0.1,0.9-0.3,1.8-0.5,2.7c0,0.4-0.1,0.7-0.2,1.1
		c-1.2,6.8-2.4,13.8-3.6,21c0,0.5-0.2,1.1-0.3,1.6c-0.2,1.3-0.5,2.6-0.7,3.9c-0.1,0.8-0.3,1.5-0.4,2.3c-0.9,5.2-1.9,10.5-2.9,15.9
		c-0.5,3-1.1,6-1.7,9.1l-0.8,4.3v0.1c-0.3,1.5-0.6,3-0.8,4.5c-0.1,0.7-0.2,1.3-0.4,1.9v0.1c-0.5,2.8-1,5.4-1.6,8.3v0.2v0.2
		c-0.5,2.5-0.9,5-1.4,7.6l-0.2,1c-0.5,2.5-1,5.1-1.4,7.6v0.2l-0.1,0.5l-0.2,1c0,0.4-0.1,0.8-0.2,1.2c-0.6,3.1-1.2,6.2-1.8,9.4
		c-0.1,0.6-0.2,1.3-0.4,1.8c-1,5.4-2.1,10.9-3.2,16.5l-0.3,1.5c-1.5,7.6-2.9,15.3-4.4,23c25-0.5,49.8-1.8,74.4-4.1
		c7.9-101.7,14-194.2,13.5-234.7C1102.2,1735.4,1102.2,1735.3,1100.8,1718.4z"/>
	<path class="st5" d="M696.3,1928.1c12.4-9.1,25.8-19,40.6-30.6c26.2-20.5,100.5-61.6,122.2-86.8c-50.6,32.2-114.3,72-174.4,113.7
		C688.6,1925.6,692.5,1926.8,696.3,1928.1z"/>
	<path class="st5" d="M874.8,1935c-8.1,9.5-16.5,19.1-25.2,28.6c11.9,1.8,23.9,3.3,35.9,4.7c11-13.8,23.1-28.8,37.6-46.6
		c41.3-50.8,106.1-123.4,150.2-172.6c28.8-29.4,28.8-33.6,39.2-58.6C1031.8,1769.7,948.3,1849.1,874.8,1935z"/>
	<path class="st5" d="M1220.5,1627.8c-0.7,0.8-1.4,1.6-2,2.3c-0.5-0.7-1.1-1.4-1.7-2.1c-14.7-17.1-5.6-27.8,6.3-35.2
		c-41.9,10.6-84.5,18.2-127.5,22.8c6.8,6.2-6,17.4-17.9,28.4c-33.9,22.1-78.6,68-137.4,112.6c-22.4,17-66,44.2-117.5,76.9
		c2-0.3,4-0.8,5.9-1.2c48.6-11.3,94-33.1,133.1-64c25.4-20.2,48-44,74.5-62.7c26.5-18.7,58.8-32.2,91-27.8
		c19.7,2.9,39.6,4.5,59.5,4.8c14.3,0,27.8-7.3,41.5-10.1c5.2,5.4,10.9,10.6,15.3,15.5c22.3,23.9,42.8,49.6,63.7,74.7
		c35,41.9,72,84.3,118.7,113c12.1-5.8,24-11.9,35.7-18.3C1345.7,1769.8,1267.4,1659.2,1220.5,1627.8z"/>
	<path class="st6" d="M483.2,1405.5c-11.6-13.3-22.6-27.2-33.1-41.7c-5.2,1-10.3,2.1-15.4,3.4c16.9,23.9,35.5,46.5,55.8,67.7
		c4.8-2.1,9.5-4.1,14.4-6C497.4,1421.4,490.2,1413.6,483.2,1405.5z"/>
	<path class="st6" d="M1648.6,1284.4c-3.1,14.3-8,28.2-14.5,41.4c6.7-13.1,11.7-27,15-41.4L1648.6,1284.4z"/>
	<path class="st6" d="M1309.2,1551c-75.4,27.7-154.2,45.2-234.3,51.9c-37.2,3.1-72.9,4.7-106.2,4.7c-69.9,0-132.1-6.9-184.7-20.6
		c-100.5-26.1-186.9-72.1-257.4-136.9c-4.7,2.2-9.3,4.5-13.9,6.9c67.6,63.3,155.3,114.9,267.6,144.1c55.9,14.5,119.3,21,188.3,21
		c34.5,0,70.4-1.6,107.4-4.7c104.9-8.7,207.5-35.7,303-79.8C1356.3,1544.4,1332.9,1548.9,1309.2,1551z"/>
	<path class="st6" d="M416.4,1339.9c5.2-1,10.4-1.8,15.6-2.6c-38.3-60.1-66.7-126-83.9-195.1c-28.6-113.6-37.9-196.3-30-268.1
		c7.5-68.2,30.7-124.4,63.4-187.9c25.4-49.5,114-126.2,215.5-186.6c73.5-43.7,218.6-117.4,365.1-119.5c5.6,0,11.2-0.1,16.7-0.1
		c109.4,0,209.4,15.7,297.1,46.6c70.3,24.8,132.3,59.5,179.1,100.5c40.2,35.2,82,73.5,112,121.3c32.5,51.6,48.3,108.3,49.9,178.3
		c1.8,81.9-7.1,155.1-15.8,210c-2.3,40.2-4.5,75.3-3.2,99.9c0.2,3,1.5,5.9,3.8,7.9c4.6,11.6,16.3,24.3,27.3,43.2l1.5-0.9
		c-13.7-23.9-28.7-38-29.8-52.1c-1.8-23.6,34.5-150.6,30.8-308.4s-79.8-234.1-166.9-310.3c-85.1-74.5-243.1-150.7-485.7-150.7
		c-5.6,0-11.2,0-16.9,0.1C709.6,369.2,419,581.3,368.5,679.4c-67.1,130.6-94.3,228.6-34.5,466.3
		C351.2,1214.4,379,1279.9,416.4,1339.9z"/>
	<path class="st6" d="M1651.3,1251c-1.7-15.3-5.6-30.3-11.4-44.6l-1.4,0.7c6.1,14.6,10.1,30,11.9,45.7c0.4,3.3,0.6,6.6,0.5,10
		l0.9-0.1C1651.9,1258.7,1651.8,1254.8,1651.3,1251z"/>
	<g id="Mask">
		<path class="st7" d="M1650.4,1252.8c-7.3-61.4-40.3-86.7-48.8-108.2c-2.3-2-3.6-4.9-3.8-7.9c-3.6-68.9,20-219.5-1.8-333.8
			s-98-128.8-130.6-127c-43.5,2.4-165.1,148.8-310.3,150.6s-286.7-117.9-424.6-72.6s-223.2,154.2-205,292.1
			c18.1,137.9,56.2,163.3,59.9,203.2c2.3,25.5-43.1,69.3-23.6,157.9c20,90.7,201.4,197.8,433.6,197.8c72.6,0,134.3-52.6,205-56.2
			c42.1-2.2,88.3,15.2,178.6-10.9c2.6-0.7,5.2-1.5,7.9-2.3c81-38.8,147-86.4,192.7-133.8c24.7-25.6,42.7-51.5,54.5-75.8
			C1647.5,1298.3,1652.8,1273,1650.4,1252.8z"/>
		<path class="st8" d="M1145.7,1266.8c1,16.2,34,14.5,50.7,12.3c16.7-2.2,35.6-14.7,35-20c-0.6-5.3-12.9-22.7-47.2-18.4
			C1149.9,1244.9,1145.7,1266.8,1145.7,1266.8z"/>
	</g>
	<g id="Mask_Shadow">
		<path class="st9" d="M1149.4,1261.4c-3.5,2.7-2.5,7.7,0.9,10.5s8.3,3.9,13,4.8c21.6,4,45.5,5,65-3.6c0.5-0.2,1-0.5,1-0.9
			s-1-0.6-1-0.2c-20.6,15.1-46.1,21.6-73.8,19.2c-8.5-0.7-17.8-2.8-22.5-8.6c-3.8-4.7-3.7-11.5,0.3-16
			C1136.2,1261.9,1142.4,1260.9,1149.4,1261.4z"/>
		<path class="st9" d="M1579.6,1401.6c22.4-23.2,39.4-46.8,51.1-69.1c-164.5,171.4-271.4,182.1-425.8,196.1
			c-159.7,14.5-58.1-7.3-206.8,10.9c-138.2,16.9-313.9-16.3-440.1-155c0.8,7.6,2,15.1,3.6,22.6c20,90.7,201.4,197.8,433.6,197.8
			c72.6,0,134.3-52.6,205-56.2c43.3-2.2,90.9,16.2,186.5-13.2C1467.9,1496.6,1533.9,1449,1579.6,1401.6z"/>
		<path class="st9" d="M1596,802.8c-21.8-114.3-98-128.8-130.6-127c-41.4,2.3-152.9,134.3-288.2,149.2c-9.2,0.4-18.4,0.9-27.6,1.4
			c-143.2-1.2-282.9-117.4-419-72.6c-137.9,45.4-223.2,154.2-205,292.1c18.1,137.9,56.2,163.3,59.9,203.2c0.2,2.1,0.1,4.2-0.3,6.3
			c1.1-6.8,44.7-15.2,50.8-16.5c22.9-4.8,46.2-7.8,69.5-8.8c62.6-3.2,125.5,3.7,186.9,15.9c6.5,1.3,13.1,2.4,19.6,3.2l4.5,1.8
			l7.4,1.7c1.6,0,3.1-0.1,4.7-0.2c-1.2-0.6-2.3-1.3-3.4-1.9c32.4,2.6,64-1.1,92.5-14.7c64.4-18.4,129.7-44.9,189.2-41.3
			c88.9,5.4,88.9,36.3,136.1,25.4c7.5-1.8,15.1-5.6,23.2-10.9c16.3-5.8,30.6-17.3,44-28.7c4.1-3.5,8.3-7.1,12.4-10.7
			c39.1-24.4,92.7-45.8,175.3-33.3C1594.2,1067.7,1617.7,917.1,1596,802.8z"/>
	</g>
	<g id="Front_Whiskers">
		<path class="st2" d="M508.3,1338.1c-76.2-16.3-203.2,25.4-232.2,72.6c-18.1,25.4,0,41.7,20,27.2c20-14.5,119.2-87.1,206.2-76.2
			C516.7,1363.5,517.9,1342.3,508.3,1338.1z"/>
		<path class="st2" d="M522.8,1422.1c-91.9,32.7-177.8,95.6-197.2,146.4c-8.5,20.6,12.1,38.7,30.2,20.6s85.9-101.6,176.6-141.5
			C545.8,1442.7,534.9,1419.7,522.8,1422.1z"/>
	</g>
	<g id="Front_Whiskers_Shadow">
		<path class="st5" d="M503.3,1355.7c-14.1,0.8-28.3,0.1-42.4,0.6c-41.2,1.6-81.3,13.7-116.4,35.1c-14.1,8.6-27.6,18.8-43.1,24.4
			c-6.6,2.4-14.3,3.8-20.5,0.5c-2.2-1.2-3.9-3.1-5-5.3c-17.7,25.2,0.3,41.4,20.2,26.9c19.9-14.5,119.2-87.1,206.2-76.2
			c6.9,0.9,10.9-3.5,11.9-8.8C510.8,1354.6,507.1,1355.6,503.3,1355.7z"/>
		<path class="st5" d="M355.8,1589.1c18.1-18.1,85.9-101.6,176.6-141.5c6.2-2.2,7.1-8.3,5.2-14c-4,5.4-11.1,9.2-17.6,12
			c-22.6,9.8-45.8,18.4-66.2,32.2c-27.3,18.6-47.8,45.5-71,68.9c-11.2,11.4-24.2,22.5-40,25c-4.2,0.7-9.2,0.4-12-2.9
			c-1.5-1.8-2.4-3.9-2.8-6.2c-0.9,2-1.8,3.9-2.5,5.8C317.1,1589.1,337.7,1607.2,355.8,1589.1z"/>
	</g>
	<g id="Back_Whiskers">
		<path class="st2" d="M1823.5,1287.3c-34-26.2-124.4-31.5-171.8-24.6c-0.2,7.3-1.1,14.6-2.7,21.8c60.6-2.5,139.5,19.8,154.6,26.5
			C1819.9,1318.1,1830.8,1307.2,1823.5,1287.3z"/>
		<path class="st2" d="M1787.2,1147.6c-21.1-4.9-104.6,9.1-157.1,39.4c3.6,6.3,6.8,12.7,9.6,19.4c46-23.2,116.6-27.9,143.9-26.2
			C1812.6,1182,1810.8,1153,1787.2,1147.6z"/>
	</g>
	<g id="Back_Whiskers_Shadow">
		<path class="st5" d="M1823.5,1287.3c-0.4-0.3-0.8-0.6-1.2-0.8c-2.3,2.9-5.2,5.3-8.6,6.9c-11.5,5.6-25.1,3.9-37.8,1.8
			c-31-5.3-61.5-12.9-91.4-22.6c-1.4-0.4-2.8-1-4-1.8c-4.3-3.5-2.9-7-0.3-10.5c-1.2,0-2.4,0-3.6,0.2l0,0c-1.7,0-3.4,0.2-5,0.3h-0.9
			l-4.3,0.3h-0.6c-1.6,0.1-3.2,0.3-4.7,0.4h-0.3l-4.2,0.5h-0.6l-4.3,0.6c-0.2,7.3-1.1,14.6-2.7,21.8c1.9-0.1,3.8-0.1,5.7-0.2h0.1
			c1.8,0,3.8,0,5.7,0h0.1c12,0.1,24,0.9,35.9,2.3l0,0c14.1,1.6,28.1,3.9,41.2,6.5l0,0l5.4,1.1l0,0c7.3,1.5,14.2,3.1,20.6,4.7l0,0
			l4.6,1.2h0.3l4.3,1.1h0.3l4,1.1h0.3l3.8,1.1h0.2c2.5,0.7,4.9,1.4,7.1,2.1h0.1l3,1h0.3l2.6,0.9l0.3,0.1l2.3,0.8l0.3,0.1l2,0.7h0.3
			l1.8,0.7h0.1l1.5,0.6C1819.9,1318.1,1830.8,1307.2,1823.5,1287.3z"/>
		<path class="st5" d="M1786.7,1180.2h1.6h0.7l1.6-0.2h0.5l1.8-0.4l0.4-0.1c0.5-0.1,0.9-0.3,1.4-0.4l0.6-0.2
			c0.4-0.1,0.7-0.3,1.1-0.4l0.5-0.2c0.5-0.2,0.9-0.4,1.3-0.6l0.2-0.1c0.4-0.3,0.9-0.5,1.3-0.8l0.3-0.3c0.3-0.2,0.6-0.4,0.8-0.7
			l0.4-0.3c0.3-0.2,0.5-0.5,0.7-0.7l0.3-0.3c0.3-0.3,0.6-0.7,0.8-1.1l0.1-0.2c0.2-0.3,0.4-0.6,0.6-0.9c0.1-0.1,0.1-0.3,0.2-0.4
			c0.1-0.3,0.3-0.5,0.4-0.8l0.2-0.4c0.1-0.3,0.2-0.6,0.3-1s0-0.2,0-0.3c0.1-0.4,0.2-0.8,0.3-1.3c0-0.1,0-0.3,0-0.4
			c0-0.3,0-0.6,0-0.9c0-0.2,0-0.3,0-0.5c0-0.3,0-0.6,0-0.9s0-0.3,0-0.5s0-0.8-0.2-1.3v-0.3c0-0.4-0.2-0.7-0.3-1.1
			c-0.1-0.4,0-0.3-0.1-0.5c-0.1-0.2-0.2-0.6-0.3-0.8c-0.1-0.2-0.1-0.3-0.2-0.5c-0.1-0.3-0.2-0.6-0.4-0.9c0-0.1-0.1-0.3-0.2-0.4
			c-0.1-0.1-0.4-0.8-0.7-1.2c0-0.1-0.2-0.3-0.3-0.4l-0.6-0.9l-0.4-0.5l-0.6-0.8c-0.1-0.1-0.2-0.3-0.4-0.4c-0.1-0.1-0.6-0.6-0.9-0.9
			l-0.2-0.3c-3.9,3.8-8.2,7.1-12.9,9.7c-11.3,6.4-24.1,9.6-36.8,12c-26.5,5-53.4,7-80.4,6c-2.3,0-4.6-0.4-6.8-1.1
			c-2.8-1.3-4.9-3.6-5.8-6.5l0,0c-2,0.8-3.9,1.7-5.8,2.5l-2.1,0.9c-1.2,0.5-2.4,1.1-3.6,1.7l-2.4,1.2l-3.1,1.5l-2.6,1.3l-2.8,1.5
			l-2.6,1.5l-1.5,0.9c3.6,6.2,6.8,12.7,9.5,19.4l0,0c1.1-0.6,2.2-1.1,3.3-1.6l1.2-0.6c1-0.5,2.1-0.9,3.2-1.4l1.5-0.7
			c1-0.4,2.1-0.9,3.1-1.3l1.7-0.7c1-0.4,2.1-0.8,3.1-1.2l1.8-0.7l3.1-1.1l1.8-0.6l3.2-1l1.8-0.6l3.2-1l1.9-0.6l3.2-0.9l1.9-0.5
			l3.5-1l1.8-0.5l3.3-0.8l1.8-0.4c1.1-0.3,2.2-0.5,3.4-0.8l1.8-0.4l3.5-0.7l1.7-0.3l3.6-0.7l1.3-0.2c1.3-0.2,2.6-0.5,4-0.7h0.3
			c4.7-0.8,9.4-1.5,13.9-2.1l1-0.1l3.3-0.4l1.8-0.2l3-0.3l2-0.2l2.8-0.3l2.1-0.2l2.7-0.3l2.1-0.2l2.5-0.2l2.2-0.1
			c0.8-0.1,1.6-0.1,2.4-0.2l2.1-0.1l2.2-0.1l2.1-0.1h2.1h2.1h2h2.1h1.8h7.3h2h1.3h2h1l2.8,0.1c0.8,0,1.6,0,2.4,0L1786.7,1180.2z"/>
	</g>
	<g id="Back_Ear">
		<path class="st2" d="M1101.6,372.8c45.4,12.7,119.7,76.2,145.2,81.6c25.4,5.4,28.4-8.5,28.4-8.5c49,5.4,143.9,59.3,169.3,82.9
			c12.7,14.5,27.2,25.4,27.2-3.6c0-29,10.9-248.6-49-299.4C1351.1,165.1,1139.7,307.5,1101.6,372.8z"/>
	</g>
	<g id="Back_Ear_Shadow">
		<path class="st5" d="M1265.9,452.2c-3.8,0.2-7.6,0.1-11.3-0.4c-20.1-3.2-34-22-42-40.8c-18.6-44-8.2-104.2,14.4-145.9
			c-57.7,34.8-108.5,78.8-125.4,107.8c45.4,12.7,119.7,76.2,145.2,81.6C1255.1,456.3,1261.4,454.9,1265.9,452.2z"/>
		<path class="st5" d="M1286.3,454.5c-3.3-0.4-5.6-3.5-5.1-6.7c0.1-1.1,0.6-2.1,1.3-3c15.5-18.8,36.5-68.7,43.5-85.9
			c8.5-20.6,36.3-85.9,48.4-95.5c12.1-9.7,24.2-12.1,31.5-10.9c7.3,1.2,16.9,13.3,21.8,33.9c4.8,20.6,19.3,127,20.6,148.8
			c1.2,21.8,13.3,67.7,6,71.4c-7.3,3.6-30.5-17.7-47.2-26.6c-15.7-8.5-59.3-25.4-83.5-27.8C1311.8,450.8,1296.2,455.8,1286.3,454.5z
			"/>
	</g>
	<g id="Mouth">
		<path class="st10" d="M999.3,1338.7c-3.7,2.9-7.8,5.2-12.1,6.9c-4.3,1.8-8.8,3.1-13.4,4c-4.6,0.9-9.2,1.4-13.8,1.5
			c-4.7,0.1-9.3-0.4-13.9-1.5c4.6-1.1,9.1-1.9,13.5-2.8l13.2-2.5c4.4-0.9,8.8-1.8,13.2-2.7S994.7,1339.6,999.3,1338.7z"/>
		<path class="st10" d="M983.6,1343.2c14.4,11.3,30.1,20.7,46.7,28.2c16.6,7.6,33.9,13.6,51.7,17.9c17.7,4.3,35.9,6.9,54.1,7.8
			c18.2,0.7,36.4-0.4,54.4-3.3c18-2.9,35.7-7.8,52.6-14.5c17.1-6.6,33.5-14.9,49-24.6c3.9-2.4,7.7-5,11.5-7.6c1.9-1.2,3.8-2.6,5.6-4
			l5.4-4.1c7.3-5.4,14.5-11.4,21.2-17.5c3.4-3.1,6.7-6.3,10-9.5l4.8-5l2.4-2.5l2.3-2.6c1.5-1.8,3-3.5,4.5-5.2l4.2-5.4
			c1.4-1.8,2.6-3.6,4-5.6c0.7-0.9,1.3-1.9,1.8-2.9l1.7-2.9l3,1.4c-4.1,8.6-9.2,16.6-15.3,23.9l-2.2,2.8l-2.3,2.7l-4.6,5.4
			c-3.2,3.4-6.4,6.9-9.7,10.2c-6.7,6.6-13.7,12.9-21,18.9l-5.6,4.4c-1.8,1.5-3.6,2.9-5.6,4.3c-3.8,2.7-7.6,5.6-11.5,8.1l-11.9,7.6
			l-12.3,6.9c-2,1.2-4.2,2.2-6.3,3.2l-6.4,3.1c-4.2,2.2-8.6,3.9-13,5.7c-17.5,7.3-35.8,12.6-54.6,15.7c-18.7,3.2-37.7,4.4-56.7,3.6
			c-18.9-1-37.7-3.8-56.1-8.5c-18.4-4.7-36.2-11.2-53.2-19.5c-17.1-8.3-33-18.7-47.4-31.1L983.6,1343.2z"/>
		<path class="st11" d="M982.1,1344.9c4.5,1.8,8.5,4.1,13,5.6l6.4,2.6c2.1,0.8,4.3,1.6,6.5,2.4c2.1,0.8,4.3,1.6,6.4,2.4l6.5,2.1
			c4.2,1.5,8.6,2.7,12.9,4c17,4.9,34.2,8.7,51.7,11.2l6.4,1l6.5,0.6c2.2,0.2,4.3,0.5,6.4,0.7c2.1,0.3,4.3,0.3,6.4,0.5l6.4,0.4
			l3.2,0.2h3.2c4.3,0,8.5,0.3,12.8,0.3c4.3,0,8.5-0.2,12.7-0.3c2.1,0,4.2-0.3,6.3-0.4l6.3-0.5c4.2-0.1,8.4-0.8,12.6-1.3l6.3-0.8
			c2.1-0.2,4.2-0.8,6.2-1.1c4.1-0.7,8.3-1.3,12.4-2.2s8.1-2.1,12.2-3c2.1-0.4,4.1-1,6.1-1.6l6.1-1.8c2-0.6,4.1-1.1,6.1-1.8
			c2-0.7,4-1.4,6-2.1c16.3-5.6,32.2-12.4,47.5-20.4c15.8-8.1,31-17.2,45.7-27.2c3.8-2.5,7.3-5.2,11.1-7.8l5.4-4.1l2.7-2.1l2.7-2.1
			l5.4-4.3l5.2-4.5c1.8-1.5,3.4-3.1,5.1-4.7c0.9-0.8,1.6-1.7,2.4-2.5l2.4-2.6l2.5,1.1l-1.6,3.2c-0.6,1.1-1.1,2.1-1.8,3.1
			c-1.3,2-2.4,4-3.8,6l-4.1,5.7c-1.4,1.8-2.9,3.6-4.4,5.4l-2.2,2.7l-2.3,2.6l-4.7,5.3c-3.3,3.3-6.5,6.8-9.8,10
			c-13.5,13-28.2,24.7-43.9,35c-15.7,10.3-32.4,19-49.8,26c-17.4,7.2-35.5,12.3-54.1,15.5c-18.6,3-37.4,4.1-56.1,3.2
			c-18.7-1-37.3-3.8-55.5-8.4c-18.2-4.6-35.9-11-52.8-19.1c-16.9-8.1-32.8-18.4-47.2-30.4L982.1,1344.9z"/>
		<path class="st11" d="M982.7,1344.2c14.2,11.7,29.9,21.6,46.5,29.4c16.7,7.9,34.1,14.2,52,18.7c17.9,4.5,36.2,7.2,54.7,8.1
			c18.4,0.8,36.9-0.4,55.1-3.4c18.2-3,36-8,53.1-15c17.1-6.8,33.5-15.3,49-25.4c15.5-10.1,30-21.5,43.5-34.2
			c3.4-3.2,6.5-6.5,9.8-9.8l4.6-5.1l2.3-2.6l2.2-2.7c1.5-1.8,3-3.6,4.4-5.3l4.1-5.4c1.4-1.8,2.5-3.8,3.7-5.7
			c0.6-0.9,1.2-1.9,1.7-2.9l1.6-3l4.1,1.8l-1.3,3.4c-0.4,1.2-0.9,2.3-1.4,3.4c-1.1,2.1-2.1,4.4-3.3,6.5l-3.6,6.2c-1.3,2-2.6,4-4,6
			l-2,3l-2.2,2.9l-4.3,5.8c-3,3.6-6.1,7.4-9.3,10.9c-6.5,7.1-13.2,13.9-20.3,20.4l-5.4,4.7c-1.8,1.6-3.6,3.2-5.6,4.6
			c-3.8,2.9-7.5,6-11.4,8.9l-11.9,8.4c-4.1,2.6-8.3,5.1-12.4,7.7c-2.1,1.3-4.2,2.4-6.4,3.6l-6.5,3.5c-4.3,2.4-8.8,4.3-13.3,6.3
			c-18,8.2-36.9,14.2-56.2,17.9l-3.6,0.7c-1.2,0.3-2.4,0.5-3.6,0.6l-7.4,0.9c-4.9,0.7-9.8,1.4-14.8,1.6l-7.4,0.5
			c-2.5,0.1-5,0.4-7.4,0.3h-14.9c-4.9-0.2-9.9-0.6-14.8-0.9l-3.6-0.3l-3.6-0.5l-7.4-1c-2.4-0.4-4.9-0.6-7.3-1.1l-7.3-1.4l-7.3-1.4
			c-2.4-0.6-4.8-1.3-7.3-1.8c-19.2-4.9-37.5-12.8-54.3-23.3c-4.2-2.6-8.2-5.5-12.1-8.5c-4-3-7.7-6.2-11.3-9.6
			c-1.8-1.8-3.6-3.3-5.3-5.2c-1.7-1.9-3.3-3.6-4.9-5.6c-0.8-0.9-1.6-1.8-2.4-2.8c-0.8-1-1.5-2-2.2-3c-1.4-2.1-2.8-4.1-4.1-6.2
			L982.7,1344.2z"/>
		<path class="st10" d="M1348.9,1280c4.8,0.5,9.6,0.4,14.4-0.2c4.7-0.5,9.5-1.1,14.3-1.6c4.8-0.5,9.7-1,14.5-1.2
			c5-0.3,9.9,0.1,14.8,1.2l-14.3,3.1c-4.8,0.9-9.6,1.8-14.5,2.3c-4.9,0.6-9.9,0.7-14.9,0.4C1358.2,1283.9,1353.3,1282.5,1348.9,1280
			z"/>
	</g>
	<g id="Front_Ear">
		<path class="st2" d="M364.9,713.9c-18.1-185.1,105.2-450,250.4-479c56.2-11.2,194.1,137.9,219.5,197.8
			c10.9,25.4-36.3,9.1-94.3,25.4c-58.1,16.3-156,87.1-159.7,103.4s10.9,83.5-3.6,101.6c-14.5,18.1-85.3,8.5-125.8,12.7
			C412,679.9,392.1,694,364.9,713.9z"/>
	</g>
	<g id="Front_Ear_Shadow">
		<path class="st5" d="M457.8,496.1c-8.6-42.3-7.6-85.9-1.5-128.7c-63.4,100-102.1,237.2-91.4,346.5c27.2-20,47.1-34,86.5-38.1
			c7.9-0.8,17.1-1.1,26.7-1.2c5.2-6,10.2-12.1,14.9-18.4c9.9-13.3,23.6-23.3,37.3-30.7C491.9,593,467.9,545.5,457.8,496.1z"/>
		<path class="st5" d="M835.8,441.9c-5.9,1.2-12.9-1.7-18.8-4.4c-14.8-6.9-30.4-11.8-46.5-14.5c-2.6-0.2-5-1-7.3-2.3
			c-1.8-1.5-3.3-3.4-4.3-5.4c-24-40.4-54.1-77-89.1-108.5c-16.7-15-37.7-29.7-59.9-25.5c-18.8,3.5-32.5,20-41.2,36.9
			c-11,21.4-16.7,45.1-21.4,68.7c-12.1,59.9-18.8,120.7-20.1,181.8c-0.1,5.6-0.2,11.3,1.7,16.7s5.9,10.2,11.3,11.4
			c14.7,3.4,29.7-9.7,40.2-19.4c-0.5-5.3-0.4-10.5,0.3-15.8c3.6-16.3,101.6-87.1,159.7-103.4C789.4,444.3,830.5,453.7,835.8,441.9z"
			/>
	</g>
	<g id="Eyes">
		<path class="st12" d="M908.7,1242.7c25.7,1,58.7,9.6,74.5,16c38.1-25,58.2-112.8,40.3-199.4c-4-19.3-11.3-37.7-21.6-54.5
			c-41.9-68.4-125.4-96.3-163.5-43.5c-27.3,37.9-29.9,90.7,0,171.8c12.1,32.8,27.2,60.2,44.6,81.4
			C891,1224.4,899.6,1233.9,908.7,1242.7z"/>
		<path class="st13" d="M837.5,1133.4c-6.5-17.1-11.9-34.5-16.2-52.3c-4.3-17.8-6.3-36.2-5.8-54.5c0.4-18.5,4.9-36.7,13.4-53.2
			c1.1-2,2.2-4.1,3.4-6.1l3.8-5.8c0.6-1,1.3-1.9,2.1-2.8l2.1-2.8c1.5-1.8,3.1-3.5,4.8-5.2c6.7-6.6,14.8-11.7,23.6-14.9
			c8.9-3,18.2-4.3,27.6-3.9c9.3,0.5,18.4,2.3,27.2,5.3c17.5,6.1,33.5,15.6,47.3,28c13.8,12.2,25.5,26.6,34.7,42.5
			c9.1,16,15.5,33.3,19.1,51.3l-2,0.4c-6.9-16.5-15.7-32.1-26.5-46.3c-10.2-13.6-22.3-25.7-35.8-36l-5-3.6c-1.7-1.2-3.4-2.3-5.2-3.4
			l-5.2-3.2l-5.3-3c-7-3.7-14.4-6.7-22-8.9c-7.1-2.1-14.5-3.3-22-3.4c-6.8-0.2-13.7,0.9-20.2,3.1c-6.2,2.2-11.8,5.7-16.6,10.2
			c-1.2,1.2-2.4,2.4-3.6,3.6l-1.7,2l-0.8,1c-0.3,0.3-0.5,0.8-0.8,1.2l-3.3,4.7l-3,4.9c-1,1.6-1.9,3.3-2.7,5.1
			c-0.9,1.7-1.8,3.4-2.5,5.2l-2.2,5.4l-1.8,5.6c-0.6,1.9-1.2,3.8-1.6,5.8c-0.5,1.9-1.1,3.8-1.4,5.9l-1.1,6c-0.4,2-0.5,4.1-0.8,6.1
			c-2,16.5-1.3,33.9,0.4,51.6c1.7,17.7,4.8,35.6,7.5,53.9L837.5,1133.4z"/>
		<path class="st10" d="M883.1,1214.4c-13.1-14.8-24.3-31.2-33.2-48.8c-4.6-8.8-8.7-17.8-12.4-26.9c-1.9-4.6-3.6-9.2-5.3-13.8
			c-1.7-4.6-3.3-9.3-4.9-14c-0.8-2.4-1.6-4.7-2.3-7.1l-2.1-7.1c-1.5-4.7-2.6-9.6-3.8-14.4c-1.2-4.8-2.1-9.7-3-14.6
			c-0.5-2.4-0.8-4.9-1.2-7.4c-0.4-2.5-0.8-5-1-7.4l-0.7-7.5c0-1.2-0.2-2.5-0.3-3.7v-3.8c0-2.5-0.1-5-0.1-7.5l0.3-7.6
			c0.6-10.2,2.3-20.2,5.1-30c3-9.8,7.3-19.1,12.7-27.8c5.3-8.9,12.5-16.7,20.9-22.8c4.3-3,9-5.4,13.9-7.3c2.4-1,4.9-1.8,7.4-2.4
			c1.3-0.3,2.5-0.6,3.8-0.9l1.8-0.4l1.9-0.3l3.8-0.5l3.9-0.2l1.9-0.1h1.9h3.8c5.1,0.3,10.2,1,15.2,2.1c9.9,2.2,19.4,5.7,28.4,10.4
			c8.8,4.7,17.2,10.2,24.9,16.6c15.2,12.7,28,28.2,37.5,45.6c-11-16.2-24.6-30.4-40.3-42.1c-7.7-5.8-16-10.7-24.8-14.8
			c-4.3-2-8.8-3.8-13.3-5.3c-4.5-1.5-9.1-2.6-13.8-3.5c-4.6-0.9-9.3-1.3-14-1.5h-3.5h-1.8l-1.8,0.1l-3.5,0.3l-3.4,0.6l-1.5,0.3
			l-1.7,0.4c-1.1,0.3-2.2,0.5-3.4,0.8c-2.2,0.7-4.4,1.5-6.6,2.4c-4.2,1.7-8.2,4-12,6.7c-1.8,1.4-3.6,2.8-5.3,4.4
			c-0.8,0.8-1.8,1.5-2.5,2.3l-2.3,2.5c-0.8,0.8-1.5,1.7-2.2,2.6l-2.1,2.7l-3.9,5.9c-4.9,8-8.8,16.7-11.5,25.7
			c-2.7,9.1-4.4,18.5-5,27.9l-0.3,7.1c0,2.4,0,4.8,0,7.3v3.6c0,1.2,0.2,2.4,0.2,3.6l0.5,7.3c2.1,19.3,6,38.3,11.6,56.8
			c5.4,18.7,12.1,37.1,20,54.9C861.7,1181.8,871.5,1198.7,883.1,1214.4z"/>
		<path class="st12" d="M1403.4,1180.8c11.9-14.1,22.7-32.8,31.5-54.3c29.2-70.9,38.9-172-6.8-221.2c-35.7-38.4-86.1,1.5-108.6,57.8
			c-7,17.5-12.5,35.5-16.6,53.8c-12.7,59-4.1,164.7,18.1,186.9c14.4,14.4,33.9,9.9,48.2,3.2
			C1379.8,1197.2,1391.2,1188.4,1403.4,1180.8z"/>
		<path class="st13" d="M1434,1126.2c2.4-16,5.2-31.4,6.6-46.9s2.9-30.7,3.1-45.9c0.4-14.9-0.2-29.8-1.8-44.6
			c-0.8-7.2-2-14.3-3.5-21.3c-1.4-6.8-3.4-13.5-5.8-20.1c-2.2-6.3-5.1-12.4-8.5-18.1l-2.6-4.2l-2.8-4l-3-3.7c-1-1.1-1.8-2.2-2.9-3.2
			c-1.8-1.8-3.8-3.5-6-4.9c-2-1.2-4.2-2.2-6.4-2.9c-2.4-0.6-4.8-0.9-7.3-1c-2.8,0.1-5.5,0.4-8.2,1.1c-3,0.8-5.9,1.9-8.8,3.2
			c-3,1.4-6,3.1-8.9,4.9c-6.1,3.9-11.8,8.4-17,13.3c-11,10.1-20.6,22.3-29.9,35.5l-1.8-0.7c5.7-14.9,13.6-28.9,23.4-41.5
			c4.9-6.3,10.6-12.1,16.7-17.2c6.2-5.2,13.2-9.4,20.7-12.3c3.8-1.4,7.8-2.4,11.9-2.9c4.1-0.4,8.3-0.3,12.3,0.4
			c4.1,0.8,8,2.1,11.7,4c3.6,2,7,4.3,10.1,7c12,11,20.3,25.4,25.9,40.3c2.7,7.5,4.9,15.3,6.4,23.1c1.5,7.8,2.5,15.8,3.1,23.7
			c0.6,8,0.8,15.9,0.5,23.9c-0.2,7.9-0.7,15.9-1.6,23.8c-0.9,7.9-2,15.8-3.4,23.6c-1.5,7.8-3.1,15.6-5.1,23.3
			c-4,15.4-9.1,30.4-15.3,45.1L1434,1126.2z"/>
		<path class="st10" d="M1434.9,1126.6c10.2-29.8,16.8-60.7,19.6-92.1c1.4-15.5,1.4-31.1,0.1-46.7c-0.7-7.7-1.7-15.4-3.2-23
			c-1.5-7.5-3.6-14.9-6.3-22.1c-2.6-7.2-5.9-14-9.8-20.6l-3.1-4.7l-3.4-4.5l-3.6-4.3c-1.3-1.3-2.5-2.7-3.9-3.9
			c-2.7-2.4-5.6-4.6-8.7-6.4c-3.1-1.7-6.5-2.9-10-3.6c-3.5-0.7-7.1-0.8-10.7-0.5c-3.6,0.4-7.2,1.2-10.7,2.3
			c-7.1,2.6-13.7,6.3-19.7,11c-6.1,4.7-11.7,10.1-16.7,16c-10.2,12-18.8,25.3-25.4,39.6c5-15.2,12.4-29.5,21.9-42.4
			c4.8-6.5,10.3-12.5,16.4-17.8c6.2-5.5,13.3-9.9,21-13.1c4-1.5,8.1-2.6,12.3-3.3c8.7-1.1,17.6,0.4,25.4,4.4c3.8,2,7.4,4.4,10.6,7.3
			c1.6,1.4,3.1,2.9,4.6,4.4l4.1,4.7l3.8,4.9c1.2,1.7,2.3,3.4,3.4,5.2c4.3,7,7.9,14.4,10.8,22.1c5.4,15.3,8.6,31.3,9.5,47.6
			c0.5,8,0.6,16.1,0.3,24.1c-0.1,4-0.4,8-0.7,12c-0.3,4-0.7,8-1.3,11.9c-2,15.8-5.2,31.5-9.7,46.8
			C1447.5,1097.3,1441.8,1112.2,1434.9,1126.6z"/>
		<path class="st14" d="M1348.3,1230.1c6.3-9.9,13.8-19.1,22.4-27.2c8.5-8.2,17.7-15.6,27.6-22.1c2.4-1.7,5-3.1,7.6-4.6
			c1.3-0.7,2.6-1.5,3.8-2.2l4-2l4-2c1.3-0.6,2.7-1.2,4.1-1.8c2.7-1.2,5.4-2.3,8.2-3.3c11-4.1,22.7-6.3,34.5-6.7
			c-11.3,2.4-22.4,6-33,10.6c-2.7,1.1-5.2,2.4-7.8,3.6c-1.3,0.6-2.6,1.2-3.9,1.8l-3.8,2.1l-3.8,2.1c-1.3,0.7-2.5,1.5-3.6,2.2
			c-2.5,1.5-4.9,2.9-7.3,4.6c-4.9,3.1-9.5,6.4-14.2,9.9c-4.6,3.4-9.1,7.1-13.5,10.8C1364.7,1213.5,1356.3,1221.6,1348.3,1230.1z"/>
		<path class="st15" d="M1333.8,1205.6h-1.2c-23.3-1.5-40.1-47-36.7-99.4c3.3-51.7,24.8-93.9,48-93.9c0.4,0,0.8,0,1.2,0
			c10.7,0.7,20.8,11.2,27.7,28.9c7.5,19.1,10.7,44.1,9.1,70.4C1378.4,1163.6,1356.9,1205.6,1333.8,1205.6z"/>
		<path class="st16" d="M1343.8,1007.9v9.1h0.9c18.1,1.2,36,40.3,32.5,94.5c-1.6,25.2-7.6,48.6-16.9,65.9
			c-8.1,15.1-17.8,23.7-26.6,23.7h-0.9c-18.1-1.2-36-40.3-32.5-94.5c1.6-25.2,7.6-48.6,16.9-65.9c8.1-15.1,17.8-23.7,26.6-23.7
			V1007.9 M1343.8,1007.9c-25.7,0-49,43.3-52.5,98.1c-3.6,55.8,14.8,102.5,41,104.2h1.5c25.7,0,49-43.3,52.5-98.1
			c3.6-55.8-14.8-102.5-41-104.2C1344.8,1007.9,1344.3,1007.9,1343.8,1007.9L1343.8,1007.9z"/>
		<path class="st15" d="M937.7,1237.2c-30.6,0-60.7-40.8-68.7-92.8c-8.5-55.9,10.7-105.3,42.8-110.2c1.7-0.3,3.4-0.4,5.1-0.4
			c30.5,0,60.7,40.8,68.6,92.8c8.5,55.9-10.7,105.2-42.8,110.2C941.1,1237.1,939.4,1237.2,937.7,1237.2z"/>
		<path class="st16" d="M917,1029.2v9.1c13,0,26.7,8.5,38.4,24.1c12.7,16.7,21.9,39.8,25.7,64.9c4.1,26.7,1.8,52.6-6.4,72.9
			c-7.6,18.7-19.1,30.2-32.7,32.2c-1.5,0.2-2.9,0.3-4.4,0.3c-13,0-26.7-8.5-38.5-24.1c-12.7-16.7-21.8-39.8-25.7-64.9
			c-8-52.5,9.9-100.6,39-105.1c1.5-0.2,3-0.3,4.4-0.3L917,1029.2 M917,1029.2c-1.9,0-3.9,0.1-5.8,0.5c-34.6,5.4-55.5,57-46.6,115.4
			c8.4,55.2,40.4,96.7,73.1,96.7c1.9,0,3.9-0.2,5.8-0.5c34.7-5.3,55.5-57,46.6-115.4C981.7,1070.7,949.7,1029.2,917,1029.2
			L917,1029.2z"/>
		<path class="st14" d="M990,1261.9c-4.2-1.6-8.6-3-13-4.1c-4.4-1.2-8.8-2.2-13.2-3.3c-4.4-1.1-8.8-2.1-13.2-2.9
			c-4.4-0.9-8.8-1.8-13.3-2.6c-4.4-0.8-8.9-1.6-13.3-2.3c-4.4-0.7-8.9-1.2-13.4-1.7c-4.5-0.5-8.9-0.7-13.4-0.7
			c-4.5-0.1-9,0.4-13.4,1.3c4.2-2.1,8.6-3.4,13.2-4c4.6-0.6,9.2-0.9,13.9-0.9c4.6,0,9.2,0.4,13.8,0.8c4.6,0.5,9.1,1.2,13.6,2
			c9,1.7,17.9,4,26.6,6.9c4.4,1.4,8.7,3,12.9,4.8C982.1,1257,986.2,1259.2,990,1261.9z"/>
		
			<ellipse transform="matrix(0.977 -0.2134 0.2134 0.977 -202.6308 223.8887)" class="st17" cx="935.9" cy="1050.7" rx="15.1" ry="37.5"/>
		
			<ellipse transform="matrix(0.9999 -1.588183e-02 1.588183e-02 0.9999 -16.1354 21.7339)" class="st17" cx="1360.3" cy="1026.8" rx="15.1" ry="37.5"/>
	</g>
</g>
<g id="Layer_2">
	<g id="fXbCNB.tif" class="st18">
		
			<image style="display:inline;overflow:visible;" width="80" height="80" id="Layer_0_00000079468380088678890560000000015110781019006882_" xlink:href="4D6B6361E2B01B74.png"  transform="matrix(24.5189 0 0 24.5189 5.2296 19.2432)">
		</image>
	</g>
</g>
</svg>
