<svg fill="none" height="563" viewBox="0 0 543 563" width="543" xmlns="http://www.w3.org/2000/svg"><path d="m0 0h20.0939v20.0939h-20.0939z" fill="#fafbfc" transform="matrix(1 -.00000009 -.00000009 -1 .536621 50.2349)"/><path d="m0 0h20.0939v20.0939h-20.0939z" fill="#f3f4f6" transform="matrix(1 -.00000009 -.00000009 -1 .536621 110.517)"/><path d="m0 0h20.0939v20.0939h-20.0939z" fill="#fafbfc" transform="matrix(1 -.00000009 -.00000009 -1 90.959 502.348)"/><path d="m0 0h20.0939v20.0939h-20.0939z" fill="#fafbfc" transform="matrix(1 -.00000009 -.00000009 -1 90.959 50.2347)"/><path d="m0 0h20.0939v20.0939h-20.0939z" fill="#fafbfc" transform="matrix(1 -.00000009 -.00000009 -1 90.959 110.517)"/><path d="m0 0h20.0939v20.0939h-20.0939z" fill="#fafbfc" transform="matrix(1 -.00000009 -.00000009 -1 30.6772 442.067)"/><path d="m0 0h20.0939v20.0939h-20.0939z" fill="#fafbfc" transform="matrix(1 -.00000009 -.00000009 -1 30.6772 110.517)"/><path d="m0 0h20.0939v20.0939h-20.0939z" fill="#fafbfc" transform="matrix(1 -.00000009 -.00000009 -1 30.6772 472.208)"/><path d="m0 0h20.0939v20.0939h-20.0939z" fill="#fafbfc" transform="matrix(1 -.00000009 -.00000009 -1 121.1 80.3758)"/><path d="m0 0h20.0939v20.0939h-20.0939z" fill="#fafbfc" transform="matrix(1 -.00000009 -.00000009 -1 60.8184 80.3758)"/><path d="m0 0h20.0939v20.0939h-20.0939z" fill="#f1f2f2" transform="matrix(1 -.00000009 -.00000009 -1 60.8184 140.658)"/><g fill="#fafbfc"><path d="m0 0h20.0939v20.0939h-20.0939z" transform="matrix(1 -.00000009 -.00000009 -1 60.8184 502.348)"/><path d="m0 0h20.0939v20.0939h-20.0939z" transform="matrix(1 -.00000009 -.00000009 -1 60.8184 110.517)"/><path d="m0 0h20.0939v20.0939h-20.0939z" transform="matrix(1 -.00000009 -.00000009 -1 151.241 80.3758)"/><path d="m0 0h20.0939v20.0939h-20.0939z" transform="matrix(1 -.00000009 -.00000009 -1 151.241 20.0939)"/><path d="m0 0h20.0939v20.0939h-20.0939z" transform="matrix(1 -.00000009 -.00000009 -1 181.382 80.3759)"/><path d="m0 0h20.0939v20.0939h-20.0939z" transform="matrix(1 -.00000009 -.00000009 -1 362.228 442.067)"/><path d="m0 0h20.0939v20.0939h-20.0939z" transform="matrix(1 -.00000009 -.00000009 -1 362.228 381.785)"/><path d="m0 0h20.0939v20.0939h-20.0939z" transform="matrix(1 -.00000009 -.00000009 -1 362.228 502.348)"/><path d="m0 0h20.0939v20.0939h-20.0939z" transform="matrix(1 -.00000009 -.00000009 -1 362.228 411.926)"/><path d="m0 0h20.0939v20.0939h-20.0939z" transform="matrix(1 -.00000009 -.00000009 -1 362.228 472.208)"/><path d="m0 0h20.0939v20.0939h-20.0939z" transform="matrix(1 -.00000009 -.00000009 -1 271.804 80.3759)"/><path d="m0 0h20.0939v20.0939h-20.0939z" transform="matrix(1 -.00000009 -.00000009 -1 271.805 381.785)"/><path d="m0 0h20.0939v20.0939h-20.0939z" transform="matrix(1 -.00000009 -.00000009 -1 271.805 411.926)"/><path d="m0 0h20.0939v20.0939h-20.0939z" transform="matrix(1 -.00000009 -.00000009 -1 271.804 50.2348)"/></g><path d="m0 0h20.0939v20.0939h-20.0939z" fill="#f3f4f6" transform="matrix(1 -.00000009 -.00000009 -1 452.65 442.067)"/><path d="m0 0h20.0939v20.0939h-20.0939z" fill="#fafbfc" transform="matrix(1 -.00000009 -.00000009 -1 452.65 321.503)"/><path d="m0 0h20.0939v20.0939h-20.0939z" fill="#fafbfc" transform="matrix(1 -.00000009 -.00000009 -1 452.65 381.785)"/><path d="m0 0h20.0939v20.0939h-20.0939z" fill="#fafbfc" transform="matrix(1 -.00000009 -.00000009 -1 452.65 502.349)"/><path d="m0 0h20.0939v20.0939h-20.0939z" fill="#f3f4f6" transform="matrix(1 -.00000009 -.00000009 -1 452.65 411.926)"/><path d="m0 0h20.0939v20.0939h-20.0939z" fill="#fafbfc" transform="matrix(1 -.00000009 -.00000009 -1 452.65 351.644)"/><path d="m0 0h20.0939v20.0939h-20.0939z" fill="#fafbfc" transform="matrix(1 -.00000009 -.00000009 -1 211.522 442.067)"/><path d="m0 0h20.0939v20.0939h-20.0939z" fill="#fafbfc" transform="matrix(1 -.00000009 -.00000009 -1 211.522 80.3759)"/><path d="m0 0h20.0939v20.0939h-20.0939z" fill="#fafbfc" transform="matrix(1 -.00000009 -.00000009 -1 211.522 50.2348)"/><path d="m0 0h20.0939v20.0939h-20.0939z" fill="#fafbfc" transform="matrix(1 -.00000009 -.00000009 -1 392.369 442.067)"/><path d="m0 0h20.0939v20.0939h-20.0939z" fill="#fafbfc" transform="matrix(1 -.00000009 -.00000009 -1 392.369 381.785)"/><path d="m0 0h20.0939v20.0939h-20.0939z" fill="#fafbfc" transform="matrix(1 -.00000009 -.00000009 -1 392.369 502.349)"/><path d="m0 0h20.0939v20.0939h-20.0939z" fill="#f3f4f6" transform="matrix(1 -.00000009 -.00000009 -1 392.369 411.926)"/><path d="m0 0h20.0939v20.0939h-20.0939z" fill="#fafbfc" transform="matrix(1 -.00000009 -.00000009 -1 392.369 472.208)"/><path d="m0 0h20.0939v20.0939h-20.0939z" fill="#fafbfc" transform="matrix(1 -.00000009 -.00000009 -1 301.946 381.785)"/><path d="m0 0h20.0939v20.0939h-20.0939z" fill="#fafbfc" transform="matrix(1 -.00000009 -.00000009 -1 301.946 502.348)"/><path d="m0 0h20.0939v20.0939h-20.0939z" fill="#fafbfc" transform="matrix(1 -.00000009 -.00000009 -1 301.946 411.926)"/><path d="m0 0h20.0939v20.0939h-20.0939z" fill="#fafbfc" transform="matrix(1 -.00000009 -.00000009 -1 301.946 532.489)"/><path d="m0 0h20.0939v20.0939h-20.0939z" fill="#fafbfc" transform="matrix(1 -.00000009 -.00000009 -1 301.946 351.644)"/><path d="m0 0h20.0939v20.0939h-20.0939z" fill="#fafbfc" transform="matrix(1 -.00000009 -.00000009 -1 301.946 472.208)"/><path d="m0 0h20.0939v20.0939h-20.0939z" fill="#fafbfc" transform="matrix(1 -.00000009 -.00000009 -1 482.791 442.067)"/><path d="m0 0h20.0939v20.0939h-20.0939z" fill="#fafbfc" transform="matrix(1 -.00000009 -.00000009 -1 482.791 200.939)"/><path d="m0 0h20.0939v20.0939h-20.0939z" fill="#fafbfc" transform="matrix(1 -.00000009 -.00000009 -1 482.791 321.503)"/><path d="m0 0h20.0939v20.0939h-20.0939z" fill="#f1f2f2" transform="matrix(1 -.00000009 -.00000009 -1 482.791 532.63)"/><path d="m0 0h20.0939v20.0939h-20.0939z" fill="#fafbfc" transform="matrix(1 -.00000009 -.00000009 -1 482.791 502.349)"/><path d="m0 0h20.0939v20.0939h-20.0939z" fill="#fafbfc" transform="matrix(1 -.00000009 -.00000009 -1 482.791 411.926)"/><path d="m0 0h20.0939v20.0939h-20.0939z" fill="#fafbfc" transform="matrix(1 -.00000009 -.00000009 -1 482.791 291.362)"/><path d="m0 0h20.0939v20.0939h-20.0939z" fill="#fafbfc" transform="matrix(1 -.00000009 -.00000009 -1 482.791 472.208)"/><path d="m0 0h20.0939v20.0939h-20.0939z" fill="#fafbfc" transform="matrix(1 -.00000009 -.00000009 -1 241.664 442.067)"/><path d="m0 0h20.0939v20.0939h-20.0939z" fill="#fafbfc" transform="matrix(1 -.00000009 -.00000009 -1 241.664 562.63)"/><path d="m0 0h20.0939v20.0939h-20.0939z" fill="#e1e4e8" transform="matrix(1 -.00000009 -.00000009 -1 241.664 381.785)"/><path d="m0 0h20.0939v20.0939h-20.0939z" fill="#fafbfc" transform="matrix(1 -.00000009 -.00000009 -1 241.664 140.658)"/><path d="m0 0h20.0939v20.0939h-20.0939z" fill="#e1e4e8" transform="matrix(1 -.00000009 -.00000009 -1 241.664 20.0938)"/><g fill="#fafbfc"><path d="m0 0h20.0939v20.0939h-20.0939z" transform="matrix(1 -.00000009 -.00000009 -1 241.664 411.926)"/><path d="m0 0h20.0939v20.0939h-20.0939z" transform="matrix(1 -.00000009 -.00000009 -1 241.664 50.2348)"/><path d="m0 0h20.0939v20.0939h-20.0939z" transform="matrix(1 -.00000009 -.00000009 -1 241.664 110.517)"/><path d="m0 0h20.0939v20.0939h-20.0939z" transform="matrix(1 -.00000009 -.00000009 -1 422.509 442.067)"/><path d="m0 0h20.0939v20.0939h-20.0939z" transform="matrix(1 -.00000009 -.00000009 -1 422.509 381.785)"/><path d="m0 0h20.0939v20.0939h-20.0939z" transform="matrix(1 -.00000009 -.00000009 -1 422.509 502.349)"/><path d="m0 0h20.0939v20.0939h-20.0939z" transform="matrix(1 -.00000009 -.00000009 -1 422.509 411.926)"/><path d="m0 0h20.0939v20.0939h-20.0939z" transform="matrix(1 -.00000009 -.00000009 -1 422.509 351.644)"/><path d="m0 0h20.0939v20.0939h-20.0939z" transform="matrix(1 -.00000009 -.00000009 -1 422.509 472.208)"/><path d="m0 0h20.0939v20.0939h-20.0939z" transform="matrix(1 -.00000009 -.00000009 -1 332.087 381.785)"/><path d="m0 0h20.0939v20.0939h-20.0939z" transform="matrix(1 -.00000009 -.00000009 -1 332.087 502.348)"/><path d="m0 0h20.0939v20.0939h-20.0939z" transform="matrix(1 -.00000009 -.00000009 -1 332.087 411.926)"/><path d="m0 0h20.0939v20.0939h-20.0939z" transform="matrix(1 -.00000009 -.00000009 -1 332.087 472.208)"/><path d="m0 0h20.0939v20.0939h-20.0939z" transform="matrix(1 -.00000009 -.00000009 -1 512.932 442.067)"/><path d="m0 0h20.0939v20.0939h-20.0939z" transform="matrix(1 -.00000009 -.00000009 -1 512.932 321.503)"/><path d="m0 0h20.0939v20.0939h-20.0939z" transform="matrix(1 -.00000009 -.00000009 -1 512.932 532.489)"/><path d="m0 0h20.0939v20.0939h-20.0939z" transform="matrix(1 -.00000009 -.00000009 -1 512.932 351.644)"/><path d="m0 0h20.0939v20.0939h-20.0939z" transform="matrix(1 -.00000009 -.00000009 -1 512.932 472.208)"/></g></svg>