<?xml version="1.0" encoding="utf-8"?>
<!-- Generator: Adobe Illustrator 25.3.1, SVG Export Plug-In . SVG Version: 6.00 Build 0)  -->
<svg version="1.1" id="Layer_2" xmlns="http://www.w3.org/2000/svg" xmlns:xlink="http://www.w3.org/1999/xlink" x="0px" y="0px"
	 viewBox="0 0 75.9 72.9" style="enable-background:new 0 0 75.9 72.9;" xml:space="preserve">
<style type="text/css">
	.st0{fill:#79B8FF;}
	.st1{fill-rule:evenodd;clip-rule:evenodd;fill:#79B8FF;}
	.st2{fill:#2188FF;}
	.st3{fill-rule:evenodd;clip-rule:evenodd;fill:#2188FF;}
</style>
<path class="st0" d="M41.2,8c0-0.8-0.6-1.4-1.4-1.4c-0.8,0-1.4,0.6-1.4,1.4c0,0.8,0.6,1.4,1.4,1.4C40.6,9.4,41.2,8.8,41.2,8z"/>
<path class="st0" d="M41.3,16.4c0-0.8,0.6-1.4,1.4-1.4h24.9c2.3,0,4.2,1.9,4.2,4.2v47.1c0,2.3-1.9,4.2-4.2,4.2H14.9
	c-2.3,0-4.2-1.9-4.2-4.2v-29c0-0.8,0.6-1.4,1.4-1.4s1.4,0.6,1.4,1.4v29c0,0.8,0.6,1.4,1.4,1.4h52.7c0.8,0,1.4-0.6,1.4-1.4V24.7H42.6
	c-0.8,0-1.4-0.6-1.4-1.4c0-0.8,0.6-1.4,1.4-1.4H69v-2.8c0-0.8-0.6-1.4-1.4-1.4H42.6C41.9,17.7,41.3,17.1,41.3,16.4z"/>
<path class="st0" d="M42.6,28.8c-0.8,0-1.4,0.6-1.4,1.4c0,0.8,0.6,1.4,1.4,1.4h2.8c0.8,0,1.4-0.6,1.4-1.4c0-0.8-0.6-1.4-1.4-1.4
	H42.6z"/>
<path class="st0" d="M49.5,30.2c0-0.8,0.6-1.4,1.4-1.4h4.2c0.8,0,1.4,0.6,1.4,1.4c0,0.8-0.6,1.4-1.4,1.4h-4.2
	C50.2,31.6,49.5,31,49.5,30.2z"/>
<path class="st0" d="M60.7,28.8c-0.8,0-1.4,0.6-1.4,1.4c0,0.8,0.6,1.4,1.4,1.4h4.1c0.8,0,1.4-0.6,1.4-1.4c0-0.8-0.6-1.4-1.4-1.4
	H60.7z"/>
<path class="st0" d="M17.7,35.8c-0.8,0-1.4,0.6-1.4,1.4c0,0.8,0.6,1.4,1.4,1.4h12.5c0.8,0,1.4-0.6,1.4-1.4c0-0.8-0.6-1.4-1.4-1.4
	H17.7z"/>
<path class="st0" d="M52.3,53.8c0-0.8-0.6-1.4-1.4-1.4c-0.8,0-1.4,0.6-1.4,1.4c0,0.8,0.6,1.4,1.4,1.4C51.7,55.2,52.3,54.5,52.3,53.8
	z"/>
<path class="st0" d="M48.2,57.9c0-0.8-0.6-1.4-1.4-1.4c-0.8,0-1.4,0.6-1.4,1.4c0,0.8,0.6,1.4,1.4,1.4C47.5,59.3,48.2,58.7,48.2,57.9
	z"/>
<path class="st0" d="M52.3,57.9c0-0.8-0.6-1.4-1.4-1.4c-0.8,0-1.4,0.6-1.4,1.4c0,0.8,0.6,1.4,1.4,1.4C51.7,59.3,52.3,58.7,52.3,57.9
	z"/>
<path class="st0" d="M56.5,53.8c0-0.8-0.6-1.4-1.4-1.4c-0.8,0-1.4,0.6-1.4,1.4c0,0.8,0.6,1.4,1.4,1.4C55.9,55.2,56.5,54.5,56.5,53.8
	z"/>
<path class="st0" d="M56.5,57.9c0-0.8-0.6-1.4-1.4-1.4c-0.8,0-1.4,0.6-1.4,1.4c0,0.8,0.6,1.4,1.4,1.4C55.9,59.3,56.5,58.7,56.5,57.9
	z"/>
<path class="st0" d="M60.6,53.8c0-0.8-0.6-1.4-1.4-1.4c-0.8,0-1.4,0.6-1.4,1.4c0,0.8,0.6,1.4,1.4,1.4C60,55.2,60.6,54.5,60.6,53.8z"
	/>
<path class="st0" d="M60.6,57.9c0-0.8-0.6-1.4-1.4-1.4c-0.8,0-1.4,0.6-1.4,1.4c0,0.8,0.6,1.4,1.4,1.4C60,59.3,60.6,58.7,60.6,57.9z"
	/>
<path class="st1" d="M39.9,52.4c0-2.3,1.9-4.2,4.2-4.2h18c2.3,0,4.2,1.9,4.2,4.2v6.9c0,2.3-1.9,4.2-4.2,4.2H44
	c-2.3,0-4.2-1.9-4.2-4.2V52.4z M44,51c-0.8,0-1.4,0.6-1.4,1.4v6.9c0,0.8,0.6,1.4,1.4,1.4h18c0.8,0,1.4-0.6,1.4-1.4v-6.9
	c0-0.8-0.6-1.4-1.4-1.4H44z"/>
<path class="st0" d="M17.7,41.3c-0.8,0-1.4,0.6-1.4,1.4c0,0.8,0.6,1.4,1.4,1.4h6.9c0.8,0,1.4-0.6,1.4-1.4c0-0.8-0.6-1.4-1.4-1.4
	H17.7z"/>
<path class="st0" d="M17.7,46.8c-0.8,0-1.4,0.6-1.4,1.4c0,0.8,0.6,1.4,1.4,1.4h6.9c0.8,0,1.4-0.6,1.4-1.4c0-0.8-0.6-1.4-1.4-1.4
	H17.7z"/>
<path class="st0" d="M45.4,37.1c0-0.8,0.6-1.4,1.4-1.4h16.6c1.5,0,2.8,1.2,2.8,2.8v2.8c0,1.5-1.2,2.8-2.8,2.8H44
	c-0.8,0-1.4-0.6-1.4-1.4c0-0.8,0.6-1.4,1.4-1.4h19.4v-2.8H46.8C46,38.5,45.4,37.9,45.4,37.1z"/>
<path class="st0" d="M8,33c0.8,0,1.4,0.6,1.4,1.4c0,0.8-0.6,1.4-1.4,1.4c-0.8,0-1.4-0.6-1.4-1.4C6.6,33.6,7.2,33,8,33z"/>
<path class="st2" d="M8.9,3.5c-0.2-0.6-0.7-1-1.3-1c-0.6,0-1.2,0.4-1.3,1C6,4.3,5.9,4.4,5.8,4.5c-0.1,0.1-0.2,0.2-1,0.4
	c-0.6,0.2-1,0.7-1,1.3c0,0.6,0.4,1.2,1,1.3c0.8,0.2,0.9,0.3,1,0.4C5.9,8,6,8.2,6.3,8.9c0.2,0.6,0.7,1,1.3,1s1.2-0.4,1.3-1
	c0.2-0.8,0.3-0.9,0.4-1c0.1-0.1,0.2-0.2,1-0.4c0.6-0.2,1-0.7,1-1.3c0-0.6-0.4-1.2-1-1.3c-0.8-0.2-0.9-0.3-1-0.4
	C9.2,4.4,9.1,4.3,8.9,3.5z"/>
<path class="st2" d="M40.8,34c-0.2-0.6-0.7-1-1.3-1c-0.6,0-1.2,0.4-1.3,1c-0.2,0.8-0.3,0.9-0.4,1c-0.1,0.1-0.2,0.2-1,0.4
	c-0.6,0.2-1,0.7-1,1.3c0,0.6,0.4,1.2,1,1.3c0.8,0.2,0.9,0.3,1,0.4c0.1,0.1,0.2,0.2,0.4,1c0.2,0.6,0.7,1,1.3,1c0.6,0,1.2-0.4,1.3-1
	c0.2-0.8,0.3-0.9,0.4-1c0.1-0.1,0.2-0.2,1-0.4c0.6-0.2,1-0.7,1-1.3c0-0.6-0.4-1.2-1-1.3c-0.8-0.2-0.9-0.3-1-0.4
	C41.1,34.9,41,34.8,40.8,34z"/>
<path class="st3" d="M28.8,18.4c0,1.2-0.5,2.3-1.2,3.2c1.4,1,2.4,2.5,2.6,4.3c0.1,0.8-0.5,1.4-1.3,1.5c-0.8,0.1-1.4-0.5-1.5-1.3
	c-0.1-1.5-1.6-2.9-3.5-2.9c-1.9,0-3.3,1.3-3.5,2.9c-0.1,0.8-0.7,1.3-1.5,1.3c-0.8-0.1-1.3-0.7-1.3-1.5c0.2-1.8,1.2-3.3,2.6-4.3
	c-0.7-0.9-1.2-2-1.2-3.2c0-2.7,2.2-4.8,4.8-4.8S28.8,15.8,28.8,18.4z M23.9,16.4c-1.1,0-2.1,0.9-2.1,2.1c0,1.1,0.9,2.1,2.1,2.1
	s2.1-0.9,2.1-2.1C26,17.3,25.1,16.4,23.9,16.4z"/>
<path class="st3" d="M10.8,13.6c0-2.3,1.9-4.2,4.2-4.2h18c2.3,0,4.2,1.9,4.2,4.2v13.9c0,2.3-1.9,4.2-4.2,4.2h-18
	c-2.3,0-4.2-1.9-4.2-4.2V13.6z M14.9,12.2c-0.8,0-1.4,0.6-1.4,1.4v13.9c0,0.8,0.6,1.4,1.4,1.4h18c0.8,0,1.4-0.6,1.4-1.4V13.6
	c0-0.8-0.6-1.4-1.4-1.4H14.9z"/>
<path class="st2" d="M48.2,53.8c0-0.8-0.6-1.4-1.4-1.4c-0.8,0-1.4,0.6-1.4,1.4c0,0.8,0.6,1.4,1.4,1.4C47.5,55.2,48.2,54.5,48.2,53.8
	z"/>
</svg>
