<svg fill="none" height="48" viewBox="0 0 63 48" width="63" xmlns="http://www.w3.org/2000/svg" xmlns:xlink="http://www.w3.org/1999/xlink"><clipPath id="a"><path d="m.902344 0h61.7143v48h-61.7143z"/></clipPath><g clip-path="url(#a)"><path clip-rule="evenodd" d="m62.6166 12h-61.714256v20.5714h17.142856v3.4286h13.7143v-3.4286h30.8571zm-51.4285 17.1429h-6.85718v-13.7143h.00196v-.0004h13.71432v13.7143h-.002v.0004h-3.4286v-10.2858h-3.4266v10.2854h-.0019zm23.9997-13.7143v-.0004h-13.7143v17.1429h.0003v.0003h6.8571v-3.4285h6.8572v-13.7143zm-3.4286 3.4285h-3.4283v6.8569h3.4283zm27.4264-3.4285v-.0004h-20.5715v13.7143h.0025v.0004h6.8572v-10.2858h3.426v10.2854h.0025v.0004h3.4286v-10.2858h3.4261v10.2854h.0025v.0004h3.4286v-13.7143z" fill="#24292e" fill-rule="evenodd"/></g></svg>