<?xml version="1.0" encoding="UTF-8"?>
<svg width="48px" height="44px" viewBox="0 0 48 44" version="1.1" xmlns="http://www.w3.org/2000/svg" xmlns:xlink="http://www.w3.org/1999/xlink">
    <!-- Generator: Sketch 47.1 (45422) - http://www.bohemiancoding.com/sketch -->
    <title>Group 15</title>
    <desc>Created with Sketch.</desc>
    <defs></defs>
    <g id="Page-1" stroke="none" stroke-width="1" fill="none" fill-rule="evenodd" stroke-linecap="round">
        <g id="Group-15" transform="translate(1.000000, 1.000000)" stroke-width="2">
            <g id="See-Project-Activity">
                <path d="M23,21 L23,17" id="Stroke-1" stroke="var(--color-marketing-icon-primary, #2088FF)"></path>
                <path d="M23,31 L6,31" id="Stroke-2" stroke="var(--color-marketing-icon-secondary, #79B8FF)" stroke-linejoin="round"></path>
                <path d="M14,36 L6,36" id="Stroke-3" stroke="var(--color-marketing-icon-secondary, #79B8FF)" stroke-linejoin="round"></path>
                <polyline id="Stroke-4" stroke="var(--color-marketing-icon-secondary, #79B8FF)" stroke-linejoin="round" points="37 34 35 34 35 32"></polyline>
                <g id="Group-19" stroke-linejoin="round">
                    <path d="M35.5068715,29.0154353 C37.992096,29.0154353 40.0064697,31.0299889 40.0064697,33.5154353 C40.0064697,36.0000781 37.992096,38.0154353 35.5068715,38.0154353 C33.0216469,38.0154353 31.0064697,36.0000781 31.0064697,33.5154353 C31.0064697,31.0299889 33.0216469,29.0154353 35.5068715,29.0154353 Z" id="Stroke-5" stroke="var(--color-marketing-icon-secondary, #79B8FF)"></path>
                    <polyline id="Stroke-4" stroke="var(--color-marketing-icon-primary, #2088FF)" points="37 9 35 9 35 7"></polyline>
                    <path d="M35.5068715,4.01543529 C37.992096,4.01543529 40.0064697,6.02998886 40.0064697,8.51543529 C40.0064697,11.0000781 37.992096,13.0154353 35.5068715,13.0154353 C33.0216469,13.0154353 31.0064697,11.0000781 31.0064697,8.51543529 C31.0064697,6.02998886 33.0216469,4.01543529 35.5068715,4.01543529 Z" id="Stroke-5" stroke="var(--color-marketing-icon-primary, #2088FF)"></path>
                    <rect id="Rectangle-31" stroke="var(--color-marketing-icon-primary, #2088FF)" x="0" y="0" width="46" height="17"></rect>
                    <rect id="Rectangle-31" stroke="var(--color-marketing-icon-secondary, #79B8FF)" x="0" y="25" width="46" height="17"></rect>
                    <path d="M23.000885,6.00466919 L6.00088501,6.00466919" id="Stroke-11" stroke="var(--color-marketing-icon-primary, #2088FF)"></path>
                    <path d="M14.0142212,11.0041199 L6.01422119,11.0041199" id="Stroke-13" stroke="var(--color-marketing-icon-primary, #2088FF)"></path>
                </g>
            </g>
        </g>
    </g>
</svg>