<?xml version="1.0" standalone="no"?>
<!DOCTYPE svg PUBLIC "-//W3C//DTD SVG 20010904//EN"
 "http://www.w3.org/TR/2001/REC-SVG-20010904/DTD/svg10.dtd">
<svg version="1.0" xmlns="http://www.w3.org/2000/svg"
 width="128.000000pt" height="128.000000pt" viewBox="0 0 128.000000 128.000000"
 preserveAspectRatio="xMidYMid meet">

<g transform="translate(0.000000,128.000000) scale(0.100000,-0.100000)"
fill="#5b53ff" stroke="none">
<path d="M555 1271 c-262 -43 -464 -222 -531 -472 -22 -84 -22 -234 0 -318 47
-175 167 -325 327 -406 95 -48 178 -68 289 -68 243 0 456 129 565 344 48 95
68 178 68 289 0 341 -254 610 -598 634 -38 2 -92 1 -120 -3z m-36 -375 c89
-88 96 -97 96 -135 0 -72 -71 -119 -132 -88 -15 9 -65 53 -110 100 -74 75 -83
89 -83 122 0 51 44 95 96 95 33 0 46 -9 133 -94z m442 65 c22 -22 29 -39 29
-66 0 -33 -9 -47 -82 -122 -46 -47 -96 -91 -111 -100 -61 -31 -132 16 -132 88
0 38 7 47 96 135 87 85 100 94 133 94 28 0 45 -7 67 -29z m-371 -376 c18 -18
25 -36 25 -66 0 -38 -6 -46 -96 -135 -87 -85 -100 -94 -133 -94 -52 0 -96 44
-96 95 0 33 9 47 78 117 42 45 91 89 107 100 37 23 80 17 115 -17z m208 21
c15 -8 64 -52 110 -99 73 -75 82 -89 82 -122 0 -51 -44 -95 -96 -95 -33 0 -46
9 -133 94 -89 88 -96 98 -96 135 0 41 23 76 60 92 29 12 43 11 73 -5z"/>
</g>
</svg>
