<svg xmlns="http://www.w3.org/2000/svg" viewBox="0 0 61.49 37.04"><title>Asset 3</title><g data-name="Layer 2" style="isolation:isolate"><g data-name="Layer 5" style="mix-blend-mode:color-dodge" stroke-linecap="round" stroke-linejoin="round"><path fill="#fff" stroke="#a7a8ae" d="M60.06 26.54L51.22.5l-8.83 26.04h17.67zM51.22 23.66v12.8"/><path fill="none" stroke="#a7a8ae" d="M56.74 34.97v1.57M58.86 34.97v1.57M60.99 34.97v1.57M11.34 36.54h31.14M46.58 36.54h7.21"/><circle cx="32.61" cy="33.71" r="1.88" fill="none" stroke="#2e3844"/><path d="M29.22 24.37a1.88 1.88 0 0 0-3.75 0" fill="none" stroke="#2e3844"/><circle cx="20.06" cy="33.71" r="1.88" fill="none" stroke="#2e3844"/><path d="M18.21 34h-1.27a.5.5 0 0 1-.5-.5v-1.16a.5.5 0 0 1 .5-.5H17l.63-6.22a.85.85 0 0 1 .84-.76h13.77a.63.63 0 0 1 .45.19l2.77 2.85 2.69 1.5a.63.63 0 0 1 .32.48l.32 2.8a.5.5 0 0 1 .5.5v.3a.5.5 0 0 1-.5.5h-4.32M30.75 33.97h-8.83M31.43 24.85l-.77-5-11.16 2.67v2.33M32.05 19.51L18.1 22.86" fill="none" stroke="#2e3844"/><path d="M17.24 29.42h4.68v-4.57h-3.45a.85.85 0 0 0-.84.76zM29.94 29.42h5.52v-1.53l-3.22-3.04h-2.3v4.57zM21.28 22.22l3.53 2.63M24.08 24.85h3.7v4.57h-3.7z" fill="none" stroke="#2e3844"/><rect x=".5" y="3.99" width="19.52" height="13.89" rx=".95" ry=".95" transform="rotate(-180 10.26 10.935)" fill="#07bedc" stroke="#2e3844"/><path fill="#07bedc" stroke="#2e3844" d="M16.43 16.52v5.18l-5.02-5.02"/></g></g></svg>