<svg width="56" height="56" viewBox="0 0 56 56" fill="none" xmlns="http://www.w3.org/2000/svg">
    <path d="M19 30C18.45 30 18 29.55 18 29V19C18 18.45 17.55 18 17 18C16.45 18 16 18.45 16 19V30.0884C16.3822 31.4316 16.3661 33.0518 16.35 34.1V34.39C16.9 34.69 17.81 35.27 18.79 36.36C19.16 36.77 19.12 37.4 18.71 37.77C18.3 38.14 17.67 38.1 17.3 37.69C16.33 36.61 15.48 36.17 15.11 35.99C14.99 35.93 14.9 35.88 14.86 35.85C14.35 35.51 14.35 35.06 14.36 34.07L14.36 34.0625C14.3686 33.1691 14.3836 31.613 14.0669 30.5586C14.0523 30.521 14.0399 30.4822 14.03 30.4426C13.9859 30.3118 13.9362 30.1901 13.88 30.08C12.73 27.84 11.45 27.13 10.55 26.94C11.62 29.55 12.02 32.22 12.02 34.03C12.02 37.78 14.1 42.99 18.01 43.01C18.56 43.01 19.01 43.46 19.01 44.01C19.01 44.58 18.56 45.02 18.01 45.02C13.08 45 10.02 39.31 10.02 34.04C10.02 32.15 9.51997 29.18 8.12997 26.5C7.99997 26.25 7.97997 25.95 8.07997 25.68C8.17997 25.41 8.38997 25.2 8.65997 25.1C9.76223 24.6808 11.9912 24.6834 14 26.7916V19C14 17.35 15.35 16 17 16C17.3502 16 17.6869 16.0608 18 16.1724V15C18 13.35 19.35 12 21 12C22.65 12 24 13.35 24 15V15.1724C24.3131 15.0608 24.6498 15 25 15C25.55 15 26.1 15.15 26.57 15.44C27.04 15.73 27.19 16.34 26.9 16.82C26.61 17.29 26 17.44 25.52 17.15C25.36 17.05 25.18 17 25 17C24.45 17 24 17.45 24 18V24.03C24 24.58 23.55 25.03 23 25.03C22.45 25.03 22 24.58 22 24.03V15C22 14.45 21.55 14 21 14C20.45 14 20 14.45 20 15V29C20 29.55 19.55 30 19 30Z" fill="#79B8FF"/>
    <path d="M18.47 50.87C18.64 50.98 18.84 51.04 19.03 51.04C19.35 51.04 19.66 50.88 19.86 50.59L23.71 44.89C24.16 44.74 24.92 44.42 25.65 43.85C26.08 43.51 26.16 42.89 25.82 42.45C25.48 42.02 24.86 41.94 24.42 42.28C23.68 42.85 22.83 43.08 22.83 43.08C22.59 43.14 22.39 43.29 22.25 43.49L18.2 49.48C17.89 49.94 18.01 50.56 18.47 50.87Z" fill="#79B8FF"/>
    <path d="M10.06 49.02C9.84004 49.02 9.62004 48.95 9.44004 48.81C9.01004 48.47 8.93004 47.84 9.27004 47.41L11.64 44.41C11.98 43.98 12.61 43.9 13.04 44.24C13.47 44.58 13.55 45.21 13.21 45.64L10.84 48.64C10.65 48.89 10.36 49.02 10.06 49.02Z" fill="#79B8FF"/>
    <path d="M27.02 8C27.02 8.55 27.47 9 28.02 9C28.57 9 29.02 8.55 29.02 8V5C29.02 4.45 28.57 4 28.02 4C27.47 4 27.02 4.45 27.02 5V8Z" fill="#2188FF"/>
    <path d="M33.32 9.75C33.51 9.94 33.77 10.04 34.02 10.04C34.28 10.04 34.54 9.94 34.73 9.74L36.72 7.72C37.11 7.33 37.1 6.7 36.71 6.31C36.32 5.92 35.69 5.92 35.3 6.32L33.31 8.34C32.92 8.73 32.93 9.36 33.32 9.75Z" fill="#2188FF"/>
    <path d="M22.01 10.02C21.75 10.02 21.49 9.92001 21.3 9.72001L19.31 7.71001C18.92 7.32001 18.93 6.68001 19.32 6.30001C19.71 5.92001 20.35 5.91001 20.73 6.31001L22.72 8.32001C23.11 8.71001 23.1 9.35001 22.71 9.73001C22.52 9.93001 22.26 10.02 22.01 10.02Z" fill="#2188FF"/>
    <path d="M38.2399 50.66C38.4399 50.9 38.7199 51.02 39.0099 51.02C39.2399 51.02 39.4699 50.94 39.6599 50.77C40.0799 50.41 40.1299 49.78 39.7799 49.36L34.7499 43.36C34.5499 43.12 34.2599 42.99 33.9499 43C30.6299 43.1 28.1499 40.67 27.2699 36.5C26.3799 32.25 25.7299 30.45 24.9299 28.62C25.7299 28.58 26.8999 28.89 27.9299 30.71C27.9513 30.7487 27.9747 30.7853 28 30.8198V34.06C28 34.61 28.45 35.06 29 35.06C29.55 35.06 30 34.61 30 34.06V19C30 18.45 30.45 18 31 18C31.55 18 32 18.45 32 19V29.01C32 29.56 32.45 30.01 33 30.01L33.005 30.01L33.01 30.01C33.56 30.01 34.01 29.56 34.01 29.02V17.01C34.01 16.9621 34.0066 16.915 34 16.8688V15C34 14.45 34.45 14 35 14C35.55 14 36 14.45 36 15V29C36 29.55 36.45 30 37 30C37.55 30 38 29.55 38 29V17C38 16.45 38.45 16 39 16C39.55 16 40 16.45 40 17V29C40 29.55 40.45 30 41 30C41.55 30 42 29.55 42 29V23C42 22.45 42.45 22 43 22C43.55 22 44 22.45 44 23V35.57C44 39.8 41.65 41.09 41.56 41.13C41.29 41.27 41.1 41.52 41.03 41.81C40.96 42.1 41.03 42.41 41.22 42.65L45.2 47.65C45.4 47.9 45.69 48.03 45.98 48.03C46.2 48.03 46.42 47.95 46.61 47.81C47.04 47.46 47.11 46.83 46.77 46.4L43.43 42.21C44.47 41.27 45.97 39.29 46 35.67V23C46 21.35 44.65 20 43 20C42.6498 20 42.3131 20.0608 42 20.1724V17C42 15.35 40.65 14 39 14C38.6101 14 38.2369 14.0754 37.8944 14.2123C37.5462 12.9412 36.3777 12 35 12C33.35 12 32 13.35 32 15V16.1724C31.6869 16.0608 31.3502 16 31 16C29.35 16 28 17.35 28 19V27.6912C26.1476 26.198 24.1043 26.5561 23.0799 27.11C22.6199 27.36 22.4699 28.01 22.6799 28.49L22.6819 28.4945C23.6508 30.662 24.2906 32.0933 25.3099 36.92C26.3399 41.84 29.4599 44.89 33.5099 45.01L38.2399 50.66Z" fill="#2188FF"/>
    <path d="M5.75 15.64C5.87 16.07 6.26 16.37 6.71 16.37C7.16 16.37 7.56 16.07 7.68 15.63C7.78386 15.2492 7.83635 15.0567 7.95844 14.9328C8.08322 14.8062 8.28069 14.7512 8.68 14.64C9.11 14.52 9.41 14.12 9.41 13.67C9.41 13.22 9.11 12.83 8.67 12.71C8.27174 12.6041 8.07425 12.5516 7.94814 12.427C7.82409 12.3043 7.76909 12.1118 7.66 11.73C7.54 11.3 7.15 11 6.7 11C6.25 11 5.85 11.3 5.73 11.73C5.62614 12.1108 5.57365 12.3033 5.45156 12.4272C5.32678 12.5538 5.12931 12.6088 4.73 12.72C4.3 12.84 4 13.24 4 13.69C4 14.14 4.3 14.54 4.74 14.65C5.53 14.87 5.53 14.87 5.75 15.64Z" fill="#2188FF"/>
    <path d="M48.71 16.37C48.26 16.37 47.87 16.07 47.75 15.64C47.53 14.87 47.53 14.87 46.74 14.65C46.3 14.54 46 14.14 46 13.69C46 13.24 46.3 12.84 46.73 12.72C47.1293 12.6088 47.3268 12.5538 47.4516 12.4272C47.5737 12.3033 47.6261 12.1108 47.73 11.73C47.85 11.3 48.25 11 48.7 11C49.15 11.04 49.54 11.3 49.66 11.73C49.88 12.5 49.88 12.5 50.67 12.72C51.11 12.84 51.41 13.23 51.41 13.68C51.41 14.13 51.11 14.53 50.68 14.65C49.89 14.87 49.89 14.87 49.68 15.64C49.56 16.07 49.16 16.37 48.71 16.37Z" fill="#2188FF"/>
    <path d="M27.0699 51.27C27.1899 51.7 27.5799 52 28.0299 52C28.4899 51.99 28.8799 51.69 28.9899 51.27C29.0938 50.8892 29.1463 50.6967 29.2684 50.5728C29.3932 50.4462 29.5906 50.3912 29.9899 50.28C30.4199 50.16 30.7199 49.76 30.7199 49.31C30.7199 48.86 30.4199 48.47 29.9799 48.35C29.1899 48.13 29.1899 48.13 28.9699 47.36C28.8499 46.93 28.4599 46.63 28.0099 46.63C27.5599 46.63 27.1699 46.93 27.0499 47.36C26.8399 48.13 26.8399 48.13 26.0499 48.35C25.6199 48.47 25.3199 48.87 25.3199 49.32C25.3199 49.77 25.6199 50.16 26.0599 50.28C26.4587 50.3911 26.6562 50.4461 26.7823 50.5723C26.906 50.6962 26.961 50.8887 27.0699 51.27Z" fill="#2188FF"/>
</svg>
