<svg width="56" height="56" xmlns="http://www.w3.org/2000/svg"><g transform="translate(5 5)" fill="none" fill-rule="evenodd"><path d="M12.02 20.516a1.5 1.5 0 11-3 0 1.5 1.5 0 013 0zm-.025 6.986a1.5 1.5 0 11-3-.001 1.5 1.5 0 013 0zm.013-20.993a1.5 1.5 0 11-3 0 1.5 1.5 0 013 0zm-.006 6.99a1.5 1.5 0 11-3 0 1.5 1.5 0 013 0z" fill="#2088FF"/><path d="M18 40v6l-5-2-5 2v-6a2 2 0 012-2h6a2 2 0 012 2z" stroke="#2088FF" stroke-width="2" stroke-linecap="round" stroke-linejoin="round"/><path d="M4 42H2c-.978 0-2-.982-2-2V2C0 .982 1.022 0 2 0h14.019m21.98 25.074V40c0 1.018-1.021 2-2 2H22" stroke="#79B8FF" stroke-width="2" stroke-linecap="round" stroke-linejoin="round"/><path d="M0 36c0-1.215 1.043-2.114 2-2h34c1.085-.114 2-.952 2-2M5.1 1.074v31.868" stroke="#79B8FF" stroke-width="2" stroke-linecap="round" stroke-linejoin="round"/><rect stroke="#2088FF" stroke-width="2" stroke-linejoin="round" x="20" width="26" height="21" rx="2"/><path stroke="#2088FF" stroke-width="2" d="M20 5.008h26"/></g></svg>