<svg width="26" height="23" viewBox="0 0 26 23" fill="none" xmlns="http://www.w3.org/2000/svg">
<path d="M25.7216 5.79868L17.9733 0.147605C17.8801 0.0800284 17.8207 0.0546875 17.6936 0.0546875H15.5403C15.0571 0.0546875 14.5569 0.443252 14.4213 0.933181L8.70758 22.1775C8.58889 22.6337 8.86017 22.9969 9.30947 22.9969H11.9798C12.4376 22.9969 12.9039 22.6252 13.031 22.1775L13.3616 20.9527L14.7604 15.7493L15.8625 11.6609L17.6427 5.02155C17.6851 4.85261 17.8885 4.78504 18.0242 4.8864L22.4833 8.13852C22.6443 8.25678 22.6443 8.49329 22.4833 8.61155L17.6681 12.1255C17.4477 12.286 17.3121 12.5901 17.3121 12.928V16.2392C17.3121 16.8136 17.7868 16.7376 18.1683 16.4589L25.7131 10.9514C25.8911 10.8247 26.0013 10.5797 26.0013 10.3094V6.43221C26.0013 6.17035 25.8911 5.92539 25.7216 5.79868Z" fill="#551B76"/>
<path d="M8.68927 0.353448V3.81674C8.68927 4.15462 8.54516 4.46716 8.32475 4.6361L3.5181 8.15008C3.3655 8.25989 3.3655 8.50485 3.5181 8.62311L8.33323 12.1371C8.55364 12.2976 8.68927 12.6101 8.68927 12.9396V16.2508C8.68927 16.8252 8.21454 16.7492 7.83306 16.4704L0.28823 10.9629C0.110206 10.8362 0 10.5913 0 10.321V6.43533C0 6.17347 0.110205 5.9285 0.279752 5.8018L8.02804 0.150718C8.32475 -0.0689054 8.68927 -0.0857989 8.68927 0.353448Z" fill="#29ADEB"/>
</svg>
