<svg viewBox="0 0 68.1 59.4" xmlns="http://www.w3.org/2000/svg"><path d="M41.4 26.5a1 1 0 01-1-.89 6.47 6.47 0 00-6.51-5.71 6.56 6.56 0 00-6.51 5.63 1.01 1.01 0 11-2-.27 8.57 8.57 0 018.49-7.37 8.46 8.46 0 018.49 7.49 1 1 0 01-.89 1.1h-.07z" fill="#2088ff"/><path d="M33.9 19.9a6.4 6.4 0 116.4-6.4 6.4 6.4 0 01-6.4 6.4zm0-10.8a4.4 4.4 0 104.4 4.4 4.4 4.4 0 00-4.4-4.4z" fill="#2088ff"/><path d="M33.9 34.2A17.1 17.1 0 1151 17.1a17.12 17.12 0 01-17.1 17.1zm0-32.2A15.1 15.1 0 1049 17.1 15.12 15.12 0 0033.9 2z" fill="#2088ff"/><g fill="#79b8ff"><path d="M11.1 59.2a11.1 11.1 0 1111.1-11.1 11.11 11.11 0 01-11.1 11.1zm0-20.2a9.1 9.1 0 109.1 9.1 9.1 9.1 0 00-9.1-9.1z"/><path d="M18 40.6a1 1 0 01-.78-1.6l3.5-4.4a1 1 0 011.57 1.24l-3.54 4.4a1 1 0 01-.75.36zm-2.8 13.2a1 1 0 01-1-.85 3.2 3.2 0 00-3.11-2.75A3.11 3.11 0 008 52.85a1.011 1.011 0 01-2-.3 5.1 5.1 0 015.09-4.35 5.21 5.21 0 015.12 4.5 1 1 0 01-.84 1.14h-.17z"/><path d="M11.1 50.2a3.9 3.9 0 113.9-3.9 3.9 3.9 0 01-3.9 3.9zm0-5.8a1.9 1.9 0 101.9 1.9 1.9 1.9 0 00-1.9-1.9zm45.8 15a11.2 11.2 0 1111.2-11.2 11.21 11.21 0 01-11.2 11.2zm0-20.4a9.2 9.2 0 109.2 9.2 9.21 9.21 0 00-9.2-9.2z"/><path d="M49.9 40.6a1 1 0 01-.78-.38l-3.5-4.4a1 1 0 011.57-1.24l3.5 4.4a1 1 0 01-.79 1.62zM61 53.9a1 1 0 01-1-.85 3.2 3.2 0 00-3.11-2.75 3.13 3.13 0 00-3.14 2.7 1.005 1.005 0 01-2-.2 5.11 5.11 0 015.09-4.5 5.21 5.21 0 015.09 4.45 1 1 0 01-.84 1.14H61z"/><path d="M56.9 50.3a3.9 3.9 0 113.9-3.9 3.9 3.9 0 01-3.9 3.9zm0-5.8a1.9 1.9 0 101.9 1.9 1.9 1.9 0 00-1.9-1.9z"/></g></svg>