<svg fill="none" height="19" viewBox="0 0 18 19" width="18" xmlns="http://www.w3.org/2000/svg"><path d="m8.99636.00000175c-1.16638-.00032253-2.29966.38778025-3.22098 1.10305825-.92132.71527-1.57821 1.71699-1.867 2.84706-.28879 1.13006-.19304 2.32412.27214 3.39372.46519 1.06961 1.27331 1.95384 2.29684 2.51316-1.82492.5328-3.43439 1.6296-4.59787 3.1331-1.163478 1.5035-1.821261 3.3367-1.87912667 5.2369-.00306712.0985.01330927.1966.04819277.2888s.0875899.1766.1551069.2484.148521.1295.238381.17.186813.0628.285319.0658h16.539037c.1987-.006.387-.0907.5233-.2355.1363-.1447.2096-.3377.2037-.5365-.0579-1.9002-.7157-3.7334-1.8792-5.2369-1.1634-1.5036-2.7729-2.6003-4.5978-3.1331 1.0241-.55911 1.8328-1.44346 2.2983-2.51337.4655-1.06992.5614-2.26442.2724-3.39488-.289-1.13045-.9463-2.13242-1.8682-2.84768-.9219-.71525-2.0557-1.10302068-3.22254-1.10206825z" fill="#000"/></svg>