<svg xmlns="http://www.w3.org/2000/svg" width="53" height="53" fill="none"><defs/><path fill="#F692CE" d="M21.11 7.571a.946.946 0 11-1.894 0 .946.946 0 011.893 0zM22.288 10.941a.946.946 0 00-1.79.617l.706 2.048a.946.946 0 001.79-.618l-.706-2.047zM11.541 20.522a.947.947 0 00-.593 1.798l2.04.674a.946.946 0 00.594-1.798l-2.04-.674zM7.643 21.15a.946.946 0 100-1.894.946.946 0 000 1.893zM30.588 42.106a.946.946 0 001.794-.604l-.684-2.031a.946.946 0 00-1.794.604l.684 2.031zM41.402 32.657a.946.946 0 00.618-1.788l-2.032-.704a.946.946 0 10-.619 1.79l2.033.702zM32.694 46.404a.946.946 0 100-1.893.946.946 0 000 1.893zM46.24 33.124a.946.946 0 11-1.892 0 .946.946 0 011.893 0z"/><path fill="#EC6CB9" fill-rule="evenodd" d="M26.5 20.822a3.786 3.786 0 00-2.714 6.424c-1.045.635-1.814 1.642-2.007 2.895a.946.946 0 101.87.29c.166-1.07 1.286-2.038 2.851-2.038 1.623 0 2.72 1.012 2.847 2.012a.947.947 0 001.878-.238c-.16-1.258-.935-2.283-2.006-2.926a3.786 3.786 0 00-2.72-6.42zm-1.893 3.785a1.893 1.893 0 113.786 0 1.893 1.893 0 01-3.786 0z" clip-rule="evenodd"/><path fill="#EC6CB9" fill-rule="evenodd" d="M26.517 7.576a3.786 3.786 0 113.942 3.782L29.44 16.51c4.318 1.269 7.47 5.261 7.47 9.99 0 2.57-.93 4.921-2.472 6.737l8.888 9.059a3.786 3.786 0 11-1.256 1.423l-8.983-9.156A10.368 10.368 0 0126.5 36.91c-4.72 0-8.708-3.142-9.983-7.45l-5.162 1.033a3.786 3.786 0 11-.371-1.856l5.163-1.033a10.527 10.527 0 01-.058-1.104c0-5.75 4.661-10.412 10.411-10.412.366 0 .727.02 1.083.056l1.025-5.183a3.786 3.786 0 01-2.091-3.386zm3.786-1.893a1.893 1.893 0 100 3.786 1.893 1.893 0 000-3.786zm-3.803 12.3a8.518 8.518 0 100 17.035 8.518 8.518 0 000-17.036zM5.682 30.285a1.893 1.893 0 113.786 0 1.893 1.893 0 01-3.786 0zm37.871 15.146a1.893 1.893 0 113.786 0 1.893 1.893 0 01-3.786 0z" clip-rule="evenodd"/><path fill="#EC6CB9" d="M12.78 10.801c.171-.559.57-1.337 1.547-1.337 1.515 0 1.762 1.058 1.762 1.898 0 1.489-1.913 2.894-2.772 3.525l-.154.114c-.247.184-.516.187-.773 0l-.042-.03c-.848-.602-2.884-2.05-2.884-3.61 0-.84.33-1.897 1.71-1.897.898 0 1.395.778 1.567 1.337.017.058.022.058.04 0zM42.12 15.534c.17-.56.569-1.338 1.547-1.338 1.514 0 1.762 1.058 1.762 1.898 0 1.489-1.913 2.894-2.772 3.525l-.155.114c-.247.184-.516.187-.773 0l-.041-.03c-.849-.602-2.884-2.049-2.884-3.609 0-.84.328-1.898 1.71-1.898.897 0 1.394.778 1.566 1.338.018.057.022.057.04 0zM20.006 39.75c-.978 0-1.376.778-1.547 1.337-.017.057-.022.058-.04 0-.172-.56-.669-1.337-1.566-1.337-1.381 0-1.71 1.057-1.71 1.898 0 1.56 2.035 3.006 2.884 3.61l.041.029c.258.186.526.184.774 0a18.939 18.939 0 01.154-.114c.859-.631 2.772-2.037 2.772-3.526 0-.84-.247-1.897-1.762-1.897z"/></svg>
