<svg width="25" height="25" viewBox="0 0 25 25" fill="none" xmlns="http://www.w3.org/2000/svg">
<path fill-rule="evenodd" clip-rule="evenodd" d="M5.28909 21.9995C10.7926 25.7249 18.2741 24.2835 21.9995 18.78C25.725 13.2765 24.2836 5.79504 18.7801 2.06961C13.2766 -1.65581 5.79504 -0.214408 2.06961 5.28909C-1.65582 10.7925 -0.214406 18.2741 5.28909 21.9995ZM6.88522 22.0978C11.9196 24.6734 18.3058 22.2557 21.1494 16.6978C23.9929 11.1398 22.2169 4.54627 17.1825 1.97063C12.1482 -0.605002 5.76191 1.81266 2.91839 7.37062C0.0748713 12.9285 1.85088 19.5221 6.88522 22.0978Z" fill="#0062FF"/>
<path fill-rule="evenodd" clip-rule="evenodd" d="M8.31991 23.4125C12.8643 24.8916 18.2103 20.9842 20.2606 14.6851C22.3108 8.38602 20.2888 2.08053 15.7444 0.601416C11.2 -0.877683 5.85402 3.02971 3.80379 9.32883C1.75357 15.6279 3.77551 21.9334 8.31991 23.4125ZM9.71005 22.9337C13.556 23.7541 17.7146 19.5391 18.9986 13.5195C20.2825 7.49985 18.2056 1.95496 14.3596 1.13465C10.5137 0.314334 6.35509 4.52925 5.07114 10.5489C3.7872 16.5685 5.86411 22.1134 9.71005 22.9337Z" fill="#0062FF"/>
<path fill-rule="evenodd" clip-rule="evenodd" d="M10.7644 23.9264C13.8051 24.251 16.8397 19.1793 17.5424 12.5983C18.2451 6.01741 16.3498 0.41927 13.3091 0.0945924C10.2685 -0.230086 7.23384 4.84165 6.53113 11.4226C5.82843 18.0035 7.72372 23.6017 10.7644 23.9264ZM12.1873 21.9233C14.3878 21.8886 16.1018 17.4338 16.0155 11.9734C15.9293 6.51295 14.0754 2.11456 11.8749 2.14933C9.67431 2.1841 7.96034 6.63885 8.04661 12.0993C8.13288 17.5597 9.98669 21.9581 12.1873 21.9233Z" fill="#0062FF"/>
</svg>
