<svg version="1.1" id="Layer_2" xmlns="http://www.w3.org/2000/svg" x="0" y="0" viewBox="0 0 75.9 72.9" xml:space="preserve"><style>.st0{fill:#79b8ff}.st2,.st3{fill:#2188ff}.st3{fill-rule:evenodd;clip-rule:evenodd}</style><path class="st0" d="M26.5 11c-.8 0-1.4.6-1.4 1.4s.6 1.4 1.4 1.4h13.8c.8 0 1.4-.6 1.4-1.4s-.6-1.4-1.4-1.4H26.5zM12.7 23.5c-.8 0-1.4.6-1.4 1.4 0 .8.6 1.4 1.4 1.4h2.8c.8 0 1.4-.6 1.4-1.4 0-.8-.6-1.4-1.4-1.4h-2.8zM15.5 18c0-.8.6-1.4 1.4-1.4H21c.8 0 1.4.6 1.4 1.4 0 .8-.6 1.4-1.4 1.4h-4.1c-.8-.1-1.4-.7-1.4-1.4zM18.2 37.3c-.8 0-1.4.6-1.4 1.4s.6 1.4 1.4 1.4H21c.8 0 1.4-.6 1.4-1.4s-.6-1.4-1.4-1.4h-2.8z"/><path d="M27.9 50.8v3c0 .8.6 1.4 1.4 1.4h15.1c.8 0 1.4.6 1.4 1.4s-.6 1.4-1.4 1.4H29.3c-2.3 0-4.1-1.9-4.1-4.1v-1.2-32.2c0-2.4 2.1-4 4.3-4h31.3c2.2 0 4.3 1.6 4.3 4v16.7c0 .8-.6 1.4-1.4 1.4-.8 0-1.4-.6-1.4-1.4v-11H27.9v24.6zm34.4-27.4H27.9v-2.9c0-.5.5-1.2 1.6-1.2h31.3c1 0 1.6.7 1.6 1.2v2.9z" fill-rule="evenodd" clip-rule="evenodd" fill="#79b8ff"/><path class="st2" d="M8.8 6.9c-1 0-1.6.7-1.6 1.2v41.5c0 .8.6 1.4 1.4 1.4H21c.8 0 1.4.6 1.4 1.4 0 .8-.6 1.4-1.4 1.4H8.6c-2.3 0-4.1-1.9-4.1-4.1v-1.2V8.1c0-2.4 2.1-4 4.3-4h42.3c2.2 0 4.3 1.6 4.3 4v4.3c0 .8-.6 1.4-1.4 1.4-.8 0-1.4-.6-1.4-1.4V8.1c0-.5-.5-1.2-1.6-1.2H8.8zM62.3 59.3c0-1.5-1.2-2.8-2.8-2.8s-2.8 1.2-2.8 2.8c0 1 .6 1.9 1.4 2.4v1.7c0 .8.6 1.4 1.4 1.4s1.4-.6 1.4-1.4v-1.7c.9-.5 1.4-1.4 1.4-2.4z"/><path class="st3" d="M52.7 51c-2.3 0-4.1 1.9-4.1 4.1v11c0 2.3 1.9 4.1 4.1 4.1h13.8c2.3 0 4.1-1.9 4.1-4.1v-11c0-2.3-1.9-4.1-4.1-4.1v-3.1c0-1.9-.7-3.6-1.9-4.7-1.3-1.2-3-1.8-4.9-1.8-1.9 0-3.7.6-4.9 1.8-1.3 1.2-1.9 2.9-1.9 4.7V51zm11-3.1V51h-8.3v-3.1c0-1.2.4-2.1 1.1-2.7.7-.6 1.7-1 3.1-1 1.4 0 2.4.4 3.1 1.1.6.5 1 1.4 1 2.6zm-12.4 7.2c0-.8.6-1.4 1.4-1.4h13.8c.8 0 1.4.6 1.4 1.4v11c0 .8-.6 1.4-1.4 1.4H52.7c-.8 0-1.4-.6-1.4-1.4v-11z"/><path class="st2" d="M22.4 12.4c0 .8-.6 1.4-1.4 1.4l-8.3.1c-.8 0-1.4-.6-1.4-1.4 0-.8.6-1.4 1.4-1.4L21 11c.8 0 1.4.6 1.4 1.4zM45.8 11.1c-.8 0-1.4.6-1.4 1.4s.6 1.4 1.4 1.4h1.4c.8 0 1.4-.6 1.4-1.4s-.6-1.4-1.4-1.4h-1.4zM18.2 24.9c0-.8.6-1.4 1.4-1.4H21c.8 0 1.4.6 1.4 1.4 0 .8-.6 1.4-1.4 1.4h-1.4c-.7-.1-1.4-.7-1.4-1.4zM12.7 30.4c-.8 0-1.4.6-1.4 1.4s.6 1.4 1.4 1.4H21c.8 0 1.4-.6 1.4-1.4s-.6-1.4-1.4-1.4h-8.3zM15.5 45.5c0-.8.6-1.4 1.4-1.4H21c.8 0 1.4.6 1.4 1.4 0 .8-.6 1.4-1.4 1.4h-4.1c-.8-.1-1.4-.7-1.4-1.4zM12.7 37.3c-.8 0-1.4.6-1.4 1.4S12 40 12.7 40h1.4c.8 0 1.4-.6 1.4-1.4s-.6-1.4-1.4-1.4h-1.4zM33.4 38.6c-.8 0-1.4.6-1.4 1.4 0 .8.6 1.4 1.4 1.4h17.9c.8 0 1.4-.6 1.4-1.4 0-.8-.6-1.4-1.4-1.4H33.4zM32 45.5c0-.8.6-1.4 1.4-1.4h11c.8 0 1.4.6 1.4 1.4 0 .8-.6 1.4-1.4 1.4h-11c-.8 0-1.4-.7-1.4-1.4z"/><path class="st3" d="M35.5 28.9c-1.9 0-3.4 1.5-3.4 3.4s1.5 3.4 3.4 3.4 3.4-1.5 3.4-3.4c0-1.8-1.5-3.4-3.4-3.4zm-.7 3.5c0-.4.3-.7.7-.7.4 0 .7.3.7.7 0 .4-.3.7-.7.7-.4 0-.7-.3-.7-.7z"/></svg>