<svg width="64" height="64" viewBox="4 4 50 50" fill="none" xmlns="http://www.w3.org/2000/svg">
<path fill-rule="evenodd" clip-rule="evenodd" d="M4 7C4 6.19569 4.27096 5.43302 4.82391 4.86652C5.38053 4.29625 6.14972 4 7 4H45C45.8503 4 46.6195 4.29625 47.1761 4.86652C47.729 5.43302 48 6.19569 48 7V32C48 32.5523 47.5523 33 47 33C46.4477 33 46 32.5523 46 32V11H6V41C6 41.3557 6.11508 41.593 6.25514 41.7365C6.39154 41.8762 6.62236 42 7 42H32C32.5523 42 33 42.4477 33 43C33 43.5523 32.5523 44 32 44H7C6.14972 44 5.38053 43.7037 4.82391 43.1335C4.27096 42.567 4 41.8043 4 41V7ZM6 7C6 6.64434 6.11508 6.407 6.25514 6.2635C6.39154 6.12376 6.62236 6 7 6H45C45.3776 6 45.6085 6.12376 45.7449 6.2635C45.8849 6.407 46 6.64434 46 7V9H6V7Z" fill="#79B8FF"/>
<path d="M24 22C24 21.4477 24.4477 21 25 21H37C37.5523 21 38 21.4477 38 22C38 22.5523 37.5523 23 37 23H25C24.4477 23 24 22.5523 24 22Z" fill="#2188FF"/>
<path d="M24 27C24 26.4477 24.4477 26 25 26H33C33.5523 26 34 26.4477 34 27C34 27.5523 33.5523 28 33 28H25C24.4477 28 24 27.5523 24 27Z" fill="#2188FF"/>
<path fill-rule="evenodd" clip-rule="evenodd" d="M14 23C14 21.8954 14.8954 21 16 21H19C20.1046 21 21 21.8954 21 23V26C21 27.1046 20.1046 28 19 28H16C14.8954 28 14 27.1046 14 26V23ZM19 23H16V26H19V23Z" fill="#2188FF"/>
<path fill-rule="evenodd" clip-rule="evenodd" d="M12 16C10.3431 16 9 17.3431 9 19V30C9 31.6569 10.3431 33 12 33H40C41.6568 33 43 31.6569 43 30V19C43 17.3431 41.6568 16 40 16H12ZM11 19C11 18.4477 11.4477 18 12 18H40C40.5523 18 41 18.4477 41 19V30C41 30.5523 40.5523 31 40 31H12C11.4477 31 11 30.5523 11 30V19Z" fill="#2188FF"/>
<path d="M40 43.9734C40 43.4212 40.4477 42.9734 41 42.9734H43.0121V41C43.0121 40.4477 43.4598 40 44.0121 40C44.5644 40 45.0121 40.4477 45.0121 41V42.9734H47C47.5523 42.9734 48 43.4212 48 43.9734C48 44.5257 47.5523 44.9734 47 44.9734H45.0121V47C45.0121 47.5523 44.5644 48 44.0121 48C43.4598 48 43.0121 47.5523 43.0121 47V44.9734H41C40.4477 44.9734 40 44.5257 40 43.9734Z" fill="#2188FF"/>
<path fill-rule="evenodd" clip-rule="evenodd" d="M44.0492 35.0126C39.0786 35.0126 35.0492 39.042 35.0492 44.0126C35.0492 48.9831 39.0786 53.0126 44.0492 53.0126C49.0197 53.0126 53.0492 48.9831 53.0492 44.0126C53.0492 39.042 49.0197 35.0126 44.0492 35.0126ZM37.0492 44.0126C37.0492 40.1466 40.1832 37.0126 44.0492 37.0126C47.9152 37.0126 51.0492 40.1466 51.0492 44.0126C51.0492 47.8785 47.9152 51.0126 44.0492 51.0126C40.1832 51.0126 37.0492 47.8785 37.0492 44.0126Z" fill="#2188FF"/>
</svg>
