<?xml version="1.0" encoding="utf-8"?>
<!-- Generator: Adobe Illustrator 25.2.3, SVG Export Plug-In . SVG Version: 6.00 Build 0)  -->
<svg version="1.1" id="Layer_2" xmlns="http://www.w3.org/2000/svg" xmlns:xlink="http://www.w3.org/1999/xlink" x="0px" y="0px"
	 viewBox="0 0 67.7 67.7" style="enable-background:new 0 0 67.7 67.7;" xml:space="preserve">
<style type="text/css">
	.st0{fill-rule:evenodd;clip-rule:evenodd;fill:#9DF4D3;}
	.st1{fill:#9DF4D3;}
	.st2{fill-rule:evenodd;clip-rule:evenodd;fill:#64ACFF;}
</style>
<path class="st0" d="M1.4,6.6c0-2.9,2.3-5.2,5.2-5.2c2.4,0,4.5,1.7,5,3.9h39.1c5,0,9.1,4.1,9.1,9.1V52c0,0.7-0.6,1.3-1.3,1.3
	c-0.7,0-1.3-0.6-1.3-1.3V14.4c0-3.6-2.9-6.5-6.5-6.5H48c1.4,1.4,2.4,3.3,2.7,5.3c2.3,0.6,4,2.6,4,5c0,2.9-2.3,5.2-5.2,5.2
	c-2.9,0-5.2-2.3-5.2-5.2c0-2.4,1.6-4.4,3.8-5c-0.5-3.1-3.2-5.4-6.4-5.4h-30c-0.6,2.2-2.6,3.9-5,3.9C3.7,11.8,1.4,9.5,1.4,6.6z
	 M9.2,6.6C9.2,5.2,8,4,6.6,4C5.1,4,4,5.2,4,6.6c0,1.4,1.2,2.6,2.6,2.6C8,9.2,9.2,8.1,9.2,6.6z M49.4,15.7c-1.4,0-2.6,1.2-2.6,2.6
	c0,1.4,1.2,2.6,2.6,2.6s2.6-1.2,2.6-2.6C52,16.9,50.8,15.7,49.4,15.7z"/>
<path class="st1" d="M43.1,28.8c-0.7-0.1-1.4,0.4-1.4,1.1c-0.1,0.7,0.4,1.4,1.1,1.4c5.2,0.6,9.2,5,9.2,10.3C52,47.4,47.4,52,41.6,52
	c-5.3,0-9.7-4-10.3-9.2c-0.1-0.7-0.7-1.2-1.4-1.1c-0.7,0.1-1.2,0.7-1.1,1.4c0.7,6.5,6.2,11.5,12.9,11.5c7.2,0,13-5.8,13-13
	C54.6,35,49.6,29.5,43.1,28.8z"/>
<path class="st0" d="M46.8,39.1c0,1.4-0.6,2.7-1.5,3.6c1.4,0.9,2.5,2.3,2.8,4c0.1,0.7-0.4,1.4-1.1,1.5c-0.7,0.1-1.4-0.4-1.5-1.1
	c-0.2-1.5-1.8-2.8-3.9-2.8c-2.2,0-3.7,1.4-3.9,2.8c-0.1,0.7-0.7,1.2-1.5,1.1c-0.7-0.1-1.2-0.7-1.1-1.5c0.2-1.7,1.3-3.1,2.7-4
	c-0.5-0.5-0.9-1.1-1.1-1.8c-0.2-0.6-0.3-1.2-0.3-1.8c0-2.9,2.3-5.2,5.2-5.2c0.6,0,1.2,0.1,1.7,0.3C45.4,34.9,46.8,36.8,46.8,39.1z
	 M41.6,36.5c-1.4,0-2.6,1.2-2.6,2.6c0,0.3,0.1,0.6,0.2,0.9c0.4,1,1.3,1.7,2.4,1.7c1.4,0,2.6-1.2,2.6-2.6c0-1.1-0.7-2.1-1.7-2.4
	C42.2,36.5,41.9,36.5,41.6,36.5z"/>
<path class="st2" d="M20.9,23.5c0-2.9,2.3-5.2,5.2-5.2c2.9,0,5.2,2.3,5.2,5.2c0,1.4-0.6,2.7-1.5,3.6c1.4,0.9,2.5,2.3,2.8,4
	c0.1,0.7-0.4,1.4-1.1,1.5c-0.7,0.1-1.4-0.4-1.5-1.1c-0.2-1.5-1.8-2.8-3.9-2.8c-2.2,0-3.7,1.4-3.9,2.8c-0.1,0.7-0.7,1.2-1.5,1.1
	c-0.7-0.1-1.2-0.7-1.1-1.5c0.2-1.7,1.3-3.1,2.7-4C21.4,26.2,20.9,24.9,20.9,23.5z M26,20.9c-1.4,0-2.6,1.2-2.6,2.6
	c0,1.4,1.2,2.6,2.6,2.6c1.4,0,2.6-1.2,2.6-2.6C28.6,22.1,27.5,20.9,26,20.9z"/>
<path class="st2" d="M26,13.1c-7.2,0-13,5.8-13,13c0,7.2,5.8,13,13,13c7.2,0,13-5.8,13-13C39,18.9,33.2,13.1,26,13.1z M15.7,26.1
	c0-5.7,4.6-10.4,10.4-10.4c5.7,0,10.4,4.6,10.4,10.4c0,5.7-4.6,10.4-10.4,10.4C20.3,36.5,15.7,31.8,15.7,26.1z"/>
<path class="st2" d="M13.1,49.5c0-2.9,2.3-5.2,5.2-5.2c2.9,0,5.2,2.3,5.2,5.2c0,2.4-1.6,4.4-3.8,5c0.5,3.1,3.2,5.4,6.4,5.4h30
	c0.6-2.2,2.6-3.9,5-3.9c2.9,0,5.2,2.3,5.2,5.2c0,2.9-2.3,5.2-5.2,5.2c-2.4,0-4.5-1.7-5-3.9H17c-5,0-9.1-4.1-9.1-9.1V15.7
	c0-0.7,0.6-1.3,1.3-1.3c0.7,0,1.3,0.6,1.3,1.3v37.6c0,3.6,2.9,6.5,6.5,6.5h2.7c-1.4-1.4-2.4-3.3-2.7-5.3
	C14.8,53.9,13.1,51.9,13.1,49.5z M18.3,52c1.4,0,2.6-1.2,2.6-2.6c0-1.4-1.2-2.6-2.6-2.6c-1.4,0-2.6,1.2-2.6,2.6
	C15.7,50.9,16.8,52,18.3,52z M61.1,63.7c-1.4,0-2.6-1.2-2.6-2.6s1.2-2.6,2.6-2.6c1.4,0,2.6,1.2,2.6,2.6S62.5,63.7,61.1,63.7z"/>
</svg>
