<svg id="Layer_2" data-name="Layer 2" xmlns="http://www.w3.org/2000/svg" viewBox="0 0 67.7 67.7"><path d="M33.85,0A33.87,33.87,0,0,1,67.18,39.78a1.41,1.41,0,0,1-1.63,1.14,1.42,1.42,0,0,1-1.15-1.64,30.3,30.3,0,0,0,.48-5.43,31,31,0,1,0-24.6,30.36A1.41,1.41,0,0,1,40.86,67a33.85,33.85,0,1,1-7-67Z" transform="translate(0 0)" fill="#79b8ff"/><path d="M28.21,11.28A5.65,5.65,0,0,0,26.8,22.39V45.31a5.64,5.64,0,1,0,2.82,0V44a2.45,2.45,0,0,0,0-.27,9,9,0,0,1,.8-2.89,6.83,6.83,0,0,1,2.13-3,19.22,19.22,0,0,1,5.86-2.3,8.7,8.7,0,0,0,6-4.56,5.65,5.65,0,1,0-3-.45,6.24,6.24,0,0,1-3.67,2.27A21.83,21.83,0,0,0,31,35.49a6.69,6.69,0,0,0-1.4,1.26V22.39a5.65,5.65,0,0,0-1.41-11.11Zm-2.82,5.65a2.82,2.82,0,1,1,2.82,2.82A2.83,2.83,0,0,1,25.39,16.93ZM40.9,25.39a2.82,2.82,0,1,1,2.82,2.82A2.82,2.82,0,0,1,40.9,25.39ZM25.39,50.77a2.82,2.82,0,1,1,2.82,2.83A2.82,2.82,0,0,1,25.39,50.77Z" transform="translate(0 0)" fill="#79b8ff" fill-rule="evenodd"/><path d="M59.24,56.41a2.81,2.81,0,0,1-1.39,2.43V60.7a1.41,1.41,0,1,1-2.82,0V58.86a2.82,2.82,0,1,1,4.21-2.45Z" transform="translate(0 0)" fill="#9df4d3"/><path d="M63.47,45v3a4.23,4.23,0,0,1,4.23,4.24V63.47a4.23,4.23,0,0,1-4.23,4.23H49.36a4.23,4.23,0,0,1-4.23-4.23V52.19A4.24,4.24,0,0,1,49.36,48V45a6.76,6.76,0,0,1,2.17-4.8,6.81,6.81,0,0,1,9.72-.06A6.72,6.72,0,0,1,63.47,45ZM52.18,45a4,4,0,0,1,1.31-2.77,4.36,4.36,0,0,1,2.94-1.28,4.41,4.41,0,0,1,2.89,1.24A3.93,3.93,0,0,1,60.65,45v3H52.18ZM48,52.19a1.42,1.42,0,0,1,1.41-1.42H63.47a1.42,1.42,0,0,1,1.41,1.42V63.47a1.41,1.41,0,0,1-1.41,1.41H49.36A1.41,1.41,0,0,1,48,63.47Z" transform="translate(0 0)" fill="#9df4d3" fill-rule="evenodd"/></svg>