<svg fill="none" height="138" viewBox="0 0 138 138" width="138" xmlns="http://www.w3.org/2000/svg"><g stroke="#fff"><path d="m69.4901.999927-.0001-.5-.5.000073c-13.0485.001912-25.825 3.73067-36.8261 10.7476-11.0012 7.0168-19.7694 17.0299-25.27291 28.8609-5.50349 11.8311-7.513328 24.988-5.79301 37.9226 1.72032 12.9346 7.09922 25.1089 15.50382 35.0899 8.4045 9.981 19.4851 17.355 31.9379 21.252s25.7598 4.157 38.3552.748c12.5953-3.408 23.9551-10.344 32.7421-19.99 8.788-9.645 14.638-21.6006 16.861-34.4582l.085-.4927-.492-.0852-36.4542-6.3042-.4933-.0853-.0847.4934c-2.4672 14.3681-14.9867 25.3012-30.0588 25.3012-16.8447 0-30.5-13.6553-30.5-30.5 0-16.8432 13.6529-30.4976 30.4956-30.5l.5-.0001-.0001-.5z" fill="#e6dcfd"/><path d="m124.596 29.828.407-.291-.291-.4066c-6.341-8.8584-14.703-16.0768-24.392-21.05608-9.6893-4.97931-20.4263-7.575914-31.3201-7.574319l-.5.000073.0001.499996.0054 37.13863.0001.5h.4999.0044c10.1816 0 19.1981 4.9885 24.7388 12.6568l.2916.4035.4047-.2897z" fill="#d1bcf9"/><path d="m136.122 58.0965.493-.0838-.083-.4929c-1.741-10.2374-5.786-19.9452-11.83-28.3893l-.291-.4066-.407.291-30.1507 21.5813-.4084.2924.2941.4071c2.6521 3.6704 4.507 7.954 5.3118 12.5974l.0851.4911.4913-.0835z" fill="#b392f0"/><path d="m99.357 72.1117-.0479.4949.4946.0506 36.7913 3.768.498.0509.051-.4974c.63-6.1524.424-12.3619-.613-18.459l-.084-.493-.492.0838-36.4955 6.2042-.4945.084.0857.4943c.2953 1.7039.4493 3.4566.4493 5.2456 0 1.0033-.0484 1.995-.143 2.9731z" fill="#8a63d2"/><path d="m99.9056 71.6625-.5002-.0513-.0484.5005c-.062.6406-.1438 1.2754-.2447 1.9037l-.0789.4909.4905.0817 36.4711 6.0711.493.0821.082-.4932c.236-1.4167.427-2.8405.574-4.2693l.051-.4974-.498-.0509z" fill="#6f42c1"/><path d="m99.6881 73.6016-.496-.0826-.0797.4965c-.0102.0632-.0205.1263-.0311.1894l-.082.4904.49.0848 36.4307 6.3002.493.0852.085-.4927c.025-.1415.049-.2831.072-.4247l.083-.4933-.494-.0821z" fill="#5a32a3"/></g></svg>