<svg width="200" height="200" viewBox="0 0 200 200" fill="none" xmlns="http://www.w3.org/2000/svg">
<path d="M33.9717 101.225C28.8609 84.0885 33.888 59.6983 38.6136 47.6188C60.1757 26.3561 92.2152 17.8135 112.277 21.3346C132.339 24.8557 108.266 -5.51712 124.88 0.8912C156.613 10.9615 155.046 39.6713 156.622 41.1797C177.122 60.8049 183.078 78.6036 183.078 108.071C183.078 127.489 165.866 126.371 172.251 146.251C174.197 152.307 161.291 175.271 151.638 142.597C141.986 109.923 137.23 106.34 129.613 97.8913C97.2752 62.0229 51.3361 84.4481 33.9717 101.225Z" fill="#6036FB"/>
<path d="M33.2109 52.1425C24.3414 78.0434 23.8005 108.389 43.6237 121.026C55.2506 128.438 68.8991 93.0194 102.554 117.943C105.509 123.063 89.3341 115.877 67.2992 148.299C62.5914 155.226 57.317 153.957 55.6736 151.416C57.1584 154.191 59.9903 159.053 55.6446 165.447C49.8173 174.021 43.1694 180.648 43.6945 194.423C44.4711 214.797 14.7769 174.607 30.1181 150.033C20.9792 134.204 4.36337 91.6355 33.2109 52.1425Z" fill="#6036FB"/>
</svg>
