<svg xmlns="http://www.w3.org/2000/svg" width="95" height="88" viewBox="0 0 25.135 23.283"><path fill="#080808" d="M10.319 14.552h4.496v4.231h-4.496z"/><path fill="#00a2e8" d="M15.612 14.554h4.496v4.231h-4.496zM5.029 14.552h4.496v4.231H5.029z"/><path fill="#080808" d="M10.321 9.527h4.496v4.231h-4.496zM15.61 9.525h4.496v4.231H15.61z"/><path fill="#00a2e8" d="M5.029 9.527h4.496v4.231H5.029zM5.029 4.497h4.496v4.231H5.029zM10.319 4.497h4.496v4.231h-4.496zM15.61 4.497h4.496v4.231H15.61z"/><path d="M1.323 1.323V21.96h4.762v-2.116h-2.38V3.44h2.38V1.323h-2.38zM19.05 1.323V3.44h2.381v16.404H19.05v2.116h4.763V1.323H21.43z" fill="#080808"/></svg>