<svg width="32" height="32" viewBox="0 0 32 32" fill="none" xmlns="http://www.w3.org/2000/svg">
<path fill-rule="evenodd" clip-rule="evenodd" d="M27.0953 1C23.4413 1 19.9252 2.39556 17.2658 4.90143L15.5265 6.54034C14.8081 7.21725 14.1223 7.92685 13.4712 8.66667H6.75492C5.93531 8.66667 5.17579 9.0967 4.75411 9.79951L1.14251 15.8188C0.976113 16.0962 0.954113 16.4368 1.08346 16.7333C1.2128 17.0297 1.47751 17.2453 1.79399 17.3119L7.88943 18.5951C7.94103 18.6609 7.99815 18.7234 8.0607 18.7821L10.722 21.2796L13.2179 23.9394C13.2766 24.0019 13.3392 24.059 13.4049 24.1106L14.6881 30.206C14.7547 30.5225 14.9703 30.7872 15.2667 30.9165C15.5632 31.0459 15.9038 31.0239 16.1812 30.8575L22.2005 27.2459C22.9033 26.8242 23.3333 26.0647 23.3333 25.2451V18.5287C24.0735 17.8772 24.7835 17.1909 25.4607 16.4721L27.0981 14.7339C29.6043 12.0735 30.9996 8.55624 30.9985 4.90128L30.998 3.33265C30.9977 2.04425 29.9531 1 28.6647 1H27.0953ZM21.3333 20.1496C20.8898 20.4801 20.4374 20.7992 19.9766 21.1064L15.4514 24.1232L16.356 28.4202L21.1715 25.5309C21.2719 25.4707 21.3333 25.3622 21.3333 25.2451V20.1496ZM7.8769 16.5487L10.8946 12.0221C11.2015 11.5617 11.5202 11.1098 11.8504 10.6667H6.75492C6.63784 10.6667 6.52933 10.7281 6.46909 10.8285L3.57979 15.644L7.8769 16.5487ZM18.6374 6.35704C20.9257 4.20083 23.9512 3 27.0953 3H28.6647C28.8488 3 28.998 3.14918 28.998 3.33324L28.9985 4.90187C28.9994 8.04683 27.7989 11.0733 25.6424 13.3625L24.0049 15.1007C22.4625 16.738 20.7388 18.1945 18.8672 19.4423L14.4832 22.3649L12.1587 19.8879C12.1442 19.8724 12.1292 19.8575 12.1138 19.843L9.63512 17.5169L12.5587 13.1315C13.8059 11.2607 15.2617 9.53783 16.898 7.99595L18.6374 6.35704ZM23.3333 10.6667C23.3333 11.7712 22.4379 12.6667 21.3333 12.6667C20.2288 12.6667 19.3333 11.7712 19.3333 10.6667C19.3333 9.5621 20.2288 8.66667 21.3333 8.66667C22.4379 8.66667 23.3333 9.5621 23.3333 10.6667ZM8.66648 28.0002C9.86626 26.8004 9.8663 24.5333 8.66651 23.3336C7.46672 22.1338 5.1996 22.1337 3.99981 23.3335C2.38809 24.9452 2.07316 28.5352 2.01339 29.6578C2.00338 29.8459 2.15414 29.9966 2.34216 29.9866C3.46486 29.9268 7.05501 29.6117 8.66648 28.0002Z" fill="currentColor"/>
</svg>
