<svg id="Layer_3" data-name="Layer 3" xmlns="http://www.w3.org/2000/svg" viewBox="0 0 67.7 67.7"><path d="M37.3,5.53a1.38,1.38,0,1,0-1.38,1.38A1.38,1.38,0,0,0,37.3,5.53Z" transform="translate(0 0)" fill="#79b8ff"/><path d="M37.32,13.82a1.38,1.38,0,0,1,1.38-1.39H63.56a4.15,4.15,0,0,1,4.14,4.15v47a4.15,4.15,0,0,1-4.14,4.14H11.05a4.14,4.14,0,0,1-4.14-4.14V34.61a1.38,1.38,0,1,1,2.76,0v29a1.38,1.38,0,0,0,1.38,1.38H63.56a1.38,1.38,0,0,0,1.38-1.38V22.11H38.69a1.39,1.39,0,1,1,0-2.77H64.94V16.58a1.38,1.38,0,0,0-1.38-1.38H38.7A1.38,1.38,0,0,1,37.32,13.82Z" transform="translate(0 0)" fill="#79b8ff"/><path d="M38.69,26.25a1.38,1.38,0,1,0,0,2.76h2.77a1.38,1.38,0,1,0,0-2.76Z" transform="translate(0 0)" fill="#79b8ff"/><path d="M45.57,27.63A1.38,1.38,0,0,1,47,26.25h4.21a1.38,1.38,0,1,1,0,2.76H47A1.38,1.38,0,0,1,45.57,27.63Z" transform="translate(0 0)" fill="#79b8ff"/><path d="M56.65,26.25a1.38,1.38,0,1,0,0,2.76h4.13a1.38,1.38,0,0,0,0-2.76Z" transform="translate(0 0)" fill="#79b8ff"/><path d="M13.82,33.16a1.38,1.38,0,1,0,0,2.76H26.25a1.38,1.38,0,0,0,0-2.76Z" transform="translate(0 0)" fill="#79b8ff"/><path d="M48.36,51.12A1.39,1.39,0,1,0,47,52.5,1.38,1.38,0,0,0,48.36,51.12Z" transform="translate(0 0)" fill="#79b8ff"/><path d="M44.21,55.27a1.38,1.38,0,1,0-1.38,1.38A1.38,1.38,0,0,0,44.21,55.27Z" transform="translate(0 0)" fill="#79b8ff"/><path d="M48.36,55.27A1.39,1.39,0,1,0,47,56.65,1.38,1.38,0,0,0,48.36,55.27Z" transform="translate(0 0)" fill="#79b8ff"/><path d="M52.5,51.12a1.38,1.38,0,1,0-1.38,1.38A1.38,1.38,0,0,0,52.5,51.12Z" transform="translate(0 0)" fill="#79b8ff"/><path d="M52.5,55.27a1.38,1.38,0,1,0-1.38,1.38A1.38,1.38,0,0,0,52.5,55.27Z" transform="translate(0 0)" fill="#79b8ff"/><path d="M56.65,51.12a1.39,1.39,0,1,0-1.38,1.38A1.38,1.38,0,0,0,56.65,51.12Z" transform="translate(0 0)" fill="#79b8ff"/><path d="M56.65,55.27a1.39,1.39,0,1,0-1.38,1.38A1.38,1.38,0,0,0,56.65,55.27Z" transform="translate(0 0)" fill="#79b8ff"/><path d="M35.92,49.74a4.15,4.15,0,0,1,4.15-4.15H58a4.14,4.14,0,0,1,4.14,4.15v6.91A4.14,4.14,0,0,1,58,60.79h-18a4.14,4.14,0,0,1-4.15-4.14Zm4.15-1.38a1.38,1.38,0,0,0-1.38,1.38v6.91A1.38,1.38,0,0,0,40.07,58H58a1.38,1.38,0,0,0,1.38-1.38V49.74A1.38,1.38,0,0,0,58,48.36Z" transform="translate(0 0)" fill="#79b8ff" fill-rule="evenodd"/><path d="M13.82,38.69a1.38,1.38,0,1,0,0,2.76h6.9a1.38,1.38,0,1,0,0-2.76Z" transform="translate(0 0)" fill="#79b8ff"/><path d="M13.82,44.21a1.39,1.39,0,1,0,0,2.77h6.9a1.39,1.39,0,1,0,0-2.77Z" transform="translate(0 0)" fill="#79b8ff"/><path d="M41.45,34.54a1.38,1.38,0,0,1,1.38-1.38H59.41a2.76,2.76,0,0,1,2.76,2.76v2.77a2.76,2.76,0,0,1-2.76,2.76H40.07a1.38,1.38,0,0,1,0-2.76H59.41V35.92H42.83A1.38,1.38,0,0,1,41.45,34.54Z" transform="translate(0 0)" fill="#79b8ff"/><path d="M4.14,30.4a1.38,1.38,0,1,1-1.38,1.38A1.38,1.38,0,0,1,4.14,30.4Z" transform="translate(0 0)" fill="#79b8ff"/><path d="M5.06,1A1.38,1.38,0,0,0,2.4,1c-.21.77-.33.92-.39,1s-.22.18-1,.39A1.39,1.39,0,0,0,1,5.05c.78.21.94.33,1,.39s.18.21.4,1a1.38,1.38,0,0,0,2.66,0c.21-.76.33-.92.39-1s.22-.18,1-.4a1.38,1.38,0,0,0,0-2.66c-.77-.21-.94-.33-1-.39A2.43,2.43,0,0,1,5.06,1Z" transform="translate(0 0)" fill="#9df3d3"/><path d="M36.84,31.4a1.38,1.38,0,0,0-1.34-1,1.36,1.36,0,0,0-1.32,1,2.52,2.52,0,0,1-.39,1c-.06.06-.22.19-1,.4a1.39,1.39,0,0,0,0,2.67c.78.21.94.33,1,.39s.18.21.39,1a1.38,1.38,0,0,0,1.34,1,1.36,1.36,0,0,0,1.32-1,2.64,2.64,0,0,1,.39-1c.06-.06.22-.18,1-.39a1.39,1.39,0,0,0,0-2.67c-.78-.21-.94-.33-1-.39S37.05,32.16,36.84,31.4Z" transform="translate(0 0)" fill="#9df3d3"/><path d="M24.87,15.89a4.78,4.78,0,0,1-1.2,3.18,5.87,5.87,0,0,1,2.58,4.29,1.39,1.39,0,0,1-2.76.26A3.36,3.36,0,0,0,20,20.72a3.37,3.37,0,0,0-3.46,2.9,1.38,1.38,0,0,1-2.75-.26,5.87,5.87,0,0,1,2.58-4.29,4.78,4.78,0,0,1-1.2-3.18,4.84,4.84,0,1,1,9.67,0ZM20,13.82a2.07,2.07,0,1,0,2.08,2.07A2.07,2.07,0,0,0,20,13.82Z" transform="translate(0 0)" fill="#9df3d3" fill-rule="evenodd"/><path d="M6.91,11.05a4.14,4.14,0,0,1,4.14-4.14H29a4.14,4.14,0,0,1,4.15,4.14V24.87A4.14,4.14,0,0,1,29,29h-18a4.14,4.14,0,0,1-4.14-4.14Zm4.14-1.38a1.38,1.38,0,0,0-1.38,1.38V24.87a1.38,1.38,0,0,0,1.38,1.38H29a1.38,1.38,0,0,0,1.39-1.38V11.05A1.38,1.38,0,0,0,29,9.67Z" transform="translate(0 0)" fill="#9df3d3" fill-rule="evenodd"/><path d="M44.21,51.12a1.38,1.38,0,1,0-1.38,1.38A1.38,1.38,0,0,0,44.21,51.12Z" transform="translate(0 0)" fill="#9df3d3"/></svg>