<svg fill="none" height="230" viewBox="0 0 136 230" width="136" xmlns="http://www.w3.org/2000/svg"><path d="m14.1943 226h1.274v-4.032h4.844v-1.106h-4.844v-3.906h5.404v-1.162h-6.678zm7.2286-10.206 3.808 6.076v4.13h1.26v-4.13l3.836-6.076h-1.526l-1.568 2.632-1.302 2.24h-.098l-1.288-2.226-1.582-2.646zm13.0964 9.114c-.658 0-1.386.028-1.974.084.196-1.204 1.61-2.03 2.87-2.94 1.176-.868 2.212-1.82 2.212-3.402 0-1.68-1.204-2.87-3.066-2.87-1.946 0-3.262 1.246-3.192 3.108h1.218c-.07-1.218.63-2.016 1.904-2.016 1.12 0 1.862.644 1.862 1.806 0 1.19-.826 1.89-1.806 2.59-1.582 1.134-3.304 2.156-3.304 4.382v.35h6.51v-1.092zm8.3328 1.176c1.946 0 3.458-1.61 3.458-5.166 0-3.528-1.498-5.138-3.458-5.138-1.988 0-3.486 1.596-3.486 5.138 0 3.556 1.498 5.166 3.486 5.166zm-.028-1.092c-1.456 0-2.184-1.428-2.184-4.088 0-2.562.686-4.046 2.198-4.046 1.442 0 2.184 1.386 2.184 4.074 0 2.548-.686 4.06-2.198 4.06zm-.63-3.5h1.218v-1.12h-1.218z" fill="#707a84"/><path d="m91.3427 226h1.274v-4.032h4.844v-1.106h-4.844v-3.906h5.404v-1.162h-6.678zm7.2286-10.206 3.8077 6.076v4.13h1.26v-4.13l3.836-6.076h-1.526l-1.568 2.632-1.302 2.24h-.098l-1.288-2.226-1.582-2.646zm13.0967 9.114c-.658 0-1.386.028-1.974.084.196-1.204 1.61-2.03 2.87-2.94 1.176-.868 2.212-1.82 2.212-3.402 0-1.68-1.204-2.87-3.066-2.87-1.946 0-3.262 1.246-3.192 3.108h1.218c-.07-1.218.63-2.016 1.904-2.016 1.12 0 1.862.644 1.862 1.806 0 1.19-.826 1.89-1.806 2.59-1.582 1.134-3.304 2.156-3.304 4.382v.35h6.51v-1.092zm4.636-6.328h2.646v7.42h1.204v-10.094h-1.12c-.168 1.106-1.064 1.75-2.422 1.75h-.308z" fill="#707a84"/><path d="m0 70v135h60v-135z" fill="#eaeef2"/><path d="m76 55v150h60v-150z" fill="#bce5ff"/><g fill="#24292f"><path d="m93.4705 76.14c2.016 0 3.444-1.19 3.444-2.968 0-.994-.476-1.974-1.652-2.366v-.084c1.022-.448 1.498-1.288 1.498-2.268 0-1.708-1.442-2.674-3.206-2.674-1.96 0-3.346 1.246-3.332 3.192h1.498c.014-1.218.672-1.904 1.792-1.904.966 0 1.736.518 1.736 1.512 0 .91-.616 1.638-1.848 1.638h-.77v1.176h.826c1.19 0 1.946.658 1.946 1.722 0 1.05-.77 1.75-1.918 1.75-1.092 0-1.876-.63-1.834-1.946h-1.498c-.028 1.932 1.218 3.22 3.318 3.22zm5.1889-.14h1.7076v-1.904h-1.7076zm7.0126.084c2.03 0 3.556-1.652 3.556-5.166 0-3.458-1.484-5.138-3.542-5.138-2.044 0-3.584 1.638-3.584 5.138 0 3.472 1.498 5.166 3.57 5.166zm-.014-1.288c-1.33 0-2.03-1.274-2.03-3.92 0-2.38.602-3.808 2.044-3.808 1.302 0 2.03 1.218 2.03 3.892 0 2.38-.602 3.836-2.044 3.836zm-.658-3.276h1.288v-1.176h-1.288zm5.865-3.318c0 1.526 1.022 2.562 2.478 2.562 1.484 0 2.492-1.036 2.492-2.548s-.994-2.534-2.492-2.534c-1.47 0-2.478 1.022-2.478 2.52zm1.82 7.798h1.036l6.468-10.206h-1.036zm-.714-7.798c0-.924.56-1.568 1.372-1.568.84 0 1.4.644 1.4 1.568 0 .938-.56 1.596-1.4 1.596-.826 0-1.372-.658-1.372-1.596zm4.886 5.376c0 1.526 1.008 2.562 2.492 2.562 1.47 0 2.464-1.05 2.464-2.548s-.98-2.562-2.464-2.562c-1.498 0-2.492 1.064-2.492 2.548zm1.092 0c0-.924.56-1.582 1.4-1.582.812 0 1.386.658 1.386 1.582 0 .938-.574 1.596-1.386 1.596-.826 0-1.4-.658-1.4-1.596z"/><path d="m18.4129 90.712c-.658 0-1.4.042-2.03.098.266-1.092 1.624-1.862 2.786-2.702 1.19-.868 2.198-1.82 2.198-3.388 0-1.736-1.26-2.94-3.164-2.94-2.002 0-3.346 1.274-3.29 3.178h1.456c-.07-1.162.588-1.89 1.75-1.89 1.036 0 1.736.602 1.736 1.666 0 1.134-.812 1.792-1.764 2.478-1.638 1.148-3.29 2.156-3.29 4.438v.35h6.692v-1.288zm4.6361 1.288h1.708v-1.904h-1.708zm3.079-7.014h1.204v-1.806h3.822c-1.792 2.59-3.29 5.992-3.766 8.82h1.568c.532-2.982 2.114-6.496 3.948-9.058v-1.036h-6.776zm8.047-.784c0 1.526 1.022 2.562 2.478 2.562 1.484 0 2.492-1.036 2.492-2.548s-.994-2.534-2.492-2.534c-1.47 0-2.478 1.022-2.478 2.52zm1.82 7.798h1.036l6.468-10.206h-1.036zm-.714-7.798c0-.924.56-1.568 1.372-1.568.84 0 1.4.644 1.4 1.568 0 .938-.56 1.596-1.4 1.596-.826 0-1.372-.658-1.372-1.596zm4.886 5.376c0 1.526 1.008 2.562 2.492 2.562 1.47 0 2.464-1.05 2.464-2.548s-.98-2.562-2.464-2.562c-1.498 0-2.492 1.064-2.492 2.548zm1.092 0c0-.924.56-1.582 1.4-1.582.812 0 1.386.658 1.386 1.582 0 .938-.574 1.596-1.386 1.596-.826 0-1.4-.658-1.4-1.596z"/></g></svg>