<svg fill="none" height="23" viewBox="0 0 20 23" width="20" xmlns="http://www.w3.org/2000/svg"><path clip-rule="evenodd" d="m10.54.0853979c-.351-.1138639-.729-.1138639-1.08 0l-8.25 2.6750021c-.351565.11405-.657994.33648-.875362.6354-.217367.29893-.33451084.659-.334638 1.0286v5.024c0 6.19 3.77 10.705 9.401 12.83.386.145.812.145 1.198 0 5.63-2.126 9.401-6.64 9.401-12.83v-5.024c0-.759-.49-1.43-1.21-1.664z" fill="#000" fill-rule="evenodd"/><path d="m14.53 9.22858c.1325-.14218.2046-.33022.2012-.52452-.0034-.19431-.0821-.37969-.2195-.5171-.1375-.13742-.3228-.21613-.5171-.21956s-.3824.0687-.5246.20118l-4.46997 4.47002-1.97-1.97c-.14218-.1325-.33022-.2046-.52452-.2012s-.37969.0821-.5171.2196c-.13742.1374-.21613.3228-.21956.5171-.00342.1943.0687.3823.20118.5245l2.5 2.5c.14063.1404.33125.2193.53.2193s.38937-.0789.53-.2193z" fill="#fff"/></svg>