<svg width="200" height="200" viewBox="0 0 200 200" fill="none" xmlns="http://www.w3.org/2000/svg">
<rect width="200" height="200" fill="#171721"/>
<path d="M144.844 103.496C143.426 114.525 139.102 121.104 132.981 121.547C130.907 121.566 128.857 121.09 126.993 120.156C125.129 119.223 123.502 117.858 122.241 116.169C126.762 112.905 130.573 108.712 133.431 103.857C136.29 99.0015 138.133 93.5897 138.844 87.9648C114.365 95.4426 89.0459 99.6419 63.5168 100.458C66.4796 106.757 70.9699 112.17 76.5574 116.177C66.7316 127.748 61.4573 142.657 61.7625 158H72.0804C71.8363 146.059 75.6273 134.4 82.8101 125C81.2659 135.939 80.2957 146.954 79.9037 157.999H98.2224C98.2224 157.999 94.8625 143.749 100.333 143.737C105.802 143.749 102.442 157.999 102.442 157.999H120.761C120.398 147.565 119.509 137.157 118.097 126.817C120.136 128.501 122.426 129.839 124.878 130.778C127.696 131.858 130.706 132.311 133.707 132.107C136.412 131.9 139.046 131.122 141.445 129.824C143.844 128.526 145.956 126.735 147.65 124.562C151.505 119.84 154.002 113.218 155.074 104.881L144.844 103.496Z" fill="white"/>
<path d="M102.113 100.16C138.501 94.087 166.83 81.7874 165.387 72.6885C163.944 63.5896 133.276 61.1369 96.8873 67.2102C60.4988 73.2836 32.1698 85.5832 33.6127 94.6821C35.0557 103.781 65.7242 106.234 102.113 100.16Z" fill="url(#paint0_linear_2001_26747)"/>
<path d="M135.241 65.1012C131.09 56.2677 123.979 49.2617 115.208 45.364C106.437 41.4663 96.5908 40.9371 87.4705 43.8733C78.3501 46.8095 70.5645 53.0148 65.5366 61.355C60.5088 69.6952 58.5747 79.6131 60.0879 89.2957C62.0073 101.476 140.682 89.0215 138.671 76.263C138.057 72.3926 136.902 68.6333 135.241 65.1012V65.1012Z" fill="white"/>
<defs>
<linearGradient id="paint0_linear_2001_26747" x1="33.5596" y1="83.6856" x2="165.44" y2="83.6856" gradientUnits="userSpaceOnUse">
<stop offset="0.0817" stop-color="#82FFE8"/>
<stop offset="0.9512" stop-color="#7C47FC"/>
</linearGradient>
</defs>
</svg>
