<?xml version="1.0" encoding="UTF-8"?>
<svg id="_레이어_2" data-name="레이어 2" xmlns="http://www.w3.org/2000/svg" xmlns:xlink="http://www.w3.org/1999/xlink" viewBox="0 0 200 200">
  <defs>
    <style>
      .cls-1 {
        fill: #0366d6;
      }

      .cls-2 {
        clip-path: url(#clippath);
      }

      .cls-3 {
        fill: none;
      }
    </style>
    <clipPath id="clippath">
      <rect class="cls-3" width="200" height="200"/>
    </clipPath>
  </defs>
  <g id="Layer_2" data-name="Layer 2">
    <g class="cls-2">
      <g>
        <polygon class="cls-1" points="119.8 119.33 121.32 113.61 98.16 90.45 92.44 91.97 90.92 90.45 85.05 96.32 115.45 126.72 121.32 120.85 119.8 119.33"/>
        <g>
          <rect class="cls-1" x="134.62" y="85.27" width="7.47" height="7.24" transform="translate(-22.33 123.87) rotate(-45)"/>
          <rect class="cls-1" x="127.23" y="77.6" width="7.47" height="7.24" transform="translate(-19.07 116.39) rotate(-45)"/>
          <rect class="cls-1" x="119.55" y="69.92" width="7.47" height="7.24" transform="translate(-15.89 108.71) rotate(-45)"/>
          <polygon class="cls-1" points="105.8 79.2 109.01 82.41 104.86 86.57 109.98 91.68 114.13 87.53 116.69 90.09 112.53 94.24 117.65 99.36 121.81 95.21 124.37 97.77 120.21 101.92 125.33 107.04 129.49 102.88 132.43 105.83 137.49 100.77 110.86 74.15 105.8 79.2"/>
          <polygon class="cls-1" points="154.26 81.04 156.53 78.77 151.13 73.37 148.86 75.64 145.22 72.01 147.49 69.74 142.09 64.35 139.83 66.61 136.25 63.03 138.52 60.76 133.13 55.37 130.86 57.64 129.24 56.03 124.13 61.14 150.75 87.77 155.87 82.65 154.26 81.04"/>
        </g>
        <path class="cls-1" d="M65.53,126.18l-20.89-18.06c-1.56-1.56-1.56-4.09,0-5.66l7.85-7.85c1.56-1.56,4.09-1.56,5.66,0l18.06,20.89-10.68,10.68Z"/>
        <path class="cls-1" d="M62.29,133.91c-1.56-1.56-1.56-4.09,0-5.66l27.16-29.99,24.05,24.05-29.99,27.16c-1.56,1.56-4.09,1.56-5.79-.14l-15.43-15.43Z"/>
      </g>
    </g>
  </g>
</svg>