<svg height="16" viewBox="0 0 16 16" width="16"><path d="m1.75 16c-.966499 0-1.75-.7835-1.75-1.75v-12.5c0-.9665.783502-1.75 1.75-1.75h12.5c.9665 0 1.75.7835 1.75 1.75v12.5c0 .9665-.7835 1.75-1.75 1.75zm12.75-11.16663v-3.08337c0-.1381-.1119-.25-.25-.25h-7.91675v3.33337zm-8.16675 1.5h8.16675v3.33332h-8.16675zm-1.5-1.5v-3.33337h-3.08325c-.13807 0-.25.1119-.25.25v3.08337zm-3.33325 1.5h3.33325v3.33332h-3.33325zm0 7.91663v-3.0833h3.33325v3.3333h-3.08325c-.13807 0-.25-.1119-.25-.25zm4.83325.25v-3.3333h8.16675v3.0833c0 .1381-.1119.25-.25.25z" fill="currentColor" fill-rule="evenodd"/></svg>
