<?xml version="1.0" encoding="utf-8"?>
<!-- Generator: Adobe Illustrator 23.0.2, SVG Export Plug-In . SVG Version: 6.00 Build 0)  -->
<svg version="1.1" id="Layer_1" xmlns="http://www.w3.org/2000/svg" xmlns:xlink="http://www.w3.org/1999/xlink" x="0px" y="0px"
	 width="2596px" height="946.6px" viewBox="0 0 2596 946.6" style="enable-background:new 0 0 2596 946.6;" xml:space="preserve">
<path d="M723.5,731.5c-34.2,0-81.2-7.8-81.2-83.7c0-119.6,0-209,0-328.6c0-40-23-76.9-76.9-76.9
	c-24.5,0-470.2,0-565.4,0"/>
<path d="M1952.3,523.4c2.8-19.8,7.8-59.3,50.2-59.3H2596"/>
<path d="M1873.8,0.3v239.6c0,0-0.8,70.2,79,70.2"/>
<path d="M2596,844.5h-763.4c0,0-70.2,0.7-70.2-72.2"/>
<path d="M1953.8,238.1c-1,10.3-1.4,23.1-1.4,39c0,58.9,0,352.7,0,411.6c0,75.9-85.2,83.7-118.1,83.7
	c-134.5,0-335.3,0-469.8,0c-52.1,0-66.8,45.6-66.8,83.5v90.8"/>
<path d="M2054.3,1.5c0,76.1,0,49.3,0,108.2c0,60.3-100.5,45.5-100.5,128.3"/>
<path d="M0,605.2c0,0,343.5,0,438.9,0S509,731.5,616.2,731.5s472.1,0,612.1,0c54.2,0,69.5,55.7,69.5,93.5v121.4"/>
<path d="M578.1,243c-32-5-67.7-8.5-67.7-84.4c0-58.9,0-82.5,0-158.6"/>
</svg>
