<?xml version="1.0" encoding="UTF-8"?><svg id="_图层_2" xmlns="http://www.w3.org/2000/svg" xmlns:xlink="http://www.w3.org/1999/xlink" viewBox="0 0 199 199"><defs><style>.cls-1{fill:none;}.cls-2{fill:url(#linear-gradient);}.cls-3{fill:#fff;}</style><linearGradient id="linear-gradient" x1="5948.38" y1="-6336.54" x2="5952.81" y2="-6341.06" gradientTransform="translate(-181488 -138084.32) scale(30.52 -21.8)" gradientUnits="userSpaceOnUse"><stop offset="0" stop-color="#e30c34"/><stop offset="1" stop-color="#b7062c"/></linearGradient></defs><g id="Layer_1"><rect class="cls-1" width="199" height="199"/><path id="Path_4369" class="cls-2" d="m156.96,61.68c-18.22-31.73-58.72-42.68-90.45-24.46-17.07,9.81-28.9,26.7-32.28,46.09C10.45,88.83-4.36,112.58,1.15,136.36c4.64,20.04,22.51,34.23,43.08,34.23,1.5,0,2.99-.08,4.48-.23h90.55c1.48.12,2.97.23,4.48.23,30.52,0,55.25-24.74,55.25-55.25,0-25.42-17.35-47.57-42.04-53.65h0Z"/><g id="Group_1793"><path id="Path_4370" class="cls-3" d="m99.44,62.99l-34.23,19.77v19.76l17.12-9.89v39.78l17.11,9.87h0v-59.53l17.11-9.88-17.11-9.87Z"/><path id="Path_4371" class="cls-3" d="m116.65,92.73v39.66l17.18-9.92v-39.67l-17.18,9.93Z"/></g></g></svg>