<svg fill="none" xmlns="http://www.w3.org/2000/svg" viewBox="0 0 500 500"><path d="M460.311 162.257c8.714 22.845 20.534 54.074 21.913 78.067 1.38 23.992-5.53 57.507-12.718 81.873-7.188 24.371-19.563 59.037-35.198 80.589-15.636 21.552-44.665 49.369-69.036 63.097-24.366 13.724-64.729 26.786-93.427 28.406-28.698 1.615-70.079-7.344-97.896-17.621-27.817-10.278-64.536-31.061-87.55-50.899-23.008-19.838-53.803-53.537-65.85-81.354C8.5 316.599 5.466 271.298 6.072 240.324c.606-30.975 5.972-75.094 18.514-102.417 12.542-27.327 41.76-61.906 65.09-79.75 23.336-17.845 63.145-31.93 90.468-39.216 27.327-7.288 65.138-11.649 91.7-9.363 26.562 2.286 62.543 12.83 85.388 24.594 22.846 11.769 51.453 34.636 66.917 53.847 15.46 19.214 27.452 51.392 36.161 74.238Z" stroke="url(#a)" stroke-opacity=".55"/><path d="M460.38 162.231c8.701 22.841 20.405 54.1 21.771 78.093 1.367 23.992-5.469 57.507-12.653 81.869-7.185 24.362-19.598 59.006-35.238 80.546-15.64 21.543-44.655 49.335-69.018 63.062-24.362 13.733-64.699 26.829-93.397 28.47-28.698 1.642-70.122-7.235-97.935-17.517-27.812-10.278-64.502-31.151-87.485-51.011-22.978-19.863-53.674-53.58-65.726-81.392C8.65 316.538 5.497 271.286 6.094 240.324c.598-30.962 6.05-75.059 18.592-102.378 12.547-27.318 41.721-61.885 65.04-79.742 23.317-17.857 63.088-32.02 90.406-39.298 27.318-7.283 65.151-11.537 91.713-9.242 26.562 2.294 62.534 12.787 85.376 24.543 22.845 11.755 51.444 34.618 66.921 53.82 15.472 19.206 27.537 51.359 36.238 74.204Z" stroke="url(#b)" stroke-opacity=".55"/><path d="M460.59 162.141c8.675 22.841 20.006 54.177 21.337 78.183 1.332 24.005-5.289 57.515-12.46 81.856-7.171 24.341-19.7 58.912-35.349 80.417-15.653 21.505-44.638 49.214-68.979 62.955-24.341 13.745-64.592 26.941-93.294 28.659-28.702 1.719-70.238-6.917-98.038-17.199-27.8-10.282-64.399-31.427-87.296-51.355-22.893-19.932-53.288-53.7-65.34-81.499-12.052-27.8-15.584-72.924-15.008-103.834.575-30.911 6.281-74.952 18.836-102.245 12.56-27.297 41.61-61.838 64.872-79.73 23.262-17.89 62.921-32.285 90.218-39.546 27.297-7.261 65.193-11.184 91.756-8.86 26.562 2.325 62.495 12.65 85.332 24.367 22.841 11.717 51.423 34.571 66.934 53.747 15.511 19.176 27.808 51.247 36.479 74.084Z" stroke="url(#c)" stroke-opacity=".55"/><path d="M460.922 162.008c8.628 22.828 19.365 54.293 20.637 78.316 1.276 24.022-4.988 57.532-12.138 81.839-7.154 24.306-19.864 58.753-35.53 80.206-15.665 21.449-44.604 49.039-68.91 62.805-24.306 13.767-64.433 27.13-93.135 28.973-28.702 1.843-70.445-6.398-98.223-16.693-27.782-10.29-64.227-31.886-86.982-51.925-22.751-20.045-52.652-53.907-64.704-81.689C9.88 316.057 5.747 271.157 6.284 240.324c.537-30.834 6.66-74.772 19.232-102.034 12.577-27.258 41.416-61.752 64.592-79.704 23.177-17.951 62.646-32.728 89.909-39.96 27.258-7.23 65.262-10.638 91.829-8.262 26.566 2.376 62.435 12.444 85.268 24.11 22.828 11.66 51.371 34.51 66.942 53.639 15.572 19.129 28.238 51.062 36.866 73.895Z" stroke="url(#d)" stroke-opacity=".55"/><path d="M461.36 161.823c8.563 22.82 18.523 54.456 19.722 78.501 1.194 24.044-4.61 57.545-11.734 81.809-7.124 24.259-20.079 58.551-35.766 79.927-15.687 21.38-44.557 48.798-68.816 62.59-24.259 13.797-64.214 27.383-92.92 29.385-28.707 2.007-70.703-5.719-98.455-16.027-27.752-10.303-63.995-32.483-86.561-52.669-22.562-20.19-51.814-54.172-63.866-81.925-12.057-27.752-16.985-72.365-16.495-103.09.485-30.726 7.154-74.531 19.747-101.742 12.598-27.211 41.167-61.64 64.223-79.665 23.056-18.025 62.276-33.304 89.487-40.5 27.211-7.198 65.357-9.917 91.92-7.477 26.562 2.44 62.358 12.16 85.177 23.748 22.82 11.588 51.311 34.425 66.96 53.498 15.653 19.069 28.814 50.817 37.377 73.637Z" stroke="url(#e)" stroke-opacity=".55"/><path d="M461.866 161.612c8.491 22.807 17.531 54.641 18.639 78.712 1.105 24.07-4.163 57.562-11.257 81.766-7.094 24.203-20.328 58.306-36.036 79.6-15.709 21.295-44.488 48.527-68.696 62.367-24.203 13.835-63.961 27.688-92.671 29.879-28.711 2.196-71.012-4.937-98.725-15.266-27.718-10.325-63.716-33.205-86.046-53.575-22.334-20.367-50.796-54.491-62.84-82.209-12.047-27.714-17.9-71.974-17.465-102.562.434-30.589 7.738-74.222 20.353-101.368 12.62-27.147 40.849-61.486 63.754-79.6 22.906-18.12 61.808-34.01 88.955-41.176 27.147-7.167 65.452-9.113 92.014-6.6 26.562 2.51 62.272 11.838 85.079 23.344 22.807 11.507 51.225 34.352 66.964 53.357 15.743 19 29.488 50.524 37.978 73.331Z" stroke="url(#f)" stroke-opacity=".55"/><path d="M462.387 161.398c8.417 22.794 16.495 54.83 17.509 78.926 1.014 24.095-3.7 57.571-10.759 81.718-7.06 24.148-20.581 58.049-36.312 79.262-15.73 21.212-44.41 48.264-68.553 62.151-24.148 13.887-63.708 28.028-92.427 30.421-28.719 2.389-71.346-4.129-99.026-14.48-27.679-10.355-63.415-33.982-85.504-54.542-22.09-20.56-49.713-54.839-61.748-82.518C13.537 314.656 6.722 270.77 7.1 240.324c.378-30.447 8.348-73.895 20.985-100.969 12.637-27.077 40.51-61.322 63.252-79.54 22.746-18.214 61.309-34.752 88.387-41.893 27.074-7.14 65.555-8.288 92.121-5.702 26.567 2.587 62.191 11.516 84.98 22.94 22.79 11.425 51.122 34.293 66.956 53.228 15.833 18.936 30.188 50.22 38.606 73.01Z" stroke="url(#g)" stroke-opacity=".55"/><path d="M462.915 161.178c8.339 22.773 15.412 55.024 16.327 79.146.911 24.121-3.218 57.58-10.243 81.663s-20.848 57.769-36.595 78.896c-15.748 21.122-44.316 47.998-68.399 61.937-24.083 13.938-63.437 28.392-92.16 30.987-28.724 2.6-71.699-3.278-99.336-13.667-27.636-10.386-63.084-34.812-84.907-55.574-21.818-20.766-48.544-55.208-60.553-82.845-12.01-27.636-19.83-71.11-19.507-101.397.322-30.288 8.993-73.517 21.642-100.513 12.654-26.996 40.136-61.13 62.702-79.446 22.566-18.321 60.742-35.56 87.739-42.68 26.991-7.123 65.653-7.45 92.22-4.794 26.566 2.66 62.108 11.176 84.877 22.519 22.772 11.347 50.997 34.244 66.925 53.111 15.932 18.863 30.932 49.889 39.268 72.657Z" stroke="url(#h)" stroke-opacity=".55"/><path d="M463.375 160.989c8.267 22.743 14.394 55.196 15.215 79.335.816 24.138-2.763 57.575-9.754 81.598-6.986 24.023-21.075 57.503-36.836 78.557-15.756 21.058-44.191 47.8-68.214 61.812-24.023 14.007-63.2 28.792-91.941 31.589-28.74 2.797-72.068-2.505-99.666-12.941-27.593-10.441-62.758-35.667-84.305-56.644-21.548-20.972-47.376-55.59-59.346-83.188-11.967-27.593-20.71-70.659-20.44-100.783.275-30.125 9.608-73.126 22.261-100.032 12.658-26.906 39.745-60.914 62.122-79.343 22.377-18.428 60.145-36.384 87.051-43.508 26.906-7.128 65.757-6.737 92.323-4.013 26.567 2.724 62.049 10.896 84.796 22.184 22.742 11.287 50.83 34.27 66.839 53.077 16.01 18.806 31.632 49.554 39.895 72.3Z" stroke="url(#i)" stroke-opacity=".55"/><path d="M463.771 160.826c8.202 22.721 13.487 55.346 14.217 79.498.735 24.151-2.376 57.558-9.332 81.521-6.956 23.967-21.282 57.253-37.042 78.247-15.76 20.994-44.063 47.638-68.025 61.713-23.967 14.081-62.99 29.167-91.743 32.14-28.754 2.969-72.395-1.843-99.942-12.336-27.55-10.493-62.439-36.453-83.725-57.619-21.286-21.165-46.276-55.938-58.19-83.485-11.91-27.55-21.462-70.225-21.226-100.181.236-29.957 10.145-72.718 22.794-99.529 12.654-26.812 39.362-60.687 61.55-79.21 22.184-18.527 59.544-37.14 86.355-44.294 26.812-7.154 65.817-6.175 92.384-3.4 26.566 2.772 62.005 10.644 84.726 21.888 22.717 11.245 50.658 34.322 66.737 53.082 16.082 18.755 32.259 49.244 40.462 71.965Z" stroke="url(#j)" stroke-opacity=".55"/><path d="M464.041 160.714c8.15 22.691 12.765 55.454 13.422 79.61.662 24.156-2.096 57.52-9.027 81.431-6.93 23.911-21.428 57.025-37.175 77.985-15.752 20.955-43.899 47.581-67.81 61.735-23.916 14.157-62.84 29.535-91.606 32.642-28.766 3.106-72.683-1.367-100.182-11.932-27.503-10.566-62.122-37.18-83.158-58.521-21.037-21.338-45.262-56.248-57.09-83.752-11.83-27.498-21.978-69.799-21.763-99.588.215-29.789 10.578-72.288 23.202-98.992 12.624-26.708 38.975-60.42 60.962-79.038 21.986-18.613 58.916-37.84 85.62-45.064 26.704-7.227 65.842-5.882 92.409-3.089 26.566 2.793 62.006 10.471 84.696 21.707 22.691 11.236 50.457 34.468 66.582 53.197 16.126 18.73 32.767 48.978 40.918 71.669Z" stroke="url(#k)" stroke-opacity=".55"/><path d="M464.161 160.663c8.12 22.665 12.288 55.509 12.898 79.661.61 24.151-1.929 57.468-8.838 81.34-6.909 23.873-21.501 56.859-37.227 77.809-15.721 20.955-43.727 47.629-67.6 61.868-23.872 14.24-62.761 29.863-91.549 33.059-28.788 3.201-72.915-1.091-100.38-11.738-27.46-10.652-61.868-37.773-82.703-59.256-20.834-21.484-44.453-56.51-56.188-83.975-11.73-27.46-22.244-69.464-22.029-99.107.21-29.643 10.87-71.91 23.456-98.519C46.59 115.199 72.65 81.629 94.46 62.939c21.814-18.687 58.362-38.413 84.967-45.73 26.609-7.317 65.851-5.835 92.418-3.042 26.566 2.793 62.04 10.406 84.7 21.668 22.666 11.262 50.242 34.679 66.384 53.404 16.143 18.725 33.111 48.763 41.232 71.424Z" stroke="url(#l)" stroke-opacity=".55"/><path d="M464.126 160.676c8.108 22.635 12.057 55.513 12.637 79.648.576 24.134-1.891 57.399-8.787 81.242-6.896 23.838-21.505 56.729-37.192 77.697-15.687 20.963-43.551 47.758-67.389 62.078-23.843 14.321-62.745 30.146-91.55 33.39-28.805 3.24-73.078-1.04-100.5-11.781-27.417-10.742-61.64-38.237-82.299-59.828-20.654-21.595-43.805-56.708-55.419-84.125-11.614-27.421-22.244-69.168-22.016-98.673.232-29.506 11.025-71.532 23.555-98.034 12.533-26.506 38.343-59.913 59.99-78.655 21.647-18.747 57.816-38.864 84.323-46.306 26.502-7.446 65.799-6.08 92.366-3.313 26.566 2.763 62.104 10.424 84.735 21.742 22.631 11.313 50.009 34.95 66.143 53.687 16.13 18.738 33.3 48.6 41.403 71.231Z" stroke="url(#m)" stroke-opacity=".55"/><path d="M463.924 160.762c8.112 22.596 12.07 55.457 12.637 79.562.567 24.104-1.96 57.309-8.843 81.134-6.888 23.821-21.423 56.661-37.055 77.684-15.635 21.02-43.336 48.05-67.157 62.466-23.825 14.415-62.826 30.403-91.662 33.639-28.835 3.231-73.198-1.238-100.585-12.087-27.387-10.853-61.469-38.584-81.99-60.261-20.517-21.677-43.332-56.863-54.804-84.25-11.472-27.387-21.943-68.94-21.673-98.325.27-29.386 11.026-71.175 23.477-97.578 12.456-26.404 38.06-59.656 59.553-78.445 21.487-18.794 57.305-39.225 83.712-46.839 26.403-7.613 65.74-6.634 92.31-3.922 26.571 2.71 62.225 10.587 84.822 22.011 22.596 11.421 49.73 35.35 65.821 54.13 16.087 18.781 33.325 48.484 41.437 71.081Z" stroke="url(#n)" stroke-opacity=".55"/><path d="M463.783 160.822c8.112 22.562 12.009 55.423 12.559 79.502.554 24.078-2.011 57.219-8.877 81.027-6.866 23.808-21.329 56.6-36.9 77.693-15.576 21.092-43.105 48.441-66.913 62.925-23.808 14.484-62.955 30.476-91.807 33.639-28.853 3.166-73.207-1.59-100.547-12.542-27.34-10.957-61.314-38.77-81.71-60.485-20.397-21.716-42.942-56.953-54.255-84.288-11.318-27.34-21.505-68.713-21.187-97.969.322-29.257 10.974-70.776 23.322-97.084 12.35-26.305 37.691-59.432 59.007-78.286 21.316-18.85 56.794-39.59 83.098-47.393 26.305-7.803 65.692-7.287 92.272-4.627 26.579 2.66 62.362 10.815 84.924 22.36 22.562 11.55 49.433 35.791 65.486 54.62 16.052 18.827 33.411 48.346 41.528 70.908Z" stroke="url(#o)" stroke-opacity=".55"/><path d="M463.709 160.852c8.108 22.527 11.851 55.414 12.375 79.472.52 24.057-2.041 57.124-8.881 80.919-6.845 23.795-21.222 56.532-36.724 77.715-15.503 21.182-42.83 48.956-66.625 63.501-23.795 14.544-63.144 30.416-92.009 33.462-28.866 3.047-73.143-2.092-100.423-13.156-27.28-11.06-61.168-38.851-81.435-60.584-20.272-21.728-42.555-57.013-53.692-84.288-11.137-27.28-20.933-68.455-20.55-97.569.377-29.115 10.874-70.312 23.09-96.517 12.21-26.201 37.21-59.239 58.323-78.17 21.11-18.935 56.218-40.032 82.424-48.059 26.201-8.026 65.662-8.069 92.263-5.465 26.601 2.604 62.547 11.12 85.074 22.824 22.528 11.704 49.09 36.32 65.108 55.204 16.018 18.888 33.575 48.183 41.682 70.711Z" stroke="url(#p)" stroke-opacity=".55"/><path d="M463.702 160.856c8.099 22.493 11.592 55.423 12.087 79.468.489 24.044-2.007 57.034-8.804 80.829-6.798 23.791-21.093 56.493-36.522 77.788-15.43 21.294-42.542 49.583-66.337 64.171-23.791 14.587-63.402 30.206-92.28 33.089-28.878 2.883-73.018-2.712-100.242-13.866-27.228-11.158-61.082-38.799-81.255-60.515-20.169-21.719-42.262-57.047-53.219-84.275-10.96-27.224-20.289-68.24-19.842-97.221.447-28.982 10.755-69.869 22.815-95.993 12.057-26.124 36.673-59.127 57.585-78.165 20.907-19.043 55.698-40.505 81.822-48.764 26.124-8.258 65.696-8.855 92.336-6.29 26.639 2.57 62.753 11.515 85.246 23.404 22.494 11.889 48.716 36.904 64.709 55.853 15.988 18.953 33.802 47.994 41.901 70.487Z" stroke="url(#q)" stroke-opacity=".55"/><path d="M463.749 160.835c8.082 22.458 11.257 55.453 11.708 79.489.456 24.035-1.942 56.948-8.696 80.739-6.75 23.786-20.964 56.446-36.32 77.856-15.352 21.41-42.241 50.263-66.032 64.876-23.786 14.613-63.686 29.858-92.564 32.539-28.878 2.681-72.811-3.425-99.967-14.669-27.155-11.245-60.991-38.632-81.07-60.304-20.074-21.677-41.996-57.035-52.768-84.19-10.771-27.159-19.562-68.008-19.047-96.847.516-28.84 10.605-69.379 22.49-95.421 11.884-26.043 36.057-59.037 56.75-78.192 20.693-19.15 55.157-40.995 81.199-49.49 26.042-8.498 65.739-9.693 92.413-7.162 26.674 2.531 62.968 11.945 85.427 24.027 22.459 12.083 48.321 37.506 64.296 56.515 15.971 19.013 34.099 47.775 42.181 70.234Z" stroke="url(#r)" stroke-opacity=".55"/><path d="M463.834 160.8c8.069 22.425 10.875 55.496 11.283 79.524.408 24.027-1.856 56.862-8.555 80.653-6.703 23.791-20.83 56.42-36.105 77.959-15.27 21.544-41.927 51.019-65.718 65.649-23.795 14.635-64.008 29.45-92.894 31.908-28.887 2.453-72.585-4.198-99.675-15.533-27.091-11.335-60.936-38.412-80.929-60.033-19.988-21.626-41.764-57.022-52.346-84.112-10.583-27.091-18.79-67.789-18.197-96.491.589-28.702 10.433-68.889 22.137-94.859 11.7-25.969 35.409-58.989 55.878-78.273 20.474-19.279 54.624-41.523 80.594-50.271 25.969-8.748 65.812-10.557 92.538-8.06 26.725 2.5 63.208 12.43 85.633 24.723 22.424 12.292 47.912 38.159 63.866 57.24 15.953 19.082 34.425 47.548 42.49 69.976Z" stroke="url(#s)" stroke-opacity=".55"/><path d="M463.994 160.732c8.043 22.398 10.445 55.569 10.801 79.592.353 24.022-1.778 56.78-8.434 80.571-6.651 23.791-20.714 56.373-35.916 78.028-15.202 21.656-41.631 51.724-65.422 66.35-23.79 14.63-64.308 28.947-93.178 31.16-28.869 2.212-72.283-4.989-99.292-16.397-27.009-11.407-60.859-38.111-80.77-59.651-19.906-21.543-41.566-56.944-51.964-83.953-10.398-27.009-18.016-67.548-17.354-96.108.662-28.561 10.256-68.387 21.771-94.279 11.511-25.891 34.743-58.937 54.99-78.341 20.25-19.4 54.103-42.005 79.995-50.993 25.892-8.993 65.856-11.4 92.624-8.938 26.769 2.458 63.432 12.856 85.827 25.342 22.398 12.486 47.547 38.744 63.492 57.89 15.949 19.142 34.786 47.328 42.83 69.727Z" stroke="url(#t)" stroke-opacity=".55"/><path d="M464.225 160.637c8.018 22.382 9.999 55.659 10.287 79.687.292 24.027-1.736 56.703-8.353 80.49-6.617 23.782-20.629 56.304-35.762 78.062-15.133 21.759-41.342 52.39-65.129 66.994-23.782 14.609-64.579 28.419-93.423 30.386-28.844 1.973-71.948-5.774-98.867-17.251-26.915-11.472-60.751-37.794-80.572-59.243-19.825-21.449-41.36-56.832-51.573-83.751-10.213-26.914-17.256-67.282-16.525-95.687.73-28.406 10.076-67.862 21.402-93.668C57.032 120.85 79.782 87.791 99.8 68.279c20.019-19.51 53.559-42.468 79.365-51.702 25.806-9.233 65.873-12.245 92.68-9.84 26.807 2.407 63.656 13.222 86.037 25.88 22.382 12.654 47.225 39.289 63.174 58.495 15.954 19.202 35.152 47.143 43.169 69.525Z" stroke="url(#u)" stroke-opacity=".55"/><path d="M464.47 160.534c7.991 22.373 9.586 55.758 9.813 79.79.232 24.031-1.693 56.643-8.284 80.421-6.587 23.778-20.56 56.248-35.637 78.097-15.077 21.844-41.102 52.961-64.88 67.544-23.778 14.583-64.82 27.928-93.638 29.681-28.818 1.753-71.643-6.466-98.48-17.99-26.837-11.528-60.669-37.489-80.421-58.852-19.752-21.363-41.201-56.729-51.264-83.566-10.059-26.833-16.598-67.063-15.808-95.335.79-28.273 9.917-67.42 21.076-93.157 11.162-25.733 33.497-58.813 53.317-78.424 19.825-19.605 53.107-42.863 78.845-52.303 25.737-9.436 65.89-12.972 92.735-10.613 26.846 2.359 63.854 13.53 86.226 26.33 22.373 12.8 46.968 39.753 62.93 59.011 15.958 19.258 35.478 46.993 43.47 69.366Z" stroke="url(#v)" stroke-opacity=".55"/><path d="M464.74 160.422c7.966 22.373 9.2 55.866 9.363 79.902.163 24.035-1.697 56.587-8.271 80.352-6.579 23.761-20.534 56.167-35.564 78.071-15.034 21.9-40.892 53.408-64.657 67.948-23.765 14.544-64.992 27.443-93.767 28.994-28.775 1.556-71.312-7.081-98.05-18.647-26.743-11.563-60.545-37.184-80.22-58.448C73.9 397.329 52.537 362.01 42.62 335.272c-9.921-26.743-16.014-66.814-15.176-94.948.842-28.135 9.775-66.973 20.779-92.629 11.008-25.651 32.955-58.723 52.591-78.401 19.636-19.684 52.661-43.187 78.316-52.807 25.651-9.62 65.851-13.63 92.714-11.335s64.008 13.724 86.381 26.631c22.373 12.903 46.783 40.106 62.758 59.402 15.979 19.297 35.787 46.869 43.757 69.237Z" stroke="url(#w)" stroke-opacity=".55"/><path d="M465.029 160.302c7.945 22.381 8.877 55.973 8.976 80.022.099 24.048-1.74 56.544-8.319 80.292-6.578 23.748-20.529 56.081-35.529 78.019-15 21.939-40.728 53.731-64.476 68.232-23.744 14.501-65.108 27.052-93.836 28.444-28.728 1.392-71.029-7.571-97.681-19.163-26.652-11.597-60.407-36.947-80.009-58.134-19.606-21.183-40.883-56.442-50.688-83.094-9.8-26.653-15.55-66.582-14.673-94.596.88-28.015 9.663-66.591 20.542-92.169 10.88-25.574 32.513-58.615 51.99-78.35 19.477-19.735 52.274-43.431 77.848-53.206 25.578-9.775 65.791-14.18 92.671-11.958 26.88 2.226 64.146 13.814 86.527 26.786 22.382 12.971 46.679 40.359 62.68 59.69 15.997 19.33 36.037 46.808 43.977 69.185Z" stroke="url(#x)" stroke-opacity=".55"/><path d="M465.338 160.177c7.918 22.399 8.619 56.089 8.649 80.147.03 24.057-1.852 56.51-8.456 80.228-6.604 23.717-20.586 55.96-35.572 77.886-14.987 21.926-40.621 53.842-64.339 68.283-23.718 14.441-65.117 26.725-93.776 27.997-28.659 1.272-70.736-7.91-97.29-19.515-26.553-11.606-60.205-36.759-79.73-57.86-19.52-21.101-40.706-56.261-50.417-82.81-9.71-26.554-15.231-66.324-14.325-94.209.902-27.886 9.577-66.225 20.358-91.709 10.776-25.484 32.17-58.448 51.504-78.192 19.335-19.743 51.904-43.55 77.388-53.442 25.488-9.886 65.641-14.609 92.512-12.477 26.872 2.13 64.223 13.719 86.622 26.69 22.403 12.972 46.692 40.441 62.719 59.79 16.031 19.343 36.234 46.79 44.153 69.193Z" stroke="url(#y)" stroke-opacity=".55"/><path d="M465.712 160.023c7.893 22.441 8.43 56.23 8.378 80.301-.051 24.07-2.058 56.484-8.718 80.163-6.66 23.675-20.697 55.806-35.688 77.676-14.991 21.866-40.574 53.743-64.249 68.111-23.674 14.368-65.017 26.489-93.59 27.688-28.573 1.199-70.462-8.086-96.904-19.692-26.442-11.605-59.947-36.646-79.373-57.67-19.43-21.024-40.505-56.046-50.146-82.488-9.646-26.442-15.06-66.032-14.145-93.788.915-27.757 9.534-65.886 20.242-91.262 10.707-25.377 31.933-58.203 51.143-77.92 19.211-19.723 51.552-43.57 76.928-53.538 25.381-9.968 65.413-14.94 92.255-12.929 26.841 2.011 64.257 13.432 86.698 26.335 22.442 12.907 46.834 40.355 62.908 59.707 16.074 19.352 36.363 46.864 44.261 69.306Z" stroke="url(#z)" stroke-opacity=".55"/><path d="M466.013 159.898c7.889 22.485 8.448 56.338 8.349 80.426-.099 24.087-2.277 56.51-9.015 80.15-6.732 23.645-20.856 55.685-35.877 77.474-15.017 21.793-40.608 53.511-64.249 67.802-23.644 14.291-64.884 26.304-93.375 27.464-28.492 1.161-70.226-8.159-96.573-19.743-26.352-11.58-59.737-36.526-79.094-57.481-19.356-20.955-40.333-55.866-49.945-82.213-9.611-26.352-15.047-65.796-14.14-93.453.907-27.658 9.513-65.658 20.186-90.949 10.673-25.286 31.843-57.966 50.98-77.637 19.138-19.67 51.303-43.487 76.593-53.507 25.286-10.024 65.185-15.214 91.993-13.306 26.807 1.903 64.248 13.182 86.733 26.003 22.484 12.826 47.057 40.144 63.17 59.492 16.117 19.344 36.371 46.993 44.264 69.478Z" stroke="url(#A)" stroke-opacity=".55"/><path d="M466.219 159.812c7.928 22.532 8.783 56.403 8.676 80.512-.108 24.108-2.553 56.596-9.393 80.215-6.84 23.619-21.118 55.56-36.204 77.237-15.086 21.677-40.746 53.116-64.365 67.282-23.619 14.162-64.704 26.038-93.088 27.147-28.384 1.112-69.903-8.216-96.151-19.752-26.249-11.533-59.548-36.286-78.836-57.142-19.288-20.856-40.14-55.651-49.743-81.899-9.603-26.249-15.159-65.525-14.278-93.088.877-27.564 9.483-65.469 20.147-90.656C63.65 124.48 84.85 92.002 103.93 72.408c19.082-19.592 51.071-43.289 76.258-53.36C205.376 8.972 245.094 3.459 271.845 5.26c26.752 1.796 64.159 13.049 86.691 25.776 22.532 12.727 47.379 39.748 63.531 59.066 16.151 19.318 36.229 47.174 44.152 69.71Z" stroke="url(#B)" stroke-opacity=".55"/><path d="M466.387 159.743c7.987 22.588 9.383 56.437 9.306 80.581-.073 24.143-2.84 56.763-9.805 80.374-6.969 23.61-21.453 55.479-36.642 77.027-15.189 21.547-40.999 52.608-64.61 66.616-23.61 14.011-64.515 25.715-92.791 26.777-28.277 1.061-69.559-8.254-95.718-19.714-26.158-11.459-59.436-35.937-78.677-56.686-19.24-20.744-39.972-55.453-49.596-81.616-9.625-26.158-15.404-65.288-14.57-92.778.833-27.491 9.452-65.375 20.134-90.476s32.015-57.365 51.079-76.872c19.065-19.503 50.912-43.027 76.013-53.15 25.106-10.123 64.64-16.049 91.335-14.343 26.695 1.706 64.034 13.075 86.626 25.707 22.592 12.637 47.796 39.242 63.982 58.526 16.19 19.279 35.946 47.435 43.934 70.027Z" stroke="url(#C)" stroke-opacity=".55"/><path d="M466.481 159.705c8.078 22.648 10.222 56.437 10.209 80.619-.013 24.181-3.171 56.982-10.291 80.588-7.119 23.607-21.861 55.398-37.183 76.782-15.318 21.389-41.33 51.969-64.936 65.787-23.606 13.814-64.292 25.321-92.435 26.322-28.144 1.001-69.143-8.28-95.202-19.645-26.06-11.36-59.333-35.495-78.527-56.106-19.193-20.611-39.778-55.23-49.437-81.289-9.664-26.06-15.744-65.026-14.966-92.439.774-27.413 9.414-65.297 20.126-90.3 10.716-25.007 32.247-57.013 51.303-76.404 19.06-19.386 50.756-42.675 75.763-52.845 25.003-10.174 64.326-16.585 90.94-14.974 26.614 1.607 63.845 13.178 86.497 25.707 22.648 12.525 48.286 38.585 64.506 57.812 16.22 19.228 35.555 47.732 43.633 70.385Z" stroke="url(#D)" stroke-opacity=".55"/><path d="M466.619 159.644c8.176 22.726 11.167 56.451 11.227 80.68.06 24.229-3.528 57.24-10.819 80.846-7.292 23.606-22.326 55.333-37.798 76.537-15.473 21.205-41.734 51.23-65.344 64.82-23.606 13.591-64.043 24.852-92.04 25.789-27.997.933-68.674-8.305-94.622-19.554-25.948-11.249-59.225-34.988-78.372-55.445-19.15-20.452-39.576-54.976-49.283-80.924-9.702-25.948-16.125-64.742-15.42-92.069.704-27.327 9.366-65.22 20.117-90.124 10.75-24.903 32.495-56.639 51.551-75.905 19.061-19.262 50.598-42.293 75.502-52.523 24.904-10.23 63.991-17.191 90.527-15.687 26.537 1.508 63.647 13.31 86.368 25.724 22.725 12.413 48.854 37.854 65.117 57.03 16.258 19.176 35.108 48.085 43.289 70.805Z" stroke="url(#E)" stroke-opacity=".55"/><path d="M466.726 159.602c8.293 22.798 12.259 56.437 12.426 80.722.168 24.285-3.85 57.554-11.313 81.181-7.463 23.632-22.807 55.338-38.455 76.357-15.649 21.019-42.237 50.426-65.869 63.772-23.632 13.345-63.81 24.332-91.67 25.2-27.86.868-68.21-8.293-94.067-19.413-25.858-11.115-59.192-34.416-78.316-54.714-19.125-20.297-39.414-54.748-49.185-80.606-9.775-25.857-16.59-64.502-15.97-91.777.618-27.276 9.306-65.233 20.104-90.064 10.802-24.83 32.818-56.32 51.904-75.467 19.086-19.146 50.52-41.897 75.351-52.183 24.826-10.286 63.716-17.814 90.179-16.392 26.464 1.426 63.45 13.565 86.248 25.883 22.802 12.315 49.459 37.098 65.752 56.223 16.298 19.124 34.584 48.479 42.881 71.278Z" stroke="url(#F)" stroke-opacity=".55"/><path d="M466.829 159.559c8.418 22.875 13.376 56.419 13.651 80.765.275 24.345-4.176 57.872-11.82 81.525-7.644 23.649-23.301 55.333-39.134 76.155-15.834 20.817-42.77 49.562-66.419 62.641-23.653 13.08-63.557 23.761-91.262 24.556-27.705.795-67.703-8.28-93.453-19.262-25.75-10.982-59.122-33.819-78.217-53.945-19.094-20.126-39.229-54.487-49.064-80.237-9.84-25.75-17.054-64.227-16.52-91.433.532-27.207 9.233-65.216 20.078-89.956 10.844-24.745 33.114-55.973 52.222-74.999 19.107-19.026 50.417-41.489 75.158-51.831 24.744-10.338 63.41-18.446 89.796-17.11 26.386 1.337 63.23 13.81 86.106 26.017 22.876 12.207 50.074 36.303 66.406 55.367 16.331 19.069 34.051 48.871 42.472 71.747Z" stroke="url(#G)" stroke-opacity=".55"/><path d="M467.04 159.473c8.534 22.965 14.42 56.437 14.803 80.851.378 24.413-4.456 58.216-12.268 81.903-7.807 23.688-23.773 55.402-39.8 76.026-16.027 20.624-43.362 48.673-67.05 61.473-23.688 12.795-63.32 23.129-90.879 23.847-27.559.713-67.201-8.25-92.852-19.086-25.651-10.837-59.075-33.21-78.148-53.163-19.069-19.959-39.075-54.233-48.978-79.88-9.909-25.652-17.505-63.97-17.058-91.12.442-27.151 9.134-65.216 20.014-89.896 10.875-24.676 33.368-55.702 52.497-74.63 19.129-18.926 50.344-41.145 75.024-51.547 24.681-10.402 63.171-19.06 89.501-17.805 26.33 1.25 63.071 14.046 86.037 26.162 22.97 12.113 50.705 35.573 67.076 54.603 16.374 19.03 33.548 49.291 42.081 72.262Z" stroke="url(#H)" stroke-opacity=".55"/><path d="M467.297 159.365c8.632 23.056 15.331 56.476 15.795 80.959.468 24.482-4.71 58.529-12.68 82.251-7.966 23.718-24.216 55.458-40.432 75.884-16.211 20.427-43.938 47.788-67.66 60.296-23.718 12.508-63.071 22.467-90.476 23.09-27.404.628-66.676-8.219-92.207-18.918-25.531-10.699-58.968-32.621-77.998-52.398-19.025-19.782-38.898-53.937-48.853-79.468-9.96-25.531-17.883-63.664-17.526-90.737.356-27.074 9.027-65.147 19.915-89.75C66.058 125.976 88.71 95.147 107.83 76.31c19.124-18.837 50.224-40.836 74.827-51.307 24.598-10.467 62.912-19.64 89.186-18.476 26.275 1.16 62.93 14.2 85.982 26.215 23.056 12.013 51.298 34.889 67.72 53.88 16.418 18.996 33.119 49.687 41.751 72.743Z" stroke="url(#I)" stroke-opacity=".55"/><path d="M467.749 159.18c8.705 23.16 16.005 56.584 16.529 81.144.525 24.56-4.928 58.834-13.036 82.591-8.108 23.756-24.62 55.556-41.02 75.785-16.397 20.233-44.549 46.881-68.305 59.08-23.756 12.194-62.835 21.706-90.072 22.231-27.236.524-66.122-8.19-91.515-18.747-25.394-10.561-58.805-32.053-77.779-51.646-18.97-19.597-38.718-53.602-48.707-78.995-9.99-25.393-18.171-63.325-17.892-90.299.275-26.975 8.886-65.005 19.74-89.535 10.857-24.526 33.557-55.204 52.638-73.98 19.082-18.777 50.057-40.639 74.582-51.187 24.53-10.549 62.689-20.186 88.933-19.133 26.245 1.052 62.865 14.235 86.029 26.15 23.159 11.914 51.887 34.309 68.369 53.287 16.478 18.983 32.797 50.091 41.506 73.254Z" stroke="url(#J)" stroke-opacity=".55"/><path d="M468.269 158.961c8.748 23.263 16.422 56.725 16.976 81.363.559 24.637-5.061 59.096-13.272 82.896-8.211 23.799-24.912 55.694-41.472 75.759-16.555 20.066-45.111 46.095-68.91 58.01-23.8 11.915-62.646 20.998-89.746 21.423-27.099.43-65.649-8.142-90.922-18.583-25.273-10.437-58.646-31.576-77.568-51.015-18.923-19.438-38.576-53.3-48.587-78.573-10.012-25.274-18.36-63.029-18.154-89.917.21-26.889 8.735-64.863 19.542-89.342 10.81-24.478 33.475-55.083 52.509-73.838 19.035-18.751 49.911-40.557 74.389-51.183 24.478-10.625 62.552-20.61 88.791-19.653 26.24.958 62.887 14.197 86.145 26.038 23.262 11.842 52.385 33.914 68.928 52.905 16.538 18.992 32.599 50.452 41.351 73.71Z" stroke="url(#K)" stroke-opacity=".55"/><path d="M468.9 158.699c8.766 23.361 16.564 56.91 17.118 81.625.55 24.714-5.147 59.311-13.44 83.145-8.288 23.834-25.144 55.84-41.841 75.746-16.701 19.907-45.648 45.335-69.482 56.962-23.834 11.631-62.457 20.242-89.41 20.555-26.953.318-65.155-8.103-90.286-18.437-25.132-10.329-58.401-31.155-77.251-50.435-18.85-19.279-38.417-52.952-48.42-78.083-10.002-25.132-18.42-62.681-18.269-89.453.15-26.773 8.56-64.618 19.275-89.037 10.72-24.413 33.23-54.989 52.175-73.74 18.944-18.755 49.696-40.569 74.114-51.276 24.414-10.708 62.414-20.96 88.662-20.113 26.249.85 62.955 14.016 86.316 25.78 23.362 11.76 52.815 33.63 69.427 52.643 16.611 19.017 32.547 50.757 41.312 74.118Z" stroke="url(#L)" stroke-opacity=".55"/><path d="M469.716 158.364c8.748 23.473 16.418 57.159 16.934 81.96.511 24.8-5.165 59.5-13.505 83.381s-25.273 56.051-42.099 75.82c-16.826 19.769-46.194 44.63-70.071 55.973-23.881 11.348-62.306 19.451-89.13 19.662-26.825.206-64.709-8.044-89.702-18.279-24.99-10.234-58.126-30.815-76.907-49.949-18.78-19.129-38.31-52.6-48.295-77.594-9.981-24.989-18.373-62.353-18.265-89.014.107-26.661 8.378-64.343 18.974-88.723 10.596-24.379 32.831-55.01 51.659-73.813 18.833-18.798 49.49-40.72 73.869-51.522C207.562 15.47 245.553 5.05 271.845 5.788c26.291.744 63.144 13.715 86.617 25.424 23.473 11.704 53.189 33.544 69.877 52.617 16.688 19.073 32.634 51.058 41.377 74.535Z" stroke="url(#M)" stroke-opacity=".55"/><path d="M470.545 158.02c8.731 23.581 16.263 57.426 16.71 82.304.447 24.878-5.341 59.621-13.736 83.536-8.396 23.915-25.299 56.278-42.233 75.906-16.933 19.627-46.731 43.869-70.646 54.933s-62.109 18.708-88.796 18.824c-26.686.111-64.27-7.932-89.109-18.077-24.835-10.144-57.752-30.571-76.46-49.553-18.712-18.979-38.305-52.154-48.277-76.993-9.969-24.835-18.291-62.044-18.192-88.576.094-26.533 8.357-63.983 18.836-88.31 10.48-24.328 32.329-55.033 51.015-73.878 18.691-18.84 49.249-40.853 73.577-51.736 24.328-10.888 62.28-21.44 88.61-20.835 26.331.61 63.347 13.26 86.931 24.895 23.581 11.631 53.511 33.523 70.277 52.656 16.766 19.133 32.762 51.324 41.493 74.904Z" stroke="url(#N)" stroke-opacity=".55"/><path d="M471.482 157.629c8.718 23.701 16.13 57.744 16.478 82.695.352 24.951-5.68 59.702-14.14 83.661-8.461 23.954-25.235 56.574-42.267 76.047-17.032 19.473-47.328 43.006-71.282 53.769-23.959 10.763-61.886 17.96-88.426 17.99-26.541.03-63.841-7.738-88.508-17.788-24.667-10.055-57.292-30.399-75.948-49.223-18.652-18.828-38.439-51.617-48.416-76.284-9.972-24.667-18.2-61.769-18.08-88.172.116-26.404 8.503-63.57 18.867-87.846C70.128 128.197 91.474 97.372 110 78.48c18.527-18.893 49.004-40.986 73.28-51.964C207.558 15.542 245.463 4.86 271.845 5.31c26.381.452 63.617 12.659 87.317 24.212 23.701 11.55 53.834 33.588 70.681 52.802 16.847 19.215 32.921 51.608 41.639 75.304Z" stroke="url(#O)" stroke-opacity=".55"/><path d="M472.371 157.264c8.714 23.808 16.04 58.04 16.285 83.06.249 25.019-6.119 59.741-14.639 83.742-8.525 23.997-25.063 56.914-42.177 76.254-17.113 19.339-47.904 42.176-71.905 52.673-23.997 10.501-61.67 17.337-88.091 17.316-26.42-.022-63.505-7.49-88.031-17.462-24.525-9.973-56.841-30.331-75.467-49.025-18.63-18.691-38.722-51.067-48.724-75.592-10.003-24.526-18.128-61.606-17.956-87.906.167-26.301 8.795-63.196 19.077-87.443 10.282-24.242 31.087-55.234 49.468-74.19 18.381-18.953 48.832-41.111 73.074-52.163 24.246-11.055 62.117-21.814 88.559-21.513 26.442.296 63.918 12.026 87.73 23.511 23.808 11.49 54.087 33.751 71.007 53.06 16.921 19.31 33.081 51.866 41.79 75.678Z" stroke="url(#P)" stroke-opacity=".55"/><path d="M473.257 156.895c8.714 23.915 15.984 58.349 16.104 83.429.12 25.079-6.694 59.732-15.288 83.764-8.593 24.035-24.826 57.266-42.004 76.459-17.178 19.198-48.484 41.287-72.52 51.514-24.031 10.23-61.417 16.74-87.704 16.675-26.287-.06-63.17-7.188-87.532-17.088-24.367-9.895-56.3-30.335-74.905-48.888-18.604-18.553-39.087-50.439-49.124-74.805-10.037-24.367-18.037-61.443-17.788-87.631.245-26.189 9.23-62.754 19.434-86.948 10.205-24.199 30.382-55.368 48.596-74.372C128.739 60 159.151 37.799 183.35 26.679c24.199-11.124 62.002-21.952 88.495-21.823 26.494.129 64.223 11.283 88.138 22.687 23.916 11.403 54.311 33.94 71.3 53.343 16.993 19.404 33.26 52.093 41.974 76.009Z" stroke="url(#Q)" stroke-opacity=".55"/><path d="M474.163 156.521c8.714 24.023 15.941 58.667 15.937 83.803-.009 25.135-7.326 59.707-15.988 83.781-8.662 24.079-24.517 57.666-41.755 76.73-17.239 19.065-49.086 40.398-73.165 50.366-24.074 9.973-61.18 16.19-87.347 16.104-26.167-.086-62.887-6.853-87.112-16.675-24.22-9.827-55.771-30.395-74.371-48.824-18.6-18.428-39.555-49.807-49.644-74.032-10.089-24.22-17.956-61.357-17.617-87.45.344-26.094 9.75-62.341 19.89-86.51 10.14-24.169 29.664-55.556 47.719-74.625 18.055-19.069 48.475-41.309 72.644-52.497 24.173-11.189 61.929-22.06 88.491-22.098 26.562-.039 64.566 10.514 88.593 21.848 24.023 11.34 54.508 34.21 71.566 53.722 17.058 19.511 33.446 52.334 42.159 76.357Z" stroke="url(#R)" stroke-opacity=".55"/><path d="M474.968 156.186c8.722 24.117 15.936 58.955 15.79 84.138-.142 25.183-8.013 59.638-16.749 83.738-8.735 24.104-24.199 58.014-41.476 76.949-17.281 18.932-49.622 39.53-73.722 49.262-24.105 9.728-60.919 15.705-86.966 15.601-26.046-.098-62.611-6.518-86.681-16.28-24.075-9.762-55.2-30.493-73.792-48.797-18.591-18.304-40.023-49.155-50.16-73.225-10.135-24.074-17.865-61.258-17.418-87.248.447-25.991 10.316-61.89 20.4-86.012 10.09-24.121 28.947-55.694 46.835-74.805 17.887-19.112 48.29-41.365 72.412-52.609 24.121-11.245 61.795-22.154 88.404-22.36 26.61-.21 64.868 9.706 88.985 20.96 24.113 11.252 54.663 34.454 71.785 54.056 17.118 19.606 33.635 52.519 42.353 76.632Z" stroke="url(#S)" stroke-opacity=".55"/><path d="M475.741 155.868c8.731 24.203 15.928 59.234 15.648 84.456-.279 25.221-8.701 59.56-17.505 83.686-8.808 24.126-23.885 58.35-41.201 77.152-17.32 18.802-50.129 38.696-74.255 48.196-24.122 9.5-60.657 15.245-86.583 15.133-25.926-.116-62.345-6.196-86.269-15.898-23.92-9.702-54.637-30.601-73.216-48.785-18.583-18.183-40.479-48.518-50.662-72.438-10.183-23.924-17.776-61.163-17.221-87.046.554-25.884 10.883-61.443 20.916-85.513 10.033-24.075 28.247-55.819 45.966-74.973 17.724-19.15 48.106-41.408 72.18-52.704 24.07-11.3 61.658-22.244 88.306-22.622C298.493 4.13 337 13.428 361.204 24.6c24.199 11.167 54.804 34.687 71.986 54.38 17.179 19.691 33.82 52.685 42.551 76.889Z" stroke="url(#T)" stroke-opacity=".55"/><path d="M476.368 155.606c8.739 24.272 15.936 59.466 15.545 84.718-.395 25.251-9.302 59.483-18.166 83.631-8.864 24.143-23.589 58.641-40.931 77.34-17.341 18.699-50.542 38.013-74.689 47.333-24.147 9.315-60.446 14.905-86.282 14.789-25.836-.116-62.156-5.908-85.96-15.563-23.808-9.659-54.173-30.726-72.756-48.815-18.583-18.093-40.904-47.985-51.135-71.793-10.226-23.808-17.702-61.116-17.053-86.922.653-25.806 11.407-61.082 21.406-85.122 9.998-24.036 27.658-55.943 45.244-75.132 17.591-19.185 47.973-41.442 72.013-52.781 24.035-11.339 61.554-22.296 88.241-22.815 26.687-.516 65.404 8.245 89.676 19.352 24.272 11.107 54.908 34.923 72.133 54.688 17.226 19.77 33.974 52.824 42.714 77.092Z" stroke="url(#U)" stroke-opacity=".55"/><path d="M476.87 155.399c8.748 24.324 15.954 59.656 15.455 84.925-.498 25.268-9.852 59.397-18.772 83.549-8.924 24.152-23.344 58.856-40.707 77.452-17.358 18.601-50.886 37.39-75.033 46.542-24.152 9.152-60.227 14.592-85.968 14.471-25.742-.12-61.946-5.667-85.634-15.283-23.683-9.616-53.708-30.825-72.274-48.823-18.566-17.999-41.244-47.483-51.505-71.167-10.256-23.687-17.625-61.026-16.886-86.741.743-25.716 11.872-60.708 21.832-84.693 9.96-23.984 27.12-55.999 44.574-75.2 17.457-19.198 47.809-41.433 71.789-52.803 23.984-11.373 61.404-22.347 88.104-23 26.699-.649 65.58 7.618 89.904 18.652 24.319 11.03 54.976 35.074 72.244 54.895 17.269 19.816 34.125 52.901 42.877 77.224Z" stroke="url(#V)" stroke-opacity=".55"/><path d="M477.253 155.24c8.761 24.363 15.971 59.798 15.395 85.084-.58 25.286-10.273 59.337-19.24 83.489-8.963 24.156-23.151 59.023-40.527 77.547-17.376 18.518-51.152 36.908-75.308 45.931-24.156 9.023-60.059 14.355-85.728 14.231-25.668-.129-61.786-5.483-85.379-15.069-23.598-9.586-53.361-30.906-71.919-48.832-18.553-17.93-41.506-47.096-51.788-70.693-10.282-23.593-17.569-60.957-16.757-86.604.808-25.647 12.22-60.429 22.154-84.37 9.934-23.946 26.708-56.042 44.063-75.257 17.354-19.21 47.68-41.433 71.626-52.824 23.945-11.395 61.288-22.381 88-23.133 26.713-.756 65.718 7.137 90.081 18.115 24.362 10.973 55.032 35.198 72.33 55.058 17.299 19.859 34.241 52.965 42.997 77.327Z" stroke="url(#W)" stroke-opacity=".55"/><path d="M477.451 155.159c8.77 24.375 15.984 59.879 15.352 85.165-.632 25.286-10.566 59.277-19.567 83.416-9.006 24.143-23.069 59.075-40.449 77.525-17.385 18.446-51.303 36.543-75.446 45.468-24.139 8.92-59.905 14.153-85.496 14.016-25.591-.142-61.606-5.393-85.109-14.953-23.503-9.56-53.055-30.928-71.574-48.789-18.519-17.866-41.605-46.787-51.887-70.29-10.282-23.503-17.505-60.828-16.65-86.393.855-25.566 12.44-60.154 22.339-84.035 9.9-23.886 26.407-55.986 43.667-75.18 17.26-19.193 47.517-41.381 71.398-52.789 23.886-11.407 61.125-22.42 87.816-23.254 26.691-.837 65.744 6.772 90.124 17.686 24.375 10.913 55.062 35.203 72.382 55.066 17.324 19.86 34.335 52.966 43.1 77.341Z" stroke="url(#X)" stroke-opacity=".55"/><path d="M477.489 155.142c8.774 24.37 15.988 59.9 15.331 85.182-.662 25.281-10.703 59.238-19.735 83.356-9.027 24.117-23.073 59.032-40.462 77.422-17.389 18.39-51.35 36.328-75.467 45.184-24.113 8.855-59.784 14.011-85.311 13.848-25.527-.163-61.438-5.384-84.864-14.931-23.426-9.547-52.841-30.898-71.308-48.707-18.472-17.81-41.562-46.594-51.823-70.019-10.26-23.426-17.449-60.665-16.576-86.153.868-25.488 12.495-59.939 22.364-83.756 9.87-23.817 26.24-55.861 43.431-75.02 17.191-19.164 47.354-41.313 71.171-52.72 23.816-11.413 60.957-22.455 87.605-23.345 26.648-.89 65.688 6.561 90.059 17.415 24.371 10.857 55.075 35.117 72.412 54.955 17.337 19.837 34.395 52.922 43.173 77.289Z" stroke="url(#Y)" stroke-opacity=".55"/><path d="M477.446 155.159c8.761 24.362 15.85 59.887 15.193 85.165-.662 25.277-10.561 59.251-19.589 83.343-9.027 24.091-23.197 58.916-40.599 77.263-17.402 18.347-51.333 36.204-75.424 45.046-24.088 8.839-59.694 14.059-85.182 13.892-25.488-.164-61.349-5.44-84.731-14.991-23.379-9.552-52.721-30.898-71.136-48.686-18.416-17.793-41.4-46.538-51.638-69.916-10.24-23.379-17.496-60.524-16.633-85.951.868-25.428 12.551-59.802 22.416-83.558 9.865-23.752 26.21-55.686 43.354-74.81 17.148-19.12 47.195-41.279 70.951-52.673 23.757-11.4 60.807-22.386 87.417-23.31 26.609-.924 65.61 6.346 89.972 17.14 24.358 10.793 55.084 35 72.43 54.808 17.346 19.808 34.442 52.88 43.199 77.238Z" stroke="url(#Z)" stroke-opacity=".55"/><path d="M477.404 155.18c8.697 24.35 15.408 59.866 14.768 85.144-.645 25.277-10.05 59.32-19.047 83.373-8.998 24.048-23.495 58.693-40.939 76.967-17.445 18.273-51.294 35.993-75.347 44.853-24.049 8.86-59.553 14.351-84.993 14.213-25.441-.137-61.284-5.555-84.611-15.137-23.327-9.586-52.574-30.966-70.9-48.759-18.32-17.793-41.046-46.533-51.264-69.86-10.217-23.327-17.723-60.313-16.86-85.65.86-25.338 12.723-59.613 22.614-83.266 9.89-23.653 26.24-55.372 43.323-74.432 17.084-19.064 46.912-41.287 70.569-52.652C208.371 18.61 245.296 7.86 271.846 6.871c26.549-.988 65.503 5.86 89.852 16.53 24.35 10.664 55.127 34.824 72.481 54.589 17.355 19.77 34.524 52.841 43.225 77.19Z" stroke="url(#aa)" stroke-opacity=".55"/><path d="M477.373 155.189c8.598 24.349 14.699 59.844 14.093 85.135-.601 25.29-9.182 59.457-18.115 83.467-8.932 24.01-23.932 58.405-41.433 76.606-17.504 18.197-51.238 35.77-75.252 44.707-24.01 8.937-59.406 14.936-84.821 14.863-25.415-.074-61.323-5.702-84.624-15.348-23.301-9.646-52.484-31.121-70.71-48.961-18.231-17.836-40.591-46.649-50.805-69.95-10.213-23.297-18.14-60.124-17.28-85.384.854-25.261 13.04-59.467 23-83.017 9.963-23.55 26.385-54.985 43.417-73.985 17.037-18.996 46.602-41.364 70.153-52.673 23.55-11.309 60.36-21.66 86.849-22.712 26.489-1.053 65.408 5.181 89.758 15.695 24.345 10.51 55.187 34.645 72.554 54.38 17.367 19.734 34.623 52.832 43.216 77.177Z" stroke="url(#ab)" stroke-opacity=".55"/><path d="M477.347 155.202c8.46 24.345 13.754 59.814 13.204 85.122-.554 25.307-8.044 59.638-16.89 83.596-8.847 23.959-24.513 58.031-42.095 76.125-17.582 18.097-51.165 35.486-75.124 44.518-23.958 9.036-59.212 15.696-84.597 15.709-25.385.012-61.37-5.895-84.632-15.623-23.267-9.728-52.369-31.332-70.466-49.227-18.098-17.892-39.99-46.8-50.194-70.062-10.205-23.267-18.687-59.879-17.836-85.036.85-25.158 13.449-59.273 23.507-82.686 10.055-23.413 26.567-54.482 43.539-73.396 16.972-18.919 46.185-41.476 69.598-52.712 23.412-11.236 60.068-21.058 86.484-22.197 26.416-1.139 65.292 4.288 89.633 14.596 24.345 10.303 55.277 34.412 72.657 54.104 17.38 19.692 34.748 52.828 43.212 77.169Z" stroke="url(#ac)" stroke-opacity=".55"/><path d="M477.348 155.202c8.305 24.345 12.658 59.788 12.164 85.122-.494 25.333-6.707 59.857-15.46 83.755-8.748 23.903-25.191 57.593-42.868 75.583-17.676 17.991-51.066 35.182-74.969 44.347-23.902 9.164-59.01 16.628-84.37 16.748-25.359.12-61.46-6.123-84.7-15.949-23.241-9.823-52.27-31.581-70.234-49.55-17.96-17.973-39.315-47.006-49.52-70.247-10.204-23.24-19.352-59.629-18.51-84.687.842-25.059 13.952-59.097 24.135-82.36 10.183-23.262 26.837-53.897 43.749-72.721 16.911-18.82 45.729-41.6 68.992-52.75 23.262-11.155 59.75-20.346 86.088-21.587 26.339-1.238 65.164 3.257 89.509 13.324s55.389 34.15 72.791 53.794c17.397 19.65 34.897 52.833 43.203 77.178Z" stroke="url(#ad)" stroke-opacity=".55"/><path d="M477.365 155.193c8.138 24.354 11.502 59.771 11.073 85.131-.43 25.359-5.298 60.093-13.939 83.94-8.645 23.847-25.896 57.155-43.667 75.046-17.771 17.891-50.963 34.915-74.81 44.235-23.847 9.319-58.822 17.646-84.177 17.887-25.354.245-61.61-6.342-84.847-16.272-23.236-9.93-52.226-31.86-70.066-49.923-17.84-18.064-38.649-47.268-48.866-70.505-10.218-23.236-20.079-59.432-19.24-84.408.837-24.977 14.492-58.973 24.826-82.097 10.329-23.121 27.172-53.327 44.041-72.056 16.869-18.73 45.3-41.755 68.425-52.815 23.12-11.06 59.457-19.58 85.727-20.916 26.27-1.332 65.057 2.204 89.406 12.035 24.354 9.83 55.509 33.91 72.928 53.515 17.414 19.61 35.044 52.854 43.186 77.203Z" stroke="url(#ae)" stroke-opacity=".55"/><path d="M477.382 155.189c7.966 24.349 10.295 59.745 9.93 85.135-.366 25.389-3.842 60.338-12.375 84.125-8.537 23.782-26.657 56.656-44.531 74.436-17.87 17.779-50.834 34.622-74.616 44.097-23.787 9.478-58.607 18.712-83.945 19.081-25.337.37-61.739-6.582-84.963-16.619-23.223-10.037-52.157-32.14-69.864-50.293-17.703-18.158-37.936-47.522-48.162-70.745-10.226-23.224-20.839-59.205-20.005-84.082.833-24.878 15.077-58.818 25.565-81.779 10.484-22.962 27.529-52.678 44.351-71.3 16.821-18.622 44.819-41.888 67.78-52.85 22.962-10.96 59.114-18.784 85.298-20.228 26.184-1.44 64.919 1.061 89.273 10.634 24.353 9.569 55.642 33.613 73.078 53.172 17.44 19.558 35.22 52.862 43.186 77.216Z" stroke="url(#af)" stroke-opacity=".55"/><path d="M477.425 155.172c7.803 24.358 9.152 59.732 8.843 85.152-.31 25.419-2.471 60.574-10.91 84.297-8.438 23.722-27.395 56.17-45.36 73.855-17.96 17.69-50.671 34.408-74.393 44.063-23.722 9.65-58.422 19.791-83.76 20.298-25.337.502-61.915-6.798-85.152-16.938-23.24-10.136-52.17-32.397-69.769-50.654-17.6-18.256-37.313-47.813-47.56-71.05-10.248-23.236-21.604-59.058-20.767-83.871.838-24.814 15.688-58.741 26.36-81.556 10.67-22.816 27.981-52.042 44.781-70.552 16.8-18.51 44.393-41.991 67.209-52.853 22.815-10.863 58.792-18.02 84.898-19.56 26.107-1.537 64.79-.02 89.148 9.299 24.358 9.32 55.776 33.325 73.242 52.832 17.462 19.511 35.383 52.88 43.19 77.238Z" stroke="url(#ag)" stroke-opacity=".55"/><path d="M477.485 155.146c7.665 24.358 8.15 59.737 7.88 85.178-.267 25.44-1.294 60.781-9.664 84.438-8.369 23.658-28.091 55.69-46.137 73.281-18.047 17.594-50.504 34.197-74.166 44.002-23.657 9.805-58.229 20.74-83.553 21.359-25.325.619-62.032-7.004-85.268-17.23-23.237-10.226-52.145-32.612-69.641-50.942-17.496-18.334-36.741-48.037-47.006-71.273-10.27-23.237-22.296-58.895-21.45-83.635.847-24.741 16.247-58.637 27.087-81.303 10.84-22.665 28.406-51.405 45.18-69.795 16.77-18.394 43.968-42.048 66.633-52.815 22.665-10.772 58.444-17.346 84.465-18.987 26.02-1.642 64.639-1.04 89.001 8.035 24.358 9.074 55.909 33.007 73.405 52.458 17.496 19.455 35.564 52.867 43.234 77.229Z" stroke="url(#ah)" stroke-opacity=".55"/><path d="M477.571 155.107c7.566 24.362 7.377 59.754 7.133 85.217-.245 25.462-.434 60.944-8.77 84.537-8.331 23.593-28.689 55.243-46.795 72.756-18.107 17.513-50.323 34.064-73.916 43.998-23.594 9.934-58.07 21.514-83.378 22.231-25.307.714-62.113-7.171-85.354-17.461-23.236-10.291-52.14-32.75-69.568-51.14-17.427-18.39-36.307-48.209-46.602-71.449-10.29-23.237-22.871-58.788-22.012-83.472.86-24.685 16.745-58.573 27.748-81.101 11.004-22.527 28.844-50.812 45.606-69.082 16.761-18.27 43.611-42.026 66.139-52.716 22.527-10.69 58.108-16.813 84.043-18.553 25.935-1.74 64.481-1.895 88.843 6.96 24.362 8.856 56.042 32.685 73.572 52.076 17.535 19.391 35.745 52.837 43.311 77.199Z" stroke="url(#ai)" stroke-opacity=".55"/><path d="M477.738 155.038c7.502 24.371 6.836 59.802 6.591 85.286-.241 25.483.125 61.073-8.211 84.614-8.331 23.538-29.192 54.852-47.341 72.318-18.153 17.462-50.121 34.039-73.663 44.102-23.541 10.058-57.958 22.158-83.27 22.957-25.311.799-62.211-7.296-85.478-17.634-23.262-10.333-52.209-32.835-69.611-51.268-17.397-18.437-36.053-48.372-46.387-71.635-10.334-23.262-23.378-58.783-22.497-83.454.88-24.672 17.195-58.603 28.366-81.023 11.176-22.42 29.342-50.302 46.13-68.455 16.787-18.154 43.362-41.953 65.786-52.575 22.421-10.621 57.83-16.417 83.691-18.24 25.862-1.821 64.348-2.569 88.719 6.107 24.371 8.67 56.175 32.38 73.753 51.715 17.577 19.335 35.92 52.815 43.422 77.185Z" stroke="url(#aj)" stroke-opacity=".55"/><path d="M477.885 154.978c7.484 24.371 6.591 59.853 6.324 85.346-.266 25.492.284 61.133-8.086 84.614-8.374 23.482-29.566 54.513-47.732 71.932-18.171 17.418-49.915 34.055-73.396 44.195-23.482 10.136-57.855 22.532-83.15 23.383-25.295.846-62.221-7.382-85.491-17.732-23.271-10.347-52.248-32.819-69.641-51.26-17.389-18.446-35.938-48.428-46.301-71.695-10.364-23.271-23.705-58.783-22.795-83.437.907-24.655 17.535-58.607 28.853-80.929 11.317-22.317 29.776-49.829 46.585-67.862 16.808-18.033 43.156-41.78 65.473-52.355 22.321-10.57 57.537-16.22 83.317-18.12 25.78-1.894 64.184-3.046 88.555 5.47 24.371 8.52 56.291 32.058 73.912 51.329 17.625 19.266 36.092 52.75 43.573 77.121Z" stroke="url(#ak)" stroke-opacity=".55"/><path d="M478.07 154.901c7.515 24.371 6.647 59.926 6.333 85.423-.309 25.496.043 61.129-8.408 84.559-8.456 23.434-29.789 54.237-47.943 71.647-18.158 17.406-49.674 34.219-73.104 44.419-23.43 10.196-57.808 22.691-83.102 23.568-25.295.876-62.221-7.395-85.522-17.728-23.296-10.33-52.364-32.711-69.8-51.144s-36.036-48.45-46.443-71.746c-10.402-23.301-23.868-58.895-22.918-83.575.945-24.681 17.78-58.71 29.234-80.959 11.456-22.244 30.266-49.442 47.131-67.36 16.865-17.916 43.062-41.544 65.31-52.084 22.248-10.535 57.296-16.211 83.008-18.162 25.711-1.946 64.021-3.248 88.391 5.17 24.371 8.412 56.395 31.735 74.071 50.932 17.677 19.198 36.251 52.673 43.762 77.04Z" stroke="url(#al)" stroke-opacity=".55"/><path d="M478.315 154.802c7.583 24.362 6.9 60.025 6.509 85.522-.387 25.496-.528 61.069-9.092 84.451-8.567 23.383-29.892 54.005-48.011 71.424-18.119 17.423-49.408 34.516-72.786 44.716-23.383 10.2-57.812 22.455-83.09 23.297-25.277.846-62.113-7.386-85.422-17.664-23.306-10.273-52.472-32.457-69.964-50.839-17.487-18.385-36.22-48.402-46.623-71.712-10.407-23.305-23.718-58.972-22.747-83.673.976-24.702 17.698-58.809 29.23-80.989 11.533-22.184 30.739-49.064 47.655-66.882 16.917-17.819 42.942-41.369 65.121-51.904 22.18-10.536 57.116-16.384 82.75-18.339 25.634-1.955 63.785-3.042 88.147 5.311 24.362 8.353 56.523 31.293 74.273 50.383 17.749 19.09 36.466 52.536 44.05 76.898Z" stroke="url(#am)" stroke-opacity=".55"/><path d="M478.675 154.652c7.696 24.358 7.331 60.175 6.836 85.672-.494 25.496-1.409 60.97-10.123 84.309-8.709 23.34-29.896 53.812-47.955 71.278-18.055 17.471-49.094 35.001-72.43 45.172-23.339 10.17-57.893 21.87-83.158 22.635-25.264.764-61.95-7.348-85.268-17.535-23.322-10.188-52.643-32.075-70.212-50.379-17.565-18.308-36.522-48.329-46.903-71.652-10.385-23.318-23.292-59.088-22.308-83.828.988-24.741 17.302-58.977 28.878-81.109 11.57-22.132 31.288-48.69 48.273-66.431 16.985-17.737 42.83-41.262 64.958-51.827 22.132-10.57 57.021-16.714 82.582-18.618 25.561-1.903 63.48-2.415 87.838 5.925 24.358 8.34 56.703 30.713 74.552 49.67 17.848 18.957 36.749 52.36 44.44 76.718Z" stroke="url(#an)" stroke-opacity=".55"/><path d="M479.058 154.493c7.82 24.353 7.876 60.334 7.261 85.831-.61 25.496-2.475 60.832-11.343 84.142-8.864 23.305-29.78 53.687-47.753 71.235-17.974 17.548-48.768 35.624-72.073 45.738-23.306 10.115-58.044 21.037-83.305 21.69-25.26.653-61.76-7.266-85.109-17.337-23.344-10.076-52.866-31.611-70.534-49.825-17.668-18.213-36.918-48.256-47.247-71.604-10.333-23.344-22.63-59.239-21.642-84.039.988-24.801 16.662-59.205 28.233-81.311 11.571-22.107 31.856-48.381 48.918-66.07 17.067-17.69 42.744-41.244 64.85-51.866 22.107-10.626 57.026-17.157 82.531-18.953 25.506-1.796 63.145-1.413 87.494 6.965 24.354 8.379 56.888 30.086 74.844 48.897 17.956 18.81 37.051 52.157 44.875 76.507Z" stroke="url(#ao)" stroke-opacity=".55"/><path d="M479.479 154.317c7.979 24.34 8.554 60.519 7.802 86.007-.751 25.488-3.776 60.652-12.817 83.927-9.044 23.275-29.587 53.593-47.457 71.235-17.874 17.638-48.415 36.35-71.686 46.361-23.275 10.016-58.229 19.898-83.476 20.393-25.247.494-61.486-7.163-84.838-17.097-23.357-9.93-53.086-31.031-70.857-49.124-17.771-18.089-37.36-48.128-47.612-71.484-10.252-23.353-21.72-59.355-20.74-84.211.984-24.857 15.76-59.419 27.284-81.504 11.524-22.081 32.414-48.055 49.55-65.71 17.139-17.655 42.623-41.278 64.703-51.981 22.081-10.708 57.074-17.724 82.51-19.378 25.436-1.655 62.74-.104 87.081 8.344 24.337 8.447 57.086 29.342 75.171 47.977 18.085 18.634 37.403 51.908 45.382 76.245Z" stroke="url(#ap)" stroke-opacity=".55"/><path d="M479.951 154.123c8.151 24.328 9.311 60.713 8.409 86.201-.902 25.488-5.199 60.458-14.424 83.708-9.229 23.249-29.329 53.541-47.083 71.299-17.759 17.759-48.042 37.188-71.295 47.096-23.25 9.904-58.466 18.614-83.713 18.936-25.247.318-61.215-7.034-84.593-16.813-23.379-9.775-53.365-30.408-71.257-48.377-17.896-17.964-37.88-48.015-48.046-71.394-10.161-23.378-20.684-59.522-19.717-84.455.97-24.934 14.712-59.703 26.175-81.784 11.464-22.076 33.016-47.775 50.242-65.413 17.229-17.638 42.537-41.368 64.618-52.17 22.076-10.798 57.193-18.356 82.578-19.834 25.385-1.478 62.328 1.44 86.656 9.99 24.328 8.555 57.309 28.573 75.527 47.027 18.218 18.45 37.772 51.655 45.923 75.983Z" stroke="url(#aq)" stroke-opacity=".55"/><path d="M480.458 153.913c8.327 24.319 10.098 60.927 9.041 86.411-1.057 25.483-6.673 60.256-16.091 83.489-9.414 23.232-29.042 53.515-46.684 71.389-17.642 17.875-47.706 38.009-70.939 47.771-23.232 9.766-58.71 17.204-83.94 17.32-25.23.116-60.884-6.922-84.262-16.542-23.379-9.616-53.58-29.759-71.583-47.582-18.004-17.823-38.374-47.857-48.433-71.231-10.058-23.378-19.571-59.621-18.626-84.614.941-24.994 13.543-59.939 24.904-82.016 11.364-22.072 33.535-47.513 50.838-65.146 17.299-17.634 42.422-41.498 64.498-52.412 22.072-10.909 57.331-19.042 82.664-20.331 25.334-1.294 61.911 3.059 86.231 11.725 24.319 8.667 57.541 27.787 75.896 46.052 18.36 18.266 38.155 51.397 46.486 75.717Z" stroke="url(#ar)" stroke-opacity=".55"/><path d="M481.06 153.663c8.507 24.324 10.87 61.164 9.659 86.661-1.212 25.496-8.125 60.093-17.733 83.317-9.607 23.219-28.775 53.515-46.318 71.506-17.544 17.99-47.414 38.807-70.634 48.423-23.223 9.616-58.972 15.778-84.189 15.683-25.218-.094-60.558-6.844-83.928-16.31-23.369-9.47-53.773-29.136-71.879-46.813-18.102-17.68-38.855-47.68-48.815-71.05-9.96-23.369-18.497-59.702-17.595-84.756.902-25.054 12.357-60.184 23.61-82.265 11.25-22.081 34.026-47.302 51.393-64.949 17.372-17.642 42.331-41.652 64.416-52.682 22.081-11.025 57.499-19.726 82.798-20.834 25.299-1.113 61.537 4.653 85.861 13.44 24.323 8.786 57.799 27.035 76.3 45.128 18.502 18.093 38.546 51.178 47.054 75.501Z" stroke="url(#as)" stroke-opacity=".55"/><path d="M481.619 153.431c8.666 24.333 11.553 61.383 10.209 86.893-1.345 25.509-9.402 59.951-19.172 83.179-9.775 23.224-28.526 53.55-45.984 71.648-17.457 18.098-47.173 39.521-70.397 49.004-23.223 9.482-59.221 14.501-84.43 14.213-25.209-.283-60.274-6.776-83.644-16.112-23.365-9.341-53.945-28.591-72.141-46.147-18.197-17.556-39.29-47.522-49.167-70.891-9.874-23.37-17.535-59.784-16.676-84.894.864-25.11 11.275-60.416 22.416-82.514 11.146-22.102 34.434-47.161 51.87-64.829 17.436-17.668 42.271-41.824 64.373-52.96 22.102-11.138 57.687-20.341 82.969-21.283 25.282-.94 61.232 6.106 85.565 15.009 24.336 8.907 58.027 26.403 76.657 44.355 18.631 17.951 38.889 50.997 47.552 75.329Z" stroke="url(#at)" stroke-opacity=".55"/><path d="M482.177 153.199c8.808 24.35 12.155 61.594 10.69 87.125-1.47 25.531-10.54 59.848-20.465 83.072-9.93 23.228-28.328 53.584-45.721 71.763-17.389 18.184-46.989 40.114-70.213 49.46-23.228 9.345-59.432 13.311-84.623 12.838-25.192-.468-59.978-6.75-83.322-15.979-23.344-9.225-54.039-28.101-72.296-45.537-18.261-17.431-39.637-47.341-49.434-70.68-9.796-23.344-16.692-59.793-15.876-84.937.812-25.145 10.273-60.58 21.303-82.69 11.026-22.111 34.743-47.023 52.222-64.713 17.475-17.694 42.189-41.987 64.3-53.223 22.111-11.24 57.838-20.904 83.103-21.707 25.264-.8 60.966 7.36 85.315 16.366 24.345 9.002 58.25 25.823 77.001 43.65 18.751 17.827 39.212 50.847 48.016 75.192Z" stroke="url(#au)" stroke-opacity=".55"/><path d="M482.744 152.967c8.915 24.376 12.615 61.796 11.055 87.357-1.564 25.561-11.425 59.801-21.479 83.038-10.054 23.24-28.199 53.635-45.549 71.888-17.355 18.252-46.886 40.565-70.127 49.798-23.236 9.234-59.617 12.383-84.799 11.76-25.183-.627-59.755-6.771-83.077-15.923-23.323-9.148-54.096-27.744-72.404-45.081-18.308-17.337-39.912-47.186-49.657-70.509-9.745-23.322-16.082-59.797-15.317-84.971.764-25.175 9.474-60.73 20.409-82.862 10.935-22.133 34.979-46.963 52.497-64.687 17.518-17.724 42.155-42.138 64.287-53.46 22.132-11.326 57.997-21.35 83.262-22.046 25.264-.696 60.806 8.323 85.182 17.406 24.375 9.083 58.46 25.406 77.314 43.152 18.859 17.74 39.483 50.765 48.403 75.14Z" stroke="url(#av)" stroke-opacity=".55"/><path d="M483.295 152.74c8.997 24.409 12.911 61.984 11.279 87.584-1.633 25.599-12.018 59.818-22.171 83.072-10.153 23.254-28.178 53.674-45.528 71.957-17.35 18.282-46.877 40.801-70.131 49.932-23.254 9.134-59.741 11.704-84.898 10.952-25.157-.752-59.544-6.858-82.819-15.971-23.275-9.109-54.035-27.516-72.348-44.776-18.317-17.255-40.04-47.01-49.76-70.285-9.715-23.275-15.735-59.711-15.026-84.881.71-25.17 8.903-60.786 19.752-82.927 10.854-22.141 35.066-46.933 52.592-64.682 17.526-17.75 42.108-42.25 64.248-53.645 22.141-11.394 58.083-21.663 83.361-22.312 25.277-.649 60.738 8.873 85.152 17.994 24.409 9.122 58.65 25.127 77.594 42.825 18.944 17.699 39.706 50.749 48.703 75.163Z" stroke="url(#aw)" stroke-opacity=".55"/><defs><linearGradient id="a" x1="6" y1="8.968" x2="491.423" y2="485.284" gradientUnits="userSpaceOnUse"><stop stop-color="#FF0075"/><stop offset=".5" stop-color="#D015FF"/><stop offset="1" stop-color="#5E13FF"/></linearGradient><linearGradient id="b" x1="6.025" y1="9.041" x2="491.365" y2="485.256" gradientUnits="userSpaceOnUse"><stop stop-color="#FF0075"/><stop offset=".5" stop-color="#D015FF"/><stop offset="1" stop-color="#5E13FF"/></linearGradient><linearGradient id="c" x1="6.104" y1="9.274" x2="491.171" y2="485.184" gradientUnits="userSpaceOnUse"><stop stop-color="#FF0075"/><stop offset=".5" stop-color="#D015FF"/><stop offset="1" stop-color="#5E13FF"/></linearGradient><linearGradient id="d" x1="6.238" y1="9.614" x2="490.939" y2="485.012" gradientUnits="userSpaceOnUse"><stop stop-color="#FF0075"/><stop offset=".5" stop-color="#D015FF"/><stop offset="1" stop-color="#5E13FF"/></linearGradient><linearGradient id="e" x1="6.436" y1="10.065" x2="490.629" y2="484.775" gradientUnits="userSpaceOnUse"><stop stop-color="#FF0075"/><stop offset=".5" stop-color="#D015FF"/><stop offset="1" stop-color="#5E13FF"/></linearGradient><linearGradient id="f" x1="6.746" y1="10.534" x2="490.443" y2="484.339" gradientUnits="userSpaceOnUse"><stop stop-color="#FF0075"/><stop offset=".5" stop-color="#D015FF"/><stop offset="1" stop-color="#5E13FF"/></linearGradient><linearGradient id="g" x1="7.085" y1="10.958" x2="490.381" y2="483.793" gradientUnits="userSpaceOnUse"><stop stop-color="#FF0075"/><stop offset=".5" stop-color="#D015FF"/><stop offset="1" stop-color="#5E13FF"/></linearGradient><linearGradient id="h" x1="7.532" y1="11.36" x2="490.459" y2="483.065" gradientUnits="userSpaceOnUse"><stop stop-color="#FF0075"/><stop offset=".5" stop-color="#D015FF"/><stop offset="1" stop-color="#5E13FF"/></linearGradient><linearGradient id="i" x1="8.082" y1="11.611" x2="490.929" y2="482.074" gradientUnits="userSpaceOnUse"><stop stop-color="#FF0075"/><stop offset=".5" stop-color="#D015FF"/><stop offset="1" stop-color="#5E13FF"/></linearGradient><linearGradient id="j" x1="8.759" y1="11.811" x2="491.559" y2="480.952" gradientUnits="userSpaceOnUse"><stop stop-color="#FF0075"/><stop offset=".5" stop-color="#D015FF"/><stop offset="1" stop-color="#5E13FF"/></linearGradient><linearGradient id="k" x1="9.648" y1="11.899" x2="492.585" y2="479.568" gradientUnits="userSpaceOnUse"><stop stop-color="#FF0075"/><stop offset=".5" stop-color="#D015FF"/><stop offset="1" stop-color="#5E13FF"/></linearGradient><linearGradient id="l" x1="10.542" y1="11.874" x2="493.798" y2="478.181" gradientUnits="userSpaceOnUse"><stop stop-color="#FF0075"/><stop offset=".5" stop-color="#D015FF"/><stop offset="1" stop-color="#5E13FF"/></linearGradient><linearGradient id="m" x1="11.607" y1="11.807" x2="495.212" y2="476.681" gradientUnits="userSpaceOnUse"><stop stop-color="#FF0075"/><stop offset=".5" stop-color="#D015FF"/><stop offset="1" stop-color="#5E13FF"/></linearGradient><linearGradient id="n" x1="12.787" y1="11.548" x2="497.046" y2="474.949" gradientUnits="userSpaceOnUse"><stop stop-color="#FF0075"/><stop offset=".5" stop-color="#D015FF"/><stop offset="1" stop-color="#5E13FF"/></linearGradient><linearGradient id="o" x1="14.139" y1="11.166" x2="498.966" y2="472.892" gradientUnits="userSpaceOnUse"><stop stop-color="#FF0075"/><stop offset=".5" stop-color="#D015FF"/><stop offset="1" stop-color="#5E13FF"/></linearGradient><linearGradient id="p" x1="15.733" y1="10.579" x2="501.22" y2="470.312" gradientUnits="userSpaceOnUse"><stop stop-color="#FF0075"/><stop offset=".5" stop-color="#D015FF"/><stop offset="1" stop-color="#5E13FF"/></linearGradient><linearGradient id="q" x1="17.273" y1="9.767" x2="503.566" y2="467.505" gradientUnits="userSpaceOnUse"><stop stop-color="#FF0075"/><stop offset=".5" stop-color="#D015FF"/><stop offset="1" stop-color="#5E13FF"/></linearGradient><linearGradient id="r" x1="18.972" y1="8.884" x2="505.962" y2="464.407" gradientUnits="userSpaceOnUse"><stop stop-color="#FF0075"/><stop offset=".5" stop-color="#D015FF"/><stop offset="1" stop-color="#5E13FF"/></linearGradient><linearGradient id="s" x1="20.668" y1="7.832" x2="508.517" y2="461.101" gradientUnits="userSpaceOnUse"><stop stop-color="#FF0075"/><stop offset=".5" stop-color="#D015FF"/><stop offset="1" stop-color="#5E13FF"/></linearGradient><linearGradient id="t" x1="22.425" y1="6.866" x2="510.837" y2="457.838" gradientUnits="userSpaceOnUse"><stop stop-color="#FF0075"/><stop offset=".5" stop-color="#D015FF"/><stop offset="1" stop-color="#5E13FF"/></linearGradient><linearGradient id="u" x1="24.256" y1="5.945" x2="513.074" y2="454.576" gradientUnits="userSpaceOnUse"><stop stop-color="#FF0075"/><stop offset=".5" stop-color="#D015FF"/><stop offset="1" stop-color="#5E13FF"/></linearGradient><linearGradient id="v" x1="25.807" y1="5.119" x2="514.968" y2="451.767" gradientUnits="userSpaceOnUse"><stop stop-color="#FF0075"/><stop offset=".5" stop-color="#D015FF"/><stop offset="1" stop-color="#5E13FF"/></linearGradient><linearGradient id="w" x1="27.367" y1="4.522" x2="516.5" y2="449.252" gradientUnits="userSpaceOnUse"><stop stop-color="#FF0075"/><stop offset=".5" stop-color="#D015FF"/><stop offset="1" stop-color="#5E13FF"/></linearGradient><linearGradient id="x" x1="28.706" y1="4.076" x2="517.711" y2="447.229" gradientUnits="userSpaceOnUse"><stop stop-color="#FF0075"/><stop offset=".5" stop-color="#D015FF"/><stop offset="1" stop-color="#5E13FF"/></linearGradient><linearGradient id="y" x1="29.985" y1="4" x2="518.364" y2="445.779" gradientUnits="userSpaceOnUse"><stop stop-color="#FF0075"/><stop offset=".5" stop-color="#D015FF"/><stop offset="1" stop-color="#5E13FF"/></linearGradient><linearGradient id="z" x1="31.177" y1="4.235" x2="518.536" y2="444.916" gradientUnits="userSpaceOnUse"><stop stop-color="#FF0075"/><stop offset=".5" stop-color="#D015FF"/><stop offset="1" stop-color="#5E13FF"/></linearGradient><linearGradient id="A" x1="31.996" y1="4.534" x2="518.352" y2="444.718" gradientUnits="userSpaceOnUse"><stop stop-color="#FF0075"/><stop offset=".5" stop-color="#D015FF"/><stop offset="1" stop-color="#5E13FF"/></linearGradient><linearGradient id="B" x1="32.746" y1="4.922" x2="517.818" y2="444.991" gradientUnits="userSpaceOnUse"><stop stop-color="#FF0075"/><stop offset=".5" stop-color="#D015FF"/><stop offset="1" stop-color="#5E13FF"/></linearGradient><linearGradient id="C" x1="33.204" y1="5.192" x2="517.082" y2="445.745" gradientUnits="userSpaceOnUse"><stop stop-color="#FF0075"/><stop offset=".5" stop-color="#D015FF"/><stop offset="1" stop-color="#5E13FF"/></linearGradient><linearGradient id="D" x1="33.647" y1="5.554" x2="516.054" y2="446.845" gradientUnits="userSpaceOnUse"><stop stop-color="#FF0075"/><stop offset=".5" stop-color="#D015FF"/><stop offset="1" stop-color="#5E13FF"/></linearGradient><linearGradient id="E" x1="34.095" y1="5.881" x2="514.909" y2="448.082" gradientUnits="userSpaceOnUse"><stop stop-color="#FF0075"/><stop offset=".5" stop-color="#D015FF"/><stop offset="1" stop-color="#5E13FF"/></linearGradient><linearGradient id="F" x1="34.268" y1="6.045" x2="513.665" y2="449.595" gradientUnits="userSpaceOnUse"><stop stop-color="#FF0075"/><stop offset=".5" stop-color="#D015FF"/><stop offset="1" stop-color="#5E13FF"/></linearGradient><linearGradient id="G" x1="34.563" y1="6.284" x2="512.307" y2="451.077" gradientUnits="userSpaceOnUse"><stop stop-color="#FF0075"/><stop offset=".5" stop-color="#D015FF"/><stop offset="1" stop-color="#5E13FF"/></linearGradient><linearGradient id="H" x1="34.791" y1="6.324" x2="511.06" y2="452.442" gradientUnits="userSpaceOnUse"><stop stop-color="#FF0075"/><stop offset=".5" stop-color="#D015FF"/><stop offset="1" stop-color="#5E13FF"/></linearGradient><linearGradient id="I" x1="35.248" y1="6.427" x2="509.85" y2="453.502" gradientUnits="userSpaceOnUse"><stop stop-color="#FF0075"/><stop offset=".5" stop-color="#D015FF"/><stop offset="1" stop-color="#5E13FF"/></linearGradient><linearGradient id="J" x1="35.945" y1="6.41" x2="508.858" y2="454.105" gradientUnits="userSpaceOnUse"><stop stop-color="#FF0075"/><stop offset=".5" stop-color="#D015FF"/><stop offset="1" stop-color="#5E13FF"/></linearGradient><linearGradient id="K" x1="36.61" y1="6.244" x2="508.179" y2="454.333" gradientUnits="userSpaceOnUse"><stop stop-color="#FF0075"/><stop offset=".5" stop-color="#D015FF"/><stop offset="1" stop-color="#5E13FF"/></linearGradient><linearGradient id="L" x1="37.617" y1="6.109" x2="507.701" y2="454.024" gradientUnits="userSpaceOnUse"><stop stop-color="#FF0075"/><stop offset=".5" stop-color="#D015FF"/><stop offset="1" stop-color="#5E13FF"/></linearGradient><linearGradient id="M" x1="38.675" y1="5.751" x2="507.576" y2="453.27" gradientUnits="userSpaceOnUse"><stop stop-color="#FF0075"/><stop offset=".5" stop-color="#D015FF"/><stop offset="1" stop-color="#5E13FF"/></linearGradient><linearGradient id="N" x1="39.805" y1="5.54" x2="507.319" y2="452.566" gradientUnits="userSpaceOnUse"><stop stop-color="#FF0075"/><stop offset=".5" stop-color="#D015FF"/><stop offset="1" stop-color="#5E13FF"/></linearGradient><linearGradient id="O" x1="40.892" y1="5.298" x2="506.964" y2="451.977" gradientUnits="userSpaceOnUse"><stop stop-color="#FF0075"/><stop offset=".5" stop-color="#D015FF"/><stop offset="1" stop-color="#5E13FF"/></linearGradient><linearGradient id="P" x1="41.663" y1="5.009" x2="506.589" y2="451.649" gradientUnits="userSpaceOnUse"><stop stop-color="#FF0075"/><stop offset=".5" stop-color="#D015FF"/><stop offset="1" stop-color="#5E13FF"/></linearGradient><linearGradient id="Q" x1="42.49" y1="4.855" x2="506.049" y2="451.416" gradientUnits="userSpaceOnUse"><stop stop-color="#FF0075"/><stop offset=".5" stop-color="#D015FF"/><stop offset="1" stop-color="#5E13FF"/></linearGradient><linearGradient id="R" x1="43.091" y1="4.594" x2="505.528" y2="451.336" gradientUnits="userSpaceOnUse"><stop stop-color="#FF0075"/><stop offset=".5" stop-color="#D015FF"/><stop offset="1" stop-color="#5E13FF"/></linearGradient><linearGradient id="S" x1="43.775" y1="4.535" x2="504.886" y2="451.296" gradientUnits="userSpaceOnUse"><stop stop-color="#FF0075"/><stop offset=".5" stop-color="#D015FF"/><stop offset="1" stop-color="#5E13FF"/></linearGradient><linearGradient id="T" x1="44.448" y1="4.501" x2="504.25" y2="451.265" gradientUnits="userSpaceOnUse"><stop stop-color="#FF0075"/><stop offset=".5" stop-color="#D015FF"/><stop offset="1" stop-color="#5E13FF"/></linearGradient><linearGradient id="U" x1="44.901" y1="4.452" x2="503.709" y2="451.324" gradientUnits="userSpaceOnUse"><stop stop-color="#FF0075"/><stop offset=".5" stop-color="#D015FF"/><stop offset="1" stop-color="#5E13FF"/></linearGradient><linearGradient id="V" x1="45.495" y1="4.592" x2="503.11" y2="451.318" gradientUnits="userSpaceOnUse"><stop stop-color="#FF0075"/><stop offset=".5" stop-color="#D015FF"/><stop offset="1" stop-color="#5E13FF"/></linearGradient><linearGradient id="W" x1="45.94" y1="4.69" x2="502.661" y2="451.318" gradientUnits="userSpaceOnUse"><stop stop-color="#FF0075"/><stop offset=".5" stop-color="#D015FF"/><stop offset="1" stop-color="#5E13FF"/></linearGradient><linearGradient id="X" x1="46.557" y1="5.003" x2="502.204" y2="451.19" gradientUnits="userSpaceOnUse"><stop stop-color="#FF0075"/><stop offset=".5" stop-color="#D015FF"/><stop offset="1" stop-color="#5E13FF"/></linearGradient><linearGradient id="Y" x1="47.202" y1="5.411" x2="501.836" y2="450.98" gradientUnits="userSpaceOnUse"><stop stop-color="#FF0075"/><stop offset=".5" stop-color="#D015FF"/><stop offset="1" stop-color="#5E13FF"/></linearGradient><linearGradient id="Z" x1="47.638" y1="5.894" x2="501.526" y2="450.85" gradientUnits="userSpaceOnUse"><stop stop-color="#FF0075"/><stop offset=".5" stop-color="#D015FF"/><stop offset="1" stop-color="#5E13FF"/></linearGradient><linearGradient id="aa" x1="48.144" y1="6.777" x2="501.011" y2="450.76" gradientUnits="userSpaceOnUse"><stop stop-color="#FF0075"/><stop offset=".5" stop-color="#D015FF"/><stop offset="1" stop-color="#5E13FF"/></linearGradient><linearGradient id="ab" x1="48.361" y1="7.821" x2="500.416" y2="450.878" gradientUnits="userSpaceOnUse"><stop stop-color="#FF0075"/><stop offset=".5" stop-color="#D015FF"/><stop offset="1" stop-color="#5E13FF"/></linearGradient><linearGradient id="ac" x1="48.658" y1="9.184" x2="499.651" y2="451.023" gradientUnits="userSpaceOnUse"><stop stop-color="#FF0075"/><stop offset=".5" stop-color="#D015FF"/><stop offset="1" stop-color="#5E13FF"/></linearGradient><linearGradient id="ad" x1="48.827" y1="10.705" x2="498.782" y2="451.331" gradientUnits="userSpaceOnUse"><stop stop-color="#FF0075"/><stop offset=".5" stop-color="#D015FF"/><stop offset="1" stop-color="#5E13FF"/></linearGradient><linearGradient id="ae" x1="48.775" y1="12.17" x2="497.94" y2="451.766" gradientUnits="userSpaceOnUse"><stop stop-color="#FF0075"/><stop offset=".5" stop-color="#D015FF"/><stop offset="1" stop-color="#5E13FF"/></linearGradient><linearGradient id="af" x1="48.805" y1="13.79" x2="496.984" y2="452.227" gradientUnits="userSpaceOnUse"><stop stop-color="#FF0075"/><stop offset=".5" stop-color="#D015FF"/><stop offset="1" stop-color="#5E13FF"/></linearGradient><linearGradient id="ag" x1="48.554" y1="15.283" x2="496.022" y2="452.929" gradientUnits="userSpaceOnUse"><stop stop-color="#FF0075"/><stop offset=".5" stop-color="#D015FF"/><stop offset="1" stop-color="#5E13FF"/></linearGradient><linearGradient id="ah" x1="48.438" y1="16.707" x2="495.061" y2="453.581" gradientUnits="userSpaceOnUse"><stop stop-color="#FF0075"/><stop offset=".5" stop-color="#D015FF"/><stop offset="1" stop-color="#5E13FF"/></linearGradient><linearGradient id="ai" x1="48.268" y1="17.931" x2="494.125" y2="454.35" gradientUnits="userSpaceOnUse"><stop stop-color="#FF0075"/><stop offset=".5" stop-color="#D015FF"/><stop offset="1" stop-color="#5E13FF"/></linearGradient><linearGradient id="aj" x1="47.828" y1="18.871" x2="493.236" y2="455.415" gradientUnits="userSpaceOnUse"><stop stop-color="#FF0075"/><stop offset=".5" stop-color="#D015FF"/><stop offset="1" stop-color="#5E13FF"/></linearGradient><linearGradient id="ak" x1="47.573" y1="19.71" x2="492.298" y2="456.451" gradientUnits="userSpaceOnUse"><stop stop-color="#FF0075"/><stop offset=".5" stop-color="#D015FF"/><stop offset="1" stop-color="#5E13FF"/></linearGradient><linearGradient id="al" x1="47.115" y1="20.314" x2="491.33" y2="457.75" gradientUnits="userSpaceOnUse"><stop stop-color="#FF0075"/><stop offset=".5" stop-color="#D015FF"/><stop offset="1" stop-color="#5E13FF"/></linearGradient><linearGradient id="am" x1="47.039" y1="20.827" x2="490.449" y2="458.793" gradientUnits="userSpaceOnUse"><stop stop-color="#FF0075"/><stop offset=".5" stop-color="#D015FF"/><stop offset="1" stop-color="#5E13FF"/></linearGradient><linearGradient id="an" x1="47.101" y1="21.172" x2="489.678" y2="459.789" gradientUnits="userSpaceOnUse"><stop stop-color="#FF0075"/><stop offset=".5" stop-color="#D015FF"/><stop offset="1" stop-color="#5E13FF"/></linearGradient><linearGradient id="ao" x1="47.257" y1="21.253" x2="489.163" y2="460.541" gradientUnits="userSpaceOnUse"><stop stop-color="#FF0075"/><stop offset=".5" stop-color="#D015FF"/><stop offset="1" stop-color="#5E13FF"/></linearGradient><linearGradient id="ap" x1="47.739" y1="21.163" x2="488.837" y2="460.946" gradientUnits="userSpaceOnUse"><stop stop-color="#FF0075"/><stop offset=".5" stop-color="#D015FF"/><stop offset="1" stop-color="#5E13FF"/></linearGradient><linearGradient id="aq" x1="48.17" y1="20.756" x2="488.787" y2="461.204" gradientUnits="userSpaceOnUse"><stop stop-color="#FF0075"/><stop offset=".5" stop-color="#D015FF"/><stop offset="1" stop-color="#5E13FF"/></linearGradient><linearGradient id="ar" x1="48.876" y1="20.194" x2="488.975" y2="461.092" gradientUnits="userSpaceOnUse"><stop stop-color="#FF0075"/><stop offset=".5" stop-color="#D015FF"/><stop offset="1" stop-color="#5E13FF"/></linearGradient><linearGradient id="as" x1="49.563" y1="19.456" x2="489.357" y2="460.906" gradientUnits="userSpaceOnUse"><stop stop-color="#FF0075"/><stop offset=".5" stop-color="#D015FF"/><stop offset="1" stop-color="#5E13FF"/></linearGradient><linearGradient id="at" x1="50.151" y1="18.654" x2="489.871" y2="460.639" gradientUnits="userSpaceOnUse"><stop stop-color="#FF0075"/><stop offset=".5" stop-color="#D015FF"/><stop offset="1" stop-color="#5E13FF"/></linearGradient><linearGradient id="au" x1="50.852" y1="17.937" x2="490.401" y2="460.276" gradientUnits="userSpaceOnUse"><stop stop-color="#FF0075"/><stop offset=".5" stop-color="#D015FF"/><stop offset="1" stop-color="#5E13FF"/></linearGradient><linearGradient id="av" x1="51.327" y1="17.231" x2="490.969" y2="460.039" gradientUnits="userSpaceOnUse"><stop stop-color="#FF0075"/><stop offset=".5" stop-color="#D015FF"/><stop offset="1" stop-color="#5E13FF"/></linearGradient><linearGradient id="aw" x1="51.837" y1="16.726" x2="491.457" y2="459.811" gradientUnits="userSpaceOnUse"><stop stop-color="#FF0075"/><stop offset=".5" stop-color="#D015FF"/><stop offset="1" stop-color="#5E13FF"/></linearGradient></defs></svg>
