<svg fill="none" height="41" viewBox="0 0 103 41" width="103" xmlns="http://www.w3.org/2000/svg" xmlns:xlink="http://www.w3.org/1999/xlink"><clipPath id="a"><path d="m0 0h103v41h-103z"/></clipPath><g clip-path="url(#a)" fill="#86888b"><path d="m18.2644 0v8.02622h11.503v5.61678h-11.503v16.8609c0 3.0065 1.4002 4.0104 4.412 4.0104h26.8686c2.7423 0 3.815-1.0567 3.815-3.0752 0-5.8862-20.269-3.6142-20.269-14.7156 0-5.6907 3.947-8.69728 10.9693-8.69728h13.8649v5.61678h-14.8635c-2.8797 0-3.7516.8031-3.815 2.811-.0687 5.5534 20.2637 3.2126 20.2637 14.7156 0 6.0924-4.2799 8.9826-9.9707 8.9826h-27.6664c-6.0236 0-9.511-4.0157-9.511-10.3669v-29.7853z"/><path d="m9.46129 10.7581c.00105.873-.25696 1.7268-.74136 2.4532-.4844.7263-1.17341 1.2927-1.97982 1.6272-.80641.3346-1.69396.4225-2.55031.2524-.85634-.1701-1.64298-.5904-2.26033-1.2078-.61736-.6173-1.037671-1.4039-1.207742-2.2603-.170071-.8563-.082253-1.74388.252339-2.55029.334593-.80641.900913-1.49543 1.627283-1.97983.72636-.4844 1.58011-.7424 2.45318-.74136 1.16832.0014 2.28838.46613 3.11451 1.29226.82612.82612 1.29086 1.94618 1.29225 3.11452z"/><path d="m67.5525 7.99463h-6.0818v32.14187h6.0818z"/><path d="m96.5553 8v3.5455c-2.8168-2.60424-6.5096-4.05458-10.3458-4.06332-8.729 0-15.7989 7.42912-15.7989 16.59142 0 9.1622 7.0646 16.5861 15.7989 16.5861 3.8362-.0088 7.529-1.4591 10.3458-4.0633v3.5455h6.0817v-32.1419zm-10.1451 26.9901c-5.6009 0-10.145-4.8876-10.145-10.9165s4.5441-10.9218 10.145-10.9218c5.601 0 10.1451 4.8929 10.1451 10.9218s-4.5441 10.9165-10.1451 10.9165z"/></g></svg>
