<svg width="56" height="56" viewBox="0 0 56 56" xmlns="http://www.w3.org/2000/svg"><g fill="none" fill-rule="evenodd"><g stroke-linecap="round" stroke-linejoin="round" stroke-width="2"><path d="M20.329 51h-7.601C8.99 51 6 47.923 6 44.009 6 40.095 8.99 37 12.728 37h7.543C24.01 37 27 40.168 27 44.009 27 47.849 24.01 51 20.33 51Zm25 0h-7.601C33.99 51 31 47.923 31 44.009 31 40.095 33.99 37 37.728 37h7.543C49.01 37 52 40.168 52 44.009 52 47.849 49.01 51 45.33 51Z" stroke="#79B8FF"/><path d="m39.483 30 2.22 3.328M18.702 30l-2.219 3.328" stroke="#2088FF"/></g><g stroke="#2088FF" stroke-linecap="round" stroke-width="2"><path d="M34.997 25.2c-.6-2.7-3.1-4.7-6-4.7s-5.4 2-6 4.7" stroke-linejoin="round"/><path d="M29.01 20.5a4.3 4.3 0 1 0 0-8.6 4.3 4.3 0 0 0 0 8.6Z"/><path d="M22.968 25.2c-.5-2-2.3-3.5-4.5-3.5s-4 1.5-4.5 3.5" stroke-linejoin="round"/><path d="M18.507 21.7a3.2 3.2 0 1 0 0-6.4 3.2 3.2 0 0 0 0 6.4Z"/><path d="M44.044 25.2c-.5-2-2.3-3.5-4.5-3.5s-4 1.5-4.5 3.5" stroke-linejoin="round"/><path d="M39.526 21.7a3.2 3.2 0 1 0 0-6.4 3.2 3.2 0 0 0 0 6.4Z"/><path d="M40.323 30H17.776C11.234 30 6 24.889 6 18.5S11.234 7 17.776 7h22.446C46.765 7 52 12.111 52 18.5c.1 6.29-5.234 11.5-11.676 11.5Z" stroke-linejoin="round"/></g><path d="M16 47.07c-.133-1.44-1.426-2.57-3-2.57s-2.865 1.129-3 2.57m3-6.57a2 2 0 1 1 0 4 2 2 0 0 1 0-4Zm10 6.57c-.133-1.44-1.426-2.57-3-2.57s-2.865 1.129-3 2.57m3-6.57a2 2 0 1 1 0 4 2 2 0 0 1 0-4Z" stroke="#79B8FF" stroke-width="2" stroke-linecap="round" stroke-linejoin="round"/><path d="M16.5 48.514a1.5 1.5 0 1 0 0-3 1.5 1.5 0 0 0 0 3Z" fill="#79B8FF" fill-rule="nonzero"/><path d="M41 47.07c-.133-1.44-1.426-2.57-3-2.57s-2.865 1.129-3 2.57m3-6.57a2 2 0 1 1 0 4 2 2 0 0 1 0-4Zm10 6.57c-.133-1.44-1.426-2.57-3-2.57s-2.865 1.129-3 2.57m3-6.57a2 2 0 1 1 0 4 2 2 0 0 1 0-4Z" stroke="#79B8FF" stroke-width="2" stroke-linecap="round" stroke-linejoin="round"/><path d="M41.5 48.514a1.5 1.5 0 1 0 0-3 1.5 1.5 0 0 0 0 3Z" fill="#79B8FF" fill-rule="nonzero"/></g></svg>
