<svg width="64" height="64" viewBox="0 0 64 64" fill="none" xmlns="http://www.w3.org/2000/svg">
<path fill-rule="evenodd" clip-rule="evenodd" d="M32 61.969C26.1139 61.969 20.36 60.2114 15.4658 56.9184C10.5717 53.6253 6.75719 48.9448 4.50467 43.4687C2.25215 37.9926 1.66279 31.9669 2.81112 26.1535C3.95944 20.3401 6.79388 15.0002 10.956 10.8089C15.1181 6.61772 20.421 3.76346 26.194 2.60711C31.967 1.45075 37.9509 2.04423 43.389 4.31251C48.8271 6.58078 53.4751 10.422 56.7452 15.3503C60.0154 20.2787 61.7608 26.0729 61.7608 32.0001C61.7516 39.9455 58.6131 47.5629 53.0339 53.1811C47.4547 58.7993 39.8903 61.9598 32 61.969ZM32 5.5364C26.8023 5.5364 21.7214 7.08847 17.3997 9.99634C13.0779 12.9042 9.70957 17.0373 7.72051 21.8729C5.73144 26.7085 5.21101 32.0295 6.22503 37.163C7.23904 42.2964 9.74197 47.0118 13.4173 50.7128C17.0926 54.4139 21.7753 56.9343 26.8731 57.9554C31.9709 58.9765 37.2549 58.4524 42.0569 56.4495C46.859 54.4465 50.9634 51.0546 53.851 46.7026C56.7387 42.3507 58.28 37.2342 58.28 32.0001C58.2708 24.9844 55.4991 18.2586 50.5726 13.2977C45.6462 8.33678 38.9671 5.54567 32 5.5364ZM31.5594 33.3896C31.2071 33.3692 30.8552 33.3241 30.5063 33.2542C29.0208 32.9567 27.6563 32.2223 26.5854 31.1438C25.5144 30.0654 24.7851 28.6914 24.4896 27.1955C24.1942 25.6997 24.3458 24.1492 24.9254 22.7401C25.505 21.3311 26.4865 20.1267 27.7458 19.2794C29.0051 18.4321 30.4857 17.9798 32.0002 17.9798C34.0312 17.9798 35.979 18.7923 37.4151 20.2384C38.8512 21.6846 39.658 23.646 39.658 25.6911C39.658 27.2163 39.2089 28.7072 38.3674 29.9753C37.526 31.2434 36.33 32.2318 34.9307 32.8154C34.1405 33.145 33.3055 33.3372 32.4607 33.3885C32.2903 33.3842 32.1196 33.383 31.9486 33.3847C31.8187 33.3847 31.689 33.3863 31.5594 33.3896ZM38.4509 34.8352C38.9577 34.4726 39.4347 34.0671 39.8764 33.6223C40.9107 32.5808 41.7311 31.3443 42.2909 29.9835C42.8507 28.6226 43.1388 27.1641 43.1388 25.6911C43.1388 23.4727 42.4855 21.3041 41.2616 19.4596C40.0377 17.6151 38.2981 16.1774 36.2628 15.3285C34.2275 14.4796 31.9879 14.2574 29.8272 14.6902C27.6665 15.123 25.6819 16.1913 24.1241 17.7599C22.5663 19.3286 21.5055 21.3271 21.0757 23.5029C20.6459 25.6787 20.8665 27.9339 21.7096 29.9835C22.5117 31.9335 23.8431 33.6141 25.5482 34.8342C24.3338 35.4143 23.1938 36.1613 22.1634 37.0621C19.4484 39.4354 17.676 42.7164 17.1726 46.3011C17.1308 46.5362 17.1368 46.7774 17.19 47.0102C17.2432 47.2429 17.3427 47.4624 17.4824 47.6554C17.622 47.8485 17.7991 48.011 18.0028 48.1333C18.2065 48.2556 18.4327 48.3352 18.6678 48.3671C18.9028 48.3991 19.1419 48.3828 19.3705 48.3193C19.5991 48.2557 19.8126 48.1463 19.9982 47.9975C20.1837 47.8486 20.3374 47.6636 20.45 47.4534C20.5626 47.2432 20.6318 47.0122 20.6534 46.7743C21.0436 44.0307 22.405 41.5213 24.4869 39.7082C26.5569 37.9055 29.2007 36.9119 31.9364 36.9074C31.9577 36.9075 31.979 36.9076 32.0002 36.9076C32.0524 36.9076 32.1046 36.9072 32.1568 36.9064C34.878 36.9127 37.5072 37.9114 39.556 39.7209C41.6482 41.5688 42.9867 44.1315 43.3134 46.9145C43.3607 47.3452 43.5647 47.7429 43.8861 48.0309C44.2076 48.319 44.6235 48.477 45.0538 48.4743V48.4393H45.1756C45.4031 48.4152 45.6236 48.3463 45.8245 48.2363C46.0255 48.1264 46.203 47.9777 46.3469 47.7986C46.4907 47.6196 46.5981 47.4138 46.6629 47.1929C46.7277 46.972 46.7487 46.7405 46.7245 46.5114C46.3076 42.8716 44.567 39.5162 41.8385 37.0923C40.8101 36.1786 39.6687 35.4217 38.4509 34.8352Z" fill="#79B8FF"/>
</svg>
