<svg xmlns="http://www.w3.org/2000/svg" viewBox="0 0 39.73 29.66"><title>Asset 2</title><g id="Layer_2" data-name="Layer 2"><g id="Layer_2-2" data-name="Layer 2"><circle cx="35.3" cy="24.03" r="3.74" style="fill:none;stroke:#2b3f4a;stroke-linecap:round;stroke-linejoin:round;stroke-width:1.36599976676025px;stroke-dasharray:1.3033746480941772,2.6067492961883545"/><path d="M18.1,6A6.23,6.23,0,0,0,7.47,10.52v.18L6.18,12.81l1,1-2.3,2.3,0,2.2L2.9,18,.68,20.22l1.45,4.9,8.18-8.18,1,1,2.11-1.29h.18A6.23,6.23,0,0,0,18.1,6Z" style="fill:#fdb915"/><path d="M.68,20.22l1.45,4.9,8.18-8.18,1,1,2.11-1.29h.18a6.23,6.23,0,1,0-6.08-6.08v.18L6.18,12.81l1,1-2.3,2.3,0,2.2L2.9,18Z" style="fill:none;stroke:#2b3f4a;stroke-linecap:round;stroke-linejoin:round;stroke-width:1.36599976676025px"/><path d="M17.68,4.15a6.23,6.23,0,0,0-4.3,10.74l.13.12.58,2.41h1.35v3.25L17,22.24,15.44,23.4v3.14L19.93,29V17.42h1.35L21.85,15l.13-.12a6.23,6.23,0,0,0-4.3-10.74Zm0,6.84a1.9,1.9,0,1,1,1.9-1.9A1.9,1.9,0,0,1,17.68,11Z" style="fill:#ffce6c"/><rect x="15.44" y="16.82" width="4.49" height="2.26" style="fill:#fdb915"/><path d="M15.44,26.54,19.93,29V17.42h1.35L21.85,15l.13-.12a6.23,6.23,0,1,0-8.6,0l.13.12.58,2.41h1.35v3.25L17,22.24,15.44,23.4Z" style="fill:none;stroke:#2b3f4a;stroke-linecap:round;stroke-linejoin:round;stroke-width:1.36599976676025px"/><path d="M17.68,7.19a1.9,1.9,0,1,1-1.9,1.9A1.9,1.9,0,0,1,17.68,7.19Z" style="fill:none;stroke:#2b3f4a;stroke-linecap:round;stroke-linejoin:round;stroke-width:1.36599976676025px"/><path d="M9.66,5.63q0-.16,0-.33a4.62,4.62,0,1,1,6.22,4.33" style="fill:none;stroke:#2b3f4a;stroke-linecap:round;stroke-linejoin:round;stroke-width:1.36599976676025px"/></g></g></svg>