<svg fill="none" height="64" viewBox="0 0 56 64" width="56" xmlns="http://www.w3.org/2000/svg"><path d="m0 0h56v64h-56z" fill="#051127"/><rect fill="#fff" height="56" rx="16" width="56" y="4"/><path d="m43.6096 18.8281-6.923-3.3333c-.8013-.3858-1.7591-.2231-2.388.4058l-22.6636 20.664c-.6096.5558-.6089 1.5155.0015 2.0704l1.8512 1.6829c.4991.4538 1.2506.4871 1.7879.0796l27.2923-20.7046c.9156-.6946 2.2307-.0416 2.2307 1.1077v-.0804c0-.8067-.4621-1.5421-1.189-1.8921z" fill="#0065a9"/><path d="m43.6096 45.1719-6.923 3.3334c-.8013.3857-1.7591.223-2.388-.4058l-22.6636-20.664c-.6096-.5558-.6089-1.5156.0015-2.0705l1.8512-1.6829c.4991-.4537 1.2506-.4871 1.7879-.0795l27.2923 20.7045c.9156.6946 2.2307.0416 2.2307-1.1077v.0804c0 .8067-.4621 1.5421-1.189 1.8921z" fill="#007acc"/><path d="m36.6877 48.5059c-.8015.3855-1.7593.2226-2.3882-.4063.7749.7749 2.1.226 2.1-.8699v-30.4603c0-1.096-1.3251-1.6448-2.1-.8699.6289-.6289 1.5867-.7919 2.3882-.4064l6.9219 3.3287c.7274.3498 1.1899 1.0855 1.1899 1.8926v22.5704c0 .8071-.4625 1.5427-1.1899 1.8925z" fill="#1f9cf0"/></svg>