<svg width="201" height="39" viewBox="0 0 201 39" fill="none" xmlns="http://www.w3.org/2000/svg">
<path d="M133.483 33.3459C136.143 33.41 138.708 32.4161 140.632 30.5567L144.158 34.3718C141.818 36.7763 138.58 38.5716 133.547 38.5716C124.89 38.5716 119.312 32.8329 119.312 25.0744C119.312 17.3801 125.179 11.5772 132.745 11.5772C141.337 11.5772 146.178 18.1174 145.761 27.1583H125.5C126.205 30.9414 128.866 33.3459 133.483 33.3459ZM139.638 22.8623C139.093 19.3678 137.009 16.7709 132.809 16.7709C128.898 16.7709 126.205 18.983 125.5 22.8623H139.638ZM0.337891 33.0573L15.951 17.1877H0.690549V12.2184H23.1645V17.3159L7.58342 33.1535H23.3889V38.1228H0.337891V33.0573ZM40.8936 33.3459C43.5546 33.41 46.1194 32.4161 48.043 30.5567L51.5696 34.3718C49.2292 36.7763 45.9911 38.5716 40.9577 38.5716C32.3336 38.5716 26.7232 32.8329 26.7232 25.0744C26.7232 17.3801 32.5901 11.5772 40.1562 11.5772C48.7483 11.5772 53.5893 18.1174 53.1726 27.1583H32.9107C33.6481 30.9414 36.277 33.3459 40.8936 33.3459ZM47.0812 22.8623C46.5362 19.3678 44.4523 16.7709 40.2524 16.7709C36.3411 16.7709 33.6481 18.983 32.9428 22.8623H47.0812ZM86.8995 25.1065C86.8995 16.803 93.0871 11.6413 99.9158 11.6413C103.346 11.6413 106.616 13.1482 108.54 15.5206V0.228027H114.054V38.0587H108.54V34.468C106.552 37.0007 103.282 38.5716 99.8517 38.5716C93.2474 38.5716 86.8995 33.3459 86.8995 25.1065ZM108.861 25.0424C108.861 20.4257 105.366 16.6427 100.653 16.6427C96.0366 16.6427 92.4459 20.3296 92.4459 25.0424C92.4459 29.7552 96.0366 33.4741 100.653 33.4741C105.366 33.5062 108.861 29.7231 108.861 25.0424ZM149.352 32.5444L154.353 29.9475C155.7 32.352 158.265 33.7947 161.022 33.7306C164.132 33.7306 165.767 32.1276 165.767 30.3002C165.767 28.2163 162.753 27.7675 159.483 27.0942C155.059 26.1645 150.474 24.7218 150.474 19.3678C150.474 15.2641 154.386 11.481 160.509 11.5452C165.35 11.5452 168.941 13.4688 170.96 16.5786L166.312 19.1433C165.126 17.3159 163.074 16.1938 160.477 16.1938C157.495 16.1938 155.989 17.6365 155.989 19.3036C155.989 21.1631 158.393 21.6761 162.144 22.5096C166.408 23.4394 171.249 24.85 171.249 30.2361C171.249 33.8268 168.139 38.6357 160.733 38.5716C155.347 38.5716 151.532 36.3916 149.352 32.5444ZM186.221 26.5492L181.861 31.3261V38.0587H176.347V0.228027H181.861V24.9782L193.563 12.1543H200.263L190.132 23.247L200.552 38.0587H194.3L186.221 26.5492ZM70.2284 11.6093C63.6561 11.6093 58.1739 15.8732 58.1739 22.8944V38.0587H63.8164V23.6317C63.8164 19.3678 66.253 16.835 70.4208 16.835C74.5885 16.835 76.6724 19.3678 76.6724 23.6317V38.0587H82.2829V22.9264C82.2829 15.8732 76.8007 11.6093 70.2284 11.6093Z" fill="#24292E"/>
</svg>
