<svg width="1600" height="746" viewBox="0 0 1600 746" fill="none" xmlns="http://www.w3.org/2000/svg">
<g clip-path="url(#clip0_2563_248372)">
<mask id="mask0_2563_248372" style="mask-type:alpha" maskUnits="userSpaceOnUse" x="0" y="0" width="1600" height="746">
<rect width="1600" height="746" fill="#1B1F23"/>
</mask>
<g mask="url(#mask0_2563_248372)">
<g opacity="0.32">
<path d="M1265 80H1166V-19H1265V80Z" stroke="white" stroke-dasharray="2 5"/>
<path d="M1463 80H1364V-19H1463V80Z" stroke="white" stroke-dasharray="2 5"/>
<path d="M1364 179H1265V80H1364V179Z" stroke="white" stroke-dasharray="2 5"/>
<path d="M1463 179H1364V80H1463V179Z" stroke="white" stroke-dasharray="2 5"/>
<path d="M1562 179H1463V80H1562V179Z" stroke="white" stroke-dasharray="2 5"/>
<path d="M1562 80H1463V-19H1562V80Z" stroke="white" stroke-dasharray="2 5"/>
<path d="M1661 80H1562V-19H1661V80Z" stroke="white" stroke-dasharray="2 5"/>
<path d="M1364 80H1265V-19H1364V80Z" stroke="white" stroke-dasharray="2 5"/>
<path d="M1661 278H1562V179H1661V278Z" stroke="white" stroke-dasharray="2 5"/>
<path d="M1661 377H1562V278H1661V377Z" stroke="white" stroke-dasharray="2 5"/>
<path d="M1661 179H1562V80H1661V179Z" stroke="white" stroke-dasharray="2 5"/>
<path d="M176 278H77V179H176V278Z" stroke="white" stroke-dasharray="2 5"/>
<path d="M77 377H-22V278H77V377Z" stroke="white" stroke-dasharray="2 5"/>
<path d="M77 476H-22V377H77V476Z" stroke="white" stroke-dasharray="2 5"/>
<path d="M77 80H-22V-19H77V80Z" stroke="white" stroke-dasharray="2 5"/>
<path d="M77 179H-22V80H77V179Z" stroke="white" stroke-dasharray="2 5"/>
<path d="M176 179H77V80H176V179Z" stroke="white" stroke-dasharray="2 5"/>
<path d="M275 179H176V80H275V179Z" stroke="white" stroke-dasharray="2 5"/>
<path d="M275 80H176V-19H275V80Z" stroke="white" stroke-dasharray="2 5"/>
</g>
</g>
</g>
<defs>
<clipPath id="clip0_2563_248372">
<rect width="1600" height="746" fill="white"/>
</clipPath>
</defs>
</svg>
