<svg width="50" height="50" viewBox="0 0 50 50" fill="none" xmlns="http://www.w3.org/2000/svg">
<g clip-path="url(#clip0_459_53)">
<path opacity="0.7" fill-rule="evenodd" clip-rule="evenodd" d="M29.7717 1.24614C28.772 0.646268 27.5 1.36644 27.5 2.53238V22V22.2071L27.3536 22.3536L23.5 26.2071V45C23.5 46.4136 22.8482 47.675 21.8287 48.5H43C44.933 48.5 46.5 46.933 46.5 45V13.2648C46.5 12.0353 45.855 10.8961 44.8007 10.2635L29.7717 1.24614ZM19 48.5C20.933 48.5 22.5 46.933 22.5 45V27.2071L15.5 34.2071V45C15.5 46.933 17.067 48.5 19 48.5ZM22.5 25.7929L14.6464 33.6464L14.5 33.7929V34V45C14.5 46.4136 15.1518 47.675 16.1713 48.5H7C5.067 48.5 3.5 46.933 3.5 45V21.6569C3.5 20.7286 3.86875 19.8384 4.52513 19.182L10.4553 13.2518C11.8458 11.8613 14.1085 11.8889 15.4647 13.3129L21.5345 19.6862C22.1543 20.337 22.5 21.2013 22.5 22.1V25.7929ZM23.5 24.7929V22.1C23.5 20.9445 23.0555 19.8333 22.2586 18.9966L16.1888 12.6232C14.4452 10.7924 11.5359 10.757 9.7482 12.5447L3.81802 18.4749C2.97411 19.3188 2.5 20.4634 2.5 21.6569V45C2.5 47.4853 4.51472 49.5 7 49.5H19H43C45.4853 49.5 47.5 47.4853 47.5 45V13.2648C47.5 11.6841 46.6707 10.2193 45.3152 9.40604L30.2862 0.388648C28.6199 -0.611139 26.5 0.589141 26.5 2.53238V21.7929L23.5 24.7929Z" fill="url(#paint0_linear_459_53)"/>
<g filter="url(#filter0_ii_459_53)">
<path fill-rule="evenodd" clip-rule="evenodd" d="M47 13.2648C47 11.8597 46.2628 10.5577 45.058 9.83479L30.029 0.8174C28.6959 0.0175707 27 0.977796 27 2.53238V23.0188C25.6273 22.6662 24.1027 23.0524 23.0628 24.1773L23 24.2452V22.1C23 21.0729 22.6049 20.0851 21.8966 19.3414L15.8267 12.9681C14.2768 11.3407 11.6909 11.3091 10.1017 12.8983L4.17157 18.8284C3.42143 19.5786 3 20.596 3 21.6569V45C3 47.2091 4.79086 49 7 49H17.9944C17.9963 49 17.9981 49 18 49L19 49L31 49H34H43C45.2091 49 47 47.2091 47 45V13.2648Z" fill="url(#paint1_linear_459_53)"/>
</g>
<path d="M47 12.1141C47 11.4111 46.6309 10.7597 46.0278 10.3984L30.0278 0.813757C28.6947 0.015195 27 0.975512 27 2.52947V27.2452L26.9372 27.1773C25.3537 25.4643 22.6463 25.4643 21.0628 27.1773L13.0628 35.8311C12.3795 36.5703 12 37.5398 12 38.5464V49H43C45.2091 49 47 47.2091 47 45V12.1141Z" fill="url(#paint2_linear_459_53)"/>
<path d="M43 49H12L12.0001 48.5L12 48H42C44.2092 48 46 46.2091 46 44V10.6328C46 10.6328 46.4141 11.0625 46.7071 11.7695C47 12.4766 47 13 47 13V45C47 47.2091 45.2092 49 43 49Z" fill="url(#paint3_linear_459_53)"/>
<circle cx="25" cy="25" r="8" fill="white" stroke="url(#paint4_linear_459_53)"/>
<circle cx="25" cy="25" r="8" fill="white"/>
<path d="M27.9984 22L22 28M27.9984 22L28 26M27.9984 22H24" stroke="#24292E" stroke-width="2" stroke-linecap="round" stroke-linejoin="round"/>
</g>
<defs>
<filter id="filter0_ii_459_53" x="3" y="0.529297" width="44" height="48.4707" filterUnits="userSpaceOnUse" color-interpolation-filters="sRGB">
<feFlood flood-opacity="0" result="BackgroundImageFix"/>
<feBlend mode="normal" in="SourceGraphic" in2="BackgroundImageFix" result="shape"/>
<feColorMatrix in="SourceAlpha" type="matrix" values="0 0 0 0 0 0 0 0 0 0 0 0 0 0 0 0 0 0 127 0" result="hardAlpha"/>
<feOffset dx="1" dy="1"/>
<feComposite in2="hardAlpha" operator="arithmetic" k2="-1" k3="1"/>
<feColorMatrix type="matrix" values="0 0 0 0 0.65098 0 0 0 0 0.443137 0 0 0 0 0.854902 0 0 0 1 0"/>
<feBlend mode="normal" in2="shape" result="effect1_innerShadow_459_53"/>
<feColorMatrix in="SourceAlpha" type="matrix" values="0 0 0 0 0 0 0 0 0 0 0 0 0 0 0 0 0 0 127 0" result="hardAlpha"/>
<feOffset dx="-1" dy="-1"/>
<feComposite in2="hardAlpha" operator="arithmetic" k2="-1" k3="1"/>
<feColorMatrix type="matrix" values="0 0 0 0 0.443137 0 0 0 0 0.164706 0 0 0 0 0.690196 0 0 0 1 0"/>
<feBlend mode="normal" in2="effect1_innerShadow_459_53" result="effect2_innerShadow_459_53"/>
</filter>
<linearGradient id="paint0_linear_459_53" x1="-18.875" y1="4.855" x2="6.88308" y2="63.8409" gradientUnits="userSpaceOnUse">
<stop stop-color="#6D25AC"/>
<stop offset="1" stop-color="#613389"/>
</linearGradient>
<linearGradient id="paint1_linear_459_53" x1="-5.5" y1="7" x2="21" y2="42" gradientUnits="userSpaceOnUse">
<stop stop-color="#B27BE9"/>
<stop offset="1" stop-color="#681FA8"/>
</linearGradient>
<linearGradient id="paint2_linear_459_53" x1="12" y1="43" x2="42.167" y2="20.8647" gradientUnits="userSpaceOnUse">
<stop stop-color="#53E4DB"/>
<stop offset="1" stop-color="#722BB1" stop-opacity="0"/>
</linearGradient>
<linearGradient id="paint3_linear_459_53" x1="12.5" y1="48.5" x2="43" y2="48" gradientUnits="userSpaceOnUse">
<stop stop-color="#712AB0"/>
<stop offset="1" stop-color="#5D268E"/>
</linearGradient>
<linearGradient id="paint4_linear_459_53" x1="18.8125" y1="19.375" x2="32.4375" y2="28.1875" gradientUnits="userSpaceOnUse">
<stop stop-color="#54E4DC"/>
<stop offset="1" stop-color="#8A49C6"/>
</linearGradient>
<clipPath id="clip0_459_53">
<rect width="50" height="50" fill="white"/>
</clipPath>
</defs>
</svg>
