<svg fill="none" height="443" viewBox="0 0 503 443" width="503" xmlns="http://www.w3.org/2000/svg"><g fill="#fafbfc"><path d="m0 0h20.0939v20.0939h-20.0939z" transform="matrix(1 -.00000009 -.00000009 -1 151.073 442.067)"/><path d="m0 0h20.0939v20.0939h-20.0939z" transform="matrix(1 -.00000009 -.00000009 -1 151.073 321.503)"/><path d="m0 0h20.0939v20.0939h-20.0939z" transform="matrix(1 -.00000009 -.00000009 -1 151.073 381.785)"/><path d="m0 0h20.0939v20.0939h-20.0939z" transform="matrix(1 -.00000009 -.00000009 -1 151.073 411.926)"/><path d="m0 0h20.0939v20.0939h-20.0939z" transform="matrix(1 -.00000009 -.00000009 -1 151.073 291.362)"/><path d="m0 0h20.0939v20.0939h-20.0939z" transform="matrix(1 -.00000009 -.00000009 -1 151.073 351.644)"/><path d="m0 0h20.0939v20.0939h-20.0939z" transform="matrix(1 -.00000009 -.00000009 -1 151.073 231.08)"/><path d="m0 0h20.0939v20.0939h-20.0939z" transform="matrix(1 -.00000009 -.00000009 -1 331.918 442.067)"/><path d="m0 0h20.0939v20.0939h-20.0939z" transform="matrix(1 -.00000009 -.00000009 -1 331.918 321.503)"/><path d="m0 0h20.0939v20.0939h-20.0939z" transform="matrix(1 -.00000009 -.00000009 -1 331.918 381.785)"/><path d="m0 0h20.0939v20.0939h-20.0939z" transform="matrix(1 -.00000009 -.00000009 -1 331.918 140.658)"/><path d="m0 0h20.0939v20.0939h-20.0939z" transform="matrix(1 -.00000009 -.00000009 -1 331.918 411.926)"/><path d="m0 0h20.0939v20.0939h-20.0939z" transform="matrix(1 -.00000009 -.00000009 -1 331.918 291.362)"/><path d="m0 0h20.0939v20.0939h-20.0939z" transform="matrix(1 -.00000009 -.00000009 -1 331.918 351.644)"/><path d="m0 0h20.0939v20.0939h-20.0939z" transform="matrix(1 -.00000009 -.00000009 -1 241.496 381.785)"/><path d="m0 0h20.0939v20.0939h-20.0939z" transform="matrix(1 -.00000009 -.00000009 -1 241.496 261.221)"/><path d="m0 0h20.0939v20.0939h-20.0939z" transform="matrix(1 -.00000009 -.00000009 -1 241.496 411.926)"/><path d="m0 0h20.0939v20.0939h-20.0939z" transform="matrix(1 -.00000009 -.00000009 -1 241.496 291.362)"/><path d="m0 0h20.0939v20.0939h-20.0939z" transform="matrix(1 -.00000009 -.00000009 -1 241.496 231.08)"/></g><path d="m0 0h20.0939v20.0939h-20.0939z" fill="#f3f4f6" transform="matrix(1 -.00000009 -.00000009 -1 60.6501 442.067)"/><path d="m0 0h20.0939v20.0939h-20.0939z" fill="#fafbfc" transform="matrix(1 -.00000009 -.00000009 -1 60.6501 321.503)"/><path d="m0 0h20.0939v20.0939h-20.0939z" fill="#fafbfc" transform="matrix(1 -.00000009 -.00000009 -1 60.6501 381.785)"/><path d="m0 0h20.0939v20.0939h-20.0939z" fill="#f3f4f6" transform="matrix(1 -.00000009 -.00000009 -1 60.6501 411.926)"/><path d="m0 0h20.0939v20.0939h-20.0939z" fill="#fafbfc" transform="matrix(1 -.00000009 -.00000009 -1 60.6501 351.644)"/><path d="m0 0h20.0939v20.0939h-20.0939z" fill="#fafbfc" transform="matrix(1 -.00000009 -.00000009 -1 422.341 80.376)"/><path d="m0 0h20.0939v20.0939h-20.0939z" fill="#fafbfc" transform="matrix(1 -.00000009 -.00000009 -1 422.341 140.658)"/><path d="m0 0h20.0939v20.0939h-20.0939z" fill="#fafbfc" transform="matrix(1 -.00000009 -.00000009 -1 422.341 291.362)"/><path d="m0 0h20.0939v20.0939h-20.0939z" fill="#fafbfc" transform="matrix(1 -.00000009 -.00000009 -1 422.341 50.2349)"/><path d="m0 0h20.0939v20.0939h-20.0939z" fill="#fafbfc" transform="matrix(1 -.00000009 -.00000009 -1 422.341 110.517)"/><path d="m0 0h20.0939v20.0939h-20.0939z" fill="#fafbfc" transform="matrix(1 -.00000009 -.00000009 -1 452.482 110.517)"/><path d="m0 0h20.0939v20.0939h-20.0939z" fill="#fafbfc" transform="matrix(1 -.00000009 -.00000009 -1 181.213 442.067)"/><path d="m0 0h20.0939v20.0939h-20.0939z" fill="#fafbfc" transform="matrix(1 -.00000009 -.00000009 -1 181.213 381.785)"/><path d="m0 0h20.0939v20.0939h-20.0939z" fill="#fafbfc" transform="matrix(1 -.00000009 -.00000009 -1 181.213 411.926)"/><path d="m0 0h20.0939v20.0939h-20.0939z" fill="#fafbfc" transform="matrix(1 -.00000009 -.00000009 -1 181.213 291.362)"/><path d="m0 0h20.0939v20.0939h-20.0939z" fill="#fafbfc" transform="matrix(1 -.00000009 -.00000009 -1 181.213 351.644)"/><path d="m0 0h20.0939v20.0939h-20.0939z" fill="#fafbfc" transform="matrix(1 -.00000009 -.00000009 -1 .368408 442.067)"/><path d="m0 0h20.0939v20.0939h-20.0939z" fill="#fafbfc" transform="matrix(1 -.00000009 -.00000009 -1 .368408 381.785)"/><path d="m0 0h20.0939v20.0939h-20.0939z" fill="#f3f4f6" transform="matrix(1 -.00000009 -.00000009 -1 .368408 411.926)"/><g fill="#fafbfc"><path d="m0 0h20.0939v20.0939h-20.0939z" transform="matrix(1 -.00000009 -.00000009 -1 362.059 321.503)"/><path d="m0 0h20.0939v20.0939h-20.0939z" transform="matrix(1 -.00000009 -.00000009 -1 362.059 140.658)"/><path d="m0 0h20.0939v20.0939h-20.0939z" transform="matrix(1 -.00000009 -.00000009 -1 362.06 20.094)"/><path d="m0 0h20.0939v20.0939h-20.0939z" transform="matrix(1 -.00000009 -.00000009 -1 362.059 291.362)"/><path d="m0 0h20.0939v20.0939h-20.0939z" transform="matrix(1 -.00000009 -.00000009 -1 362.059 110.517)"/><path d="m0 0h20.0939v20.0939h-20.0939z" transform="matrix(1 -.00000009 -.00000009 -1 271.637 442.067)"/><path d="m0 0h20.0939v20.0939h-20.0939z" transform="matrix(1 -.00000009 -.00000009 -1 271.637 200.94)"/><path d="m0 0h20.0939v20.0939h-20.0939z" transform="matrix(1 -.00000009 -.00000009 -1 271.637 381.785)"/><path d="m0 0h20.0939v20.0939h-20.0939z" transform="matrix(1 -.00000009 -.00000009 -1 271.637 261.221)"/><path d="m0 0h20.0939v20.0939h-20.0939z" transform="matrix(1 -.00000009 -.00000009 -1 271.637 411.926)"/><path d="m0 0h20.0939v20.0939h-20.0939z" transform="matrix(1 -.00000009 -.00000009 -1 271.637 291.362)"/><path d="m0 0h20.0939v20.0939h-20.0939z" transform="matrix(1 -.00000009 -.00000009 -1 271.637 231.08)"/><path d="m0 0h20.0939v20.0939h-20.0939z" transform="matrix(1 -.00000009 -.00000009 -1 90.7908 442.067)"/><path d="m0 0h20.0939v20.0939h-20.0939z" transform="matrix(1 -.00000009 -.00000009 -1 90.7908 200.939)"/><path d="m0 0h20.0939v20.0939h-20.0939z" transform="matrix(1 -.00000009 -.00000009 -1 90.7908 321.503)"/><path d="m0 0h20.0939v20.0939h-20.0939z" transform="matrix(1 -.00000009 -.00000009 -1 90.7908 411.926)"/><path d="m0 0h20.0939v20.0939h-20.0939z" transform="matrix(1 -.00000009 -.00000009 -1 90.7908 291.362)"/><path d="m0 0h20.0939v20.0939h-20.0939z" transform="matrix(1 -.00000009 -.00000009 -1 452.482 321.503)"/><path d="m0 0h20.0939v20.0939h-20.0939z" transform="matrix(1 -.00000009 -.00000009 -1 452.482 80.376)"/><path d="m0 0h20.0939v20.0939h-20.0939z" transform="matrix(1 -.00000009 -.00000009 -1 452.482 381.785)"/><path d="m0 0h20.0939v20.0939h-20.0939z" transform="matrix(1 -.00000009 -.00000009 -1 452.482 140.658)"/><path d="m0 0h20.0939v20.0939h-20.0939z" transform="matrix(1 -.00000009 -.00000009 -1 211.354 321.503)"/><path d="m0 0h20.0939v20.0939h-20.0939z" transform="matrix(1 -.00000009 -.00000009 -1 211.354 381.785)"/><path d="m0 0h20.0939v20.0939h-20.0939z" transform="matrix(1 -.00000009 -.00000009 -1 211.354 261.221)"/><path d="m0 0h20.0939v20.0939h-20.0939z" transform="matrix(1 -.00000009 -.00000009 -1 211.354 411.926)"/><path d="m0 0h20.0939v20.0939h-20.0939z" transform="matrix(1 -.00000009 -.00000009 -1 211.354 291.362)"/><path d="m0 0h20.0939v20.0939h-20.0939z" transform="matrix(1 -.00000009 -.00000009 -1 211.354 351.644)"/><path d="m0 0h20.0939v20.0939h-20.0939z" transform="matrix(1 -.00000009 -.00000009 -1 211.354 231.08)"/><path d="m0 0h20.0939v20.0939h-20.0939z" transform="matrix(1 -.00000009 -.00000009 -1 30.5093 442.067)"/><path d="m0 0h20.0939v20.0939h-20.0939z" transform="matrix(1 -.00000009 -.00000009 -1 30.5093 381.785)"/><path d="m0 0h20.0939v20.0939h-20.0939z" transform="matrix(1 -.00000009 -.00000009 -1 30.5093 411.926)"/><path d="m0 0h20.0939v20.0939h-20.0939z" transform="matrix(1 -.00000009 -.00000009 -1 30.5093 351.644)"/><path d="m0 0h20.0939v20.0939h-20.0939z" transform="matrix(1 -.00000009 -.00000009 -1 392.2 321.503)"/></g><path d="m0 0h20.0939v20.0939h-20.0939z" fill="#f1f2f2" transform="matrix(1 -.00000009 -.00000009 -1 392.2 140.658)"/><path d="m0 0h20.0939v20.0939h-20.0939z" fill="#fafbfc" transform="matrix(1 -.00000009 -.00000009 -1 392.2 20.094)"/><path d="m0 0h20.0939v20.0939h-20.0939z" fill="#fafbfc" transform="matrix(1 -.00000009 -.00000009 -1 392.2 291.362)"/><path d="m0 0h20.0939v20.0939h-20.0939z" fill="#fafbfc" transform="matrix(1 -.00000009 -.00000009 -1 392.2 50.2349)"/><path d="m0 0h20.0939v20.0939h-20.0939z" fill="#fafbfc" transform="matrix(1 -.00000009 -.00000009 -1 392.2 110.517)"/><path d="m0 0h20.0939v20.0939h-20.0939z" fill="#e1e4e8" transform="matrix(1 -.00000009 -.00000009 -1 301.778 442.067)"/><path d="m0 0h20.0939v20.0939h-20.0939z" fill="#fafbfc" transform="matrix(1 -.00000009 -.00000009 -1 301.778 321.503)"/><path d="m0 0h20.0939v20.0939h-20.0939z" fill="#fafbfc" transform="matrix(1 -.00000009 -.00000009 -1 301.778 381.785)"/><path d="m0 0h20.0939v20.0939h-20.0939z" fill="#fafbfc" transform="matrix(1 -.00000009 -.00000009 -1 301.778 411.926)"/><path d="m0 0h20.0939v20.0939h-20.0939z" fill="#fafbfc" transform="matrix(1 -.00000009 -.00000009 -1 301.778 291.362)"/><path d="m0 0h20.0939v20.0939h-20.0939z" fill="#fafbfc" transform="matrix(1 -.00000009 -.00000009 -1 301.778 351.644)"/><path d="m0 0h20.0939v20.0939h-20.0939z" fill="#fafbfc" transform="matrix(1 -.00000009 -.00000009 -1 120.932 321.503)"/><path d="m0 0h20.0939v20.0939h-20.0939z" fill="#fafbfc" transform="matrix(1 -.00000009 -.00000009 -1 120.932 351.644)"/><path d="m0 0h20.0939v20.0939h-20.0939z" fill="#fafbfc" transform="matrix(1 -.00000009 -.00000009 -1 482.623 80.3759)"/><path d="m0 0h20.0939v20.0939h-20.0939z" fill="#fafbfc" transform="matrix(1 -.00000009 -.00000009 -1 482.623 291.362)"/><path d="m0 0h20.0939v20.0939h-20.0939z" fill="#fafbfc" transform="matrix(1 -.00000009 -.00000009 -1 482.623 110.517)"/></svg>