<svg fill="none" height="33" viewBox="0 0 83 33" width="83" xmlns="http://www.w3.org/2000/svg"><path clip-rule="evenodd" d="m82.3936.897644h-82.2415v27.413856h22.8449v4.569h18.2759v-4.569h41.1207zm-77.67253 22.844856v-18.27588h18.27593v.00016 18.27592h-4.569v-.0002-13.7068h-4.569v13.707h-9.13791zm31.98283 4.569h-.0001v.0002h-9.1379v-22.84488-.0002h18.2759v18.27588.0002h-9.1379zm0-9.138v-9.1377h4.5689v9.1377zm41.1206 4.569h.0001v-18.27588h-27.4138v.0002h-.0001v18.27588h9.1379v-.0002h.0001v-13.7067h4.5689v13.7069h4.5689v-.0002h.0002v-13.7067h4.5688v13.7069h4.569z" fill="#959da5" fill-rule="evenodd"/></svg>