<svg fill="none" height="32" viewBox="0 0 107 32" width="107" xmlns="http://www.w3.org/2000/svg"><g fill="#959da5"><path d="m20.8614 4.86284h-7.4842c-4.27981-.02241-7.75299 3.42836-7.77539 7.70816v.0449 7.4841c0 4.2798 3.46197 7.7418 7.74179 7.7418h7.4842c4.2798 0 7.7418-3.462 7.7418-7.7418v-.0112-7.4729c.0112-4.26868-3.4396-7.73065-7.7082-7.75306zm-7.5626 8.36926c-.8627.8851-2.2856.8963-3.1707.0336-.88506-.8627-.89627-2.2856-.0336-3.1707.8627-.88509 2.2856-.89629 3.1707-.0336.112.1008.2017.2241.2913.3473.5938.8851.493 2.0615-.2577 2.8234zm7.4281 10.8564c-2.1623 0-3.9213-1.759-3.9213-3.9213s1.759-3.9213 3.9213-3.9213c2.1624 0 3.9213 1.759 3.9213 3.9213s-1.7589 3.9213-3.9213 3.9213z"/><path d="m97.1926 17.4221c.1009-1.9046-.4817-3.7757-1.6469-5.277-1.1764-1.3444-2.9018-2.0839-4.6832-2.0055-1.927-.0336-3.7757.7843-5.0417 2.2408-1.3781 1.5685-2.1063 3.6076-2.0279 5.6915-.1232 2.0615.5378 4.1006 1.8374 5.7139 1.2997 1.4341 3.1707 2.2072 5.109 2.1176 1.8374.0784 3.6524-.4258 5.1761-1.4453l.3473-.2465v-4.2014l-1.3556 1.1204c-1.0308.8514-2.3192 1.322-3.6525 1.322-.9747.0784-1.9382-.2689-2.6329-.9635-.5041-.5714-.829-1.2885-.9075-2.0503h9.456zm-9.2543-1.5349c.1793-.5378.4706-1.0196.8627-1.4229.5154-.549 1.2324-.8515 1.9831-.8403.6946-.0448 1.3668.2241 1.8262.7395.3473.4369.5714.9635.6386 1.5125z"/><path d="m62.3379 19.0354c.056.8963-.2353 1.7926-.8066 2.4872-.4818.5714-1.2101.8963-1.9607.8739-1.647 0-2.42-.9971-2.42-3.3611v-8.5822h-3.8205v8.8735c0 4.2462 1.9382 6.5654 5.6019 6.5654 1.21.0336 2.3864-.3361 3.3611-1.0532v.7395h3.8317v-15.1252h-3.7869z"/><path d="m78.5387 11.0802-.0784.1681c-.9076-.6834-2.0055-1.0756-3.1371-1.1204-1.9831-.0784-3.8989.7955-5.1425 2.3416-1.2885 1.7254-1.9271 3.8429-1.8263 5.994-.1008 1.9383.5154 3.8541 1.7142 5.3778 1.154 1.3781 2.8682 2.1512 4.6608 2.0952 1.4117-.0897 2.7449-.6387 3.8093-1.5686-.1121 2.801-1.4005 4.067-4.0894 4.067-1.3781-.0336-2.7113-.4145-3.8989-1.1204l-1.2548-.7058v4.1118l.4593.2353c1.4677.717 3.0811 1.0755 4.7168 1.0419 5.1762 0 7.8427-2.8682 7.8427-8.2796v-13.3213h-3.7757zm0 7.6186c.0448.9971-.2801 1.9831-.9187 2.7561-.5602.6499-1.3781 1.0308-2.2408 1.0084-.8739.0448-1.7142-.3361-2.2407-1.0308-.6387-.8963-.9636-1.983-.8963-3.081-.0785-1.2548.2576-2.5097.9523-3.5628.5826-.7507 1.4901-1.1764 2.4424-1.1204.7843-.0224 1.5461.3025 2.0727.8851.5826.5938.8851 1.4117.8515 2.2408z"/><path d="m45.857 10.1394c-1.3108-.0337-2.5881.3921-3.6188 1.1988v-.8851h-3.8317v15.1251h3.8317v-8.5037c-.0448-.9187.2689-1.8038.8515-2.5096.5042-.605 1.2548-.9524 2.0391-.93 1.5573 0 2.2407 1.0084 2.2407 3.4396v8.5037h3.8877v-9.0527c.1009-1.6581-.3809-3.3051-1.3556-4.6496-.9971-1.1763-2.4985-1.8262-4.0446-1.7365z"/><path d="m106.649 13.9711v-3.518h-3.361v-4.29105l-3.8543 1.23241v3.05864h-2.3192v3.518h2.3192v7.1144c0 3.0698 1.5353 4.784 4.3693 4.784.84.0336 1.67-.1456 2.42-.5266l.437-.2352v-4.0222l-1.344.9747c-.258.1905-.572.2913-.897.2801-.47 0-.739-.1008-.862-.2577-.236-.4369-.325-.9187-.28-1.4116v-6.7223z"/><path d="m3.0806 5.32227c1.23754 0 2.24076-1.00322 2.24076-2.24075 0-1.23754-1.00322-2.240761-2.24076-2.240761-1.23753 0-2.240756 1.003221-2.240756 2.240761 0 1.23753 1.003226 2.24075 2.240756 2.24075z"/><path d="m3.0808 6.16208c1.70161 0 3.08104-1.37943 3.08104-3.08104s-1.37943-3.08104-3.08104-3.08104-3.08104414 1.37943-3.08104414 3.08104 1.37943414 3.08104 3.08104414 3.08104z"/></g></svg>