<svg width="840" height="253" viewBox="0 0 840 253" fill="none" xmlns="http://www.w3.org/2000/svg">
<line x1="343" y1="39" x2="431" y2="39" stroke="#2188FF" stroke-width="4"/>
<g filter="url(#filter0_dddddd)">
<mask id="path-2-outside-1" maskUnits="userSpaceOnUse" x="65" y="1" width="343" height="76" fill="black">
<rect fill="white" x="65" y="1" width="343" height="76"/>
<path fill-rule="evenodd" clip-rule="evenodd" d="M71.4189 2C68.4261 2 66 4.42613 66 7.41892V70.5811C66 73.5739 68.4261 76 71.4189 76H390.581C393.574 76 396 73.5739 396 70.5811V56.5483C396 53.4115 398.583 50.9348 401.212 49.2234C404.264 47.2361 406.282 43.7937 406.282 39.8799C406.282 35.9661 404.264 32.5237 401.212 30.5364C398.583 28.825 396 26.3483 396 23.2115V7.41892C396 4.42613 393.574 2 390.581 2H71.4189Z"/>
</mask>
<path fill-rule="evenodd" clip-rule="evenodd" d="M71.4189 2C68.4261 2 66 4.42613 66 7.41892V70.5811C66 73.5739 68.4261 76 71.4189 76H390.581C393.574 76 396 73.5739 396 70.5811V56.5483C396 53.4115 398.583 50.9348 401.212 49.2234C404.264 47.2361 406.282 43.7937 406.282 39.8799C406.282 35.9661 404.264 32.5237 401.212 30.5364C398.583 28.825 396 26.3483 396 23.2115V7.41892C396 4.42613 393.574 2 390.581 2H71.4189Z" fill="#24292F"/>
<path d="M401.212 30.5364L401.757 29.6984L401.212 30.5364ZM401.212 49.2234L401.757 50.0614L401.212 49.2234ZM67 7.41892C67 4.97842 68.9784 3 71.4189 3V1C67.8738 1 65 3.87385 65 7.41892H67ZM67 70.5811V7.41892H65V70.5811H67ZM71.4189 75C68.9784 75 67 73.0216 67 70.5811H65C65 74.1262 67.8738 77 71.4189 77V75ZM390.581 75H71.4189V77H390.581V75ZM395 70.5811C395 73.0216 393.022 75 390.581 75V77C394.126 77 397 74.1262 397 70.5811H395ZM395 56.5483V70.5811H397V56.5483H395ZM405.282 39.8799C405.282 43.4414 403.447 46.5748 400.666 48.3853L401.757 50.0614C405.081 47.8975 407.282 44.146 407.282 39.8799H405.282ZM400.666 31.3745C403.447 33.185 405.282 36.3184 405.282 39.8799H407.282C407.282 35.6138 405.081 31.8623 401.757 29.6984L400.666 31.3745ZM395 7.41892V23.2115H397V7.41892H395ZM390.581 3C393.022 3 395 4.97842 395 7.41892H397C397 3.87385 394.126 1 390.581 1V3ZM71.4189 3H390.581V1H71.4189V3ZM401.757 29.6984C399.155 28.0041 397 25.7887 397 23.2115H395C395 26.9078 398.011 29.6459 400.666 31.3745L401.757 29.6984ZM397 56.5483C397 53.9711 399.155 51.7557 401.757 50.0614L400.666 48.3853C398.011 50.1139 395 52.852 395 56.5483H397Z" fill="black" fill-opacity="0.3" mask="url(#path-2-outside-1)"/>
</g>
<circle cx="397.456" cy="38.993" r="4.45643" fill="#2188FF"/>
<g clip-path="url(#clip0)">
<path fill-rule="evenodd" clip-rule="evenodd" d="M96 47.1284C100.418 47.1284 104 43.5467 104 39.1284C104 34.7101 100.418 31.1284 96 31.1284C91.5817 31.1284 88 34.7101 88 39.1284C88 43.5467 91.5817 47.1284 96 47.1284ZM99.7803 37.4087C100.073 37.1159 100.073 36.641 99.7803 36.3481C99.4874 36.0552 99.0126 36.0552 98.7197 36.3481L94.75 40.3178L93.2803 38.8481C92.9874 38.5552 92.5126 38.5552 92.2197 38.8481C91.9268 39.141 91.9268 39.6159 92.2197 39.9087L94.2197 41.9087C94.5126 42.2016 94.9874 42.2016 95.2803 41.9087L99.7803 37.4087Z" fill="#28A745"/>
</g>
<path d="M115.589 44.123C116.566 44.123 117.387 43.6992 117.804 42.9746H117.92V44H119.554V38.8936C119.554 37.3145 118.474 36.3848 116.553 36.3848C114.775 36.3848 113.538 37.2188 113.401 38.5244H115.001C115.158 38.0117 115.691 37.7314 116.471 37.7314C117.387 37.7314 117.879 38.1484 117.879 38.8936V39.5361L115.951 39.6523C114.133 39.7549 113.114 40.541 113.114 41.8809C113.114 43.248 114.146 44.123 115.589 44.123ZM116.088 42.8174C115.336 42.8174 114.796 42.4414 114.796 41.7988C114.796 41.1768 115.24 40.8281 116.19 40.7666L117.879 40.6504V41.2588C117.879 42.1475 117.113 42.8174 116.088 42.8174ZM123.99 44.123C125.029 44.123 125.89 43.6377 126.314 42.8174H126.43V44H128.071V33.6367H126.375V37.7178H126.259C125.863 36.8975 125.015 36.4053 123.99 36.4053C122.103 36.4053 120.914 37.8955 120.914 40.2607C120.914 42.6328 122.096 44.123 123.99 44.123ZM124.516 37.8203C125.678 37.8203 126.396 38.7568 126.396 40.2676C126.396 41.7852 125.685 42.7148 124.516 42.7148C123.354 42.7148 122.65 41.7988 122.65 40.2676C122.65 38.7432 123.361 37.8203 124.516 37.8203ZM132.602 44.123C133.641 44.123 134.503 43.6377 134.927 42.8174H135.043V44H136.683V33.6367H134.988V37.7178H134.872C134.475 36.8975 133.628 36.4053 132.602 36.4053C130.716 36.4053 129.526 37.8955 129.526 40.2607C129.526 42.6328 130.709 44.123 132.602 44.123ZM133.129 37.8203C134.291 37.8203 135.009 38.7568 135.009 40.2676C135.009 41.7852 134.298 42.7148 133.129 42.7148C131.967 42.7148 131.263 41.7988 131.263 40.2676C131.263 38.7432 131.974 37.8203 133.129 37.8203ZM143.888 45.9961V44.7314H137.435V45.9961H143.888ZM144.968 34.6963V36.5762H143.785V37.8955H144.968V42.0176C144.968 43.46 145.651 44.0342 147.367 44.0342C147.695 44.0342 148.01 44.0068 148.256 43.959V42.6602C148.051 42.6807 147.921 42.6943 147.681 42.6943C146.97 42.6943 146.656 42.3594 146.656 41.6143V37.8955H148.256V36.5762H146.656V34.6963H144.968ZM152.794 44.1504C155.029 44.1504 156.39 42.6875 156.39 40.2607C156.39 37.8477 155.023 36.3848 152.794 36.3848C150.572 36.3848 149.198 37.8545 149.198 40.2607C149.198 42.6875 150.552 44.1504 152.794 44.1504ZM152.794 42.7627C151.612 42.7627 150.935 41.8467 150.935 40.2676C150.935 38.6885 151.612 37.7725 152.794 37.7725C153.97 37.7725 154.647 38.6885 154.647 40.2676C154.647 41.8467 153.977 42.7627 152.794 42.7627ZM162.863 45.9961V44.7314H156.41V45.9961H162.863ZM168.311 36.4053C167.285 36.4053 166.417 36.918 165.986 37.7656H165.87V36.5283H164.236V46.4814H165.932V42.8652H166.048C166.431 43.6582 167.258 44.123 168.331 44.123C170.218 44.123 171.394 42.6396 171.394 40.2676C171.394 37.875 170.204 36.4053 168.311 36.4053ZM167.777 42.7148C166.622 42.7148 165.904 41.7783 165.898 40.2676C165.904 38.7568 166.629 37.8203 167.784 37.8203C168.946 37.8203 169.65 38.7363 169.65 40.2676C169.65 41.7988 168.953 42.7148 167.777 42.7148ZM172.781 44H174.476V39.6592C174.476 38.6064 175.242 37.9229 176.342 37.9229C176.629 37.9229 177.081 37.9707 177.21 38.0186V36.4736C177.053 36.4326 176.752 36.4053 176.506 36.4053C175.542 36.4053 174.736 36.9521 174.531 37.6904H174.415V36.5283H172.781V44ZM181.325 44.1504C183.561 44.1504 184.921 42.6875 184.921 40.2607C184.921 37.8477 183.554 36.3848 181.325 36.3848C179.103 36.3848 177.729 37.8545 177.729 40.2607C177.729 42.6875 179.083 44.1504 181.325 44.1504ZM181.325 42.7627C180.143 42.7627 179.466 41.8467 179.466 40.2676C179.466 38.6885 180.143 37.7725 181.325 37.7725C182.501 37.7725 183.178 38.6885 183.178 40.2676C183.178 41.8467 182.508 42.7627 181.325 42.7627ZM187.19 35.2773C187.744 35.2773 188.202 34.833 188.202 34.2725C188.202 33.7188 187.744 33.2676 187.19 33.2676C186.629 33.2676 186.171 33.7188 186.171 34.2725C186.171 34.833 186.629 35.2773 187.19 35.2773ZM188.024 36.5283H186.335V44.2666C186.335 44.957 186.069 45.2373 185.317 45.2373C185.283 45.2373 185.119 45.2373 185.098 45.2305V46.5361C185.146 46.543 185.419 46.5498 185.508 46.5498C187.183 46.5498 188.024 45.8184 188.024 44.2871V36.5283ZM194.688 41.9561C194.442 42.5166 193.861 42.8311 193.02 42.8311C191.906 42.8311 191.188 42.0381 191.147 40.7734V40.6846H196.37V40.1445C196.37 37.7998 195.092 36.3848 192.959 36.3848C190.792 36.3848 189.445 37.8955 189.445 40.2949C189.445 42.6875 190.771 44.1504 192.973 44.1504C194.736 44.1504 195.987 43.3027 196.295 41.9561H194.688ZM192.952 37.7041C193.971 37.7041 194.64 38.4219 194.675 39.5566H191.154C191.229 38.4355 191.94 37.7041 192.952 37.7041ZM204.217 39.0234C204.039 37.4785 202.877 36.3848 200.956 36.3848C198.707 36.3848 197.388 37.8271 197.388 40.2471C197.388 42.6943 198.714 44.1504 200.963 44.1504C202.857 44.1504 204.033 43.0977 204.217 41.5527H202.604C202.426 42.3389 201.838 42.7559 200.956 42.7559C199.801 42.7559 199.104 41.833 199.104 40.2471C199.104 38.6885 199.794 37.7725 200.956 37.7725C201.886 37.7725 202.447 38.2988 202.604 39.0234H204.217ZM206.158 34.6963V36.5762H204.975V37.8955H206.158V42.0176C206.158 43.46 206.842 44.0342 208.557 44.0342C208.885 44.0342 209.2 44.0068 209.446 43.959V42.6602C209.241 42.6807 209.111 42.6943 208.872 42.6943C208.161 42.6943 207.846 42.3594 207.846 41.6143V37.8955H209.446V36.5762H207.846V34.6963H206.158Z" fill="#C9D1D9"/>
<path d="M334.551 37.9297H335.57C335.57 36.9277 336.244 36.2656 337.258 36.2656C338.254 36.2656 338.858 36.9336 338.858 37.8301C338.858 38.5742 338.541 39.0137 337.463 40.1797L334.604 43.2734V44H340.076V43.0508H336.068V42.957L337.99 40.9707C339.514 39.3945 339.936 38.6914 339.936 37.7188C339.936 36.3477 338.805 35.3457 337.328 35.3457C335.711 35.3457 334.551 36.4238 334.551 37.9297ZM341.863 44H342.871V40.0859C342.871 39.1953 343.51 38.4805 344.336 38.4805C345.133 38.4805 345.654 38.9609 345.654 39.7109V44H346.662V39.9395C346.662 39.1367 347.248 38.4805 348.127 38.4805C349.018 38.4805 349.457 38.9375 349.457 39.8691V44H350.465V39.6348C350.465 38.3105 349.744 37.5723 348.455 37.5723C347.582 37.5723 346.861 38.0117 346.522 38.6797H346.428C346.135 38.0234 345.537 37.5723 344.682 37.5723C343.838 37.5723 343.205 37.9766 342.918 38.6797H342.824V37.6836H341.863V44ZM359.547 44H360.578V42.248H361.779V41.3047H360.578V35.5449H359.049C357.865 37.3086 356.57 39.3711 355.428 41.2871V42.248H359.547V44ZM356.506 41.2402C357.426 39.6875 358.533 37.9414 359.483 36.5234H359.553V41.3105H356.506V41.2402ZM363.356 37.9297H364.375C364.375 36.9277 365.049 36.2656 366.063 36.2656C367.059 36.2656 367.662 36.9336 367.662 37.8301C367.662 38.5742 367.346 39.0137 366.268 40.1797L363.408 43.2734V44H368.881V43.0508H364.873V42.957L366.795 40.9707C368.318 39.3945 368.74 38.6914 368.74 37.7188C368.74 36.3477 367.609 35.3457 366.133 35.3457C364.516 35.3457 363.356 36.4238 363.356 37.9297ZM370.522 39.4121C370.522 40.3262 371.061 40.8359 372.244 41.123L373.328 41.3867C374.002 41.5508 374.33 41.8438 374.33 42.2773C374.33 42.8574 373.721 43.2617 372.871 43.2617C372.063 43.2617 371.559 42.9219 371.389 42.3887H370.352C370.463 43.4375 371.43 44.1113 372.836 44.1113C374.272 44.1113 375.367 43.332 375.367 42.2012C375.367 41.293 374.793 40.7773 373.604 40.4902L372.631 40.2559C371.887 40.0742 371.535 39.8047 371.535 39.3711C371.535 38.8086 372.121 38.4277 372.871 38.4277C373.633 38.4277 374.125 38.7617 374.26 39.2656H375.256C375.121 38.2285 374.201 37.5723 372.877 37.5723C371.535 37.5723 370.522 38.3633 370.522 39.4121Z" fill="#6E7681"/>
<g filter="url(#filter1_dddddd)">
<mask id="path-8-outside-2" maskUnits="userSpaceOnUse" x="431.941" y="0" width="344" height="118" fill="black">
<rect fill="white" x="431.941" width="344" height="118"/>
<path fill-rule="evenodd" clip-rule="evenodd" d="M449.419 1C446.426 1 444 3.42614 444 6.41892V21.8967C444 25.1934 441.157 27.7452 438.334 29.4485C435.102 31.3989 432.941 34.9442 432.941 38.9941C432.941 43.0441 435.102 46.5894 438.334 48.5397C441.157 50.2431 444 52.7948 444 56.0916V111.581C444 114.574 446.426 117 449.419 117H768.581C771.574 117 774 114.574 774 111.581V6.41892C774 3.42613 771.574 1 768.581 1H449.419Z"/>
</mask>
<path fill-rule="evenodd" clip-rule="evenodd" d="M449.419 1C446.426 1 444 3.42614 444 6.41892V21.8967C444 25.1934 441.157 27.7452 438.334 29.4485C435.102 31.3989 432.941 34.9442 432.941 38.9941C432.941 43.0441 435.102 46.5894 438.334 48.5397C441.157 50.2431 444 52.7948 444 56.0916V111.581C444 114.574 446.426 117 449.419 117H768.581C771.574 117 774 114.574 774 111.581V6.41892C774 3.42613 771.574 1 768.581 1H449.419Z" fill="#24292F"/>
<path d="M445 6.41892C445 3.97842 446.978 2 449.419 2V0C445.874 0 443 2.87385 443 6.41892H445ZM445 21.8967V6.41892H443V21.8967H445ZM433.941 38.9941C433.941 35.3088 435.907 32.0816 438.851 30.3047L437.818 28.5924C434.298 30.7162 431.941 34.5795 431.941 38.9941H433.941ZM438.851 47.6836C435.907 45.9067 433.941 42.6794 433.941 38.9941H431.941C431.941 43.4088 434.298 47.2721 437.818 49.3959L438.851 47.6836ZM445 111.581V56.0916H443V111.581H445ZM449.419 116C446.978 116 445 114.022 445 111.581H443C443 115.126 445.874 118 449.419 118V116ZM768.581 116H449.419V118H768.581V116ZM773 111.581C773 114.022 771.022 116 768.581 116V118C772.126 118 775 115.126 775 111.581H773ZM773 6.41892V111.581H775V6.41892H773ZM768.581 2C771.022 2 773 3.97842 773 6.41892H775C775 2.87385 772.126 0 768.581 0V2ZM449.419 2H768.581V0H449.419V2ZM437.818 49.3959C439.177 50.216 440.493 51.2136 441.461 52.3623C442.424 53.5062 443 54.7482 443 56.0916H445C445 54.1382 444.154 52.456 442.99 51.074C441.831 49.6968 440.315 48.5668 438.851 47.6836L437.818 49.3959ZM443 21.8967C443 23.2401 442.424 24.4821 441.461 25.626C440.493 26.7747 439.177 27.7722 437.818 28.5924L438.851 30.3047C440.315 29.4215 441.831 28.2914 442.99 26.9143C444.154 25.5323 445 23.8501 445 21.8967H443Z" fill="black" fill-opacity="0.3" mask="url(#path-8-outside-2)"/>
</g>
<g clip-path="url(#clip1)">
<path fill-rule="evenodd" clip-rule="evenodd" d="M475 47.1284C479.418 47.1284 483 43.5467 483 39.1284C483 34.7101 479.418 31.1284 475 31.1284C470.582 31.1284 467 34.7101 467 39.1284C467 43.5467 470.582 47.1284 475 47.1284ZM478.78 37.4087C479.073 37.1159 479.073 36.641 478.78 36.3481C478.487 36.0552 478.013 36.0552 477.72 36.3481L473.75 40.3178L472.28 38.8481C471.987 38.5552 471.513 38.5552 471.22 38.8481C470.927 39.141 470.927 39.6159 471.22 39.9087L473.22 41.9087C473.513 42.2016 473.987 42.2016 474.28 41.9087L478.78 37.4087Z" fill="#28A745"/>
</g>
<path d="M492.6 44H494.295V39.6592C494.295 38.5654 494.917 37.834 496.031 37.834C497.016 37.834 497.535 38.4219 497.535 39.5771V44H499.23V39.1807C499.23 37.4033 498.26 36.3916 496.66 36.3916C495.546 36.3916 494.746 36.8975 494.391 37.7383H494.268V33.6367H492.6V44ZM501.787 35.2773C502.347 35.2773 502.805 34.833 502.805 34.2725C502.805 33.7188 502.347 33.2676 501.787 33.2676C501.233 33.2676 500.775 33.7188 500.775 34.2725C500.775 34.833 501.233 35.2773 501.787 35.2773ZM500.946 44H502.634V36.5283H500.946V44ZM507.638 46.8438C509.818 46.8438 511.199 45.7568 511.199 44.041V36.5283H509.565V37.7246H509.449C509.039 36.9111 508.15 36.4053 507.132 36.4053C505.224 36.4053 504.042 37.8955 504.042 40.1855C504.042 42.4277 505.218 43.8906 507.104 43.8906C508.143 43.8906 508.957 43.4531 509.388 42.6465H509.504V44.0684C509.504 45.0186 508.827 45.5791 507.665 45.5791C506.735 45.5791 506.134 45.2441 506.024 44.7178H504.322C504.459 46.0029 505.717 46.8438 507.638 46.8438ZM507.638 42.5439C506.455 42.5439 505.785 41.6279 505.785 40.1787C505.785 38.7363 506.455 37.8203 507.638 37.8203C508.813 37.8203 509.531 38.7363 509.531 40.1855C509.531 41.6279 508.82 42.5439 507.638 42.5439ZM513.037 44H514.733V39.6592C514.733 38.5654 515.355 37.834 516.469 37.834C517.453 37.834 517.973 38.4219 517.973 39.5771V44H519.668V39.1807C519.668 37.4033 518.698 36.3916 517.098 36.3916C515.984 36.3916 515.184 36.8975 514.828 37.7383H514.705V33.6367H513.037V44ZM526.743 45.9961V44.7314H520.29V45.9961H526.743ZM532.191 36.4053C531.165 36.4053 530.297 36.918 529.866 37.7656H529.75V36.5283H528.116V46.4814H529.812V42.8652H529.928C530.311 43.6582 531.138 44.123 532.211 44.123C534.098 44.123 535.274 42.6396 535.274 40.2676C535.274 37.875 534.084 36.4053 532.191 36.4053ZM531.657 42.7148C530.502 42.7148 529.784 41.7783 529.778 40.2676C529.784 38.7568 530.509 37.8203 531.664 37.8203C532.826 37.8203 533.53 38.7363 533.53 40.2676C533.53 41.7988 532.833 42.7148 531.657 42.7148ZM536.661 44H538.356V39.6592C538.356 38.6064 539.122 37.9229 540.222 37.9229C540.509 37.9229 540.961 37.9707 541.09 38.0186V36.4736C540.933 36.4326 540.632 36.4053 540.386 36.4053C539.423 36.4053 538.616 36.9521 538.411 37.6904H538.295V36.5283H536.661V44ZM543.031 35.2773C543.592 35.2773 544.05 34.833 544.05 34.2725C544.05 33.7188 543.592 33.2676 543.031 33.2676C542.478 33.2676 542.02 33.7188 542.02 34.2725C542.02 34.833 542.478 35.2773 543.031 35.2773ZM542.191 44H543.879V36.5283H542.191V44ZM548.896 44.1504C551.131 44.1504 552.492 42.6875 552.492 40.2607C552.492 37.8477 551.125 36.3848 548.896 36.3848C546.674 36.3848 545.3 37.8545 545.3 40.2607C545.3 42.6875 546.654 44.1504 548.896 44.1504ZM548.896 42.7627C547.713 42.7627 547.037 41.8467 547.037 40.2676C547.037 38.6885 547.713 37.7725 548.896 37.7725C550.072 37.7725 550.749 38.6885 550.749 40.2676C550.749 41.8467 550.079 42.7627 548.896 42.7627ZM553.886 44H555.581V39.6592C555.581 38.6064 556.347 37.9229 557.447 37.9229C557.734 37.9229 558.186 37.9707 558.315 38.0186V36.4736C558.158 36.4326 557.857 36.4053 557.611 36.4053C556.647 36.4053 555.841 36.9521 555.636 37.6904H555.519V36.5283H553.886V44ZM560.256 35.2773C560.817 35.2773 561.275 34.833 561.275 34.2725C561.275 33.7188 560.817 33.2676 560.256 33.2676C559.703 33.2676 559.245 33.7188 559.245 34.2725C559.245 34.833 559.703 35.2773 560.256 35.2773ZM559.415 44H561.104V36.5283H559.415V44ZM563.434 34.6963V36.5762H562.252V37.8955H563.434V42.0176C563.434 43.46 564.118 44.0342 565.834 44.0342C566.162 44.0342 566.476 44.0068 566.723 43.959V42.6602C566.517 42.6807 566.388 42.6943 566.148 42.6943C565.437 42.6943 565.123 42.3594 565.123 41.6143V37.8955H566.723V36.5762H565.123V34.6963H563.434ZM568.923 46.707C570.598 46.707 571.398 46.0986 572.033 44.2598L574.734 36.5283H572.943L571.199 42.3936H571.083L569.333 36.5283H567.474L570.147 44.0273L570.058 44.376C569.839 45.0801 569.436 45.3535 568.718 45.3535C568.602 45.3535 568.349 45.3467 568.253 45.333V46.6797C568.363 46.7002 568.821 46.707 568.923 46.707Z" fill="#C9D1D9"/>
<path d="M743.914 40.1035H744.963C746.152 40.1035 746.885 40.7129 746.885 41.6914C746.885 42.6406 746.094 43.2793 744.981 43.2793C743.891 43.2793 743.129 42.7109 743.035 41.8203H742.016C742.092 43.2559 743.275 44.1992 744.992 44.1992C746.674 44.1992 747.969 43.1387 747.969 41.7207C747.969 40.543 747.242 39.7988 746.147 39.623V39.5293C747.014 39.2773 747.647 38.6035 747.652 37.584C747.658 36.4004 746.697 35.3457 745.027 35.3457C743.317 35.3457 742.268 36.3594 742.162 37.7363H743.188C743.275 36.7871 743.938 36.2656 744.957 36.2656C745.977 36.2656 746.58 36.9102 746.58 37.7012C746.58 38.5801 745.889 39.2012 744.916 39.2012H743.914V40.1035ZM749.522 39.4121C749.522 40.3262 750.061 40.8359 751.244 41.123L752.328 41.3867C753.002 41.5508 753.33 41.8438 753.33 42.2773C753.33 42.8574 752.721 43.2617 751.871 43.2617C751.063 43.2617 750.559 42.9219 750.389 42.3887H749.352C749.463 43.4375 750.43 44.1113 751.836 44.1113C753.272 44.1113 754.367 43.332 754.367 42.2012C754.367 41.293 753.793 40.7773 752.604 40.4902L751.631 40.2559C750.887 40.0742 750.535 39.8047 750.535 39.3711C750.535 38.8086 751.121 38.4277 751.871 38.4277C752.633 38.4277 753.125 38.7617 753.26 39.2656H754.256C754.121 38.2285 753.201 37.5723 751.877 37.5723C750.535 37.5723 749.522 38.3633 749.522 39.4121Z" fill="#6E7681"/>
<g clip-path="url(#clip2)">
<path fill-rule="evenodd" clip-rule="evenodd" d="M470.404 73.5347C467.865 76.0731 467.865 80.1886 470.404 82.7271C472.942 85.2655 477.058 85.2655 479.596 82.7271C482.135 80.1886 482.135 76.0731 479.596 73.5347C477.058 70.9963 472.942 70.9963 470.404 73.5347ZM469.343 83.7877C466.219 80.6635 466.219 75.5982 469.343 72.474C472.467 69.3498 477.533 69.3498 480.657 72.474C483.781 75.5982 483.781 80.6635 480.657 83.7877C477.533 86.9119 472.467 86.9119 469.343 83.7877Z" fill="#444D56"/>
</g>
<path d="M492.531 83H494.227V78.6455C494.227 77.5244 494.862 76.8203 495.874 76.8203C496.906 76.8203 497.385 77.4014 497.385 78.5635V83H499.08V78.167C499.08 76.3896 498.171 75.3848 496.503 75.3848C495.389 75.3848 494.637 75.8906 494.281 76.7246H494.165V75.5283H492.531V83ZM501.636 74.2773C502.197 74.2773 502.655 73.833 502.655 73.2725C502.655 72.7188 502.197 72.2676 501.636 72.2676C501.082 72.2676 500.624 72.7188 500.624 73.2725C500.624 73.833 501.082 74.2773 501.636 74.2773ZM500.795 83H502.484V75.5283H500.795V83ZM510.734 78.0234C510.557 76.4785 509.394 75.3848 507.474 75.3848C505.224 75.3848 503.905 76.8271 503.905 79.2471C503.905 81.6943 505.231 83.1504 507.48 83.1504C509.374 83.1504 510.55 82.0977 510.734 80.5527H509.121C508.943 81.3389 508.355 81.7559 507.474 81.7559C506.318 81.7559 505.621 80.833 505.621 79.2471C505.621 77.6885 506.311 76.7725 507.474 76.7725C508.403 76.7725 508.964 77.2988 509.121 78.0234H510.734ZM516.913 80.9561C516.667 81.5166 516.086 81.8311 515.245 81.8311C514.131 81.8311 513.413 81.0381 513.372 79.7734V79.6846H518.595V79.1445C518.595 76.7998 517.317 75.3848 515.184 75.3848C513.017 75.3848 511.67 76.8955 511.67 79.2949C511.67 81.6875 512.996 83.1504 515.198 83.1504C516.961 83.1504 518.212 82.3027 518.52 80.9561H516.913ZM515.177 76.7041C516.196 76.7041 516.866 77.4219 516.9 78.5566H513.379C513.454 77.4355 514.165 76.7041 515.177 76.7041ZM525.061 84.9961V83.7314H518.608V84.9961H525.061ZM526.141 73.6963V75.5762H524.958V76.8955H526.141V81.0176C526.141 82.46 526.824 83.0342 528.54 83.0342C528.868 83.0342 529.183 83.0068 529.429 82.959V81.6602C529.224 81.6807 529.094 81.6943 528.855 81.6943C528.144 81.6943 527.829 81.3594 527.829 80.6143V76.8955H529.429V75.5762H527.829V73.6963H526.141ZM533.967 83.1504C536.203 83.1504 537.563 81.6875 537.563 79.2607C537.563 76.8477 536.196 75.3848 533.967 75.3848C531.746 75.3848 530.372 76.8545 530.372 79.2607C530.372 81.6875 531.725 83.1504 533.967 83.1504ZM533.967 81.7627C532.785 81.7627 532.108 80.8467 532.108 79.2676C532.108 77.6885 532.785 76.7725 533.967 76.7725C535.143 76.7725 535.82 77.6885 535.82 79.2676C535.82 80.8467 535.15 81.7627 533.967 81.7627ZM544.036 84.9961V83.7314H537.583V84.9961H544.036ZM544.794 83H546.49V78.6592C546.49 77.5654 547.112 76.834 548.226 76.834C549.21 76.834 549.73 77.4219 549.73 78.5771V83H551.425V78.1807C551.425 76.4033 550.455 75.3916 548.855 75.3916C547.741 75.3916 546.941 75.8975 546.585 76.7383H546.462V72.6367H544.794V83ZM555.178 83.123C556.155 83.123 556.976 82.6992 557.393 81.9746H557.509V83H559.143V77.8936C559.143 76.3145 558.062 75.3848 556.142 75.3848C554.364 75.3848 553.127 76.2188 552.99 77.5244H554.59C554.747 77.0117 555.28 76.7314 556.06 76.7314C556.976 76.7314 557.468 77.1484 557.468 77.8936V78.5361L555.54 78.6523C553.722 78.7549 552.703 79.541 552.703 80.8809C552.703 82.248 553.735 83.123 555.178 83.123ZM555.677 81.8174C554.925 81.8174 554.385 81.4414 554.385 80.7988C554.385 80.1768 554.829 79.8281 555.779 79.7666L557.468 79.6504V80.2588C557.468 81.1475 556.702 81.8174 555.677 81.8174ZM567.161 75.5283H565.37L563.654 81.3389H563.537L561.808 75.5283H559.99L562.649 83H564.515L567.161 75.5283ZM572.854 80.9561C572.608 81.5166 572.027 81.8311 571.186 81.8311C570.072 81.8311 569.354 81.0381 569.313 79.7734V79.6846H574.536V79.1445C574.536 76.7998 573.258 75.3848 571.125 75.3848C568.958 75.3848 567.611 76.8955 567.611 79.2949C567.611 81.6875 568.937 83.1504 571.139 83.1504C572.902 83.1504 574.153 82.3027 574.461 80.9561H572.854ZM571.118 76.7041C572.137 76.7041 572.806 77.4219 572.841 78.5566H569.32C569.395 77.4355 570.106 76.7041 571.118 76.7041Z" fill="#C9D1D9"/>
<path d="M744.945 83.1992C746.844 83.1992 747.934 81.5938 747.934 78.7871C747.934 75.9863 746.826 74.3457 744.945 74.3457C743.053 74.3457 741.945 75.9805 741.945 78.7695C741.945 81.582 743.041 83.1992 744.945 83.1992ZM744.945 82.2793C743.697 82.2793 743.006 81.0312 743.006 78.7695C743.006 76.5371 743.709 75.2715 744.945 75.2715C746.182 75.2715 746.873 76.5254 746.873 78.7695C746.873 81.0371 746.193 82.2793 744.945 82.2793ZM749.522 78.4121C749.522 79.3262 750.061 79.8359 751.244 80.123L752.328 80.3867C753.002 80.5508 753.33 80.8438 753.33 81.2773C753.33 81.8574 752.721 82.2617 751.871 82.2617C751.063 82.2617 750.559 81.9219 750.389 81.3887H749.352C749.463 82.4375 750.43 83.1113 751.836 83.1113C753.272 83.1113 754.367 82.332 754.367 81.2012C754.367 80.293 753.793 79.7773 752.604 79.4902L751.631 79.2559C750.887 79.0742 750.535 78.8047 750.535 78.3711C750.535 77.8086 751.121 77.4277 751.871 77.4277C752.633 77.4277 753.125 77.7617 753.26 78.2656H754.256C754.121 77.2285 753.201 76.5723 751.877 76.5723C750.535 76.5723 749.522 77.3633 749.522 78.4121Z" fill="#6E7681"/>
<circle cx="440.968" cy="38.993" r="4.45643" fill="#2188FF"/>
<defs>
<filter id="filter0_dddddd" x="0" y="1" width="472.282" height="211" filterUnits="userSpaceOnUse" color-interpolation-filters="sRGB">
<feFlood flood-opacity="0" result="BackgroundImageFix"/>
<feColorMatrix in="SourceAlpha" type="matrix" values="0 0 0 0 0 0 0 0 0 0 0 0 0 0 0 0 0 0 127 0"/>
<feOffset dy="2"/>
<feGaussianBlur stdDeviation="1"/>
<feColorMatrix type="matrix" values="0 0 0 0 0 0 0 0 0 0 0 0 0 0 0 0 0 0 0.06 0"/>
<feBlend mode="normal" in2="BackgroundImageFix" result="effect1_dropShadow"/>
<feColorMatrix in="SourceAlpha" type="matrix" values="0 0 0 0 0 0 0 0 0 0 0 0 0 0 0 0 0 0 127 0"/>
<feOffset dy="4"/>
<feGaussianBlur stdDeviation="2"/>
<feColorMatrix type="matrix" values="0 0 0 0 0 0 0 0 0 0 0 0 0 0 0 0 0 0 0.08 0"/>
<feBlend mode="normal" in2="effect1_dropShadow" result="effect2_dropShadow"/>
<feColorMatrix in="SourceAlpha" type="matrix" values="0 0 0 0 0 0 0 0 0 0 0 0 0 0 0 0 0 0 127 0"/>
<feOffset dy="10"/>
<feGaussianBlur stdDeviation="4"/>
<feColorMatrix type="matrix" values="0 0 0 0 0 0 0 0 0 0 0 0 0 0 0 0 0 0 0.1 0"/>
<feBlend mode="normal" in2="effect2_dropShadow" result="effect3_dropShadow"/>
<feColorMatrix in="SourceAlpha" type="matrix" values="0 0 0 0 0 0 0 0 0 0 0 0 0 0 0 0 0 0 127 0"/>
<feOffset dy="15"/>
<feGaussianBlur stdDeviation="7.5"/>
<feColorMatrix type="matrix" values="0 0 0 0 0 0 0 0 0 0 0 0 0 0 0 0 0 0 0.12 0"/>
<feBlend mode="normal" in2="effect3_dropShadow" result="effect4_dropShadow"/>
<feColorMatrix in="SourceAlpha" type="matrix" values="0 0 0 0 0 0 0 0 0 0 0 0 0 0 0 0 0 0 127 0"/>
<feOffset dy="30"/>
<feGaussianBlur stdDeviation="15"/>
<feColorMatrix type="matrix" values="0 0 0 0 0 0 0 0 0 0 0 0 0 0 0 0 0 0 0.14 0"/>
<feBlend mode="normal" in2="effect4_dropShadow" result="effect5_dropShadow"/>
<feColorMatrix in="SourceAlpha" type="matrix" values="0 0 0 0 0 0 0 0 0 0 0 0 0 0 0 0 0 0 127 0"/>
<feOffset dy="70"/>
<feGaussianBlur stdDeviation="32.5"/>
<feColorMatrix type="matrix" values="0 0 0 0 0 0 0 0 0 0 0 0 0 0 0 0 0 0 0.18 0"/>
<feBlend mode="normal" in2="effect5_dropShadow" result="effect6_dropShadow"/>
<feBlend mode="normal" in="SourceGraphic" in2="effect6_dropShadow" result="shape"/>
</filter>
<filter id="filter1_dddddd" x="366.941" y="0" width="473.059" height="253" filterUnits="userSpaceOnUse" color-interpolation-filters="sRGB">
<feFlood flood-opacity="0" result="BackgroundImageFix"/>
<feColorMatrix in="SourceAlpha" type="matrix" values="0 0 0 0 0 0 0 0 0 0 0 0 0 0 0 0 0 0 127 0"/>
<feOffset dy="2"/>
<feGaussianBlur stdDeviation="1"/>
<feColorMatrix type="matrix" values="0 0 0 0 0 0 0 0 0 0 0 0 0 0 0 0 0 0 0.06 0"/>
<feBlend mode="normal" in2="BackgroundImageFix" result="effect1_dropShadow"/>
<feColorMatrix in="SourceAlpha" type="matrix" values="0 0 0 0 0 0 0 0 0 0 0 0 0 0 0 0 0 0 127 0"/>
<feOffset dy="4"/>
<feGaussianBlur stdDeviation="2"/>
<feColorMatrix type="matrix" values="0 0 0 0 0 0 0 0 0 0 0 0 0 0 0 0 0 0 0.08 0"/>
<feBlend mode="normal" in2="effect1_dropShadow" result="effect2_dropShadow"/>
<feColorMatrix in="SourceAlpha" type="matrix" values="0 0 0 0 0 0 0 0 0 0 0 0 0 0 0 0 0 0 127 0"/>
<feOffset dy="10"/>
<feGaussianBlur stdDeviation="4"/>
<feColorMatrix type="matrix" values="0 0 0 0 0 0 0 0 0 0 0 0 0 0 0 0 0 0 0.1 0"/>
<feBlend mode="normal" in2="effect2_dropShadow" result="effect3_dropShadow"/>
<feColorMatrix in="SourceAlpha" type="matrix" values="0 0 0 0 0 0 0 0 0 0 0 0 0 0 0 0 0 0 127 0"/>
<feOffset dy="15"/>
<feGaussianBlur stdDeviation="7.5"/>
<feColorMatrix type="matrix" values="0 0 0 0 0 0 0 0 0 0 0 0 0 0 0 0 0 0 0.12 0"/>
<feBlend mode="normal" in2="effect3_dropShadow" result="effect4_dropShadow"/>
<feColorMatrix in="SourceAlpha" type="matrix" values="0 0 0 0 0 0 0 0 0 0 0 0 0 0 0 0 0 0 127 0"/>
<feOffset dy="30"/>
<feGaussianBlur stdDeviation="15"/>
<feColorMatrix type="matrix" values="0 0 0 0 0 0 0 0 0 0 0 0 0 0 0 0 0 0 0.14 0"/>
<feBlend mode="normal" in2="effect4_dropShadow" result="effect5_dropShadow"/>
<feColorMatrix in="SourceAlpha" type="matrix" values="0 0 0 0 0 0 0 0 0 0 0 0 0 0 0 0 0 0 127 0"/>
<feOffset dy="70"/>
<feGaussianBlur stdDeviation="32.5"/>
<feColorMatrix type="matrix" values="0 0 0 0 0 0 0 0 0 0 0 0 0 0 0 0 0 0 0.18 0"/>
<feBlend mode="normal" in2="effect5_dropShadow" result="effect6_dropShadow"/>
<feBlend mode="normal" in="SourceGraphic" in2="effect6_dropShadow" result="shape"/>
</filter>
<clipPath id="clip0">
<rect width="16" height="16" fill="white" transform="translate(88 31.1284)"/>
</clipPath>
<clipPath id="clip1">
<rect width="16" height="16" fill="white" transform="translate(467 31.1284)"/>
</clipPath>
<clipPath id="clip2">
<rect width="16" height="16" fill="white" transform="translate(467 70.1309)"/>
</clipPath>
</defs>
</svg>
