<svg width="48" height="48" viewBox="0 0 48 48" fill="none" xmlns="http://www.w3.org/2000/svg">
<path d="M2 38C2.45091 34.5849 5.33957 32 9 32C10.8739 32 12.7524 32.9564 14 35" stroke="#79B8FF" stroke-width="2" stroke-linecap="round"/>
<path fill-rule="evenodd" clip-rule="evenodd" d="M8 22C10.7611 22 13 24.2383 13 27C13 29.7617 10.7611 32 8 32C5.23893 32 3 29.7617 3 27C3 24.2383 5.23893 22 8 22Z" stroke="#79B8FF" stroke-width="2" stroke-linecap="round"/>
<path d="M46 38C45.5483 34.5849 42.6604 32 39 32C37.1261 32 35.2476 32.9564 34 35" stroke="#79B8FF" stroke-width="2" stroke-linecap="round"/>
<path fill-rule="evenodd" clip-rule="evenodd" d="M40 22C37.2389 22 35 24.2383 35 27C35 29.7617 37.2389 32 40 32C42.7611 32 45 29.7617 45 27C45 24.2383 42.7611 22 40 22Z" stroke="#79B8FF" stroke-width="2" stroke-linecap="round"/>
<path d="M33 47C32.0794 42.9896 28.4 40 24 40C19.5986 40 15.9166 42.9948 15 47" stroke="#2088FF" stroke-width="2" stroke-linecap="round" stroke-linejoin="round"/>
<path fill-rule="evenodd" clip-rule="evenodd" d="M24.0097 27.0044C27.5994 27.0044 30.5097 29.9147 30.5097 33.5044C30.5097 37.0941 27.5994 40.0044 24.0097 40.0044C20.42 40.0044 17.5097 37.0941 17.5097 33.5044C17.5097 29.9147 20.42 27.0044 24.0097 27.0044Z" stroke="#2088FF" stroke-width="2" stroke-linecap="round"/>
<path fill-rule="evenodd" clip-rule="evenodd" d="M24 10.0114C26.7611 10.0114 29 12.2488 29 15.0095C29 17.7701 26.7611 20.0076 24 20.0076C21.2389 20.0076 19 17.7701 19 15.0095C19 12.2488 21.2389 10.0114 24 10.0114Z" stroke="#79B8FF" stroke-width="2" stroke-linecap="round"/>
<path d="M18 22C19.5581 20.7508 21.6649 20 24 20C26.3187 20 28.4388 20.7613 30 22" stroke="#79B8FF" stroke-width="2" stroke-linecap="round" stroke-linejoin="round"/>
<path fill-rule="evenodd" clip-rule="evenodd" d="M47 5V4C47 2.7007 45.4261 1 44 1H36C34.5739 1 33 2.7007 33 4V9V17L37 13H43C45.805 12.9687 47 11.1735 47 9V5Z" stroke="#2088FF" stroke-width="2" stroke-linecap="round" stroke-linejoin="round"/>
<path fill-rule="evenodd" clip-rule="evenodd" d="M1 5V4C1 2.7007 2.5739 1 4 1H12C13.4261 1 15 2.7007 15 4V9V17L11 13H5C2.195 12.9687 1 11.1735 1 9V5Z" stroke="#2088FF" stroke-width="2" stroke-linecap="round" stroke-linejoin="round"/>
<path fill-rule="evenodd" clip-rule="evenodd" d="M39 7C39 7.55186 38.552 8 38 8C37.448 8 37 7.55186 37 7C37 6.44743 37.448 6 38 6C38.552 6 39 6.44743 39 7Z" fill="#2088FF"/>
<path fill-rule="evenodd" clip-rule="evenodd" d="M43 7C43 7.55186 42.552 8 42 8C41.448 8 41 7.55186 41 7C41 6.44743 41.448 6 42 6C42.552 6 43 6.44743 43 7Z" fill="#2088FF"/>
<path fill-rule="evenodd" clip-rule="evenodd" d="M7 7C7 7.55186 6.55202 8 6 8C5.44798 8 5 7.55186 5 7C5 6.44743 5.44798 6 6 6C6.55202 6 7 6.44743 7 7Z" fill="#2088FF"/>
<path fill-rule="evenodd" clip-rule="evenodd" d="M11 7C11 7.55186 10.552 8 10 8C9.44798 8 9 7.55186 9 7C9 6.44743 9.44798 6 10 6C10.552 6 11 6.44743 11 7Z" fill="#2088FF"/>
</svg>
