<?xml version="1.0" encoding="UTF-8"?>
<svg width="56px" height="56px" viewBox="0 0 56 56" version="1.1" xmlns="http://www.w3.org/2000/svg" xmlns:xlink="http://www.w3.org/1999/xlink">
    <!-- Generator: Sketch 56.2 (81672) - https://sketch.com -->
    <title>v5</title>
    <desc>Created with Sketch.</desc>
    <g id="v5" stroke="none" stroke-width="1" fill="none" fill-rule="evenodd">
        <g id="bottom-left" transform="translate(7.000000, 14.000000)" stroke="#2088FF" stroke-width="2">
            <circle id="Oval-39-Copy" cx="42" cy="35" r="3"></circle>
            <path d="M0,0 L0,29 C1.87739444e-15,32.3137085 2.6862915,35 6,35 L38,35" id="Path-77" stroke-linecap="round"></path>
        </g>
        <g id="top-right" opacity="0.5" transform="translate(4.000000, 4.000000)" stroke="#2088FF" stroke-width="2">
            <circle id="Oval-39-Copy" cx="3" cy="3" r="3"></circle>
            <path d="M6,3 L6,32 C6,35.3137085 8.6862915,38 12,38 L45,38" id="Path-77" stroke-linecap="round" transform="translate(25.500000, 20.500000) scale(-1, -1) translate(-25.500000, -20.500000) "></path>
        </g>
        <g id="inner" transform="translate(12.500000, 12.000000)" stroke="#2088FF" stroke-linecap="round" stroke-width="2">
            <path d="M29.5,4.71545432 L29.5,14.7894558 C29.5,17.9115804 29.0431753,21.7427066 25.8046757,25.4218169 C21.3040283,30.0195313 15.8369077,31.8610484 15.504951,31.8640607 C15.1729943,31.8670027 9.35272548,29.8121072 5.22106216,25.4218169 C2.05822402,22.0609967 1.5,17.9043647 1.5,14.7894558 L1.5,4.71545432 C1.5,3.77805703 2.15106397,2.96643023 3.06613908,2.7630802 L15.5,-2.13162821e-14 L27.9338609,2.7630802 C28.848936,2.96643023 29.5,3.77805703 29.5,4.71545432 Z" id="shield" stroke-linejoin="round"></path>
            <path d="M1.5,17.5 L1.5,20.5" id="Path-Copy-6" transform="translate(1.500000, 19.000000) rotate(-90.000000) translate(-1.500000, -19.000000) "></path>
            <path d="M4.99719238,36.5028076 L4.99719238,43.4971924" id="Path-Copy-6" transform="translate(4.997192, 40.000000) rotate(-90.000000) translate(-4.997192, -40.000000) "></path>
            <path d="M26.0285645,36.5 L26.0285645,43.5" id="Path-Copy-6" transform="translate(26.028564, 40.000000) rotate(-90.000000) translate(-26.028564, -40.000000) "></path>
            <path d="M1.5,6.5 L1.5,9.5" id="Path" transform="translate(1.500000, 8.000000) rotate(-90.000000) translate(-1.500000, -8.000000) "></path>
        </g>
        <g id="handles" transform="translate(19.000000, 18.000000)" stroke="#2088FF" stroke-width="2">
            <circle id="Oval" cx="9" cy="9" r="6.5"></circle>
            <path d="M9,0 L9,2.5 L9,0 Z M9,15.5 L9,18 L9,15.5 Z" id="Combined-Shape" stroke-linecap="round" stroke-linejoin="round"></path>
            <path d="M9,-2.48689958e-14 L9,1.92893219 L9,-2.48689958e-14 Z M9,16.0710678 L9,18 L9,16.0710678 Z" id="Combined-Shape" stroke-linecap="round" stroke-linejoin="round" transform="translate(9.000000, 9.000000) rotate(-315.000000) translate(-9.000000, -9.000000) "></path>
            <path d="M9,0 L9,2.5 L9,0 Z M9,15.5 L9,18 L9,15.5 Z" id="Combined-Shape-Copy-2" stroke-linecap="round" stroke-linejoin="round" transform="translate(9.000000, 9.000000) rotate(-270.000000) translate(-9.000000, -9.000000) "></path>
            <path d="M9,-1.95399252e-14 L9,1.92893219 L9,-1.95399252e-14 Z M9,16.0710678 L9,18 L9,16.0710678 Z" id="Combined-Shape-Copy" stroke-linecap="round" stroke-linejoin="round" transform="translate(9.000000, 9.000000) rotate(-225.000000) translate(-9.000000, -9.000000) "></path>
        </g>
        <polyline id="check" stroke="#2088FF" stroke-width="2" opacity="0.5" stroke-linecap="round" stroke-linejoin="round" points="30 26 27.0021362 28.9942017 25.5 27.5"></polyline>
    </g>
</svg>