<svg fill="none" height="38" viewBox="0 0 140 38" width="140" xmlns="http://www.w3.org/2000/svg"><path d="m102.664 3.4655c0-1.4422 1.197-2.612045 2.675-2.612045h30.842c1.477 0 2.674 1.169845 2.674 2.612045v31.2398c0 1.4427-1.197 2.6121-2.674 2.6121h-30.842c-1.478 0-2.675-1.1694-2.675-2.6121z" fill="#8b949e"/><g clip-rule="evenodd" fill-rule="evenodd"><path d="m1.35254 31.397h15.10366v-4.9644h-9.63783v-18.94068h-5.46583z" fill="#8b949e"/><path d="m24.103 31.397v-16.465h-5.4663v16.465zm-2.7332-18.7131c1.9063 0 3.0927-1.2644 3.0927-2.84547-.0355-1.61517-1.1864-2.84397-3.0563-2.84397-1.8701 0-3.0927 1.2288-3.0927 2.84397 0 1.58107 1.1862 2.84547 3.0207 2.84547z" fill="#8b949e"/><path d="m26.6406 31.397h5.4664v-9.1951c0-.4921.0355-.9837.1801-1.3355.3949-.9827 1.2943-2.001 2.8045-2.001 1.9782 0 2.7695 1.5104 2.7695 3.7224v8.8092h5.4658v-9.4411c0-5.0575-2.6971-7.4108-6.2935-7.4108-2.9487 0-4.2435 1.6502-4.9628 2.7743h.0365v-2.3874h-5.4664c.0718 1.545-.0001 16.465-.0001 16.465z" fill="#8b949e"/><path d="m51.0388 7.49192h-5.4665v23.90508h5.4665v-5.3381l1.3662-1.7219 4.2796 7.06h6.7245l-7.1919-10.2207 6.2932-6.9538h-6.5808s-4.4951 6.2215-4.8908 6.9592z" fill="#8b949e"/><path d="m78.0278 24.5292c.0718-.4229.1799-1.2341.1799-2.1511 0-4.2565-2.1581-8.5772-7.8397-8.5772-6.0778 0-8.8826 4.8124-8.8826 9.177 0 5.3985 3.4163 8.7701 9.3859 8.7701 2.3736 0 4.5669-.3508 6.3653-1.0884l-.7196-3.6143c-1.4742.4897-2.9846.7342-4.8544.7342-2.5533 0-4.7827-1.049-4.9628-3.2854l11.328.0341zm-11.3636-3.7025c.1437-1.4051 1.0788-3.4778 3.4163-3.4778 2.4808 0 3.0565 2.2135 3.0565 3.4778z" fill="#8b949e"/><path d="m91.7003 7.49178v8.27512h-.0718c-.7913-1.1581-2.4458-1.9309-4.6389-1.9309-4.2078 0-7.9117 3.3717-7.8761 9.1312 0 5.3391 3.3446 8.816 7.5161 8.816 2.2655 0 4.4232-.9837 5.502-2.8805h.1081l.2158 2.4941h4.8551c-.072-1.1591-.1445-3.1611-.1445-5.1276v-18.77742zm0 16.28372c0 .421-.036.843-.1081 1.1938-.3232 1.5104-1.6182 2.5638-3.2001 2.5638-2.2657 0-3.7402-1.8262-3.7402-4.7062 0-2.7041 1.2589-4.8816 3.7758-4.8816 1.69 0 2.877 1.1587 3.2008 2.5984.0718.3167.0718.668.0718.9838z" fill="#8b949e"/><path d="m113.634 31.3774v-16.4655h-5.466v16.4655zm-2.733-18.7135c1.906 0 3.093-1.2644 3.093-2.84451-.036-1.61566-1.187-2.84494-3.057-2.84494s-3.092 1.22928-3.092 2.84494c0 1.58011 1.186 2.84451 3.02 2.84451z" fill="#0e1218"/><path d="m116.659 31.3774h5.466v-9.195c0-.4921.036-.9837.18-1.3355.396-.9832 1.295-2.0015 2.805-2.0015 1.978 0 2.769 1.5099 2.769 3.7234v8.8086h5.466v-9.441c0-5.0575-2.697-7.4108-6.293-7.4108-2.949 0-4.244 1.6502-4.963 2.7743h.037v-2.388h-5.467c.072 1.545 0 16.4655 0 16.4655z" fill="#0e1218"/></g></svg>