<svg height="48" viewBox="0 0 263 48" width="263" xmlns="http://www.w3.org/2000/svg"><g fill="#8b949e"><path d="m69.8973 21.825-4.2225-7.6707h-1.7104v7.6707h-4.1055v-19.39543h7.7878c1.3318 0 2.4812.22368 3.4516.67106.9705.44738 1.7104 1.09779 2.2232 1.95469.5127.8569.7708 1.88242.7708 3.08001 0 1.40751-.3751 2.58447-1.1253 3.53767-.7502.9533-1.8205 1.6175-3.2073 1.996l4.7077 8.156h-4.5632zm-5.9329-15.85772v4.93492h3.1936c.8569 0 1.5108-.2134 1.9685-.6401.4577-.42674.6848-1.04964.6848-1.86868s-.2271-1.47289-.6848-1.85488-1.1219-.57126-1.996-.57126z"/><path d="m86.2404 6.73471h3.906v15.08689h-3.906v-1.7964c-.4955.6848-1.1219 1.2217-1.8824 1.6106-.7605.3888-1.6174.585-2.5672.585-1.2355 0-2.3402-.3373-3.3072-1.0118-.9704-.6745-1.7241-1.6174-2.2678-2.8253-.5438-1.2079-.8122-2.5707-.8122-4.0918s.2719-2.9148.8122-4.1227c.5403-1.20794 1.2974-2.14743 2.2678-2.82193.9705-.67451 2.0717-1.01176 3.3072-1.01176.9498 0 1.8067.1996 2.5672.5988.7605.39919 1.3869.94293 1.8824 1.62776zm-1.5417 11.43559c.5128-.3407.9188-.8431 1.2114-1.497.2959-.6573.4404-1.4488.4404-2.3814s-.1479-1.7241-.4404-2.3814c-.296-.6539-.6986-1.1563-1.2114-1.497s-1.1012-.51275-1.7689-.51275c-.6676 0-1.2595.17205-1.7826.51275s-.9257.8431-1.2113 1.497c-.2857.6573-.4268 1.4488-.4268 2.3814s.1411 1.7241.4268 2.3814c.2856.6539.6882 1.1563 1.2113 1.497.5231.3442 1.1185.5128 1.7826.5128.6642 0 1.2561-.1721 1.7689-.5128z"/><path d="m93.8112 3.98165c-.4267-.42673-.6401-.98423-.6401-1.66906s.2134-1.24233.6401-1.669057c.4267-.426728.9842-.643533 1.669-.643533.6849 0 1.2355.213364 1.6553.643533.4164.426727.6264.984227.6264 1.669057s-.21 1.24233-.6264 1.66906c-.4198.42672-.9704.64353-1.6553.64353-.6848 0-1.2423-.21336-1.669-.64353zm3.579 17.83995h-3.9059v-15.08687h3.9059z"/><path d="m105.749 6.73473h4.137v3.42417h-4.137v11.6662h-3.906v-11.6662h-2.5669v-3.42417h2.5669v-.91196c0-1.65529.475-2.91827 1.425-3.79238.95-.8741 2.254-1.311152 3.906-1.311152.609 0 1.187.055062 1.741.172068.551.113564 1.057.268424 1.511.457704l-.998 2.99397c-.513-.20992-1.074-.31316-1.683-.31316-.705 0-1.211.16174-1.524.48523s-.472.81905-.472 1.48323v.73989z"/><path d="m115.733 6.73473h4.136v3.42417h-4.136v11.6662h-3.906v-11.6662h-2.567v-3.42417h2.567v-.91196c0-1.65529.475-2.91827 1.424-3.79238.95-.8741 2.255-1.311152 3.906-1.311152.61 0 1.188.055062 1.742.172068.55.113564 1.056.268424 1.511.457704l-.998 2.99397c-.513-.20992-1.074-.31316-1.683-.31316-.706 0-1.212.16174-1.525.48523s-.471.81905-.471 1.48323v.73989z"/><path d="m135.07 15.6616h-10.183c.134 1.1425.502 1.9685 1.111 2.4812.609.5128 1.501.7709 2.681.7709.816 0 1.573-.117 2.268-.3545.695-.2374 1.297-.5747 1.81-1.0117l1.683 2.6808c-.761.647-1.645 1.1425-2.653 1.4832-1.009.3407-2.093.5128-3.252.5128-1.635 0-3.043-.3132-4.223-.9395s-2.079-1.5314-2.695-2.7084c-.619-1.1803-.925-2.5775-.925-4.1915s.303-3.0043.912-4.2226c.609-1.21821 1.469-2.15769 2.581-2.82532 1.111-.66418 2.381-.99799 3.806-.99799s2.67.32349 3.737.97046c1.064.64698 1.886 1.56926 2.468 2.76685.578 1.1976.87 2.6051.87 4.2225v1.3697zm-10.183-2.6808h6.246c-.097-1.1219-.41-1.9581-.94-2.5087-.533-.55066-1.256-.82597-2.168-.82597-1.824 0-2.87 1.11157-3.138 3.33807z"/><path d="m137.792 3.98165c-.427-.42673-.64-.98423-.64-1.66906s.213-1.24233.64-1.669057c.427-.426728.984-.643533 1.669-.643533s1.235.213364 1.655.643533c.417.426727.626.984227.626 1.669057s-.209 1.24233-.626 1.66906c-.42.42672-.97.64353-1.655.64353s-1.242-.21336-1.669-.64353zm3.579 17.83995h-3.906v-15.08687h3.906z"/><path d="m146.364 21.7253c-1.067-.3338-1.968-.85-2.708-1.5555l1.824-2.7944c1.122 1.0634 2.546 1.5968 4.277 1.5968.761 0 1.336-.117 1.725-.3579.388-.2375.585-.5954.585-1.0703 0-.3992-.176-.7261-.527-.9842s-.995-.499-1.924-.7261c-1.197-.265-2.182-.561-2.952-.8844-.771-.3235-1.394-.7812-1.869-1.3697s-.712-1.3593-.712-2.3091c0-1.0084.258-1.88247.77-2.62236.513-.73989 1.246-1.31116 2.196-1.71036.95-.39919 2.055-.59879 3.307-.59879 1.177 0 2.268.17207 3.266.51276s1.848.84657 2.554 1.51075l-1.824 2.6808c-.513-.4749-1.122-.8362-1.824-1.08401-.702-.24777-1.435-.37166-2.196-.37166-.76 0-1.273.11356-1.655.34413-.382.22714-.571.57124-.571 1.02554 0 .265.079.4887.24.671.162.1824.441.3545.844.5266.402.172.97.3407 1.71.5127 1.025.2478 1.91.5438 2.653.8845.74.3407 1.349.8259 1.824 1.4557.475.6263.712 1.4247.712 2.3951 0 .9705-.247 1.8171-.743 2.5398-.495.7226-1.218 1.2836-2.168 1.6828s-2.092.5988-3.424.5988c-1.198 0-2.33-.1652-3.393-.499z"/><path d="m172.061 15.6616h-10.183c.134 1.1425.502 1.9685 1.111 2.4812.61.5128 1.501.7709 2.681.7709.816 0 1.573-.117 2.268-.3545.695-.2374 1.297-.5747 1.81-1.0117l1.683 2.6808c-.76.647-1.645 1.1425-2.653 1.4832-1.009.3407-2.093.5128-3.252.5128-1.635 0-3.042-.3132-4.223-.9395-1.18-.6263-2.078-1.5314-2.694-2.7084-.62-1.1803-.926-2.5775-.926-4.1915s.303-3.0043.912-4.2226c.609-1.21821 1.469-2.15769 2.581-2.82532 1.111-.66418 2.381-.99799 3.806-.99799s2.67.32349 3.737.97046c1.064.64698 1.886 1.56926 2.468 2.76685.578 1.1976.87 2.6051.87 4.2225v1.3697zm-10.183-2.6808h6.246c-.096-1.1219-.41-1.9581-.94-2.5087-.533-.55066-1.256-.82597-2.168-.82597-1.824 0-2.87 1.11157-3.138 3.33807z"/><path d="m185.678 7.03412c.809.46458 1.432 1.14597 1.869 2.04072s.657 1.96846.657 3.22456v9.5257h-3.937v-9.0405c0-.9704-.223-1.6966-.671-2.1818-.447-.4852-1.125-.72612-2.041-.72612-.684 0-1.287.15142-1.81.45772s-.984.7605-1.383 1.3696v10.1245h-3.906v-15.0869h3.906v1.76886c.475-.68483 1.098-1.21824 1.869-1.59679.77-.37855 1.631-.57126 2.581-.57126 1.101 0 2.057.23401 2.866.69859z"/><path d="m211.144 13.3972c.551.788.826 1.755.826 2.8941 0 1.7689-.568 3.1351-1.696 4.0918-1.133.9601-2.733 1.4419-4.805 1.4419h-7.787v-19.39543h7.103c2.054 0 3.641.44049 4.762 1.32492 1.122.88442 1.683 2.13364 1.683 3.75107 0 1.92028-.826 3.30024-2.481 4.13654 1.046.382 1.845.967 2.395 1.7551zm-9.357-7.48843v4.53573h2.681c.874 0 1.518-.1893 1.924-.57129.409-.37855.612-.9395.612-1.68283 0-.8156-.22-1.40062-.657-1.75508-.437-.35102-1.094-.52653-1.968-.52653h-2.595zm3.194 12.43363c.895 0 1.562-.1893 2.01-.5713.447-.3785.671-.9876.671-1.8239 0-.7812-.214-1.3593-.641-1.7413-.426-.382-1.135-.5713-2.123-.5713h-3.107v4.7078h3.193z"/><path d="m224.321 6.73471h3.906v15.08689h-3.906v-1.7964c-.495.6848-1.122 1.2217-1.882 1.6106-.761.3888-1.618.585-2.567.585-1.236 0-2.341-.3373-3.308-1.0118-.97-.6745-1.724-1.6174-2.267-2.8253-.544-1.2079-.813-2.5707-.813-4.0918s.272-2.9148.813-4.1227c.54-1.20794 1.297-2.14743 2.267-2.82193.971-.67451 2.072-1.01176 3.308-1.01176.949 0 1.806.1996 2.567.5988.76.39919 1.387.94293 1.882 1.62776zm-1.542 11.43559c.513-.3407.919-.8431 1.212-1.497.296-.6573.44-1.4488.44-2.3814s-.148-1.7241-.44-2.3814c-.296-.6539-.699-1.1563-1.212-1.497-.512-.3407-1.101-.51275-1.768-.51275-.668 0-1.26.17205-1.783.51275s-.926.8431-1.211 1.497c-.286.6573-.427 1.4488-.427 2.3814s.141 1.7241.427 2.3814c.285.6539.688 1.1563 1.211 1.497.523.3442 1.118.5128 1.783.5128.664 0 1.256-.1721 1.768-.5128z"/><path d="m242.787 7.03412c.809.46458 1.432 1.14597 1.869 2.04072s.657 1.96846.657 3.22456v9.5257h-3.937v-9.0405c0-.9704-.223-1.6966-.671-2.1818-.447-.4852-1.125-.72612-2.04-.72612-.685 0-1.287.15142-1.81.45772-.524.3063-.985.7605-1.384 1.3696v10.1245h-3.906v-15.0869h3.906v1.76886c.475-.68483 1.098-1.21824 1.869-1.59679s1.631-.57126 2.581-.57126c1.101 0 2.058.23401 2.866.69859z"/><path d="m256.033 13.7792 6.047 8.0424h-4.677l-5.162-6.8448v6.8448h-3.906v-20.53455h3.906v11.58015l4.907-6.13249h4.65l-5.761 7.04449z"/><path d="m61.5417 47.6834h-1.6828v-19.3954h1.6828z"/><path d="m74.5466 33.3949c.7227.3992 1.2802.9808 1.6691 1.7413.3888.7606.585 1.6725.585 2.7394v9.8113h-1.6243v-9.6117c0-1.2183-.3132-2.1474-.9395-2.7944s-1.5108-.9705-2.6533-.9705c-1.8446 0-3.3003.8844-4.3636 2.6533v10.7233h-1.6244v-14.5742h1.6244v2.2816c.5127-.8156 1.1735-1.4556 1.9822-1.9099.8087-.4577 1.7344-.6848 2.7806-.6848.9877 0 1.8446.1996 2.5672.5988z"/><path d="m88.577 47.3703c-.819.4164-1.7689.6263-2.8529.6263-2.815 0-4.2225-1.4351-4.2225-4.3086v-9.0989h-2.7393v-1.4833h2.7393v-3.7373h1.6277v3.7373h5.107v1.4833h-5.107v8.9544c0 1.0083.2237 1.7482.6711 2.2231s1.146.7123 2.0958.7123c.8569 0 1.5796-.1617 2.168-.4852l.5128 1.3697z"/><path d="m101.926 40.9246h-10.7818c.0757 1.8446.5472 3.2383 1.411 4.1778s2.0786 1.411 3.6375 1.411c1.8618 0 3.3381-.6367 4.4223-1.91l.857 1.1701c-.627.702-1.394 1.2492-2.2957 1.6381-.9016.3888-1.9168.585-3.0387.585-1.3696 0-2.5569-.2994-3.5652-.8982s-1.7826-1.466-2.3229-2.5948c-.5403-1.1322-.8122-2.4846-.8122-4.0642s.2616-2.9148.7846-4.0643c.5231-1.1494 1.2596-2.0338 2.2094-2.6532.9498-.616 2.0545-.9258 3.3071-.9258 1.2527 0 2.3195.3029 3.2521.912s1.6555 1.4867 2.1685 2.6395c.512 1.1494.77 2.5053.77 4.0643v.5127zm-9.3846-5.248c-.7984.9119-1.2561 2.2231-1.3696 3.9369h9.0992c-.076-1.6932-.5131-3.0009-1.3115-3.9232-.7983-.9223-1.8721-1.3834-3.2245-1.3834-1.3525 0-2.3952.4577-3.1936 1.3697z"/><path d="m111.737 32.9957v1.5968c-.42-.0378-.733-.0585-.939-.0585-.971 0-1.807.2478-2.509.7399-.705.4955-1.321 1.2182-1.855 2.168v10.2381h-1.624v-14.5742h1.624v2.7944c.513-.9498 1.132-1.6759 1.855-2.1818.723-.5024 1.587-.7571 2.595-.7571.382 0 .664.0103.857.0275z"/><path d="m123.176 33.3949c.723.3992 1.281.9808 1.669 1.7413.389.7606.585 1.6725.585 2.7394v9.8113h-1.624v-9.6117c0-1.2183-.313-2.1474-.939-2.7944-.627-.647-1.511-.9705-2.654-.9705-1.844 0-3.3.8844-4.363 2.6533v10.7233h-1.625v-14.5742h1.625v2.2816c.512-.8156 1.173-1.4556 1.982-1.9099.809-.4577 1.734-.6848 2.781-.6848.987 0 1.844.1996 2.567.5988z"/><path d="m139.034 33.1093h1.624v14.5741h-1.624v-2.9079c-.458 1.0083-1.118 1.7963-1.982 2.3676-.867.5713-1.858.8569-2.98.8569-1.181 0-2.23-.3132-3.153-.9395-.922-.6263-1.645-1.5107-2.168-2.6533-.523-1.1425-.784-2.4709-.784-3.9919 0-1.5211.261-2.8564.784-4.0058s1.246-2.0407 2.168-2.667c.923-.6264 1.972-.9395 3.153-.9395 1.18 0 2.116.2856 2.98.8569.864.5712 1.524 1.3696 1.982 2.3952v-2.939zm-2.123 12.6504c.712-.4853 1.263-1.1873 1.655-2.1096.389-.9223.585-1.9994.585-3.2383s-.196-2.3435-.585-3.2658-.939-1.6244-1.655-2.1096c-.713-.4852-1.535-.7261-2.468-.7261-.932 0-1.782.2443-2.495.7261-.712.4852-1.27 1.1873-1.669 2.1096s-.599 2.0097-.599 3.2658.2 2.3401.599 3.2521c.399.9119.957 1.6105 1.669 2.0958.713.4852 1.545.7261 2.495.7261s1.755-.2409 2.468-.7261z"/><path d="m152.779 47.3703c-.819.4164-1.769.6263-2.853.6263-2.815 0-4.223-1.4351-4.223-4.3086v-9.0989h-2.739v-1.4833h2.739v-3.7373h1.628v3.7373h5.107v1.4833h-5.107v8.9544c0 1.0083.224 1.7482.671 2.2231.448.4749 1.146.7123 2.096.7123.857 0 1.58-.1617 2.168-.4852l.513 1.3697z"/><path d="m155.092 29.5165c-.248-.2271-.372-.5334-.372-.912 0-.3785.124-.6882.372-.9257.247-.2374.55-.3579.911-.3579.379 0 .689.1205.926.3579.238.2375.358.5472.358.9257 0 .3786-.12.6849-.358.912-.237.2271-.547.3407-.926.3407-.378 0-.664-.1136-.911-.3407zm1.71 18.1669h-1.624v-14.5741h1.624z"/><path d="m162.876 47.0708c-1.008-.616-1.793-1.5004-2.354-2.6532-.561-1.1495-.843-2.4847-.843-4.0092s.285-2.8598.857-4.023c.571-1.1597 1.359-2.0476 2.367-2.667 1.009-.616 2.148-.9257 3.421-.9257s2.443.3097 3.452.9257c1.008.6194 1.793 1.5039 2.354 2.6533s.843 2.495.843 4.0367-.282 2.8563-.843 4.0092c-.561 1.1494-1.346 2.0338-2.354 2.6532-1.009.616-2.158.9258-3.452.9258s-2.443-.3098-3.452-.9258zm6.06-1.3111c.75-.4852 1.332-1.1838 1.741-2.0958.41-.912.613-1.996.613-3.2521s-.203-2.3435-.613-3.2658c-.409-.9223-.987-1.6243-1.741-2.1096-.75-.4852-1.621-.7261-2.608-.7261-.988 0-1.855.2443-2.595.7261-.744.4853-1.318 1.1873-1.724 2.1096-.41.9223-.613 2.0097-.613 3.2658s.203 2.3401.613 3.2521c.409.912.984 1.6106 1.724 2.0958s1.607.7261 2.595.7261c.987 0 1.858-.2409 2.608-.7261z"/><path d="m184.811 33.3949c.723.3992 1.28.9808 1.669 1.7413.389.7606.585 1.6725.585 2.7394v9.8113h-1.624v-9.6117c0-1.2183-.313-2.1474-.94-2.7944-.626-.647-1.51-.9705-2.653-.9705-1.844 0-3.3.8844-4.364 2.6533v10.7233h-1.624v-14.5742h1.624v2.2816c.513-.8156 1.174-1.4556 1.983-1.9099.808-.4577 1.734-.6848 2.78-.6848.988 0 1.845.1996 2.568.5988z"/><path d="m200.669 33.1093h1.624v14.5741h-1.624v-2.9079c-.458 1.0083-1.119 1.7963-1.982 2.3676-.868.5713-1.859.8569-2.981.8569-1.18 0-2.23-.3132-3.152-.9395s-1.645-1.5107-2.168-2.6533c-.523-1.1425-.785-2.4709-.785-3.9919 0-1.5211.262-2.8564.785-4.0058s1.246-2.0407 2.168-2.667c.922-.6264 1.972-.9395 3.152-.9395 1.181 0 2.117.2856 2.981.8569.863.5712 1.524 1.3696 1.982 2.3952v-2.939zm-2.124 12.6504c.713-.4853 1.263-1.1873 1.656-2.1096.389-.9223.585-1.9994.585-3.2383s-.196-2.3435-.585-3.2658-.94-1.6244-1.656-2.1096c-.715-.4852-1.534-.7261-2.467-.7261s-1.783.2443-2.495.7261c-.712.4852-1.27 1.1873-1.669 2.1096s-.599 2.0097-.599 3.2658.2 2.3401.599 3.2521c.399.9119.957 1.6105 1.669 2.0958.712.4852 1.545.7261 2.495.7261s1.755-.2409 2.467-.7261z"/><path d="m207.94 47.6834h-1.624v-20.5345h1.624z"/><path d="m45.2538 2.42957v45.25723h-45.2538v-45.25723zm-37.0152 8.10783c-2.73588 2.6671-3.02839 6.074-3.02839 7.0651l.01032.0103 1.54173-1.5417 5.76774 5.7677 1.5899-1.5899v-3.7992l1.6346 1.6346v4.5942l2.2507 2.2507-11.68 11.6799 4.6217 4.6218 11.68-11.68 11.68 11.68 4.6217-4.6218-11.68-11.6799 2.2507-2.2507v-4.5942l1.6346-1.6346v3.7992l1.5899 1.5899 5.7677-5.7677 1.5418 1.5417.0103-.0103c0-.9911-.2925-4.398-3.0284-7.0651-3.0628-2.98706-6.1291-1.23886-7.189-.1858l-5.5543 5.5543 1.3765 1.3766-3.0215 3.0215-3.0215-3.0215 1.3765-1.3766-5.5543-5.5543c-1.0565-1.05651-4.1228-2.80126-7.189.1858z"/></g></svg>