<svg fill="none" height="34" viewBox="0 0 174 34" width="174" xmlns="http://www.w3.org/2000/svg" xmlns:xlink="http://www.w3.org/1999/xlink"><clipPath id="a"><path d="m.5 0h173v34h-173z"/></clipPath><g clip-path="url(#a)" fill="#8b949e"><path d="m103.47 10.0573v-3.53142h-12.5979v18.16952h12.5979v-3.6852h-7.4975v-4.0277h6.2355v-3.5271h-6.2355v-3.3981z"/><path d="m125.685 21.11h-7.871v-14.58412h-5.163v18.16952h13.034z"/><path d="m167.269 13.4503c-3.484-.7849-4.704-.8759-4.704-2.262 0-1.28621 1.727-1.68628 2.72-1.68628 1.606 0 3.503.37457 5.436 1.36568l1.406-3.34346c-1.981-1.07998-4.523-1.52961-6.968-1.52961-4.805 0-8.029 1.94936-8.164 5.74967-.137 3.4659 2.681 4.7623 5.271 5.2972 2.496.5159 5.029.9575 5.08 2.4405.046 1.3678-1.184 1.9537-3.505 1.9537-2.149 0-4.148-.6908-6.19-1.5463l-1.194 3.6342c2.348.9983 4.731 1.5485 7.188 1.5485 3.413 0 5.904-.5327 7.737-2.2539 1.271-1.182 1.687-2.6089 1.687-3.9709.003-2.8719-1.787-4.4897-5.8-5.397z"/><path d="m83.5477 10.1127v-3.58682h-15.8456v3.58682h5.3533v14.5827h5.1325v-14.5827z"/><path d="m143.299 6.52588v11.54382c0 .9044 0 1.1543-.054 1.5063-.166 1.1004-1.232 1.7388-2.932 1.7614-1.26-.0204-2.182-.3928-2.612-1.0509-.216-.3381-.321-.9459-.321-1.9165v-11.84412h-5.355v12.52182c0 1.7351.232 2.5185 1.016 3.5088 1.292 1.6156 3.812 2.4653 7.282 2.4653h.114.076c4.646 0 7.045-1.8116 7.738-3.5066.347-.822.372-1.2112.372-2.8698v-12.11952z"/><path d="m70.1207 1.55089-30.0289 5.97853v2.09437l.0955-.02477c19.8375-4.82203 29.9327-7.72238 30.0143-7.74279.1122-.02915.1516-.11659.1363-.1902-.0168-.07724-.0977-.14137-.2172-.11514z"/><path d="m45.7059.979619c-1.4597.083071-4.1625 2.245221-5.6462 3.529251-5.9079 5.11133-10.3007 9.80943-13.4947 14.72983-6.6584 3.5664-15.1489 7.2342-23.57742 10.0966l-.20331.0685-1.62216 4.368.92622-.3578c5.36201-2.0433 14.31157-5.8808 22.42457-10.1468-.4569 1.2184-.6872 2.3385-.6872 3.3594 0 .7615.1275 1.4699.3819 2.1133.5101 1.2855 1.5157 2.2591 2.9098 2.8122 2.0761.8286 4.9087.8439 8.1407-.1348 8.2565-2.5025 18.0499-10.1862 20.1822-11.7144l.0816-.0575c.0838-.0605.0897-.1516.0547-.2136-.0467-.0706-.145-.0896-.2259-.04l-.105.0634c-2.2882 1.3736-13.4072 7.9752-20.6348 9.9136-3.6815.9875-6.4871.4482-7.5453-1.0318-.3672-.5058-.5443-1.1456-.5443-1.8918 0-1.4568.6857-3.3114 2.0062-5.373 1.2155-.6915 2.3509-1.3678 3.374-2.0106 7.0512-3.9628 15.1751-11.66768 15.522-16.37092.0015-.03206.0015-.06923.0015-.10421 0-.4059-.1756-.82346-.4839-1.13172-.3308-.3374-.7666-.505737-1.2352-.475131zm-.7863 2.241581c.4627-.29951.5961-.11223.4598.22591-.22.53999-1.2381 3.78868-8.7972 9.99459-1.9727 1.6156-3.3755 2.5228-6.2161 4.2047 4.6515-6.5185 11.4425-12.40515 14.5535-14.4252z"/><path d="m39.9936 7.54883-31.59352 6.79107-1.21844 3.2859 32.91026-8.003 1.0181-.57496-.0284-1.49536z"/></g></svg>