<svg xmlns="http://www.w3.org/2000/svg" width="541" height="168" viewBox="0 0 541 168"><g fill="none"><path fill="#2D2D2D" d="M153.22 85.14c0-12.87 4.07-22.7 12.2-29.49 8.13-6.8 17.71-10.19 28.72-10.19 8.85 0 16.47 1.91 22.85 5.71V66.3c-5.77-4.12-12.61-6.18-20.54-6.18-7.31 0-13.54 2.03-18.68 6.1-5.15 4.07-7.72 10.17-7.72 18.3 0 7.93 2.55 13.98 7.64 18.14 5.1 4.17 11.25 6.25 18.45 6.25 7.82 0 15.03-1.9 21.62-5.71v15.29c-7.1 3.4-15.29 5.1-24.55 5.1-10.81 0-20.18-3.32-28.1-9.96-7.93-6.64-11.89-16.14-11.89-28.49zm82.92-25.48c2.88-4.63 7.15-8.23 12.82-10.81 5.66-2.57 11.79-3.55 18.38-2.93v16.21c-6.59-.93-12.56-.05-17.91 2.62-5.35 2.68-9.16 6.64-11.43 11.89v44.94h-16.52V47.46h14.67v12.2h-.01z"/><path fill="#2D2D2D" d="M306.81 46.88h16.52V121h-14.67v-10.19c-6.79 8.13-15.39 12.2-25.79 12.2-9.57 0-17.06-2.78-22.47-8.34-5.4-5.56-8.11-12.87-8.11-21.93V46.88h16.52v43.7c0 11.84 5.76 17.76 17.29 17.76 8.13 0 15.03-4.12 20.69-12.35V46.88h.02zm35.42 10.2c6.8-8.13 15.39-12.2 25.79-12.2 9.27 0 16.68 2.81 22.24 8.42 5.56 5.61 8.34 12.89 8.34 21.85v45.86h-16.52v-43.7c0-5.76-1.6-10.17-4.79-13.2-3.19-3.04-7.36-4.56-12.51-4.56-8.13 0-15.03 4.12-20.69 12.35v49.11h-16.52V46.88h14.67v10.2h-.01zm59.14 27.48c0-12.87 4.07-22.7 12.2-29.49 8.13-6.8 17.71-10.19 28.72-10.19 8.85 0 16.47 1.91 22.85 5.71v15.13c-5.77-4.12-12.61-6.18-20.54-6.18-7.31 0-13.54 2.03-18.68 6.1-5.15 4.07-7.72 10.17-7.72 18.3 0 7.93 2.55 13.98 7.64 18.14s11.25 6.25 18.45 6.25c7.82 0 15.03-1.9 21.62-5.71v15.29c-7.1 3.4-15.29 5.1-24.55 5.1-10.81 0-20.18-3.32-28.11-9.96-7.92-6.64-11.88-16.13-11.88-28.49zm68.25-71.65h16.52v42.16c6.59-6.8 14.57-10.19 23.94-10.19 9.27 0 16.68 2.81 22.24 8.42 5.56 5.61 8.34 12.89 8.34 21.85v45.86h-16.52v-43.7c0-5.76-1.6-10.17-4.79-13.2-3.19-3.04-7.36-4.56-12.51-4.56-8.13 0-15.03 4.12-20.69 12.35v49.11h-16.52V12.91h-.01z"/><path fill="#7F488E" d="M144.94 125.71V42.26L72.67.54.4 42.26v83.45l72.27 41.73z"/><path fill="#FFF" d="M61.02 66.04h11.61v43.88h.14v9.83h-.14v13.8H61.72v-13.8H25.09v-9.63l35.93-44.08zm.7 43.87V80.42l-24.04 29.49h24.04z"/><path fill="#FFF" d="M72.06 46.1c6.68-4.57 14.16-6.85 22.44-6.85 7.08 0 12.81 1.64 17.17 4.91 4.37 3.28 6.55 7.96 6.55 14.05 0 5.05-1.68 9.36-5.05 12.93-3.37 3.57-7.95 7.07-13.75 10.47-.45.28-1.29.79-2.5 1.54-1.22.75-2.08 1.28-2.59 1.59-.51.31-1.29.79-2.33 1.43-1.05.64-1.82 1.12-2.33 1.43-.51.31-1.17.79-2 1.43-.82.64-1.43 1.18-1.82 1.62-.39.44-.85.98-1.38 1.62-.53.64-.9 1.23-1.13 1.77-.23.54-.44 1.15-.64 1.83-.2.68-.3 1.35-.3 2.03l36.19-.1v10.23h-48.8v-5.16c0-8.6 3.64-15.75 10.92-21.44 2.03-1.53 5.84-3.99 11.41-7.39 5.61-3.22 9.22-5.56 10.83-7.01 2.65-2.58 3.97-5.46 3.97-8.64 0-2.91-1.18-5.13-3.52-6.65-2.35-1.52-5.64-2.28-9.88-2.28-7.35 0-14.49 2.52-21.44 7.54V46.1h-.02z"/></g></svg>