<svg width="96" height="96" viewBox="0 0 96 96" fill="none" xmlns="http://www.w3.org/2000/svg">
<g opacity="0.996">
<g opacity="0.996">
<path opacity="0.996" d="M47.9899 7.00806e-06C40.209 -0.00419763 32.544 1.88366 25.6559 5.50072C18.7679 9.11779 12.8636 14.3555 8.45252 20.7619C4.04142 27.1684 1.25589 34.5513 0.336224 42.2737C-0.58344 49.9962 0.390375 57.8263 3.17366 65.0887C0.287076 32.4985 35.2049 11.8263 50.2095 11.5371V68.8415H37.3222V59.3184H22.4093C22.5464 57.0679 23.2399 54.8864 24.4278 52.9697H37.3187V28.5693C23.3727 33.7471 -7.11995 69.6104 26.9333 91.1467C33.4267 94.3104 40.5504 95.9692 47.7741 95.9996C54.9978 96.0299 62.1352 94.4311 68.655 91.3222C75.1747 88.2132 80.9088 83.6742 85.4301 78.0432C89.9514 72.4122 93.1436 65.8342 94.7688 58.7992C96.394 51.7642 96.4104 44.4533 94.8169 37.411C93.2233 30.3688 90.0608 23.7766 85.5648 18.1253C81.0688 12.474 75.3552 7.90935 68.8495 4.77114C62.3438 1.63294 55.2136 0.00207538 47.9899 7.00806e-06" fill="#44A8E7"/>
</g>
</g>
</svg>
