<?xml version="1.0" encoding="UTF-8"?><svg id="Layer_1" xmlns="http://www.w3.org/2000/svg" viewBox="0 0 360 360"><defs><style>.cls-1{fill:#fff;}.cls-2{fill:#263d5c;}.cls-3{fill:#4ac1e0;}</style></defs><rect class="cls-2" x="-6.95" y="-3.21" width="373.89" height="366.41"/><g><rect class="cls-3" x="235.81" y="109.42" width="30.97" height="30.97"/><rect class="cls-3" x="277.05" y="109.45" width="20.68" height="19.16"/><rect class="cls-3" x="257.52" y="84.26" width="18.53" height="15.65"/><rect class="cls-3" x="285.94" y="87.42" width="11.79" height="10.52"/><path class="cls-1" d="M85.51,126.1c32.37,1.65,59.58-9.1,82.37-32.72,20.32,24.83,47.81,34.24,79.29,32.71,.38,5.8,1.01,15.77,1.04,21.35,.07,11.13,.19,17.89-.41,29-.96,17.73-3.47,35.24-10.63,51.71-5.69,13.09-14.3,24.07-24.98,33.46-13.25,11.65-28.67,19.47-45.17,25.33-.49,.18-1.16,.18-1.65,0-14.89-5.32-28.81-12.42-41.11-22.49-18.99-15.56-31-35.3-35.79-59.43-2.58-12.98-3.86-26.08-4.32-39.3-.46-13.03,.04-26.01,1.29-38.98,.01-.12,0,0,.06-.64Zm18.45,19.55c0,6.13-.04,12.05,0,17.97,.09,12,1.24,23.9,3.49,35.69,2.43,12.74,6.9,24.59,14.89,34.97,11.32,14.69,26.11,24.62,43.11,31.51,.65,.26,1.66,.11,2.33-.21,5.55-2.69,11.22-5.18,16.55-8.27,19.73-11.43,33.51-27.63,39.16-50.11,4.25-16.92,5.26-34.18,5.22-51.54,0-3.32,0-6.65,0-10-23.05-2.17-43.22-10.44-60.93-24.79-19.01,14.04-40.08,22.58-63.83,24.78Z"/><path class="cls-3" d="M167.84,150.11c7.12,8.85,14.1,17.53,21.08,26.22,6.74,8.39,13.48,16.77,20.17,25.2,.44,.55,.74,1.52,.6,2.19-1.1,5.28-5,13.25-8.64,17.87-11.08-13.78-22.12-27.51-33.27-41.38-11.07,13.78-22.03,27.44-33.14,41.28-3.47-5.03-5.9-10.3-8.12-15.77-1.16-2.85-.1-4.52,1.43-6.41,4.84-5.94,9.73-11.85,14.55-17.82,8.24-10.21,16.43-20.47,24.64-30.7,.15-.19,.35-.34,.7-.67Z"/></g></svg>
