<svg width="256" height="256" viewBox="0 0 256 256" fill="none" xmlns="http://www.w3.org/2000/svg">
<path d="M224 36.9715V215.378H170.478V198.606C158.704 212.166 141.232 220.349 117.29 220.349C70.5355 220.349 32 179.35 32 126.174C32 72.9976 70.5355 32 117.29 32C141.196 32 158.716 40.1829 170.478 53.7418V36.9715H224ZM170.467 125.936C170.467 99.1637 152.626 82.5602 127.97 82.5602C103.315 82.5602 85.4741 99.1637 85.4741 125.936C85.4741 152.709 103.362 169.491 127.97 169.491C152.578 169.491 170.467 152.697 170.467 125.936Z" fill="#2026D2"/>
<path d="M127.971 147.888C140.091 147.888 149.915 138.063 149.915 125.944C149.915 113.825 140.091 104 127.971 104C115.852 104 106.027 113.825 106.027 125.944C106.027 138.063 115.852 147.888 127.971 147.888Z" fill="#62E1FC"/>
</svg>
