<svg width="1080" height="1080" viewBox="0 0 1080 1080" fill="none" xmlns="http://www.w3.org/2000/svg">
<path d="M424.537 213.532H629.586L416.725 844.217C414.537 850.698 410.372 856.33 404.816 860.319C399.26 864.308 392.593 866.455 385.753 866.456H226.174C220.991 866.457 215.883 865.224 211.272 862.858C206.661 860.493 202.679 857.064 199.656 852.854C196.633 848.645 194.656 843.776 193.888 838.65C193.121 833.525 193.584 828.291 195.241 823.38L393.557 235.771C395.744 229.288 399.909 223.654 405.467 219.663C411.025 215.672 417.695 213.533 424.537 213.532Z" fill="url(#paint0_linear_403_39883)"/>
<path d="M722.504 636.554H397.345C394.322 636.55 391.368 637.457 388.868 639.157C386.368 640.856 384.438 643.269 383.328 646.082C382.219 648.894 381.983 651.975 382.65 654.923C383.317 657.872 384.856 660.551 387.068 662.612L596.007 857.629C602.091 863.303 610.101 866.458 618.42 866.456H802.537L722.504 636.554Z" fill="#0078D4"/>
<path d="M424.537 213.532C417.62 213.506 410.876 215.692 405.289 219.771C399.703 223.849 395.567 229.608 393.486 236.204L195.485 822.845C193.717 827.773 193.162 833.055 193.867 838.243C194.571 843.431 196.516 848.374 199.534 852.652C202.553 856.93 206.558 860.418 211.21 862.821C215.862 865.223 221.024 866.471 226.26 866.456H389.958C396.055 865.367 401.753 862.679 406.471 858.667C411.189 854.654 414.757 849.462 416.812 843.619L456.297 727.25L597.338 858.802C603.249 863.691 610.663 866.394 618.333 866.456H801.765L721.314 636.554L486.789 636.609L630.327 213.532H424.537Z" fill="url(#paint1_linear_403_39883)"/>
<path d="M686.436 235.74C684.252 229.267 680.093 223.642 674.543 219.658C668.994 215.674 662.335 213.531 655.503 213.532H426.979C433.81 213.533 440.469 215.676 446.018 219.66C451.567 223.643 455.727 229.267 457.912 235.74L656.236 823.372C657.893 828.284 658.358 833.519 657.591 838.646C656.824 843.773 654.847 848.643 651.824 852.854C648.801 857.065 644.819 860.496 640.207 862.863C635.595 865.229 630.486 866.464 625.303 866.464H853.835C859.018 866.463 864.126 865.227 868.737 862.86C873.348 860.493 877.329 857.062 880.351 852.851C883.373 848.64 885.349 843.77 886.116 838.644C886.883 833.518 886.418 828.283 884.76 823.372L686.436 235.74Z" fill="url(#paint2_linear_403_39883)"/>
<defs>
<linearGradient id="paint0_linear_403_39883" x1="499.271" y1="261.916" x2="286.323" y2="891.019" gradientUnits="userSpaceOnUse">
<stop stop-color="#114A8B"/>
<stop offset="1" stop-color="#0669BC"/>
</linearGradient>
<linearGradient id="paint1_linear_403_39883" x1="565.791" y1="555.095" x2="516.533" y2="571.75" gradientUnits="userSpaceOnUse">
<stop stop-opacity="0.3"/>
<stop offset="0.071" stop-opacity="0.2"/>
<stop offset="0.321" stop-opacity="0.1"/>
<stop offset="0.623" stop-opacity="0.05"/>
<stop offset="1" stop-opacity="0"/>
</linearGradient>
<linearGradient id="paint2_linear_403_39883" x1="538.701" y1="243.568" x2="772.455" y2="866.33" gradientUnits="userSpaceOnUse">
<stop stop-color="#3CCBF4"/>
<stop offset="1" stop-color="#2892DF"/>
</linearGradient>
</defs>
</svg>
