<svg width="280" height="280" viewBox="0 0 280 280" fill="none" xmlns="http://www.w3.org/2000/svg">
<path d="M50.7109 140.801L55.1055 145.289C55.9295 146.105 56.8909 146.513 57.9895 146.513C58.1268 146.513 58.2642 146.513 58.4015 146.513C59.2255 146.377 60.0495 146.105 60.7361 145.425C61.5601 144.745 61.9721 143.657 61.9721 142.705C61.9721 141.617 61.5601 140.665 60.8735 139.849L56.3415 135.225C54.6936 137.401 52.7709 139.305 50.7109 140.801Z" fill="url(#paint0_linear)"/>
<path d="M108.772 91.5699L113.304 104.001C113.853 105.503 115.364 106.596 117.011 106.596C117.423 106.596 117.973 106.46 118.385 106.323C120.445 105.64 121.543 103.318 120.719 101.269L116.188 88.9745C113.853 90.2039 111.381 91.0235 108.772 91.5699Z" fill="url(#paint1_linear)"/>
<path d="M178.969 87.9421L173.697 102.538C173.004 104.603 173.975 106.944 176.056 107.633C176.472 107.77 177.027 107.908 177.443 107.908H177.581C179.246 107.908 180.633 106.806 181.188 105.292L186.459 90.8337C184.795 90.4206 183.13 90.0075 181.466 89.319C180.633 88.7682 179.801 88.3552 178.969 87.9421Z" fill="url(#paint2_linear)"/>
<path d="M228.937 160.342C229.211 160.342 229.349 160.342 229.623 160.342C230.859 160.342 231.958 159.786 232.782 158.813L237.589 152.832C235.254 151.441 233.194 149.633 231.546 147.407L226.465 153.666C225.091 155.335 225.366 157.978 227.014 159.369C227.563 159.925 228.25 160.203 228.937 160.342Z" fill="url(#paint3_linear)"/>
<path d="M230.357 179.79C225.501 177.975 220.228 177.277 215.093 177.696C209.959 178.115 204.825 179.79 200.107 182.302C199.552 182.581 198.858 182.442 198.581 181.883C198.303 181.325 198.442 180.767 198.858 180.348C200.801 178.813 202.882 177.556 205.102 176.44V170.158C205.102 137.215 178.46 110.414 145.712 110.414C118.237 110.414 94.6479 128.98 87.9873 155.501C89.93 156.199 91.8726 157.037 93.6765 158.014C97.2843 159.829 100.615 162.202 103.667 164.993C106.581 167.785 109.218 170.856 111.299 174.346C111.854 175.323 111.577 176.44 110.605 176.998C109.773 177.556 108.663 177.277 108.108 176.579C105.749 173.648 103.251 171.135 100.337 168.902C97.5619 166.668 94.3703 164.714 91.1788 163.318C84.657 160.387 77.4414 158.991 70.3645 159.549C63.2876 159.968 56.3495 162.481 50.3828 166.25C47.4688 168.204 44.6935 170.577 42.3346 173.229C39.8368 175.881 37.8942 178.813 36.229 182.023C29.7072 194.726 29.9847 210.778 37.6166 222.922C41.2245 229.064 46.4974 234.089 52.6029 237.719C58.7085 241.348 65.7853 243.163 73.001 243.302L218.979 244C229.108 244 239.099 239.115 245.066 230.879C251.31 222.783 253.114 211.755 250.339 201.845C247.702 191.794 240.071 183.279 230.357 179.79Z" fill="url(#paint4_linear)"/>
<path d="M92.3273 83.4028C95.4045 84.6651 98.4818 85.3663 101.699 85.3663C111.63 85.3663 120.582 79.3357 124.498 70.2198C129.674 57.5977 123.799 43.1525 111.21 37.9634C108.273 36.7012 105.056 36 101.839 36C91.9077 36 82.9557 42.0305 79.0392 51.1465C76.5214 57.177 76.5214 63.9088 79.0392 70.0796C81.5569 76.1101 86.3127 80.8784 92.3273 83.4028Z" fill="#9DACE3"/>
<path d="M183.958 83.4028C187.035 84.6651 190.112 85.3663 193.329 85.3663C203.261 85.3663 212.213 79.3357 216.129 70.2198C221.304 57.5977 215.43 43.1525 202.841 37.9634C199.764 36.7012 196.686 36 193.469 36C183.538 36 174.586 42.0305 170.67 51.1465C165.494 63.7685 171.369 78.2138 183.958 83.4028Z" fill="#9DACE3"/>
<path d="M262.657 124.457C260.419 120.81 256.922 118.146 252.726 117.024C251.467 116.743 250.068 116.463 248.809 116.463C241.396 116.463 234.962 121.511 233.143 128.664C231.045 137.359 236.22 146.054 244.893 148.298C246.152 148.579 247.55 148.859 248.809 148.859C256.222 148.859 262.657 143.81 264.475 136.658C265.594 132.591 264.895 128.243 262.657 124.457Z" fill="#9DACE3"/>
<path d="M54.7392 124.532C57.3968 113.734 50.8227 102.654 40.0524 99.9896C38.3739 99.5688 36.6954 99.4286 35.1567 99.4286C25.925 99.4286 17.8123 105.74 15.5743 114.715C14.3154 119.904 15.1547 125.374 17.8123 130.002C20.6098 134.63 24.9459 137.996 30.2611 139.258C31.9396 139.679 33.6181 139.819 35.1567 139.819C44.5283 139.959 52.5012 133.648 54.7392 124.532Z" fill="#9DACE3"/>
<defs>
<linearGradient id="paint0_linear" x1="50.6571" y1="140.943" x2="61.9018" y2="140.943" gradientUnits="userSpaceOnUse">
<stop stop-color="#00A9E2"/>
<stop offset="0.1882" stop-color="#1981D7"/>
<stop offset="0.4572" stop-color="#394DC8"/>
<stop offset="0.6919" stop-color="#5027BE"/>
<stop offset="0.8802" stop-color="#5F10B7"/>
<stop offset="0.9987" stop-color="#6408B5"/>
</linearGradient>
<linearGradient id="paint1_linear" x1="108.723" y1="97.8054" x2="121.019" y2="97.8054" gradientUnits="userSpaceOnUse">
<stop stop-color="#00A9E2"/>
<stop offset="0.1882" stop-color="#1981D7"/>
<stop offset="0.4572" stop-color="#394DC8"/>
<stop offset="0.6919" stop-color="#5027BE"/>
<stop offset="0.8802" stop-color="#5F10B7"/>
<stop offset="0.9987" stop-color="#6408B5"/>
</linearGradient>
<linearGradient id="paint2_linear" x1="173.401" y1="97.8879" x2="186.561" y2="97.8879" gradientUnits="userSpaceOnUse">
<stop stop-color="#00A9E2"/>
<stop offset="0.1882" stop-color="#1981D7"/>
<stop offset="0.4572" stop-color="#394DC8"/>
<stop offset="0.6919" stop-color="#5027BE"/>
<stop offset="0.8802" stop-color="#5F10B7"/>
<stop offset="0.9987" stop-color="#6408B5"/>
</linearGradient>
<linearGradient id="paint3_linear" x1="225.599" y1="153.941" x2="237.56" y2="153.941" gradientUnits="userSpaceOnUse">
<stop stop-color="#00A9E2"/>
<stop offset="0.1882" stop-color="#1981D7"/>
<stop offset="0.4572" stop-color="#394DC8"/>
<stop offset="0.6919" stop-color="#5027BE"/>
<stop offset="0.8802" stop-color="#5F10B7"/>
<stop offset="0.9987" stop-color="#6408B5"/>
</linearGradient>
<linearGradient id="paint4_linear" x1="31.7782" y1="177.105" x2="251.768" y2="177.105" gradientUnits="userSpaceOnUse">
<stop stop-color="#00A9E2"/>
<stop offset="0.1882" stop-color="#1981D7"/>
<stop offset="0.4572" stop-color="#394DC8"/>
<stop offset="0.6919" stop-color="#5027BE"/>
<stop offset="0.8802" stop-color="#5F10B7"/>
<stop offset="0.9987" stop-color="#6408B5"/>
</linearGradient>
</defs>
</svg>
