<svg xmlns="http://www.w3.org/2000/svg" viewBox="0 0 500 500"><path fill="#fff" d="M424.98 267.78l-52.79-30.27-9.11-3.94-215.95 1.6v109.52l277.85.12z"/><path d="M328.88 334.72c2.58-8.86 1.6-16.98-2.71-23.01-3.94-5.54-10.58-8.74-18.58-9.11l-151.48-1.97c-.98 0-1.85-.49-2.34-1.23-.49-.74-.62-1.72-.37-2.71.49-1.48 1.97-2.58 3.57-2.71l152.83-1.97c18.09-.86 37.78-15.5 44.67-33.47l8.74-22.76c.37-.98.49-1.97.25-2.95-9.84-44.54-49.59-77.77-97.09-77.77-43.81 0-80.97 28.3-94.26 67.56-8.61-6.4-19.57-9.84-31.38-8.74-21.04 2.09-37.9 18.95-39.99 39.99-.49 5.41-.12 10.71 1.11 15.63-34.33.98-61.77 29.04-61.77 63.62 0 3.08.25 6.15.62 9.23.25 1.48 1.48 2.58 2.95 2.58h279.57c1.6 0 3.08-1.11 3.57-2.71l2.09-7.5z" fill="#f38020"/><path d="M377.11 237.39c-1.35 0-2.83 0-4.18.12-.98 0-1.85.74-2.21 1.72l-5.91 20.55c-2.58 8.86-1.6 16.98 2.71 23.01 3.94 5.54 10.58 8.74 18.58 9.11l32.24 1.97c.98 0 1.85.49 2.34 1.23s.62 1.85.37 2.71c-.49 1.48-1.97 2.58-3.57 2.71l-33.59 1.97c-18.21.86-37.78 15.5-44.67 33.47l-2.46 6.28c-.49 1.23.37 2.46 1.72 2.46H453.9c1.35 0 2.58-.86 2.95-2.21 1.97-7.14 3.08-14.64 3.08-22.4 0-45.66-37.04-82.7-82.82-82.7" fill="#faae40"/></svg>