<?xml version="1.0" encoding="utf-8"?>
<!-- Generator: Adobe Illustrator 28.0.0, SVG Export Plug-In . SVG Version: 6.00 Build 0)  -->
<svg version="1.1" id="Layer_1" xmlns="http://www.w3.org/2000/svg" xmlns:xlink="http://www.w3.org/1999/xlink" x="0px" y="0px"
	 viewBox="0 0 500 500" style="enable-background:new 0 0 500 500;" xml:space="preserve">
<style type="text/css">
	.st0{fill:#FFFFFF;}
	.st1{fill:#FFB700;}
	.st2{fill:#012639;}
</style>
<rect y="-0.5" class="st0" width="500" height="501"/>
<g>
	<g>
		<g>
			<path class="st1" d="M187.42,202.54c17.56,0,32.91,9.59,41.12,23.81l25.33-25.33c-15.03-20.36-39.19-33.57-66.45-33.57
				c-44.05,0-80.04,34.51-82.42,77.97h35.18C142.5,221.39,162.8,202.54,187.42,202.54z"/>
		</g>
		<g>
			<g>
				<path class="st2" d="M393.15,280.74c0.06-0.27,0.13-0.55,0.19-0.82c0.17-0.76,0.33-1.52,0.47-2.29
					c0.02-0.13,0.05-0.26,0.07-0.39c0.72-3.94,1.11-8,1.11-12.16c0,0,0,0,0,0l0,0l0,0c0-0.99-0.03-1.97-0.07-2.94
					c-0.02-0.41-0.04-0.83-0.07-1.24c-0.03-0.49-0.07-0.97-0.11-1.46c-0.1-1.24-0.24-2.47-0.41-3.7c0-0.01,0-0.02,0-0.02l0,0
					c-4.56-32.83-32.72-58.11-66.8-58.11c-19.69,0-37.4,8.44-49.73,21.88l-0.01,0l-0.1,0.11c-0.37,0.4-0.72,0.82-1.08,1.23
					L224.4,280.6c-12.87,14.27-24.98,17.32-36.98,16.86c-24.61-0.94-44.92-18.85-47.24-42.88H105
					c2.38,43.46,38.37,77.97,82.42,77.97c22.32,0,42.56-8.87,57.41-23.26l0,0.01l0.06-0.06c0.06-0.05,0.12-0.11,0.17-0.16l0,0
					l0.02-0.02l6.28-6.87l11.61-12.71l-0.02-0.02l40.39-44.25c0,0,0,0,0,0l1.08-1.19l0,0l1.07-1.17c5.66-5.61,13.45-9.09,22.04-9.09
					c14.02,0,25.92,9.26,29.9,21.98c0.03,0.09,0.05,0.18,0.08,0.27c0.24,0.8,0.45,1.61,0.63,2.43c0.06,0.29,0.11,0.58,0.17,0.87
					c0.13,0.67,0.23,1.34,0.31,2.03c0.03,0.29,0.07,0.57,0.1,0.86c0.09,0.95,0.15,1.91,0.15,2.88c0,3.32-0.53,6.52-1.49,9.52
					c-0.12,0.39-0.27,0.77-0.41,1.16c-0.14,0.4-0.28,0.79-0.45,1.18c-0.14,0.35-0.3,0.68-0.45,1.02c-0.19,0.41-0.37,0.83-0.57,1.23
					c-0.15,0.3-0.32,0.59-0.48,0.88c-0.23,0.42-0.46,0.85-0.72,1.26c-0.16,0.26-0.33,0.5-0.49,0.75c-0.28,0.43-0.56,0.86-0.86,1.28
					c-5.69,7.89-14.96,13.04-25.41,13.04c-16.96,0-30.81-13.55-31.3-30.4l-28.13,31c11.39,21.15,33.73,35.54,59.44,35.54
					c30.88,0,56.9-20.75,64.9-49.07h0c0-0.01,0.01-0.02,0.01-0.03c0.06-0.22,0.11-0.43,0.17-0.65
					C392.81,282.12,392.98,281.44,393.15,280.74z"/>
			</g>
		</g>
	</g>
</g>
</svg>
