<svg xmlns="http://www.w3.org/2000/svg" width="42" height="30" viewBox="0 0 42 30"><g fill-rule="evenodd"><path d="M41.27 11.13c-.112-.09-1.169-.874-3.394-.874-.557 0-1.144.05-1.754.149-.43-2.91-2.867-4.329-2.98-4.393l-.599-.34-.394.56a7.79 7.79 0 0 0-1.062 2.449c-.399 1.66-.157 3.22.7 4.555-1.034.567-2.685.714-3.028.719H1.305c-.717 0-1.302.574-1.305 1.279-.01 2.489.406 4.894 1.204 6.955.946 2.445 2.354 4.244 4.183 5.35 2.051 1.238 5.392 1.948 9.164 1.948 1.764 0 3.524-.156 5.087-.454 2.463-.468 4.699-1.268 6.645-2.378a18.176 18.176 0 0 0 4.532-3.658c2.176-2.425 3.472-5.134 4.436-7.532.13.006.257.008.384.008 2.381 0 3.846-.938 4.654-1.726.877-.853 1.19-1.705 1.222-1.799l.17-.492-.41-.325z"/><path d="M3.85 13.163h3.68a.32.32 0 0 0 .32-.318v-3.23a.32.32 0 0 0-.32-.318H3.85a.32.32 0 0 0-.322.318v3.23a.32.32 0 0 0 .322.318zm5.072 0H12.6a.32.32 0 0 0 .322-.318v-3.23a.32.32 0 0 0-.322-.318H8.922a.32.32 0 0 0-.323.318v3.23a.32.32 0 0 0 .323.318zm5.144 0h3.68a.32.32 0 0 0 .322-.318v-3.23a.32.32 0 0 0-.323-.318h-3.679a.32.32 0 0 0-.321.318v3.23a.32.32 0 0 0 .322.318zm5.089 0h3.679a.32.32 0 0 0 .322-.318v-3.23a.32.32 0 0 0-.322-.318h-3.68a.32.32 0 0 0-.322.318v3.23a.32.32 0 0 0 .323.318zM8.922 8.515H12.6a.32.32 0 0 0 .322-.317V4.967a.32.32 0 0 0-.322-.318H8.922a.32.32 0 0 0-.323.318v3.23a.32.32 0 0 0 .323.318zm5.144 0h3.68a.32.32 0 0 0 .322-.317V4.967a.32.32 0 0 0-.323-.318h-3.679a.32.32 0 0 0-.321.318v3.23a.32.32 0 0 0 .322.318zm5.087 0h3.679a.32.32 0 0 0 .322-.317V4.967a.32.32 0 0 0-.322-.318h-3.679a.32.32 0 0 0-.322.318v3.23a.32.32 0 0 0 .322.318zm0-4.649h3.68a.32.32 0 0 0 .321-.318V.318A.32.32 0 0 0 22.832 0h-3.679a.32.32 0 0 0-.322.318v3.23a.32.32 0 0 0 .322.318zm5.133 9.297h3.679a.32.32 0 0 0 .322-.318v-3.23a.32.32 0 0 0-.322-.318h-3.679a.32.32 0 0 0-.322.318v3.23a.32.32 0 0 0 .322.318z"/></g></svg>