<?xml version="1.0" standalone="no"?>
<!DOCTYPE svg PUBLIC "-//W3C//DTD SVG 20010904//EN"
 "http://www.w3.org/TR/2001/REC-SVG-20010904/DTD/svg10.dtd">
<svg version="1.0" xmlns="http://www.w3.org/2000/svg"
 width="989.000000pt" height="955.000000pt" viewBox="0 0 989.000000 955.000000"
 preserveAspectRatio="xMidYMid meet">

<g transform="translate(0.000000,955.000000) scale(0.100000,-0.100000)"
fill="#000000" stroke="none">
<path d="M0 4775 l0 -4775 4945 0 4945 0 0 4775 0 4775 -4945 0 -4945 0 0
-4775z m5525 2852 c264 -154 515 -301 558 -326 l79 -46 -89 -8 c-48 -4 -207
-6 -353 -5 l-265 3 -217 128 c-119 70 -222 127 -228 127 -6 0 -113 -58 -237
-130 l-227 -130 -206 1 c-113 1 -268 4 -345 8 l-140 6 540 315 c626 365 603
352 630 344 11 -4 236 -133 500 -287z m-1657 -546 c26 -38 350 -593 357 -612
5 -14 -12 -17 -152 -21 -87 -3 -165 -2 -174 3 -9 4 -51 70 -94 146 -43 76 -88
157 -102 181 l-24 42 -84 0 c-47 0 -85 -3 -85 -7 0 -6 233 -407 276 -475 l24
-38 254 0 c210 0 256 -3 266 -15 18 -22 160 -267 160 -277 0 -4 -110 -8 -244
-8 -135 0 -247 -4 -250 -8 -5 -9 455 -821 466 -822 11 0 78 119 78 140 0 10
-43 92 -96 182 -53 90 -120 204 -150 255 -30 50 -54 94 -54 97 0 3 76 6 169 6
l170 0 19 -27 c10 -16 81 -137 157 -271 l138 -243 -32 -50 c-17 -28 -31 -52
-31 -55 0 -3 -16 -30 -35 -60 -19 -30 -35 -56 -35 -59 0 -2 -53 -95 -118 -207
-65 -112 -122 -210 -126 -218 -4 -8 -17 -32 -30 -53 l-23 -37 -203 347 c-376
643 -725 1246 -890 1538 -90 160 -209 368 -264 464 -56 96 -102 178 -104 183
-3 8 795 17 831 9 9 -2 25 -15 35 -30z m2072 33 c0 -3 -36 -71 -81 -150 l-81
-144 -603 0 c-332 0 -606 -3 -608 -7 -3 -5 11 -36 31 -70 l36 -63 523 0 c287
0 524 -4 527 -8 5 -8 -123 -232 -413 -727 -81 -137 -176 -301 -211 -362 -36
-62 -68 -113 -71 -113 -3 0 -12 12 -20 27 -26 51 -222 388 -255 441 -19 29
-34 54 -34 56 0 2 -27 50 -60 105 -33 56 -60 105 -60 110 0 9 305 21 327 13 7
-2 32 -37 55 -78 24 -40 46 -74 49 -74 6 0 169 283 169 294 0 3 -155 6 -343 6
-315 0 -345 1 -360 18 -14 15 -222 371 -302 517 -18 33 -52 91 -74 130 -23 38
-41 73 -41 77 0 5 428 8 950 8 523 0 950 -3 950 -6z m950 0 c0 -3 -20 -43 -44
-87 -25 -45 -68 -127 -98 -182 -29 -55 -57 -107 -63 -116 -8 -13 -35 -17 -132
-22 -70 -3 -123 -1 -123 4 0 5 25 59 55 120 30 61 55 113 55 115 0 2 -76 4
-169 4 -123 0 -171 -3 -179 -13 -19 -23 -382 -629 -382 -638 0 -5 91 -9 203
-9 l203 0 41 83 41 83 78 -3 c95 -4 164 -12 164 -20 0 -3 -46 -93 -102 -199
l-102 -194 -459 0 c-409 0 -458 2 -453 15 5 14 277 458 432 705 29 47 72 117
95 155 24 39 62 100 86 138 l43 67 405 0 c223 0 405 -3 405 -6z m-207 -2135
c-36 -33 -1056 -623 -1126 -652 -17 -6 -16 -3 6 35 13 24 88 156 166 294 78
138 152 261 164 272 12 11 114 73 227 137 113 65 207 120 210 122 3 3 7 127
10 276 l5 272 175 295 175 296 3 -665 c2 -624 1 -666 -15 -682z m-3182 1044
l174 -297 5 -267 c3 -147 7 -269 10 -272 3 -2 104 -62 226 -132 l221 -128 89
-156 c48 -86 125 -221 171 -300 45 -80 81 -147 78 -149 -4 -4 -15 1 -330 181
-422 240 -778 449 -807 475 -17 14 -18 59 -18 679 0 364 2 663 4 663 2 0 82
-134 177 -297z m2767 -98 c2 -2 -28 -61 -66 -131 -38 -71 -95 -178 -127 -239
-32 -60 -66 -123 -75 -140 -10 -16 -35 -64 -57 -105 -22 -41 -61 -113 -86
-160 l-46 -85 -141 -44 c-77 -24 -140 -47 -140 -51 0 -4 16 -71 35 -150 l36
-143 -75 -136 c-40 -75 -136 -248 -211 -386 -76 -137 -174 -316 -218 -397 -44
-82 -83 -148 -86 -148 -3 0 -48 74 -100 163 l-94 162 28 50 c15 28 117 204
227 393 187 320 200 345 194 380 -33 193 -50 262 -62 250 -11 -12 -270 -459
-427 -736 -38 -68 -74 -121 -79 -120 -6 2 -25 31 -42 63 -18 33 -53 98 -78
145 l-46 85 52 95 c72 131 419 750 529 945 50 88 110 196 135 240 24 44 62
111 84 149 l41 69 446 -7 c245 -4 447 -9 449 -11z m-2606 -2693 c8 -8 12 -42
13 -95 l0 -82 -42 -3 -43 -3 0 60 0 61 -60 0 -60 0 0 -225 0 -225 60 0 60 0 0
65 0 65 46 0 46 0 -4 -91 c-3 -64 -8 -93 -19 -100 -8 -5 -69 -9 -136 -9 -111
0 -123 2 -133 19 -15 30 -14 533 3 553 17 22 24 23 147 23 74 0 113 -4 122
-13z m356 2 c21 -14 22 -22 22 -154 0 -127 -2 -140 -19 -150 -11 -5 -29 -10
-40 -10 -12 0 -21 -4 -21 -8 0 -5 20 -64 45 -132 25 -68 45 -125 45 -127 0 -2
-20 -3 -45 -3 -25 0 -45 1 -45 3 0 2 -22 65 -50 141 -27 76 -50 149 -50 162 0
22 4 24 45 24 l45 0 0 95 0 95 -55 0 -55 0 0 -260 0 -260 -45 0 -45 0 0 300 0
300 123 0 c95 0 128 -4 145 -16z m332 -24 l0 -40 -75 0 -75 0 0 -90 0 -90 65
0 65 0 0 -35 0 -34 -62 -3 -63 -3 0 -95 0 -95 78 -3 77 -3 0 -34 0 -35 -125 0
-125 0 0 293 c0 162 3 297 7 300 3 4 57 7 120 7 l113 0 0 -40z m260 37 c0 -2
25 -133 55 -292 30 -158 55 -292 55 -297 0 -5 -19 -8 -42 -6 l-43 3 -8 53 -9
52 -58 0 -58 0 -7 -55 -6 -55 -45 0 c-24 0 -44 3 -44 6 0 3 4 24 10 47 5 23
30 150 55 282 25 132 48 246 50 253 4 10 95 19 95 9z m430 -37 l0 -40 -50 0
-50 0 0 -260 0 -260 -45 0 -45 0 0 260 0 260 -50 0 -50 0 0 40 0 40 145 0 145
0 0 -40z m130 -260 l0 -300 -42 0 -43 0 -4 289 c-2 159 0 294 3 300 4 6 25 11
47 11 l39 0 0 -300z m145 288 c2 -7 14 -69 25 -138 39 -237 43 -260 48 -256 2
3 17 83 33 178 41 249 34 228 81 228 l40 0 -7 -47 c-3 -27 -13 -79 -20 -118
-8 -38 -28 -144 -45 -235 -41 -219 -33 -200 -86 -200 -24 0 -44 3 -44 6 0 3
-25 135 -55 293 -30 158 -55 290 -55 294 0 13 81 7 85 -5z m525 -28 l0 -40
-75 0 -75 0 0 -90 0 -90 65 0 65 0 0 -35 0 -35 -65 0 -65 0 0 -100 0 -100 75
0 75 0 0 -35 0 -35 -120 0 -120 0 0 300 0 300 120 0 120 0 0 -40z m460 20 c16
-16 20 -33 20 -90 l0 -70 -30 0 -30 0 0 65 0 65 -65 0 -65 0 0 -62 0 -63 89
-107 c48 -58 91 -114 95 -123 10 -27 7 -155 -4 -176 -10 -17 -22 -19 -108 -19
-63 0 -102 4 -110 12 -7 7 -12 44 -12 95 0 82 0 83 25 83 24 0 25 -2 25 -75
l0 -75 65 0 65 0 0 76 c0 76 0 77 -43 128 -24 28 -65 77 -90 109 l-47 58 0 79
c0 104 6 110 116 110 71 0 87 -3 104 -20z m318 -7 c3 -21 0 -23 -47 -23 l-51
0 0 -275 0 -275 -25 0 -25 0 0 275 0 275 -45 0 c-41 0 -45 2 -45 25 l0 26 118
-3 c113 -3 117 -4 120 -25z m112 -253 l0 -280 75 0 75 0 2 278 c3 269 4 277
23 277 19 0 20 -8 23 -278 1 -180 -1 -285 -8 -297 -10 -18 -22 -20 -113 -20
-67 0 -107 4 -115 12 -9 9 -12 88 -12 293 0 155 3 285 7 288 3 4 15 7 25 7 17
0 18 -15 18 -280z m-4670 235 l0 -35 -80 0 -80 0 0 -90 0 -90 70 0 70 0 0 -35
0 -34 -67 -3 -68 -3 -3 -97 -3 -98 84 0 83 0 -4 -35 -4 -35 -114 0 -114 0 0
295 0 295 115 0 115 0 0 -35z m348 -57 l3 -88 -41 0 -40 0 0 60 0 61 -57 -3
-58 -3 -3 -56 -3 -56 101 -93 100 -92 0 -102 c0 -66 -4 -106 -12 -114 -8 -8
-50 -12 -124 -12 -136 0 -138 1 -143 112 l-3 78 41 0 41 0 0 -60 0 -60 60 0
60 0 0 64 0 64 -97 90 -98 90 -3 79 c-2 43 1 91 7 106 l11 28 127 -3 128 -3 3
-87z m360 80 c7 -7 12 -42 12 -89 0 -73 -1 -77 -24 -83 -45 -11 -56 1 -56 60
l0 54 -60 0 -60 0 0 -225 0 -225 60 0 60 0 0 65 0 65 40 0 40 0 0 -88 c0 -55
-4 -92 -12 -100 -18 -18 -242 -16 -257 2 -13 16 -19 544 -7 565 10 16 248 15
264 -1z m372 -7 c5 -11 10 -76 10 -145 0 -136 -7 -156 -57 -156 -31 0 -31 -4
25 -157 l41 -113 -43 0 -44 0 -40 113 c-77 218 -77 217 -12 217 l40 0 0 95 0
95 -60 0 -60 0 0 -260 0 -260 -40 0 -40 0 0 295 0 295 135 0 c123 0 135 -2
145 -19z m4097 -5 l28 -24 3 -228 c2 -160 0 -236 -9 -256 -18 -43 -56 -58
-149 -58 l-80 0 0 295 0 295 89 0 c81 0 93 -3 118 -24z m183 -271 l0 -295 -25
0 -25 0 0 295 0 295 25 0 25 0 0 -295z m348 6 c2 -221 -1 -286 -10 -293 -21
-13 -202 -10 -216 4 -13 13 -18 559 -5 572 4 3 57 5 117 4 l111 -3 3 -284z
m330 202 c3 -78 2 -83 -18 -83 -18 0 -20 6 -20 65 l0 65 -70 0 -70 0 0 -66 0
-65 90 -107 90 -106 0 -91 c0 -57 -4 -95 -12 -103 -7 -7 -44 -12 -98 -12 -54
0 -91 5 -98 12 -7 7 -12 43 -12 90 0 71 2 78 20 78 18 0 20 -7 20 -70 l0 -70
70 0 70 0 0 74 0 74 -90 108 -90 108 0 86 c0 48 3 90 7 94 4 4 52 5 107 4
l101 -3 3 -82z m-5308 -783 c0 -22 -5 -40 -11 -40 -6 0 -9 14 -7 33 3 31 1 32
-35 35 l-38 3 3 -128 3 -128 30 0 c25 0 31 5 33 25 2 14 5 32 9 40 9 25 21
-20 13 -54 -4 -25 -12 -32 -34 -34 -16 -2 -39 -1 -52 2 -24 6 -24 8 -24 140 0
73 3 136 7 139 3 4 28 7 55 7 l48 0 0 -40z m184 24 c3 -9 6 -40 6 -71 0 -46
-3 -56 -20 -60 -11 -3 -20 -7 -20 -9 0 -2 9 -26 20 -54 22 -55 25 -80 11 -80
-5 0 -19 30 -32 68 -12 37 -24 72 -26 79 -3 6 6 13 19 15 21 3 23 9 26 61 l3
58 -37 -3 -36 -3 1 -132 c1 -82 -2 -134 -9 -138 -7 -4 -10 40 -10 139 l0 146
49 0 c35 0 51 -4 55 -16z m133 9 l-38 -4 3 -57 c3 -56 3 -57 36 -60 43 -4 41
-22 -3 -22 l-36 0 3 -57 c3 -57 3 -58 36 -61 48 -5 39 -24 -10 -20 l-43 3 -3
80 c-2 44 0 108 3 143 l7 62 41 -2 42 -1 -38 -4z m167 -10 c9 -33 46 -234 46
-254 0 -29 -16 -15 -23 21 -6 25 -11 30 -37 30 -22 0 -30 -5 -30 -18 0 -10 -7
-27 -15 -38 -19 -25 -19 -19 6 111 12 61 24 122 26 138 6 31 19 36 27 10z
m186 8 l-24 -7 3 -131 c2 -84 -1 -133 -8 -137 -18 -12 -24 42 -17 159 l7 114
-28 4 c-15 2 -1 4 32 5 38 0 51 -2 35 -7z m138 2 l-38 -4 0 -60 c0 -59 0 -59
30 -59 17 0 30 -4 30 -10 0 -5 -14 -10 -30 -10 l-31 0 3 -57 c3 -57 3 -58 36
-61 49 -5 38 -22 -13 -20 l-45 2 0 143 0 143 48 -2 c43 -1 44 -2 10 -5z m281
-110 c12 -65 24 -128 27 -140 2 -12 0 -24 -5 -28 -6 -3 -13 10 -17 30 -5 31
-10 35 -35 35 -25 0 -30 -5 -36 -30 -7 -38 -23 -49 -23 -16 0 45 49 266 59
266 4 0 17 -53 30 -117z m120 -70 l1 -83 30 0 c17 0 30 -5 30 -11 0 -6 -17 -9
-42 -7 l-43 3 -3 70 c-2 39 0 104 4 145 l8 75 7 -55 c4 -30 7 -92 8 -137z
m146 91 c4 -41 10 -76 14 -78 4 -3 13 30 20 73 21 130 25 126 59 -59 8 -44 9
-42 22 58 7 56 17 102 22 102 16 0 -20 -279 -37 -283 -10 -2 -17 36 -30 146
-4 32 -9 57 -11 54 -4 -4 -33 -176 -34 -199 0 -5 -4 -8 -9 -8 -9 0 -29 116
-37 225 -4 47 -2 65 4 56 6 -8 13 -47 17 -87z m284 34 c25 -120 38 -219 30
-224 -5 -2 -12 10 -17 28 -7 28 -13 33 -38 33 -24 0 -30 -5 -34 -30 -4 -24
-16 -36 -21 -22 -7 17 49 277 60 277 4 0 13 -28 20 -62z m132 -19 c7 -27 16
-49 20 -49 4 0 15 29 24 65 10 36 21 65 26 65 7 0 -8 -74 -31 -150 -5 -19 -10
-59 -10 -88 0 -33 -4 -51 -10 -47 -5 3 -10 28 -10 55 0 27 -11 91 -25 142 -16
61 -20 87 -10 75 7 -11 19 -41 26 -68z m247 39 c2 -22 -1 -38 -7 -38 -6 0 -11
16 -11 35 0 33 -2 35 -35 35 -33 0 -35 -2 -35 -33 0 -25 11 -47 45 -86 43 -50
46 -57 43 -104 l-3 -50 -41 -4 c-50 -4 -67 12 -62 59 4 40 23 35 24 -7 0 -26
4 -30 30 -30 26 0 29 4 32 35 2 28 -4 44 -31 75 -48 57 -57 77 -50 119 6 37 6
37 52 34 45 -3 46 -4 49 -40z m335 35 c-22 -4 -23 -7 -23 -138 0 -78 -4 -136
-10 -140 -6 -4 -10 43 -10 134 0 137 0 140 -22 144 -13 2 2 4 32 4 30 0 45 -2
33 -4z m137 -113 l40 0 0 60 c0 33 4 60 10 60 6 0 10 -55 10 -146 0 -94 -4
-143 -10 -139 -5 3 -10 35 -10 71 l0 64 -41 0 c-36 0 -40 -3 -39 -22 5 -57 -1
-119 -10 -113 -12 7 -14 227 -2 265 5 18 8 9 10 -37 l3 -63 39 0z m159 -42 c1
-64 -3 -119 -8 -122 -17 -11 -23 55 -15 172 9 144 22 117 23 -50z m121 75 c18
-49 37 -92 42 -97 4 -6 8 35 9 90 0 64 3 92 9 79 12 -27 12 -265 1 -265 -5 0
-24 41 -42 90 -17 50 -36 93 -40 96 -5 3 -9 -40 -9 -96 0 -65 -4 -99 -10 -95
-17 10 -12 285 5 285 1 0 17 -39 35 -87z m169 12 l1 -40 35 60 c41 71 45 60 9
-23 l-26 -60 31 -60 c31 -61 40 -99 21 -87 -5 3 -22 33 -37 67 l-28 60 -5 -61
c-6 -77 -24 -80 -28 -4 -5 84 9 233 19 208 4 -11 8 -38 8 -60z m326 -51 c14
-65 25 -129 25 -142 0 -32 -16 -19 -23 18 -6 25 -11 30 -37 30 -22 0 -30 -5
-30 -18 0 -10 -7 -27 -15 -38 -13 -17 -14 -17 -15 -2 0 24 48 256 56 269 10
17 13 8 39 -117z m114 119 c-1 -5 -1 -65 0 -135 l1 -128 37 0 c47 0 34 -14
-18 -17 l-39 -3 0 145 c0 90 4 145 10 145 6 0 9 -3 9 -7z m151 -131 l5 -127
33 -3 c45 -4 30 -22 -19 -22 l-39 0 0 147 c0 80 3 143 8 139 4 -4 9 -65 12
-134z m250 23 l13 -90 18 98 c10 55 20 101 22 103 5 6 23 -65 33 -130 8 -61
20 -44 29 44 4 37 11 73 17 81 11 16 4 -80 -14 -199 -18 -117 -28 -108 -48 42
-6 44 -12 81 -14 83 -2 2 -9 -31 -15 -74 -26 -173 -34 -172 -56 12 -17 148
-17 155 -6 135 5 -8 14 -55 21 -105z m270 109 c0 -3 9 -49 19 -102 11 -54 22
-117 26 -142 5 -42 5 -44 -10 -26 -8 11 -15 28 -15 38 0 13 -8 18 -29 18 -25
0 -31 -5 -36 -30 -7 -31 -25 -51 -25 -27 0 52 50 277 61 277 5 0 9 -3 9 -6z
m135 -46 c25 -86 31 -88 50 -19 10 34 22 64 26 67 12 7 13 13 -16 -94 -14 -51
-25 -116 -25 -143 0 -31 -4 -48 -10 -44 -5 3 -10 32 -10 64 0 32 -6 76 -14 97
-16 47 -30 124 -22 124 3 0 12 -24 21 -52z m253 10 c2 -23 -1 -38 -8 -38 -7 0
-10 13 -8 33 3 31 1 32 -32 32 -33 0 -35 -2 -33 -33 1 -23 14 -49 44 -85 39
-45 44 -57 42 -96 -2 -50 -13 -61 -62 -58 -30 2 -37 6 -44 34 -10 35 -3 68 13
58 5 -3 10 -22 10 -41 0 -31 2 -34 30 -34 28 0 30 2 30 39 0 30 -9 50 -40 89
-31 39 -40 58 -40 89 0 50 5 55 55 51 38 -3 40 -4 43 -40z m-2328 -234 c0 -8
-4 -12 -10 -9 -5 3 -10 10 -10 16 0 5 5 9 10 9 6 0 10 -7 10 -16z"/>
<path d="M5606 5731 c-26 -5 -45 -36 -183 -284 -85 -153 -153 -280 -151 -282
2 -2 84 22 183 53 l179 58 123 224 c68 124 123 228 123 232 0 9 -232 8 -274
-1z"/>
<path d="M4557 3065 c-7 -23 -37 -194 -37 -212 0 -8 15 -13 40 -13 37 0 40 2
39 28 -1 55 -35 217 -42 197z"/>
<path d="M7080 2945 l0 -255 50 0 c37 0 55 5 70 20 19 19 20 33 20 238 0 254
1 252 -88 252 l-52 0 0 -255z"/>
<path d="M7570 2945 l0 -255 80 0 80 0 0 255 0 255 -80 0 -80 0 0 -255z"/>
<path d="M3250 2331 c0 -15 -3 -49 -6 -75 -7 -45 -6 -46 21 -46 19 0 26 4 22
14 -3 8 -9 42 -13 75 -7 62 -24 85 -24 32z"/>
<path d="M3836 2308 c-4 -29 -10 -63 -13 -75 -4 -20 -1 -23 22 -23 l27 0 -7
68 c-9 86 -20 98 -29 30z"/>
<path d="M4393 2294 c-12 -77 -10 -84 18 -84 18 0 19 5 13 58 -11 94 -19 101
-31 26z"/>
<path d="M6019 2355 c-4 -5 -10 -40 -14 -77 -6 -64 -5 -68 14 -68 16 0 21 6
20 28 -2 54 -14 127 -20 117z"/>
<path d="M6816 2298 c-4 -35 -8 -67 -9 -73 -1 -5 9 -11 21 -13 24 -4 24 -3 17
65 -10 90 -21 99 -29 21z"/>
</g>
</svg>
