
<svg version="1.1" id="Layer_1" xmlns="http://www.w3.org/2000/svg" xmlns:xlink="http://www.w3.org/1999/xlink" x="0px" y="0px"
	 width="100%" viewBox="0 0 200 200" enable-background="new 0 0 200 200" xml:space="preserve">
<path fill="#FFFFFF" opacity="1.000000" stroke="none"
	d="
M141.000000,201.000000
	C94.000000,201.000000 47.500004,201.000000 1.000006,201.000000
	C1.000004,134.333344 1.000004,67.666679 1.000002,1.000015
	C67.666656,1.000010 134.333313,1.000010 200.999969,1.000005
	C200.999985,67.666649 200.999985,134.333298 201.000000,200.999969
	C181.166672,201.000000 161.333328,201.000000 141.000000,201.000000
M64.512733,82.047203
	C74.051437,100.325287 83.590141,118.603371 93.730545,138.034439
	C114.587296,97.626656 134.922516,58.229294 155.687119,18.000044
	C150.899261,18.000044 147.112045,18.233757 143.368408,17.930202
	C140.040680,17.660374 138.407135,18.951546 136.950272,21.898438
	C124.070160,47.951782 111.021721,73.921921 98.016304,99.913277
	C96.811630,102.320824 95.560402,104.705063 94.030380,107.685280
	C93.081657,105.968369 92.504539,105.009666 92.007378,104.011154
	C86.299606,92.547440 80.671722,81.042908 74.823555,69.651413
	C74.050262,68.145142 72.256248,66.311035 70.787781,66.170876
	C66.108597,65.724274 61.359951,66.005386 55.919353,66.005386
	C58.863979,71.651695 61.431995,76.575851 64.512733,82.047203
M102.162827,183.837006
	C102.441872,182.267899 102.950302,180.700546 102.962463,179.129379
	C103.037277,169.465775 102.999985,159.801285 103.000000,150.137100
	C103.000000,146.954132 103.000000,143.771164 103.000000,140.588196
	C102.532402,140.533676 102.064804,140.479141 101.597214,140.424622
	C96.274040,154.546463 83.961479,166.480621 88.765060,183.973389
	C92.915802,183.973389 97.069954,183.973389 102.162827,183.837006
z"/>
<path fill="#5B76B5" opacity="1.000000" stroke="none"
	d="
M64.256371,81.773605
	C61.431995,76.575851 58.863979,71.651695 55.919353,66.005386
	C61.359951,66.005386 66.108597,65.724274 70.787781,66.170876
	C72.256248,66.311035 74.050262,68.145142 74.823555,69.651413
	C80.671722,81.042908 86.299606,92.547440 92.007378,104.011154
	C92.504539,105.009666 93.081657,105.968369 94.030380,107.685280
	C95.560402,104.705063 96.811630,102.320824 98.016304,99.913277
	C111.021721,73.921921 124.070160,47.951782 136.950272,21.898438
	C138.407135,18.951546 140.040680,17.660374 143.368408,17.930202
	C147.112045,18.233757 150.899261,18.000044 155.687119,18.000044
	C134.922516,58.229294 114.587296,97.626656 93.730545,138.034439
	C83.590141,118.603371 74.051437,100.325287 64.256371,81.773605
z"/>
<path fill="#5B76B5" opacity="1.000000" stroke="none"
	d="
M101.693466,183.905197
	C97.069954,183.973389 92.915802,183.973389 88.765060,183.973389
	C83.961479,166.480621 96.274040,154.546463 101.597214,140.424622
	C102.064804,140.479141 102.532402,140.533676 103.000000,140.588196
	C103.000000,143.771164 103.000000,146.954132 103.000000,150.137100
	C102.999985,159.801285 103.037277,169.465775 102.962463,179.129379
	C102.950302,180.700546 102.441872,182.267899 101.693466,183.905197
z"/>
</svg>
