<svg width="200" height="200" viewBox="0 0 200 200" fill="none" xmlns="http://www.w3.org/2000/svg">
<rect width="200" height="200" fill="white"/>
<path fill-rule="evenodd" clip-rule="evenodd" d="M69.3232 50L89.9995 70.9589L61.3501 100L89.9995 129.041L69.3232 150L19.9976 100L69.3232 50Z" fill="#1E4FE0"/>
<path fill-rule="evenodd" clip-rule="evenodd" d="M149.661 81.5484C146.469 80.6799 143.112 80.8432 139.985 82.0363C136.847 83.2333 133.993 85.4518 131.879 88.5356C129.759 91.6271 128.515 95.4047 128.398 99.3796C128.28 103.355 129.297 107.224 131.244 110.474C133.186 113.716 135.925 116.14 139.007 117.553C142.079 118.962 145.425 119.343 148.649 118.691C151.879 118.038 154.963 116.35 157.454 113.711L178.062 133.312C171.658 140.098 163.379 144.786 154.252 146.631C145.119 148.477 135.686 147.363 127.212 143.477C118.75 139.596 111.712 133.171 106.913 125.159C102.119 117.153 99.744 107.88 100.021 98.5315C100.299 89.1826 103.22 80.0697 108.494 72.3767C113.774 64.6759 121.202 58.7136 129.9 55.3952C138.609 52.0727 148.095 51.5941 157.087 54.0408C166.071 56.4851 174.032 61.7016 180.002 68.8766L158.213 87.1461C155.863 84.3219 152.862 82.4193 149.661 81.5484Z" fill="#B4007E"/>
</svg>
