<svg width="1825" height="1825" viewBox="0 0 1825 1825" fill="none" xmlns="http://www.w3.org/2000/svg">
<rect width="1825" height="1825" fill="white"/>
<path d="M811.548 570.187L907.891 160L1088.9 450.488L935.626 754.114L811.548 570.187Z" fill="#730EE6"/>
<path d="M961.902 797.907L1106.42 507.418L1157.51 679.668L1194 1224.15L1068.46 1488.36L937.086 1402.24L961.902 797.907Z" fill="#730EE6"/>
<path d="M690.39 508.878L848.042 243.205L782.353 561.428L648.057 682.587L690.39 508.878Z" fill="#8204C3"/>
<path d="M789.652 611.06L632 745.356L653.896 1371.58L789.652 1527.78L897.673 1409.54L922.488 806.665L789.652 611.06Z" fill="#8204C3"/>
<path d="M919.569 1450.41L814.468 1552.59L932.707 1664.99L1052.41 1527.78L919.569 1450.41Z" fill="#34046B"/>
</svg>
