<svg xmlns="http://www.w3.org/2000/svg" viewBox="0 0 37.06 37.06"><path d="M18.53,0A18.53,18.53,0,1,0,37.06,18.53,18.53,18.53,0,0,0,18.53,0ZM32.17,26.74l-1.23.11-3.68.3a1.53,1.53,0,0,1-1.08-.41l-1.34-1.29-1.32-1.24a.79.79,0,0,0-.58-.18.74.74,0,0,0-.69.71.72.72,0,0,0,.14.5v0L24.73,28l.83.91a1.23,1.23,0,0,1-1.71,1.78l-1-.8-3.53-3-.17-.15a.73.73,0,0,0-.52-.19.72.72,0,0,0-.51.21L18,27l-3.41,3.14-.92.82A1.23,1.23,0,1,1,11.9,29.2l.8-.94,2.22-2.85v0a.78.78,0,0,0,.12-.5.77.77,0,0,0-1.29-.49l-1.28,1.29L11.2,27a1.55,1.55,0,0,1-1.07.46l-3.69-.16L5.2,27.24A1.22,1.22,0,0,1,4,26a1.23,1.23,0,0,1,1.21-1.25l1.23-.1,2.75-.34a1.55,1.55,0,0,0,1.23-1.55l-.15-8.52A8.23,8.23,0,1,1,26.68,14l.16,8.52a1.54,1.54,0,0,0,1.3,1.5l2.76.24,1.23.06a1.23,1.23,0,1,1,0,2.46Z" fill="#1e476e"/><path d="M21.14,11.65a.77.77,0,0,0-1.15.73.82.82,0,0,0,.44.72c.54.34,1.06.69,1.64,1.07-.62.37-1.19.7-1.74,1.05a.81.81,0,0,0,.8,1.4c1-.57,2-1.15,3-1.76a.76.76,0,0,0,0-1.28C23.15,12.91,22.16,12.26,21.14,11.65Z" fill="#1e476e"/><path d="M16.41,15.13l-1.61-1,1.59-1c.52-.35.66-.81.37-1.23a.83.83,0,0,0-1.25-.14L13,13.43A.83.83,0,0,0,13,15l2.59,1.53a.82.82,0,1,0,.84-1.39Z" fill="#1e476e"/></svg>
