<svg id="svg" version="1.1" xmlns="http://www.w3.org/2000/svg" xmlns:xlink="http://www.w3.org/1999/xlink" width="400" height="355.7582668187001" viewBox="0, 0, 400,355.7582668187001"><g id="svgg"><path id="path0" d="M18.594 11.602 C 18.154 12.105,17.788 12.622,17.782 12.753 C 17.760 13.191,16.438 14.591,16.046 14.591 C 15.833 14.591,15.658 14.732,15.658 14.905 C 15.658 15.078,15.317 15.309,14.900 15.418 C 14.342 15.564,14.192 15.811,14.333 16.350 C 14.438 16.753,14.387 16.998,14.220 16.894 C 13.289 16.319,12.739 40.792,13.650 42.265 C 13.782 42.480,13.731 42.754,13.536 42.874 C 13.078 43.157,13.428 47.052,13.940 47.369 C 14.151 47.499,14.324 48.024,14.324 48.536 C 14.324 49.048,14.468 49.466,14.644 49.466 C 14.820 49.466,15.116 49.867,15.302 50.356 C 15.489 50.845,15.885 51.246,16.183 51.246 C 16.482 51.246,16.726 51.486,16.726 51.779 C 16.726 52.073,16.875 52.313,17.056 52.313 C 17.238 52.313,17.614 52.540,17.890 52.817 C 18.801 53.728,20.800 53.689,20.932 52.758 C 21.032 52.056,20.889 51.957,19.776 51.957 C 19.077 51.957,18.505 51.805,18.505 51.620 C 18.505 51.140,17.022 49.634,16.281 49.362 C 15.919 49.229,15.658 48.766,15.658 48.258 C 15.658 47.717,15.427 47.339,15.053 47.267 C 14.120 47.087,14.284 17.974,15.223 17.043 C 15.560 16.709,16.157 16.028,16.548 15.530 C 16.940 15.031,17.460 14.616,17.705 14.607 C 17.949 14.598,18.149 14.351,18.149 14.057 C 18.149 13.760,18.466 13.523,18.861 13.523 C 19.253 13.523,19.573 13.396,19.573 13.240 C 19.573 12.084,300.055 11.330,304.448 12.474 C 305.231 12.678,306.192 12.983,306.584 13.152 C 306.975 13.321,307.576 13.548,307.918 13.658 C 308.261 13.767,308.541 14.102,308.541 14.402 C 308.541 14.701,308.764 14.947,309.037 14.947 C 309.309 14.947,309.625 15.187,309.737 15.480 C 309.850 15.774,310.187 16.014,310.487 16.014 C 310.855 16.014,311.032 16.360,311.032 17.082 C 311.032 17.794,311.210 18.149,311.566 18.149 C 312.031 18.149,312.100 19.901,312.105 31.762 C 312.107 39.248,312.206 45.734,312.324 46.174 C 312.483 46.767,312.386 46.975,311.954 46.975 C 311.633 46.975,311.217 47.380,311.029 47.874 C 310.841 48.368,310.444 48.866,310.148 48.980 C 309.851 49.093,309.609 49.471,309.609 49.819 C 309.609 50.166,309.288 50.535,308.897 50.637 C 308.471 50.748,308.185 51.122,308.185 51.568 C 308.185 52.159,307.964 52.313,307.117 52.313 C 306.406 52.313,306.050 52.491,306.050 52.847 C 306.050 53.144,306.366 53.381,306.762 53.381 C 307.153 53.381,307.473 53.211,307.473 53.004 C 307.473 52.797,307.622 52.719,307.805 52.832 C 307.987 52.944,308.232 52.881,308.350 52.690 C 308.467 52.500,308.805 52.437,309.099 52.550 C 309.967 52.883,312.456 50.102,312.456 48.800 C 312.456 48.144,312.699 47.586,313.078 47.374 C 314.035 46.838,314.035 19.161,313.078 17.702 C 312.736 17.179,312.455 16.545,312.455 16.294 C 312.455 15.736,309.863 13.167,309.300 13.167 C 309.078 13.167,308.897 12.985,308.897 12.763 C 308.897 12.541,308.488 11.981,307.989 11.518 L 307.081 10.676 163.238 10.683 L 19.395 10.689 18.594 11.602 M324.555 11.186 C 324.555 11.466,324.235 11.797,323.843 11.922 C 323.452 12.046,323.132 12.339,323.132 12.572 C 323.132 12.805,322.805 13.200,322.406 13.449 C 322.007 13.698,321.776 14.057,321.893 14.247 C 322.010 14.436,321.856 14.591,321.551 14.591 C 321.234 14.591,320.996 14.895,320.996 15.302 C 320.996 15.698,320.759 16.014,320.463 16.014 C 320.169 16.014,319.929 16.256,319.929 16.552 C 319.929 16.848,319.569 17.849,319.128 18.776 L 318.327 20.463 318.327 57.884 L 318.327 95.305 319.324 96.229 C 319.873 96.737,320.465 97.153,320.641 97.153 C 320.817 97.153,321.108 97.416,321.288 97.737 C 321.467 98.058,321.796 98.209,322.017 98.072 C 322.491 97.779,322.565 96.085,322.104 96.085 C 321.930 96.085,321.682 95.525,321.554 94.840 C 321.414 94.094,321.112 93.594,320.802 93.594 C 320.508 93.594,320.277 93.249,320.267 92.794 C 320.258 92.353,320.218 75.738,320.178 55.872 C 320.136 34.677,319.971 19.468,319.778 19.066 C 319.513 18.515,319.560 18.424,320.019 18.600 C 320.826 18.910,321.425 18.030,321.151 16.938 C 320.956 16.162,321.040 16.014,321.670 16.014 C 322.099 16.014,322.420 15.786,322.420 15.480 C 322.420 15.187,322.652 14.947,322.936 14.947 C 323.220 14.947,323.580 14.726,323.737 14.457 C 324.055 13.909,327.072 12.456,327.891 12.456 C 328.477 12.456,329.537 11.522,329.537 11.007 C 329.537 10.825,328.416 10.676,327.046 10.676 C 325.121 10.676,324.555 10.792,324.555 11.186 M382.206 11.350 C 382.206 12.119,382.869 12.456,384.382 12.456 C 384.987 12.456,385.518 12.682,385.636 12.989 C 385.749 13.283,386.144 13.523,386.515 13.523 C 386.885 13.523,387.189 13.763,387.189 14.057 C 387.189 14.351,387.349 14.591,387.544 14.591 C 388.083 14.591,389.324 15.944,389.324 16.530 C 389.324 16.814,389.553 17.175,389.834 17.332 C 390.271 17.576,390.366 23.016,390.494 54.983 C 390.632 89.649,390.812 96.253,391.566 94.306 C 392.138 92.829,392.242 87.800,392.409 53.800 L 392.589 17.032 391.858 16.840 C 391.456 16.735,391.031 16.346,390.913 15.976 C 390.796 15.605,390.519 15.302,390.299 15.302 C 389.887 15.302,387.882 13.246,386.694 11.605 C 385.811 10.385,382.206 10.180,382.206 11.350 M31.673 53.220 C 31.379 53.289,28.946 53.398,26.265 53.463 C 21.620 53.574,20.547 53.762,21.145 54.359 C 21.416 54.631,294.287 54.749,297.079 54.478 C 298.791 54.313,299.235 53.962,298.308 53.507 C 297.733 53.226,32.864 52.941,31.673 53.220 M17.688 61.335 C 16.572 62.382,15.658 63.412,15.658 63.624 C 15.658 63.836,15.338 64.111,14.947 64.235 C 14.555 64.359,14.235 64.690,14.235 64.971 C 14.235 65.251,13.995 65.480,13.701 65.480 C 12.880 65.480,12.890 194.137,13.711 194.988 C 14.534 195.841,17.200 198.802,17.705 199.423 C 17.949 199.724,18.149 200.130,18.149 200.325 C 18.149 201.322,79.807 201.360,80.423 200.363 C 81.107 199.255,82.442 197.650,83.914 196.163 C 86.034 194.022,86.545 192.645,85.577 191.678 C 84.760 190.861,83.986 191.357,83.986 192.699 C 83.986 193.852,81.741 196.797,80.862 196.797 C 80.665 196.797,80.411 197.037,80.298 197.331 C 80.186 197.625,79.855 197.865,79.562 197.865 C 79.270 197.865,78.696 198.225,78.286 198.665 L 77.540 199.466 52.204 199.580 C 25.802 199.699,20.996 199.572,20.996 198.751 C 20.996 198.490,20.505 198.169,19.905 198.037 C 19.304 197.906,18.727 197.573,18.621 197.297 C 18.516 197.022,18.201 196.797,17.922 196.797 C 17.643 196.797,17.323 196.557,17.211 196.263 C 17.098 195.970,16.783 195.730,16.510 195.730 C 16.237 195.730,16.014 195.542,16.014 195.313 C 16.014 195.083,15.734 194.586,15.391 194.208 C 14.423 193.138,14.423 66.691,15.391 66.149 C 15.734 65.958,16.014 65.655,16.014 65.478 C 16.014 64.711,18.785 62.278,19.658 62.278 C 20.156 62.278,20.657 62.037,20.769 61.744 C 20.949 61.275,24.462 61.210,49.411 61.210 C 74.255 61.210,77.905 61.277,78.292 61.744 C 78.535 62.037,79.116 62.278,79.581 62.278 C 80.096 62.278,80.427 62.487,80.427 62.811 C 80.427 63.108,80.743 63.345,81.139 63.345 C 81.534 63.345,81.851 63.582,81.851 63.879 C 81.851 64.173,82.015 64.413,82.215 64.413 C 82.416 64.413,82.732 64.813,82.918 65.302 C 83.104 65.792,83.411 66.192,83.600 66.192 C 83.788 66.192,83.993 66.791,84.053 67.524 C 84.134 68.493,84.346 68.890,84.833 68.982 C 86.527 69.304,86.316 66.595,84.518 64.947 C 83.877 64.359,82.775 63.372,82.068 62.753 C 81.361 62.133,80.783 61.515,80.783 61.379 C 80.783 61.244,80.423 60.752,79.982 60.288 L 79.181 59.443 49.450 59.437 L 19.718 59.431 17.688 61.335 M389.680 95.730 C 389.680 96.430,389.500 96.797,389.158 96.797 C 388.872 96.797,388.466 97.117,388.256 97.509 C 388.047 97.900,387.641 98.221,387.354 98.221 C 387.067 98.221,386.833 98.541,386.833 98.932 C 386.833 99.486,386.595 99.644,385.765 99.644 C 384.935 99.644,384.698 99.802,384.698 100.356 C 384.698 100.909,384.935 101.068,385.765 101.068 C 386.352 101.068,386.833 100.899,386.833 100.693 C 386.833 100.487,387.290 100.159,387.849 99.964 C 388.408 99.770,389.089 99.177,389.362 98.648 C 389.635 98.120,390.136 97.479,390.476 97.225 C 390.844 96.950,391.034 96.447,390.947 95.980 C 390.866 95.548,390.788 95.076,390.774 94.929 C 390.688 94.058,389.680 94.796,389.680 95.730 M322.616 98.903 C 322.505 99.083,322.896 99.336,323.484 99.466 C 324.222 99.627,324.555 99.914,324.555 100.384 C 324.555 100.760,324.785 101.068,325.065 101.068 C 325.345 101.068,325.678 101.393,325.805 101.792 C 326.141 102.851,382.140 102.676,383.204 101.612 C 384.102 100.714,375.043 100.376,349.762 100.366 C 326.119 100.355,325.263 100.304,324.614 98.843 C 324.446 98.464,322.858 98.512,322.616 98.903 M164.057 108.169 C 163.763 108.368,162.772 108.532,161.854 108.535 C 159.696 108.543,159.355 109.102,161.301 109.444 C 162.132 109.591,212.787 109.808,273.869 109.926 C 378.998 110.131,384.960 110.176,385.549 110.765 C 385.892 111.108,386.401 111.388,386.680 111.388 C 386.960 111.388,387.189 111.548,387.189 111.744 C 387.189 111.940,387.429 112.100,387.722 112.100 C 388.016 112.100,388.256 112.340,388.256 112.633 C 388.256 112.927,388.486 113.167,388.766 113.167 C 389.046 113.167,389.378 113.488,389.502 113.879 C 389.626 114.270,389.944 114.591,390.208 114.591 C 391.253 114.591,390.889 113.650,389.170 111.908 C 388.178 110.902,386.977 109.559,386.500 108.923 L 385.634 107.765 277.782 107.961 C 218.463 108.068,169.689 108.158,169.395 108.160 C 169.101 108.162,167.900 108.084,166.726 107.986 C 165.549 107.888,164.351 107.971,164.057 108.169 M150.785 108.969 C 150.549 109.119,152.398 109.244,154.893 109.247 C 157.389 109.250,159.431 109.133,159.431 108.986 C 159.430 108.633,151.339 108.617,150.785 108.969 M145.819 109.525 C 145.476 109.600,145.196 109.889,145.196 110.168 C 145.196 110.448,145.001 110.676,144.762 110.676 C 144.296 110.676,142.705 112.370,142.705 112.867 C 142.705 113.032,142.384 113.488,141.993 113.879 C 141.194 114.678,141.051 115.875,141.726 116.110 C 142.500 116.380,143.060 115.966,143.060 115.125 C 143.060 114.677,143.301 114.219,143.594 114.106 C 143.888 113.994,144.128 113.496,144.128 113.000 C 144.128 112.345,144.317 112.100,144.822 112.100 C 145.204 112.100,145.644 111.875,145.801 111.600 C 145.957 111.325,146.486 111.045,146.975 110.977 C 147.586 110.893,147.865 110.631,147.865 110.142 C 147.865 109.430,147.188 109.226,145.819 109.525 M390.986 115.214 C 390.894 115.556,390.864 121.121,390.918 127.580 C 391.033 141.438,390.860 145.552,390.162 145.552 C 389.897 145.552,389.680 145.853,389.680 146.222 C 389.680 146.593,389.362 146.975,388.968 147.078 C 388.577 147.181,388.256 147.520,388.256 147.831 C 388.256 148.143,388.011 148.399,387.711 148.399 C 387.412 148.399,387.074 148.639,386.961 148.932 C 386.849 149.226,386.484 149.466,386.151 149.466 C 385.818 149.466,385.234 149.701,384.854 149.989 C 383.793 150.791,148.043 150.803,148.043 150.000 C 148.043 149.668,147.707 149.466,147.153 149.466 C 145.906 149.466,145.992 150.555,147.317 151.534 L 148.370 152.313 266.990 152.313 L 385.610 152.313 388.374 149.460 C 389.894 147.891,391.041 146.450,390.922 146.258 C 390.803 146.065,390.938 145.907,391.222 145.907 C 391.722 145.907,392.388 144.315,392.189 143.594 C 392.135 143.399,392.047 141.317,391.993 138.968 C 391.933 136.346,391.997 135.247,392.160 136.121 C 392.317 136.959,392.429 134.619,392.434 130.427 C 392.439 126.512,392.324 123.790,392.180 124.377 C 391.811 125.876,391.798 119.270,392.167 117.634 C 392.327 116.922,392.313 116.280,392.134 116.169 C 391.958 116.061,391.815 115.661,391.815 115.281 C 391.815 114.421,391.209 114.372,390.986 115.214 M140.679 117.171 C 140.110 118.051,140.122 142.728,140.693 143.933 C 140.975 144.530,141.413 145.464,141.666 146.009 C 141.932 146.580,142.324 146.924,142.593 146.821 C 142.850 146.722,143.081 146.797,143.105 146.986 C 143.129 147.176,143.169 147.518,143.194 147.746 C 143.218 147.974,143.442 148.229,143.691 148.312 C 144.308 148.518,144.138 146.343,143.519 146.106 C 143.267 146.009,143.060 145.429,143.060 144.818 C 143.060 143.988,142.871 143.656,142.314 143.510 C 141.639 143.334,141.589 143.141,141.793 141.497 C 142.195 138.258,142.079 120.812,141.641 118.704 C 141.204 116.596,141.129 116.476,140.679 117.171 M331.195 157.002 C 328.845 157.235,328.151 157.451,328.532 157.832 C 329.173 158.473,336.902 158.698,358.630 158.708 C 379.415 158.717,383.274 158.796,383.274 159.213 C 383.274 159.496,383.806 159.807,384.520 159.941 C 385.205 160.069,385.765 160.327,385.765 160.514 C 385.765 160.937,387.196 160.951,387.853 160.535 C 388.251 160.283,388.218 160.104,387.675 159.558 C 387.310 159.191,386.663 158.412,386.238 157.826 L 385.465 156.762 359.548 156.762 C 345.293 156.762,332.534 156.870,331.195 157.002 M324.288 159.156 C 323.260 159.787,322.420 160.469,322.420 160.671 C 322.420 160.873,322.100 161.239,321.708 161.483 C 321.317 161.728,320.996 162.247,320.996 162.636 C 320.996 163.108,321.235 163.345,321.708 163.345 C 322.104 163.345,322.420 163.108,322.420 162.811 C 322.420 162.518,322.675 162.278,322.987 162.278 C 323.299 162.278,323.638 161.957,323.740 161.566 C 323.843 161.174,324.148 160.854,324.419 160.854 C 324.689 160.854,324.911 160.534,324.911 160.142 C 324.911 159.569,325.148 159.431,326.136 159.431 C 327.469 159.431,328.141 158.824,327.359 158.329 C 326.594 157.844,326.284 157.928,324.288 159.156 M388.612 162.032 C 388.612 162.558,388.763 162.989,388.947 162.989 C 389.553 162.989,389.625 162.459,389.114 161.761 C 388.636 161.107,388.612 161.120,388.612 162.032 M320.087 163.271 C 319.263 163.832,319.494 165.897,320.366 165.773 C 321.017 165.680,321.160 165.455,321.100 164.622 C 321.014 163.432,320.620 162.907,320.087 163.271 M389.324 163.498 C 389.324 163.777,389.557 164.239,389.842 164.525 C 390.293 164.975,390.378 176.103,390.493 249.337 C 390.613 326.251,390.743 338.096,391.444 335.943 C 392.328 333.232,392.417 325.637,392.494 247.004 L 392.575 165.024 391.461 164.007 C 390.257 162.907,389.324 162.685,389.324 163.498 M318.560 169.360 C 318.264 171.151,318.158 194.450,318.170 255.392 C 318.185 339.112,318.209 340.925,319.316 340.925 C 319.470 340.925,320.067 341.406,320.641 341.993 C 321.959 343.342,322.420 343.342,322.420 341.993 C 322.420 341.406,322.278 340.925,322.104 340.925 C 321.930 340.925,321.683 340.369,321.556 339.689 C 321.428 339.010,321.062 338.307,320.742 338.128 C 320.207 337.828,320.157 331.114,320.115 253.510 C 320.090 207.149,319.940 168.697,319.781 168.060 C 319.342 166.301,319.006 166.658,318.560 169.360 M18.923 206.428 C 18.772 206.836,18.496 207.194,18.310 207.223 C 17.736 207.314,16.726 208.318,16.726 208.798 C 16.726 209.048,16.526 209.255,16.281 209.259 C 15.667 209.267,14.235 210.834,14.235 211.497 C 14.235 211.796,14.035 212.107,13.790 212.189 C 12.731 212.541,13.038 243.416,14.100 243.416 C 14.411 243.416,14.527 243.587,14.379 243.826 C 14.240 244.052,14.361 244.412,14.647 244.627 C 14.934 244.842,15.274 245.298,15.402 245.641 C 15.531 245.983,15.881 246.263,16.181 246.263 C 16.481 246.263,16.726 246.504,16.726 246.797 C 16.726 247.091,16.859 247.331,17.023 247.331 C 17.186 247.331,17.883 247.895,18.572 248.584 L 19.826 249.838 133.489 249.729 C 235.890 249.632,252.019 249.524,252.614 248.928 C 253.576 247.966,236.874 247.815,122.257 247.744 C 55.667 247.703,20.728 247.561,20.496 247.329 C 20.301 247.134,19.759 246.975,19.291 246.975 C 18.738 246.975,18.373 246.725,18.253 246.263 C 18.150 245.872,17.845 245.552,17.574 245.552 C 17.303 245.552,17.082 245.311,17.082 245.018 C 17.082 244.724,16.842 244.484,16.548 244.484 C 16.254 244.484,16.014 244.244,16.014 243.950 C 16.014 243.657,15.686 243.088,15.284 242.687 C 14.153 241.555,14.164 213.796,15.296 212.741 C 15.691 212.373,16.014 211.899,16.014 211.688 C 16.014 210.893,18.751 208.682,20.463 208.095 C 22.127 207.524,29.720 207.477,137.722 207.367 C 201.237 207.303,253.523 207.153,253.915 207.033 C 254.306 206.914,254.987 206.804,255.427 206.789 C 255.867 206.774,256.228 206.609,256.228 206.422 C 256.228 206.235,255.675 206.153,255.000 206.240 C 254.325 206.326,253.678 206.242,253.561 206.054 C 253.426 205.835,211.012 205.706,136.273 205.698 L 19.197 205.686 18.923 206.428 M257.420 207.307 C 257.095 208.152,257.659 208.596,258.753 208.356 C 259.498 208.192,259.786 208.263,259.786 208.611 C 259.786 208.877,260.067 209.352,260.409 209.667 C 261.569 210.733,262.278 211.885,262.278 212.706 C 262.278 213.247,262.488 213.523,262.900 213.523 C 263.483 213.523,263.523 214.430,263.523 227.584 C 263.523 240.663,263.480 241.659,262.900 241.843 C 262.524 241.963,262.278 242.396,262.278 242.940 C 262.278 243.540,262.041 243.901,261.566 244.025 C 261.172 244.128,260.854 244.510,260.854 244.881 C 260.854 245.250,260.617 245.552,260.327 245.552 C 260.037 245.552,259.698 245.959,259.573 246.456 C 259.436 247.002,259.115 247.339,258.765 247.305 C 257.768 247.209,257.295 247.319,257.295 247.649 C 257.295 248.195,258.469 248.446,258.774 247.966 C 258.933 247.714,259.066 247.621,259.069 247.758 C 259.088 248.620,262.989 246.085,262.989 245.211 C 262.989 245.007,263.149 244.840,263.345 244.840 C 263.541 244.840,263.701 244.199,263.701 243.416 C 263.701 242.446,263.857 241.993,264.190 241.993 C 265.012 241.993,265.125 240.231,265.120 227.447 C 265.115 214.756,265.033 213.523,264.193 213.523 C 263.874 213.523,263.701 213.112,263.701 212.351 C 263.701 211.171,261.425 208.185,260.526 208.185 C 260.315 208.185,260.142 208.036,260.142 207.853 C 260.142 207.544,259.161 207.093,258.074 206.901 C 257.817 206.855,257.523 207.038,257.420 207.307 M18.860 256.283 C 18.273 256.843,17.794 257.460,17.794 257.654 C 17.794 257.848,17.553 258.007,17.260 258.007 C 16.966 258.007,16.726 258.167,16.726 258.363 C 16.726 258.720,15.280 260.315,14.947 260.326 C 14.849 260.330,14.408 260.645,13.968 261.028 L 13.167 261.724 13.167 301.173 L 13.167 340.622 16.014 343.416 C 17.580 344.953,18.861 346.382,18.861 346.593 C 18.861 346.803,19.021 346.981,19.217 346.988 C 27.519 347.300,79.551 346.929,79.670 346.557 C 79.752 346.298,80.036 345.957,80.301 345.801 C 80.941 345.423,80.915 344.611,80.255 344.357 C 79.947 344.240,79.575 344.437,79.366 344.828 C 78.921 345.659,81.681 345.566,51.246 345.778 C 25.024 345.961,19.573 345.757,19.573 344.593 C 19.573 344.337,19.253 344.128,18.861 344.128 C 18.470 344.128,18.149 343.968,18.149 343.772 C 18.149 343.577,17.909 343.416,17.616 343.416 C 17.322 343.416,17.082 343.171,17.082 342.871 C 17.082 342.572,16.842 342.234,16.548 342.122 C 16.254 342.009,16.014 341.751,16.014 341.549 C 16.014 341.347,15.734 340.977,15.391 340.726 C 14.805 340.297,14.769 338.010,14.769 301.427 C 14.769 264.803,14.804 262.563,15.391 262.235 C 15.734 262.043,16.014 261.654,16.014 261.370 C 16.014 260.784,17.256 259.431,17.794 259.431 C 17.989 259.431,18.149 259.270,18.149 259.075 C 18.149 258.879,18.417 258.719,18.744 258.719 C 19.071 258.719,19.608 258.476,19.936 258.179 C 21.169 257.063,26.219 256.881,52.604 257.000 L 78.498 257.117 79.629 258.274 C 80.737 259.408,81.624 259.729,81.995 259.128 C 82.098 258.962,81.826 258.516,81.390 258.138 C 80.955 257.759,80.252 256.974,79.830 256.394 C 79.100 255.391,78.948 255.343,76.808 255.441 C 69.344 255.781,24.555 255.839,24.555 255.509 C 24.555 254.592,19.979 255.213,18.860 256.283 M82.399 260.587 C 82.537 261.223,82.869 261.871,83.138 262.028 C 83.407 262.184,83.729 262.953,83.855 263.737 C 84.060 265.018,84.177 265.152,85.013 265.055 C 86.597 264.871,86.240 260.498,84.641 260.498 C 84.280 260.498,83.986 260.258,83.986 259.964 C 83.986 259.628,83.647 259.431,83.068 259.431 C 82.218 259.431,82.168 259.517,82.399 260.587 M106.642 303.570 C 106.088 303.734,105.423 303.788,105.166 303.690 C 104.909 303.591,104.593 303.681,104.463 303.890 C 104.320 304.122,104.618 304.288,105.228 304.316 C 105.778 304.341,106.628 304.439,107.117 304.533 C 107.607 304.628,152.513 304.808,206.910 304.933 C 285.554 305.114,305.843 305.251,305.961 305.605 C 306.042 305.850,306.416 306.050,306.791 306.050 C 307.166 306.050,307.473 306.210,307.473 306.406 C 307.473 306.601,307.954 306.762,308.541 306.762 C 309.535 306.762,310.142 306.059,309.164 306.042 C 308.919 306.037,308.167 305.395,307.492 304.615 L 306.265 303.197 206.958 303.234 C 152.339 303.254,107.197 303.405,106.642 303.570 M97.598 304.522 C 97.157 304.606,96.797 304.825,96.797 305.007 C 96.797 305.189,96.494 305.338,96.123 305.338 C 95.427 305.338,93.634 306.932,93.950 307.270 C 94.048 307.374,93.759 307.718,93.307 308.035 C 92.216 308.799,92.343 310.447,93.505 310.612 C 94.186 310.709,94.306 310.563,94.306 309.633 C 94.306 308.778,94.461 308.541,95.018 308.541 C 95.409 308.541,95.730 308.318,95.730 308.045 C 95.730 307.773,95.970 307.457,96.263 307.345 C 96.557 307.232,96.797 306.738,96.797 306.248 C 96.797 305.447,96.906 305.378,97.865 305.569 C 98.783 305.753,98.932 305.677,98.932 305.027 C 98.932 304.611,98.812 304.292,98.665 304.319 C 98.519 304.346,98.038 304.437,97.598 304.522 M309.921 307.961 C 309.525 308.830,309.539 309.033,310.021 309.386 C 310.330 309.612,310.694 310.301,310.829 310.918 C 310.965 311.535,311.306 312.129,311.588 312.237 C 312.356 312.532,312.354 337.904,311.585 338.199 C 311.303 338.308,310.965 338.966,310.834 339.661 C 310.704 340.356,310.455 340.925,310.281 340.925 C 310.107 340.925,309.964 341.406,309.964 341.993 C 309.964 343.237,310.393 343.344,311.388 342.349 C 311.779 341.957,312.100 341.477,312.100 341.281 C 312.100 341.085,312.400 340.925,312.767 340.925 C 313.803 340.925,313.879 339.823,313.879 324.890 C 313.879 311.107,313.732 309.253,312.642 309.253 C 312.344 309.253,312.100 309.012,312.100 308.719 C 312.100 308.425,311.917 308.185,311.694 308.185 C 311.471 308.185,311.085 307.906,310.836 307.566 C 310.421 306.998,310.344 307.031,309.921 307.961 M91.953 311.075 C 91.303 312.084,91.439 338.065,92.105 340.101 C 92.662 341.802,96.241 345.907,97.167 345.907 C 97.326 345.907,97.508 346.153,97.572 346.453 C 97.763 347.362,305.901 347.270,306.745 346.361 C 307.693 345.340,307.891 344.485,307.238 344.235 C 306.913 344.110,306.486 344.243,306.265 344.539 C 305.225 345.931,302.687 345.961,200.712 345.801 C 103.725 345.649,99.713 345.603,98.904 344.627 C 98.676 344.353,98.229 344.123,97.910 344.116 C 97.191 344.102,95.953 343.091,95.634 342.260 C 95.503 341.917,95.151 341.637,94.851 341.637 C 94.483 341.637,94.306 341.291,94.306 340.569 C 94.306 339.784,94.139 339.502,93.674 339.502 C 93.078 339.502,93.042 338.691,93.051 325.712 C 93.060 312.176,92.871 309.651,91.953 311.075 M83.837 339.295 C 83.707 339.985,83.365 340.682,83.076 340.844 C 82.700 341.054,82.616 341.461,82.779 342.277 C 83.021 343.487,83.518 343.766,83.857 342.883 C 83.970 342.589,84.281 342.349,84.549 342.349 C 85.230 342.349,86.186 340.357,86.053 339.211 C 85.866 337.593,84.144 337.657,83.837 339.295 M389.680 340.569 C 389.680 341.387,389.519 341.637,388.992 341.637 C 388.614 341.637,388.203 341.957,388.078 342.349 C 387.954 342.740,387.631 343.060,387.360 343.060 C 387.090 343.060,386.740 343.285,386.584 343.560 C 386.427 343.835,385.899 344.115,385.409 344.183 C 384.844 344.261,384.482 344.566,384.418 345.018 C 384.258 346.130,328.001 345.947,326.962 344.832 C 326.602 344.445,325.993 344.128,325.609 344.128 C 325.225 344.128,324.911 343.968,324.911 343.772 C 324.911 343.577,324.351 343.416,323.665 343.416 C 322.980 343.416,322.420 343.577,322.420 343.772 C 322.420 343.968,322.665 344.128,322.965 344.128 C 323.265 344.128,323.616 344.404,323.745 344.741 C 323.874 345.078,324.421 345.785,324.961 346.312 L 325.942 347.271 354.993 347.212 C 382.209 347.157,384.072 347.114,384.499 346.530 C 384.749 346.188,385.355 345.907,385.845 345.907 C 386.335 345.907,387.278 345.430,387.941 344.846 C 388.604 344.261,389.266 343.781,389.413 343.778 C 389.560 343.775,389.680 343.521,389.680 343.213 C 389.680 342.905,389.921 342.412,390.217 342.117 C 390.512 341.821,390.663 341.432,390.552 341.252 C 390.440 341.072,390.485 340.925,390.650 340.925 C 390.815 340.925,390.951 340.605,390.951 340.214 C 390.951 339.767,390.713 339.502,390.315 339.502 C 389.846 339.502,389.680 339.782,389.680 340.569 " stroke="none" fill="#ec989f" fill-rule="evenodd"></path><path id="path1" d="M329.360 11.387 C 329.236 11.778,328.704 12.200,328.179 12.324 C 326.620 12.693,324.043 13.930,323.737 14.457 C 323.580 14.726,323.220 14.947,322.936 14.947 C 322.652 14.947,322.420 15.187,322.420 15.480 C 322.420 15.786,322.099 16.014,321.670 16.014 C 321.040 16.014,320.956 16.162,321.151 16.938 C 321.425 18.030,320.826 18.910,320.019 18.600 C 319.560 18.424,319.513 18.515,319.778 19.066 C 319.971 19.468,320.136 34.677,320.178 55.872 C 320.218 75.738,320.258 92.353,320.267 92.794 C 320.277 93.249,320.508 93.594,320.802 93.594 C 321.112 93.594,321.414 94.094,321.554 94.840 C 321.682 95.525,321.942 96.085,322.131 96.085 C 322.321 96.085,322.423 96.686,322.359 97.420 C 322.246 98.704,322.281 98.750,323.269 98.634 C 323.834 98.567,324.394 98.647,324.515 98.812 C 325.597 100.291,325.996 100.314,353.915 100.514 C 368.594 100.619,381.526 100.801,382.651 100.919 C 384.559 101.119,384.698 101.083,384.698 100.389 C 384.698 99.799,384.919 99.644,385.765 99.644 C 386.595 99.644,386.833 99.486,386.833 98.932 C 386.833 98.541,387.067 98.221,387.354 98.221 C 387.641 98.221,388.047 97.900,388.256 97.509 C 388.466 97.117,388.872 96.797,389.158 96.797 C 389.500 96.797,389.680 96.430,389.680 95.730 C 389.680 94.638,390.487 94.223,390.891 95.107 C 391.003 95.351,391.004 94.831,390.892 93.950 C 390.781 93.069,390.612 75.534,390.517 54.983 C 390.369 23.033,390.270 17.576,389.834 17.332 C 389.553 17.175,389.324 16.814,389.324 16.530 C 389.324 15.944,388.083 14.591,387.544 14.591 C 387.349 14.591,387.189 14.351,387.189 14.057 C 387.189 13.763,386.885 13.523,386.515 13.523 C 386.144 13.523,385.749 13.283,385.636 12.989 C 385.518 12.682,384.987 12.456,384.382 12.456 C 382.869 12.456,382.206 12.119,382.206 11.350 C 382.206 10.261,329.705 10.298,329.360 11.387 M21.619 12.565 C 20.494 12.764,19.573 13.061,19.573 13.225 C 19.573 13.389,19.253 13.523,18.861 13.523 C 18.466 13.523,18.149 13.760,18.149 14.057 C 18.149 14.351,17.949 14.598,17.705 14.607 C 17.460 14.616,16.940 15.031,16.548 15.530 C 16.157 16.028,15.560 16.709,15.223 17.043 C 14.284 17.974,14.120 47.087,15.053 47.267 C 15.427 47.339,15.658 47.717,15.658 48.258 C 15.658 48.766,15.919 49.229,16.281 49.362 C 17.022 49.634,18.505 51.140,18.505 51.620 C 18.505 51.805,19.085 51.957,19.792 51.957 C 20.967 51.957,21.065 52.034,20.913 52.830 L 20.746 53.703 24.163 53.453 C 28.869 53.109,296.733 53.135,297.968 53.480 C 298.515 53.633,298.865 53.913,298.748 54.103 C 298.623 54.305,299.136 54.448,299.979 54.448 C 300.773 54.448,301.423 54.288,301.423 54.093 C 301.423 53.888,302.599 53.725,304.181 53.709 C 305.698 53.693,306.739 53.600,306.495 53.501 C 305.599 53.140,306.032 52.313,307.117 52.313 C 307.964 52.313,308.185 52.159,308.185 51.568 C 308.185 51.122,308.471 50.748,308.897 50.637 C 309.288 50.535,309.609 50.166,309.609 49.819 C 309.609 49.471,309.851 49.093,310.148 48.980 C 310.444 48.866,310.841 48.368,311.029 47.874 C 311.217 47.380,311.633 46.975,311.954 46.975 C 312.386 46.975,312.483 46.767,312.324 46.174 C 312.206 45.734,312.107 39.248,312.105 31.762 C 312.100 19.901,312.031 18.149,311.566 18.149 C 311.210 18.149,311.032 17.794,311.032 17.082 C 311.032 16.360,310.855 16.014,310.487 16.014 C 310.187 16.014,309.850 15.774,309.737 15.480 C 309.625 15.187,309.309 14.947,309.037 14.947 C 308.764 14.947,308.541 14.701,308.541 14.402 C 308.541 14.102,308.261 13.767,307.918 13.658 C 307.576 13.548,306.975 13.321,306.584 13.152 C 306.192 12.983,305.231 12.678,304.448 12.474 C 302.491 11.965,24.511 12.054,21.619 12.565 M13.250 24.555 C 13.250 25.240,13.323 25.520,13.413 25.178 C 13.502 24.835,13.502 24.275,13.413 23.932 C 13.323 23.590,13.250 23.870,13.250 24.555 M13.257 38.256 C 13.261 39.039,13.334 39.318,13.419 38.875 C 13.504 38.432,13.501 37.792,13.412 37.451 C 13.323 37.111,13.253 37.473,13.257 38.256 M13.167 41.836 C 13.167 42.533,13.301 43.020,13.464 42.919 C 13.744 42.746,13.597 40.569,13.305 40.569 C 13.229 40.569,13.167 41.139,13.167 41.836 M292.616 54.694 C 292.958 54.783,293.519 54.783,293.861 54.694 C 294.204 54.604,293.923 54.531,293.238 54.531 C 292.553 54.531,292.273 54.604,292.616 54.694 M20.769 61.744 C 20.657 62.037,20.156 62.278,19.658 62.278 C 18.785 62.278,16.014 64.711,16.014 65.478 C 16.014 65.655,15.734 65.958,15.391 66.149 C 14.423 66.691,14.423 193.138,15.391 194.208 C 15.734 194.586,16.014 195.083,16.014 195.313 C 16.014 195.542,16.237 195.730,16.510 195.730 C 16.783 195.730,17.098 195.970,17.211 196.263 C 17.323 196.557,17.643 196.797,17.922 196.797 C 18.201 196.797,18.516 197.022,18.621 197.297 C 18.727 197.573,19.304 197.906,19.905 198.037 C 20.505 198.169,20.996 198.490,20.996 198.751 C 20.996 199.572,25.802 199.699,52.204 199.580 L 77.540 199.466 78.286 198.665 C 78.696 198.225,79.270 197.865,79.562 197.865 C 79.855 197.865,80.186 197.625,80.298 197.331 C 80.411 197.037,80.665 196.797,80.862 196.797 C 81.741 196.797,83.986 193.852,83.986 192.699 C 83.986 191.357,84.760 190.861,85.577 191.678 C 86.065 192.166,86.120 185.851,86.116 130.186 C 86.113 95.730,85.975 68.363,85.806 68.629 C 85.200 69.586,84.170 68.937,84.053 67.524 C 83.993 66.791,83.788 66.192,83.600 66.192 C 83.411 66.192,83.104 65.792,82.918 65.302 C 82.732 64.813,82.416 64.413,82.215 64.413 C 82.015 64.413,81.851 64.173,81.851 63.879 C 81.851 63.582,81.534 63.345,81.139 63.345 C 80.743 63.345,80.427 63.108,80.427 62.811 C 80.427 62.487,80.096 62.278,79.581 62.278 C 79.116 62.278,78.535 62.037,78.292 61.744 C 77.620 60.935,21.080 60.935,20.769 61.744 M81.691 62.374 C 81.786 62.623,82.222 63.044,82.658 63.311 C 83.415 63.772,83.412 63.751,82.589 62.858 C 81.626 61.813,81.436 61.710,81.691 62.374 M392.277 71.886 C 392.277 72.963,392.344 73.403,392.426 72.865 C 392.507 72.327,392.507 71.446,392.426 70.907 C 392.344 70.369,392.277 70.810,392.277 71.886 M392.253 79.359 C 392.253 80.044,392.327 80.325,392.416 79.982 C 392.506 79.640,392.506 79.079,392.416 78.737 C 392.327 78.394,392.253 78.674,392.253 79.359 M392.268 87.189 C 392.268 88.069,392.337 88.430,392.422 87.989 C 392.507 87.549,392.507 86.828,392.422 86.388 C 392.337 85.948,392.268 86.308,392.268 87.189 M156.317 108.093 C 154.898 108.161,153.737 108.362,153.737 108.540 C 153.737 108.718,155.018 108.815,156.584 108.755 C 158.149 108.696,159.431 108.783,159.431 108.950 C 159.431 109.116,157.389 109.250,154.893 109.247 C 151.832 109.244,150.530 109.130,150.890 108.897 C 151.295 108.635,151.145 108.551,150.267 108.546 C 149.631 108.543,149.110 108.701,149.110 108.897 C 149.110 109.093,148.817 109.253,148.459 109.253 C 148.013 109.253,147.817 109.505,147.837 110.053 C 147.857 110.647,147.635 110.886,146.975 110.977 C 146.486 111.045,145.957 111.325,145.801 111.600 C 145.644 111.875,145.204 112.100,144.822 112.100 C 144.317 112.100,144.128 112.345,144.128 113.000 C 144.128 113.496,143.888 113.994,143.594 114.106 C 143.301 114.219,143.060 114.694,143.060 115.163 C 143.060 115.968,142.749 116.174,141.726 116.041 C 141.195 115.972,141.173 116.754,141.650 118.683 C 142.039 120.253,142.155 138.606,141.794 141.497 C 141.589 143.142,141.639 143.334,142.314 143.510 C 142.871 143.656,143.060 143.988,143.060 144.818 C 143.060 145.429,143.266 146.009,143.517 146.105 C 143.769 146.202,144.007 146.717,144.048 147.251 C 144.201 149.283,144.812 149.870,146.508 149.616 C 147.778 149.425,148.043 149.484,148.043 149.960 C 148.043 150.798,383.746 150.827,384.854 149.989 C 385.234 149.701,385.818 149.466,386.151 149.466 C 386.484 149.466,386.849 149.226,386.961 148.932 C 387.074 148.639,387.412 148.399,387.711 148.399 C 388.011 148.399,388.256 148.143,388.256 147.831 C 388.256 147.520,388.577 147.181,388.968 147.078 C 389.362 146.975,389.680 146.593,389.680 146.222 C 389.680 145.853,389.920 145.552,390.214 145.552 C 390.620 145.552,390.759 145.065,390.796 143.505 C 390.908 138.877,390.916 113.907,390.807 114.235 C 390.600 114.855,389.737 114.619,389.502 113.879 C 389.378 113.488,389.046 113.167,388.766 113.167 C 388.486 113.167,388.256 112.927,388.256 112.633 C 388.256 112.340,388.016 112.100,387.722 112.100 C 387.429 112.100,387.189 111.940,387.189 111.744 C 387.189 111.548,386.960 111.388,386.680 111.388 C 386.401 111.388,385.892 111.108,385.549 110.765 C 384.960 110.176,378.998 110.131,273.869 109.926 C 212.787 109.808,162.132 109.591,161.301 109.444 C 159.355 109.102,159.696 108.543,161.854 108.535 C 162.772 108.532,163.763 108.375,164.057 108.185 C 164.592 107.839,162.239 107.812,156.317 108.093 M168.683 108.107 C 168.977 108.248,173.060 108.277,177.758 108.172 L 186.299 107.982 177.224 107.916 C 172.233 107.880,168.390 107.966,168.683 108.107 M196.366 108.093 C 197.597 108.163,199.519 108.162,200.637 108.092 C 201.754 108.021,200.747 107.964,198.399 107.965 C 196.050 107.966,195.135 108.023,196.366 108.093 M392.106 118.149 C 391.705 120.791,391.803 125.810,392.220 124.023 C 392.403 123.241,392.506 121.239,392.450 119.575 C 392.362 116.955,392.316 116.763,392.106 118.149 M391.981 139.071 C 392.036 141.476,392.181 143.545,392.304 143.668 C 392.626 143.990,392.527 138.190,392.178 136.299 C 391.968 135.158,391.911 135.954,391.981 139.071 M344.238 156.850 C 346.745 156.911,350.748 156.911,353.135 156.849 C 355.521 156.788,353.470 156.738,348.577 156.738 C 343.683 156.738,341.731 156.788,344.238 156.850 M327.359 158.304 C 328.130 158.831,327.479 159.431,326.136 159.431 C 325.148 159.431,324.911 159.569,324.911 160.142 C 324.911 160.534,324.689 160.854,324.419 160.854 C 324.148 160.854,323.843 161.174,323.740 161.566 C 323.638 161.957,323.299 162.278,322.987 162.278 C 322.675 162.278,322.420 162.536,322.420 162.853 C 322.420 163.269,322.182 163.383,321.560 163.264 C 320.771 163.113,320.728 163.173,321.041 163.995 C 321.487 165.170,321.201 165.836,320.251 165.836 C 319.524 165.836,319.498 165.936,319.779 167.705 C 319.942 168.732,320.094 207.424,320.117 253.687 C 320.156 331.173,320.205 337.827,320.741 338.128 C 321.062 338.307,321.428 339.010,321.556 339.689 C 321.683 340.369,321.930 340.925,322.104 340.925 C 322.278 340.925,322.420 341.406,322.420 341.993 C 322.420 342.580,322.233 343.060,322.005 343.060 C 321.776 343.060,321.703 343.174,321.842 343.313 C 321.981 343.452,322.728 343.520,323.503 343.464 C 324.334 343.404,324.911 343.519,324.911 343.745 C 324.911 343.956,325.225 344.128,325.609 344.128 C 325.993 344.128,326.602 344.445,326.962 344.832 C 328.001 345.947,384.258 346.130,384.418 345.018 C 384.482 344.566,384.844 344.261,385.409 344.183 C 385.899 344.115,386.427 343.835,386.584 343.560 C 386.740 343.285,387.090 343.060,387.360 343.060 C 387.631 343.060,387.954 342.740,388.078 342.349 C 388.203 341.957,388.614 341.637,388.992 341.637 C 389.519 341.637,389.680 341.387,389.680 340.569 C 389.680 339.726,389.835 339.502,390.419 339.502 C 391.125 339.502,391.148 339.372,390.936 336.566 C 390.813 334.951,390.634 295.698,390.537 249.337 C 390.384 176.145,390.293 164.975,389.842 164.525 C 389.206 163.889,389.171 163.094,389.769 162.889 C 390.013 162.806,389.840 162.800,389.385 162.877 C 388.639 163.003,388.567 162.900,388.672 161.847 L 388.789 160.676 387.277 160.789 C 386.411 160.854,385.765 160.747,385.765 160.538 C 385.765 160.338,385.205 160.069,384.520 159.941 C 383.834 159.812,383.274 159.493,383.274 159.232 C 383.274 158.841,378.574 158.727,356.851 158.590 C 342.318 158.498,329.626 158.321,328.648 158.196 C 327.490 158.048,327.040 158.086,327.359 158.304 M248.944 207.143 C 246.393 207.255,194.334 207.375,133.257 207.411 C 28.121 207.472,22.113 207.509,20.424 208.104 C 18.688 208.715,16.014 210.882,16.014 211.677 C 16.014 211.894,15.691 212.373,15.296 212.741 C 14.164 213.796,14.153 241.555,15.284 242.687 C 15.686 243.088,16.014 243.657,16.014 243.950 C 16.014 244.244,16.254 244.484,16.548 244.484 C 16.842 244.484,17.082 244.724,17.082 245.018 C 17.082 245.311,17.303 245.552,17.574 245.552 C 17.845 245.552,18.150 245.872,18.253 246.263 C 18.373 246.725,18.738 246.975,19.291 246.975 C 19.759 246.975,20.294 247.123,20.480 247.305 C 20.685 247.504,65.083 247.714,133.274 247.837 C 195.125 247.949,248.532 248.127,251.957 248.232 C 256.306 248.366,258.024 248.313,257.651 248.055 C 256.970 247.585,257.751 246.975,258.712 247.226 C 259.157 247.342,259.406 247.123,259.569 246.471 C 259.696 245.965,260.037 245.552,260.327 245.552 C 260.617 245.552,260.854 245.250,260.854 244.881 C 260.854 244.510,261.172 244.128,261.566 244.025 C 262.041 243.901,262.278 243.540,262.278 242.940 C 262.278 242.396,262.524 241.963,262.900 241.843 C 263.864 241.537,263.864 213.523,262.900 213.523 C 262.488 213.523,262.278 213.247,262.278 212.706 C 262.278 211.885,261.569 210.733,260.409 209.667 C 260.067 209.352,259.786 208.889,259.786 208.638 C 259.786 208.343,259.380 208.214,258.630 208.273 C 257.628 208.351,257.477 208.254,257.503 207.546 C 257.531 206.777,257.418 206.736,255.557 206.835 C 254.470 206.892,251.494 207.031,248.944 207.143 M246.085 249.495 C 244.326 249.708,244.333 249.711,246.708 249.766 C 249.053 249.821,249.741 249.685,248.488 249.415 C 248.145 249.341,247.064 249.377,246.085 249.495 M24.555 255.516 C 24.555 255.996,73.635 255.996,74.377 255.516 C 74.725 255.291,66.120 255.169,49.733 255.166 C 33.181 255.162,24.555 255.282,24.555 255.516 M22.823 257.310 C 21.576 257.479,20.282 257.865,19.948 258.168 C 19.613 258.471,19.071 258.719,18.744 258.719 C 18.417 258.719,18.149 258.879,18.149 259.075 C 18.149 259.270,17.989 259.431,17.794 259.431 C 17.256 259.431,16.014 260.784,16.014 261.370 C 16.014 261.654,15.734 262.043,15.391 262.235 C 14.425 262.776,14.425 340.019,15.391 340.726 C 15.734 340.977,16.014 341.347,16.014 341.549 C 16.014 341.751,16.254 342.009,16.548 342.122 C 16.842 342.234,17.082 342.572,17.082 342.871 C 17.082 343.171,17.322 343.416,17.616 343.416 C 17.909 343.416,18.149 343.577,18.149 343.772 C 18.149 343.968,18.470 344.128,18.861 344.128 C 19.253 344.128,19.573 344.337,19.573 344.593 C 19.573 345.757,25.024 345.961,51.246 345.778 C 81.689 345.566,78.921 345.660,79.367 344.825 C 79.669 344.261,79.869 344.213,80.578 344.537 C 82.006 345.187,83.274 343.979,82.834 342.388 C 82.565 341.410,82.607 341.106,83.049 340.859 C 83.353 340.689,83.708 339.979,83.839 339.281 C 84.056 338.126,84.170 338.025,85.099 338.161 L 86.121 338.311 86.121 301.601 L 86.121 264.892 85.104 265.041 C 84.157 265.180,84.072 265.092,83.857 263.751 C 83.730 262.959,83.407 262.184,83.138 262.028 C 82.365 261.579,82.013 259.431,82.712 259.431 C 83.174 259.431,83.148 259.304,82.562 258.719 C 81.765 257.922,81.189 257.744,81.804 258.485 C 82.022 258.747,82.095 259.068,81.966 259.196 C 81.475 259.688,80.719 259.390,79.629 258.274 L 78.498 257.117 51.794 257.060 C 37.106 257.028,24.069 257.141,22.823 257.310 M318.263 290.036 C 318.263 291.308,318.328 291.828,318.407 291.192 C 318.486 290.556,318.486 289.515,318.407 288.879 C 318.328 288.243,318.263 288.763,318.263 290.036 M392.295 305.338 C 392.295 307.002,392.356 307.682,392.431 306.851 C 392.506 306.019,392.506 304.657,392.431 303.826 C 392.356 302.994,392.295 303.674,392.295 305.338 M105.338 303.565 C 105.338 303.781,105.736 303.833,106.317 303.693 C 107.714 303.358,107.761 303.203,106.465 303.203 C 105.845 303.203,105.338 303.366,105.338 303.565 M104.093 303.915 C 103.972 304.110,102.761 304.270,101.402 304.270 C 99.121 304.270,98.932 304.328,98.932 305.027 C 98.932 305.677,98.783 305.753,97.865 305.569 C 96.906 305.378,96.797 305.447,96.797 306.248 C 96.797 306.738,96.557 307.232,96.263 307.345 C 95.970 307.457,95.730 307.773,95.730 308.045 C 95.730 308.318,95.409 308.541,95.018 308.541 C 94.458 308.541,94.306 308.778,94.306 309.650 C 94.306 310.640,94.211 310.741,93.420 310.590 C 92.561 310.426,92.542 310.464,92.797 311.883 C 92.942 312.687,93.049 319.230,93.035 326.423 C 93.011 338.844,93.043 339.502,93.658 339.502 C 94.141 339.502,94.306 339.774,94.306 340.569 C 94.306 341.291,94.483 341.637,94.851 341.637 C 95.151 341.637,95.503 341.917,95.634 342.260 C 95.953 343.091,97.191 344.102,97.910 344.116 C 98.229 344.123,98.676 344.353,98.904 344.627 C 99.713 345.603,103.725 345.649,200.712 345.801 C 302.687 345.961,305.225 345.931,306.265 344.539 C 306.800 343.823,307.878 344.266,307.614 345.093 C 307.471 345.542,307.665 345.456,308.272 344.800 C 308.746 344.289,309.359 343.796,309.634 343.704 C 309.973 343.591,310.099 343.116,310.022 342.231 C 309.961 341.513,310.064 340.925,310.253 340.925 C 310.442 340.925,310.704 340.356,310.834 339.661 C 310.965 338.966,311.303 338.308,311.585 338.199 C 312.354 337.904,312.356 312.532,311.588 312.237 C 311.306 312.129,310.965 311.535,310.829 310.918 C 310.694 310.301,310.330 309.612,310.021 309.386 C 309.546 309.039,309.528 308.824,309.903 308.000 C 310.454 306.791,310.254 306.577,308.700 306.710 C 307.996 306.771,307.473 306.653,307.473 306.433 C 307.473 306.222,307.166 306.050,306.791 306.050 C 306.416 306.050,306.042 305.850,305.961 305.605 C 305.843 305.251,285.554 305.114,206.910 304.933 C 152.513 304.808,107.607 304.628,107.117 304.533 C 106.628 304.439,105.778 304.341,105.228 304.316 C 104.661 304.290,104.324 304.116,104.448 303.915 C 104.569 303.719,104.588 303.559,104.490 303.559 C 104.393 303.559,104.213 303.719,104.093 303.915 M392.277 316.370 C 392.277 317.447,392.344 317.887,392.426 317.349 C 392.507 316.810,392.507 315.930,392.426 315.391 C 392.344 314.853,392.277 315.294,392.277 316.370 M392.281 326.512 C 392.283 327.687,392.350 328.124,392.429 327.485 C 392.508 326.845,392.506 325.884,392.425 325.349 C 392.344 324.815,392.279 325.338,392.281 326.512 M36.566 347.242 C 43.661 347.296,55.271 347.296,62.367 347.242 C 69.462 347.188,63.657 347.144,49.466 347.144 C 35.276 347.144,29.471 347.188,36.566 347.242 M152.580 347.242 C 179.835 347.292,224.435 347.292,251.690 347.242 C 278.946 347.192,256.646 347.151,202.135 347.151 C 147.625 347.151,125.325 347.192,152.580 347.242 M335.142 347.226 C 335.583 347.311,336.303 347.311,336.744 347.226 C 337.184 347.141,336.824 347.072,335.943 347.072 C 335.062 347.072,334.702 347.141,335.142 347.226 M339.947 347.220 C 340.289 347.310,340.850 347.310,341.192 347.220 C 341.535 347.131,341.254 347.058,340.569 347.058 C 339.884 347.058,339.604 347.131,339.947 347.220 " stroke="none" fill="#d40424" fill-rule="evenodd"></path></g></svg>
