<svg width="256" height="256" viewBox="0 0 256 256" fill="none" xmlns="http://www.w3.org/2000/svg">
<rect width="256" height="256" fill="#381FD1"/>
<path fill-rule="evenodd" clip-rule="evenodd" d="M124.16 191.881V172.633C137.333 173.779 150.338 169.035 159.678 159.676C174.558 144.795 177.079 121.567 165.738 103.841L103.839 165.735L90.0387 179.533C87.4543 177.624 85.0162 175.524 82.7447 173.251C57.7518 148.261 57.7518 107.741 82.7447 82.7484C95.6802 69.7852 113.56 63.0007 131.84 64.1194V83.3671C118.666 82.2209 105.662 86.9649 96.3211 96.3238C81.4415 111.205 78.9207 134.433 90.2619 152.159L152.161 90.2661L165.961 76.4675C168.546 78.377 170.984 80.4769 173.255 82.7496C198.248 107.74 198.248 148.26 173.255 173.253C160.32 186.215 142.439 193 124.16 191.881Z" fill="white"/>
</svg>
