<svg fill="none" height="227" viewBox="0 0 493 227" width="493" xmlns="http://www.w3.org/2000/svg" xmlns:xlink="http://www.w3.org/1999/xlink"><filter id="a" color-interpolation-filters="sRGB" filterUnits="userSpaceOnUse" height="15.1111" width="16" x="84" y="75"><feFlood flood-opacity="0" result="BackgroundImageFix"/><feColorMatrix in="SourceAlpha" type="matrix" values="0 0 0 0 0 0 0 0 0 0 0 0 0 0 0 0 0 0 127 0"/><feOffset/><feGaussianBlur stdDeviation="2"/><feColorMatrix type="matrix" values="0 0 0 0 0 0 0 0 0 0 0 0 0 0 0 0 0 0 1 0"/><feBlend in2="BackgroundImageFix" mode="normal" result="effect1_dropShadow"/><feBlend in="SourceGraphic" in2="effect1_dropShadow" mode="normal" result="shape"/></filter><filter id="b" color-interpolation-filters="sRGB" filterUnits="userSpaceOnUse" height="16" width="16" x="211" y="113"><feFlood flood-opacity="0" result="BackgroundImageFix"/><feColorMatrix in="SourceAlpha" type="matrix" values="0 0 0 0 0 0 0 0 0 0 0 0 0 0 0 0 0 0 127 0"/><feOffset/><feGaussianBlur stdDeviation="2"/><feColorMatrix type="matrix" values="0 0 0 0 0 0 0 0 0 0 0 0 0 0 0 0 0 0 1 0"/><feBlend in2="BackgroundImageFix" mode="normal" result="effect1_dropShadow"/><feBlend in="SourceGraphic" in2="effect1_dropShadow" mode="normal" result="shape"/></filter><filter id="c" color-interpolation-filters="sRGB" filterUnits="userSpaceOnUse" height="16" width="16" x="70" y="66"><feFlood flood-opacity="0" result="BackgroundImageFix"/><feColorMatrix in="SourceAlpha" type="matrix" values="0 0 0 0 0 0 0 0 0 0 0 0 0 0 0 0 0 0 127 0"/><feOffset/><feGaussianBlur stdDeviation="2"/><feColorMatrix type="matrix" values="0 0 0 0 0 0 0 0 0 0 0 0 0 0 0 0 0 0 1 0"/><feBlend in2="BackgroundImageFix" mode="normal" result="effect1_dropShadow"/><feBlend in="SourceGraphic" in2="effect1_dropShadow" mode="normal" result="shape"/></filter><filter id="d" color-interpolation-filters="sRGB" filterUnits="userSpaceOnUse" height="17" width="17" x="98" y="55"><feFlood flood-opacity="0" result="BackgroundImageFix"/><feColorMatrix in="SourceAlpha" type="matrix" values="0 0 0 0 0 0 0 0 0 0 0 0 0 0 0 0 0 0 127 0"/><feOffset/><feGaussianBlur stdDeviation="2"/><feColorMatrix type="matrix" values="0 0 0 0 0 0 0 0 0 0 0 0 0 0 0 0 0 0 1 0"/><feBlend in2="BackgroundImageFix" mode="normal" result="effect1_dropShadow"/><feBlend in="SourceGraphic" in2="effect1_dropShadow" mode="normal" result="shape"/></filter><filter id="e" color-interpolation-filters="sRGB" filterUnits="userSpaceOnUse" height="16" width="16" x="88" y="64"><feFlood flood-opacity="0" result="BackgroundImageFix"/><feColorMatrix in="SourceAlpha" type="matrix" values="0 0 0 0 0 0 0 0 0 0 0 0 0 0 0 0 0 0 127 0"/><feOffset/><feGaussianBlur stdDeviation="2"/><feColorMatrix type="matrix" values="0 0 0 0 0 0 0 0 0 0 0 0 0 0 0 0 0 0 1 0"/><feBlend in2="BackgroundImageFix" mode="normal" result="effect1_dropShadow"/><feBlend in="SourceGraphic" in2="effect1_dropShadow" mode="normal" result="shape"/></filter><filter id="f" color-interpolation-filters="sRGB" filterUnits="userSpaceOnUse" height="15.1111" width="16" x="19" y="51"><feFlood flood-opacity="0" result="BackgroundImageFix"/><feColorMatrix in="SourceAlpha" type="matrix" values="0 0 0 0 0 0 0 0 0 0 0 0 0 0 0 0 0 0 127 0"/><feOffset/><feGaussianBlur stdDeviation="2"/><feColorMatrix type="matrix" values="0 0 0 0 0 0 0 0 0 0 0 0 0 0 0 0 0 0 1 0"/><feBlend in2="BackgroundImageFix" mode="normal" result="effect1_dropShadow"/><feBlend in="SourceGraphic" in2="effect1_dropShadow" mode="normal" result="shape"/></filter><g fill="#32383f"><path d="m90.1738 56.1309c3.8831-.8332 3.5166-5.6625 7.1536-6.7271-4.5065.2469-6.1035 3.2298-7.1536 6.7271z"/><path d="m143.01 15.4136c-.306.0822-.782.0102-.793.3701.312-.0823.788-.0051.793-.3701z"/><path d="m278.085 129.356c-3.325-.515-4.43 1.069-3.97 4.114 2.887 1.419 4.594-2.237 3.97-4.114z"/><path d="m285.633 91.2479c-1.236-4.5669-4.452-7.2669-7.154-10.4554-.662 0-1.323 0-1.98 0 .421 5.0965 6.383 8.1771 6.749 14.5697 3.462 4.2171 6.186 9.1238 11.518 11.5818-.634-2.515-1.334-4.968-3.178-6.352 1.242-3.3527-4.331-6.243-5.955-9.3441z"/><path d="m109.644 52.7718c-1.531.0514-3.489-.2933-3.971.746 1.1.3705 3.938.921 3.971-.746z"/><path d="m278.479 149.156c.104 1.111-1.11 2.273.394 2.613.344-.314 1.088-2.917-.394-2.613z"/><path d="m318.606 15.4139c1.804.1954 2.592-.5503 2.39-2.2475-1.827-1.1417-2.937-2.9624-4.769-4.10927-.011 3.08067 4.692 3.27097 2.379 6.35677z"/><path d="m314.635 50.1542c-.082 1.4449.629 2.1441 1.985 2.2418.804-.9461-.087-2.6839-1.985-2.2418z"/><path d="m308.28 57.6278c-2.795-1.3937-5.589-2.9572-7.553-5.976.673-.9875 1.761-1.5892 3.577-1.4966.284-1.1417-.405-1.3577-.399-2.2423-4.682-.4165-7.236 1.1674-8.745 3.7389 1.427 3.2657 4.484 4.9988 6.355 7.848-.777.6326-1.067 1.7383-1.193 2.988 1.647 1.8154 5.382 3.9292 8.346 2.2423 1.171-2.7154-2.215-3.7234-2.384-6.3514.755-.1698 2.401.504 1.996-.7509z"/><path d="m338.863 48.2884c.066.4423-.071 1.0595.399 1.1213.022-.2263.06-.4424.399-.3704-.043-.4629-.12-.8898-.798-.7509z"/><path d="m385.345 33.7188c.99 2.4787-.935 3.9598-1.986 5.6054 1.619-.3548 2.128-1.7382 3.577-2.2422.033-1.6507.077-3.3118-1.591-3.3632z"/><path d="m360.318 4.20703c-1.012.16457-1.826.52456-2.384 1.12111 1.208.01543 2.023-.34456 2.384-1.12111z"/><path d="m102.889 55.0107c-1.93.4269-4.3695.3703-5.5617 1.4915 1.936.9361 4.5777-.3188 5.5617-1.4915z"/><path d="m271.331 142.059c-.946-.977-.448-3.317-1.591-4.109-.99 1.492.273 3.59 1.591 4.109z"/><path d="m267.36 57.2509c.958-.1491.865.6841 1.986.3755 5.113-4.3716 10.998 2.16 17.479-.3755-.137-4.7264-6.415-3.6824-8.346-6.7219.372-.8949 1.592-.9874 1.187-2.6178-2.117-.2468-3.396.2932-4.364 1.1212-.301 1.2755 1.613.4732 1.192 1.8669-.974.3343-1.728.8692-3.183.7458-1.789-1.0595-2.117-3.487-5.562-2.9881-2.822 2.7104-3.489 7.6116-3.572 10.0854 1.953.3446 1.515-1.5583 3.183-1.4915z"/><path d="m241.929 35.585c2.932-2.1549 6.284.0205 8.74-1.8721-.088-1.9439.202-3.5434 1.586-4.1091 1.548-.288 2.062 1.3834 3.177.3754.651-2.5817-2.773-.7611-3.177-1.4965 1.115-2.5612 6.152-1.44 9.139-2.2423-3.047-2.7-12.136 3.2297-11.124-4.8549.793-1.8668 3.921-1.5428 4.369-3.7337-.678-1.224-2.237-.504-3.576-.3754-.274 3.852-6.257 2.34-5.962 6.7217.334 1.1829 2.046 1.0646 2.385 2.2423-.536 1.3628-2.363 1.5171-3.178 2.6177-.29 1.1417.684 1.0954.399 2.2423-2.942 1.2188-5.337 2.9468-9.532 2.988.848 2.3348 4.846-.144 6.754 1.4966z"/><path d="m276.499 74.8105c1.05-2.6898 3.435-6.1459 1.586-9.3397-2.275-.2777-2.926.9823-4.769 1.1212-.897-.4012-1.744-.8486-2.379-1.4967-1.564-.0925-1.476 1.3527-3.183 1.1212-5.37.0669-5.245-5.0299-7.547-7.8431-1.263-1.0389-2.051 1.5378-3.971 1.1212-.393 2.3606 2.653 1.4863 2.385 3.7338-1.488.2212-1.597 1.7384-2.778 2.2424-.4 0-.799 0-1.193 0-1.17-3.3739-4.812-4.4436-4.769-8.9643-4.408-1.2241-7.356-5.7551-11.517-5.9762.913 4.999 6.688 5.4156 9.532 8.594-1.055.0051-2.341-.2109-2.384.7457 1.46.8126.388 3.2247-1.586 2.9881-.011-.8794.683-1.1006.393-2.2423-3.598-3.2144-8.799-4.9271-11.917-8.594-2.674 1.7023-4.709 3.1629-8.739 1.8669-.75 4.3047-7.34 4.1555-6.355 8.9643-1.898 2.3246-6.651 1.9595-9.139 3.739 1.252 1.8772 4.463 1.3886 5.961 1.116 3.292-.5914 4.813-3.055 8.74-2.9881 4.189.072 7.574-.1389 11.922-.3754 1.564 1.8617 1.028 4.1761 0 5.9762 6.18 1.2806 10.167 4.6287 16.287 5.9762.695-.8383.186-2.8081.793-3.7339 5.825-2.088 10.583 2.7053 16.287 2.6127 1.225-.0206 2.067-1.0389 3.183-1.1212 2.007-.1389 3.095 1.5378 5.157.756zm-42.91-19.8006c.339 1.1931-.623 1.1571-.793 1.8669-.7-.0926-.902-.6429-.798-1.4966.355-.2881.902-.396 1.591-.3703zm-1.985 6.3516c-.875-1.3886-.629-4.4333 1.985-3.739.689 1.5069.651 4.2584-1.985 3.739zm11.523 3.739c-2.045.0566-3.188-.7406-4.37-1.4966.367-1.3989 3.189-.4886 4.769-.7458.285 1.1418-.689 1.1006-.399 2.2424zm29.796 3.3584c.043-.9515 1.329-.7406 2.384-.7458.339 1.4144-1.783 1.3218-2.384.7458z"/><path d="m75.8779 16.9062c-.1914-2.5664-6.2567-1.6612-5.9559.7457 2.4556.2006 3.2705-1.152 5.9559-.7457z"/><path d="m71.1087 24.3794c2.122-.1235 4.0744-.4115 5.1628-1.4969-1.7282-1.4764-3.8065.4629-5.1628 1.4969z"/><path d="m100.505 53.8945c1.17-1.1417 1.384-3.1835 4.375-2.6178 0-.4989 0-.9977 0-1.4915-1.64.1132-3.248-1.0183-5.168-.3754.0711.8795-1.2524 3.955.793 4.4847z"/><path d="m99.3181 47.5423c-.3445-5.4313-7.8754-1.6716-9.9318 0 3.3142-.9824 6.3769 1.6149 9.9318 0z"/><path d="m85.8096 36.3306c-2.0454-.5812-2.39 1.6768-1.5915 2.6181 1.4438-.0103 1.7446-1.1007 1.5915-2.6181z"/><path d="m103.688 111.793c-.115.853.093 1.404.793 1.496.623-.55.437-1.666-.793-1.496z"/><path d="m93.3569 13.1675c-2.3298-.1388-5.4308-1.2497-7.1535-.7457v1.1211c1.8977.1286 6.1527.4423 7.1535-.3754z"/><path d="m394.877 114.786c5.436 2.736 4.189 11.752 11.518 12.703.093-2.577-1.892-3.199-1.187-6.357-3.932-3.615-11.151-7.899-6.754-14.94 3.391 2.289 6.929 4.439 9.133 7.843 2.412-1.599 4.682-3.317 7.154-4.86 1.143-8.301-6.629-8.213-8.352-13.8241 1.641-1.4452 2.352-3.7647 5.967-3.3635.356.6583.957 1.0903 1.187 1.8669-.744 1.0748-2.423 1.8617-1.586 3.3583 1.515.8023 2.718.0823 3.577-.7457.426-2.0212-1.078-2.2218-.793-4.1092 8.521-2.0675 16.5-4.6544 16.287-14.9454-1.685-1.2137-1.45-1.9183-1.986-4.1092-2.368-1.512-4.129-3.5949-5.961-5.6058-.027-2.0057 3.785-2.0108 2.778-3.7337-4.101-.2623-6.18.3754-8.734-2.2423 2.04-.6943 2.27-3.0909 4.764-3.3635 1.597-.0052-.011 2.9932 1.586 2.988 1.668-2.2629 6.732-1.8103 6.355 1.8669 3.861-.0206 4.381 3.1012 5.163 5.9761 2.608.2109 4.359-.3857 4.769-2.2423-.957-3.4561-4.452-4.5309-6.755-6.727 2.779-1.3577.646-5.076 3.982-5.976.82.2159 1.127.9257 2.379.7508 2.472-1.7846 4.348-6.6549 3.577-10.4607-.449-2.2217-3.287-3.1372-2.779-5.2304 3.369.8486 4.179 5.9864 7.148 5.9761-.289-1.1417.405-1.3577.394-2.2423-2.362-2.6332-5.77-4.284-7.941-7.0972-1.187.0051-1.356.972-2.384 1.116-2.494-2.8955-8.198-.684-11.124-3.3635 1.52-1.6869 1.859-4.4743 3.177-6.3515 6.372-.9103 11.414.0874 17.08 0 1.056-1.1006-1.477-1.0955-.793-2.988 1.444-3.1115 4.769-.3446 6.754.3703 1.231-.2109.963-1.8361 1.586-2.6178.985.4474 1.554 1.2806 1.991 2.2423-1.138 1.5429-1.028 4.2635-2.384 5.6007 2.417 5.0709 7.306 7.8224 12.316 10.4607.908-1.7486-1.149-4.9218.399-6.3515-1.723-.4423-.519-1.6921-1.192-2.6178-1.493-2.0572-5.786-1.692-5.562-5.2304 2.92-.4834 5.108-1.4914 8.346-.7457 1.657-1.6869 3.308-4.4897 6.754-3.3634.142-2.8801-4.446-1.3012-4.769-3.739 3.084-3.1526 7.241 1.0595 11.518.3755-.175-3.6412-4.802-4.4178-8.341-3.7338-7.662-3.3892-18.463-3.0806-26.213-4.8601-.64.2778.082 1.8309-1.198 1.4966-3.686-1.66113-7.596-.2725-13.508-.7508-4.403-4.28924-15.543-.0206-20.258-4.10409-3.839 0-7.678 0-11.517 0-.979.324-.892 1.65088-2.385 1.49145-2.991-.58629-5.896-.468-7.946.74573-2.369-.76116-3.479-2.70518-5.562-3.73377-7.903-.62229-13.772 1.86689-20.657 0-1.739-.468-2.188-2.42232-3.178-2.98804-2.16-1.23945-5.348-.68915-9.133-1.12115-1.148-.12858-1.695-1.00802-2.784-1.1211647-3.741-.3960053-6.131 1.3628747-8.34 1.8668747-3.566-1.069726-11.326.5143-12.316 2.98805-1.882-.14914-3.315.11828-4.764.37028-.071.56058.137 1.37831-.399 1.4966-2.964.63258-5.343.18-7.947 1.86688-2.324-6.82466-11.37 1.65605-3.183 3.73895-3.576-.7458-7.027-1.6098-11.124-1.8669-.514.9257 1.165 1.548 0 1.8669-6.902-.5246-12.141.108-17.873 2.6126-1.208-.5143 1.165-2.2526-.798-2.2423-.531 0-1.061 0-1.592 0-1.4.9565 1.149 2.3657 0 2.988-2.937-.2726-4.659.6017-5.162 2.6177-1.308-.0154-1.975-.6325-3.583-.3754-.53 1.0543 2.106.936.799 1.4966-2.647 0-3.768-1.44-4.37-3.3583 3.128-.3395 7.219 1.5891 8.346-1.1212-3.079-4.4743-13.345-2.376-16.293-5.98121-7.602-.56058-12.83 1.73321-19.464 2.98801-.197 3.1321-4.342 4.891-5.956 7.8481-3.697.0103-5.305 1.9904-7.946 2.9881-1.072 6.6395 4.348 7.2772 8.345 4.4795 1.078 1.3525 2.516 2.3709 2.779 4.4846-.859.3137-1.351.9669-2.779.7457-.005-.9926.148-2.1343-.399-2.6126-1.881-.0257-2.827.828-3.577 1.8669.252 1.3834 1.078 2.2217.793 4.1092-1.449.252-2.882.5194-4.763.3703-2.833 3.0343-6.486 6.9687-11.523 6.7269-.471.5555-.345 1.6663-1.592 1.4915-1.723.2931-2.877-1.044-3.177.7457 2.761.8589 7.17 4.9886 3.571 8.2184-4.381.6532-9.374-1.5789-11.917.7457.558 4.9167-1.925 6.4595-.399 10.4607 2.734-.3291 4.599.1543 4.769 2.2424-1.428 4.392-8.111 3.8366-7.553 10.0852-5.972 3.7235-10.473 8.8305-13.903 14.9403 3.971 4.5257-1.241 9.8847 0 16.0667 2.62 2.268 6.17 3.667 6.755 7.848 3.937 1.399 5.726 5.729 9.932 5.976 3.237.185 6.644-2.824 10.73-.751 3.123-1.543 6.256-3.075 11.518-2.613 1.083.972 1.126 2.922 2.783 3.364 1.887.273 2.73-.422 4.37-.37 5.059 2.293.028 6.871.793 10.46.334 1.554 3.074 3.055 4.37 4.855 2.893 4.007 3.074 8.162 4.37 12.703-1.542 3.528-4.9 6.594-3.971 11.207.531 2.607 3.79 5.091 4.764 8.218.88 2.798.399 6.084 1.591 8.594 1.302 2.736 4.698 5.138 5.163 8.218-1.039 1.914.131 3.801 1.586 4.485 13.29-.576 22.735-4.773 24.633-16.061 4.922-.257 6.333-5.298 3.97-9.34 2.653-3.857 8.291-4.906 11.124-8.594.979-7.519-2.318-11.021-2.778-17.182 4.868-11.988 21.483-14.915 21.45-30.266-4.512.57-14.542 4.957-13.908-1.492 6.218-.674 13.536-3.435 17.884-7.097 6.054-.9001 8.138-5.5441 10.725-9.7151-1.805-2.7926-6.399-2.952-7.553-6.3463-1.466 1.8566-3.232 3.4354-7.154 2.988-.563-4.9526-7.016-4.356-7.153-9.715.53-.3806 1.466-.3651 1.991-.7457 3.44 2.7052 6.798 8.3264 13.503 5.6006 2.133 5.0144 11.102 2.7772 17.479 2.9881 1.537 1.9234 3.527 3.4097 5.956 4.4846-.979 1.9389 1.525 2.7669 2.783 3.7389 1.554.0977 1.477-1.3526 3.172-1.1211.367 6.2589 3.758 9.669 5.169 14.945 2.969 1.564 2.346 6.511 5.562 7.848 4.473-2.124 5.02-6.619 4.369-12.332 4.053-2.412 6.104-6.7118 10.731-8.5941.005-.9926-.219-2.2012.793-2.2424 3.052.1286 5.152-.6325 7.153-1.4966 1.537 4.4075 7.001 5.1224 6.755 11.2121 2.105 1.044 2.855-1.245 4.769-1.497 2.209 3.867 4.364 8.743 3.188 14.611zm-127.123-66.1278c3.446-.4988 3.768 1.9338 5.562 2.9881 1.455.1234 2.21-.4166 3.183-.7458.421-1.3937-1.493-.5914-1.192-1.8668.968-.8332 2.248-1.3681 4.364-1.1212.405 1.6303-.82 1.7177-1.186 2.6178 1.93 3.0394 8.209 1.9954 8.345 6.7218-6.486 2.5303-12.371-3.9961-17.479.3754-1.121.3086-1.028-.5246-1.985-.3754-1.668-.0669-1.231 1.836-3.178 1.4965.077-2.4788.744-7.38 3.566-10.0904zm-23.041-17.5579c.29-1.1418-.684-1.1006-.399-2.2423.815-1.1006 2.641-1.2498 3.177-2.6178-.339-1.1777-2.051-1.0646-2.384-2.2423-.295-4.3869 5.688-2.8698 5.961-6.7218 1.335-.1286 2.893-.8486 3.577.3754-.449 2.1909-3.577 1.8669-4.37 3.7338-1.012 8.0898 8.078 2.1549 11.124 4.8549-2.986.7972-8.023-.3188-9.139 2.2423.411.7303 3.829-1.0903 3.178 1.4966-1.121 1.008-1.63-.6634-3.178-.3754-1.383.5657-1.673 2.1652-1.586 4.1092-2.455 1.8926-5.813-.2829-8.739 1.872-1.909-1.6457-5.912.8332-6.749-1.4914 4.189-.0412 6.585-1.7692 9.527-2.9932zm25.027 106.8447c1.143.792.645 3.132 1.591 4.109-1.318-.514-2.581-2.613-1.591-4.109zm-1.587-62.7596c-5.698.0875-10.456-4.7006-16.286-2.6126-.607.9258-.099 2.8955-.793 3.7338-6.12-1.3474-10.107-4.6955-16.287-5.9761 1.028-1.8 1.564-4.1143 0-5.9761-4.348.2366-7.728.4423-11.923.3755-3.927-.0669-5.442 2.3966-8.739 2.988-1.493.2674-4.709.7612-5.962-1.116 2.483-1.7795 7.241-1.4143 9.139-3.7389-.984-4.8138 5.606-4.6595 6.355-8.9641 4.031 1.296 6.065-.1646 8.74-1.8669 3.123 3.6669 8.318 5.3795 11.917 8.5938.284 1.1418-.405 1.3578-.394 2.2423 1.974.2315 3.046-2.1806 1.586-2.988.044-.9566 1.329-.7406 2.385-.7457-2.844-3.1784-8.62-3.5949-9.533-8.5939 4.162.2212 7.11 4.7521 11.518 5.9761-.038 4.5207 3.599 5.5904 4.769 8.9642h1.192c1.181-.5041 1.291-2.0212 2.778-2.2424.268-2.2474-2.778-1.3731-2.384-3.7337 1.92.4165 2.713-2.1601 3.97-1.1212 2.303 2.8132 2.177 7.915 7.548 7.843 1.706.2314 1.619-1.2138 3.183-1.1212.634.648 1.482 1.0955 2.379 1.4966 1.843-.1389 2.488-1.3989 4.769-1.1211 1.848 3.1937-.536 6.6497-1.586 9.3395-2.062.7817-3.15-.8949-5.168-.7509-1.105.0772-1.953 1.0955-3.173 1.116zm5.956 58.2796c-.454-3.045.646-4.629 3.971-4.114.629 1.882-1.078 5.539-3.971 4.114zm4.769 18.304c-1.504-.34-.29-1.502-.393-2.613 1.476-.303.732 2.299.393 2.613zm4.37-56.413c-.366-6.3875-6.328-9.4733-6.749-14.5699h1.98c2.702 3.1886 5.918 5.8938 7.154 10.4556 1.624 3.1011 7.197 5.9915 5.955 9.3393 1.843 1.384 2.544 3.837 3.178 6.352-5.332-2.453-8.056-7.3547-11.518-11.577zm25.426-30.6313c-2.964 1.6869-6.694-.4268-8.346-2.2423.126-1.2497.416-2.3554 1.192-2.988-1.87-2.8492-4.927-4.5772-6.355-7.8481 1.504-2.5715 4.058-4.1555 8.745-3.7389-.011.8846.684 1.1005.399 2.2423-1.815-.0926-2.904.504-3.576 1.4966 1.958 3.0189 4.758 4.5823 7.552 5.9761.405 1.2548-1.236.5811-1.985.7457.159 2.6332 3.544 3.6412 2.374 6.3566zm7.946-12.3276c-1.356-.0925-2.067-.7971-1.985-2.2423 1.898-.4423 2.789 1.296 1.985 2.2423zm1.986-36.9828c2.313-3.0857-2.39-3.276-2.379-6.35661 1.832 1.14691 2.942 2.96751 4.769 4.10921.202 1.6972-.586 2.4429-2.39 2.2474zm20.656 33.9897c-.465-.0566-.333-.6789-.399-1.1212.678-.1337.755.2931.793.7509-.334-.0669-.372.1491-.394.3703zm18.672-44.08008c.557-.59658 1.372-.95144 2.384-1.12116-.361.78173-1.176 1.14174-2.384 1.12116zm29.002 31.75248c-1.449.5091-1.963 1.8926-3.577 2.2423 1.05-1.6458 2.981-3.1269 1.986-5.6058 1.668.0566 1.624 1.7177 1.591 3.3635z"/><path d="m169.628 138.319c-6.486-1.229-8.072-5.477-16.287-4.484-1.629-4.392-8.323-1.903-10.331-5.606.886-1.959-2.286-3.322-1.985-5.981-2.362-3.749-7.29-2.16-10.725-3.359-2.882-1.002-3.079-4.736-6.355-4.86-.383-1.008-.64-2.139-1.192-2.988-1.373 1.883-1.832-.833-3.97-.375-3.823 1.702-7.777-.021-11.125-1.867-1.558-.093-1.476 1.353-3.177 1.121-.159-1.136 1.045-1.903-.399-2.247-1.357 1.589-3.747 2.211-6.3554 2.617-1.329 1.245-1.3125 3.75-3.5767 4.11-1.9634-1.872-5.4199-1.631-7.9466-.371-1.947-.787-3.1502-2.268-3.9705-4.109.5742-2.33 1.2688-4.536 1.586-7.102-1.8321-2.402-5.9339-.381-9.1388-1.492 1.0884-3.0854 3.1885-5.2198 3.5768-8.9638-1.1704-1.44-3.5494-.3034-5.1683 0-1.1868 3.492-4.1455 5.3178-9.5326 4.8549-5.9503-3.4406-2.1165-10.2601-.793-15.6911 3.5549-2.4994 7.9138-5.436 13.5031-2.988 3.0135-3.06 10.2545-2.2423 12.7156 0 .175 1.2857-.1586 2.0932-.3992 2.988 1.1649.8949 2.6962 1.4504 4.769 1.4966-.0766-2.6691-.8696-4.6646-.793-7.4726 3.1666-3.8727 8.5156-5.6881 13.1096-8.2184 0-1.3681 0-2.7412 0-4.1093h1.985c2.051-3.5486 5.885-5.4257 10.725-6.3463.022-5.0864 6.152-4.4229 9.932-5.9761-.432.7611-1.909 1.5275-.793 2.6126 3.024-2.3863 9.412-1.6097 11.124-5.2304-2.166-.5503-4.873 2.6075-6.755 0-.503-2.4634 1.63-2.4531 1.986-4.1092-.99-1.2754-2.489.1492-3.577-.7457 1.509-3.456 5.546-.216 7.153.7457 1.433-.9257-1.799-1.4605-.798-1.8668 4.217.4165 7.219-1.7898 10.331-1.8721-1.324 2.1652-5.283 3.6927-5.168 5.9761 3.888-.2931 6.278.8178 9.139 1.4966.667-1.2909-.323-2.4737 0-4.4795-.536-.7406-2.773.1183-2.784-1.116.629-2.0263 2.187-3.1732 2.384-5.6058-1.192-1.62-2.69-2.952-4.769-3.7338-.754-2.4017-.038-6.1869-1.985-7.4675-2.549.468-3.013 2.8955-5.961 2.988-.684-.4782-1.559-.7714-1.592-1.8668-.191-1.1778 1.22-.8486.793-2.2372-1.684-.4114-2.433-1.6972-3.577-2.6178-1.968.9155-4.063-.108-6.355 0-4.944 3.5435-1.082 13.8808-11.523 12.7031-1.088 2.2114-.984 5.5492-4.37 5.6006-2.346-2.2114.06-3.9806.799-6.3515-5.776.4526-6.853-3.5229-12.3165-3.3583.6125-2.1446-.1313-1.8669-.793-3.3635 4.4355-5.0452 12.8795-6.3207 19.8635-8.9693-.29 1.0698-2.68 1.404-1.591 2.6178 2.537.3445 5.474-1.152 7.946-.3754.323-2.5509-4.113-2.5972-3.577-4.1093 4.042 1.4606 8.166-2.2011 9.932-5.2355 2.078.0875 3.971-.0051 5.562-.3702 1.335 1.1057 2.505 2.3708 3.971 3.3583-1.942 3.276-8.231 2.4737-11.124 4.8601 1.498 1.044 3.172-.3292 5.163 0 2.039 2.1908 4.413 4.068 8.739 4.1092.662-1.1726-1.477-1.5275-.394-1.8669 2.139.7714 3.719.7354 4.37-1.4966.077-1.5635-1.952-1.152-1.591-2.9881 1.985-1.404 2.286 1.4298 3.97 1.4915 1.821-.6532 3.9-1.0697 4.375-2.9881-1.093-1.584-4.205-1.2805-5.162-2.988-.323-1.296.59-1.4349.393-2.61261-2.537-1.22401-6.229-1.36287-7.148-4.1092-7.892.22115-18.245-1.81031-18.671 4.48464.366.89997 2.888-.22629 2.384 1.49657-1.241 1.4452-3.106 2.3092-5.168 2.9881-1.006-.9155.837-.7972.399-2.2424-.907-.5194-2.477-.4062-2.384-1.872.416-.8537.251-2.25258.793-2.98802 1.848-.87944 5.54-.02057 5.961-2.24232-3.856-2.26289-6.333 1.57373-9.133 2.61261.18-1.07488 1.405-1.17259 1.192-2.61261-2.789-.56572-6.3 1.17258-7.946 1.86688.689 1.8206 2.898 1.6406 4.369 1.86689-1.148.90001-1.394 2.05717-.793 3.73887-.765.5246-1.602.9875-2.783 1.1212-.345-1.4452 1.739-.6069 1.192-2.2423-2.467-1.31661-4.436.7148-5.163 2.2423-3.008-.288-7.5692.8949-8.3458-1.4966 3.3528.8589 5.6438-.0514 7.9468-1.1212.273-1.50169-1.674-.9154-1.586-2.24227.262-1.86174 2.647-1.74345 3.172-3.36348-2.106-1.2343-4.272 1.72288-6.355 1.86688-2.0894.14915-6.2186-2.38117-7.1538-2.6126-6.3605-1.59945-11.9553-.02572-14.7008 3.73376 1.2852 1.80521 4.8182-1.32173 6.7543 0-.5797 1.32688-.8751 2.91091-1.9853 3.73891-3.5658-1.3783-9.6693-.3754-12.7155-2.24231-3.5877 1.21891-9.7623 1.28061-14.7009 2.24231-12.6335-4.1812-28.7016-3.57433-40.5202.7457-.1368 1.0286 1.1375 2.6229 0 3.3635-3.3088-.5246-8.32395-.6891-9.53262 1.8669.89693 2.1086 4.36982-.4269 5.56202 1.4966-3.99239 1.4554-10.0904.9463-12.6882 3.7337 6.40427 4.3355 18.2612 4.7881 25.0264 1.4966 2.6799 2.2115 9.6474.3909 9.9318 4.855-1.5094 1.0183.1586 2.8183-1.1922 4.1092.9461 1.1828 2.8767-.8846 3.1775.7508-1.4548 1.9955 0 6.727-2.3845 7.8481.5524 1.0955 1.9415 1.4092 1.9853 2.9881-3.2705 7.4367-12.6883 10.9081-9.5326 23.1586 5.5237.5349 3.708 7.9715 6.3496 11.2116.0656 1.0543-1.1923.8691-1.1868 1.8669.5633 1.2137 2.286 1.3371 3.1775 2.2423-.4485 3.1012 2.04 5.2098 3.9705 4.8549-1.7337-4.3458-3.4947-8.6658-5.1682-13.0733.618-.4166.8313-1.2086 1.9907-1.116 1.4985.7766 1.0173 1.9748.793 3.7337 2.8385 4.8035 6.902 8.4499 9.1334 13.8242-.0219 1.2292-1.1267 1.4298-.7931 2.9881 4.8292 3.3069 10.9054 8.1416 18.6714 6.3516 2.3681.535 2.6799 3.014 5.1628 4.109 3.6916 1.625 9.456.561 9.1388 6.352 3.2104 1.712 5.7808 4.032 9.5326 5.235.5742-1.327.6016-3.173 2.7783-2.988 1.8977 2.078 2.7947 5.092 2.3845 9.34-2.2916 2.952-6.0324 4.541-6.3551 9.339-.2133 1.322 1.4056.921 1.1923 2.237-.3993 1.245-2.1986 1.173-1.9853 2.988 3.8612 5.704 8.2309 10.939 11.1241 17.558 4.0803 3.708 8.7503 2.176 11.1243 6.727 2.844 5.442-.367 14.154 1.591 21.662.821 3.153 1.865 8.064.399 11.582 2.62 2.027.837 8.177 3.976 9.71.23-.653-.481-2.196.394-2.237.575.828.996 1.8.793 3.358-.06.689-1.345.232-1.586.746.635 1.527.744 1.846.399 3.739.312.823 1.865.483 1.986 1.491-.405.489-.389 1.379-.799 1.867 1.045 2.135 3.194 3.225 3.976 5.606 1.904.699 3.276 1.898 4.37 3.363 3.79.597 9.691 5.293 13.109 1.497-3.297-2.006-7.394-3.261-8.739-7.102 1.449-1.255 1.739-3.595 2.778-5.231-.891-1.28-3.741-.715-3.97-2.617 1.744-1.476 2.253-4.11 3.177-6.347-1.4-.18-2.51-.632-2.778-1.867 1.351-.108 3.221.288 3.97-.375.082-1.168-.262-2.746.4-3.364 8.066 1.147 7.678-5.641 4.369-7.843 1.909.072 2.91.998 5.163.746 2.948-.72 2.335-4.006 3.971-6.727 1.837-3.05 6.169-4.52 3.976-9.71 2.406-2.597 5.846-4.217 10.725-4.484 3.215-3.986 5.343-9.571 4.375-16.437 2.428-4.474 9.953-8.573 5.556-14.951zm-59.984-85.5471c-.033 1.6663-2.872 1.1212-3.971.7458.481-1.0389 2.439-.6943 3.971-.7458zm33.366-37.3582c-.01.3651-.481.288-.793.3703.011-.36.487-.288.793-.3703zm-52.8361 40.7166c1.05-3.4972 2.6415-6.4801 7.1535-6.727-3.6369 1.0646-3.265 5.8989-7.1535 6.727zm7.1535.3754c1.1868-1.1263 3.6316-1.0697 5.5616-1.4915-.984 1.1675-3.6256 2.4224-5.5616 1.4915zm2.3845-7.1024c1.9201-.6377 3.5271.4937 5.1681.3754v1.4915c-2.991-.5657-3.205 1.476-4.375 2.6177-2.0455-.5245-.722-3.6-.7931-4.4846zm-.3938-1.8617c-3.5549 1.62-6.6175-.9772-9.9318 0 2.0564-1.6715 9.5873-5.4361 9.9318 0zm-13.1148-35.116c1.7228-.504 4.8237.6069 7.1535.7458-1.0008.8177-5.2557.504-7.1535.3754 0-.3806 0-.7509 0-1.1212zm-.3937 23.9044c.1586 1.5171-.1422 2.6074-1.5915 2.6177-.804-.9411-.4594-3.1989 1.5915-2.6177zm-14.7009-11.9522c1.3563-1.0389 3.4346-2.9777 5.1628-1.4966-1.0883 1.0903-3.0408 1.3732-5.1628 1.4966zm4.769-7.4727c-2.6853-.4063-3.4947.9463-5.9558.7458-.3062-2.4069 5.7644-3.3121 5.9558-.7458zm28.6033 96.3839c-.7-.093-.908-.643-.793-1.497 1.23-.17 1.416.946.793 1.497z"/><path d="m286.825 11.305c-.908-.1029-1.493.0875-1.591.746.536.1183.76.535 1.591.3755 0-.3755 0-.7511 0-1.1215z"/><path d="m137.848 13.5417c-.4-1.4299-3.271-.5658-2.784 1.1213 1.312-.0103 2.816.1543 2.784-1.1213z"/><path d="m119.182 22.5123c1.137.072 2.166.0463 1.985-1.1213-.52-.4784-1.466-.4784-1.985 0z"/><path d="m213.725 36.706c-3.746 1.1263-1.476 3.6361-2.384 5.2305 3.396-1.2858 10.189.6172 9.932-4.1093-2.702-1.327-4.097-3.8728-5.962-5.9815.356-.6583.963-1.0903 1.193-1.867-2.347.0155-1.176-1.8258-2.385-2.2424-2.417.7149-4.993 1.2858-4.37 4.8552.996 1.692 4.168 1.3217 3.976 4.1145z"/><path d="m209.356 38.2022c-.4-1.9953.678-2.6021 1.192-3.7386-2.439-2.4016-4.922.2005-7.154 1.121.854 1.9131-.229 2.2936-.793 3.7335 2.347 1.0954 4.928-.5091 6.755-1.1159z"/><path d="m33.7659 35.5838c-1.2469-.1749-1.6188.4681-1.9852 1.1215.6672.6327 2.3353.2983 1.9852-1.1215z"/><path d="m447.32 46.0459c.12 1.5063.58 2.6836 2.379 2.6116.274-1.8713-.952-2.334-2.379-2.6116z"/><path d="m452.876 56.8817c-.475-2.5766 1.729-.9257 3.183-1.1211.974-.3292.886-1.656 2.385-1.4966-1.28-2.5303-5.693-2.1189-7.947-3.7337.744 1.98.914 3.3017-.399 4.8548.706.7046 1.16 1.656 2.778 1.4966z"/><path d="m232.796 56.8828c.17-.7151 1.138-.6739.793-1.8674-.695-.0257-1.236.0823-1.592.3755-.103.8489.099 1.3993.799 1.4919z"/><path d="m452.483 57.6287c2.992 3.9598.58 7.138-2.385 9.339-3.801-.2468-6.803 1.5891-8.345 4.4844 1.493.9669 1.711 3.1268 3.976 3.3633.7-2.8079 3.549-4.8032 6.754-4.1089.689-2.34 4.583-1.6611 6.355-2.9879-1.471-4.3404-.809-10.5887-6.355-10.0899z"/><path d="m231.604 61.3616c2.636.5193 2.669-2.2368 1.985-3.7383-2.609-.6941-2.86 2.3551-1.985 3.7383z"/><path d="m243.526 62.8572c-1.58.2571-4.402-.6532-4.769.7458 1.182.756 2.325 1.5481 4.37 1.4967-.29-1.1418.684-1.1007.399-2.2425z"/><path d="m275.307 67.7133c-1.056.0051-2.341-.2057-2.385.7456.602.5759 2.724.6685 2.385-.7456z"/><path d="m361.904 112.543c-.497 1.574-.908 5.329.4 6.352 1.339.633 2.313-.303 3.177-1.121-.437-2.453-1.356-4.454-3.577-5.231z"/><path d="m433.019 120.017c-1.756-.715-1.893-2.952-3.971-3.358-2.1 4.623-7.203 6.428-10.73 9.715-1.214.267-1.165-.648-2.379-.376-2.609 3.189 1.383 5.657 1.586 8.594 3.992.267 7.339 2.489 11.124 1.121.662-3.358 1.794-6.279 4.37-7.848-1.936-2.325-1.8-5.508 0-7.848z"/><path d="m410.765 133.464c-.301-.087-.46-.314-.394-.751-.837-.818-1.767-.077-2.39.371-.684-1.595-2.959-1.698-2.379-4.485-5.639-2.546-8.663-7.545-15.494-8.97v1.492c7.766 4.531 9.199 15.012 17.873 18.679.071-.437.629-.406 1.192-.375.213-2.284.848-4.176 1.592-5.961z"/><path d="m443.344 127.86c-2.598-.437-8.767-1.512-7.548 1.496 2.297-1.507 7.105 1.306 7.548-1.496z"/><path d="m484.663 142.429c-.197-1.177 1.214-.843.793-2.237-1.898-.828-3.413-2.026-4.37-3.739-5.803-1.167-13.23-6.891-17.878-1.496-1.105-1.836-5.027-8.635-6.749-2.988.563 1.342 1.996 1.856 1.985 3.734 4.162 1.188 8.915 1.825 10.331 5.6-.405 1.234-2.204 1.167-1.985 2.988 3.412-1.26 4.681 1.034 6.355 1.497 4.484 1.224 3.691-2.32 6.355-2.618 2.833-.314 3.609 1.918 4.769 4.114 1.903.319 3.806.648 5.562 1.121-.377-3.26-3.67-3.775-5.168-5.976z"/><path d="m440.96 139.071c.399-3.116-1.532-4.042-1.98-6.351 1.279-.288 2.078-1.034 2.384-2.248-3.144.494-4.129 1.481-6.754 0-.153 1.857-1.077 2.973-1.592 4.485 1.844.386.416 3.847 1.986 4.484 1.564-.642.393-3.862 1.99-4.484.854 1.81 1.056 4.232 3.966 4.114z"/><path d="m411.962 136.454c2.538.391 3.594-.607 3.178-2.988-2.209-2.191-5.371 1.034-3.178 2.988z"/><path d="m487.047 139.07c.443 2.217 5.3 2.536 5.169-.375-.701-.386-3.889.061-5.169.375z"/><path d="m426.264 143.92c-4.67-2.617-11.999-4.006-17.479-3.358 2.915 3.399 12.502 4.377 17.479 3.358z"/><path d="m427.456 144.672c1.193 1.059 4.518.807 5.557-.37-1.077-.458-5.086-.941-5.557.37z"/><path d="m437.388 145.048c.618-1.286-2.658-1.775-2.384-.376.049.823 1.684.16 2.384.376z"/><path d="m440.959 147.29c2.062.349 4.616-1.826 6.361-2.988-2.494-.771-5.316 1.162-6.361 2.988z"/><path d="m433.412 145.792c-.235 1.318 2.062 2.161 2.385.741-.706-.329-1.006-1.039-2.385-.741z"/><path d="m483.47 164.842c-1-1.271-2.827-1.358-3.576-2.988-.826-1.8-.225-4.433-.793-6.727-3.298-.412-1.723-3.79-3.178-6.352-.399 0-.793 0-1.192 0-2.724 3.04-1.433 9.859-5.562 11.582-2.39-1.738-5.633-2.669-7.154-5.23 1.296-1.137 2.899-3.163 2.39-4.855-3.106.951-5.174-.37-7.553-1.121-.891.154.061 2.047-1.192 1.867-3.56-1.296-3.773 3.62-6.355 4.484-1.121-.689-1.794-1.805-3.577-1.872-3.981.489-3.533 5.153-8.34 4.855-1.296 7.879-13.443 5.544-17.878 10.461-3.621 6.228 1.876 15.176-3.577 20.546 4.135 4.155 8.734-2.803 14.695-.371 4.086-3.049 13.498-5.914 19.065-2.988.175 1.574 1.565 2.011 1.198 4.11 1.931-.052 2.303-1.569 3.971-1.867-.153 3.281 2.248 3.872 1.192 7.097 2.751 2.705 6.672.488 9.538 2.237 1.794-1.296 4.162-2.057 7.148-2.237 4.835-7.658 15.27-10.049 15.893-21.667-.957-2.14-3.145-3.672-4.37-5.976-.415-.782-.164-2.186-.793-2.988z"/><path d="m452.876 149.902c.536.118.761.535 1.592.375 0-.375 0-.746 0-1.121-.903-.108-1.488.087-1.592.746z"/><path d="m300.727 156.253c-1.624 1.075-3.691.957-4.769 2.237-1.241 1.492.378 3.77 0 5.606-.612 2.993-4.112 5.976-.793 9.715 1.718.828 3.637.052 5.163-.375 1.564-7.082 9.806-15.424 5.168-22.413-1.87 1.764-2.57 3.775-4.769 5.23z"/><path d="m459.237 205.564c3.746.03 5.715-1.605 6.36-4.485-4.933-1.029-7.35.632-6.36 4.485z"/></g><g filter="url(#a)"><ellipse cx="92" cy="82.5556" fill="#008a3c" rx="4" ry="3.55556"/></g><g filter="url(#b)"><circle cx="219" cy="121" fill="#0d6936" r="4"/></g><g filter="url(#c)"><circle cx="78" cy="74" fill="#008a3c" r="4"/></g><g filter="url(#d)"><circle cx="106.5" cy="63.5" fill="#008a3c" r="4.5"/></g><g filter="url(#e)"><circle cx="96" cy="72" fill="#008a3c" r="4"/></g><g filter="url(#f)"><ellipse cx="27" cy="58.5556" fill="#008a3c" rx="4" ry="3.55556"/></g></svg>