<svg viewBox="0 0 61.23 60.12" xmlns="http://www.w3.org/2000/svg"><g fill="none" stroke-linecap="round" stroke-width="2"><path d="m14.75 13.22h-11.23m14.5-6.89h-11.48" stroke="#79b8ff" stroke-miterlimit="10"/><path d="m56.96 51.89h-11.23m14.5-6.9h-11.48" stroke="#2088ff" stroke-miterlimit="10"/><g stroke-linejoin="round"><circle cx="22.5" cy="37.62" r="7.48" stroke="#2088ff" transform="matrix(.70710678 -.70710678 .70710678 .70710678 -20.010674 26.92996)"/><path d="m36.72 29.79 1.35 3.4 5.93 2v4.81l-5.92 2.08-1.44 3.39 2.83 5.58-3.47 3.49-5.66-2.7-3.34 1.38-2 5.9h-4.89l-2.11-5.94-3.36-1.4-5.64 2.8-3.42-3.48 2.7-5.66-1.38-3.37-5.9-2v-4.89l5.92-2.08 1.44-3.39-2.82-5.57 3.46-3.45 5.66 2.7 3.34-1.39 2-5.9h4.89l2.11 5.9 3.36 1.4 5.64-2.74 3.45 3.48z" stroke="#2088ff"/><path d="m7.22 22.48 1.78-1.79 5.66 2.7 3.34-1.39 2-5.9h4.89l2.11 5.9 3.36 1.4 5.64-2.74 3.45 3.48-2.7 5.66 1.35 3.4 5.93 2-.03 4.8-5.92 2.08-1.44 3.39 2.83 5.58-1.83 1.82" opacity=".1" stroke="#2088ff"/><path d="m37.22 14.11a6.05 6.05 0 1 1 8.56 8.56m-15.71-10.67-2.29-4.51 2.81-2.79 4.58 2.19 2.72-1.12 1.61-4.77h4l1.64 4.8 2.71 1.14 4.54-2.26 2.79 2.81-2.18 4.57 1.09 2.75 4.8 1.58v4l-4.8 1.61-1.16 2.74 2.29 4.51-2.82 2.83-4.58-2.19" stroke="#79b8ff"/><path d="m29.14 6.14 1.45-1.44 4.58 2.19 2.72-1.12 1.61-4.77h4l1.64 4.8 2.71 1.14 4.54-2.26 2.79 2.81-2.18 4.57 1.09 2.75 4.8 1.58v4l-4.8 1.61-1.16 2.74 2.29 4.51-1.48 1.47" opacity=".1" stroke="#79b8ff"/></g></g></svg>