<svg viewBox="0 0 44.7 64.3" xmlns="http://www.w3.org/2000/svg"><g transform="translate(-10.75 -1)"><path d="m27 33.73a.75.75 0 0 1 -.53-.22l-15-14.83a.75.75 0 0 1 1.05-1.07l15 14.83a.75.75 0 0 1 -.52 1.29z" fill="#af9bcb"/><path d="m49.6 19.07h-2.5v-1.57a14 14 0 0 0 -28 0v1.56h-2.5v-1.56a16.51 16.51 0 0 1 33 0v1.56z" fill="#5f3797"/><path d="m42.86 17.63h-2.5v-.87a7.27 7.27 0 1 0 -14.54 0v.87h-2.5v-.87a9.77 9.77 0 1 1 19.54 0z" fill="#5f3797"/><path d="m33.1 47.8a8.86 8.86 0 1 1 8.9-8.86 8.87 8.87 0 0 1 -8.9 8.86zm0-16.22a7.36 7.36 0 1 0 7.36 7.36 7.37 7.37 0 0 0 -7.36-7.36z" fill="#af9bcb"/><path d="m37.66 36.52v-.06a1.36 1.36 0 0 0 -.13-.17l-.53-.51-.15-.15a.5.5 0 0 0 -.79 0l-4 4a.25.25 0 0 1 -.08.06.24.24 0 0 1 -.08-.06l-1.7-1.73a.5.5 0 0 0 -.77 0l-.19.1-.5.45-.15.16-.1.2v.14l.07.17a.76.76 0 0 0 .11.15l2.88 3a.56.56 0 0 0 .4.2.57.57 0 0 0 .4-.2l1-1 4.1-4.09a1 1 0 0 0 .17-.18l.08-.18v-.17z" fill="#ac3396"/><path d="m48.57 54.82a.75.75 0 0 1 -.57-.22l-9.33-9.19a.75.75 0 0 1 1.05-1.07l9.33 9.19a.75.75 0 0 1 -.48 1.29z" fill="#af9bcb"/><path d="m33.09 65.3a1.25 1.25 0 0 1 -.36-.05l-.22-.07a35.57 35.57 0 0 1 -15.12-10.18c-5.78-6.62-6.65-14.53-6.65-18.66v-18.19a1.25 1.25 0 0 1 1.26-1.25h42.2a1.25 1.25 0 0 1 1.25 1.25v18.2c0 5.86-.71 12.67-5.93 18.66a35.72 35.72 0 0 1 -15.88 10.19l-.22.06a1.24 1.24 0 0 1 -.33.04zm-19.84-45.9v17c0 3.77.78 11 6 17a33 33 0 0 0 13.85 9.35 33 33 0 0 0 14.53-9.38c4.69-5.37 5.32-11.61 5.32-17v-17h-39.7z" fill="#5f3797"/></g></svg>