<svg height="50" width="50" xmlns="http://www.w3.org/2000/svg"><g fill="none" fill-rule="evenodd"><g stroke-width="2"><path d="m20.065 47.122c.44-.525.58-1.448.58-1.889 0-2.204-1.483-3.967-3.633-4.187.447-1.537.58-2.64.397-3.31-.25-.92-.745-1.646-1.409-2.235m-5.97-7.157c.371-.254.911-.748 1.62-1.48a8.662 8.662 0 0 0 1.432-2.366m33.918-2.498h-7c-1.538 0-2.749-.357-4-1h-5c-1.789.001-3-1.3-3-2.955 0-1.656 1.211-3.04 3-3.045h2c.027-1.129.513-2.17 1-3m3.082 32.004c-2.537-.976-3.062-3.435-3.082-5.004v-1h-1c-2.603-.318-5-2.913-5-5.997s2.397-6.003 5-6.003h9c2.384 0 4.326 1.024 5.27 3" stroke="#79b8ff" stroke-linecap="round" stroke-linejoin="round" transform="translate(1 1)"/><g stroke="#2088ff" transform="translate(37 1)"><path d="m5.395 5.352.614-1.352.598 1.348 1.393.06-1.067 1.12.425 1.47-1.356-.908-1.35.91.404-1.469-1.056-1.121z" fill="#2088ff" stroke-linecap="round" stroke-linejoin="round"/><circle cx="6" cy="6" r="6"/></g><g stroke="#2088ff"><circle cx="7" cy="38" r="6"/><path d="m6 4v4m-2-2h4" stroke-linecap="round" transform="translate(1 32)"/></g><circle cx="11.5" cy="11.5" r="10.5" stroke="#2088ff"/></g><g stroke-linecap="round" transform="translate(1 1)"><path d="m32.01 1.37a23.96 23.96 0 0 0 -8.01-1.37c-.999 0-1.983.061-2.95.18m-20.73 19.892c-.21 1.278-.32 2.59-.32 3.928 0 1.37.115 2.712.335 4.02m12.085 17.005a23.892 23.892 0 0 0 11.58 2.975c13.255 0 24-10.745 24-24 0-2.811-.483-5.51-1.371-8.016" stroke="#79b8ff" stroke-width="2"/><g stroke="#2088ff"><path d="m8.999 7.151v5.865" stroke-width="2"/><path d="m9 3a2 2 0 1 1 0 4 2 2 0 0 1 0-4zm0 10.8a2 2 0 1 1 -.001 4 2 2 0 0 1 .001-4z" stroke-width="1.8"/><path d="m9.622 11.838c.138-.007.989.119 1.595-.05.607-.169 1.584-.539 1.829-1.337" stroke-width="2"/><path d="m14.8 7.202a2 2 0 1 1 0 4 2 2 0 0 1 0-4z" stroke-width="1.8"/></g></g></g></svg>