<?xml version="1.0" encoding="utf-8"?>
<!-- Generator: Adobe Illustrator 25.3.1, SVG Export Plug-In . SVG Version: 6.00 Build 0)  -->
<svg version="1.1" id="Layer_2" xmlns="http://www.w3.org/2000/svg" xmlns:xlink="http://www.w3.org/1999/xlink" x="0px" y="0px"
	 viewBox="0 0 75.9 72.9" style="enable-background:new 0 0 75.9 72.9;" xml:space="preserve">
<style type="text/css">
	.st0{fill:#79B8FF;}
	.st1{fill-rule:evenodd;clip-rule:evenodd;fill:#79B8FF;}
	.st2{fill:#2188FF;}
	.st3{fill-rule:evenodd;clip-rule:evenodd;fill:#2188FF;}
</style>
<path class="st0" d="M26.5,11c-0.8,0-1.4,0.6-1.4,1.4s0.6,1.4,1.4,1.4h13.8c0.8,0,1.4-0.6,1.4-1.4S41.1,11,40.3,11H26.5z"/>
<path class="st0" d="M12.7,23.5c-0.8,0-1.4,0.6-1.4,1.4c0,0.8,0.6,1.4,1.4,1.4h2.8c0.8,0,1.4-0.6,1.4-1.4c0-0.8-0.6-1.4-1.4-1.4
	H12.7z"/>
<path class="st0" d="M15.5,18c0-0.8,0.6-1.4,1.4-1.4H21c0.8,0,1.4,0.6,1.4,1.4c0,0.8-0.6,1.4-1.4,1.4h-4.1
	C16.1,19.3,15.5,18.7,15.5,18z"/>
<path class="st0" d="M18.2,37.3c-0.8,0-1.4,0.6-1.4,1.4s0.6,1.4,1.4,1.4H21c0.8,0,1.4-0.6,1.4-1.4s-0.6-1.4-1.4-1.4H18.2z"/>
<path class="st1" d="M27.9,50.8c0,0.1,0,0.1,0,0.2l0,2.8c0,0.8,0.6,1.4,1.4,1.4h15.1c0.8,0,1.4,0.6,1.4,1.4s-0.6,1.4-1.4,1.4H29.3
	c-2.3,0-4.1-1.9-4.1-4.1l0-1.2c0-0.1,0-0.1,0-0.2V20.5c0-2.4,2.1-4,4.3-4h31.3c2.2,0,4.3,1.6,4.3,4v16.7c0,0.8-0.6,1.4-1.4,1.4
	c-0.8,0-1.4-0.6-1.4-1.4v-11H27.9V50.8z M62.3,23.4H27.9v-2.9c0-0.5,0.5-1.2,1.6-1.2h31.3c1,0,1.6,0.7,1.6,1.2V23.4z"/>
<path class="st2" d="M8.8,6.9c-1,0-1.6,0.7-1.6,1.2v38.5c0,0.1,0,0.1,0,0.2l0,2.8c0,0.8,0.6,1.4,1.4,1.4H21c0.8,0,1.4,0.6,1.4,1.4
	c0,0.8-0.6,1.4-1.4,1.4H8.6c-2.3,0-4.1-1.9-4.1-4.1l0-1.2c0-0.1,0-0.1,0-0.2V8.1c0-2.4,2.1-4,4.3-4h42.3c2.2,0,4.3,1.6,4.3,4v4.3
	c0,0.8-0.6,1.4-1.4,1.4c-0.8,0-1.4-0.6-1.4-1.4V8.1c0-0.5-0.5-1.2-1.6-1.2H8.8z"/>
<path class="st2" d="M62.3,59.3c0-1.5-1.2-2.8-2.8-2.8s-2.8,1.2-2.8,2.8c0,1,0.6,1.9,1.4,2.4v1.7c0,0.8,0.6,1.4,1.4,1.4
	s1.4-0.6,1.4-1.4v-1.7C61.8,61.2,62.3,60.3,62.3,59.3z"/>
<path class="st3" d="M52.7,51c-2.3,0-4.1,1.9-4.1,4.1v11c0,2.3,1.9,4.1,4.1,4.1h13.8c2.3,0,4.1-1.9,4.1-4.1v-11
	c0-2.3-1.9-4.1-4.1-4.1v-3.1c0-1.9-0.7-3.6-1.9-4.7c-1.3-1.2-3-1.8-4.9-1.8c-1.9,0-3.7,0.6-4.9,1.8c-1.3,1.2-1.9,2.9-1.9,4.7V51z
	 M63.7,47.9V51h-8.3v-3.1c0-1.2,0.4-2.1,1.1-2.7c0.7-0.6,1.7-1,3.1-1c1.4,0,2.4,0.4,3.1,1.1C63.3,45.8,63.7,46.7,63.7,47.9z
	 M51.3,55.1c0-0.8,0.6-1.4,1.4-1.4h13.8c0.8,0,1.4,0.6,1.4,1.4v11c0,0.8-0.6,1.4-1.4,1.4H52.7c-0.8,0-1.4-0.6-1.4-1.4V55.1z"/>
<path class="st2" d="M22.4,12.4c0,0.8-0.6,1.4-1.4,1.4l-8.3,0.1c-0.8,0-1.4-0.6-1.4-1.4c0-0.8,0.6-1.4,1.4-1.4L21,11
	C21.8,11,22.4,11.6,22.4,12.4z"/>
<path class="st2" d="M45.8,11.1c-0.8,0-1.4,0.6-1.4,1.4s0.6,1.4,1.4,1.4h1.4c0.8,0,1.4-0.6,1.4-1.4s-0.6-1.4-1.4-1.4H45.8z"/>
<path class="st2" d="M18.2,24.9c0-0.8,0.6-1.4,1.4-1.4H21c0.8,0,1.4,0.6,1.4,1.4c0,0.8-0.6,1.4-1.4,1.4h-1.4
	C18.9,26.2,18.2,25.6,18.2,24.9z"/>
<path class="st2" d="M12.7,30.4c-0.8,0-1.4,0.6-1.4,1.4s0.6,1.4,1.4,1.4H21c0.8,0,1.4-0.6,1.4-1.4s-0.6-1.4-1.4-1.4H12.7z"/>
<path class="st2" d="M15.5,45.5c0-0.8,0.6-1.4,1.4-1.4l4.1,0c0.8,0,1.4,0.6,1.4,1.4c0,0.8-0.6,1.4-1.4,1.4l-4.1,0
	C16.1,46.8,15.5,46.2,15.5,45.5z"/>
<path class="st2" d="M12.7,37.3c-0.8,0-1.4,0.6-1.4,1.4S12,40,12.7,40h1.4c0.8,0,1.4-0.6,1.4-1.4s-0.6-1.4-1.4-1.4H12.7z"/>
<path class="st2" d="M33.4,38.6c-0.8,0-1.4,0.6-1.4,1.4c0,0.8,0.6,1.4,1.4,1.4h17.9c0.8,0,1.4-0.6,1.4-1.4c0-0.8-0.6-1.4-1.4-1.4
	H33.4z"/>
<path class="st2" d="M32,45.5c0-0.8,0.6-1.4,1.4-1.4h11c0.8,0,1.4,0.6,1.4,1.4c0,0.8-0.6,1.4-1.4,1.4h-11C32.6,46.9,32,46.2,32,45.5
	z"/>
<path class="st3" d="M35.5,28.9c-1.9,0-3.4,1.5-3.4,3.4c0,1.9,1.5,3.4,3.4,3.4c1.9,0,3.4-1.5,3.4-3.4C38.9,30.5,37.4,28.9,35.5,28.9
	z M34.8,32.4c0-0.4,0.3-0.7,0.7-0.7c0.4,0,0.7,0.3,0.7,0.7c0,0.4-0.3,0.7-0.7,0.7C35.1,33.1,34.8,32.8,34.8,32.4z"/>
</svg>
