<svg data-name="Layer 1" xmlns="http://www.w3.org/2000/svg" viewBox="0 0 73.3 56.2"><path d="M65.7 46.13h-7.1a1 1 0 0 1 0-2h7.1a1 1 0 0 1 0 2z" fill="#2088ff"/><path d="M62.1 49.7a1 1 0 0 1-1-1v-7.1a1 1 0 0 1 2 0v7.1a1 1 0 0 1-1 1z" fill="#2088ff"/><path d="M1 46.2a1 1 0 0 1-1-1V2.9A2.9 2.9 0 0 1 2.9 0h67.5a2.9 2.9 0 0 1 2.9 2.9V29a1 1 0 1 1-2 0V2.9a.9.9 0 0 0-.9-.9H2.9a.9.9 0 0 0-.9.9v42.3a1 1 0 0 1-1 1z" fill="#79b8ff"/><path fill="#79b8ff" d="M1 8.9h71.3v2H1z"/><path d="M44.76 46.2H12.3a3 3 0 0 1-3-3v-22a3 3 0 0 1 3-3h48.46a3 3 0 0 1 3 3V29a1 1 0 1 1-2 0v-7.8a1 1 0 0 0-1-1H12.3a1 1 0 0 0-1 1v22a1 1 0 0 0 1 1h32.46a1 1 0 0 1 0 2z" fill="#2088ff"/><path d="M27.38 37.35h-10.3a1 1 0 0 1-1-1v-8.6a1 1 0 0 1 1-1h10.3a1 1 0 0 1 1 1v8.6a1 1 0 0 1-1 1zm-9.3-2h8.3v-6.6h-8.3v6.6zM62.1 56.2a11.1 11.1 0 1 1 11.1-11.1 11.11 11.11 0 0 1-11.1 11.1zm0-20.2a9.1 9.1 0 1 0 9.1 9.1 9.1 9.1 0 0 0-9.1-9.1zM53 30H33.76a1 1 0 0 1 0-2H53a1 1 0 0 1 0 2zm-8.48 6.13H33.76a1 1 0 0 1 0-2h10.76a1 1 0 0 1 0 2z" fill="#2088ff"/></svg>