<svg data-name="Layer 1" xmlns="http://www.w3.org/2000/svg" viewBox="0 0 62.3 58.66"><path fill="#2088ff" d="M9.11 13.9h14.7v2H9.11zm23.2 0h14.7v2h-14.7zM52.1 58.66a10.2 10.2 0 1 1 10.2-10.2 10.21 10.21 0 0 1-10.2 10.2zm0-18.4a8.2 8.2 0 1 0 8.2 8.2 8.21 8.21 0 0 0-8.2-8.16z"/><path d="M36.52 52.8H3.2a3.2 3.2 0 0 1-3.19-3.2V3.2A3.2 3.2 0 0 1 3.2 0h50a3.2 3.2 0 0 1 3.2 3.2V33a1 1 0 0 1-2 0V3.2A1.22 1.22 0 0 0 53.2 2h-50a1.22 1.22 0 0 0-1.19 1.2v46.4a1.22 1.22 0 0 0 1.2 1.2h33.31a1 1 0 0 1 0 2z" fill="#79b8ff"/><path d="M24.52 44.47H9.27a1 1 0 0 1-1-1V9.07a1 1 0 0 1 1-1h15.25a1 1 0 0 1 1 1v34.4a1 1 0 0 1-1 1zm-14.2-2h13.2v-32.4H10.27v32.4zM47.3 27H32.1a1 1 0 0 1-1-1V9.07a1 1 0 0 1 1-1h15.2a1 1 0 0 1 1 1V26a1 1 0 0 1-1 1zm-14.2-2h13.2V10.07H33.1V25zm17.91 26.5a1 1 0 0 1-.69-.28l-2-1.9a1 1 0 1 1 1.38-1.45l1.31 1.23 3.41-3.44a1 1 0 0 1 1.41 1.41l-4.1 4.1a1 1 0 0 1-.72.33z" fill="#2088ff"/></svg>