<svg fill="none" height="19" viewBox="0 0 19 19" width="19" xmlns="http://www.w3.org/2000/svg" xmlns:xlink="http://www.w3.org/1999/xlink"><clipPath id="a"><path d="m3 3h13.2477v13.2477h-13.2477z"/></clipPath><rect fill="#28a745" height="19" rx="4" width="19"/><g clip-path="url(#a)" fill="#fff"><path d="m10.502 10.502c-.2329.2329-.54878.3638-.87817.3638s-.64529-.1309-.87821-.3638c-.23291-.2329-.36376-.54878-.36376-.87817s.13085-.64529.36376-.87821c.23292-.23291.54882-.36376.87821-.36376s.64527.13085.87817.36376c.2329.23292.3638.54882.3638.87821s-.1309.64527-.3638.87817z"/><path clip-rule="evenodd" d="m4.94007 4.94007c1.24221-1.2422 2.92701-1.94007 4.68376-1.94007 1.75677 0 3.44157.69787 4.68377 1.94007 1.2422 1.24221 1.9401 2.92701 1.9401 4.68376 0 1.75677-.6979 3.44157-1.9401 4.68377s-2.927 1.9401-4.68377 1.9401c-1.75675 0-3.44155-.6979-4.68376-1.9401-1.2422-1.2422-1.94007-2.927-1.94007-4.68377 0-1.75675.69787-3.44155 1.94007-4.68376zm.87821.87821c-1.0093 1.00929-1.57631 2.37819-1.57631 3.80555 0 1.42737.56701 2.79627 1.57631 3.80557 1.00929 1.0093 2.37819 1.5763 3.80555 1.5763 1.42737 0 2.79627-.567 3.80557-1.5763s1.5763-2.3782 1.5763-3.80557c0-1.42736-.567-2.79626-1.5763-3.80555-1.0093-1.0093-2.3782-1.57631-3.80557-1.57631-1.42736 0-2.79626.56701-3.80555 1.57631z" fill-rule="evenodd"/></g></svg>