 <svg width="24" height="24" viewBox="0 0 24 24" fill="none" xmlns="http://www.w3.org/2000/svg">
  <g clip-path="url(#clip0_103_24779)">
  <path fill-rule="evenodd" clip-rule="evenodd" d="M16.6 9.7H23.2244C23.3766 9.7 23.5 9.5766 23.5 9.42439V7.67561C23.5 7.52339 23.3766 7.4 23.2244 7.4H16.6V0.775611C16.6 0.623395 16.4766 0.5 16.3244 0.5H14.5756C14.4234 0.5 14.3 0.623395 14.3 0.775611V9.42439C14.3 9.57661 14.4234 9.7 14.5756 9.7H16.6ZM16.6 16.6H23.2244C23.3766 16.6 23.5 16.4766 23.5 16.3244V14.5756C23.5 14.4234 23.3766 14.3 23.2244 14.3H14.5756C14.4234 14.3 14.3 14.4234 14.3 14.5756V23.2244C14.3 23.3766 14.4234 23.5 14.5756 23.5H16.3244C16.4766 23.5 16.6 23.3766 16.6 23.2244V16.6ZM7.4 23.2244C7.4 23.3766 7.52339 23.5 7.67561 23.5H9.42439C9.57661 23.5 9.7 23.3766 9.7 23.2244V14.5756C9.7 14.4234 9.5766 14.3 9.42439 14.3H0.77561C0.623395 14.3 0.5 14.4234 0.5 14.5756V16.3244C0.5 16.4766 0.623395 16.6 0.775611 16.6H7.4V23.2244ZM7.4 0.775611C7.4 0.623395 7.52339 0.5 7.67561 0.5H9.42439C9.57661 0.5 9.7 0.623395 9.7 0.775611V9.42439C9.7 9.57661 9.5766 9.7 9.42439 9.7H0.77561C0.623395 9.7 0.5 9.5766 0.5 9.42439V7.67561C0.5 7.52339 0.623395 7.4 0.775611 7.4H7.4V0.775611Z" fill="currentColor" stroke="currentColor" stroke-width="1.21053"/>
  </g>
  <defs>
  <clipPath id="clip0_103_24779">
  <rect width="24" height="24" fill="currentColor"/>
  </clipPath>
  </defs>
</svg>
