<svg width="48" height="47" viewBox="0 0 48 47" fill="none" xmlns="http://www.w3.org/2000/svg">
<path d="M22.009 29.011C22.4528 29.0056 22.909 29.1513 23.2372 29.4245C23.71 29.8178 24.0035 30.3826 23.9963 30.9649C23.9829 32.0655 23.0263 33.0008 23.0263 33.0008C23.0263 33.0008 24.0163 34.0782 24.0027 35.0487C23.9853 36.291 22.3165 37.3066 22.3165 37.3066C22.3165 37.3066 23.2515 38.4895 22.9125 39.5877C22.5736 40.6858 21.2224 41.046 21.2224 41.046C21.2224 41.046 22.2769 42.2951 22.0418 43.3023C21.8637 44.0653 21.7291 45.0185 19.5502 45.0134" stroke="#79B8FF" stroke-width="2" stroke-linecap="round" stroke-linejoin="round"/>
<path d="M14.5484 23.4219C15.7321 19.119 12.4157 18.1299 12.4157 18.1299C11.5433 20.4264 10.9784 21.9549 8.18502 26.2378C6.89961 28.2079 6.25917 30.1947 6.30789 32.0344" stroke="#79B8FF" stroke-width="2" stroke-linecap="round" stroke-linejoin="round"/>
<path fill-rule="evenodd" clip-rule="evenodd" d="M14.3913 29.0115L20.9929 28.9994C24.611 28.9857 14.3913 29.0115 14.3913 29.0115Z" stroke="#79B8FF" stroke-width="2" stroke-linecap="round" stroke-linejoin="round"/>
<path fill-rule="evenodd" clip-rule="evenodd" d="M1.00357 32.0168L6.23785 32.0035L1.00357 32.0168Z" stroke="#79B8FF" stroke-width="2" stroke-linecap="round" stroke-linejoin="round"/>
<path d="M14.5484 23.4219C15.7321 19.119 12.4157 18.1299 12.4157 18.1299C11.5433 20.4264 10.9784 21.9549 8.18502 26.2378C6.89961 28.2079 6.25917 30.1947 6.30789 32.0344" stroke="#79B8FF" stroke-width="2" stroke-linecap="round" stroke-linejoin="round"/>
<path fill-rule="evenodd" clip-rule="evenodd" d="M1.00357 32.0168L6.23785 32.0035L1.00357 32.0168Z" stroke="#79B8FF" stroke-width="2" stroke-linecap="round" stroke-linejoin="round"/>
<path d="M3.00006 43.0125L7.01037 43.0125C7.01037 43.0125 9.03766 45.011 10.9712 45.0134C10.9712 45.0134 11.4559 45.0081 16.4303 45.0081C18.623 45.0081 16.2123 45.0083 19.9677 45.0084" stroke="#79B8FF" stroke-width="2" stroke-linecap="round" stroke-linejoin="round"/>
<path d="M14.793 22.0216C14.793 22.0216 14.7006 23.4218 13.8597 25.4681C13.0187 27.5145 14.2435 29.0153 14.2435 29.0153" stroke="#79B8FF" stroke-width="2" stroke-linecap="round"/>
<path d="M41 11.1555V18C41 19.1046 40.1046 20 39 20H27L21 24V20H19.0657" stroke="#79B8FF" stroke-width="2" stroke-linecap="round" stroke-linejoin="round"/>
<path d="M8 18V3C8 1.89543 8.89543 1 10 1H39C40.1046 1 41 1.89543 41 3V13" stroke="#79B8FF" stroke-width="2" stroke-linecap="round" stroke-linejoin="round"/>
<path d="M19 7.01404L16 10.014L19 13.014" stroke="#2188FF" stroke-width="2" stroke-linecap="round" stroke-linejoin="round"/>
<path d="M30 7.01404L33 10.014L30 13.014" stroke="#2188FF" stroke-width="2" stroke-linecap="round" stroke-linejoin="round"/>
<path d="M26.0295 5L23.0143 15.0267" stroke="#2188FF" stroke-width="2" stroke-linecap="round"/>
<path d="M28 34H31L37 38V34H45C46.1046 34 47 33.1046 47 32V21.0945V17C47 15.8954 46.1046 15 45 15H45.1382" stroke="#79B8FF" stroke-width="2" stroke-linecap="round" stroke-linejoin="round"/>
<path d="M29 24H41" stroke="#2188FF" stroke-width="2" stroke-linecap="round" stroke-linejoin="round"/>
<path d="M29 29H35" stroke="#2188FF" stroke-width="2" stroke-linecap="round" stroke-linejoin="round"/>
<path d="M39 29H41" stroke="#2188FF" stroke-width="2" stroke-linecap="round" stroke-linejoin="round"/>
</svg>
