<svg viewBox="0 0 28 32" xmlns="http://www.w3.org/2000/svg"><g fill="#fff"><path d="m17.8 24.4h-11c-.6 0-1.1-.5-1.1-1.1v-1.3c0-.8.6-1.4 1.4-1.4h7.2c.5 0 .9-.4.9-.9s-.4-.9-.9-.9h-7.3c-.5 0-.9.1-1.4.3v-12.3c0-.6.5-1.1 1.1-1.1h13.6v6.9c0 .5.4.9.9.9s.9-.4.9-.9v-7.8c0-.5-.4-.9-.9-.9h-14.4c-1.6 0-2.9 1.3-2.9 2.9v16.5c0 1.6 1.3 2.9 2.9 2.9h11c.5 0 .9-.4.9-.9s-.5-.9-.9-.9z"/><path d="m25.4 19.2-3.5-3.8c-.3-.4-.9-.4-1.3 0l-3.5 3.8c-.2.2-.2.4-.2.6s.1.4.3.6.4.3.6.2c.2 0 .4-.1.6-.3l2-2.1v9c0 .5.4.9.9.9s.9-.4.9-.9v-9l2 2.1c.2.2.4.3.6.3s.5-.1.6-.2c.2-.2.3-.4.3-.6-.1-.3-.2-.5-.3-.6z"/></g></svg>