<svg width="44" height="44" viewBox="0 0 44 44" fill="none" xmlns="http://www.w3.org/2000/svg">
<path d="M44 22C44 34.1503 34.1503 44 22 44C9.84974 44 0 34.1503 0 22C0 9.84974 9.84974 0 22 0C34.1503 0 44 9.84974 44 22Z" fill="#3FB950"/>
<path fill-rule="evenodd" clip-rule="evenodd" d="M22.5334 14.1331C22.1864 14.0221 21.8136 14.0221 21.4666 14.1331L16.2166 15.8131C15.4918 16.045 15 16.7188 15 17.4798V20.9998C15 22.5659 15.3192 24.1823 16.3032 25.682C17.2863 27.1805 18.8884 28.4946 21.3351 29.5367C21.7591 29.7173 22.2409 29.7173 22.6649 29.5367C25.1116 28.4946 26.7137 27.1805 27.6968 25.682C28.6808 24.1823 29 22.5659 29 20.9998V17.4798C29 16.7188 28.5082 16.045 27.7834 15.8131L22.5334 14.1331ZM21.9238 15.5617C21.9734 15.5458 22.0266 15.5458 22.0762 15.5617L27.3262 17.2417C27.4297 17.2748 27.5 17.3711 27.5 17.4798V20.9998C27.5 22.3582 27.2253 23.6662 26.4426 24.8592C25.6591 26.0535 24.3216 27.2007 22.0771 28.1567C22.0287 28.1773 21.9713 28.1773 21.9229 28.1567C19.6784 27.2007 18.3409 26.0535 17.5574 24.8592C16.7746 23.6662 16.5 22.3582 16.5 20.9998V17.4798C16.5 17.3711 16.5703 17.2748 16.6738 17.2417L21.9238 15.5617ZM23.5 20.4999C23.5 21.0551 23.1983 21.5399 22.75 21.7992V24.2499C22.75 24.6641 22.4142 24.9999 22 24.9999C21.5858 24.9999 21.25 24.6641 21.25 24.2499V21.7992C20.8017 21.5399 20.5 21.0551 20.5 20.4999C20.5 19.6714 21.1716 18.9999 22 18.9999C22.8284 18.9999 23.5 19.6714 23.5 20.4999Z" fill="white"/>
</svg>
