<svg fill="none" height="19" viewBox="0 0 22 19" width="22" xmlns="http://www.w3.org/2000/svg"><path d="m13 17.908c-.492.308-.903.546-1.192.709-.153.086-.308.17-.463.252h-.002c-.1061.0546-.2237.083-.343.083s-.2369-.0284-.343-.083c-.1563-.0815-.3113-.1656-.465-.252-1.70224-.9602-3.31033-2.0784-4.803-3.34-2.589-2.205-5.389-5.446-5.389-9.264 0-3.461 2.829-6.013 5.736-6.013 2.294 0 4.145 1.226 5.264 3.105 1.12-1.879 2.97-3.105 5.264-3.105 2.906 0 5.736 2.552 5.736 6.014 0 3.818-2.801 7.06-5.389 9.262-1.1391.9627-2.3459 1.8423-3.611 2.632z" fill="#000"/></svg>