<svg fill="none" height="22" viewBox="0 0 23 22" width="23" xmlns="http://www.w3.org/2000/svg"><path clip-rule="evenodd" d="m11.8822.41797c-.0619-.125466-.1577-.231101-.2766-.304964-.1188-.0738623-.256-.113006-.3959-.113006s-.2771.0391437-.3959.113006c-.1188.073863-.2146.179498-.2766.304964l-3.05699 6.197-6.838004.994c-.138463.02011-.268541.07855-.37553.16872-.106988.09016-.1866215.20846-.2298982.34152-.04327671.13305-.0484712.27556-.0149963.41141.033475.13585.1042845.25963.2044245.35735l4.948004 4.82303-1.168 6.811c-.02371.1379-.00836.2797.04433.4094.05268.1296.1406.242.25379.3243.1132.0823.24717.1312.38676.1414.13959.0101.27922-.019.40312-.0841l6.11599-3.216 6.117 3.216c.1238.065.2633.0941.4028.084s.2734-.059.3865-.1412c.1132-.0821.2011-.1943.2539-.3238s.0683-.2712.0448-.409l-1.168-6.812 4.948-4.82303c.1004-.09768.1715-.22153.2052-.35753.0336-.136.0285-.2787-.0148-.41194s-.1231-.25169-.2302-.34192c-.1072-.09023-.2375-.14864-.3762-.16861l-6.838-.993z" fill="#000" fill-rule="evenodd"/></svg>