<svg fill="none" height="20" viewBox="0 0 20 20" width="20" xmlns="http://www.w3.org/2000/svg"><path clip-rule="evenodd" d="m10.596.00548979c-1.301-.09199999-2.303.98600021-2.303 2.20600021v1.053c0 2.666-1.813 3.785-2.774 4.2-.16707.06875-.34324.11288-.523.131-.02968-.44287-.22653-.85791-.5507-1.16111-.32417-.30319-.75144-.47187-1.1953-.47189h-1.5c-.46413 0-.909248.18437-1.237437.51256-.328188.32819-.512563.77331-.512563 1.23744v10.50001c0 .967.784 1.75 1.75 1.75h1.5c.43475.0001.85395-.1617 1.17597-.4538.32202-.292.5238-.6935.56603-1.1262.838.06 1.667.296 2.69.586l.602.17c1.464.406 3.213.824 5.544.824 2.188 0 3.693-.204 4.583-1.372.422-.554.65-1.255.816-2.05.148-.708.262-1.57.396-2.58l.051-.39c.319-2.386.328-4.18001-.223-5.39401-.293-.644-.743-1.125-1.355-1.431-.59-.296-1.284-.404-2.036-.404h-2.05l.056-.429c.025-.18.05-.372.076-.572.06-.483.117-1.006.117-1.438 0-1.245-.222-2.253-.92-2.941-.684-.675-1.668-.8800002-2.743-.95600021z" fill="#000" fill-rule="evenodd"/></svg>