<svg fill="none" height="45" viewBox="0 0 56 45" width="56" xmlns="http://www.w3.org/2000/svg"><g stroke="#2188ff" stroke-linecap="round" stroke-linejoin="round" stroke-width="2"><path d="m25.9 18.9v-2.5c0-.5.1-.9.4-1.3-.5 0-3.8-.4-3.8-4.3 0-1 .3-1.8.9-2.5-.2-.6-.2-1.2-.1-1.9.1-.9.9-.8 2.6.2 1.3-.5 2.9001-.5 4.7 0 .2-.2 2.4001-1.6 2.6001-.2 0 .3-.0001.9-.1001 2 .5.5.8001 1.4.8001 2.5 0 2.3-1.3001 3.7-3.8001 4.3.2.4.4.9.3 1.3s0 1.3 0 2.6c2.4-.7 4.2-2.1 5.4-4 .8-1.4 1.4001-2.9 1.4001-4.9 0-2.9-1.2-5-2.5-6.4-1.7-1.9-4.2001-2.8-6.4001-2.8s-4.7999.9-6.5999 2.9c-1.4 1.5-2.4001 3.6-2.4001 6.3 0 2 .7 3.9 1.8 5.4 1.2001 1.6 2.8 2.7 4.8 3.3z"/><path d="m20.2 28.2v4.8"/><path d="m28.2 29.1v3.9"/><path d="m24.2 28.6v4.4"/><path d="m32.2 28.6v4.4"/><path d="m50 28.6v4.3"/><path d="m36.2 28.2v4.8"/><path d="m46.7 27.8v5.2"/><path d="m6.30005 28.6v4.3"/><path d="m9.69995 27.8v5.2"/></g><path d="m17.4 39.3h22.6z" fill="#fff"/><path d="m17.4 39.3h22.6" stroke="#79b8ff" stroke-linecap="round" stroke-width="2.0393"/><path d="m13 35.9h-10.4c-.3.1-.6.3-.6.6v2.3c0 .3.2.5.5.5h10.5" fill="#fff"/><path d="m13 35.9h-10.4c-.3.1-.6.3-.6.6v2.3c0 .3.2.5.5.5h10.5" stroke="#79b8ff" stroke-linecap="round" stroke-width="2.0393"/><path d="m39.9 35.9h-13.1.8-10.2" fill="#fff"/><path d="m39.9 35.9h-13.1.8-10.2" stroke="#79b8ff" stroke-linecap="round" stroke-width="2.0393"/><path d="m43.6 39.2h10.2c.3 0 .5-.2.5-.5v-2.3c0-.3-.2-.5-.5-.5h-10.4" fill="#fff"/><g stroke="#79b8ff" stroke-linecap="round"><path d="m43.6 39.2h10.2c.3 0 .5-.2.5-.5v-2.3c0-.3-.2-.5-.5-.5h-10.4" stroke-width="2.0393"/><path d="m40 19.6c-1 3.5-5.6 6.2-10.3 6.3-.2 0-1.3 0-1.5 0-.1 0-1.2 0-1.2 0-4.5-.1-9-2.4-10.4-5.6" stroke-linejoin="round" stroke-width="2"/><path d="m2 25.8c3.2 0 6.7-1.1 9.1-2.9.8-.6 1.5-1.4 2.1-2.2" stroke-linejoin="round" stroke-width="2"/><path d="m16.5 15.5c0-.3-.2-.5-.5-.5h-2.3c-.3 0-.5 0-.5.9v4.4 23.3h3.3v-4.4z" stroke-width="2.0393"/><path d="m14.9 13.9v-3" stroke-width="2.0393"/><path d="m54.4 25.8c-4.1 0-8.7-1.8-10.9-4.7" stroke-linejoin="round" stroke-width="2"/><g stroke-width="2.0393"><path d="m40 43.7h3.3v-28c0-.3-.2-.8-.5-.8h-2.3c-.3 0-.5.2-.5.5v20.3z"/><path d="m41.6 10.9v3"/><path d="m10.8 43.7h8.5"/><path d="m37.4 43.7h8.5"/></g></g></svg>