<svg viewBox="0 0 200 200" xmlns="http://www.w3.org/2000/svg"><g stroke="#fff" stroke-miterlimit="10"><g fill="#e6dcfd"><text font-family="ChartwellPies, Chartwell Pies" font-size="36" transform="translate(.18 -6.67)">72+<tspan fill="#d1bcf9" x="34.16" y="0">11+</tspan><tspan fill="#b392f0" x="63.9" y="0">9+</tspan><tspan fill="#8a63d2" x="89.96" y="0">6+</tspan><tspan fill="#6f42c1" letter-spacing="0em" x="115.99" y="0">2</tspan></text><path d="m6.18 133.12a100.39 100.39 0 0 0 11.42 22.69 98.43 98.43 0 0 0 16.8 19.07 100.18 100.18 0 0 0 21.44 14.33 100.33 100.33 0 0 0 52 10 99.7 99.7 0 0 0 81.43-55.12 97.73 97.73 0 0 0 8.45-25.16l-49.6-9.59a48.81 48.81 0 0 1 -16.9 28.48 49 49 0 1 1 -31.34-86.82v-50.23a96.46 96.46 0 0 0 -22.88 2.61 100.21 100.21 0 0 0 -21.17 7.62 99.48 99.48 0 0 0 -34.55 28.24 100.4 100.4 0 0 0 -11.81 19.54 99.81 99.81 0 0 0 -8.64 49.13 100.77 100.77 0 0 0 5.35 25.21z"/><path d="m197.72 118.77s0 0 0 .07a.64.64 0 0 1 0-.07z"/></g><path d="m100 51a48.74 48.74 0 0 1 31.19 11.23l32.18-38.79a100.19 100.19 0 0 0 -29.1-16.82 98.5 98.5 0 0 0 -34.34-6.12l-.03 50.5z" fill="#d1bcf9"/><path d="m146.61 84.88 48-15.52a99.6 99.6 0 0 0 -12-24.82 98 98 0 0 0 -19.18-21.09l-32.22 38.8a49 49 0 0 1 15.4 22.63z" fill="#b392f0"/><path d="m146.67 84.91a49 49 0 0 1 2.33 15.09c0 1-.05 2.09-.11 3.13l50.43 3.24a104.44 104.44 0 0 0 -.55-18.44 96.75 96.75 0 0 0 -4.15-18.57l-48 15.52z" fill="#8a63d2"/><g fill="#6f42c1"><path d="m197.69 118.9a.13.13 0 0 0 0-.06s0 0 0 .06z"/><path d="m148.89 103.19a50.18 50.18 0 0 1 -.79 6.06l49.62 9.52q.57-3 .95-6.06c.26-2.08.47-4.19.65-6.33l-50.43-3.24z"/><path d="m148.09 109.31 49.6 9.59s0 0 0-.06 0 0 0-.07l-49.62-9.52s.02.04.02.06z"/></g></g></svg>