<svg fill="none" height="138" viewBox="0 0 138 138" width="138" xmlns="http://www.w3.org/2000/svg"><g stroke="#fff"><path d="m69.5368 1.00028.0003-.499999-.5-.000271c-11.003-.005954-21.8456 2.63873-31.6101 7.71023-9.7645 5.07146-18.1637 12.42056-24.4867 21.42526-6.323 9.0048-10.38384 19.4002-11.83878 30.3066-1.454949 10.9064-.261191 22.0028 3.4802 32.3502 3.74139 10.3477 9.92028 19.6417 18.01388 27.0947 8.0937 7.454 17.8638 12.849 28.4835 15.727 10.6198 2.879 21.7767 3.157 32.5267.811s20.7762-7.248 29.2312-14.289l.384-.32-.32-.384-23.6775-28.4307-.3202-.3844-.3842.3203c-5.2894 4.4101-12.0938 7.0628-19.5191 7.0628-16.8447 0-30.5-13.6553-30.5-30.5s13.6553-30.5 30.5-30.5h.0082.0086.4997l.0003-.4997z" fill="#e6dcfd"/><path d="m135.587 55.1986.489-.1051-.105-.4888c-3.291-15.311-11.73-29.0319-23.909-38.8769-12.179-9.8449-27.3639-15.219326-43.0246-15.2278l-.5-.00027-.0003.499999-.02 36.999971-.0003.5.5.0003c14.6375.008 26.8645 10.3276 29.8081 24.0887l.1047.4894.4893-.1052z" fill="#d1bcf9"/><path d="m99.176 73.4616-.0724.4941.494.0731 36.5984 5.4105.495.0731.073-.4946c1.2-8.1195.931-16.3886-.793-24.4131l-.106-.4888-.488.105-36.1681 7.7743-.4884.105.1045.4884c.4421 2.0668.6749 4.2116.6749 6.4114 0 1.5159-.1105 3.0056-.3239 4.4616z" fill="#b392f0"/><path d="m99.7437 73.0398-.4952-.0732-.0726.4953c-.5892 4.0201-1.9627 7.7853-3.9603 11.1355l-.2563.4299.4301.2559 31.7936 18.9168.43.255.255-.429c4.567-7.6766 7.589-16.1719 8.895-25.008l.074-.4946-.495-.0731z" fill="#8a63d2"/><path d="m95.9009 84.4237-.4293-.2554-.2558.429c-1.7105 2.8687-3.8785 5.4331-6.4036 7.5924l-.3798.3248.3247.38 24.0339 28.1305.325.38.38-.324c5.69-4.862 10.546-10.624 14.372-17.056l.256-.429-.43-.256z" fill="#6f42c1"/><path d="m89.5172 92.245-.3249-.3803-.3802.3251c-.0972.0831-.1949.1657-.2932.2476l-.3838.32.3198.384 23.6781 28.4306.32.384.384-.32c.221-.183.441-.369.659-.555l.38-.325-.325-.38z" fill="#5a32a3"/></g></svg>