<svg width="78" height="78" fill="none" xmlns="http://www.w3.org/2000/svg"><g clip-path="url(#a)"><path fill="#DADFE9" d="M0 0h78v78H0z"/><path d="M73.005 75.999c-2.629-1.085-3.852-2.03-4.955-2.581a14.58 14.58 0 0 1-.207 1.555l-.014.075-.035.178a23.21 23.21 0 0 1-.057.259c-.016.074-.033.142-.05.212 0 .01-.005.02-.008.03a12.057 12.057 0 0 1-.495 1.544l-.017.039a4.873 4.873 0 0 1-.111.258l-.035.08-.07.148-.015.032-.038.075-.049.096-.065.123-.025.044-.081.148-.01.016-.05.086-.018.03c-.026.043-.052.084-.074.124l-.038.058-.06.09-.03.042c-.024.034-.048.068-.075.1l-.007.01a4.868 4.868 0 0 1-.133.169l-.02.023a3.88 3.88 0 0 1-.136.157c-.14.154-.294.294-.461.417-1.294.937-3.74-.721-9.422-4.902-5.19-3.82-8.579-8.843-10.497-9.85-.39-.594-.044-.98.398-1.254l-.02.005a36.018 36.018 0 0 0 6.386-2.268c-3.69 1.064-5.575.355-7.294.446-2.89.148-5.408 2.302-8.371 2.302-9.482 0-16.89-4.382-17.705-8.095-.796-3.627 1.058-5.416.963-6.462-.148-1.634-1.704-2.674-2.445-8.319-.74-5.644 2.741-10.1 8.371-11.957 5.63-1.857 11.408 3.045 17.335 2.97 5.926-.074 10.89-6.065 12.668-6.164 1.333-.074 4.444.52 5.333 5.199.89 4.68-.074 10.844.074 13.666a.473.473 0 0 0 .155.325c.35.878 1.697 1.916 1.994 4.428.098.825-.118 1.862-.663 2.987.572-1.154.8-2.217.7-3.06-.335-2.828-2-3.789-2.075-4.754-.074-.966 1.408-6.165 1.26-12.627-.148-6.461-3.26-9.58-6.815-12.7-3.556-3.12-10.223-6.313-20.52-6.165-10.297.149-22.168 8.831-24.227 12.85-2.741 5.347-3.853 9.358-1.408 19.088 1.869 7.438 7.101 15.745 18.224 18.642 3.424.891 7.537 1.047 12.074.668.268-.022.535-.047.799-.074.279.253-.244.713-.733 1.166-1.386.904-3.21 2.785-5.609 4.61-2.925 2.224-14.672 8.725-17.621 13.124-2.95 4.399.074 8.293 2.66 10.96 1.551 1.597 3.616 2.987 5.303 3.986l-.115.051-.036.016-.09.04-.049.023-.088.041-.056.026-.092.043-.06.03-.096.045-.066.032-.1.048-.068.034-.104.051-.074.036-.108.055-.074.037-.111.058-.074.039-.116.061-.074.04-.12.066-.074.038-.125.075-.067.038-.134.074-.06.035-.148.089-.044.026-.191.12-.195.125c-.903.594-1.69 1.283-1.856 1.95-.431 1.73.432 2.884 1.438 2.09 1.832 2.985 4.667 4.781 7.562 5.317l-.014.039-.027.074-.02.057-.023.063v.008l-.02.056c-.005.018-.02.056-.03.085a.7.7 0 0 1-.014.042v.005l-.022.062-.007.021a2.637 2.637 0 0 0-.036.106l-.012.032-.02.061v.005c0 .008-.005.016-.009.024l-.025.075c0 .005-.003.011-.005.017l-.018.055-.007.023-.02.063v.007l-.014.049v.015l-.012.049-.074.198c.903.724 1.79 1.04 2.937 1.194.92.111 1.845.171 2.771.18h.122a1.1 1.1 0 0 0 .333.297c.485.298 1.333.491 2.41.629.86.11 1.866.186 2.951.255 2.149.136 3.593.084 4.565-.005.271-.024.541-.056.81-.094.16.022.322.027.483.012.422-.029.953-.143 1.532-.308.81-.23 1.715-.558 2.553-.891a54.146 54.146 0 0 0 2.913-1.252s2.158-13.268.72-23.002a18.504 18.504 0 0 0-.075-.468l-.075-.468-.03-.173a10.221 10.221 0 0 0-.05-.297l-.03-.177-.053-.297-.031-.174-.057-.306-.03-.157-.066-.337-.024-.125-.084-.413a62.234 62.234 0 0 0-.321-1.472l-.012-.049a52.57 52.57 0 0 0-.113-.481c-.033-.136-.065-.273-.099-.408l-.014-.06-.105-.42-.01-.037a67.326 67.326 0 0 0-.358-1.355l-.009-.032c-.055-.2-.111-.4-.169-.6l.105.137.05.065a8.138 8.138 0 0 0 .158.203c.035.045.074.091.107.137l.054.067c.037.048.074.096.114.144l.04.049c.067.085.137.17.208.257l.01.013.188.228.028.033.026.032.047.056.043.05.046.056c.016.017.03.036.046.055l.025.027.049.058.062.074c.015.018.03.037.047.055v.005l.056.065.083.096.03.032c.228.263.465.528.71.794l.019.02c.012.016.026.03.04.044l.128.138.034.037.024.025.134.142.013.015.023.024.007.007c.124.13.25.262.379.393l.014.014c.13.132.261.264.394.396 3.096 3.061 7.09 5.882 10.987 5.84 6.475-.07 10.928-7.437 12.51-10.59-.432-.223-2.625-1.13-6.062-2.55ZM22.3 99.816c-.052.015-.107.034-.16.051.053-.02.108-.039.16-.054v.003Zm.288-.079c2.086-.527 3.386.223 4.4.904-1.014-.684-2.315-1.434-4.4-.907v.003Zm4.758 1.143c.074.051.148.101.222.149l-.222-.149ZM38.91 71.367v.017a32.73 32.73 0 0 1-.079.534c0 .02-.006.04-.009.06l-.05.317v.013l-.046.29-.02.115c-.005.034-.01.067-.017.1l-.015.089-.04.246v.016l-.02.109c0 .015-.005.03-.008.044l-.148.86c0 .022-.007.044-.012.066l-.028.159-.017.094-.118.65-.068.37-.033.177v.006l-.034.183-.015.079v.005c-.02.112-.042.222-.064.34v.016l-.058.31-.008.039-.058.313v.008l-.004.018-.008.043c0 .016-.006.032-.01.049a30.7 30.7 0 0 1-.074.384l-.015.074-.128.676-.012.06-.537 2.813c0 .012-.005.025-.008.037l-.06.318v.03l-.061.323v.027l-.132.692c0 .02-.008.041-.011.062l-.053.278-.016.088-.047.246-.02.113-.046.241-.02.101-.061.334-.065.352v.015l-.012.058-.048.264-.009.046-.014.074-.04.223-.02.104v.015l-.042.234-.022.115-.045.254-.016.084v.008l-.062.343-.005.026-.01.057-.047.26-.02.118-.042.228v.005l-.022.124-.039.219-.023.13-.04.23c0 .023-.009.047-.013.074l-.007.044-.06.342-.069.38c0 .013-.005.027-.008.04a39.84 39.84 0 0 1-.183.916c0 .013-.005.026-.008.039a9.337 9.337 0 0 1-.074.324l-.018.082-.09.392-.027.117-.03.134c-2.261-2.044-5.616-4.494-7.49-5.343 2.617-3.96 3.407-4.97 5.926-8.07 1.4-1.725 3.46-4.064 5.15-5.963-.045.11-.056.192-.068.274Z" fill="#282828"/><path opacity=".3" d="m52.197 79.861-.11-.223c1.855 8.838 2.213 19.608 1.435 24.956-.436 3.001-.876 5.46-1.23 6.27-1.083-.127-1.838-1.315-2.158-2.414-.695-2.386-.454-4.929-.363-7.413a59.571 59.571 0 0 0-.904-12.775c-.16-.884-.232-2.628-.717-3.537l-.033-.263c-.592-4.679-2.074-11.735-3.185-15.969.666 3.417 1.333 9.136 1.852 18.42.518 9.284-1.179 21.395-1.698 24.812-.082.54-.166.991-.254 1.374.271-.025.542-.056.81-.095.16.023.322.027.483.013.052 0 .105-.008.16-.014l.136-.018h.032c.114-.016.234-.038.36-.063l.09-.019.083-.018.095-.022.086-.021.093-.023c.059-.015.118-.029.178-.046l.222-.06a27.56 27.56 0 0 0 2.553-.891l.148-.059.08-.032.048-.019.016-.006.06-.025.05-.02.032-.013.074-.029.069-.028.08-.033.058-.024.067-.028.028-.012.042-.017.081-.033.052-.023.074-.028.05-.021.01-.005.098-.041h.006l.025-.011.085-.036.038-.017.074-.03.042-.018.008-.004.084-.036.023-.01.013-.005.074-.034.038-.016.08-.034.026-.012.074-.031.03-.013h.008l.068-.03c.556-.246.909-.412.909-.412s2.157-13.269.719-23.003a16.975 16.975 0 0 0-.074-.468l-.024-.148-.052-.32-.029-.172-.05-.297-.031-.177-.053-.298-.03-.173-.058-.306-.03-.157-.065-.338-.025-.124-.084-.414a62.738 62.738 0 0 0-.32-1.472l-.012-.048a101.747 101.747 0 0 0-.114-.482c-.032-.136-.064-.272-.098-.407l-.015-.06-.105-.42-.009-.037a67.131 67.131 0 0 0-.358-1.355l-.01-.031-.01-.009Zm23.241-2.856-.472-.196-.024-.01c-.336-.14-1.127 1.513-1.246 1.767-.182.391-.362.768-.543 1.147-.182.396-.39.78-.62 1.15-.287.455-.593.916-1.022 1.233-.532.391-1.082.364-1.7.267-.704-.11-.999-.085-1.597.32-.472.32-1.407.772-1.984.88-.823.153-1.666.126-2.503.097-1.103-.037-2.227-.079-3.26-.463-.763-.284-.858-.256-1.534-.712-1.482-.996-2.733-2.46-3.95-3.763-2.173-2.32-4.792-7.427-7.508-10.546 1.096 2.376 3.636 7.869 4.557 11.086 3.023 3.982 8.885 9.953 14.542 9.894.104 0 .21-.004.313-.01.035 0 .069-.004.103-.006.07 0 .139-.008.208-.014.04 0 .08-.008.12-.012.064-.006.126-.012.187-.02l.127-.016.178-.026.13-.022.172-.03.129-.026c.057-.013.114-.024.17-.038l.127-.03.17-.043.123-.033.172-.05.116-.035.178-.058c.036-.012.074-.024.108-.037a7.79 7.79 0 0 0 .185-.067l.097-.036.202-.08c.025-.011.051-.02.074-.032a8.57 8.57 0 0 0 .242-.105l.033-.015c.282-.127.558-.267.828-.418l.012-.007a5.53 5.53 0 0 0 .253-.149l.03-.017c.079-.047.156-.095.233-.143l.036-.023.222-.149.036-.023.222-.152.03-.021.228-.162.021-.017c.08-.058.158-.117.236-.177l.008-.005a17.98 17.98 0 0 0 2.494-2.356c1.874-2.122 3.22-4.48 3.952-5.937-.327-.17-1.61-.712-3.64-1.554ZM52.966 61.104l-.133.063.133-.064Zm-.37.176-.13.063.13-.063Zm-7.482.533c-2.89.148-5.408 2.302-8.371 2.302-6.568 0-12.139-2.102-15.215-4.628a2.118 2.118 0 0 1-.082-.05c-3.408-2.303-3.726-4.323-4.297-5.348-.844-1.515.04-3.126-.955-3.744-2.333-1.448-6.964-14.741-2-22.837.62-1.012 2.162-1.931 3.03-2.781.666-.658.618-1.281 1.4-1.843 6.316-4.53 15.988-6.08 21.237-4.289-4.815-1.633-6.118-2.014-5.155-2.831.914-.775 9.903-.28 12.018 1.044-2.252-1.686-1.92-3.062-10.93-3.424-.14 0-.28 0-.422.003-10.296.149-22.164 8.831-24.224 12.85-2.74 5.347-3.852 9.358-1.407 19.088 1.869 7.438 7.101 15.745 18.224 18.642 3.424.891 7.537 1.047 12.074.668a36.632 36.632 0 0 0 12.366-3.268c-3.687 1.065-5.573.358-7.291.446Zm9.254-1.436.046-.025-.046.025Zm-1.045.55-.113.056.113-.056Zm.792-.411-.09.047.09-.047Zm-.445.232-.014.008.014-.008Zm-.17 24.767.031.173-.031-.173ZM41.101 69.463l-.055-.698-2.103 2.36-.034.242v.017l-.014.1c-.02.14-.041.284-.065.434 0 .02-.006.04-.009.06l-.05.317v.013l-.046.29-.02.115c-.005.034-.01.067-.017.1l-.015.089-.04.246v.016l-.02.109c0 .015-.005.03-.008.044l-.148.86c0 .022-.007.044-.012.066l-.028.159-.017.094-.118.65-.068.37-.033.177v.006l-.034.183-.015.079v.005c-.02.112-.042.222-.064.34v.016l-.058.31-.008.039-.058.313v.008l-.004.018-.008.043c0 .016-.006.032-.01.049a30.7 30.7 0 0 1-.074.384l-.015.074-.128.676-.012.06-.537 2.813c0 .012-.006.025-.008.037l-.06.318v.03l-.061.323v.027l-.132.692c0 .02-.008.041-.011.062l-.053.278-.016.088-.047.246-.02.113-.046.241-.02.101-.061.334-.065.352v.015l-.012.058-.048.264-.009.046-.014.074-.04.223-.02.104v.015l-.043.234-.02.115-.046.254-.016.084v.008l-.062.343-.005.026-.01.057-.047.26-.02.118-.042.228v.005l-.022.124a17.31 17.31 0 0 1-.039.219l-.023.13-.04.23c0 .023-.009.047-.013.074l-.007.044-.06.342-.069.38c0 .013-.005.027-.008.04-.055.297-.117.605-.183.916 0 .013-.005.026-.008.039a9.337 9.337 0 0 1-.074.324l-.018.082-.09.392-.027.117-.03.134c.395.356.78.725 1.15 1.106.485.291 1.142.793 1.832 1.448.047.045.095.09.142.137l.049.049c.25.245.491.498.724.76.371-4.327 1.856-20.531 1.813-24.506Z" fill="#091426"/><path opacity=".3" d="M27.372 84.837c.207.088.387.168.553.232 2.57-3.886 3.37-4.902 5.867-7.98 1.686-2.08 4.333-5.051 6.134-7.067 1.175-1.203 1.175-1.376 1.598-2.397-3.295 3.242-6.703 6.493-9.704 10.008-2.182 2.553-4.872 5.298-7.927 6.684.93-.148 2.61.149 3.479.52Z" fill="#091426"/><path opacity=".3" d="M40.102 65.725c-1.386.904-3.21 2.785-5.609 4.61-.915.697-2.694 1.81-4.797 3.148.081-.013.162-.031.241-.05a13.78 13.78 0 0 0 5.435-2.62c1.038-.826 1.96-1.801 3.043-2.566 1.084-.765 2.4-1.317 3.714-1.136a19.18 19.18 0 0 0 2.43.198c.585 0 1.136-.297 1.693-.412.212.223.444.435.626.633.912.98 1.746 2.03 2.602 3.059 1.669 2.005 3.45 4.034 5.848 5.172 1.161.551 2.401.863 3.672 1.052a226.834 226.834 0 0 1-2.859-2.08c-4.938-3.635-8.245-8.358-10.208-9.675a1.55 1.55 0 0 0-.081.096c-.022-.027-.043-.055-.068-.084-.599-.7-.228-1.139.258-1.44a36.926 36.926 0 0 1-5.207.931c.279.252-.244.711-.733 1.164Z" fill="#091426"/><path opacity=".04" d="M15.83 55.959a23.439 23.439 0 0 1-1.35-1.709c-.213.04-.423.087-.631.14.69.98 1.45 1.905 2.277 2.771.194-.085.39-.167.586-.247-.303-.31-.598-.628-.883-.955Zm47.584-4.96a7.163 7.163 0 0 1-.593 1.694 7.289 7.289 0 0 0 .611-1.694h-.018ZM49.557 61.915a36.548 36.548 0 0 1-9.567 2.126 52.39 52.39 0 0 1-4.337.191c-2.855 0-5.391-.284-7.54-.843-4.103-1.068-7.63-2.95-10.507-5.606-.192.09-.381.184-.568.283 2.76 2.592 6.343 4.705 10.927 5.898 2.282.595 4.872.862 7.688.862 1.408 0 2.874-.067 4.386-.193a36.61 36.61 0 0 0 12.372-3.268c-.931.277-1.887.46-2.854.55Zm-36.454-8.643c.213-.04.426-.075.638-.106a26.98 26.98 0 0 1-3.425-7.988c-1.168-4.65-1.548-8.036-1.227-10.976.304-2.792 1.255-5.095 2.587-7.694 1.037-2.025 4.656-5.165 8.798-7.636 3-1.79 8.924-4.804 14.907-4.89.227 0 .456-.005.68-.005 4.468 0 8.549.641 12.13 1.907 2.871 1.015 5.4 2.438 7.31 4.115 1.643 1.44 3.347 3.01 4.575 4.967 1.325 2.111 1.973 4.431 2.039 7.3.074 3.351-.288 6.347-.646 8.597-.096 1.644-.185 3.08-.132 4.09a.472.472 0 0 0 .155.325c.188.474.667.995 1.115 1.769l.06-.035c-.559-.978-1.174-1.555-1.219-2.133-.074-.966 1.408-6.165 1.26-12.627-.148-6.461-3.26-9.58-6.816-12.7-3.475-3.049-9.926-6.17-19.83-6.17-.229 0-.458 0-.69.005-10.297.149-22.164 8.831-24.224 12.85-2.74 5.347-3.852 9.358-1.407 19.088a27.618 27.618 0 0 0 3.362 7.947Zm50.42-3.64a6.848 6.848 0 0 0-.466-1.825l-.056.029c.25.597.413 1.227.485 1.87.015.136.023.272.022.409l.036-.005a3.45 3.45 0 0 0-.021-.478ZM38.529 93.241l-.049-.048.05.048Zm.103-.382.37-2.86.38-2.86c.252-1.907.495-3.815.73-5.724.116-.955.227-1.911.333-2.867l.158-1.435c.048-.48.102-.957.143-1.436l.064-.72.032-.359.026-.36c.034-.48.074-.96.092-1.442.012-.24.025-.481.034-.722.009-.24.014-.482.019-.722a25.85 25.85 0 0 0-.01-1.447c-.222 1.915-.45 3.82-.661 5.73-.107.954-.209 1.91-.322 2.864l-.328 2.865c-.214 1.91-.444 3.82-.667 5.729l-.34 2.869-.355 2.862-.026.201c.06.055.118.112.176.17l.05.048.05.05.052-.434Zm-3.73 19.364c.193-.778.381-1.557.566-2.338.168-.702.332-1.406.493-2.11l-.022.013a16.34 16.34 0 0 1-.5.287c-.14.567-.281 1.133-.425 1.698-.183.72-.37 1.438-.565 2.154h.121c.09.12.203.221.333.296Z" fill="#fff"/><path d="M63.486 49.706c-.297-2.512-1.645-3.55-1.994-4.428a.473.473 0 0 1-.155-.325c-.148-2.822.815-8.987-.074-13.666-.889-4.68-4-5.273-5.333-5.199-1.778.1-6.742 6.09-12.668 6.164-5.926.075-11.704-4.827-17.335-2.97-5.63 1.857-9.111 6.313-8.37 11.957.74 5.645 2.296 6.685 2.444 8.319.095 1.046-1.759 2.835-.963 6.462.815 3.713 8.223 8.095 17.705 8.095 2.963 0 5.482-2.153 8.37-2.302 1.72-.089 3.606.62 7.295-.446.106-.03.212-.061.322-.095 3.306-1.588 6-3.535 7.867-5.477 1.006-1.048 1.745-2.11 2.227-3.104.544-1.123.76-2.16.662-2.985Z" fill="#FFC5AF"/><path d="M42.878 50.28c.042.663 1.39.595 2.07.503.68-.091 1.453-.6 1.427-.816-.026-.218-.528-.928-1.926-.755-1.397.173-1.57 1.069-1.57 1.069Z" fill="#A34F3E" stroke="#8E4637" stroke-width=".891"/><path opacity=".03" d="M43.03 50.058c-.144.11-.101.315.036.43.138.115.338.16.53.196.885.166 1.859.205 2.656-.149.02-.008.04-.02.04-.037 0-.017-.04-.026-.04-.009-.843.618-1.884.884-3.014.787-.349-.03-.727-.115-.92-.352a.513.513 0 0 1 .014-.657c.16-.19.412-.229.697-.21Zm17.567 5.739c.915-.952 1.607-1.916 2.087-2.83-6.717 7.018-11.08 7.454-17.385 8.029-6.519.594-2.37-.297-8.445.445-5.643.69-12.816-.668-17.968-6.346.033.31.082.62.148.925.815 3.713 8.223 8.095 17.705 8.095 2.964 0 5.482-2.153 8.371-2.302 1.769-.09 3.712.661 7.615-.539 3.31-1.587 6.004-3.535 7.872-5.477Zm.666-24.51c-.889-4.68-4-5.273-5.333-5.199-1.69.094-6.243 5.496-11.767 6.108-.377.016-.752.035-1.128.056-5.847-.05-11.55-4.804-17.108-2.97-5.63 1.857-9.111 6.313-8.37 11.957.74 5.645 2.296 6.685 2.444 8.319a1.09 1.09 0 0 1-.012.257c.043-.28 1.826-.621 2.074-.676a17.485 17.485 0 0 1 2.84-.36c2.554-.131 5.125.153 7.63.651.265.053.531.097.799.132l.183.074.302.07c.063 0 .128-.005.193-.007a2.824 2.824 0 0 1-.141-.08c1.323.108 2.614-.044 3.778-.6 2.63-.755 5.295-1.838 7.726-1.69 3.63.224 3.63 1.486 5.556 1.04.305-.074.616-.229.95-.445.666-.237 1.249-.706 1.795-1.173.17-.146.338-.292.506-.44 1.598-.998 3.783-1.876 7.157-1.361-.148-2.82.815-8.984-.074-13.663Z" fill="#000D26"/><path d="M16.852 53.197c-3.111-.668-8.296 1.04-9.482 2.971-.74 1.04 0 1.709.815 1.114.815-.594 4.865-3.565 8.421-3.12.593.075.641-.792.246-.965Zm.593 3.441c-3.753 1.337-7.26 3.912-8.05 5.992-.345.841.494 1.584 1.235.841.74-.742 3.506-4.159 7.21-5.793.544-.197.1-1.139-.395-1.04Z" fill="#282828"/><path opacity=".3" d="M16.652 53.92c-.576.033-1.155.004-1.733.025a9.854 9.854 0 0 0-4.754 1.438c-.577.354-1.126.771-1.762.998-.271.098-.584.155-.838.02a.497.497 0 0 1-.204-.218c-.724 1.031.013 1.694.824 1.1.811-.595 4.865-3.566 8.421-3.12.282.036.444-.143.487-.359-.136.071-.287.11-.441.115Zm-6.022 9.55c.74-.742 3.506-4.159 7.21-5.793.251-.091.291-.34.213-.573-.165.223-.453.376-.718.492-.92.4-1.872.753-2.701 1.32-1.117.76-1.95 1.861-2.9 2.822-.46.465-.988.921-1.635 1.022-.173.026-.375.015-.488-.12a.539.539 0 0 1-.113-.252c-.038.08-.074.16-.103.238-.345.844.494 1.587 1.235.844Z" fill="#091426"/><path d="M70.553 51.117c-1.387-1.073-5.078-1.287-7.016-1.007a4.61 4.61 0 0 1-.11.891c2.474-.102 5.694.81 6.31 1.085.668.294 1.112-.151.816-.968ZM69.07 45.4c-.861-.2-4.27.371-6.412 1.613.147.256.277.521.39.794 1.88-.947 4.76-1.14 5.874-1.07 1.185.074 1.111-1.114.148-1.337Z" fill="#282828"/><path opacity=".3" d="m70.553 51.117-.047-.033a1.05 1.05 0 0 1-.35.284c-.47.23-1.026.161-1.543.074a27.002 27.002 0 0 1-3.732-.923.489.489 0 0 1-.161-.074c-.177-.144-.117-.287-.013-.431-.05 0-.099 0-.148.007-.07 0-.138.007-.205.01h-.037l-.174.013h-.025l-.193.018h-.014l-.172.019h-.024l-.178.023c-.007.3-.044.599-.11.892l.232-.007h.244c.49.006.98.038 1.468.095a20.74 20.74 0 0 1 1.68.267l.222.045c.297.063.58.128.842.193l.187.047h.01l.174.046h.012l.164.045h.012l.156.044h.007c.103.03.201.059.29.087h.005l.124.04h.012l.108.035.014.005.095.032.013.005.083.03h.01l.075.028h.006l.061.026c.672.321 1.117-.124.82-.941Zm-1.503-4.381h.094l.063-.008h.022l.073-.015.016-.004a.84.84 0 0 0 .056-.017l.023-.007a.44.44 0 0 0 .045-.018l.02-.008a.683.683 0 0 0 .052-.026l.008-.004a.607.607 0 0 0 .051-.033l.015-.011a.295.295 0 0 0 .033-.027l.015-.013.029-.03.01-.012a.362.362 0 0 0 .034-.043l.005-.008a.42.42 0 0 0 .047-.088l.007-.017c.004-.013.009-.026.012-.04.004-.013 0-.007 0-.011a.5.5 0 0 0 .01-.051v-.128c0-.006 0-.034-.006-.051v-.01c0-.016-.007-.031-.01-.047-.004-.016 0-.013-.006-.02-.006-.006-.008-.023-.012-.034a.461.461 0 0 0-.024-.058c0-.005-.005-.011-.008-.017a1.889 1.889 0 0 0-.027-.05c0-.005-.008-.011-.01-.016l-.025-.036-.014-.019-.025-.031-.016-.018-.035-.037-.01-.01a2.506 2.506 0 0 1-.528.398c-.46.26-.982.39-1.502.49a14.47 14.47 0 0 1-3.281.243.816.816 0 0 1-.277-.046.444.444 0 0 1-.238-.266c-.08.034-.158.069-.237.104l-.084.038c-.05.023-.1.045-.148.07l-.1.047-.126.064-.105.055-.115.06-.105.06-.062.036c.147.255.277.52.39.794.045-.024.09-.045.136-.067l.048-.023.129-.057.061-.027a4.76 4.76 0 0 1 .127-.052l.068-.028.127-.049.074-.026.128-.046.074-.026.13-.042.074-.024.13-.04.08-.024.131-.037.079-.021.142-.04.074-.02.136-.032.075-.018c.045-.011.092-.022.138-.031l.074-.017.142-.03.067-.012.148-.03.054-.009.162-.029h.01c.192-.032.383-.062.57-.087l.041-.005.137-.017.074-.009.123-.014.08-.009.117-.012.084-.008.11-.01.087-.008.103-.008.088-.006c.032-.003.065-.005.097-.006l.088-.006.092-.005.087-.005h.965l.114.006h.098l.033-.008Z" fill="#091426"/><path d="M41.077 13.684c1.852.52 4.889 3.12 5.926 3.343 1.037.223 1.16-.347 1.16-.347 2 .223 5.878 2.426 6.915 3.392.518.594 1.11 1.04 1.11-.149 0-1.188.445-10.175-2-12.255-2.922-2.485-11.556 3.343-13.112 6.016Z" fill="#282828"/><path opacity=".3" d="M47.788 16.934c-.155.01-.31.004-.464-.017-.822-.13-1.39-.901-1.714-1.67-.76-1.8-.335-4.267.586-5.973-2.354 1.425-4.43 3.227-5.12 4.41 1.853.52 4.89 3.12 5.927 3.343.344.074.599.016.785-.093Zm.83.093a.245.245 0 0 1-.158-.397c.632-.77 1.49-2.814 1.778-3.516.345-.841 1.482-3.515 1.975-3.911.493-.396.988-.495 1.285-.446.296.05.69.545.889 1.386.197.842.79 5.2.839 6.09.05.892.543 2.774.246 2.922-.296.149-1.246-.722-1.926-1.09-.64-.346-2.419-1.039-3.407-1.138-.479-.049-1.114.155-1.521.1Z" fill="#091426"/><path d="M36.904 53.222a2.05 2.05 0 0 1-.496.283c-.353.142-.73.218-1.111.222a2.286 2.286 0 0 1-.567-.06c.186-.047.37-.078.55-.114l.537-.103c.18-.036.358-.075.537-.111.18-.038.36-.08.55-.117Zm-.643.184c.588.46 1.228.849 1.908 1.156a11.62 11.62 0 0 0 2.111.732c.725.175 1.464.282 2.208.32a11.15 11.15 0 0 0 2.223-.136 10.202 10.202 0 0 0 2.148-.594 11.43 11.43 0 0 0 2-1.009c.16-.098.313-.206.47-.31.079-.05.154-.105.23-.162l.221-.168c.3-.225.59-.465.868-.718.14-.126.273-.258.41-.388l.194-.203.098-.102.093-.105c.06-.075.123-.142.183-.215l.173-.222c.058-.074.107-.149.161-.229a1.15 1.15 0 0 0 .075-.117l.068-.12.123.055c-.165.351-.375.68-.624.977l-.09.115-.094.109-.187.223c-.133.139-.261.283-.398.418-.274.27-.56.527-.857.772l-.227.18c-.074.059-.148.119-.23.174-.157.11-.31.227-.47.334l-.488.311-.504.285c-.083.05-.172.088-.258.132l-.26.128c-.17.09-.352.159-.53.233-.716.3-1.463.515-2.228.643-.764.131-1.54.18-2.314.149a11.59 11.59 0 0 1-2.29-.349 11.16 11.16 0 0 1-2.173-.8 9.002 9.002 0 0 1-1.938-1.271l.195-.228Z" fill="#8D5548"/><path opacity=".03" d="M36.199 53.477c.185.074.347.167.53.23l.262.109c.087.034.176.066.264.099.087.032.174.066.261.096l.266.088c.172.062.35.111.526.163.693.202 1.398.356 2.112.46l.262.04.265.026c.088.008.175.02.262.03.087.011.176.013.263.02l.262.016.132.01h.13c.175 0 .349.01.523.011.174 0 .347-.009.519-.012.086 0 .172-.01.258-.016l.259-.02c.172-.006.342-.032.513-.052l.256-.032c.086-.007.17-.031.254-.044.17-.031.34-.055.508-.09.169-.036.333-.084.5-.122.085-.017.168-.04.25-.067l.248-.074c.083-.025.167-.046.248-.074l.246-.086c.667-.23 1.315-.51 1.94-.836a17.936 17.936 0 0 0 1.864-1.114c.155-.1.297-.213.453-.319l.222-.167.112-.084.109-.087.222-.177.213-.183c.074-.061.137-.127.207-.192.037-.032.066-.068.097-.102l.097-.104.102.045-.066.13c-.023.044-.044.088-.074.128-.052.081-.1.166-.156.244l-.168.234c-.058.074-.12.149-.18.223l-.09.112-.095.108-.19.215c-.134.137-.264.277-.402.41a12.6 12.6 0 0 1-1.792 1.432c-.64.422-1.321.779-2.032 1.066-.71.293-1.45.505-2.207.633-.757.123-1.525.167-2.292.133a11.848 11.848 0 0 1-2.267-.346 11.425 11.425 0 0 1-2.155-.78 9.17 9.17 0 0 1-1.926-1.247l.075-.084Z" fill="#000"/><path opacity=".03" d="M36.223 53.449a9 9 0 0 0 1.9 1.204 11.325 11.325 0 0 0 4.357 1.094 10.88 10.88 0 0 0 2.25-.141 10.066 10.066 0 0 0 2.17-.614c.7-.28 1.37-.628 2-1.04a12.564 12.564 0 0 0 1.775-1.4c.137-.13.267-.267.4-.4l.19-.21.094-.104.09-.109c.059-.074.12-.149.178-.218l.166-.223c.056-.074.102-.156.153-.234a.957.957 0 0 0 .067-.12l.064-.12.168.074-.052.14a1.16 1.16 0 0 1-.06.139c-.044.087-.085.179-.134.264l-.148.256c-.053.082-.108.162-.163.244l-.083.122-.088.117-.177.236c-.123.149-.247.304-.379.446-.264.291-.54.57-.83.837l-.222.194c-.074.064-.148.13-.227.19-.156.12-.308.247-.468.362l-.486.344c-.166.106-.337.21-.506.314-.084.054-.174.098-.261.148l-.264.142c-.174.1-.36.175-.541.26-.734.334-1.505.579-2.297.73l-.148.03a1.53 1.53 0 0 1-.148.026l-.301.036c-.2.027-.4.058-.603.067l-.303.019c-.1.004-.202.015-.303.012h-.607c-.202-.01-.404-.022-.606-.038l-.148-.012-.148-.02-.3-.04c-.1-.015-.202-.024-.297-.044l-.296-.057-.297-.057c-.097-.023-.195-.051-.296-.074a7.843 7.843 0 0 1-2.215-.953 6.024 6.024 0 0 1-.495-.348 4.81 4.81 0 0 1-.462-.393c-.074-.074-.148-.136-.216-.211-.069-.076-.137-.149-.202-.228-.032-.039-.066-.075-.097-.116a3.383 3.383 0 0 1-.09-.125c-.056-.085-.116-.166-.168-.254l.11-.144Z" fill="#000"/><path d="M51.176 50.82c.196.02.392.016.587-.009.194-.019.388-.044.584-.065.196-.02.394-.04.593-.047.203-.013.406.003.604.047l-.584.127a6.149 6.149 0 0 1-.593.095c-.201.023-.404.03-.607.017a1.227 1.227 0 0 1-.584-.164Z" fill="#8D5548"/><path d="M11 27.648c-.74-7.576 4.297-18.42 10.223-19.608 2.297-.46 7.927 5.645 8.964 8.096.444 1.04-1.482.37-3.852 1.04-2.37.668-6.37 3.565-6.52 4.233-.147.668.445 3.416-.147 4.159-.593.743-3.482.347-5.136.52-1.61.168-2.42.742-3.532 1.56Z" fill="#282828"/><path opacity=".3" d="M14.793 18.73c-.352-1.73-.312-3.516-.063-5.266-2.588 4.091-4.168 9.708-3.73 14.184 1.111-.817 1.922-1.392 3.532-1.56a11.61 11.61 0 0 1 1.09-.05c.213-.243.416-.495.61-.754.404-.545.963-.954 1.523-1.256-1.57-1.332-2.55-3.277-2.962-5.297Zm15.434-2.217c-.24.049-.528-.07-.768-.182a7.517 7.517 0 0 0-1.898-.594.713.713 0 0 1-.296-.095.706.706 0 0 1-.177-.223 19.038 19.038 0 0 0-3.636-4.44c-.684-.616-1.54-1.216-2.445-1.045-.767.145-1.327.817-1.684 1.511-.448.876-.68 1.845-.874 2.81a42.292 42.292 0 0 0-.82 7.443c-.004.23-.007.464.067.681.074.218.24.418.463.47.601.137 1.212-.4 1.643-.795a2.755 2.755 0 0 1 .014-.645c.148-.669 4.148-3.565 6.519-4.234 1.995-.563 3.676-.178 3.892-.662Z" fill="#091426"/><path d="M33.204 49.294c1.047.04 2.397.394 3.042.654 1.556-1.024 2.377-4.619 1.645-8.164a6.992 6.992 0 0 0-.882-2.232c-1.71-2.798-5.118-3.943-6.674-1.779-1.116 1.55-1.222 3.714 0 7.031.495 1.345 1.111 2.465 1.823 3.331.322.409.672.796 1.046 1.16Z" fill="#D9E9E6"/><path d="M30.297 44.819a17.203 17.203 0 0 1-.661-2.141 8.63 8.63 0 0 1-.238-2.232 4.995 4.995 0 0 1 .547-2.177c.046-.083.09-.167.138-.248l.156-.238c.025-.04.053-.078.084-.115l.087-.113c.062-.075.128-.142.194-.211.274-.27.603-.477.963-.61a3.08 3.08 0 0 1 1.127-.161c.378.02.752.093 1.111.215.713.25 1.37.64 1.93 1.146a6.958 6.958 0 0 1 1.415 1.74 7.06 7.06 0 0 1 .78 2.102l-.08.016a8.789 8.789 0 0 0-1.08-1.897 7.503 7.503 0 0 0-1.463-1.473l-.206-.148c-.07-.048-.14-.093-.21-.139l-.214-.13-.217-.122a4.914 4.914 0 0 0-.897-.364 3.478 3.478 0 0 0-.898-.142 2.33 2.33 0 0 0-.823.127 1.94 1.94 0 0 0-.677.416c-.048.05-.098.097-.148.149l-.068.081-.034.041c-.012.014-.022.032-.034.048l-.135.192-.122.202a2.006 2.006 0 0 0-.112.207 1.95 1.95 0 0 0-.1.214l-.09.222-.074.23a2.134 2.134 0 0 0-.065.235c-.019.08-.043.157-.055.24l-.046.245c-.015.083-.02.168-.032.252-.083.673-.054 1.387.016 2.11.07.723.197 1.457.307 2.208l-.076.023Z" fill="#C6D9D5"/><path d="M32.158 48.135a9.502 9.502 0 0 1-1.357-1.998 13.378 13.378 0 0 1-.725-1.67 21.9 21.9 0 0 1-.2-.572c-.032-.096-.066-.192-.094-.289l-.087-.292c-.06-.194-.105-.393-.153-.59-.048-.198-.084-.399-.124-.599-.022-.1-.033-.201-.048-.302a6.94 6.94 0 0 1-.043-.304l-.027-.307c0-.05-.009-.102-.012-.153v-.155c0-.103-.006-.206-.005-.309l.013-.31c.023-.415.093-.827.208-1.226.123-.4.298-.783.519-1.137a3.12 3.12 0 0 1 .854-.933 2.7 2.7 0 0 1 .566-.297c.1-.04.2-.073.303-.1.052-.014.104-.024.156-.035l.074-.018.078-.01.158-.022.157-.01.079-.004h.236c.209.012.416.04.62.086a4.6 4.6 0 0 1 1.157.427c.362.191.702.42 1.017.681a6.48 6.48 0 0 1 1.531 1.866 7.119 7.119 0 0 0-1.644-1.723 5.6 5.6 0 0 0-1.555-.824 4.378 4.378 0 0 0-.563-.142 3.552 3.552 0 0 0-.573-.06h-.217l-.074.006-.142.011-.14.023-.062.014-.069.016c-.045.012-.092.021-.137.034-.09.028-.18.06-.268.098-.26.108-.498.26-.705.452-.034.032-.074.061-.102.095l-.095.104a1.09 1.09 0 0 0-.09.109l-.088.111-.159.241c-.201.329-.36.682-.471 1.051a5.17 5.17 0 0 0-.202 1.144l-.014.292v.446c0 .049.006.098.01.148l.02.297c.087.789.246 1.568.476 2.327.22.767.492 1.518.815 2.248.324.73.725 1.421 1.197 2.064Z" fill="#8D5548"/><path d="M53.401 46.76c.486-.575.927-1.343 1.288-2.22 1.194-2.902 1.59-7.041-.278-9.056-1.457-1.573-3.517.062-4.432 2.364a14.374 14.374 0 0 0-.68 2.203c-.518 2.414-.166 6.74.741 7.65.587.588 1.386.404 1.97.133a8.888 8.888 0 0 1 1.391-1.073Z" fill="#D9E9E6"/><path d="M54.652 44.524c.1-.655.21-1.287.271-1.922.06-.635.117-1.258.128-1.877.017-.61-.008-1.22-.074-1.825a8.795 8.795 0 0 0-.144-.873 5.787 5.787 0 0 0-.238-.822 4.275 4.275 0 0 0-.346-.742l-.105-.17-.114-.163-.123-.152c-.042-.044-.074-.089-.118-.13a1.482 1.482 0 0 0-.245-.198c-.082-.05-.17-.09-.26-.12a1.187 1.187 0 0 0-.632.006 2.549 2.549 0 0 0-.72.33c-.249.16-.481.342-.694.546-.452.412-.842.914-1.222 1.453l-.074-.031c.233-.61.554-1.183.955-1.699.202-.258.431-.494.683-.703.253-.213.539-.384.846-.506.157-.057.32-.098.485-.12.167-.017.337-.012.503.016a1.8 1.8 0 0 1 .477.165c.147.08.284.177.41.288.49.451.827 1.04 1.056 1.65.111.31.199.626.262.948.06.32.102.645.125.971a11.279 11.279 0 0 1-.043 1.952 13.47 13.47 0 0 1-.35 1.918 13.796 13.796 0 0 1-.624 1.845l-.075-.035Z" fill="#C6D9D5"/><path d="M54.689 44.54a15.94 15.94 0 0 0 .8-3.77c.057-.635.06-1.274.007-1.91a8.87 8.87 0 0 0-.132-.94 6.168 6.168 0 0 0-.257-.905 4.673 4.673 0 0 0-.4-.842l-.126-.194-.139-.185-.148-.175c-.052-.055-.104-.11-.158-.16a1.92 1.92 0 0 0-.357-.26 1.533 1.533 0 0 0-.407-.15 1.602 1.602 0 0 0-.434-.022 2.037 2.037 0 0 0-.437.096 2.91 2.91 0 0 0-.803.453c-.25.193-.479.412-.683.654a7.107 7.107 0 0 0-1.037 1.619 6.15 6.15 0 0 1 .894-1.734c.197-.267.422-.51.672-.729.253-.225.542-.406.855-.536.162-.062.33-.107.502-.133.356-.047.718.017 1.037.182.233.122.442.284.62.478l.166.192.154.202c.048.07.094.14.14.21.177.287.325.59.44.905.22.628.352 1.283.39 1.947a10.901 10.901 0 0 1-.016 1.479 12.44 12.44 0 0 1-.449 2.406c-.18.625-.412 1.235-.694 1.821Z" fill="#8D5548"/><path d="M51.152 48.778a6.06 6.06 0 0 1 .912-1.114c.346-.337.723-.64 1.126-.903.1-.068.205-.127.31-.188.052-.03.103-.062.156-.09l.162-.083.161-.081c.055-.025.111-.048.167-.074.11-.051.222-.095.336-.134.451-.167.927-.26 1.408-.272a6.944 6.944 0 0 0-1.347.434c-.11.044-.213.098-.319.148a4.561 4.561 0 0 1-.158.075l-.154.085-.154.084c-.051.029-.101.06-.149.09-.1.06-.201.12-.296.188a9.2 9.2 0 0 0-.578.404 13.99 13.99 0 0 0-.552.44c-.362.31-.707.641-1.032.991Z" fill="#894733"/><path d="M50.559 47.776h-.048c-.95-.062-1.638-1.924-1.5-4.068.135-2.118 1.014-3.842 1.958-3.842h.048c.435.028.849.46 1.133 1.183.306.781.436 1.804.37 2.883-.14 2.122-1.019 3.843-1.961 3.843Z" fill="#A34F3E"/><path d="M50.967 39.68v.371h.035c.742.047 1.47 1.649 1.329 3.87-.066 1.031-.311 1.99-.69 2.697-.33.617-.725.972-1.084.972h-.037c-.74-.048-1.47-1.649-1.327-3.87.066-1.03.31-1.989.69-2.697.33-.618.725-.971 1.084-.971v-.372Zm0 0c-1.047 0-2 1.773-2.144 4.017-.148 2.285.603 4.194 1.674 4.263h.06c1.047 0 2-1.773 2.143-4.016.149-2.287-.603-4.195-1.674-4.264h-.059Z" fill="#8E4637"/><path d="M34.387 49.07c-1.247 0-2.479-1.67-2.803-3.8-.348-2.288.436-4.313 1.747-4.513.07-.011.14-.017.21-.017 1.247 0 2.478 1.67 2.803 3.8.349 2.288-.435 4.308-1.748 4.513a1.46 1.46 0 0 1-.209.016Z" fill="#A34F3E"/><path d="M33.541 40.555v.371c.53 0 1.089.35 1.57.986.519.685.893 1.629 1.05 2.656.167 1.092.074 2.154-.26 2.983-.31.766-.783 1.234-1.334 1.319-.06.009-.12.013-.181.014-.53 0-1.088-.35-1.57-.986-.52-.686-.89-1.629-1.05-2.657-.328-2.15.402-4.119 1.592-4.3.06-.01.121-.015.182-.015v-.371h.001Zm-.001 0c-.08 0-.159.006-.237.018-1.412.22-2.266 2.332-1.902 4.725.345 2.258 1.65 3.957 2.986 3.957.08 0 .159-.006.237-.019 1.416-.216 2.268-2.332 1.903-4.724-.344-2.259-1.65-3.958-2.986-3.958h-.001Z" fill="#8E4637"/><path d="M36.52 50.078a4.464 4.464 0 0 0-.529-.167 17.073 17.073 0 0 0-.537-.135 14.91 14.91 0 0 0-.54-.12c-.18-.037-.36-.075-.541-.108a13.35 13.35 0 0 0-1.089-.163 4.83 4.83 0 0 0-.548-.03 2.327 2.327 0 0 0-.549.055c.17-.085.352-.14.54-.164a3.7 3.7 0 0 1 .566-.035c.188 0 .376.016.563.034a8.519 8.519 0 0 1 1.645.364 6.3 6.3 0 0 1 .526.198c.174.072.34.163.494.27Z" fill="#894733"/><path d="M34.64 42.933c.333-.073.456-.804.276-1.632-.18-.829-.597-1.441-.93-1.368-.333.073-.456.803-.276 1.632.18.828.597 1.44.93 1.368Zm17.026-.943c.341-.006.607-.698.593-1.546-.013-.847-.3-1.53-.641-1.525-.341.006-.606.697-.593 1.545.014.848.3 1.53.641 1.525Z" fill="#fff"/></g><defs><clipPath id="a"><path fill="#fff" d="M0 0h78v78H0z"/></clipPath></defs></svg>