<svg fill="none" height="50" viewBox="0 0 50 50" width="50" xmlns="http://www.w3.org/2000/svg"><g fill="#f692ce"><path d="m19.6428 6.24998c0-.49311-.3997-.89285-.8929-.89285h-11.6071c-.49311 0-.89285.39974-.89285.89285v9.82142c0 .4931.39974.8929.89285.8929h.85744c.4887 0 .8866.3929.89278.8815l.01159.9158 2.14599-1.6175c.1549-.1167.3435-.1798.5374-.1798h1.8376c.4931 0 .8929.3997.8929.8928s-.3998.8929-.8929.8929h-1.5388l-3.31526 2.4987c-.26875.2026-.62857.2368-.93069.0886-.30213-.1483-.49524-.4538-.4995-.7903l-.02274-1.7971c-1.46819-.013-2.65438-1.2072-2.65438-2.6785v-9.82142c0-1.47933 1.19924-2.67857 2.67857-2.67857h11.6071c1.4794 0 2.6786 1.19924 2.6786 2.67857v5.39932c0 .4931-.3997.8929-.8928.8929s-.8929-.3998-.8929-.8929z"/><path d="m30.3571 6.24998c0-.49311.3997-.89285.8928-.89285h11.6072c.4931 0 .8928.39974.8928.89285v9.82142c0 .4931-.3997.8929-.8928.8929h-.8574c-.4888 0-.8867.3929-.8928.8815l-.0116.9158-2.146-1.6175c-.1549-.1167-.3435-.1798-.5374-.1798h-1.7722c-.4931 0-.8929.3997-.8929.8928s.3998.8929.8929.8929h1.4734l3.3153 2.4987c.2687.2026.6285.2368.9306.0886.3022-.1483.4953-.4538.4995-.7903l.0228-1.7971c1.4682-.013 2.6544-1.2072 2.6544-2.6785v-9.82142c0-1.47933-1.1993-2.67857-2.6786-2.67857h-11.6072c-1.4793 0-2.6785 1.19924-2.6785 2.67857v5.40702c0 .4932.3997.8929.8928.8929s.8929-.3997.8929-.8929z"/><path d="m10.2678 9.82141c.7393 0 1.3393.59929 1.3393 1.33979 0 .7386-.6 1.3388-1.3393 1.3388s-1.33928-.6002-1.33928-1.3388c0-.7405.59998-1.33979 1.33928-1.33979z"/><path d="m16.9642 11.1612c0-.7405-.5999-1.33979-1.3393-1.33979-.7393 0-1.3392.59929-1.3392 1.33979 0 .7386.5999 1.3388 1.3392 1.3388.7394 0 1.3393-.6002 1.3393-1.3388z"/><path d="m34.3745 9.82141c.7395 0 1.3397.59929 1.3397 1.33979 0 .7386-.6002 1.3388-1.3397 1.3388-.7396 0-1.3388-.6002-1.3388-1.3388 0-.7405.5992-1.33979 1.3388-1.33979z"/><path d="m41.0714 11.1612c0-.7405-.6002-1.33979-1.3398-1.33979s-1.3388.59929-1.3388 1.33979c0 .7386.5992 1.3388 1.3388 1.3388s1.3398-.6002 1.3398-1.3388z"/></g><path d="m34.1697 31.1696-.1072-.125c-.5357-.6429-1.3214-1.5893-2.8571-1.7768l2.5625-10.3125c.2857-1.1071.1875-2.1696-.2946-2.9911-.4286-.7321-1.134-1.241-2.0447-1.4821-2.7678-.7143-4.0446 1.1429-4.375 2.3839l-1.616 7.0179-1.5447-6.6964c-.1518-.634-.5625-1.8036-1.6696-2.4643-.5536-.3304-1.4911-.6429-2.8304-.2679-1.9018.5268-2.7589 2.1875-2.3036 4.4554l.0804.3839c1.2321 5.7589 1.9643 9.2054 2.2054 10.3571.0089.0447.0357.0804.0535.1161-.3928.5-.6428 1.1161-.6696 1.7947-.4107-.1965-.8661-.3125-1.3482-.3125-1.7232 0-3.125 1.4017-3.125 3.125v2.6785c0 1.7232 1.4018 3.125 3.125 3.125 1.3928 0 2.5625-.9196 2.9643-2.1875.4464.25.9553.4018 1.5.4018 1.2589 0 2.3482-.7589 2.8392-1.8393.4643.2768.9733.4286 1.4554.4554.5179.0268.9286-.0804 1.2857-.2054.1697-.0535 2.5-.9018 2.8393-1.0268.4643-.1785.6875-.6875.5178-1.1517-.1785-.4643-.6964-.6875-1.1517-.5179-.3393.125-2.625.9554-2.7947 1.0089-.2678.0982-.4018.125-.5893.1072-.5267-.0268-1.1517-.4018-1.25-1.1518-.0625-.4286.0358-.7679.3125-1.0804.25-.2857.6518-.4821 1.0804-.6696.5446-.2411 1.9375-.8304 3-1.125 2.0089-.5536 2.5982.1607 3.2768.9821l.1071.134c.7411.8839 1.1429 2.3125 1.125 3.9464v.0089c0 4.7054-3.5714 8.25-8.2946 8.25-2.6964 0-4.8036-.75-6.4464-2.2946-.3572-.3393-.9286-.3215-1.259.0357-.3393.3571-.3214.9196.0357 1.2589 1.9554 1.8393 4.5358 2.7768 7.6697 2.7768 5.5982 0 9.8393-4.0893 10.0625-9.5804 0-.0267.0178-.0535.0178-.0892.0893-2.1875-.4732-4.1875-1.5446-5.4554zm-15.4196 5.8839c0 .7411-.5983 1.3393-1.3393 1.3393-.7411 0-1.3393-.5982-1.3393-1.3393v-2.6785c0-.7411.5982-1.3393 1.3393-1.3393.741 0 1.3393.5982 1.3393 1.3393v.8928zm4.4642-1.7857c0 .7411-.5982 1.3393-1.3392 1.3393-.7411 0-1.3393-.5982-1.3393-1.3393v-.8928-2.6786c0-.7411.5982-1.3393 1.3393-1.3393.741 0 1.3392.5982 1.3392 1.3393zm2.4822-4.5714c-.25.1071-.5089.2321-.7589.375-.2947-1.4286-1.5536-2.5-3.0625-2.5-.3036 0-.5893.0536-.8661.1428-.3304-1.5267-1.0179-4.7857-2.0893-9.7857l-.0804-.375c-.4017-1.9821.634-2.2678 1.0268-2.375.5893-.1607 1.0715-.1339 1.4375.0804.5625.3303.7768 1.0446.8393 1.3303l2.4197 10.4733c.0892.4017.4553.6964.866.6964s.7768-.2857.8661-.6875l2.4821-10.7589c.1518-.5804.6429-1.4822 2.1875-1.0804.4554.1161.7679.3304.9554.6518.2411.4018.2768.9821.1071 1.6428l-2.6964 10.875c-.1339.0268-.2589.0536-.3928.0893-1.134.3036-2.5179.884-3.2411 1.2054z" fill="#ec6cb9"/></svg>