<svg fill="none" height="424" viewBox="0 0 557 424" width="557" xmlns="http://www.w3.org/2000/svg" xmlns:xlink="http://www.w3.org/1999/xlink"><linearGradient id="a" gradientUnits="userSpaceOnUse" x1="167.488" x2="327.283" y1="132.432" y2="296.992"><stop offset=".27" stop-color="#6fdd8b"/><stop offset=".97" stop-color="#49bcb7"/></linearGradient><linearGradient id="b" gradientUnits="userSpaceOnUse" x1="265.797" x2="205.082" y1="302.437" y2="175.359"><stop offset=".27" stop-color="#6fdd8b"/><stop offset=".8" stop-color="#49bcb7"/></linearGradient><linearGradient id="c" gradientUnits="userSpaceOnUse" x1="52.9563" x2="278.661" y1="207.463" y2="207.463"><stop offset=".13" stop-color="#59626c"/><stop offset=".23" stop-color="#949aa0"/><stop offset=".32" stop-color="#c2c5c9"/><stop offset=".4" stop-color="#e3e5e6"/><stop offset=".47" stop-color="#f8f8f8"/><stop offset=".51" stop-color="#fff"/><stop offset=".59" stop-color="#f9fafa"/><stop offset=".7" stop-color="#e9ebed"/><stop offset=".81" stop-color="#ced2d6"/><stop offset=".94" stop-color="#a8afb7"/><stop offset="1" stop-color="#949da7"/></linearGradient><linearGradient id="d"><stop offset=".34" stop-color="#6fdd8b"/><stop offset=".82" stop-color="#49bcb7"/></linearGradient><linearGradient id="e" gradientUnits="userSpaceOnUse" x1="108.249" x2="144.936" xlink:href="#d" y1="210.254" y2="210.776"/><linearGradient id="f" gradientUnits="userSpaceOnUse" x1="33.7621" x2="207.692" y1="164.015" y2="164.015"><stop offset=".52" stop-color="#6fdd8b"/><stop offset=".75" stop-color="#49bcb7"/></linearGradient><linearGradient id="g" gradientUnits="userSpaceOnUse" x1="10451.5" x2="12279.5" xlink:href="#d" y1="3440.3" y2="3440.3"/><linearGradient id="h" gradientUnits="userSpaceOnUse" x1="8765.13" x2="9897.96" xlink:href="#d" y1="3075.3" y2="3075.3"/><linearGradient id="i" gradientUnits="userSpaceOnUse" x1="135.223" x2="223.209" y1="241.541" y2="241.541"><stop offset="0" stop-color="#59626c"/><stop offset=".11" stop-color="#949aa0"/><stop offset=".2" stop-color="#c2c5c9"/><stop offset=".29" stop-color="#e3e5e6"/><stop offset=".36" stop-color="#f8f8f8"/><stop offset=".4" stop-color="#fff"/><stop offset=".5" stop-color="#f9fafa"/><stop offset=".63" stop-color="#e9ebed"/><stop offset=".77" stop-color="#ced2d6"/><stop offset=".93" stop-color="#a8afb7"/><stop offset="1" stop-color="#949da7"/></linearGradient><linearGradient id="j" gradientUnits="userSpaceOnUse" x1="5955.97" x2="6404.3" xlink:href="#d" y1="2832.47" y2="2832.47"/><linearGradient id="k" gradientUnits="userSpaceOnUse" x1="86.2383" x2="104.865" y1="117.435" y2="117.435"><stop offset=".13" stop-color="#59626c"/><stop offset=".32" stop-color="#949aa0"/><stop offset=".49" stop-color="#c2c5c9"/><stop offset=".64" stop-color="#e3e5e6"/><stop offset=".76" stop-color="#f8f8f8"/><stop offset=".84" stop-color="#fff"/></linearGradient><linearGradient id="l" gradientUnits="userSpaceOnUse" x1="1280.54" x2="1502.36" xlink:href="#d" y1="3093.12" y2="3117.03"/><path d="m354.054 363.31h-141.122v1.702h141.122z" fill="#57606a"/><path d="m49.8911 82.5406h-1.7016v73.7144h1.7016z" fill="#57606a"/><path d="m87.3071 45.2406h-1.7016v50.2323h1.7016z" fill="#57606a"/><path d="m133.592 149.63h-1.701v259.125h1.701z" fill="#57606a"/><path d="m175.768 264.071h-1.702v154.259h1.702z" fill="#57606a"/><path d="m393.348 213.498h-1.702v101.146h1.702z" fill="#57606a"/><path d="m360.682 278.41h-1.702v79.046h1.702z" fill="#57606a"/><path d="m328.713 307.52h-1.701v77.231h1.701z" fill="#57606a"/><path d="m296.745 306.702h-1.702v95.337h1.702z" fill="#57606a"/><path d="m123.066 65.5016h-61.1226v1.7016h61.1226z" fill="#57606a"/><path d="m69.4746 115.62h-42.6543v1.702h42.6543z" fill="#57606a"/><path d="m388.267 313.804h-109.335v1.702h109.335z" fill="#57606a"/><path d="m209.961 42.6996c22.573-.2603 44.973 3.9609 65.903 12.419s39.973 20.9851 56.027 36.8553c16.055 15.8701 28.8 34.7681 37.499 55.5991s13.178 43.181 13.178 65.755-4.479 44.924-13.178 65.755-21.444 39.729-37.499 55.599c-16.054 15.871-35.097 28.398-56.027 36.856s-43.33 12.679-65.903 12.419" fill="url(#a)"/><path d="m209.961 384.819c-45.14-.519-88.256-18.816-119.993-50.92-31.7371-32.104-49.5364-75.427-49.5364-120.571 0-45.143 17.7993-88.466 49.5364-120.5707 31.737-32.1044 74.853-50.4007 119.993-50.9199v1.7016c-44.691.5167-87.376 18.6325-118.7961 50.418-31.4202 31.786-49.0414 74.677-49.0414 119.371s17.6212 87.586 49.0414 119.371c31.4201 31.786 74.1051 49.902 118.7961 50.418z" fill="#57606a"/><path d="m39.3165 214.179h-.8849v-.907c.0481-45.467 18.1293-89.058 50.2769-121.2096 32.1475-32.1518 75.7365-50.2388 121.2025-50.2929h.953v143.4135l-51.752 18.287-60.329 10.709zm.8622-1.701h58.4454l60.0559-10.551 50.482-17.855v-140.4874c-44.722.2558-87.542 18.1292-119.1745 49.7449-31.6327 31.6155-49.529 74.4255-49.8088 119.1485z" fill="#57606a"/><path d="m148.838 128.099-12.343-8.894 4.061-7.464-5.422-5.423-13.046 8.576-5.354 6.262-13.273-2.926-11.299-5.105-3.4033 2.087-.0907 21.554 8.1224 23.142 3.9476 1.475 1.112 7.533 9.506 3.811-1.202 13.591-9.053 7.373v7.646l8.213 8.146 1.657 6.647 13.454 8.645h6.171l4.674 11.344-2.337 12.32 7.147 13.681 8.554-.477 1.247-3.358 9.711-.181 16.245 18.945 7.283 18.99 45.127 20.964 16.518-9.869 10.368.136 6.421 19.603 22.439 5.785h19.353l12.819 5.423 5.808-11.095-.635-8.19 8.395-3.268 10.482-.635 2.087-7.396-1.588-2.201-4.787-.726-.772-14.702-11.843-3.948-14.294-20.215 13.069-16.654-1.724-6.534-11.095-1.475-4.084-26.386 5.445-5.922-5.309-1.475 1.112-11.231 3.312-.249.885-4.924 4.425-16.267-1.112-8.032-.976-8.985-10.845.25-10.618-7.896-2.7-6.92-7.283-3.335-5.922 1.498-11.457-4.947-3.948-5.898-11.231.363-20.578 8.508-11.98 15.541-26.636 4.81-13.182-3.834-9.983-10.845-11.594-1.611-4.197-4.311z" fill="url(#b)"/><path d="m209.824 156.006-20.056 3.607-13.182-3.811-9.983-10.868-11.594-1.588-4.197-4.311-1.974-10.868-12.343-8.871 4.061-7.465-5.422-5.422-13.046 8.576-5.354 6.262-13.273-2.949-11.299-5.083-3.4033 2.065-.0907 21.554 8.1224 23.142 3.9476 1.498 1.112 7.51 9.506 3.834-3.221 14.725-7.034 6.239v7.646l8.213 8.123 1.657 6.67 13.454 8.622h6.171l4.674 11.344-2.518 13.114 7.056 14.021h9.642l.431-4.968 9.711-.182 16.245 18.968 7.283 18.967 26.704 12.411z" fill="url(#c)"/><path d="m419.874 213.271h-2.541c-.06-54.956-21.918-107.644-60.778-146.5035-38.86-38.8599-91.548-60.71776-146.504-60.77782v-2.58648c55.628.09003 108.952 22.2314 148.284 61.5712 39.331 39.3396 61.461 92.6686 61.539 148.2966z" fill="#fff"/><path d="m209.959 423.253c-41.52.005-82.11-12.303-116.6357-35.366-34.5259-23.064-61.4375-55.847-77.3319-94.205-15.8943909-38.358-20.05772-80.567-11.96352-121.291 8.09422-40.724 28.08242-78.1332 57.43712-107.4974 29.3546-29.3642 66.757-49.3645 107.479-57.47195 40.721-8.107403 82.932-3.95776 121.295 11.92425 38.363 15.8819 71.155 42.7829 94.229 77.3013 23.075 34.5188 35.396 75.1038 35.405 116.6248-.048 55.664-22.177 109.035-61.531 148.402-39.355 39.367-92.719 61.513-148.383 61.579zm0-417.19518c-40.995.01795-81.065 12.19178-115.1418 34.98208-34.0768 22.7904-60.6305 55.1737-76.3033 93.0551-15.6727 37.881-19.76066 79.559-11.74688 119.764s27.76938 77.13 56.76868 106.107 65.9403 48.704 106.1503 56.687c40.211 7.983 81.886 3.864 119.755-11.838 37.87-15.702 70.233-42.28 92.997-76.375 22.764-34.094 34.907-74.173 34.894-115.168-.078-54.96-21.957-107.645-60.834-146.4925-38.878-38.8478-91.579-60.68568-146.539-60.72168z" fill="#fff"/><path d="m209.8 5.08215c-27.385 0-52.411 20.19275-71.355 53.34055.635-.3176 1.293-.5899 1.951-.8848 18.582-31.7639 42.858-51.11712 69.404-51.11712 58.286 0 105.705 93.02272 105.705 207.41822 0 114.395-47.419 207.44-105.705 207.44-26.568 0-50.891-19.376-69.495-51.276l-.703-1.225-1.952-.885c.273.477.545.976.84 1.452 18.945 33.103 43.947 53.25 71.31 53.25 58.99 0 107.044-93.658 107.044-208.734 0-115.0755-48.032-208.77885-107.044-208.77885z" fill="#fff"/><path d="m210.821 383.957h-1.702v36.188h1.702z" fill="#57606a"/><path d="m210.821 4.31091h-1.702v38.23009h1.702z" fill="#57606a"/><path d="m418.894 212.409h-38.23v1.702h38.23z" fill="#57606a"/><path d="m39.2532 212.409h-36.64187v1.702h36.64187z" fill="#57606a"/><g fill="#fff"><path d="m392.513 318.818c2.305 0 4.174-1.869 4.174-4.174 0-2.306-1.869-4.175-4.174-4.175-2.306 0-4.175 1.869-4.175 4.175 0 2.305 1.869 4.174 4.175 4.174z"/><path d="m252.911 280.725c2.306 0 4.175-1.869 4.175-4.175s-1.869-4.175-4.175-4.175-4.175 1.869-4.175 4.175 1.869 4.175 4.175 4.175z"/><path d="m425.546 318.818c2.305 0 4.174-1.869 4.174-4.174 0-2.306-1.869-4.175-4.174-4.175-2.306 0-4.175 1.869-4.175 4.175 0 2.305 1.869 4.174 4.175 4.174z"/><path d="m460.052 318.818c2.305 0 4.174-1.869 4.174-4.174 0-2.306-1.869-4.175-4.174-4.175-2.306 0-4.175 1.869-4.175 4.175 0 2.305 1.869 4.174 4.175 4.174z"/><path d="m527.256 317.23c1.429 0 2.587-1.158 2.587-2.586 0-1.429-1.158-2.587-2.587-2.587-1.428 0-2.586 1.158-2.586 2.587 0 1.428 1.158 2.586 2.586 2.586z"/><path d="m498.649 317.23c1.428 0 2.586-1.158 2.586-2.586 0-1.429-1.158-2.587-2.586-2.587-1.429 0-2.587 1.158-2.587 2.587 0 1.428 1.158 2.586 2.587 2.586z"/><path d="m210.028 10.2552c2.832 0 5.128-2.29571 5.128-5.1276s-2.296-5.1276-5.128-5.1276-5.128 2.29571-5.128 5.1276 2.296 5.1276 5.128 5.1276z"/><path d="m340.35 10.2552c2.832 0 5.128-2.29571 5.128-5.1276s-2.296-5.1276-5.128-5.1276-5.127 2.29571-5.127 5.1276 2.295 5.1276 5.127 5.1276z"/><path d="m244.286 10.2552c2.832 0 5.127-2.29571 5.127-5.1276s-2.295-5.1276-5.127-5.1276-5.128 2.29571-5.128 5.1276 2.296 5.1276 5.128 5.1276z"/><path d="m380.6 10.2552c2.832 0 5.128-2.29571 5.128-5.1276s-2.296-5.1276-5.128-5.1276-5.127 2.29571-5.127 5.1276 2.295 5.1276 5.127 5.1276z"/><path d="m282.562 8.75774c2.005 0 3.63-1.62527 3.63-3.63015s-1.625-3.63015-3.63-3.63015-3.63 1.62527-3.63 3.63015 1.625 3.63015 3.63 3.63015z"/><path d="m314.35 7.7141c1.429 0 2.587-1.158 2.587-2.58648s-1.158-2.58648-2.587-2.58648c-1.428 0-2.586 1.158-2.586 2.58648s1.158 2.58648 2.586 2.58648z"/><path d="m420.555 7.7141c1.429 0 2.587-1.158 2.587-2.58648s-1.158-2.58648-2.587-2.58648c-1.428 0-2.586 1.158-2.586 2.58648s1.158 2.58648 2.586 2.58648z"/><path d="m460.055 7.7141c1.429 0 2.587-1.158 2.587-2.58648s-1.158-2.58648-2.587-2.58648c-1.428 0-2.586 1.158-2.586 2.58648s1.158 2.58648 2.586 2.58648z"/><path d="m294.905 93.068c2.306 0 4.175-1.8691 4.175-4.1747s-1.869-4.1747-4.175-4.1747c-2.305 0-4.175 1.8691-4.175 4.1747s1.87 4.1747 4.175 4.1747z"/><path d="m363.581 93.068c2.306 0 4.175-1.8691 4.175-4.1747s-1.869-4.1747-4.175-4.1747-4.175 1.8691-4.175 4.1747 1.869 4.1747 4.175 4.1747z"/><path d="m401.948 93.068c2.306 0 4.175-1.8691 4.175-4.1747s-1.869-4.1747-4.175-4.1747-4.175 1.8691-4.175 4.1747 1.869 4.1747 4.175 4.1747z"/><path d="m447.597 93.068c2.305 0 4.174-1.8691 4.174-4.1747s-1.869-4.1747-4.174-4.1747c-2.306 0-4.175 1.8691-4.175 4.1747s1.869 4.1747 4.175 4.1747z"/><path d="m486.192 91.4801c1.428 0 2.586-1.158 2.586-2.5865s-1.158-2.5865-2.586-2.5865-2.587 1.158-2.587 2.5865 1.159 2.5865 2.587 2.5865z"/><path d="m537.171 91.4801c1.428 0 2.586-1.158 2.586-2.5865s-1.158-2.5865-2.586-2.5865c-1.429 0-2.587 1.158-2.587 2.5865s1.158 2.5865 2.587 2.5865z"/></g><path d="m152.514 202.744h-53.8851v15.519h53.8851z" fill="url(#e)"/><path d="m147.613 156.255h-52.7282v15.519h52.7282z" fill="url(#f)"/><path d="m170.75 218.263h-59.33v15.519h59.33z" fill="url(#g)"/><path d="m158.842 171.706h-50.709v15.519h50.709z" fill="url(#h)"/><path d="m111.445 187.203h-28.6325v15.518h28.6325z" fill="#fff"/><path d="m124.652 171.729h-29.7672v15.473h29.7672z" fill="#fff"/><path d="m180.532 233.782h-47.782v15.519h47.782z" fill="url(#i)"/><path d="m123.174 140.714h-35.5529v15.519h35.5529z" fill="url(#j)"/><path d="m104.865 125.195h-18.6267v15.519h18.6267z" fill="#6fdd8b"/><path d="m104.865 109.676h-18.6267v15.519h18.6267z" fill="url(#k)"/><path d="m100.601 140.714h-22.5522v15.519h22.5522z" fill="#fff"/><path d="m180.507 202.744h-9.734v15.519h9.734z" fill="#6fdd8b"/><path d="m119.724 187.203h-8.304v15.518h8.304z" fill="url(#l)"/><path d="m87.4165 213.521h-1.7017v117.753h1.7017z" fill="#57606a"/><path d="m112.76 233.782h-1.701v119.205h1.701z" fill="#57606a"/><path d="m464.204 217.424c2.306 0 4.175-1.869 4.175-4.175s-1.869-4.175-4.175-4.175-4.175 1.869-4.175 4.175 1.869 4.175 4.175 4.175z" fill="#fff"/><path d="m502.801 215.835c1.429 0 2.587-1.158 2.587-2.586 0-1.429-1.158-2.587-2.587-2.587-1.428 0-2.586 1.158-2.586 2.587 0 1.428 1.158 2.586 2.586 2.586z" fill="#fff"/><path d="m553.778 215.835c1.428 0 2.586-1.158 2.586-2.586 0-1.429-1.158-2.587-2.586-2.587-1.429 0-2.587 1.158-2.587 2.587 0 1.428 1.158 2.586 2.587 2.586z" fill="#fff"/><path d="m418.557 217.424c2.306 0 4.175-1.869 4.175-4.175s-1.869-4.175-4.175-4.175c-2.305 0-4.174 1.869-4.174 4.175s1.869 4.175 4.174 4.175z" fill="#fff"/><path d="m342.3 167.599c2.305 0 4.174-1.869 4.174-4.174 0-2.306-1.869-4.175-4.174-4.175-2.306 0-4.175 1.869-4.175 4.175 0 2.305 1.869 4.174 4.175 4.174z" fill="#fff"/><path d="m62.4165 213.521h-1.7017v84.083h1.7017z" fill="#57606a"/><path d="m354.691 64.2538c-13.091-13.0912-37.118-13.1593-66.659-2.6772l1.452.7714c11.471-4.3229 23.574-6.7297 35.825-7.1242 11.957 0 21.691 3.1991 28.452 9.9602 30.244 30.2437-10.891 120.612-91.707 201.428-39.138 39.16-81.678 70.221-119.795 87.464s-66.8176 18.559-81.3836 3.993c-12.524-12.524-13.2047-35.643-2.2688-65.932-.295-.545-.5446-1.112-.8168-1.657-11.5711 31.401-10.8905 55.451 2.1554 68.52 6.92 6.806 16.9029 10.346 29.495 10.346 14.6338 0 32.7398-4.697 53.4538-14.067 38.253-17.312 80.93-48.463 120.249-87.737 81.179-81.315 122.427-172.5226 91.548-203.2882z" fill="#fff"/><path d="m375.995 173.975c0 .476.205.953.318 1.407 25.706 10.663 41.021 23.8 41.021 38.048 0 35.19-92.887 63.8-207.078 63.8s-207.05485-28.61-207.05485-63.8c0-14.135 15.04245-27.226 40.43085-37.821l.3403-1.43c-26.432 10.936-42.13246 24.526-42.13246 39.251 0 35.939 93.49916 65.184 208.41616 65.184s208.439-29.245 208.439-65.184c-.068-14.815-15.973-28.496-42.7-39.455z" fill="#fff"/></svg>