<svg width="40" height="44" viewBox="0 0 40 44" fill="none" xmlns="http://www.w3.org/2000/svg">
<path d="M17.7176 43.4526L2.11156 33.9189C0.799933 33.1176 0 31.6914 0 30.1545V12.1193C0 12.1193 0.00168146 11.3919 0.185204 10.8226C0.368726 10.2534 0.683096 9.72711 0.683096 9.72711L19.8505 19.8433V43.9973C19.8505 43.9973 19.2776 43.9973 18.7434 43.8595C18.2092 43.7216 17.7176 43.4526 17.7176 43.4526Z" fill="#6F42BF"/>
<path d="M39.6927 30.1317C39.6927 31.666 38.8954 33.0901 37.5874 33.8922L22.0951 43.3924C22.0951 43.3924 21.6299 43.6853 21.0053 43.849C20.3806 44.0127 19.8422 43.9998 19.8422 43.9998V19.8414L39.006 9.72717C39.006 9.72717 39.3739 10.3168 39.5333 10.8897C39.6927 11.4627 39.6927 12.1174 39.6927 12.1174V30.1317Z" fill="#8A63D2"/>
<path fill-rule="evenodd" clip-rule="evenodd" d="M35.6704 20.7455C36.2536 21.1271 36.3087 22.0745 35.7936 22.8614L30.5184 30.9208C30.0035 31.7074 29.1138 32.0362 28.5306 31.6554L25.5426 29.7043C24.959 29.3232 24.9033 28.3761 25.418 27.5889C25.9327 26.8016 26.823 26.4723 27.4065 26.8533L29.3387 28.115L33.6819 21.4796C34.197 20.6926 35.0873 20.3639 35.6704 20.7455V20.7455Z" fill="white"/>
<path d="M19.8164 20.6343L0.676514 9.75196C0.676514 9.75196 0.978275 9.26584 1.35295 8.90832C1.72763 8.55073 2.19975 8.27573 2.19975 8.27573L17.8497 0.464332C19.0882 -0.15383 20.545 -0.154811 21.7843 0.4616L37.4761 8.26669C37.4761 8.26669 37.9477 8.53399 38.3529 8.92555C38.7362 9.29603 39.0174 9.74615 39.0174 9.74615L19.8164 20.6343Z" fill="#CFBAF7"/>
<path fill-rule="evenodd" clip-rule="evenodd" d="M2.88038 22.1657C2.45975 22.4468 2.45296 23.2692 2.86532 24.0026L6.0079 29.5914C6.42026 30.3248 7.09558 30.6915 7.51628 30.4104C7.93698 30.1293 7.94371 29.307 7.53134 28.5737L5.1354 24.3126L7.57967 22.6796C8.00037 22.3986 8.0071 21.5761 7.59473 20.8428C7.18237 20.1094 6.50705 19.7427 6.08642 20.0238L2.88038 22.1657ZM11.955 23.2103L15.0976 28.7991C15.5099 29.5325 15.5031 30.3549 15.0825 30.636L11.8765 32.7779C11.4558 33.0589 10.7805 32.6923 10.3682 31.9589C9.9558 31.2255 9.96252 30.4031 10.3832 30.1221L12.8275 28.4891L10.4316 24.228C10.0192 23.4947 10.0259 22.6724 10.4466 22.3913C10.8673 22.1103 11.5426 22.4769 11.955 23.2103V23.2103Z" fill="white"/>
</svg>
