<svg viewBox="0 0 75.89 72.86" xmlns="http://www.w3.org/2000/svg"><path d="m19.73 22.11c0-10.92 8.15-19.07 19.07-19.07 7.67 0 14.7 5.69 16.75 14.05.2.81 1.02 1.31 1.84 1.11.81-.2 1.31-1.02 1.11-1.84-2.35-9.57-10.49-16.36-19.7-16.36-12.59 0-22.1 9.51-22.1 22.11 0 10.96 9.6 20.39 22.11 20.39.82 0 1.64-.05 2.44-.16a1.519 1.519 0 0 0 -.39-3.01c-.68.09-1.36.13-2.05.13-11.01 0-19.08-8.23-19.08-17.35z" fill="#79b8ff"/><path clip-rule="evenodd" d="m43.47 23.94a9.08 9.08 0 0 0 3.58-7.24c0-5.03-4.08-9.11-9.11-9.11s-9.11 4.08-9.11 9.11c0 2.95 1.41 5.58 3.59 7.24-3.26 1.46-5.74 4.19-6.58 7.57-.2.81.29 1.64 1.11 1.84.81.2 1.64-.29 1.84-1.11.89-3.58 4.56-6.44 9.15-6.44 1.95 0 3.75.52 5.24 1.4a1.517 1.517 0 1 0 1.55-2.61c-.4-.24-.82-.46-1.26-.65zm-5.52-13.32c-3.35 0-6.07 2.72-6.07 6.07s2.72 6.07 6.07 6.07 6.07-2.72 6.07-6.07-2.72-6.07-6.07-6.07zm-37.95 56.17c0-3.35 2.72-6.07 6.07-6.07s6.07 2.72 6.07 6.07-2.72 6.07-6.07 6.07-6.07-2.72-6.07-6.07zm6.07-3.04c-1.68 0-3.04 1.36-3.04 3.04s1.36 3.04 3.04 3.04 3.04-1.36 3.04-3.04-1.36-3.04-3.04-3.04zm25.8 3.04c0-3.35 2.72-6.07 6.07-6.07s6.07 2.72 6.07 6.07-2.72 6.07-6.07 6.07-6.07-2.72-6.07-6.07zm6.08-3.04c-1.68 0-3.04 1.36-3.04 3.04s1.36 3.04 3.04 3.04 3.04-1.36 3.04-3.04a3.052 3.052 0 0 0 -3.04-3.04zm31.87-3.04c-3.35 0-6.07 2.72-6.07 6.07s2.72 6.07 6.07 6.07 6.07-2.72 6.07-6.07-2.72-6.07-6.07-6.07zm-3.03 6.08c0-1.68 1.36-3.04 3.04-3.04s3.04 1.36 3.04 3.04-1.36 3.04-3.04 3.04-3.04-1.37-3.04-3.04z" fill="#79b8ff" fill-rule="evenodd"/><g fill="#2188ff"><path clip-rule="evenodd" d="m48.57 27.32v1.52h-.11c-.71 0-1.44.21-2.02.72-.59.52-.9 1.26-.9 2.04v8.15c0 1.85 1.68 2.75 2.92 2.75h12.37c.71 0 1.44-.21 2.02-.72.59-.52.9-1.26.9-2.04v-8.15c0-.78-.31-1.51-.9-2.04-.58-.51-1.31-.72-2.02-.72h-.11v-1.52c0-3.55-2.87-6.07-6.07-6.07a6.052 6.052 0 0 0 -6.08 6.08zm6.07-3.03c-1.71 0-3.04 1.34-3.04 3.04v1.52h6.07v-1.52c.01-1.78-1.39-3.04-3.03-3.04zm6.07 7.58v7.59h-12.14v-7.59z" fill-rule="evenodd"/><path d="m39.46 47.05a1.52 1.52 0 1 0 -3.04 0v3.04h-28.33c-1.94 0-3.54 1.59-3.54 3.54v2.53a1.52 1.52 0 1 0 3.04 0v-2.53c0-.27.23-.51.51-.51h28.33v3.04a1.52 1.52 0 1 0 3.04 0v-3.04h28.33c.27 0 .51.23.51.51v2.53a1.52 1.52 0 1 0 3.04 0v-2.53c0-1.95-1.6-3.54-3.54-3.54h-28.35z"/></g></svg>