<svg fill="none" height="32" viewBox="0 0 32 32" width="32" xmlns="http://www.w3.org/2000/svg"><g fill="#2188ff"><path d="m13.7329 10.9863c.3758.4047.3523 1.0374-.0524 1.4132l-3.87747 3.6006 3.87747 3.6005c.4047.3758.4282 1.0086.0524 1.4133s-1.0086.4281-1.4133.0523l-4.66664-4.3333c-.20376-.1892-.31955-.4547-.31955-.7328s.11579-.5436.31955-.7328l4.66664-4.3333c.4047-.3758 1.0375-.3524 1.4133.0523z"/><path d="m18.3196 12.3995c-.4047-.3758-.4281-1.0085-.0523-1.4132s1.0085-.4281 1.4132-.0523l4.6667 4.3333c.2038.1892.3195.4547.3195.7328s-.1157.5436-.3195.7328l-4.6667 4.3333c-.4047.3758-1.0374.3524-1.4132-.0523s-.3524-1.0375.0523-1.4133l3.8775-3.6005z"/><path clip-rule="evenodd" d="m2.66675 5.00008c0-1.28866 1.04467-2.33333 2.33333-2.33333h22.00002c1.2886 0 2.3333 1.04467 2.3333 2.33333v22.00002c0 1.2886-1.0447 2.3333-2.3333 2.3333h-22.00002c-1.28866 0-2.33333-1.0447-2.33333-2.3333zm2.33333-.33333c-.18409 0-.33333.14924-.33333.33333v22.00002c0 .1841.14924.3333.33333.3333h22.00002c.1841 0 .3333-.1492.3333-.3333v-22.00002c0-.18409-.1492-.33333-.3333-.33333z" fill-rule="evenodd"/></g></svg>