<svg fill="none" height="56" viewBox="0 0 56 56" width="56" xmlns="http://www.w3.org/2000/svg"><g fill="#79b8ff"><path clip-rule="evenodd" d="m40.0784 9.02734c.4648-2.85114 2.9391-5.02734 5.9216-5.02734 3.3137 0 6 2.6863 6 6 0 2.9692-2.1568 5.4347-4.9891 5.9152l-.0109 8.0605c-.0007.5522-.4491.9993-1.0013.9986-.5523-.0007-.9994-.4491-.9987-1.0013l.0108-8.0542c-2.5085-.4161-4.4913-2.3883-4.9232-4.8915h-2.0876c-.5523 0-1-.4477-1-1 0-.55224.4477-.99996 1-.99996zm5.9216-3.02734c-2.2091 0-4 1.79087-4 4 0 2.2091 1.7909 4 4 4s4-1.7909 4-4c0-2.20913-1.7909-4-4-4z" fill-rule="evenodd"/><path d="m43.4412 42.4808c0 .5525-.4475 1-1 1-.5524 0-1-.4475-1-1 0-.5524.4476-1 1-1 .5525 0 1 .4476 1 1z"/><path d="m49.5544 43.4825c.5525 0 1-.4475 1-1 0-.5524-.4475-1-1-1-.5524 0-1 .4476-1 1 0 .5525.4476 1 1 1z"/><path d="m43.4399 49.5098c0 .5524-.4476 1-1 1-.5525 0-1-.4476-1-1 0-.5525.4475-1 1-1 .5524 0 1 .4475 1 1z"/><path d="m49.4655 50.6013c.5524 0 1-.4475 1-1 0-.5524-.4476-1-1-1-.5525 0-1 .4476-1 1 0 .5525.4475 1 1 1z"/><path d="m46 50c.5524 0 1 .4476 1 1s-.4476 1-1 1-1-.4476-1-1 .4476-1 1-1z"/><path d="m52 46c0-.5524-.4476-1-1-1s-1 .4476-1 1 .4476 1 1 1 1-.4476 1-1z"/><path clip-rule="evenodd" d="m4 46c0-2.9734 2.16292-5.4417 5.00123-5.9172l.01086-8.0585c.00074-.5523.44906-.9994 1.00131-.9987.5523.0008.9994.4491.9987 1.0014l-.0109 8.0562c2.8371.4766 4.9988 2.9442 4.9988 5.9168 0 3.3137-2.6863 6-6 6s-6-2.6863-6-6zm6-4c-2.20913 0-4 1.7909-4 4s1.79087 4 4 4c2.2091 0 4-1.7909 4-4s-1.7909-4-4-4z" fill-rule="evenodd"/><path d="m43.9961 29.0311c.5523-.0021 1.0017.4438 1.0039.9961v.0039 10.7609c0 .0351.0018.0698.0053.104-.0035.0342-.0053.0689-.0053.104 0 .5524.4476 1 1 1s1-.4476 1-1c0-.0351-.0018-.0698-.0053-.104.0035-.0342.0053-.0689.0053-.104v-10.7609-.0118c-.0065-1.6568-1.3549-2.9946-3.0118-2.9881l-1.9794.0077c-.5523.0022-.9983.4516-.9961 1.0039s.4516.9983 1.0039.9961z"/><path d="m10 4c.5524 0 1 .44756 1 1s-.4476 1-1 1c-.55244 0-1-.44756-1-1s.44756-1 1-1z"/><path d="m6.44122 7.48083c.55244 0 1-.44756 1-1 0-.55243-.44756-1-1-1-.55243 0-1 .44757-1 1 0 .55244.44757 1 1 1z"/><path d="m6.00085 10.0076c0 .5524-.44756 1-1 1-.55243 0-1-.4476-1-1 0-.55247.44757-1.00003 1-1.00003.55244 0 1 .44756 1 1.00003z"/><path d="m13.5544 7.48254c.5525 0 1-.44756 1-1 0-.55243-.4475-1-1-1-.5524 0-1 .44757-1 1 0 .55244.4476 1 1 1z"/><path d="m7.43988 13.5098c0 .5524-.44756 1-1 1s-1-.4476-1-1c0-.5525.44756-1 1-1s1 .4475 1 1z"/><path d="m13.4655 14.6013c.5524 0 1-.4475 1-1 0-.5524-.4476-1-1-1-.5525 0-1 .4476-1 1 0 .5525.4475 1 1 1z"/><path d="m10.9948 14.8977c.0035.0337.0052.0678.0052.1023v11c0 .5523.4477 1 1 1h2.0223c.5523 0 1 .4477 1 1s-.4477 1-1 1h-2.0223c-1.6569 0-3-1.3431-3-3v-11c0-.0457.00306-.0907.009-.1348.06131-.4553.42888-.8134.88873-.86.03362-.0035.06774-.0052.10227-.0052.0462 0 .0917.0031.1362.0092.4547.0619.812.4292.8586.8885z"/><path d="m37 46.0273c0-.5522.4477-1 1-1h2.7667c.0748-.0178.153-.0273.2333-.0273.5524 0 1 .4476 1 1 0 .0046 0 .0091-.0001.0137.0001.0045.0001.0091.0001.0136 0 .5523-.4477 1-1 1h-3c-.5523 0-1-.4477-1-1z"/></g><path d="m30.7423 9.31463c.3908-.39026.3912-1.02343.001-1.41421-.3903-.39079-1.0235-.39121-1.4142-.00094l-2.3634 2.36022-.7841-.78137c-.3912-.38983-1.0244-.38871-1.4142.00251-.3898.39121-.3887 1.02436.0025 1.41426l1.4908 1.4854c.3905.3892 1.0223.3888 1.4125-.0008z" fill="#2088ff"/><path d="m30.7433 43.9004c.3902.3908.3898 1.024-.001 1.4142l-3.0691 3.0651c-.3902.3896-1.022.39-1.4125.0008l-1.4908-1.4854c-.3912-.3899-.3923-1.023-.0025-1.4143.3898-.3912 1.023-.3923 1.4142-.0025l.7841.7814 2.3634-2.3602c.3907-.3903 1.0239-.3899 1.4142.0009z" fill="#2088ff"/><path clip-rule="evenodd" d="m27.517 26.4995c0 .6633-.2154 1.2764-.5799 1.7731.4374.3143.8073.7129 1.0801 1.1747.2727-.4618.6425-.8604 1.0797-1.1746-.3646-.4967-.5799-1.1098-.5799-1.7732 0-1.6572 1.3434-3 3-3s3 1.3428 3 3c0 .6633-.2154 1.2764-.5799 1.7731.8691.6244 1.4717 1.5821 1.5756 2.7062.0509.55-.3537 1.037-.9036 1.0879-.55.0509-1.037-.3537-1.0879-.9037-.0811-.8776-.8959-1.6635-2.0042-1.6635-1.1073 0-1.9222.7844-2.0044 1.6644-.0049.0526-.0138.1038-.0263.1535-.1403.683-.7448 1.1966-1.4693 1.1966-.7246 0-1.3292-.5137-1.4694-1.1968-.0126-.0499-.0215-.1014-.0264-.1542-.0811-.8776-.8959-1.6635-2.0042-1.6635-1.1073 0-1.9222.7844-2.0044 1.6644-.0513.5499-.5387.9541-1.0886.9027-.5499-.0513-.954-.5387-.9027-1.0886.105-1.1241.7071-2.0813 1.5756-2.7053-.3646-.4967-.5799-1.1098-.5799-1.7732 0-1.6572 1.3434-3 3-3s3 1.3428 3 3zm-3-1c-.5523 0-1 .4476-1 1 0 .5522.4478 1 1 1 .5521 0 1-.4478 1-1 0-.5524-.4478-1-1-1zm7 0c-.5523 0-1 .4476-1 1 0 .5522.4478 1 1 1 .5521 0 1-.4478 1-1 0-.5524-.4478-1-1-1z" fill="#2088ff" fill-rule="evenodd"/><path clip-rule="evenodd" d="m29 16.9291c3.3924-.4852 6-3.4025 6-6.9291 0-3.86607-3.1339-7-7-7s-7 3.13393-7 7c0 3.5266 2.6076 6.4439 6 6.9291v3.0709h-2.7554c-4.3262 0-7.7276 3.5799-7.7276 8.0089 0 4.4325 3.4046 7.9911 7.7276 7.9911h2.7554v3c0 .0237.0008.0472.0024.0705-3.3934.4842-6.0024 3.4022-6.0024 6.9295 0 3.866 3.134 7 7 7s7-3.134 7-7c0-3.5273-2.609-6.4453-6.0024-6.9295.0016-.0233.0024-.0468.0024-.0705v-3h2.8458c4.2776 0 7.6701-3.6447 7.6701-7.9911 0-4.3487-3.3947-8.0089-7.7276-8.0089h-2.7883zm-6-6.9291c0-2.7615 2.2385-5 5-5s5 2.2385 5 5-2.2385 5-5 5-5-2.2385-5-5zm0 36c0-2.7614 2.2386-5 5-5s5 2.2386 5 5-2.2386 5-5 5-5-2.2386-5-5zm1.2446-24c-3.1489 0-5.7276 2.6103-5.7276 6.0089 0 3.3953 2.5754 5.9911 5.7276 5.9911h7.6012c3.0825 0 5.6701-2.6565 5.6701-5.9911 0-3.3322-2.5854-6.0089-5.7276-6.0089z" fill="#2088ff" fill-rule="evenodd"/></svg>