<svg viewBox="0 0 56 56" xmlns="http://www.w3.org/2000/svg"><g fill="none" fill-rule="evenodd"><g stroke-width="2"><g stroke-linecap="round"><path d="m15 51v-3h-4v3h-4a2 2 0 0 1 -2-2v-8.167a2 2 0 0 1 .586-1.415l7.425-7.418 2.03 2.038m35.959 6.962v10h-6v-3h-5v3m-6.987-33c.133-1.116.792-2.106 1.978-2.968.44-.32 5.776-3.664 16.009-10.032v36" stroke="#79b8ff" stroke-linejoin="round"/><path d="m40.013 27.35h5m-5-4h5" stroke="#79b8ff"/><path d="m21 22h13a2 2 0 0 1 2 2v3a2 2 0 0 1 -2 2h-13a2 2 0 0 1 -2-2v-3a2 2 0 0 1 2-2zm0 11h13a2 2 0 0 1 2 2v3a2 2 0 0 1 -2 2h-13a2 2 0 0 1 -2-2v-3a2 2 0 0 1 2-2zm0 11h13a2 2 0 0 1 2 2v3a2 2 0 0 1 -2 2h-13a2 2 0 0 1 -2-2v-3a2 2 0 0 1 2-2z" stroke="#2088ff" stroke-linejoin="round"/></g><path d="m15.012 22.003h-5.157a4.843 4.843 0 0 1 -4.843-4.843 4.843 4.843 0 0 1 4.843-4.843h1.479c1.473-4.268 4.277-6.674 8.41-7.219 6.493-.856 9.767 4.27 10.396 5.9.734-.83 2.137-2.208 4.194-1.964a4.394 4.394 0 0 1 1.685.533" stroke="#2088ff" stroke-linecap="round" stroke-linejoin="round"/><path d="m23 29v4m9-4v4m-9 7v4m9-4v4" stroke="#2088ff"/><path d="m23.005 25.501h2.993" stroke="#2088ff" stroke-linecap="round"/></g><path d="m32 26.528a1 1 0 1 0 0-2 1 1 0 0 0 0 2z" fill="#2088ff" fill-rule="nonzero"/><path d="m23.005 36.501h2.993" stroke="#2088ff" stroke-linecap="round" stroke-width="2"/><path d="m32 37.528a1 1 0 1 0 0-2 1 1 0 0 0 0 2z" fill="#2088ff" fill-rule="nonzero"/><path d="m23.005 47.501h2.993" stroke="#2088ff" stroke-linecap="round" stroke-width="2"/><path d="m32 48.528a1 1 0 1 0 0-2 1 1 0 0 0 0 2z" fill="#2088ff" fill-rule="nonzero"/></g></svg>