<svg viewBox="0 0 39.89 40.18" xmlns="http://www.w3.org/2000/svg"><path d="m19.59 20.19-8.49 4.91v-9.83l8.51-4.91z" fill="#79b8ff"/><g fill="none" stroke-linecap="round" stroke-width="2"><path d="m20.07 20.01 8.52 4.88m-8.52-4.88.06-9.45m-.06 9.45-8.27 4.73m-.22-9.65v9.83l8.51 4.92 8.52-4.92v-9.83l-8.52-4.92z" stroke="#2088ff" stroke-linejoin="round"/><circle cx="28.66" cy="5.18" r="1.65" stroke="#2088ff" stroke-linejoin="round"/><circle cx="11.09" cy="5.18" r="1.65" stroke="#2088ff" stroke-linejoin="round"/><circle cx="28.8" cy="35.08" r="1.65" stroke="#2088ff" stroke-linejoin="round"/><circle cx="11.32" cy="34.89" r="1.65" stroke="#2088ff" stroke-linejoin="round"/><circle cx="2.65" cy="20.11" r="1.65" stroke="#2088ff" stroke-linejoin="round"/><circle cx="37.24" cy="20.11" r="1.65" stroke="#2088ff" stroke-linejoin="round"/><path d="m20.02 1.91v4.31" stroke="#79b8ff" stroke-dasharray="10" stroke-miterlimit="10"/></g><path d="m3.61 15.12a1 1 0 0 1 -1-1v-4.08l3.53-2a1.003 1.003 0 0 1 1 1.74l-2.53 1.46v2.92a1 1 0 0 1 -1 .96zm3.03 17.19a1 1 0 0 1 -.5-.14l-3.53-2v-4.11a1 1 0 1 1 2 0v2.92l2.53 1.46a1 1 0 0 1 -.5 1.87zm13.36 7.87-3.53-2a1 1 0 0 1 -.36-1.37 1 1 0 0 1 1.32-.4l2.53 1.46 2.54-1.46a1 1 0 0 1 1 1.73zm13.37-7.87a1 1 0 0 1 -.5-1.87l2.56-1.46v-2.92a1 1 0 0 1 2 0v4.07l-3.53 2a1 1 0 0 1 -.53.18zm3.06-17.19a1 1 0 0 1 -1-1v-2.92l-2.53-1.46a1.003 1.003 0 0 1 1-1.74l3.53 2v4.08a1 1 0 0 1 -1 1.04zm-13.4-11.22a1 1 0 0 1 -.49-.13l-2.54-1.46-2.57 1.46a1 1 0 0 1 -1-1.73l3.53-2 3.54 2a1 1 0 0 1 -.51 1.86z" fill="#79b8ff"/><path d="m20.02 33.59v5.4m-16.22-28.28 4.68 2.71m23.08 13.38 4.67 2.71m-.2-18.73-4.67 2.71m-23.08 13.38-4.68 2.71" style="fill:none;stroke:#79b8ff;stroke-linecap:round;stroke-miterlimit:10;stroke-width:2;stroke-dasharray:10"/></svg>