<svg viewBox="0 0 25 24" fill="currentColor" xmlns="http://www.w3.org/2000/svg">
<path d="M7.65241 0.0884315C6.65471 0.108122 5.66763 0.297424 4.73344 0.648234C3.93562 0.953396 3.21108 1.4233 2.60708 2.0273C2.00308 2.63131 1.53317 3.35584 1.22801 4.15366C0.878679 5.08365 0.689401 6.0661 0.668206 7.05931C0.614891 8.33886 0.601562 8.75204 0.601562 12.0042C0.601562 15.2697 0.614891 15.6696 0.668206 16.9492C0.734849 18.2287 0.934778 19.0951 1.22801 19.8681C1.53014 20.6698 2.00052 21.3975 2.60748 22.0022C3.21445 22.6069 3.94391 23.0745 4.74677 23.3736C5.67676 23.7229 6.6592 23.9122 7.65241 23.9334C8.93196 23.9867 9.33182 24 12.584 24C15.8495 24 16.2627 23.9867 17.5423 23.9334C18.5355 23.9122 19.5179 23.7229 20.4479 23.3736C21.2476 23.067 21.914 22.6538 22.5805 21.9874C23.2469 21.3209 23.6468 20.6545 23.9533 19.8548C24.3027 18.9248 24.4919 17.9424 24.5131 16.9492C24.5664 15.6696 24.5798 15.2697 24.5798 12.0176C24.5798 8.75204 24.5798 8.33886 24.5131 7.05931C24.4919 6.0661 24.3027 5.08365 23.9533 4.15366C23.6468 3.35395 23.2336 2.68752 22.5671 2.02108C21.9007 1.35465 21.2343 0.954793 20.4479 0.648234C19.5179 0.298905 18.5355 0.109627 17.5423 0.0884315C16.2627 0.035117 15.8495 0.0217883 12.5973 0.0217883C10.9488 -0.0220065 9.29917 0.000225717 7.65241 0.0884315ZM17.4356 2.24767C18.6085 2.30098 19.2483 2.50091 19.6615 2.64753C20.1788 2.85208 20.6483 3.1613 21.0405 3.55579C21.4327 3.95029 21.7392 4.42156 21.9407 4.94005C22.2044 5.65302 22.3441 6.40584 22.3539 7.16594C22.4072 8.43216 22.4205 8.80536 22.4205 12.0042C22.4205 15.2031 22.4205 15.5896 22.3539 16.8559C22.3489 17.6152 22.2137 18.3681 21.954 19.0817C21.7539 19.5991 21.4448 20.0673 21.0477 20.4546C20.6212 20.8811 20.2213 21.1343 19.6615 21.3609C19.2483 21.5209 18.6085 21.7208 17.4356 21.7608C16.1694 21.8274 15.7962 21.8408 12.5973 21.8408C9.39846 21.8408 9.01193 21.8274 7.74571 21.7741C6.98556 21.7649 6.23265 21.6251 5.51983 21.3609C5.00029 21.1651 4.5312 20.8554 4.14698 20.4546C3.74616 20.0704 3.43647 19.6013 3.24063 19.0817C3.08069 18.6552 2.88076 18.0154 2.84077 16.8559C2.77413 15.5896 2.7608 15.2164 2.7608 12.0042C2.7608 8.80536 2.77413 8.43216 2.82744 7.16594C2.83722 6.40584 2.97696 5.65302 3.24063 4.94005C3.46722 4.38025 3.72046 3.98039 4.14698 3.55388C4.56017 3.14069 4.96003 2.88744 5.51983 2.66086C5.94634 2.50091 6.58612 2.30098 7.74571 2.24767C9.01193 2.19436 9.38513 2.18103 12.5973 2.18103C15.7962 2.18103 16.1694 2.18103 17.4356 2.24767Z"/>
<path d="M12.5959 16.003C11.5354 16.003 10.5183 15.5817 9.76844 14.8318C9.01856 14.0819 8.59728 13.0649 8.59728 12.0044C8.59728 10.9439 9.01856 9.92684 9.76844 9.17696C10.5183 8.42708 11.5354 8.0058 12.5959 8.0058C13.6564 8.0058 14.6734 8.42708 15.4233 9.17696C16.1732 9.92684 16.5945 10.9439 16.5945 12.0044C16.5945 13.0649 16.1732 14.0819 15.4233 14.8318C14.6734 15.5817 13.6564 16.003 12.5959 16.003ZM12.5959 5.84656C11.7872 5.84656 10.9865 6.00584 10.2394 6.3153C9.49227 6.62476 8.81344 7.07834 8.24163 7.65014C7.66982 8.22195 7.21624 8.90079 6.90678 9.64789C6.59732 10.395 6.43805 11.1957 6.43805 12.0044C6.43805 12.813 6.59732 13.6138 6.90678 14.3609C7.21624 15.108 7.66982 15.7868 8.24163 16.3586C8.81344 16.9304 9.49227 17.384 10.2394 17.6935C10.9865 18.0029 11.7872 18.1622 12.5959 18.1622C14.229 18.1622 15.7953 17.5134 16.9501 16.3586C18.1049 15.2038 18.7537 13.6375 18.7537 12.0044C18.7537 10.3712 18.1049 8.80496 16.9501 7.65014C15.7953 6.49533 14.229 5.84656 12.5959 5.84656ZM20.4331 5.60664C20.4331 5.98842 20.2814 6.35456 20.0115 6.62452C19.7415 6.89447 19.3754 7.04614 18.9936 7.04614C18.6118 7.04614 18.2457 6.89447 17.9757 6.62452C17.7058 6.35456 17.5541 5.98842 17.5541 5.60664C17.5541 5.22487 17.7058 4.85873 17.9757 4.58877C18.2457 4.31881 18.6118 4.16715 18.9936 4.16715C19.3754 4.16715 19.7415 4.31881 20.0115 4.58877C20.2814 4.85873 20.4331 5.22487 20.4331 5.60664Z"/>
<path  d="M9.85322 14.747C10.5806 15.4744 11.5672 15.8831 12.5959 15.8831C13.6246 15.8831 14.6111 15.4744 15.3385 14.747C16.0659 14.0196 16.4746 13.0331 16.4746 12.0044C16.4746 10.9757 16.0659 9.98913 15.3385 9.26173C14.6111 8.53434 13.6246 8.12569 12.5959 8.12569C11.5672 8.12569 10.5806 8.53434 9.85322 9.26173C9.12582 9.98913 8.71718 10.9757 8.71718 12.0044C8.71718 13.0331 9.12582 14.0196 9.85322 14.747ZM10.1935 6.20453C10.9551 5.88905 11.7715 5.72667 12.5959 5.72667C14.2608 5.72667 15.8576 6.38807 17.0349 7.56537C18.2122 8.74267 18.8736 10.3394 18.8736 12.0044C18.8736 13.6693 18.2122 15.2661 17.0349 16.4434C15.8576 17.6207 14.2608 18.2821 12.5959 18.2821C11.7715 18.2821 10.9551 18.1197 10.1935 17.8042C9.43185 17.4888 8.7398 17.0263 8.15686 16.4434C7.57392 15.8605 7.1115 15.1684 6.79602 14.4068C6.48053 13.6451 6.31815 12.8288 6.31815 12.0044C6.31815 11.18 6.48053 10.3637 6.79602 9.60201C7.1115 8.84036 7.57392 8.14831 8.15686 7.56537C8.7398 6.98243 9.43185 6.52002 10.1935 6.20453ZM20.553 5.60664C20.553 6.02022 20.3887 6.41685 20.0963 6.70929C19.8038 7.00173 19.4072 7.16603 18.9936 7.16603C18.58 7.16603 18.1834 7.00173 17.891 6.70929C17.5985 6.41685 17.4342 6.02022 17.4342 5.60664C17.4342 5.19307 17.5985 4.79643 17.891 4.50399C18.1834 4.21155 18.58 4.04726 18.9936 4.04726C19.4072 4.04726 19.8038 4.21155 20.0963 4.50399C20.3887 4.79643 20.553 5.19307 20.553 5.60664ZM9.76844 14.8318C10.5183 15.5817 11.5354 16.003 12.5959 16.003C13.6564 16.003 14.6734 15.5817 15.4233 14.8318C16.1732 14.0819 16.5945 13.0649 16.5945 12.0044C16.5945 10.9439 16.1732 9.92684 15.4233 9.17696C14.6734 8.42708 13.6564 8.0058 12.5959 8.0058C11.5354 8.0058 10.5183 8.42708 9.76844 9.17696C9.01856 9.92684 8.59728 10.9439 8.59728 12.0044C8.59728 13.0649 9.01856 14.0819 9.76844 14.8318ZM10.2394 6.3153C10.9865 6.00584 11.7872 5.84656 12.5959 5.84656C14.229 5.84656 15.7953 6.49533 16.9501 7.65014C18.1049 8.80496 18.7537 10.3712 18.7537 12.0044C18.7537 13.6375 18.1049 15.2038 16.9501 16.3586C15.7953 17.5134 14.229 18.1622 12.5959 18.1622C11.7872 18.1622 10.9865 18.0029 10.2394 17.6935C9.49227 17.384 8.81344 16.9304 8.24163 16.3586C7.66982 15.7868 7.21624 15.108 6.90678 14.3609C6.59732 13.6138 6.43805 12.813 6.43805 12.0044C6.43805 11.1957 6.59732 10.395 6.90678 9.64789C7.21624 8.90079 7.66982 8.22195 8.24163 7.65014C8.81344 7.07834 9.49227 6.62476 10.2394 6.3153ZM20.0115 6.62452C20.2814 6.35456 20.4331 5.98842 20.4331 5.60664C20.4331 5.22487 20.2814 4.85873 20.0115 4.58877C19.7415 4.31881 19.3754 4.16715 18.9936 4.16715C18.6118 4.16715 18.2457 4.31881 17.9757 4.58877C17.7058 4.85873 17.5541 5.22487 17.5541 5.60664C17.5541 5.98842 17.7058 6.35456 17.9757 6.62452C18.2457 6.89447 18.6118 7.04614 18.9936 7.04614C19.3754 7.04614 19.7415 6.89447 20.0115 6.62452Z"/>
</svg>
