<svg viewBox="0 0 72.94 54.19" xmlns="http://www.w3.org/2000/svg"><path d="m61.9 11.59a1 1 0 0 1 -1-1v-7.4a1.22 1.22 0 0 0 -1.2-1.2h-56.5a1.22 1.22 0 0 0 -1.2 1.21v7.4a1 1 0 0 1 -2 0v-7.41a3.2 3.2 0 0 1 3.2-3.2h56.5a3.2 3.2 0 0 1 3.2 3.2v7.4a1 1 0 0 1 -1 1z" fill="#79b8ff"/><path d="m20.7 11.59a1 1 0 0 1 -1-1v-2.4h-11.4v2.4a1 1 0 0 1 -2 0v-3.4a1 1 0 0 1 1-1h13.4a1 1 0 0 1 1 1v3.4a1 1 0 0 1 -1 1z" fill="#79b8ff"/><path d="m43.95 46.59h-40.75a3.2 3.2 0 0 1 -3.2-3.2v-23.6a3.2 3.2 0 0 1 3.2-3.2h56.5a3.2 3.2 0 0 1 3.2 3.2v9.72a1 1 0 0 1 -2 0v-9.72a1.22 1.22 0 0 0 -1.2-1.2h-56.5a1.22 1.22 0 0 0 -1.2 1.2v23.6a1.22 1.22 0 0 0 1.2 1.2h40.75a1 1 0 0 1 0 2z" fill="#2088ff"/><path d="m35.4 29.59h-9a1 1 0 0 1 0-2h9a1 1 0 0 1 0 2zm8.55 6.1h-17.55a1 1 0 0 1 0-2h17.55a1 1 0 0 1 0 2zm-29.95-.3a1 1 0 0 1 -1-1v-2.1a1 1 0 0 1 2 0v2.1a1 1 0 0 1 -1 1zm0-5.4a1 1 0 0 1 -.71-.29 1.15 1.15 0 0 1 -.23-.34.94.94 0 0 1 0-.76.9.9 0 0 1 .54-.54 1 1 0 0 1 1.09.21 1.16 1.16 0 0 1 .21.33.94.94 0 0 1 0 .76.9.9 0 0 1 -.54.54 1 1 0 0 1 -.36.09z" fill="#79b8ff"/><path d="m14 39.39a7.7 7.7 0 1 1 7.7-7.7 7.7 7.7 0 0 1 -7.7 7.7zm0-13.4a5.7 5.7 0 1 0 5.7 5.7 5.71 5.71 0 0 0 -5.7-5.7z" fill="#79b8ff"/><path d="m61.91 54.19a1.19 1.19 0 0 1 -.46-.09 1.27 1.27 0 0 1 -.75-1.22v-4.1c-3.21 0-7.84.31-9.49 4a1 1 0 0 1 -1.91-.42c.09-9.13 7.51-11.75 11.4-12.14v-3.63a1.27 1.27 0 0 1 .75-1.22 1.24 1.24 0 0 1 1.35.31l9.63 7.93a1.47 1.47 0 0 1 .51 1.07 1.4 1.4 0 0 1 -.44 1l-.06.06-9.7 8.1a1.17 1.17 0 0 1 -.83.35zm-.45-1.87-.07.06zm-.17-5.53h.41a1 1 0 0 1 1 1v3.5l7.9-6.6-7.9-6.51v3a1 1 0 0 1 -1 1c-.09 0-7.82.09-9.9 6.77 2.85-2.11 6.91-2.16 9.49-2.16z" fill="#2088ff"/><path d="m51.8 30.51a1 1 0 0 1 -.74-.29l-2.5-2.5a1.008 1.008 0 0 1 1.44-1.41l1.79 1.79 1.79-1.79a1 1 0 0 1 1.42 1.41l-2.5 2.5a1 1 0 0 1 -.7.29z" fill="#79b8ff"/></svg>