<svg width="16" height="16" viewBox="0 0 16 16" fill="none" xmlns="http://www.w3.org/2000/svg">
<path d="M9.42117 1C8.30163 1 7.46615 1.91456 7.46615 2.95502V4.75573C5.9979 4.83364 4.65515 5.2251 3.58321 5.83907C3.17013 5.4424 2.61701 5.26625 2.08071 5.26664C1.49925 5.26707 0.904821 5.46856 0.494798 5.92979L0.485414 5.94021L0.47603 5.95064C0.0827037 6.44221 -0.0730397 7.10072 0.0318487 7.75447C0.127638 8.35152 0.473426 8.95088 1.07453 9.34352C1.07059 9.4098 1.05993 9.47469 1.05993 9.54163C1.05993 12.1906 4.17335 14.3463 8 14.3463C11.8266 14.3463 14.9401 12.1906 14.9401 9.54163C14.9401 9.47469 14.9294 9.4098 14.9255 9.34352C15.5266 8.95088 15.8724 8.35152 15.9682 7.75447C16.073 7.10072 15.9173 6.44221 15.524 5.95064L15.5146 5.94021L15.5052 5.92979C15.0951 5.4685 14.5008 5.26707 13.9193 5.26664C13.3829 5.26625 12.8297 5.44225 12.4168 5.83907C11.3449 5.2251 10.0021 4.83364 8.53385 4.75573V2.95502C8.53385 2.43237 8.83559 2.0677 9.42117 2.0677C9.69914 2.0677 10.0378 2.20699 10.5681 2.39302C11.0165 2.55028 11.5999 2.70923 12.3459 2.75691C12.5243 3.2844 13.0197 3.66926 13.6054 3.66926C14.3395 3.66926 14.9401 3.06868 14.9401 2.33463C14.9401 1.60058 14.3395 1 13.6054 1C13.1043 1 12.6699 1.28317 12.4418 1.69442C11.8041 1.65911 11.3356 1.53103 10.9216 1.38579C10.4391 1.21654 9.99576 1 9.42117 1ZM2.08071 6.33435C2.29166 6.33419 2.49208 6.38955 2.65731 6.47928C2.06795 6.97122 1.62078 7.54599 1.35084 8.17363C1.20751 7.99671 1.12113 7.79807 1.08704 7.58556C1.02951 7.22698 1.13682 6.85424 1.30704 6.63359C1.46791 6.46045 1.76166 6.33458 2.08071 6.33435ZM13.9182 6.33435C14.2374 6.33458 14.5321 6.4605 14.693 6.63359C14.8632 6.85424 14.9705 7.22698 14.913 7.58556C14.8789 7.79807 14.7925 7.99671 14.6492 8.17363C14.3792 7.54599 13.9321 6.97122 13.3427 6.47928C13.5075 6.38965 13.7074 6.33419 13.9182 6.33435ZM5.33074 7.40622C5.92065 7.40622 6.39845 7.88402 6.39845 8.47392C6.39845 9.06383 5.92065 9.54163 5.33074 9.54163C4.74084 9.54163 4.26304 9.06383 4.26304 8.47392C4.26304 7.88402 4.74084 7.40622 5.33074 7.40622ZM10.6693 7.40622C11.2592 7.40622 11.737 7.88402 11.737 8.47392C11.737 9.06383 11.2592 9.54163 10.6693 9.54163C10.0794 9.54163 9.60155 9.06383 9.60155 8.47392C9.60155 7.88402 10.0794 7.40622 10.6693 7.40622ZM10.7965 10.3601C10.4553 11.3568 9.36452 12.2109 8 12.2109C6.63548 12.2109 5.54467 11.3572 5.20354 10.4321C5.81746 10.9302 6.84047 11.286 8 11.286C9.15953 11.286 10.1825 10.9297 10.7965 10.3601Z" fill="currentColor"/>
</svg>
