<svg fill="none" height="232" viewBox="0 0 231 232" width="231" xmlns="http://www.w3.org/2000/svg" xmlns:xlink="http://www.w3.org/1999/xlink"><filter id="a" color-interpolation-filters="sRGB" filterUnits="userSpaceOnUse" height="128.483" width="83.4137" x="43.9447" y="47.0767"><feFlood flood-opacity="0" result="BackgroundImageFix"/><feColorMatrix in="SourceAlpha" type="matrix" values="0 0 0 0 0 0 0 0 0 0 0 0 0 0 0 0 0 0 127 0"/><feOffset dy="1"/><feColorMatrix type="matrix" values="0 0 0 0 0.105882 0 0 0 0 0.121569 0 0 0 0 0.137255 0 0 0 0.05 0"/><feBlend in2="BackgroundImageFix" mode="normal" result="effect1_dropShadow"/><feBlend in="SourceGraphic" in2="effect1_dropShadow" mode="normal" result="shape"/></filter><filter id="b" color-interpolation-filters="sRGB" filterUnits="userSpaceOnUse" height="87.6333" width="82.8667" x="101.7" y="51.2"><feFlood flood-opacity="0" result="BackgroundImageFix"/><feColorMatrix in="SourceAlpha" type="matrix" values="0 0 0 0 0 0 0 0 0 0 0 0 0 0 0 0 0 0 127 0"/><feOffset dy="1"/><feColorMatrix type="matrix" values="0 0 0 0 0.105882 0 0 0 0 0.121569 0 0 0 0 0.137255 0 0 0 0.05 0"/><feBlend in2="BackgroundImageFix" mode="normal" result="effect1_dropShadow"/><feBlend in="SourceGraphic" in2="effect1_dropShadow" mode="normal" result="shape"/></filter><path d="m94 22h8.40379v2.80126h-8.40379z" fill="#6f42c1"/><path d="m141 0h8.40379v2.80126h-8.40379z" fill="#28a745"/><path d="m46 7h8.40379v2.80126h-8.40379z" fill="#f66a0a"/><path d="m200 8.37329h8.40379v2.80126h-8.40379z" fill="#ec6cb9"/><path d="m222 69h8.40379v2.80126h-8.40379z" fill="#0366d6"/><path d="m166.079 87.4651h8.40379v2.80126h-8.40379z" fill="#28a745"/><path d="m200 119h8.40379v2.80126h-8.40379z" fill="#6f42c1"/><path d="m216 179h8.40379v2.80126h-8.40379z" fill="#ffd33d"/><path d="m19 48h8.40379v2.80126h-8.40379z" fill="#ffd33d"/><path d="m33 87h8.40379v2.80126h-8.40379z" fill="#6f42c1"/><path d="m108.957 127.011h8.40379v2.80126h-8.40379z" fill="#f66a0a"/><path d="m57 172h8.40379v2.80126h-8.40379z" fill="#ec6cb9"/><path d="m28.9857 206.104h8.40379v2.80126h-8.40379z" fill="#28a745"/><path d="m113 193h8.40379v2.80126h-8.40379z" fill="#0366d6"/><path d="m179 203h8.40379v2.80126h-8.40379z" fill="#ea4aaa"/><g filter="url(#a)"><path d="m83.7665 172.015c.5115 1.406 1.7643 2.24 2.7983 1.863l.331-.12s-.1649-.549-.1891-.936c-.0241-.386-.0963-1.236-.0963-1.236v-124.5093l-40.7936 14.8476c-1.0339.3763-1.4575 1.8206-.946 3.2258z" fill="#fff" fill-opacity=".7"/></g><g filter="url(#b)"><path clip-rule="evenodd" d="m181.607 51.2h-76.948c-1.634 0-2.959 1.4918-2.959 3.332v79.969c0 1.84 1.325 3.332 2.959 3.332h76.948c1.635 0 2.96-1.492 2.96-3.332v-79.969c0-1.8402-1.325-3.332-2.96-3.332zm-65.84 15.0667c0-.5523.447-1 1-1h33.9c.552 0 1 .4477 1 1s-.448 1-1 1h-33.9c-.553 0-1-.4477-1-1zm12.3 17.8332c-.553 0-1 .4478-1 1 0 .5523.447 1 1 1h13.218c.552 0 1-.4477 1-1 0-.5522-.448-1-1-1zm28.32 0c-.553 0-1 .4478-1 1 0 .5523.447 1 1 1h13.113c.552 0 1-.4477 1-1 0-.5522-.448-1-1-1zm-14.254 19.8331c0-.552.448-1 1-1h26.367c.552 0 1 .448 1 1 0 .553-.448 1-1 1h-26.367c-.552 0-1-.447-1-1zm6.733 17.712c-.552-.007-1.005.435-1.013.987-.007.552.435 1.006.987 1.013l9.347.122c.552.007 1.006-.435 1.013-.987s-.435-1.006-.987-1.013zm-32.099.122c-.552 0-1 .447-1 1 0 .552.447 1 .999 1l16.981.007c.552 0 1-.448 1-1s-.447-1-1-1z" fill="#fff" fill-rule="evenodd"/></g><path clip-rule="evenodd" d="m86.6334 34.3667c0-1.1046.8954-2 2-2h108.9996c1.105 0 2 .8954 2 2v142.9003c0 1.104-.895 2-2 2h-108.9996c-1.1046 0-2-.896-2-2zm-2.8257 137.8083-56.0703-66.607c-.7361-.877-.7924-2.042-.1258-2.601l23.6792-20.1032zm29.1923-105.9083c0-2.0803 1.686-3.7667 3.767-3.7667h33.9c2.08 0 3.766 1.6864 3.766 3.7667s-1.686 3.7667-3.766 3.7667h-33.9c-2.081 0-3.767-1.6864-3.767-3.7667zm11.3 18.8333c0-2.0802 1.686-3.7666 3.767-3.7666h13.218c2.08 0 3.767 1.6864 3.767 3.7666 0 2.0803-1.687 3.7667-3.767 3.7667h-13.218c-2.081 0-3.767-1.6864-3.767-3.7667zm28.32 0c0-2.0802 1.686-3.7666 3.767-3.7666h13.113c2.08 0 3.767 1.6864 3.767 3.7666 0 2.0803-1.687 3.7667-3.767 3.7667h-13.113c-2.081 0-3.767-1.6864-3.767-3.7667zm-9.487 15.067c-2.08 0-3.766 1.686-3.766 3.766 0 2.081 1.686 3.767 3.766 3.767h26.367c2.08 0 3.767-1.686 3.767-3.767 0-2.08-1.687-3.766-3.767-3.766zm1.954 22.429c.027-2.08 1.735-3.744 3.815-3.717l9.347.122c2.08.027 3.745 1.735 3.717 3.815-.027 2.08-1.735 3.745-3.815 3.718l-9.347-.122c-2.08-.027-3.744-1.736-3.717-3.816zm-32.087.17c.001-2.081 1.688-3.766 3.768-3.766l16.98.007c2.081.001 3.767 1.688 3.766 3.768s-1.688 3.766-3.768 3.765l-16.981-.006c-2.08-.001-3.766-1.688-3.765-3.768z" fill="#fff" fill-opacity=".5" fill-rule="evenodd"/></svg>