<svg xmlns="http://www.w3.org/2000/svg" viewBox="0 0 101.52 111.42"><title>machinelearning-flourish-2</title><g style="isolation:isolate"><g id="Layer_3" data-name="Layer 3"><g style="opacity:0.75"><path d="M1061.41,472.55V457.34a0.55,0.55,0,0,1,.28-0.48l13-7.48a0.55,0.55,0,0,1,.83.48v15.21a0.55,0.55,0,0,1-.28.48l-13,7.48A0.55,0.55,0,0,1,1061.41,472.55Z" transform="translate(-1060.57 -391.23)" style="fill:#efdbeb"/><path d="M1072,456.42a1.4,1.4,0,0,0-1.43.1,4,4,0,0,0-1.43,1.49l-0.42.73-0.42-.26a1.4,1.4,0,0,0-1.43.1,4,4,0,0,0-1.43,1.49c-0.78,1.37-.78,2.87,0,3.36l0.43,0.26,0.36,0.22,0.52,0.32,2,1.22,2-3.43,0.52-.91,0.36-.62,0.42-.73C1072.76,458.41,1072.76,456.91,1072,456.42Z" transform="translate(-1060.57 -391.23)" style="fill:#f0598b"/><polyline points="8.7 77.16 8.7 81.65 13.45 74.79" style="fill:#efdbeb"/></g><g style="opacity:0.75"><path d="M1136.82,427.91v14.54a0.85,0.85,0,0,1-.43.74l-19.92,11.5a0.85,0.85,0,0,1-1.28-.74V439.41a0.85,0.85,0,0,1,.43-0.74l19.92-11.5A0.85,0.85,0,0,1,1136.82,427.91Z" transform="translate(-1060.57 -391.23)" style="fill:#f0598b"/><polyline points="62.19 44.09 62.19 38.98 56.78 46.79" style="fill:#f0598b"/><polygon points="61.19 46.26 56.78 48.81 56.78 50.38 61.19 47.83 61.19 46.26" style="fill:#fff"/><polygon points="63.03 45.2 63.03 46.77 70.14 42.66 70.14 41.09 63.03 45.2" style="fill:#fff"/><polygon points="70.69 44.26 58.99 51.01 58.99 52.58 70.69 45.83 70.69 44.26" style="fill:#fff"/><polygon points="67.38 49.64 58.99 54.48 58.99 56.05 67.38 51.2 67.38 49.64" style="fill:#fff"/><polygon points="69.03 48.68 69.03 50.25 72.35 48.33 72.35 46.77 69.03 48.68" style="fill:#fff"/><polygon points="62.63 55.83 56.78 59.21 56.78 60.78 62.63 57.4 62.63 55.83" style="fill:#fff"/></g><path d="M1110.86,475.38a0.39,0.39,0,0,1-.37-0.48l1-4.22a0.39,0.39,0,0,1,.64-0.19l3.13,3a0.39,0.39,0,0,1-.16.65l-4.17,1.21h-0.11Zm1.25-3.86-0.72,2.92,2.89-.84Z" transform="translate(-1060.57 -391.23)" style="fill:#54b0e3;opacity:0.75"/><g style="opacity:0.75"><path d="M1138.62,452.39H1135a0.39,0.39,0,1,1,0-.77h3.6A0.39,0.39,0,1,1,1138.62,452.39Z" transform="translate(-1060.57 -391.23)" style="fill:#54b0e3"/><path d="M1136.82,454.19a0.39,0.39,0,0,1-.39-0.39v-3.6a0.39,0.39,0,0,1,.77,0v3.6A0.39,0.39,0,0,1,1136.82,454.19Z" transform="translate(-1060.57 -391.23)" style="fill:#54b0e3"/></g><path d="M1072.33,442.59h-0.09a3.1,3.1,0,0,1-.86-0.33,0.39,0.39,0,1,1,.38-0.67,2.34,2.34,0,0,0,.65.25A0.39,0.39,0,0,1,1072.33,442.59Zm1.6-.12a0.39,0.39,0,0,1-.14-0.75,2.32,2.32,0,0,0,.6-0.35,0.39,0.39,0,1,1,.48.6,3.13,3.13,0,0,1-.8.46Zm-3.45-1.34a0.39,0.39,0,0,1-.35-0.22,3.07,3.07,0,0,1-.28-0.88,0.39,0.39,0,1,1,.76-0.12,2.33,2.33,0,0,0,.21.66,0.39,0.39,0,0,1-.18.52A0.38,0.38,0,0,1,1070.48,441.13Zm5-.39-0.11,0a0.39,0.39,0,0,1-.26-0.48,2.36,2.36,0,0,0,.1-0.69,0.4,0.4,0,0,1,.39-0.4,0.37,0.37,0,0,1,.39.37h0a3.14,3.14,0,0,1-.14.93A0.39,0.39,0,0,1,1075.53,440.74Zm-5.06-2a0.39,0.39,0,0,1-.35-0.55,3.1,3.1,0,0,1,.52-0.77,0.39,0.39,0,0,1,.57.52,2.31,2.31,0,0,0-.39.58A0.39,0.39,0,0,1,1070.47,438.77Zm4.69-.39a0.38,0.38,0,0,1-.32-0.16,2.38,2.38,0,0,0-.48-0.51,0.39,0.39,0,1,1,.48-0.61,3.11,3.11,0,0,1,.64.67A0.39,0.39,0,0,1,1075.16,438.38Zm-2.86-1.09a0.39,0.39,0,0,1-.09-0.76,3.85,3.85,0,0,1,.72-0.08h0.2a0.39,0.39,0,0,1,.36.41,0.39,0.39,0,0,1-.41.36h-0.16a2.29,2.29,0,0,0-.53.06h-0.09Z" transform="translate(-1060.57 -391.23)" style="fill:#54b0e3;opacity:0.75"/><g id="_Group_" data-name="&lt;Group&gt;" style="opacity:0.75"><g id="_Group_2" data-name="&lt;Group&gt;"><path id="_Path_" data-name="&lt;Path&gt;" d="M1108.88,436.62L1127,426.15a0.9,0.9,0,0,0,.45-0.78V406.77a0.9,0.9,0,0,0-1.35-.78l-17.73,10.24a1.68,1.68,0,0,0-.84,1.46v18.15A0.9,0.9,0,0,0,1108.88,436.62Z" transform="translate(-1060.57 -391.23)" style="fill:#f0598b"/></g><g id="_Group_3" data-name="&lt;Group&gt;"><path id="_Path_2" data-name="&lt;Path&gt;" d="M1114.69,420.69c0,1.78,1.25,2.51,2.8,1.62a6.19,6.19,0,0,0,2.8-4.85c0-1.78-1.25-2.51-2.8-1.62A6.19,6.19,0,0,0,1114.69,420.69Z" transform="translate(-1060.57 -391.23)" style="fill:#fff"/><path id="_Path_3" data-name="&lt;Path&gt;" d="M1117.49,422.3c1.9-1.09,3.44-.21,3.44,2l-6.87,4A7.59,7.59,0,0,1,1117.49,422.3Z" transform="translate(-1060.57 -391.23)" style="fill:#fff"/></g></g><g id="_Group_4" data-name="&lt;Group&gt;" style="opacity:0.75"><g id="_Group_5" data-name="&lt;Group&gt;"><path id="_Path_4" data-name="&lt;Path&gt;" d="M1062.92,502.51L1084,490.35a1,1,0,0,0,.52-0.91V467.82a1,1,0,0,0-1.57-.9l-20.61,11.9a2,2,0,0,0-1,1.69V501.6A1,1,0,0,0,1062.92,502.51Z" transform="translate(-1060.57 -391.23)" style="fill:#efdbeb"/></g><g id="_Group_6" data-name="&lt;Group&gt;"><path id="_Path_5" data-name="&lt;Path&gt;" d="M1069.68,484.43c0,2.07,1.46,2.91,3.25,1.88a7.19,7.19,0,0,0,3.25-5.63c0-2.07-1.46-2.91-3.25-1.88A7.19,7.19,0,0,0,1069.68,484.43Z" transform="translate(-1060.57 -391.23)" style="fill:#f0598b"/><path id="_Path_6" data-name="&lt;Path&gt;" d="M1072.93,486.31c2.21-1.27,4-.24,4,2.3l-8,4.61A8.82,8.82,0,0,1,1072.93,486.31Z" transform="translate(-1060.57 -391.23)" style="fill:#f0598b"/></g></g><g style="opacity:0.75"><path id="_Path_7" data-name="&lt;Path&gt;" d="M1112.19,428.23l-31.14,18a0.5,0.5,0,0,0-.25.43v32.21a0.5,0.5,0,0,0,.75.43l31.14-18a0.5,0.5,0,0,0,.25-0.43V428.66A0.5,0.5,0,0,0,1112.19,428.23Z" transform="translate(-1060.57 -391.23)" style="fill:#3e60ac;mix-blend-mode:darken"/><path id="_Path_8" data-name="&lt;Path&gt;" d="M1086.84,462a0.31,0.31,0,0,0,.15-0.57l-1.57-.9,1.7-2.94a0.31,0.31,0,0,0-.53-0.31l-1.85,3.2a0.31,0.31,0,0,0,.11.42l1.83,1.06A0.31,0.31,0,0,0,1086.84,462Z" transform="translate(-1060.57 -391.23)" style="fill:#fff"/><path d="M1086.84,462.34a0.66,0.66,0,0,1-.33-0.09l-1.83-1.06a0.66,0.66,0,0,1-.24-0.9l1.85-3.2a0.66,0.66,0,0,1,.9-0.24,0.66,0.66,0,0,1,.24.9l-1.52,2.64,1.27,0.73A0.66,0.66,0,0,1,1086.84,462.34Zm0-.69h0Zm-1.78-1.08,0,0.07,0.09,0a0.34,0.34,0,0,1,0-.09v0Z" transform="translate(-1060.57 -391.23)" style="fill:#fff"/><path id="_Path_9" data-name="&lt;Path&gt;" d="M1106.9,450.38a0.31,0.31,0,0,0,.27-0.15L1109,447a0.31,0.31,0,0,0-.11-0.42l-1.85-1.07a0.31,0.31,0,1,0-.31.53l1.58,0.91-1.68,2.91A0.31,0.31,0,0,0,1106.9,450.38Z" transform="translate(-1060.57 -391.23)" style="fill:#fff"/><path d="M1106.9,450.73a0.67,0.67,0,0,1-.32-0.09,0.66,0.66,0,0,1-.24-0.9l1.51-2.61-1.28-.74a0.66,0.66,0,1,1,.66-1.14l1.85,1.07a0.67,0.67,0,0,1,.31.4,0.65,0.65,0,0,1-.06.5l-1.83,3.18A0.66,0.66,0,0,1,1106.9,450.73Zm1.71-3.9a0.36,0.36,0,0,1,0,.12l0-.07Z" transform="translate(-1060.57 -391.23)" style="fill:#fff"/><path id="_Path_10" data-name="&lt;Path&gt;" d="M1102.75,450.36a13,13,0,0,1-5.88,10.19c-3.25,1.88-5.88.36-5.88-3.4a13,13,0,0,1,5.88-10.19C1100.12,445.09,1102.75,446.61,1102.75,450.36Z" transform="translate(-1060.57 -391.23)" style="fill:#fff"/></g><g style="opacity:0.75"><path d="M1097.26,450.69a0.35,0.35,0,0,1-.35-0.35v-0.77a0.35,0.35,0,1,1,.7,0v0.77A0.35,0.35,0,0,1,1097.26,450.69Zm0-2.32a0.35,0.35,0,0,1-.35-0.35v-0.77a0.35,0.35,0,1,1,.7,0V448A0.35,0.35,0,0,1,1097.26,448.38Zm0-2.32a0.35,0.35,0,0,1-.35-0.35v-0.77a0.35,0.35,0,1,1,.7,0v0.77A0.35,0.35,0,0,1,1097.26,446.06Zm0-2.32a0.35,0.35,0,0,1-.35-0.35v-0.77a0.35,0.35,0,1,1,.7,0v0.77A0.35,0.35,0,0,1,1097.26,443.74Zm0-2.32a0.35,0.35,0,0,1-.35-0.35V440.3a0.35,0.35,0,1,1,.7,0v0.77A0.35,0.35,0,0,1,1097.26,441.42Zm0-2.32a0.35,0.35,0,0,1-.35-0.35V438a0.35,0.35,0,1,1,.7,0v0.77A0.35,0.35,0,0,1,1097.26,439.11Zm0-2.32a0.35,0.35,0,0,1-.35-0.35v-0.77a0.35,0.35,0,1,1,.7,0v0.77A0.35,0.35,0,0,1,1097.26,436.79Zm0-2.32a0.35,0.35,0,0,1-.35-0.35v-0.77a0.35,0.35,0,1,1,.7,0v0.77A0.35,0.35,0,0,1,1097.26,434.47Zm0-2.32a0.35,0.35,0,0,1-.35-0.35V431a0.35,0.35,0,1,1,.7,0v0.77A0.35,0.35,0,0,1,1097.26,432.16Zm0.74-1.89a0.35,0.35,0,0,1-.17-0.65l0.67-.39a0.35,0.35,0,0,1,.35.6l-0.67.39A0.35,0.35,0,0,1,1098,430.26Zm2-1.16a0.35,0.35,0,0,1-.17-0.65l0.67-.39a0.35,0.35,0,0,1,.35.6l-0.67.39A0.35,0.35,0,0,1,1100,429.11Zm2-1.16a0.35,0.35,0,0,1-.17-0.65l0.67-.39a0.35,0.35,0,0,1,.35.6l-0.67.39A0.35,0.35,0,0,1,1102,427.95Zm2-1.16a0.35,0.35,0,0,1-.17-0.65l0.67-.39a0.35,0.35,0,1,1,.35.6l-0.67.39A0.35,0.35,0,0,1,1104,426.79Z" transform="translate(-1060.57 -391.23)" style="fill:#231e1f"/><path d="M1098.42,448.32l-0.07,0-0.07,0h-0.48l-0.1,0-0.08,0-0.11,0-0.07,0-0.19.1a4,4,0,0,0-1.82,3.16,2.07,2.07,0,0,0,0,.4h0a1.46,1.46,0,0,0,.11.33h0a1.08,1.08,0,0,0,.17.26h0a0.9,0.9,0,0,0,.22.18,1.29,1.29,0,0,0,1.31-.12,4,4,0,0,0,1.83-3.16,1.28,1.28,0,0,0-.54-1.17l-0.07,0Z" transform="translate(-1060.57 -391.23)" style="fill:#231e1f"/><path d="M1105.85,423.76l-0.07,0-0.07,0h-0.48l-0.1,0-0.08,0-0.11,0-0.07,0-0.19.1a4,4,0,0,0-1.82,3.16,2.07,2.07,0,0,0,0,.4h0a1.47,1.47,0,0,0,.11.33h0a1.08,1.08,0,0,0,.17.26h0a0.9,0.9,0,0,0,.22.18,1.29,1.29,0,0,0,1.31-.12,4,4,0,0,0,1.83-3.16,1.28,1.28,0,0,0-.54-1.17l-0.07,0Z" transform="translate(-1060.57 -391.23)" style="fill:#231e1f"/></g><g style="opacity:0.5"><polygon points="7.87 23.65 1.87 20.18 7.87 16.71 13.88 20.18 7.87 23.65" style="fill:#e1eaf7"/><polygon points="7.87 18.19 0 13.64 0 4.55 7.87 9.09 7.87 18.19" style="fill:#00a2d2"/><polygon points="7.87 9.09 0 4.55 7.87 0 15.75 4.55 7.87 9.09" style="fill:#54b0e3"/><polygon points="15.75 13.64 7.87 18.19 7.87 9.09 15.75 4.55 15.75 13.64" style="fill:#37a8d9"/></g><g style="opacity:0.5"><polygon points="93.64 108.06 87.63 104.59 93.64 101.12 99.64 104.59 93.64 108.06" style="fill:#e1eaf7"/><polygon points="93.64 103.08 85.76 98.53 93.64 82.99 93.64 103.08" style="fill:#37a8d9"/><polygon points="101.52 98.53 93.64 103.08 93.64 82.99 101.52 98.53" style="fill:#54b0e3"/></g></g></g></svg>