<svg xmlns="http://www.w3.org/2000/svg" viewBox="0 0 453.8 296.77"><title>Asset 1</title><g data-name="Layer 2" style="isolation:isolate"><g data-name="Layer 5" style="mix-blend-mode:color-dodge"><path d="M211.43 119.83l12-20.65a1.94 1.94 0 0 1 3.35 0l3.44 5.92 8-13.84a1.94 1.94 0 0 1 3.35 0L254 112.52l3.22-5.54a1.94 1.94 0 0 1 3.35 0l7.43 12.85M136.79 78.32L131 68.37a1.94 1.94 0 0 0-3.35 0l-3.44 5.92-8-13.84a1.94 1.94 0 0 0-3.35 0l-12.38 21.27-3.22-5.54a1.94 1.94 0 0 0-3.35 0L86.45 89M129.83 47.21a5.84 5.84 0 0 1 8.1-5.38 7.31 7.31 0 0 1 6.8-4.62h.11a9.68 9.68 0 0 1 19.25 1.23 7.31 7.31 0 0 1 6.84 6.18 3.16 3.16 0 0 1 4 3.07h-45c-.09-.15-.1-.31-.1-.48z" fill="none" stroke="#a7a8ae" stroke-linecap="round" stroke-linejoin="round"/><path d="M203.15 86.49l2.53-4.36a1.94 1.94 0 0 1 3.35 0l2.45 4.22 6.36-10.95a1.94 1.94 0 0 1 3.35 0l13.08 22.51" fill="none" stroke="#a7a8ae" stroke-linecap="round" stroke-linejoin="round"/><path d="M118 110.4l47.57-81.89a2.26 2.26 0 0 1 3.91 0L217 110.4" fill="#fff" stroke="#a7a8ae" stroke-linecap="round" stroke-linejoin="round"/><path d="M128 128.29l17.09-29.49a3.94 3.94 0 0 1 6.82 0L169 128.29M54.3 97.92l16.6-28.57a2.1 2.1 0 0 1 3.64 0l20.53 35.34M200.3 253.9l14.33-24.67a2.94 2.94 0 0 1 5.08 0L234 253.9" fill="none" stroke="#a7a8ae" stroke-linecap="round" stroke-linejoin="round"/><path d="M31.87 101.45l2.53-4.36a1.94 1.94 0 0 1 3.35 0l2.45 4.22 6.36-10.95a1.94 1.94 0 0 1 3.35 0L63 112.87M176.09 135.29l11.71-20.16a1.94 1.94 0 0 1 3.35 0l8.6 14.8 1.91-3.28a1.94 1.94 0 0 1 3.35 0l5 8.64M226.21 268.41l12.89-22.2a1.91 1.91 0 0 1 3.3 0l9.51 16.38 2.24-3.86a1.91 1.91 0 0 1 3.3 0l5.62 9.68M216 61.29a2.7 2.7 0 0 0-2.7-2.7M218.75 58.59a2.7 2.7 0 0 0-2.7 2.7M208.23 67.38a2 2 0 0 0-2-2M210.26 65.35a2 2 0 0 0-2 2M41.31 200.85a2.7 2.7 0 0 0 2.7 2.7M35.9 200.85a2.7 2.7 0 1 0 5.41 0M30.49 200.85a2.7 2.7 0 1 0 5.41 0M27.79 203.56a2.7 2.7 0 0 0 2.7-2.7M400.52 114a2.7 2.7 0 0 0 2.7 2.7M395.11 114a2.7 2.7 0 1 0 5.41 0M389.7 114a2.7 2.7 0 0 0 5.41 0M387 116.75a2.7 2.7 0 0 0 2.7-2.7M154.52 270.77a2.7 2.7 0 0 0 2.7 2.7M149.11 270.77a2.7 2.7 0 0 0 5.41 0M143.71 270.77a2.7 2.7 0 0 0 5.41 0M141 273.47a2.7 2.7 0 0 0 2.7-2.7M31.84 256.91a2.7 2.7 0 0 0 2.7 2.7M26.43 256.91a2.7 2.7 0 0 0 5.41 0M21 256.91a2.7 2.7 0 0 0 5.41 0M18.32 259.61a2.7 2.7 0 0 0 2.7-2.7M435.14 145.77a2.7 2.7 0 0 0 2.7 2.7M429.73 145.77a2.7 2.7 0 0 0 5.41 0M424.32 145.77a2.7 2.7 0 0 0 5.41 0M421.62 148.47a2.7 2.7 0 0 0 2.7-2.7M233.74 79.53a1.35 1.35 0 0 0-2.53-.67M236.27 78.85a1.35 1.35 0 0 0-2.52.68M194.37 53.43a1.35 1.35 0 0 0-2.53-.67M196.89 52.75a1.35 1.35 0 0 0-2.52.68M178.35 75.28a1.69 1.69 0 0 0-3.16-.84M181.5 74.44a1.69 1.69 0 0 0-3.15.85" fill="none" stroke="#a7a8ae" stroke-linecap="round" stroke-linejoin="round"/><path d="M414.89 98.87v-7a11.74 11.74 0 1 0-23.49 0v7" fill="#fff" stroke="#a7a8ae" stroke-linecap="round" stroke-linejoin="round"/><path d="M398.4 99v-1.65a8.77 8.77 0 1 0-17.54 0v1" fill="#fff" stroke="#a7a8ae" stroke-linecap="round" stroke-linejoin="round"/><path d="M265.24 96.34a2.7 2.7 0 1 0 5.41 0M259.83 96.34a2.7 2.7 0 1 0 5.41 0M254.42 96.34a2.7 2.7 0 1 0 5.41 0M249 96.34a2.7 2.7 0 1 0 5.41 0M286.87 96.34a2.7 2.7 0 1 0 5.41 0M281.46 96.34a2.7 2.7 0 1 0 5.41 0M276.06 96.34a2.7 2.7 0 1 0 5.41 0M270.65 96.34a2.7 2.7 0 0 0 5.41 0M308.51 96.34a2.7 2.7 0 1 0 5.41 0M303.1 96.34a2.7 2.7 0 1 0 5.41 0M297.69 96.34a2.7 2.7 0 1 0 5.41 0M292.28 96.34a2.7 2.7 0 0 0 5.41 0M330.14 96.34a2.7 2.7 0 1 0 5.41 0M324.73 96.34a2.7 2.7 0 1 0 5.41 0M319.32 96.34a2.7 2.7 0 1 0 5.41 0M313.91 96.34a2.7 2.7 0 1 0 5.41 0M351.77 96.34a2.7 2.7 0 0 0 5.41 0M346.36 96.34a2.7 2.7 0 0 0 5.41 0M341 96.34a2.7 2.7 0 1 0 5.41 0M335.55 96.34a2.7 2.7 0 1 0 5.41 0M373.41 96.34a2.7 2.7 0 0 0 5.41 0M368 96.34a2.7 2.7 0 0 0 5.41 0M362.59 96.34a2.7 2.7 0 0 0 5.41 0M357.18 96.34a2.7 2.7 0 0 0 5.41 0M395 96.34a2.7 2.7 0 0 0 5.41 0M389.63 96.34a2.7 2.7 0 0 0 5.41 0M384.22 96.34a2.7 2.7 0 0 0 5.41 0M378.81 96.34a2.7 2.7 0 1 0 5.41 0M416.67 96.34a2.7 2.7 0 1 0 5.41 0M411.26 96.34a2.7 2.7 0 1 0 5.41 0M405.86 96.34a2.7 2.7 0 0 0 5.41 0M400.45 96.34a2.7 2.7 0 0 0 5.41 0M438.31 96.34A2.7 2.7 0 0 0 441 99M432.9 96.34a2.7 2.7 0 0 0 5.41 0M427.49 96.34a2.7 2.7 0 0 0 5.41 0M422.08 96.34a2.7 2.7 0 0 0 5.41 0M246.31 99a2.7 2.7 0 0 0 2.7-2.7M136.78 255.62a2.7 2.7 0 0 0 2.7 2.7M131.38 255.62a2.7 2.7 0 1 0 5.41 0M126 255.62a2.7 2.7 0 1 0 5.41 0M120.56 255.62a2.7 2.7 0 0 0 5.41 0M115.15 255.62a2.7 2.7 0 0 0 5.41 0M112.45 258.32a2.7 2.7 0 0 0 2.7-2.7M410.5 145.77a2.7 2.7 0 0 0 2.7 2.7M405.1 145.77a2.7 2.7 0 0 0 5.41 0M399.69 145.77a2.7 2.7 0 1 0 5.41 0M394.28 145.77a2.7 2.7 0 0 0 5.41 0M388.87 145.77a2.7 2.7 0 0 0 5.41 0M386.17 148.47a2.7 2.7 0 0 0 2.7-2.7M381.12 127.27a2.7 2.7 0 0 0 2.7 2.7M375.71 127.27a2.7 2.7 0 1 0 5.41 0M370.3 127.27a2.7 2.7 0 1 0 5.41 0M364.9 127.27a2.7 2.7 0 1 0 5.41 0M359.49 127.27a2.7 2.7 0 0 0 5.41 0M356.78 130a2.7 2.7 0 0 0 2.7-2.7M60.24 226.48a2.7 2.7 0 0 0 2.7 2.7M54.83 226.48a2.7 2.7 0 1 0 5.41 0M49.42 226.48a2.7 2.7 0 1 0 5.41 0M44 226.48a2.7 2.7 0 1 0 5.41 0M38.6 226.48a2.7 2.7 0 1 0 5.41 0M35.9 229.19a2.7 2.7 0 0 0 2.7-2.7M26.43 213.84a2.7 2.7 0 0 0 2.7 2.7M21 213.84a2.7 2.7 0 1 0 5.41 0M18.32 216.54a2.7 2.7 0 0 0 2.7-2.7M419.38 164.42a2.7 2.7 0 0 0 2.7 2.7M414 164.42a2.7 2.7 0 1 0 5.41 0M411.26 167.12a2.7 2.7 0 0 0 2.7-2.7M21 265.76a2.7 2.7 0 0 0 2.7 2.7M15.62 265.76a2.7 2.7 0 1 0 5.41 0M12.91 268.46a2.7 2.7 0 0 0 2.7-2.7M8.61 239a2.7 2.7 0 0 0 2.7 2.7M3.2 239a2.7 2.7 0 1 0 5.41 0M.5 241.68A2.7 2.7 0 0 0 3.2 239M341 112.56a2.7 2.7 0 0 0 2.7 2.7M335.55 112.56a2.7 2.7 0 1 0 5.41 0M332.84 115.27a2.7 2.7 0 0 0 2.7-2.7" fill="none" stroke="#a7a8ae" stroke-linecap="round" stroke-linejoin="round"/><path fill="none" stroke="#2e3844" stroke-linecap="round" stroke-linejoin="round" d="M378.68 37.23h-37.4M352.67 30.47h14.62M359.98 25.7v4.77"/><circle cx="359.98" cy="34.33" r="5.49" fill="#fff" stroke="#2e3844" stroke-linecap="round" stroke-linejoin="round"/><circle cx="367.92" cy="39.03" r="1.8" fill="#fff" stroke="#2e3844" stroke-linecap="round" stroke-linejoin="round"/><circle cx="374.09" cy="39.03" r="1.8" fill="#fff" stroke="#2e3844" stroke-linecap="round" stroke-linejoin="round"/><circle cx="345.75" cy="39.03" r="1.8" fill="#fff" stroke="#2e3844" stroke-linecap="round" stroke-linejoin="round"/><circle cx="352.03" cy="39.03" r="1.8" fill="#fff" stroke="#2e3844" stroke-linecap="round" stroke-linejoin="round"/><path fill="none" stroke="#2e3844" stroke-linecap="round" stroke-linejoin="round" d="M361.41 32.54h-2.87"/><circle cx="244.38" cy="181.21" r="3.74" fill="#fff" stroke="#a7a8ae" stroke-linecap="round" stroke-linejoin="round"/><path fill="none" stroke="#a7a8ae" stroke-linecap="round" stroke-linejoin="round" d="M244.38 183.19v5.96"/><circle cx="342.06" cy="160.39" r="3.69" fill="#fff" stroke="#a7a8ae" stroke-linecap="round" stroke-linejoin="round"/><path fill="none" stroke="#a7a8ae" stroke-linecap="round" stroke-linejoin="round" d="M342.06 162.34v5.87"/><circle cx="271.32" cy="142.07" r="4.73" fill="#fff" stroke="#a7a8ae" stroke-linecap="round" stroke-linejoin="round"/><path fill="none" stroke="#a7a8ae" stroke-linecap="round" stroke-linejoin="round" d="M271.32 144.56v5.58"/><circle cx="284.38" cy="226.57" r="4.36" fill="#fff" stroke="#a7a8ae" stroke-linecap="round" stroke-linejoin="round"/><path fill="none" stroke="#a7a8ae" stroke-linecap="round" stroke-linejoin="round" d="M284.38 228.87v6.95"/><circle cx="7.29" cy="147.28" r="3.04" fill="#fff" stroke="#a7a8ae" stroke-linecap="round" stroke-linejoin="round"/><path fill="none" stroke="#a7a8ae" stroke-linecap="round" stroke-linejoin="round" d="M7.29 148.88v4.85M209.39 179.26l3.99-11.76 3.99 11.76h-7.98zM213.38 177.96v5.78M141.05 228.27l-4.11-12.13-4.12 12.13h8.23zM136.94 226.92v5.96M230.69 174.08v1.61M228.52 174.08v1.61M213.53 210.82v.96M215.7 210.82v.96M202.63 292.63v1.61M200.46 292.63v1.61M206.93 292.63v1.61M204.75 292.63v1.61M177.53 285.59v1.61M175.36 285.59v1.61M198.28 292.63v1.61M196.11 292.63v1.61M165.56 175.61v1.61M163.39 175.61v1.61M169.91 175.61v1.61M167.73 175.61v1.61M167.77 154.48v1.54M165.69 154.48v1.54M276.28 176.4v1.61M274.11 176.4v1.61M339.34 201.89v1.61M337.16 201.89v1.61M326.57 156.81v1.61M324.4 156.81v1.61M328.75 156.81v1.61M430.57 210.52v3.62M432.75 210.52v3.62M428.4 210.52v3.62M318.15 121.33v1.61M315.98 121.33v1.61M320.33 121.33v1.61M377.75 152.01v1.61M375.57 152.01v1.61M379.92 152.01v1.61M373.4 152.01v1.61M371.23 152.01v1.61M301.09 121.33v1.61M298.91 121.33v1.61M270.65 130.97v1.61M268.47 130.97v1.61M272.82 130.97v1.61M196.98 178.12v1.61M194.81 178.12v1.61M180.76 231.01v1.61M178.58 231.01v1.61M20.82 153.73v1.61M18.65 153.73v1.61M51.22 146.63v1.61M49.05 146.63v1.61M202.3 170.94l2.6-7.65 2.59 7.65h-5.19zM204.9 170.09v3.77M231.57 199.85l2.17-6.41 2.18 6.41h-4.35zM233.74 199.14v3.15M186.35 288.3l5.3-15.61 5.29 15.61h-10.59zM191.65 286.57v7.67M176.82 273.55l4.33-8.95 4.33 8.95h-8.66zM181.15 272.55v4.4M57.26 150.2l4.33-8.94 4.33 8.94h-8.66zM61.59 149.21v4.39M154.71 145.62l7.13-13.51 7.13 13.51h-14.26zM161.84 142.98v7.79M336.99 260.77l7.39-14.01 7.39 14.01h-14.78zM344.38 258.04v8.07M294.35 260.34l9.95-18.87 9.95 18.87h-19.9zM304.3 256.66v10.86M323.25 266.58l5.35-10.15 5.35 10.15h-10.7zM328.6 264.6v5.85M313.47 243.52l5.35-10.15 5.35 10.15h-10.7zM318.82 241.54v5.84M171.58 152.25l4.59-8.7 4.59 8.7h-9.18zM176.17 150.15v5.42M266.85 175.51l2.56-7.55 2.56 7.55h-5.12zM269.41 174.67v3.71"/><path d="M284 177.21a4.82 4.82 0 0 1 9.63 0M319.91 136.72a4.82 4.82 0 0 1 9.63 0M302.05 141.8a9.85 9.85 0 1 1 19.71 0M279.14 177.21a2.41 2.41 0 0 1 4.82 0M281.43 210.63a15.06 15.06 0 1 0-30.11 0M247.46 212.23a4.82 4.82 0 0 1 9.63 0M242.64 212.23a2.41 2.41 0 0 1 4.82 0M67.32 126.66a4.6 4.6 0 1 1 9.2 0M62.72 126.66a2.3 2.3 0 0 1 4.6 0M119.14 204.73a2.41 2.41 0 1 0-4.82 0M114.2 203.77a4.06 4.06 0 0 0-8.13 0M344 185.7a5.88 5.88 0 1 1 11.75 0M175.85 171.6a3.39 3.39 0 0 1 6.79 0M191.49 232.62a4.18 4.18 0 1 0-8.35 0M199.85 232.62a4.18 4.18 0 1 0-8.35 0M182.52 170.93a6.79 6.79 0 1 1 13.57 0M262.31 242.76a5 5 0 1 0-10 0M282.28 242.76a10 10 0 1 0-20 0M16.34 177.22a6.79 6.79 0 1 1 13.57 0M29.91 177.22a16.79 16.79 0 1 1 33.57 0M265.46 126.56a11.38 11.38 0 1 1 22.77 0M55.06 258a16.09 16.09 0 1 1 32.18 0M72.14 261.77a4.52 4.52 0 1 1 9 0M81.23 261.77a6 6 0 0 1 12 0" fill="#fff" stroke="#a7a8ae" stroke-linecap="round" stroke-linejoin="round"/><circle cx="253.74" cy="171.18" r="5.92" fill="#fff" stroke="#a7a8ae" stroke-linecap="round" stroke-linejoin="round"/><path fill="none" stroke="#a7a8ae" stroke-linecap="round" stroke-linejoin="round" d="M253.74 174.31v9.43"/><circle cx="117.79" cy="121.57" r="4.6" fill="#fff" stroke="#a7a8ae" stroke-linecap="round" stroke-linejoin="round"/><path fill="none" stroke="#a7a8ae" stroke-linecap="round" stroke-linejoin="round" d="M117.79 124v5.06"/><circle cx="206.25" cy="273.81" r="7.4" fill="#fff" stroke="#a7a8ae" stroke-linecap="round" stroke-linejoin="round"/><path fill="none" stroke="#a7a8ae" stroke-linecap="round" stroke-linejoin="round" d="M206.25 277.71v8.35"/><circle cx="250.63" cy="121.47" r="3.4" fill="#fff" stroke="#a7a8ae" stroke-linecap="round" stroke-linejoin="round"/><path fill="none" stroke="#a7a8ae" stroke-linecap="round" stroke-linejoin="round" d="M250.63 122.99v4.4"/><circle cx="220.26" cy="287.58" r="4.99" fill="#fff" stroke="#a7a8ae" stroke-linecap="round" stroke-linejoin="round"/><path fill="none" stroke="#a7a8ae" stroke-linecap="round" stroke-linejoin="round" d="M220.26 289.81v6.46"/><circle cx="163.82" cy="190.22" r="4.52" fill="#fff" stroke="#a7a8ae" stroke-linecap="round" stroke-linejoin="round"/><path fill="none" stroke="#a7a8ae" stroke-linecap="round" stroke-linejoin="round" d="M163.82 192.25v5.85"/><circle cx="240.63" cy="125.12" r="4.56" fill="#fff" stroke="#a7a8ae" stroke-linecap="round" stroke-linejoin="round"/><path fill="none" stroke="#a7a8ae" stroke-linecap="round" stroke-linejoin="round" d="M240.63 127.53v5.57"/><circle cx="222.51" cy="159.84" r="5.75" fill="#fff" stroke="#a7a8ae" stroke-linecap="round" stroke-linejoin="round"/><path fill="none" stroke="#a7a8ae" stroke-linecap="round" stroke-linejoin="round" d="M222.51 162.87v9.15"/><circle cx="101.61" cy="119.56" r="7.18" fill="#fff" stroke="#a7a8ae" stroke-linecap="round" stroke-linejoin="round"/><path fill="none" stroke="#a7a8ae" stroke-linecap="round" stroke-linejoin="round" d="M101.61 123.35v11.43"/><circle cx="372.08" cy="202.92" r="3.63" fill="#fff" stroke="#a7a8ae" stroke-linecap="round" stroke-linejoin="round"/><path fill="none" stroke="#a7a8ae" stroke-linecap="round" stroke-linejoin="round" d="M372.08 203.86v5.77"/><circle cx="292.28" cy="116.45" r="4.52" fill="#fff" stroke="#a7a8ae" stroke-linecap="round" stroke-linejoin="round"/><path fill="none" stroke="#a7a8ae" stroke-linecap="round" stroke-linejoin="round" d="M292.28 118.06v8.5M3.48 189.15h80.81a9 9 0 0 1 9 9 9 9 0 0 1-9 9h-6.07a3.63 3.63 0 0 0-3.63 3.63 3.63 3.63 0 0 0 3.63 3.63h31a15.44 15.44 0 0 1 15.44 15.44v6.88a8.56 8.56 0 0 0 8.56 8.56h49.88a6.17 6.17 0 0 1 6.17 6.17 6.17 6.17 0 0 1-6.17 6.17H175a6.73 6.73 0 0 0-6.73 6.73v18.92M453.3 179h-76.65a4.42 4.42 0 0 1-4.42-4.42 4.42 4.42 0 0 1 4.42-4.42h6.08a8.18 8.18 0 0 0 8.17-8.16 8.18 8.18 0 0 0-8.18-8.18H356.3a15.44 15.44 0 0 1-15.44-15.44A15.44 15.44 0 0 0 325.43 123h-37.78M322 157.62c-9.79 0-16.8-7.32-24.53-7.32s-9.38 4.84-17.21 4.84M236 161c7.83 0 9.48-4.84 17.21-4.84 9.06 0 12.77 7.32 22.57 7.32h14.33M380.74 210.34c9.4 0 11.38-5.81 20.65-5.81 10.87 0 15.33 8.78 27.07 8.78h5M211.23 211.3c-26.36 0-28.87-13.95-40.91-13.95-10 0-11.84 5.32-18.36 5.32-4.62 0-5.32-2.21-9.63-2.21s-8.73 4.31-14 4.31h-9.13M209 200.88c4.52 0 5.82-3 10.54-3 5.32 0 8.23 4.52 14.85 4.52"/><path fill="#fff" stroke="#a7a8ae" stroke-linecap="round" stroke-linejoin="round" d="M259.69 127.94l4.2-7.91 4.21 7.91h-8.41z"/><path fill="none" stroke="#a7a8ae" stroke-linecap="round" stroke-linejoin="round" d="M263.9 126.56v3.74"/><path fill="#fff" stroke="#a7a8ae" stroke-linecap="round" stroke-linejoin="round" d="M381.87 86.09l4.2-7.91 4.21 7.91h-8.41z"/><path fill="none" stroke="#a7a8ae" stroke-linecap="round" stroke-linejoin="round" d="M386.07 84.71v4.63"/><path fill="#fff" stroke="#a7a8ae" stroke-linecap="round" stroke-linejoin="round" d="M289.38 199.97l4.15-9.88 4.16 9.88h-8.31z"/><path fill="none" stroke="#a7a8ae" stroke-linecap="round" stroke-linejoin="round" d="M293.53 198.25v5.8"/><path fill="#fff" stroke="#a7a8ae" stroke-linecap="round" stroke-linejoin="round" d="M385.72 196.04l-5.02-10.7-5.03 10.7h10.05z"/><path fill="none" stroke="#a7a8ae" stroke-linecap="round" stroke-linejoin="round" d="M380.7 194.17v6.28"/><path fill="#fff" stroke="#2e3844" stroke-linecap="round" stroke-linejoin="round" d="M225.93 135.78h-10.31l-4.19 8.22H221.74"/><path fill="#fff" stroke="#2e3844" stroke-linecap="round" stroke-linejoin="round" d="M221.74 144l4.19-8.22 4.19 8.22h-8.38z"/><path fill="none" stroke="#2e3844" stroke-linecap="round" stroke-linejoin="round" d="M225.93 135.77V144"/><path fill="#fff" stroke="#2e3844" stroke-linecap="round" stroke-linejoin="round" d="M42.26 140.18H31.95l-4.19 8.23h10.3M38.06 148.41l4.2-8.23 4.19 8.23h-8.39z"/><path fill="none" stroke="#2e3844" stroke-linecap="round" stroke-linejoin="round" d="M42.25 140.18v8.23"/><path fill="#fff" stroke="#2e3844" stroke-linecap="round" stroke-linejoin="round" d="M244.03 135.78h10.3l4.19 8.22h-10.3"/><path fill="#fff" stroke="#2e3844" stroke-linecap="round" stroke-linejoin="round" d="M248.22 144l-4.19-8.22-4.2 8.22h8.39z"/><path fill="none" stroke="#2e3844" stroke-linecap="round" stroke-linejoin="round" d="M244.03 135.77V144M425.52 146.74l2.9-3.14h-19.17l-2.89 3.14M423.52 143.6h-8.66l-2.18-2.36h10.84v2.36zM420.79 120.53v20.71M419.86 121.97h1.86M419.2 138.11h4.32M423 124c1.53 2.65 3.54 12.39 2.59 17.68 0 0 4.85-1.53 5.44-5.7S423 124 423 124zM418.51 128.85s-5 3.41-5.48 6.27 4.18 3.87 4.18 3.87-1-1.07-.47-4.64a15.26 15.26 0 0 1 1.77-5.5z"/><path d="M449.07 57.56v-.41a7.93 7.93 0 0 0-7.07-7.89v-.58a9.88 9.88 0 0 0-19.76-.14 7.91 7.91 0 0 0-11.89 4.67 4.83 4.83 0 0 0-6.94 4.36zM299.26 68.12v-.28a5.38 5.38 0 0 1 4.81-5.35v-.4a6.7 6.7 0 0 1 13.4-.1 5.37 5.37 0 0 1 8.07 3.17 3.28 3.28 0 0 1 4.71 3zM417.44 41.6a4.38 4.38 0 0 0-7.14-4 9.68 9.68 0 0 0-18.79 1 2.8 2.8 0 0 0-.75-.11 2.83 2.83 0 0 0-2.83 2.83v.27z" fill="none" stroke="#a7a8ae" stroke-linecap="round" stroke-linejoin="round"/><path d="M41.95 81.88a4.38 4.38 0 0 1 7.14-4 9.68 9.68 0 0 1 18.79 1 2.8 2.8 0 0 1 .75-.11 2.83 2.83 0 0 1 2.83 2.83v.27z" fill="#fff" stroke="#a7a8ae" stroke-linecap="round" stroke-linejoin="round"/><path d="M373.87 54.69a2 2 0 0 0-2-2 2 2 0 0 0-1 .27 4.07 4.07 0 0 0-7.57 1.77zM74.67 61.3a2.55 2.55 0 0 1 2.55-2.55 2.52 2.52 0 0 1 1.25.34 5.09 5.09 0 0 1 9.47 2.21zM127.06 158.88a2.26 2.26 0 0 0-2.26-2.26 2.23 2.23 0 0 0-1.11.3 4.5 4.5 0 0 0-8.37 2zM199.17 18.25a4 4 0 0 0-4-4 3.94 3.94 0 0 0-2 .53 8 8 0 0 0-14.79 3.45zM98.74 261.77H65.46M60.7 258.05h-8.96M105.27 265.17H89.21M82.88 265.17h2.34M76.82 126.66c34.08 0 26.22 13.76 61.94 13.76M280 235.84c37.39 0 36.29-18.75 54.8-18.75 13.27 0 16.81 7.67 25.94 7.67 6.82 0 7.79-3.3 13.73-3.3 8.31 0 8.19 7.54 24.79 7.54H406" fill="none" stroke="#a7a8ae" stroke-linecap="round" stroke-linejoin="round"/><circle cx="13.42" cy="139.87" r="4.82" fill="#fff" stroke="#a7a8ae" stroke-linecap="round" stroke-linejoin="round"/><path fill="none" stroke="#a7a8ae" stroke-linecap="round" stroke-linejoin="round" d="M13.42 142.41v7.67M194.22 40.86A11.83 11.83 0 0 1 210.61 30a14.81 14.81 0 0 1 13.77-9.36h.23a19.6 19.6 0 0 1 39 2.49 14.79 14.79 0 0 1 13.84 12.52 6.4 6.4 0 0 1 8 6.22h-91.18c-.03-.36-.05-.69-.05-1.01zM54.24 16.95A10.81 10.81 0 0 1 69.06 6.9a16.06 16.06 0 0 1 28.38 5.65h.53a5.73 5.73 0 0 1 5.73 5.73H54.32a10.91 10.91 0 0 1-.08-1.33z"/><path d="M201.17 65.54a5.41 5.41 0 0 0-7.41-5 8 8 0 0 0-14.19 2.83h-.27a2.86 2.86 0 0 0-2.86 2.86h24.69a5.45 5.45 0 0 0 .04-.69zM111.78 158.31a4.78 4.78 0 0 0-6.56-4.45 7.1 7.1 0 0 0-12.55 2.5h-.24a2.53 2.53 0 0 0-2.53 2.53h21.84a4.82 4.82 0 0 0 .04-.58zM320.52 185.7a11.74 11.74 0 0 1 23.49 0" fill="#fff" stroke="#a7a8ae" stroke-linecap="round" stroke-linejoin="round"/><path fill="#fff" stroke="#2e3844" stroke-linecap="round" stroke-linejoin="round" d="M332.97 203.78h-10.89v-10.89h10.89zM322.08 192.89h10.89v-6.04l-5.45-5.44-5.44 5.44v6.04zM311.15 203.78h-10.89v-10.89h10.89zM311.15 192.89l-5.44-6.04-5.44 6.04h10.88z"/><path fill="#fff" stroke="#2e3844" stroke-linecap="round" stroke-linejoin="round" d="M311.15 192.89h10.93l-5.44-6.04h-10.93l5.44 6.04zM322.09 203.78h-10.93v-10.89h10.93zM319.79 181.41l-5.45 5.44h7.74l5.44-5.44h-7.73z"/><circle cx="327.53" cy="188.81" r="1.56" fill="#fff" stroke="#2e3844" stroke-linecap="round" stroke-linejoin="round"/><path fill="#fff" stroke="#2e3844" stroke-linecap="round" stroke-linejoin="round" d="M314.34 196.68h4.55v2.63h-4.55zM303.44 196.68h4.55v2.63h-4.55zM329.8 203.78h-4.55v-7.1h4.55z"/><path fill="none" stroke="#2e3844" stroke-linecap="round" stroke-linejoin="round" d="M172.25 224.01h-14.39l-6.23-8.6h14.39l6.23 8.6zM151.62 215.41l-6.24 8.6M156.66 222.41v10.21h-10.09v-10.21M156.66 224.01h14.33v8.61h-14.33z"/><path fill="none" stroke="#2e3844" stroke-linecap="round" stroke-linejoin="round" d="M150.61 222.99h2.04v2.04h-2.04zM150.61 226.81h2.04v2.04h-2.04zM166 226.63h2.04v3.24H166zM160.18 226.63h3.37v6h-3.37zM142.02 232.62h6.48"/><path fill="#fff" stroke="#2e3844" stroke-linecap="round" stroke-linejoin="round" d="M253.89 80.12h-6.6V75.9h6.6zM248.25 72.51v3.4M252.93 75.91v-3.4M234 52.76a16.6 16.6 0 1 1 22.26 15.61 2.36 2.36 0 0 0-1.41 1.45l-.95 2.69h-6.6l-.95-2.69a2.36 2.36 0 0 0-1.41-1.45A16.6 16.6 0 0 1 234 52.76z"/><path d="M242 52.76c0-9.52 4.15-17.17 9.15-16.57 4.22.51 7.68 7.06 8 15.19.32 7.77-2.12 14.52-5.64 17a2.28 2.28 0 0 0-.73 1.45l-.49 2.69h-3.42l-.49-2.69a2.28 2.28 0 0 0-.73-1.45c-3.3-2.33-5.65-8.44-5.65-15.62z" fill="#fff" stroke="#2e3844" stroke-linecap="round" stroke-linejoin="round"/><path fill="none" stroke="#2e3844" stroke-linecap="round" stroke-linejoin="round" d="M268.69 54.33h-36.21M236.86 144h-3.76M235.88 141.71l-1.81 1.95M235.88 143.66l-1.81-1.95M233.76 138.91c0-2 1.22-2 1.22-4.07"/><path fill="none" stroke="#a7a8ae" stroke-linecap="round" stroke-linejoin="round" d="M160.41 177.22H63.48"/><path d="M287.34 242.86a2.53 2.53 0 0 0-5.05 0" fill="#fff" stroke="#a7a8ae" stroke-linecap="round" stroke-linejoin="round"/><path fill="none" stroke="#2e3844" stroke-linecap="round" stroke-linejoin="round" d="M126.39 164.82l-.9-2.56h4.5l-.89 2.56v2.55h3.56v4.22h-22.67v-5.42l-1.96-2.26h8.98v3.46h2.31v-2.3h2.46v2.3h4.61v-2.55zM134.4 175.5h-5.5l-2.03-2.06h-1.71l-1.08 1.41h-11.53l-2.56-.91v-2.35h21.41l3 3.91z"/><path fill="none" stroke="#2e3844" stroke-linecap="round" stroke-linejoin="round" d="M112.22 166.3h2.59v2.59h-2.59z"/><circle cx="114.19" cy="175.23" r="1.64" fill="#fff" stroke="#2e3844" stroke-linecap="round" stroke-linejoin="round"/><circle cx="121.26" cy="175.23" r="1.64" fill="#fff" stroke="#2e3844" stroke-linecap="round" stroke-linejoin="round"/><circle cx="130.51" cy="175.42" r="1.46" fill="#fff" stroke="#2e3844" stroke-linecap="round" stroke-linejoin="round"/><path fill="none" stroke="#2e3844" stroke-linecap="round" stroke-linejoin="round" d="M90.2 166.92h17.1v7.54H90.2zM92.23 168.88v3.62M94.84 168.88v3.62M97.45 168.88v3.62M100.06 168.88v3.62M102.66 168.88v3.62M105.27 168.88v3.62"/><circle cx="93.3" cy="175.42" r="1.46" fill="#fff" stroke="#2e3844" stroke-linecap="round" stroke-linejoin="round"/><circle cx="104.2" cy="175.42" r="1.46" fill="#fff" stroke="#2e3844" stroke-linecap="round" stroke-linejoin="round"/><path fill="none" stroke="#2e3844" stroke-linecap="round" stroke-linejoin="round" d="M107.3 172.55h2.69M70.42 166.92h17.1v7.54h-17.1zM72.45 168.88v3.62M75.06 168.88v3.62M77.66 168.88v3.62M80.27 168.88v3.62M82.88 168.88v3.62M85.49 168.88v3.62"/><circle cx="73.52" cy="175.42" r="1.46" fill="#fff" stroke="#2e3844" stroke-linecap="round" stroke-linejoin="round"/><circle cx="84.42" cy="175.42" r="1.46" fill="#fff" stroke="#2e3844" stroke-linecap="round" stroke-linejoin="round"/><path fill="none" stroke="#2e3844" stroke-linecap="round" stroke-linejoin="round" d="M87.52 172.55h2.68"/><path fill="#fff" stroke="#a7a8ae" stroke-linecap="round" stroke-linejoin="round" d="M82.8 252.27l4.44-9.18 4.44 9.18H82.8zM87.24 251.25v4.51"/><circle cx="177.96" cy="195.94" r="6.13" fill="#fff" stroke="#a7a8ae" stroke-linecap="round" stroke-linejoin="round"/><path fill="none" stroke="#a7a8ae" stroke-linecap="round" stroke-linejoin="round" d="M177.96 199.18v6.74"/><circle cx="358.69" cy="168.99" r="4.6" fill="#fff" stroke="#a7a8ae" stroke-linecap="round" stroke-linejoin="round"/><path fill="none" stroke="#a7a8ae" stroke-linecap="round" stroke-linejoin="round" d="M358.69 171.42v5.07"/><path fill="#fff" stroke="#a7a8ae" stroke-linecap="round" stroke-linejoin="round" d="M141.79 181.94l6.71-12.72 6.71 12.72h-13.42zM148.5 179.46v7.33M386.75 246.36l9.04-26.65 9.04 26.65h-18.08zM395.79 243.41v13.1"/><path fill="none" stroke="#a7a8ae" stroke-linecap="round" stroke-linejoin="round" d="M390.14 254.98v1.61M387.96 254.98v1.61M385.79 254.98v1.61M369.21 250.24l6.16-11.69 6.17 11.69h-12.33zM375.37 247.41v7.28M436.6 256.59h-31.86M400.53 256.59h-7.37"/><circle cx="414.84" cy="253.7" r="1.92" fill="none" stroke="#2e3844" stroke-linecap="round" stroke-linejoin="round"/><path d="M418.31 244.14a1.92 1.92 0 0 1 3.84 0" fill="none" stroke="#2e3844" stroke-linecap="round" stroke-linejoin="round"/><circle cx="427.68" cy="253.7" r="1.92" fill="none" stroke="#2e3844" stroke-linecap="round" stroke-linejoin="round"/><path d="M429.58 254h1.3a.51.51 0 0 0 .51-.51v-1.16a.51.51 0 0 0-.51-.51h-.06l-.65-6.37a.87.87 0 0 0-.86-.78h-14.09a.65.65 0 0 0-.46.2l-2.84 2.92-2.75 1.54a.65.65 0 0 0-.33.49l-.33 2.86a.51.51 0 0 0-.51.51v.31a.51.51 0 0 0 .51.51h4.43M416.74 253.96h9.04M416.04 244.63l.8-5.12 11.41 2.74v2.38M415.41 239.17l14.27 3.42" fill="none" stroke="#2e3844" stroke-linecap="round" stroke-linejoin="round"/><path d="M430.57 249.31h-4.79v-4.68h3.53a.87.87 0 0 1 .86.78zM417.56 249.31h-5.65v-1.57l3.31-3.11h2.34v4.68zM426.43 241.94l-3.62 2.69M423.56 249.31h-3.79v-4.68h3.79zM376.11 121.64h-13c0-1.77 5.3-10.71 9.3-10.71zM372.38 110.93v14.66M364.45 127.8l-1.37-2.21h14.01l-1.36 2.21M364.95 123.88h4.54v1.71h-4.54z" fill="none" stroke="#2e3844" stroke-linecap="round" stroke-linejoin="round"/><path d="M99.08 226.32a2.7 2.7 0 0 0 2.7 2.7M93.67 226.32a2.7 2.7 0 1 0 5.41 0M91 229a2.7 2.7 0 0 0 2.7-2.7" fill="none" stroke="#a7a8ae" stroke-linecap="round" stroke-linejoin="round"/><path fill="#fff" stroke="#2e3844" stroke-linecap="round" stroke-linejoin="round" d="M25.55 148.4h-3.8v-1.78h3.8zM25.55 145.09h-3.8v-1.78h3.8z"/><path d="M56.36 228.32s3.56-3.91-2.66-13.47c-2-3.13-.9-4.12-.43-4.71 0 0 3.63-.28 3.65-.81s-2.48-2.7-4.16-2.7c-2.39 0-4.19 4.21-.94 9.08 1.06 1.59 1.87 4.86 0 6.67-1.58 1.52-5.44.79-7.28 1.73-2.76 1.42-3.13 5-3.13 5.07" fill="none" stroke="#a7a8ae" stroke-linecap="round" stroke-linejoin="round"/><circle cx="52.95" cy="208.41" r=".41" transform="rotate(-27.22 52.948 208.421)" fill="#081b33"/><path d="M99.49 50.71c0 .05 5.12 1.34 7.94-.93M103.88 44.48a.26.26 0 0 1 0-.13 3.64 3.64 0 0 0 0-1.73 2.35 2.35 0 0 0-2.3.84 9.79 9.79 0 0 0-1.86-.21 9.47 9.47 0 0 0-1.71.18.27.27 0 0 1-.25-.09 2.4 2.4 0 0 0-2.21-.73 3.64 3.64 0 0 0 0 1.73.26.26 0 0 1 0 .13 12.72 12.72 0 0 0-.3 4.43c.34 1.19 3.55 1.54 4.48 1.54s4.14-.34 4.48-1.54a12.7 12.7 0 0 0-.33-4.42z" fill="#fff" stroke="#a7a8ae" stroke-linecap="round" stroke-linejoin="round"/><path d="M97.39 47.61z" fill="#fff"/><path d="M97.39 47.08a.51.51 0 1 0 .51.51.51.51 0 0 0-.51-.51z" fill="#a7a8ae"/><path d="M102 47.61z" fill="#fff"/><path d="M102 47.08a.51.51 0 1 0 .51.51.51.51 0 0 0-.51-.51z" fill="#a7a8ae"/><path d="M99.69 48.27a.48.48 0 0 1-.46-.33 1.89 1.89 0 0 1 .91 0 .48.48 0 0 1-.45.33z" fill="#fff"/><path d="M99.69 47.38c-.49 0-1 .14-1 .41a1 1 0 1 0 2 0c0-.27-.49-.41-1-.41z" fill="#a7a8ae"/><path d="M99.49 50.71c0 .05 1.16 4.55 3.42 6.61M99.49 50.71c0 .05-.66 3.76.59 6.54M99.49 50.71s2.68 4.08 5.93 4.63M99.49 50.71s4.13 2.63 6.86 1.92" fill="#fff" stroke="#a7a8ae" stroke-linecap="round" stroke-linejoin="round"/><path fill="none" stroke="#a7a8ae" stroke-linecap="round" stroke-linejoin="round" d="M95.08 47.58l-1.35-.15M95.08 48.51l-1.33.27M104.3 47.58l1.35-.15M104.3 48.51l1.33.27"/><path fill="#fff" stroke="#a7a8ae" stroke-linecap="round" stroke-linejoin="round" d="M105.28 40.16l2.24 9.62M108.02 35.72l-.5 14.06M110.41 40.16l-2.89 9.62M113 37c-.17 1.18-1.45 3.28-2.63 3.11s-1.8-2.55-1.63-3.73A2.15 2.15 0 0 1 113 37z"/><path d="M110.12 32.49c0 1.19-.91 3.47-2.1 3.49s-2.19-2.23-2.2-3.42a2.15 2.15 0 1 1 4.3-.07zM107.15 36.54c.1 1.18-.68 3.52-1.86 3.62s-2.33-2.08-2.42-3.27a2.15 2.15 0 0 1 4.29-.35z" fill="#fff" stroke="#a7a8ae" stroke-linecap="round" stroke-linejoin="round"/><rect x="331.51" y="10.07" width="19.98" height="14.21" rx=".97" ry=".97" transform="rotate(-180 341.505 17.175)" fill="#07bedc" stroke="#2e3844" stroke-linecap="round" stroke-linejoin="round"/><path fill="#07bedc" stroke="#2e3844" stroke-linecap="round" stroke-linejoin="round" d="M347.82 22.89v5.31l-5.14-5.14"/><rect x="17.74" y="119.36" width="19.98" height="14.21" rx=".97" ry=".97" transform="rotate(-180 27.725 126.47)" fill="#07bedc" stroke="#2e3844" stroke-linecap="round" stroke-linejoin="round"/><path fill="#07bedc" stroke="#2e3844" stroke-linecap="round" stroke-linejoin="round" d="M34.04 132.19v5.3l-5.14-5.14"/><rect x="133.6" y="148.55" width="19.98" height="14.21" rx=".97" ry=".97" fill="#07bedc" stroke="#2e3844" stroke-linecap="round" stroke-linejoin="round"/><path fill="#07bedc" stroke="#2e3844" stroke-linecap="round" stroke-linejoin="round" d="M137.28 161.38v5.3l5.14-5.14"/><rect x="347.55" y="96.42" width="19.98" height="14.21" rx=".97" ry=".97" transform="rotate(-180 357.54 103.53)" fill="#07bedc" stroke="#2e3844" stroke-linecap="round" stroke-linejoin="round"/><path fill="#07bedc" stroke="#2e3844" stroke-linecap="round" stroke-linejoin="round" d="M363.85 109.25v5.31l-5.14-5.14"/><rect x="130.24" y="198.35" width="19.98" height="14.21" rx=".97" ry=".97" transform="rotate(-180 140.23 205.46)" fill="#07bedc" stroke="#2e3844" stroke-linecap="round" stroke-linejoin="round"/><path fill="#07bedc" stroke="#2e3844" stroke-linecap="round" stroke-linejoin="round" d="M146.54 211.18v5.3l-5.14-5.14"/><rect x="210.44" y="112.58" width="19.98" height="14.21" rx=".97" ry=".97" transform="rotate(-180 220.43 119.685)" fill="#07bedc" stroke="#2e3844" stroke-linecap="round" stroke-linejoin="round"/><path fill="#07bedc" stroke="#2e3844" stroke-linecap="round" stroke-linejoin="round" d="M226.74 125.41v5.3l-5.14-5.14"/><rect x="298" y="164.79" width="19.98" height="14.21" rx=".97" ry=".97" transform="rotate(180 307.985 171.89)" fill="#07bedc" stroke="#2e3844" stroke-linecap="round" stroke-linejoin="round"/><path fill="#07bedc" stroke="#2e3844" stroke-linecap="round" stroke-linejoin="round" d="M314.3 177.61v5.31l-5.14-5.14"/><rect x="430.76" y="113.16" width="19.98" height="14.21" rx=".97" ry=".97" fill="#07bedc" stroke="#2e3844" stroke-linecap="round" stroke-linejoin="round"/><path fill="#07bedc" stroke="#2e3844" stroke-linecap="round" stroke-linejoin="round" d="M434.43 125.98v5.31l5.14-5.14"/><rect x="427.72" y="223.28" width="19.98" height="14.21" rx=".97" ry=".97" fill="#07bedc" stroke="#2e3844" stroke-linecap="round" stroke-linejoin="round"/><path fill="#07bedc" stroke="#2e3844" stroke-linecap="round" stroke-linejoin="round" d="M431.39 236.1v5.31l5.15-5.14"/><path d="M338.65 14.71a1.58 1.58 0 0 1 1.21-.55 1.55 1.55 0 0 1 1.21.55 3.56 3.56 0 0 1 .44.55 3.2 3.2 0 0 1 .44-.55 1.51 1.51 0 0 1 1.21-.55 1.59 1.59 0 0 1 1.21.55 1.73 1.73 0 0 1 .44 1.1 3.29 3.29 0 0 1-.37 1.46 11.81 11.81 0 0 1-2.92 2.92 11.78 11.78 0 0 1-2.93-2.92 3.39 3.39 0 0 1-.36-1.46 1.78 1.78 0 0 1 .44-1.11zM143.59 154.44l-4.36-1.22 4.36-1.22 4.37 1.22-4.37 1.22z" fill="none" stroke="#2e3844" stroke-linecap="round" stroke-linejoin="round"/><path fill="none" stroke="#2e3844" stroke-linecap="round" stroke-linejoin="round" d="M139.23 158.1l4.36 1.22v-4.88l-4.36-1.22v4.88zM147.96 158.1l-4.37 1.22v-4.88l4.37-1.22v4.88zM141.41 152.61l4.37 1.22M145.78 153.83v1.53M360.27 104.39a3 3 0 0 1-.53.71l-2.2 2.2-2.2-2.22a3.11 3.11 0 1 1 4.4-4.4 3.12 3.12 0 0 1 .53 3.71z"/><path d="M358.56 102.8a1 1 0 1 1-1-1 1 1 0 0 1 1 1zM28.74 128.65v-1a.31.31 0 0 1 .17-.32 2.68 2.68 0 1 0-2.38 0 .31.31 0 0 1 .17.32v1zM28.48 130.42h-1.51" fill="none" stroke="#2e3844" stroke-linecap="round" stroke-linejoin="round"/><circle cx="217.86" cy="117.14" r=".97" fill="none" stroke="#2e3844" stroke-linecap="round" stroke-linejoin="round"/><circle cx="217.86" cy="122.23" r=".97" fill="none" stroke="#2e3844" stroke-linecap="round" stroke-linejoin="round"/><path fill="none" stroke="#2e3844" stroke-linecap="round" stroke-linejoin="round" d="M217.86 118.11v3.15"/><circle cx="223" cy="122.23" r=".97" fill="none" stroke="#2e3844" stroke-linecap="round" stroke-linejoin="round"/><path fill="none" stroke="#2e3844" stroke-linecap="round" stroke-linejoin="round" d="M223 121.26v-4.12h-2.25"/><path fill="none" stroke="#2e3844" stroke-linecap="round" stroke-linejoin="round" d="M221.38 118.11l-.97-.97.97-.97"/><circle cx="440.11" cy="119.63" r="2.51" transform="rotate(-45 440.12 119.626)" fill="none" stroke="#2e3844" stroke-linecap="round" stroke-linejoin="round"/><path fill="none" stroke="#2e3844" stroke-linecap="round" stroke-linejoin="round" d="M441.89 121.4l2 2.01"/><circle cx="140.23" cy="205.46" r="2.15" fill="none" stroke="#2e3844" stroke-linecap="round" stroke-linejoin="round"/><path fill="none" stroke="#2e3844" stroke-linecap="round" stroke-linejoin="round" d="M138.08 205.46h-2.44M144.81 205.46h-2.43"/><rect x="303.83" y="168.92" width="8.32" height="5.95" rx=".46" ry=".46" transform="rotate(-180 307.985 171.89)" fill="none" stroke="#2e3844" stroke-linecap="round" stroke-linejoin="round"/><path fill="none" stroke="#2e3844" stroke-linecap="round" stroke-linejoin="round" d="M309.76 171.46l1.93 3.41h-7.41l1.93-3.41"/><path fill="none" stroke="#2e3844" stroke-linecap="round" stroke-linejoin="round" d="M312.14 169.38l-4.15 3.56-4.16-3.56M435.82 227.99l-2.4 2.39 2.4 2.4M439.6 232.78l2.4-2.4-2.4-2.39"/><rect x="270.06" y="34.31" width="19.98" height="14.21" rx=".97" ry=".97" fill="#07bedc" stroke="#2e3844" stroke-linecap="round" stroke-linejoin="round"/><path fill="#07bedc" stroke="#2e3844" stroke-linecap="round" stroke-linejoin="round" d="M273.73 47.13v5.31l5.14-5.14"/><path d="M284.15 39.4a.35.35 0 0 0 .15-.49l-1-1.75a.35.35 0 0 0-.5-.12l-6.9 4.72a.36.36 0 0 0-.11.47l.38.64a.34.34 0 0 0 .44.14zM283.64 40.42l-2-3.43M277.59 42.55l-.81-1.39M280.05 45.84v-4.16M278.07 45.51l1.98-3.83M282.03 45.51l-1.98-3.83" fill="none" stroke="#2e3844" stroke-linecap="round" stroke-linejoin="round"/></g></g></svg>