<svg xmlns="http://www.w3.org/2000/svg" viewBox="0 0 43.18 36.43"><title>Asset 3</title><g id="Layer_2" data-name="Layer 2"><g id="Layer_2-2" data-name="Layer 2"><path d="M7.54.68H30a3.58,3.58,0,0,1,3.58,3.58V32.63a0,0,0,0,1,0,0H7.54a0,0,0,0,1,0,0V.68A0,0,0,0,1,7.54.68Z" transform="translate(41.12 33.32) rotate(-180)" style="fill:#fff;stroke:#2b3f4a;stroke-linecap:round;stroke-linejoin:round;stroke-width:1.36599976676025px"/><path d="M11.12,32.63h27.8a3.58,3.58,0,0,0,3.58-3.58V25.53H16.44v3.53a3.58,3.58,0,0,1-3.58,3.58Z" style="fill:#e9f0f3;stroke:#2b3f4a;stroke-linecap:round;stroke-linejoin:round;stroke-width:1.36599976676025px"/><line x1="12.77" y1="6.12" x2="17.93" y2="6.12" style="fill:none;stroke:#2b3f4a;stroke-linecap:round;stroke-linejoin:round;stroke-width:1.36599976676025px"/><line x1="18.61" y1="11.22" x2="27.78" y2="11.22" style="fill:none;stroke:#2b3f4a;stroke-linecap:round;stroke-linejoin:round;stroke-width:1.36599976676025px"/><line x1="20.7" y1="6.12" x2="23.28" y2="6.12" style="fill:none;stroke:#2b3f4a;stroke-linecap:round;stroke-linejoin:round;stroke-width:1.36599976676025px"/><line x1="25.13" y1="18.86" x2="27.71" y2="18.86" style="fill:none;stroke:#2b3f4a;stroke-linecap:round;stroke-linejoin:round;stroke-width:1.36599976676025px"/><line x1="12.77" y1="8.67" x2="28.72" y2="8.67" style="fill:none;stroke:#2b3f4a;stroke-linecap:round;stroke-linejoin:round;stroke-width:1.36599976676025px"/><line x1="12.77" y1="11.22" x2="16.2" y2="11.22" style="fill:none;stroke:#2b3f4a;stroke-linecap:round;stroke-linejoin:round;stroke-width:1.36599976676025px"/><line x1="12.77" y1="13.76" x2="22.04" y2="13.76" style="fill:none;stroke:#2b3f4a;stroke-linecap:round;stroke-linejoin:round;stroke-width:1.36599976676025px"/><line x1="12.77" y1="18.86" x2="22.04" y2="18.86" style="fill:none;stroke:#2b3f4a;stroke-linecap:round;stroke-linejoin:round;stroke-width:1.36599976676025px"/><line x1="12.77" y1="21.4" x2="20.21" y2="21.4" style="fill:none;stroke:#2b3f4a;stroke-linecap:round;stroke-linejoin:round;stroke-width:1.36599976676025px"/><circle cx="6.65" cy="29.78" r="5.97" style="fill:#48ab8f"/><path d="M7.69,23.91A6,6,0,0,1,3.63,34.24a6,6,0,0,1-1-.1,6,6,0,1,0,5.1-10.22Z" style="fill:#259c77"/><circle cx="6.65" cy="29.78" r="5.97" style="fill:none;stroke:#2b3f4a;stroke-linecap:round;stroke-linejoin:round;stroke-width:1.36599976676025px"/><polyline points="13.63 24.9 6.44 32.09 3.35 29" style="fill:none;stroke:#2b3f4a;stroke-linecap:round;stroke-linejoin:round;stroke-width:1.36599976676025px"/></g></g></svg>