<svg xmlns="http://www.w3.org/2000/svg" viewBox="0 0 333.36 218.77"><title>Asset 1</title><g id="Layer_2" data-name="Layer 2"><g id="Layer_2-2" data-name="Layer 2"><path d="M137,146.84l5.88,0a.68.68,0,1,1,0,1.37h0l-5.87-.4a.49.49,0,0,1,0-1Z" style="fill:#211827"/><path d="M136.32,150.29l5.82-.81a.68.68,0,0,1,.19,1.35h0l-5.86.43a.49.49,0,0,1-.1-1Z" style="fill:#211827"/><path d="M196.3,147.82l-5.87.4a.68.68,0,1,1-.09-1.36h0l5.88,0a.49.49,0,0,1,0,1Z" style="fill:#211827"/><path d="M196.82,151.26l-5.86-.43a.68.68,0,0,1,.1-1.36h0l5.82.81a.49.49,0,0,1-.1,1Z" style="fill:#211827"/><path d="M161.35,119.64v-8.41a2.6,2.6,0,0,0-2.6-2.6h-3.53A4.63,4.63,0,0,1,150.6,104h17.95a3.72,3.72,0,0,1,3.72,3.72v12.82" style="fill:#28202f"/><path d="M172.26,120.54V107.72a3.72,3.72,0,0,0-3.72-3.72H160.9a3.72,3.72,0,0,1,3.72,3.72v11.8" style="fill:#3a2c4c"/><ellipse cx="168.44" cy="117.02" rx="1.65" ry="2.89" style="fill:#9ac6c9"/><ellipse cx="168.44" cy="109.55" rx="1.35" ry="2.36" style="fill:#9ac6c9"/><path d="M161.35,119.64v-8.41a2.6,2.6,0,0,0-2.6-2.6h-3.53A4.63,4.63,0,0,1,150.6,104h17.95a3.72,3.72,0,0,1,3.72,3.72v12.82" style="fill:none;stroke:#211827;stroke-miterlimit:10;stroke-width:1.36599976676025px"/><path d="M171.31,159.23a.68.68,0,0,1,.62-.68c3.25-.28,18.15-1.95,20.05-8.68,2-7-1.71-23-2.3-25.5a1.35,1.35,0,0,1,0-.64,18.66,18.66,0,0,0,.14-7.89,1.38,1.38,0,0,0-1.26-1.1,12.15,12.15,0,0,0-10.32,3.85A1.38,1.38,0,0,1,177,119a63,63,0,0,0-10.3-1,63,63,0,0,0-10.3,1,1.38,1.38,0,0,1-1.28-.46,12.15,12.15,0,0,0-10.32-3.85,1.38,1.38,0,0,0-1.26,1.1,18.66,18.66,0,0,0,.14,7.89,1.35,1.35,0,0,1,0,.64c-.59,2.46-4.27,18.53-2.3,25.5,1.9,6.73,16.81,8.39,20.05,8.68a.68.68,0,0,1,.62.68v.34a.69.69,0,0,1-.69.69H133.29a2,2,0,0,1-2-2V143.92a3.72,3.72,0,0,0-3.72-3.72H109.61a4.63,4.63,0,0,0,4.63,4.63h3.53a2.6,2.6,0,0,1,2.6,2.6v9.9a9.19,9.19,0,0,0,9.19,9.19h29.53v.72a2,2,0,0,1-2,2h-13A10.16,10.16,0,0,0,134,179.36h0a10.16,10.16,0,0,0,10.16,10.16H174a6.79,6.79,0,0,1,6.79,6.79v2.8a6.54,6.54,0,0,0,6.54,6.54h0V185.38a5.42,5.42,0,0,0-5.42-5.42H147.43a3,3,0,0,1-3-3h0a3,3,0,0,1,3-3h38.51a3,3,0,0,1,3,3h0a3,3,0,0,1-3,3H151.47a5.42,5.42,0,0,0-5.42,5.42v20.27h0a6.54,6.54,0,0,0,6.54-6.54v-2.8a6.79,6.79,0,0,1,6.79-6.79h29.84a10.16,10.16,0,0,0,10.16-10.16h0a10.16,10.16,0,0,0-10.16-10.16h-13a2,2,0,0,1-2-2v-.72h29.53a9.19,9.19,0,0,0,9.19-9.19v-9.9a2.6,2.6,0,0,1,2.6-2.6h3.53a4.63,4.63,0,0,0,4.63-4.63H205.81a3.72,3.72,0,0,0-3.72,3.72v14.31a2,2,0,0,1-2,2H172a.69.69,0,0,1-.69-.69Z" style="fill:#28202f"/><path d="M209.75,143.92V157.2a3,3,0,0,1-3,3h-6.62a2,2,0,0,0,2-2V143.92a3.72,3.72,0,0,1,3.72-3.72h7.65A3.72,3.72,0,0,0,209.75,143.92Z" style="fill:#3a2c4c"/><path d="M184.48,146.48c2.49-7.64,1.2-13.54-4.35-14.84s-5.38,1.67-13.45,1.67-7.86-3-13.45-1.67-6.84,7.21-4.35,14.84c.7,2.14-2.76,5.86-.25,7.17,2.86,1.48,10.78,3.5,18.05,3.5s15.19-2,18.05-3.5C187.25,152.34,183.79,148.61,184.48,146.48Z" style="fill:#fad3ab"/><path d="M184.48,146.48c2.49-7.64,1.2-13.54-4.35-14.84s-5.38,1.67-13.45,1.67-7.86-3-13.45-1.67-6.84,7.21-4.35,14.84c.7,2.14-2.76,5.86-.25,7.17,2.86,1.48,10.78,3.5,18.05,3.5s15.19-2,18.05-3.5C187.25,152.34,183.79,148.61,184.48,146.48Z" style="fill:#fbd7b1"/><path d="M180.13,131.63c-5.59-1.32-5.38,1.67-13.45,1.67s-7.86-3-13.45-1.67-6.84,7.21-4.35,14.84a3,3,0,0,1-.05,1.66s5.92,2.33,17.86,2.33,17.86-2.33,17.86-2.33a3,3,0,0,1-.05-1.66C187,138.84,185.68,132.94,180.13,131.63Z" style="fill:#fbc9a3"/><path d="M159.19,142.09c.13,1.43.2,2.86.25,4.3,0,.36,0,.72,0,1.07a2.67,2.67,0,1,1-5.35,0c0-.36,0-.72,0-1.07.05-1.43.11-2.86.25-4.3a.35.35,0,0,1,.69,0c.13,1.43.2,2.86.25,4.3,0,.36,0,.72,0,1.07a1.44,1.44,0,0,0,.2.71,1.44,1.44,0,0,0,2.44,0,1.44,1.44,0,0,0,.2-.71c0-.36,0-.72,0-1.07.05-1.43.11-2.86.25-4.3a.35.35,0,0,1,.69,0Z" style="fill:#8f4837"/><path d="M179,142.09c.13,1.43.2,2.86.25,4.3,0,.36,0,.72,0,1.07a2.67,2.67,0,1,1-5.35,0c0-.36,0-.72,0-1.07.05-1.43.11-2.86.25-4.3a.35.35,0,0,1,.69,0c.13,1.43.2,2.86.25,4.3,0,.36,0,.72,0,1.07a1.44,1.44,0,0,0,.2.71,1.44,1.44,0,0,0,2.44,0,1.44,1.44,0,0,0,.2-.71c0-.36,0-.72,0-1.07.05-1.43.11-2.86.25-4.3a.35.35,0,0,1,.69,0Z" style="fill:#8f4837"/><path d="M168.92,150.83c0,.53-1,.59-2.24.59s-2.24-.06-2.24-.59,1-1.32,2.24-1.32S168.92,150.31,168.92,150.83Z" style="fill:#a34f3f"/><path d="M187.32,192.44v-7.06a5.42,5.42,0,0,0-5.42-5.42H147.43a3,3,0,0,1-3-3h0a8.86,8.86,0,0,0,8.86,8.86h27.41A6.6,6.6,0,0,1,187.32,192.44Z" style="fill:#3a2c4c"/><ellipse cx="205.92" cy="154.05" rx="1.65" ry="2.89" style="fill:#9ac6c9"/><ellipse cx="205.92" cy="146.58" rx="1.35" ry="2.36" style="fill:#9ac6c9"/><ellipse cx="160.78" cy="183.21" rx="2.89" ry="1.65" style="fill:#9ac6c9"/><ellipse cx="153.61" cy="183.21" rx="2.36" ry="1.35" style="fill:#9ac6c9"/><ellipse cx="175.12" cy="183.21" rx="2.89" ry="1.65" style="fill:#9ac6c9"/><ellipse cx="167.95" cy="183.21" rx="2.89" ry="1.65" style="fill:#9ac6c9"/><ellipse cx="182.29" cy="183.21" rx="2.36" ry="1.35" style="fill:#9ac6c9"/><path d="M150.67,217.15q4-.13,8-.18l8-.05,8,.05q4,0,8,.17a.69.69,0,0,1,0,1.39q-4,.13-8,.17l-8,.05-8-.05q-4,0-8-.18a.69.69,0,0,1,0-1.39Z" style="fill:#2b3f4a"/><path d="M146,189.52v16.13h0a6.54,6.54,0,0,0,6.54-6.54v-2.8a6.79,6.79,0,0,1,6.79-6.79" style="fill:none;stroke:#211827;stroke-miterlimit:10;stroke-width:1.36599976676025px"/><path d="M187.32,189.52h1.91a10.16,10.16,0,0,0,10.16-10.16h0a10.16,10.16,0,0,0-10.16-10.16h-13a2,2,0,0,1-2-2v-.72h29.53a9.19,9.19,0,0,0,9.19-9.19v-9.9a2.6,2.6,0,0,1,2.6-2.6h3.53a4.63,4.63,0,0,0,4.63-4.63H205.81a3.72,3.72,0,0,0-3.72,3.72v14.31a2,2,0,0,1-2,2H172a.69.69,0,0,1-.69-.69v-.34a.68.68,0,0,1,.62-.68c3.25-.28,18.15-1.95,20.05-8.68,2-7-1.71-23-2.3-25.5a1.35,1.35,0,0,1,0-.64,18.66,18.66,0,0,0,.14-7.89,1.38,1.38,0,0,0-1.26-1.1,12.15,12.15,0,0,0-10.32,3.85A1.38,1.38,0,0,1,177,119a63,63,0,0,0-10.3-1,63,63,0,0,0-10.3,1,1.38,1.38,0,0,1-1.28-.46,12.15,12.15,0,0,0-10.32-3.85,1.38,1.38,0,0,0-1.26,1.1,18.66,18.66,0,0,0,.14,7.89,1.35,1.35,0,0,1,0,.64c-.59,2.46-4.27,18.53-2.3,25.5,1.9,6.73,16.81,8.39,20.05,8.68a.68.68,0,0,1,.62.68v.34a.69.69,0,0,1-.69.69H133.29a2,2,0,0,1-2-2V143.92a3.72,3.72,0,0,0-3.72-3.72H109.61a4.63,4.63,0,0,0,4.63,4.63h3.53a2.6,2.6,0,0,1,2.6,2.6v9.9a9.19,9.19,0,0,0,9.19,9.19h29.53v.72a2,2,0,0,1-2,2h-13A10.16,10.16,0,0,0,134,179.36h0a10.16,10.16,0,0,0,10.16,10.16H174a6.79,6.79,0,0,1,6.79,6.79v2.8a6.54,6.54,0,0,0,6.54,6.54h0V185.38a5.42,5.42,0,0,0-5.42-5.42H147.43a3,3,0,0,1-3-3h0a3,3,0,0,1,3-3h38.51a3,3,0,0,1,3,3h0a3,3,0,0,1-3,3h-21" style="fill:none;stroke:#211827;stroke-miterlimit:10;stroke-width:1.36599976676025px"/><circle cx="298.21" cy="67.5" r="2.57" style="fill:none;stroke:#2b3f4a;stroke-linecap:round;stroke-linejoin:round;stroke-width:1.36599976676025px"/><line x1="300.79" y1="67.5" x2="303.55" y2="67.5" style="fill:none;stroke:#2b3f4a;stroke-linecap:round;stroke-linejoin:round;stroke-width:1.36599976676025px"/><line x1="292.87" y1="67.5" x2="295.64" y2="67.5" style="fill:none;stroke:#2b3f4a;stroke-linecap:round;stroke-linejoin:round;stroke-width:1.36599976676025px"/><circle cx="129.61" cy="58.44" r="2.57" transform="translate(-8.92 90.41) rotate(-37.27)" style="fill:none;stroke:#2b3f4a;stroke-linecap:round;stroke-linejoin:round;stroke-width:1.36599976676025px"/><line x1="131.66" y1="56.88" x2="133.86" y2="55.2" style="fill:none;stroke:#2b3f4a;stroke-linecap:round;stroke-linejoin:round;stroke-width:1.36599976676025px"/><line x1="125.36" y1="61.67" x2="127.56" y2="59.99" style="fill:none;stroke:#2b3f4a;stroke-linecap:round;stroke-linejoin:round;stroke-width:1.36599976676025px"/><circle cx="82.11" cy="120.02" r="2.57" transform="translate(-61.18 95.22) rotate(-45.8)" style="fill:none;stroke:#2b3f4a;stroke-linecap:round;stroke-linejoin:round;stroke-width:1.36599976676025px"/><line x1="83.96" y1="121.81" x2="85.94" y2="123.74" style="fill:none;stroke:#2b3f4a;stroke-linecap:round;stroke-linejoin:round;stroke-width:1.36599976676025px"/><line x1="78.29" y1="116.3" x2="80.27" y2="118.22" style="fill:none;stroke:#2b3f4a;stroke-linecap:round;stroke-linejoin:round;stroke-width:1.36599976676025px"/><polygon points="237.54 70.75 236.12 76.55 241.85 74.89 237.54 70.75" style="fill:none;stroke:#2b3f4a;stroke-linecap:round;stroke-linejoin:round;stroke-width:1.36599976676025px"/><polygon points="66.41 147.67 61.1 150.39 66.11 153.63 66.41 147.67" style="fill:none;stroke:#2b3f4a;stroke-linecap:round;stroke-linejoin:round;stroke-width:1.36599976676025px"/><line x1="246.84" y1="137.05" x2="246.84" y2="141.01" style="fill:none;stroke:#2b3f4a;stroke-linecap:round;stroke-linejoin:round;stroke-width:1.36599976676025px"/><line x1="248.82" y1="139.03" x2="244.86" y2="139.03" style="fill:none;stroke:#2b3f4a;stroke-linecap:round;stroke-linejoin:round;stroke-width:1.36599976676025px"/><line x1="189.91" y1="71.67" x2="189.91" y2="75.63" style="fill:none;stroke:#2b3f4a;stroke-linecap:round;stroke-linejoin:round;stroke-width:1.36599976676025px"/><line x1="191.89" y1="73.65" x2="187.93" y2="73.65" style="fill:none;stroke:#2b3f4a;stroke-linecap:round;stroke-linejoin:round;stroke-width:1.36599976676025px"/><line x1="97.1" y1="84.9" x2="94.3" y2="87.7" style="fill:none;stroke:#2b3f4a;stroke-linecap:round;stroke-linejoin:round;stroke-width:1.36599976676025px"/><line x1="97.1" y1="87.7" x2="94.3" y2="84.9" style="fill:none;stroke:#2b3f4a;stroke-linecap:round;stroke-linejoin:round;stroke-width:1.36599976676025px"/><circle cx="262.07" cy="72.16" r="2.51" style="fill:none;stroke:#2b3f4a;stroke-linecap:round;stroke-linejoin:round;stroke-width:1.36599976676025px"/><circle cx="180.98" cy="34.27" r="2.51" style="fill:none;stroke:#2b3f4a;stroke-linecap:round;stroke-linejoin:round;stroke-width:1.36599976676025px"/><circle cx="180.98" cy="21.52" r="2.51" style="fill:none;stroke:#2b3f4a;stroke-linecap:round;stroke-linejoin:round;stroke-width:1.36599976676025px"/><circle cx="152.89" cy="34.27" r="2.51" style="fill:none;stroke:#2b3f4a;stroke-linecap:round;stroke-linejoin:round;stroke-width:1.36599976676025px"/><circle cx="280.69" cy="97.9" r="7.48" style="fill:none;stroke:#2b3f4a;stroke-linecap:round;stroke-linejoin:round;stroke-width:1.36599976676025px;stroke-dasharray:1.4223319292068481,2.8446638584136963"/><circle cx="280.69" cy="97.9" r="2.51" style="fill:none;stroke:#2b3f4a;stroke-linecap:round;stroke-linejoin:round;stroke-width:1.36599976676025px"/><circle cx="41.34" cy="96.99" r="7.48" style="fill:none;stroke:#2b3f4a;stroke-linecap:round;stroke-linejoin:round;stroke-width:1.36599976676025px;stroke-dasharray:1.4223319292068481,2.8446638584136963"/><circle cx="229.02" cy="24.03" r="3.74" style="fill:none;stroke:#2b3f4a;stroke-linecap:round;stroke-linejoin:round;stroke-width:1.36599976676025px;stroke-dasharray:1.3033746480941772,2.6067492961883545"/><circle cx="116.8" cy="182.91" r="3.74" style="fill:none;stroke:#2b3f4a;stroke-linecap:round;stroke-linejoin:round;stroke-width:1.36599976676025px;stroke-dasharray:1.3033746480941772,2.6067492961883545"/><circle cx="41.34" cy="96.99" r="2.51" style="fill:none;stroke:#2b3f4a;stroke-linecap:round;stroke-linejoin:round;stroke-width:1.36599976676025px"/><circle cx="85.98" cy="96.99" r="2.51" style="fill:none;stroke:#2b3f4a;stroke-linecap:round;stroke-linejoin:round;stroke-width:1.36599976676025px"/><circle cx="72.22" cy="60.63" r="2.51" style="fill:none;stroke:#2b3f4a;stroke-linecap:round;stroke-linejoin:round;stroke-width:1.36599976676025px"/><path d="M280.69,95.4V78.12a6,6,0,0,0-6-6H264.58" style="fill:none;stroke:#2b3f4a;stroke-linecap:round;stroke-linejoin:round;stroke-width:1.36599976676025px"/><line x1="180.98" y1="24.03" x2="180.98" y2="31.76" style="fill:none;stroke:#2b3f4a;stroke-linecap:round;stroke-linejoin:round;stroke-width:1.36599976676025px"/><line x1="155.39" y1="34.27" x2="178.47" y2="34.27" style="fill:none;stroke:#2b3f4a;stroke-linecap:round;stroke-linejoin:round;stroke-width:1.36599976676025px"/><path d="M83.47,97H78.18a6,6,0,0,1-6-6V63.14" style="fill:none;stroke:#2b3f4a;stroke-linecap:round;stroke-linejoin:round;stroke-width:1.36599976676025px"/><line x1="43.84" y1="96.99" x2="83.47" y2="96.99" style="fill:none;stroke:#2b3f4a;stroke-linecap:round;stroke-linejoin:round;stroke-width:1.36599976676025px"/><rect x="95.2" y="38.69" width="17.39" height="29.52" rx="1.09" ry="1.09" transform="translate(207.79 106.9) rotate(-180)" style="fill:#f4b52c"/><polygon points="105.54 63.92 113.04 63.92 107.95 41.1 100.45 41.1 105.54 63.92" style="fill:#f3e285"/><polygon points="100.53 63.92 103.34 63.92 98.25 41.1 95.44 41.1 100.53 63.92" style="fill:#f3e285"/><rect x="95.2" y="38.69" width="17.39" height="29.52" rx="1.09" ry="1.09" transform="translate(207.79 106.9) rotate(-180)" style="fill:none;stroke:#2b3f4a;stroke-linecap:round;stroke-linejoin:round;stroke-width:1.36599976676025px"/><path d="M84.52,43.24h22a1,1,0,0,1,1,1V55.75a1,1,0,0,1-1,1h-3.23V61l-5.56-4.3H84.52a1,1,0,0,1-1-1V44.21A1,1,0,0,1,84.52,43.24Z" style="fill:#fff;stroke:#2b3f4a;stroke-linecap:round;stroke-linejoin:round;stroke-width:1.36599976676025px"/><g id="Octicons"><g id="person"><path id="Shape" d="M98.88,52.79a.47.47,0,0,0,.47.47H104a.47.47,0,0,0,.47-.47v-.47c0-1.23-1.87-1.87-1.87-1.87a.58.58,0,0,1,0-.47c.39-.29.44-.74.47-1.87a1.4,1.4,0,1,0-2.8,0c0,1.13.07,1.58.47,1.87a.58.58,0,0,1,0,.47s-1.87.64-1.87,1.87Z" style="fill:#2e464e"/></g></g><rect x="96.52" y="105.66" width="33.09" height="20.44" rx="1.19" ry="1.19" style="fill:#e6f1f3;stroke:#2b3f4a;stroke-linecap:round;stroke-linejoin:round;stroke-width:1.36599976676025px"/><rect x="192.92" y="38.39" width="33.09" height="20.44" rx="1.19" ry="1.19" style="fill:#d7e6eb;stroke:#2b3f4a;stroke-linecap:round;stroke-linejoin:round;stroke-width:1.36599976676025px"/><rect x="106.55" y="76.49" width="30.7" height="17.13" rx="1.19" ry="1.19" style="fill:#48ab8f;stroke:#2b3f4a;stroke-linecap:round;stroke-linejoin:round;stroke-width:1.36599976676025px"/><rect x="262.19" y="123.34" width="14.3" height="12.64" rx="1.19" ry="1.19" style="fill:#f3e285"/><path d="M273,125.29A9,9,0,0,0,264.2,136h11.09a1.19,1.19,0,0,0,1.19-1.19V126A9,9,0,0,0,273,125.29Z" style="fill:#fec243"/><rect x="262.19" y="123.34" width="14.3" height="12.64" rx="1.19" ry="1.19" style="fill:none;stroke:#2b3f4a;stroke-linecap:round;stroke-linejoin:round;stroke-width:1.36599976676025px"/><rect x="200.61" y="72.55" width="19.29" height="27.52" rx="1.19" ry="1.19" style="fill:#e8f0f1"/><path d="M200.83,99.52a1.17,1.17,0,0,0,1,.55h16.9a1.19,1.19,0,0,0,1.19-1.19v-19A19.75,19.75,0,0,0,200.83,99.52Z" style="fill:#cbe0ea"/><rect x="200.61" y="72.55" width="19.29" height="27.52" rx="1.19" ry="1.19" style="fill:none;stroke:#2b3f4a;stroke-linecap:round;stroke-linejoin:round;stroke-width:1.36599976676025px"/><path d="M226,48.31H192.92V39.48A1.09,1.09,0,0,1,194,38.39h30.92A1.09,1.09,0,0,1,226,39.48Z" style="fill:#2b3f4a;stroke:#2b3f4a;stroke-linecap:round;stroke-linejoin:round;stroke-width:1.36599976676025px"/><rect x="197.34" y="45.64" width="4.73" height="5.35" transform="translate(248.01 -151.39) rotate(90)" style="fill:#fec86c;stroke:#2b3f4a;stroke-linecap:round;stroke-linejoin:round;stroke-width:1.36599976676025px"/><rect x="101.31" y="117.87" width="4.73" height="5.35" transform="translate(224.22 16.87) rotate(90)" style="fill:#fec86c;stroke:#2e464e;stroke-linecap:round;stroke-linejoin:round;stroke-width:1.36599976676025px"/><line x1="197.03" y1="42.06" x2="204.61" y2="42.06" style="fill:none;stroke:#d7e6eb;stroke-linecap:round;stroke-linejoin:round;stroke-width:1.36599976676025px"/><line x1="207.38" y1="42.06" x2="209.41" y2="42.06" style="fill:none;stroke:#d7e6eb;stroke-linecap:round;stroke-linejoin:round;stroke-width:1.36599976676025px"/><line x1="110.78" y1="119.3" x2="119.05" y2="119.3" style="fill:none;stroke:#2e464e;stroke-linecap:round;stroke-linejoin:round;stroke-width:1.36599976676025px"/><line x1="110.78" y1="121.79" x2="122.81" y2="121.79" style="fill:none;stroke:#2e464e;stroke-linecap:round;stroke-linejoin:round;stroke-width:1.36599976676025px"/><line x1="197.03" y1="54.14" x2="200.81" y2="54.14" style="fill:none;stroke:#2b3f4a;stroke-linecap:round;stroke-linejoin:round;stroke-width:1.36599976676025px"/><line x1="204.61" y1="54.14" x2="208.39" y2="54.14" style="fill:none;stroke:#2b3f4a;stroke-linecap:round;stroke-linejoin:round;stroke-width:1.36599976676025px"/><line x1="212.2" y1="54.14" x2="215.98" y2="54.14" style="fill:none;stroke:#2b3f4a;stroke-linecap:round;stroke-linejoin:round;stroke-width:1.36599976676025px"/><line x1="219.78" y1="54.14" x2="223.56" y2="54.14" style="fill:none;stroke:#2b3f4a;stroke-linecap:round;stroke-linejoin:round;stroke-width:1.36599976676025px"/><rect x="96.52" y="108.4" width="33.09" height="5.62" style="fill:#2b3f4a"/><line x1="96.46" y1="47.43" x2="90.95" y2="47.43" style="fill:none;stroke:#2b3f4a;stroke-linecap:round;stroke-linejoin:round;stroke-width:1.36599976676025px"/><line x1="96.46" y1="49.98" x2="86.57" y2="49.98" style="fill:none;stroke:#2b3f4a;stroke-linecap:round;stroke-linejoin:round;stroke-width:1.36599976676025px"/><line x1="207.35" y1="92.12" x2="213.16" y2="92.12" style="fill:none;stroke:#2b3f4a;stroke-linecap:round;stroke-linejoin:round;stroke-width:1.36599976676025px"/><line x1="205.04" y1="95.25" x2="215.47" y2="95.25" style="fill:none;stroke:#2b3f4a;stroke-linecap:round;stroke-linejoin:round;stroke-width:1.36599976676025px"/><line x1="96.46" y1="52.53" x2="88.52" y2="52.53" style="fill:none;stroke:#2b3f4a;stroke-linecap:round;stroke-linejoin:round;stroke-width:1.36599976676025px"/><path d="M133.71,87.7V82.41A2.38,2.38,0,0,1,131.33,80H112.47a2.38,2.38,0,0,1-2.38,2.38V87.7a2.38,2.38,0,0,1,2.38,2.38h18.87A2.38,2.38,0,0,1,133.71,87.7Z" style="fill:#fffffc;stroke:#2e464e;stroke-miterlimit:10;stroke-width:1.36599976676025px"/><circle cx="121.9" cy="85.06" r="6.47" style="fill:#fffffc;stroke:#2e464e;stroke-linecap:round;stroke-linejoin:round;stroke-width:1.36599976676025px"/><path d="M122.43,87.81h-.19v.68a.33.33,0,0,1-.66,0v-.68h-1.13a.33.33,0,0,1,0-.66h2a.88.88,0,1,0,0-1.76h-1.09a1.54,1.54,0,0,1,0-3.08h.19v-.68a.33.33,0,0,1,.66,0v.68h1a.33.33,0,0,1,0,.66h-1.91a.88.88,0,0,0,0,1.76h1a1.54,1.54,0,0,1,0,3.08Z" style="fill:#2b3f4a;stroke:#2b3f4a;stroke-miterlimit:10;stroke-width:0.682999883380126px"/><rect x="231.49" y="87.52" width="30.7" height="17.13" rx="1.19" ry="1.19" style="fill:#48ab8f;stroke:#2b3f4a;stroke-linecap:round;stroke-linejoin:round;stroke-width:1.36599976676025px"/><path d="M258.65,98.72V93.43a2.38,2.38,0,0,1-2.38-2.38H237.4A2.38,2.38,0,0,1,235,93.43v5.29a2.38,2.38,0,0,1,2.38,2.38h18.87A2.38,2.38,0,0,1,258.65,98.72Z" style="fill:#fffffc;stroke:#2e464e;stroke-linecap:round;stroke-linejoin:round;stroke-width:1.36599976676025px"/><circle cx="237.79" cy="96.08" r="0.39" style="fill:#b4d781;stroke:#2b3f4a;stroke-linecap:round;stroke-linejoin:round;stroke-width:1.36599976676025px"/><circle cx="255.92" cy="96.08" r="0.39" style="fill:#b4d781;stroke:#2b3f4a;stroke-linecap:round;stroke-linejoin:round;stroke-width:1.36599976676025px"/><circle cx="246.84" cy="96.08" r="6.47" style="fill:#fffffc;stroke:#2e464e;stroke-linecap:round;stroke-linejoin:round;stroke-width:1.36599976676025px"/><rect x="40.35" y="122.33" width="30.7" height="17.13" rx="1.19" ry="1.19" style="fill:#48ab8f;stroke:#2b3f4a;stroke-linecap:round;stroke-linejoin:round;stroke-width:1.36599976676025px"/><path d="M67.51,133.54v-5.29a2.38,2.38,0,0,1-2.38-2.38H46.26a2.38,2.38,0,0,1-2.38,2.38v5.29a2.38,2.38,0,0,1,2.38,2.38H65.13A2.38,2.38,0,0,1,67.51,133.54Z" style="fill:#fffffc;stroke:#2e464e;stroke-linecap:round;stroke-linejoin:round;stroke-width:1.36599976676025px"/><circle cx="46.65" cy="130.89" r="0.39" style="fill:none;stroke:#2b3f4a;stroke-linecap:round;stroke-linejoin:round;stroke-width:1.36599976676025px"/><circle cx="64.78" cy="130.89" r="0.39" style="fill:none;stroke:#2b3f4a;stroke-linecap:round;stroke-linejoin:round;stroke-width:1.36599976676025px"/><circle cx="55.7" cy="130.89" r="6.47" style="fill:#fffffc;stroke:#2e464e;stroke-linecap:round;stroke-linejoin:round;stroke-width:1.36599976676025px"/><path d="M57.55,132.41a.36.36,0,1,1,0,.73H56.06v.78a.36.36,0,1,1-.73,0v-.78H53.84a.36.36,0,1,1,0-.73h1.49v-1.1H53.84a.36.36,0,1,1,0-.73h1.49v-.2l-1.78-2.29a.36.36,0,1,1,.58-.45l1.57,2,1.57-2a.36.36,0,1,1,.58.45l-1.78,2.29v.2h1.49a.36.36,0,0,1,0,.73H56.06v1.1Z" style="fill:#2b3f4a;stroke:#2b3f4a;stroke-miterlimit:10;stroke-width:0.682999883380126px"/><path d="M249,99.58h-4a.33.33,0,0,1-.21-.59,2.58,2.58,0,0,0,1.08-2.6h-1.25a.33.33,0,0,1,0-.66h1a2.47,2.47,0,0,1,.34-2.32,2.55,2.55,0,0,1,2.56-.75.33.33,0,0,1-.17.64,1.69,1.69,0,0,0-2,2.43h1.27a.33.33,0,0,1,0,.66h-1.08a3.16,3.16,0,0,1-.72,2.53H249a.33.33,0,0,1,0,.66Z" style="fill:#2b3f4a;stroke:#2b3f4a;stroke-miterlimit:10;stroke-width:0.682999883380126px"/><path d="M173.42,76.78a25.94,25.94,0,0,1-.66,5.3c-.11.44-.4.66-.73.58a.59.59,0,0,1-.44-.8,23.9,23.9,0,0,0,.62-5.33A9,9,0,0,0,154.32,75c0,.29-.07.62-.11.91s-.29.66-.66.62a.63.63,0,0,1-.55-.69,9.35,9.35,0,0,1,2.26-5.77,9.75,9.75,0,0,1,10.34-3.47,9.94,9.94,0,0,1,7.6,7.85,8.61,8.61,0,0,1,.15,1C173.38,75.83,173.42,76.3,173.42,76.78Z" style="fill:#2b3f4a;stroke:#2b3f4a;stroke-linecap:round;stroke-linejoin:round;stroke-width:0.25px"/><path d="M175.83,77c0,.44,0,.91-.07,1.35s-.29.69-.62.69a.64.64,0,0,1-.58-.77,15.49,15.49,0,0,0-.22-4.49,11.43,11.43,0,0,0-21.26-2.7c-.22.4-.47.51-.8.44a.6.6,0,0,1-.33-.88,11.85,11.85,0,0,1,1.9-2.74c3.54-3.69,7.82-5,12.71-3.65s7.93,4.78,9.06,9.79a8.61,8.61,0,0,1,.15,1c0,.62,0,1.28.07,1.94Z" style="fill:#2b3f4a;stroke:#2b3f4a;stroke-linecap:round;stroke-linejoin:round;stroke-width:0.25px"/><path d="M171,76.74A26,26,0,0,1,169.73,84c-.15.44-.44.62-.8.51s-.47-.44-.33-.91a24.76,24.76,0,0,0,1.21-6.68,6.62,6.62,0,1,0-13.22-.58,10.52,10.52,0,0,1-.51,3c0,.07,0,.18-.07.26a.58.58,0,0,1-.73.33.57.57,0,0,1-.4-.69,15.81,15.81,0,0,0,.58-3.91A7.78,7.78,0,0,1,170.83,75,7.67,7.67,0,0,1,171,76.74Z" style="fill:#2b3f4a;stroke:#2b3f4a;stroke-linecap:round;stroke-linejoin:round;stroke-width:0.25px"/><path d="M177.8,73a.61.61,0,0,1-.47.66.59.59,0,0,1-.69-.44c-.11-.4-.22-.8-.37-1.21-1.94-5.26-5.66-8.44-11.21-9.24a13.25,13.25,0,0,0-11.83,4.09.64.64,0,0,0-.15.18.61.61,0,1,1-.88-.84,15,15,0,0,1,25.6,6.5Z" style="fill:#2b3f4a;stroke:#2b3f4a;stroke-linecap:round;stroke-linejoin:round;stroke-width:0.25px"/><path d="M168.63,77.1a24.38,24.38,0,0,1-1.75,7.74.62.62,0,0,1-.84.44.63.63,0,0,1-.29-.88,20.49,20.49,0,0,0,1.5-5.88,16,16,0,0,0,0-3,4.17,4.17,0,0,0-8.18,0c-.15.8-.11,1.61-.22,2.41a13.25,13.25,0,0,1-1.1,3.73.57.57,0,0,1-.8.33.6.6,0,0,1-.29-.8,13.46,13.46,0,0,0,1-3.4c.07-.73.07-1.46.18-2.16a5.4,5.4,0,0,1,10.7,0C168.6,76.12,168.6,76.59,168.63,77.1Z" style="fill:#2b3f4a;stroke:#2b3f4a;stroke-linecap:round;stroke-linejoin:round;stroke-width:0.25px"/><path d="M163.89,59a17.08,17.08,0,0,1,14,8.15l.18.29a.57.57,0,0,1-.22.73.61.61,0,0,1-.77-.11c0-.07-.11-.11-.15-.18a16.25,16.25,0,0,0-22.83-4.89,1.48,1.48,0,0,1-.33.18.63.63,0,0,1-.77-.18.57.57,0,0,1,.07-.77,2,2,0,0,1,.29-.22A18.37,18.37,0,0,1,163.89,59Z" style="fill:#2b3f4a;stroke:#2b3f4a;stroke-linecap:round;stroke-linejoin:round;stroke-width:0.25px"/><path d="M166.22,77a21,21,0,0,1-1.94,7.74,1,1,0,0,1-.47.47.77.77,0,0,1-.55-.18c-.22-.18-.18-.44-.07-.69.4-1,.8-2,1.13-3.1a16.59,16.59,0,0,0,.73-4.82,1.79,1.79,0,1,0-3.58,0,17.79,17.79,0,0,1-1.75,6.76.62.62,0,0,1-.8.37.6.6,0,0,1-.26-.88,16.84,16.84,0,0,0,1.42-4.6c.07-.66.07-1.35.15-2a3,3,0,0,1,3.14-2.7,3.05,3.05,0,0,1,2.85,3Z" style="fill:#2b3f4a;stroke:#2b3f4a;stroke-linecap:round;stroke-linejoin:round;stroke-width:0.25px"/><path d="M176.85,62.13a.49.49,0,0,1,0,.58c-.07.07-.15.18-.22.22-.26.15-.47,0-.69-.15-.62-.51-1.21-1.06-1.83-1.5a18.28,18.28,0,0,0-12.46-3.43A17.9,17.9,0,0,0,156,59.24c-.4.15-.66.11-.84-.15a.61.61,0,0,1,.37-.91,19.75,19.75,0,0,1,17.86,1.24,19.43,19.43,0,0,1,3.29,2.48A.37.37,0,0,1,176.85,62.13Z" style="fill:#2b3f4a;stroke:#2b3f4a;stroke-linecap:round;stroke-linejoin:round;stroke-width:0.25px"/><path d="M163.19,54.24A21.14,21.14,0,0,1,173,56.47c.07,0,.11.07.18.07a.67.67,0,0,1,.37.88.6.6,0,0,1-.88.22,22,22,0,0,0-5.84-1.94,21.43,21.43,0,0,0-6.83-.07c-.11,0-.22,0-.29,0a.56.56,0,0,1-.66-.47.55.55,0,0,1,.51-.69,19.55,19.55,0,0,1,2-.26C162.13,54.2,162.68,54.24,163.19,54.24Z" style="fill:#2b3f4a;stroke:#2b3f4a;stroke-linecap:round;stroke-linejoin:round;stroke-width:0.25px"/><path d="M163.81,77.21a19.24,19.24,0,0,1-1.94,7.45.58.58,0,0,1-.8.33.6.6,0,0,1-.26-.88,18.32,18.32,0,0,0,1.5-4.53c.15-.91.22-1.83.29-2.78,0-.44.26-.73.58-.73s.58.29.58.73A2,2,0,0,1,163.81,77.21Z" style="fill:#2b3f4a;stroke:#2b3f4a;stroke-linecap:round;stroke-linejoin:round;stroke-width:0.25px"/><path d="M148.58,51h3.54v1.17h-2.34v2.37h-1.21Z" style="fill:#2b3f4a;stroke:#2b3f4a;stroke-linecap:round;stroke-linejoin:round;stroke-width:0.25px"/><path d="M177.87,52.17V51h3.58v3.54h-1.17V52.14C179.48,52.17,178.68,52.17,177.87,52.17Z" style="fill:#2b3f4a;stroke:#2b3f4a;stroke-linecap:round;stroke-linejoin:round;stroke-width:0.25px"/><path d="M149.75,87.35h2.37v1.17h-3.54V85h1.17Z" style="fill:#2b3f4a;stroke:#2b3f4a;stroke-linecap:round;stroke-linejoin:round;stroke-width:0.25px"/><path d="M177.87,88.56V87.39h2.37V85h1.21v3.54Z" style="fill:#2b3f4a;stroke:#2b3f4a;stroke-linecap:round;stroke-linejoin:round;stroke-width:0.25px"/><path d="M210.26,66.54h0a3.38,3.38,0,0,1,3.38,3.38v4.7a0,0,0,0,1,0,0h-6.76a0,0,0,0,1,0,0v-4.7A3.38,3.38,0,0,1,210.26,66.54Z" style="fill:#ffce6c"/><rect x="206.88" y="72.55" width="6.76" height="2.06" style="fill:#fdb915"/><path d="M210.26,66.54h0a3.38,3.38,0,0,1,3.38,3.38v4.7a0,0,0,0,1,0,0h-6.76a0,0,0,0,1,0,0v-4.7A3.38,3.38,0,0,1,210.26,66.54Z" style="fill:none;stroke:#2b3f4a;stroke-linecap:round;stroke-linejoin:round;stroke-width:1.36599976676025px"/><circle cx="210.26" cy="69.83" r="0.39" style="fill:none;stroke:#2b3f4a;stroke-linecap:round;stroke-linejoin:round;stroke-width:1.36599976676025px"/><rect x="206.41" y="113.9" width="44.54" height="13.96" rx="1.19" ry="1.19" style="fill:#e6f1f3;stroke:#2b3f4a;stroke-linecap:round;stroke-linejoin:round;stroke-width:1.36599976676025px"/><line x1="213.65" y1="118.96" x2="213.65" y2="121.08" style="fill:none;stroke:#2b3f4a;stroke-linecap:round;stroke-linejoin:round;stroke-width:1.36599976676025px"/><line x1="211.63" y1="120.42" x2="213.65" y2="121.08" style="fill:none;stroke:#2b3f4a;stroke-linecap:round;stroke-linejoin:round;stroke-width:1.36599976676025px"/><line x1="212.41" y1="122.8" x2="213.65" y2="121.08" style="fill:none;stroke:#2b3f4a;stroke-linecap:round;stroke-linejoin:round;stroke-width:1.36599976676025px"/><line x1="214.9" y1="122.8" x2="213.65" y2="121.08" style="fill:none;stroke:#2b3f4a;stroke-linecap:round;stroke-linejoin:round;stroke-width:1.36599976676025px"/><line x1="215.67" y1="120.42" x2="213.65" y2="121.08" style="fill:none;stroke:#2b3f4a;stroke-linecap:round;stroke-linejoin:round;stroke-width:1.36599976676025px"/><line x1="221.16" y1="118.96" x2="221.16" y2="121.08" style="fill:none;stroke:#2b3f4a;stroke-linecap:round;stroke-linejoin:round;stroke-width:1.36599976676025px"/><line x1="219.15" y1="120.42" x2="221.16" y2="121.08" style="fill:none;stroke:#2b3f4a;stroke-linecap:round;stroke-linejoin:round;stroke-width:1.36599976676025px"/><line x1="219.92" y1="122.8" x2="221.16" y2="121.08" style="fill:none;stroke:#2b3f4a;stroke-linecap:round;stroke-linejoin:round;stroke-width:1.36599976676025px"/><line x1="222.41" y1="122.8" x2="221.16" y2="121.08" style="fill:none;stroke:#2b3f4a;stroke-linecap:round;stroke-linejoin:round;stroke-width:1.36599976676025px"/><line x1="223.18" y1="120.42" x2="221.16" y2="121.08" style="fill:none;stroke:#2b3f4a;stroke-linecap:round;stroke-linejoin:round;stroke-width:1.36599976676025px"/><line x1="228.68" y1="118.96" x2="228.68" y2="121.08" style="fill:none;stroke:#2b3f4a;stroke-linecap:round;stroke-linejoin:round;stroke-width:1.36599976676025px"/><line x1="226.66" y1="120.42" x2="228.68" y2="121.08" style="fill:none;stroke:#2b3f4a;stroke-linecap:round;stroke-linejoin:round;stroke-width:1.36599976676025px"/><line x1="227.43" y1="122.8" x2="228.68" y2="121.08" style="fill:none;stroke:#2b3f4a;stroke-linecap:round;stroke-linejoin:round;stroke-width:1.36599976676025px"/><line x1="229.92" y1="122.8" x2="228.68" y2="121.08" style="fill:none;stroke:#2b3f4a;stroke-linecap:round;stroke-linejoin:round;stroke-width:1.36599976676025px"/><line x1="230.69" y1="120.42" x2="228.68" y2="121.08" style="fill:none;stroke:#2b3f4a;stroke-linecap:round;stroke-linejoin:round;stroke-width:1.36599976676025px"/><line x1="236.19" y1="118.96" x2="236.19" y2="121.08" style="fill:none;stroke:#2b3f4a;stroke-linecap:round;stroke-linejoin:round;stroke-width:1.36599976676025px"/><line x1="234.17" y1="120.42" x2="236.19" y2="121.08" style="fill:none;stroke:#2b3f4a;stroke-linecap:round;stroke-linejoin:round;stroke-width:1.36599976676025px"/><line x1="234.94" y1="122.8" x2="236.19" y2="121.08" style="fill:none;stroke:#2b3f4a;stroke-linecap:round;stroke-linejoin:round;stroke-width:1.36599976676025px"/><line x1="237.43" y1="122.8" x2="236.19" y2="121.08" style="fill:none;stroke:#2b3f4a;stroke-linecap:round;stroke-linejoin:round;stroke-width:1.36599976676025px"/><line x1="238.21" y1="120.42" x2="236.19" y2="121.08" style="fill:none;stroke:#2b3f4a;stroke-linecap:round;stroke-linejoin:round;stroke-width:1.36599976676025px"/><line x1="241.85" y1="122.8" x2="245.54" y2="122.8" style="fill:none;stroke:#2b3f4a;stroke-linecap:round;stroke-linejoin:round;stroke-width:1.36599976676025px"/><rect x="35.42" y="56.75" width="21.68" height="15.51" rx="1.19" ry="1.19" style="fill:#e6f1f3;stroke:#2b3f4a;stroke-linecap:round;stroke-linejoin:round;stroke-width:1.36599976676025px"/><polyline points="35.42 58.57 39.63 64.43 52.9 64.43 57.1 58.57" style="fill:#cbe0ea;stroke:#2b3f4a;stroke-linecap:round;stroke-linejoin:round;stroke-width:1.36599976676025px"/><polygon points="50.89 64.43 41.63 64.43 36.61 72.25 55.91 72.25 50.89 64.43" style="fill:#e6f1f3"/><polygon points="52.13 66.36 50.89 64.43 41.63 64.43 40.4 66.36 52.13 66.36" style="fill:#cbe0ea"/><polygon points="50.89 64.43 41.63 64.43 36.61 72.25 55.91 72.25 50.89 64.43" style="fill:none;stroke:#2b3f4a;stroke-linecap:round;stroke-linejoin:round;stroke-width:1.36599976676025px"/><path d="M269.34,114.76h0a4.53,4.53,0,0,1,4.53,4.53v4a0,0,0,0,1,0,0H264.8a0,0,0,0,1,0,0v-4A4.53,4.53,0,0,1,269.34,114.76Z" style="fill:none;stroke:#2b3f4a;stroke-linecap:round;stroke-linejoin:round;stroke-width:1.36599976676025px"/><circle cx="269.34" cy="128.91" r="2.17" style="fill:#f6fbfe;stroke:#2b3f4a;stroke-linecap:round;stroke-linejoin:round;stroke-width:1.36599976676025px"/><line x1="269.34" y1="131.08" x2="269.34" y2="133.16" style="fill:none;stroke:#2b3f4a;stroke-linecap:round;stroke-linejoin:round;stroke-width:1.36599976676025px"/><rect x="126.56" y="32.24" width="14.3" height="12.64" rx="1.19" ry="1.19" style="fill:#f3e285"/><path d="M137.41,34.18a9,9,0,0,0-8.84,10.69h11.09a1.19,1.19,0,0,0,1.19-1.19V34.87A9,9,0,0,0,137.41,34.18Z" style="fill:#fec243"/><rect x="126.56" y="32.24" width="14.3" height="12.64" rx="1.19" ry="1.19" style="fill:none;stroke:#2b3f4a;stroke-linecap:round;stroke-linejoin:round;stroke-width:1.36599976676025px"/><path d="M138.24,32.24v-4a4.53,4.53,0,0,0-4.53-4.53h0a4.53,4.53,0,0,0-4.53,4.53" style="fill:none;stroke:#2b3f4a;stroke-linecap:round;stroke-linejoin:round;stroke-width:1.36599976676025px"/><circle cx="133.71" cy="37.81" r="2.17" style="fill:#fff;stroke:#2b3f4a;stroke-linecap:round;stroke-linejoin:round;stroke-width:1.36599976676025px"/><line x1="133.71" y1="39.97" x2="133.71" y2="42.06" style="fill:none;stroke:#2b3f4a;stroke-linecap:round;stroke-linejoin:round;stroke-width:1.36599976676025px"/><path d="M244.71,27.89h22.47a3.58,3.58,0,0,1,3.58,3.58V59.84a0,0,0,0,1,0,0H244.71a0,0,0,0,1,0,0v-32A0,0,0,0,1,244.71,27.89Z" transform="translate(515.47 87.74) rotate(-180)" style="fill:#fff;stroke:#2b3f4a;stroke-linecap:round;stroke-linejoin:round;stroke-width:1.36599976676025px"/><path d="M248.29,59.84h27.8a3.58,3.58,0,0,0,3.58-3.58V52.74H253.62v3.53A3.58,3.58,0,0,1,250,59.84Z" style="fill:#e9f0f3;stroke:#2b3f4a;stroke-linecap:round;stroke-linejoin:round;stroke-width:1.36599976676025px"/><line x1="249.94" y1="33.33" x2="255.11" y2="33.33" style="fill:none;stroke:#2b3f4a;stroke-linecap:round;stroke-linejoin:round;stroke-width:1.36599976676025px"/><line x1="255.78" y1="38.43" x2="264.95" y2="38.43" style="fill:none;stroke:#2b3f4a;stroke-linecap:round;stroke-linejoin:round;stroke-width:1.36599976676025px"/><line x1="257.87" y1="33.33" x2="260.45" y2="33.33" style="fill:none;stroke:#2b3f4a;stroke-linecap:round;stroke-linejoin:round;stroke-width:1.36599976676025px"/><line x1="262.3" y1="46.07" x2="264.88" y2="46.07" style="fill:none;stroke:#2b3f4a;stroke-linecap:round;stroke-linejoin:round;stroke-width:1.36599976676025px"/><line x1="249.94" y1="35.88" x2="265.89" y2="35.88" style="fill:none;stroke:#2b3f4a;stroke-linecap:round;stroke-linejoin:round;stroke-width:1.36599976676025px"/><line x1="249.94" y1="38.43" x2="253.37" y2="38.43" style="fill:none;stroke:#2b3f4a;stroke-linecap:round;stroke-linejoin:round;stroke-width:1.36599976676025px"/><line x1="249.94" y1="40.97" x2="259.21" y2="40.97" style="fill:none;stroke:#2b3f4a;stroke-linecap:round;stroke-linejoin:round;stroke-width:1.36599976676025px"/><line x1="249.94" y1="46.07" x2="259.21" y2="46.07" style="fill:none;stroke:#2b3f4a;stroke-linecap:round;stroke-linejoin:round;stroke-width:1.36599976676025px"/><line x1="249.94" y1="48.61" x2="257.38" y2="48.61" style="fill:none;stroke:#2b3f4a;stroke-linecap:round;stroke-linejoin:round;stroke-width:1.36599976676025px"/><circle cx="243.82" cy="56.99" r="5.97" style="fill:#48ab8f"/><path d="M244.86,51.12a5.93,5.93,0,0,1-5.1,10.22,6,6,0,1,0,5.1-10.22Z" style="fill:#259c77"/><circle cx="243.82" cy="56.99" r="5.97" style="fill:none;stroke:#2b3f4a;stroke-linecap:round;stroke-linejoin:round;stroke-width:1.36599976676025px"/><polyline points="250.8 52.11 243.61 59.3 240.52 56.21" style="fill:none;stroke:#2b3f4a;stroke-linecap:round;stroke-linejoin:round;stroke-width:1.36599976676025px"/><circle cx="112.85" cy="85.06" r="0.39" style="fill:none;stroke:#2b3f4a;stroke-linecap:round;stroke-linejoin:round;stroke-width:1.36599976676025px"/><circle cx="130.98" cy="85.06" r="0.39" style="fill:none;stroke:#2b3f4a;stroke-linecap:round;stroke-linejoin:round;stroke-width:1.36599976676025px"/><path d="M96.28,63.66H111.5a1.09,1.09,0,0,1,1.09,1.09v3.47a0,0,0,0,1,0,0H95.2a0,0,0,0,1,0,0V64.75A1.09,1.09,0,0,1,96.28,63.66Z" transform="translate(207.79 131.87) rotate(-180)" style="fill:#2e464e;stroke:#2b3f4a;stroke-linecap:round;stroke-linejoin:round;stroke-width:1.36599976676025px"/><path d="M95.2,38.69h17.39a0,0,0,0,1,0,0v1a1.09,1.09,0,0,1-1.09,1.09H96.28a1.09,1.09,0,0,1-1.09-1.09v-1A0,0,0,0,1,95.2,38.69Z" transform="translate(207.79 79.51) rotate(-180)" style="fill:#2e464e;stroke:#2b3f4a;stroke-linecap:round;stroke-linejoin:round;stroke-width:1.36599976676025px"/><g id="Octicons-2" data-name="Octicons"><g id="person-2" data-name="person"><path id="Shape-2" data-name="Shape" d="M213.47,88.27a.54.54,0,0,1-.54.54h-5.37a.54.54,0,0,1-.54-.54v-.54c0-1.41,2.15-2.15,2.15-2.15a.66.66,0,0,0,0-.54c-.45-.33-.51-.85-.54-2.15a1.61,1.61,0,0,1,3.22,0c0,1.29-.09,1.81-.54,2.15a.66.66,0,0,0,0,.54s2.15.73,2.15,2.15Z" style="fill:#2e464e"/></g></g><rect x="204.93" y="78.15" width="10.65" height="10.65" style="fill:none;stroke:#2b3f4a;stroke-linecap:round;stroke-linejoin:round;stroke-width:1.36599976676025px"/><rect x="81.69" y="140.4" width="19.29" height="27.52" rx="1.19" ry="1.19" transform="translate(245.49 62.83) rotate(90)" style="fill:#e8f0f1"/><path d="M104.54,144.73a1.17,1.17,0,0,1,.55,1v16.9a1.19,1.19,0,0,1-1.19,1.19h-19A19.75,19.75,0,0,1,104.54,144.73Z" style="fill:#cbe0ea"/><rect x="81.69" y="140.4" width="19.29" height="27.52" rx="1.19" ry="1.19" transform="translate(245.49 62.83) rotate(90)" style="fill:none;stroke:#2b3f4a;stroke-linecap:round;stroke-linejoin:round;stroke-width:1.36599976676025px"/><line x1="93.64" y1="152.02" x2="97.71" y2="152.02" style="fill:none;stroke:#2b3f4a;stroke-linecap:round;stroke-linejoin:round;stroke-width:1.36599976676025px"/><line x1="93.64" y1="157.48" x2="99.84" y2="157.48" style="fill:none;stroke:#2b3f4a;stroke-linecap:round;stroke-linejoin:round;stroke-width:1.36599976676025px"/><line x1="93.64" y1="154.75" x2="101.75" y2="154.75" style="fill:none;stroke:#2b3f4a;stroke-linecap:round;stroke-linejoin:round;stroke-width:1.36599976676025px"/><path d="M91.33,138.51h0a3.38,3.38,0,0,1,3.38,3.38v4.7a0,0,0,0,1,0,0H88a0,0,0,0,1,0,0v-4.7a3.38,3.38,0,0,1,3.38-3.38Z" style="fill:#ffce6c"/><rect x="87.95" y="144.51" width="6.76" height="2.06" style="fill:#fdb915"/><path d="M91.33,138.51h0a3.38,3.38,0,0,1,3.38,3.38v4.7a0,0,0,0,1,0,0H88a0,0,0,0,1,0,0v-4.7a3.38,3.38,0,0,1,3.38-3.38Z" style="fill:none;stroke:#2b3f4a;stroke-linecap:round;stroke-linejoin:round;stroke-width:1.36599976676025px"/><circle cx="91.33" cy="141.8" r="0.39" style="fill:none;stroke:#2b3f4a;stroke-linecap:round;stroke-linejoin:round;stroke-width:1.36599976676025px"/><g id="Octicons-3" data-name="Octicons"><g id="person-3" data-name="person"><path id="Shape-3" data-name="Shape" d="M88.46,158.69a.47.47,0,0,1-.47.47H83.3a.47.47,0,0,1-.47-.47v-.47c0-1.23,1.87-1.87,1.87-1.87a.58.58,0,0,0,0-.47c-.39-.29-.44-.75-.47-1.87a1.41,1.41,0,0,1,2.81,0c0,1.13-.07,1.58-.47,1.87a.58.58,0,0,0,0,.47s1.87.64,1.87,1.87Z" style="fill:#2e464e"/></g></g><rect x="81" y="149.86" width="9.3" height="9.3" style="fill:none;stroke:#2b3f4a;stroke-linecap:round;stroke-linejoin:round;stroke-width:1.36599976676025px"/><line x1="85.93" y1="146.58" x2="96.74" y2="146.58" style="fill:none;stroke:#2b3f4a;stroke-linecap:round;stroke-linejoin:round;stroke-width:1.36599976676025px"/><line x1="204.93" y1="74.61" x2="215.58" y2="74.61" style="fill:none;stroke:#2b3f4a;stroke-linecap:round;stroke-linejoin:round;stroke-width:1.36599976676025px"/><rect x="301.63" y="85.65" width="17.39" height="29.52" rx="1.09" ry="1.09" style="fill:#f4b52c"/><polygon points="308.68 110.88 301.18 110.88 306.27 88.06 313.77 88.06 308.68 110.88" style="fill:#f3e285"/><polygon points="313.69 110.88 310.88 110.88 315.98 88.06 318.78 88.06 313.69 110.88" style="fill:#f3e285"/><rect x="301.63" y="85.65" width="17.39" height="29.52" rx="1.09" ry="1.09" style="fill:none;stroke:#2b3f4a;stroke-linecap:round;stroke-linejoin:round;stroke-width:1.36599976676025px"/><path d="M331.71,90.19h-24a1,1,0,0,0-1,1V102.7a1,1,0,0,0,1,1h3.23V108l5.56-4.3h15.24a1,1,0,0,0,1-1V91.17A1,1,0,0,0,331.71,90.19Z" style="fill:#fff;stroke:#2b3f4a;stroke-linecap:round;stroke-linejoin:round;stroke-width:1.36599976676025px"/><path d="M301.63,110.62H319a0,0,0,0,1,0,0v3.47a1.09,1.09,0,0,1-1.09,1.09H302.72a1.09,1.09,0,0,1-1.09-1.09v-3.47A0,0,0,0,1,301.63,110.62Z" style="fill:#2e464e;stroke:#2b3f4a;stroke-linecap:round;stroke-linejoin:round;stroke-width:1.36599976676025px"/><path d="M302.72,85.65h15.22A1.09,1.09,0,0,1,319,86.73v1a0,0,0,0,1,0,0H301.63a0,0,0,0,1,0,0v-1A1.09,1.09,0,0,1,302.72,85.65Z" style="fill:#2e464e;stroke:#2b3f4a;stroke-linecap:round;stroke-linejoin:round;stroke-width:1.36599976676025px"/><line x1="312.18" y1="94.94" x2="312.18" y2="97.06" style="fill:none;stroke:#2b3f4a;stroke-linecap:round;stroke-linejoin:round;stroke-width:1.36599976676025px"/><line x1="310.16" y1="96.41" x2="312.18" y2="97.06" style="fill:none;stroke:#2b3f4a;stroke-linecap:round;stroke-linejoin:round;stroke-width:1.36599976676025px"/><line x1="310.93" y1="98.78" x2="312.18" y2="97.06" style="fill:none;stroke:#2b3f4a;stroke-linecap:round;stroke-linejoin:round;stroke-width:1.36599976676025px"/><line x1="313.43" y1="98.78" x2="312.18" y2="97.06" style="fill:none;stroke:#2b3f4a;stroke-linecap:round;stroke-linejoin:round;stroke-width:1.36599976676025px"/><line x1="314.2" y1="96.41" x2="312.18" y2="97.06" style="fill:none;stroke:#2b3f4a;stroke-linecap:round;stroke-linejoin:round;stroke-width:1.36599976676025px"/><line x1="319.69" y1="94.94" x2="319.69" y2="97.06" style="fill:none;stroke:#2b3f4a;stroke-linecap:round;stroke-linejoin:round;stroke-width:1.36599976676025px"/><line x1="317.67" y1="96.41" x2="319.69" y2="97.06" style="fill:none;stroke:#2b3f4a;stroke-linecap:round;stroke-linejoin:round;stroke-width:1.36599976676025px"/><line x1="318.45" y1="98.78" x2="319.69" y2="97.06" style="fill:none;stroke:#2b3f4a;stroke-linecap:round;stroke-linejoin:round;stroke-width:1.36599976676025px"/><line x1="320.94" y1="98.78" x2="319.69" y2="97.06" style="fill:none;stroke:#2b3f4a;stroke-linecap:round;stroke-linejoin:round;stroke-width:1.36599976676025px"/><line x1="321.71" y1="96.41" x2="319.69" y2="97.06" style="fill:none;stroke:#2b3f4a;stroke-linecap:round;stroke-linejoin:round;stroke-width:1.36599976676025px"/><line x1="327.2" y1="94.94" x2="327.2" y2="97.06" style="fill:none;stroke:#2b3f4a;stroke-linecap:round;stroke-linejoin:round;stroke-width:1.36599976676025px"/><line x1="325.19" y1="96.41" x2="327.2" y2="97.06" style="fill:none;stroke:#2b3f4a;stroke-linecap:round;stroke-linejoin:round;stroke-width:1.36599976676025px"/><line x1="325.96" y1="98.78" x2="327.2" y2="97.06" style="fill:none;stroke:#2b3f4a;stroke-linecap:round;stroke-linejoin:round;stroke-width:1.36599976676025px"/><line x1="328.45" y1="98.78" x2="327.2" y2="97.06" style="fill:none;stroke:#2b3f4a;stroke-linecap:round;stroke-linejoin:round;stroke-width:1.36599976676025px"/><line x1="329.22" y1="96.41" x2="327.2" y2="97.06" style="fill:none;stroke:#2b3f4a;stroke-linecap:round;stroke-linejoin:round;stroke-width:1.36599976676025px"/><circle cx="241.91" cy="176.88" r="2.3" style="fill:none;stroke:#2b3f4a;stroke-linecap:round;stroke-linejoin:round;stroke-width:1.36599976676025px"/><path d="M252.94,171.12H229.89a1.09,1.09,0,0,1-1.09-1.09v-17.3a1.09,1.09,0,0,1,1.09-1.09h9a1.09,1.09,0,0,1,.84.4l1.38,1.7a1.09,1.09,0,0,0,.84.4h9.94a1.09,1.09,0,0,1,1.09,1.09Z" style="fill:#fec243"/><path d="M231.89,171.12h21.16a1.93,1.93,0,0,0,1.93-1.93V158a1.09,1.09,0,0,0-1.09-1.09H233a1.09,1.09,0,0,0-1.09,1.09v11.23a1.93,1.93,0,0,1-1.93,1.93h1.93Z" style="fill:#fec243"/><path d="M252.94,171.12H229.89a1.09,1.09,0,0,1-1.09-1.09v-17.3a1.09,1.09,0,0,1,1.09-1.09h9a1.09,1.09,0,0,1,.84.4l1.38,1.7a1.09,1.09,0,0,0,.84.4h9.94a1.09,1.09,0,0,1,1.09,1.09Z" style="fill:none;stroke:#2b3f4a;stroke-linecap:round;stroke-linejoin:round;stroke-width:1.36599976676025px"/><path d="M231.89,171.12h21.16a1.93,1.93,0,0,0,1.93-1.93V158a1.09,1.09,0,0,0-1.09-1.09H233a1.09,1.09,0,0,0-1.09,1.09v11.23a1.93,1.93,0,0,1-1.93,1.93h1.93Z" style="fill:#f3e285"/><path d="M231.89,171.12h21.16a1.93,1.93,0,0,0,1.93-1.93V158a1.09,1.09,0,0,0-1.09-1.09H233a1.09,1.09,0,0,0-1.09,1.09v11.23a1.93,1.93,0,0,1-1.93,1.93h1.93Z" style="fill:none;stroke:#2b3f4a;stroke-linecap:round;stroke-linejoin:round;stroke-width:1.36599976676025px"/><line x1="244.2" y1="176.88" x2="254.98" y2="176.88" style="fill:none;stroke:#2b3f4a;stroke-linecap:round;stroke-linejoin:round;stroke-width:1.36599976676025px"/><line x1="228.81" y1="176.88" x2="239.61" y2="176.88" style="fill:none;stroke:#2b3f4a;stroke-linecap:round;stroke-linejoin:round;stroke-width:1.36599976676025px"/><line x1="241.9" y1="174.58" x2="241.9" y2="171.12" style="fill:none;stroke:#2b3f4a;stroke-linecap:round;stroke-linejoin:round;stroke-width:1.36599976676025px"/><line x1="236.68" y1="161.99" x2="236.68" y2="163.93" style="fill:none;stroke:#2b3f4a;stroke-linecap:round;stroke-linejoin:round;stroke-width:1.36599976676025px"/><line x1="234.82" y1="163.33" x2="236.68" y2="163.93" style="fill:none;stroke:#2b3f4a;stroke-linecap:round;stroke-linejoin:round;stroke-width:1.36599976676025px"/><line x1="235.53" y1="165.51" x2="236.68" y2="163.93" style="fill:none;stroke:#2b3f4a;stroke-linecap:round;stroke-linejoin:round;stroke-width:1.36599976676025px"/><line x1="237.82" y1="165.51" x2="236.68" y2="163.93" style="fill:none;stroke:#2b3f4a;stroke-linecap:round;stroke-linejoin:round;stroke-width:1.36599976676025px"/><line x1="238.53" y1="163.33" x2="236.68" y2="163.93" style="fill:none;stroke:#2b3f4a;stroke-linecap:round;stroke-linejoin:round;stroke-width:1.36599976676025px"/><line x1="243.57" y1="161.99" x2="243.57" y2="163.93" style="fill:none;stroke:#2b3f4a;stroke-linecap:round;stroke-linejoin:round;stroke-width:1.36599976676025px"/><line x1="241.71" y1="163.33" x2="243.57" y2="163.93" style="fill:none;stroke:#2b3f4a;stroke-linecap:round;stroke-linejoin:round;stroke-width:1.36599976676025px"/><line x1="242.42" y1="165.51" x2="243.57" y2="163.93" style="fill:none;stroke:#2b3f4a;stroke-linecap:round;stroke-linejoin:round;stroke-width:1.36599976676025px"/><line x1="244.71" y1="165.51" x2="243.57" y2="163.93" style="fill:none;stroke:#2b3f4a;stroke-linecap:round;stroke-linejoin:round;stroke-width:1.36599976676025px"/><line x1="245.42" y1="163.33" x2="243.57" y2="163.93" style="fill:none;stroke:#2b3f4a;stroke-linecap:round;stroke-linejoin:round;stroke-width:1.36599976676025px"/><line x1="250.45" y1="161.99" x2="250.45" y2="163.93" style="fill:none;stroke:#2b3f4a;stroke-linecap:round;stroke-linejoin:round;stroke-width:1.36599976676025px"/><line x1="248.6" y1="163.33" x2="250.45" y2="163.93" style="fill:none;stroke:#2b3f4a;stroke-linecap:round;stroke-linejoin:round;stroke-width:1.36599976676025px"/><line x1="249.31" y1="165.51" x2="250.45" y2="163.93" style="fill:none;stroke:#2b3f4a;stroke-linecap:round;stroke-linejoin:round;stroke-width:1.36599976676025px"/><line x1="251.6" y1="165.51" x2="250.45" y2="163.93" style="fill:none;stroke:#2b3f4a;stroke-linecap:round;stroke-linejoin:round;stroke-width:1.36599976676025px"/><line x1="252.31" y1="163.33" x2="250.45" y2="163.93" style="fill:none;stroke:#2b3f4a;stroke-linecap:round;stroke-linejoin:round;stroke-width:1.36599976676025px"/><path d="M211.82,6a6.23,6.23,0,0,0-10.63,4.55v.18l-1.29,2.11,1,1-2.3,2.3,0,2.2-1.9-.27-2.22,2.22,1.45,4.9L204,16.94l1,1,2.11-1.29h.18A6.23,6.23,0,0,0,211.82,6Z" style="fill:#fdb915"/><path d="M194.4,20.22l1.45,4.9L204,16.94l1,1,2.11-1.29h.18a6.23,6.23,0,1,0-6.08-6.08v.18l-1.29,2.11,1,1-2.3,2.3,0,2.2-1.9-.27Z" style="fill:none;stroke:#2b3f4a;stroke-linecap:round;stroke-linejoin:round;stroke-width:1.36599976676025px"/><path d="M211.4,4.15a6.23,6.23,0,0,0-4.3,10.74l.13.12.58,2.41h1.35v3.25l1.53,1.58-1.53,1.15v3.14L213.64,29V17.42H215l.58-2.41.13-.12a6.23,6.23,0,0,0-4.3-10.74Zm0,6.84a1.9,1.9,0,1,1,1.9-1.9A1.9,1.9,0,0,1,211.4,11Z" style="fill:#ffce6c"/><rect x="209.15" y="16.82" width="4.49" height="2.26" style="fill:#fdb915"/><path d="M209.15,26.54,213.64,29V17.42H215l.58-2.41.13-.12a6.23,6.23,0,1,0-8.6,0l.13.12.58,2.41h1.35v3.25l1.53,1.58-1.53,1.15Z" style="fill:none;stroke:#2b3f4a;stroke-linecap:round;stroke-linejoin:round;stroke-width:1.36599976676025px"/><path d="M211.4,7.19a1.9,1.9,0,1,1-1.9,1.9A1.9,1.9,0,0,1,211.4,7.19Z" style="fill:none;stroke:#2b3f4a;stroke-linecap:round;stroke-linejoin:round;stroke-width:1.36599976676025px"/><path d="M203.37,5.63q0-.16,0-.33a4.62,4.62,0,1,1,6.22,4.33" style="fill:none;stroke:#2b3f4a;stroke-linecap:round;stroke-linejoin:round;stroke-width:1.36599976676025px"/><path d="M12.29,98.09s-6,4.42-11.61,4.42v12.77c0,3.38,9.7,10.44,11.61,10.44s11.61-7.06,11.61-10.44V102.52C18.25,102.52,12.29,98.09,12.29,98.09Z" style="fill:#48ab8f"/><path d="M12.29,98.09s-6,4.42-11.61,4.42v12.77c0,3.38,9.7,10.44,11.61,10.44s11.61-7.06,11.61-10.44V102.52C18.25,102.52,12.29,98.09,12.29,98.09Z" style="fill:none;stroke:#2b3f4a;stroke-linecap:round;stroke-linejoin:round;stroke-width:1.36599976676025px"/><path d="M3.53,115.19c.56,1.88,6.51,6.6,8.76,7.59h0c2.25-1,8.19-5.72,8.76-7.59h0V105.09h0a27.32,27.32,0,0,1-8.75-3.58,27.32,27.32,0,0,1-8.75,3.58h0v10.09Zm17.53-.05Zm-17.55,0" style="fill:#2b3f4a;stroke:#2b3f4a;stroke-linecap:round;stroke-linejoin:round;stroke-width:1.36599976676025px"/><polyline points="7.6 112.84 10.44 115.68 16.98 109.15" style="fill:none;stroke:#fff;stroke-linecap:round;stroke-linejoin:round;stroke-width:1.36599976676025px"/></g></g></svg>