<svg fill="none" height="17" viewBox="0 0 164 17" width="164" xmlns="http://www.w3.org/2000/svg" xmlns:xlink="http://www.w3.org/1999/xlink"><clipPath id="a"><path d="m0 .789795h164v16h-164z"/></clipPath><g clip-path="url(#a)" fill="#787b7e"><path d="m15.7245 13.6099c-.0004-.0944-.0365-.1851-.1008-.2533l-1.8876-2.0327c-.0336-.0354-.0738-.0635-.1184-.0826-.0445-.0191-.0924-.0287-.1407-.0283-.075.0022-.1473.0294-.2057.0774-.0067-.0019-.0138-.0019-.0205 0-1.279 1.1326-2.9446 2.039-4.54855 2.039-2.79451 0-4.59788-2.0934-4.59788-4.58665 0-2.49326 1.75813-4.58878 4.48478-4.58878 1.24612 0 2.87885.58407 4.21955 1.59938h.0123c.0686.05775.1567.08591.2455.07848.0887-.00743.1711-.04987.2295-.11826l1.8692-2.0662c.0608-.06669.0952-.15394.0966-.24493-.0006-.05484-.0135-.10881-.0377-.15779-.0243-.04897-.0592-.09167-.1021-.12483-.0043-.00845-.0107-.01565-.0185-.02093-2.0531-1.47849-4.4994-2.28602-7.01403-2.315321-4.79939.006281-8.08947 3.653011-8.08947 7.944521 0 4.38151 3.26746 7.95501 8.20257 7.95501 2.71333-.0218 5.33313-1.0123 7.40263-2.7989.0381-.0343.0685-.0766.0891-.1239.0205-.0473.0309-.0986.0302-.1504z"/><path d="m31.3668 3.49662c-1.3756-1.46539-3.4031-2.24833-6.1524-2.24833h-6.4239c-.0954.0011-.1867.04033-.254.10925s-.1053.16201-.1058.25919v14.23527c0 .0971.0379.1903.1054.259.0674.0687.159.1073.2544.1073h6.4239c2.9076 0 4.7541-.8478 6.0393-2.1332 1.3531-1.3544 2.0728-3.2804 2.0728-5.36749.0327-1.93251-.6694-3.80313-1.9597-5.22099zm-3.3127 8.37368c-.6539.6427-1.4188.986-2.9302.986h-2.7493v-8.23132h2.7534c1.6224 0 2.3894.41868 3.0433 1.12416.693.75991 1.0693 1.71661 1.0693 3.02499 0 1.39837-.4112 2.34047-1.1865 3.09617z"/><path d="m51.3723 15.7808-6.7858-8.58301 5.7432-5.46592c.0289-.02622.0517-.05855.067-.09471s.0226-.07529.0215-.11463c0-.07237-.0281-.14181-.0782-.19318s-.1181-.08051-.1892-.08106h-4.1784c-.0912.00032-.1788.03629-.2447.10049l-5.6918 5.52034v-5.25448c0-.09716-.0379-.19034-.1054-.25905-.0675-.0687-.159-.1073-.2544-.1073h-3.2387c-.0951.00055-.1861.0394-.2531.10804-.0671.06864-.1047.16151-.1047.25831v14.23526c.0021.0952.0403.1858.1066.2529.0664.0672.1556.1056.2491.1072h3.249c.0954 0 .1869-.0386.2544-.1073s.1054-.1619.1054-.2591v-4.3397l1.7808-1.72074 4.9166 6.30534c.0324.0432.0741.0782.1219.1025.0477.0243.1003.0372.1536.0378h4.1558c.0711 0 .1393-.0286.1898-.0796.0504-.051.079-.1202.0796-.1925-.0011-.0655-.026-.1281-.0699-.1759z"/><path d="m73.1896 14.1248v-6.32418c.0006-.097-.0365-.19031-.1031-.25968s-.1573-.10921-.2526-.11086h-7.2793c-.0949.00054-.1858.03903-.2531.10716-.0673.06814-.1057.16047-.1067.2571v2.38226c-.0003.0483.0088.0962.0267.1409.018.0447.0445.0853.0779.1195.0335.0343.0732.0615.117.08s.0908.0281.1382.0281h3.8761v2.0411c-.8328.5275-2.0275.8018-3.1317.8018-2.8624 0-4.3491-2.2023-4.3491-4.54067 0-2.51211 1.6903-4.58878 4.1249-4.58878 1.2708 0 3.0207.54848 4.3491 1.54704h.0124c.059.04659.1309.07297.2056.07536.0473.00014.0942-.00922.1379-.02754.0438-.01831.0835-.04524.1171-.07922l1.9699-1.95107c.0667-.06943.1043-.16249.1049-.25958-.0009-.05784-.0153-.11463-.0422-.16562-.0268-.05099-.0652-.0947-.1121-.12746 0 0 0 0 0-.01256-2.155-1.54285-4.5958-2.365566-6.7693-2.365566-4.5752 0-8.1799 3.558816-8.1799 7.938246 0 4.37942 3.5368 7.91312 8.291 7.91312 2.2413 0 4.8878-.8918 6.8762-2.3174.0467-.0324.085-.0758.1119-.1264.0268-.0506.0413-.1071.0423-.1646z"/><path d="m88.8896 15.965v-2.6377c.0003-.0483-.0088-.0962-.0268-.1409s-.0444-.0853-.0779-.1195c-.0334-.0343-.0732-.0615-.117-.08s-.0907-.0281-.1382-.0281h-7.9105v-11.23745c.0002-.04829-.0089-.09615-.0268-.14084-.018-.04469-.0445-.08532-.0779-.11956-.0334-.03425-.0732-.06142-.117-.07996s-.0908-.02809-.1382-.02808h-3.2263c-.0469-.00001-.0933.00943-.1366.02776s-.0826.0452-.1157.07905c-.033.03385-.0592.07402-.077.1182-.0177.04419-.0267.0915-.0264.13924v14.24784c0 .0483.0093.0961.0275.1406.0183.0446.0449.0851.0786.1192.0336.034.0735.0609.1174.0792s.0909.0276.1384.0273h11.4926c.0949-.0005.1858-.039.2531-.1071.0674-.0682.1057-.1605.1068-.2571z"/><path d="m157.646 15.965v-2.6377c0-.0978-.038-.1915-.106-.2606s-.16-.1079-.256-.1079h-7.908v-11.23745c0-.09772-.039-.19143-.106-.26053-.068-.0691-.16-.10791-.256-.10791h-3.225c-.094.00054-.185.0391-.252.10729s-.105.16052-.105.25696v14.24784c0 .0971.038.1903.105.259.068.0687.159.1073.254.1073h11.493c.047.0003.094-.0089.138-.0271.043-.0182.083-.045.116-.0788.034-.0339.06-.0741.079-.1185.018-.0443.027-.0918.027-.1398z"/><path d="m98.9488.892334c4.6862 0 8.4492 3.558816 8.4492 7.915216 0 4.42755-3.763 7.98225-8.4492 7.98225-4.6863 0-8.3609-3.5589-8.3609-7.98225-.0041-4.3585 3.6684-7.915216 8.3609-7.915216zm0 12.547966c2.4322 0 4.3492-2.1102 4.3492-4.63275 0-2.47861-1.917-4.54272-4.3492-4.54272-2.4326 0-4.2853 2.06411-4.2853 4.54691 0 2.51206 1.8692 4.62856 4.2853 4.62856z"/><path d="m122.597 8.00368c1.104-.68874 1.826-1.76685 1.826-2.93079-.015-.80649-.329-1.57753-.878-2.15831-.903-.986-2.367-1.5596-4.319-1.5596h-8.385c-.096.00055-.187.03962-.255.10865-.067.06904-.105.16244-.105.25979v14.23528c0 .0971.038.1903.105.259.068.0687.159.1073.255.1073h8.723c1.891 0 3.154-.3894 4.236-1.4214.43-.4177.774-.9193 1.01-1.4749.237-.5556.361-1.154.365-1.7594 0-1.6455-.88-2.85756-2.578-3.66562zm-8.149-3.51066h4.281c.722 0 1.028.18422 1.285.43752.117.11622.209.25545.27.40915.062.15371.093.31865.09.48474.003.16952-.028.33792-.089.49536-.062.15745-.154.30076-.271.42156-.271.27633-.677.41868-1.285.41868h-4.281zm6.22 8.23758c-.294.2973-.767.4585-1.421.4585h-4.799v-3.1402h4.799c.654 0 1.059.1361 1.421.5046.277.2878.43.6753.428 1.0781.005.4095-.148.8046-.428 1.099z"/><path d="m143.02 15.965c-.001-.0553-.015-.1098-.039-.1591l-6.49-14.23523c-.029-.06276-.075-.11579-.132-.15288-.058-.03708-.125-.05667-.193-.05646h-2.809c-.067.00146-.132.0218-.188.05876s-.102.08908-.13.15058l-6.498 14.25823c-.02.0478-.031.099-.031.1508 0 .0968.037.1896.104.2583.067.0686.158.1075.254.108h3.364c.072.0004.142-.0214.201-.0625.06-.0411.106-.0996.132-.1678l.822-2.0641h6.58l.852 2.0641c.026.0684.071.127.131.1682.06.0411.13.0628.202.0621h3.496c.049.0018.098-.0069.145-.0254.046-.0186.087-.0466.122-.0824.035-.0357.063-.0785.081-.1255s.026-.0973.024-.1477zm-10.364-5.0472 1.96-4.79394h.135l1.96 4.79394z"/><path d="m162.462 16.189c-.201.0011-.4-.0383-.586-.1161-.186-.0777-.355-.1922-.497-.3368-.143-.1447-.255-.3166-.332-.5058s-.116-.392-.115-.5967c0-.4153.162-.8136.451-1.1072.288-.2937.679-.4587 1.087-.4587.397.0148.773.1858 1.048.4768.276.2911.43.6796.43 1.0839s-.154.7928-.43 1.0839c-.275.291-.651.4619-1.048.4767zm0-2.9873c-.278-.0029-.551.0785-.783.2338-.233.1553-.415.3775-.523.6383-.108.2609-.138.5486-.085.8266s.185.5338.381.7348c.196.2009.447.3381.719.3939.273.0558.556.0278.813-.0805.257-.1082.476-.2919.631-.5275.154-.2357.236-.5127.235-.7958.001-.3739-.144-.7328-.403-.9984-.258-.2655-.61-.4161-.977-.4189zm.284 1.5387.487.6427h-.288l-.454-.6029h-.393v.6029h-.226v-1.5994h.703c.348 0 .594.1863.594.4836.001.1171-.042.2301-.118.3175-.077.0873-.183.1427-.297.1556zm-.196-.7411h-.452v.5694h.448c.22 0 .373-.1025.373-.2889 0-.1863-.136-.2805-.36-.2805z"/></g></svg>