<svg fill="none" height="23" viewBox="0 0 122 23" width="122" xmlns="http://www.w3.org/2000/svg" xmlns:xlink="http://www.w3.org/1999/xlink"><clipPath id="a"><path d="m.972656 0h121v23h-121z"/></clipPath><g clip-path="url(#a)"><path d="m82.5927.819277c-1.7733 1.145653-2.5143 3.230483-1.6277 4.575963.8866 1.33882 3.0105 1.43873 4.8367.29308 1.7733-1.18562 2.468-3.22383 1.6343-4.56931-.483-.746007-1.3365-1.11901131-2.296-1.11901131-.8204 0-1.7269.26643231-2.5473.81927831zm-22.9306 2.296973c-1.9088.05261-2.563.05261-2.563.05261l-1.0117 4.4058h-2.7114s.8026.49319 1.2545 1.38093c.3508.82855.5059 1.95961.2496 3.28791-.4452 2.4922-.9982 4.899-.9982 4.899-.9645 4.2677.7958 5.6355 4.9236 5.6355 1.059 0 2.563-.0921 3.622-.2894l.8566-4.0244c-.9511.1513-1.7604.1973-2.3135.1973-.8566 0-1.3624-.5392-1.3085-1.1705 0-.5392.1484-1.131.2496-1.6242l1.0117-4.511h3.9187l.9038-3.78114h-4.1211l1.059-4.55704s-.9038.0526-3.0217.09863zm-58.689444 12.69125c0 3.2495 1.398504 7.1925 8.183574 7.1925 3.99477 0 7.73527-2.4173 8.63857-6.6575h-5.7412c-.455 1.2879-1.4453 2.7145-2.89737 2.7145-1.74645 0-2.19478-1.2813-2.04757-3.4014.10037-1.0832.74944-4.9205 3.39924-4.9205 1.8937 0 2.0476 1.9153 2.0476 2.6551h5.7345c.0468-4.28649-3.0914-6.59813-7.5881-6.59813-5.98206 0-9.729244 4.62993-9.729244 9.01543zm17.767644.3565c0 3.9816 2.413 6.836 8.0477 6.836 5.783 0 7.7377-3.9816 8.1421-4.9639h-5.6348c-.3976.7845-1.0042 1.325-2.2579 1.325-1.1054 0-1.712-.5405-2.0153-1.0811-.2966-.5867-.4516-1.2788-.3977-2.116h10.9123c.1954-.7384.2965-1.5756.2965-2.5578 0-4.52218-3.4172-6.59211-7.495-6.59211-4.4215 0-9.5979 2.70937-9.5979 9.14991zm9.3944-5.6308c1.6598 0 2.4627.9392 2.1658 2.7309h-5.1886c.4116-1.5386 1.4574-2.7309 3.0228-2.7309zm74.9453 6.0187c0 2.7156 1.09 6.2261 5.534 6.2261 1.991 0 3.983-1.0399 4.831-2.1792v.053c0 .5895.047 1.285.301 1.7751h5.781c-.301-.7882-.301-2.1261.047-3.7025.3-1.3313 2.399-11.31952 2.399-11.31952h-5.781l-.454 1.93405c-.695-1.39093-2.186-2.32484-4.485-2.32484-5.339 0-8.173 5.13981-8.173 9.53781zm6.126-.3739c0-2.3662 1.363-5.1674 3.427-5.1674 1.707 0 2.315 1.1336 2.315 2.6562 0 3.1505-1.559 5.1147-3.475 5.1147-1.356 0-2.267-.7382-2.267-2.6035zm-23.8932-.3149c.0468 3.2057 1.5457 6.9149 8.2303 6.9149 3.9479 0 7.6949-2.1792 8.6389-6.4314h-5.7415c-.4483 1.2916-1.4453 2.4772-2.9442 2.4772-1.6394 0-2.1412-1.0399-1.994-3.1661.0468-1.1326.7026-4.7424 3.3925-4.7424 1.9003 0 2.0475 1.7817 2.0007 2.4706h5.7345c.053-4.29866-3.0446-6.37181-7.588-6.37181-5.9352 0-9.7292 4.39801-9.7292 8.84901zm-41.7662-6.11866.6047-2.11989h-5.6168l-3.1511 14.93135h5.8117l1.7065-7.9067c.3494-1.5735.9541-2.8441 2.8084-2.8441.9473 0 1.6528.4937 1.6528 1.422 0 .5925-.3023 1.6196-.4569 2.5083l-1.4982 6.8205h5.7108l1.8544-8.4466c.2486-1.0797.4031-2.1594.4031-2.8507 0-3.09421-2.5128-4.02248-4.5082-4.02248-2.5128 0-4.1118 1.17845-5.3212 2.50832zm28.6088.42626v-.0529l.6003-2.56703h-5.6321l-3.177 15.00513h5.8413l1.3625-6.2653c.6003-2.7655 1.8077-3.8506 3.6693-3.8506.9039 0 1.457.053 2.4148.397l1.1062-5.13406c-.4519-.19848-.9578-.24479-1.6526-.24479-1.8684 0-3.6288 1.28351-4.5327 2.71255zm7.5421-2.49053-3.1561 14.87573h5.8267l3.1696-14.87573z" fill="#7d8083"/></g></svg>