<svg fill="none" height="48" viewBox="0 0 97 48" width="97" xmlns="http://www.w3.org/2000/svg"><path clip-rule="evenodd" d="m52.515 4v5.42063l-6.763 1.44197v-5.44736zm14.0647 8.4375c-2.6406 0-4.3381 1.2283-5.2811 2.0828l-.3503-1.6556h-5.9278v31.1353l6.7361-1.4153.027-7.5568c.97.6943 2.398 1.6823 4.7691 1.6823 4.8231 0 9.215-3.8452 9.215-12.3099-.0269-7.7438-4.4727-11.9628-9.188-11.9628zm-1.6167 18.3981c-1.5897 0-2.5328-.5608-3.1794-1.255l-.027-9.9067c.7006-.7744 1.6706-1.3084 3.2064-1.3084 2.452 0 4.1495 2.7236 4.1495 6.2217 0 3.5781-1.6706 6.2484-4.1495 6.2484zm32.0362-6.1683c0-6.8359-3.3411-12.2298-9.7269-12.2298-6.4128 0-10.2928 5.3939-10.2928 12.1764 0 8.0375 4.5806 12.0962 11.155 12.0962 3.2064 0 5.6314-.7209 7.4636-1.7356v-5.3405c-1.8322.9079-3.9339 1.4686-6.6014 1.4686-2.6136 0-4.9308-.9079-5.2272-4.0588h13.1758c0-.1463.0096-.4776.0207-.86l.0002-.006v-.0004-.0003-.0007-.0006l.0001-.0004c.0151-.523.0329-1.1393.0329-1.5081zm-13.3105-2.5368c0-3.0174 1.8591-4.2724 3.5566-4.2724 1.6436 0 3.395 1.255 3.395 4.2724zm-31.1737-9.2384h-6.763v23.3648h6.763zm-14.4421.0001.4312 1.976c1.5897-2.8839 4.7422-2.2964 5.6044-1.976v6.1416c-.8353-.2937-3.5297-.6675-5.1194 1.3886v15.8346h-6.7362v-23.3648zm-13.0408-5.79493-6.5744 1.38853-.027 21.3888c0 3.952 2.9909 6.8625 6.9787 6.8625 2.2094 0 3.8261-.4005 4.7153-.8811v-5.4207c-.8623.3472-5.1195 1.5755-5.1195-2.3765v-9.4794h5.1195v-5.6877h-5.1195zm-15.92487 11.13473c-1.42805 0-2.29028.4005-2.29028 1.4419 0 1.137 1.4839 1.6372 3.32485 2.2577 3.0012 1.0116 6.9512 2.3431 6.9679 7.2751 0 4.7798-3.853 7.5302-9.45747 7.5302-2.31722 0-4.85-.454-7.355841-1.5221v-6.3552c2.263331 1.2283 5.119451 2.1362 7.355841 2.1362 1.50889 0 2.58667-.4005 2.58667-1.6289 0-1.2594-1.60857-1.8351-3.55056-2.5301-2.95753-1.0585-6.68834-2.3937-6.68834-6.8425 0-4.7263 3.63751-7.5568 9.10723-7.5568 2.23637 0 4.44587.3471 6.68227 1.2283v6.2751c-2.0478-1.0948-4.6345-1.7089-6.68227-1.7089z" fill="#8b949e" fill-rule="evenodd"/></svg>