<svg fill="none" height="15" viewBox="0 0 101 15" width="101" xmlns="http://www.w3.org/2000/svg" xmlns:xlink="http://www.w3.org/1999/xlink"><clipPath id="a"><path d="m0 0h101v15h-101z"/></clipPath><g clip-path="url(#a)" fill="#7d8083"><path d="m43.358 13.7727-4.4007-11.65904c-.0722-.13637-.1443-.34091-.1443-.54546 0-.47727.4328-1.022723 1.1543-1.022723.505 0 .9378.340909 1.1543.886363l3.6071 10.02276 3.6793-10.09094c.1443-.477274.505-.886365 1.0821-.886365h.1443c.5772 0 1.01.340909 1.1543.886365l3.6071 10.09094 3.6793-10.09094c.1443-.409092.4329-.818183 1.0822-.818183s1.0821.409091 1.0821.954543c0 .20455-.0721.40909-.1443.54546l-4.4728 11.65912c-.2165.6136-.6493.9545-1.2265.9545h-.0721c-.505 0-1.01-.2727-1.2264-.9545l-3.6072-9.8864-3.6071 9.8864c-.2164.6136-.5772.9545-1.2264.9545h-.0722c-.5771.0682-1.01-.3409-1.2264-.8864z"/><path d="m75.5336 1.63632c0-.54546.4328-1.09091 1.0821-1.09091.5772 0 1.1543.409091 1.1543 1.09091v2.38636c1.0821-2.31818 3.4629-3.340906 4.9779-3.340906.6492 0 1.0821.409086 1.0821 1.090906 0 .54546-.3607.95455-1.01 1.09091-2.8136.27273-5.1221 2.31818-5.1221 6.27273v4.63638c0 .5454-.4329 1.0909-1.0822 1.0909-.5771 0-1.1543-.4091-1.1543-1.0909v-12.13638"/><path d="m90.8278 14.7954c-3.8957 0-7.07-2.8636-7.07-7.0909v-.06818c0-3.95455 2.8857-7.09091 6.8536-7.09091 4.2564 0 6.6371 3.27273 6.6371 6.95455 0 .54545-.4328.95454-1.01.95454h-10.3885c.2885 2.9318 2.525 4.6364 5.05 4.6364 1.7314 0 3.1021-.6137 4.1121-1.5682.1443-.1364.3607-.2046.5771-.2046.505 0 .9379.4091.9379.8864 0 .2045-.0721.4773-.2886.6136-1.3707 1.1591-2.9578 1.9773-5.4107 1.9773zm4.2564-7.90908c-.2164-2.52273-1.7314-4.63636-4.545-4.63636-2.525 0-4.4007 1.97727-4.6171 4.63636z"/><path d="m60.1675 10.5681c0-2.93178 2.525-4.49996 6.2043-4.49996 1.8757 0 3.1742.20454 4.4728.54545v-.47727c0-2.52273-1.5871-3.68182-4.3286-3.68182-1.4428 0-2.3085.13636-3.3907.61364-.1442.06818-.2885.06818-.3607.06818-.505 0-1.01-.40909-1.01-.88636 0-.47728.2165-.68182.5772-.88637 1.4428-.545453 2.525-.81818 4.4007-.81818 2.02 0 3.6071.47727 4.6893 1.5 1.01.95455 1.515 2.31818 1.515 4.02273v7.56816c0 .5455-.4329 1.0227-1.0822 1.0227-.5771 0-1.0821-.409-1.0821-.9545v-1.3636c-1.01 1.2954-2.7414 2.3863-5.2664 2.3863-2.5972.0682-5.3386-1.3636-5.3386-4.1591zm10.6771-1.09087v-1.36364c-1.0821-.27273-2.525-.54545-4.3286-.54545-2.7414 0-4.2564 1.15909-4.2564 2.86366v.0682c0 1.7045 1.6593 2.7272 3.6072 2.7272 2.8135 0 4.9778-1.5682 4.9778-3.74997z"/><path d="m3.96799 1.43181c-.43286-1.022726-1.65928-1.43181653-2.74143-1.022726-1.08214.409091-1.514998 1.636366-.937855 2.590906l4.617145 9.47731c.72143 1.5 1.515 2.3181 2.95785 2.3181 1.515 0 2.1643-.8863 2.9579-2.3181 0 0 4.04-8.31822 4.1121-8.3864s.1443-.34091.5771-.34091c.3608 0 .5772.27273.5772.61364v8.04547c0 1.2273.7214 2.3182 2.0921 2.3182 1.4429 0 2.1643-1.0228 2.1643-2.3182v-6.54547c0-1.29545 1.01-2.11364 2.2364-2.11364 1.2986 0 2.1643.88637 2.1643 2.11364v6.61367c0 1.2272.7215 2.3181 2.0922 2.3181 1.4428 0 2.1643-1.0227 2.1643-2.3181v-6.61367c0-1.29545 1.01-2.11364 2.2364-2.11364 1.2986 0 2.1643.88637 2.1643 2.11364v6.61367c0 1.2272.7214 2.3181 2.0921 2.3181 1.4429 0 2.1643-1.0227 2.1643-2.3181v-7.50003c0-2.79546-2.3086-4.704549-5.1943-4.704549s-4.6171 1.840909-4.6171 1.840909c-1.01-1.159091-2.2364-1.840909-4.4729-1.840909-2.3085 0-4.4007 1.840909-4.4007 1.840909-.9379-1.159091-2.5971-1.840909-3.8236-1.840909-2.02 0-3.6793.886359-4.6893 2.999999l-2.95781 6.54546z"/><path d="m97.3208 2.24996c0-.95455.8657-1.70455 1.8036-1.70455 1.0096 0 1.8036.81818 1.8036 1.70455 0 .95454-.866 1.70454-1.8036 1.70454-1.01 0-1.8036-.75-1.8036-1.70454zm3.2462 0c0-.81819-.5769-1.363641-1.4426-1.363641s-1.4429.613641-1.4429 1.363641c0 .81818.5772 1.36363 1.4429 1.36363s1.4426-.61363 1.4426-1.36363z"/><path d="m99.8458 2.31819c-.0721.06818-.2164.13637-.3607.20455l.4329.61363h-.3608l-.4328-.61363h-.2886v.61363h-.3607v-1.77272h.7936c.1443 0 .2164 0 .3607.06818.0721.06818.2164.13636.2164.20454.0722.06819.0722.20455.0722.27273.0721.20455 0 .34091-.0722.40909zm-1.01-.06818h.4329c.1443 0 .2164 0 .2885-.06818.0722-.06818.0722-.13636.0722-.20455 0-.06818-.0722-.13636-.0722-.20454-.0721-.06818-.1442-.06818-.2885-.06818h-.4329z"/></g></svg>