<svg height="57.24" width="300" xmlns="http://www.w3.org/2000/svg" xmlns:xlink="http://www.w3.org/1999/xlink"><linearGradient id="a"><stop offset="0" stop-color="#b2b4b6"/><stop offset="1" stop-color="#29292a"/></linearGradient><radialGradient id="b" cx="190.1" cy="-271.11" gradientTransform="matrix(34.4579 0 0 -34.4579 -6314.23 -9321.385)" gradientUnits="userSpaceOnUse" r="1.714" xlink:href="#a"/><radialGradient id="c" cx="190.1" cy="-271.11" gradientTransform="matrix(34.4583 0 0 -34.4583 -6314.298 -9321.486)" gradientUnits="userSpaceOnUse" r="1.714" xlink:href="#a"/><linearGradient id="d"><stop offset="0" stop-color="#d1d3d4"/><stop offset="1" stop-color="#29292a"/></linearGradient><linearGradient id="e" gradientTransform="matrix(.6906 0 0 -.6906 69.678 190.843)" gradientUnits="userSpaceOnUse" x1="262.505" x2="264.217" xlink:href="#d" y1="201.871" y2="201.871"/><linearGradient id="f" gradientTransform="matrix(2.0659 0 0 -2.0659 -186.323 -189.39)" gradientUnits="userSpaceOnUse" x1="214.704" x2="216.419" xlink:href="#d" y1="-121.543" y2="-121.543"/><radialGradient id="g" cx="190.083" cy="-271.11" gradientTransform="matrix(34.4579 0 0 -34.4579 -6313.656 -9321.375)" gradientUnits="userSpaceOnUse" r="1.714" xlink:href="#a"/><linearGradient id="h" gradientTransform="matrix(.2009 0 0 -.2009 159.905 321.651)" gradientUnits="userSpaceOnUse" x1="434.278" x2="435.992" xlink:href="#d" y1="1402.051" y2="1402.051"/><linearGradient id="i" gradientTransform="matrix(.0921 0 0 -.0921 180.605 352.286)" gradientUnits="userSpaceOnUse" x1="725.561" x2="727.275" xlink:href="#d" y1="3388.873" y2="3388.873"/><linearGradient id="j" gradientTransform="matrix(.6906 0 0 -.6906 69.69 190.844)" gradientUnits="userSpaceOnUse" x1="262.505" x2="264.218" xlink:href="#d" y1="201.872" y2="201.872"/><linearGradient id="k" gradientTransform="matrix(3.2841 0 0 -3.2841 -421.683 -536.154)" gradientUnits="userSpaceOnUse" x1="203.906" x2="205.62" xlink:href="#d" y1="-179.677" y2="-179.677"/><linearGradient id="l" gradientTransform="matrix(2.0659 0 0 -2.0659 -186.289 -189.39)" gradientUnits="userSpaceOnUse" x1="214.693" x2="216.408" xlink:href="#d" y1="-121.543" y2="-121.543"/><path d="m236.61 44.21c0-4.04.6-7.82 2.66-10.92v2.67c0 3.35 2.67 5.76 5.42 7.22-2.75-.86-5.76-.26-8.08 1.03z" fill="#c5b278" transform="matrix(1.25 0 0 -1.25 -293.001 78.696)"/><path d="m239.26 48.71c-.97-.78-1.93-1.56-3.15-1.2.76-.57 1.8-.76 2.94-.66 1.04-.67 2.27 1.14 3.6 1.14 1.9.28 4.36.57 5.69-1.14l-.67 1.32c-1.8.09-3.32.76-4.83 1.61-.35.16-.68.22-.99.22-.98.01-1.79-.64-2.59-1.29m.63-.92-.84-.76h-.86c-.18.48 1.33 1.43 1.7.76" fill="#baa566" transform="matrix(1.25 0 0 -1.25 -293.001 78.696)"/><path d="m234.4 54.06c.92-.23 1.85-.45 2.81-.56 1.89.86 2.4 2.41 1.63 4.48-1.07 1.65-2.72 2.6-4.44 3.04z" fill="#b09b58" transform="matrix(1.25 0 0 -1.25 -293.001 78.696)"/><path d="m243.73 37.93c-3.11-6.37 1.26-15.16-3.18-20.66h6.96c.31.29.61.61.89.98 5.16 6.71-4.9 10.66-4.73 17.11.26 2.58 1.65 4.52 3.44 6.62l-.17.17c-1.62-1.51-2.27-2.58-3.21-4.22" fill="#cebb83" transform="matrix(1.25 0 0 -1.25 -293.001 78.696)"/><path d="m257.24 62.96c6.85-5.27 11.26-13.53 11.28-22.84-.02-9.31-4.44-17.57-11.28-22.84h22.85v45.68z" fill="#a8914b" transform="matrix(1.25 0 0 -1.25 -293.001 78.696)"/><path d="m234.4 17.28h3.92l.96.81c5.34 7.22-1.03 12.29-4.88 17.98z" fill="#d3bf8a" transform="matrix(1.25 0 0 -1.25 -293.001 78.696)"/><path d="m234.4 62.96v-.74c1.09-.17 2.14-.47 3.07-.9 2.15-1.29 3.87-3.44 3.7-6.02l4.9.43c.64 1.61.9 4.09.32 5.35-.38.81-.71 1.4-1.15 1.88z" fill="#af9856" transform="matrix(1.25 0 0 -1.25 -293.001 78.696)"/><path d="m247.41 40.17c.04.03.08.06.13.08a.174.174 0 0 1 -.13-.08" fill="url(#b)" transform="matrix(1.25 0 0 -1.25 -293.001 78.696)"/><path d="m247.4 62.96c1-1.37 1.03-3.19 1.17-4.74 1.89 1.46 4.3 2.32 6.79 1.64-1.71 1.3-2.83 2.32-4.88 3.1z" fill="url(#c)" transform="matrix(1.25 0 0 -1.25 -293.001 78.696)"/><path d="m251.66 38.88c-1.46-.43-2.84.51-4.3.77 0 .2-.05.4.05.52-2.08-1.31-1.52-3.83-1.94-5.85.52-2.24 2.92-3.1 4.56-4.38 2.41-.43 4.64.69 6.79 1.46.34-.34.86-.69.6-1.2-1.63-2.32-4.13-3.35-6.97-3.09 1.7-3.25.55-6.99-1.26-9.83h1.71c5.09 2.35 9.95 5.87 10.3 12.67.52 4.3.17 8.77-2.92 11.78-.2.02-.42.01-.64 0-.53-.03-1.06-.06-1.43.43-1.37-1.3-3.18-1.82-4.55-3.28m.86 0c.89.96 3.42 2.85 4.28 2.13.22-.18.33-.8.27-1.38l-.43-1.03-.48 1.32c-1.2-.26-2.33-.7-2.93-1.9-.09-.34.07-1.05-.28-1.31-.78.18-.35 1.48-.43 2.17m4.12-4.81c.94-3.35-3.01-2.75-4.73-3.69-.69.52-.34 1.37-.43 2.06l.43.43c.43-1.28 1.23-.8 2.1-.32.53.29 1.08.58 1.6.49.6.25.35 1.2 1.03 1.03" fill="#c1ab6f" transform="matrix(1.25 0 0 -1.25 -293.001 78.696)"/><path d="m253.21 58.67c-2.25-.13-4.41-1.78-5.25-3.11 1.55-.86 3.27-2.15 4.73-3.52-.09-.52.26-1.2-.43-1.46-.77.6-1.46 2.15-2.41 1.64.78-1.64 2.84-1.81 4.47-2.24.6-.6.43-1.63 1.72-1.2.6-.17.86-.86 1.03-1.46-.69-1.26-2.18-1.15-3.55-1.03-.69.06-1.35.11-1.86 0 1.29-.52 2.75-.69 3.95-1.46s1.54 1.03 2.06 1.63c2.06-.51.94-2.66 1.8-3.87 4.38-4.56 3.52-12.55 1.29-17.79 6.02 5.5 5.54 17.75 4.13 22.69-1.38 4.82-5.58 11.21-11.26 11.21-.13-.02-.28-.02-.42-.03" fill="#ad9654" transform="matrix(1.25 0 0 -1.25 -293.001 78.696)"/><path d="m28.54 0c4.42 3.4 8.03 7.81 10.49 12.87 5.67 2.64 11.68 6.13 18.07 10.59v-23.46z" fill="#ae9754"/><path d="m16.24 0c1.25 1.72 1.29 3.98 1.46 5.92 2.36-1.83 5.37-2.9 8.49-2.04-2.14-1.62-3.54-2.9-6.1-3.87h-3.85z" fill="#a38b41"/><path d="m0 0v.93c1.37.21 2.68.58 3.84 1.12 1.79 1.07 3.33 2.62 4.11 4.49 2.35-.25 4.78-.31 7.32-.17.22-1.51.17-3.06-.28-4.02-.47-1.02-.9-1.75-1.45-2.35h-13.54z" fill="#a38b41"/><path d="m0 8.16c1.85-.57 3.77-1.02 5.75-1.33-.06-.2-.12-.39-.2-.6-1.34-2.07-3.4-3.25-5.55-3.81z" fill="#a38b41"/><path d="m23.51 5.36c-1.44.08-2.85.66-4.02 1.43 4.38.62 9.03 1.82 13.96 3.71-2.47-2.96-5.68-5.16-9.4-5.16-.18 0-.36.01-.54.02" fill="#a38b44"/><path d="m27.56-11h-3.15v11.34l-4.68-8.4h-1.83l-4.65 8.43v-11.37h-3.15v17.17h3.17l5.57-9.95 5.57 9.95h3.15z" fill="#a18837" transform="matrix(1.25 0 0 -1.25 53.044 24.059)"/><path d="m35.39-10.81c-1.98-.5-3.85-.75-5.62-.75-2.91 0-5.26.86-7.07 2.58-1.74 1.67-2.6 3.76-2.6 6.27 0 2.61.9 4.74 2.71 6.39 1.8 1.65 4.11 2.48 6.91 2.48 1.67 0 3.28-.19 4.85-.57l-.44-2.73c-1.65.26-3 .39-4.05.39-2.15 0-3.8-.52-4.95-1.55-1.15-1.03-1.73-2.5-1.73-4.41 0-1.75.55-3.18 1.65-4.28s2.59-1.65 4.46-1.65c.91 0 1.85.07 2.81.21v5.75h3.07z" fill="#a18837" transform="matrix(1.25 0 0 -1.25 66.75525 23.71975)"/><path d="m44.38-11h-3.15v11.34l-4.68-8.4h-1.84l-4.65 8.43v-11.37h-3.15v17.17h3.17l5.57-9.95 5.57 9.95h3.15v-17.17z" fill="#a18837" transform="matrix(1.25 0 0 -1.25 82.496 24.059)"/><path d="m55.72-11h-4.05l-4.72 6.5h-4.2v-6.5h-3.3v17.17h8.95c1.61 0 2.96-.53 4.02-1.6 1.01-1.03 1.52-2.28 1.52-3.76 0-1.08-.3-2.06-.9-2.94s-1.42-1.51-2.45-1.91zm-5.16 11.81c0 .79-.27 1.43-.8 1.93s-1.18.75-1.96.75h-5.05v-5.41h5.05c.79 0 1.45.25 1.97.76.53.5.79 1.16.79 1.97" fill="#a18837" transform="matrix(1.25 0 0 -1.25 102.3515 24.0585)"/><path d="m61.99-11h-12.32v17.17h12.32v-2.84h-9.02v-4.05h8.48v-2.83h-8.48v-4.62h9.02z" fill="#a18837" transform="matrix(1.25 0 0 -1.25 113.329 24.059)"/><path d="m69.08-9.05c0-1.51-.65-2.72-1.96-3.62s-3.01-1.35-5.1-1.35c-2.63 0-5 .47-7.11 1.42l.72 2.55c2.28-.79 4.4-1.19 6.34-1.19 2.56 0 3.84.7 3.84 2.09 0 .57-.3 1.03-.9 1.39-.46.29-1.62.78-3.48 1.47-2.22.82-3.71 1.57-4.49 2.24-.91.79-1.36 1.86-1.36 3.22 0 3.01 2.28 4.51 6.86 4.51 2.22 0 4.28-.27 6.19-.82l-.49-2.65c-1.93.43-3.81.64-5.65.64-1.34 0-2.28-.12-2.82-.35s-.81-.65-.81-1.25.33-1.11 1.01-1.52c.48-.28 1.74-.82 3.79-1.62 2.17-.84 3.57-1.53 4.2-2.06.81-.71 1.22-1.74 1.22-3.1" fill="#a18837" transform="matrix(1.25 0 0 -1.25 125.74 20.637)"/><path d="m77.15-7.43c0-2.46-.82-4.55-2.48-6.27-1.65-1.72-3.69-2.58-6.11-2.58-2.43 0-4.46.86-6.11 2.58s-2.47 3.81-2.47 6.27.82 4.55 2.47 6.28 3.69 2.59 6.11 2.59 4.46-.86 6.11-2.59c1.66-1.73 2.48-3.83 2.48-6.28m-3.27 0c0 1.74-.48 3.16-1.44 4.28s-2.25 1.68-3.87 1.68-2.9-.56-3.85-1.68-1.43-2.54-1.43-4.28.47-3.15 1.42-4.23c.96-1.13 2.25-1.7 3.87-1.7 1.61 0 2.91.57 3.89 1.7.93 1.08 1.41 2.49 1.41 4.23" fill="#a18837" transform="matrix(1.25 0 0 -1.25 139.87 17.817)"/><path d="m85.37-11h-4.05l-4.72 6.5h-4.2v-6.5h-3.3v17.17h8.95c1.62 0 2.96-.53 4.02-1.6 1.01-1.03 1.52-2.28 1.52-3.76 0-1.08-.3-2.06-.9-2.94s-1.42-1.51-2.45-1.91zm-5.15 11.81c0 .79-.27 1.43-.8 1.93s-1.19.75-1.96.75h-5.05v-5.41h5.05c.79 0 1.45.25 1.97.76.53.5.79 1.16.79 1.97" fill="#a18837" transform="matrix(1.25 0 0 -1.25 154.264 24.059)"/><path d="m280.1 19.92h-7.12v17.89h-4.09v-17.89h-7.15v-3.58h18.37v3.58z" fill="#a18837"/><path d="m98.38-9.05c0-1.51-.65-2.72-1.96-3.62-1.3-.9-3.01-1.35-5.1-1.35-2.63 0-5 .47-7.11 1.42l.72 2.55c2.29-.79 4.4-1.19 6.34-1.19 2.56 0 3.84.7 3.84 2.09 0 .57-.3 1.03-.9 1.39-.47.29-1.63.78-3.48 1.47-2.22.82-3.71 1.57-4.49 2.24-.91.79-1.37 1.86-1.37 3.22 0 3.01 2.28 4.51 6.86 4.51 2.22 0 4.28-.27 6.19-.82l-.49-2.65c-1.92.43-3.81.64-5.64.64-1.34 0-2.28-.12-2.82-.35s-.81-.65-.81-1.25.34-1.11 1.01-1.52c.48-.28 1.74-.82 3.79-1.62 2.16-.84 3.57-1.53 4.2-2.06.8-.71 1.22-1.74 1.22-3.1" fill="#a18837" transform="matrix(1.25 0 0 -1.25 177.029 20.636)"/><path d="m67.94 57.04h-2.26v-11.77h2.26z" fill="#b29b57"/><path d="m81.52 57.04h-2.21l-5.89-8.2v8.2h-2.21v-11.77h2.21l5.87 8.2v-8.2h2.23z" fill="#b29b57"/><path d="m29.54-14.14h-3.12v-7.85h-1.8v7.85h-3.14v1.57h8.06z" fill="#b29b57" transform="matrix(1.25 0 0 -1.25 56.512 29.556)"/><path d="m32.96-17.41h-6.76v9.42h6.76v-1.55h-4.95v-2.22h4.65v-1.55h-4.65v-2.53h4.95z" fill="#b29b57" transform="matrix(1.25 0 0 -1.25 62.512 35.28)"/><path d="m37.63-17.41h-2.22l-2.59 3.56h-2.31v-3.56h-1.81v9.42h4.91c.89 0 1.62-.29 2.21-.88.55-.57.83-1.25.83-2.07 0-.59-.16-1.13-.49-1.61s-.78-.83-1.34-1.05zm-2.83 6.48c0 .43-.15.79-.44 1.06s-.65.41-1.07.41h-2.77v-2.97h2.77c.43 0 .8.14 1.08.42.29.27.43.63.43 1.08" fill="#b29b57" transform="matrix(1.25 0 0 -1.25 70.6815 35.27975)"/><path d="m41.71-17.41h-1.77l-4.71 6.56v-6.56h-1.77v9.42h1.77l4.69-6.56v6.56h1.78v-9.42z" fill="#b29b57" transform="matrix(1.25 0 0 -1.25 77.82 35.28)"/><path d="m46.04-17.41h-1.78l-.81 2.11h-3.75l-.81-2.11h-1.78l3.66 9.42h1.61zm-3.04 3.49-1.43 4.07-1.43-4.07z" fill="#b29b57" transform="matrix(1.25 0 0 -1.25 85.408 35.28)"/><path d="m49.16-14.14h-3.12v-7.85h-1.79v7.85h-3.15v1.57h8.06z" fill="#b29b57" transform="matrix(1.25 0 0 -1.25 90.865 29.556)"/><path d="m156.46 57.04h-2.26v-11.77h2.26z" fill="#b29b57"/><path d="m55.3-15.45c0-1.35-.45-2.49-1.36-3.44-.9-.94-2.02-1.41-3.35-1.41s-2.45.47-3.35 1.41-1.36 2.09-1.36 3.44.45 2.5 1.36 3.44c.9.95 2.02 1.42 3.35 1.42s2.45-.47 3.35-1.42c.91-.95 1.36-2.1 1.36-3.44m-1.79 0c0 .95-.26 1.73-.79 2.35-.53.61-1.24.92-2.12.92s-1.59-.31-2.11-.92-.79-1.4-.79-2.35.26-1.72.78-2.32c.53-.62 1.23-.93 2.12-.93s1.6.31 2.14.93c.51.59.77 1.36.77 2.32" fill="#b29b57" transform="matrix(1.25 0 0 -1.25 101.619 31.856)"/><path d="m59.55-17.41h-1.77l-4.71 6.56v-6.56h-1.77v9.42h1.77l4.69-6.56v6.56h1.78v-9.42z" fill="#b29b57" transform="matrix(1.25 0 0 -1.25 109.055 35.28)"/><path d="m63.88-17.41h-1.78l-.8 2.11h-3.76l-.81-2.11h-1.78l3.66 9.42h1.61zm-3.04 3.49-1.43 4.07-1.43-4.07z" fill="#b29b57" transform="matrix(1.25 0 0 -1.25 116.643 35.28)"/><path d="m67.18-17.41h-6.45v9.42h1.81v-7.86h4.64z" fill="#b29b57" transform="matrix(1.25 0 0 -1.25 122.42 35.28)"/><path d="m38.7 44.92a36.162 36.162 0 0 1 -10.15 12.18h28.55v-39.63c-4.25 10.17-10.02 20.9-18.4 27.45" fill="#c1ab71"/><path d="m0 57.1h4.9l1.2-1.01c1.92-2.59 2.62-4.96 2.55-7.19-2.74-.96-5.62-2.25-8.65-3.9z" fill="#ac9552"/><path d="m20.92 51.17c-.38 2.11-1.3 4.16-2.44 5.93h2.14c3.91-1.8 7.71-4.16 10.16-7.68-3.01 1.13-6.29 1.76-9.86 1.75" fill="#b6a160"/><path d="m7.67 57.1h8.7c.39-.37.76-.76 1.11-1.22 1.31-1.71 1.83-3.28 1.84-4.75-2.83-.15-5.84-.7-9.04-1.69-.18 2.82-.82 5.46-2.61 7.66" fill="#b59e5b"/><path d="m250.97 51.96c.32-.34.63-.77.95-1.06-.32.34-.63.76-.95 1.06z" fill="url(#e)" transform="matrix(1.25 0 0 -1.25 -293.001 78.696)"/><path d="m257.24 62.96c1-.77 1.94-1.6 2.83-2.49-.87.89-1.8 1.72-2.78 2.49z" fill="url(#f)" transform="matrix(1.25 0 0 -1.25 -293.001 78.696)"/><path d="m68.18-13.7h-1v-2.51h-.59v2.51h-1v.51h2.59zm3.38-2.51h-.55v2l-.82-1.48h-.32l-.85 1.48v-2h-.55v3.02h.53l1-1.78 1 1.78h.55v-3.02z" fill="#b29b57" transform="matrix(1.25 0 0 -1.25 124.157 28.784)"/><g transform="matrix(1.25 0 0 -1.25 -292.98 78.697)"><path d="m247.42 40.17c.04.03.08.06.13.08a.196.196 0 0 1 -.13-.08" fill="url(#g)"/><path d="m247.14 39.98v-.1c.07-.01.15-.03.22-.04-.01.14-.01.26.05.34-.09-.07-.18-.14-.27-.2" fill="url(#h)"/><path d="m255.4 33.26c-.52.1-1.07-.2-1.6-.49-.62-.34-1.2-.69-1.64-.4.45-.64 1.13-.23 1.86.17.53.29 1.08.58 1.6.49.54.23.39 1.02.86 1.05-.02.07-.03.14-.05.21-.06.01-.11.02-.15.02-.5 0-.33-.82-.88-1.05" fill="#b8a776"/><path d="m247.42 40.17c.04.03.08.06.13.08a.196.196 0 0 1 -.13-.08" fill="url(#i)"/><path d="m251.27 32.66c.09-.69-.26-1.55.43-2.06-.38.52-.13 1.24-.21 1.83l.34.34c-.05.09-.09.2-.13.32z" fill="#d4c48d"/><path d="m252.31 39.11c.08-.63-.28-1.83.27-2.1-.2.4.02 1.37-.04 1.88.86.93 3.27 2.73 4.19 2.19-.14.23-.36.33-.64.33-1.1-.01-3.03-1.49-3.78-2.3" fill="#d4c88e"/><path d="m256.03 39.89.35-1.12.09.21-.29.94c-.05 0-.1-.01-.15-.03" fill="#dbd2b3"/><path d="m250.98 51.96c.32-.34.63-.77.95-1.06-.32.34-.62.76-.95 1.06z" fill="url(#j)"/><path d="m254.93 48.99c.2-.29.47-.44 1.13-.22.13-.04.24-.1.34-.18-.15.19-.33.34-.56.4-.45-.14-.72-.12-.91 0" fill="#d1bc8d"/><path d="m247.97 55.56c1.47-.81 3.09-2.02 4.5-3.32v.02c-1.38 1.3-2.98 2.51-4.46 3.37a.161.161 0 0 0 -.04-.07" fill="url(#k)"/><path d="m260.17 55.65c2.19-2.27 3.77-5.34 4.51-7.95 1.37-4.79 1.86-16.46-3.6-22.18-.1-.25-.19-.5-.29-.73 6.02 5.5 5.54 17.75 4.13 22.69-.78 2.7-2.44 5.89-4.75 8.17z" fill="#ac9a60"/><path d="m246.5 32.52c.99-1.03 2.44-1.71 3.54-2.58 2.41-.43 4.64.69 6.79 1.46.06-.06.13-.13.2-.19-.13.15-.29.28-.43.42-2.15-.77-4.38-1.89-6.79-1.46-1.02.8-2.34 1.44-3.31 2.35z" fill="#b9a56a"/><path d="m250.28 51.59c.94-1.06 2.62-1.25 4.01-1.61-.05.08-.11.15-.17.21-.56.15-1.16.26-1.75.42-.03-.02-.06-.03-.09-.04-.04.03-.07.06-.11.09-.72.21-1.38.47-1.89.93z" fill="#cdbd8f"/><path d="m243.64 42.92c-2.43-1.49-4.57-3.73-4.57-6.74v-2.53c.07-.12.15-.24.22-.36v2.67c0 3.35 2.67 5.76 5.42 7.22-.36-.11-.71-.19-1.07-.26" fill="#dbc68f"/><path d="m247.55 48.18.51-1.02c.1-.1.19-.2.28-.31l-.67 1.32c-.04 0-.08.01-.12.01z" fill="#a29867"/><path d="m246.41 41.62c-1.55-1.89-2.72-3.7-2.96-6.04-.17-6.45 9.89-10.4 4.73-17.11a9.35 9.35 0 0 0 -.89-.98h-6.57c-.06-.08-.11-.15-.17-.22h6.96c.31.29.61.61.89.98 5.16 6.71-4.9 10.66-4.73 17.11.26 2.58 1.65 4.52 3.44 6.62l-.17.17c-.19-.18-.37-.36-.53-.53" fill="#ae9d5a"/><path d="m245.21 62.96c.35-.44.64-.96.96-1.65.58-1.27.32-3.74-.32-5.35l-4.67-.41v-.24l4.9.43c.64 1.61.9 4.09.32 5.35-.38.81-.71 1.4-1.15 1.88h-.04z" fill="#b7a869"/></g><path d="m.04 33.74c4.83 6.95 12.37 13.21 5.82 22.07l-1.2 1.01h-4.62v.28h4.9l1.2-1.01c6.68-9.03-1.29-15.36-6.1-22.48v.13z" fill="#a4883e"/><path d="m258.28 41.72c2.89-3 3.21-7.36 2.71-11.55-.35-6.8-5.21-10.32-10.31-12.67h-1.34c-.05-.08-.09-.15-.14-.22h1.71c5.09 2.35 9.95 5.87 10.3 12.67.52 4.3.17 8.77-2.92 11.78h-.01z" fill="#b0a178" transform="matrix(1.25 0 0 -1.25 -292.98 78.697)"/><path d="m279.87 62.96v-45.46h-22.34c-.1-.08-.19-.15-.29-.22h22.85v45.68z" fill="#9b883c" transform="matrix(1.25 0 0 -1.25 -292.98 78.697)"/><path d="m238.63 58.2c.77-2.06.26-3.62-1.63-4.48-.88.1-1.74.3-2.58.51v-.17c.92-.23 1.85-.45 2.81-.56 1.89.86 2.4 2.41 1.63 4.48-.3.46-.64.85-1.01 1.2.28-.3.54-.62.78-.98" fill="#a29352" transform="matrix(1.25 0 0 -1.25 -292.98 78.697)"/><path d="m242.41 48.23c-1.28 0-2.47-1.66-3.48-1.19h-.71c-.01.01-.01.03-.01.04-.67.01-1.29.12-1.82.37-.09.02-.18.03-.28.06.76-.57 1.8-.76 2.94-.66 1.04-.67 2.27 1.14 3.6 1.14 1.72.26 3.91.51 5.29-.72-.83.92-2.02 1.18-3.25 1.18-.77-.01-1.57-.11-2.28-.22" fill="#c1b576" transform="matrix(1.25 0 0 -1.25 -292.98 78.697)"/><path d="m257.25 62.96c1-.77 1.94-1.6 2.83-2.49-.87.89-1.8 1.72-2.78 2.49z" fill="url(#l)" transform="matrix(1.25 0 0 -1.25 -292.98 78.697)"/><path d="m255.4 45.04c-1.05.67-2.3.89-3.46 1.28-.09-.01-.19-.02-.27-.04 1.29-.52 2.75-.69 3.95-1.46s1.54 1.03 2.06 1.63c.32-.08.56-.2.74-.35-.2.25-.5.46-.97.58-.5-.61-.85-2.42-2.05-1.64" fill="#ab9c6b" transform="matrix(1.25 0 0 -1.25 -292.98 78.697)"/><path d="m248.54 58.59.03-.37c1.89 1.46 4.3 2.32 6.79 1.64-.11.08-.22.17-.33.25-.56.15-1.12.21-1.67.21-1.76 0-3.42-.7-4.82-1.73" fill="#c5ae7c" transform="matrix(1.25 0 0 -1.25 -292.98 78.697)"/><path d="m237.97 47.28h.27c.18.38.92.83 1.37.72l.04.04c-.09.16-.25.23-.44.23-.57 0-1.39-.63-1.24-.99" fill="#d0c395" transform="matrix(1.25 0 0 -1.25 -292.98 78.697)"/><path d="m234.42 62.21c1.09-.17 2.14-.47 3.07-.9.6-.36 1.17-.79 1.67-1.28-.56.58-1.2 1.09-1.9 1.51-.86.4-1.83.68-2.84.86z" fill="#d9c9a0" transform="matrix(1.25 0 0 -1.25 -292.98 78.697)"/></svg>