<svg fill="none" height="434" viewBox="0 0 1251 434" width="1251" xmlns="http://www.w3.org/2000/svg" xmlns:xlink="http://www.w3.org/1999/xlink"><clipPath id="a"><path d="m0 0h1251v434h-1251z"/></clipPath><g clip-path="url(#a)" fill="#000"><path d="m168.67 376.49c59.13 0 104.85-45.73 104.85-113.4v-263.370029h64v426.760029h-63.39v-39.63c-28.65 29.87-68.27 46.94-112.78 46.94-91.45 0-161.559961-66.45-161.559961-167v-267.000022h63.999961v263.300022c0 68.89 45.11 113.4 104.86 113.4"/><path d="m385.09-.27002h61.57v155.46002c14.36-14.709 31.523-26.388 50.476-34.348 18.952-7.96 39.308-12.037 59.864-11.992 91.45 0 163.38 72.55 163.38 162.78 0 89.62-71.93 162.16-163.38 162.16-20.654.056-41.112-4.013-60.173-11.969s-36.341-19.638-50.827-34.361v39h-61zm167.65 379.81002c58.53 0 106.69-48.17 106.69-107.91 0-60.36-48.16-107.91-106.69-107.91-59.14 0-107.3 47.55-107.3 107.91 0 59.74 47.55 107.91 107.3 107.91z"/><path d="m904.51 109.46c89.61 0 155.46 68.89 155.46 161.56v20.12h-252.97c8.54 50.6 50.6 88.4 103 88.4 36 0 66.46-14.64 89.62-45.73l44.51 32.92c-31.1 41.46-77.43 66.45-134.13 66.45-93.27 0-165.21-69.5-165.21-162.16 0-87.79 68.89-161.56 159.73-161.56zm-96.32 132.91h189.6c-10.36-47.56-48.77-79.26-94.49-79.26s-84.13 31.7-95.11 79.26z"/><path d="m1225.18 170.43c-40.24 0-69.5 31.09-69.5 79.25v176.8h-61.58v-310.92h61v38.44c15.24-25 40.24-40.85 74.38-40.85h21.33v57.31z"/></g></svg>