<svg id="Layer_2" data-name="Layer 2" xmlns="http://www.w3.org/2000/svg" viewBox="0 0 67.73 67.67"><path d="M3.09,3.13a1.35,1.35,0,0,0-.35,1V53.85a1.39,1.39,0,0,1-2.77,0V4.14A4.16,4.16,0,0,1,1.11,1.2a4.12,4.12,0,0,1,3-1.2H56.59a4.11,4.11,0,0,1,3,1.2,4.16,4.16,0,0,1,1.14,2.94V38.66a1.38,1.38,0,1,1-2.76,0V4.14a1.35,1.35,0,0,0-.36-1,1.31,1.31,0,0,0-1-.37H4.12A1.34,1.34,0,0,0,3.09,3.13Z" transform="translate(0.03)" fill="#79b8ff"/><path d="M12.4,31.76a5.52,5.52,0,0,0-1.35,10.88.86.86,0,0,0,0,.16v2.76a.91.91,0,0,0,0,.17,5.52,5.52,0,1,0,2.74,0,1.09,1.09,0,0,0,0-.18V42.8a1,1,0,0,0,0-.17A5.52,5.52,0,0,0,12.4,31.76ZM9.64,37.28A2.76,2.76,0,1,1,12.4,40,2.77,2.77,0,0,1,9.64,37.28Zm2.76,11a2.76,2.76,0,1,0,2.76,2.76A2.76,2.76,0,0,0,12.4,48.33Z" transform="translate(0.03)" fill="#79b8ff" fill-rule="evenodd"/><path d="M24.83,33.14a1.38,1.38,0,0,0,0,2.76H38.64a1.38,1.38,0,0,0,0-2.76Z" transform="translate(0.03)" fill="#79b8ff"/><path d="M24.83,47a1.38,1.38,0,1,0,0,2.76H38.64a1.38,1.38,0,1,0,0-2.76Z" transform="translate(0.03)" fill="#79b8ff"/><path d="M24.83,52.47a1.38,1.38,0,0,0,0,2.76H38.64a1.38,1.38,0,1,0,0-2.76Z" transform="translate(0.03)" fill="#79b8ff"/><path d="M23.45,40a1.38,1.38,0,0,1,1.38-1.38H48.3a1.38,1.38,0,0,1,0,2.76H24.83A1.38,1.38,0,0,1,23.45,40Z" transform="translate(0.03)" fill="#79b8ff"/><path d="M24.83,6.9a1.39,1.39,0,0,0,0,2.77H38.64a1.39,1.39,0,0,0,0-2.77Z" transform="translate(0.03)" fill="#9df3d3"/><path d="M24.83,12.43a1.38,1.38,0,0,0,0,2.76H52.44a1.38,1.38,0,1,0,0-2.76Z" transform="translate(0.03)" fill="#9df3d3"/><path d="M23.45,26.23a1.38,1.38,0,0,1,1.38-1.38H52.44a1.39,1.39,0,0,1,0,2.77H24.83A1.38,1.38,0,0,1,23.45,26.23Z" transform="translate(0.03)" fill="#9df3d3"/><path d="M24.83,19.33a1.38,1.38,0,0,0,0,2.76H38.64a1.38,1.38,0,0,0,0-2.76Z" transform="translate(0.03)" fill="#9df3d3"/><path d="M53.26,49.17a2.77,2.77,0,0,0-2.77,2.76v6.56a2.86,2.86,0,0,0,.41,1.45,2.76,2.76,0,0,0,3.8.91L60,57.59a2.83,2.83,0,0,0,.9-.89A2.77,2.77,0,0,0,60,52.89l-5.31-3.3A2.72,2.72,0,0,0,53.26,49.17Zm0,2.76,5.31,3.31-5.31,3.25Z" transform="translate(0.03)" fill="#9df3d3" fill-rule="evenodd"/><path d="M42.85,55.25A12.43,12.43,0,1,1,55.27,67.67,12.42,12.42,0,0,1,42.85,55.25Zm12.42-9.67a9.67,9.67,0,1,0,9.67,9.67A9.67,9.67,0,0,0,55.27,45.58Z" transform="translate(0.03)" fill="#9df3d3" fill-rule="evenodd"/><path d="M16.91,21.12a1.38,1.38,0,0,1,0,1.95L12.67,27.3a1.38,1.38,0,0,1-1.95,0L8.67,25.25a1.38,1.38,0,1,1,1.94-1.95l1.09,1.07L15,21.12A1.38,1.38,0,0,1,16.91,21.12Z" transform="translate(0.03)" fill="#9df3d3"/><path d="M16.91,10.64a1.38,1.38,0,1,0-1.95-2L11.7,12l-1.09-1.08a1.38,1.38,0,1,0-1.94,2l2.05,2.06a1.39,1.39,0,0,0,1.95,0Z" transform="translate(0.03)" fill="#9df3d3"/></svg>