<svg id="Layer_3" data-name="Layer 3" xmlns="http://www.w3.org/2000/svg" viewBox="0 0 67.44 61.82"><path d="M3.3,6.14a1.31,1.31,0,0,0-.36,1V31a1.33,1.33,0,0,0,.36,1,1.72,1.72,0,0,0,1.25.38H10v2.81H4.55a4.51,4.51,0,0,1-3.21-1.17A4.15,4.15,0,0,1,.13,31V7.16a4.13,4.13,0,0,1,1.21-3A4.52,4.52,0,0,1,4.55,2.94h58.6a4.52,4.52,0,0,1,3.21,1.18,4.13,4.13,0,0,1,1.21,3V31a4.15,4.15,0,0,1-1.21,3,4.51,4.51,0,0,1-3.21,1.17H22.61a1.41,1.41,0,0,1,0-2.81H63.15a1.72,1.72,0,0,0,1.25-.38,1.33,1.33,0,0,0,.36-1V7.16a1.31,1.31,0,0,0-.36-1,1.72,1.72,0,0,0-1.25-.39H4.55A1.72,1.72,0,0,0,3.3,6.14Zm8.07,27.71A1.4,1.4,0,0,1,10,35.25V32.44A1.41,1.41,0,0,1,11.37,33.85Z" transform="translate(-0.13 -2.94)" fill="#79b8ff" fill-rule="evenodd"/><path d="M17,14.19a1.41,1.41,0,1,0-2.81,0V18.4H10a1.41,1.41,0,1,0,0,2.81h4.2v4.22a1.41,1.41,0,0,0,2.81,0V21.21h4.23a1.41,1.41,0,0,0,0-2.81H17Z" transform="translate(-0.13 -2.94)" fill="#9df4d3"/><path d="M43.68,15.59a1.41,1.41,0,0,1,1.41-1.41H57.73a1.41,1.41,0,1,1,0,2.81H45.09A1.41,1.41,0,0,1,43.68,15.59Z" transform="translate(-0.13 -2.94)" fill="#9df4d3"/><path d="M28.24,14.19a1.41,1.41,0,1,0,0,2.81H38.1a1.41,1.41,0,1,0,0-2.81Z" transform="translate(-0.13 -2.94)" fill="#9df4d3"/><path d="M28.23,21.21a1.41,1.41,0,1,0,0,2.81H45.09a1.41,1.41,0,0,0,0-2.81Z" transform="translate(-0.13 -2.94)" fill="#9df4d3"/><path d="M52.12,21.21a1.41,1.41,0,1,0,0,2.81h5.62a1.41,1.41,0,0,0,0-2.81Z" transform="translate(-0.13 -2.94)" fill="#9df4d3"/><path d="M26.82,52.83a2.11,2.11,0,1,1-2.1-2.11A2.1,2.1,0,0,1,26.82,52.83Z" transform="translate(-0.13 -2.94)" fill="#9df4d3"/><path d="M33.86,54.93a2.11,2.11,0,1,0-2.11-2.1A2.1,2.1,0,0,0,33.86,54.93Z" transform="translate(-0.13 -2.94)" fill="#9df4d3"/><path d="M45.09,52.82A2.11,2.11,0,1,1,43,50.71,2.1,2.1,0,0,1,45.09,52.82Z" transform="translate(-0.13 -2.94)" fill="#9df4d3"/><path d="M14.18,64.76H53.52a3.91,3.91,0,0,0,4.21-4.22V45.09A4.18,4.18,0,0,0,56.6,42a4.32,4.32,0,0,0-3.08-1.13H23.1l-3.05-2.41c-1.49-1.21-3-2.4-3.61-2.9a1.4,1.4,0,0,0-2.26,1.07v4.24h0A4.13,4.13,0,0,0,11.1,42,4.18,4.18,0,0,0,10,45.09V60.54A3.91,3.91,0,0,0,14.18,64.76ZM13.08,44a1.69,1.69,0,0,1,1.1-.3h1.31a1.44,1.44,0,0,0,1-.36,1.36,1.36,0,0,0,.45-1V39.58l.48.38.84.68c1.34,1.08,2.68,2.16,3.43,2.74a1.43,1.43,0,0,0,.87.3H53.52a1.64,1.64,0,0,1,1.1.3,1.7,1.7,0,0,1,.3,1.11V60.54c0,1.06-.35,1.41-1.4,1.41H14.18c-1,0-1.4-.35-1.4-1.41V45.09A1.7,1.7,0,0,1,13.08,44Z" transform="translate(-0.13 -2.94)" fill="#9df4d3" fill-rule="evenodd"/></svg>