<svg width="156" height="48" viewBox="0 0 156 48" fill="none" xmlns="http://www.w3.org/2000/svg">
<path d="M48.1108 20.8512C46.9425 20.8512 45.9954 19.9041 45.9954 18.7357C45.9954 17.5674 46.9425 16.6202 48.1108 16.6202C48.6824 16.5968 49.2387 16.8082 49.6505 17.2053C50.0623 17.6024 50.2938 18.1507 50.2912 18.7227C50.2899 19.2959 50.0581 19.8445 49.648 20.2448C49.2378 20.6452 48.6839 20.8637 48.1108 20.8512Z" fill="#25292F"/>
<path d="M146.788 33.9256C144.208 33.9256 142.227 31.5142 142.227 28.4305C142.183 26.7317 142.83 25.0876 144.02 23.8742C145.209 22.6609 146.841 21.9822 148.54 21.9933C149.314 22.0036 150.078 22.1742 150.783 22.4942L150.868 22.5332V20.0154C150.868 18.8447 150.728 18.7669 150.129 18.6241L149.947 18.58L149.168 18.3515L154.489 16.6228V30.8419C154.489 32.1164 154.658 32.4357 155.434 32.6589L155.907 32.7783L155.764 33.1131L150.874 33.9204V31.5246L150.765 31.6622C149.638 33.0846 148.156 33.9256 146.788 33.9256ZM148.709 22.6733C146.959 22.6733 146.113 24.21 146.113 27.3741C146.113 30.1463 147.138 31.8672 148.787 31.8672C149.902 31.8559 150.814 30.9749 150.863 29.8608V24.8355C150.866 23.2029 149.412 22.6733 148.709 22.6733Z" fill="#25292F"/>
<path d="M44.9908 33.544L45.048 33.2196L45.876 33.0898C46.2004 33.0665 46.4506 32.7947 46.447 32.4694V25.5052C46.447 24.1892 45.8448 23.857 45.3205 23.7142L45.009 23.6363L50.0602 21.9933V32.4538C50.0507 32.765 50.2723 33.0354 50.5793 33.0872L51.4463 33.2222L51.5034 33.5466L44.9908 33.544Z" fill="#25292F"/>
<path d="M101.333 39.7243L101.39 39.3999L102.218 39.2701C102.542 39.2468 102.792 38.975 102.789 38.6497V25.6091C102.789 24.7239 102.392 23.9608 101.844 23.7921L101.325 23.6597L106.404 21.9855V24.3917L106.513 24.2541C107.632 22.8343 109.013 21.9855 110.381 21.9855C112.959 21.9933 114.729 24.6461 114.729 27.7271C114.729 31.8361 111.588 33.9204 108.499 33.9204C107.801 33.9407 107.106 33.8079 106.464 33.531L106.379 33.4921V38.6419C106.375 38.9681 106.627 39.2403 106.952 39.2623L107.778 39.3921L107.835 39.7165L101.333 39.7243ZM108.458 23.9868C107.343 24.0317 106.444 24.9156 106.381 26.0296V31.2417C106.388 32.3237 107.249 33.2068 108.33 33.2403C109.517 33.2403 111.035 32.2877 111.035 28.2489C111.027 25.4767 110.106 23.9868 108.458 23.9868Z" fill="#25292F"/>
<path d="M74.6672 32.472V26.1697C74.6625 25.6371 74.444 25.1287 74.0609 24.7588C73.6777 24.3888 73.162 24.1883 72.6296 24.2022C71.595 24.2281 70.762 25.0599 70.7347 26.0944V32.459C70.7321 32.7642 70.9526 33.0255 71.2539 33.0742L72.1208 33.2092L72.1779 33.5336H65.8912L65.9483 33.2092L66.5894 33.0742C66.8877 33.026 67.1074 32.769 67.1086 32.4668V19.8622C67.1097 19.2681 66.7473 18.7337 66.1949 18.5151L65.629 18.2918L70.7711 16.6176V24.3216L70.8827 24.1529C70.8982 24.1321 72.3492 21.9933 74.9189 21.9933C75.8064 22.0146 76.6529 22.3706 77.2888 22.99C77.8832 23.6104 78.2414 24.7032 78.2414 25.9076L78.2674 32.4746C78.2647 32.7797 78.4853 33.0411 78.7865 33.0898L79.6535 33.2248L79.7106 33.5492H73.4368L73.4939 33.2248L74.135 33.0898C74.4334 33.0415 74.653 32.7846 74.6542 32.4824" fill="#25292F"/>
<path d="M31.2338 17.6948C31.2373 17.3696 30.9871 17.0978 30.6627 17.0745L29.8347 16.9447L29.7776 16.6202H36.9209L36.8586 16.9447L36.0306 17.0745C35.7061 17.0978 35.4559 17.3696 35.4595 17.6948V32.3033C35.4595 32.9911 36.3602 32.8873 36.3602 32.8873C38.9351 32.8873 40.5315 31.9217 42.2576 28.1606L42.5405 27.5428H43.3478L42.6262 33.544H29.7776L29.8347 33.2196L30.6627 33.0898C30.9871 33.0665 31.2373 32.7947 31.2338 32.4694V17.6948Z" fill="#25292F"/>
<path d="M85.6573 33.9256C83.846 33.9042 82.3901 32.4275 82.3945 30.6161V23.953H79.8456L81.4289 22.3956H81.9662C82.08 22.3956 82.1891 22.3501 82.2691 22.2691C82.3491 22.1881 82.3933 22.0785 82.3919 21.9647V20.5812L85.7663 19.4625V22.4008H89.0057L87.5236 23.9582H85.7767V30.2112C85.7767 31.8127 86.9214 32.3941 87.6923 32.3941C88.0216 32.3909 88.3458 32.3119 88.6397 32.1631L88.6838 32.145L89.0031 32.5161C88.0816 33.339 87.1524 33.9256 85.6573 33.9256Z" fill="#25292F"/>
<path d="M120.611 26.7667L127.554 26.8731C127.58 26.6577 127.585 25.9699 127.575 25.7285C127.497 23.9738 126.277 21.9933 123.087 21.9933C119.481 21.9933 116.761 24.6331 116.761 28.2229C116.761 31.4908 119.126 33.9334 122.264 33.9334C124.782 33.9334 126.55 32.812 127.531 30.5356L127.271 30.3124C126.633 31.3121 125.519 31.9064 124.333 31.8802C122.085 31.8802 120.616 30.0632 120.59 27.2365C120.587 27.0797 120.594 26.9228 120.611 26.7667ZM120.611 25.8998C120.787 23.7116 121.542 22.7175 122.731 22.7175C123.059 22.7106 123.375 22.8404 123.603 23.0757C124.097 23.5766 124.335 24.3735 124.312 25.879V25.9387L120.608 25.9647L120.611 25.8998Z" fill="#25292F"/>
<path d="M133.21 26.7667L140.153 26.8731C140.179 26.6577 140.185 25.9699 140.174 25.7285C140.096 23.9738 138.876 21.9933 135.686 21.9933C132.081 21.9933 129.361 24.6331 129.361 28.2229C129.361 31.4908 131.725 33.9334 134.863 33.9334C137.381 33.9334 139.149 32.812 140.13 30.5356L139.87 30.3124C139.233 31.3229 138.111 31.9241 136.917 31.8958C134.669 31.8958 133.2 30.0788 133.174 27.2521C133.176 27.0897 133.188 26.9276 133.21 26.7667ZM133.21 25.8998C133.386 23.7116 134.142 22.7175 135.331 22.7175C135.658 22.7106 135.974 22.8404 136.203 23.0757C136.696 23.5766 136.935 24.3735 136.911 25.879V25.9387L133.207 25.9647L133.21 25.8998Z" fill="#25292F"/>
<path d="M96.3255 26.4137C94.7914 25.8245 93.6364 25.3754 93.6364 24.2411C93.6364 23.2029 94.3606 22.5981 95.404 22.5981C95.9179 22.5985 96.4217 22.7404 96.8602 23.0082L98.8018 25.8271L99.4662 25.8011L99.3365 21.9933L98.0854 22.4008C97.2241 22.1357 96.3285 21.9984 95.4274 21.9933C92.6682 21.9933 90.8278 23.4495 90.8278 25.7233C90.8278 27.818 92.4112 28.6122 94.3554 29.3572C95.7856 29.9205 97.1172 30.3228 97.1172 31.766C97.1172 32.5888 96.3385 33.3935 95.0718 33.3935C93.7428 33.3935 93.0523 32.729 92.1854 31.4519L91.4742 29.9724L90.7915 30.1385L90.5501 33.1365C91.9794 33.6467 93.4841 33.9134 95.0017 33.9256C98.4254 33.9256 99.9854 32.1086 99.9854 30.1177C99.9802 27.8699 98.0879 27.1301 96.3255 26.4137Z" fill="#25292F"/>
<path d="M60.879 31.3766H56.8167C56.3142 31.3395 55.9215 30.9277 55.9082 30.424C55.8984 30.1628 55.9946 29.9087 56.175 29.7195C56.3554 29.5303 56.6046 29.4221 56.866 29.4195C56.9213 29.4154 56.9769 29.4154 57.0322 29.4195C57.4184 29.4897 57.8103 29.5236 58.2028 29.5207C61.2865 29.5207 63.376 27.914 63.376 25.648C63.376 24.9731 63.2644 24.4825 62.8828 24.0542L64.2975 22.7564L63.9548 21.7571L61.5357 22.7538C60.5614 22.2494 59.4789 21.9902 58.3819 21.9985C55.3761 21.9985 53.3359 23.9297 53.3359 25.9673C53.3359 27.7245 54.3301 28.6953 55.7836 29.2041V29.23C54.2808 29.6635 52.905 30.6836 52.905 32.0593C52.905 33.2819 54.1276 34.3772 55.6331 34.5563C54.1042 35.143 52.6013 35.8308 52.6013 37.1806C52.6013 38.8885 54.2314 39.7295 57.5331 39.7295C61.7381 39.7295 64.7206 37.3934 64.7206 34.6576C64.7257 32.6122 63.1476 31.3766 60.879 31.3766ZM57.1749 23.4339C57.4038 22.9932 57.8594 22.7169 58.356 22.7175C59.3138 22.7175 59.9134 23.5351 59.9134 25.8608C59.9134 28.1866 59.4643 28.9756 58.356 28.9756C57.4189 28.9756 56.879 28.049 56.879 25.8323C56.8764 24.7473 56.9361 23.9374 57.1749 23.4339ZM57.8706 38.8522C56.2664 38.8522 55.3242 37.9074 55.3242 36.5316C55.3242 35.4934 56.4559 34.5875 57.4838 34.5875H59.6538C61.4708 34.7147 62.3299 35.1066 62.3299 36.4045C62.3299 37.8502 59.9367 38.8522 57.8835 38.8522H57.8706Z" fill="#25292F"/>
<path d="M8.62025 25.0821V16.6202L0.155762 8.15574V16.6202V25.0821V33.5466H8.62025H17.0822H25.5466L17.0822 25.0821H8.62025Z" fill="#25292F"/>
</svg>
