<svg fill="none" height="48" viewBox="0 0 156 48" width="156" xmlns="http://www.w3.org/2000/svg"><g fill="#25292f"><path d="m46.6649 13c-2.3122 0-4.0991.8459-5.4654 2.2189-1.9969 2.0067-1.9988 4.5408-1.9988 8.1318 0 3.4854-.1032 6.0226 1.9988 8.135 1.4714 1.4786 3.1532 2.2157 5.4654 2.2157.6306 0 1.1547-.1046 1.6802-.2103h6.8301l-1.9956-3.4868c.9459-1.7955.9463-3.9076.9463-6.6536 0-3.4853-.0019-6.0195-1.9988-8.1318-1.3663-1.4786-3.1501-2.2189-5.4622-2.2189zm41.4087 0c-2.3121 0-4.0991.7403-5.4654 2.2189-2.1019 2.1123-1.9987 4.6465-1.9987 8.1318 0 3.591.0019 6.1282 1.9987 8.135 1.3663 1.373 3.1533 2.2157 5.4654 2.2157 2.3122 0 4.096-.7371 5.4623-2.2157 1.9968-2.1124 1.9987-4.6496 1.9987-8.135 0-3.591-.0019-6.1251-1.9987-8.1318-1.4714-1.373-3.1501-2.2189-5.4623-2.2189zm-80.29716.1067c-4.41412 0-7.039396 2.5354-7.039396 6.1263 0 1.6899.525086 3.0636 1.470966 4.0141.84078.845 2.20665 1.4773 3.88822 1.6885l2.41725.317c.94588.2113 1.366.3182 1.78642.7407.4204.4225.6308.9492.6308 1.6885 0 1.6899-1.2606 2.5359-3.57275 2.5359-1.78667 0-3.57333-.4242-4.83451-1.6916l-2.52344 2.5359c1.99686 2.0067 4.3101 2.6394 7.35795 2.6394 4.20395 0 7.56715-2.2185 7.56715-6.1263 0-1.7955-.5261-3.2718-1.5771-4.328-.8408-.8449-1.9965-1.3737-3.88823-1.5849l-2.41725-.317c-.84079-.2112-1.47219-.4218-1.89258-.8442-.42039-.4225-.63086-.9502-.63086-1.4783 0-1.373 1.05233-2.5358 3.1543-2.5358 1.26117 0 2.83632.1041 4.09742 1.3715l2.5235-2.4292c-1.6816-1.6899-3.7853-2.3225-6.51786-2.3225zm12.82336.1067v20.2777h13.3479v-3.4868h-9.3535v-4.9619h7.9856v-3.5905h-7.9856v-4.7548h9.3535v-3.4837zm39.4099 0v13.3072c0 4.3303 3.3653 7.1808 7.4642 7.1808 4.0988 0 7.3548-2.8505 7.3548-7.1808v-13.3072h-3.8882v13.2005c0 2.3235-1.3647 3.6971-3.4666 3.6971-2.102 0-3.4698-1.3736-3.4698-3.6971v-13.2005zm41.3053 0v20.2777h3.889v-20.2777zm16.184 0-7.358 20.2777h4.101l1.262-3.5904h7.145l1.156 3.5904h4.1l-7.358-20.2777zm-70.9403 3.3802c1.051 0 1.9979.4208 2.5234 1.0545.7357.8449.9432 1.7948.9432 5.7026s-.2075 4.8608-.9432 5.7058c-.5255.6337-1.4724 1.0545-2.5234 1.0545s-1.998-.4208-2.5235-1.0545c-.7356-.845-.9462-1.798-.9462-5.7058s.2106-4.8577.9462-5.7026c.5255-.6337 1.4725-1.0545 2.5235-1.0545zm41.5149 0c1.051 0 1.9948.4208 2.5203 1.0545.7357.8449.9463 1.7948.9463 5.7026s-.2106 4.8608-.9463 5.7058c-.5255.6337-1.4693 1.0545-2.5203 1.0545s-1.9979-.4208-2.5234-1.0545c-.7357-.845-.9463-1.798-.9463-5.7058s.2106-4.8577.9463-5.7026c.5255-.6337 1.4724-1.0545 2.5234-1.0545zm31.0024 2.5327 2.524 7.3943h-5.047z"/><path d="m136.038 13v18.1948l2.496-2.4964v-15.6984zm4.993 0v13.2051l2.493-2.4964v-10.7087zm4.989 0v8.2122l2.497-2.4933v-5.7189zm4.99 0v4.9897h4.99v-4.9897zm-.726 7.4862-2.496 2.4933h8.212v-2.4933zm-4.993 4.9897-2.493 2.4964h13.202v-2.4964zm-4.989 4.9898-2.497 2.4964h18.195v-2.4964z"/></g></svg>