<svg fill="none" height="48" viewBox="0 0 156 48" width="156" xmlns="http://www.w3.org/2000/svg"><g fill="#25292f"><path d="m2.71602 11.2341h5.27683v4.779h3.80245v3.8075h-3.80245v7.8512c0 1.6542.51733 1.9693 2.27625 1.9693h1.5262v3.8863h-3.36272c-4.26802 0-5.71656-.8403-5.71656-4.9103v-8.7965h-2.71602v-3.8075h2.71602zm26.97908 16.8315c-1.552 4.1488-5.1734 5.9344-8.6136 5.9344-5.6131 0-9.4673-3.4398-9.4673-9.2954 0-5.6193 4.1904-9.1641 9.2603-9.1641 5.7425 0 9.2603 4.4114 8.8982 10.6346h-12.8041c.1552 2.4945 2.0694 3.6236 3.9835 3.6236 2.0176 0 3.2851-.7352 3.88-1.7593zm-12.6489-5.1466h7.4755c-.1034-2.2057-1.6037-3.3085-3.6213-3.3085-1.9142 0-3.5696.9978-3.8542 3.3085zm30.885-.4726h-4.9147c-.4656-2.0482-1.7331-2.7571-3.2851-2.7571-1.8883 0-3.7507 1.3129-3.7507 5.0678 0 3.8075 1.8624 5.0678 3.7507 5.0678 1.94 0 3.1558-1.024 3.5438-2.7046h4.9147c-1.1899 5.1992-5.3286 6.8534-8.7947 6.8534-5.6907 0-8.8206-3.7024-8.8206-9.2954s3.5955-9.1641 8.8206-9.1641c3.5696 0 7.5013 1.6543 8.536 6.9322zm6.1304-4.0963c.7502-1.3129 2.6385-2.7046 5.3545-2.7046 4.4232 0 5.82 2.6521 5.82 7.4048v10.5296h-5.2768v-9.1641c0-2.4946-.0776-4.5427-2.6384-4.5427-2.2763 0-3.2334 1.4967-3.2334 4.779v8.9803h-5.2768v-23.6324h5.2768zm23.3319 2.8359c-.3621-1.3129-1.7072-1.6805-3.3627-1.6805-1.8365 0-2.7419.4464-2.7419 1.3129 0 .814.6208 1.2866 2.1211 1.5755l3.2334.5777c4.1387.7614 6.1304 2.0218 6.1304 5.094 0 3.9388-3.5696 5.9344-8.355 5.9344-4.6043 0-7.8635-1.9694-8.4584-6.1182h4.9147c.4656 1.6806 1.8106 2.2057 3.6213 2.2057 1.8883 0 3.2075-.5251 3.2075-1.5755 0-.7615-.6725-1.2866-2.716-1.628l-3.0782-.5251c-3.3368-.5515-5.6131-2.2582-5.6131-5.3567 0-3.4924 3.6214-5.4092 7.8894-5.4092 3.9318 0 7.5273 1.6017 8.1739 5.6193zm8.0963-9.9519h5.2768v4.779h3.8025v3.8075h-3.8025v7.8512c0 1.6542.5174 1.9693 2.2763 1.9693h1.5003v3.8863h-3.3368c-4.268 0-5.7166-.8403-5.7166-4.9103v-8.7965h-2.716v-3.8075h2.716zm21.1332 10.6871c0-2.1006-.983-2.7833-2.923-2.7833-1.707 0-2.845.8927-3.078 2.5733h-4.9407c.2587-3.3086 3.3369-6.2232 8.4587-6.2232 4.992 0 7.812 2.0481 7.708 7.3785l-.077 3.8075v1.838c0 1.9169.129 3.9913.388 5.0679h-5.2l-.077-2.1269c-1.294 1.8643-3.337 2.547-5.82 2.547-3.2854 0-5.9756-1.9431-5.9756-5.1466 0-4.3064 4.7854-5.698 11.4846-6.2232zm.155 3.86c-3.699.3676-6.156.7352-6.156 2.6783 0 1.1291 1.06 1.8906 2.431 1.8906 2.121 0 3.725-.919 3.725-4.1488zm17.176-4.5952c-.466-.0788-.983-.1313-1.449-.105-2.561 0-3.88.9453-3.88 3.6761v8.7965h-5.302v-17.5405h5.095v3.3348c.802-2.1006 2.251-3.3348 4.708-3.4398h.388c.155 0 .285 0 .44.0263zm11.692 0c-.363-1.3129-1.708-1.6805-3.363-1.6805-1.837 0-2.742.4464-2.742 1.3129 0 .814.621 1.2866 2.121 1.5755l3.208.5777c4.138.7614 6.13 2.0218 6.13 5.094 0 3.9388-3.57 5.9344-8.355 5.9344-4.578 0-7.863-1.9694-8.458-6.1182h4.914c.466 1.6806 1.811 2.2057 3.622 2.2057 1.888 0 3.207-.5251 3.207-1.5755 0-.7615-.672-1.2866-2.716-1.628l-3.078-.5251c-3.337-.5515-5.587-2.2582-5.587-5.3567 0-3.4924 3.621-5.4092 7.889-5.4092 3.932 0 7.527 1.6017 8.174 5.6193z"/><path d="m141 38v-4h15v4z"/></g></svg>