<?xml version="1.0" encoding="UTF-8"?>
<svg width="50px" height="49px" viewBox="0 0 50 49" version="1.1" xmlns="http://www.w3.org/2000/svg" xmlns:xlink="http://www.w3.org/1999/xlink">
    <!-- Generator: Sketch 47.1 (45422) - http://www.bohemiancoding.com/sketch -->
    <title>Group 22</title>
    <desc>Created with Sketch.</desc>
    <defs></defs>
    <g id="Page-1" stroke="none" stroke-width="1" fill="none" fill-rule="evenodd" stroke-linecap="round" stroke-linejoin="round">
        <g id="Group-22" transform="translate(1.000000, 1.000000)" stroke-width="2">
            <g id="Group-18" transform="translate(6.000000, 6.000000)">
                <g id="Group-3" stroke="var(--color-marketing-icon-secondary, #79B8FF)">
                    <polyline id="Stroke-3" points="7 0 2 5 0 3"></polyline>
                </g>
                <g id="Finish-your-Project" transform="translate(25.000000, 25.000000)" stroke="var(--color-marketing-icon-primary, #2088FF)">
                    <g id="Group-11">
                        <path d="M8.04918033,0.0125732422 C12.4674412,0.0125732422 16.0491803,3.59431237 16.0491803,8.01257324 C16.0491803,12.4308341 12.4674412,16.0125732 8.04918033,16.0125732 C3.63091946,16.0125732 0.0491803279,12.4308341 0.0491803279,8.01257324 C0.0491803279,3.59431237 3.63091946,0.0125732422 8.04918033,0.0125732422 Z" id="Stroke-3"></path>
                        <polyline id="Stroke-10" points="11.0151978 6.01727295 7.01568604 10.0114746 5.0135498 8.01641846"></polyline>
                    </g>
                </g>
            </g>
            <g id="Group-21">
                <g id="Share-work">
                    <path d="M0,13 L0,2 C-1.3527075e-16,0.8954305 0.8954305,2.02906125e-16 2,0 L40,0 C41.1045695,-2.02906125e-16 42,0.8954305 42,2 L42,13" id="Rectangle-14" stroke="var(--color-marketing-icon-secondary, #79B8FF)"></path>
                    <path d="M27.0133057,38 L2,38 C0.8954305,38 1.3527075e-16,36.9553311 0,35.6666667 L0,19.3333333 C-1.3527075e-16,18.0446689 0.8954305,17 2,17 L40,17 C41.1045695,17 42,18.0446689 42,19.3333333 L42,27" id="Rectangle-13" stroke="var(--color-marketing-icon-primary, #2088FF)"></path>
                    <path d="M36,25 L19,25" id="Stroke-7" stroke="var(--color-marketing-icon-secondary, #79B8FF)"></path>
                    <path d="M36,9 L19,9" id="Stroke-7" stroke="var(--color-marketing-icon-secondary, #79B8FF)"></path>
                    <path d="M27,30 L19,30" id="Stroke-9" stroke="var(--color-marketing-icon-secondary, #79B8FF)"></path>
                </g>
                <rect id="Rectangle-7" stroke="var(--color-marketing-icon-secondary, #79B8FF)" x="6" y="24" width="7" height="7" rx="2"></rect>
            </g>
        </g>
    </g>
</svg>