<?xml version="1.0" encoding="UTF-8"?>
<svg width="44px" height="44px" viewBox="0 0 44 44" version="1.1" xmlns="http://www.w3.org/2000/svg" xmlns:xlink="http://www.w3.org/1999/xlink">
    <!-- Generator: Sketch 47.1 (45422) - http://www.bohemiancoding.com/sketch -->
    <title>Group 14</title>
    <desc>Created with Sketch.</desc>
    <defs></defs>
    <g id="Page-1" stroke="none" stroke-width="1" fill="none" fill-rule="evenodd">
        <g id="Group-14" transform="translate(1.000000, 1.000000)" stroke-width="2">
            <g id="Organized-by-projects-status" transform="translate(1.000000, 5.000000)" stroke-linejoin="round">
                <path d="M12.5,1.00927734 L41.5,1.00927734" id="Stroke-3" stroke="var(--color-marketing-icon-primary, #2088FF)"></path>
                <path d="M0,1.003479 L8,1.003479" id="Stroke-19" stroke="var(--color-marketing-icon-secondary, #79B8FF)" stroke-linecap="round"></path>
            </g>
            <path d="M9,8.8817842e-16 L2,8.8817842e-16 L2,4.4408921e-16 C0.895430501,6.46995335e-16 9.04706175e-10,0.8954305 9.0470631e-10,2 L9.04719442e-10,40 L9.04719855e-10,40 C9.0471999e-10,41.1045695 0.895430501,42 2,42 L9,42" id="Path-3" stroke="var(--color-marketing-icon-secondary, #79B8FF)" stroke-linecap="round" stroke-linejoin="round"></path>
            <rect id="Rectangle-3" stroke="var(--color-marketing-icon-primary, #2088FF)" x="13" y="0" width="29" height="42" rx="2"></rect>
            <rect id="Rectangle-4" stroke="var(--color-marketing-icon-primary, #2088FF)" stroke-linecap="round" stroke-linejoin="round" x="19" y="12" width="17" height="7" rx="2"></rect>
            <rect id="Rectangle-4" stroke="var(--color-marketing-icon-primary, #2088FF)" stroke-linecap="round" stroke-linejoin="round" x="19" y="25" width="17" height="7" rx="2"></rect>
            <path d="M9.08105469,19 L8,19 L8,19 C6.8954305,19 6,18.1045695 6,17 L6,14 L6,14 C6,12.8954305 6.8954305,12 8,12 L8,12 L9.07080078,12" id="Rectangle-4" stroke="var(--color-marketing-icon-secondary, #79B8FF)" stroke-linecap="round" stroke-linejoin="round"></path>
            <path d="M9.06884766,32 L8,32 C6.8954305,32 6,31.1045695 6,30 L6,27 C6,25.8954305 6.8954305,25 8,25 L9.05273438,25" id="Rectangle-4" stroke="var(--color-marketing-icon-secondary, #79B8FF)" stroke-linecap="round" stroke-linejoin="round"></path>
        </g>
    </g>
</svg>