<?xml version="1.0" encoding="UTF-8"?>
<svg width="50px" height="49px" viewBox="0 0 50 49" version="1.1" xmlns="http://www.w3.org/2000/svg" xmlns:xlink="http://www.w3.org/1999/xlink">
    <!-- Generator: Sketch 47.1 (45422) - http://www.bohemiancoding.com/sketch -->
    <title>Finish your Project</title>
    <desc>Created with Sketch.</desc>
    <defs></defs>
    <g id="Page-1" stroke="none" stroke-width="1" fill="none" fill-rule="evenodd" stroke-linejoin="round">
        <g id="Finish-your-Project" transform="translate(1.000000, 1.000000)" stroke-width="2">
            <path d="M17,11 L6,11" id="Stroke-1" stroke="var(--color-marketing-icon-primary, #2088FF)"></path>
            <path d="M35,11 L24,11" id="Stroke-2" stroke="var(--color-marketing-icon-primary, #2088FF)"></path>
            <g id="Group-11" stroke-linecap="round">
                <path d="M39.0491803,31.0125732 C43.4674412,31.0125732 47.0491803,34.5943124 47.0491803,39.0125732 C47.0491803,43.4308341 43.4674412,47.0125732 39.0491803,47.0125732 C34.6309195,47.0125732 31.0491803,43.4308341 31.0491803,39.0125732 C31.0491803,34.5943124 34.6309195,31.0125732 39.0491803,31.0125732 Z" id="Stroke-3" stroke="var(--color-marketing-icon-primary, #2088FF)"></path>
                <path d="M27,38 L2,38 C0.772073016,38 0,37.1599711 0,36 L0,2 C0,0.840028925 0.772073016,0 2,0 L40,0 C41.227927,0 42,0.840028925 42,2 L42,27" id="Stroke-5" stroke="var(--color-marketing-icon-secondary, #79B8FF)"></path>
                <path d="M8,32 L16,32 L16,32 C17.1045695,32 18,31.1045695 18,30 L18,8 L18,8 C18,6.8954305 17.1045695,6 16,6 L8,6 L8,6 C6.8954305,6 6,6.8954305 6,8 L6,30 L6,30 C6,31.1045695 6.8954305,32 8,32 Z" id="Stroke-7" stroke="var(--color-marketing-icon-primary, #2088FF)"></path>
                <path d="M26,22 L34,22 L34,22 C35.1045695,22 36,21.1045695 36,20 L36,8 L36,8 C36,6.8954305 35.1045695,6 34,6 L26,6 L26,6 C24.8954305,6 24,6.8954305 24,8 L24,20 L24,20 C24,21.1045695 24.8954305,22 26,22 Z" id="Stroke-9" stroke="var(--color-marketing-icon-primary, #2088FF)"></path>
                <polyline id="Stroke-10" stroke="var(--color-marketing-icon-primary, #2088FF)" points="42.0151978 37.0172729 38.015686 41.0114746 36.0135498 39.0164185"></polyline>
            </g>
        </g>
    </g>
</svg>