<svg fill="none" height="150" viewBox="0 0 150 150" width="150" xmlns="http://www.w3.org/2000/svg"><path d="m75 0c-41.4117 0-75 33.5883-75 75 0 41.412 33.5883 75 75 75 41.412 0 75-33.588 75-75 0-41.4117-33.588-75-75-75zm-56.0153 90.4381c-3.7552 0-6.7803-3.025-6.7803-6.7802 0-3.7553 3.0251-6.7803 6.7803-6.7803s6.7803 3.025 6.7803 6.7803c0 3.7552-3.0251 6.7802-6.7803 6.7802zm18.6718 0c-3.7553 0-6.7803-3.025-6.7803-6.7802 0-3.7553 3.025-6.7803 6.7803-6.7803 3.7552 0 6.7802 3.025 6.7802 6.7803 0 3.7552-3.025 6.7802-6.7802 6.7802zm0-17.8373c-3.7553 0-6.7803-3.025-6.7803-6.7802s3.025-6.7803 6.7803-6.7803c3.7552 0 6.7802 3.0251 6.7802 6.7803s-3.025 6.7802-6.7802 6.7802zm25.139 6.8846v5.6328.313 2.0862 11.5786.3129 2.0861c0 3.547-2.9207 6.467-6.4673 6.467s-6.4673-2.92-6.4673-6.467v-2.0861-.3129-11.5786-2.0862-.313-5.6328-13.8734c0-3.5466 2.9207-6.4674 6.4673-6.4674s6.4673 2.9208 6.4673 6.4674zm-6.4673-23.8874c-3.7552 0-6.7802-3.025-6.7802-6.7802s3.025-6.7803 6.7802-6.7803 6.7803 3.0251 6.7803 6.7803-3.0251 6.7802-6.7803 6.7802zm18.6718 34.8401c-3.7552 0-6.7803-3.025-6.7803-6.7802 0-3.7553 3.0251-6.7803 6.7803-6.7803s6.7802 3.025 6.7802 6.7803c0 3.7552-3.025 6.7802-6.7802 6.7802zm25.139-10.9527v5.6328.313 2.0862 11.5786.3129 2.0861c0 3.547-2.9206 6.467-6.4672 6.467s-6.4674-2.92-6.4674-6.467v-2.0861-.3129-11.5786-2.0862-.313-5.6328-13.8734c0-3.5466 2.9208-6.4674 6.4674-6.4674s6.4672 2.9208 6.4672 6.4674zm-6.4672-23.8874c-3.7553 0-6.7803-3.025-6.7803-6.7802s3.025-6.7803 6.7803-6.7803c3.7552 0 6.7802 3.0251 6.7802 6.7803s-3.025 6.7802-6.7802 6.7802zm18.5672 34.8401c-3.755 0-6.78-3.025-6.78-6.7802 0-3.7553 3.025-6.7803 6.78-6.7803s6.78 3.025 6.78 6.7803c0 3.7552-3.025 6.7802-6.78 6.7802zm0-17.8373c-3.755 0-6.78-3.025-6.78-6.7802s3.025-6.7803 6.78-6.7803 6.78 3.0251 6.78 6.7803-3.025 6.7802-6.78 6.7802zm18.672 17.8373c-3.755 0-6.78-3.025-6.78-6.7802 0-3.7553 3.025-6.7803 6.78-6.7803s6.78 3.025 6.78 6.7803c.105 3.7552-3.025 6.7802-6.78 6.7802z" fill="#1899d3"/></svg>