<svg xmlns="http://www.w3.org/2000/svg" width="50%" height="50%" viewBox="0 0 535 546" style="color: #23292e;"><title>google-github-actions</title><g fill="none"><path fill="#4285F4" d="M534.5 279.4c0-18.5-1.5-37.1-4.7-55.3H273.1v104.8h147c-6.1 33.8-25.7 63.7-54.4 82.7v68h87.7c51.5-47.4 81.1-117.4 81.1-200.2z"></path><path fill="#34A853" d="M273.1 545.3c73.4 0 135.3-24.1 180.4-65.7l-87.7-68c-24.4 16.6-55.9 26-92.6 26-71 0-131.2-47.9-152.8-112.3H29.9v70.1c46.2 91.9 140.3 149.9 243.2 149.9z"></path><path fill="#FBBC04" d="M120.3 325.3c-11.4-33.8-11.4-70.4 0-104.2V151H29.9c-38.6 76.9-38.6 167.5 0 244.4l90.4-70.1z"></path><path fill="#EA4335" d="M273.1 108.7c38.8-.6 76.3 14 104.4 40.8l77.7-77.7C406 25.6 340.7.2 273.1 1 170.2 1 76.1 59 29.9 151l90.4 70.1c21.5-64.5 81.8-112.4 152.8-112.4z"></path></g></svg>
