<svg width="32" height="32" viewBox="0 0 32 32" fill="none" xmlns="http://www.w3.org/2000/svg">
<path d="M0 16C0 7.16 7.16 0 16 0C24.1626 0 30.8929 6.10479 31.8764 14H26.1444C25.9339 12.7632 25.3856 11.7226 24.6 10.86C24.76 10.46 25.32 8.82 24.44 6.62C24.44 6.62 23.1 6.18 20.04 8.26C18.76 7.9 17.4 7.72 16.04 7.72C14.68 7.72 13.32 7.9 12.04 8.26C8.98 6.2 7.64 6.62 7.64 6.62C6.76 8.82 7.32 10.46 7.48 10.86C6.46 11.98 5.84 13.42 5.84 15.16C5.84 20.6387 8.82119 22.3187 12 22.8976V25.2442C11.0224 25.6632 8.83035 26.2166 7.44 23.88C7.14 23.4 6.24 22.22 4.98 22.24C3.64 22.26 4.44 23 5 23.3C5.68 23.68 6.46 25.1 6.64 25.56C6.95947 26.4585 7.99655 28.1743 12 27.4437V30.6814C11.8951 31.0116 11.5751 31.2911 10.94 31.18C4.58 29.06 0 23.08 0 16Z" fill="#24292E"/>
<path fill-rule="evenodd" clip-rule="evenodd" d="M23.0858 24.5L18.2929 29.2929L19.7071 30.7071L24.5 25.9142L29.2929 30.7071L30.7071 29.2929L25.9142 24.5L30.7071 19.7071L29.2929 18.2929L24.5 23.0858L19.7071 18.2929L18.2929 19.7071L23.0858 24.5Z" fill="#AB000D"/>
</svg>
