<svg width="32" height="32" viewBox="0 0 32 32" fill="none" xmlns="http://www.w3.org/2000/svg">
<rect width="32" height="32" rx="3" fill="black"/>
<path d="M3 15.8162C3 8.73524 8.8175 3 16 3C21.698 3 26.5369 6.60948 28.2938 11.6369L28.293 11.636L24.3101 15.6189C24.3167 15.4645 24.32 15.306 24.32 15.1433C24.32 13.7335 23.8162 12.5961 22.9875 11.699C23.1175 11.3786 23.5725 10.0649 22.8575 8.30269C22.8575 8.30269 21.7688 7.95025 19.2825 9.61635C18.2425 9.32799 17.1375 9.1838 16.0325 9.1838C14.9275 9.1838 13.8225 9.32799 12.7825 9.61635C10.2962 7.96627 9.2075 8.30269 9.2075 8.30269C8.4925 10.0649 8.9475 11.3786 9.0775 11.699C8.24875 12.5961 7.745 13.7496 7.745 15.1433C7.745 20.0455 10.7675 21.1509 13.66 21.4713C13.2863 21.7917 12.945 22.3524 12.8313 23.1855C12.0838 23.5219 10.215 24.0666 9.045 22.1281C8.80125 21.7437 8.07 20.7985 7.04625 20.8145C5.9575 20.8305 6.6075 21.4232 7.0625 21.6636C7.615 21.9679 8.24875 23.1054 8.395 23.4738C8.655 24.1947 9.5 25.5725 12.7663 24.9797C12.7663 25.6801 12.7732 26.3532 12.778 26.821C12.7793 26.9456 12.7804 27.0557 12.7812 27.1478L11.9449 27.9841C11.9265 27.9817 11.9078 27.9788 11.8888 27.9755C6.72125 26.2774 3 21.4873 3 15.8162Z" fill="#E4E4E4"/>
<path fill-rule="evenodd" clip-rule="evenodd" d="M22.0859 23.5L17.293 28.2929L18.7072 29.7071L23.5001 24.9142L28.293 29.7071L29.7072 28.2929L24.9143 23.5L29.7072 18.7071L28.293 17.2929L23.5001 22.0858L18.7072 17.2929L17.293 18.7071L22.0859 23.5Z" fill="#EA4A5A"/>
</svg>
