<svg width="32" height="32" viewBox="0 0 32 32" fill="none" xmlns="http://www.w3.org/2000/svg">
<path d="M0 16C0 7.16 7.16 0 16 0C23.037 0 29.0094 4.53712 31.1529 10.8471L26.2271 15.773C26.2356 15.5741 26.24 15.3698 26.24 15.16C26.24 13.4 25.62 11.98 24.6 10.86C24.76 10.46 25.32 8.82 24.44 6.62C24.44 6.62 23.1 6.18 20.04 8.26C18.76 7.9 17.4 7.72 16.04 7.72C14.68 7.72 13.32 7.9 12.04 8.26C8.98 6.2 7.64 6.62 7.64 6.62C6.76 8.82 7.32 10.46 7.48 10.86C6.46 11.98 5.84 13.42 5.84 15.16C5.84 20.6387 8.82119 22.3187 12 22.8976V25.2442C11.0224 25.6632 8.83035 26.2166 7.44 23.88C7.14 23.4 6.24 22.22 4.98 22.24C3.64 22.26 4.44 23 5 23.3C5.68 23.68 6.46 25.1 6.64 25.56C6.95947 26.4585 7.99655 28.1743 12 27.4437V30.6814C11.8951 31.0116 11.5751 31.2911 10.94 31.18C4.58 29.06 0 23.08 0 16Z" fill="#24292E"/>
<path fill-rule="evenodd" clip-rule="evenodd" d="M30.7071 21.2071L20.5 31.4142L15.2929 26.2071L16.7071 24.7929L20.5 28.5858L29.2929 19.7929L30.7071 21.2071Z" fill="#00791C"/>
</svg>
