<svg width="32" height="32" viewBox="0 0 32 32" fill="none" xmlns="http://www.w3.org/2000/svg">
<rect width="32" height="32" rx="3" fill="black"/>
<path fill-rule="evenodd" clip-rule="evenodd" d="M16 3C8.8175 3 3 8.73524 3 15.8162C3 21.4873 6.72125 26.2774 11.8887 27.9755C12.5387 28.0877 12.7825 27.7032 12.7825 27.3667C12.7825 27.0624 12.7663 26.0531 12.7663 24.9797C9.5 25.5725 8.655 24.1947 8.395 23.4738C8.24875 23.1054 7.615 21.9679 7.0625 21.6636C6.6075 21.4232 5.9575 20.8305 7.04625 20.8145C8.07 20.7985 8.80125 21.7437 9.045 22.1281C10.215 24.0666 12.0838 23.5219 12.8313 23.1855C12.945 22.3524 13.2862 21.7917 13.66 21.4713C10.7675 21.1509 7.745 20.0455 7.745 15.1433C7.745 13.7496 8.24875 12.5961 9.0775 11.699C8.9475 11.3786 8.4925 10.0649 9.2075 8.30269C9.2075 8.30269 10.2963 7.96627 12.7825 9.61635C13.8225 9.32799 14.9275 9.1838 16.0325 9.1838C17.1375 9.1838 18.2425 9.32799 19.2825 9.61635C21.7688 7.95025 22.8575 8.30269 22.8575 8.30269C23.5725 10.0649 23.1175 11.3786 22.9875 11.699C23.8163 12.5961 24.32 13.7335 24.32 15.1433C24.32 20.0615 21.2813 21.1509 18.3888 21.4713C18.86 21.8718 19.2663 22.6408 19.2663 23.8423C19.2663 25.5565 19.25 26.9342 19.25 27.3667C19.25 27.7032 19.4938 28.1037 20.1438 27.9755C25.2788 26.2774 29 21.4713 29 15.8162C29 8.73524 23.1825 3 16 3V3Z" fill="white"/>
</svg>
