<svg fill="none" height="48" viewBox="0 0 62 48" width="62" xmlns="http://www.w3.org/2000/svg"><path clip-rule="evenodd" d="m19.1454 22.2058c-.1246-.3916-.1958-.9255-.1958-1.584h-.0356v-5.7664c0-1.9577-.4983-3.4171-1.4772-4.3782-.9966-.96107-2.545-1.4416-4.6629-1.4416-.9789 0-1.9043.10678-2.77642.33815-.87207.21357-1.61957.48053-2.24248.80085-.24917.1246-.40935.2492-.49833.3738-.08899.1246-.12459.3381-.12459.6229v.8721c0 .3737.12459.5517.37375.5517.07119 0 .16018-.0178.28476-.0534s.33816-.1068.62292-.2314c.62291-.2491 1.26362-.4449 1.92209-.6051.6585-.1602 1.2993-.2313 1.9222-.2313 1.3704 0 2.3314.2669 2.901.8186.5517.5518.8364 1.495.8364 2.8476v1.2993c-.7119-.1602-1.3882-.3026-2.0467-.3916s-1.2814-.1424-1.8865-.1424c-1.8331 0-3.27475.4628-4.3604 1.3882-1.08564.9255-1.61957 2.1535-1.61957 3.6663 0 1.4238.44494 2.5629 1.31702 3.4171.87207.8543 2.06451 1.2815 3.55945 1.2815 2.1002 0 3.8443-.8187 5.2325-2.4561.1958.4094.3738.7475.5517 1.0501.178.2847.3916.5695.6408.8364.1779.1602.3559.2492.5339.2492.1424 0 .3025-.0534.4627-.1602l1.1213-.7475c.2313-.1779.3381-.3559.3381-.5339 0-.1246-.0356-.2669-.1246-.4093-.2491-.4628-.4271-.8899-.5695-1.2814zm-5.5884.8008c-.6407.2136-1.2458.3204-1.8332.3204-.8186 0-1.4416-.2136-1.8687-.6585-.44493-.4272-.6585-1.0501-.6585-1.8865 0-.8899.28476-1.5662.8721-2.0468.5873-.4805 1.4594-.7119 2.6518-.7119.5517 0 1.1034.0356 1.673.1068.5695.0712 1.1212.178 1.6373.3026v.7475c0 .6051-.0711 1.1212-.1779 1.5484-.1068.4271-.3204.8008-.6052 1.139-.4805.5339-1.05.9255-1.6907 1.139zm11.7819 2.0646c.1424.1245.356.1779.6763.1779h1.5306c.3204 0 .5695-.0534.7119-.1779.1424-.1246.2492-.356.3382-.7119l2.7408-11.4616 2.7586 11.4793c.0712.356.1958.5874.3382.7119.1423.1246.3737.178.7119.178h1.5305c.3026 0 .534-.0712.6764-.178.1423-.1067.2669-.3381.3737-.6941l4.2892-13.7574c.0712-.1958.1068-.3382.1246-.445.0026-.0156.0052-.0308.0077-.0457.0149-.087.0279-.16303.0279-.23903 0-.30255-.1602-.44493-.445-.44493h-1.6551c-.3204 0-.5517.07119-.6941.17797-.1246.10679-.2492.33815-.356.69409l-3.0789 11.9243-2.8121-11.9243c-.0711-.33814-.1957-.5873-.3381-.69409-.1424-.12458-.3738-.17797-.7119-.17797h-1.4238c-.3204 0-.5695.07119-.7119.17797-.1424.10679-.2492.33815-.3382.69409l-2.7764 11.782-2.99-11.782c-.1067-.33814-.2135-.5873-.3559-.69409-.1246-.12458-.356-.17797-.6941-.17797h-1.7442c-.2847 0-.4271.16017-.4271.44493 0 .12463.0534.35593.1602.71193l4.1824 13.7574c.1068.3382.2314.5874.3737.6942zm20.8053.3381c.8899.2136 1.8154.3204 2.7408.3204.9077 0 1.7442-.1246 2.5451-.3738.7653-.2314 1.4238-.5517 1.9755-.9966.5517-.4272.9789-.9611 1.2992-1.5662.3026-.6051.4628-1.2992.4628-2.0645 0-.9255-.267-1.762-.8187-2.4917s-1.4772-1.2992-2.7586-1.7086l-2.5273-.8008c-.9432-.3026-1.6018-.6408-1.9577-.9789-.356-.3382-.5339-.7653-.5339-1.2636 0-.7297.2847-1.2459.8364-1.584.5518-.3382 1.3527-.4983 2.3671-.4983 1.2636 0 2.4027.2313 3.4171.6941.3026.1423.534.2135.6763.2135.267 0 .4094-.1957.4094-.5695v-.8365c0-.2491-.0534-.4449-.1602-.5873-.1068-.1602-.2847-.3025-.5339-.44492-.178-.10679-.4272-.21357-.7475-.32036-.3204-.10678-.6585-.19577-1.0145-.28476-.3737-.07119-.7475-.14238-1.1568-.19577-.3915-.05339-.8009-.07119-1.1924-.07119-.7831 0-1.5306.08899-2.2425.30256s-1.317.51613-1.851.92544c-.5339.3916-.961.8899-1.2814 1.4594-.3203.5695-.4805 1.2281-.4805 1.9755 0 .9255.3025 1.7976.8899 2.5807.5873.8009 1.5483 1.406 2.8476 1.8153l2.5806.8009c.8721.2848 1.4772.5873 1.7975.9255.3204.3381.4806.7475.4806 1.2458 0 .7297-.3204 1.2992-.9255 1.6908-.6051.3915-1.4772.5873-2.5984.5873-.7119 0-1.406-.0712-2.1179-.2136-.6941-.1424-1.3526-.3559-1.9578-.6229-.063-.0252-.1238-.0504-.1808-.0741-.1039-.043-.1951-.0809-.2641-.1039-.1068-.0356-.2136-.0534-.3204-.0534-.2669 0-.4093.178-.4093.5518v.9076c0 .1602.0356.3382.1068.4984s.267.3381.5517.4983c.4627.267 1.1568.4983 2.0467.7119zm8.5462 6.1935c-.7475-.9611-4.9477-.4627-6.852-.2314-.5695.0712-.6585-.4271-.1424-.8008 3.3459-2.3493 8.8454-1.673 9.4861-.8899.6407.8009-.178 6.3003-3.3104 8.9343-.4805.4094-.9432.1958-.7296-.3381.7119-1.762 2.2958-5.7308 1.5483-6.6741zm-2.44 2.7765c-5.8553 4.3248-14.3626 6.6207-21.6773 6.6207-10.2514 0-19.4883-3.7909-26.46494-10.0912-.55172-.4983-.05339-1.1746.60512-.7831 7.54612 4.3782 16.85422 7.0301 26.48272 7.0301 6.4961 0 13.6329-1.3527 20.2002-4.1291.9788-.4449 1.8153.6407.8542 1.3526z" fill="#24292e" fill-rule="evenodd"/></svg>