<svg fill="none" height="48" viewBox="0 0 32 48" width="32" xmlns="http://www.w3.org/2000/svg"><path clip-rule="evenodd" d="m22.2842 16.5689c-1.1556-1.0845-3.1822-2.3823-6.1866-2.3823-4.231 0-7.82208 2.7911-9.12003 6.6487l.00002.0005c-.32.9955-.51548 2.0621-.51548 3.1644 0 1.1021.19546 2.1688.53317 3.1642 1.28013 3.8578 4.87122 6.6488 9.10232 6.6488 2.3821 0 4.1955-.6578 5.5466-1.6v.0001l.0001-.0003c2.1334-1.4932 3.0934-3.7155 3.2711-5.1911h-8.8177v-5.9377h15.0222c.231.9956.3378 1.9556.3378 3.2711 0 4.8711-1.7423 8.9778-4.7645 11.7689h-.0004l.0003.0002c-2.649 2.4533-6.2756 3.8756-10.5955 3.8756-6.25776 0-11.66215-3.5911-14.29328-8.8176h-.00004c-1.084395-2.1689-1.7066238-4.6044-1.7066238-7.1822 0-2.5777.6222288-5.0133 1.7066238-7.1823h.00013l-.00021-.0002c2.63108-5.2266 8.03554-8.8177 14.2934-8.8177 4.3199 0 7.9289 1.58223 10.7021 4.16z" fill="#24292e" fill-rule="evenodd"/></svg>