<svg fill="none" height="160" viewBox="0 0 160 160" width="160" xmlns="http://www.w3.org/2000/svg" xmlns:xlink="http://www.w3.org/1999/xlink"><filter id="a" color-interpolation-filters="sRGB" filterUnits="userSpaceOnUse" height="150.551" width="153.333" x="3.33203" y="5"><feFlood flood-opacity="0" result="BackgroundImageFix"/><feColorMatrix in="SourceAlpha" type="matrix" values="0 0 0 0 0 0 0 0 0 0 0 0 0 0 0 0 0 0 127 0"/><feOffset dy="1"/><feColorMatrix type="matrix" values="0 0 0 0 1 0 0 0 0 1 0 0 0 0 1 0 0 0 0.1 0"/><feBlend in2="BackgroundImageFix" mode="normal" result="effect1_dropShadow"/><feBlend in="SourceGraphic" in2="effect1_dropShadow" mode="normal" result="shape"/></filter><linearGradient id="b" gradientUnits="userSpaceOnUse" x1="79.9987" x2="79.9987" y1="5" y2="154.551"><stop offset="0"/><stop offset="1" stop-color="#121417"/></linearGradient><g filter="url(#a)"><path clip-rule="evenodd" d="m79.9987 5c-42.3583 0-76.66667 34.3083-76.66667 76.6667 0 33.9253 21.94587 62.5793 52.42087 72.7373 3.8333.671 5.2708-1.629 5.2708-3.642 0-1.82-.0958-7.858-.0958-14.279-19.2625 3.546-24.2459-4.696-25.7792-9.008-.8625-2.204-4.6-9.008-7.8583-10.829-2.6834-1.438-6.5167-4.984-.0959-5.079 6.0375-.096 10.35 5.558 11.7875 7.858 6.9 11.596 17.9209 8.337 22.3292 6.325.6708-4.983 2.6833-8.338 4.8875-10.254-17.0583-1.917-34.8833-8.529-34.8833-37.8543 0-8.3375 2.9708-15.2375 7.8583-20.6042-.7667-1.9167-3.45-9.775.7667-20.3167 0 0 6.4208-2.0125 21.0833 7.8584 6.1333-1.725 12.65-2.5875 19.1667-2.5875 6.5166 0 13.0333.8625 19.1666 2.5875 14.663-9.9667 21.083-7.8584 21.083-7.8584 4.217 10.5417 1.534 18.4.767 20.3167 4.888 5.3667 7.858 12.1708 7.858 20.6042 0 29.4203-17.92 35.9373-34.9788 37.8543 2.7792 2.396 5.175 6.996 5.175 14.183 0 10.254-.0958 18.496-.0958 21.083 0 2.013 1.4376 4.409 5.2706 3.642 30.284-10.158 52.229-38.908 52.229-72.7373 0-42.3584-34.308-76.6667-76.6663-76.6667z" fill="url(#b)" fill-rule="evenodd"/></g></svg>