<svg fill="none" height="93" viewBox="0 0 92 93" width="92" xmlns="http://www.w3.org/2000/svg" xmlns:xlink="http://www.w3.org/1999/xlink"><linearGradient id="a"><stop offset="0" stop-color="#1b1f23" stop-opacity="0"/><stop offset="1" stop-color="#1b1f23"/></linearGradient><linearGradient id="b" gradientUnits="userSpaceOnUse" x1="46" x2="46" xlink:href="#a" y1="76.0782" y2="92.0782"/><linearGradient id="c" gradientUnits="userSpaceOnUse" x1="46" x2="46" xlink:href="#a" y1="16.0782" y2=".078163"/><linearGradient id="d" gradientUnits="userSpaceOnUse" x1="76" x2="92" xlink:href="#a" y1="48.0782" y2="48.0782"/><linearGradient id="e" gradientUnits="userSpaceOnUse" x1="16" x2="0" xlink:href="#a" y1="47.0782" y2="47.0782"/><linearGradient id="f" gradientUnits="userSpaceOnUse" x1="46.2806" x2="46.2806" y1="21.1246" y2="71.5919"><stop offset="0"/><stop offset="1" stop-color="#121417"/></linearGradient><clipPath id="g"><path d="m0 .039063h92v92h-92z"/></clipPath><g clip-path="url(#g)"><path d="m30 77.0391v14" stroke="#6a737d" stroke-linecap="round" stroke-width="2"/><path d="m38 77.0391v14" stroke="#6a737d" stroke-linecap="round" stroke-width="2"/><path d="m46 77.0391v14" stroke="#6a737d" stroke-linecap="round" stroke-width="2"/><path d="m54 77.0391v14" stroke="#6a737d" stroke-linecap="round" stroke-width="2"/><path d="m62 77.0391v14" stroke="#6a737d" stroke-linecap="round" stroke-width="2"/><path d="m63 76.0391h-34v16h34z" fill="url(#b)"/><path d="m62 15.0391v-14.00004" stroke="#6a737d" stroke-linecap="round" stroke-width="2"/><path d="m54 15.0391v-14.00004" stroke="#6a737d" stroke-linecap="round" stroke-width="2"/><path d="m46 15.0391v-14.00004" stroke="#6a737d" stroke-linecap="round" stroke-width="2"/><path d="m38 15.0391v-14.00004" stroke="#6a737d" stroke-linecap="round" stroke-width="2"/><path d="m30 15.0391v-14.00004" stroke="#6a737d" stroke-linecap="round" stroke-width="2"/><path d="m63 .0390625h-34v16.0000375h34z" fill="url(#c)"/><path d="m77 64.0391h14" stroke="#6a737d" stroke-linecap="round" stroke-width="2"/><path d="m77 56.0391h14" stroke="#6a737d" stroke-linecap="round" stroke-width="2"/><path d="m77 48.0391h14" stroke="#6a737d" stroke-linecap="round" stroke-width="2"/><path d="m77 40.0391h14" stroke="#6a737d" stroke-linecap="round" stroke-width="2"/><path d="m77 32.0391h14" stroke="#6a737d" stroke-linecap="round" stroke-width="2"/><path d="m92 31.0391h-16v34h16z" fill="url(#d)"/><path d="m15 31.0391h-14" stroke="#6a737d" stroke-linecap="round" stroke-width="2"/><path d="m15 39.0391h-14" stroke="#6a737d" stroke-linecap="round" stroke-width="2"/><path d="m15 47.0391h-14" stroke="#6a737d" stroke-linecap="round" stroke-width="2"/><path d="m15 55.0391h-14" stroke="#6a737d" stroke-linecap="round" stroke-width="2"/><path d="m15 63.0391h-14" stroke="#6a737d" stroke-linecap="round" stroke-width="2"/><path d="m16 30.0391h-16v34h16z" fill="url(#e)"/><path d="m26 16.0391h40c5.5 0 10 4.5 10 10v40c0 5.5-4.5 10-10 10h-40c-5.5 0-10-4.5-10-10v-40c0-5.5 4.5-10 10-10z" fill="#24292e" fill-opacity=".75"/><path d="m26 15.5391h40c5.8 0 10.5 4.7 10.5 10.5v40c0 5.8-4.7 10.5-10.5 10.5h-40c-5.8 0-10.5-4.7-10.5-10.5v-40c0-5.8 4.7-10.5 10.5-10.5z" stroke="#586069"/><path d="m26 19.6387h40.5c3.6 0 6.5 2.9 6.5 6.5v40.5c0 3.6-2.9 6.5-6.5 6.5h-40.5c-3.6 0-6.5-2.9-6.5-6.5v-40.5c0-3.6 3-6.5 6.5-6.5z" fill="#1c2024" stroke="url(#f)" stroke-width="3"/><g fill="#000" fill-opacity=".6"><path d="m28 27.0391c0 1.1-.9 2-2 2s-2-.9-2-2 .9-2 2-2 2 .9 2 2z"/><path d="m36 27.0391c0 1.1-.9 2-2 2s-2-.9-2-2 .9-2 2-2 2 .9 2 2z"/><path d="m44 27.0391c0 1.1-.9 2-2 2s-2-.9-2-2 .9-2 2-2 2 .9 2 2z"/><path d="m52 27.0391c0 1.1-.9 2-2 2s-2-.9-2-2 .9-2 2-2 2 .9 2 2z"/><path d="m60 27.0391c0 1.1-.9 2-2 2s-2-.9-2-2 .9-2 2-2 2 .9 2 2z"/><path d="m68 27.0391c0 1.1-.9 2-2 2s-2-.9-2-2 .9-2 2-2 2 .9 2 2z"/><path d="m28 35.0391c0 1.1-.9 2-2 2s-2-.9-2-2 .9-2 2-2 2 .9 2 2z"/><path d="m36 35.0391c0 1.1-.9 2-2 2s-2-.9-2-2 .9-2 2-2 2 .9 2 2z"/><path d="m44 35.0391c0 1.1-.9 2-2 2s-2-.9-2-2 .9-2 2-2 2 .9 2 2z"/><path d="m52 35.0391c0 1.1-.9 2-2 2s-2-.9-2-2 .9-2 2-2 2 .9 2 2z"/><path d="m60 35.0391c0 1.1-.9 2-2 2s-2-.9-2-2 .9-2 2-2 2 .9 2 2z"/><path d="m68 35.0391c0 1.1-.9 2-2 2s-2-.9-2-2 .9-2 2-2 2 .9 2 2z"/><path d="m28 43.0391c0 1.1-.9 2-2 2s-2-.9-2-2 .9-2 2-2 2 .9 2 2z"/><path d="m36 43.0391c0 1.1-.9 2-2 2s-2-.9-2-2 .9-2 2-2 2 .9 2 2z"/><path d="m60 43.0391c0 1.1-.9 2-2 2s-2-.9-2-2 .9-2 2-2 2 .9 2 2z"/><path d="m68 43.0391c0 1.1-.9 2-2 2s-2-.9-2-2 .9-2 2-2 2 .9 2 2z"/><path d="m28 51.0391c0 1.1-.9 2-2 2s-2-.9-2-2 .9-2 2-2 2 .9 2 2z"/><path d="m36 51.0391c0 1.1-.9 2-2 2s-2-.9-2-2 .9-2 2-2 2 .9 2 2z"/><path d="m60 51.0391c0 1.1-.9 2-2 2s-2-.9-2-2 .9-2 2-2 2 .9 2 2z"/><path d="m68 51.0391c0 1.1-.9 2-2 2s-2-.9-2-2 .9-2 2-2 2 .9 2 2z"/><path d="m28 59.0391c0 1.1-.9 2-2 2s-2-.9-2-2 .9-2 2-2 2 .9 2 2z"/><path d="m36 59.0391c0 1.1-.9 2-2 2s-2-.9-2-2 .9-2 2-2 2 .9 2 2z"/><path d="m44 59.0391c0 1.1-.9 2-2 2s-2-.9-2-2 .9-2 2-2 2 .9 2 2z"/><path d="m52 59.0391c0 1.1-.9 2-2 2s-2-.9-2-2 .9-2 2-2 2 .9 2 2z"/><path d="m60 59.0391c0 1.1-.9 2-2 2s-2-.9-2-2 .9-2 2-2 2 .9 2 2z"/><path d="m68 59.0391c0 1.1-.9 2-2 2s-2-.9-2-2 .9-2 2-2 2 .9 2 2z"/><path d="m28 67.0391c0 1.1-.9 2-2 2s-2-.9-2-2 .9-2 2-2 2 .9 2 2z"/><path d="m36 67.0391c0 1.1-.9 2-2 2s-2-.9-2-2 .9-2 2-2 2 .9 2 2z"/><path d="m44 67.0391c0 1.1-.9 2-2 2s-2-.9-2-2 .9-2 2-2 2 .9 2 2z"/><path d="m52 67.0391c0 1.1-.9 2-2 2s-2-.9-2-2 .9-2 2-2 2 .9 2 2z"/><path d="m60 67.0391c0 1.1-.9 2-2 2s-2-.9-2-2 .9-2 2-2 2 .9 2 2z"/><path d="m68 67.0391c0 1.1-.9 2-2 2s-2-.9-2-2 .9-2 2-2 2 .9 2 2z"/></g></g></svg>