<svg version="1.1" id="Layer_2" xmlns="http://www.w3.org/2000/svg" x="0" y="0" viewBox="0 0 75.9 72.9" xml:space="preserve"><style>.st1{fill:#79b8ff}.st2{fill-rule:evenodd;clip-rule:evenodd}.st2,.st3{fill:#2188ff}</style><path d="M52.3 63l-1.5.1c-.8 0-1.5-.6-1.5-1.4 0-.8.6-1.5 1.4-1.5h1.6c.7-4.9 5-8.8 10.1-8.8 5.6 0 10.2 4.6 10.2 10.2S68 71.7 62.4 71.7c-5.1 0-9.4-3.8-10.1-8.7zm2.8-1.5c0-4 3.3-7.3 7.3-7.3s7.3 3.3 7.3 7.3-3.3 7.3-7.3 7.3-7.3-3.2-7.3-7.3z" fill-rule="evenodd" clip-rule="evenodd" fill="#79b8ff"/><path class="st1" d="M34.7 61.5c0-.8-.7-1.5-1.5-1.5s-1.5.7-1.5 1.5.7 1.5 1.5 1.5c.9 0 1.5-.7 1.5-1.5zM39.1 60.1c.8 0 1.5.7 1.5 1.5s-.7 1.5-1.5 1.5-1.5-.7-1.5-1.5c0-.9.7-1.5 1.5-1.5z"/><path class="st2" d="M15.9 9.3c-1.9-1.2-4.5.2-4.5 2.5V21c0 2.3 2.5 3.7 4.4 2.5l7.4-4.6c1.8-1.1 1.8-3.8 0-4.9l-7.3-4.7zm-1.6 2.4l7.4 4.7-7.4 4.6v-9.3z"/><path class="st3" d="M66.4 35.2c.6.6.6 1.5 0 2.1l-4.5 4.5c-.6.6-1.5.6-2.1 0l-2.2-2.2c-.6-.6-.6-1.5 0-2.1.6-.6 1.5-.6 2.1 0l1.1 1.1 3.4-3.4c.7-.6 1.6-.6 2.2 0zM40.2 35.2c.6.6.6 1.5 0 2.1l-4.5 4.5c-.6.6-1.5.6-2.1 0l-2.2-2.2c-.6-.6-.6-1.5 0-2.1.6-.6 1.5-.6 2.1 0l1.1 1.1 3.4-3.4c.7-.6 1.6-.6 2.2 0z"/><path class="st2" d="M2.7 16.4c0-8 6.5-14.6 14.6-14.6 8 0 14.6 6.5 14.6 14.6 0 8-6.4 14.5-14.4 14.6.7 3.3 3.6 5.8 7.1 5.8h1.6c.7-4.9 5-8.7 10.1-8.7s9.4 3.8 10.1 8.7h6c.7-4.9 5-8.7 10.1-8.7 5.6 0 10.2 4.6 10.2 10.2S68 48.4 62.4 48.4c-5.1 0-9.4-3.8-10.1-8.7h-6c-.7 4.9-5 8.7-10.1 8.7s-9.4-3.8-10.1-8.7h-1.6c-2.8 0-5.4-1.2-7.2-3v14.7c0 4.8 4 8.7 8.7 8.7h.1c.7-4.9 5-8.7 10.1-8.7 5.6 0 10.2 4.6 10.2 10.2s-4.6 10.2-10.2 10.2c-5.1 0-9.4-3.8-10.1-8.7H26c-6.4 0-11.7-5.2-11.7-11.7V30.7C7.7 29.3 2.7 23.4 2.7 16.4zM17.2 4.7c-6.4 0-11.7 5.2-11.7 11.7S10.8 28 17.2 28s11.7-5.2 11.7-11.7S23.7 4.7 17.2 4.7zm37.9 33.5c0 4 3.3 7.3 7.3 7.3s7.3-3.3 7.3-7.3-3.3-7.3-7.3-7.3-7.3 3.3-7.3 7.3zM36.2 68.8c-4 0-7.3-3.3-7.3-7.3s3.3-7.3 7.3-7.3 7.3 3.3 7.3 7.3c0 4.1-3.3 7.3-7.3 7.3zm0-37.9c-4 0-7.3 3.3-7.3 7.3s3.3 7.3 7.3 7.3 7.3-3.3 7.3-7.3-3.3-7.3-7.3-7.3z"/></svg>