<svg viewBox="0 0 66.18 58.22" xmlns="http://www.w3.org/2000/svg"><path d="M33.09 40.92a1 1 0 01-1-1v-22a1 1 0 112 0v22a1 1 0 01-1 1z" fill="#79b8ff"/><path d="M33.09 18.93a4.64 4.64 0 114.59-4.69 4.64 4.64 0 01-4.59 4.69zm0-7.28a2.64 2.64 0 102.59 2.69 2.64 2.64 0 00-2.59-2.69zm0 36.71a4.64 4.64 0 114.59-4.69 4.64 4.64 0 01-4.59 4.69zm0-7.28a2.64 2.64 0 102.59 2.69 2.64 2.64 0 00-2.59-2.62zm0-3.26H33a1 1 0 01-.87-1.11 8 8 0 015-6.12 12.25 12.25 0 014.66-.84c2.34 0 4.09-.6 5.2-1.77a5.46 5.46 0 001.36-3.7 1.002 1.002 0 012-.13 7.43 7.43 0 01-1.88 5.18c-1.5 1.61-3.75 2.42-6.68 2.42a10.29 10.29 0 00-3.91.69A6.05 6.05 0 0034 36.99a1 1 0 01-.91.83z" fill="#79b8ff"/><g fill="#2088ff"><path d="M18.75 42.18H2.38A2.47 2.47 0 010 39.8V27.42a2.3 2.3 0 012.23-2.37h16.52a2.3 2.3 0 012.38 2.22V39.8a2.3 2.3 0 01-2.22 2.38zM2.38 27.05a.32.32 0 00-.38.38V39.8a.52.52 0 00.38.38h16.37a.32.32 0 00.38-.38V27.42a.32.32 0 00-.26-.37z"/><path d="M17.13 26.18h-2V22.1a4.64 4.64 0 00-9.28 0v4.13h-2V22.1a6.64 6.64 0 0113.28 0z"/><circle cx="10.63" cy="32.65" r="2.2"/><path d="M10.68 37.36a1 1 0 01-1-1v-2.75a1 1 0 012 0v2.75a1 1 0 01-1 1z"/></g><path d="M49.36 25.2A4.64 4.64 0 1154 20.56a4.64 4.64 0 01-4.64 4.64zm0-7.28A2.64 2.64 0 1052 20.56a2.64 2.64 0 00-2.64-2.63z" fill="#79b8ff"/><path d="M37.07 58.22a28.88 28.88 0 01-20.85-8.81 1.018 1.018 0 111.46-1.42 27.09 27.09 0 100-37.82 1.012 1.012 0 01-1.47-1.39 29.11 29.11 0 1120.86 49.44z" fill="#2088ff"/></svg>