<svg version="1.1" id="Layer_3" xmlns="http://www.w3.org/2000/svg" x="0" y="0" viewBox="0 0 75.9 72.9" xml:space="preserve"><style>.st0{fill:#79b8ff}.st1,.st2{fill:#2188ff}.st2{fill-rule:evenodd;clip-rule:evenodd}</style><path class="st0" d="M32.3 4.2c0-.7.6-1.3 1.3-1.3h8c.7 0 1.3.6 1.3 1.3s-.6 1.3-1.3 1.3h-3.4l-4.5 5.3h6.5c.7 0 1.3.6 1.3 1.3s-.6 1.3-1.3 1.3h-16c-.7 0-1.3-.6-1.3-1.3s.6-1.3 1.3-1.3h6.1l4.5-5.3h-1.1c-.8 0-1.4-.5-1.4-1.3zM32.3 68.4c0-.7.6-1.3 1.3-1.3h2l4.5-5.4H35c-.7 0-1.3-.6-1.3-1.3 0-.7.6-1.3 1.3-1.3h16c.7 0 1.3.6 1.3 1.3 0 .7-.6 1.3-1.3 1.3h-7.4l-4.5 5.4h2.5c.7 0 1.3.6 1.3 1.3 0 .7-.6 1.3-1.3 1.3h-8c-.7 0-1.3-.6-1.3-1.3zM56.4 24.3c0-.7.6-1.3 1.3-1.3h6.7c.7 0 1.3.6 1.3 1.3 0 .7-.6 1.3-1.3 1.3h-6.7c-.7 0-1.3-.6-1.3-1.3zM60.4 36.3c0-.7.6-1.3 1.3-1.3h8c.7 0 1.3.6 1.3 1.3 0 .7-.6 1.3-1.3 1.3h-8c-.7 0-1.3-.6-1.3-1.3zM12.4 37.6c.5.5.9 1 1.2 1.5 1.6 2.3 2.3 5.3 2.3 7.9h1.6c.7 0 1.3.6 1.3 1.3 0 .7-.6 1.3-1.3 1.3h-6.7c-.7 0-1.3-.6-1.3-1.3 0-.7.6-1.3 1.3-1.3h2.4c0-2.1-.6-4.5-1.9-6.4-1.2-1.8-3-3-5.4-3h-.4c-.7 0-1.3-.6-1.3-1.3 0-.7.6-1.3 1.3-1.3h8c.7 0 1.3.6 1.3 1.3 0 .7-.6 1.3-1.3 1.3h-1.1z"/><path class="st1" d="M55 8.2c0-.7-.6-1.3-1.3-1.3s-1.3.6-1.3 1.3v2.7h-2.7c-.7 0-1.3.6-1.3 1.3 0 .7.6 1.3 1.3 1.3h2.7v2.7c0 .7.6 1.3 1.3 1.3S55 17 55 16.2v-2.7h2.7c.7 0 1.3-.6 1.3-1.3 0-.7-.6-1.3-1.3-1.3H55V8.2zM16.2 60.4c0-.7.6-1.3 1.3-1.3h2.7v-2.7c0-.7.6-1.3 1.3-1.3.7 0 1.3.6 1.3 1.3V59h2.7c.7 0 1.3.6 1.3 1.3s-.6 1.3-1.3 1.3h-2.7v2.7c0 .7-.6 1.3-1.3 1.3-.7 0-1.3-.6-1.3-1.3v-2.7h-2.7c-.7.1-1.3-.5-1.3-1.2zM8.2 22.9c0-.7.6-1.3 1.3-1.3h8c.7 0 1.3.6 1.3 1.3 0 .7-.6 1.3-1.3 1.3h-8c-.7.1-1.3-.5-1.3-1.3zM57.7 48.3c-.7 0-1.3.6-1.3 1.3 0 .7.6 1.3 1.3 1.3h8c.7 0 1.3-.6 1.3-1.3 0-.7-.6-1.3-1.3-1.3h-8z"/><path class="st2" d="M41.9 27.8c.5-.5.5-1.4-.1-1.9-.5-.5-1.4-.5-1.9.1l-2.7 2.9c-.5.5-.5 1.4.1 1.9l2.9 2.7c.5.5 1.4.5 1.9-.1.5-.5.5-1.4-.1-1.9l-.7-.7h.5c.7 0 1.3.6 1.3 1.3V39c-1.6.5-2.7 2-2.7 3.8 0 2.2 1.8 4 4 4s4-1.8 4-4c0-1.8-1.1-3.2-2.7-3.8v-6.9c0-2.2-1.8-4-4-4h-.3l.5-.3zm2.4 13.8c-.7 0-1.3.6-1.3 1.3 0 .7.6 1.3 1.3 1.3.7 0 1.3-.6 1.3-1.3.1-.7-.5-1.3-1.3-1.3zM31.6 25.6c-2.2 0-4 1.8-4 4 0 1.7 1.1 3.2 2.7 3.8v5.8c-1.6.6-2.7 2-2.7 3.8 0 2.2 1.8 4 4 4s4-1.8 4-4c0-1.7-1.1-3.2-2.7-3.8v-5.8c1.6-.5 2.7-2 2.7-3.8 0-2.2-1.8-4-4-4zm-1.3 4c0-.7.6-1.3 1.3-1.3.7 0 1.3.6 1.3 1.3 0 .7-.6 1.3-1.3 1.3-.7 0-1.3-.6-1.3-1.3zm0 13.4c0-.7.6-1.3 1.3-1.3.7 0 1.3.6 1.3 1.3 0 .7-.6 1.3-1.3 1.3-.7 0-1.3-.6-1.3-1.3z"/><path class="st2" d="M37.7 16.2c-11.1 0-20.1 9-20.1 20.1s9 20.1 20.1 20.1 20.1-9 20.1-20.1-9.1-20.1-20.1-20.1zM20.3 36.3c0-9.6 7.8-17.4 17.4-17.4 9.6 0 17.4 7.8 17.4 17.4s-7.8 17.4-17.4 17.4c-9.6 0-17.4-7.8-17.4-17.4z"/></svg>