<svg xmlns="http://www.w3.org/2000/svg" width="924" height="371" fill="none"><g filter="url(#a)" opacity=".8"><path fill="url(#b)" d="M52 5.143A4.143 4.143 0 0 1 56.143 1h806.714A4.143 4.143 0 0 1 867 5.143v360.714a4.143 4.143 0 0 1-4.143 4.143H56.143A4.143 4.143 0 0 1 52 365.857V5.143Z"/><path stroke="url(#c)" stroke-width=".942" d="M862.857.53H56.143a4.614 4.614 0 0 0-4.614 4.613v360.714a4.614 4.614 0 0 0 4.614 4.614h806.714a4.614 4.614 0 0 0 4.614-4.614V5.143a4.614 4.614 0 0 0-4.614-4.614Z"/></g><g filter="url(#d)"><g clip-path="url(#e)"><rect width="105" height="28" x="743" y="16" fill="#2F363D" rx="6"/><path fill="#959DA5" fill-rule="evenodd" d="M757.75 24.5a.25.25 0 0 0-.25.25v2.5a.75.75 0 0 1-1.5 0v-2.5c0-.966.784-1.75 1.75-1.75h2.5a.75.75 0 0 1 0 1.5h-2.5Zm7.25-.75a.75.75 0 0 1 .75-.75h2.5c.966 0 1.75.784 1.75 1.75v2.5a.75.75 0 0 1-1.5 0v-2.5a.25.25 0 0 0-.25-.25h-2.5a.75.75 0 0 1-.75-.75ZM756.75 32a.75.75 0 0 1 .75.75v2.5c0 .138.112.25.25.25h2.5a.75.75 0 0 1 0 1.5h-2.5a1.75 1.75 0 0 1-1.75-1.75v-2.5a.75.75 0 0 1 .75-.75Zm12.5 0a.75.75 0 0 1 .75.75v2.5a1.75 1.75 0 0 1-1.75 1.75h-2.5a.75.75 0 0 1 0-1.5h2.5a.25.25 0 0 0 .25-.25v-2.5a.75.75 0 0 1 .75-.75Z" clip-rule="evenodd"/><path fill="#fff" d="M777.555 34v-3.451h3.545v-1.23h-3.545v-2.503h3.879v-1.271h-5.391V34h1.512Zm10.98-6.404h-1.453v3.732c0 .967-.516 1.553-1.459 1.553-.867 0-1.271-.48-1.271-1.477v-3.808h-1.454v4.16c0 1.5.821 2.373 2.221 2.373.979 0 1.606-.416 1.916-1.148h.1V34h1.4v-6.404Zm1.84 6.404h1.453v-8.883h-1.453V34Zm3.352 0h1.453v-8.883h-1.453V34Zm3.146-4.576c0 .96.58 1.523 1.811 1.805l1.136.263c.61.14.885.375.885.738 0 .487-.51.82-1.242.82-.727 0-1.178-.292-1.318-.767h-1.436c.111 1.154 1.119 1.846 2.719 1.846 1.599 0 2.73-.814 2.73-2.04 0-.942-.568-1.464-1.793-1.745l-1.131-.252c-.644-.152-.949-.381-.949-.744 0-.475.498-.797 1.16-.797.68 0 1.108.293 1.213.744h1.365c-.105-1.154-1.06-1.822-2.584-1.822-1.511 0-2.566.802-2.566 1.95Zm12.293.31c-.152-1.324-1.148-2.261-2.795-2.261-1.928 0-3.059 1.236-3.059 3.31 0 2.098 1.137 3.346 3.065 3.346 1.623 0 2.631-.902 2.789-2.227h-1.383c-.152.674-.656 1.032-1.412 1.032-.99 0-1.588-.791-1.588-2.15 0-1.337.592-2.122 1.588-2.122.797 0 1.277.451 1.412 1.072h1.383ZM810.555 34h1.453v-3.72c0-.903.656-1.489 1.599-1.489.247 0 .633.041.745.082v-1.324a2.889 2.889 0 0 0-.604-.059c-.826 0-1.518.469-1.693 1.102h-.1v-.996h-1.4V34Zm9.006-1.752c-.211.48-.709.75-1.43.75-.955 0-1.57-.68-1.606-1.764v-.076h4.477v-.463c0-2.01-1.096-3.222-2.924-3.222-1.857 0-3.012 1.295-3.012 3.351 0 2.051 1.137 3.305 3.024 3.305 1.512 0 2.584-.727 2.848-1.881h-1.377Zm-1.489-3.644c.873 0 1.448.615 1.477 1.587h-3.018c.065-.96.674-1.587 1.541-1.587Zm8.567 3.644c-.211.48-.709.75-1.43.75-.955 0-1.57-.68-1.605-1.764v-.076h4.476v-.463c0-2.01-1.096-3.222-2.924-3.222-1.857 0-3.011 1.295-3.011 3.351 0 2.051 1.136 3.305 3.023 3.305 1.512 0 2.584-.727 2.848-1.881h-1.377Zm-1.489-3.644c.873 0 1.448.615 1.477 1.587h-3.018c.065-.96.674-1.587 1.541-1.587ZM829.539 34h1.453v-3.732c0-.961.545-1.565 1.412-1.565.885 0 1.295.498 1.295 1.494V34h1.453v-4.143c0-1.523-.779-2.384-2.209-2.384-.955 0-1.599.433-1.904 1.148h-.1v-1.025h-1.4V34Z"/></g><rect width="104" height="27" x="743.5" y="16.5" stroke="#1B1F23" stroke-opacity=".12" rx="5.5"/></g><path stroke="#D1D5DA" stroke-dasharray="0" stroke-linecap="round" stroke-linejoin="round" stroke-width="2" d="M591 143h40"/><g filter="url(#f)"><path fill="#444D56" fill-rule="evenodd" d="M632 90a6 6 0 0 1 6-6h85a6 6 0 0 1 6 6v9a6 6 0 0 0 6 6h183a6 6 0 0 1 6 6v196a6 6 0 0 1-6 6H638a6 6 0 0 1-6-6V149.922c0-.526-.474-.922-1-.922a6 6 0 1 1 0-12c.526 0 1-.396 1-.922V90Z" clip-rule="evenodd"/></g><circle cx="631.5" cy="143" r="4" fill="#6A737D"/><g clip-path="url(#g)"><rect width="260" height="44" x="648" y="121" fill="#444D56" rx="4"/><g clip-path="url(#h)"><path fill="#85E89D" fill-rule="evenodd" d="M668 151a8 8 0 1 0 0-16 8 8 0 0 0 0 16Zm3.78-9.72a.749.749 0 1 0-1.06-1.06l-3.97 3.969-1.47-1.469a.749.749 0 1 0-1.06 1.06l2 2a.749.749 0 0 0 1.06 0l4.5-4.5Z" clip-rule="evenodd"/></g><path fill="#fff" d="M685.217 138.136V148h3.698c2.953 0 4.642-1.812 4.642-4.977 0-3.096-1.709-4.887-4.642-4.887h-3.698Zm1.763 1.483h1.703c1.934 0 3.076 1.258 3.076 3.432 0 2.221-1.114 3.466-3.076 3.466h-1.703v-6.898Zm13.146 6.337c-.246.561-.827.875-1.668.875-1.114 0-1.832-.793-1.873-2.058v-.088h5.223v-.54c0-2.345-1.278-3.76-3.411-3.76-2.167 0-3.514 1.511-3.514 3.91 0 2.393 1.326 3.855 3.528 3.855 1.763 0 3.014-.847 3.322-2.194h-1.607Zm-1.736-4.252c1.019 0 1.689.718 1.723 1.853h-3.521c.075-1.121.786-1.853 1.798-1.853Zm9.044-1.299c-1.025 0-1.893.513-2.324 1.361h-.116v-1.238h-1.634v9.953h1.695v-3.616h.117c.382.793 1.21 1.258 2.283 1.258 1.887 0 3.062-1.483 3.062-3.855 0-2.393-1.189-3.863-3.083-3.863Zm-.533 6.31c-1.155 0-1.873-.937-1.88-2.447.007-1.511.732-2.448 1.887-2.448 1.162 0 1.866.916 1.866 2.448 0 1.531-.697 2.447-1.873 2.447Zm5.237 1.285h1.695v-10.363h-1.695V148Zm6.918.15c2.236 0 3.596-1.462 3.596-3.889 0-2.413-1.367-3.876-3.596-3.876-2.221 0-3.595 1.469-3.595 3.876 0 2.427 1.353 3.889 3.595 3.889Zm0-1.387c-1.182 0-1.859-.916-1.859-2.495 0-1.58.677-2.496 1.859-2.496 1.176 0 1.853.916 1.853 2.496 0 1.579-.67 2.495-1.853 2.495Zm5.674 3.944c1.675 0 2.475-.608 3.111-2.447l2.7-7.732h-1.791l-1.743 5.866h-.116l-1.75-5.866h-1.86l2.673 7.499-.089.349c-.219.704-.622.978-1.34.978-.116 0-.369-.007-.464-.021v1.347c.109.02.567.027.669.027Zm20.721-10.179h-1.688l-1.238 5.613h-.116l-1.449-5.613h-1.62l-1.436 5.613h-.116l-1.244-5.613h-1.709l2.023 7.472h1.764l1.449-5.414h.116l1.456 5.414h1.785l2.023-7.472Zm5.907 5.428c-.246.561-.828.875-1.668.875-1.115 0-1.832-.793-1.873-2.058v-.088h5.222v-.54c0-2.345-1.278-3.76-3.411-3.76-2.167 0-3.514 1.511-3.514 3.91 0 2.393 1.327 3.855 3.528 3.855 1.763 0 3.014-.847 3.322-2.194h-1.606Zm-1.737-4.252c1.019 0 1.689.718 1.723 1.853h-3.521c.076-1.121.787-1.853 1.798-1.853Zm9.127 6.419c1.886 0 3.069-1.483 3.069-3.855 0-2.386-1.176-3.863-3.069-3.863-1.026 0-1.887.499-2.277 1.313h-.116v-4.081h-1.695V148h1.634v-1.183h.116c.424.821 1.292 1.306 2.338 1.306Zm-.534-6.303c1.156 0 1.86.923 1.86 2.448 0 1.524-.697 2.447-1.86 2.447-1.162 0-1.886-.937-1.886-2.447 0-1.511.731-2.448 1.886-2.448Zm10.795 6.303c.978 0 1.798-.424 2.215-1.148h.116V148h1.634v-5.106c0-1.58-1.08-2.509-3.001-2.509-1.777 0-3.015.834-3.151 2.139h1.599c.158-.512.691-.793 1.47-.793.916 0 1.408.417 1.408 1.163v.642l-1.928.116c-1.818.103-2.836.889-2.836 2.229 0 1.367 1.032 2.242 2.474 2.242Zm.499-1.306c-.752 0-1.292-.376-1.292-1.018 0-.622.445-.971 1.395-1.032l1.688-.117v.609c0 .888-.765 1.558-1.791 1.558Zm9.434-6.412c-1.025 0-1.893.513-2.324 1.361h-.116v-1.238h-1.634v9.953h1.695v-3.616h.116c.383.793 1.21 1.258 2.284 1.258 1.886 0 3.062-1.483 3.062-3.855 0-2.393-1.189-3.863-3.083-3.863Zm-.533 6.31c-1.155 0-1.873-.937-1.88-2.447.007-1.511.732-2.448 1.887-2.448 1.162 0 1.866.916 1.866 2.448 0 1.531-.697 2.447-1.873 2.447Zm9.243-6.31c-1.026 0-1.894.513-2.325 1.361h-.116v-1.238h-1.634v9.953h1.696v-3.616h.116c.383.793 1.21 1.258 2.283 1.258 1.887 0 3.063-1.483 3.063-3.855 0-2.393-1.19-3.863-3.083-3.863Zm-.534 6.31c-1.155 0-1.873-.937-1.88-2.447.007-1.511.732-2.448 1.887-2.448 1.162 0 1.866.916 1.866 2.448 0 1.531-.697 2.447-1.873 2.447Zm15.259-6.187h-1.695v4.355c0 1.128-.602 1.811-1.703 1.811-1.011 0-1.483-.56-1.483-1.722v-4.444h-1.695v4.854c0 1.75.957 2.768 2.591 2.768 1.141 0 1.873-.485 2.235-1.339h.116V148h1.634v-7.472Zm1.757 2.133c0 1.121.677 1.777 2.112 2.106l1.327.307c.711.164 1.032.438 1.032.862 0 .567-.595.957-1.449.957-.848 0-1.374-.342-1.538-.896h-1.675c.13 1.347 1.305 2.153 3.172 2.153 1.866 0 3.185-.95 3.185-2.379 0-1.1-.663-1.709-2.092-2.037l-1.319-.294c-.752-.177-1.107-.444-1.107-.868 0-.553.581-.929 1.353-.929.793 0 1.292.341 1.415.868h1.593c-.123-1.347-1.237-2.126-3.015-2.126-1.763 0-2.994.936-2.994 2.276Zm12.298 2.14v-1.552h-4.491v1.552h4.491Zm4.383 3.199h1.763v-9.864h-1.757l-2.577 1.811v1.661l2.454-1.736h.117V148Z"/><path fill="#D1D5DA" d="M855.805 144.104h1.049c1.189 0 1.921.609 1.921 1.587 0 .95-.791 1.588-1.904 1.588-1.09 0-1.851-.568-1.945-1.459h-1.02c.076 1.436 1.26 2.379 2.977 2.379 1.681 0 2.976-1.06 2.976-2.478 0-1.178-.726-1.922-1.822-2.098v-.094c.867-.252 1.5-.925 1.506-1.945.006-1.184-.955-2.238-2.625-2.238-1.711 0-2.76 1.013-2.865 2.39h1.025c.088-.949.75-1.47 1.77-1.47 1.019 0 1.623.644 1.623 1.435 0 .879-.692 1.5-1.664 1.5h-1.002v.903Zm5.754 3.896h1.007v-3.914c0-.891.639-1.606 1.465-1.606.797 0 1.319.481 1.319 1.231V148h1.007v-4.061c0-.802.586-1.459 1.465-1.459.891 0 1.33.458 1.33 1.389V148h1.008v-4.365c0-1.324-.721-2.063-2.01-2.063-.873 0-1.593.44-1.933 1.108h-.094c-.293-.657-.891-1.108-1.746-1.108-.844 0-1.477.405-1.764 1.108h-.093v-.996h-.961V148Zm16.664.199c1.898 0 2.988-1.605 2.988-4.412 0-2.801-1.107-4.441-2.988-4.441-1.893 0-3 1.634-3 4.424 0 2.812 1.095 4.429 3 4.429Zm0-.92c-1.248 0-1.94-1.248-1.94-3.509 0-2.233.703-3.499 1.94-3.499 1.236 0 1.927 1.254 1.927 3.499 0 2.267-.679 3.509-1.927 3.509Zm8.578.721h1.031v-1.752h1.201v-.943h-1.201v-5.76h-1.529a131.737 131.737 0 0 0-3.621 5.742v.961h4.119V148Zm-3.041-2.76c.92-1.552 2.027-3.299 2.976-4.717h.071v4.788h-3.047v-.071Zm6.761-1.828c0 .914.54 1.424 1.723 1.711l1.084.264c.674.164 1.002.457 1.002.89 0 .58-.609.985-1.459.985-.809 0-1.312-.34-1.482-.873h-1.037c.111 1.049 1.078 1.722 2.484 1.722 1.435 0 2.531-.779 2.531-1.91 0-.908-.574-1.424-1.763-1.711l-.973-.234c-.744-.182-1.096-.451-1.096-.885 0-.562.586-.943 1.336-.943.762 0 1.254.334 1.389.838h.996c-.135-1.037-1.055-1.694-2.379-1.694-1.342 0-2.356.791-2.356 1.84Z"/><g clip-path="url(#i)"><path fill="#85E89D" fill-rule="evenodd" d="M668 195a8 8 0 1 0 0-16 8 8 0 0 0 0 16Zm3.78-9.72a.749.749 0 1 0-1.06-1.06l-3.97 3.969-1.47-1.469a.749.749 0 1 0-1.06 1.06l2 2a.749.749 0 0 0 1.06 0l4.5-4.5Z" clip-rule="evenodd"/></g><path fill="#fff" d="M685.217 182.136V192h3.698c2.953 0 4.642-1.812 4.642-4.977 0-3.096-1.709-4.887-4.642-4.887h-3.698Zm1.763 1.483h1.703c1.934 0 3.076 1.258 3.076 3.432 0 2.221-1.114 3.466-3.076 3.466h-1.703v-6.898Zm13.146 6.337c-.246.561-.827.875-1.668.875-1.114 0-1.832-.793-1.873-2.058v-.088h5.223v-.54c0-2.345-1.278-3.76-3.411-3.76-2.167 0-3.514 1.511-3.514 3.91 0 2.393 1.326 3.855 3.528 3.855 1.763 0 3.014-.847 3.322-2.194h-1.607Zm-1.736-4.252c1.019 0 1.689.718 1.723 1.853h-3.521c.075-1.121.786-1.853 1.798-1.853Zm9.044-1.299c-1.025 0-1.893.513-2.324 1.361h-.116v-1.238h-1.634v9.953h1.695v-3.616h.117c.382.793 1.21 1.258 2.283 1.258 1.887 0 3.062-1.483 3.062-3.855 0-2.393-1.189-3.863-3.083-3.863Zm-.533 6.31c-1.155 0-1.873-.937-1.88-2.447.007-1.511.732-2.448 1.887-2.448 1.162 0 1.866.916 1.866 2.448 0 1.531-.697 2.447-1.873 2.447Zm5.237 1.285h1.695v-10.363h-1.695V192Zm6.918.15c2.236 0 3.596-1.462 3.596-3.889 0-2.413-1.367-3.876-3.596-3.876-2.221 0-3.595 1.469-3.595 3.876 0 2.427 1.353 3.889 3.595 3.889Zm0-1.387c-1.182 0-1.859-.916-1.859-2.495 0-1.58.677-2.496 1.859-2.496 1.176 0 1.853.916 1.853 2.496 0 1.579-.67 2.495-1.853 2.495Zm5.674 3.944c1.675 0 2.475-.608 3.111-2.447l2.7-7.732h-1.791l-1.743 5.866h-.116l-1.75-5.866h-1.86l2.673 7.499-.089.349c-.219.704-.622.978-1.34.978-.116 0-.369-.007-.464-.021v1.347c.109.02.567.027.669.027Zm20.721-10.179h-1.688l-1.238 5.613h-.116l-1.449-5.613h-1.62l-1.436 5.613h-.116l-1.244-5.613h-1.709l2.023 7.472h1.764l1.449-5.414h.116l1.456 5.414h1.785l2.023-7.472Zm5.907 5.428c-.246.561-.828.875-1.668.875-1.115 0-1.832-.793-1.873-2.058v-.088h5.222v-.54c0-2.345-1.278-3.76-3.411-3.76-2.167 0-3.514 1.511-3.514 3.91 0 2.393 1.327 3.855 3.528 3.855 1.763 0 3.014-.847 3.322-2.194h-1.606Zm-1.737-4.252c1.019 0 1.689.718 1.723 1.853h-3.521c.076-1.121.787-1.853 1.798-1.853Zm9.127 6.419c1.886 0 3.069-1.483 3.069-3.855 0-2.386-1.176-3.863-3.069-3.863-1.026 0-1.887.499-2.277 1.313h-.116v-4.081h-1.695V192h1.634v-1.183h.116c.424.821 1.292 1.306 2.338 1.306Zm-.534-6.303c1.156 0 1.86.923 1.86 2.448 0 1.524-.697 2.447-1.86 2.447-1.162 0-1.886-.937-1.886-2.447 0-1.511.731-2.448 1.886-2.448Zm10.795 6.303c.978 0 1.798-.424 2.215-1.148h.116V192h1.634v-5.106c0-1.58-1.08-2.509-3.001-2.509-1.777 0-3.015.834-3.151 2.139h1.599c.158-.512.691-.793 1.47-.793.916 0 1.408.417 1.408 1.163v.642l-1.928.116c-1.818.103-2.836.889-2.836 2.229 0 1.367 1.032 2.242 2.474 2.242Zm.499-1.306c-.752 0-1.292-.376-1.292-1.018 0-.622.445-.971 1.395-1.032l1.688-.117v.609c0 .888-.765 1.558-1.791 1.558Zm9.434-6.412c-1.025 0-1.893.513-2.324 1.361h-.116v-1.238h-1.634v9.953h1.695v-3.616h.116c.383.793 1.21 1.258 2.284 1.258 1.886 0 3.062-1.483 3.062-3.855 0-2.393-1.189-3.863-3.083-3.863Zm-.533 6.31c-1.155 0-1.873-.937-1.88-2.447.007-1.511.732-2.448 1.887-2.448 1.162 0 1.866.916 1.866 2.448 0 1.531-.697 2.447-1.873 2.447Zm9.243-6.31c-1.026 0-1.894.513-2.325 1.361h-.116v-1.238h-1.634v9.953h1.696v-3.616h.116c.383.793 1.21 1.258 2.283 1.258 1.887 0 3.063-1.483 3.063-3.855 0-2.393-1.19-3.863-3.083-3.863Zm-.534 6.31c-1.155 0-1.873-.937-1.88-2.447.007-1.511.732-2.448 1.887-2.448 1.162 0 1.866.916 1.866 2.448 0 1.531-.697 2.447-1.873 2.447Zm9.735-1.914v-1.552h-4.491v1.552h4.491Zm6.884 1.155c-.246.561-.827.875-1.668.875-1.114 0-1.832-.793-1.873-2.058v-.088h5.223v-.54c0-2.345-1.278-3.76-3.411-3.76-2.167 0-3.514 1.511-3.514 3.91 0 2.393 1.326 3.855 3.527 3.855 1.764 0 3.015-.847 3.323-2.194h-1.607Zm-1.736-4.252c1.019 0 1.688.718 1.723 1.853h-3.521c.075-1.121.786-1.853 1.798-1.853Zm11.478-1.176h-1.695v4.355c0 1.128-.602 1.811-1.703 1.811-1.011 0-1.483-.56-1.483-1.722v-4.444h-1.695v4.854c0 1.75.957 2.768 2.591 2.768 1.141 0 1.873-.485 2.235-1.339h.116V192h1.634v-7.472Zm6.494 4.273v-1.552h-4.491v1.552h4.491Zm4.383 3.199h1.763v-9.864h-1.756l-2.578 1.811v1.661l2.454-1.736h.117V192Z"/><path fill="#D1D5DA" d="M854.352 185.93h1.019c0-1.002.674-1.664 1.688-1.664.996 0 1.599.668 1.599 1.564 0 .744-.316 1.184-1.394 2.35l-2.86 3.093V192h5.473v-.949h-4.008v-.094l1.922-1.986c1.523-1.576 1.945-2.28 1.945-3.252 0-1.371-1.131-2.373-2.607-2.373-1.617 0-2.777 1.078-2.777 2.584Zm7.312 6.07h1.008v-3.914c0-.891.639-1.606 1.465-1.606.797 0 1.318.481 1.318 1.231V192h1.008v-4.061c0-.802.586-1.459 1.465-1.459.89 0 1.33.458 1.33 1.389V192h1.008v-4.365c0-1.324-.721-2.063-2.01-2.063-.873 0-1.594.44-1.934 1.108h-.093c-.293-.657-.891-1.108-1.747-1.108-.843 0-1.476.405-1.763 1.108h-.094v-.996h-.961V192Zm15.598-3.896h1.049c1.189 0 1.921.609 1.921 1.587 0 .95-.791 1.588-1.904 1.588-1.09 0-1.851-.568-1.945-1.459h-1.02c.076 1.436 1.26 2.379 2.977 2.379 1.681 0 2.976-1.06 2.976-2.478 0-1.178-.726-1.922-1.822-2.098v-.094c.867-.252 1.5-.925 1.506-1.945.006-1.184-.955-2.238-2.625-2.238-1.711 0-2.76 1.013-2.865 2.39h1.025c.088-.949.75-1.47 1.77-1.47 1.019 0 1.623.644 1.623 1.435 0 .879-.692 1.5-1.664 1.5h-1.002v.903Zm8.736 4.089c1.734 0 2.965-1.213 2.965-2.912 0-1.64-1.166-2.83-2.777-2.83-1.008 0-1.834.481-2.25 1.301h-.094c.035-2.297.855-3.469 2.262-3.469.855 0 1.476.44 1.652 1.225h1.084c-.217-1.313-1.231-2.162-2.772-2.162-1.998 0-3.252 1.664-3.252 4.57 0 2.848 1.342 4.277 3.182 4.277Zm-.012-.925c-1.084 0-1.91-.856-1.91-1.987 0-1.119.803-1.916 1.922-1.916 1.119 0 1.898.797 1.898 1.951 0 1.108-.826 1.952-1.91 1.952Zm4.535-3.856c0 .914.54 1.424 1.723 1.711l1.084.264c.674.164 1.002.457 1.002.89 0 .58-.609.985-1.459.985-.809 0-1.312-.34-1.482-.873h-1.037c.111 1.049 1.078 1.722 2.484 1.722 1.435 0 2.531-.779 2.531-1.91 0-.908-.574-1.424-1.763-1.711l-.973-.234c-.744-.182-1.096-.451-1.096-.885 0-.562.586-.943 1.336-.943.762 0 1.254.334 1.389.838h.996c-.135-1.037-1.055-1.694-2.379-1.694-1.342 0-2.356.791-2.356 1.84Z"/><g clip-path="url(#j)"><path fill="#85E89D" fill-rule="evenodd" d="M668 239a8 8 0 1 0 0-16 8 8 0 0 0 0 16Zm3.78-9.72a.749.749 0 1 0-1.06-1.06l-3.97 3.969-1.47-1.469a.749.749 0 1 0-1.06 1.06l2 2a.749.749 0 0 0 1.06 0l4.5-4.5Z" clip-rule="evenodd"/></g><path fill="#fff" d="M685.217 226.136V236h3.698c2.953 0 4.642-1.812 4.642-4.977 0-3.096-1.709-4.887-4.642-4.887h-3.698Zm1.763 1.483h1.703c1.934 0 3.076 1.258 3.076 3.432 0 2.221-1.114 3.466-3.076 3.466h-1.703v-6.898Zm13.296 6.337c-.246.561-.827.875-1.668.875-1.114 0-1.832-.793-1.873-2.058v-.088h5.223v-.54c0-2.345-1.278-3.76-3.411-3.76-2.167 0-3.514 1.511-3.514 3.91 0 2.393 1.326 3.855 3.528 3.855 1.763 0 3.014-.847 3.322-2.194h-1.607Zm-1.736-4.252c1.019 0 1.689.718 1.723 1.853h-3.521c.075-1.121.786-1.853 1.798-1.853Zm9.194-1.299c-1.025 0-1.893.513-2.324 1.361h-.116v-1.238h-1.634v9.953h1.695v-3.616h.117c.382.793 1.21 1.258 2.283 1.258 1.887 0 3.062-1.483 3.062-3.855 0-2.393-1.189-3.863-3.083-3.863Zm-.533 6.31c-1.155 0-1.873-.937-1.88-2.447.007-1.511.732-2.448 1.887-2.448 1.162 0 1.866.916 1.866 2.448 0 1.531-.697 2.447-1.873 2.447Zm5.387 1.285h1.695v-10.363h-1.695V236Zm7.068.15c2.236 0 3.596-1.462 3.596-3.889 0-2.413-1.367-3.876-3.596-3.876-2.221 0-3.595 1.469-3.595 3.876 0 2.427 1.353 3.889 3.595 3.889Zm0-1.387c-1.182 0-1.859-.916-1.859-2.495 0-1.58.677-2.496 1.859-2.496 1.176 0 1.853.916 1.853 2.496 0 1.579-.67 2.495-1.853 2.495Zm5.824 3.944c1.675 0 2.475-.608 3.111-2.447l2.7-7.732H729.5l-1.743 5.866h-.116l-1.75-5.866h-1.86l2.673 7.499-.089.349c-.219.704-.622.978-1.34.978-.116 0-.369-.007-.464-.021v1.347c.109.02.567.027.669.027Zm11.184-12.571V236h3.698c2.953 0 4.642-1.812 4.642-4.977 0-3.096-1.709-4.887-4.642-4.887h-3.698Zm1.764 1.483h1.702c1.934 0 3.076 1.258 3.076 3.432 0 2.221-1.114 3.466-3.076 3.466h-1.702v-6.898ZM751.245 236c2.106 0 3.391-1.066 3.391-2.803 0-1.285-.916-2.242-2.242-2.365v-.123c.991-.157 1.756-1.073 1.756-2.112 0-1.518-1.128-2.461-3.001-2.461h-4.122V236h4.218Zm-2.454-8.49h1.928c1.066 0 1.688.512 1.688 1.394 0 .903-.663 1.388-1.914 1.388h-1.702v-2.782Zm0 7.116v-3.083h1.982c1.347 0 2.058.526 2.058 1.531 0 1.012-.69 1.552-1.989 1.552h-2.051Zm17.828-6.098h-1.695v4.355c0 1.128-.602 1.811-1.702 1.811-1.012 0-1.484-.56-1.484-1.722v-4.444h-1.695v4.854c0 1.75.957 2.768 2.591 2.768 1.141 0 1.873-.485 2.235-1.339h.116V236h1.634v-7.472Zm1.907 2.133c0 1.121.677 1.777 2.113 2.106l1.326.307c.711.164 1.032.438 1.032.862 0 .567-.595.957-1.449.957-.848 0-1.374-.342-1.538-.896h-1.675c.13 1.347 1.306 2.153 3.172 2.153s3.185-.95 3.185-2.379c0-1.1-.663-1.709-2.091-2.037l-1.32-.294c-.752-.177-1.107-.444-1.107-.868 0-.553.581-.929 1.353-.929.793 0 1.292.341 1.415.868h1.593c-.123-1.347-1.237-2.126-3.014-2.126-1.764 0-2.995.936-2.995 2.276Zm12.449 2.14v-1.552h-4.492v1.552h4.492Zm4.532 3.199h1.764v-9.864h-1.757l-2.577 1.811v1.661l2.454-1.736h.116V236Z"/><path fill="#D1D5DA" d="M858.031 236h1.055v-8.455h-1.049l-2.25 1.617v1.113l2.151-1.558h.093V236Zm3.586 0h1.008v-3.914c0-.891.639-1.606 1.465-1.606.797 0 1.318.481 1.318 1.231V236h1.008v-4.061c0-.802.586-1.459 1.465-1.459.89 0 1.33.458 1.33 1.389V236h1.008v-4.365c0-1.324-.721-2.063-2.01-2.063-.873 0-1.594.44-1.934 1.108h-.093c-.293-.657-.891-1.108-1.746-1.108-.844 0-1.477.405-1.764 1.108h-.094v-.996h-.961V236Zm16.664.199c1.899 0 2.989-1.605 2.989-4.412 0-2.801-1.108-4.441-2.989-4.441-1.892 0-3 1.634-3 4.424 0 2.812 1.096 4.429 3 4.429Zm0-.92c-1.248 0-1.939-1.248-1.939-3.509 0-2.233.703-3.499 1.939-3.499 1.237 0 1.928 1.254 1.928 3.499 0 2.267-.68 3.509-1.928 3.509Zm7.606.92c1.793 0 3.047-1.013 3.047-2.461 0-1.101-.698-1.957-1.758-2.156v-.094c.873-.24 1.412-.961 1.412-1.886 0-1.319-1.119-2.256-2.701-2.256s-2.701.937-2.701 2.256c0 .919.55 1.652 1.412 1.886v.094c-1.061.199-1.758 1.055-1.758 2.156 0 1.448 1.254 2.461 3.047 2.461Zm0-5.062c-.996 0-1.664-.575-1.664-1.436 0-.873.662-1.453 1.664-1.453 1.002 0 1.664.58 1.664 1.453 0 .861-.668 1.436-1.664 1.436Zm0 4.16c-1.172 0-1.981-.668-1.981-1.635s.809-1.635 1.981-1.635c1.172 0 1.98.668 1.98 1.635s-.808 1.635-1.98 1.635Zm4.634-3.885c0 .914.54 1.424 1.723 1.711l1.084.264c.674.164 1.002.457 1.002.89 0 .58-.609.985-1.459.985-.809 0-1.312-.34-1.482-.873h-1.037c.111 1.049 1.078 1.722 2.484 1.722 1.435 0 2.531-.779 2.531-1.91 0-.908-.574-1.424-1.763-1.711l-.973-.234c-.744-.182-1.096-.451-1.096-.885 0-.562.586-.943 1.336-.943.762 0 1.254.334 1.389.838h.996c-.135-1.037-1.055-1.694-2.379-1.694-1.342 0-2.356.791-2.356 1.84Z"/><g clip-path="url(#k)"><path fill="#85E89D" fill-rule="evenodd" d="M668 283a8 8 0 1 0 0-16 8 8 0 0 0 0 16Zm3.78-9.72a.749.749 0 1 0-1.06-1.06l-3.97 3.969-1.47-1.469a.749.749 0 1 0-1.06 1.06l2 2a.749.749 0 0 0 1.06 0l4.5-4.5Z" clip-rule="evenodd"/></g><path fill="#fff" d="M685.217 270.136V280h3.698c2.953 0 4.642-1.812 4.642-4.977 0-3.096-1.709-4.887-4.642-4.887h-3.698Zm1.763 1.483h1.703c1.934 0 3.076 1.258 3.076 3.432 0 2.221-1.114 3.466-3.076 3.466h-1.703v-6.898Zm13.296 6.337c-.246.561-.827.875-1.668.875-1.114 0-1.832-.793-1.873-2.058v-.088h5.223v-.54c0-2.345-1.278-3.76-3.411-3.76-2.167 0-3.514 1.511-3.514 3.91 0 2.393 1.326 3.855 3.528 3.855 1.763 0 3.014-.847 3.322-2.194h-1.607Zm-1.736-4.252c1.019 0 1.689.718 1.723 1.853h-3.521c.075-1.121.786-1.853 1.798-1.853Zm9.194-1.299c-1.025 0-1.893.513-2.324 1.361h-.116v-1.238h-1.634v9.953h1.695v-3.616h.117c.382.793 1.21 1.258 2.283 1.258 1.887 0 3.062-1.483 3.062-3.855 0-2.393-1.189-3.863-3.083-3.863Zm-.533 6.31c-1.155 0-1.873-.937-1.88-2.447.007-1.511.732-2.448 1.887-2.448 1.162 0 1.866.916 1.866 2.448 0 1.531-.697 2.447-1.873 2.447Zm5.387 1.285h1.695v-10.363h-1.695V280Zm7.068.15c2.236 0 3.596-1.462 3.596-3.889 0-2.413-1.367-3.876-3.596-3.876-2.221 0-3.595 1.469-3.595 3.876 0 2.427 1.353 3.889 3.595 3.889Zm0-1.387c-1.182 0-1.859-.916-1.859-2.495 0-1.58.677-2.496 1.859-2.496 1.176 0 1.853.916 1.853 2.496 0 1.579-.67 2.495-1.853 2.495Zm5.824 3.944c1.675 0 2.475-.608 3.111-2.447l2.7-7.732H729.5l-1.743 5.866h-.116l-1.75-5.866h-1.86l2.673 7.499-.089.349c-.219.704-.622.978-1.34.978-.116 0-.369-.007-.464-.021v1.347c.109.02.567.027.669.027Zm11.184-12.571V280h3.698c2.953 0 4.642-1.812 4.642-4.977 0-3.096-1.709-4.887-4.642-4.887h-3.698Zm1.764 1.483h1.702c1.934 0 3.076 1.258 3.076 3.432 0 2.221-1.114 3.466-3.076 3.466h-1.702v-6.898ZM751.245 280c2.106 0 3.391-1.066 3.391-2.803 0-1.285-.916-2.242-2.242-2.365v-.123c.991-.157 1.756-1.073 1.756-2.112 0-1.518-1.128-2.461-3.001-2.461h-4.122V280h4.218Zm-2.454-8.49h1.928c1.066 0 1.688.512 1.688 1.394 0 .903-.663 1.388-1.914 1.388h-1.702v-2.782Zm0 7.116v-3.083h1.982c1.347 0 2.058.526 2.058 1.531 0 1.012-.69 1.552-1.989 1.552h-2.051Zm16.194-.67c-.246.561-.827.875-1.668.875-1.114 0-1.832-.793-1.873-2.058v-.088h5.223v-.54c0-2.345-1.278-3.76-3.411-3.76-2.167 0-3.514 1.511-3.514 3.91 0 2.393 1.326 3.855 3.528 3.855 1.763 0 3.014-.847 3.322-2.194h-1.607Zm-1.736-4.252c1.019 0 1.689.718 1.723 1.853h-3.521c.075-1.121.786-1.853 1.798-1.853Zm11.628-1.176h-1.695v4.355c0 1.128-.602 1.811-1.703 1.811-1.011 0-1.483-.56-1.483-1.722v-4.444h-1.695v4.854c0 1.75.957 2.768 2.591 2.768 1.141 0 1.873-.485 2.235-1.339h.116V280h1.634v-7.472Zm6.644 4.273v-1.552h-4.491v1.552h4.491Zm4.533 3.199h1.763v-9.864h-1.756l-2.578 1.811v1.661l2.455-1.736h.116V280Z"/><path fill="#D1D5DA" d="M878.381 280.199c1.728 0 2.906-1.195 2.906-2.935 0-1.676-1.172-2.789-2.59-2.789-.843 0-1.47.257-1.881.767h-.093l.263-2.754h3.868v-.943h-4.694l-.486 4.834h.99c.334-.627.967-.996 1.77-.996 1.066 0 1.798.767 1.798 1.91 0 1.184-.732 1.98-1.839 1.98-.997 0-1.723-.603-1.817-1.505h-1.037c.094 1.447 1.242 2.431 2.842 2.431Zm7.506 0c1.793 0 3.047-1.013 3.047-2.461 0-1.101-.698-1.957-1.758-2.156v-.094c.873-.24 1.412-.961 1.412-1.886 0-1.319-1.119-2.256-2.701-2.256s-2.701.937-2.701 2.256c0 .919.55 1.652 1.412 1.886v.094c-1.061.199-1.758 1.055-1.758 2.156 0 1.448 1.254 2.461 3.047 2.461Zm0-5.062c-.996 0-1.664-.575-1.664-1.436 0-.873.662-1.453 1.664-1.453 1.002 0 1.664.58 1.664 1.453 0 .861-.668 1.436-1.664 1.436Zm0 4.16c-1.172 0-1.981-.668-1.981-1.635s.809-1.635 1.981-1.635c1.172 0 1.98.668 1.98 1.635s-.808 1.635-1.98 1.635Zm4.634-3.885c0 .914.54 1.424 1.723 1.711l1.084.264c.674.164 1.002.457 1.002.89 0 .58-.609.985-1.459.985-.809 0-1.312-.34-1.482-.873h-1.037c.111 1.049 1.078 1.722 2.484 1.722 1.435 0 2.531-.779 2.531-1.91 0-.908-.574-1.424-1.763-1.711l-.973-.234c-.744-.182-1.096-.451-1.096-.885 0-.562.586-.943 1.336-.943.762 0 1.254.334 1.389.838h.996c-.135-1.037-1.055-1.694-2.379-1.694-1.342 0-2.356.791-2.356 1.84Z"/></g><path fill="#fff" d="M649.043 95.545V104h1.512v-2.795h1.834c1.711 0 2.906-1.143 2.906-2.812 0-1.7-1.154-2.848-2.842-2.848h-3.41Zm1.512 1.236h1.5c1.09 0 1.705.563 1.705 1.612 0 1.02-.633 1.593-1.711 1.593h-1.494v-3.205Zm6.257 7.219h1.454v-3.721c0-.902.656-1.488 1.599-1.488.246 0 .633.041.744.082v-1.324a2.871 2.871 0 0 0-.603-.059c-.826 0-1.518.469-1.694 1.102h-.099v-.996h-1.401V104Zm7.594.129c1.916 0 3.082-1.254 3.082-3.334 0-2.068-1.172-3.322-3.082-3.322-1.904 0-3.082 1.26-3.082 3.322 0 2.08 1.16 3.334 3.082 3.334Zm0-1.19c-1.013 0-1.594-.785-1.594-2.138 0-1.354.581-2.139 1.594-2.139 1.008 0 1.588.785 1.588 2.139 0 1.353-.574 2.138-1.588 2.138Zm6.867 1.166c.891 0 1.629-.416 1.993-1.119h.099V104h1.406v-8.883h-1.453v3.498h-.099c-.34-.703-1.067-1.125-1.946-1.125-1.617 0-2.636 1.278-2.636 3.305 0 2.033 1.013 3.31 2.636 3.31Zm.452-5.402c.996 0 1.611.803 1.611 2.098 0 1.301-.609 2.097-1.611 2.097-.996 0-1.6-.785-1.6-2.097 0-1.307.609-2.098 1.6-2.098Zm10.459-1.107h-1.454v3.732c0 .967-.515 1.553-1.459 1.553-.867 0-1.271-.481-1.271-1.477v-3.808h-1.453v4.16c0 1.5.82 2.373 2.221 2.373.978 0 1.605-.416 1.916-1.149h.099V104h1.401v-6.404Zm7.318 2.138c-.152-1.324-1.148-2.261-2.795-2.261-1.928 0-3.059 1.236-3.059 3.31 0 2.098 1.137 3.346 3.065 3.346 1.623 0 2.631-.902 2.789-2.227h-1.383c-.152.674-.656 1.032-1.412 1.032-.99 0-1.588-.791-1.588-2.151 0-1.336.592-2.12 1.588-2.12.797 0 1.277.45 1.412 1.071h1.383Zm1.934-3.709v1.612h-1.014v1.13h1.014v3.534c0 1.236.585 1.728 2.056 1.728.281 0 .551-.023.762-.064v-1.113c-.176.017-.287.029-.492.029-.61 0-.879-.287-.879-.926v-3.187h1.371v-1.131h-1.371v-1.612h-1.447Zm5.009.498c.481 0 .873-.38.873-.86a.869.869 0 0 0-.873-.862.868.868 0 0 0-.867.861c0 .48.393.861.867.861Zm-.72 7.477h1.447v-6.404h-1.447V104Zm6.017.129c1.916 0 3.082-1.254 3.082-3.334 0-2.068-1.172-3.322-3.082-3.322-1.904 0-3.082 1.26-3.082 3.322 0 2.08 1.16 3.334 3.082 3.334Zm0-1.19c-1.013 0-1.594-.785-1.594-2.138 0-1.354.581-2.139 1.594-2.139 1.008 0 1.588.785 1.588 2.139 0 1.353-.574 2.138-1.588 2.138Zm4.547 1.061h1.453v-3.732c0-.961.545-1.565 1.412-1.565.885 0 1.295.498 1.295 1.494V104h1.453v-4.143c0-1.523-.779-2.384-2.209-2.384-.955 0-1.599.433-1.904 1.148h-.1v-1.025h-1.4V104Z"/><path fill="#D1D5DA" d="M259 142a1 1 0 0 0 0 2v-2Zm40 2a1 1 0 0 0 0-2v2Zm-40 0h40v-2h-40v2Z"/><g filter="url(#l)"><path fill="#444D56" fill-rule="evenodd" d="M306 84a6 6 0 0 0-6 6v46.078c0 .526-.474.922-1 .922a6 6 0 1 0 0 12c.526 0 1 .396 1 .922V219a6 6 0 0 0 6 6h280a6 6 0 0 0 6-6v-69.078c0-.526.474-.922 1-.922a6 6 0 1 0 0-12c-.526 0-1-.396-1-.922V111a6 6 0 0 0-6-6H384a6 6 0 0 1-6-6v-9a6 6 0 0 0-6-6h-66Z" clip-rule="evenodd"/></g><circle cx="299.5" cy="143" r="4" fill="#6A737D"/><circle cx="592.5" cy="143" r="4" fill="#6A737D"/><g clip-path="url(#m)"><g clip-path="url(#n)"><path fill="#85E89D" fill-rule="evenodd" d="M336 151a8 8 0 1 0 0-16 8 8 0 0 0 0 16Zm3.78-9.72a.749.749 0 1 0-1.06-1.06l-3.97 3.969-1.47-1.469a.749.749 0 1 0-1.06 1.06l2 2a.749.749 0 0 0 1.06 0l4.5-4.5Z" clip-rule="evenodd"/></g><path fill="#fff" d="M353.217 138.136V148h3.698c2.953 0 4.642-1.812 4.642-4.977 0-3.096-1.709-4.887-4.642-4.887h-3.698Zm1.763 1.483h1.703c1.934 0 3.076 1.258 3.076 3.432 0 2.221-1.114 3.466-3.076 3.466h-1.703v-6.898Zm13.146 6.337c-.246.561-.827.875-1.668.875-1.114 0-1.832-.793-1.873-2.058v-.088h5.223v-.54c0-2.345-1.278-3.76-3.411-3.76-2.167 0-3.514 1.511-3.514 3.91 0 2.393 1.326 3.855 3.528 3.855 1.763 0 3.014-.847 3.322-2.194h-1.607Zm-1.736-4.252c1.019 0 1.689.718 1.723 1.853h-3.521c.075-1.121.786-1.853 1.798-1.853Zm9.044-1.299c-1.025 0-1.893.513-2.324 1.361h-.116v-1.238h-1.634v9.953h1.695v-3.616h.117c.382.793 1.21 1.258 2.283 1.258 1.887 0 3.062-1.483 3.062-3.855 0-2.393-1.189-3.863-3.083-3.863Zm-.533 6.31c-1.155 0-1.873-.937-1.88-2.447.007-1.511.732-2.448 1.887-2.448 1.162 0 1.866.916 1.866 2.448 0 1.531-.697 2.447-1.873 2.447Zm5.237 1.285h1.695v-10.363h-1.695V148Zm6.918.15c2.236 0 3.596-1.462 3.596-3.889 0-2.413-1.367-3.876-3.596-3.876-2.221 0-3.595 1.469-3.595 3.876 0 2.427 1.353 3.889 3.595 3.889Zm0-1.387c-1.182 0-1.859-.916-1.859-2.495 0-1.58.677-2.496 1.859-2.496 1.176 0 1.853.916 1.853 2.496 0 1.579-.67 2.495-1.853 2.495Zm5.674 3.944c1.675 0 2.475-.608 3.111-2.447l2.7-7.732h-1.791l-1.743 5.866h-.116l-1.75-5.866h-1.86l2.673 7.499-.089.349c-.219.704-.622.978-1.34.978-.116 0-.369-.007-.464-.021v1.347c.109.02.567.027.669.027Zm13.413-2.584c1.039 0 1.901-.485 2.325-1.306h.116V148h1.64v-10.363h-1.695v4.081h-.116c-.397-.821-1.244-1.313-2.27-1.313-1.886 0-3.076 1.491-3.076 3.856 0 2.372 1.183 3.862 3.076 3.862Zm.527-6.303c1.162 0 1.88.937 1.88 2.448 0 1.517-.711 2.447-1.88 2.447-1.162 0-1.866-.916-1.866-2.447 0-1.525.71-2.448 1.866-2.448Zm7.602 6.303c.977 0 1.798-.424 2.215-1.148h.116V148h1.634v-5.106c0-1.58-1.081-2.509-3.001-2.509-1.778 0-3.015.834-3.152 2.139h1.6c.157-.512.69-.793 1.47-.793.916 0 1.408.417 1.408 1.163v.642l-1.928.116c-1.818.103-2.837.889-2.837 2.229 0 1.367 1.032 2.242 2.475 2.242Zm.499-1.306c-.752 0-1.292-.376-1.292-1.018 0-.622.444-.971 1.394-1.032l1.689-.117v.609c0 .888-.766 1.558-1.791 1.558Zm5.9-8.121v1.88h-1.183v1.32h1.183v4.122c0 1.442.683 2.016 2.399 2.016.328 0 .643-.027.889-.075v-1.299a4.797 4.797 0 0 1-.575.034c-.711 0-1.025-.335-1.025-1.08v-3.718h1.6v-1.32h-1.6v-1.88h-1.688Zm6.891 9.427c.977 0 1.797-.424 2.214-1.148h.117V148h1.633v-5.106c0-1.58-1.08-2.509-3.001-2.509-1.777 0-3.014.834-3.151 2.139h1.6c.157-.512.69-.793 1.469-.793.916 0 1.409.417 1.409 1.163v.642l-1.928.116c-1.819.103-2.837.889-2.837 2.229 0 1.367 1.032 2.242 2.475 2.242Zm.499-1.306c-.752 0-1.292-.376-1.292-1.018 0-.622.444-.971 1.394-1.032l1.689-.117v.609c0 .888-.766 1.558-1.791 1.558Zm9.516 1.306c1.886 0 3.069-1.483 3.069-3.855 0-2.386-1.176-3.863-3.069-3.863-1.026 0-1.887.499-2.277 1.313h-.116v-4.081h-1.695V148h1.633v-1.183h.117c.423.821 1.292 1.306 2.338 1.306Zm-.534-6.303c1.156 0 1.86.923 1.86 2.448 0 1.524-.698 2.447-1.86 2.447-1.162 0-1.886-.937-1.886-2.447 0-1.511.731-2.448 1.886-2.448Zm7.213 6.303c.977 0 1.798-.424 2.215-1.148h.116V148h1.634v-5.106c0-1.58-1.081-2.509-3.001-2.509-1.778 0-3.015.834-3.152 2.139h1.6c.157-.512.69-.793 1.469-.793.917 0 1.409.417 1.409 1.163v.642l-1.928.116c-1.818.103-2.837.889-2.837 2.229 0 1.367 1.032 2.242 2.475 2.242Zm.499-1.306c-.752 0-1.292-.376-1.292-1.018 0-.622.444-.971 1.394-1.032l1.689-.117v.609c0 .888-.766 1.558-1.791 1.558Zm5.189-4.156c0 1.121.676 1.777 2.112 2.106l1.326.307c.711.164 1.032.438 1.032.862 0 .567-.594.957-1.449.957-.848 0-1.374-.342-1.538-.896h-1.675c.13 1.347 1.306 2.153 3.172 2.153s3.186-.95 3.186-2.379c0-1.1-.664-1.709-2.092-2.037l-1.32-.294c-.752-.177-1.107-.444-1.107-.868 0-.553.581-.929 1.354-.929.793 0 1.292.341 1.415.868h1.592c-.123-1.347-1.237-2.126-3.014-2.126-1.764 0-2.994.936-2.994 2.276Zm12.605 3.295c-.246.561-.827.875-1.668.875-1.114 0-1.832-.793-1.873-2.058v-.088h5.223v-.54c0-2.345-1.278-3.76-3.411-3.76-2.167 0-3.514 1.511-3.514 3.91 0 2.393 1.326 3.855 3.528 3.855 1.763 0 3.014-.847 3.322-2.194h-1.607Zm-1.736-4.252c1.019 0 1.689.718 1.723 1.853h-3.521c.075-1.121.786-1.853 1.798-1.853Z"/><path fill="#D1D5DA" d="M526.453 148h1.055v-8.455h-1.049l-2.25 1.617v1.113l2.15-1.558h.094V148Zm3.586 0h1.008v-3.914c0-.891.639-1.606 1.465-1.606.797 0 1.318.481 1.318 1.231V148h1.008v-4.061c0-.802.586-1.459 1.465-1.459.89 0 1.33.458 1.33 1.389V148h1.008v-4.365c0-1.324-.721-2.063-2.01-2.063-.873 0-1.594.44-1.934 1.108h-.093c-.293-.657-.891-1.108-1.747-1.108-.843 0-1.476.405-1.763 1.108H531v-.996h-.961V148Zm13.77-6.07h1.019c0-1.002.674-1.664 1.688-1.664.996 0 1.599.668 1.599 1.564 0 .744-.316 1.184-1.394 2.35l-2.86 3.093V148h5.473v-.949h-4.008v-.094l1.922-1.986c1.523-1.576 1.945-2.28 1.945-3.252 0-1.371-1.131-2.373-2.607-2.373-1.617 0-2.777 1.078-2.777 2.584Zm10.992 6.07h1.031v-1.752h1.201v-.943h-1.201v-5.76h-1.529a131.737 131.737 0 0 0-3.621 5.742v.961h4.119V148Zm-3.041-2.76c.92-1.552 2.027-3.299 2.976-4.717h.071v4.788h-3.047v-.071Zm6.761-1.828c0 .914.54 1.424 1.723 1.711l1.084.264c.674.164 1.002.457 1.002.89 0 .58-.609.985-1.459.985-.809 0-1.312-.34-1.482-.873h-1.037c.111 1.049 1.078 1.722 2.484 1.722 1.435 0 2.531-.779 2.531-1.91 0-.908-.574-1.424-1.763-1.711l-.973-.234c-.744-.182-1.096-.451-1.096-.885 0-.562.586-.943 1.336-.943.762 0 1.254.334 1.389.838h.996c-.135-1.037-1.055-1.694-2.379-1.694-1.342 0-2.356.791-2.356 1.84Z"/><g clip-path="url(#o)"><path fill="#85E89D" fill-rule="evenodd" d="M336 195a8 8 0 1 0 0-16 8 8 0 0 0 0 16Zm3.78-9.72a.749.749 0 1 0-1.06-1.06l-3.97 3.969-1.47-1.469a.749.749 0 1 0-1.06 1.06l2 2a.749.749 0 0 0 1.06 0l4.5-4.5Z" clip-rule="evenodd"/></g><path fill="#fff" d="M353.217 182.136V192h3.698c2.953 0 4.642-1.812 4.642-4.977 0-3.096-1.709-4.887-4.642-4.887h-3.698Zm1.763 1.483h1.703c1.934 0 3.076 1.258 3.076 3.432 0 2.221-1.114 3.466-3.076 3.466h-1.703v-6.898Zm13.146 6.337c-.246.561-.827.875-1.668.875-1.114 0-1.832-.793-1.873-2.058v-.088h5.223v-.54c0-2.345-1.278-3.76-3.411-3.76-2.167 0-3.514 1.511-3.514 3.91 0 2.393 1.326 3.855 3.528 3.855 1.763 0 3.014-.847 3.322-2.194h-1.607Zm-1.736-4.252c1.019 0 1.689.718 1.723 1.853h-3.521c.075-1.121.786-1.853 1.798-1.853Zm9.044-1.299c-1.025 0-1.893.513-2.324 1.361h-.116v-1.238h-1.634v9.953h1.695v-3.616h.117c.382.793 1.21 1.258 2.283 1.258 1.887 0 3.062-1.483 3.062-3.855 0-2.393-1.189-3.863-3.083-3.863Zm-.533 6.31c-1.155 0-1.873-.937-1.88-2.447.007-1.511.732-2.448 1.887-2.448 1.162 0 1.866.916 1.866 2.448 0 1.531-.697 2.447-1.873 2.447Zm5.237 1.285h1.695v-10.363h-1.695V192Zm6.918.15c2.236 0 3.596-1.462 3.596-3.889 0-2.413-1.367-3.876-3.596-3.876-2.221 0-3.595 1.469-3.595 3.876 0 2.427 1.353 3.889 3.595 3.889Zm0-1.387c-1.182 0-1.859-.916-1.859-2.495 0-1.58.677-2.496 1.859-2.496 1.176 0 1.853.916 1.853 2.496 0 1.579-.67 2.495-1.853 2.495Zm5.674 3.944c1.675 0 2.475-.608 3.111-2.447l2.7-7.732h-1.791l-1.743 5.866h-.116l-1.75-5.866h-1.86l2.673 7.499-.089.349c-.219.704-.622.978-1.34.978-.116 0-.369-.007-.464-.021v1.347c.109.02.567.027.669.027Zm20.721-10.179h-1.688l-1.238 5.613h-.116l-1.449-5.613h-1.62l-1.436 5.613h-.116l-1.244-5.613h-1.709l2.023 7.472h1.764l1.449-5.414h.116l1.456 5.414h1.785l2.023-7.472Zm5.907 5.428c-.246.561-.828.875-1.668.875-1.115 0-1.832-.793-1.873-2.058v-.088h5.222v-.54c0-2.345-1.278-3.76-3.411-3.76-2.167 0-3.514 1.511-3.514 3.91 0 2.393 1.327 3.855 3.528 3.855 1.763 0 3.014-.847 3.322-2.194h-1.606Zm-1.737-4.252c1.019 0 1.689.718 1.723 1.853h-3.521c.076-1.121.787-1.853 1.798-1.853Zm9.127 6.419c1.886 0 3.069-1.483 3.069-3.855 0-2.386-1.176-3.863-3.069-3.863-1.026 0-1.887.499-2.277 1.313h-.116v-4.081h-1.695V192h1.634v-1.183h.116c.424.821 1.292 1.306 2.338 1.306Zm-.534-6.303c1.156 0 1.86.923 1.86 2.448 0 1.524-.697 2.447-1.86 2.447-1.162 0-1.886-.937-1.886-2.447 0-1.511.731-2.448 1.886-2.448Zm10.795 6.303c.978 0 1.798-.424 2.215-1.148h.116V192h1.634v-5.106c0-1.58-1.08-2.509-3.001-2.509-1.777 0-3.015.834-3.151 2.139h1.599c.158-.512.691-.793 1.47-.793.916 0 1.408.417 1.408 1.163v.642l-1.928.116c-1.818.103-2.836.889-2.836 2.229 0 1.367 1.032 2.242 2.474 2.242Zm.499-1.306c-.752 0-1.292-.376-1.292-1.018 0-.622.445-.971 1.395-1.032l1.688-.117v.609c0 .888-.765 1.558-1.791 1.558Zm9.434-6.412c-1.025 0-1.893.513-2.324 1.361h-.116v-1.238h-1.634v9.953h1.695v-3.616h.116c.383.793 1.21 1.258 2.284 1.258 1.886 0 3.062-1.483 3.062-3.855 0-2.393-1.189-3.863-3.083-3.863Zm-.533 6.31c-1.155 0-1.873-.937-1.88-2.447.007-1.511.732-2.448 1.887-2.448 1.162 0 1.866.916 1.866 2.448 0 1.531-.697 2.447-1.873 2.447Zm9.243-6.31c-1.026 0-1.894.513-2.325 1.361h-.116v-1.238h-1.634v9.953h1.696v-3.616h.116c.383.793 1.21 1.258 2.283 1.258 1.887 0 3.063-1.483 3.063-3.855 0-2.393-1.19-3.863-3.083-3.863Zm-.534 6.31c-1.155 0-1.873-.937-1.88-2.447.007-1.511.732-2.448 1.887-2.448 1.162 0 1.866.916 1.866 2.448 0 1.531-.697 2.447-1.873 2.447Z"/><path fill="#D1D5DA" d="M524.273 188.104h1.049c1.19 0 1.922.609 1.922 1.587 0 .95-.791 1.588-1.904 1.588-1.09 0-1.852-.568-1.945-1.459h-1.02c.076 1.436 1.26 2.379 2.977 2.379 1.681 0 2.976-1.06 2.976-2.478 0-1.178-.726-1.922-1.822-2.098v-.094c.867-.252 1.5-.925 1.506-1.945.006-1.184-.955-2.238-2.625-2.238-1.711 0-2.76 1.013-2.866 2.39h1.026c.088-.949.75-1.47 1.769-1.47 1.02 0 1.623.644 1.623 1.435 0 .879-.691 1.5-1.664 1.5h-1.002v.903Zm5.754 3.896h1.008v-3.914c0-.891.639-1.606 1.465-1.606.797 0 1.318.481 1.318 1.231V192h1.008v-4.061c0-.802.586-1.459 1.465-1.459.891 0 1.33.458 1.33 1.389V192h1.008v-4.365c0-1.324-.721-2.063-2.01-2.063-.873 0-1.594.44-1.933 1.108h-.094c-.293-.657-.891-1.108-1.746-1.108-.844 0-1.477.405-1.764 1.108h-.094v-.996h-.961V192Zm13.77-6.07h1.019c0-1.002.674-1.664 1.688-1.664.996 0 1.6.668 1.6 1.564 0 .744-.317 1.184-1.395 2.35l-2.859 3.093V192h5.472v-.949h-4.008v-.094l1.922-1.986c1.524-1.576 1.946-2.28 1.946-3.252 0-1.371-1.131-2.373-2.608-2.373-1.617 0-2.777 1.078-2.777 2.584Zm10.148 6.269c1.899 0 2.989-1.605 2.989-4.412 0-2.801-1.108-4.441-2.989-4.441-1.892 0-3 1.634-3 4.424 0 2.812 1.096 4.429 3 4.429Zm0-.92c-1.248 0-1.939-1.248-1.939-3.509 0-2.233.703-3.499 1.939-3.499 1.237 0 1.928 1.254 1.928 3.499 0 2.267-.68 3.509-1.928 3.509Zm4.576-3.867c0 .914.54 1.424 1.723 1.711l1.084.264c.674.164 1.002.457 1.002.89 0 .58-.609.985-1.459.985-.809 0-1.312-.34-1.482-.873h-1.037c.111 1.049 1.078 1.722 2.484 1.722 1.435 0 2.531-.779 2.531-1.91 0-.908-.574-1.424-1.763-1.711l-.973-.234c-.744-.182-1.096-.451-1.096-.885 0-.562.586-.943 1.336-.943.762 0 1.254.334 1.389.838h.996c-.135-1.037-1.055-1.694-2.379-1.694-1.342 0-2.356.791-2.356 1.84Z"/></g><path fill="#fff" d="M316.656 101.709c.076 1.529 1.36 2.502 3.299 2.502 2.051 0 3.322-1.02 3.322-2.66 0-1.283-.72-1.998-2.437-2.39l-.973-.224c-1.049-.246-1.476-.58-1.476-1.16 0-.732.644-1.213 1.617-1.213.926 0 1.582.475 1.687 1.23h1.448c-.071-1.446-1.354-2.46-3.129-2.46-1.893 0-3.147 1.02-3.147 2.543 0 1.254.721 2.01 2.256 2.361l1.096.252c1.084.252 1.547.627 1.547 1.242 0 .721-.721 1.243-1.717 1.243-1.072 0-1.822-.493-1.916-1.266h-1.477Zm8.631-5.684v1.612h-1.014v1.13h1.014v3.534c0 1.236.586 1.728 2.057 1.728.281 0 .551-.023.761-.064v-1.113c-.175.017-.287.029-.492.029-.609 0-.879-.287-.879-.926v-3.187h1.371v-1.131h-1.371v-1.612h-1.447Zm6.035 8.08c.838 0 1.541-.363 1.899-.984h.099V104h1.401v-4.377c0-1.354-.926-2.15-2.573-2.15-1.523 0-2.584.715-2.701 1.834h1.371c.135-.44.592-.68 1.26-.68.785 0 1.207.357 1.207.996v.551l-1.652.099c-1.559.088-2.432.762-2.432 1.911 0 1.171.885 1.921 2.121 1.921Zm.428-1.119c-.645 0-1.107-.322-1.107-.873 0-.533.38-.832 1.195-.884l1.447-.1v.521c0 .762-.656 1.336-1.535 1.336Zm7.477 3.452c1.869 0 3.052-.932 3.052-2.403v-6.44h-1.4v1.026h-.1c-.351-.697-1.113-1.13-1.986-1.13-1.635 0-2.648 1.277-2.648 3.239 0 1.922 1.007 3.176 2.625 3.176.89 0 1.587-.375 1.957-1.066h.099v1.219c0 .814-.58 1.295-1.576 1.295-.797 0-1.312-.288-1.406-.739h-1.459c.117 1.102 1.195 1.823 2.842 1.823Zm0-3.686c-1.014 0-1.588-.785-1.588-2.027 0-1.237.574-2.022 1.588-2.022 1.007 0 1.623.785 1.623 2.027 0 1.237-.61 2.022-1.623 2.022Zm5.578-6.229c.48 0 .873-.38.873-.86a.87.87 0 0 0-.873-.862.867.867 0 0 0-.867.861c0 .48.392.861.867.861Zm-.721 7.477h1.447v-6.404h-1.447V104Zm3.252 0h1.453v-3.732c0-.961.545-1.565 1.412-1.565.885 0 1.295.498 1.295 1.494V104h1.453v-4.143c0-1.523-.779-2.384-2.209-2.384-.955 0-1.599.433-1.904 1.148h-.1v-1.025h-1.4V104Zm10.09 2.438c1.869 0 3.053-.932 3.053-2.403v-6.44h-1.401v1.026h-.099c-.352-.697-1.114-1.13-1.987-1.13-1.635 0-2.648 1.277-2.648 3.239 0 1.922 1.008 3.176 2.625 3.176.89 0 1.588-.375 1.957-1.066h.099v1.219c0 .814-.58 1.295-1.576 1.295-.797 0-1.312-.288-1.406-.739h-1.459c.117 1.102 1.195 1.823 2.842 1.823Zm0-3.686c-1.014 0-1.588-.785-1.588-2.027 0-1.237.574-2.022 1.588-2.022 1.008 0 1.623.785 1.623 2.027 0 1.237-.61 2.022-1.623 2.022Z"/><g filter="url(#p)"><path fill="#444D56" fill-rule="evenodd" d="M6 121a6 6 0 0 0-6 6v32a6 6 0 0 0 6 6h248a6 6 0 0 0 6-6v-9.52c0-.27.23-.48.5-.48a6 6 0 1 0 0-12c-.27 0-.5-.21-.5-.48V127a6 6 0 0 0-6-6H6Z" clip-rule="evenodd"/></g><circle cx="260" cy="143" r="4" fill="#6A737D"/><g clip-path="url(#q)"><path fill="#85E89D" fill-rule="evenodd" d="M20 151a8 8 0 1 0 0-16 8 8 0 0 0 0 16Zm3.78-9.72a.75.75 0 1 0-1.06-1.06l-3.97 3.969-1.47-1.469a.75.75 0 1 0-1.06 1.06l2 2a.75.75 0 0 0 1.06 0l4.5-4.5Z" clip-rule="evenodd"/></g><path fill="#fff" d="M41.435 148c2.105 0 3.39-1.066 3.39-2.803 0-1.285-.916-2.242-2.242-2.365v-.123c.991-.157 1.757-1.073 1.757-2.112 0-1.518-1.128-2.461-3.001-2.461h-4.122V148h4.218Zm-2.455-8.49h1.928c1.067 0 1.689.512 1.689 1.394 0 .903-.663 1.388-1.914 1.388H38.98v-2.782Zm0 7.116v-3.083h1.983c1.347 0 2.057.526 2.057 1.531 0 1.012-.69 1.552-1.989 1.552h-2.05Zm13.946-6.098h-1.695v4.355c0 1.128-.602 1.811-1.702 1.811-1.012 0-1.484-.56-1.484-1.722v-4.444H46.35v4.854c0 1.75.957 2.768 2.59 2.768 1.142 0 1.874-.485 2.236-1.339h.116V148h1.634v-7.472Zm2.79-1.251a1.01 1.01 0 0 0 1.018-1.005c0-.553-.458-1.004-1.018-1.004-.554 0-1.012.451-1.012 1.004 0 .561.458 1.005 1.012 1.005ZM54.875 148h1.688v-7.472h-1.688V148Zm3.712 0h1.695v-10.363h-1.695V148Zm6.399.123c1.039 0 1.9-.485 2.324-1.306h.116V148h1.641v-10.363h-1.695v4.081h-.117c-.396-.821-1.244-1.313-2.27-1.313-1.886 0-3.075 1.491-3.075 3.856 0 2.372 1.182 3.862 3.076 3.862Zm.526-6.303c1.162 0 1.88.937 1.88 2.448 0 1.517-.71 2.447-1.88 2.447-1.162 0-1.866-.916-1.866-2.447 0-1.525.711-2.448 1.866-2.448Z"/><path fill="#D1D5DA" d="M210.277 148h1.055v-8.455h-1.049l-2.25 1.617v1.113l2.151-1.558h.093V148Zm3.586 0h1.008v-3.914c0-.891.639-1.606 1.465-1.606.797 0 1.318.481 1.318 1.231V148h1.008v-4.061c0-.802.586-1.459 1.465-1.459.891 0 1.33.458 1.33 1.389V148h1.008v-4.365c0-1.324-.721-2.063-2.01-2.063-.873 0-1.594.44-1.934 1.108h-.093c-.293-.657-.891-1.108-1.746-1.108-.844 0-1.477.405-1.764 1.108h-.094v-.996h-.961V148Zm17.684 0h1.031v-1.752h1.201v-.943h-1.201v-5.76h-1.529a131.737 131.737 0 0 0-3.621 5.742v.961h4.119V148Zm-3.041-2.76c.92-1.552 2.027-3.299 2.976-4.717h.071v4.788h-3.047v-.071Zm6.849-3.31h1.02c0-1.002.674-1.664 1.687-1.664.997 0 1.6.668 1.6 1.564 0 .744-.316 1.184-1.394 2.35l-2.86 3.093V148h5.473v-.949h-4.008v-.094l1.922-1.986c1.523-1.576 1.945-2.28 1.945-3.252 0-1.371-1.131-2.373-2.607-2.373-1.617 0-2.778 1.078-2.778 2.584Zm7.166 1.482c0 .914.54 1.424 1.723 1.711l1.084.264c.674.164 1.002.457 1.002.89 0 .58-.609.985-1.459.985-.809 0-1.312-.34-1.482-.873h-1.037c.111 1.049 1.078 1.722 2.484 1.722 1.435 0 2.531-.779 2.531-1.91 0-.908-.574-1.424-1.763-1.711l-.973-.234c-.744-.182-1.096-.451-1.096-.885 0-.562.586-.943 1.336-.943.762 0 1.254.334 1.389.838h.996c-.135-1.037-1.055-1.694-2.379-1.694-1.342 0-2.356.791-2.356 1.84Z"/><path fill="#fff" d="M68.839 27h1.368v-3.669c0-.75.502-1.318 1.18-1.318.674 0 1.093.408 1.093 1.076V27h1.33v-3.768c0-.69.469-1.22 1.18-1.22.734 0 1.104.392 1.104 1.176V27h1.362v-4.149c0-1.252-.728-1.997-1.936-1.997-.839 0-1.534.43-1.832 1.087h-.093c-.254-.668-.834-1.087-1.666-1.087-.8 0-1.418.409-1.678 1.087h-.093v-.97h-1.319V27Zm11.9.1c.789 0 1.45-.343 1.787-.928h.094V27h1.319v-4.121c0-1.274-.872-2.025-2.422-2.025-1.435 0-2.433.673-2.543 1.727h1.29c.127-.414.558-.64 1.187-.64.739 0 1.136.337 1.136.938v.518l-1.556.094c-1.467.083-2.29.718-2.29 1.799 0 1.103.834 1.81 1.998 1.81Zm.403-1.054c-.607 0-1.043-.304-1.043-.822 0-.502.358-.784 1.125-.834l1.363-.093v.49c0 .718-.618 1.259-1.445 1.259Zm4.882-6.554v1.517h-.954v1.064h.954V25.4c0 1.164.552 1.628 1.936 1.628.265 0 .519-.022.718-.061v-1.048c-.166.016-.27.027-.464.027-.574 0-.827-.27-.827-.871v-3.002h1.29V21.01h-1.29v-1.517h-1.363ZM90.046 27h1.368v-3.503c0-.85.618-1.401 1.506-1.401.232 0 .596.038.7.077v-1.247a2.71 2.71 0 0 0-.568-.055c-.778 0-1.428.441-1.594 1.037h-.094v-.938h-1.318V27Zm5.395-7.04a.815.815 0 0 0 .822-.81.818.818 0 0 0-.822-.811.817.817 0 0 0-.816.81c0 .453.37.811.816.811ZM94.763 27h1.362v-6.03h-1.362V27Zm5.406-2.085 1.236 2.096h1.545l-1.97-3.05 1.948-2.98h-1.507l-1.191 2.091h-.094l-1.197-2.09H97.35l1.97 3.039-1.953 2.99h1.478l1.23-2.096h.094Zm7.453-.497v-1.252h-3.624v1.252h3.624Zm5.098 2.681c1.523 0 2.477-1.197 2.477-3.111 0-1.926-.949-3.117-2.477-3.117-.828 0-1.523.402-1.837 1.059h-.094v-3.293h-1.368V27h1.318v-.954h.094c.342.662 1.043 1.053 1.887 1.053Zm-.43-5.086c.932 0 1.5.745 1.5 1.975s-.563 1.975-1.5 1.975c-.938 0-1.523-.756-1.523-1.975 0-1.22.59-1.975 1.523-1.975Zm9.533-1.043h-1.369v3.514c0 .91-.485 1.462-1.373 1.462-.817 0-1.197-.452-1.197-1.39V20.97h-1.369v3.917c0 1.412.773 2.234 2.091 2.234.922 0 1.512-.391 1.804-1.08h.094V27h1.319v-6.03Zm2.372-1.01a.815.815 0 0 0 .822-.81.818.818 0 0 0-.822-.811.817.817 0 0 0-.817.81c0 .453.37.811.817.811Zm-.679 7.04h1.363v-6.03h-1.363V27Zm3.117 0h1.368v-8.363h-1.368V27Zm5.285.1c.839 0 1.534-.392 1.876-1.054h.094V27h1.324v-8.363h-1.368v3.293h-.094c-.32-.662-1.004-1.06-1.832-1.06-1.522 0-2.482 1.203-2.482 3.112 0 1.915.954 3.117 2.482 3.117Zm.425-5.087c.938 0 1.517.756 1.517 1.975 0 1.224-.573 1.975-1.517 1.975-.938 0-1.506-.74-1.506-1.975 0-1.23.574-1.975 1.506-1.975Zm8.281 2.405v-1.252h-3.625v1.252h3.625Zm3.928 2.681c.839 0 1.534-.391 1.876-1.053h.093V27h1.325v-8.363h-1.369v3.293h-.093c-.32-.662-1.004-1.06-1.832-1.06-1.523 0-2.483 1.203-2.483 3.112 0 1.915.955 3.117 2.483 3.117Zm.425-5.086c.938 0 1.517.756 1.517 1.975 0 1.224-.574 1.975-1.517 1.975-.938 0-1.506-.74-1.506-1.975 0-1.23.573-1.975 1.506-1.975Zm8.529 3.337c-.199.453-.668.707-1.346.707-.9 0-1.479-.64-1.512-1.66v-.073h4.215v-.436c0-1.892-1.032-3.034-2.753-3.034-1.749 0-2.836 1.22-2.836 3.156 0 1.93 1.071 3.111 2.847 3.111 1.423 0 2.433-.684 2.681-1.77h-1.296Zm-1.401-3.431c.822 0 1.362.58 1.39 1.495h-2.841c.06-.905.634-1.495 1.451-1.495Zm7.42-1.048c-.828 0-1.529.414-1.876 1.098h-.094v-.999h-1.318v8.033h1.368v-2.919h.094c.309.64.976 1.015 1.842 1.015 1.523 0 2.472-1.197 2.472-3.111 0-1.931-.96-3.117-2.488-3.117Zm-.431 5.092c-.932 0-1.511-.756-1.517-1.975.006-1.22.591-1.975 1.523-1.975.938 0 1.506.739 1.506 1.975 0 1.236-.563 1.975-1.512 1.975ZM163.442 27h1.368v-8.363h-1.368V27Zm5.704.121c1.804 0 2.902-1.18 2.902-3.139 0-1.947-1.104-3.128-2.902-3.128-1.793 0-2.902 1.186-2.902 3.128 0 1.959 1.092 3.14 2.902 3.14Zm0-1.12c-.954 0-1.501-.739-1.501-2.013 0-1.275.547-2.014 1.501-2.014.949 0 1.495.74 1.495 2.014 0 1.274-.541 2.014-1.495 2.014Zm4.7 3.184c1.352 0 1.997-.491 2.51-1.975l2.18-6.24h-1.446l-1.407 4.733h-.093l-1.413-4.733h-1.5l2.157 6.052-.072.281c-.176.569-.502.79-1.081.79a4 4 0 0 1-.375-.017v1.087c.088.016.458.022.54.022Zm6.096-2.075c.525 0 .883-.37.883-.86 0-.486-.358-.855-.883-.855-.518 0-.882.37-.882.855 0 .49.364.86.882.86Zm2.566 2.075c1.351 0 1.997-.491 2.51-1.975l2.179-6.24h-1.445l-1.407 4.733h-.094l-1.412-4.733h-1.501l2.157 6.052-.071.281c-.177.569-.502.79-1.082.79a4 4 0 0 1-.375-.017v1.087c.088.016.458.022.541.022Zm5.87-2.185h1.368v-3.669c0-.75.502-1.318 1.18-1.318.673 0 1.093.408 1.093 1.076V27h1.329v-3.768c0-.69.469-1.22 1.181-1.22.734 0 1.103.392 1.103 1.176V27h1.363v-4.149c0-1.252-.728-1.997-1.936-1.997-.839 0-1.534.43-1.832 1.087h-.094c-.254-.668-.833-1.087-1.666-1.087-.8 0-1.418.409-1.677 1.087h-.094v-.97h-1.318V27Zm10.294 0h1.368v-8.363h-1.368V27ZM70.503 41.027c1.27 0 2.057-.878 2.057-2.31 0-1.435-.787-2.308-2.057-2.308s-2.056.873-2.056 2.309c0 1.431.786 2.309 2.056 2.309Zm0-.642c-.844 0-1.32-.612-1.32-1.667 0-1.06.476-1.668 1.32-1.668.844 0 1.32.609 1.32 1.668 0 1.055-.476 1.667-1.32 1.667Zm3.174.563h.711v-2.64c0-.782.46-1.258 1.171-1.258.712 0 1.051.381 1.051 1.184v2.714h.712V38.06c0-1.06-.559-1.651-1.56-1.651-.683 0-1.117.29-1.34.782h-.067v-.703h-.678v4.46Zm5.536-3.161a.537.537 0 1 0 .002-1.078.537.537 0 0 0-.002 1.078Zm0 3.202a.537.537 0 1 0 .002-1.078.537.537 0 0 0-.002 1.078Zm6.492-4.58c-.608 0-1.142.31-1.428.823h-.066v-.744h-.678v5.95h.711v-2.16h.067c.244.471.757.749 1.394.749 1.134 0 1.874-.915 1.874-2.31 0-1.402-.736-2.308-1.874-2.308Zm-.17 3.976c-.802 0-1.311-.645-1.311-1.667 0-1.026.508-1.668 1.315-1.668.816 0 1.304.625 1.304 1.668 0 1.042-.489 1.667-1.308 1.667Zm6.77-3.897h-.712v2.64c0 .782-.43 1.249-1.217 1.249-.711 0-1.01-.372-1.01-1.175v-2.714h-.711v2.888c0 1.055.521 1.65 1.523 1.65.682 0 1.158-.28 1.382-.777h.066v.699h.678v-4.46Zm1.236 1.22c0 .646.381 1.006 1.217 1.208l.766.187c.475.115.707.322.707.628 0 .41-.43.696-1.03.696-.571 0-.927-.24-1.047-.617h-.733c.08.74.762 1.217 1.755 1.217 1.014 0 1.787-.55 1.787-1.35 0-.64-.405-1.005-1.245-1.207l-.687-.166c-.525-.128-.774-.319-.774-.625 0-.397.414-.666.944-.666.538 0 .885.236.98.592h.704c-.095-.733-.745-1.196-1.68-1.196-.948 0-1.663.559-1.663 1.3Zm4.58 3.24h.713v-2.64c0-.753.438-1.258 1.237-1.258.674 0 1.03.393 1.03 1.184v2.714h.712V38.06c0-1.047-.596-1.651-1.54-1.651-.682 0-1.15.29-1.373.782h-.067v-2.474h-.711v6.231Z"/><defs><clipPath id="e"><rect width="105" height="28" x="743" y="16" fill="#fff" rx="6"/></clipPath><clipPath id="g"><path fill="#fff" d="M648 121h260v176H648z"/></clipPath><clipPath id="h"><path fill="#fff" d="M660 135h16v16h-16z"/></clipPath><clipPath id="i"><path fill="#fff" d="M660 179h16v16h-16z"/></clipPath><clipPath id="j"><path fill="#fff" d="M660 223h16v16h-16z"/></clipPath><clipPath id="k"><path fill="#fff" d="M660 267h16v16h-16z"/></clipPath><clipPath id="m"><path fill="#fff" d="M316 121h260v88H316z"/></clipPath><clipPath id="n"><path fill="#fff" d="M328 135h16v16h-16z"/></clipPath><clipPath id="o"><path fill="#fff" d="M328 179h16v16h-16z"/></clipPath><clipPath id="q"><path fill="#fff" d="M12 135h16v16H12z"/></clipPath><filter id="a" width="836.883" height="390.883" x="41.058" y="-9.942" color-interpolation-filters="sRGB" filterUnits="userSpaceOnUse"><feFlood flood-opacity="0" result="BackgroundImageFix"/><feGaussianBlur in="BackgroundImageFix" stdDeviation="5"/><feComposite in2="SourceAlpha" operator="in" result="effect1_backgroundBlur_149_10405"/><feBlend in="SourceGraphic" in2="effect1_backgroundBlur_149_10405" result="shape"/></filter><filter id="d" width="105" height="29" x="743" y="16" color-interpolation-filters="sRGB" filterUnits="userSpaceOnUse"><feFlood flood-opacity="0" result="BackgroundImageFix"/><feColorMatrix in="SourceAlpha" result="hardAlpha" values="0 0 0 0 0 0 0 0 0 0 0 0 0 0 0 0 0 0 127 0"/><feOffset dy="1"/><feColorMatrix values="0 0 0 0 0 0 0 0 0 0 0 0 0 0 0 0 0 0 0.25 0"/><feBlend in2="BackgroundImageFix" result="effect1_dropShadow_149_10405"/><feBlend in="SourceGraphic" in2="effect1_dropShadow_149_10405" result="shape"/></filter><filter id="f" width="299" height="230" x="625" y="84" color-interpolation-filters="sRGB" filterUnits="userSpaceOnUse"><feFlood flood-opacity="0" result="BackgroundImageFix"/><feColorMatrix in="SourceAlpha" result="hardAlpha" values="0 0 0 0 0 0 0 0 0 0 0 0 0 0 0 0 0 0 127 0"/><feOffset dy="1"/><feColorMatrix values="0 0 0 0 0 0 0 0 0 0 0 0 0 0 0 0 0 0 0.25 0"/><feBlend in2="BackgroundImageFix" result="effect1_dropShadow_149_10405"/><feBlend in="SourceGraphic" in2="effect1_dropShadow_149_10405" result="shape"/></filter><filter id="l" width="306" height="142" x="293" y="84" color-interpolation-filters="sRGB" filterUnits="userSpaceOnUse"><feFlood flood-opacity="0" result="BackgroundImageFix"/><feColorMatrix in="SourceAlpha" result="hardAlpha" values="0 0 0 0 0 0 0 0 0 0 0 0 0 0 0 0 0 0 127 0"/><feOffset dy="1"/><feColorMatrix values="0 0 0 0 0 0 0 0 0 0 0 0 0 0 0 0 0 0 0.25 0"/><feBlend in2="BackgroundImageFix" result="effect1_dropShadow_149_10405"/><feBlend in="SourceGraphic" in2="effect1_dropShadow_149_10405" result="shape"/></filter><filter id="p" width="266.5" height="45" x="0" y="121" color-interpolation-filters="sRGB" filterUnits="userSpaceOnUse"><feFlood flood-opacity="0" result="BackgroundImageFix"/><feColorMatrix in="SourceAlpha" result="hardAlpha" values="0 0 0 0 0 0 0 0 0 0 0 0 0 0 0 0 0 0 127 0"/><feOffset dy="1"/><feColorMatrix values="0 0 0 0 0 0 0 0 0 0 0 0 0 0 0 0 0 0 0.25 0"/><feBlend in2="BackgroundImageFix" result="effect1_dropShadow_149_10405"/><feBlend in="SourceGraphic" in2="effect1_dropShadow_149_10405" result="shape"/></filter><linearGradient id="b" x1="459.5" x2="459.5" y1="257.942" y2="370" gradientUnits="userSpaceOnUse"><stop stop-color="#21262D"/><stop offset="1" stop-color="#21262D" stop-opacity="0"/></linearGradient><linearGradient id="c" x1="459.5" x2="459.5" y1="136.262" y2="370" gradientUnits="userSpaceOnUse"><stop stop-color="#323A44"/><stop offset="1" stop-color="#21262D" stop-opacity="0"/></linearGradient></defs></svg>