<svg width="169" height="38" viewBox="0 0 169 38" fill="none" xmlns="http://www.w3.org/2000/svg">
<path d="M11.1004 37.2708C5.61037 37.2708 0.236572 33.3203 0.236572 24.4027C0.236572 15.4561 5.61037 11.5637 11.1004 11.5637C13.8018 11.5637 15.9223 12.2609 17.4327 13.2485L15.777 16.8794C14.7604 16.1532 13.2499 15.6885 11.7394 15.6885C8.42799 15.6885 5.40704 18.3028 5.40704 24.3447C5.40704 30.3865 8.51513 33.0589 11.7394 33.0589C13.2499 33.0589 14.7604 32.5942 15.777 31.868L17.4327 35.5861C15.8642 36.6318 13.8018 37.2708 11.1004 37.2708Z" fill="#24292E"/>
<path d="M30.0105 37.2708C23.0101 37.2708 19.1467 31.7227 19.1467 24.4027C19.1467 17.0828 22.981 11.5637 30.0105 11.5637C37.011 11.5637 40.8743 17.0537 40.8743 24.4027C40.8743 31.7227 37.011 37.2708 30.0105 37.2708ZM30.0105 15.5432C26.1181 15.5432 24.201 19.0289 24.201 24.3447C24.201 29.6604 26.1181 33.1751 30.0105 33.1751C33.9029 33.1751 35.82 29.6604 35.82 24.3447C35.82 19.0289 33.9029 15.5432 30.0105 15.5432Z" fill="#24292E"/>
<path d="M47.6132 7.58444C45.9575 7.58444 44.6213 6.30634 44.6213 4.73778C44.6213 3.16921 45.9575 1.89111 47.6132 1.89111C49.2689 1.89111 50.6051 3.16921 50.6051 4.73778C50.6051 6.30634 49.2399 7.58444 47.6132 7.58444ZM45.0861 12.0578H50.1404V36.7482H45.0861V12.0578Z" fill="#24292E"/>
<path d="M69.9508 36.748V20.278C69.9508 17.4023 68.2079 15.6013 64.7803 15.6013C62.9503 15.6013 61.2655 15.9209 60.2489 16.3275V36.777H55.2527V13.3066C57.7217 12.2899 60.8879 11.5637 64.7512 11.5637C71.6646 11.5637 75.005 14.5847 75.005 19.8132V36.777H69.9508" fill="#24292E"/>
<path d="M88.2798 37.2706C85.0845 37.2706 81.9184 36.4863 79.9722 35.5278V0.786865H84.9684V12.6964C86.1593 12.1445 88.0764 11.6797 89.7903 11.6797C96.1517 11.6797 100.48 16.2692 100.48 23.8216C100.48 33.1459 95.6579 37.2706 88.2798 37.2706ZM88.9188 15.6011C87.5536 15.6011 85.9269 15.9206 84.9684 16.4145V32.623C85.6945 32.9425 87.1179 33.262 88.5412 33.262C92.5207 33.262 95.4545 30.5025 95.4545 24.1992C95.4836 18.7964 92.9274 15.6011 88.9188 15.6011Z" fill="#24292E"/>
<path d="M114.074 37.2708C106.987 37.2708 103.385 34.3951 103.385 29.5151C103.385 22.6308 110.705 21.4108 118.17 21.0042V19.4356C118.17 16.3275 116.108 15.2237 112.941 15.2237C110.618 15.2237 107.771 15.9499 106.115 16.7342L104.837 13.3066C106.812 12.4351 110.153 11.5637 113.464 11.5637C119.361 11.5637 122.963 13.8585 122.963 19.9585V35.528C121.191 36.4865 117.56 37.2708 114.074 37.2708ZM118.199 24.3447C113.145 24.6061 108.12 25.0418 108.12 29.428C108.12 32.0423 110.124 33.6399 113.929 33.6399C115.527 33.6399 117.415 33.3784 118.199 33.0008V24.3447Z" fill="#24292E"/>
<path d="M134.233 37.2708C131.357 37.2708 128.336 36.4865 126.535 35.528L128.22 31.6937C129.498 32.478 132.2 33.2913 134.088 33.2913C136.789 33.2913 138.59 31.9551 138.59 29.8927C138.59 27.6561 136.702 26.7846 134.204 25.8551C130.893 24.6061 127.203 23.0956 127.203 18.477C127.203 14.4104 130.37 11.5637 135.86 11.5637C138.852 11.5637 141.321 12.2899 143.063 13.3066L141.495 16.7923C140.391 16.0951 138.183 15.3399 136.412 15.3399C133.797 15.3399 132.345 16.7051 132.345 18.5061C132.345 20.7428 134.175 21.527 136.615 22.4566C140.043 23.7347 143.848 25.158 143.848 29.9799C143.819 34.3661 140.42 37.2708 134.233 37.2708Z" fill="#24292E"/>
<path d="M168.19 24.2866L151.778 26.5813C152.271 31.0256 155.176 33.2623 159.33 33.2623C161.799 33.2623 164.471 32.6523 166.156 31.7518L167.609 35.4989C165.691 36.5156 162.38 37.2418 158.981 37.2418C151.197 37.2418 146.84 32.2456 146.84 24.3737C146.84 16.8213 151.052 11.5347 157.965 11.5347C164.384 11.5347 168.19 15.7466 168.19 22.3985C168.248 23.0085 168.248 23.6475 168.19 24.2866ZM157.936 15.2237C154.101 15.2237 151.574 18.1575 151.487 23.2989L163.455 21.6432C163.397 17.3442 161.218 15.2237 157.936 15.2237Z" fill="#24292E"/>
</svg>
