<svg width="102" height="50" viewBox="0 0 102 50" fill="none" xmlns="http://www.w3.org/2000/svg">
<path d="M10.9396 18.2833V4.6106C10.9396 4.10397 10.9901 3.80011 11.8515 3.80011H23.4477C25.4736 3.80011 26.5876 5.52217 27.3981 8.76291L28.0564 11.346H30.0311C30.3852 4.00349 30.6888 0.812988 30.6888 0.812988C30.6888 0.812988 25.7263 1.36986 22.7891 1.36986H7.95246L0.000732422 1.11654V3.24354L2.68521 3.74987C4.55889 4.10457 5.01377 4.50921 5.16691 6.23157C5.16691 6.23157 5.31913 11.2955 5.31913 19.6515C5.31913 28.0064 5.16691 33.0203 5.16691 33.0203C5.16691 34.5393 4.55889 35.0962 2.68521 35.4518L0.000732422 35.9584V38.0842L7.95246 37.8315H21.2202C24.2079 37.8315 31.1455 38.0842 31.1455 38.0842C31.2968 36.2608 32.3104 28.0064 32.4623 27.096H30.5886L28.6135 31.603C27.0434 35.147 24.7651 35.4006 22.2325 35.4006H14.6867C12.1544 35.4006 10.939 34.3877 10.939 32.2104V20.6642C10.939 20.6642 16.4587 20.6642 18.3826 20.8164C19.8008 20.9181 20.6612 21.323 21.1176 23.2978L21.7256 25.9311H23.902L23.7506 19.2965L24.0542 12.6126H21.8772L21.1687 15.5495C20.7124 17.4737 20.4091 17.829 18.4337 18.0309C16.2059 18.2848 10.9387 18.2339 10.9387 18.2339V18.2842H10.9396V18.2833ZM40.9691 6.0288C40.26 9.16845 39.5509 11.599 37.0695 13.2197C35.5505 14.232 34.0309 14.5861 33.4241 14.637V16.5612H37.9308V32.1076C37.9308 36.4632 40.8178 38.5905 44.6659 38.5905C47.6539 38.5905 50.7425 37.3246 51.8063 34.6906L50.7425 33.3233C50.2358 34.1846 48.6164 35.4503 46.5904 35.4503C44.3627 35.4503 43.1472 33.9307 43.1472 30.0828V16.3596L50.6426 16.9171L51.0472 13.4727L43.1475 13.7769V6.07904L40.9691 6.0288ZM56.9718 29.9414L55.0476 29.992C55.1487 31.1057 55.1998 32.5242 55.1998 33.8407C55.1998 35.2081 55.1493 36.4741 55.0476 37.0815C55.0476 37.0815 58.8963 38.4982 62.7956 38.4982C68.0623 38.4982 72.2658 35.9662 72.2658 31.0034C72.2658 22.4969 59.5044 23.7632 59.5044 18.0399C59.5044 15.6602 61.6311 14.7483 63.9605 14.7483C65.7837 14.7483 67.3027 15.4065 67.6065 16.3696L68.8728 20.1675L70.7468 20.0664C70.899 18.0405 70.9998 15.711 71.3039 13.8376C69.683 13.1285 66.2897 12.7227 64.1645 12.7227C59.2005 12.7227 55.2007 14.9005 55.2007 19.7622C55.2007 28.2188 67.6577 26.497 67.6577 32.7267C67.6577 34.9539 66.2897 36.524 63.2015 36.524C60.3663 36.524 58.9478 35.0559 58.3918 33.5865L56.9718 29.9414ZM87.4938 35.7917C84.562 43.9811 80.9732 46.1027 77.7385 46.1027C76.3729 46.1027 75.7165 45.4956 75.5134 44.5368L74.7553 40.593L72.6319 40.6941C72.2276 43.0196 71.8232 45.5985 71.2678 47.721C72.5317 48.6801 74.6536 49.1867 76.3224 49.1867C79.811 49.1867 85.118 48.7309 89.9698 37.2066L98.1087 17.999C98.7663 16.4315 99.0181 16.2799 100.939 15.5212L102.001 15.1177V13.3484L97.1983 13.6012L92.0426 13.3484V15.1177L93.3562 15.5212C94.67 15.9264 95.2777 16.4315 95.2777 17.3416C95.2777 17.7962 95.1254 18.2514 94.8721 18.9584C94.114 20.8805 89.4129 32.3037 88.1506 34.7307L89.4126 34.2749C87.1882 28.7654 83.803 19.5649 83.297 17.9993C83.1959 17.6957 83.1454 17.443 83.1454 17.1891C83.1454 16.3807 83.7013 15.7233 84.9146 15.4709L86.5828 15.118V13.3487L79.657 13.6015L74.1476 13.3487V15.118L75.0576 15.421C76.3212 15.8253 76.6248 16.1794 77.3829 17.9484C81.577 27.553 83.5497 32.8091 86.2275 39.6844L87.4938 35.7917Z" fill="#24292E"/>
</svg>
