<svg width="97" height="48" viewBox="0 0 97 48" fill="none" xmlns="http://www.w3.org/2000/svg">
<g clip-path="url(#clip0_912_15086)">
<path fill-rule="evenodd" clip-rule="evenodd" d="M52.0433 4V9.42063L45.3409 10.8626V5.41524L52.0433 4ZM65.9819 12.4375C63.365 12.4375 61.6828 13.6658 60.7482 14.5203L60.4011 12.8647H54.5265V44L61.2021 42.5847L61.2288 35.0279C62.1901 35.7222 63.6054 36.7102 65.9552 36.7102C70.735 36.7102 75.0875 32.865 75.0875 24.4003C75.0608 16.6565 70.6549 12.4375 65.9819 12.4375ZM64.3797 30.8356C62.8043 30.8356 61.8697 30.2748 61.2288 29.5806L61.2021 19.6739C61.8964 18.8995 62.8577 18.3655 64.3797 18.3655C66.8097 18.3655 68.4919 21.0891 68.4919 24.5872C68.4919 28.1653 66.8364 30.8356 64.3797 30.8356ZM96.1292 24.6673C96.1292 17.8314 92.8181 12.4375 86.4896 12.4375C80.1344 12.4375 76.2892 17.8314 76.2892 24.6139C76.2892 32.6514 80.8286 36.7102 87.3441 36.7102C90.5217 36.7102 92.9249 35.9892 94.7407 34.9745V29.634C92.9249 30.5419 90.8421 31.1026 88.1985 31.1026C85.6084 31.1026 83.312 30.1947 83.0182 27.0438H96.0758C96.0758 26.8966 96.0854 26.5623 96.0965 26.1771L96.0965 26.1762L96.0965 26.175C96.1115 25.6521 96.1292 25.036 96.1292 24.6673ZM82.9381 22.1305C82.9381 19.1131 84.7806 17.8581 86.4629 17.8581C88.0917 17.8581 89.8274 19.1131 89.8274 22.1305H82.9381ZM52.0433 12.8925H45.3409V36.2572H52.0433V12.8925ZM37.731 12.8923L38.1583 14.8683C39.7337 11.9844 42.8579 12.5719 43.7124 12.8923V19.0339C42.8846 18.7402 40.2144 18.3663 38.6389 20.4224V36.2571H31.9633V12.8923H37.731ZM24.8069 7.09746L18.2914 8.48599L18.2647 29.8748C18.2647 33.8267 21.2287 36.7373 25.1807 36.7373C27.3703 36.7373 28.9725 36.3368 29.8536 35.8561V30.4355C28.9992 30.7827 24.7802 32.011 24.7802 28.059V18.5796H29.8536V12.8919H24.7802L24.8069 7.09746ZM9.02548 18.232C7.61024 18.232 6.75576 18.6325 6.75576 19.6739C6.75576 20.8109 8.22633 21.3111 10.0507 21.9316C13.025 22.9432 16.9396 24.2747 16.9561 29.2067C16.9561 33.9865 13.1377 36.7369 7.58354 36.7369C5.28711 36.7369 2.77707 36.2829 0.293728 35.2148V28.8596C2.53675 30.0879 5.36722 30.9958 7.58354 30.9958C9.07888 30.9958 10.147 30.5953 10.147 29.3669C10.147 28.1075 8.55285 27.5318 6.62829 26.8368C3.69732 25.7783 0 24.4431 0 19.9943C0 15.268 3.60485 12.4375 9.02548 12.4375C11.2418 12.4375 13.4314 12.7846 15.6477 13.6658V19.9409C13.6183 18.8461 11.0549 18.232 9.02548 18.232Z" fill="#24292E"/>
</g>
<defs>
<clipPath id="clip0_912_15086">
<rect width="96.1292" height="48" fill="white"/>
</clipPath>
</defs>
</svg>
