<svg width="134" height="40" viewBox="0 0 134 40" fill="none" xmlns="http://www.w3.org/2000/svg">
<path fill-rule="evenodd" clip-rule="evenodd" d="M94.3695 7.83999H87.3295C87.1694 7.83999 87.0094 8.00001 87.0094 8.16001V12.24C87.0094 12.4 87.1694 12.56 87.3295 12.56H94.3695C94.5294 12.56 94.6894 12.4 94.6894 12.24V8.16001C94.7694 8.00001 94.6095 7.83999 94.3695 7.83999ZM94.2894 13.92H80.6894C80.5294 13.92 80.2894 14.08 80.2094 14.24L78.4494 20.88L78.3695 21.2L76.2895 14.08C76.2094 13.92 76.0494 13.76 75.8094 13.76H70.5294C70.3695 13.76 70.1294 13.92 70.0494 14.08L68.0494 20.72L67.9695 21.04L67.8895 20.88L67.0894 17.6L66.2094 14.32C66.1294 14.16 65.9695 14 65.7295 14H55.0895V8.23999C55.0895 8.07999 54.8494 7.83999 54.6094 7.91999L47.8895 9.99999C47.6495 10.08 47.5695 10.16 47.5695 10.32V13.92H45.8094C45.6494 13.92 45.4894 14.08 45.4894 14.24V19.36C45.4894 19.52 45.6494 19.68 45.8094 19.68H47.5695V25.92C47.5695 30.32 49.9695 32.4 54.3695 32.4C56.2095 32.4 57.9695 32 59.1695 31.36V26.08C59.1695 25.84 58.9295 25.76 58.7695 25.76C58.0495 26.08 57.4894 26.16 56.8494 26.16C55.6494 26.16 55.0094 25.68 55.0094 24.32V19.76H58.8494C59.0094 19.76 59.1695 19.6 59.1695 19.44V15.12L64.2094 31.84C64.2894 32 64.4494 32.16 64.6894 32.16H70.2895C70.4494 32.16 70.6895 32 70.7695 31.84L73.1695 24.4L74.3695 28.24L75.4894 31.76C75.5695 31.92 75.7295 32.08 75.9695 32.08H81.5695C81.7295 32.08 81.9694 31.92 82.0494 31.76L87.1695 14.96V31.76C87.1695 31.92 87.3294 32.08 87.4894 32.08H94.2894C94.4494 32.08 94.6094 31.92 94.6094 31.76V14.32C94.6094 14.08 94.4494 13.92 94.2894 13.92ZM103.249 7.83999H96.4494C96.2894 7.83999 96.1294 8.00001 96.1294 8.16001V31.76C96.1294 31.92 96.2894 32.08 96.4494 32.08H103.249C103.409 32.08 103.569 31.92 103.569 31.76V8.16001C103.569 8.00001 103.409 7.83999 103.249 7.83999ZM112.289 7.83999H105.249C105.089 7.83999 104.929 8.00001 104.929 8.16001V12.24C104.929 12.4 105.089 12.56 105.249 12.56H112.289C112.449 12.56 112.609 12.4 112.609 12.24V8.16001C112.689 8.00001 112.529 7.83999 112.289 7.83999ZM112.209 13.92H105.409C105.249 13.92 105.089 14.08 105.089 14.24V31.76C105.089 31.92 105.249 32.08 105.409 32.08H112.209C112.369 32.08 112.529 31.92 112.529 31.76V14.32C112.529 14.08 112.369 13.92 112.209 13.92ZM123.489 13.52C117.489 13.52 113.249 17.92 113.249 23.04V23.12C113.249 28.24 117.489 32.56 123.409 32.56C129.409 32.56 133.649 28.16 133.649 23.04V22.96C133.649 17.84 129.409 13.52 123.489 13.52ZM126.369 23.04C126.369 24.8 125.169 26.16 123.489 26.16C121.809 26.16 120.529 24.72 120.529 22.96V22.88C120.529 21.12 121.729 19.76 123.409 19.76C125.089 19.76 126.369 21.2 126.369 23.04ZM20.6895 0C9.64945 0 0.689453 8.96 0.689453 20C0.689453 31.04 9.64945 40 20.6895 40C31.7295 40 40.6894 31.04 40.6894 20C40.6894 8.96 31.7295 0 20.6895 0ZM20.6895 34.72C12.5295 34.72 5.96946 28.16 5.96946 20C5.96946 11.84 12.5295 5.28 20.6895 5.28C28.8495 5.28 35.4094 11.84 35.4094 20C35.4094 28.16 28.8495 34.72 20.6895 34.72ZM25.6487 19.1999C27.9462 19.1999 29.8087 17.3374 29.8087 15.0399C29.8087 12.7424 27.9462 10.8799 25.6487 10.8799C23.3512 10.8799 21.4886 12.7424 21.4886 15.0399C21.4886 17.3374 23.3512 19.1999 25.6487 19.1999ZM29.8087 24.9599C29.8087 27.2574 27.9462 29.1199 25.6487 29.1199C23.3512 29.1199 21.4886 27.2574 21.4886 24.9599C21.4886 22.6624 23.3512 20.7999 25.6487 20.7999C27.9462 20.7999 29.8087 22.6624 29.8087 24.9599ZM15.7287 29.1199C18.0262 29.1199 19.8887 27.2574 19.8887 24.9599C19.8887 22.6624 18.0262 20.7999 15.7287 20.7999C13.4311 20.7999 11.5687 22.6624 11.5687 24.9599C11.5687 27.2574 13.4311 29.1199 15.7287 29.1199ZM19.8887 15.0399C19.8887 17.3374 18.0262 19.1999 15.7287 19.1999C13.4311 19.1999 11.5687 17.3374 11.5687 15.0399C11.5687 12.7424 13.4311 10.8799 15.7287 10.8799C18.0262 10.8799 19.8887 12.7424 19.8887 15.0399Z" fill="#24292E"/>
</svg>
