<svg fill="none" height="31" viewBox="0 0 118 31" width="118" xmlns="http://www.w3.org/2000/svg" xmlns:xlink="http://www.w3.org/1999/xlink"><clipPath id="a"><path d="m0 0h118v31h-118z"/></clipPath><g clip-path="url(#a)" fill="#fa0c00"><path d="m13.0004 0h-13.0004v31z"/><path d="m22.1472 0h12.9835v31z"/><path d="m17.5738 11.4255 8.2745 19.5745h-5.4288l-2.4731-6.232h-6.0555z"/><path d="m56.3399 19.7141 1.533 4.3827c.0508.1098.127.1605.2625.1605h2.9473c.1609 0 .1864-.076.1609-.2365l-6.0894-16.86377c-.0254-.13511-.0508-.16045-.1863-.16045h-3.6588c-.1016 0-.1609.076-.1609.18578-.0508.88668-.127 1.15691-.2371 1.41869l-5.4288 15.39445c-.0255.1858.0338.2618.1863.2618h2.6339c.161 0 .2372-.0507.2965-.2111l1.4482-4.3321zm-5.4542-2.8627c.7961-2.3983 1.8463-5.4721 2.2698-7.22856h.0254c.5251 1.84096 1.7616 5.48896 2.3206 7.22856z"/><path d="m69.0721 24.519c1.5838 0 3.2692-.2871 4.98-1.0218.1355-.0507.1609-.1098.1609-.2365-.0508-.4729-.1101-1.1569-.1101-1.6804v-15.87581c0-.10133 0-.152-.127-.152h-2.8711c-.1101 0-.1609.05067-.1609.18578v5.37923c-.4489-.0507-.7623-.076-1.1349-.076-4.6327 0-7.4784 3.0484-7.4784 6.8569 0 4.4166 2.9219 6.6206 6.7415 6.6206zm1.8718-2.9387c-.4743.152-.9994.2111-1.533.2111-2.1004 0-3.8197-1.1822-3.8197-4.0534 0-2.5418 1.7701-4.0449 4.1161-4.0449.4743 0 .8893.0506 1.2366.1857z"/><path d="m83.3723 11.0415c-3.9552 0-6.4028 3.0232-6.4028 6.7557 0 3.3356 1.9479 6.7218 6.3435 6.7218 3.718 0 6.3266-2.7276 6.3266-6.8063 0-3.5974-2.2105-6.6712-6.2673-6.6712zm-.1609 2.6516c2.2359 0 3.1844 1.9169 3.1844 4.1041 0 2.7022-1.3974 4.0449-3.0235 4.0449-2.0072 0-3.1929-1.6805-3.1929-4.1041 0-2.4911 1.2619-4.0449 3.032-4.0449z"/><path d="m92.608 5.55249c-.1101 0-.1864.05067-.1864.18578v17.97003c0 .076.0763.2111.1864.2365 1.2619.3884 2.5831.5742 3.9467.5742 3.9043 0 7.6983-2.4152 7.6983-7.2792 0-3.5214-2.422-6.1983-6.2162-6.1983-.8724 0-1.6854.1351-2.3968.3715l-.0339-5.6494c0-.18578-.0508-.21111-.2372-.21111zm8.402 12.00821c0 2.9133-1.9992 4.2814-4.1589 4.2814-.4489 0-.847-.0254-1.2111-.1352v-7.6676c.415-.1605.9147-.2956 1.8378-.2956 2.0835 0 3.5322 1.3174 3.5322 3.817z"/><path d="m114.968 18.5065c1.287 0 2.346-.0253 2.71-.1098.136-.0253.186-.076.212-.1858.076-.2871.11-.8866.11-1.6213 0-2.4996-1.508-5.5481-5.403-5.5481-3.981 0-6.191 3.2343-6.191 6.8823 0 3.2343 1.71 6.5952 6.504 6.5952 1.795 0 2.956-.2871 3.955-.76.102-.0507.153-.1351.153-.2871v-2.1871c0-.1267-.077-.152-.153-.1014-.999.4223-2.083.6334-3.269.6334-2.685 0-3.904-1.4778-3.981-3.3103zm-5.353-2.2631c.212-1.2836 1.025-2.677 2.846-2.677 2.007 0 2.532 1.6805 2.532 2.4405v.2111c-.11.0254-.448.0254-1.448.0254z"/></g></svg>