<svg width="65" height="48" viewBox="0 0 65 48" fill="none" xmlns="http://www.w3.org/2000/svg">
<rect width="65" height="48" fill="white"/>
<path d="M14.6765 14.527H19.0465V33.4175H14.6765V31.448C12.7526 33.6949 10.4165 34 9.06977 34C3.2981 34 0 29.1456 0 23.9584C0 17.8003 4.17759 14.0277 9.12474 14.0277C10.4989 14.0277 12.9175 14.3884 14.6765 16.7185V14.527ZM4.45243 24.0416C4.45243 27.3148 6.48626 30.061 9.64694 30.061C12.3954 30.061 14.9514 28.0361 14.9514 24.0971C14.9514 19.9639 12.4228 17.9945 9.64694 17.9945C6.48626 17.9945 4.45243 20.6852 4.45243 24.0416ZM24.2135 14.527H28.5835V16.2191C29.0782 15.6366 29.7928 14.9986 30.3975 14.638C31.2495 14.1387 32.074 14 33.0634 14C34.1353 14 35.2896 14.1664 36.4989 14.8877L34.7125 18.8821C33.723 18.2441 32.926 18.2164 32.4863 18.2164C31.5518 18.2164 30.6173 18.3551 29.7653 19.2427C28.556 20.5465 28.556 22.3495 28.556 23.5978V33.3897H24.186V14.527H24.2135ZM39.3023 14.527H43.6723V16.2746C45.129 14.4716 46.8605 14.0277 48.2896 14.0277C50.241 14.0277 52.0824 14.9709 53.1268 16.8017C54.6934 14.5548 57.0296 14.0277 58.6786 14.0277C60.9598 14.0277 62.9387 15.1096 64.0106 16.9958C64.3679 17.6338 65 19.0208 65 21.767V33.4452H60.63V23.043C60.63 20.9348 60.4101 20.0749 60.2178 19.6865C59.9429 18.9653 59.2833 18.0222 57.7167 18.0222C56.6448 18.0222 55.7104 18.6047 55.1332 19.4092C54.3636 20.491 54.2812 22.0999 54.2812 23.7087V33.4452H49.9112V23.043C49.9112 20.9348 49.6913 20.0749 49.4989 19.6865C49.2241 18.9653 48.5645 18.0222 46.9979 18.0222C45.926 18.0222 44.9915 18.6047 44.4144 19.4092C43.6448 20.491 43.5624 22.0999 43.5624 23.7087V33.4452H39.3023V14.527Z" fill="#24292E"/>
</svg>
