<svg width="97" height="48" viewBox="0 0 97 48" fill="none" xmlns="http://www.w3.org/2000/svg">
<rect width="97" height="48" fill="white"/>
<path fill-rule="evenodd" clip-rule="evenodd" d="M52.515 4V9.42063L45.752 10.8626V5.41524L52.515 4ZM66.5797 12.4375C63.9391 12.4375 62.2416 13.6658 61.2986 14.5203L60.9483 12.8647H55.0205V44L61.7566 42.5847L61.7836 35.0279C62.7536 35.7222 64.1816 36.7102 66.5527 36.7102C71.3758 36.7102 75.7677 32.865 75.7677 24.4003C75.7408 16.6565 71.295 12.4375 66.5797 12.4375ZM64.963 30.8356C63.3733 30.8356 62.4302 30.2748 61.7836 29.5806L61.7566 19.6739C62.4572 18.8995 63.4272 18.3655 64.963 18.3655C67.415 18.3655 69.1125 21.0891 69.1125 24.5872C69.1125 28.1653 67.4419 30.8356 64.963 30.8356ZM96.9992 24.6673C96.9992 17.8314 93.6581 12.4375 87.2723 12.4375C80.8595 12.4375 76.9795 17.8314 76.9795 24.6139C76.9795 32.6514 81.5601 36.7101 88.1345 36.7101C91.3409 36.7101 93.7659 35.9892 95.5981 34.9745V29.634C93.7659 30.5419 91.6642 31.1026 88.9967 31.1026C86.3831 31.1026 84.0659 30.1947 83.7695 27.0438H96.9453C96.9453 26.8967 96.955 26.5627 96.9662 26.1778L96.9662 26.1774V26.1771L96.9662 26.1764L96.9662 26.1758L96.9663 26.1754V26.1753V26.175C96.9814 25.6521 96.9992 25.036 96.9992 24.6673ZM83.6887 22.1305C83.6887 19.1131 85.5478 17.8581 87.2453 17.8581C88.8889 17.8581 90.6403 19.1131 90.6403 22.1305H83.6887ZM52.515 12.8921H45.752V36.2569H52.515V12.8921ZM38.0729 12.8922L38.5041 14.8682C40.0938 11.9843 43.2463 12.5718 44.1085 12.8922V19.0338C43.2732 18.7401 40.5788 18.3663 38.9891 20.4224V36.257H32.2529V12.8922H38.0729ZM25.0321 7.09727L18.4577 8.4858L18.4307 29.8746C18.4307 33.8266 21.4216 36.7371 25.4094 36.7371C27.6188 36.7371 29.2355 36.3366 30.1247 35.856V30.4353C29.2624 30.7825 25.0052 32.0108 25.0052 28.0588V18.5794H30.1247V12.8917H25.0052L25.0321 7.09727ZM9.10723 18.232C7.67918 18.232 6.81695 18.6325 6.81695 19.6739C6.81695 20.8109 8.30085 21.3111 10.1418 21.9316C13.143 22.9432 17.093 24.2747 17.1097 29.2067C17.1097 33.9865 13.2567 36.7369 7.65223 36.7369C5.33501 36.7369 2.80223 36.2829 0.296389 35.2148V28.8596C2.55972 30.0879 5.41584 30.9958 7.65223 30.9958C9.16112 30.9958 10.2389 30.5953 10.2389 29.3669C10.2389 28.1075 8.63033 27.5318 6.68834 26.8368C3.73081 25.7783 0 24.4431 0 19.9943C0 15.268 3.63751 12.4375 9.10723 12.4375C11.3436 12.4375 13.5531 12.7846 15.7895 13.6658V19.9409C13.7417 18.8461 11.155 18.232 9.10723 18.232Z" fill="#24292E"/>
</svg>
