<svg width="81" height="40" viewBox="0 0 81 40" fill="none" xmlns="http://www.w3.org/2000/svg">
<path fill-rule="evenodd" clip-rule="evenodd" d="M43.8526 3.3335V7.85069L38.2051 9.0523V4.51286L43.8526 3.3335ZM55.5978 10.3647C53.3928 10.3647 51.9753 11.3883 51.1878 12.1004L50.8953 10.7208H45.9453V36.6668L51.5703 35.4874L51.5928 29.1901C52.4028 29.7686 53.5953 30.592 55.5753 30.592C59.6028 30.592 63.2703 27.3877 63.2703 20.3337C63.2478 13.8806 59.5353 10.3647 55.5978 10.3647ZM54.2478 25.6965C52.9203 25.6965 52.1328 25.2292 51.5928 24.6506L51.5703 16.3951C52.1553 15.7498 52.9653 15.3047 54.2478 15.3047C56.2953 15.3047 57.7128 17.5744 57.7128 20.4895C57.7128 23.4713 56.3178 25.6965 54.2478 25.6965ZM80.9993 20.5562C80.9993 14.8597 78.2093 10.3647 72.8767 10.3647C67.5217 10.3647 64.2817 14.8597 64.2817 20.5117C64.2817 27.2096 68.1067 30.592 73.5967 30.592C76.2742 30.592 78.2992 29.9911 79.8292 29.1456V24.6951C78.2992 25.4517 76.5442 25.919 74.3167 25.919C72.1342 25.919 70.1992 25.1624 69.9517 22.5367H80.9542C80.9542 22.414 80.9623 22.1354 80.9717 21.8144C80.9843 21.3783 80.9993 20.8639 80.9993 20.5562ZM69.8842 18.4423C69.8842 15.9278 71.4367 14.8819 72.8542 14.8819C74.2267 14.8819 75.6892 15.9278 75.6892 18.4423H69.8842ZM43.8526 10.7437H38.2051V30.2143H43.8526V10.7437ZM31.7926 10.7437L32.1526 12.3903C33.4801 9.98711 36.1126 10.4767 36.8326 10.7437V15.8617C36.1351 15.6169 33.8851 15.3054 32.5576 17.0188V30.2143H26.9326V10.7437H31.7926ZM20.9031 5.91455L15.4131 7.07166L15.3906 24.8956C15.3906 28.189 17.8881 30.6144 21.2181 30.6144C23.0631 30.6144 24.4131 30.2807 25.1556 29.8801V25.3629C24.4356 25.6522 20.8806 26.6758 20.8806 23.3825V15.483H25.1556V10.7433H20.8806L20.9031 5.91455ZM7.60501 15.1935C6.41251 15.1935 5.69251 15.5272 5.69251 16.3951C5.69251 17.3426 6.93164 17.7594 8.46892 18.2765C10.9751 19.1195 14.2736 20.2291 14.2875 24.3391C14.2875 28.3222 11.07 30.6142 6.39001 30.6142C4.45501 30.6142 2.34 30.2359 0.2475 29.3458V24.0498C2.1375 25.0734 4.52251 25.83 6.39001 25.83C7.65001 25.83 8.55001 25.4962 8.55001 24.4726C8.55001 23.423 7.20677 22.9433 5.58511 22.3641C3.11542 21.4821 0 20.3694 0 16.6621C0 12.7235 3.0375 10.3647 7.60501 10.3647C9.47251 10.3647 11.3175 10.654 13.185 11.3883V16.6176C11.475 15.7053 9.31501 15.1935 7.60501 15.1935Z" fill="#5433FF"/>
</svg>
