<svg width="135" height="40" viewBox="0 0 135 40" fill="none" xmlns="http://www.w3.org/2000/svg">
<path d="M20.7998 0C9.73439 0 0.763672 8.95446 0.763672 20.0001C0.763672 31.0463 9.73439 40 20.7998 40C31.8664 40 40.8362 31.0463 40.8362 20.0001C40.8362 8.95518 31.8664 0.000955316 20.7996 0.000955316L20.7998 0V0ZM29.9883 28.8459C29.6294 29.4334 28.859 29.6197 28.2704 29.2591C23.5661 26.3907 17.644 25.7411 10.6696 27.3317C9.99757 27.4846 9.32765 27.0642 9.17453 26.3931C9.02069 25.722 9.44011 25.0533 10.1139 24.9004C17.7462 23.1598 24.293 23.9093 29.5743 27.1311C30.1629 27.4917 30.3495 28.2584 29.9883 28.8459V28.8459ZM32.4406 23.4001C31.9884 24.1338 31.0266 24.3655 30.2921 23.9141C24.9064 20.6096 16.6968 19.6526 10.3266 21.5828C9.5004 21.8319 8.62783 21.3672 8.37708 20.5439C8.12826 19.7193 8.59409 18.8499 9.41881 18.5991C16.6953 16.3952 25.7414 17.4628 31.9262 21.2566C32.6608 21.708 32.8928 22.6681 32.4406 23.4003V23.4001ZM32.6512 17.7293C26.1936 13.9006 15.5395 13.5486 9.37407 15.4165C8.38402 15.7162 7.33703 15.1583 7.037 14.17C6.73697 13.1813 7.2954 12.1369 8.28617 11.8364C15.3636 9.69173 27.1291 10.1061 34.5638 14.5118C35.4562 15.0394 35.7481 16.1874 35.2194 17.0752C34.693 17.9641 33.5398 18.2571 32.6521 17.7293H32.6512ZM55.2754 18.463C51.8157 17.6395 51.2008 17.0616 51.2008 15.8471C51.2008 14.6998 52.2823 13.9276 53.8925 13.9276C55.4524 13.9276 56.998 14.5139 58.6202 15.721C58.668 15.7575 58.7303 15.7721 58.7901 15.7626C58.8523 15.7535 58.9049 15.7203 58.9408 15.6704L60.63 13.2935C60.6993 13.1956 60.6802 13.0607 60.5869 12.9859C58.6561 11.44 56.4836 10.6884 53.9427 10.6884C50.2079 10.6884 47.5976 12.926 47.5976 16.1275C47.5976 19.5607 49.849 20.7763 53.7393 21.7147C57.0483 22.4758 57.6081 23.1135 57.6081 24.2532C57.6081 25.5166 56.4788 26.3024 54.6605 26.3024C52.6412 26.3024 50.9927 25.6217 49.1504 24.0311C49.1049 23.9905 49.0427 23.9738 48.9853 23.9762C48.9231 23.9809 48.8681 24.0096 48.8298 24.055L46.9349 26.3048C46.8559 26.4003 46.8655 26.5388 46.9564 26.62C49.1001 28.5307 51.7368 29.5385 54.5839 29.5385C58.6082 29.5385 61.209 27.3437 61.209 23.9451C61.2161 21.0775 59.4959 19.4893 55.2826 18.4661L55.2754 18.463V18.463ZM70.3151 15.0573C68.5709 15.0573 67.1402 15.7432 65.9582 17.1487V15.5667C65.9582 15.4418 65.8577 15.3401 65.7333 15.3401H62.6349C62.5105 15.3401 62.41 15.4418 62.41 15.5667V33.1449C62.41 33.2691 62.5105 33.3717 62.6349 33.3717H65.7333C65.8577 33.3717 65.9582 33.2691 65.9582 33.1449V27.5968C67.1402 28.9176 68.5709 29.5648 70.3151 29.5648C73.557 29.5648 76.8397 27.0738 76.8397 22.3118C76.8444 17.5488 73.5618 15.0571 70.3175 15.0571L70.3151 15.0573ZM73.2364 22.3118C73.2364 24.7356 71.7411 26.4289 69.5973 26.4289C67.4799 26.4289 65.8817 24.6592 65.8817 22.3118C65.8817 19.9641 67.4799 18.1948 69.5973 18.1948C71.7052 18.1946 73.2364 19.9256 73.2364 22.3115V22.3118ZM85.2496 15.0573C81.0745 15.0573 77.8039 18.2662 77.8039 22.3636C77.8039 26.417 81.053 29.5911 85.1993 29.5911C89.3887 29.5911 92.6689 26.3931 92.6689 22.3118C92.6689 18.2442 89.4102 15.0578 85.2496 15.0578V15.0573V15.0573ZM85.2496 26.4528C83.0292 26.4528 81.3544 24.6712 81.3544 22.3106C81.3544 19.9392 82.9718 18.2184 85.1993 18.2184C87.434 18.2184 89.1183 19.9994 89.1183 22.3624C89.1183 24.7333 87.4914 26.4528 85.2496 26.4528V26.4528ZM101.584 15.3401H98.1742V11.8613C98.1742 11.7366 98.0738 11.6349 97.9493 11.6349H94.851C94.7265 11.6349 94.6237 11.7366 94.6237 11.8613V15.3401H93.1355C93.0111 15.3401 92.9106 15.4418 92.9106 15.5667V18.2242C92.9106 18.3488 93.0111 18.4508 93.1355 18.4508H94.6237V25.3279C94.6237 28.1055 96.009 29.5146 98.7437 29.5146C99.8538 29.5146 100.775 29.2854 101.643 28.7934C101.715 28.7552 101.758 28.6787 101.758 28.5975V26.0659C101.758 25.9895 101.718 25.9155 101.651 25.8749C101.584 25.8319 101.5 25.8295 101.431 25.8653C100.835 26.1639 100.258 26.3024 99.6122 26.3024C98.6193 26.3024 98.1742 25.851 98.1742 24.8431V18.452H101.584C101.708 18.452 101.809 18.3503 101.809 18.2254V15.5681C101.813 15.4432 101.713 15.3415 101.586 15.3415L101.584 15.3401V15.3401ZM113.46 15.3537V14.9264C113.46 13.6694 113.944 13.1089 115.025 13.1089C115.671 13.1089 116.19 13.2369 116.772 13.4304C116.844 13.4528 116.918 13.4416 116.975 13.3989C117.035 13.3561 117.068 13.2876 117.068 13.215V10.6093C117.068 10.5097 117.006 10.4216 116.908 10.3922C116.296 10.21 115.511 10.023 114.334 10.023C111.475 10.023 109.96 11.6313 109.96 14.6723V15.3267H108.472C108.347 15.3267 108.245 15.4284 108.245 15.5531V18.2242C108.245 18.3488 108.347 18.4508 108.472 18.4508H109.96V29.0561C109.96 29.1827 110.063 29.283 110.187 29.283H113.283C113.41 29.283 113.511 29.1827 113.511 29.0561V18.4515H116.403L120.834 29.0561C120.332 30.169 119.837 30.3911 119.162 30.3911C118.616 30.3911 118.04 30.2287 117.454 29.9063C117.399 29.8777 117.332 29.8729 117.274 29.8896C117.214 29.9111 117.164 29.9541 117.14 30.0114L116.09 32.3113C116.04 32.4212 116.083 32.5478 116.188 32.6051C117.284 33.1974 118.272 33.4506 119.494 33.4506C121.782 33.4506 123.047 32.3854 124.16 29.5242L129.534 15.6632C129.562 15.5935 129.553 15.5146 129.51 15.4528C129.469 15.3914 129.4 15.3544 129.326 15.3544H126.1C126.002 15.3544 125.916 15.4158 125.885 15.5063L122.581 24.9243L118.963 15.5001C118.93 15.4124 118.846 15.3544 118.753 15.3544H113.46V15.3537V15.3537ZM106.575 15.3401H103.476C103.352 15.3401 103.249 15.4418 103.249 15.5667V29.0561C103.249 29.1827 103.352 29.283 103.476 29.283H106.575C106.699 29.283 106.802 29.1827 106.802 29.0561V15.5677C106.802 15.4428 106.701 15.341 106.575 15.341V15.3401ZM105.043 9.19759C103.816 9.19759 102.821 10.1892 102.821 11.4142C102.821 12.6398 103.816 13.6327 105.043 13.6327C106.271 13.6327 107.264 12.6398 107.264 11.4142C107.264 10.1895 106.268 9.19759 105.043 9.19759ZM132.18 19.6775C130.955 19.6775 130 18.6947 130 17.5012C130 16.3078 130.967 15.3138 132.192 15.3138C133.417 15.3138 134.372 16.2963 134.372 17.4888C134.372 18.6823 133.405 19.6775 132.18 19.6775ZM132.192 15.5302C131.075 15.5302 130.23 16.4162 130.23 17.5012C130.23 18.5858 131.07 19.4599 132.18 19.4599C133.297 19.4599 134.142 18.5745 134.142 17.4888C134.142 16.4043 133.302 15.5302 132.192 15.5302V15.5302ZM132.675 17.7126L133.292 18.5743H132.771L132.216 17.7838H131.74V18.5743H131.304V16.2901H132.323C132.857 16.2901 133.206 16.5617 133.206 17.0188C133.209 17.3933 132.991 17.6221 132.678 17.7126H132.675ZM132.307 16.6821H131.74V17.4045H132.307C132.589 17.4045 132.759 17.2662 132.759 17.0429C132.759 16.8079 132.589 16.6821 132.307 16.6821V16.6821Z" fill="#24292E"/>
</svg>
