<svg fill="none" height="66" viewBox="0 0 565 66" width="565" xmlns="http://www.w3.org/2000/svg" xmlns:xlink="http://www.w3.org/1999/xlink"><filter id="a" color-interpolation-filters="sRGB" filterUnits="userSpaceOnUse" height="29" width="94" x="451" y="19"><feFlood flood-opacity="0" result="BackgroundImageFix"/><feColorMatrix in="SourceAlpha" type="matrix" values="0 0 0 0 0 0 0 0 0 0 0 0 0 0 0 0 0 0 127 0"/><feOffset dy="1"/><feColorMatrix type="matrix" values="0 0 0 0 0.105882 0 0 0 0 0.121569 0 0 0 0 0.137255 0 0 0 0.04 0"/><feBlend in2="BackgroundImageFix" mode="normal" result="effect1_dropShadow"/><feBlend in="SourceGraphic" in2="effect1_dropShadow" mode="normal" result="shape"/><feColorMatrix in="SourceAlpha" result="hardAlpha" type="matrix" values="0 0 0 0 0 0 0 0 0 0 0 0 0 0 0 0 0 0 127 0"/><feOffset dy="2"/><feComposite in2="hardAlpha" k2="-1" k3="1" operator="arithmetic"/><feColorMatrix type="matrix" values="0 0 0 0 1 0 0 0 0 1 0 0 0 0 1 0 0 0 0.25 0"/><feBlend in2="shape" mode="normal" result="effect2_innerShadow"/></filter><clipPath id="b"><path d="m219 25h16v16h-16z"/></clipPath><path d="m.5.5h564v65h-564z" fill="#fff"/><path d="m45.875 38.1719c2.5547 0 4.1094-1.6719 4.1094-4.4453 0-2.7578-1.5625-4.4297-4.1094-4.4297-2.5391 0-4.1094 1.6797-4.1094 4.4297 0 2.7734 1.5469 4.4453 4.1094 4.4453zm0-1.586c-1.3516 0-2.125-1.0468-2.125-2.8515s.7734-2.8516 2.125-2.8516c1.3438 0 2.1172 1.0469 2.1172 2.8516s-.7656 2.8515-2.1172 2.8515zm13.4453-4.2734c-.2031-1.7656-1.5312-3.0156-3.7265-3.0156-2.5704 0-4.0782 1.6484-4.0782 4.414 0 2.7969 1.5156 4.461 4.086 4.461 2.164 0 3.5078-1.2031 3.7187-2.9688h-1.8437c-.2032.8985-.875 1.375-1.8828 1.375-1.3204 0-2.1172-1.0547-2.1172-2.8672 0-1.7812.789-2.8281 2.1172-2.8281 1.0624 0 1.7031.6016 1.8828 1.4297zm2.5781-4.9453v2.1484h-1.3515v1.5078h1.3515v4.711c0 1.6484.7813 2.3047 2.7422 2.3047.375 0 .7344-.0313 1.0156-.086v-1.4843c-.2343.0234-.3828.039-.6562.039-.8125 0-1.1719-.3828-1.1719-1.2344v-4.25h1.8281v-1.5078h-1.8281v-2.1484zm9.3047 10.8047c2.5547 0 4.1094-1.6719 4.1094-4.4453 0-2.7578-1.5625-4.4297-4.1094-4.4297-2.539 0-4.1093 1.6797-4.1093 4.4297 0 2.7734 1.5468 4.4453 4.1093 4.4453zm0-1.586c-1.3515 0-2.125-1.0468-2.125-2.8515s.7735-2.8516 2.125-2.8516c1.3438 0 2.1172 1.0469 2.1172 2.8516s-.7656 2.8515-2.1172 2.8515zm11.2813-2.2421v-1.7735h-5.1328v1.7735zm9.8515-2.0313c-.2031-1.7656-1.5312-3.0156-3.7265-3.0156-2.5703 0-4.0782 1.6484-4.0782 4.414 0 2.7969 1.5157 4.461 4.086 4.461 2.164 0 3.5078-1.2031 3.7187-2.9688h-1.8437c-.2031.8985-.875 1.375-1.8828 1.375-1.3203 0-2.1172-1.0547-2.1172-2.8672 0-1.7812.789-2.8281 2.1172-2.8281 1.0625 0 1.7031.6016 1.8828 1.4297zm4.2032 5.8281c1.1171 0 2.0547-.4844 2.5312-1.3125h.1328v1.1719h1.8669v-5.8359c0-1.8047-1.2341-2.8672-3.4294-2.8672-2.0312 0-3.4453.9531-3.6015 2.4453h1.8281c.1797-.586.789-.9063 1.6797-.9063 1.0469 0 1.6093.4766 1.6093 1.3282v.7343l-2.2031.1328c-2.0781.1172-3.2422 1.0157-3.2422 2.5469 0 1.5625 1.1797 2.5625 2.8282 2.5625zm.5703-1.4922c-.8594 0-1.4766-.4296-1.4766-1.164 0-.711.5078-1.1094 1.5938-1.1797l1.9296-.1328v.6953c0 1.0156-.875 1.7812-2.0468 1.7812zm6.9136-9.2812v2.1484h-1.351v1.5078h1.351v4.711c0 1.6484.782 2.3047 2.743 2.3047.375 0 .734-.0313 1.015-.086v-1.4843c-.234.0234-.383.039-.656.039-.813 0-1.172-.3828-1.172-1.2344v-4.25h1.828v-1.5078h-1.828v-2.1484zm6.297 13.0469 4.047-14.2579h-1.742l-4.055 14.2579zm8.977-2.2422c2.555 0 4.109-1.6719 4.109-4.4453 0-2.7578-1.562-4.4297-4.109-4.4297-2.539 0-4.109 1.6797-4.109 4.4297 0 2.7734 1.546 4.4453 4.109 4.4453zm0-1.586c-1.352 0-2.125-1.0468-2.125-2.8515s.773-2.8516 2.125-2.8516c1.344 0 2.117 1.0469 2.117 2.8516s-.766 2.8515-2.117 2.8515zm13.445-4.2734c-.203-1.7656-1.531-3.0156-3.726-3.0156-2.571 0-4.078 1.6484-4.078 4.414 0 2.7969 1.515 4.461 4.085 4.461 2.165 0 3.508-1.2031 3.719-2.9688h-1.844c-.203.8985-.875 1.375-1.882 1.375-1.321 0-2.118-1.0547-2.118-2.8672 0-1.7812.79-2.8281 2.118-2.8281 1.062 0 1.703.6016 1.882 1.4297zm2.578-4.9453v2.1484h-1.351v1.5078h1.351v4.711c0 1.6484.782 2.3047 2.742 2.3047.376 0 .735-.0313 1.016-.086v-1.4843c-.234.0234-.383.039-.656.039-.813 0-1.172-.3828-1.172-1.2344v-4.25h1.828v-1.5078h-1.828v-2.1484zm9.305 10.8047c2.555 0 4.109-1.6719 4.109-4.4453 0-2.7578-1.562-4.4297-4.109-4.4297-2.539 0-4.109 1.6797-4.109 4.4297 0 2.7734 1.546 4.4453 4.109 4.4453zm0-1.586c-1.352 0-2.125-1.0468-2.125-2.8515s.773-2.8516 2.125-2.8516c1.344 0 2.117 1.0469 2.117 2.8516s-.765 2.8515-2.117 2.8515zm11.281-2.2421v-1.7735h-5.133v1.7735zm2.469 3.6562h1.937v-4.9609c0-1.2032.876-1.9844 2.133-1.9844.328 0 .844.0547.993.1094v-1.7657c-.18-.0468-.524-.0781-.805-.0781-1.102 0-2.024.625-2.258 1.4688h-.133v-1.3282h-1.867zm12.008-2.3359c-.281.6406-.945 1-1.906 1-1.274 0-2.094-.9063-2.141-2.3516v-.1016h5.969v-.6171c0-2.6797-1.461-4.2969-3.899-4.2969-2.476 0-4.015 1.7265-4.015 4.4687 0 2.7344 1.515 4.4063 4.031 4.4063 2.016 0 3.445-.9688 3.797-2.5078zm-1.985-4.8594c1.164 0 1.93.8203 1.969 2.1172h-4.023c.086-1.2813.898-2.1172 2.054-2.1172zm10.508-1.4844c-1.172 0-2.164.5859-2.656 1.5547h-.133v-1.4141h-1.867v11.375h1.938v-4.1328h.132c.438.9063 1.383 1.4375 2.61 1.4375 2.156 0 3.5-1.6953 3.5-4.4062 0-2.7344-1.36-4.4141-3.524-4.4141zm-.609 7.2109c-1.32 0-2.141-1.0703-2.149-2.7968.008-1.7266.836-2.7969 2.157-2.7969 1.328 0 2.133 1.0469 2.133 2.7969s-.797 2.7968-2.141 2.7968zm9.765 1.6407c2.555 0 4.11-1.6719 4.11-4.4453 0-2.7578-1.563-4.4297-4.11-4.4297-2.539 0-4.109 1.6797-4.109 4.4297 0 2.7734 1.547 4.4453 4.109 4.4453zm0-1.586c-1.351 0-2.124-1.0468-2.124-2.8515s.773-2.8516 2.124-2.8516c1.344 0 2.118 1.0469 2.118 2.8516s-.766 2.8515-2.118 2.8515z" fill="#035bd6"/><g clip-path="url(#b)"><path clip-rule="evenodd" d="m225.122 25.3922c.543-.3149 1.213-.3149 1.756 0l5.25 3.045c.54.3131.872.8898.872 1.5138v2.299c0 .4142-.336.75-.75.75s-.75-.3358-.75-.75v-1.573l-4.75 2.755v6.068.316c0 .7707-.835 1.2517-1.502.865l-5.376-3.1182c-.54-.3131-.872-.8899-.872-1.5138v-6.098c0-.624.332-1.2007.872-1.5138zm1.003 1.2976 4.63 2.6852-4.755 2.758-4.755-2.758 4.63-2.6852c.077-.045.173-.045.25 0zm-5.625 9.3592v-5.372l4.75 2.755v5.516l-4.625-2.6828c-.078-.0447-.125-.1271-.125-.2162zm10.828 3.6841c-.285.3001-.273.7748.027 1.0603s.775.2736 1.06-.0265l2.378-2.5c.276-.2895.276-.7443 0-1.0338l-2.378-2.5c-.285-.3001-.76-.312-1.06-.0265s-.312.7602-.027 1.0603l1.173 1.2331h-3.251c-.414 0-.75.3358-.75.75s.336.75.75.75h3.251z" fill="#6a737d" fill-rule="evenodd"/></g><path d="m248.719 33.1035h1.049c1.189 0 1.921.6094 1.921 1.5879 0 .9492-.791 1.5879-1.904 1.5879-1.09 0-1.851-.5684-1.945-1.459h-1.02c.076 1.4356 1.26 2.3789 2.977 2.3789 1.682 0 2.976-1.0605 2.976-2.4785 0-1.1777-.726-1.9219-1.822-2.0977v-.0937c.867-.252 1.5-.9258 1.506-1.9453.006-1.1836-.955-2.2383-2.625-2.2383-1.711 0-2.76 1.0137-2.865 2.3906h1.025c.088-.9492.75-1.4707 1.77-1.4707 1.019 0 1.623.6446 1.623 1.4356 0 .8789-.692 1.5-1.664 1.5h-1.002zm7.769 3.8965h1.055v-8.4551h-1.049l-2.25 1.6172v1.1133l2.151-1.5586h.093zm6.973 0h1.008v-3.9141c0-.8906.697-1.5351 1.658-1.5351.199 0 .562.0351.644.0586v-1.0078c-.128-.0176-.339-.0293-.503-.0293-.838 0-1.565.4336-1.752 1.0488h-.094v-.9375h-.961zm8.578-1.6348c-.264.5567-.814.8555-1.629.8555-1.072 0-1.769-.791-1.822-2.0391v-.0468h4.541v-.3868c0-1.9628-1.037-3.1757-2.742-3.1757-1.735 0-2.848 1.289-2.848 3.2754 0 1.998 1.096 3.2636 2.848 3.2636 1.383 0 2.367-.6679 2.66-1.7461zm-1.664-3.9023c1.002 0 1.67.7383 1.693 1.8574h-3.48c.076-1.1191.779-1.8574 1.787-1.8574zm7.412-.8906c-.861 0-1.617.4394-2.021 1.166h-.094v-1.0547h-.961v8.4258h1.008v-3.0586h.093c.346.668 1.073 1.0605 1.975 1.0605 1.606 0 2.654-1.2949 2.654-3.2695 0-1.9863-1.043-3.2695-2.654-3.2695zm-.24 5.6308c-1.137 0-1.858-.914-1.858-2.3613 0-1.4531.721-2.3613 1.864-2.3613 1.154 0 1.845.8847 1.845 2.3613s-.691 2.3613-1.851 2.3613zm7.072.9082c1.799 0 2.912-1.2422 2.912-3.2695 0-2.0332-1.113-3.2695-2.912-3.2695s-2.912 1.2363-2.912 3.2695c0 2.0273 1.113 3.2695 2.912 3.2695zm0-.9082c-1.195 0-1.869-.8672-1.869-2.3613 0-1.5.674-2.3613 1.869-2.3613s1.869.8613 1.869 2.3613c0 1.4941-.674 2.3613-1.869 2.3613zm4.348-3.791c0 .9141.539 1.4238 1.722 1.7109l1.084.2637c.674.1641 1.002.4571 1.002.8906 0 .5801-.609.9844-1.459.9844-.808 0-1.312-.3398-1.482-.873h-1.037c.111 1.0488 1.078 1.7226 2.484 1.7226 1.436 0 2.531-.7793 2.531-1.9101 0-.9082-.574-1.4239-1.763-1.711l-.973-.2343c-.744-.1817-1.096-.4512-1.096-.8848 0-.5625.586-.9434 1.336-.9434.762 0 1.254.334 1.389.8379h.996c-.135-1.0371-1.055-1.6933-2.379-1.6933-1.342 0-2.355.791-2.355 1.8398zm6.955-2.9473c.387 0 .703-.3164.703-.7031s-.316-.7031-.703-.7031-.703.3164-.703.7031.316.7031.703.7031zm-.504 7.5352h1.008v-6.3164h-1.008zm3.352-7.9512v1.6348h-1.02v.8437h1.02v3.8321c0 1.207.521 1.6875 1.822 1.6875.199 0 .392-.0235.592-.0586v-.8496c-.188.0175-.288.0234-.469.0234-.656 0-.938-.3164-.938-1.0605v-3.5743h1.407v-.8437h-1.407v-1.6348zm6.439 8.0625c1.799 0 2.912-1.2422 2.912-3.2695 0-2.0332-1.113-3.2695-2.912-3.2695s-2.912 1.2363-2.912 3.2695c0 2.0273 1.113 3.2695 2.912 3.2695zm0-.9082c-1.195 0-1.869-.8672-1.869-2.3613 0-1.5.674-2.3613 1.869-2.3613s1.869.8613 1.869 2.3613c0 1.4941-.674 2.3613-1.869 2.3613zm4.494.7969h1.008v-3.9141c0-.8906.697-1.5351 1.658-1.5351.199 0 .563.0351.645.0586v-1.0078c-.129-.0176-.34-.0293-.504-.0293-.838 0-1.565.4336-1.752 1.0488h-.094v-.9375h-.961zm5.098-7.5352c.387 0 .703-.3164.703-.7031s-.316-.7031-.703-.7031-.703.3164-.703.7031.316.7031.703.7031zm-.504 7.5352h1.008v-6.3164h-1.008zm7.113-1.6348c-.264.5567-.814.8555-1.629.8555-1.072 0-1.769-.791-1.822-2.0391v-.0468h4.541v-.3868c0-1.9628-1.037-3.1757-2.742-3.1757-1.735 0-2.848 1.289-2.848 3.2754 0 1.998 1.096 3.2636 2.848 3.2636 1.383 0 2.367-.6679 2.66-1.7461zm-1.664-3.9023c1.002 0 1.67.7383 1.693 1.8574h-3.48c.076-1.1191.779-1.8574 1.787-1.8574zm4.19.9492c0 .9141.539 1.4238 1.722 1.7109l1.084.2637c.674.1641 1.002.4571 1.002.8906 0 .5801-.609.9844-1.459.9844-.808 0-1.312-.3398-1.482-.873h-1.037c.111 1.0488 1.078 1.7226 2.484 1.7226 1.436 0 2.531-.7793 2.531-1.9101 0-.9082-.574-1.4239-1.763-1.711l-.973-.2343c-.744-.1817-1.096-.4512-1.096-.8848 0-.5625.586-.9434 1.336-.9434.762 0 1.254.334 1.389.8379h.996c-.135-1.0371-1.055-1.6933-2.379-1.6933-1.342 0-2.355.791-2.355 1.8398zm12.152 4.6992c.873 0 1.623-.416 2.021-1.1191h.094v1.0078h.961v-8.8242h-1.008v3.5039h-.088c-.357-.6914-1.101-1.1074-1.98-1.1074-1.606 0-2.654 1.289-2.654 3.2695 0 1.9863 1.037 3.2695 2.654 3.2695zm.234-5.6308c1.143 0 1.858.914 1.858 2.3613 0 1.459-.709 2.3613-1.858 2.3613-1.154 0-1.845-.8847-1.845-2.3613 0-1.4707.697-2.3613 1.845-2.3613zm8.983 3.8847c-.264.5567-.815.8555-1.629.8555-1.072 0-1.77-.791-1.822-2.0391v-.0468h4.541v-.3868c0-1.9628-1.038-3.1757-2.743-3.1757-1.734 0-2.847 1.289-2.847 3.2754 0 1.998 1.095 3.2636 2.847 3.2636 1.383 0 2.368-.6679 2.66-1.7461zm-1.664-3.9023c1.002 0 1.67.7383 1.693 1.8574h-3.48c.076-1.1191.779-1.8574 1.787-1.8574zm7.412-.8906c-.862 0-1.617.4394-2.022 1.166h-.093v-1.0547h-.961v8.4258h1.007v-3.0586h.094c.346.668 1.072 1.0605 1.975 1.0605 1.605 0 2.654-1.2949 2.654-3.2695 0-1.9863-1.043-3.2695-2.654-3.2695zm-.241 5.6308c-1.136 0-1.857-.914-1.857-2.3613 0-1.4531.721-2.3613 1.863-2.3613 1.155 0 1.846.8847 1.846 2.3613s-.691 2.3613-1.852 2.3613zm8.661-.8379c-.264.5567-.815.8555-1.629.8555-1.073 0-1.77-.791-1.823-2.0391v-.0468h4.541v-.3868c0-1.9628-1.037-3.1757-2.742-3.1757-1.734 0-2.847 1.289-2.847 3.2754 0 1.998 1.095 3.2636 2.847 3.2636 1.383 0 2.368-.6679 2.66-1.7461zm-1.664-3.9023c1.002 0 1.67.7383 1.693 1.8574h-3.481c.077-1.1191.78-1.8574 1.788-1.8574zm4.336 5.5371h1.007v-3.7383c0-1.1074.651-1.7812 1.659-1.7812 1.007 0 1.488.539 1.488 1.6757v3.8438h1.008v-4.0898c0-1.5-.791-2.3379-2.209-2.3379-.967 0-1.582.4101-1.899 1.1074h-.094v-.9961h-.96zm9.345.1113c.873 0 1.623-.416 2.022-1.1191h.093v1.0078h.961v-8.8242h-1.007v3.5039h-.088c-.358-.6914-1.102-1.1074-1.981-1.1074-1.605 0-2.654 1.289-2.654 3.2695 0 1.9863 1.037 3.2695 2.654 3.2695zm.235-5.6308c1.142 0 1.857.914 1.857 2.3613 0 1.459-.709 2.3613-1.857 2.3613-1.155 0-1.846-.8847-1.846-2.3613 0-1.4707.697-2.3613 1.846-2.3613zm10.781 5.6308c1.799 0 2.912-1.2422 2.912-3.2695 0-2.0332-1.113-3.2695-2.912-3.2695s-2.912 1.2363-2.912 3.2695c0 2.0273 1.113 3.2695 2.912 3.2695zm0-.9082c-1.195 0-1.869-.8672-1.869-2.3613 0-1.5.674-2.3613 1.869-2.3613s1.869.8613 1.869 2.3613c0 1.4941-.674 2.3613-1.869 2.3613zm4.494.7969h1.008v-3.7383c0-1.1074.65-1.7812 1.658-1.7812s1.488.539 1.488 1.6757v3.8438h1.008v-4.0898c0-1.5-.791-2.3379-2.209-2.3379-.967 0-1.582.4101-1.898 1.1074h-.094v-.9961h-.961zm10.816-7.9512v1.6348h-1.019v.8437h1.019v3.8321c0 1.207.522 1.6875 1.823 1.6875.199 0 .392-.0235.591-.0586v-.8496c-.187.0175-.287.0234-.468.0234-.657 0-.938-.3164-.938-1.0605v-3.5743h1.406v-.8437h-1.406v-1.6348zm3.996 7.9512h1.008v-3.7383c0-1.0664.621-1.7812 1.752-1.7812.955 0 1.459.5566 1.459 1.6757v3.8438h1.008v-4.0898c0-1.4825-.844-2.3379-2.18-2.3379-.966 0-1.629.4101-1.945 1.1074h-.094v-3.5039h-1.008zm7.594-7.5352c.387 0 .703-.3164.703-.7031s-.316-.7031-.703-.7031c-.386 0-.703.3164-.703.7031s.317.7031.703.7031zm-.504 7.5352h1.008v-6.3164h-1.008zm2.784-4.5879c0 .9141.539 1.4238 1.722 1.7109l1.084.2637c.674.1641 1.002.4571 1.002.8906 0 .5801-.609.9844-1.459.9844-.808 0-1.312-.3398-1.482-.873h-1.037c.111 1.0488 1.078 1.7226 2.484 1.7226 1.436 0 2.531-.7793 2.531-1.9101 0-.9082-.574-1.4239-1.763-1.711l-.973-.2343c-.744-.1817-1.096-.4512-1.096-.8848 0-.5625.586-.9434 1.336-.9434.762 0 1.254.334 1.389.8379h.996c-.135-1.0371-1.055-1.6933-2.379-1.6933-1.342 0-2.355.791-2.355 1.8398z" fill="#586069"/><g filter="url(#a)" class="sponsors-invet-button-mock"><rect fill="#fafbfc" height="28" rx="6" width="94" x="451" y="19"/><path class="sponsors-invet-heart-icon-alt" fill-rule="evenodd" clip-rule="evenodd" transform="translate(-52)" d="M518.781 26.7143C517.278 26.7143 515.688 28.0449 515.688 30.1429C515.688 32.5998 517.465 34.8787 519.473 36.6367C520.452 37.4945 521.436 38.184 522.176 38.6597C522.51 38.8736 522.792 39.0431 523 39.1641C523.208 39.0431 523.49 38.8736 523.824 38.6597C524.564 38.184 525.548 37.4945 526.527 36.6367C528.535 34.8787 530.312 32.5998 530.312 30.1429C530.312 28.0449 528.722 26.7143 527.219 26.7143C525.674 26.7143 524.284 27.841 523.811 29.5213C523.708 29.8893 523.377 30.1429 523 30.1429C522.623 30.1429 522.292 29.8893 522.189 29.5213C521.716 27.841 520.326 26.7143 518.781 26.7143ZM523 40.1431C522.612 40.9045 522.612 40.9044 522.612 40.9042L522.609 40.9028L522.603 40.8996L522.582 40.8885C522.565 40.879 522.54 40.8654 522.507 40.8477C522.443 40.8124 522.35 40.7607 522.234 40.6937C522 40.5594 521.67 40.3626 521.275 40.1087C520.486 39.6022 519.431 38.8631 518.371 37.9352C516.3 36.1216 514 33.4005 514 30.1429C514 27.0981 516.347 25 518.781 25C520.522 25 522.047 25.916 523 27.3086C523.953 25.916 525.478 25 527.219 25C529.653 25 532 27.0981 532 30.1429C532 33.4005 529.7 36.1216 527.629 37.9352C526.569 38.8631 525.514 39.6022 524.725 40.1087C524.33 40.3626 524 40.5594 523.766 40.6937C523.65 40.7607 523.557 40.8124 523.493 40.8477C523.46 40.8654 523.435 40.879 523.418 40.8885L523.397 40.8996L523.391 40.9028L523.388 40.9042C523.388 40.9044 523.388 40.9045 523 40.1431ZM523 40.1431L523.388 40.9042C523.145 41.0319 522.855 41.0319 522.612 40.9042L523 40.1431Z" fill="#d03592"/><path class="sponsors-invet-heart-icon" clip-rule="evenodd" d="m467.25 27.5c-1.336 0-2.75 1.1642-2.75 3 0 2.1497 1.58 4.1438 3.365 5.6819.87.7506 1.745 1.3539 2.403 1.7701.296.1872.547.3355.732.4414.185-.1059.436-.2542.732-.4414.658-.4162 1.533-1.0195 2.403-1.7701 1.785-1.5381 3.365-3.5322 3.365-5.6819 0-1.8358-1.414-3-2.75-3-1.373 0-2.609.9858-3.029 2.456-.092.322-.386.544-.721.544s-.629-.222-.721-.544c-.42-1.4702-1.656-2.456-3.029-2.456zm3.75 11.75c-.345.6662-.345.6661-.345.6659l-.002-.0012-.006-.0028-.018-.0097c-.016-.0083-.038-.0202-.067-.0357-.057-.0309-.139-.0761-.243-.1348-.208-.1175-.501-.2897-.853-.5118-.701-.4432-1.639-1.0899-2.581-1.9018-1.84-1.5869-3.885-3.9678-3.885-6.8181 0-2.6642 2.086-4.5 4.25-4.5 1.547 0 2.903.8015 3.75 2.0199.847-1.2184 2.203-2.0199 3.75-2.0199 2.164 0 4.25 1.8358 4.25 4.5 0 2.8503-2.045 5.2312-3.885 6.8181-.942.8119-1.88 1.4586-2.581 1.9018-.352.2221-.645.3943-.853.5118-.104.0587-.186.1039-.243.1348-.029.0155-.051.0274-.067.0357l-.018.0097-.006.0028-.002.0012c0 .0002 0 .0003-.345-.6659zm0 0 .345.6659c-.216.1118-.474.1118-.69 0z" fill="#d03592" fill-rule="evenodd"/><path d="m483.656 34.709c.076 1.5293 1.36 2.5019 3.299 2.5019 2.051 0 3.322-1.0195 3.322-2.6601 0-1.2832-.72-1.9981-2.437-2.3906l-.973-.2227c-1.049-.2461-1.476-.5801-1.476-1.1602 0-.7324.644-1.2128 1.617-1.2128.926 0 1.582.4746 1.687 1.2304h1.448c-.071-1.4472-1.354-2.4609-3.129-2.4609-1.893 0-3.147 1.0195-3.147 2.543 0 1.2539.721 2.0097 2.256 2.3613l1.096.2519c1.084.252 1.547.627 1.547 1.2422 0 .7207-.721 1.2422-1.717 1.2422-1.072 0-1.822-.4922-1.916-1.2656zm11.66-4.2188c-.878 0-1.623.4395-1.992 1.166h-.099v-1.0605h-1.401v8.5313h1.453v-3.0997h.1c.328.6797 1.037 1.0782 1.957 1.0782 1.617 0 2.625-1.2715 2.625-3.3047 0-2.0508-1.02-3.3106-2.643-3.3106zm-.457 5.4082c-.99 0-1.605-.8027-1.611-2.0976.006-1.2949.627-2.0977 1.617-2.0977.996 0 1.6.7852 1.6 2.0977s-.598 2.0976-1.606 2.0976zm7.325 1.2305c1.916 0 3.082-1.2539 3.082-3.334 0-2.0683-1.172-3.3222-3.082-3.3222-1.905 0-3.082 1.2597-3.082 3.3222 0 2.0801 1.16 3.334 3.082 3.334zm0-1.1894c-1.014 0-1.594-.7852-1.594-2.1387s.58-2.1387 1.594-2.1387c1.007 0 1.587.7852 1.587 2.1387s-.574 2.1387-1.587 2.1387zm4.546 1.0605h1.454v-3.7324c0-.961.545-1.5645 1.412-1.5645.884 0 1.295.4981 1.295 1.4942v3.8027h1.453v-4.1426c0-1.5234-.78-2.3847-2.209-2.3847-.955 0-1.6.4335-1.905 1.1484h-.099v-1.0254h-1.401zm7.19-4.5762c0 .961.58 1.5235 1.81 1.8047l1.137.2637c.61.1406.885.375.885.7383 0 .4863-.51.8203-1.242.8203-.727 0-1.178-.293-1.319-.7676h-1.435c.111 1.1543 1.119 1.8457 2.719 1.8457 1.599 0 2.73-.8144 2.73-2.0391 0-.9433-.568-1.4648-1.793-1.746l-1.131-.252c-.644-.1523-.949-.3809-.949-.7441 0-.4747.498-.7969 1.16-.7969.68 0 1.108.293 1.213.7441h1.365c-.105-1.1543-1.06-1.8222-2.584-1.8222-1.511 0-2.566.8027-2.566 1.9511zm9.521 4.7051c1.916 0 3.082-1.2539 3.082-3.334 0-2.0683-1.171-3.3222-3.082-3.3222-1.904 0-3.082 1.2597-3.082 3.3222 0 2.0801 1.161 3.334 3.082 3.334zm0-1.1894c-1.013 0-1.593-.7852-1.593-2.1387s.58-2.1387 1.593-2.1387c1.008 0 1.588.7852 1.588 2.1387s-.574 2.1387-1.588 2.1387zm4.547 1.0605h1.453v-3.7207c0-.9023.657-1.4883 1.6-1.4883.246 0 .633.041.744.082v-1.3242c-.135-.0351-.392-.0586-.603-.0586-.827 0-1.518.4688-1.694 1.1016h-.099v-.9961h-1.401z" fill="#24292e"/><rect height="27" rx="5.5" stroke="#1b1f23" stroke-opacity=".15" width="93" x="451.5" y="19.5"/></g><path clip-rule="evenodd" d="m17 27.5c0-.663.2634-1.2989.7322-1.7678.4689-.4688 1.1048-.7322 1.7678-.7322h8.75c.1989 0 .3897.079.5303.2197.1407.1406.2197.3314.2197.5303v12.5c0 .1989-.079.3897-.2197.5303-.1406.1407-.3314.2197-.5303.2197h-2.5c-.1989 0-.3897-.079-.5303-.2197-.1407-.1406-.2197-.3314-.2197-.5303s.079-.3897.2197-.5303c.1406-.1407.3314-.2197.5303-.2197h1.75v-2h-8c-.1969 0-.3894.0582-.5534.1672s-.2922.264-.3684.4456c-.0763.1815-.0972.3815-.0603.575.037.1934.1303.3716.2681.5122.1392.1422.2163.3338.2142.5328-.002.199-.083.389-.2252.5282-.1421.1392-.3338.2163-.5328.2142-.1989-.002-.389-.083-.5282-.2252-.4583-.4671-.7147-1.0956-.714-1.75zm10.5-1v7.5h-8c-.356 0-.694.074-1 .208v-6.708c0-.2652.1054-.5196.2929-.7071s.4419-.2929.7071-.2929zm-7.5 10.75v3.25c0 .0464.0129.0919.0373.1314.0245.0395.0594.0714.1009.0922s.088.0296.1343.0254c.0462-.0042.0904-.0211.1275-.049l1.45-1.087c.0433-.0325.0959-.05.15-.05s.1067.0175.15.05l1.45 1.087c.0371.0279.0813.0448.1276.049.0462.0042.0927-.0046.1342-.0254s.0765-.0527.1009-.0922.0373-.085.0373-.1314v-3.25c0-.0663-.0263-.1299-.0732-.1768s-.1105-.0732-.1768-.0732h-3.5c-.0663 0-.1299.0263-.1768.0732s-.0732.1105-.0732.1768z" fill="#6a737d" fill-rule="evenodd"/><path d="m.5.5h564v65h-564z" stroke="#e1e4e8"/></svg>
