<svg xmlns="http://www.w3.org/2000/svg" viewBox="0 0 112.27 100.88"><title>machinelearning-flourish-5</title><g style="isolation:isolate"><g id="Layer_3" data-name="Layer 3"><g style="opacity:0.75"><path d="M1502.51,409.86V394.33a0.91,0.91,0,0,1,.46-0.79l21.28-12.28a0.91,0.91,0,0,1,1.37.79v15.53a0.91,0.91,0,0,1-.46.79l-21.28,12.28A0.91,0.91,0,0,1,1502.51,409.86Z" transform="translate(-1425.64 -368.05)" style="fill:#27b465"/><polyline points="82.65 38.19 82.65 43.65 88.42 35.31" style="fill:#27b465"/><path d="M1514.93,394.22l-0.06,0h-0.41l-0.07,0-0.06,0-0.08,0-0.05,0-0.14.07a3,3,0,0,0-1.36,2.35,1.54,1.54,0,0,0,0,.3h0a1.09,1.09,0,0,0,.08.24h0a0.8,0.8,0,0,0,.12.19h0a0.67,0.67,0,0,0,.16.13,1,1,0,0,0,1-.09,3,3,0,0,0,1.36-2.35,1,1,0,0,0-.4-0.87l-0.05,0Z" transform="translate(-1425.64 -368.05)" style="fill:#fff"/><path d="M1510.46,396.81l-0.06,0H1510l-0.07,0-0.06,0-0.08,0-0.05,0-0.14.07a3,3,0,0,0-1.36,2.35,1.54,1.54,0,0,0,0,.3h0a1.09,1.09,0,0,0,.08.24h0a0.8,0.8,0,0,0,.12.19h0a0.67,0.67,0,0,0,.16.13,1,1,0,0,0,1-.09,3,3,0,0,0,1.36-2.35,1,1,0,0,0-.4-0.87l-0.05,0Z" transform="translate(-1425.64 -368.05)" style="fill:#fff"/><path d="M1519.4,391.69l-0.06,0h-0.41l-0.07,0-0.06,0-0.08,0-0.05,0-0.14.07a3,3,0,0,0-1.36,2.35,1.54,1.54,0,0,0,0,.3h0a1.09,1.09,0,0,0,.08.24h0a0.8,0.8,0,0,0,.12.19h0a0.67,0.67,0,0,0,.16.13,1,1,0,0,0,1-.09,3,3,0,0,0,1.36-2.35,1,1,0,0,0-.4-0.87l-0.05,0Z" transform="translate(-1425.64 -368.05)" style="fill:#fff"/></g><g style="opacity:0.75"><path d="M1495,396.78V381.25a0.91,0.91,0,0,0-.46-0.79l-21.28-12.28a0.91,0.91,0,0,0-1.37.79v15.53a0.91,0.91,0,0,0,.46.79l21.28,12.28A0.91,0.91,0,0,0,1495,396.78Z" transform="translate(-1425.64 -368.05)" style="fill:#3e60ac;mix-blend-mode:darken"/><polygon points="48.87 5.46 48.86 7.28 61.84 14.82 61.84 13.01 48.87 5.46" style="fill:#fff"/><polyline points="63.98 26.09 63.98 31.54 58.21 23.2" style="fill:#3e60ac;mix-blend-mode:darken"/><polygon points="56.86 13.83 56.86 15.64 65.17 20.46 65.17 18.65 56.86 13.83" style="fill:#fff"/><polygon points="51.25 10.57 51.25 12.38 55.09 14.61 55.09 12.8 51.25 10.57" style="fill:#fff"/><polygon points="48.87 12.88 48.86 14.69 56.97 19.4 56.97 17.59 48.87 12.88" style="fill:#fff"/><polygon points="58.74 18.62 58.74 20.43 63.04 22.93 63.04 21.11 58.74 18.62" style="fill:#fff"/></g><g style="opacity:0.75"><g id="_Group_" data-name="&lt;Group&gt;"><polygon id="_Path_" data-name="&lt;Path&gt;" points="112.27 64.39 49.36 100.89 6.67 76.24 69.59 39.75 112.27 64.39" style="fill:#e1eaf7"/></g><polygon points="45.7 82.99 38.81 86.97 38.81 73.51 45.7 82.99" style="fill:#f1603f"/><polygon points="31.93 82.99 38.81 86.97 38.81 73.51 31.93 82.99" style="fill:#d84b35"/><polygon points="45.69 75.04 52.59 79.02 52.59 47.21 45.69 75.04" style="fill:#d62d7c"/><polygon points="59.47 75.04 52.58 79.02 52.59 47.21 59.47 75.04" style="fill:#f0598b"/><polygon points="73.25 67.09 66.36 71.06 66.36 31.3 73.25 67.09" style="fill:#5d95cf"/><polygon points="59.47 67.09 66.36 71.06 66.36 31.3 59.47 67.09" style="fill:#3e60ac"/><polygon points="87.02 59.13 80.13 63.11 80.13 43.89 87.02 59.13" style="fill:#27b465"/><polygon points="73.25 59.13 80.13 63.11 80.13 43.89 73.25 59.13" style="fill:#009e51"/></g><g style="opacity:0.5"><polygon points="5.91 36.59 1.4 33.99 5.91 31.39 10.41 33.99 5.91 36.59" style="fill:#e1eaf7"/><polygon points="5.91 32.5 0 29.09 0 22.27 5.91 25.68 5.91 32.5" style="fill:#00a2d2"/><polygon points="5.91 25.68 0 22.27 5.91 18.86 11.81 22.27 5.91 25.68" style="fill:#54b0e3"/><polygon points="11.81 29.09 5.91 32.5 5.91 25.68 11.81 22.27 11.81 29.09" style="fill:#37a8d9"/></g></g></g></svg>