<svg xmlns="http://www.w3.org/2000/svg" viewBox="0 0 73.8 39.67"><title>Asset 2</title><g data-name="Layer 2" style="isolation:isolate"><g data-name="Layer 5" style="mix-blend-mode:color-dodge" stroke-linecap="round" stroke-linejoin="round"><path d="M73.3 24.85a3.9 3.9 0 0 0-5.41-3.6 4.89 4.89 0 0 0-4.54-3.09h-.07A6.47 6.47 0 0 0 50.4 19a4.88 4.88 0 0 0-4.57 4.13 2.11 2.11 0 0 0-2.64 2.05h30.09c.01-.12.02-.18.02-.33zM.53 37.19a2.93 2.93 0 0 1 4.77-2.67 6.47 6.47 0 0 1 12.56.67 1.87 1.87 0 0 1 .5-.07 1.89 1.89 0 0 1 1.9 1.88v.18z" fill="none" stroke="#a7a8ae"/><path fill="#fff" stroke="#2e3844" d="M35.24 36.35h4.41v2.82h-4.41zM39.01 34.08v2.27M35.88 36.35v-2.27M48.54 20.88a11.1 11.1 0 1 0-14.88 10.43 1.58 1.58 0 0 1 .94 1l.63 1.8h4.41l.63-1.8a1.58 1.58 0 0 1 .94-1 11.1 11.1 0 0 0 7.33-10.43z"/><path d="M43.19 20.88c0-6.36-2.77-11.47-6.11-11.07-2.82.34-5.13 4.72-5.36 10.16-.22 5.19 1.42 9.7 3.77 11.35a1.52 1.52 0 0 1 .49 1l.33 1.8h2.29l.33-1.8a1.52 1.52 0 0 1 .49-1c2.19-1.56 3.77-5.64 3.77-10.44z" fill="#fff" stroke="#2e3844"/><path fill="none" stroke="#2e3844" d="M25.34 21.93h24.21"/><rect x="5.11" y=".5" width="19.52" height="13.89" rx=".95" ry=".95" transform="rotate(-180 14.875 7.445)" fill="#07bedc" stroke="#2e3844"/><path fill="#07bedc" stroke="#2e3844" d="M21.04 13.03v5.18l-5.02-5.02"/></g></g></svg>