<svg xmlns="http://www.w3.org/2000/svg" viewBox="0 0 105.6 30.73"><title>Asset 4</title><g data-name="Layer 2" style="isolation:isolate"><g data-name="Layer 5" style="mix-blend-mode:color-dodge" stroke-linecap="round" stroke-linejoin="round"><path d="M20.28 30.23a3.32 3.32 0 0 0-6.63 0M13.76 29.57a6.63 6.63 0 0 0-13.26 0" fill="#fff" stroke="#a7a8ae"/><path d="M43 12.26a2.2 2.2 0 0 1 2.2-2.2 2.18 2.18 0 0 1 1.08.3 4.4 4.4 0 0 1 8.18 1.91z" fill="none" stroke="#2e3844"/><path d="M57.9 11.7a4.67 4.67 0 0 1 6.41-4.34A6.94 6.94 0 0 1 76.57 9.8h.23a2.47 2.47 0 0 1 2.47 2.47H57.94a4.71 4.71 0 0 1-.04-.57z" fill="#fff" stroke="#2e3844"/><path fill="none" stroke="#a7a8ae" d="M20.28 30.18h84.82"/><path fill="none" stroke="#2e3844" d="M43.63 18.06l.88-2.5h-4.4l.87 2.5v2.5h-3.47v4.12h22.14v-5.3l1.91-2.2h-8.77v3.38h-2.25v-2.25h-2.4v2.25h-4.51v-2.5zM35.8 28.5h5.38l1.98-2.01h1.67l1.05 1.37h11.27l2.5-.88v-2.3H38.73L35.8 28.5z"/><path fill="none" stroke="#2e3844" d="M57.48 22.03h-2.53V19.5h2.53z"/><circle cx="55.55" cy="28.24" r="1.6" fill="#fff" stroke="#2e3844"/><circle cx="48.64" cy="28.24" r="1.6" fill="#fff" stroke="#2e3844"/><circle cx="39.6" cy="28.42" r="1.42" fill="#fff" stroke="#2e3844"/><path fill="none" stroke="#2e3844" d="M78.98 27.48H62.27v-7.36h16.71zM77 22.04v3.53M74.45 22.04v3.53M71.91 22.04v3.53M69.36 22.04v3.53M66.81 22.04v3.53M64.26 22.04v3.53"/><circle cx="75.96" cy="28.42" r="1.42" fill="#fff" stroke="#2e3844"/><circle cx="65.31" cy="28.42" r="1.42" fill="#fff" stroke="#2e3844"/><path fill="none" stroke="#2e3844" d="M62.28 25.62h-2.63M98.32 27.48H81.61v-7.36h16.71zM96.33 22.04v3.53M93.79 22.04v3.53M91.24 22.04v3.53M88.69 22.04v3.53M86.14 22.04v3.53M83.59 22.04v3.53"/><circle cx="95.29" cy="28.42" r="1.42" fill="#fff" stroke="#2e3844"/><circle cx="84.64" cy="28.42" r="1.42" fill="#fff" stroke="#2e3844"/><path fill="none" stroke="#2e3844" d="M81.61 25.62h-2.62"/><rect x="16.54" y=".5" width="19.52" height="13.89" rx=".95" ry=".95" transform="rotate(-180 26.295 7.445)" fill="#07bedc" stroke="#2e3844"/><path fill="#07bedc" stroke="#2e3844" d="M32.47 13.03v5.18l-5.03-5.02"/></g></g></svg>