<svg xmlns="http://www.w3.org/2000/svg" viewBox="0 0 130 28">
  <path d="M19 0c-.1 0-.2 0-.3.1l-2.1 1.5c-.1.1-.4.1-.5 0L14 .1c0-.1-.1-.1-.2-.1H4.7c-.1 0-.2 0-.3.1C1.7 3.1 0 7 0 11.4c0 9 7.2 16.5 16.2 16.6 9.2.1 16.6-7.3 16.6-16.6C32.8 7 31.1 3 28.4.1c-.1-.1-.2-.1-.3-.1H19zm8.2 11.6c0 6.2-5.2 11.3-11.4 11-5.6-.3-9.8-5-10-10.6-.2-2.9.7-5.6 2.5-7.6.1-.2.1-.4 0-.5L5 .7l10.9 7.9c.3.2.7.2 1 0L27.8.7l-3.3 3.2c-.1.1-.2.4 0 .5 1.7 2 2.7 4.5 2.7 7.2zm17.1 11.3h4.2v-6.6h6.2v-3.7h-6.2v-4h7.3v-4H44.3v18.3zm28-12.3c0-3.3-2.2-6.1-7.9-6.1-2.1 0-3.8.1-5.3.3v18.1h4.2v-6h2.3l3.1 6h4.8l-4.3-7.1c2-1.1 3.1-3.1 3.1-5.2zm-7.6 2.9c-.5 0-.8 0-1.3-.1v-5c.6-.1 1-.1 1.6-.1 1.8 0 3 .9 3 2.4 0 1.9-1.3 2.8-3.3 2.8zm19.5-9.2c-5.6 0-9.4 4.1-9.4 9.5s3.6 9.4 9.2 9.4 9.4-4.1 9.4-9.4c0-5.4-3.6-9.5-9.2-9.5zm-.1 15.2c-2.9 0-4.8-2.4-4.8-5.7 0-3.3 1.9-5.7 4.8-5.7s4.8 2.4 4.8 5.7c0 3.3-1.9 5.7-4.8 5.7zm24-5.4L97.3 4.3l-.6.1v18.5h4.2v-9.6l10.9 9.9.4-.1V4.6H108v9.5zm6.8-9.5v3.9h5.4v14.4h4.2V8.5h5.4V4.6h-15z" fill-rule="evenodd" clip-rule="evenodd" fill="currentColor"/>
</svg>
