<svg xmlns="http://www.w3.org/2000/svg" fill="currentColor" viewBox="0 0 182 48">
  <path d="M108 20.6h4.8v17.1H108v-2.2c-1.7 2.6-3.9 2.7-5.3 2.7-5.3 0-8.8-4.1-8.8-9.1 0-5.1 3.4-9.1 8.4-9.1 1.4 0 3.9.2 5.5 2.7v-2.2h.2zm-8.9 8.5c0 2.7 1.9 4.8 4.8 4.8 2.7 0 4.8-2.1 4.8-4.8 0-2.7-1.9-4.8-4.8-4.8-2.8 0-4.8 2.1-4.8 4.8zm23.1-4.4v13h-4.8v-13h-1.9v-4.1h1.9v-5.8h4.8v5.8h3.3v4.1h-3.3zm14.6 0c-1.2-1-2.2-1.2-2.7-1.2-1.2 0-1.9.5-1.9 1.4 0 .5.2 1 1.5 1.5l1.2.3c1.4.5 3.4 1 4.3 2.4.5.7.9 1.7.9 2.9 0 1.5-.5 3.1-1.9 4.3s-3.1 1.9-5.2 1.9c-3.6 0-5.5-1.7-6.7-2.9l2.6-2.9c1 1 2.4 2.1 3.8 2.1s2.4-.7 2.4-1.9c0-1-.9-1.5-1.5-1.7l-1-.3c-1.2-.5-2.6-1-3.6-2.1-.9-.9-1.4-1.9-1.4-3.3 0-1.7.9-3.1 1.7-3.9 1.4-1 3.1-1.2 4.5-1.2 1.2 0 3.3.2 5.5 1.9l-2.5 2.7zm10.5-1.9c1.7-2.4 4.1-2.7 5.5-2.7 5 0 8.4 3.9 8.4 9.1 0 5.1-3.4 9.1-8.6 9.1-1 0-3.6-.2-5.5-2.7v2.2h-4.6V8.9h4.8v13.9zm-.5 6.3c0 2.7 1.9 4.8 4.8 4.8 2.7 0 4.8-2.1 4.8-4.8 0-2.7-1.9-4.8-4.8-4.8s-4.8 2.1-4.8 4.8zm22.3 6l-8.2-14.6h5.7l5.3 9.8 4.8-9.8h5.5l-13.7 26.2H163l6.1-11.6zM92.7 23.5h-12v4.8h6.4c-1 3.3-3.4 5.5-7.9 5.5-5 0-8.6-4.1-8.6-9.1s3.4-9.3 8.4-9.3c2.7 0 5.5 1.4 7.2 3.6l3.9-2.6c-2.6-3.6-6.7-5.7-11.2-5.7-7.6 0-13.7 6.2-13.7 13.9s5.9 14 13.8 14 13.7-6.2 13.7-13.9c.2-.5 0-.9 0-1.2zM24 0C10.8 0 0 10.8 0 24s10.8 24 24 24 24-10.8 24-24S37.3 0 24 0zM10.6 37.4C7 33.8 5.2 29 5.2 24.3l18.7 18.5c-4.8-.1-9.6-1.8-13.3-5.4zm17.6 4.9L5.7 19.9C7.6 11.5 15.1 5.1 24 5.1c6.4 0 11.8 3.1 15.3 7.7L36.7 15c-2.9-3.9-7.6-6.5-12.7-6.5-6.7 0-12.4 4.3-14.6 10.3l19.7 19.7c5-1.7 8.8-6 10-11.1h-8.2V24h12c0 8.9-6.3 16.5-14.7 18.3z"/>
</svg>
