<svg height="240" viewBox="0 0 438 240" width="438" xmlns="http://www.w3.org/2000/svg"><g fill="none" fill-rule="evenodd" transform="translate(27 34)"><path d="m196.383 9.19901899h1.453v-8.883h-1.453zm5.939.129c1.916 0 3.082-1.254 3.082-3.334 0-2.068-1.172-3.322-3.082-3.322-1.904 0-3.082 1.26-3.082 3.322 0 2.08 1.16 3.334 3.082 3.334zm0-1.19c-1.014 0-1.594-.785-1.594-2.138 0-1.354.58-2.139 1.594-2.139 1.008 0 1.588.785 1.588 2.139 0 1.353-.575 2.139-1.588 2.139zm7.181 3.49800001c1.869 0 3.052-.931 3.052-2.40200001v-6.44h-1.4v1.026h-.1c-.351-.697-1.113-1.13-1.986-1.13-1.635 0-2.648 1.277-2.648 3.24 0 1.921 1.007 3.175 2.625 3.175.89 0 1.587-.375 1.957-1.066h.099v1.219c0 .81400001-.58 1.29400001-1.576 1.29400001-.797 0-1.312-.287-1.406-.73800001h-1.459c.117 1.10200001 1.195 1.82300001 2.842 1.82300001zm0-3.68500001c-1.014 0-1.588-.785-1.588-2.027 0-1.237.574-2.022 1.588-2.022 1.007 0 1.623.785 1.623 2.027 0 1.237-.61 2.022-1.623 2.022zm7.473 3.68600001c1.869 0 3.053-.932 3.053-2.40300001v-6.44h-1.4v1.026h-.1c-.351-.697-1.113-1.13-1.986-1.13-1.635 0-2.649 1.277-2.649 3.24 0 1.921 1.008 3.175 2.625 3.175.891 0 1.588-.375 1.957-1.066h.1v1.219c0 .81400001-.58 1.29400001-1.576 1.29400001-.797 0-1.313-.287-1.406-.73800001h-1.459c.117 1.10200001 1.195 1.82300001 2.841 1.82300001zm0-3.68600001c-1.013 0-1.588-.785-1.588-2.027 0-1.237.575-2.022 1.588-2.022 1.008 0 1.623.785 1.623 2.027 0 1.237-.609 2.022-1.623 2.022zm8.898-.504c-.211.48-.709.75-1.43.75-.955 0-1.57-.68-1.605-1.764v-.076h4.476v-.463c0-2.01-1.095-3.222-2.923-3.222-1.858 0-3.012 1.295-3.012 3.351 0 2.051 1.137 3.305 3.023 3.305 1.512 0 2.584-.727 2.848-1.881zm-1.488-3.645c.873 0 1.447.616 1.476 1.588h-3.017c.064-.96.673-1.587 1.541-1.587zm6.589 5.502c.89 0 1.629-.416 1.992-1.119h.099v1.014h1.407v-8.883h-1.453v3.498h-.1c-.34-.703-1.066-1.125-1.945-1.125-1.618 0-2.637 1.278-2.637 3.305 0 2.033 1.014 3.31 2.637 3.31zm.451-5.402c.996 0 1.611.803 1.611 2.098 0 1.3-.609 2.097-1.611 2.097-.996 0-1.6-.785-1.6-2.097 0-1.307.61-2.098 1.6-2.098zm8.578-2.18c.481 0 .873-.38.873-.86-.003852-.47876339-.394226-.86421931-.873-.86200954-.476273.00054276-.863159.3847519-.867.86100954 0 .48.393.861.867.861zm-.721 7.477h1.448v-6.404h-1.448zm3.132 0h1.454v-3.732c0-.961.544-1.565 1.412-1.565.884 0 1.295.498 1.295 1.494v3.803h1.453v-4.143c0-1.523-.78-2.384-2.209-2.384-.955 0-1.6.433-1.905 1.148h-.099v-1.025h-1.401zm48.673.105c.838 0 1.541-.363 1.899-.984h.099v.879h1.401v-4.377c0-1.354-.926-2.15-2.573-2.15-1.523 0-2.584.715-2.701 1.834h1.371c.135-.44.592-.68 1.26-.68.785 0 1.207.357 1.207.996v.55l-1.652.1c-1.559.088-2.432.762-2.432 1.91 0 1.172.885 1.922 2.121 1.922zm.428-1.119c-.644 0-1.107-.322-1.107-.873 0-.533.38-.832 1.195-.884l1.447-.1v.521c0 .762-.656 1.336-1.535 1.336zm4.603 1.014h1.453v-3.732c0-.961.545-1.565 1.412-1.565.885 0 1.295.498 1.295 1.494v3.803h1.453v-4.143c0-1.523-.779-2.384-2.209-2.384-.955 0-1.6.433-1.904 1.148h-.1v-1.025h-1.4zm9.981.129c1.916 0 3.082-1.254 3.082-3.334 0-2.068-1.172-3.322-3.082-3.322-1.904 0-3.082 1.26-3.082 3.322 0 2.08 1.16 3.334 3.082 3.334zm0-1.19c-1.013 0-1.593-.785-1.593-2.138 0-1.354.58-2.139 1.593-2.139 1.008 0 1.588.785 1.588 2.139 0 1.353-.574 2.139-1.588 2.139zm4.427 1.061h1.453v-3.732c0-.961.545-1.565 1.412-1.565.885 0 1.295.498 1.295 1.494v3.803h1.453v-4.143c0-1.523-.779-2.384-2.209-2.384-.955 0-1.599.433-1.904 1.148h-.099v-1.025h-1.401zm7.72 2.32000001c1.436 0 2.121-.521 2.666-2.09700001l2.314-6.627h-1.535l-1.494 5.027h-.099l-1.5-5.027h-1.594l2.291 6.427-.076.3c-.188.60300001-.534.83700001-1.149.83700001-.099 0-.316-.006-.398-.017v1.154c.094.017.486.023.574.023zm6.114-2.32000001h1.453v-3.896c0-.797.534-1.4 1.254-1.4.715 0 1.161.433 1.161 1.142v4.154h1.412v-4.002c0-.732.498-1.295 1.254-1.295.779 0 1.171.416 1.171 1.248v4.049h1.448v-4.406c0-1.33-.774-2.121-2.057-2.121-.891 0-1.629.457-1.945 1.154h-.1c-.269-.709-.885-1.154-1.769-1.154-.85 0-1.506.433-1.782 1.154h-.099v-1.031h-1.401zm13.521.129c1.916 0 3.082-1.254 3.082-3.334 0-2.068-1.172-3.322-3.082-3.322-1.904 0-3.082 1.26-3.082 3.322 0 2.08 1.16 3.334 3.082 3.334zm0-1.19c-1.014 0-1.594-.785-1.594-2.138 0-1.354.58-2.139 1.594-2.139 1.008 0 1.588.785 1.588 2.139 0 1.353-.574 2.139-1.588 2.139zm10.005-5.343h-1.453v3.732c0 .967-.516 1.553-1.459 1.553-.867 0-1.272-.48-1.272-1.477v-3.808h-1.453v4.16c0 1.5.821 2.373 2.221 2.373.978 0 1.605-.416 1.916-1.149h.1v1.02h1.4zm1.515 1.828c0 .96.58 1.523 1.81 1.805l1.137.263c.609.14.885.375.885.738 0 .487-.51.82-1.242.82-.727 0-1.178-.292-1.319-.767h-1.435c.111 1.154 1.119 1.846 2.718 1.846 1.6 0 2.731-.815 2.731-2.04 0-.942-.568-1.464-1.793-1.745l-1.131-.252c-.644-.152-.949-.381-.949-.744 0-.475.498-.797 1.16-.797.68 0 1.107.293 1.213.744h1.365c-.105-1.154-1.06-1.822-2.584-1.822-1.512 0-2.566.802-2.566 1.95z" fill="#8b949e" fill-rule="nonzero"/><path d="m21.434 123.699019h342m-342-32h342m-342-32h342" stroke="#484f58"/><path d="m31.434 127.199019h44v28h-44zm56-23h44v51h-44zm56-70h44v121h-44zm56 40h44v81h-44zm56-14h44v95h-44zm56 23h44v72h-44z" fill="#096bde" fill-rule="nonzero"/><path d="m9.109 158.375019c1.684 0 2.685-1.363 2.685-3.697 0-2.338-1.015-3.701-2.685-3.701-1.675 0-2.69 1.363-2.69 3.692 0 2.339 1 3.706 2.69 3.706zm0-1.021c-.894 0-1.416-.927-1.416-2.685 0-1.743.532-2.666 1.416-2.666s1.41.918 1.41 2.666c0 1.762-.517 2.685-1.41 2.685zm-5.75-30.155h1.26v-7.046h-1.255l-1.84 1.294v1.187l1.752-1.241h.083zm5.75.176c1.684 0 2.685-1.363 2.685-3.697 0-2.338-1.015-3.701-2.685-3.701-1.675 0-2.69 1.363-2.69 3.692 0 2.339 1 3.706 2.69 3.706zm0-1.021c-.894 0-1.416-.927-1.416-2.685 0-1.743.532-2.666 1.416-2.666s1.41.918 1.41 2.666c0 1.762-.517 2.685-1.41 2.685zm-8.855-37.116h1.18c0-.742.489-1.25 1.255-1.25.738 0 1.177.493 1.177 1.133 0 .537-.215.874-1.103 1.772l-2.442 2.456v.85h4.893v-1.045h-3.184v-.083l1.514-1.489c1.21-1.187 1.567-1.758 1.567-2.578 0-1.172-.952-2.027-2.353-2.027-1.47 0-2.505.928-2.505 2.261zm8.855 5.137c1.684 0 2.685-1.363 2.685-3.697 0-2.338-1.015-3.701-2.685-3.701-1.675 0-2.69 1.363-2.69 3.692 0 2.339 1 3.706 2.69 3.706zm0-1.021c-.894 0-1.416-.927-1.416-2.685 0-1.743.532-2.666 1.416-2.666s1.41.918 1.41 2.666c0 1.762-.517 2.685-1.41 2.685zm-7.381-33.299h.884c.87 0 1.397.434 1.397 1.142 0 .684-.572 1.143-1.382 1.143-.816 0-1.367-.42-1.421-1.075h-1.206c.058 1.275 1.108 2.11 2.641 2.11 1.524 0 2.657-.88 2.657-2.09 0-.962-.6-1.582-1.558-1.729v-.083c.747-.2 1.28-.761 1.284-1.61.005-1.012-.84-1.886-2.339-1.886-1.528 0-2.485.865-2.548 2.1h1.181c.054-.703.532-1.094 1.299-1.094.747 0 1.191.46 1.191 1.04 0 .64-.498 1.09-1.22 1.09h-.86zm7.38 3.32c1.685 0 2.686-1.362 2.686-3.697 0-2.338-1.015-3.7-2.685-3.7-1.675 0-2.69 1.362-2.69 3.69 0 2.34 1 3.707 2.69 3.707zm0-1.02c-.893 0-1.415-.928-1.415-2.686 0-1.743.532-2.666 1.416-2.666s1.41.918 1.41 2.666c0 1.762-.517 2.685-1.41 2.685z" fill="#8b949e" fill-rule="nonzero"/><path d="m21.434 155.699019h342" stroke="#484f58"/><g fill-rule="nonzero"><path d="m47.911 167.054019h.884c.869 0 1.396.435 1.396 1.143 0 .684-.571 1.143-1.382 1.143-.815 0-1.367-.42-1.42-1.075h-1.207c.059 1.275 1.109 2.11 2.642 2.11 1.523 0 2.656-.879 2.656-2.09 0-.962-.6-1.582-1.557-1.729v-.083c.747-.2 1.279-.761 1.284-1.611.005-1.011-.84-1.885-2.339-1.885-1.528 0-2.485.865-2.549 2.1h1.182c.054-.703.532-1.094 1.299-1.094.747 0 1.191.459 1.191 1.04 0 .64-.498 1.089-1.22 1.089h-.86zm5.203 4.654 2.529-8.911h-1.089l-2.534 8.911zm5.827-1.333c1.626 0 2.74-.84 2.74-2.066 0-.908-.606-1.621-1.524-1.792v-.083c.757-.19 1.236-.791 1.236-1.552 0-1.109-1.016-1.905-2.447-1.905-1.43 0-2.45.796-2.45 1.905 0 .756.487 1.367 1.24 1.552v.083c-.924.191-1.524.904-1.524 1.797 0 1.221 1.113 2.061 2.729 2.061zm.005-4.312c-.718 0-1.21-.429-1.21-1.064s.488-1.074 1.21-1.074c.718 0 1.206.439 1.206 1.074 0 .63-.493 1.064-1.206 1.064zm0 3.35c-.85 0-1.435-.493-1.435-1.201 0-.713.586-1.206 1.435-1.206.845 0 1.431.493 1.431 1.206 0 .708-.581 1.201-1.431 1.201zm40.525-2.359h.884c.869 0 1.396.435 1.396 1.143 0 .684-.571 1.143-1.382 1.143-.815 0-1.367-.42-1.421-1.075h-1.206c.059 1.275 1.109 2.11 2.642 2.11 1.523 0 2.656-.879 2.656-2.09 0-.962-.601-1.582-1.558-1.729v-.083c.748-.2 1.28-.761 1.285-1.611.004-1.011-.84-1.885-2.339-1.885-1.529 0-2.486.865-2.549 2.1h1.182c.053-.703.532-1.094 1.298-1.094.747 0 1.192.459 1.192 1.04 0 .64-.498 1.089-1.221 1.089h-.859zm5.202 4.654 2.53-8.911h-1.089l-2.534 8.911zm4.93-1.509h1.26v-7.046h-1.255l-1.841 1.294v1.187l1.753-1.241h.083zm6.428 0h1.206v-1.353h.952v-1.04h-.952v-4.653h-1.777c-1.002221 1.526033-1.95963 3.08103-2.871 4.663v1.03h3.442zm-2.275-2.437c.70876-1.221221 1.451041-2.422678 2.226-3.603h.069v3.677h-2.295zm41.89-.708h.884c.869 0 1.397.435 1.397 1.143 0 .684-.572 1.143-1.382 1.143-.816 0-1.367-.42-1.421-1.075h-1.206c.058 1.275 1.108 2.11 2.641 2.11 1.524 0 2.657-.879 2.657-2.09 0-.962-.601-1.582-1.558-1.729v-.083c.747-.2 1.279-.761 1.284-1.611.005-1.011-.84-1.885-2.339-1.885-1.528 0-2.485.865-2.548 2.1h1.181c.054-.703.532-1.094 1.299-1.094.747 0 1.191.459 1.191 1.04 0 .64-.498 1.089-1.22 1.089h-.86zm4.754-1.816h1.181c0-.742.489-1.25 1.255-1.25.738 0 1.177.493 1.177 1.133 0 .537-.215.874-1.103 1.772l-2.442 2.456v.85h4.893v-1.045h-3.184v-.083l1.514-1.489c1.211-1.187 1.567-1.758 1.567-2.578 0-1.172-.952-2.027-2.353-2.027-1.47 0-2.505.928-2.505 2.261zm8.855 5.137c1.684 0 2.685-1.363 2.685-3.697 0-2.338-1.015-3.701-2.685-3.701-1.675 0-2.691 1.363-2.691 3.692 0 2.339 1.001 3.706 2.691 3.706zm0-1.021c-.894 0-1.416-.927-1.416-2.685 0-1.743.532-2.666 1.416-2.666s1.411.918 1.411 2.666c0 1.762-.518 2.685-1.411 2.685zm43.591-2.3h.884c.869 0 1.396.435 1.396 1.143 0 .684-.571 1.143-1.382 1.143-.815 0-1.367-.42-1.421-1.075h-1.206c.059 1.275 1.109 2.11 2.642 2.11 1.523 0 2.656-.879 2.656-2.09 0-.962-.601-1.582-1.558-1.729v-.083c.748-.2 1.28-.761 1.285-1.611.004-1.011-.84-1.885-2.339-1.885-1.529 0-2.486.865-2.549 2.1h1.182c.053-.703.532-1.094 1.298-1.094.747 0 1.192.459 1.192 1.04 0 .64-.498 1.089-1.221 1.089h-.859zm5.202 4.654 2.53-8.911h-1.089l-2.534 8.911zm3.133-6.47h1.182c0-.742.488-1.25 1.254-1.25.738 0 1.177.493 1.177 1.133 0 .537-.215.874-1.103 1.772l-2.442 2.456v.85h4.893v-1.045h-3.184v-.083l1.514-1.489c1.211-1.187 1.567-1.758 1.567-2.578 0-1.172-.952-2.027-2.353-2.027-1.47 0-2.505.928-2.505 2.261zm8.962 5.132c1.534 0 2.618-1.025 2.618-2.471 0-1.352-.982-2.339-2.32-2.339-.83 0-1.494.381-1.826 1.05h-.083c.01-1.684.62-2.602 1.665-2.602.625 0 1.084.322 1.206.874h1.26c-.176-1.138-1.138-1.905-2.49-1.905-1.748 0-2.847 1.407-2.847 3.78 0 2.412 1.187 3.613 2.817 3.613zm-.009-1.025c-.796 0-1.392-.621-1.392-1.436 0-.806.576-1.387 1.396-1.387.821 0 1.387.581 1.387 1.411 0 .801-.6 1.412-1.391 1.412zm41.204.854h1.206v-1.353h.952v-1.04h-.952v-4.653h-1.778c-1.002221 1.526033-1.95963 3.08103-2.871 4.663v1.03h3.443zm-2.276-2.437c.709092-1.221231 1.451707-2.422687 2.227-3.603h.068v3.677h-2.295zm6.018 3.946 2.53-8.911h-1.089l-2.534 8.911zm4.93-1.509h1.26v-7.046h-1.255l-1.841 1.294v1.187l1.753-1.241h.083zm46.825 0h1.206v-1.353h.952v-1.04h-.952v-4.653h-1.778c-1.002221 1.526033-1.95963 3.08103-2.871 4.663v1.03h3.443zm-2.276-2.437c.709092-1.221231 1.451707-2.422687 2.227-3.603h.068v3.677h-2.295zm6.019 3.946 2.529-8.911h-1.089l-2.534 8.911zm3.576-1.509h1.319l3.012-5.996v-1.05h-4.902v1.03h3.633v.078z" fill="#8b949e"/><circle cx="182.434" cy="5.199019" fill="#096bde" r="5"/><circle cx="279.434" cy="5.199019" fill="#9a6700" r="5"/></g></g></svg>