<svg height="240" viewBox="0 0 438 240" width="438" xmlns="http://www.w3.org/2000/svg"><g fill="none" fill-rule="evenodd" transform="translate(25.819 59)"><g stroke="#484f58"><path d="m23.181 102.5h342m-342-57h342m-342 28h342m-342-57h342"/><path d="m92.681 131v-131m69 131v-131m68 131v-131m69 131v-131" stroke-dasharray="5"/><path d="m23.181 130.5h342m-342.5.5v-131"/></g><path d="m23.681 34 68.5 27.5 70-27.5 67.5 16 69 29.5 66.5-75.5" stroke="#096bde" stroke-width="3"/><path d="m14.539 144.855h.884c.87 0 1.397.435 1.397 1.143 0 .684-.572 1.143-1.382 1.143-.816 0-1.367-.42-1.421-1.075h-1.206c.058 1.275 1.108 2.11 2.642 2.11 1.523 0 2.656-.879 2.656-2.09 0-.962-.6-1.582-1.558-1.729v-.083c.747-.2 1.28-.761 1.284-1.611.005-1.011-.84-1.885-2.339-1.885-1.528 0-2.485.865-2.548 2.1h1.181c.054-.703.532-1.094 1.3-1.094.746 0 1.19.459 1.19 1.04 0 .64-.498 1.089-1.22 1.089h-.86zm5.203 4.654 2.53-8.911h-1.091l-2.534 8.911h1.094zm6.33-1.509h1.207v-1.353h.952v-1.04h-.952v-4.653h-1.778c-1.0025223 1.526044-1.9602639 3.08104-2.872 4.663v1.03h3.443zm-2.275-2.437c.7090172-1.221276 1.4516337-2.422734 2.227-3.603h.068v3.677h-2.295zm-20.691-67.563h1.26v-7.046h-1.255l-1.84 1.294v1.187l1.752-1.24h.083zm5.75.176c1.684 0 2.685-1.363 2.685-3.697 0-2.338-1.015-3.7-2.685-3.7-1.675 0-2.69 1.362-2.69 3.691 0 2.339 1 3.706 2.69 3.706zm0-1.021c-.894 0-1.416-.927-1.416-2.685 0-1.743.532-2.666 1.416-2.666s1.41.918 1.41 2.666c0 1.762-.517 2.685-1.41 2.685zm.146 29.021c1.538 0 2.569-1.011 2.569-2.486 0-1.416-.977-2.319-2.183-2.319-.718 0-1.235.244-1.548.679h-.083l.196-2.061h3.242v-1.035h-4.224l-.386 4.097h1.143c.24-.464.703-.742 1.304-.742.776 0 1.323.561 1.323 1.401 0 .864-.547 1.44-1.358 1.44-.717 0-1.26-.434-1.338-1.093h-1.176c.053 1.235 1.064 2.119 2.52 2.119zm-.146 23c1.684 0 2.685-1.363 2.685-3.697 0-2.338-1.015-3.701-2.685-3.701-1.675 0-2.69 1.363-2.69 3.692 0 2.339 1 3.706 2.69 3.706zm0-1.021c-.894 0-1.416-.927-1.416-2.685 0-1.743.532-2.666 1.416-2.666s1.41.918 1.41 2.666c0 1.762-.517 2.685-1.41 2.685zm-5.574-79.155h1.26v-7.046h-1.255l-1.841 1.294v1.187l1.753-1.24h.083zm5.72.176c1.538 0 2.569-1.011 2.569-2.486 0-1.416-.977-2.319-2.183-2.319-.718 0-1.235.244-1.548.679h-.083l.196-2.06h3.242v-1.036h-4.224l-.386 4.097h1.143c.24-.464.703-.742 1.304-.742.776 0 1.323.561 1.323 1.401 0 .864-.547 1.44-1.358 1.44-.717 0-1.26-.434-1.338-1.093h-1.176c.053 1.235 1.064 2.119 2.52 2.119zm-9.001-40.136h1.18c0-.743.489-1.25 1.255-1.25.738 0 1.177.492 1.177 1.132 0 .537-.215.874-1.104 1.772l-2.44 2.456v.85h4.892v-1.045h-3.184v-.083l1.514-1.49c1.21-1.186 1.567-1.757 1.567-2.577 0-1.172-.952-2.027-2.353-2.027-1.47 0-2.505.928-2.505 2.261zm8.855 5.136c1.684 0 2.685-1.363 2.685-3.697 0-2.338-1.015-3.7-2.685-3.7-1.675 0-2.69 1.362-2.69 3.69 0 2.34 1 3.707 2.69 3.707zm0-1.02c-.894 0-1.416-.928-1.416-2.686 0-1.743.532-2.666 1.416-2.666s1.41.918 1.41 2.666c0 1.762-.517 2.685-1.41 2.685zm75.683 131.699h.884c.869 0 1.397.435 1.397 1.143 0 .684-.572 1.143-1.382 1.143-.816 0-1.367-.42-1.421-1.075h-1.206c.058 1.275 1.108 2.11 2.641 2.11 1.524 0 2.657-.879 2.657-2.09 0-.962-.601-1.582-1.558-1.729v-.083c.747-.2 1.279-.761 1.284-1.611.005-1.011-.84-1.885-2.339-1.885-1.528 0-2.485.865-2.548 2.1h1.181c.054-.703.532-1.094 1.299-1.094.747 0 1.191.459 1.191 1.04 0 .64-.498 1.089-1.22 1.089h-.86zm5.203 4.654 2.529-8.911h-1.088l-2.535 8.911zm4.929-1.509h1.26v-7.046h-1.255l-1.841 1.294v1.187l1.753-1.241h.083zm5.75.176c1.685 0 2.686-1.363 2.686-3.697 0-2.338-1.016-3.701-2.686-3.701-1.675 0-2.69 1.363-2.69 3.692 0 2.339 1.001 3.706 2.69 3.706zm0-1.021c-.894 0-1.416-.927-1.416-2.685 0-1.743.532-2.666 1.416-2.666s1.411.918 1.411 2.666c0 1.762-.517 2.685-1.411 2.685zm53.118-2.3h.884c.869 0 1.397.435 1.397 1.143 0 .684-.572 1.143-1.382 1.143-.816 0-1.367-.42-1.421-1.075h-1.206c.058 1.275 1.108 2.11 2.641 2.11 1.524 0 2.657-.879 2.657-2.09 0-.962-.601-1.582-1.558-1.729v-.083c.747-.2 1.279-.761 1.284-1.611.005-1.011-.84-1.885-2.339-1.885-1.528 0-2.485.865-2.548 2.1h1.181c.054-.703.532-1.094 1.299-1.094.747 0 1.191.459 1.191 1.04 0 .64-.498 1.089-1.22 1.089h-.86zm5.203 4.654 2.529-8.911h-1.088l-2.535 8.911zm4.929-1.509h1.26v-7.046h-1.255l-1.841 1.294v1.187l1.753-1.241h.083zm3.47 0h1.318l3.013-5.996v-1.05h-4.903v1.03h3.633v.078zm54.398-3.145h.884c.869 0 1.397.435 1.397 1.143 0 .684-.572 1.143-1.382 1.143-.816 0-1.367-.42-1.421-1.075h-1.206c.058 1.275 1.108 2.11 2.641 2.11 1.524 0 2.657-.879 2.657-2.09 0-.962-.601-1.582-1.558-1.729v-.083c.747-.2 1.279-.761 1.284-1.611.005-1.011-.84-1.885-2.339-1.885-1.528 0-2.485.865-2.548 2.1h1.181c.054-.703.532-1.094 1.299-1.094.747 0 1.191.459 1.191 1.04 0 .64-.498 1.089-1.22 1.089h-.86zm5.203 4.654 2.529-8.911h-1.088l-2.535 8.911zm3.133-6.47h1.181c0-.742.488-1.25 1.255-1.25.737 0 1.177.493 1.177 1.133 0 .537-.215.874-1.104 1.772l-2.441 2.456v.85h4.892v-1.045h-3.183v-.083l1.514-1.489c1.211-1.187 1.567-1.758 1.567-2.578 0-1.172-.952-2.027-2.354-2.027-1.469 0-2.504.928-2.504 2.261zm7.888 1.816h.884c.869 0 1.396.435 1.396 1.143 0 .684-.571 1.143-1.382 1.143-.815 0-1.367-.42-1.421-1.075h-1.206c.059 1.275 1.109 2.11 2.642 2.11 1.523 0 2.656-.879 2.656-2.09 0-.962-.6-1.582-1.557-1.729v-.083c.747-.2 1.279-.761 1.284-1.611.005-1.011-.84-1.885-2.339-1.885-1.528 0-2.485.865-2.549 2.1h1.182c.053-.703.532-1.094 1.299-1.094.747 0 1.191.459 1.191 1.04 0 .64-.498 1.089-1.221 1.089h-.859zm52.776 0h.884c.869 0 1.397.435 1.397 1.143 0 .684-.572 1.143-1.382 1.143-.816 0-1.367-.42-1.421-1.075h-1.206c.058 1.275 1.108 2.11 2.641 2.11 1.524 0 2.657-.879 2.657-2.09 0-.962-.601-1.582-1.558-1.729v-.083c.747-.2 1.279-.761 1.284-1.611.005-1.011-.84-1.885-2.339-1.885-1.528 0-2.485.865-2.548 2.1h1.181c.054-.703.532-1.094 1.299-1.094.747 0 1.191.459 1.191 1.04 0 .64-.498 1.089-1.22 1.089h-.86zm5.203 4.654 2.529-8.911h-1.088l-2.535 8.911zm3.133-6.47h1.181c0-.742.488-1.25 1.255-1.25.737 0 1.177.493 1.177 1.133 0 .537-.215.874-1.104 1.772l-2.441 2.456v.85h4.892v-1.045h-3.183v-.083l1.514-1.489c1.211-1.187 1.567-1.758 1.567-2.578 0-1.172-.952-2.027-2.354-2.027-1.469 0-2.504.928-2.504 2.261zm8.728 5.132c1.792 0 2.856-1.401 2.856-3.779 0-2.334-1.133-3.614-2.817-3.614-1.533 0-2.617 1.031-2.617 2.471 0 1.353.976 2.339 2.319 2.339.825 0 1.494-.381 1.826-1.05h.083c-.015 1.655-.605 2.603-1.636 2.603-.605 0-1.089-.332-1.24-.87h-1.255c.205 1.148 1.192 1.9 2.481 1.9zm.044-3.555c-.821 0-1.387-.576-1.387-1.406 0-.796.596-1.406 1.392-1.406.795 0 1.391.62 1.391 1.43 0 .801-.581 1.382-1.396 1.382zm50.538 3.384h1.206v-1.353h.952v-1.04h-.952v-4.653h-1.777c-1.002221 1.526033-1.95963 3.08103-2.871 4.663v1.03h3.442zm-2.275-2.437c.708394-1.22144 1.450682-2.422906 2.226-3.603h.068v3.677h-2.294zm6.018 3.946 2.529-8.911h-1.089l-2.534 8.911zm6.33-1.509h1.206v-1.353h.953v-1.04h-.953v-4.653h-1.777c-1.002221 1.526033-1.95963 3.08103-2.871 4.663v1.03h3.442zm-2.275-2.437c.708727-1.22145 1.451348-2.422916 2.227-3.603h.068v3.677h-2.295z" fill="#8b949e" fill-rule="nonzero"/></g></svg>