<svg id="Layer_1" xmlns="http://www.w3.org/2000/svg" width="214.5" height="267" viewBox="0 0 214.5 267"><style>.st0{fill:#009b72}.st1{fill:#38b55d}.st2{fill:#efefef}.st3{fill:#7fc142}.st4{fill:#0081c8}.st5{fill:#2a63ae}.st6{fill:none;stroke:#2a63ae;stroke-width:10.36;stroke-linecap:round;stroke-miterlimit:10}.st7{fill:#00acdf}.st8{fill:#faac18}.st9{fill:#f58826}.st10{fill:#ef6897}.st11{fill:#ee4651}.st12,.st13,.st14,.st15{fill:none;stroke:#38b55d;stroke-width:10.36;stroke-linecap:round;stroke-miterlimit:10;mix-blend-mode:multiply}.st13,.st14,.st15{stroke:#0081c8}.st14,.st15{stroke:#f58826}.st15{stroke:#ef6897}</style><path class="st0" d="M214.6 85.8h-68c-3.9 0-7.1-2.9-7.1-6.5s3.2-6.5 7.1-6.5h68"/><path class="st1" d="M129 79.4c0 3.6-2.9 6.5-6.5 6.5h-17.6c-3.6 0-6.5-2.9-6.5-6.5s2.9-6.5 6.5-6.5h17.6c3.6 0 6.5 2.9 6.5 6.5z"/><path class="st2" d="M214.5 111.7h-19.3c-4.7 0-8.4-2.9-8.4-6.5s3.8-6.5 8.4-6.5h19.3"/><path class="st3" d="M176.2 105.2c0 3.6-2.9 6.5-6.5 6.5H79.9c-3.6 0-6.5-2.9-6.5-6.5s2.9-6.5 6.5-6.5h89.9c3.5.1 6.4 3 6.4 6.5z"/><path class="st4" d="M214.5 137.6h-51.1c-4 0-7.3-2.9-7.3-6.5s3.3-6.5 7.3-6.5h51.1"/><path class="st2" d="M145.6 131.1c0 3.6-2.9 6.5-6.5 6.5H127c-3.6 0-6.5-2.9-6.5-6.5s2.9-6.5 6.5-6.5h12.1c3.6 0 6.5 2.9 6.5 6.5zM152 54.4c0 3.6-2.9 6.5-6.5 6.5h-12.1c-3.6 0-6.5-2.9-6.5-6.5s2.9-6.5 6.5-6.5h12.1c3.6 0 6.5 2.9 6.5 6.5z"/><path class="st5" d="M214.7 163.5h-89.6c-3.8 0-6.9-2.9-6.9-6.5s3.1-6.5 6.9-6.5h89.6"/><path class="st6" d="M207.9 157c-14.3 0-25.9-11.6-25.9-25.9"/><path class="st2" d="M107.6 157c0 3.6-2.9 6.5-6.5 6.5H88.2c-3.6 0-6.5-2.9-6.5-6.5s2.9-6.5 6.5-6.5h12.9c3.6 0 6.5 2.9 6.5 6.5zM171.1 208.7c0 3.6-2.9 6.5-6.5 6.5h-12.9c-3.6 0-6.5-2.9-6.5-6.5s2.9-6.5 6.5-6.5h12.9c3.6.1 6.5 3 6.5 6.5zM109.7 131.1c0 3.6-2.9 6.5-6.5 6.5H66.4c-3.6 0-6.5-2.9-6.5-6.5s2.9-6.5 6.5-6.5h36.9c3.5 0 6.4 2.9 6.4 6.5zM116.5 54.4c0 3.6-2.9 6.5-6.5 6.5H73.1c-3.6 0-6.5-2.9-6.5-6.5s2.9-6.5 6.5-6.5H110c3.6 0 6.5 2.9 6.5 6.5zM214.6 189.3h-46.4c-4.1 0-7.4-2.9-7.4-6.5s3.3-6.5 7.4-6.5h46.4M214.6 60.8h-46.4c-4.1 0-7.4-2.9-7.4-6.5s3.3-6.5 7.4-6.5h46.4"/><path class="st7" d="M150.3 182.9c0 3.6-2.9 6.5-6.5 6.5H63.7c-3.6 0-6.5-2.9-6.5-6.5s2.9-6.5 6.5-6.5h80.1c3.6 0 6.5 2.9 6.5 6.5z"/><path class="st2" d="M214.6 215.2h-28.3c-4.4 0-7.9-2.9-7.9-6.5s3.5-6.5 7.9-6.5h28.3M56.9 234.6c0 3.6-2.9 6.5-6.5 6.5H11.1c-3.6 0-6.5-2.9-6.5-6.5s2.9-6.5 6.5-6.5h39.3c3.6 0 6.5 2.9 6.5 6.5zM210.4 6.5c0 3.6-2.9 6.5-6.5 6.5h-39.3c-3.6 0-6.5-2.9-6.5-6.5S161 0 164.6 0h39.3c3.6 0 6.5 2.9 6.5 6.5zM71.9 157c0 3.6-2.9 6.5-6.5 6.5H36.1c-3.6 0-6.5-2.9-6.5-6.5s2.9-6.5 6.5-6.5h29.3c3.6 0 6.5 2.9 6.5 6.5zM177.3 31c0 3.6-2.9 6.5-6.5 6.5h-29.3c-3.6 0-6.5-2.9-6.5-6.5s2.9-6.5 6.5-6.5h29.3c3.6 0 6.5 2.9 6.5 6.5z"/><path class="st8" d="M214.5 241h-39.7c-4.1 0-7.5-2.9-7.5-6.5s3.4-6.5 7.5-6.5h39.7"/><path class="st9" d="M156.7 234.5c0 3.6-2.9 6.5-6.5 6.5H71.5c-3.6 0-6.5-2.9-6.5-6.5s2.9-6.5 6.5-6.5h78.7c3.7 0 6.5 2.9 6.5 6.5z"/><path class="st2" d="M214.5 267H155c-4 0-7.2-2.9-7.2-6.5s3.2-6.5 7.2-6.5h59.5"/><path class="st10" d="M137.3 208.6c0 3.6-2.9 6.5-6.5 6.5h-6.5c-3.6 0-6.5-2.9-6.5-6.5s2.9-6.5 6.5-6.5h6.5c3.6 0 6.5 2.9 6.5 6.5z"/><path class="st11" d="M107.3 208.6c0 3.6-2.9 6.5-6.5 6.5H84.4c-3.6 0-6.5-2.9-6.5-6.5s2.9-6.5 6.5-6.5h16.5c3.5 0 6.4 2.9 6.4 6.5z"/><path class="st12" d="M148.4 105.2c-14.3 0-25.9-11.6-25.9-25.9"/><path class="st13" d="M130.3 182.9c0-14.3 11.6-25.9 25.9-25.9"/><path class="st14" d="M71.8 234.4c0-14.3 11.6-25.8 25.8-25.8"/><path class="st12" d="M122.5 79.4h53.7"/><path class="st15" d="M181.1 234.5h-56.3"/></svg>
