<svg width="57" height="56" viewBox="0 0 57 56" xmlns="http://www.w3.org/2000/svg"><title>Marketplace Trial</title><g stroke-width="2" fill="none" fill-rule="evenodd" stroke-linecap="round" stroke-linejoin="round"><g stroke="#2088FF"><path d="M44.5 32C50.851 32 56 37.149 56 43.5S50.851 55 44.5 55 33 49.851 33 43.5 38.149 32 44.5 32zM33.828 38.778L31 35.95 35.95 31l2.454 2.454M44 37v7M49 44h-5"/></g><g stroke="#79B8FF"><path d="M32.01 53H3.5A2.5 2.5 0 0 1 1 50.5v-47A2.5 2.5 0 0 1 3.5 1h38a2.5 2.5 0 0 1 2.449 1.994M44 21.116v6.972"/><path d="M28 48H6v-7h21.97M18 35h9"/></g><path d="M31 22.045V27a1 1 0 0 1-1 1H15a1 1 0 0 1-1-1v-4.922" stroke="#79B8FF"/><g stroke="#2088FF"><path d="M54.92 14.972L44 6H6M10.698 14.064c.828.709 1.595 1.354 2.302 1.936 1.569 1.333 2.902 2 4 2 1.722 0 3.191-.865 3.899-1.85.036-.05.169-.275.2-.325M23.725 17.246a4.298 4.298 0 0 0 5.43-2.267M32.313 17.246a4.299 4.299 0 0 0 5.43-2.267M40.9 17.246a4.298 4.298 0 0 0 5.43-2.267M49.486 17.246a4.298 4.298 0 0 0 5.43-2.267M29.155 14.98l-5.43-4.672M21.15 15.693l-6.06-5.385M37.742 14.98l-5.43-4.672M46.33 14.98l-5.43-4.672"/></g></g></svg>