<svg width="44" height="44" viewBox="0 0 44 44" fill="none" xmlns="http://www.w3.org/2000/svg">
<path d="M44 22C44 34.1503 34.1503 44 22 44C9.84974 44 0 34.1503 0 22C0 9.84974 9.84974 0 22 0C34.1503 0 44 9.84974 44 22Z" fill="#C297FF"/>
<path fill-rule="evenodd" clip-rule="evenodd" d="M16 15.75C16 14.7835 16.7835 14 17.75 14H26.25C27.2165 14 28 14.7835 28 15.75V20.75C28 21.7165 27.2165 22.5 26.25 22.5H17.75C16.7835 22.5 16 21.7165 16 20.75V15.75ZM17.75 15.5C17.6119 15.5 17.5 15.6119 17.5 15.75V20.75C17.5 20.8881 17.6119 21 17.75 21H26.25C26.3881 21 26.5 20.8881 26.5 20.75V15.75C26.5 15.6119 26.3881 15.5 26.25 15.5H17.75Z" fill="white"/>
<path fill-rule="evenodd" clip-rule="evenodd" d="M14 25.25C14 24.2835 14.7835 23.5 15.75 23.5H28.25C29.2165 23.5 30 24.2835 30 25.25V28.25C30 29.2165 29.2165 30 28.25 30H15.75C14.7835 30 14 29.2165 14 28.25V25.25ZM15.75 25C15.6119 25 15.5 25.1119 15.5 25.25V28.25C15.5 28.3881 15.6119 28.5 15.75 28.5H28.25C28.3881 28.5 28.5 28.3881 28.5 28.25V25.25C28.5 25.1119 28.3881 25 28.25 25H15.75Z" fill="white"/>
<path fill-rule="evenodd" clip-rule="evenodd" d="M17 26.75C17 26.3358 17.3358 26 17.75 26H18.25C18.6642 26 19 26.3358 19 26.75C19 27.1642 18.6642 27.5 18.25 27.5H17.75C17.3358 27.5 17 27.1642 17 26.75ZM21 26.75C21 26.3358 21.3358 26 21.75 26H26.25C26.6642 26 27 26.3358 27 26.75C27 27.1642 26.6642 27.5 26.25 27.5H21.75C21.3358 27.5 21 27.1642 21 26.75Z" fill="white"/>
</svg>
