<?xml version="1.0" encoding="utf-8"?>
<!-- Generator: Adobe Illustrator 24.3.0, SVG Export Plug-In . SVG Version: 6.00 Build 0)  -->
<svg version="1.1" id="Layer_1" xmlns="http://www.w3.org/2000/svg" xmlns:xlink="http://www.w3.org/1999/xlink" x="0px" y="0px"
	 viewBox="0 0 162.99 122.66" style="enable-background:new 0 0 162.99 122.66;" xml:space="preserve">
<style type="text/css">
	.st0{display:none;fill:#1A171B;}
	.st1{fill:none;stroke:#333333;stroke-width:3;stroke-miterlimit:10;}
	.st2{fill:#333333;}
	.st3{fill:url(#SVGID_1_);}
	.st4{fill:url(#SVGID_2_);}
	.st5{fill:#03ABE3;}
	.st6{fill:#FFFFFF;}
</style>
<path class="st0" d="M164.37,53.87c-0.25-0.38-0.55-0.7-0.87-0.99c1.71-11.4-1.45-31-4.62-38.83c1.13-1.01,1.91-2.41,2.1-4.02
	c0.2-1.7-0.27-3.38-1.33-4.73c-1.06-1.35-2.58-2.2-4.29-2.41c-1.7-0.2-3.38,0.27-4.73,1.33c-1.35,1.06-2.2,2.58-2.41,4.29
	c-0.2,1.7,0.27,3.38,1.33,4.73c1.06,1.35,2.58,2.2,4.29,2.41c0.26,0.03,0.51,0.05,0.77,0.05c0.44,0,0.88-0.06,1.3-0.14
	c2.9,7.33,5.73,25.29,4.44,35.93c-0.71-0.07-1.43,0.01-2.13,0.23c-0.59-4.96-2.01-8.29-4.42-10.35c-3.01-2.58-6.89-2.63-10.65-2.28
	C132.74,9.22,103.66,5.76,81.35,6.1c-22.31-0.33-51.38,3.12-61.8,32.98c-3.77-0.35-7.65-0.3-10.65,2.28
	c-2.78,2.38-4.25,6.44-4.64,12.77c-1.01,9.05-0.05,14.98,2.94,18.14c2.09,2.21,4.7,2.58,6.66,2.58c0.57,0,1.08-0.03,1.51-0.06
	c0.13-0.01,0.27-0.02,0.41-0.02c1.02,9.05,3.63,17.76,8.27,24.61c3.12,4.6,6.57,8.18,10.84,11.06c-0.44,0.96-0.78,1.95-1.02,2.98
	c-2.02-1.33-4.65-1.49-6.86-0.33c-0.03-0.89-0.18-1.77-0.48-2.63c-0.26-0.73-0.62-1.44-1.08-2.11c-2.74-3.94-8.1-4.96-12.1-2.39
	c-0.14-2.44-1.04-4.74-2.69-6.59c-1.58-1.77-3.64-2.96-5.96-3.43c-1.67-0.34-3.3,0.74-3.63,2.41c-0.34,1.67,0.74,3.3,2.41,3.63
	c1.01,0.2,1.9,0.72,2.59,1.49c0.84,0.94,1.26,2.16,1.19,3.42c-0.07,1.26-0.63,2.42-1.58,3.26c-1.95,1.73-4.94,1.56-6.68-0.39
	c-0.78-0.88-1.21-2.01-1.2-3.19c0.02-1.7-1.35-3.1-3.05-3.11c-1.7-0.02-3.1,1.35-3.11,3.05c-0.03,2.71,0.95,5.33,2.76,7.35
	c3.78,4.25,10.15,4.78,14.63,1.44c0.22,1.22,0.68,2.41,1.43,3.49c2.8,4.03,8.36,5.03,12.4,2.23l0.38-0.26
	c0.11-0.08,0.21-0.18,0.32-0.26c0.18,0.86,0.54,1.69,1.06,2.43c2.13,3.06,6.35,3.82,9.42,1.7c0.2-0.14,0.38-0.31,0.56-0.47
	c3.37,10.1,13.4,20.25,21.99,26.5c6.86,4.99,15.6,7.72,26,8.12l0.09,0l0.09,0c10.39-0.4,19.14-3.14,26-8.12
	c8.37-6.09,18.14-15.92,21.74-25.79c0.02,0.01,0.03,0.03,0.05,0.04c1.49,1.04,3.29,1.45,5.07,1.14c0.55-0.1,1.06-0.27,1.56-0.49
	c-0.09,0.8-0.1,1.62,0.04,2.46c0.37,2.13,1.51,3.93,3.05,5.23c-3.17,1.51-5.56,4.51-6.12,8.22c-0.4,2.69,0.21,5.41,1.72,7.67
	c0.95,1.41,2.87,1.8,4.29,0.85c1.42-0.95,1.8-2.86,0.85-4.28c-0.66-0.98-0.92-2.16-0.75-3.33c0.39-2.58,2.81-4.36,5.4-3.98
	c1.25,0.19,2.36,0.85,3.12,1.87c0.75,1.02,1.07,2.26,0.88,3.51c-0.15,1.02-0.62,1.94-1.36,2.66c-1.22,1.2-1.23,3.15-0.03,4.36
	c1.2,1.21,3.16,1.22,4.38,0.03c1.69-1.66,2.77-3.79,3.13-6.13c0.43-2.88-0.28-5.75-2.02-8.09c-0.14-0.18-0.28-0.36-0.42-0.53
	c-0.67-0.8-1.46-1.45-2.31-2.01c3.1-1.83,4.93-5.42,4.27-9.17c-0.14-0.8-0.38-1.56-0.72-2.27c-1.67-3.54-5.57-5.69-9.62-4.99
	l-0.46,0.08c-1.21,0.21-2.32,0.65-3.29,1.28c-0.01-0.26-0.01-0.51-0.05-0.77c-0.11-0.61-0.29-1.19-0.54-1.72
	c-1.27-2.69-4.23-4.32-7.31-3.79c-0.68,0.12-1.29,0.36-1.88,0.65c-0.36-1.48-0.91-2.9-1.69-4.25c3.42-2.63,6.32-5.8,8.97-9.71
	c4.64-6.85,7.25-15.56,8.27-24.61c0.14,0.01,0.28,0.01,0.41,0.02c0.43,0.03,0.94,0.06,1.51,0.06c1.96,0,4.57-0.37,6.66-2.58
	c1.98-2.09,3.05-5.43,3.27-10.05c1.37,0.28,2.84,0.06,4.09-0.77C165.36,59.76,166.04,56.38,164.37,53.87z"/>
<path class="st1" d="M151.33,13.6c4.17,11.34,6.48,31.16,4.42,40.25"/>
<path class="st2" d="M156.68,59.77c-0.97,0.79-2.2,1.14-3.46,1.01c-1.26-0.13-2.38-0.74-3.17-1.72c-0.27-0.33-0.48-0.69-0.65-1.07
	c-0.32-0.74-0.45-1.56-0.36-2.39c0.13-1.26,0.74-2.38,1.72-3.17l0,0c2.02-1.63,5-1.31,6.63,0.71
	C159.02,55.17,158.7,58.14,156.68,59.77z"/>
<path class="st2" d="M152.57,13.5c-0.97,0.78-2.19,1.14-3.45,1.01c-1.25-0.13-2.37-0.74-3.15-1.71c-0.26-0.33-0.48-0.69-0.65-1.07
	c-0.32-0.74-0.45-1.55-0.36-2.38c0.13-1.25,0.74-2.37,1.71-3.15l0,0c2.01-1.63,4.97-1.31,6.6,0.71
	C154.9,8.91,154.58,11.87,152.57,13.5z"/>
<radialGradient id="SVGID_1_" cx="137.2173" cy="58.2767" r="11.9462" fx="135.9844" fy="58.2875" gradientTransform="matrix(0.9939 -0.1099 0.315 2.8484 -17.528 -92.6359)" gradientUnits="userSpaceOnUse">
	<stop  offset="0" style="stop-color:#000000"/>
	<stop  offset="0.0381" style="stop-color:#040404"/>
	<stop  offset="0.3255" style="stop-color:#1E1E1E"/>
	<stop  offset="0.5845" style="stop-color:#2E2E2E"/>
	<stop  offset="0.7887" style="stop-color:#333333"/>
</radialGradient>
<path class="st3" d="M151.77,69.29c-1.36,1.44-3.3,1.45-4.87,1.46c-1.12,0.01-4.14,0.03-4.22,0.02c0.38-6.69-0.06-13.69-1.19-19.88
	c-0.02,0-0.03,0-0.05,0.01c-0.42-2.71-0.96-5.24-1.6-7.64c3.31-0.23,9.27,0.16,10.61,1.31c1.8,1.54,2.82,4.74,3.12,9.78l0.01,0.11
	C154.67,64,153.2,67.79,151.77,69.29z"/>
<radialGradient id="SVGID_2_" cx="268.384" cy="58.2767" r="11.9462" fx="267.1511" fy="58.2875" gradientTransform="matrix(-0.9939 -0.1099 -0.315 2.8484 310.552 -78.2165)" gradientUnits="userSpaceOnUse">
	<stop  offset="0" style="stop-color:#000000"/>
	<stop  offset="0.0381" style="stop-color:#040404"/>
	<stop  offset="0.3255" style="stop-color:#1E1E1E"/>
	<stop  offset="0.5845" style="stop-color:#2E2E2E"/>
	<stop  offset="0.7887" style="stop-color:#333333"/>
</radialGradient>
<path class="st4" d="M10.88,69.29c1.36,1.44,3.3,1.45,4.87,1.46c1.12,0.01,4.14,0.03,4.22,0.02c-0.38-6.69,0.06-13.69,1.19-19.88
	c0.02,0,0.03,0,0.05,0.01c0.42-2.71,0.96-5.24,1.6-7.64c-3.31-0.23-9.27,0.16-10.61,1.31c-1.8,1.54-2.82,4.74-3.12,9.78l-0.01,0.11
	C7.98,64,9.45,67.79,10.88,69.29z"/>
<path class="st5" d="M142.27,53.86l-0.01,0c-0.03-0.26-0.28-1.91-0.44-2.73l0.04,0C136,14.3,106.64,9.9,81.46,10.29l-0.03,0h-0.15
	l-0.03,0C56.07,9.9,26.71,14.3,20.85,51.13l0.04,0c-0.15,0.82-0.41,2.47-0.44,2.73l-0.01,0c-2.35,15.67-0.05,32.22,7.23,42.94
	c5.83,8.59,12.98,13.27,25.48,16.66c8.72,2.37,18.47,3.5,28.21,3.44c9.74,0.06,19.49-1.08,28.21-3.44
	c12.51-3.39,19.66-8.07,25.48-16.66C142.32,86.08,144.62,69.53,142.27,53.86z M74.5,74.66C71.23,83.5,60.47,91.05,50.51,91.5
	c-0.28,0.01-0.84,0.02-0.84,0.02c-13.86,0.13-18.13-12.55-17.77-26.36c0.16-8.16,2.44-24.36,9.96-33.27
	c6.66-8.31,22.11-11.66,29.72,1.2C76.31,40.78,79.62,61.63,74.5,74.66z M113.04,91.52c0,0-0.56-0.01-0.84-0.02
	c-9.96-0.45-20.72-8-23.99-16.83c-5.12-13.04-1.81-33.89,2.92-41.58c7.61-12.86,23.06-9.52,29.72-1.2
	c7.53,8.91,9.8,25.11,9.96,33.27C131.17,78.96,126.9,91.64,113.04,91.52z"/>
<path class="st6" d="M120.84,31.89c14.13,17.26,16.96,60.76-7.86,59.64c-0.18-0.01-0.37-0.01-0.56-0.02
	c-8.4-0.38-19.56-5.56-24.25-16.46c-5.41-12.56-2.23-34.36,3.76-43.49C97.85,22.03,113.05,22.36,120.84,31.89z"/>
<path class="st6" d="M41.87,31.89c-14.19,17.32-15.79,60.65,7.67,59.64c0.18-0.01,0.37-0.01,0.56-0.02
	c8.4-0.38,19.56-5.56,24.25-16.46c5.41-12.56,3.03-33.45-3.49-43.53C64.93,21.99,49.66,22.36,41.87,31.89z"/>
<path class="st2" d="M100.32,100.55l-37.07-1.02C64.93,102.67,83.03,120.24,100.32,100.55z"/>
<path class="st2" d="M105.78,43.94c-6.32,1.06-10.16,9.5-8.59,18.86c1.58,9.36,7.98,16.09,14.3,15.04
	c6.32-1.06,10.16-9.5,8.59-18.86C118.5,49.62,112.1,42.89,105.78,43.94z"/>
<path class="st2" d="M56.93,43.94c-6.32-1.06-12.72,5.68-14.3,15.04c-1.58,9.36,2.27,17.8,8.59,18.86
	c6.32,1.06,12.72-5.68,14.3-15.04C67.09,53.44,63.25,45,56.93,43.94z"/>
<path class="st0" d="M132.94,84.83c-1.26,0-2.28,1.02-2.28,2.28c0,1.26,1.02,2.28,2.28,2.28c1.26,0,2.28-1.02,2.28-2.28
	C135.22,85.85,134.2,84.83,132.94,84.83z"/>
<path class="st0" d="M29.77,84.83c-1.26,0-2.28,1.02-2.28,2.28c0,1.26,1.02,2.28,2.28,2.28c1.26,0,2.28-1.02,2.28-2.28
	C32.04,85.85,31.03,84.83,29.77,84.83z"/>
<path class="st0" d="M129.44,36.01c1.26,0,2.28-1.02,2.28-2.28c0-1.26-1.02-2.28-2.28-2.28c-1.26,0-2.28,1.02-2.28,2.28
	C127.16,34.99,128.18,36.01,129.44,36.01z"/>
<circle class="st0" cx="33.27" cy="33.73" r="2.28"/>
<path class="st0" d="M136.45,58.14c-1.26,0-2.28,1.02-2.28,2.28c0,1.26,1.02,2.28,2.28,2.28c1.26,0,2.28-1.02,2.28-2.28
	C138.72,59.16,137.7,58.14,136.45,58.14z"/>
<path class="st0" d="M28.54,60.42c0-1.26-1.02-2.28-2.28-2.28c-1.26,0-2.28,1.02-2.28,2.28c0,1.26,1.02,2.28,2.28,2.28
	C27.52,62.7,28.54,61.68,28.54,60.42z"/>
</svg>
