<svg width="40" height="40" viewBox="0 0 32 32" fill="none" xmlns="http://www.w3.org/2000/svg">
<rect width="32" height="32" rx="16" fill="#0969DA"/>
<g clip-path="url(#clip0_211_17093)">
<path fill-rule="evenodd" clip-rule="evenodd" d="M18.561 9.50005C18.5573 9.50019 18.5537 9.5016 18.551 9.50405L11.286 16.571C11.2503 16.6058 11.2258 16.6505 11.2157 16.6993C11.2056 16.7481 11.2103 16.7988 11.2292 16.8449C11.2481 16.8911 11.2804 16.9305 11.3218 16.9581C11.3633 16.9857 11.4121 17.0003 11.462 17L14.75 17.0001C14.873 17.0001 14.9942 17.0304 15.1027 17.0883C15.2113 17.1462 15.304 17.2299 15.3725 17.3321C15.4411 17.4343 15.4835 17.5517 15.4959 17.6741C15.5084 17.7966 15.4905 17.9202 15.444 18.0341L13.731 22.2221L20.713 15.4291C20.7486 15.3943 20.773 15.3497 20.7832 15.301C20.7933 15.2523 20.7887 15.2017 20.7699 15.1556C20.7511 15.1096 20.719 15.0701 20.6777 15.0424C20.6364 15.0147 20.5877 15 20.538 15.0001L17.25 15.0001C17.1245 15.0001 17.001 14.9686 16.8909 14.9085C16.7807 14.8485 16.6874 14.7617 16.6194 14.6563C16.5515 14.5508 16.5111 14.43 16.5019 14.3049C16.4927 14.1797 16.5151 14.0543 16.567 13.9401L18.575 9.52205L18.578 9.51605C18.5774 9.51276 18.576 9.50967 18.574 9.50705C18.5724 9.50464 18.5704 9.5026 18.568 9.50105L18.56 9.50005L18.561 9.50005ZM17.504 8.43005C17.7573 8.18417 18.0884 8.03439 18.4403 8.00655C18.7923 7.97872 19.1429 8.07457 19.4317 8.27758C19.7205 8.48059 19.9294 8.77802 20.0224 9.11857C20.1153 9.45913 20.0865 9.82145 19.941 10.1431L18.415 13.5001L20.538 13.5001C22.108 13.5001 22.884 15.4091 21.758 16.5041L14.418 23.646C14.1847 23.8729 13.8723 23.9999 13.547 24L13.245 24C13.0399 24 12.838 23.9496 12.657 23.8531C12.476 23.7566 12.3216 23.6171 12.2073 23.4469C12.0929 23.2766 12.0223 23.0809 12.0015 22.8769C11.9806 22.6729 12.0104 22.4669 12.088 22.2771L13.633 18.5L11.462 18.5C9.89195 18.5 9.11595 16.591 10.242 15.496L17.503 8.42905L17.504 8.43005Z" fill="white"/>
</g>
<defs>
<clipPath id="clip0_211_17093">
<rect width="16" height="16" fill="white" transform="translate(8 8)"/>
</clipPath>
</defs>
</svg>
