<svg height="32" viewBox="0 0 865 145" width="190.9" xmlns="http://www.w3.org/2000/svg"><g fill="#959da5"><path d="m46.1.7c1.5.2 3.5 1.4 4.6 2.6 1.6 1.8 44.3 101.2 44.3 103.2 0 .3-20 .5-44.5.5h-44.6l-2.6-2.6c-1.8-1.8-2.4-2-1.9-.8 1.3 3.4 19.8 36.9 21.3 38.6 5.2 5.8 13.6 2.6 46.3-17.7 14.5-9 26.7-16.1 27.1-15.7.3.4 3.9 8.7 7.9 18.4l7.4 17.8h20.3c11.2 0 20.3-.3 20.3-.6 0-2.4-59.5-141.2-61.2-142.7-1.8-1.5-4.4-1.7-24.7-1.6-12.4.1-21.4.4-20 .6z"/><path d="m41.9 3.4c-1.7.8-6.5 11.2-21.1 46-11.5 27.5-18.8 46.1-18.8 48.2 0 2.3.7 3.8 2.7 5.4 2.5 1.9 3.7 2 18.2 1.8l15.5-.3 13.4-31.7 13.5-31.7-7.3-17.3c-4-9.5-7.9-18-8.7-19-2-2.2-4.7-2.8-7.4-1.4zm424.8 19.7c-11.2 2.3-21.2 9-27.8 18.6-11.3 16.3-9 39.8 5.2 54.2 21.4 21.7 56.9 15.3 70.2-12.7 3-6.2 3.2-7.4 3.2-17.2-.1-12.4-2.2-19.1-8.9-27.3-9.9-12.2-27.1-18.6-41.9-15.6zm21.5 16.6c21.4 11.7 18.5 46.2-4.5 53.9-6.3 2.1-15.7 1.5-21.4-1.4-5.4-2.8-11.8-10.2-13.7-15.9-.9-2.6-1.6-7.6-1.6-11.2 0-13.6 8.5-24.8 21.5-28.2 5.3-1.4 14.3-.1 19.7 2.8zm231.3-16.7c-14.3 3.1-21.8 10.6-21.8 22.1 0 10.9 6.7 18 22.1 23.5 19.3 6.8 25 10.8 23.8 16.8-.8 3.9-4 7.3-8.4 8.7-7.8 2.6-22.1-1-31-7.7-1.8-1.4-3.5-2.4-3.7-2.3-.1.2-1.4 3.2-2.8 6.6l-2.5 6.3 2.8 2.4c7.5 6.3 20.7 10.1 32.5 9.3 18.1-1.1 28-10.3 27.9-25.8-.1-11.6-6.7-17.9-25.4-24.4-13.1-4.5-18.1-7.2-19.9-11-1.2-2.5-1.2-3.2 0-5.4 2.4-4.2 6.4-5.6 15.9-5.5 6 .1 10.3.8 14.8 2.4 3.5 1.2 6.4 2 6.6 1.9.1-.2 1.3-2.8 2.6-5.8 2.4-5.2 2.4-5.3.5-6.7-5.6-4.1-25.4-7.3-34-5.4zm-521.3 41.7c-10 23-18.2 42.1-18.2 42.5 0 .5 3.3.8 7.4.8h7.3l4.5-10.2 4.4-10.3 19.5-.3 19.5-.2 3.4 8.2c5.2 13.1 4.9 12.8 13 12.8 3.8 0 7.1-.3 7.3-.7.2-.5-7.8-19.5-17.8-42.3l-18.1-41.5-7-.3-7-.3zm38.4 9c-.2.2-6.4.2-13.8.1l-13.5-.3 4.9-11.5c2.7-6.3 5.8-13.5 6.9-16l2-4.5 6.9 16c3.8 8.7 6.8 16.1 6.6 16.2zm36.4-23.7c0 27.4.7 33.4 4.6 41 7.8 15.4 27.2 21.9 45.9 15.4 7-2.5 15.5-11.1 18.6-18.9 2.2-5.7 2.3-7.5 2.7-34.8l.4-28.7h-15.2v25.2c0 26.4-.7 32.2-4.2 37.4-4.1 5.9-8.3 7.9-16.8 7.9-6.6 0-8.2-.4-11.7-2.7-2.6-1.7-4.9-4.5-6.4-7.5-2.3-4.6-2.4-5.7-2.7-32.6l-.3-27.7h-14.9zm88-19v7h26v70h15v-69.9l11.1-.3 11.1-.3 2.8-6.8 2.9-6.7h-68.9zm172.2 34.7.3 41.8 15.5.3c8.5.1 18.7-.2 22.5-.8 14.4-2.2 26.8-11.1 32.8-23.7 3-6.4 3.2-7.5 3.2-17.8 0-10.4-.2-11.4-3.2-17.6-5.6-11.4-16.4-20.1-28.4-22.8-2.4-.6-13.1-1.1-23.7-1.1h-19.2zm44.8-25.3c4.9 2.5 9.8 7.4 12.3 12.1 1.8 3.2 2.2 5.7 2.2 13 0 10.1-1.7 14.5-7.7 20.5-5.7 5.7-10.8 7.3-24.5 7.8l-12.3.4v-56.4l13.3.4c10.3.3 14 .7 16.7 2.2zm45 25.6v42l29.8-.2 29.7-.3.3-6.7.3-6.8h-45.1v-22h29v-13h-29v-21h45v-14h-60zm150.2-.3.3 41.8h14l.5-20.8.5-20.8 9 9.3c4.9 5.1 14.1 14.6 20.4 21l11.4 11.8h8.4c4.5 0 8.3-.4 8.3-.8s-7.7-8.9-17.2-18.8c-9.4-9.8-18.5-19.3-20.1-21.1l-3-3.2 18.2-19.5c9.9-10.7 18.1-19.7 18.1-20s-3.9-.6-8.8-.6h-8.7l-18 19.5-18 19.5-.3-19.5-.2-19.5h-15zm83 31c-2.1.8-3.4 5.1-2.2 7.3 2.3 4.2 7.6 4.5 10.2.6 3-4.4-2.8-10-8-7.9zm6.3 2.3c1.5 1.7 1.6 2.4.7 4.6-1 2.1-1.8 2.5-4.5 2.2-2.7-.2-3.3-.8-3.5-3.1-.6-5.3 3.8-7.5 7.3-3.7z"/><path d="m857 102.1c0 2.7.2 3 1.5 1.9 1.2-1 1.5-1 1.5 0 0 .8.3 1.1.6.8.3-.4 0-1.6-.6-2.8-.8-1.5-.8-2-.1-1.6.6.4 1.1.2 1.1-.3 0-.6-.9-1.1-2-1.1-1.6 0-2 .7-2 3.1z"/></g></svg>