<svg fill="none" height="34" viewBox="0 0 31 34" width="31" xmlns="http://www.w3.org/2000/svg"><path d="m25.7993 4.41719c-2.8491-2.84841-6.6368-4.41719-10.6778-4.41719-8.32948.00556364-15.1107099 6.79084-15.11677934 15.1243l-.00472066 2.5607 1.9901-1.3564c1.35381-.9224 2.92175-1.41 4.53504-1.41.4815 0 .96773.044 1.44486.131 1.5042.274 2.8526.955 3.9444 1.9783.2502-.5513.5448-1.0871.8924-1.5979.1427-.2096.2934-.4112.4493-.608-1.3755-1.1616-3.0278-1.9434-4.83123-2.2718-.6287-.1143-1.26885-.1721-1.90294-.1721-1.31335 0-2.59282.2409-3.81176.7165.98695-6.04665 6.23886-10.54983 12.42223-10.55438 3.3515 0 6.5017 1.30476 8.871 3.67335 1.8901 1.88995 3.0993 4.25353 3.5164 6.86043-1.2193-.4762-2.504-.72-3.8251-.7253l-.1851-.0008c-.1354.0027-.2698.0056-.4015.0132-.2308.0118-.46.0327-.6871.059-.0678.0074-.1344.018-.2015.0273-.1627.0219-.3247.0465-.4851.0753-.0711.013-.1419.0274-.2124.0415-.1634.0332-.3254.0701-.4857.1106-.058.0148-.116.0287-.1735.0442-.2025.0548-.4031.1153-.6009.1816-.0118.004-.0241.0074-.0359.0113-.4491.1532-.8844.3371-1.3052.5487-.0115.0059-.0228.012-.0346.0179-.1969.0998-.3898.2065-.5798.3188-.0155.0093-.0314.0187-.047.0282-.9939.5958-1.8833 1.3599-2.6327 2.2726-.031.0376-.0618.0751-.0925.1132-.1625.2036-.3209.4118-.4694.6298-.1263.1855-.2434.3748-.3571.5662-.0258.0436-.0512.0878-.0763.1318-.1036.1802-.2025.3628-.2947.5476-.0053.0106-.0105.0206-.0157.0312-.2141.4325-.3959.877-.5475 1.3307 0 .0004-.0001.0005-.0001.001v.0005c-.3713 1.1128-.5513 2.2796-.5323 3.4603.0005.0469.0005.0937.0022.1408.0025.0917.0071.1837.0123.276.0041.0733.0088.1461.0142.219.0057.0777.012.1556.0199.2335.0092.0949.0205.1896.0325.2846.0074.0603.014.121.0229.181.0226.158.0479.3156.0778.4733.5122 2.7078 2.0376 5.0686 4.2956 6.648l.2888.1846.0024-.0057c1.2828.834 2.7541 1.3811 4.2771 1.5878l.2061.0278 1.5316-2.4579-.5507-.015c-4.2376-.1163-7.6849-3.6599-7.6849-7.8994 0-4.1727 3.261-7.6378 7.4224-7.8889l.2634-.0101c1.6869-.0426 3.3491.4556 4.7601 1.4162l1.981 1.3483.0042-2.5475c.0032-4.0394-1.5668-7.8358-4.4207-10.68961z" fill="#e0225c"/></svg>