<svg fill="none" height="32" viewBox="0 0 140 32" width="140" xmlns="http://www.w3.org/2000/svg"><g fill="#959da5"><path d="m35.533 7.23271c-.1512-.39313-.6048-.57458-.9677-.42337-.2721.12096-.4536.39313-.4536.66529 0 .09073 0 .18145.0605.24193.6956 1.8447 1.0887 3.84064 1.0887 5.95744 0 8.5582-6.3808 15.6648-14.6669 16.7232v-7.8928c.5141-.0908.998-.242 1.4819-.3932v6.6228c6.7437-1.633 11.7939-7.7417 11.7939-15.06 0-5.83647-3.2358-10.94719-8.0138-13.578143-.3629-.211686-.8165-.0604818-.998.33265-.0605.090722-.0605.211686-.0605.33265 0 .272163.1512.514093.3629.635063 4.3245 2.38903 7.2578 7.01588 7.2578 12.30808 0 5.9574-3.6894 11.0379-8.921 13.0943v-5.8668c.9072-.2721 1.5725-1.1189 1.5725-2.1471 0-.8467-.4234-1.5423-1.1189-1.9354.5141-5.0805 2.8426-3.7196 2.8426-5.3526v-.9375c0-2.41926-5.5945-10.312139-8.2255-10.4935839-.0907 0-.1512 0-.2419 0s-.1512 0-.2419 0c-2.631.1814449-8.22557 8.0743239-8.22557 10.4935839v.9375c0 1.6027 2.29827.2721 2.84267 5.3526-.6653.3931-1.0887 1.1189-1.0887 1.9354 0 .998.6653 1.8447 1.5725 2.1471v5.8668c-5.2014-2.0564-8.92103-7.1369-8.92103-13.0943 0-5.2922 2.93336-9.91905 7.25783-12.30808.3326-.18145.4838-.604822.3024-.967713-.0907-.272168-.3629-.42337272-.6351-.42337272-.1209 0-.2419.03024092-.3629.09072272-4.77802 2.630953-8.0138 7.741673-8.0138 13.578143 0 7.3183 5.05023 13.427 11.8544 15.0902v-6.6227c.4839.1512.9677.3024 1.4818.3931v7.8929c-8.28597-1.0887-14.6668-8.1651-14.6668-16.7535 0-2.0866.39314-4.0825 1.08868-5.95744.1512-.36289-.03025-.78626-.39314-.93747-.09072-.03024-.18144-.06048-.27216-.06048-.30241 0-.57458.18145-.69554.48386-.786267 2.02614-1.20964 4.20353-1.20964 6.47153 0 9.8888 7.80215 17.9329 17.6002 18.326v-9.284c.2722.0303.756.0303.756.0303s.4839 0 .756-.0303v9.284c9.7981-.3931 17.6002-8.4372 17.6002-18.326-.0302-2.268-.4233-4.44539-1.1794-6.44129zm-13.7898 10.46339c.2722-.2722.6351-.4537 1.0584-.4537.4234 0 .7863.1815 1.0585.4537.2721.2721.4536.635.4536 1.0584s-.1815.7863-.4536 1.0584c-.2722.2722-.6351.4536-1.0585.4536-.4233 0-.7862-.1814-1.0584-.4536-.2722-.2721-.4536-.635-.4536-1.0584s.1814-.7863.4536-1.0584zm-6.774 2.1168c-.2721.2722-.635.4536-1.0584.4536s-.7863-.1814-1.0584-.4536c-.3024-.2721-.4536-.635-.4536-1.0584s.1814-.7863.4536-1.0584c.2721-.2722.635-.4537 1.0584-.4537s.7863.1815 1.0584.4537c.2722.2721.4537.635.4537 1.0584-.0303.4234-.1815.7863-.4537 1.0584z"/><path d="m53.4952 15.6999c-.3024-.4536-.6653-.8769-1.0887-1.2096-.756-.6048-1.6935-.9677-2.8426-.9677-2.3891 0-4.8083 1.8144-4.8083 5.02 0 3.3567 2.4495 5.1107 4.8083 5.1107 1.1794 0 2.1773-.3327 2.9333-.9072.7863-.5746 1.3004-1.3609 1.5121-2.2379h-5.5341v-2.389h8.9815c.0303.9677-.0907 2.4798-.6653 3.7196-1.391 3.0846-4.5663 4.4454-7.2275 4.4454-4.4152 0-7.8022-3.4172-7.8022-7.7114 0-4.4151 3.508-7.6509 7.8324-7.6509 3.3567 0 6.2901 2.1168 7.2578 4.8083h-3.3567z"/><path d="m59.5742 11.1641h2.631v2.3285h-2.631zm0 3.8103h2.631v10.9775h-2.631z"/><path d="m65.6836 17.0006h-1.8145v-2.0262h1.8145v-3.8103h2.631v3.8103h1.8749v2.0262h-1.8749v8.9513h-2.631z"/><path d="m72.3652 11.1641h2.9939v6.8646l4.899-6.8646h3.1451l-5.3829 7.3787 5.897 7.4393h-3.629l-4.9292-6.653v6.653h-2.9939z"/><path d="m85.3398 14.9743h2.4798v1.4515c.4838-.9677 1.3911-1.754 3.0543-1.7842v2.631h-.1209c-1.8447 0-2.7822.8467-2.7822 2.7519v5.9272h-2.631z"/><path d="m103.333 25.9517h-2.631v-1.5725c-.696 1.2701-2.1472 1.9354-3.6895 1.9354-3.5079 0-5.5945-2.7519-5.5945-5.8365 0-3.4475 2.51-5.8365 5.5945-5.8365 1.9959 0 3.2355 1.0584 3.6895 1.9354v-1.6027h2.631zm-9.2841-5.4434c0 1.3609.9677 3.3568 3.3568 3.3568 1.4515 0 2.4192-.756 2.9333-1.754.272-.4839.393-.9979.423-1.5423.031-.5141-.09-1.0584-.302-1.5423-.454-1.0282-1.4818-1.9354-3.0543-1.9354-2.1471 0-3.3568 1.6935-3.3568 3.4172z"/><path d="m106.205 11.1641h2.631v8.0138l3.78-4.1732h3.145l-4.566 4.8385 4.596 6.1389h-2.993l-3.932-5.4736v5.4736h-2.631v-14.818z"/><path d="m120.267 23.3508c1.361 1.1189 3.145.6653 4.174-.4536.877-.9375 1.058-1.9657.725-2.9334l1.845-1.9656c.544 1.2096.665 2.4192.484 3.5079-.182 1.1189-.665 2.1169-1.452 2.9334-2.328 2.4495-5.987 2.3285-8.195.2419-2.268-2.1471-2.57-5.8062-.302-8.2255 1.119-1.1794 2.57-1.8145 4.052-1.8145 1.935-.0302 3.508.7863 4.778 2.2681zm2.873-5.9272c-.816-.6351-2.631-.8467-3.961.5746-1.331 1.4213-1.059 3.145-.333 3.9615z"/><path d="m129.703 14.9742h2.45c0 .4839 0 .9375-.031 1.4516.484-.8468 1.452-1.8145 3.418-1.8145 3.568.0303 4.264 2.752 4.264 4.7176v6.6228h-2.631v-5.9575c0-1.633-.545-2.9031-2.389-2.9031-1.875.0302-2.51 1.2701-2.51 2.8124v6.0784h-2.631v-11.0077z"/><path d="m60.5732 6.56784c.0303.12096.0605.24193.121.33265s.1512.18144.2419.24193c.0907.06048.2117.09072.3629.09072s.2722-.03024.3629-.09072c.0907-.06049.1814-.12097.2419-.24193.0605-.09072.0907-.21169.121-.33265.0302-.12096.0302-.24193.0302-.36289 0-.12097 0-.24193-.0302-.36289-.0303-.12097-.0605-.24193-.121-.33265s-.1512-.18145-.2419-.24193-.2117-.09072-.3629-.09072-.2722.03024-.3629.09072-.1814.15121-.2419.24193-.0907.21168-.121.33265c-.0302.12096-.0302.24192-.0302.36289 0 .12096 0 .24193.0302.36289z"/><path d="m53.7373 6.62839c.0302.12096.0605.24192.1209.33265.0605.09072.1512.18144.242.24192.0907.06048.2116.09073.3629.09073.1512 0 .2721-.03025.3628-.09073.0908-.06048.1815-.12096.242-.24192.0605-.09073.0907-.21169.1209-.33265.0303-.12097.0303-.24193.0303-.36289 0-.12097 0-.24193-.0303-.3629-.0302-.12096-.0604-.24192-.1209-.33265-.0605-.09072-.1512-.18144-.242-.24192-.0907-.06048-.2116-.09073-.3628-.09073-.1513 0-.2722.03025-.3629.09073-.0908.06048-.1815.12096-.242.24192-.0604.09073-.0907.21169-.1209.33265-.0303.12097-.0303.24193-.0303.3629 0 .12096 0 .24192.0303.36289z"/><path d="m48.2654 6.29486c-.0605.03024-.121.03024-.1814.06048-.0605 0-.121.03024-.2117.03024-.0605 0-.1512.03024-.2117.03024s-.121.03024-.1815.06048c-.0604.03024-.1209.06048-.1814.09072-.0605.03025-.0907.09073-.121.12097-.0302.06048-.0302.12096-.0302.21168 0 .09073 0 .15121.0302.21169.0303.06048.0605.09072.121.12096.0605.03025.121.06049.1814.06049.0605 0 .121.03024.2117.03024.1815 0 .3024-.03024.3932-.09073.0907-.06048.1512-.12096.2116-.21168.0303-.09072.0605-.15121.0908-.24193 0-.09072.0302-.1512.0302-.21169v-.33264c-.0605.03024-.121.06048-.1512.06048z"/><path d="m45.1191 2.66602-1.875 6.01793h25.0697l1.875-5.98769h-25.0697zm3.3567 5.14095c-.0302-.06048-.0302-.09073-.0302-.15121s-.0303-.09072-.0303-.1512c-.1512.1512-.3024.24193-.4838.30241-.1815.06048-.3932.09072-.5746.09072-.1512 0-.3024-.03024-.4234-.06048-.1209-.03024-.2419-.09072-.3326-.18145-.0907-.09072-.1815-.18144-.2419-.30241-.0605-.12096-.0908-.27216-.0908-.42337 0-.18144.0303-.33265.0908-.45361.0604-.12097.1512-.21169.2419-.27217s.2117-.12096.3326-.1512c.121-.03025.2722-.06049.3932-.09073.1209-.03024.2721-.03024.3931-.06048.121 0 .2419-.03024.3326-.06048.0908-.03024.1815-.06048.242-.12096.0605-.06049.0907-.12097.0907-.21169s-.0302-.18145-.0605-.21169c-.0302-.06048-.0605-.09072-.121-.12096-.0604-.03024-.1209-.06048-.1814-.06048s-.1512-.03024-.2117-.03024c-.1814 0-.3024.03024-.3931.12096-.0907.06048-.1512.21169-.1815.36289h-.8769c0-.21169.0604-.36289.1512-.51409.0907-.15121.2116-.24193.3326-.33265.1512-.09073.3024-.15121.4839-.18145.1814-.03024.3629-.06048.5141-.06048s.3326 0 .4838.03024.3024.06048.4536.12096c.121.06049.2419.15121.3327.27217.0907.12097.1209.27217.1209.45362v1.66324c0 .15121 0 .27217.0303.42338.0302.12096.0302.24192.0907.30241h-.877zm3.4777 0-.6653-1.02819c-.2117.33265-.4536.6653-.6653 1.02819v.03024h-.9979c.3326-.60482.6955-1.1794 1.1491-1.69349l-1.0584-1.48181h.9979l.6049.87699c.6653-.6653 1.391-1.20964 2.2378-1.66325-.6351.72578-1.2399 1.45156-1.8145 2.23783l1.2097 1.72373h-.998zm4.0221-.87699c-.0908.21169-.1815.36289-.3327.5141-.1512.1512-.3024.24192-.5141.33265-.2117.09072-.4234.12096-.6653.12096s-.4838-.03024-.6653-.12096c-.2117-.09073-.3629-.18145-.5141-.33265-.1512-.15121-.2419-.33265-.3326-.5141-.0908-.21168-.121-.42337-.121-.69554 0-.24193.0302-.48385.121-.69554.0907-.21169.1814-.39313.3326-.51409.1512-.15121.3024-.24193.5141-.33265.2117-.09073.4234-.12097.6653-.12097s.4839.03024.6653.12097c.1815.09072.3629.18144.5141.33265.1512.1512.2419.33264.3327.51409.0907.21169.1209.42337.1209.69554s-.0302.48386-.1209.69554zm3.2962.36289c-.0907.15121-.1814.24193-.3326.33265-.121.09073-.3024.15121-.4537.18145-.1814.03024-.3628.06048-.5443.06048-.1814 0-.3629-.03024-.5443-.06048-.1815-.03024-.3327-.09072-.4839-.18145-.1512-.09072-.2419-.21168-.3326-.33265-.0907-.1512-.1512-.33265-.1512-.54433h.8467c0 .09072.0303.18144.0605.24192.0302.06049.0907.12097.1512.18145.0605.03024.121.06048.2117.09072s.1512.03024.2419.03024c.0605 0 .121 0 .1815-.03024.0604 0 .1209-.03024.1814-.06048s.0907-.06048.1512-.12096c.0303-.06049.0605-.12097.0605-.18145 0-.12096-.0907-.24193-.2722-.30241-.1814-.06048-.4233-.12096-.7258-.21168-.1209-.03025-.2419-.06049-.3628-.09073-.121-.03024-.242-.09072-.3327-.1512s-.1814-.15121-.2419-.24193-.0907-.21169-.0907-.36289c0-.21169.0302-.36289.1209-.51409.0907-.12097.1815-.24193.3327-.30241.1209-.09073.2721-.12097.4536-.15121.1512-.03024.3326-.06048.5141-.06048.1814 0 .3326.03024.5141.06048.1512.03024.3024.09072.4233.18145.121.09072.242.18144.3327.30241.0907.12096.121.3024.1512.48385h-.8468c0-.18145-.0907-.27217-.1814-.33265-.121-.06048-.2419-.09072-.3931-.09072-.0605 0-.0907 0-.1512 0s-.121.03024-.1512.03024c-.0605.03024-.0908.06048-.121.09072s-.0605.09072-.0605.15121c0 .09072.0303.1512.0907.18144.0605.06048.121.09072.2117.12096.0907.03025.2117.06049.3327.09073.1209.03024.2419.06048.3629.09072.1209.03024.2419.06048.3629.09072.1209.03024.2419.09073.3326.15121s.1815.1512.2419.24192c.0605.09073.0908.21169.0908.3629-.0605.27216-.121.42337-.1815.57457zm3.5684-.39313c-.0907.21169-.1814.39313-.3326.5141-.1512.1512-.3327.27216-.5141.33265-.2117.09072-.4234.12096-.6955.12096-.242 0-.4839-.03024-.6653-.12096-.2117-.09073-.3629-.18145-.5141-.33265-.1512-.15121-.242-.33265-.3327-.5141-.0907-.21169-.121-.42337-.121-.69554 0-.24193.0303-.48385.121-.69554s.1815-.39313.3327-.54434c.1512-.1512.3024-.27216.5141-.33265.2116-.09072.4233-.12096.6653-.12096.2419 0 .4838.03024.6955.12096.2117.09073.3931.18145.5141.33265.1512.15121.2419.33265.3326.54434.0908.21169.121.45361.121.69554s-.0302.48385-.121.69554zm4.2035-1.72373h-.635v1.57253c0 .1512.0302.24192.0604.3024.0605.06049.1513.06049.3025.06049h.1512c.0604 0 .0907 0 .1209-.03024v.6653c-.0605 0-.1512.03024-.2419.03024s-.1814 0-.2722 0c-.1209 0-.2721 0-.3931-.03024-.121-.03025-.2419-.06049-.3327-.12097-.0907-.06048-.1512-.12096-.2116-.24193-.0605-.09072-.0908-.24192-.0908-.39313v-1.87493h-1.0584v2.60072h-.877v-2.60072h-.5141v-.57458h.5141v-.24193c0-.27216.0907-.51409.2722-.69554.1814-.18144.4536-.27216.8165-.27216h.2419c.0907 0 .1512 0 .2419.03024v.6653c-.0907 0-.2116-.03025-.3326-.03025s-.2117.03025-.2419.09073c-.0605.06048-.0908.1512-.0908.27217v.18144h1.0585v-.90723h.877v.96771h.635z"/></g></svg>