<svg fill="none" height="32" viewBox="0 0 34 32" width="34" xmlns="http://www.w3.org/2000/svg"><path d="m1.02559 19.54c.04948 0 .09894 0 .09894-.0494 0-.0495.09894-.0495.19788-.0495.19788-.0494.39576-.0494.59364-.0494.09894 0 .19789 0 .29683-.0495h.04946c.54417-.0494 1.13781-.1483 1.68198-.2966.14841-.0495.29682-.1978.34629-.3461-.04947 0 0 0 0 0l.39576-.0989c-.19788-1.4339-.09894-2.9173.19788-4.3511.34629-1.4339.93993-2.8184 1.73145-4.0545l-.29683-.29665v-.04944c0-.14833-.04946-.34611-.1484-.445-.44523-.39556-.89046-.69222-1.38516-.98889-.09894-.04944-.19788-.09889-.29682-.14833-.19788-.09889-.34629-.19778-.54417-.29667-.04947-.04944-.09894-.04944-.14841-.09889-.04947-.04944 0-.04944 0-.09889-.44523-.34611-.54417-.93944-.19788-1.38444.14841-.19778.44523-.34611.69258-.34611s.4947.09889.69258.24722l.04947.04945c.04947.04944.09894.09889.14841.09889.14841.14833.29682.29666.39576.445.04947.09888.14841.14833.19788.19777.34629.39556.79152.79111 1.23674 1.08778.09894.04944.19789.09889.29683.09889.04946 0 .1484 0 .19787-.04945h.04947l.39576.24723c.39576-.39556.84099-.79111 1.23675-1.18667 1.83037-1.43389 4.10597-2.32389 6.43107-2.57111l.0495-.39555v.04944c.1484-.09889.1979-.24722.2473-.39555 0-.54389 0-1.08778-.0989-1.68111v-.04945c0-.09889-.0495-.19778-.0495-.29666-.0494-.19778-.0494-.39556-.0989-.59334v-.29666c-.0495-.494448.3463-.988892.841-1.03833636.2968-.04944444.5936.09888836.841.34611036.1978.197778.2968.445.2968.692226v.24722c0 .19778-.0495.39555-.099.59333-.0494.09889-.0494.19778-.0494.29667v.04944c-.099.54389-.099 1.08778-.099 1.68111.0495.14833.099.29667.2474.39556v.09889l.0495.39555c.5441.04944 1.0883.14833 1.6819.24722 2.3251.49445 4.4523 1.73056 6.0848 3.46111l.2968-.19778h.0495c.0495 0 .099.04945.1979.04945s.1979-.04945.2968-.09889c.4452-.34611.8905-.74167 1.2368-1.13722.0494-.09889.1484-.14834.1978-.19778.1485-.14833.2474-.29667.3958-.445.0495-.04944.0989-.04944.1484-.09889.0495-.04944.0495-.04944.0495-.04944.1979-.14834.4452-.24723.6926-.24723.2968 0 .5441.09889.6925.34612.2969.445.1979 1.03833-.1978 1.38444-.0495 0-.0495.04944-.0495.04944s-.0989.09889-.1484.09889c-.1484.09889-.3463.19778-.5442.29667-.0989.04944-.1979.09889-.2968.14833-.4947.29667-.9894.59333-1.3852.98889-.0989.09889-.1978.29667-.1484.445v-.04945l-.2968.29664c.0495.0989.0989.1484.1484.2473 1.5336 2.4227 2.1767 5.2905 1.7315 8.1088l.3957.0989c0 .0495.0495.0495.0495.0495.0495.1483.1979.2472.3463.3461.5441.1483 1.0883.2472 1.682.2966.0989 0 .1978 0 .2968.0495.1979 0 .3957.0494.5936.0494.0495 0 .099.0495.1979.0495.0495 0 .0495 0 .0989.0494.5442.0989.8905.5934.7916 1.1372-.099.445-.5442.7417-.9894.6923-.099 0-.1485 0-.2474-.0495-.0495 0-.0495 0-.0495-.0494 0-.0495-.1484 0-.1978 0-.1979-.0495-.3958-.1484-.5442-.1978-.099-.0494-.1979-.0989-.2968-.0989h-.0495c-.5442-.1978-1.0389-.3461-1.6325-.445h-.0495c-.1484 0-.2968.0495-.3957.1483-.0495 0-.0495.0495-.0495.0495l-.4452-.0495c-.7421 2.2745-2.1272 4.3017-4.0566 5.785-.4452.3461-.841.6428-1.3357.89l.2474.3461c0 .0495-.0495.0495-.0495.0495-.0989.1483-.0989.3461-.0494.4944.1978.4945.4947.9889.7915 1.4339v.0495c.0494.0989.0989.1483.1979.2472.0989.0989.1978.2967.3462.4944.0495.0495.0495.0989.099.1484 0 0 0 .0494.0495.0494.2473.4945.0494 1.0878-.3958 1.335-.0989.0495-.2474.0989-.3463.0989-.3958 0-.742-.2472-.9399-.5933 0 0 0-.0495-.0495-.0495 0-.0494-.0495-.0989-.0989-.1483-.0495-.1978-.1484-.3461-.1979-.5439l-.099-.2967c-.1484-.5439-.3957-1.0383-.6431-1.5327-.0989-.1484-.2473-.2473-.3957-.2967-.0495 0-.0495 0-.0495-.0495l-.1979-.3955c-1.3851.5439-2.8198.7911-4.3039.7911-.8904 0-1.7809-.0989-2.6713-.3461-.5442-.0989-1.0884-.2967-1.5831-.445l-.1978.3461c-.0495 0-.0495 0-.0495.0494-.1484.0495-.2968.1484-.3958.2967-.2473.4945-.4947.9889-.6431 1.5328v.0494l-.0989.2967c-.0495.1978-.099.3956-.1979.5439-.0495.0494-.0495.0989-.0989.1483 0 0 0 .0495-.0495.0495-.1979.3461-.5442.5933-.93994.5933-.14841 0-.24735-.0494-.39576-.0989-.19788-.0989-.39576-.2967-.44523-.5439s-.04947-.4944.04947-.7416c0-.0495.04947-.0495.04947-.0495 0-.0494.04947-.0989.09894-.1483.09894-.1978.19788-.3461.34629-.4945.04947-.0989.09894-.1483.19788-.2472v-.0989c.34629-.445.59368-.9394.79148-1.4339.0495-.1483.0495-.3461-.0494-.4944 0-.0495-.0495-.0495-.0495-.0495l.1484-.3955c-2.52296-1.5328-4.45228-3.9061-5.34274-6.7244l-.39576.0494c-.04947 0-.04947-.0494-.04947-.0494-.09894-.0989-.24735-.1484-.39576-.1484h-.04947c-.54417.0989-1.08834.2472-1.58304.445h-.04947c-.09893.0495-.19787.0989-.29681.0989-.19788.0989-.3463.1978-.54418.2472-.04947 0-.09893.0495-.19787.0495-.04947 0-.04948 0-.09894.0494-.09894.0495-.14842.0495-.24736.0495-.445224 0-.840984-.2967-.989394-.6923.049469-.5438.445228-.9394.890454-1.0383zm14.29681-1.5328 1.3357.6428 1.3357-.6428.3463-1.4339-.94-1.1866h-1.4841l-.9399 1.1866zm-8.0636-3.2139c-.24735 1.0384-.29681 2.0767-.19787 3.115l4.69967-1.335c.4452-.0988.6925-.5438.5936-.9888-.0495-.1484-.0989-.2473-.1979-.3462l-3.71022-3.3622c-.54417.89-.93993 1.8789-1.18728 2.9172zm2.67138-4.7466 4.05652 2.8678c.3463.1977.841.1483 1.0883-.1978.099-.0989.1485-.1978.1485-.3461l.2968-4.99391c-2.1767.24722-4.106 1.18666-5.59012 2.67001zm8.95402-2.52168-.9894-.19778.2474 4.94446c0 .445.3957.7911.841.7911.1484 0 .2473-.0494.3957-.0989l4.106-2.9172c-1.2862-1.23612-2.8692-2.12612-4.6007-2.52168zm6.0354 4.35108-3.6608 3.2634c-.3463.2966-.3958.7911-.099 1.1372.099.1483.1979.1978.3958.2472l4.7986 1.3844c.1484-2.0766-.3463-4.2027-1.4346-6.0322zm.8409 8.3561-4.8975-.8405c-.3957 0-.7915.2472-.841.6428-.0494.1483-.0494.3461.0495.4944l1.8799 4.5489c1.7314-1.1372 3.1166-2.8678 3.8091-4.8456zm-11.2296 6.1311c.6926.1484 1.3851.2473 2.1272.2473 1.0389 0 2.1272-.1978 3.1166-.4945l-2.424-4.4005c-.2474-.2967-.6431-.3956-.9894-.1978-.1484.0989-.2474.1978-.3958.3461l-2.3745 4.3017c.2968.0494.5936.0989.9399.1977zm-6.03535-4.3016c.74205 1.1866 1.78095 2.225 2.96815 2.9666l1.9294-4.6477c.0989-.3956-.099-.7911-.4453-.9395-.1484-.0494-.2968-.0989-.4452-.0989l-4.94698.8406c.24735.6922.54417 1.335.93993 1.8789z" fill="#fff"/></svg>