<svg fill="none" height="17" viewBox="0 0 148 17" width="148" xmlns="http://www.w3.org/2000/svg"><g fill="#0d1117"><path d="m6.70612 16.2336c-1.50472 0-2.75624-.2605-3.75456-.7813-.99832-.5209-1.74345-1.2515-2.235373-2.192-.477458-.9404-.716187-2.04-.716187-3.29879v-9.766186h3.36391v9.592566c0 .70891.13022 1.32391.39065 1.84471.26043.5064.64384.9043 1.15024 1.1937.50639.2749 1.11407.4123 1.82302.4123.68002 0 1.26599-.1302 1.75791-.3906.5064-.2749.89705-.6656 1.17195-1.172.2749-.5208.41232-1.1502.41232-1.88811v-9.592566h3.3639v9.766186c0 1.31659-.2821 2.44519-.8464 3.38559-.5498.926-1.3311 1.6422-2.3439 2.1486-.99827.4919-2.17745.7379-3.53748.7379z"/><path d="m16.1098 16.0166v-15.821276h4.5793l5.8814 10.070076.3472.6293h.1085v-10.699376h3.4074v15.821276h-4.2755l-6.1852-10.20029-.3473-.58597h-.1085v10.78626z"/><path d="m33.4539 16.0166v-15.821276h3.4074v15.821276z"/><path d="m43.7649 16.0166-4.8831-15.821276h3.5809l3.1686 11.437276.2822 1.3239h.1736l.2821-1.3239 3.1903-11.437276h3.581l-4.8831 15.821276z"/><path d="m55.1242 16.0166v-15.821276h12.3271v2.929856h-8.833v3.49413h7.6828v2.73453h-7.6828v3.73286h8.833v2.9299z"/><path d="m69.5158 16.0166v-15.821276h7.8563c1.2733 0 2.3222.209792 3.1469.629376.8392.40512 1.4686.98385 1.8881 1.73621.4196.75236.6294 1.6494.6294 2.69113 0 .86811-.1736 1.64217-.5208 2.32218-.3473.66555-.8464 1.20088-1.4975 1.606-.6366.40512-1.4035.65831-2.3005.75959l.217-.54256 4.2754 6.61935h-4.1235l-3.4941-5.621h-2.8864v-2.60435h3.9932c.5788 0 1.0635-.07958 1.4541-.23873.3907-.15915.68-.38341.8681-.67278.2026-.30384.3039-.65832.3039-1.06343v-.69449c0-.43405-.1085-.79576-.3256-1.08513-.217-.30384-.5208-.5281-.9115-.67278-.3906-.14468-.8536-.21703-1.389-.21703h-4.2537l.5643-.60767v13.47739z"/><path d="m91.3875 16.2336c-1.5192 0-2.7852-.217-3.798-.6511s-1.7796-1.0345-2.3005-1.8013c-.5064-.7813-.7596-1.6784-.7596-2.6911h3.581c.0289.5642.1808 1.0344.4557 1.4106.2894.3617.68.6294 1.172.803.4919.1736 1.0779.2605 1.7579.2605s1.2443-.0724 1.6928-.2171c.4485-.1591.7813-.3906.9983-.6945.2315-.3038.3472-.6655.3472-1.0851 0-.3906-.094-.7017-.2821-.9332-.1736-.246-.434-.4413-.7813-.586-.3472-.15913-.7668-.28211-1.2587-.36892-.4775-.10128-1.0273-.20256-1.6494-.30384-.8826-.13021-1.6784-.31107-2.3873-.54256-.6945-.2315-1.2877-.52087-1.7796-.86811-.492-.36171-.8682-.79576-1.1286-1.30216-.246-.52086-.3689-1.143-.3689-1.86643 0-1.05619.2676-1.93877.803-2.64772.5498-.72342 1.3094-1.258751 2.2787-1.605994.9839-.361711 2.1197-.542566 3.4074-.542566 1.3889 0 2.5681.18809 3.5375.564269s1.7145.918741 2.2354 1.627701c.5208.69448.7885 1.53365.803 2.5175h-3.6027c0-.44852-.123-.8247-.3689-1.12853-.246-.31831-.586-.55704-1.02-.71619-.4341-.17362-.9622-.26043-1.5843-.26043-.5788 0-1.0707.07234-1.4758.21702-.4051.14469-.7162.34725-.9332.60768-.2026.26043-.3039.57874-.3039.95491 0 .34725.0796.63662.2388.86811.1736.21703.4195.39065.7378.52086.3183.13022.7162.24597 1.1937.34725.4775.08681 1.0272.18085 1.6494.28213.6366.08681 1.2443.20256 1.823.34724.5932.14469 1.1358.33278 1.6277.56427.4919.2315.9115.5281 1.2588.88981.3617.34724.6366.77406.8247 1.28046.2025.50639.3038 1.10684.3038 1.80134 0 1.0706-.2821 1.9749-.8464 2.7128-.5498.7379-1.3383 1.2949-2.3656 1.6711-1.0272.3762-2.2715.5643-3.7328.5643z"/><path d="m100.37 16.0166v-15.821276h12.327v2.929856h-8.833v3.49413h7.683v2.73453h-7.683v3.73286h8.833v2.9299z"/></g><path d="m114.688.777871c0-.317321.257-.574609.574-.574609h4.024c0 2.539718-2.059 4.598018-4.598 4.598018z" fill="#57606a"/><path d="m119.948 16.0204v-.5642c0-.8392.166-1.5771.499-2.2137.347-.6366.796-1.2009 1.346-1.6928.564-.4919 1.186-.9332 1.866-1.3239.68-.40508 1.353-.78849 2.018-1.1502.68-.36171 1.303-.73066 1.867-1.10683.564-.39065 1.013-.81024 1.345-1.25876.333-.46299.5-.99109.5-1.58429 0-.57874-.138-1.04896-.413-1.41067-.275-.37618-.644-.65832-1.107-.84641-.448-.18809-.947-.28213-1.497-.28213-.709 0-1.317.12298-1.823.36894-.492.24597-.868.58598-1.129 1.02003-.26.43405-.412.94045-.455 1.51918h-2.974c.087-1.18641.398-2.17026.934-2.95156.535-.78129 1.273-1.36726 2.213-1.75791.941-.390647 2.055-.585971 3.342-.585971 1.288 0 2.38.202558 3.277.607674.898.405117 1.578.969387 2.041 1.692807.477.72342.716 1.56982.716 2.53921 0 .72342-.145 1.3745-.434 1.95324-.275.56427-.651 1.07066-1.129 1.51918-.463.44852-.976.85364-1.541 1.21535-.564.36172-1.143.70172-1.736 1.02002s-1.15.6294-1.671.9332c-.521.3039-.962.6149-1.324.9332s-.6.6656-.716 1.0418h8.659v2.3655z" fill="#57606a"/><path d="m141.986 16.0204-.021-3.6243h-9.007v-2.1703l8.269-9.85296h3.863v9.59257h2.3v2.43069h-2.3v3.6243zm-5.708-6.05499h5.708v-6.70612z" fill="#57606a"/></svg>
