<svg id="Layer_2" data-name="Layer 2" xmlns="http://www.w3.org/2000/svg" viewBox="0 0 67.7 62.28"><path d="M9.48,9.51A6.77,6.77,0,1,1,21,14.36a8.36,8.36,0,0,1,3.23,3.37A1.35,1.35,0,1,1,21.83,19c-1.14-2.06-2.61-2.76-3.9-2.76a5.85,5.85,0,0,0-5.75,5.55,1.35,1.35,0,1,1-2.69-.27,9.05,9.05,0,0,1,3.31-6.23A6.74,6.74,0,0,1,9.48,9.51Zm6.77-4.06a4.06,4.06,0,1,0,4.06,4.06A4.06,4.06,0,0,0,16.25,5.45Z" transform="translate(0 -2.74)" fill="#79b8ff" fill-rule="evenodd"/><path d="M58.22,9.51a6.77,6.77,0,0,1-2.62,5.35,9,9,0,0,1,4,6.7,1.35,1.35,0,0,1-2.69.27,5.85,5.85,0,0,0-5.76-5.55c-1.29,0-2.75.7-3.9,2.76a1.35,1.35,0,1,1-2.37-1.31,8.87,8.87,0,0,1,2.45-2.87A6.77,6.77,0,1,1,58.22,9.51ZM51.45,5.45a4.06,4.06,0,1,0,4.06,4.06A4.06,4.06,0,0,0,51.45,5.45Z" transform="translate(0 -2.74)" fill="#79b8ff" fill-rule="evenodd"/><path d="M5.42,54.19a5.42,5.42,0,1,0,5.41,5.42A5.42,5.42,0,0,0,5.42,54.19ZM2.71,59.61a2.71,2.71,0,1,1,2.71,2.71A2.71,2.71,0,0,1,2.71,59.61Z" transform="translate(0 -2.74)" fill="#79b8ff" fill-rule="evenodd"/><path d="M28.43,59.61A5.42,5.42,0,1,1,33.85,65,5.42,5.42,0,0,1,28.43,59.61Zm5.42-2.71a2.71,2.71,0,1,0,2.71,2.71A2.71,2.71,0,0,0,33.85,56.9Z" transform="translate(0 -2.74)" fill="#79b8ff" fill-rule="evenodd"/><path d="M62.28,54.19a5.42,5.42,0,1,0,5.42,5.42A5.42,5.42,0,0,0,62.28,54.19Zm-2.7,5.42a2.71,2.71,0,1,1,2.7,2.71A2.7,2.7,0,0,1,59.58,59.61Z" transform="translate(0 -2.74)" fill="#79b8ff" fill-rule="evenodd"/><path d="M33.85,8.16a8.14,8.14,0,0,0-4.27,15.06A10.82,10.82,0,0,0,24.39,31a1.35,1.35,0,0,0,2.68.39,8.15,8.15,0,0,1,8.13-7,5.6,5.6,0,0,1,3.29,1.11A1.35,1.35,0,0,0,40,23.29,10.44,10.44,0,0,0,39,22.63,8.15,8.15,0,0,0,33.85,8.16Zm-5.42,8.12a5.44,5.44,0,0,1,5.42-5.42,5.42,5.42,0,1,1-5.42,5.42Z" transform="translate(0 -2.74)" fill="#9df4d3" fill-rule="evenodd"/><path d="M43.33,28.47V27.11a5.42,5.42,0,0,1,10.83,0v1.36A3,3,0,0,1,56,29a2.29,2.29,0,0,1,.85,1.87v7.37a2.31,2.31,0,0,1-.94,1.91,3,3,0,0,1-1.77.5H43.33a3.08,3.08,0,0,1-1.69-.48,2.29,2.29,0,0,1-1-1.93V30.87a2.26,2.26,0,0,1,.94-1.9A3,3,0,0,1,43.33,28.47ZM46,27.11a2.71,2.71,0,1,1,5.41,0v1.36H46ZM43.33,37.94V31.17H54.16v6.77Z" transform="translate(0 -2.74)" fill="#9df4d3" fill-rule="evenodd"/><path d="M33.85,37.94A1.35,1.35,0,0,1,35.2,39.3v5.41H60.48a3.17,3.17,0,0,1,3.16,3.16v2.26a1.36,1.36,0,0,1-2.71,0V47.87a.46.46,0,0,0-.45-.45H35.2v2.71a1.35,1.35,0,1,1-2.7,0V47.42H7.22a.46.46,0,0,0-.45.45v2.26a1.36,1.36,0,0,1-2.71,0V47.87a3.17,3.17,0,0,1,3.16-3.16H32.5V39.3A1.35,1.35,0,0,1,33.85,37.94Z" transform="translate(0 -2.74)" fill="#9df4d3"/></svg>