<?xml version="1.0" encoding="utf-8"?>
<!-- Generator: Adobe Illustrator 25.2.1, SVG Export Plug-In . SVG Version: 6.00 Build 0)  -->
<svg version="1.1" id="Layer_1" xmlns="http://www.w3.org/2000/svg" xmlns:xlink="http://www.w3.org/1999/xlink" x="0px" y="0px"
	 viewBox="0 0 67.7 67.7" style="enable-background:new 0 0 67.7 67.7;" xml:space="preserve">
<style type="text/css">
	.st0{fill-rule:evenodd;clip-rule:evenodd;fill:#9DF4D3;}
	.st1{fill:#64ACFF;}
	.st2{fill-rule:evenodd;clip-rule:evenodd;fill:#64ACFF;}
</style>
<path class="st0" d="M42.3,21.2c0,2.5-1.1,4.9-3.1,6.5c1.4,0.5,2.8,1.3,4,2.2c0.6,0.5,0.7,1.4,0.2,2c-0.5,0.6-1.4,0.7-2,0.2
	c0,0,0,0,0,0c-2.1-1.6-4.6-2.5-7.3-2.5h-0.7c-2.6,0-5.2,0.9-7.2,2.5c-0.6,0.5-1.5,0.4-2-0.2s-0.4-1.5,0.2-2l0,0c1.2-1,2.6-1.7,4-2.2
	c-3.6-3-4.2-8.3-1.2-11.9c3-3.6,8.3-4.2,11.9-1.2C41.1,16.3,42.3,18.7,42.3,21.2z M28.2,21.2c0-3.1,2.5-5.6,5.7-5.6s5.6,2.5,5.6,5.7
	c0,3-2.4,5.5-5.3,5.6h-0.6C30.5,26.7,28.2,24.2,28.2,21.2z"/>
<path class="st0" d="M33.8,36.7c-5.8,0-10.6,4.7-10.6,10.6c0,3.6,1.8,7,4.9,8.9c-4.2,1.7-7.3,5.4-8.4,9.8c-0.2,0.8,0.3,1.5,1.1,1.7
	c0.8,0.2,1.5-0.3,1.7-1.1c1.2-5.1,5.8-8.7,11.1-8.8h0.5c5.2,0.1,9.8,3.7,11,8.8c0.2,0.8,0.9,1.2,1.7,1.1c0.8-0.2,1.2-0.9,1.1-1.7
	c-1-4.4-4.1-8-8.3-9.8c4.9-3.2,6.3-9.7,3.2-14.6C40.8,38.6,37.5,36.7,33.8,36.7L33.8,36.7z M34.1,55.1c4.3-0.1,7.6-3.7,7.5-8
	s-3.7-7.6-8-7.5s-7.6,3.7-7.5,8c0.1,4.1,3.4,7.4,7.5,7.5H34.1z"/>
<path class="st1" d="M11.2,5.7c0.8,0,1.4,0.6,1.4,1.4v1.4h1.4c0.8,0,1.4,0.6,1.4,1.4c0,0.8-0.6,1.4-1.4,1.4h-1.4v1.4
	c0,0.8-0.6,1.4-1.4,1.4c-0.8,0-1.4-0.6-1.4-1.4v-1.4H8.4C7.6,11.3,7,10.7,7,9.9s0.6-1.4,1.4-1.4c0,0,0,0,0,0h1.4V7.1
	C9.8,6.3,10.5,5.7,11.2,5.7z"/>
<path class="st2" d="M1.7,1.9c1-1.1,2.4-1.7,3.9-1.8h11.3c1.5,0.1,2.9,0.7,3.9,1.8c1.1,1,1.7,2.4,1.8,3.8V24c0,0.6-0.3,1.1-0.9,1.3
	c-0.5,0.2-1.1,0.1-1.5-0.3l-5.2-5.2H7c-2,0.1-4-0.7-5.3-2.2c-1.2-1.4-1.8-3.1-1.7-4.9v-7C0.1,4.3,0.7,2.9,1.7,1.9z M3.7,3.9
	C3.2,4.3,2.8,5,2.7,5.7v7c0,1.1,0.3,2.2,1,3c0.9,0.9,2,1.3,3.3,1.2h8.5c0.4,0,0.7,0.1,1,0.4l3.2,3.2V5.7c-0.1-0.7-0.5-1.4-1-1.8
	c-0.5-0.6-1.1-0.9-1.9-1H5.6C4.9,3,4.2,3.3,3.7,3.9L3.7,3.9z"/>
<path class="st1" d="M61.6,8.1c0.6-0.6,0.6-1.4,0-2s-1.4-0.6-2,0l0,0L55,10.7l-1.8-1.8c-0.6-0.6-1.4-0.6-2,0s-0.6,1.4,0,2l2.8,2.8
	c0.5,0.6,1.4,0.6,2,0c0,0,0,0,0,0L61.6,8.1z"/>
<path class="st2" d="M50.7,0c-1.5,0.1-2.9,0.7-3.9,1.8c-1,1-1.7,2.3-1.8,3.8V24c0,0.6,0.3,1.1,0.9,1.3c0.5,0.2,1.1,0.1,1.5-0.3
	l5.2-5.2h7.9c2,0.1,4-0.7,5.3-2.2c1.2-1.4,1.8-3.1,1.7-4.9v-7c-0.1-1.5-0.7-2.9-1.8-3.9c-1-1.1-2.4-1.8-3.9-1.9L50.7,0z M47.9,5.7
	c0.1-0.7,0.5-1.4,1-1.8c0.5-0.6,1.1-0.9,1.9-1H62c0.7,0.1,1.4,0.4,1.9,1c0.5,0.5,0.9,1.1,1,1.8v7c0,1.1-0.3,2.2-1,3
	C63,16.6,61.8,17,60.6,17h-8.4c-0.4,0-0.7,0.1-1,0.4l-3.2,3.2V5.7z"/>
<path class="st2" d="M2.8,38.1c0-4.7,3.8-8.5,8.4-8.5c4.7,0,8.5,3.8,8.5,8.4c0,2.6-1.1,5-3.1,6.6c1.8,0.9,3.3,2.3,4.3,4
	c0.4,0.7,0.2,1.5-0.5,1.9c-0.7,0.4-1.5,0.2-1.9-0.5c0,0,0,0,0,0c-1.2-2.1-3.4-3.5-5.8-3.6c-4.3-0.1-7.9,3-8.5,7.3
	c0,0.8-0.7,1.4-1.5,1.3c-0.8,0-1.4-0.7-1.3-1.5c0-0.1,0-0.1,0-0.2c0.4-3.4,2.4-6.4,5.4-8.1C4.3,43.8,2.8,41.1,2.8,38.1z M11.2,32.5
	c-3.1,0-5.7,2.5-5.7,5.6c0,3.1,2.5,5.7,5.6,5.7c3.1,0,5.7-2.5,5.7-5.6c0,0,0,0,0,0C16.9,35,14.4,32.5,11.2,32.5
	C11.2,32.5,11.2,32.5,11.2,32.5z"/>
<path class="st2" d="M64.9,38.1c0,2.9-1.5,5.7-4,7.2c3,1.7,5,4.7,5.4,8.1c0.2,0.8-0.3,1.5-1.1,1.7c-0.8,0.2-1.5-0.3-1.7-1.1
	c0-0.1,0-0.1,0-0.2c-0.6-4.2-4.2-7.3-8.5-7.2c-2.4,0-4.7,1.4-5.8,3.6c-0.4,0.7-1.3,0.9-1.9,0.5c0,0,0,0,0,0
	c-0.7-0.4-0.9-1.3-0.5-1.9c1-1.7,2.5-3.1,4.3-4c-3.6-3-4.1-8.3-1.2-11.9c3-3.6,8.3-4.1,11.9-1.2C63.7,33.2,64.9,35.6,64.9,38.1
	L64.9,38.1z M56.4,32.5c-3.1,0-5.7,2.5-5.7,5.6c0,3.1,2.5,5.7,5.6,5.7c3.1,0,5.7-2.5,5.7-5.6c0,0,0,0,0,0C62,35,59.5,32.5,56.4,32.5
	C56.4,32.5,56.4,32.5,56.4,32.5z"/>
</svg>
