<svg width="64" height="64" viewBox="0 0 64 64" fill="none" xmlns="http://www.w3.org/2000/svg">
<g clip-path="url(#clip0_98_24344)">
<path fill-rule="evenodd" clip-rule="evenodd" d="M13.291 56.8871C18.1852 60.1801 23.9391 61.9378 29.8252 61.9378C32.4925 61.9346 35.1226 61.5714 37.6513 60.8748L36.303 57.6161C32.5212 58.5847 28.5564 58.6969 24.6983 57.9241C19.6004 56.903 14.9178 54.3826 11.2425 50.6816C7.56716 46.9806 5.06424 42.2652 4.05022 37.1317C3.0362 31.9983 3.55663 26.6773 5.5457 21.8417C7.53477 17.006 10.9031 12.873 15.2249 9.96509C19.5466 7.05722 24.6275 5.50515 29.8252 5.50515C36.7923 5.51442 43.4714 8.30553 48.3978 13.2664C52.4086 17.3052 54.9912 22.5138 55.8176 28.0963L59.5051 29.7608C59.1273 24.6111 57.4331 19.6333 54.5704 15.3191C51.3002 10.3907 46.6522 6.54953 41.2142 4.28126C35.7761 2.01298 29.7922 1.4195 24.0192 2.57586C18.2462 3.73221 12.9433 6.58647 8.78119 10.7777C4.61907 14.9689 1.78464 20.3089 0.636312 26.1223C-0.512014 31.9356 0.0773468 37.9614 2.32987 43.4375C4.58239 48.9136 8.3969 53.5941 13.291 56.8871ZM40.2125 37.5742C40.0343 37.3988 39.8513 37.2277 39.6637 37.061C38.6353 36.1474 37.4939 35.3905 36.2761 34.8039C36.7829 34.4414 37.2599 34.0359 37.7016 33.5911C38.7359 32.5495 39.5563 31.3131 40.1161 29.9522C40.6759 28.5914 40.964 27.1328 40.964 25.6599C40.964 23.4415 40.3107 21.2729 39.0868 19.4284C37.8629 17.5838 36.1233 16.1462 34.088 15.2973C32.0527 14.4483 29.8131 14.2262 27.6524 14.659C25.4917 15.0918 23.507 16.16 21.9493 17.7287C20.3915 19.2973 19.3307 21.2959 18.9009 23.4717C18.4711 25.6474 18.6917 27.9027 19.5348 29.9522C20.3369 31.9023 21.6683 33.5828 23.3734 34.8029C22.159 35.383 21.019 36.1301 19.9886 37.0308C17.2736 39.4042 15.5012 42.6852 14.9978 46.2699C14.956 46.505 14.9619 46.7462 15.0152 46.9789C15.0684 47.2117 15.1679 47.4312 15.3075 47.6242C15.4472 47.8172 15.6243 47.9798 15.828 48.1021C16.0317 48.2244 16.2579 48.3039 16.493 48.3359C16.728 48.3678 16.9671 48.3515 17.1957 48.288C17.4243 48.2245 17.6378 48.115 17.8234 47.9662C18.0089 47.8174 18.1626 47.6323 18.2752 47.4221C18.3878 47.2119 18.457 46.9809 18.4786 46.7431C18.8688 43.9994 20.2302 41.49 22.3121 39.677C24.3821 37.8742 27.0259 36.8806 29.7616 36.8761L29.8254 36.8763C29.8776 36.8763 29.9298 36.8759 29.982 36.8752C32.7032 36.8815 35.3324 37.8801 37.3812 39.6897C37.8024 40.0617 38.193 40.4627 38.551 40.8886L40.2125 39.2951V37.5742ZM28.3315 33.223C28.6804 33.2929 29.0322 33.3379 29.3846 33.3584C29.5141 33.3551 29.6439 33.3534 29.7738 33.3535C29.9448 33.3517 30.1155 33.353 30.2859 33.3572C31.1307 33.306 31.9657 33.1138 32.7559 32.7842C34.1552 32.2005 35.3512 31.2122 36.1926 29.944C37.0341 28.6759 37.4832 27.185 37.4832 25.6599C37.4832 23.6147 36.6764 21.6533 35.2403 20.2072C33.8042 18.761 31.8564 17.9486 29.8254 17.9486C28.3109 17.9486 26.8303 18.4008 25.571 19.2482C24.3117 20.0955 23.3302 21.2998 22.7506 22.7089C22.171 24.1179 22.0194 25.6684 22.3148 27.1643C22.6103 28.6601 23.3396 30.0341 24.4106 31.1126C25.4815 32.191 26.846 32.9255 28.3315 33.223Z" fill="#79B8FF"/>
<path fill-rule="evenodd" clip-rule="evenodd" d="M52.6241 33.0908C48.0662 33.0908 44.833 36.8314 44.833 41.2406V42.8244H44.7705C42.8031 42.8244 41.2083 44.4304 41.2083 46.4116V56.1451C41.2083 58.1263 42.8031 59.7323 44.7705 59.7323H60.4777C62.4451 59.7323 64.04 58.1263 64.04 56.1451V46.4116C64.04 44.4304 62.4451 42.8244 60.4777 42.8244H60.4153V41.2406C60.4153 36.8314 57.1821 33.0908 52.6241 33.0908ZM47.7287 41.2406C47.7287 38.2612 49.8391 36.0068 52.6241 36.0068C55.4092 36.0068 57.5196 38.2612 57.5196 41.2406V42.8244H47.7287V41.2406ZM44.104 46.4116C44.104 46.0409 44.4024 45.7403 44.7705 45.7403H60.4777C60.8459 45.7403 61.1443 46.0409 61.1443 46.4116V56.1451C61.1443 56.5159 60.8459 56.8164 60.4777 56.8164H44.7705C44.4024 56.8164 44.104 56.5159 44.104 56.1451V46.4116Z" fill="#2088FF"/>
</g>
<defs>
<clipPath id="clip0_98_24344">
<rect width="64" height="64" fill="white"/>
</clipPath>
</defs>
</svg>
