<svg fill="none" height="269" viewBox="0 0 392 269" width="392" xmlns="http://www.w3.org/2000/svg" xmlns:xlink="http://www.w3.org/1999/xlink"><filter id="a" color-interpolation-filters="sRGB" filterUnits="userSpaceOnUse" height="268.61" width="392" x="0" y=".39"><feFlood flood-opacity="0" result="BackgroundImageFix"/><feColorMatrix in="SourceAlpha" type="matrix" values="0 0 0 0 0 0 0 0 0 0 0 0 0 0 0 0 0 0 127 0"/><feOffset dy="2"/><feGaussianBlur stdDeviation="1"/><feColorMatrix type="matrix" values="0 0 0 0 0 0 0 0 0 0 0 0 0 0 0 0 0 0 0.0274351 0"/><feBlend in2="BackgroundImageFix" mode="normal" result="effect1_dropShadow"/><feColorMatrix in="SourceAlpha" type="matrix" values="0 0 0 0 0 0 0 0 0 0 0 0 0 0 0 0 0 0 127 0"/><feOffset dy="4"/><feGaussianBlur stdDeviation="2"/><feColorMatrix type="matrix" values="0 0 0 0 0 0 0 0 0 0 0 0 0 0 0 0 0 0 0.0400741 0"/><feBlend in2="effect1_dropShadow" mode="normal" result="effect2_dropShadow"/><feColorMatrix in="SourceAlpha" type="matrix" values="0 0 0 0 0 0 0 0 0 0 0 0 0 0 0 0 0 0 127 0"/><feOffset dy="10"/><feGaussianBlur stdDeviation="4"/><feColorMatrix type="matrix" values="0 0 0 0 0 0 0 0 0 0 0 0 0 0 0 0 0 0 0.0499982 0"/><feBlend in2="effect2_dropShadow" mode="normal" result="effect3_dropShadow"/><feColorMatrix in="SourceAlpha" type="matrix" values="0 0 0 0 0 0 0 0 0 0 0 0 0 0 0 0 0 0 127 0"/><feOffset dy="15"/><feGaussianBlur stdDeviation="7.5"/><feColorMatrix type="matrix" values="0 0 0 0 0 0 0 0 0 0 0 0 0 0 0 0 0 0 0.0596004 0"/><feBlend in2="effect3_dropShadow" mode="normal" result="effect4_dropShadow"/><feColorMatrix in="SourceAlpha" type="matrix" values="0 0 0 0 0 0 0 0 0 0 0 0 0 0 0 0 0 0 127 0"/><feOffset dy="30"/><feGaussianBlur stdDeviation="15"/><feColorMatrix type="matrix" values="0 0 0 0 0 0 0 0 0 0 0 0 0 0 0 0 0 0 0.0709366 0"/><feBlend in2="effect4_dropShadow" mode="normal" result="effect5_dropShadow"/><feColorMatrix in="SourceAlpha" type="matrix" values="0 0 0 0 0 0 0 0 0 0 0 0 0 0 0 0 0 0 127 0"/><feOffset dy="70"/><feGaussianBlur stdDeviation="32.5"/><feColorMatrix type="matrix" values="0 0 0 0 0 0 0 0 0 0 0 0 0 0 0 0 0 0 0.09 0"/><feBlend in2="effect5_dropShadow" mode="normal" result="effect6_dropShadow"/><feBlend in="SourceGraphic" in2="effect6_dropShadow" mode="normal" result="shape"/></filter><g filter="url(#a)"><path d="m66 13c0-2.7614 2.2386-5 5-5h168.596c.259 0 .508-.1006.695-.2806l6.264-6.04876c.388-.37413 1.002-.37413 1.39 0l6.264 6.04876c.187.18.436.2806.695.2806h66.096c2.761 0 5 2.2386 5 5v115c0 2.761-2.239 5-5 5h-250c-2.7614 0-5-2.239-5-5z" fill="#fff"/><path d="m326.5 128v-115c0-3.03757-2.462-5.5-5.5-5.5h-66.096c-.13 0-.254-.0503-.347-.1403l-6.265-6.04876c-.581-.561195-1.503-.561195-2.084 0l-6.265 6.04876c-.093.09-.217.1403-.347.1403h-168.596c-3.0376 0-5.5 2.46244-5.5 5.5v115c0 3.038 2.4624 5.5 5.5 5.5h250c3.038 0 5.5-2.462 5.5-5.5z" stroke="#d1d5da"/></g><path d="m66 39h260v30h-260z" fill="#035bd6"/><path d="m92.4023 31.0015v-9.8643h-2.0644l-2.9668 7.3213h-.1231l-2.9668-7.3213h-2.0644v9.8643h1.6406v-6.9932h.0957l2.7276 6.6855h1.2578l2.7275-6.6855h.0957v6.9932zm4.3135.123c.9776 0 1.7979-.4238 2.2149-1.1484h.1162v1.0254h1.6341v-5.1065c0-1.5791-1.0804-2.5088-3.0013-2.5088-1.7774 0-3.0147.834-3.1514 2.1397h1.5996c.1573-.5127.6905-.793 1.4698-.793.916 0 1.4082.417 1.4082 1.1621v.6426l-1.9278.1162c-1.8183.1025-2.8369.8887-2.8369 2.2285 0 1.3672 1.0322 2.2422 2.4746 2.2422zm.499-1.3057c-.7519 0-1.2919-.3759-1.2919-1.0185 0-.6221.4443-.9707 1.3945-1.0322l1.6885-.1162v.6084c0 .8886-.7657 1.5585-1.7911 1.5585zm5.5102 1.1827h1.695v-4.3545c0-1.1211.636-1.8252 1.647-1.8252 1.033 0 1.511.581 1.511 1.7431v4.4366h1.695v-4.833c0-1.7774-.909-2.7823-2.577-2.7823-1.114 0-1.866.5059-2.221 1.3399h-.117v-1.1963h-1.633zm10.616.123c.977 0 1.798-.4238 2.215-1.1484h.116v1.0254h1.634v-5.1065c0-1.5791-1.08-2.5088-3.001-2.5088-1.778 0-3.015.834-3.152 2.1397h1.6c.157-.5127.69-.793 1.47-.793.916 0 1.408.417 1.408 1.1621v.6426l-1.928.1162c-1.818.1025-2.837.8887-2.837 2.2285 0 1.3672 1.032 2.2422 2.475 2.2422zm.499-1.3057c-.752 0-1.292-.3759-1.292-1.0185 0-.6221.444-.9707 1.394-1.0322l1.689-.1162v.6084c0 .8886-.766 1.5585-1.791 1.5585zm8.722 4.0264c2.181 0 3.562-1.0869 3.562-2.8027v-7.5127h-1.634v1.1963h-.116c-.41-.8135-1.299-1.3194-2.317-1.3194-1.908 0-3.09 1.4903-3.09 3.7803 0 2.2422 1.176 3.7051 3.062 3.7051 1.039 0 1.853-.4375 2.283-1.2442h.117v1.4219c0 .9502-.677 1.5108-1.839 1.5108-.93 0-1.531-.335-1.641-.8614h-1.702c.137 1.2852 1.395 2.126 3.315 2.126zm0-4.2998c-1.182 0-1.852-.916-1.852-2.3652 0-1.4424.67-2.3584 1.852-2.3584 1.176 0 1.894.916 1.894 2.3652 0 1.4424-.711 2.3584-1.894 2.3584zm10.521-.5879c-.246.5606-.827.875-1.668.875-1.114 0-1.832-.7929-1.873-2.0576v-.0889h5.223v-.54c0-2.3447-1.279-3.7598-3.411-3.7598-2.167 0-3.514 1.5108-3.514 3.9102 0 2.3926 1.326 3.8555 3.527 3.8555 1.764 0 3.015-.8477 3.322-2.1944zm-1.736-4.2519c1.018 0 1.688.7177 1.722 1.8525h-3.52c.075-1.1211.786-1.8525 1.798-1.8525z" fill="#24292e"/><path d="m86.332 59.2476c2.2764 0 3.9444-1.3467 4.1768-3.3428h-1.7363c-.2393 1.1074-1.1895 1.8115-2.4405 1.8115-1.6816 0-2.7275-1.4014-2.7275-3.6504 0-2.2422 1.0459-3.6435 2.7207-3.6435 1.2441 0 2.1943.7724 2.4404 1.9619h1.7364c-.2051-2.044-1.9346-3.4932-4.1768-3.4932-2.7959 0-4.5254 1.9756-4.5254 5.1817 0 3.1923 1.7363 5.1748 4.5322 5.1748zm6.0293-.2461h1.6953v-4.3409c0-1.0937.6221-1.8252 1.7364-1.8252.9843 0 1.5039.5879 1.5039 1.7432v4.4229h1.6953v-4.8194c0-1.7773-.9707-2.789-2.5703-2.789-1.1143 0-1.9141.5058-2.2696 1.3466h-.123v-4.1015h-1.668zm10.6987.123c.977 0 1.797-.4238 2.214-1.1484h.117v1.0254h1.633v-5.1065c0-1.5791-1.08-2.5088-3.001-2.5088-1.777 0-3.014.834-3.151 2.1397h1.6c.157-.5127.69-.793 1.469-.793.916 0 1.409.417 1.409 1.1621v.6426l-1.928.1162c-1.818.1025-2.837.8887-2.837 2.2285 0 1.3672 1.032 2.2422 2.475 2.2422zm.499-1.3057c-.752 0-1.292-.3759-1.292-1.0185 0-.6221.444-.9707 1.394-1.0322l1.689-.1162v.6084c0 .8886-.766 1.5585-1.791 1.5585zm5.509 1.1827h1.696v-4.3545c0-1.1211.635-1.8252 1.647-1.8252 1.032 0 1.511.581 1.511 1.7431v4.4366h1.695v-4.833c0-1.7774-.909-2.7823-2.577-2.7823-1.114 0-1.866.5059-2.222 1.3399h-.116v-1.1963h-1.634zm11.772 2.8437c2.181 0 3.561-1.0869 3.561-2.8027v-7.5127h-1.633v1.1963h-.117c-.41-.8135-1.298-1.3194-2.317-1.3194-1.907 0-3.09 1.4903-3.09 3.7803 0 2.2422 1.176 3.7051 3.063 3.7051 1.039 0 1.852-.4375 2.283-1.2442h.116v1.4219c0 .9502-.677 1.5108-1.839 1.5108-.929 0-1.531-.335-1.64-.8614h-1.703c.137 1.2852 1.395 2.126 3.316 2.126zm0-4.2998c-1.183 0-1.853-.916-1.853-2.3652 0-1.4424.67-2.3584 1.853-2.3584 1.176 0 1.893.916 1.893 2.3652 0 1.4424-.711 2.3584-1.893 2.3584zm10.52-.5879c-.246.5606-.827.875-1.668.875-1.114 0-1.832-.7929-1.873-2.0576v-.0889h5.223v-.54c0-2.3447-1.278-3.7598-3.411-3.7598-2.167 0-3.514 1.5108-3.514 3.9102 0 2.3926 1.326 3.8555 3.528 3.8555 1.763 0 3.014-.8477 3.322-2.1944zm-1.736-4.2519c1.019 0 1.688.7177 1.723 1.8525h-3.521c.075-1.1211.786-1.8525 1.798-1.8525zm8.853 6.2959h1.695v-4.3409c0-1.0527.766-1.7363 1.866-1.7363.287 0 .738.0479.868.0957v-1.5449c-.157-.041-.458-.0684-.704-.0684-.964 0-1.77.5469-1.975 1.2852h-.117v-1.1621h-1.633zm8.859.1504c2.235 0 3.596-1.4629 3.596-3.8897 0-2.4131-1.368-3.876-3.596-3.876-2.222 0-3.596 1.4698-3.596 3.876 0 2.4268 1.354 3.8897 3.596 3.8897zm0-1.3877c-1.183 0-1.859-.9161-1.859-2.4952s.676-2.4951 1.859-2.4951c1.176 0 1.852.916 1.852 2.4951s-.669 2.4952-1.852 2.4952zm5.373 1.2373h1.695v-10.3633h-1.695zm8.716-2.044c-.246.5606-.827.875-1.668.875-1.114 0-1.832-.7929-1.873-2.0576v-.0889h5.222v-.54c0-2.3447-1.278-3.7598-3.411-3.7598-2.167 0-3.513 1.5108-3.513 3.9102 0 2.3926 1.326 3.8555 3.527 3.8555 1.764 0 3.015-.8477 3.322-2.1944zm-1.737-4.2519c1.019 0 1.689.7177 1.723 1.8525h-3.52c.075-1.1211.786-1.8525 1.797-1.8525z" fill="#fff"/><g fill="#24292e"><path d="m86.332 87.2476c2.2764 0 3.9444-1.3467 4.1768-3.3428h-1.7363c-.2393 1.1074-1.1895 1.8115-2.4405 1.8115-1.6816 0-2.7275-1.4014-2.7275-3.6504 0-2.2422 1.0459-3.6435 2.7207-3.6435 1.2441 0 2.1943.7724 2.4404 1.9619h1.7364c-.2051-2.044-1.9346-3.4932-4.1768-3.4932-2.7959 0-4.5254 1.9756-4.5254 5.1817 0 3.1923 1.7363 5.1748 4.5322 5.1748zm9.1875-.0957c2.2354 0 3.5957-1.4629 3.5957-3.8897 0-2.4131-1.3672-3.876-3.5957-3.876-2.2216 0-3.5957 1.4698-3.5957 3.876 0 2.4268 1.3535 3.8897 3.5957 3.8897zm0-1.3877c-1.1826 0-1.8593-.9161-1.8593-2.4952s.6767-2.4951 1.8593-2.4951c1.1758 0 1.8526.916 1.8526 2.4951s-.67 2.4952-1.8526 2.4952zm5.3045 1.2373h1.696v-4.3545c0-1.1211.635-1.8252 1.647-1.8252 1.032 0 1.511.581 1.511 1.7431v4.4366h1.695v-4.833c0-1.7774-.909-2.7823-2.577-2.7823-1.114 0-1.866.5059-2.222 1.3399h-.116v-1.1963h-1.634zm14.848-7.4717h-1.791l-1.716 5.8105h-.116l-1.73-5.8105h-1.818l2.659 7.4717h1.866zm6.009 5.4277c-.246.5606-.827.875-1.668.875-1.115 0-1.832-.7929-1.873-2.0576v-.0889h5.222v-.54c0-2.3447-1.278-3.7598-3.411-3.7598-2.167 0-3.513 1.5108-3.513 3.9102 0 2.3926 1.326 3.8555 3.527 3.8555 1.764 0 3.014-.8477 3.322-2.1944zm-1.737-4.2519c1.019 0 1.689.7177 1.723 1.8525h-3.521c.076-1.1211.787-1.8525 1.798-1.8525zm5.12 6.2959h1.696v-4.3409c0-1.0527.765-1.7363 1.866-1.7363.287 0 .738.0479.868.0957v-1.5449c-.157-.041-.458-.0684-.704-.0684-.964 0-1.77.5469-1.976 1.2852h-.116v-1.1621h-1.634zm6.707-9.3037v1.8798h-1.183v1.3194h1.183v4.122c0 1.4424.683 2.0166 2.399 2.0166.328 0 .642-.0273.889-.0752v-1.2988c-.205.0205-.335.0342-.575.0342-.711 0-1.025-.335-1.025-1.0801v-3.7187h1.6v-1.3194h-1.6v-1.8798zm9.255 0v1.8798h-1.182v1.3194h1.182v4.122c0 1.4424.684 2.0166 2.4 2.0166.328 0 .642-.0273.888-.0752v-1.2988c-.205.0205-.335.0342-.574.0342-.711 0-1.025-.335-1.025-1.0801v-3.7187h1.599v-1.3194h-1.599v-1.8798zm8.142 9.4541c2.235 0 3.596-1.4629 3.596-3.8897 0-2.4131-1.368-3.876-3.596-3.876-2.222 0-3.596 1.4698-3.596 3.876 0 2.4268 1.354 3.8897 3.596 3.8897zm0-1.3877c-1.183 0-1.859-.9161-1.859-2.4952s.676-2.4951 1.859-2.4951c1.176 0 1.853.916 1.853 2.4951s-.67 2.4952-1.853 2.4952zm12.264 1.3877c2.235 0 3.595-1.4629 3.595-3.8897 0-2.4131-1.367-3.876-3.595-3.876-2.222 0-3.596 1.4698-3.596 3.876 0 2.4268 1.353 3.8897 3.596 3.8897zm0-1.3877c-1.183 0-1.86-.9161-1.86-2.4952s.677-2.4951 1.86-2.4951c1.175 0 1.852.916 1.852 2.4951s-.67 2.4952-1.852 2.4952zm11.812-6.2344h-1.695v4.3545c0 1.1279-.602 1.8115-1.702 1.8115-1.012 0-1.484-.5605-1.484-1.7227v-4.4433h-1.695v4.8535c0 1.75.957 2.7686 2.591 2.7686 1.141 0 1.873-.4854 2.235-1.3399h.116v1.1895h1.634zm2.618-1.832v1.8798h-1.182v1.3194h1.182v4.122c0 1.4424.684 2.0166 2.4 2.0166.328 0 .642-.0273.888-.0752v-1.2988c-.205.0205-.335.0342-.574.0342-.711 0-1.025-.335-1.025-1.0801v-3.7187h1.599v-1.3194h-1.599v-1.8798zm4.717 3.9648c0 1.1211.677 1.7773 2.112 2.1055l1.327.3076c.711.164 1.032.4375 1.032.8613 0 .5674-.595.957-1.449.957-.848 0-1.374-.3418-1.539-.8955h-1.674c.13 1.3467 1.305 2.1534 3.172 2.1534 1.866 0 3.185-.9502 3.185-2.379 0-1.1005-.663-1.7089-2.092-2.0371l-1.319-.2939c-.752-.1777-1.107-.4443-1.107-.8682 0-.5537.581-.9297 1.353-.9297.793 0 1.292.3418 1.415.8682h1.593c-.123-1.3467-1.237-2.126-3.015-2.126-1.763 0-2.994.9366-2.994 2.2764zm8.743-3.3838c.561 0 1.019-.4443 1.019-1.0049 0-.5537-.458-1.0049-1.019-1.0049-.553 0-1.011.4512-1.011 1.0049 0 .5606.458 1.0049 1.011 1.0049zm-.841 8.7227h1.689v-7.4717h-1.689zm6.501.123c1.039 0 1.901-.4853 2.325-1.3057h.116v1.1827h1.64v-10.3633h-1.695v4.081h-.116c-.397-.8203-1.244-1.3125-2.27-1.3125-1.886 0-3.076 1.4903-3.076 3.8555 0 2.3721 1.183 3.8623 3.076 3.8623zm.527-6.3027c1.162 0 1.88.9365 1.88 2.4472 0 1.5176-.711 2.4473-1.88 2.4473-1.162 0-1.866-.916-1.866-2.4473 0-1.5244.711-2.4472 1.866-2.4472zm10.568 4.1357c-.246.5606-.827.875-1.668.875-1.114 0-1.832-.7929-1.873-2.0576v-.0889h5.223v-.54c0-2.3447-1.279-3.7598-3.411-3.7598-2.167 0-3.514 1.5108-3.514 3.9102 0 2.3926 1.326 3.8555 3.527 3.8555 1.764 0 3.015-.8477 3.323-2.1944zm-1.736-4.2519c1.018 0 1.688.7177 1.722 1.8525h-3.52c.075-1.1211.786-1.8525 1.798-1.8525zm15.312 1.3193c-.177-1.5449-1.34-2.6387-3.26-2.6387-2.249 0-3.569 1.4424-3.569 3.8623 0 2.4473 1.326 3.9034 3.575 3.9034 1.894 0 3.07-1.0528 3.254-2.5977h-1.613c-.178.7861-.766 1.2031-1.647 1.2031-1.156 0-1.853-.9228-1.853-2.5088 0-1.5586.69-2.4746 1.853-2.4746.929 0 1.49.5264 1.647 1.251zm4.847 5.127c2.235 0 3.596-1.4629 3.596-3.8897 0-2.4131-1.367-3.876-3.596-3.876-2.222 0-3.596 1.4698-3.596 3.876 0 2.4268 1.354 3.8897 3.596 3.8897zm0-1.3877c-1.183 0-1.859-.9161-1.859-2.4952s.676-2.4951 1.859-2.4951c1.176 0 1.853.916 1.853 2.4951s-.67 2.4952-1.853 2.4952zm5.373 1.2373h1.695v-10.3633h-1.695zm3.91 0h1.696v-10.3633h-1.696zm5.9.123c.977 0 1.797-.4238 2.214-1.1484h.117v1.0254h1.633v-5.1065c0-1.5791-1.08-2.5088-3.001-2.5088-1.777 0-3.014.834-3.151 2.1397h1.6c.157-.5127.69-.793 1.469-.793.916 0 1.409.417 1.409 1.1621v.6426l-1.928.1162c-1.818.1025-2.837.8887-2.837 2.2285 0 1.3672 1.032 2.2422 2.475 2.2422zm.499-1.3057c-.752 0-1.292-.3759-1.292-1.0185 0-.6221.444-.9707 1.394-1.0322l1.689-.1162v.6084c0 .8886-.766 1.5585-1.791 1.5585zm9.666 1.3057c1.886 0 3.069-1.4834 3.069-3.8555 0-2.3857-1.176-3.8623-3.069-3.8623-1.026 0-1.887.4991-2.277 1.3125h-.116v-4.081h-1.695v10.3633h1.634v-1.1827h.116c.424.8204 1.292 1.3057 2.338 1.3057zm-.534-6.3027c1.156 0 1.86.9228 1.86 2.4472 0 1.5245-.697 2.4473-1.86 2.4473-1.162 0-1.886-.9365-1.886-2.4473 0-1.5107.731-2.4472 1.886-2.4472zm8.532 6.3301c2.235 0 3.595-1.4629 3.595-3.8897 0-2.4131-1.367-3.876-3.595-3.876-2.222 0-3.596 1.4698-3.596 3.876 0 2.4268 1.354 3.8897 3.596 3.8897zm0-1.3877c-1.183 0-1.86-.9161-1.86-2.4952s.677-2.4951 1.86-2.4951c1.175 0 1.852.916 1.852 2.4951s-.67 2.4952-1.852 2.4952zm5.304 1.2373h1.696v-4.3409c0-1.0527.765-1.7363 1.866-1.7363.287 0 .738.0479.868.0957v-1.5449c-.157-.041-.458-.0684-.704-.0684-.964 0-1.771.5469-1.976 1.2852h-.116v-1.1621h-1.634zm7.787.123c.977 0 1.797-.4238 2.214-1.1484h.117v1.0254h1.633v-5.1065c0-1.5791-1.08-2.5088-3.001-2.5088-1.777 0-3.014.834-3.151 2.1397h1.6c.157-.5127.69-.793 1.469-.793.916 0 1.409.417 1.409 1.1621v.6426l-1.928.1162c-1.819.1025-2.837.8887-2.837 2.2285 0 1.3672 1.032 2.2422 2.475 2.2422zm.499-1.3057c-.752 0-1.292-.3759-1.292-1.0185 0-.6221.444-.9707 1.394-1.0322l1.689-.1162v.6084c0 .8886-.766 1.5585-1.791 1.5585zm6.049-8.121v1.8798h-1.182v1.3194h1.182v4.122c0 1.4424.684 2.0166 2.4 2.0166.328 0 .642-.0273.888-.0752v-1.2988c-.205.0205-.335.0342-.574.0342-.711 0-1.025-.335-1.025-1.0801v-3.7187h1.599v-1.3194h-1.599v-1.8798zm8.142 9.4541c2.235 0 3.596-1.4629 3.596-3.8897 0-2.4131-1.368-3.876-3.596-3.876-2.222 0-3.596 1.4698-3.596 3.876 0 2.4268 1.354 3.8897 3.596 3.8897zm0-1.3877c-1.183 0-1.859-.9161-1.859-2.4952s.676-2.4951 1.859-2.4951c1.176 0 1.852.916 1.852 2.4951s-.669 2.4952-1.852 2.4952zm5.305 1.2373h1.695v-4.3409c0-1.0527.766-1.7363 1.866-1.7363.287 0 .738.0479.868.0957v-1.5449c-.157-.041-.458-.0684-.704-.0684-.964 0-1.77.5469-1.975 1.2852h-.117v-1.1621h-1.633zm5.995.1367c.649 0 1.094-.458 1.094-1.0664 0-.6016-.445-1.0596-1.094-1.0596-.643 0-1.094.458-1.094 1.0596 0 .6084.451 1.0664 1.094 1.0664zm4.607 0c.65 0 1.094-.458 1.094-1.0664 0-.6016-.444-1.0596-1.094-1.0596-.642 0-1.094.458-1.094 1.0596 0 .6084.452 1.0664 1.094 1.0664zm4.608 0c.649 0 1.093-.458 1.093-1.0664 0-.6016-.444-1.0596-1.093-1.0596-.643 0-1.094.458-1.094 1.0596 0 .6084.451 1.0664 1.094 1.0664z"/><path d="m83.9805 111.29h1.955l1.9346 3.711h2.0166l-2.1533-3.978c1.1758-.424 1.8594-1.511 1.8594-2.816 0-1.887-1.2989-3.07-3.3701-3.07h-4.0059v9.864h1.7637zm0-4.724h1.9961c1.1211 0 1.8046.636 1.8046 1.675 0 1.059-.6425 1.668-1.7636 1.668h-2.0371zm12.2158 6.392c-.2461.56-.8272.875-1.668.875-1.1142 0-1.832-.793-1.873-2.058v-.089h5.2226v-.54c0-2.345-1.2783-3.76-3.4111-3.76-2.167 0-3.5137 1.511-3.5137 3.91 0 2.393 1.3262 3.856 3.5274 3.856 1.7636 0 3.0146-.848 3.3222-2.194zm-1.7363-4.252c1.0185 0 1.6884.717 1.7226 1.852h-3.5205c.0752-1.121.7861-1.852 1.7979-1.852zm5.1201 6.295h1.6949v-4.545c0-.93.622-1.634 1.463-1.634.834 0 1.354.506 1.354 1.333v4.846h1.647v-4.668c0-.855.581-1.511 1.463-1.511.909 0 1.367.485 1.367 1.456v4.723h1.689v-5.14c0-1.552-.903-2.475-2.4-2.475-1.039 0-1.9.533-2.269 1.347h-.116c-.315-.827-1.033-1.347-2.065-1.347-.991 0-1.757.506-2.078 1.347h-.116v-1.203h-1.6339zm15.9139.151c2.235 0 3.596-1.463 3.596-3.89 0-2.413-1.367-3.876-3.596-3.876-2.222 0-3.596 1.47-3.596 3.876 0 2.427 1.354 3.89 3.596 3.89zm0-1.388c-1.182 0-1.859-.916-1.859-2.495s.677-2.495 1.859-2.495c1.176 0 1.853.916 1.853 2.495s-.67 2.495-1.853 2.495zm11.526-6.234h-1.791l-1.716 5.81h-.117l-1.729-5.81h-1.818l2.659 7.471h1.866zm6.008 5.428c-.246.56-.827.875-1.668.875-1.114 0-1.832-.793-1.873-2.058v-.089h5.223v-.54c0-2.345-1.278-3.76-3.411-3.76-2.167 0-3.514 1.511-3.514 3.91 0 2.393 1.326 3.856 3.527 3.856 1.764 0 3.015-.848 3.323-2.194zm-1.736-4.252c1.019 0 1.688.717 1.723 1.852h-3.521c.075-1.121.786-1.852 1.798-1.852zm9.399 6.295h1.689v-6.104h1.606v-1.319h-1.627v-.691c0-.711.315-1.066 1.115-1.066.239 0 .444.02.581.041v-1.224c-.274-.048-.581-.068-.944-.068-1.661 0-2.42.731-2.42 2.222v.786h-1.223v1.319h1.223zm4.936 0h1.695v-4.34c0-1.053.766-1.737 1.866-1.737.288 0 .739.048.869.096v-1.545c-.158-.041-.458-.068-.704-.068-.964 0-1.771.547-1.976 1.285h-.116v-1.162h-1.634zm8.859.151c2.236 0 3.596-1.463 3.596-3.89 0-2.413-1.367-3.876-3.596-3.876-2.221 0-3.595 1.47-3.595 3.876 0 2.427 1.353 3.89 3.595 3.89zm0-1.388c-1.182 0-1.859-.916-1.859-2.495s.677-2.495 1.859-2.495c1.176 0 1.853.916 1.853 2.495s-.67 2.495-1.853 2.495zm5.305 1.237h1.695v-4.545c0-.93.622-1.634 1.463-1.634.834 0 1.354.506 1.354 1.333v4.846h1.647v-4.668c0-.855.581-1.511 1.463-1.511.909 0 1.367.485 1.367 1.456v4.723h1.689v-5.14c0-1.552-.903-2.475-2.4-2.475-1.039 0-1.9.533-2.269 1.347h-.116c-.315-.827-1.033-1.347-2.065-1.347-.991 0-1.757.506-2.078 1.347h-.116v-1.203h-1.634zm19.647.151c2.235 0 3.595-1.463 3.595-3.89 0-2.413-1.367-3.876-3.595-3.876-2.222 0-3.596 1.47-3.596 3.876 0 2.427 1.353 3.89 3.596 3.89zm0-1.388c-1.183 0-1.86-.916-1.86-2.495s.677-2.495 1.86-2.495c1.175 0 1.852.916 1.852 2.495s-.67 2.495-1.852 2.495zm5.304 1.237h1.696v-4.34c0-1.053.765-1.737 1.866-1.737.287 0 .738.048.868.096v-1.545c-.157-.041-.458-.068-.704-.068-.964 0-1.771.547-1.976 1.285h-.116v-1.162h-1.634zm8.846 2.844c2.181 0 3.561-1.087 3.561-2.803v-7.512h-1.633v1.196h-.117c-.41-.813-1.298-1.319-2.317-1.319-1.907 0-3.09 1.49-3.09 3.78 0 2.242 1.176 3.705 3.063 3.705 1.039 0 1.852-.437 2.283-1.244h.116v1.422c0 .95-.677 1.511-1.839 1.511-.929 0-1.531-.335-1.64-.862h-1.703c.137 1.285 1.395 2.126 3.316 2.126zm0-4.3c-1.183 0-1.853-.916-1.853-2.365 0-1.442.67-2.358 1.853-2.358 1.176 0 1.893.916 1.893 2.365 0 1.442-.71 2.358-1.893 2.358zm7.704 1.58c.978 0 1.798-.424 2.215-1.149h.116v1.025h1.634v-5.106c0-1.579-1.08-2.509-3.001-2.509-1.777 0-3.015.834-3.152 2.14h1.6c.157-.513.691-.793 1.47-.793.916 0 1.408.417 1.408 1.162v.643l-1.928.116c-1.818.102-2.837.888-2.837 2.228 0 1.368 1.033 2.243 2.475 2.243zm.499-1.306c-.752 0-1.292-.376-1.292-1.019 0-.622.444-.97 1.395-1.032l1.688-.116v.608c0 .889-.766 1.559-1.791 1.559zm5.51 1.182h1.695v-4.354c0-1.121.636-1.825 1.648-1.825 1.032 0 1.51.581 1.51 1.743v4.436h1.696v-4.833c0-1.777-.91-2.782-2.578-2.782-1.114 0-1.866.506-2.221 1.34h-.116v-1.196h-1.634zm9.42-8.722c.56 0 1.018-.445 1.018-1.005 0-.554-.458-1.005-1.018-1.005-.554 0-1.012.451-1.012 1.005 0 .56.458 1.005 1.012 1.005zm-.841 8.722h1.688v-7.471h-1.688zm3.623 0h6.057v-1.333h-3.89v-.116l3.828-4.887v-1.135h-5.961v1.333h3.938v.123l-3.972 4.976zm10.021.124c.978 0 1.798-.424 2.215-1.149h.116v1.025h1.634v-5.106c0-1.579-1.08-2.509-3.001-2.509-1.777 0-3.014.834-3.151 2.14h1.6c.157-.513.69-.793 1.469-.793.916 0 1.408.417 1.408 1.162v.643l-1.927.116c-1.819.102-2.837.888-2.837 2.228 0 1.368 1.032 2.243 2.474 2.243zm.499-1.306c-.752 0-1.292-.376-1.292-1.019 0-.622.445-.97 1.395-1.032l1.688-.116v.608c0 .889-.765 1.559-1.791 1.559zm6.05-8.121v1.88h-1.182v1.319h1.182v4.122c0 1.442.684 2.017 2.4 2.017.328 0 .642-.028.888-.076v-1.298c-.205.02-.335.034-.574.034-.711 0-1.025-.335-1.025-1.08v-3.719h1.599v-1.319h-1.599v-1.88zm5.845.581c.561 0 1.019-.445 1.019-1.005 0-.554-.458-1.005-1.019-1.005-.554 0-1.012.451-1.012 1.005 0 .56.458 1.005 1.012 1.005zm-.841 8.722h1.689v-7.471h-1.689zm7.021.151c2.235 0 3.595-1.463 3.595-3.89 0-2.413-1.367-3.876-3.595-3.876-2.222 0-3.596 1.47-3.596 3.876 0 2.427 1.353 3.89 3.596 3.89zm0-1.388c-1.183 0-1.86-.916-1.86-2.495s.677-2.495 1.86-2.495c1.175 0 1.852.916 1.852 2.495s-.67 2.495-1.852 2.495zm5.304 1.237h1.696v-4.354c0-1.121.635-1.825 1.647-1.825 1.032 0 1.511.581 1.511 1.743v4.436h1.695v-4.833c0-1.777-.909-2.782-2.577-2.782-1.114 0-1.866.506-2.222 1.34h-.116v-1.196h-1.634zm9.824.137c.649 0 1.093-.458 1.093-1.066 0-.602-.444-1.06-1.093-1.06-.643 0-1.094.458-1.094 1.06 0 .608.451 1.066 1.094 1.066zm4.607 0c.649 0 1.094-.458 1.094-1.066 0-.602-.445-1.06-1.094-1.06-.643 0-1.094.458-1.094 1.06 0 .608.451 1.066 1.094 1.066zm4.607 0c.65 0 1.094-.458 1.094-1.066 0-.602-.444-1.06-1.094-1.06-.642 0-1.093.458-1.093 1.06 0 .608.451 1.066 1.093 1.066z"/></g></svg>