<svg width="23" height="20" viewBox="0 0 23 20" fill="none" xmlns="http://www.w3.org/2000/svg">
<path d="M0.721818 5.92715e-05C0.617817 -0.00128207 0.514784 0.0201579 0.419952 0.0628741C0.32512 0.10559 0.240788 0.168547 0.172876 0.247325C0.104965 0.326102 0.0551206 0.41879 0.0268431 0.518881C-0.00143439 0.618972 -0.00745964 0.724039 0.00919041 0.826707L3.03429 19.1911C3.07198 19.4158 3.18765 19.6201 3.36099 19.768C3.53432 19.9159 3.75423 19.9981 3.98209 19.9999H18.4947C18.6655 20.0021 18.8315 19.9429 18.9623 19.833C19.0931 19.7232 19.18 19.57 19.2074 19.4013L22.2325 0.83027C22.2491 0.727603 22.2431 0.622535 22.2148 0.522444C22.1865 0.422353 22.1367 0.329665 22.0688 0.250888C22.0009 0.17211 21.9165 0.109154 21.8217 0.0664374C21.7269 0.0237211 21.6238 0.00228097 21.5198 0.00362232L0.721818 5.92715e-05ZM13.46 13.2727H8.82795L7.57373 6.72013H14.5824L13.46 13.2727Z" fill="#2684FF"/>
</svg>
