<svg width="48" height="48" viewBox="0 0 48 48" fill="none" xmlns="http://www.w3.org/2000/svg">
<path d="M39 38V45C39 46.0285 38.0629 47 37 47H3C1.93708 47 1 46.0285 1 45V3C1 1.97146 1.93708 1 3 1H37C38.0629 1 39 1.97146 39 3V15" stroke="#79B8FF" stroke-width="2" stroke-linecap="round"/>
<path d="M1.43024 6H38.4302" stroke="#79B8FF" stroke-width="2" stroke-linecap="square"/>
<path d="M5 28.5C5 29.0523 5.44772 29.5 6 29.5C6.55228 29.5 7 29.0523 7 28.5H5ZM9 27C9.55228 27 10 26.5523 10 26C10 25.4477 9.55228 25 9 25V27ZM8 26V25V26ZM12 25C11.4477 25 11 25.4477 11 26C11 26.5523 11.4477 27 12 27V25ZM13 27C13.5523 27 14 26.5523 14 26C14 25.4477 13.5523 25 13 25V27ZM35 37.5C35 36.9477 34.5523 36.5 34 36.5C33.4477 36.5 33 36.9477 33 37.5H35ZM31 39C30.4477 39 30 39.4477 30 40C30 40.5523 30.4477 41 31 41V39ZM27 41C27.5523 41 28 40.5523 28 40C28 39.4477 27.5523 39 27 39V41ZM23 39C22.4477 39 22 39.4477 22 40C22 40.5523 22.4477 41 23 41V39ZM18 41C18.5523 41 19 40.5523 19 40C19 39.4477 18.5523 39 18 39V41ZM13 39C12.4477 39 12 39.4477 12 40C12 40.5523 12.4477 41 13 41V39ZM9 41C9.55228 41 10 40.5523 10 40C10 39.4477 9.55228 39 9 39V41ZM7 37.5C7 36.9477 6.55228 36.5 6 36.5C5.44772 36.5 5 36.9477 5 37.5H7ZM5 34C5 34.5523 5.44772 35 6 35C6.55228 35 7 34.5523 7 34H5ZM7 32C7 31.4477 6.55228 31 6 31C5.44772 31 5 31.4477 5 32H7ZM7 28.5V28H5V28.5H7ZM8 27H9V25H8V27ZM7 28C7 27.4477 7.44772 27 8 27V25C6.34315 25 5 26.3431 5 28H7ZM12 27H13V25H12V27ZM33 37.5V38H35V37.5H33ZM32 39H31V41H32V39ZM33 38C33 38.5523 32.5523 39 32 39V41C33.6569 41 35 39.6569 35 38H33ZM27 39H23V41H27V39ZM18 39H13V41H18V39ZM9 39H8V41H9V39ZM7 38V37.5H5V38H7ZM8 39C7.44772 39 7 38.5523 7 38H5C5 39.6569 6.34315 41 8 41V39ZM7 34V32H5V34H7Z" fill="#79B8FF"/>
<path fill-rule="evenodd" clip-rule="evenodd" d="M17 21C17 19.8954 17.8954 19 19 19H45C46.1046 19 47 19.8954 47 21V32C47 33.1045 46.1046 34 45 34H19C17.8954 34 17 33.1045 17 32V21Z" stroke="#2088FF" stroke-width="2" stroke-linecap="round" stroke-linejoin="round"/>
<path d="M6 14H22" stroke="#2088FF" stroke-width="2" stroke-linecap="round"/>
<path d="M27 14H34" stroke="#79B8FF" stroke-width="2" stroke-linecap="round"/>
<path d="M6 19H13" stroke="#79B8FF" stroke-width="2" stroke-linecap="round"/>
<path d="M37 24H42" stroke="#2088FF" stroke-width="2" stroke-linecap="round"/>
<path d="M32 29H43" stroke="#79B8FF" stroke-width="2" stroke-linecap="round"/>
<path d="M22 24H32" stroke="#79B8FF" stroke-width="2" stroke-linecap="round"/>
<path d="M22 29H27" stroke="#2088FF" stroke-width="2" stroke-linecap="round"/>
</svg>
