<svg width="56" height="56" xmlns="http://www.w3.org/2000/svg"><g fill="none" fill-rule="evenodd"><path d="M32 37h13a2 2 0 012 2v5a2 2 0 01-2 2H32a2 2 0 01-2-2v-5a2 2 0 012-2z" stroke="#79B8FF" stroke-width="2"/><path d="M34 39a1 1 0 11-.001 2.001A1 1 0 0134 39" fill="#2088FF"/><path d="M37 39a1 1 0 11-.001 2.001A1 1 0 0137 39m-3 3a1 1 0 11-.001 2.001A1 1 0 0134 42m3 0a1 1 0 11-.001 2.001A1 1 0 0137 42m3-3a1 1 0 11-.001 2.001A1 1 0 0140 39m0 3a1 1 0 11-.001 2.001A1 1 0 0140 42m3-3a1 1 0 11-.001 2.001A1 1 0 0143 39m0 3a1 1 0 11-.001 2.001A1 1 0 0143 42" fill="#79B8FF"/><path stroke="#79B8FF" stroke-width="2" stroke-linecap="round" stroke-linejoin="round" d="M13 28h9M13 32h5M13 36h5M31 18h20M31 23h2.006m3.975 0h3.045m3.98 0h2.986"/><path d="M34 28h12a1 1 0 011 1v2a1 1 0 01-1 1H32" stroke="#79B8FF" stroke-width="2" stroke-linecap="round"/><path d="M31.014 13H49a2 2 0 012 2v34a2 2 0 01-2 2H11a2 2 0 01-2-2V28.05" stroke="#79B8FF" stroke-width="2" stroke-linecap="round" stroke-linejoin="round"/><path d="M28.7 26c.316 1.122.572 1.372 1.71 1.678-1.136.314-1.39.566-1.7 1.69-.317-1.121-.573-1.372-1.71-1.679 1.135-.313 1.389-.566 1.7-1.689zM5.7 4c.316 1.122.572 1.372 1.71 1.678-1.136.314-1.39.566-1.7 1.69C5.394 6.247 5.138 5.996 4 5.69 5.135 5.376 5.389 5.123 5.7 4zM21 20c-.155-1.681-1.663-3-3.5-3-1.836 0-3.343 1.317-3.5 3m3.5-8a2.5 2.5 0 110 5 2.5 2.5 0 010-5z" stroke="#2088FF" stroke-width="2" stroke-linecap="round" stroke-linejoin="round"/><path d="M11 9h13a2 2 0 012 2v10a2 2 0 01-2 2H11a2 2 0 01-2-2V11a2 2 0 012-2z" stroke="#2088FF" stroke-width="2" stroke-linecap="round" stroke-linejoin="round"/><path d="M29 6a1 1 0 11-.001 2.001A1 1 0 0129 6M6 25a1 1 0 11-.001 2.001A1 1 0 016 25" fill="#79B8FF"/></g></svg>