<svg viewBox="0 0 18 18" fill="none" xmlns="http://www.w3.org/2000/svg">
<g clip-path="url(#clip0)">
<path d="M12.0857 11.6839C12.0375 11.6035 12.0535 11.5232 12.0535 11.4428C12.0535 9.70709 12.0535 7.97138 12.0535 6.23566C12.0535 6.0428 12.1178 5.94638 12.2625 5.86602C13.7893 4.99816 15.316 4.11423 16.8267 3.2303C16.891 3.19816 16.9392 3.14995 17.0517 3.16602C17.0517 3.2303 17.0517 3.31066 17.0517 3.39102C17.0517 5.12673 17.0517 6.86245 17.0517 8.59816C17.0517 8.7428 17.0357 8.8553 16.891 8.93566C15.316 9.83566 13.7571 10.7357 12.1821 11.6357C12.15 11.6678 12.1178 11.6678 12.0857 11.6839Z" fill="#3D3DA7"/>
<path d="M0.948207 2.76427C0.948207 1.91249 0.948207 1.0607 0.948207 0.192846C0.948207 -0.0803688 0.948207 -0.0803688 1.20535 0.0642741C2.69999 0.91606 4.19464 1.78392 5.68928 2.6357C5.83392 2.71606 5.88214 2.81249 5.88214 2.9732C5.88214 4.70892 5.88214 6.42856 5.88214 8.16428C5.88214 8.40535 5.80178 8.40535 5.62499 8.30892C4.16249 7.45713 2.68392 6.60535 1.20535 5.76963C0.996422 5.64106 0.916065 5.49642 0.932136 5.25535C0.964279 4.41963 0.948207 3.59999 0.948207 2.76427Z" fill="#564BDE"/>
<path d="M6.50889 12.4071C6.50889 11.5393 6.50889 10.6714 6.50889 9.81961C6.50889 9.64282 6.52496 9.56247 6.71782 9.69104C8.21246 10.5589 9.72318 11.4268 11.2178 12.2946C11.3785 12.391 11.4428 12.4875 11.4428 12.6643C11.4428 14.4 11.4428 16.1196 11.4428 17.8553C11.4428 18.1125 11.3625 18.0643 11.2017 17.9678C9.80353 17.1643 8.42139 16.3285 7.00711 15.5571C6.60532 15.3321 6.46068 15.091 6.47675 14.641C6.54103 13.8857 6.50889 13.1464 6.50889 12.4071Z" fill="#564BDE"/>
<path d="M11.4428 8.80709C11.4428 9.67495 11.4428 10.5267 11.4428 11.3946C11.4428 11.6196 11.3785 11.6357 11.2018 11.5232C9.70711 10.6553 8.21247 9.80352 6.71783 8.95174C6.55711 8.87138 6.49283 8.75888 6.49283 8.56602C6.49283 6.84638 6.49283 5.12674 6.49283 3.40709C6.49283 3.18209 6.54104 3.14995 6.7339 3.26245C8.24461 4.13031 9.75533 4.99817 11.266 5.86602C11.4107 5.94638 11.4268 6.07495 11.4268 6.21959C11.4428 7.10352 11.4428 7.95531 11.4428 8.80709Z" fill="#564BDE"/>
</g>
</svg>
