<svg fill="none" height="593" viewBox="0 0 926 593" width="926" xmlns="http://www.w3.org/2000/svg" xmlns:xlink="http://www.w3.org/1999/xlink"><filter id="a" color-interpolation-filters="sRGB" filterUnits="userSpaceOnUse" height="695.094" width="620.094" x="485.902" y="452.039"><feFlood flood-opacity="0" result="BackgroundImageFix"/><feColorMatrix in="SourceAlpha" type="matrix" values="0 0 0 0 0 0 0 0 0 0 0 0 0 0 0 0 0 0 127 0"/><feOffset dy="10.3772"/><feGaussianBlur stdDeviation="4.15089"/><feColorMatrix type="matrix" values="0 0 0 0 0 0 0 0 0 0 0 0 0 0 0 0 0 0 0.0365489 0"/><feBlend in2="BackgroundImageFix" mode="normal" result="effect1_dropShadow"/><feColorMatrix in="SourceAlpha" type="matrix" values="0 0 0 0 0 0 0 0 0 0 0 0 0 0 0 0 0 0 127 0"/><feOffset dy="24.9379"/><feGaussianBlur stdDeviation="9.97515"/><feColorMatrix type="matrix" values="0 0 0 0 0 0 0 0 0 0 0 0 0 0 0 0 0 0 0.0525061 0"/><feBlend in2="effect1_dropShadow" mode="normal" result="effect2_dropShadow"/><feColorMatrix in="SourceAlpha" type="matrix" values="0 0 0 0 0 0 0 0 0 0 0 0 0 0 0 0 0 0 127 0"/><feOffset dy="46.9558"/><feGaussianBlur stdDeviation="18.7823"/><feColorMatrix type="matrix" values="0 0 0 0 0 0 0 0 0 0 0 0 0 0 0 0 0 0 0.065 0"/><feBlend in2="effect2_dropShadow" mode="normal" result="effect3_dropShadow"/><feColorMatrix in="SourceAlpha" type="matrix" values="0 0 0 0 0 0 0 0 0 0 0 0 0 0 0 0 0 0 127 0"/><feOffset dy="83.7612"/><feGaussianBlur stdDeviation="33.5045"/><feColorMatrix type="matrix" values="0 0 0 0 0 0 0 0 0 0 0 0 0 0 0 0 0 0 0.0774939 0"/><feBlend in2="effect3_dropShadow" mode="normal" result="effect4_dropShadow"/><feColorMatrix in="SourceAlpha" type="matrix" values="0 0 0 0 0 0 0 0 0 0 0 0 0 0 0 0 0 0 127 0"/><feOffset dy="156.666"/><feGaussianBlur stdDeviation="62.6664"/><feColorMatrix type="matrix" values="0 0 0 0 0 0 0 0 0 0 0 0 0 0 0 0 0 0 0.0934511 0"/><feBlend in2="effect4_dropShadow" mode="normal" result="effect5_dropShadow"/><feColorMatrix in="SourceAlpha" type="matrix" values="0 0 0 0 0 0 0 0 0 0 0 0 0 0 0 0 0 0 127 0"/><feOffset dy="375"/><feGaussianBlur stdDeviation="150"/><feColorMatrix type="matrix" values="0 0 0 0 0 0 0 0 0 0 0 0 0 0 0 0 0 0 0.13 0"/><feBlend in2="effect5_dropShadow" mode="normal" result="effect6_dropShadow"/><feBlend in="SourceGraphic" in2="effect6_dropShadow" mode="normal" result="shape"/></filter><linearGradient id="b" gradientUnits="userSpaceOnUse" x1="795.949" x2="795.949" y1="462.086" y2="431.945"><stop offset="0" stop-color="#ffd33d"/><stop offset="1" stop-color="#ffd33d" stop-opacity="0"/></linearGradient><clipPath id="c"><path d="m0 0h926v593h-926z"/></clipPath><g clip-path="url(#c)"><path d="m0 0h20.0939v20.0939h-20.0939z" fill="#fafbfc" transform="matrix(1 -.00000009 -.00000009 -1 312.784 501.869)"/><path d="m0 0h20.0939v20.0939h-20.0939z" fill="#e1e4e8" transform="matrix(1 -.00000009 -.00000009 -1 342.034 532.869)"/><path d="m0 0h20.0939v20.0939h-20.0939z" fill="#fafbfc" transform="matrix(1 -.00000009 -.00000009 -1 312.034 592.869)"/><path d="m424.211 90.207h20.0939v20.0939h-20.0939z" fill="#fafbfc"/><path d="m424.211 210.771h20.0939v20.0939h-20.0939z" fill="#fafbfc"/><path d="m424.211 271.053h20.0939v20.0939h-20.0939z" fill="#fafbfc"/><path d="m514.634 301.193h20.0939v20.0939h-20.0939z" fill="#fafbfc"/><path d="m514.634 482.039h20.0939v20.0939h-20.0939z" fill="#fafbfc"/><path d="m514.634 90.207h20.0939v20.0939h-20.0939z" fill="#e1e4e8"/><path d="m514.634 210.771h20.0939v20.0939h-20.0939z" fill="#fafbfc"/><path d="m454.353 60.0664h20.0939v20.0939h-20.0939z" fill="#fafbfc"/><path d="m454.353 301.193h20.0939v20.0939h-20.0939z" fill="#fafbfc"/><path d="m454.353 120.349h20.0939v20.0939h-20.0939z" fill="#fafbfc"/><path d="m454.353 331.335h20.0939v20.0939h-20.0939z" fill="#f1f2f2"/><path d="m544.774 180.63h20.0939v20.0939h-20.0939z" fill="#fafbfc"/><path d="m544.774 240.912h20.0939v20.0939h-20.0939z" fill="#fafbfc"/><path d="m544.774 331.335h20.0939v20.0939h-20.0939z" fill="#fafbfc"/><path d="m544.774 210.771h20.0939v20.0939h-20.0939z" fill="#f3f4f6"/><g fill="#fafbfc"><path d="m544.774 271.053h20.0939v20.0939h-20.0939z"/><path d="m484.493 180.63h20.0939v20.0939h-20.0939z"/><path d="m484.493 482.039h20.0939v20.0939h-20.0939z"/><path d="m484.493 90.207h20.0939v20.0939h-20.0939z"/><path d="m484.493 331.335h20.0939v20.0939h-20.0939z"/><path d="m484.493 150.489h20.0939v20.0939h-20.0939z"/><path d="m394.07 60.0664h20.0939v20.0939h-20.0939z"/><path d="m394.07 301.193h20.0939v20.0939h-20.0939z"/><path d="m394.07 180.63h20.0939v20.0939h-20.0939z"/><path d="m394.07 482.039h20.0939v20.0939h-20.0939z"/><path d="m394.07 331.335h20.0939v20.0939h-20.0939z"/><path d="m394.07 150.489h20.0939v20.0939h-20.0939z"/><path d="m394.07 391.616h20.0939v20.0939h-20.0939z"/><path d="m574.915 301.193h20.0939v20.0939h-20.0939z"/><path d="m574.915 331.335h20.0939v20.0939h-20.0939z"/><path d="m574.915 150.489h20.0939v20.0939h-20.0939z"/><path d="m574.915 271.053h20.0939v20.0939h-20.0939z"/><path d="m605.057 301.193h20.0939v20.0939h-20.0939z"/></g><path d="m605.057 180.63h20.0939v20.0939h-20.0939z" fill="#f3f4f6"/><path d="m605.057 240.912h20.0939v20.0939h-20.0939z" fill="#f3f4f6"/><path d="m605.057 331.335h20.0939v20.0939h-20.0939z" fill="#fafbfc"/><path d="m605.057 210.771h20.0939v20.0939h-20.0939z" fill="#f3f4f6"/><path d="m785.902 301.193h20.0939v20.0939h-20.0939z" fill="#fafbfc"/><path d="m785.902 180.63h20.0939v20.0939h-20.0939z" fill="#fafbfc"/><path d="m785.902 361.476h20.0939v20.0939h-20.0939z" fill="#fafbfc"/><path d="m785.902 240.912h20.0939v20.0939h-20.0939z" fill="#fafbfc"/><path d="m785.902 451.898h20.0939v20.0939h-20.0939z" fill="#fafbfc"/><path d="m785.902 391.616h20.0939v20.0939h-20.0939z" fill="#fafbfc"/><path d="m785.902 271.053h20.0939v20.0939h-20.0939z" fill="#fafbfc"/><path d="m695.479 60.0664h20.0939v20.0939h-20.0939z" fill="#fafbfc"/><path d="m695.479 301.193h20.0939v20.0939h-20.0939z" fill="#fafbfc"/><path d="m695.479 180.63h20.0939v20.0939h-20.0939z" fill="#e1e4e8"/><path d="m695.479 120.349h20.0939v20.0939h-20.0939z" fill="#fafbfc"/><path d="m695.479 361.476h20.0939v20.0939h-20.0939z" fill="#fafbfc"/><path d="m695.479 331.335h20.0939v20.0939h-20.0939z" fill="#fafbfc"/><path d="m695.479 210.771h20.0939v20.0939h-20.0939z" fill="#fafbfc"/><path d="m695.479 391.616h20.0939v20.0939h-20.0939z" fill="#fafbfc"/><path d="m695.479 271.053h20.0939v20.0939h-20.0939z" fill="#fafbfc"/><path d="m635.197 301.193h20.0939v20.0939h-20.0939z" fill="#fafbfc"/><path d="m635.197 180.63h20.0939v20.0939h-20.0939z" fill="#fafbfc"/><path d="m635.197 120.349h20.0939v20.0939h-20.0939z" fill="#fafbfc"/><path d="m635.197 361.476h20.0939v20.0939h-20.0939z" fill="#fafbfc"/><path d="m635.197 240.912h20.0939v20.0939h-20.0939z" fill="#fafbfc"/><path d="m635.197 90.207h20.0939v20.0939h-20.0939z" fill="#fafbfc"/><g filter="url(#a)"><path d="m785.902 452.039h20.0939v20.0939h-20.0939z" fill="url(#b)"/></g><path d="m816.043 421.758h20.0939v20.0939h-20.0939z" fill="#fafbfc"/><path d="m816.043 331.335h20.0939v20.0939h-20.0939z" fill="#fafbfc"/><path d="m816.043 391.616h20.0939v20.0939h-20.0939z" fill="#fafbfc"/><path d="m725.621 301.193h20.0939v20.0939h-20.0939z" fill="#fafbfc"/><path d="m725.621 180.63h20.0939v20.0939h-20.0939z" fill="#fafbfc"/><path d="m725.621 120.349h20.0939v20.0939h-20.0939z" fill="#fafbfc"/><path d="m725.621 240.912h20.0939v20.0939h-20.0939z" fill="#fafbfc"/><path d="m725.621 482.039h20.0939v20.0939h-20.0939z" fill="#fafbfc"/><path d="m725.621 331.335h20.0939v20.0939h-20.0939z" fill="#fafbfc"/><path d="m725.621 210.771h20.0939v20.0939h-20.0939z" fill="#fafbfc"/><path d="m725.621 150.489h20.0939v20.0939h-20.0939z" fill="#fafbfc"/><path d="m725.621 391.616h20.0939v20.0939h-20.0939z" fill="#fafbfc"/><path d="m665.338 301.193h20.0939v20.0939h-20.0939z" fill="#fafbfc"/><path d="m665.338 421.758h20.0939v20.0939h-20.0939z" fill="#fafbfc"/><path d="m665.338 361.476h20.0939v20.0939h-20.0939z" fill="#f3f4f6"/><path d="m665.338 240.912h20.0939v20.0939h-20.0939z" fill="#fafbfc"/><path d="m665.338 331.335h20.0939v20.0939h-20.0939z" fill="#fafbfc"/><path d="m665.338 210.771h20.0939v20.0939h-20.0939z" fill="#fafbfc"/><path d="m665.338 150.489h20.0939v20.0939h-20.0939z" fill="#fafbfc"/><path d="m665.338 391.616h20.0939v20.0939h-20.0939z" fill="#f3f4f6"/><path d="m846.185 60.0664h20.0939v20.0939h-20.0939z" fill="#fafbfc"/><path d="m906.185 301.193h20.0939v20.0939h-20.0939z" fill="#f1f2f2"/><path d="m876.325 90.207h20.0939v20.0939h-20.0939z" fill="#fafbfc"/><path d="m846.185 331.335h20.0939v20.0939h-20.0939z" fill="#fafbfc"/><path d="m846.185 451.898h20.0939v20.0939h-20.0939z" fill="#f9fafb"/><path d="m846.185 271.053h20.0939v20.0939h-20.0939z" fill="#fafbfc"/><path d="m755.762 301.193h20.0939v20.0939h-20.0939z" fill="#fafbfc"/><path d="m755.762 361.476h20.0939v20.0939h-20.0939z" fill="#fafbfc"/><path d="m755.762 240.912h20.0939v20.0939h-20.0939z" fill="#fafbfc"/><path d="m755.762 90.207h20.0939v20.0939h-20.0939z" fill="#fafbfc"/><path d="m755.762 331.335h20.0939v20.0939h-20.0939z" fill="#f1f2f2"/><path d="m755.762 210.771h20.0939v20.0939h-20.0939z" fill="#fafbfc"/><path d="m755.762 451.898h20.0939v20.0939h-20.0939z" fill="#fafbfc"/><path d="m755.762 150.489h20.0939v20.0939h-20.0939z" fill="#fafbfc"/><path d="m755.762 271.053h20.0939v20.0939h-20.0939z" fill="#fafbfc"/><path d="m92.1406 29.9863h20.0939v20.0939h-20.0939z" fill="#fafbfc"/><path d="m182.563 60.127h20.0939v20.0939h-20.0939z" fill="#fafbfc"/><path d="m182.563 240.973h20.0939v20.0939h-20.0939z" fill="#fafbfc"/><path d="m122.282 60.127h20.0939v20.0939h-20.0939z" fill="#fafbfc"/><path d="m122.282 240.973h20.0939v20.0939h-20.0939z" fill="#fafbfc"/><path d="m122.282 90.2686h20.0939v20.0939h-20.0939z" fill="#f1f2f2"/><path d="m212.704-.154297h20.0939v20.0939h-20.0939z" fill="#fafbfc"/><path d="m212.704 90.2686h20.0939v20.0939h-20.0939z" fill="#fafbfc"/><path d="m212.704 29.9863h20.0939v20.0939h-20.0939z" fill="#fafbfc"/><path d="m152.423 240.973h20.0939v20.0939h-20.0939z" fill="#fafbfc"/><path d="m152.423 90.2686h20.0939v20.0939h-20.0939z" fill="#fafbfc"/><path d="m62 240.973h20.0939v20.0939h-20.0939z" fill="#fafbfc"/><path d="m62 90.2686h20.0939v20.0939h-20.0939z" fill="#fafbfc"/><path d="m242.845 60.127h20.0939v20.0939h-20.0939z" fill="#fafbfc"/><path d="m242.845 90.2686h20.0939v20.0939h-20.0939z" fill="#fafbfc"/><path d="m272.986-.154297h20.0939v20.0939h-20.0939z" fill="#f3f4f6"/><path d="m272.986 90.2686h20.0939v20.0939h-20.0939z" fill="#fafbfc"/><path d="m453.832 240.973h20.0939v20.0939h-20.0939z" fill="#fafbfc"/><path d="m363.409 90.2686h20.0939v20.0939h-20.0939z" fill="#fafbfc"/><path d="m363.409 150.55h20.0939v20.0939h-20.0939z" fill="#fafbfc"/><path d="m363.409 29.9863h20.0939v20.0939h-20.0939z" fill="#fafbfc"/><path d="m303.127 120.409h20.0939v20.0939h-20.0939z" fill="#fafbfc"/><path d="m303.127-.154297h20.0939v20.0939h-20.0939z" fill="#fafbfc"/><path d="m393.551 60.127h20.0939v20.0939h-20.0939z" fill="#fafbfc"/><path d="m393.551-.154297h20.0939v20.0939h-20.0939z" fill="#fafbfc"/><path d="m393.551 240.973h20.0939v20.0939h-20.0939z" fill="#fafbfc"/><path d="m333.268 180.691h20.0939v20.0939h-20.0939z" fill="#fafbfc"/><path d="m333.268 120.409h20.0939v20.0939h-20.0939z" fill="#f3f4f6"/><path d="m333.268-.154297h20.0939v20.0939h-20.0939z" fill="#fafbfc"/><path d="m333.268 150.55h20.0939v20.0939h-20.0939z" fill="#f3f4f6"/><path d="m514.114 60.127h20.0939v20.0939h-20.0939z" fill="#f1f2f2"/><path d="m423.691 29.9863h20.0939v20.0939h-20.0939z" fill="#fafbfc"/></g></svg>