<svg viewBox="0 0 16 16" fill="none" xmlns="http://www.w3.org/2000/svg"><path d="M1.283 5.683H3.65c.695.005 1.198.205 1.51.597.312.393.415.929.31 1.609-.042.31-.133.615-.275.914a2.716 2.716 0 01-.565.808c-.294.305-.61.498-.945.58a4.375 4.375 0 01-1.042.123h-1.06l-.336 1.67H.02l1.263-6.301zm1.033 1.001l-.53 2.637c.036.006.07.009.106.009h.124c.565.006 1.036-.05 1.413-.167.377-.123.63-.55.76-1.283.105-.615 0-.97-.318-1.064-.313-.093-.704-.137-1.175-.132a2.46 2.46 0 01-.203.01h-.186l.01-.01zM6.868 4.004h1.219l-.345 1.68h1.095c.601.01 1.048.134 1.343.368.3.235.389.68.265 1.336l-.592 2.927H8.617l.565-2.795c.059-.293.041-.501-.053-.624s-.297-.185-.61-.185l-.98-.008-.724 3.612H5.596l1.272-6.31zM11.754 5.683h2.367c.694.005 1.198.205 1.51.597.312.393.415.929.31 1.609-.042.31-.133.615-.275.914a2.716 2.716 0 01-.565.808c-.294.305-.61.498-.945.58a4.375 4.375 0 01-1.042.123h-1.06l-.336 1.67h-1.227l1.263-6.301zm1.033 1.001l-.53 2.637c.036.006.07.009.106.009h.124c.565.006 1.036-.05 1.413-.167.377-.123.63-.55.76-1.283.105-.615 0-.97-.319-1.064-.311-.093-.703-.137-1.174-.132-.07.006-.139.01-.203.01h-.186l.01-.01z" fill="#58379F"/></svg>
