<svg viewBox="0 0 18 18" fill="none" xmlns="http://www.w3.org/2000/svg">
<path d="M1.29715 7.96201C1.26367 7.96201 1.2553 7.94512 1.27204 7.91979L1.44778 7.69179C1.46452 7.66646 1.50637 7.64957 1.53984 7.64957H4.52748C4.56096 7.64957 4.56933 7.6749 4.55259 7.70023L4.41032 7.91979C4.39358 7.94512 4.35174 7.97046 4.32663 7.97046L1.29715 7.96201Z" fill="#2DBCAF"/>
<path d="M0.0334751 8.7389C6.98343e-08 8.7389 -0.00836877 8.72201 0.00836872 8.69668L0.184112 8.46867C0.20085 8.44334 0.242694 8.42645 0.276169 8.42645H4.09232C4.12579 8.42645 4.14253 8.45179 4.13416 8.47712L4.06721 8.67979C4.05884 8.71356 4.02537 8.73045 3.99189 8.73045L0.0334751 8.7389Z" fill="#2DBCAF"/>
<path d="M2.05862 9.51578C2.02515 9.51578 2.01678 9.49045 2.03352 9.46512L2.15068 9.25401C2.16742 9.22867 2.20089 9.20334 2.23437 9.20334H3.90812C3.94159 9.20334 3.95833 9.22867 3.95833 9.26245L3.94159 9.46512C3.94159 9.49889 3.90811 9.52423 3.88301 9.52423L2.05862 9.51578Z" fill="#2DBCAF"/>
<path fill-rule="evenodd" clip-rule="evenodd" d="M9.96469 8.01579C10.2106 7.94989 10.4521 7.88518 10.7455 7.81001C10.8459 7.78468 10.8794 7.74245 10.8291 7.66645C10.6199 7.17668 10.3019 6.77134 9.85836 6.47579C9.18049 6.01134 8.42731 5.91845 7.64064 6.06201C6.67824 6.23934 5.89158 6.73757 5.2974 7.5229C4.74506 8.24912 4.47726 9.07668 4.58605 9.99712C4.67811 10.774 5.0296 11.3989 5.64888 11.8718C6.31838 12.3785 7.07994 12.5389 7.90008 12.4291C8.89596 12.294 9.68262 11.7958 10.2852 10.9936C10.4218 10.8118 10.5388 10.6208 10.6367 10.4213C10.7777 10.9356 11.0616 11.3773 11.4736 11.7367C12.0594 12.2434 12.754 12.4629 13.5156 12.4798C13.5902 12.4711 13.6658 12.4644 13.7421 12.4576C13.8882 12.4447 14.0366 12.4315 14.1851 12.4038C14.9634 12.2434 15.6413 11.8887 16.1936 11.3229C16.9719 10.5291 17.2983 9.60024 17.156 8.46024C17.0472 7.64957 16.6371 7.03313 15.976 6.57713C15.2479 6.07891 14.4445 5.99446 13.5909 6.14646C12.595 6.32379 11.8586 6.74602 11.2477 7.55668C10.9859 7.9024 10.7896 8.26778 10.6687 8.65445H7.97539C7.84986 8.65445 7.79128 8.7389 7.76618 8.78957C7.64901 9.00912 7.44816 9.44823 7.33937 9.71001C7.28079 9.85357 7.32263 9.96334 7.49838 9.96334H9.11354C9.09193 9.99388 9.07142 10.0233 9.05161 10.0517C8.99471 10.1334 8.94345 10.2069 8.88759 10.2758C8.51099 10.7065 8.03398 10.9091 7.4649 10.8331C6.80377 10.7402 6.34349 10.1829 6.33512 9.50734C6.32675 8.82334 6.61966 8.27445 7.18873 7.9029C7.66575 7.59045 8.17624 7.51445 8.70348 7.77623C8.87922 7.86068 8.97127 7.95357 9.09681 8.09712C9.20146 8.21897 9.21319 8.21579 9.32567 8.1853C9.33012 8.1841 9.33472 8.18285 9.3395 8.18157C9.56969 8.12162 9.76859 8.06833 9.96469 8.01579ZM15.5015 8.97793C15.5032 9.0063 15.5049 9.03619 15.5074 9.06824C15.4655 9.79446 15.1057 10.3349 14.4445 10.6811C14.001 10.9091 13.5407 10.9345 13.0804 10.7318C12.4779 10.4616 12.1599 9.79446 12.3105 9.13579C12.4946 8.34202 12.9967 7.84379 13.775 7.66646C14.5701 7.48068 15.3316 7.95357 15.4823 8.78957C15.4941 8.84936 15.4976 8.90915 15.5015 8.97793Z" fill="#2DBCAF"/>
</svg>
