<svg viewBox="0 0 16 16" fill="none" xmlns="http://www.w3.org/2000/svg"><path d="M12.438 14.063h-1.776a.18.18 0 01-.137-.063c-.4-.5-.837-.963-1.362-1.325-.263-.188-.538-.35-.85-.438-.25-.075-.513-.112-.775-.05a1.435 1.435 0 00-.675.4c-.238.238-.4.526-.525.838-.075.188-.138.375-.2.563-.013.024-.013.05-.025.075H4.688c-.013-.075-.025-.15-.038-.238-.05-.25-.125-.5-.25-.725a1.369 1.369 0 00-.35-.45.851.851 0 00-.562-.213c-.163 0-.3.063-.438.15a1.483 1.483 0 00-.45.476c-.175.274-.275.587-.362.9-.013.025-.013.062-.025.1H.35l-.037-.276c-.063-.587-.1-1.175-.088-1.762a9.367 9.367 0 01.25-2.037c.15-.613.363-1.188.688-1.713A3.754 3.754 0 013 6.737c.025-.012.038-.012.063-.024h.025l.037.074c.225.5.463.988.75 1.438.175.287.425.5.738.6.337.113.662.075.987-.063.288-.125.525-.312.75-.524.263-.25.475-.525.688-.825.012-.013.012-.026.012-.038a.544.544 0 01-.087.075 4.6 4.6 0 01-1.038.8c-.187.113-.4.2-.612.238-.313.062-.6.024-.85-.2-.1-.088-.175-.188-.25-.288-.375-.588-.7-1.2-1-1.825a1.071 1.071 0 01-.125-.4.679.679 0 01.187-.563c.113-.112.238-.2.388-.274.275-.138.562-.238.85-.338a7.694 7.694 0 011.312-.3 5.938 5.938 0 011.563-.025c1.125.112 2.125.525 3.037 1.188.313.224.637.412 1.012.524 1.488.476 2.676-.55 2.95-1.6.075-.287.1-.574-.012-.85-.162-.425-.45-.75-.912-.874a1.366 1.366 0 00-1.013.125c-.063.037-.125.062-.188.087-.15.05-.25.013-.325-.125-.1-.175-.175-.35-.262-.538-.038-.075-.025-.137.012-.2.038-.087.1-.15.176-.212.187-.15.412-.25.662-.3a2.531 2.531 0 011.737.225 2.38 2.38 0 011.025.962c.238.4.4.826.475 1.288.05.363.05.712.013 1.075a6.344 6.344 0 01-.5 1.788c-.325.75-.7 1.474-1.162 2.15-.226.325-.463.637-.688.95-.238.337-.475.675-.65 1.05a4.342 4.342 0 00-.425 1.524 5.64 5.64 0 00.063 1.375c.012.075.024.125.024.175zm-1.026-6.426c.038.3-.062.5-.337.613a.505.505 0 01-.575-.162c-.2-.263-.137-.5.088-.725a19.96 19.96 0 00-.663-.213c-.05.125-.075.313-.062.462.025.3.137.55.387.713.262.175.563.25.875.188.325-.063.575-.25.75-.526.037-.05.063-.1.063-.175-.176-.05-.35-.112-.526-.175z" fill="#02303A"/></svg>
