<svg viewBox="0 0 16 16" fill="none" xmlns="http://www.w3.org/2000/svg"><path d="M7.932.036c-4.052 0-3.799 1.757-3.799 1.757l.005 1.82h3.867v.547H2.602S.009 3.866.009 7.954c0 4.089 2.263 3.944 2.263 3.944h1.35V10S3.55 7.738 5.85 7.738h3.835s2.155.034 2.155-2.083v-3.5s.327-2.12-3.908-2.12zM5.8 1.26a.695.695 0 11.001 1.39.695.695 0 010-1.39z" fill="#387EB8"/><path d="M8.047 15.914c4.052 0 3.8-1.757 3.8-1.757l-.005-1.82H7.975v-.547h5.403s2.592.294 2.592-3.795c0-4.088-2.263-3.943-2.263-3.943h-1.35v1.897s.073 2.263-2.227 2.263H6.295S4.14 8.177 4.14 10.295v3.5s-.327 2.12 3.907 2.12zm2.132-1.224a.695.695 0 110-1.39.695.695 0 010 1.39z" fill="#FFE052"/></svg>
