<svg width="683" height="88" viewBox="0 0 683 88" fill="none" xmlns="http://www.w3.org/2000/svg">
<path fill-rule="evenodd" clip-rule="evenodd" d="M45.1129 0C20.188 0 0 20.188 0 45.1129C0 65.0754 12.9136 81.9364 30.846 87.9138C33.1016 88.3086 33.9475 86.9552 33.9475 85.771C33.9475 84.6995 33.8911 81.1469 33.8911 77.3687C22.5565 79.4551 19.6241 74.6055 18.7219 72.0679C18.2143 70.7709 16.0151 66.7671 14.0978 65.6957C12.5188 64.8498 10.2632 62.7634 14.0414 62.707C17.594 62.6506 20.1316 65.9777 20.9775 67.331C25.0377 74.1544 31.5227 72.2371 34.1167 71.0529C34.5114 68.1205 35.6956 66.1468 36.9926 65.019C26.955 63.8912 16.4662 60.0002 16.4662 42.7445C16.4662 37.8385 18.2143 33.7783 21.0903 30.6204C20.6392 29.4926 19.0602 24.8685 21.5414 18.6655C21.5414 18.6655 25.3196 17.4813 33.9475 23.2895C37.5565 22.2745 41.3911 21.767 45.2257 21.767C49.0603 21.767 52.8949 22.2745 56.5039 23.2895C65.1318 17.4249 68.91 18.6655 68.91 18.6655C71.3912 24.8685 69.8123 29.4926 69.3611 30.6204C72.2371 33.7783 73.9852 37.7821 73.9852 42.7445C73.9852 60.0566 63.4401 63.8912 53.4024 65.019C55.0378 66.4288 56.4476 69.1356 56.4476 73.3649C56.4476 79.3988 56.3912 84.2484 56.3912 85.771C56.3912 86.9552 57.237 88.3649 59.4927 87.9138C77.3123 81.9364 90.2259 65.019 90.2259 45.1129C90.2259 20.188 70.0378 0 45.1129 0Z" fill="url(#paint0_linear_359_12634)"/>
<path d="M144.016 76.2918C139.126 76.2918 134.753 75.5439 130.898 74.048C127.043 72.4945 123.764 70.3082 121.06 67.4889C118.413 64.6122 116.37 61.1888 114.932 57.2189C113.551 53.2489 112.861 48.8475 112.861 44.0145C112.861 38.8939 113.609 34.3486 115.105 30.3787C116.658 26.4087 118.816 23.0429 121.577 20.2812C124.397 17.5195 127.734 15.4195 131.589 13.9811C135.501 12.5427 139.845 11.8235 144.62 11.8235C150.259 11.8235 155.149 12.7441 159.292 14.5852C163.492 16.3688 166.829 18.9004 169.303 22.1799C171.835 25.4594 173.33 29.3142 173.791 33.7445H159.982C159.522 31.5581 158.573 29.6882 157.134 28.1348C155.753 26.5813 153.999 25.4018 151.87 24.5964C149.741 23.7333 147.324 23.3018 144.62 23.3018C140.996 23.3018 137.831 24.0785 135.127 25.632C132.423 27.1279 130.323 29.4293 128.827 32.5362C127.388 35.5856 126.669 39.4117 126.669 44.0145C126.669 47.4666 127.072 50.516 127.878 53.1626C128.683 55.8093 129.862 58.0244 131.416 59.808C132.969 61.534 134.811 62.8573 136.939 63.7779C139.126 64.6409 141.571 65.0725 144.275 65.0725C147.785 65.0725 150.805 64.4683 153.337 63.2601C155.926 61.9943 157.911 60.182 159.292 57.823C160.673 55.4641 161.363 52.7024 161.363 49.5379V47.1214L165.074 51.5229H144.016V41.9433H174.913V47.9845C174.913 52.2996 174.165 56.212 172.669 59.7217C171.23 63.1738 169.159 66.1369 166.455 68.6109C163.751 71.0849 160.5 72.9836 156.703 74.3069C152.905 75.6302 148.677 76.2918 144.016 76.2918Z" fill="url(#paint1_linear_359_12634)"/>
<path d="M178.282 75.5151V29.2567H190.968V75.5151H178.282ZM178.282 23.3018V12.6002H190.968V23.3018H178.282Z" fill="url(#paint2_linear_359_12634)"/>
<path d="M213.704 75.5151C210.597 75.5151 208.18 75.0548 206.454 74.1343C204.728 73.2137 203.52 71.9192 202.83 70.2506C202.197 68.5246 201.88 66.5108 201.88 64.2094V39.4405H193.595V29.2567H201.88V16.6565L214.481 15.4482V29.2567H223.801V39.4405H214.481V61.7929C214.481 63.1738 214.797 64.0944 215.43 64.5546C216.063 65.0149 216.983 65.2451 218.192 65.2451H223.801V75.5151H213.704Z" fill="url(#paint3_linear_359_12634)"/>
<path d="M227.837 75.5151V12.6002H241.301V39.5268L239.661 37.887H272.542L270.902 39.5268V12.6002H284.366V75.5151H270.902V47.7256L272.542 49.3653H239.661L241.301 47.7256V75.5151H227.837Z" fill="url(#paint4_linear_359_12634)"/>
<path d="M305.641 76.2918C302.074 76.2918 299.054 75.6014 296.58 74.2206C294.106 72.8397 292.236 70.7972 290.97 68.0931C289.762 65.3314 289.158 61.9943 289.158 58.0819V29.2567H301.844V54.7161C301.844 57.1326 302.132 59.1751 302.707 60.8436C303.34 62.5121 304.289 63.8067 305.555 64.7272C306.878 65.5903 308.576 66.0218 310.647 66.0218C312.776 66.0218 314.588 65.504 316.084 64.4683C317.58 63.4327 318.731 62.0806 319.536 60.4121C320.342 58.686 320.744 56.8161 320.744 54.8024V29.2567H333.431V75.5151H321.262L320.744 67.0574H320.14C319.047 70.0493 317.177 72.3507 314.531 73.9617C311.942 75.5151 308.978 76.2918 305.641 76.2918Z" fill="url(#paint5_linear_359_12634)"/>
<path d="M366.736 76.3781C364.377 76.3781 362.219 76.0042 360.263 75.2562C358.307 74.5083 356.61 73.4726 355.171 72.1493C353.79 70.826 352.755 69.2725 352.064 67.4889H351.374L350.856 75.5151H338.687V12.6002H351.374V37.2829H352.064C353.1 34.6363 354.912 32.5075 357.501 30.8965C360.091 29.2279 363.169 28.3937 366.736 28.3937C369.498 28.3937 372 28.9115 374.244 29.9471C376.546 30.9252 378.502 32.4212 380.113 34.4349C381.781 36.4486 383.047 38.9514 383.91 41.9433C384.773 44.9351 385.205 48.416 385.205 52.3859C385.205 57.6792 384.428 62.1094 382.875 65.6766C381.379 69.2438 379.221 71.9192 376.402 73.7028C373.64 75.4864 370.418 76.3781 366.736 76.3781ZM361.903 66.1081C363.974 66.1081 365.787 65.619 367.34 64.6409C368.893 63.6053 370.102 62.0806 370.965 60.0669C371.828 58.0531 372.259 55.4928 372.259 52.3859C372.259 50.027 372 47.9845 371.483 46.2584C371.022 44.5323 370.332 43.1227 369.411 42.0296C368.491 40.8789 367.398 40.0446 366.132 39.5268C364.866 38.9514 363.456 38.6637 361.903 38.6637C359.602 38.6637 357.674 39.2103 356.121 40.3035C354.567 41.3967 353.388 42.8063 352.582 44.5323C351.834 46.2584 351.46 48.1283 351.46 50.142V54.6298C351.46 56.586 351.834 58.4271 352.582 60.1532C353.388 61.8792 354.567 63.3176 356.121 64.4683C357.674 65.5615 359.602 66.1081 361.903 66.1081Z" fill="url(#paint6_linear_359_12634)"/>
<path d="M407.382 75.5151V12.6002H424.728L439.918 57.2189H440.436L455.539 12.6002H472.972V75.5151H461.839V48.416L462.011 24.5964H461.407L444.751 75.5151H435.689L418.946 24.5964H418.256L418.515 48.5023V75.5151H407.382Z" fill="url(#paint7_linear_359_12634)"/>
<path d="M501.517 76.2918C498.065 76.2918 494.958 75.774 492.196 74.7384C489.435 73.6452 487.018 72.063 484.947 69.9917C482.933 67.9205 481.38 65.4177 480.287 62.4834C479.251 59.5491 478.733 56.2408 478.733 52.5585C478.733 47.8406 479.625 43.6981 481.409 40.1309C483.25 36.5637 485.868 33.7732 489.262 31.7595C492.657 29.7458 496.742 28.7389 501.517 28.7389C504.912 28.7389 507.99 29.2855 510.752 30.3787C513.513 31.4718 515.872 33.054 517.828 35.1253C519.842 37.1966 521.396 39.6994 522.489 42.6337C523.582 45.5104 524.129 48.8187 524.129 52.5585C524.129 57.2189 523.208 61.3327 521.367 64.8999C519.583 68.467 516.994 71.2575 513.6 73.2712C510.263 75.285 506.235 76.2918 501.517 76.2918ZM501.431 67.4026C503.79 67.4026 505.861 66.8561 507.645 65.7629C509.428 64.6122 510.809 62.9437 511.787 60.7573C512.765 58.5134 513.254 55.7805 513.254 52.5585C513.254 50.142 512.967 48.0132 512.391 46.1721C511.874 44.2734 511.097 42.6912 510.061 41.4254C509.026 40.1597 507.789 39.2103 506.35 38.5774C504.912 37.9446 503.301 37.6281 501.517 37.6281C499.158 37.6281 497.058 38.2035 495.217 39.3542C493.433 40.4473 492.053 42.1159 491.075 44.3597C490.096 46.5461 489.607 49.279 489.607 52.5585C489.607 54.975 489.866 57.1326 490.384 59.0312C490.959 60.8724 491.765 62.4258 492.801 63.6916C493.836 64.8999 495.073 65.8204 496.512 66.4533C498.008 67.0862 499.647 67.4026 501.431 67.4026Z" fill="url(#paint8_linear_359_12634)"/>
<path d="M546.698 76.2918C543.936 76.2918 541.405 75.8028 539.103 74.8247C536.86 73.7891 534.903 72.2644 533.235 70.2506C531.624 68.2369 530.387 65.7629 529.524 62.8286C528.661 59.8367 528.229 56.4134 528.229 52.5585C528.229 47.3228 528.977 42.9501 530.473 39.4405C532.027 35.8733 534.184 33.1979 536.946 31.4143C539.765 29.6307 543.016 28.7389 546.698 28.7389C549.23 28.7389 551.474 29.1416 553.43 29.9471C555.444 30.6951 557.17 31.7595 558.608 33.1403C560.046 34.5212 561.14 36.161 561.887 38.0596H562.492V12.6002H573.279L573.193 75.5151H562.837L562.492 66.9711H561.887C560.794 69.7904 558.924 72.063 556.278 73.7891C553.631 75.4576 550.438 76.2918 546.698 76.2918ZM550.754 67.4889C553.343 67.4889 555.472 66.8848 557.141 65.6766C558.867 64.4683 560.161 62.9149 561.024 61.0162C561.888 59.06 562.319 57.0175 562.319 54.8887V50.142C562.319 48.4735 562.06 46.8913 561.542 45.3954C561.082 43.8995 560.363 42.5761 559.385 41.4254C558.464 40.2172 557.256 39.2679 555.76 38.5774C554.322 37.887 552.653 37.5418 550.754 37.5418C548.453 37.5418 546.439 38.0884 544.713 39.1816C542.987 40.2747 541.635 41.9433 540.657 44.1871C539.679 46.3735 539.19 49.1639 539.19 52.5585C539.19 55.838 539.679 58.5997 540.657 60.8436C541.635 63.0875 542.987 64.756 544.713 65.8492C546.439 66.9424 548.453 67.4889 550.754 67.4889Z" fill="url(#paint9_linear_359_12634)"/>
<path d="M601.073 76.2918C596.355 76.2918 592.328 75.3138 588.991 73.3576C585.654 71.4013 583.065 68.6684 581.223 65.1588C579.44 61.6491 578.548 57.5353 578.548 52.8174C578.548 47.9269 579.44 43.6981 581.223 40.1309C583.007 36.5062 585.567 33.7157 588.904 31.7595C592.241 29.7458 596.154 28.7389 600.642 28.7389C605.877 28.7389 610.164 29.8896 613.501 32.191C616.838 34.4924 619.225 37.5993 620.664 41.5117C622.16 45.4241 622.649 49.8831 622.131 54.8887H589.163C589.163 57.6504 589.652 60.0093 590.63 61.9655C591.666 63.9218 593.076 65.4177 594.859 66.4533C596.643 67.4889 598.714 68.0068 601.073 68.0068C603.835 68.0068 606.165 67.4026 608.064 66.1944C609.962 64.9286 611.171 63.2601 611.688 61.1888H621.958C621.556 64.1807 620.405 66.8273 618.506 69.1287C616.608 71.3726 614.162 73.1274 611.171 74.3932C608.179 75.659 604.813 76.2918 601.073 76.2918ZM589.163 49.0201L588.214 47.6393H612.638L611.602 49.0201C611.717 46.2584 611.286 44.0145 610.307 42.2885C609.387 40.5049 608.064 39.1816 606.338 38.3185C604.669 37.4555 602.77 37.024 600.642 37.024C598.34 37.024 596.326 37.513 594.6 38.4911C592.932 39.4692 591.609 40.8501 590.63 42.6337C589.71 44.4173 589.221 46.5461 589.163 49.0201Z" fill="url(#paint10_linear_359_12634)"/>
<path d="M627.585 75.5151V12.6002H638.373V75.5151H627.585Z" fill="url(#paint11_linear_359_12634)"/>
<path d="M662.69 76.3781C656.189 76.3781 651.154 74.9685 647.587 72.1493C644.077 69.3301 642.351 65.6478 642.409 61.1025H653.024C653.082 63.8642 654.031 65.878 655.872 67.1437C657.713 68.352 660.072 68.9561 662.949 68.9561C665.883 68.9561 668.098 68.4383 669.594 67.4026C671.148 66.3095 671.925 64.8711 671.925 63.0875C671.925 61.534 671.55 60.3546 670.803 59.5491C670.055 58.686 668.933 58.0531 667.437 57.6504C665.941 57.1901 664.013 56.8161 661.654 56.5285C659.065 56.1257 656.678 55.6654 654.491 55.1476C652.305 54.5723 650.406 53.7955 648.795 52.8174C647.184 51.8393 645.918 50.5448 644.998 48.9338C644.077 47.3228 643.617 45.3091 643.617 42.8926C643.617 39.7857 644.423 37.1966 646.034 35.1253C647.702 32.9965 649.975 31.4143 652.851 30.3787C655.728 29.2855 659.094 28.7389 662.949 28.7389C666.804 28.7389 670.141 29.3142 672.96 30.465C675.779 31.6157 677.937 33.2554 679.433 35.3842C680.986 37.513 681.792 40.1021 681.849 43.1515H671.32C671.263 41.5405 670.86 40.246 670.112 39.2679C669.422 38.2322 668.444 37.4555 667.178 36.9377C665.912 36.4199 664.416 36.161 662.69 36.161C659.986 36.161 657.915 36.6788 656.476 37.7144C655.095 38.75 654.405 40.1021 654.405 41.7706C654.405 43.094 654.779 44.1584 655.527 44.9639C656.275 45.7694 657.426 46.4022 658.979 46.8625C660.533 47.2653 662.517 47.6393 664.934 47.9845C667.293 48.2721 669.537 48.6749 671.666 49.1927C673.852 49.7105 675.779 50.4585 677.448 51.4366C679.116 52.4147 680.411 53.7668 681.332 55.4928C682.31 57.1614 682.799 59.3477 682.799 62.0519C682.799 66.9424 680.986 70.5671 677.362 72.926C673.794 75.2274 668.904 76.3781 662.69 76.3781Z" fill="url(#paint12_linear_359_12634)"/>
<defs>
<linearGradient id="paint0_linear_359_12634" x1="392.226" y1="173.161" x2="392.226" y2="-31.2258" gradientUnits="userSpaceOnUse">
<stop offset="0.447376" stop-color="#B096E3"/>
<stop offset="0.584863" stop-color="white"/>
<stop offset="1" stop-color="#DADADA"/>
</linearGradient>
<linearGradient id="paint1_linear_359_12634" x1="392.226" y1="173.161" x2="392.226" y2="-31.2258" gradientUnits="userSpaceOnUse">
<stop offset="0.447376" stop-color="#B096E3"/>
<stop offset="0.584863" stop-color="white"/>
<stop offset="1" stop-color="#DADADA"/>
</linearGradient>
<linearGradient id="paint2_linear_359_12634" x1="392.226" y1="173.161" x2="392.226" y2="-31.2258" gradientUnits="userSpaceOnUse">
<stop offset="0.447376" stop-color="#B096E3"/>
<stop offset="0.584863" stop-color="white"/>
<stop offset="1" stop-color="#DADADA"/>
</linearGradient>
<linearGradient id="paint3_linear_359_12634" x1="392.226" y1="173.161" x2="392.226" y2="-31.2258" gradientUnits="userSpaceOnUse">
<stop offset="0.447376" stop-color="#B096E3"/>
<stop offset="0.584863" stop-color="white"/>
<stop offset="1" stop-color="#DADADA"/>
</linearGradient>
<linearGradient id="paint4_linear_359_12634" x1="392.226" y1="173.161" x2="392.226" y2="-31.2258" gradientUnits="userSpaceOnUse">
<stop offset="0.447376" stop-color="#B096E3"/>
<stop offset="0.584863" stop-color="white"/>
<stop offset="1" stop-color="#DADADA"/>
</linearGradient>
<linearGradient id="paint5_linear_359_12634" x1="392.226" y1="173.161" x2="392.226" y2="-31.2258" gradientUnits="userSpaceOnUse">
<stop offset="0.447376" stop-color="#B096E3"/>
<stop offset="0.584863" stop-color="white"/>
<stop offset="1" stop-color="#DADADA"/>
</linearGradient>
<linearGradient id="paint6_linear_359_12634" x1="392.226" y1="173.161" x2="392.226" y2="-31.2258" gradientUnits="userSpaceOnUse">
<stop offset="0.447376" stop-color="#B096E3"/>
<stop offset="0.584863" stop-color="white"/>
<stop offset="1" stop-color="#DADADA"/>
</linearGradient>
<linearGradient id="paint7_linear_359_12634" x1="392.226" y1="173.161" x2="392.226" y2="-31.2258" gradientUnits="userSpaceOnUse">
<stop offset="0.447376" stop-color="#B096E3"/>
<stop offset="0.584863" stop-color="white"/>
<stop offset="1" stop-color="#DADADA"/>
</linearGradient>
<linearGradient id="paint8_linear_359_12634" x1="392.226" y1="173.161" x2="392.226" y2="-31.2258" gradientUnits="userSpaceOnUse">
<stop offset="0.447376" stop-color="#B096E3"/>
<stop offset="0.584863" stop-color="white"/>
<stop offset="1" stop-color="#DADADA"/>
</linearGradient>
<linearGradient id="paint9_linear_359_12634" x1="392.226" y1="173.161" x2="392.226" y2="-31.2258" gradientUnits="userSpaceOnUse">
<stop offset="0.447376" stop-color="#B096E3"/>
<stop offset="0.584863" stop-color="white"/>
<stop offset="1" stop-color="#DADADA"/>
</linearGradient>
<linearGradient id="paint10_linear_359_12634" x1="392.226" y1="173.161" x2="392.226" y2="-31.2258" gradientUnits="userSpaceOnUse">
<stop offset="0.447376" stop-color="#B096E3"/>
<stop offset="0.584863" stop-color="white"/>
<stop offset="1" stop-color="#DADADA"/>
</linearGradient>
<linearGradient id="paint11_linear_359_12634" x1="392.226" y1="173.161" x2="392.226" y2="-31.2258" gradientUnits="userSpaceOnUse">
<stop offset="0.447376" stop-color="#B096E3"/>
<stop offset="0.584863" stop-color="white"/>
<stop offset="1" stop-color="#DADADA"/>
</linearGradient>
<linearGradient id="paint12_linear_359_12634" x1="392.226" y1="173.161" x2="392.226" y2="-31.2258" gradientUnits="userSpaceOnUse">
<stop offset="0.447376" stop-color="#B096E3"/>
<stop offset="0.584863" stop-color="white"/>
<stop offset="1" stop-color="#DADADA"/>
</linearGradient>
</defs>
</svg>
