<svg width="16" height="16" viewBox="0 0 16 16" fill="none" xmlns="http://www.w3.org/2000/svg">
<path fill-rule="evenodd" clip-rule="evenodd" d="M8 0C3.58172 0 0 3.58172 0 8C0 12.4183 3.58172 16 8 16C12.4183 16 16 12.4183 16 8C16 3.58172 12.4183 0 8 0ZM5.5 12.25C6.4665 12.25 7.25 11.4665 7.25 10.5C7.25 9.70725 6.72287 9.03761 6 8.82247V7.25V6.92754C6.72287 6.7124 7.25 6.04276 7.25 5.25C7.25 4.28351 6.4665 3.50001 5.5 3.50001C4.5335 3.50001 3.75 4.28351 3.75 5.25C3.75 6.04276 4.27713 6.7124 5 6.92754V7.25V8.82247C4.27713 9.03761 3.75 9.70725 3.75 10.5C3.75 11.4665 4.5335 12.25 5.5 12.25ZM10.5 7.25C10.7761 7.25 11 7.47386 11 7.75V7.758V7.76598V7.77394V7.78188V7.7898V7.79771V7.80559V7.81346V7.8213V7.82913V7.83694V7.84473V7.8525V7.86025V7.86799V7.8757V7.8834V7.89108V7.89874V7.90639V7.91401V7.92162V7.92921V7.93678V7.94434V7.95187V7.95939V7.9669V7.97438V7.98185V7.9893V7.99673V8.00415V8.01155V8.01893V8.02629V8.03364V8.04098V8.04829V8.05559V8.06287V8.07014V8.07739V8.08462V8.09184V8.09904V8.10623V8.1134V8.12055V8.12769V8.13482V8.14192V8.14901V8.15609V8.16315V8.1702V8.17723V8.18424V8.19124V8.19823V8.2052V8.21215V8.21909V8.22602V8.23293V8.23983V8.24671V8.25358V8.26043V8.26727V8.2741V8.28091V8.28771V8.29449V8.30126V8.30801V8.31476V8.32148V8.3282V8.3349V8.34159V8.34826V8.35493V8.36157V8.36821V8.37483V8.38144V8.38804V8.39462V8.40119V8.40775V8.4143V8.42083V8.42735V8.43386V8.44036V8.44684V8.45331V8.45977V8.46622V8.47266V8.47908V8.4855V8.4919V8.49829V8.50467V8.51103V8.51739V8.52373V8.53007V8.53639V8.5427V8.549V8.55529V8.56157V8.56783V8.57409V8.58034V8.58657V8.5928V8.59901V8.60522V8.61141V8.6176V8.62377V8.62994V8.63609V8.64224V8.64837V8.6545V8.66061V8.66672V8.67282V8.6789V8.68498V8.69105V8.69711V8.70316V8.7092V8.71524V8.72126V8.72728V8.73328V8.73928V8.74527V8.75125V8.75723V8.76319V8.76915V8.7751V8.78104V8.78697V8.79289V8.79881V8.80472V8.81062V8.81651V8.8224V8.82247C11.7229 9.03761 12.25 9.70725 12.25 10.5C12.25 11.4665 11.4665 12.25 10.5 12.25C9.5335 12.25 8.75 11.4665 8.75 10.5C8.75 9.70725 9.27713 9.03761 10 8.82247V8.8224V8.81651V8.81062V8.80472V8.79881V8.79289V8.78697V8.78104V8.7751V8.76915V8.76319V8.75723V8.75125V8.74527V8.73928V8.73328V8.72728V8.72126V8.71524V8.7092V8.70316V8.69711V8.69105V8.68498V8.6789V8.67282V8.66672V8.66061V8.6545V8.64837V8.64224V8.63609V8.62994V8.62377V8.6176V8.61141V8.60522V8.59901V8.5928V8.58657V8.58034V8.57409V8.56783V8.56157V8.55529V8.549V8.5427V8.53639V8.53007V8.52373V8.51739V8.51103V8.50467V8.49829V8.4919V8.4855V8.47908V8.47266V8.46622V8.45977V8.45331V8.44684V8.44036V8.43386V8.42735V8.42083V8.4143V8.40775V8.40119V8.39462V8.38804V8.38144V8.37483V8.36821V8.36157V8.35493V8.34826V8.34159V8.3349V8.3282V8.32148V8.31476V8.30801V8.30126V8.29449V8.28771V8.28091V8.2741V8.26727V8.26043V8.25358V8.24671V8.23983V8.23293V8.22602V8.21909V8.21215V8.2052V8.19823V8.19124V8.18424V8.17723V8.1702V8.16315V8.15609V8.14901V8.14192V8.13482V8.12769V8.12055V8.1134V8.10623V8.09904V8.09184V8.08462V8.07739V8.07014V8.06287V8.05559V8.04829V8.04098V8.03364V8.02629V8.01893V8.01155V8.00415V7.99673V7.9893V7.98185V7.97438V7.9669V7.95939V7.95187V7.94434V7.93678V7.92921V7.92162V7.91401V7.90639V7.89874V7.89108V7.8834V7.8757V7.86799V7.86025V7.8525V7.84473V7.83694V7.82913V7.8213V7.81346V7.80559V7.79771V7.7898V7.78188V7.77394V7.76598V7.758V7.75C10 7.47386 10.2239 7.25 10.5 7.25ZM11.7552 4.4874C11.9505 4.29214 11.9505 3.97556 11.7552 3.7803C11.5599 3.58504 11.2434 3.58504 11.0481 3.7803L10.5178 4.31063L9.98743 3.7803C9.79217 3.58504 9.47559 3.58504 9.28033 3.7803C9.08506 3.97556 9.08506 4.29214 9.28033 4.4874L9.81066 5.01774L9.28033 5.54806C9.08507 5.74333 9.08507 6.05991 9.28033 6.25517C9.47559 6.45043 9.79217 6.45043 9.98744 6.25517L10.5178 5.72484L11.0481 6.25517C11.2434 6.45043 11.5599 6.45043 11.7552 6.25517C11.9505 6.05991 11.9505 5.74333 11.7552 5.54806L11.2249 5.01774L11.7552 4.4874Z" fill="#8250DF"/>
</svg>
