<svg width="16" height="16" viewBox="0 0 16 16" fill="none" xmlns="http://www.w3.org/2000/svg">
<path fill-rule="evenodd" clip-rule="evenodd" d="M0 8C0 3.58172 3.58172 0 8 0C12.4183 0 16 3.58172 16 8C16 12.4183 12.4183 16 8 16C3.58172 16 0 12.4183 0 8ZM9.5 8C9.5 8.82843 8.82843 9.5 8 9.5C7.17157 9.5 6.5 8.82843 6.5 8C6.5 7.17157 7.17157 6.5 8 6.5C8.82843 6.5 9.5 7.17157 9.5 8ZM3.42678 3.67678C3.26929 3.51929 3 3.63083 3 3.85355V6C3 6.13807 3.11193 6.25 3.25 6.25H5.39645C5.61917 6.25 5.73071 5.98071 5.57322 5.82322L5.04928 5.29928C5.78133 4.49981 6.83237 4 8 4C9.91935 4 11.5245 5.35259 11.9112 7.15714C11.998 7.56216 12.3967 7.82014 12.8017 7.73335C13.2067 7.64657 13.4647 7.24788 13.3779 6.84286C12.8461 4.36108 10.6413 2.5 8 2.5C6.41712 2.5 4.99066 3.16914 3.98795 4.23795L3.42678 3.67678ZM13 12.1464C13 12.3692 12.7307 12.4807 12.5732 12.3232L12.012 11.762C11.0093 12.8309 9.5829 13.5 8 13.5C5.35873 13.5 3.15388 11.6389 2.62209 9.15714C2.53531 8.75212 2.79329 8.35343 3.19831 8.26665C3.60333 8.17986 4.00202 8.43784 4.0888 8.84286C4.47547 10.6474 6.08065 12 8 12C9.16761 12 10.2187 11.5002 10.9507 10.7007L10.4268 10.1768C10.2693 10.0193 10.3808 9.75 10.6036 9.75H12.75C12.8881 9.75 13 9.86193 13 10V12.1464Z" fill="#1A7F37"/>
</svg>
