<?xml version="1.0" encoding="UTF-8"?>
<svg xmlns="http://www.w3.org/2000/svg" role="img" viewBox="80.70 5.20 230.60 160.10">
   <title>Accurics logo</title>
   <defs>
      <style>.cls-1{fill:#28bed6}</style>
   </defs>
   <path d="M200.00218 11.36031A50.63847 50.63847 0 0 1 250.499 58.38116a53.78961 53.78961 0 0 0-15.1707 2.384c-1.30034.40011-2.59236.83356-3.85936 1.35036v-.15a31.46671 31.46671 0 0 0-62.93343 0v.15c-1.49206-.58349-3.00914-1.10863-4.55122-1.55041a53.70583 53.70583 0 0 0-14.47051-2.18392 50.63848 50.63848 0 0 1 50.4884-47.02088z" class="cls-1" />
   <path d="M283.47442 79.92023a45.61214 45.61214 0 0 0-50.53842-9.58589 45.84553 45.84553 0 0 0-15.19571 10.73619l-49.27978 49.27979-.17506.19172-.5168.5168a26.57374 26.57374 0 1 1-8.24386-43.22818 26.41594 26.41594 0 0 1 4.28448 2.35062 17.3046 17.3046 0 0 1 12.4366-14.57888 45.84517 45.84517 0 0 0-9.08575-5.2764 45.6955 45.6955 0 1 0 14.17044 74.23643L231.67728 94.149l-.75853-.7502.74186.69185A26.67392 26.67392 0 0 1 240.513 87.839a26.67377 26.67377 0 1 1-8.83568 42.578l-11.34472-11.34468-13.537 13.49526 11.34469 11.34469A45.73718 45.73718 0 1 0 284.44 80.88919q-.47537-.50007-.96563-.98563z" class="cls-1" />
   <circle cx="180.905" cy="92.215" r="12.27" fill="#083149" />
</svg>
