<svg fill="none" height="32" viewBox="0 0 155 32" width="155" xmlns="http://www.w3.org/2000/svg" xmlns:xlink="http://www.w3.org/1999/xlink"><clipPath id="a"><path d="m0 0h154.945v32h-154.945z"/></clipPath><g clip-path="url(#a)" fill="#959da5"><path d="m17.6608 32c8.5387 0 15.4734-7.1777 15.4734-16.0081 0-.8425-.081-1.6689-.2107-2.4952.0162.2755.0487.5509.0487.8101 0 7.7286-6.076 14.0152-13.5616 14.0152-3.3701 0-6.4486-1.28-8.8141-3.3863-1.06941 1.0208-2.49523 1.7337-4.00207 2.2197 2.81924 2.9975 6.74027 4.8446 11.06637 4.8446zm-11.79548-17.677c0-7.72857 6.07598-14.015152 13.56148-14.015152.6319 0 1.2638.06481 1.8795.145823-1.199-.291646-2.4141-.453671-3.6455-.453671-8.53877 0-15.47346 7.17772-15.47346 16.0081 0 2.2684.46988 4.4395 1.2962 6.4 1.34481-1.2476 2.5114-2.0415 3.48355-2.5276-.71291-1.7175-1.10177-3.597-1.10177-5.5575zm6.74028 1.4907c.7939-1.1666 1.7822-2.5114 2.9002-3.8886-2.9164-1.28-5.81669-.4375-7.12909.081 2.25219 1.1828 3.51599 2.641 4.22889 3.8076zm21.9544-13.64256c-.5023 1.86329-1.6041 3.54835-3.3053 5.00658l-.1134.09722c-.3727.32405-.956.25924-1.5069-.17823-.3564-.29165-.6481-.72911-.6481-1.15038 0-.12962.0324-.25924.081-.37266.0162-.04861.0486-.08101.0811-.11342 1.4258-1.3286 2.2359-2.43038 2.6896-3.25671-2.2036.19443-4.3747.84254-6.4486 1.94431-3.1271 1.66886-6.1894 4.61772-8.6684 7.53415-.081.0972-.162.1945-.2592.2917-.081.0972-.1621.2106-.2593.3078-1.2638 1.5231-2.3493 3.0299-3.1919 4.2937-.081.1296-.162.2592-.243.3726-.081.1297-.1782.2593-.243.3889-.3403.5347-.6157 1.0208-.8264 1.4258.0486.0324.1134.081.1783.1297.0972.081.2106.1782.3402.2754.0972.0972.2106.2106.3079.3402.2268.2755.4374.5995.5995 1.0208.0486.1296.0972.2592.1458.4051.0324.1458.0648.2916.0972.4374 0 .0324.0162.0486.0162.0811.2268-.0325.5833-.0973 1.037-.2107l.3888-.0972c.1296-.0324.2593-.0648.3889-.0972.1134-.0324.2268-.0648.3402-.0972-.0648-.1621-.1134-.2917-.162-.3889-.0648-.1458-.0972-.2268-.0972-.2268-.0162-.0486-.0324-.0972-.0324-.1458 0-.0649 0-.1135.0162-.1783.0324-.0972.1134-.1782.2106-.2268.2269-.081.4375-.1782.6481-.2755 2.5438-1.1179 4.4719-2.5924 4.4881-2.6086.0972-.081.2431-.0972.3565-.0486s.2106.1459.243.2755c.1134.5185.1782 1.0045.2269 1.4744.5346-.2754 1.0693-.5509 1.6364-.8749 4.4557-2.5438 10.3858-7.2426 13.4643-15.23041-.4051-.09722-1.0856-.24304-1.9767-.32405zm-13.0916 13.12406c-.7616 0-1.3773-.6319-1.3773-1.4258 0-.7778.6157-1.4259 1.3773-1.4259.7615 0 1.3772.6319 1.3772 1.4259-.0162.7939-.6319 1.4258-1.3772 1.4258zm3.0622-2.398c-.7615 0-1.3772-.6319-1.3772-1.4258 0-.7777.6157-1.4258 1.3772-1.4258.7616 0 1.3772.6319 1.3772 1.4258s-.6156 1.4258-1.3772 1.4258zm2.9489-2.3656c-.7615 0-1.3772-.63185-1.3772-1.42578 0-.77772.6157-1.42582 1.3772-1.42582s1.3772.6319 1.3772 1.42582c0 .79393-.6157 1.42578-1.3772 1.42578zm-16.64 9.8998c-.081-.1134-.1782-.1944-.2592-.2755-.1297-.1134-.2431-.1782-.3565-.2106-.1134.0972-.22684.1782-.32405.2593.08101-.0811.19445-.1621.32405-.2593h-.0162c-.30785-.081-1.2638-.1782-2.85165.5995-.0162 0-.03241.0162-.03241.0162-.0162 0-.0162.0162-.0324.0162-.93975.4699-2.10633 1.2638-3.46734 2.56-.0162.0162-.01621.0162-.03241.0324-.0162 0-.0162.0162-.0324.0162-1.11798 1.0532-2.36557 2.4466-3.75899 4.2613 1.19899-.0486 3.62937-.2268 5.94633-.9074.0162 0 .0162 0 .0324-.0162.01621 0 .03241-.0162.04861-.0162 1.50684-.4536 2.96507-1.1179 4.01826-2.1063l.0162-.0162.0324-.0324c.5833-.5671 1.0207-1.2314 1.2638-2.0091.0486-.1296.081-.2755.1134-.4051.0162-.0972.0486-.2106.0648-.3078-.0162-.0324-.0324-.0648-.0324-.081-.1944-.4213-.4213-.8102-.6643-1.118zm-.7453 1.0694c-.09724.081-.21066.1782-.32407.2754-.09722.081-.19443.162-.30785.243-.25924.2107-.55089.4213-.82633.6319-.0162.0162-.0162.0162-.03241.0324-.0162 0-.0162.0162-.0324.0162-.85873.6481-1.68506 1.2314-1.68506 1.2314s.82632-2.0577.6967-2.0415c-1.13417.3241-2.67341 1.6851-3.2405 2.2036-.0162.0162-.0162.0162-.03241.0324-.0162.0162-.0162.0162-.0162.0162-.09721.0972-.16202.162-.16202.162s.0486-.081.14582-.2106c0 0 .0162-.0162.0162-.0324.0162-.0162.0162-.0324.03241-.0324.43746-.5995 1.58784-2.0902 2.86784-2.9975.09722-.0648.17823-.1134.27545-.1782.0162 0 .0162-.0162.0324-.0162s.03241-.0162.03241-.0162c.72911-.3889 1.45823-.4213 1.99291-.2917.14582.0324.29164.081.42126.1296.14585.0648.25925.1296.35645.1945.1134.0972.1782.1782.162.243-.0486.0972-.1782.2268-.3726.4051zm4.9742.3726c-.0973.6319-.2269 1.3772-.3889 2.0253.4051-.2268.9397-.5671 1.4744-1.0693-.1134-.4213-.243-.8264-.3564-1.1666-.2755.0972-.5185.162-.7291.2106zm-3.6132-1.8795c.324.4051.5671.875.7453 1.28.1134-.0648.2268-.1296.3241-.2106-.1783-.5833-.4699-.9884-.7616-1.2638-.0972.0648-.1944.1296-.3078.1944zm9.2354-1.0207c-.0324-.3403-.081-.7129-.1296-1.0856-.5671.4051-1.6202 1.0856-2.9164 1.7499-.1621.081-.3241.162-.5023.243-.2755.1296-.5671.2592-.875.3889-.0648.0324-.1134.0486-.1782.081.0486.0972.0972.2268.1458.3726.0486.1135.0973.2269.1459.3565.0486.1134.081.2268.1296.3565.081.2268.162.4698.2268.7291.0486.1458.081.2916.1296.4536.0324.1459.081.2917.1135.4375.1944.8101.324 1.7337.324 2.6734 0 .2107-.0324.4213-.0486.6157 1.118-.7777 3.3863-2.803 3.4673-6.562 0-.0648 0-.1134 0-.1782 0-.081 0-.1621 0-.2431-.0162-.1134-.0162-.243-.0324-.3888z"/><path d="m42.0938 8.84665h1.0369v13.36705h8.1499v.9884h-9.1868zm13.5291 13.65875c.5184 0 1.0045-.081 1.4744-.2431.4699-.162.8749-.3726 1.2152-.6481.3564-.2754.6319-.6156.8263-1.0207.2106-.3889.3079-.8263.3079-1.3124v-1.1828c-.4213-.1134-.9236-.2106-1.4907-.3241-.5671-.0972-1.2152-.1458-1.9443-.1458-1.0693 0-1.8957.2269-2.4628.6643-.5833.4375-.8587 1.037-.8587 1.7661v.0486c0 .3889.081.7129.243 1.0208.1621.2916.3727.5509.6481.7453.2755.2106.5833.3564.9398.4699.3564.0972.7129.162 1.1018.162zm-.0648.9397c-.4699 0-.9398-.0648-1.4097-.2106-.4698-.1296-.8749-.3403-1.2476-.6157-.3726-.2754-.6643-.6157-.9073-1.0208-.2268-.405-.3403-.8911-.3403-1.442v-.0486c0-.5509.1135-1.037.3241-1.4582.2106-.4213.5185-.7777.9073-1.0694.3889-.2916.8426-.5023 1.3935-.6481.5346-.1458 1.1503-.2268 1.7984-.2268.7129 0 1.3286.0486 1.8471.1296s1.0208.1944 1.5069.3241v-.4537c0-1.0694-.2917-1.8633-.8912-2.398-.5833-.5347-1.4096-.7939-2.4466-.7939-.6157 0-1.1827.081-1.7012.243s-1.0046.3565-1.4745.5995l-.3564-.8749c.5509-.2755 1.118-.4861 1.685-.6481.5671-.1621 1.199-.2431 1.9119-.2431 1.3935 0 2.4466.3889 3.1919 1.1504.6806.7129 1.037 1.7013 1.037 2.9489v6.5134h-.9559v-1.7499c-.1783.2431-.3727.4861-.6319.7291-.2431.2431-.5185.4537-.8426.6319-.324.1783-.6805.3403-1.0855.4537-.3889.1134-.8264.1782-1.3124.1782zm10.4992 0c-.6319 0-1.199-.1134-1.7013-.324-.5022-.2107-.9235-.5023-1.28-.8912-.3564-.3888-.6157-.8425-.7939-1.361s-.2754-1.1017-.2754-1.7336v-6.4h.9721v6.2217c0 1.0856.2755 1.9443.8263 2.5924.5509.6481 1.3449.9722 2.3818.9722.4861 0 .956-.0972 1.3772-.2755.4375-.1782.8102-.4374 1.118-.7615.3241-.324.5671-.7129.7453-1.1828.1782-.4536.2755-.9559.2755-1.5068v-6.0597h.9721v10.4506h-.9721v-1.9443c-.3403.6157-.8102 1.1342-1.3935 1.5554-.567.4375-1.3124.6481-2.2521.6481zm6.6592-10.7098h.9722v1.9443c.3402-.6157.8101-1.1342 1.3934-1.5555.5833-.4212 1.3286-.6319 2.2684-.6319.6319 0 1.1989.1134 1.7012.3241.5023.2106.9236.5023 1.28.8911.3565.3889.6157.8425.7939 1.361.1783.5185.2755 1.1018.2755 1.7337v6.4h-.9722v-6.2056c0-1.0855-.2754-1.9443-.8263-2.5924s-1.3448-.9721-2.3818-.9721c-.5022 0-.9721.0972-1.3934.2754-.4212.1782-.7939.4375-1.118.7615-.324.3241-.567.7129-.7453 1.1828-.1782.4537-.2754.956-.2754 1.5069v6.0435h-.9722zm14.955 10.7098c-.7291 0-1.4097-.1458-2.0415-.4374-.6319-.2917-1.1666-.6805-1.6365-1.1828-.4699-.4861-.8263-1.0694-1.0856-1.7175-.2592-.6481-.3888-1.3448-.3888-2.0901v-.0486c0-.7453.1296-1.442.3888-2.0901.2593-.6482.6319-1.2314 1.0856-1.7499.4699-.5023 1.0046-.9074 1.6365-1.199.6318-.2917 1.3124-.4375 2.0415-.4375.4698 0 .9073.0486 1.2962.1458.3888.0973.7453.2431 1.0855.4213.3241.1782.6319.3889.9074.6157.2754.2268.5185.4861.7615.7453l-.6967.7453c-.4375-.4698-.9235-.8749-1.442-1.2152-.5347-.3402-1.1666-.5184-1.9281-.5184-.5833 0-1.118.1134-1.6203.3564-.5023.2269-.9235.5509-1.2962.956-.3564.405-.6481.8749-.8587 1.4258-.2107.5509-.3241 1.1342-.3241 1.7661v.0486c0 .6319.1134 1.2152.3241 1.7661.2106.5508.5185 1.0369.8911 1.442.3727.405.8101.7291 1.3124.9559.5023.2269 1.0532.3565 1.6203.3565.7129 0 1.3448-.162 1.9119-.5023.5671-.3402 1.0531-.7453 1.4744-1.2476l.6805.6157c-.5185.5995-1.1018 1.1018-1.7499 1.4906-.6319.3889-1.4258.5833-2.3493.5833zm5.201-15.21414h.9721v6.44864c.3403-.6157.8102-1.1342 1.3934-1.5555.5833-.4212 1.3287-.6319 2.2684-.6319.6319 0 1.199.1134 1.7013.3241.5022.2106.9233.5023 1.2803.8911.356.3889.615.8425.794 1.361.178.5185.275 1.1018.275 1.7337v6.4h-.972v-6.2056c0-1.0855-.276-1.9443-.8264-2.5924-.5509-.6481-1.3449-.9721-2.3818-.9721-.5023 0-.9722.0972-1.3934.2754-.4213.1782-.794.4375-1.118.7615-.3241.3241-.5671.7129-.7453 1.1828-.1782.4537-.2755.956-.2755 1.5069v6.0435h-.9721zm15.3435 13.98274c.972 0 1.831-.162 2.625-.486.778-.3241 1.442-.7616 1.977-1.3124.534-.5509.956-1.199 1.264-1.9443.291-.7454.453-1.5555.453-2.4142v-.0486c0-.8426-.146-1.6527-.453-2.398-.292-.7453-.713-1.4096-1.264-1.9605-.535-.5671-1.199-1.0046-1.977-1.3286-.778-.32407-1.653-.48609-2.625-.48609h-3.597v12.37869zm-4.617-13.36705h4.617c1.086 0 2.074.17823 2.982.55089.907.35645 1.685.85876 2.349 1.50686.648.6481 1.166 1.3934 1.523 2.2683.356.875.535 1.8147.535 2.8193v.0486c0 1.0045-.179 1.9605-.535 2.8354-.357.875-.859 1.6365-1.523 2.2684-.648.6481-1.442 1.1504-2.349 1.523-.908.3727-1.896.5509-2.982.5509h-4.617zm16.769 13.65875c.519 0 1.005-.081 1.475-.2431.469-.162.875-.3726 1.215-.6481.356-.2754.632-.6156.826-1.0207.211-.3889.308-.8263.308-1.3124v-1.1828c-.421-.1134-.924-.2106-1.491-.3241-.567-.0972-1.215-.1458-1.944-.1458-1.069 0-1.896.2269-2.463.6643-.583.4375-.858 1.037-.858 1.7661v.0486c0 .3889.081.7129.243 1.0208.162.2916.372.5509.648.7453.275.2106.583.3564.939.4699.341.0972.713.162 1.102.162zm-.065.9397c-.47 0-.939-.0648-1.409-.2106-.47-.1296-.875-.3403-1.248-.6157s-.664-.6157-.907-1.0208c-.243-.405-.34-.8911-.34-1.442v-.0486c0-.5509.113-1.037.324-1.4582.21-.4213.518-.7777.907-1.0694.389-.2916.842-.5023 1.393-.6481.535-.1458 1.151-.2268 1.799-.2268.713 0 1.328.0486 1.847.1296.518.081 1.021.1944 1.507.3241v-.4537c0-1.0694-.292-1.8633-.891-2.398-.584-.5347-1.41-.7939-2.447-.7939-.616 0-1.183.081-1.701.243-.519.162-1.005.3565-1.475.5995l-.356-.8749c.551-.2755 1.118-.4861 1.685-.6481.567-.1621 1.199-.2431 1.912-.2431 1.393 0 2.446.3889 3.192 1.1504.68.7129 1.037 1.7013 1.037 2.9489v6.5134h-.956v-1.7499c-.178.2431-.373.4861-.632.7291-.243.2431-.519.4537-.843.6319-.324.1783-.68.3403-1.085.4537-.389.1134-.843.1782-1.313.1782zm6.643-10.7098h.973v2.9812c.194-.4698.453-.8911.761-1.2962.308-.3888.648-.7291 1.037-1.0207.389-.2755.81-.4861 1.264-.6319.454-.1459.94-.2107 1.442-.1945v1.1018h-.097c-.584 0-1.135.1134-1.669.3403-.535.2268-.989.567-1.394 1.0045s-.729.9884-.956 1.6365c-.243.6481-.356 1.3934-.356 2.2521v4.2775h-.972v-10.4506zm6.287-4.50434h.972v11.21214l6.271-6.7078h1.296l-4.424 4.6339 4.57 5.8167h-1.232l-4.002-5.1038-2.463 2.56v2.5438h-.972v-14.95494zm9.576 0h.972v14.95494h-.972zm4.374 18.30884c-.388 0-.729-.0324-1.037-.1134-.307-.081-.631-.1944-.972-.3403l.34-.8749c.26.1296.519.243.778.2917.259.0648.567.0972.956.0972.259 0 .502-.0486.729-.1297.227-.081.438-.2268.632-.4212.195-.1944.389-.4537.583-.7615.179-.3079.373-.6967.551-1.1504l-4.86-10.3858h1.134l4.212 9.3488 3.646-9.3488h1.069l-4.391 10.8233c-.453 1.0855-.939 1.8632-1.474 2.3007s-1.167.6643-1.896.6643z"/></g></svg>