<svg fill="none" height="21" viewBox="0 0 36 21" width="36" xmlns="http://www.w3.org/2000/svg"><path d="m9.86533 7.6048c0 .4309.04658.78028.1281 1.03649.09317.25621.20967.53571.37267.8385.0582.09317.0815.18634.0815.26786 0 .11646-.0699.23292-.2213.34935l-.73364.4892c-.10482.0698-.20963.1048-.3028.1048-.11646 0-.23292-.0583-.34938-.1631-.16304-.1747-.30279-.361-.41925-.54733-.11646-.19798-.23292-.41926-.36102-.68711-.90839 1.07144-2.04969 1.60714-3.42391 1.60714-.97826 0-1.75854-.2795-2.32919-.8385-.57065-.55901-.8618-1.30436-.8618-2.23603 0-.9899.34938-1.79347 1.05978-2.39906.71041-.60559 1.65373-.90839 2.85326-.90839.39596 0 .80357.03494 1.23447.09317s.87344.1514 1.33928.25621v-.85015c0-.88509-.18634-1.50233-.54736-1.86335-.37267-.36103-1.00155-.53571-1.89829-.53571-.40761 0-.82686.04658-1.25776.15139-.4309.10482-.85015.23292-1.25776.39596-.18633.08153-.32609.12811-.40761.1514s-.13975.03494-.18633.03494c-.16305 0-.24457-.11646-.24457-.36102v-.57066c0-.18633.02329-.32608.08152-.4076.05823-.081525.16305-.163047.32609-.244568.40761-.209627.89674-.384316 1.46739-.524067.57065-.1513975 1.17624-.2212731 1.81676-.2212731 1.38587 0 2.39907.3144401 3.05124.9433211.64053.628877.96661 1.583847.96661 2.864897v3.77329zm-4.72826 1.77018c.38432 0 .78028-.06988 1.19954-.20963.41925-.13975.79192-.39596 1.10636-.74534.18634-.22127.32609-.46584.39596-.74534.06988-.2795.11646-.61723.11646-1.01319v-.48913c-.33773-.08152-.69875-.1514-1.07142-.19798-.37268-.04659-.7337-.06988-1.09472-.06988-.78028 0-1.35093.1514-1.73525.46584-.38431.31444-.57065.75698-.57065 1.33928 0 .54736.13975.95497.4309 1.23447.2795.29115.68711.4309 1.22282.4309zm9.35173 1.25772c-.2097 0-.3494-.0349-.4426-.1164-.0932-.0699-.1747-.2329-.2445-.4542l-2.7368-9.00232c-.0699-.232919-.1049-.384316-.1049-.465837 0-.186335.0932-.291149.2795-.291149h1.1413c.2213 0 .3727.034938.4542.11646.0932.069875.1631.232919.233.454191l1.9565 7.709615 1.8167-7.709615c.0583-.232918.1281-.384316.2213-.454191.0932-.069876.2562-.11646.4659-.11646h.9316c.2213 0 .3727.034938.4659.11646.0931.069875.1747.232919.2212.454191l1.8401 7.802775 2.0147-7.802775c.0699-.232918.1514-.384316.233-.454191.0931-.069876.2445-.11646.4542-.11646h1.083c.1864 0 .2912.093168.2912.291149 0 .058229-.0117.116459-.0233.186335-.0117.069875-.035.163043-.0815.291152l-2.8067 9.00227c-.0699.233-.1514.3844-.2446.4542-.0931.0699-.2445.1165-.4425.1165h-1.0016c-.2212 0-.3726-.035-.4658-.1165s-.1747-.2329-.2213-.4658l-1.8051-7.51164-1.7935 7.49994c-.0582.233-.1281.3844-.2212.4659-.0932.0815-.2563.1164-.4659.1164zm14.965.3145c-.6056 0-1.2112-.0699-1.7935-.2096-.5823-.1398-1.0365-.2912-1.3393-.4659-.1863-.1048-.3144-.2213-.361-.32607-.0466-.10481-.0699-.22127-.0699-.32609v-.59394c0-.24456.0932-.36102.2679-.36102.0699 0 .1397.01164.2096.03494.0699.02329.1747.06987.2912.11646.3959.17468.8268.31443 1.281.4076.4659.09317.92.13975 1.3859.13975.7337 0 1.3043-.1281 1.7003-.38431s.6056-.62888.6056-1.10637c0-.32608-.1048-.59394-.3145-.81521-.2096-.22127-.6055-.41926-1.1762-.60559l-1.6887-.52407c-.8501-.26785-1.479-.66382-1.8633-1.18788-.3843-.51242-.5823-1.08308-.5823-1.68866 0-.48913.1048-.92003.3144-1.2927.2097-.37267.4892-.69876.8385-.95497.3494-.267857.7454-.465838 1.2112-.605589.4659-.1397513.955-.197981 1.4674-.197981.2562 0 .5241.0116459.7803.0465837.2678.0349379.5124.0815213.757.1281053.2329.05823.4542.116459.6638.186335s.3727.139751.4891.209627c.1631.093167.2795.186335.3494.291148.0699.093168.1048.221271.1048.384321v.54735c0 .24457-.0932.37267-.2678.37267-.0932 0-.2446-.04658-.4426-.13975-.6638-.30279-1.4091-.45419-2.236-.45419-.6638 0-1.1879.10481-1.5489.32609-.361.22127-.5474.559-.5474 1.03649 0 .32608.1165.60559.3494.82686s.6638.44254 1.2811.64052l1.6537.52407c.8385.26786 1.4441.64053 1.8051 1.11801s.5357 1.02484.5357 1.63043c0 .50078-.1048.95497-.3028 1.35093-.2096.39596-.4891.74534-.8501 1.0248-.3611.2912-.792.5008-1.2927.6522-.5241.1631-1.0715.2446-1.6654.2446z" fill="#fff"/><g clip-rule="evenodd" fill="#f90" fill-rule="evenodd"><path d="m31.6574 16.607c-3.8315 2.8299-9.3983 4.3323-14.1848 4.3323-6.708 0-12.75227-2.4806-17.317474-6.6033-.361024-.3261-.034938-.7686.395962-.5124 4.937882 2.8649 11.028712 4.6001 17.329112 4.6001 4.2508 0 8.9208-.8851 13.2182-2.7018.6405-.2912 1.1879.4192.559.8851z"/><path d="m33.2528 14.7899c-.4891-.6289-3.2376-.3028-4.4837-.1514-.3726.0465-.4309-.2795-.0931-.5241 2.1894-1.5373 5.788-1.0947 6.2072-.5823.4193.5241-.1164 4.1227-2.1661 5.8463-.3144.2678-.6172.1281-.4775-.2213.4659-1.153 1.5023-3.75 1.0132-4.3672z"/></g></svg>