<svg fill="none" height="32" viewBox="0 0 72 32" width="72" xmlns="http://www.w3.org/2000/svg"><path clip-rule="evenodd" d="m44.7321 19.0239c-.7561 1.2892-1.6557 2.1593-2.5143 2.9066v4.2749c0 2.5946-1.3097 3.5089-2.5699 3.5089-1.3838 0-2.3722-1.2602-2.3722-2.8417 0-2.4958 1.4332-3.756 3.0641-5.1892v-3.1382c-.5931.9884-1.3591 1.705-2.4217 1.705-1.6556 0-2.5575-1.4085-2.5575-3.5583 0-2.6193.8278-5.5599.8278-5.5599.032-.0776.0522-.1579.0721-.237.0876-.3489.1701-.6772 1.2376-.6772.9833 0 .6954.6518.4996 1.0953-.0453.1026-.0857.1941-.1043.2637l-.0188.0776c-.4336 1.7821-.6978 2.8678-.6978 4.9139 0 1.3344.4201 2.051 1.1367 2.051.9884 0 1.7297-1.6062 2.0263-3.3359v-3.9784c0-.2921-.0383-.4599-.0672-.5866-.0176-.077-.0317-.1388-.0317-.2041 0-.2471.2965-.4201.6425-.4201.8154 0 1.3344.4942 1.3344 1.0873v8.6733c.721-.8011 1.3771-1.7646 1.863-3.0088-.0065-.1156-.0098-.233-.0098-.3518 0-4.1266 2.8665-6.6471 5.8811-6.6471.6672 0 1.1367.3954 1.1367 1.0378 0 .4201-.0741.5684-.3212.5684-.1083 0-.2224-.0117-.3396-.0238-.1234-.0126-.2502-.0256-.377-.0256-1.878 0-4.0773 1.6061-4.0773 5.1644 0 1.285.5437 2.0263 1.4085 2.0263.6672 0 1.112-.5931 1.3838-1.2849v-3.8055c0-.2921-.0383-.4599-.0672-.5866-.0175-.0769-.0316-.1388-.0316-.2041 0-.2471.2965-.4201.6425-.4201.8154 0 1.3343.4942 1.3343 1.0873v4.0772c0 .5436.2471 1.1367.8402 1.1367.9884 0 1.4332-1.5815 1.6556-2.6687.002-.0107.0041-.0213.0063-.0317.0042-.0306.0103-.0613.0184-.0919.2718-.9884.3706-3.0394.3953-4.2996-.6177-.3459-1.0625-.8649-1.0625-1.58146 0-.6919.593-1.13668 1.2355-1.13668.5931 0 1.285.29652 1.5568 1.30964.8154.0988 1.0625.0989 1.3096.0989h1.285c.2965 0 1.2849.8154 1.1861 1.3837 0 .0763-.0736.326-.183.6969-.3156 1.0706-.929 3.1512-.929 4.9865 0 .6919.3212 1.3344.9884 1.3344 1.1367 0 1.5568-1.5815 1.7792-2.6687.0245-.1289.0582-.2396.0988-.333v-4.2879c0-.2921-.0383-.4599-.0672-.5866-.0175-.077-.0316-.1388-.0316-.2041 0-.2471.2965-.4201.6424-.4201.8155 0 1.3344.4942 1.3344 1.0873v1.1119c.6672-1.3837 1.5568-2.4463 2.7676-2.4463 1.6556 0 2.0509 1.3591 2.0509 2.4958v5.115c0 .2224 0 1.1367.6425 1.1367.9884 0 1.495-1.5815 1.7174-2.6687.0988-.519.3459-.7413.593-.7413.3954 0 .8649.5436.8649 1.0131 0 .0247 0 .0741-.0247.173-.4201 1.6308-1.4703 3.8548-3.5954 3.8548-1.3096 0-2.0757-1.0626-2.0757-2.3228v-5.0162c0-.766-.0494-1.4085-.5189-1.4085-.7166 0-2.2486 2.1251-2.4216 4.0772v3.6077c0 .0151 0 .0302.0001.0455.0007.4614.0017 1.0171-.692 1.0171-.4907 0-1.1763-.1705-1.186-1.0679-.5418.6298-1.2562 1.0679-2.1993 1.0679-1.1614 0-2.5452-.6425-2.5452-2.817 0-1.5815.4448-3.3359 1.2355-5.461h-2.1498c-.0247.9637-.173 3.1135-.6177 4.5467-.0104.0333-.0217.0647-.0339.0941-.4503 1.6039-1.4431 3.6372-3.475 3.6372-.8649 0-1.5321-.4201-1.9027-1.0131-.4942.5683-1.1861 1.0131-2.1251 1.0131-1.0216 0-1.7863-.4582-2.2795-1.2016zm-5.7267 7.7746c0 .766.2471 1.359.6425 1.359.7215 0 .7024-1.2344.6935-1.8072-.0009-.0549-.0016-.1038-.0016-.1449v-2.644c-.7908.8154-1.3344 1.7544-1.3344 3.2371zm-7.0054-10.7985c0-8.83398-7.166-16-16-16-8.83398 0-16 7.16602-16 16 0 8.834 7.16602 16 16 16 8.834 0 16-7.166 16-16zm-6.9182 3.3808c.9514-.0124 1.6927.593 1.8039 1.4702.105.8464-.4201 1.6124-1.2603 1.8163-.8648.21-1.2664.3706-2.4278 1.1243-1.6432 1.0625-3.3853 1.6556-4.0154 1.8533-.1977.1668-.5004.3521-.939.4571-.9822.2409-4.3552.4201-4.6208.4201h-.0618c-1.044 0-1.6186-.3212-1.9336-.6548-.8772.4386-2.01391.2532-2.82936-.1792-.4139-.2224-.68571-.5745-.76602-1.0069-.03706-.1854-.03089-.3645-.00618-.5313-.07413-.0803-.14208-.1606-.20386-.2595-.21621-.3336-.70424-1.2478-.6054-2.5946.07413-.9637.74131-1.8224 1.17374-2.2795-.01853-.6363.03707-1.81.54363-3.0085.40772-.9699 1.17995-1.7977 1.76065-2.3166-.4263-.7166-.85872-1.8224-.4386-2.9467.3027-.8031.5498-1.24789 1.0934-1.4394h-.0062c.2657-.09884.5189-.20386.6487-.34594 1.044-1.1305 2.2795-1.41467 3.0641-1.47027.0494-.12356.105-.24711.1668-.37684.4139-.87722.8525-1.37143 1.3652-1.55675.383-.14209.7907-.09267 1.1367.12973l.0046.00308c.1662.11071.3841.25592 1.0023 1.53514.4081-.11571.618-.05731.7304-.02604l.0048.00133c.2718.07413.488.25328.6177.50039.6363 1.22316.7228 3.40387.4448 4.80617-.3212 1.6432-1.0069 2.7058-1.5073 3.4348.4324.4386 1.0378 1.1984 1.4888 2.4339.3706 1.0317.4139 1.9707.3645 2.6873.2285-.105.4942-.2471.8031-.4386.7907-.4881 1.983-1.2232 3.4038-1.2417zm-2.3784 3.6262c1.2232-.7969 1.7236-1.0131 2.712-1.2478.8154-.1977.7598-1.4641-.3212-1.4456-1.1182.0124-2.1004.5869-2.9282 1.0996-1.5506.9575-2.3228.8958-2.3228.8958s-.0062-.0124-.0247-.0433c-.0284-.0467-.0053-.1942.0302-.4209.0957-.612.282-1.8019-.2094-3.1497-.5131-1.4222-1.2376-2.085-1.5892-2.4067-.1478-.1352-.2297-.2102-.2023-.2559.0818-.138.189-.2929.311-.4693.4679-.6766 1.1546-1.6693 1.4682-3.2372.2347-1.1985.173-3.16916-.3583-4.20082-.0989-.19151-.9761.32124-.9761.32124s-.8216-1.82858-1.0502-1.97684c-.7413-.47567-1.5444 1.96448-1.5444 1.96448s-1.6926-.27181-3.0208 1.16139c-.2657.29035-.624.44475-.9946.58685-.0063.0022-.0126.0043-.0191.0064-.1021.033-.2348.076-.5369.8894-.4942 1.322.834 2.7923.834 2.7923s-1.5815 1.1181-2.16836 2.5081c-.64865 1.5258-.45097 3.0146-.45097 3.0146s-1.12432.9761-1.19845 1.983c-.06796.8834.18533 1.6.45714 2.0201.3027.4572.67954.2348.67954.2348s-.74749.871-.04942 1.2417c.63629.3336 1.71122.5251 2.27952-.0495.2854-.2854.4122-.8117.5141-1.2345.0458-.1903.0866-.3597.1346-.4766.0242-.0567.0855.0244.1579.12.0382.0505.0795.105.1201.1456.1297.1235.3521.2594.3521.2594s-1.007.4325-.5931 1.4209c.1359.3274.624.5374 1.4209.5313.2965-.0062 3.5521-.1854 4.417-.3954.5004-.1174.6733-.3768.6733-.3768s2.0881-.5745 3.9969-1.8101z" fill="#959da5" fill-rule="evenodd"/></svg>