<svg fill="none" height="26" viewBox="0 0 33 26" width="33" xmlns="http://www.w3.org/2000/svg"><path d="m15.2666 24.6115c4.2398-.7618 7.7415-1.3923 7.7817-1.4009l.0732-.0158-4.0028-4.843c-2.2014-2.6637-4.0027-4.8533-4.0027-4.866 0-.0239 4.1332-11.60143 4.1564-11.64262.0078-.01377 2.8205 4.92586 6.8183 11.97402 3.7427 6.5986 6.8285 12.0391 6.8572 12.0901l.0521.0927-12.721-.0017-12.72099-.0016zm-15.2666-1.4769c0-.0068 1.88607-3.3372 4.19126-7.4008l4.19125-7.38844 4.88439-4.16952c2.6865-2.29323 4.8917-4.1723188 4.9005-4.1757458.0089-.00342632-.0265.0870484-.0785.2010558-.052.114008-2.4387 5.32129-5.3038 11.57175l-5.20918 11.3644-3.78796.0049c-2.08338.0026-3.78796-.0008-3.78796-.0076z" fill="#fff"/></svg>