<svg fill="none" height="32" viewBox="0 0 88 32" width="88" xmlns="http://www.w3.org/2000/svg"><g fill="#959da5"><path d="m.0016728 21.2867c0-2.709-.00464666-5.4196.00154888-8.1286.00464666-1.792.32061932-2.2087 1.99960832-2.8546 3.08848-1.18643 6.27919-1.59069 9.56597-1.32118 1.0919.08984 2.1359.36554 3.1101.85344.3857.19364.6846.16884 1.0858.04491 3.1752-.98664 6.4031-1.34133 9.6883-.62884 2.8592.6211 4.9084 2.88717 5.3793 5.80677.2276 1.411.2524 2.8221.2493 4.2424-.0062 3.4834.0016 6.9669-.0046 10.4503-.0031 1.4483-.3237 1.7658-1.7828 1.7782-1.0068.0093-2.0135.017-3.0188-.0031-1.2561-.0264-1.6077-.378-1.6093-1.6357-.0093-3.9217-.0046-7.8451-.0031-11.7669 0-.5947-.0108-1.1848-.24-1.7502-.412-1.0176-1.2268-1.5148-2.2521-1.6542-1.0827-.1471-2.1607 0-3.2248.2432-.2927.0666-.4693.1951-.4012.5312.3749 1.868.1642 3.7561.1875 5.6349.0356 2.915.0139 5.8315.0062 8.7481-.0031 1.3088-.3253 1.631-1.6558 1.6511-1.0316.0155-2.0647.0186-3.0962-.0015-1.3073-.0248-1.6434-.364-1.648-1.6744-.0093-3.6894-.0031-7.3804-.0062-11.0699 0-.4646-.0047-.9293-.0326-1.3924-.0898-1.4978-1.0315-2.5185-2.50142-2.6811-.98354-.1085-1.95315.0154-2.91965.223-.5576.1208-.47551.5251-.47551.903-.00155 4.4128-.00155 8.8256-.00155 13.2383 0 2.4024-.05886 2.4628-2.47667 2.4581-.903-.0015-1.806-.0139-2.70745-.031-.751211-.0155-1.1182973-.4429-1.1848995-1.1601-.02633104-.2819-.03252659-.5669-.03252659-.8503 0-2.7323.00154889-5.4676.00154889-8.2029z"/><path d="m57.4076 14.9187c0-4.3616-.0015-8.72329.0016-13.08495.0015-1.493128.3314-1.8199435 1.8153-1.8261391 1.0579-.00464666 2.1173-.0185866 3.1736.0092933.9991.0263311 1.4002.4352368 1.4064 1.4404658.0155 2.32333.0217 4.64511-.0015 6.96844-.0062.5514.1177.70474.6939.60716 2.3853-.4058 4.769-.49719 7.1248.2091 2.8531.85503 4.5708 2.80663 5.0293 5.68133.5529 3.4772.4987 6.9979.0108 10.486-.4445 3.1721-2.8871 5.6224-6.259 6.2311-3.7994.6862-7.5539.4043-11.1861-.9789-1.5473-.5901-1.8075-1.0083-1.8091-2.6579-.0031-4.3616 0-8.7233 0-13.085zm13.1222 5.3484c-.0016 0-.0031 0-.0047 0 0-1.0301.0326-2.0616-.0077-3.0901-.0496-1.2375-.7744-2.1235-1.9392-2.5123-1.4606-.4863-2.9011-.206-4.3446.0806-.3423.0681-.426.2943-.426.6226.0078 3.3487.0109 6.6974-.0015 10.0461-.0016.4321.1936.5499.5746.6474 1.0424.2695 2.0988.2819 3.1489.1828 1.885-.1797 2.9274-1.3119 2.9955-3.1953.0326-.9263.0047-1.8556.0047-2.7818z"/><path d="m53.5044 22.0901c0 2.4473-.0139 4.4097.0047 6.3706.0108 1.1044-.4306 1.8215-1.4854 2.2676-1.5721.6645-3.2109.9464-4.8852 1.0641-3.0436.2137-6.0902.3407-9.047-.6351-2.0198-.6675-3.2961-2.0259-3.7081-4.1572-.2989-1.5473-.2819-3.0838.1162-4.6017.5948-2.2598 2.2567-3.3317 4.4004-3.8444 2.4364-.5823 4.9177-.5297 7.3928-.4925.6319.0093.9076-.1425.8116-.8039-.0588-.4073-.0031-.8333-.0867-1.2329-.254-1.2252-1.1307-1.9702-2.4596-2.0941-1.803-.1673-3.3859.2138-4.4639 1.837-.3656.5498-.8643.7822-1.5334.508-.9975-.4104-2.0244-.7558-3.0033-1.205-.9015-.4136-1.0889-.9944-.6645-1.8974.9696-2.0662 2.6316-3.33939 4.783-3.96514 3.1845-.92623 6.369-.93863 9.476.31287 2.3838.96027 3.6291 2.87937 4.1046 5.32817.4956 2.5603.1394 5.1531.2478 7.241zm-6.4062 2.7013c0-.5158.0016-1.0331 0-1.5489-.0015-.237.0031-.5096-.3299-.4987-1.6217.0542-3.2588-.1843-4.8588.2075-.8628.2107-1.3197.9913-1.3027 2.0415.0171.9897.4616 1.569 1.3445 1.8261 1.016.2958 2.0491.206 3.0776.1688 2.0709-.0743 2.0709-.0898 2.0709-2.1204 0-.0248 0-.0511-.0016-.0759z"/><path d="m87.0927 15.7224c0 4.4887.0016 8.9758-.0015 13.4645 0 .3609-.0264.7202-.0434 1.0811-.0263.5731-.3392.9355-.8906.999-1.4885.1719-2.9832.1518-4.4732.0124-.5452-.0511-.8798-.4011-.9077-.982-.017-.3609-.0511-.7202-.0511-1.0811-.0031-9.0021-.0031-18.0043-.0015-27.00639 0-2.038337.1704-2.20561653 2.1994-2.20561653.7744 0 1.5473-.00154889 2.3218.00154889 1.5489.00619554 1.8416.29119064 1.8463 1.86330764.0093 2.73379.003 5.46912.003 8.20295 0 1.8834-.0015 3.7669-.0015 5.6503z"/></g></svg>