<svg fill="none" height="26" width="28" xmlns="http://www.w3.org/2000/svg"><path d="m0 0h28v26h-28z" fill="#fff"/><g fill="#8392ad"><path d="m11.25 13a.75.75 0 0 1 -.22.53l-2.75 2.75a.75.75 0 0 1 -1.06-1.06l2.22-2.22-2.22-2.22a.75.75 0 1 1 1.06-1.06l2.75 2.75c.141.14.22.331.22.53zm2 2a.75.75 0 0 0 0 1.5h5a.75.75 0 0 0 0-1.5z"/><path clip-rule="evenodd" d="m2 5.75c0-.966.784-1.75 1.75-1.75h20.5c.966 0 1.75.784 1.75 1.75v14.5a1.75 1.75 0 0 1 -1.75 1.75h-20.5a1.75 1.75 0 0 1 -1.75-1.75zm1.75-.25a.25.25 0 0 0 -.25.25v14.5c0 .138.112.25.25.25h20.5a.25.25 0 0 0 .25-.25v-14.5a.25.25 0 0 0 -.25-.25z" fill-rule="evenodd"/></g></svg>