<?xml version="1.0" encoding="utf-8"?>
<!-- Generator: Adobe Illustrator 23.0.2, SVG Export Plug-In . SVG Version: 6.00 Build 0)  -->
<svg version="1.1" id="Layer_1" xmlns="http://www.w3.org/2000/svg" xmlns:xlink="http://www.w3.org/1999/xlink" x="0px" y="0px"
	 width="23.2px" height="24px" viewBox="0 0 23.2 24" style="enable-background:new 0 0 23.2 24;" xml:space="preserve">
<style type="text/css">
	.st0{fill:#2684FF;}
	.st1{fill:url(#SVGID_1_);}
	.st2{fill:url(#SVGID_2_);}
</style>
<path class="st0" d="M22.9,11.3L12.6,1l-1-1L3.8,7.8l-3.5,3.5c-0.4,0.4-0.4,1,0,1.4l7.1,7.1l4.2,4.2l7.8-7.8l0.1-0.1l3.4-3.4
	C23.3,12.3,23.3,11.7,22.9,11.3z M11.6,15.5L8,12l3.5-3.5l3.5,3.5L11.6,15.5z"/>
<linearGradient id="SVGID_1_" gradientUnits="userSpaceOnUse" x1="10.9446" y1="21.1406" x2="5.991" y2="16.187" gradientTransform="matrix(1 0 0 -1 0 26)">
	<stop  offset="0.176" style="stop-color:#0052CC"/>
	<stop  offset="1" style="stop-color:#2684FF"/>
</linearGradient>
<path class="st1" d="M11.6,8.5c-2.3-2.3-2.3-6.1,0-8.4L3.8,7.8L8,12L11.6,8.5z"/>
<linearGradient id="SVGID_2_" gradientUnits="userSpaceOnUse" x1="12.2587" y1="6.9079" x2="17.2024" y2="11.8515" gradientTransform="matrix(1 0 0 -1 0 26)">
	<stop  offset="0.176" style="stop-color:#0052CC"/>
	<stop  offset="1" style="stop-color:#2684FF"/>
</linearGradient>
<path class="st2" d="M15.1,12l-3.5,3.5c2.3,2.3,2.3,6.1,0,8.5l7.8-7.8L15.1,12z"/>
</svg>
