<svg width="48" height="46" viewBox="0 0 48 46" fill="none" xmlns="http://www.w3.org/2000/svg">
<path d="M8.96703 45.9999C7.66639 45.9999 6.99049 45.5062 6.34166 44.3592L0.414934 33.3018C0.00650838 32.5094 0 32.2455 0 31.6746L9.31463 32.0878L11.4465 34.2334H30.1305L14.617 43.9056C13.8609 44.3557 10.9849 45.9999 8.96703 45.9999Z" fill="url(#paint0_linear)"/>
<path d="M11.4551 34.2335H3.39804C0.964537 34.2335 0 32.9525 0 31.6746C0 30.866 0.258528 30.4251 0.615977 29.5264L12.3576 1.31563L12.4838 1.06808L12.6463 0.81408L12.9843 0.482593L13.4804 0.215682L14.1991 0.0563965L15.4352 0.0886843L23.5945 3.14094L20.8355 11.8974L11.4551 34.2335Z" fill="url(#paint1_linear)"/>
<path fill-rule="evenodd" clip-rule="evenodd" d="M35.1127 45.9983L16.5793 1.84083C16.2601 1.08894 15.7482 0.118819 14.4234 0.118819C13.2397 0.118819 12.6759 0.69566 12.3574 1.31563C12.5221 0.868536 13.0203 0 14.4645 0H27.2558C28.4346 0 29.0001 0.698553 29.2578 1.33813L47.9998 45.9983H35.1127Z" fill="url(#paint2_linear)"/>
<defs>
<linearGradient id="paint0_linear" x1="3.89201" y1="39.8078" x2="30.048" y2="34.6296" gradientUnits="userSpaceOnUse">
<stop stop-color="#2B7A77"/>
<stop offset="0.510487" stop-color="#4EBAA9"/>
<stop offset="1" stop-color="#5CC2B1"/>
</linearGradient>
<linearGradient id="paint1_linear" x1="17.3568" y1="3.60454" x2="4.24175" y2="34.2078" gradientUnits="userSpaceOnUse">
<stop stop-color="#236736"/>
<stop offset="0.4928" stop-color="#6BA443"/>
<stop offset="1" stop-color="#86C146"/>
</linearGradient>
<linearGradient id="paint2_linear" x1="22.369" y1="0.142471" x2="41.645" y2="45.7534" gradientUnits="userSpaceOnUse">
<stop stop-color="#29A5E3"/>
<stop offset="0.515493" stop-color="#356EB9"/>
<stop offset="1" stop-color="#394DA5"/>
</linearGradient>
</defs>
</svg>
