<svg width="109" height="109" viewBox="0 0 109 109" fill="none" xmlns="http://www.w3.org/2000/svg">
<rect width="108" height="108" transform="translate(0.396729 0.865601)" fill="none"/>
<path d="M23.3365 46.8255C23.3365 50.9373 21.4291 53.7275 18.1276 54.9023C21.4291 56.0771 23.3365 58.8673 23.3365 62.9791V74.2867C23.3365 76.93 24.6571 78.2516 27.3716 78.2516H31.1866V83.832H25.4641C20.1085 83.832 16.587 80.381 16.587 75.0209V61.6575C16.587 59.0141 15.2664 57.6191 12.6253 57.6191H9.91077V52.1856H12.6253C15.2664 52.1856 16.587 50.7905 16.587 48.1472V34.7103C16.587 29.3502 20.1085 25.8992 25.4641 25.8992H31.1866V31.4795H27.3716C24.6571 31.4795 23.3365 32.8012 23.3365 35.4445V46.8255Z" fill="#A4A1AF"/>
<path d="M96.1683 52.1856H98.8828V57.6191H96.1683C93.5272 57.6191 92.2066 59.0141 92.2066 61.6575V75.0209C92.2066 80.381 88.6851 83.832 83.2561 83.832H77.607V78.2516H81.3486C84.0631 78.2516 85.3836 76.93 85.3836 74.2867V62.9791C85.3836 58.8673 87.3645 56.0771 90.5926 54.9023C87.3645 53.7275 85.3836 50.9373 85.3836 46.8255V35.4445C85.3836 32.8012 84.0631 31.4795 81.3486 31.4795H77.607V25.8992H83.2561C88.6851 25.8992 92.2066 29.3502 92.2066 34.7103V48.1472C92.2066 50.7905 93.5272 52.1856 96.1683 52.1856Z" fill="#A4A1AF"/>
<ellipse cx="54.3968" cy="54.8656" rx="9.86699" ry="12.7474" fill="#9B82FC"/>
<g opacity="0.7">
<path d="M35.3845 41.1541C35.5974 40.7849 35.7039 40.6004 35.8208 40.4627C36.3568 39.8316 37.227 39.5982 38.0064 39.8766C38.1764 39.9373 38.3609 40.0439 38.7297 40.257L42.7328 42.5701C43.1017 42.7832 43.2861 42.8898 43.4236 43.0068C44.0542 43.5432 44.2874 44.4141 44.0093 45.1942C43.9486 45.3644 43.8421 45.549 43.6292 45.9181C43.4162 46.2873 43.3097 46.4719 43.1928 46.6095C42.6569 47.2406 41.7867 47.474 41.0072 47.1956C40.8372 47.1349 40.6528 47.0284 40.2839 46.8152L36.2808 44.5021C35.912 44.289 35.7275 44.1824 35.59 44.0654C34.9594 43.529 34.7262 42.6581 35.0044 41.878C35.065 41.7078 35.1715 41.5233 35.3845 41.1541Z" fill="#9B82FC"/>
<path d="M33.8341 54.0485C33.8016 54.2262 33.8016 54.4393 33.8016 54.8656C33.8016 55.2919 33.8016 55.505 33.8341 55.6827C33.983 56.4975 34.62 57.1351 35.4341 57.284C35.6117 57.3165 35.8246 57.3165 36.2505 57.3165H39.1862C39.6121 57.3165 39.8251 57.3165 40.0026 57.284C40.8167 57.1351 41.4538 56.4975 41.6026 55.6827C41.6351 55.505 41.6351 55.2919 41.6351 54.8656C41.6351 54.4393 41.6351 54.2262 41.6026 54.0485C41.4538 53.2337 40.8167 52.5962 40.0026 52.4472C39.8251 52.4147 39.6121 52.4147 39.1862 52.4147H36.2505C35.8246 52.4147 35.6117 52.4147 35.4341 52.4472C34.62 52.5962 33.983 53.2337 33.8341 54.0485Z" fill="#9B82FC"/>
<path d="M67.191 54.0485C67.1585 54.2262 67.1585 54.4393 67.1585 54.8656C67.1585 55.2919 67.1585 55.505 67.191 55.6827C67.3398 56.4975 67.9769 57.1351 68.791 57.284C68.9685 57.3165 69.1815 57.3165 69.6074 57.3165H72.543C72.969 57.3165 73.1819 57.3165 73.3595 57.284C74.1736 57.1351 74.8106 56.4975 74.9595 55.6827C74.992 55.505 74.992 55.2919 74.992 54.8656C74.992 54.4393 74.992 54.2262 74.9595 54.0485C74.8106 53.2337 74.1736 52.5962 73.3595 52.4472C73.1819 52.4147 72.969 52.4147 72.543 52.4147H69.6074C69.1815 52.4147 68.9685 52.4147 68.791 52.4472C67.9769 52.5962 67.3398 53.2337 67.191 54.0485Z" fill="#9B82FC"/>
<path d="M65.1643 63.8132C64.9514 64.1822 64.8449 64.3669 64.7842 64.537C64.5061 65.3171 64.7393 66.1881 65.3699 66.7245C65.5074 66.8415 65.6918 66.948 66.0607 67.1612L70.0636 69.4742C70.4324 69.6873 70.6169 69.7939 70.7869 69.8546C71.5663 70.1329 72.4366 69.8996 72.9725 69.2685C73.0894 69.1308 73.1959 68.9462 73.4089 68.5771C73.6217 68.208 73.7283 68.0233 73.789 67.8532C74.0671 67.0731 73.8339 66.2021 73.2033 65.6657C73.0658 65.5487 72.8814 65.4422 72.5125 65.229L68.5096 62.916C68.1408 62.703 67.9563 62.5963 67.7863 62.5356C67.0069 62.2573 66.1366 62.4907 65.6007 63.1218C65.4838 63.2594 65.3773 63.444 65.1643 63.8132Z" fill="#9B82FC"/>
<path d="M35.3834 68.5778C35.1704 68.2086 35.0639 68.024 35.0033 67.8539C34.7251 67.0738 34.9583 66.2028 35.5889 65.6664C35.7264 65.5494 35.9109 65.4429 36.2797 65.2297L40.2839 62.916C40.6528 62.7028 40.8372 62.5963 41.0072 62.5356C41.7867 62.2572 42.6569 62.4906 43.1929 63.1217C43.3098 63.2593 43.4162 63.4439 43.6292 63.8131C43.8422 64.1822 43.9486 64.3668 44.0093 64.537C44.2874 65.3171 44.0543 66.188 43.4237 66.7244C43.2861 66.8414 43.1017 66.948 42.7329 67.1611L38.7286 69.4749C38.3599 69.6879 38.1753 69.7946 38.0053 69.8553C37.2259 70.1336 36.3557 69.9002 35.8197 69.2691C35.7028 69.1315 35.5963 68.9469 35.3834 68.5778Z" fill="#9B82FC"/>
<path d="M64.7843 45.1943C64.845 45.3644 64.9514 45.549 65.1644 45.9182C65.3774 46.2873 65.4838 46.4719 65.6007 46.6095C66.1367 47.2407 67.0069 47.474 67.7864 47.1957C67.9564 47.135 68.1408 47.0284 68.5097 46.8153L72.5119 44.5027C72.8807 44.2895 73.0652 44.183 73.2027 44.066C73.8333 43.5296 74.0665 42.6586 73.7883 41.8785C73.7277 41.7084 73.6212 41.5238 73.4082 41.1546C73.1953 40.7855 73.0888 40.6009 72.9719 40.4632C72.4359 39.8321 71.5657 39.5988 70.7863 39.8771C70.6163 39.9378 70.4318 40.0444 70.063 40.2575L66.0608 42.5701C65.6919 42.7833 65.5075 42.8898 65.3699 43.0068C64.7394 43.5432 64.5062 44.4142 64.7843 45.1943Z" fill="#9B82FC"/>
</g>
</svg>
