<svg xmlns="http://www.w3.org/2000/svg" xmlns:xlink="http://www.w3.org/1999/xlink" viewBox="0 0 65 61" fill="#fff" fill-rule="evenodd" stroke="#000" stroke-linecap="round" stroke-linejoin="round" width="300" height="300" font-family="Roboto" font-size="14" text-anchor="middle"><defs><style/></defs><use xlink:href="#A" x=".5" y=".5"/><symbol id="A" overflow="visible"><path d="M34.83 59.64c-7.345-.32-15.808 0-24.207-1.214-1.5-.224-2.746-.734-3.768-1.82-1.725-1.853-3.065-3.96-3.895-6.323C1.074 45.046-.17 39.68.02 34.103c.064-1.5-.064-3.257 1.5-4.12 1.597-.862 3.066.096 4.44.958.32.192.64.383.926.607 3.896 3.385 8.335 3.768 13.157 2.46 2.363-.64 4.822-.766 7.28-.224.862.192 1.597.064 2.108-.703.5-.798.128-1.565-.35-2.204-.255-.383-.67-.703-1.054-.926-7.888-5.078-8.622-17.916-4.44-24.207 4.408-6.653 13.2-7.74 18.873-2.14 1.022 1 2.012 2.044 2.97 3.13 1.022 1.118 2.172 1.214 3.48.575a14.104 14.104 0 003.162-2.14 27.457 27.457 0 011.788-1.565c.447-.35.958-.926 1.533-.575.48.287.447 1.022.5 1.597.16 2.62-.958 4.982-1.66 7.4-.447 1.5-.128 2.172 1.405 2.395 1 .128 1.98.383 2.938.67.575.16 1.3.255 1.47 1.054s-.415 1.277-.958 1.693L54.84 21.2c-2.3 1.884-3.417 4.44-3.96 7.25-.287 1.5.287 2.714 1.597 3.545 1.214.766 2.427 1.5 3.673 2.235 7.4 4.343 8.75 11.752 7.345 18.46-.798 3.928-3.896 6.195-7.888 6.42-6.6.32-13.157.607-20.8.543z" stroke="none" fill="#010101" fill-rule="nonzero"/></symbol></svg>