<svg width="128" height="118" viewBox="0 0 128 118" fill="none" xmlns="http://www.w3.org/2000/svg">
<path d="M102.4 67.1086C116.538 67.1086 128 78.3757 128 92.2744C128 106.173 116.538 117.44 102.4 117.44L0 117.44L2.68563e-06 67.1086L102.4 67.1086Z" fill="#131415"/>
<path d="M34.1334 1.22225e-06C48.2719 1.72853e-06 59.7334 11.2671 59.7334 25.1657C59.7334 39.0644 48.2719 50.3315 34.1334 50.3315H7.36402e-05L7.63259e-05 0L34.1334 1.22225e-06Z" fill="#131415"/>
<path d="M127.999 25.1657C127.999 39.0644 116.538 50.3315 102.399 50.3315C88.2608 50.3315 76.7993 39.0644 76.7993 25.1657C76.7993 11.2671 88.2608 0 102.399 0C116.538 0 127.999 11.2671 127.999 25.1657Z" fill="url(#paint0_linear)"/>
<defs>
<linearGradient id="paint0_linear" x1="76.9511" y1="24.5335" x2="129.08" y2="24.5335" gradientUnits="userSpaceOnUse">
<stop stop-color="#19AEFF"/>
<stop offset="1" stop-color="#015CD5"/>
</linearGradient>
</defs>
</svg>
