<svg enable-background="new 0 0 221.8 221.9" viewBox="0 0 221.8 221.9" xmlns="http://www.w3.org/2000/svg"><path d="m83.6 111c0-14.2 11.5-25.7 25.7-25.7s25.7 11.5 25.7 25.7-11.5 25.7-25.7 25.7-25.7-11.5-25.7-25.7zm25.7-108c-50.4 0-92.7 34.5-104.6 81.2-.1.3-.1.7-.1 1 0 2.8 2.3 5.1 5.1 5.1h43.5c2.1 0 3.9-1.2 4.7-3 8.9-19.5 28.6-33 51.4-33 31.2 0 56.6 25.3 56.6 56.6 0 31.2-25.3 56.6-56.6 56.6-22.8 0-42.5-13.5-51.4-33-.8-1.8-2.6-3-4.7-3h-43.5c-2.8 0-5.1 2.3-5.1 5.1 0 .4.1.7.1 1 11.8 46.8 54.2 81.4 104.6 81.4 59.6 0 108-48.4 108-108 0-59.7-48.4-108-108-108z" fill="#171717"/></svg>