<?xml version="1.0" encoding="UTF-8"?><svg id="Protection_zone" xmlns="http://www.w3.org/2000/svg" viewBox="0 0 173.3 192.49"><path d="M119.44,100.61h-60.36c-7.09,0-11.55,4.66-11.55,11.14v21.67c0,6.48,4.46,11.14,11.55,11.14h64.01c2.03,0,3.44-1.42,3.44-3.44v-14.38c0-2.03-1.42-3.44-3.44-3.44h-53.27v-8.91h-6.48v15.39h56.51v8.3h-60.77c-2.84,0-4.66-1.82-4.66-4.66v-21.67c0-2.84,1.82-4.66,4.66-4.66h63.6c2.03,0,3.44-1.42,3.44-3.44v-14.38c0-2.03-1.42-3.44-3.44-3.44h-63.6c-2.84,0-4.66-1.82-4.66-4.66v-21.47c0-2.84,1.82-4.66,4.66-4.66h60.97v8.3h-56.71v15.19h6.48v-8.71h53.27c2.03,0,3.44-1.42,3.44-3.44v-14.18c0-2.03-1.42-3.65-3.44-3.65H59.08c-7.09,0-11.55,4.66-11.55,11.14v21.47c0,6.48,4.46,11.14,11.55,11.14h60.36v8.3Z" style="fill:#ff6d43; stroke-width:0px;"/><rect x=".38" y=".21" width="173.05" height="191.76" style="fill:none; stroke-width:0px;"/></svg>