<svg width="250" height="250" viewBox="0 0 250 250" fill="none" xmlns="http://www.w3.org/2000/svg">
<mask id="mask0_1562_17" style="mask-type:alpha" maskUnits="userSpaceOnUse" x="0" y="0" width="250" height="250">
<circle cx="125" cy="125" r="125" fill="#C4C4C4"/>
</mask>
<g mask="url(#mask0_1562_17)">
<path d="M251 251L251 0L215.111 0V251H251Z" fill="#74D0B3"/>
<path d="M179.461 251L179.461 0L143.573 0V251H179.461Z" fill="#74D4E2"/>
<path d="M179.47 146.018V0L143.581 0V146.018H179.47Z" fill="#00BEAD"/>
<path d="M180.026 168.057V133.533H143.128V168.057H180.026Z" fill="#FC7ACF"/>
<path d="M107.615 251L107.615 91.557H72.188V251H107.615Z" fill="#0068A4"/>
<path d="M72.188 251L72.188 0L35.8973 0L35.8973 251H72.188Z" fill="#00A06A"/>
<path d="M35.8887 251L35.8887 0L-0.000225067 0L-0.000225067 251H35.8887Z" fill="#00B4AB"/>
<path d="M107.675 95.1035V0L72.1877 0V95.1035H107.675Z" fill="#0083C4"/>
<path d="M107.615 128.893V94.1977H72.188V128.893H107.615Z" fill="#FC7ACF"/>
<path d="M215.351 251L215.351 0L179.462 0V251H215.351Z" fill="#00AE6D"/>
<path d="M143.564 251L143.564 0L107.675 0L107.675 251H143.564Z" fill="#27C5B2"/>
</g>
</svg>
