<svg xmlns="http://www.w3.org/2000/svg" viewBox="0 0 200.12 193.53"><path d="M88.89 127.01l-10.53 2.95c.96 2.68 1.66 7.49 1.66 13.86v31.59h11.77v-33.44c2.19-2.68 4.56-3.97 7.2-3.97 1.31 0 2.28.28 3.43.92l3.24-10.9c-1.84-.83-2.63-1.02-4.39-1.02-1.31 0-2.89.28-3.86.74-2.19 1.11-5 3.6-6.67 6-.18-2.67-.8-4.79-1.85-6.73zM48.04 111.4h-1.28v64.02h12.29v-28.36h15.53v-10.53H59.05v-14.69h19.39l.75-5.59c-11.66-.9-22.25-2.77-31.15-4.85zm-28.8 72.52l5.7 6.66c5.53-2.22 12.46-7.21 14.22-15.06.61-2.58.87-4.25.87-12.56v-51.41H27.58v52.79c0 6.93-.26 9.51-1.23 11.82-1.14 2.59-3.95 5.73-7.11 7.76zm111.94-32.43c0 11.18-2.19 15.98-7.28 15.98-2.28 0-4.92-1.29-5.97-3.87-.96-2.4-1.49-6.47-1.49-11.92 0-4.71.43-8.03 1.23-10.53.96-2.96 3.25-4.81 6.05-4.81 2.11 0 3.95.92 5.09 2.5 1.58 2.12 2.37 6.28 2.37 12.65zm7.2 18.39c3.86-4.62 5.62-10.17 5.62-18.29 0-7.67-1.58-12.84-5.18-17.28-3.85-4.8-8.86-7.11-15.27-7.11-12.11 0-20.18 9.88-20.18 24.76s7.98 24.48 20.18 24.48c6.93 0 11.4-2.5 14.83-6.56zm33.7-26.52c0 4.34-2.55 6.75-7.2 6.75-4.13 0-6.94-1.94-6.94-6.75 0-4.43 2.55-7.02 7.03-7.02s7.11 2.59 7.11 7.02zm20.8-10.07l-4.91-7.85c-2.72 2.59-6.06 4.07-9.3 4.07-1.49 0-2.28-.19-5.53-1.02-3.25-.92-5.53-1.2-8.07-1.2-11.5 0-18.95 6.28-18.95 15.98 0 7.02 3.16 11.36 9.65 13.12-2.63.65-5.53 2.03-6.85 3.6-.96 1.11-1.41 2.59-1.41 4.34 0 1.48.35 2.77.88 3.88.61 1.02 1.49 1.85 2.55 2.3 2.11.84 5.53 1.39 10.79 1.48 2.72 0 4.39.09 5 .09 3.25.19 4.91.74 6.14 1.39 1.23.73 2.11 2.4 2.11 4.25s-1.14 3.7-2.81 4.81c-1.58 1.1-4.13 1.56-7.46 1.56-5.45 0-8.42-2.03-8.42-5.82 0-1.66.18-2.03.52-3.05h-10.88c-.43.92-1.06 2.22-1.06 4.81 0 3.23 1.24 6 3.69 8.4 4.03 3.97 10.62 5.08 17.03 5.08 7.02 0 13.78-1.66 17.73-6.1 2.46-2.77 3.6-5.82 3.6-9.79 0-4.25-1.23-7.49-3.86-10.07-3.16-3.05-6.75-4.16-13.6-4.25l-6.32-.09c-1.23 0-1.93-.46-1.93-1.11 0-1.29 1.67-2.4 4.65-3.87.88.09 1.23.09 1.76.09 9.57 0 16.58-5.92 16.58-14.05 0-3.14-.88-5.54-2.63-7.76 1.49.19 1.94.28 3.07.28 3.24.01 5.69-1 8.24-3.5zM44.94 55.79c-14.71 3.6-24.71 10.64-24.71 18.74 0 5.01 3.83 9.61 10.23 13.24-1.92-3.08-2.97-6.31-2.97-9.65 0-8.42 6.53-16.17 17.45-22.33zm155.18 31.65c0-5.31-3.27-10.23-8.84-14.27.5 1.62.79 3.27.79 4.96 0 15.21-21.25 28.22-51.36 33.62 3.4.38 6.94.59 10.57.59 26.97 0 48.84-11.15 48.84-24.9zm-17.36-8.27c0-5.58-4.78-10.75-12.92-15.01 1.91 2.31 2.94 4.77 2.94 7.33 0 13.48-28.73 24.42-64.16 24.42-35.43 0-64.15-10.93-64.15-24.42 0-1.72.47-3.39 1.35-5-5.69 3.76-8.94 8.09-8.94 12.68 0 14.6 32.65 26.43 72.94 26.43s72.94-11.84 72.94-26.43zm-31.86-.66c-14.86 9.61-60.65 13.23-80.37.91-15.46-9.66-10.15-24.97-54.36-58.71-5.78-4.41 1.07-9.09 5.4-6.09 4.32 3 .36 3.8 9.1 12.54 17.63 17.65 17.46 1.78 20.25 7.78C56.78 47.56 69.7 60.27 69.7 60.27c12.95 8.42 23.28 10.26 42.37-2.65 12.11-8.19 7.16 13.03 36.85-2.26 10.83-5.58 10.38-1.88 21.38-17.22 4.57-6.37 13.3 4.89 3.4 6.46-3.96.63-10.65 4.96-13.52 11.81-4.07 10.11-2.31 17.6-9.28 22.1zM68.38 52.56c-3.67-1.62-7.51-7.87-9.01-10.38 4.11-4.02 2.44-10.75.13-14.45-2.32-3.69-5.13-2.64-8.21-6.04-3.08-3.39 1.16-12.24 5.12-5.44 14.8 25.47 24.52 14.87 36.62 13.36 11.61-1.46 21.87 4.87 25.02-13.04.51-2.93 3.36-3.63 3.65 1.22.3 4.84 2.11 16.63 8.49 18.16 6.38 1.52 11.45-1.5 12.95-3.17 1.49-1.67 2.27-1.43 2.93 2.72.65 4.16 2.27 9.9 11.23 3.51 18.33-13.08 13.08-18.14 20.2-21.5 4.06-1.92 10.45 4.31 1.21 8.98-13.22 6.68-14.62 14.98-22.97 20.25-14.04 8.87-9.74.36-32.33-2.86-8.7-1.24-11.49 8.46-18.28 5.66-15.68-6.46-26.61-5.22-36.75 3.02zm48.94-47.21c.51 3.82 1.16 3.73 2.53 4.09 1.37.35 3.1-1.8 3.16-3.89.06-2.09-.89-3.41-2.96-3.33-2.05.07-2.79 1.11-2.73 3.13zm68.07 6.96c1.64 1.6 6.03.52 7.06-.63 2.63-2.94 2.72-4.72 1.37-6.69-1.36-1.97-4.23-1.61-7.07.45-2.84 2.05-2.3 5.96-1.36 6.87zm-1.24 19.45c-1.41 1.88-1.45 3.2-.45 4.24 1.07 1.1 3.29 2.06 4.89.79 1.59-1.26 1.59-3.1.24-4.73-1.36-1.63-3.21-1.63-4.68-.3zM44.64 8.77c2.15.66 3.1 2.66 4.91.38.9-1.13.98-2.62-.2-4.3-.75-1.05-4.25-1.78-5.73-.28-1.49 1.49-.13 3.84 1.02 4.2zM1.48 7.48c3.86 2.36 6.38 5.94 9.29 2.75.98-1.06 2.2-3.08.09-6.93C9.32.47 4.25-.68 2.46.4s-3.97 5.24-.98 7.08zm35.63 18.29c1.23 1.27 3.31 1.17 4.56.48 1.24-.7.98-2.63-.21-4.31-.75-1.05-2.97-1.54-4.46-.04-1.48 1.5-.74 2.97.11 3.87z" fill="#5f9513"/></svg>