<?xml version="1.0" encoding="UTF-8"?>
<!DOCTYPE svg PUBLIC "-//W3C//DTD SVG 1.1//EN" "http://www.w3.org/Graphics/SVG/1.1/DTD/svg11.dtd">
<svg xmlns="http://www.w3.org/2000/svg" version="1.1" width="48" height="48" viewBox="0 0 800 800" style="shape-rendering:geometricPrecision; text-rendering:geometricPrecision; image-rendering:optimizeQuality; fill-rule:evenodd; clip-rule:evenodd" xmlns:xlink="http://www.w3.org/1999/xlink">
<g><path style="opacity:0.994" fill="#f15b29" d="M 371.5,72.5 C 511.182,66.769 622.682,119.436 706,230.5C 769.135,322.844 787.801,423.511 762,532.5C 739.238,587.92 698.405,621.42 639.5,633C 611.107,637.41 583.44,634.41 556.5,624C 534.521,613.177 512.188,603.177 489.5,594C 382.184,561.923 287.184,583.257 204.5,658C 184.927,677.565 168.427,699.398 155,723.5C 154.094,725.612 152.594,726.445 150.5,726C 61.1083,643.32 19.6083,540.82 26,418.5C 39.7524,284.529 104.586,184.029 220.5,117C 267.888,91.7414 318.222,76.908 371.5,72.5 Z M 392.5,314.5 C 451.542,315.249 494.042,341.916 520,394.5C 540.005,445.8 532.339,492.467 497,534.5C 456.802,575.409 409.302,587.242 354.5,570C 310.306,552.473 282.473,520.64 271,474.5C 261.039,412.936 282.206,365.436 334.5,332C 352.742,322.112 372.075,316.279 392.5,314.5 Z"/></g>
</svg>
