<?xml version="1.0" encoding="UTF-8"?>
<svg id="Layer_1" data-name="Layer 1" xmlns="http://www.w3.org/2000/svg" viewBox="0 0 253.03 252.12">
  <defs>
    <style>
      .cls-1 {
        fill: #030659;
      }

      .cls-2 {
        fill: #0080ff;
      }
    </style>
  </defs>
  <path class="cls-2" d="m24.94,50.06c-4.09,5.42-7.72,11.17-10.85,17.19,17.71,13.34,29.02,34.79,29.02,59.49s-11.1,45.47-28.6,58.92c3.25,5.95,6.92,11.66,11,17.08,24.87-15.8,41.09-43.66,41.09-76s-16.44-60.77-41.66-76.68Zm8.43,76.64c.2-19.47-8.42-38-23.45-50.38-13.35,32.1-13.23,68.21.32,100.23,14.81-12.3,23.31-30.6,23.16-49.84h-.03ZM73.97,11.1c-6.89,3-13.47,6.67-19.64,10.97,19.98,13.29,35.64,32.14,45.04,54.22,6.79-3.69,14.29-5.87,21.99-6.4-10.05-23.6-26.46-43.96-47.39-58.79Zm.63,134.17c-4.68,26.65-20.17,50.17-42.8,65,4.55,5.1,9.51,9.81,14.84,14.09,20.28-12.73,35.96-31.62,44.72-53.9-7.99-6.52-13.83-15.3-16.76-25.19Zm25.18,30.63c-9.18,22.24-24.74,41.27-44.72,54.69,6.28,4.22,12.93,7.85,19.87,10.85,20.92-15,37.23-35.55,47.07-59.34-7.76-.47-15.34-2.58-22.22-6.2ZM45.9,28.29c-5.32,4.29-10.25,9.04-14.73,14.2,22.68,14.7,38.31,38.1,43.22,64.68,2.92-9.87,8.67-18.66,16.54-25.29-8.96-22.18-24.73-40.94-45.04-53.59Z"/>
  <path class="cls-1" d="m126.49,0c-14.24-.02-28.38,2.32-41.84,6.94,21.17,16.33,37.51,38.1,47.28,62.98,28.39,2.46,49.53,24.23,49.53,56.14s-20.81,53.26-48.93,56.04c-9.64,24.99-25.87,46.9-46.97,63.4,13.18,4.39,26.99,6.63,40.88,6.62,70.23,0,126.59-54.98,126.59-126.06S196.69,0,126.49,0Z"/>
</svg>