<svg xmlns="http://www.w3.org/2000/svg" viewBox="0 0 374.05 117.84"><defs><style>.cls-1{fill:#1d164d;}.cls-2{fill:#6837ff;}</style></defs><g id="Layer_2" data-name="Layer 2"><g id="Layer_1-2" data-name="Layer 1"><polygon class="cls-1" points="372.53 22.45 342.18 22.45 325.03 49.42 308.75 22.45 277.05 22.45 305.63 67.49 277.05 109.58 308.86 109.8 372.53 22.45"/><path class="cls-1" d="M231.14,20.37C204.81,20.37,183,38.73,183,66.1,183,93.64,204.81,112,231.14,112c25.81,0,47.64-18.37,47.64-45.91C278.78,38.73,257,20.37,231.14,20.37Zm0,68.25c-11.26,0-21.48-8.83-21.48-22.52,0-13.51,10.22-22.52,21.48-22.52,10.74,0,21,9,21,22.52C252.1,79.79,241.88,88.62,231.14,88.62Z"/><polygon class="cls-1" points="334.07 95.84 342.18 109.58 374.05 109.58 350.06 74.45 334.07 95.84"/><path class="cls-2" d="M143,0V5.86A15,15,0,0,1,138.6,16.4a15,15,0,0,1-10.54,4.36H106.3a34.94,34.94,0,0,0-24.86,10.5,35,35,0,0,0-24.87-10.5H34.82A15,15,0,0,1,24.28,16.4,15,15,0,0,1,19.91,5.86V0H0V5.86A34.86,34.86,0,0,0,34.82,40.67H56.57c18.18,0,24.27,24.14,24.33,24.39l.48,2,.72-1.91c.1-.25,9.41-24.46,24.2-24.46h21.76A34.86,34.86,0,0,0,162.88,5.86V0Z"/><path class="cls-2" d="M104.94,52.23,81.48,91.35l-23.24-39-26-.1,40,65.51,3.12.06,2.66,0,3.65,0,3.56,0c.82,0,1.63,0,2.42,0l3.26.06,40-65.57Z"/></g></g></svg>