<svg width="300" height="300" viewBox="0 0 300 300" fill="none" xmlns="http://www.w3.org/2000/svg">
<path d="M226.002 94H182.095C174.752 93.9979 167.626 96.5004 161.889 101.096C156.153 105.691 152.147 112.107 150.53 119.287C148.914 112.107 144.908 105.691 139.171 101.096C133.435 96.5004 126.309 93.9979 118.965 94H75.0884C71.0867 94 67.2489 95.5934 64.4193 98.4297C61.5897 101.266 60 105.113 60 109.124V186.557C60 190.568 61.5897 194.415 64.4193 197.251C67.2489 200.087 71.0867 201.681 75.0884 201.681H103.274C135.382 201.681 144.978 209.424 149.565 225.364C149.612 225.551 149.722 225.715 149.876 225.831C150.029 225.946 150.218 226.006 150.41 226H150.591C150.782 226.006 150.971 225.946 151.124 225.831C151.278 225.715 151.388 225.551 151.435 225.364C156.053 209.424 165.649 201.681 197.727 201.681H225.912C229.913 201.681 233.751 200.087 236.581 197.251C239.41 194.415 241 190.568 241 186.557V109.124C241 105.128 239.423 101.295 236.613 98.4616C233.803 95.628 229.988 94.024 226.002 94ZM136.045 177.574C136.045 177.716 136.017 177.858 135.963 177.99C135.908 178.122 135.828 178.242 135.727 178.343C135.626 178.445 135.507 178.525 135.375 178.58C135.243 178.634 135.102 178.662 134.959 178.662H84.5639C84.4212 178.662 84.28 178.634 84.1482 178.58C84.0164 178.525 83.8966 178.445 83.7957 178.343C83.6948 178.242 83.6147 178.122 83.5601 177.99C83.5055 177.858 83.4776 177.716 83.4776 177.574V170.375C83.4776 170.232 83.5055 170.09 83.5601 169.958C83.6147 169.826 83.6948 169.706 83.7957 169.605C83.8966 169.504 84.0164 169.423 84.1482 169.369C84.28 169.314 84.4212 169.286 84.5639 169.286H134.959C135.102 169.286 135.243 169.314 135.375 169.369C135.507 169.423 135.626 169.504 135.727 169.605C135.828 169.706 135.908 169.826 135.963 169.958C136.017 170.09 136.045 170.232 136.045 170.375V177.574ZM136.045 158.397C136.045 158.685 135.931 158.962 135.727 159.167C135.523 159.371 135.247 159.486 134.959 159.486H84.5639C84.2758 159.486 83.9994 159.371 83.7957 159.167C83.5919 158.962 83.4776 158.685 83.4776 158.397V151.198C83.4776 150.909 83.5919 150.632 83.7957 150.428C83.9994 150.224 84.2758 150.109 84.5639 150.109H134.959C135.247 150.109 135.523 150.224 135.727 150.428C135.931 150.632 136.045 150.909 136.045 151.198V158.397ZM136.045 139.22C136.045 139.509 135.931 139.786 135.727 139.99C135.523 140.194 135.247 140.309 134.959 140.309H84.5639C84.2758 140.309 83.9994 140.194 83.7957 139.99C83.5919 139.786 83.4776 139.509 83.4776 139.22V132.021C83.4776 131.732 83.5919 131.455 83.7957 131.251C83.9994 131.047 84.2758 130.932 84.5639 130.932H134.959C135.247 130.932 135.523 131.047 135.727 131.251C135.931 131.455 136.045 131.732 136.045 132.021V139.22ZM217.523 177.543C217.523 177.686 217.494 177.828 217.44 177.96C217.385 178.092 217.305 178.212 217.204 178.313C217.103 178.414 216.984 178.495 216.852 178.549C216.72 178.604 216.579 178.632 216.436 178.632H166.041C165.898 178.632 165.757 178.604 165.625 178.549C165.494 178.495 165.374 178.414 165.273 178.313C165.172 178.212 165.092 178.092 165.037 177.96C164.983 177.828 164.955 177.686 164.955 177.543V170.344C164.955 170.201 164.983 170.06 165.037 169.928C165.092 169.796 165.172 169.676 165.273 169.574C165.374 169.473 165.494 169.393 165.625 169.338C165.757 169.284 165.898 169.255 166.041 169.255H216.436C216.579 169.255 216.72 169.284 216.852 169.338C216.984 169.393 217.103 169.473 217.204 169.574C217.305 169.676 217.385 169.796 217.44 169.928C217.494 170.06 217.523 170.201 217.523 170.344V177.543ZM217.523 158.366C217.523 158.655 217.408 158.932 217.204 159.136C217.001 159.341 216.724 159.455 216.436 159.455H166.041C165.753 159.455 165.477 159.341 165.273 159.136C165.069 158.932 164.955 158.655 164.955 158.366V151.168C164.955 150.879 165.069 150.602 165.273 150.398C165.477 150.193 165.753 150.079 166.041 150.079H216.436C216.724 150.079 217.001 150.193 217.204 150.398C217.408 150.602 217.523 150.879 217.523 151.168V158.366ZM217.523 139.19C217.523 139.478 217.408 139.755 217.204 139.96C217.001 140.164 216.724 140.278 216.436 140.278H166.041C165.753 140.278 165.477 140.164 165.273 139.96C165.069 139.755 164.955 139.478 164.955 139.19V132.021C164.955 131.732 165.069 131.455 165.273 131.251C165.477 131.047 165.753 130.932 166.041 130.932H216.436C216.724 130.932 217.001 131.047 217.204 131.251C217.408 131.455 217.523 131.732 217.523 132.021V139.22V139.19Z" fill="#018EF5"/>
</svg>
