<svg width="280" height="280" viewBox="0 0 280 280" fill="none" xmlns="http://www.w3.org/2000/svg">
<g clip-path="url(#clip0_217_10994)">
<mask id="mask0_217_10994" style="mask-type:luminance" maskUnits="userSpaceOnUse" x="0" y="0" width="280" height="280">
<path d="M280 0H0V280H280V0Z" fill="white"/>
</mask>
<g mask="url(#mask0_217_10994)">
<path fill-rule="evenodd" clip-rule="evenodd" d="M139.471 131.394C152.551 131.394 159.592 124.589 159.592 115.128C159.592 105.101 152.551 98.8596 139.471 98.8596H123.386C121.933 98.8596 120.76 99.9978 120.76 101.403V128.852C120.76 130.256 121.933 131.394 123.386 131.394H139.471ZM130.402 157.121H123.39C121.937 157.121 120.764 158.259 120.764 159.663V204.516C120.764 205.922 119.589 207.06 118.136 207.06H91.5964C90.146 207.06 88.97 205.922 88.97 204.516V75.4839C88.97 74.0787 90.146 72.9401 91.5964 72.9401H145.512C173.685 72.9401 191.796 91.1036 191.796 114.934C191.796 132.125 182.241 145.411 166.376 151.759C164.928 152.34 164.254 153.952 164.975 155.302L190.62 203.347C191.526 205.041 190.254 207.06 188.29 207.06H159.215C158.218 207.06 157.305 206.513 156.862 205.647L132.755 158.533C132.311 157.668 131.401 157.121 130.402 157.121Z" fill="#10191F"/>
<path fill-rule="evenodd" clip-rule="evenodd" d="M0.757262 189.61L7.8883 182.477C8.89966 181.468 10.5368 181.468 11.548 182.477L34.7221 205.653C35.2078 206.139 35.4792 206.795 35.4792 207.481V241.933C35.4792 243.361 36.6374 244.518 38.0671 244.518H72.5161C73.2024 244.518 73.8611 244.79 74.345 245.276L97.5212 268.451C98.5306 269.461 98.5306 271.1 97.5212 272.11L90.3882 279.241C89.9038 279.727 89.2458 279.999 88.5612 279.999H2.58622C1.15822 279.999 0 278.841 0 277.413V191.439C0 190.753 0.273142 190.096 0.757262 189.61Z" fill="#F7DA61"/>
<path fill-rule="evenodd" clip-rule="evenodd" d="M38.0671 244.521C37.3531 244.521 36.7066 244.233 36.238 243.764L0.757141 279.244C1.22559 279.712 1.87211 280 2.58793 280H88.5612C89.2458 280 89.9038 279.73 90.3896 279.244L97.5212 272.111C98.532 271.1 98.532 269.464 97.5212 268.454L74.345 245.279C73.8609 244.793 73.2022 244.521 72.5178 244.521H38.0671Z" fill="#EEAD09"/>
<path fill-rule="evenodd" clip-rule="evenodd" d="M189.608 0.757262L182.475 7.88858C181.465 8.89994 181.465 10.5371 182.475 11.5466L205.652 34.7231C206.137 35.2087 206.794 35.4802 207.48 35.4802H241.931C243.359 35.4802 244.518 36.6386 244.518 38.0682V72.5199C244.518 73.2045 244.79 73.8632 245.276 74.3471L268.45 97.524C269.459 98.5348 271.099 98.5348 272.11 97.524L279.241 90.391C279.726 89.9052 279.999 89.2472 279.999 88.5626V2.58622C279.999 1.15654 278.839 0 277.411 0H191.437C190.75 0 190.092 0.273142 189.608 0.757262Z" fill="#F7DA61"/>
<path fill-rule="evenodd" clip-rule="evenodd" d="M279.238 0.757416L243.758 36.2376C244.226 36.7062 244.516 37.3527 244.516 38.0684V72.52C244.516 73.2046 244.787 73.8633 245.274 74.3474L268.45 97.524C269.459 98.5348 271.096 98.5348 272.107 97.524L279.238 90.391C279.724 89.9052 279.996 89.2486 279.996 88.564V2.58652C279.996 1.87252 279.707 1.226 279.238 0.757416Z" fill="#EEAD09"/>
</g>
</g>
<defs>
<clipPath id="clip0_217_10994">
<rect width="280" height="280" fill="white"/>
</clipPath>
</defs>
</svg>
