<svg width="200" height="200" viewBox="0 0 200 200" fill="none" xmlns="http://www.w3.org/2000/svg">
<path d="M107.131 45.8217H74.1971C66.9712 46.6574 61.4127 52.6463 61.1348 59.8886V107.521C61.1348 110.724 62.3855 113.51 64.4699 115.599C66.5542 117.688 69.3335 118.942 72.5296 118.942C78.7828 118.942 83.9243 113.788 83.9243 107.521V77.2981C83.9243 72.5626 87.8152 68.6629 92.5399 68.6629H107.409C110.605 68.6629 113.384 67.4095 115.468 65.3203C117.553 63.2313 118.803 60.3064 118.803 57.1031C118.803 50.8357 113.384 45.8217 107.131 45.8217Z" fill="#4F0599"/>
<path d="M92.2619 154.457H125.195C132.421 153.621 137.98 147.632 138.258 140.39V92.7576C138.258 89.5543 137.007 86.7687 134.923 84.6797C132.838 82.5906 130.059 81.3371 126.863 81.3371C120.61 81.3371 115.468 86.4903 115.468 92.7576V122.981C115.468 127.716 111.577 131.616 106.853 131.616H91.9838C88.7879 131.616 86.0086 132.869 83.9242 134.958C81.8398 137.047 80.5891 139.972 80.5891 143.175C80.7281 149.443 86.0086 154.457 92.2619 154.457Z" fill="#4F0599"/>
<path fill-rule="evenodd" clip-rule="evenodd" d="M52.7972 0H112.689C152.154 0 183.975 31.8942 183.838 71.4485V166.296C182.031 184.262 167.439 198.468 149.375 200H86.2867C46.9608 200 15 167.967 15 128.552V37.8831C15 16.9917 31.9532 0 52.7972 0ZM161.186 71.4485C161.186 44.7075 139.369 22.8412 112.689 22.8412H52.9361C44.5985 22.8412 37.9285 29.5265 37.9285 37.8831V128.552C37.9285 155.432 59.6063 177.158 86.4256 177.158H148.402C154.933 176.324 160.075 171.31 161.186 164.903V71.4485Z" fill="#4F0599"/>
</svg>
