<svg xmlns="http://www.w3.org/2000/svg" viewBox="0 0 1050 1050" height="100%" width="100%" xml:space="preserve" id="svg2" version="1.1">
<title>servicenow</title>
    <g data-name="logo-layer">
        <g id="g22" transform="translate(914.5605,558.4062)"><path d="m 0,0 c -0.061,2.036 -0.149,4.073 -0.269,6.108 -5.283,93.118 -70.153,168.706 -155.538,191.963 h -0.032 c -56.783,-17.237 -103.447,-57.759 -128.889,-110.443 -1.268,-2.627 -2.507,-5.283 -3.628,-7.998 l 16.97,10.801 0.237,-0.265 c 10.684,6.641 22.576,11.541 35.328,14.314 1.15,0.266 2.332,0.502 3.51,0.708 13.077,2.539 26.564,3.867 40.377,3.867 84.973,0 158.257,-50.175 191.785,-122.514 0.149,3.069 0.207,6.168 0.207,9.297 0,1.386 0,2.774 -0.058,4.162" style="fill:#243538;fill-opacity:1;fill-rule:nonzero;stroke:none" id="path24"/></g>
        <g id="g26" transform="translate(722.627,667.4609)"><path d="m 0,0 c 84.973,0 158.257,-50.175 191.784,-122.514 -3.983,-92.322 -67.203,-169.265 -152.647,-193.792 -60.595,17.385 -110.032,61.155 -135.058,118.118 21.691,-19.894 51.029,-31.375 82.758,-29.575 62.392,3.542 110.089,56.934 106.547,119.238 C 89.841,-46.219 36.392,1.417 -26.004,-2.124 -30.871,-2.391 -35.682,-2.98 -40.377,-3.867 -27.301,-1.328 -13.813,0 0,0" style="fill:#76ab97;fill-opacity:1;fill-rule:nonzero;stroke:none" id="path28"/></g>
        <g id="g30" transform="translate(626.7061,469.2725)"><path d="m 0,0 c -0.029,0.028 -0.029,0.028 -0.062,0.059 l -14.341,-9.12 -69.065,-43.889 c 6.167,-7.2 12.838,-13.96 19.951,-20.187 37.277,-33.116 86.362,-53.185 140.107,-53.185 20.274,0 39.902,2.862 58.468,8.205 C 74.463,-100.732 25.026,-56.963 0,0" style="fill:#243538;fill-opacity:1;fill-rule:nonzero;stroke:none" id="path32"/></g>
        <g id="g34" transform="translate(691.0469,763.501)"><path d="m 0,0 c -30.519,-1.741 -59.147,-9.857 -84.679,-22.961 0,0 -20.893,-12.073 -28.627,-17.74 l -15.318,-9.738 -29.454,-18.713 -32.881,-20.896 -146.333,-93.03 c -14.374,-8.057 -103.154,-55.753 -103.154,-4.87 0,0 -18.002,-81.106 57.939,-101.707 7.673,-1.091 40.701,-6.817 81.076,14.581 l 0.265,-0.591 102.151,64.932 27.888,17.737 15.381,9.77 34.854,22.166 48.846,31.019 7.203,4.576 c 1.121,2.715 2.361,5.371 3.629,7.998 C -35.772,-64.783 10.892,-24.26 67.675,-7.024 46.22,-1.21 23.436,1.329 0,0" style="fill:#243538;fill-opacity:1;fill-rule:nonzero;stroke:none" id="path36"/></g>
        <g id="g38" transform="translate(720.7363,635.2026)"><path d="m 0,0 c -7.762,1.091 -41.554,6.994 -82.64,-15.436 l -0.147,0.324 -8.765,-5.548 c -0.68,-0.444 -1.329,-0.797 -2.006,-1.241 l 0.029,-0.029 -1.035,-0.65 -10.979,-6.964 -78.303,-49.792 -0.883,-0.56 -38.338,-24.379 -4.104,-2.599 -109.143,-69.358 -0.236,0.267 c -15.528,-9.652 -33.648,-15.673 -53.216,-16.765 -1.122,-0.059 -2.213,-0.118 -3.306,-0.118 -0.678,-0.029 -1.386,-0.029 -2.067,-0.029 -1.769,-0.06 -3.571,-0.031 -5.34,0.059 -0.473,0.029 -0.946,0.029 -1.418,0.059 -55.516,2.684 -101.41,45.806 -106.873,101.795 1.33,-28.511 8.325,-55.545 19.866,-80.014 26.709,-56.638 77.858,-99.493 139.839,-114.987 17.472,3.954 34.088,10.064 49.554,18.032 l 0.147,-0.355 4.102,2.599 c 8.502,4.634 16.648,9.799 24.381,15.495 l 11.391,7.23 52.302,33.234 15.197,9.68 89.489,56.875 8.354,5.311 50.941,32.379 c 19.094,10.477 101.146,52.683 101.146,3.748 0,0 18.033,81.136 -57.939,101.737" style="fill:#76ab97;fill-opacity:1;fill-rule:nonzero;stroke:none" id="path40"/></g>
        <g id="g42" transform="translate(371.6709,349.2373)"><path d="m 0,0 c -11.362,-2.597 -23.082,-4.251 -35.124,-4.929 -53.362,-3.042 -103.21,13.93 -142.228,44.39 -1.064,0.797 -2.095,1.651 -3.13,2.507 -46.955,38.754 -76.885,97.397 -76.885,163.039 0,17.118 2.038,33.735 5.874,49.673 14.786,-61.361 56.372,-112.273 111.654,-139.693 C -113.129,58.35 -61.98,15.494 0,0" style="fill:#243538;fill-opacity:1;fill-rule:nonzero;stroke:none" id="path44"/></g>
        <g id="g46" transform="translate(325.5972,765.5679)"><path d="m 0,0 c 16.767,0 33.086,-1.949 48.731,-5.638 -88.425,-20.897 -155.423,-97.339 -162.036,-190.456 -0.856,-6.7 -1.091,-13.607 -0.708,-20.601 0.089,-1.565 0.207,-3.1 0.383,-4.635 1.329,-28.51 8.324,-55.545 19.865,-80.013 -55.282,27.42 -96.868,78.332 -111.654,139.692 C -183.075,-68.917 -99.579,0 0,0" style="fill:#243538;fill-opacity:1;fill-rule:nonzero;stroke:none" id="path48"/></g>
        <g id="g50" transform="translate(485.3906,692.5483)"><path d="m 0,0 c 0,-0.029 0.028,-0.029 0.028,-0.029 l -84.646,-53.805 c -21.695,19.774 -50.972,31.197 -82.611,29.397 -55.369,-3.159 -99.199,-45.571 -105.869,-98.638 6.612,93.118 73.611,169.56 162.035,190.456 C -67.177,57.022 -28.572,32.967 0,0" style="fill:#76ab97;fill-opacity:1;fill-rule:nonzero;stroke:none" id="path52"/></g>
    </g>
</svg>
