<svg version="1.1" id="Layer_1" xmlns="http://www.w3.org/2000/svg" xmlns:xlink="http://www.w3.org/1999/xlink" x="0px" y="0px"
	 viewBox="0 0 160 160" enable-background="new 0 0 160 160" xml:space="preserve">
<g>
	<g>
		<path fill="#FFFFFF" d="M10.8,132.3c0,0,7.6-15.7,9.2-48.2c0.8-17.3,0.8-24.8-0.5-41c-0.7-8.7-0.7-21.9,4.4-24.2
			c12.4-5.7,23.9,22,45.8,18.7C87.2,35,82.9,5.1,94.7,3.3c16.7-2.5,50.7,67.8,55.4,117.1c0,0-20.5,33.7-62.8,38.8
			C50.5,163.7,25.3,147.3,10.8,132.3z"/>
		<path fill="#EF4357" d="M45,108.1c1.7,0,3.5-0.3,5.1-1c1.6-0.7,3.1-1.6,4.3-2.9c1.2-1.2,2.2-2.7,2.9-4.3c0.7-1.6,1-3.3,1-5.1
			c0-3.5-1.4-6.9-3.9-9.4c-2.5-2.5-5.9-3.9-9.4-3.9c-3.5,0-6.9,1.4-9.4,3.9c-2.5,2.5-3.9,5.9-3.9,9.4c0,3.5,1.4,6.9,3.9,9.4
			C38.1,106.7,41.5,108.1,45,108.1L45,108.1z"/>
		<path fill="#EF4357" d="M114.7,96.8c3.5,0,6.9-1.4,9.4-3.9c2.5-2.5,3.9-5.9,3.9-9.4c0-1.7-0.3-3.5-1-5.1c-0.7-1.6-1.6-3.1-2.9-4.3
			c-1.2-1.2-2.7-2.2-4.3-2.9c-1.6-0.7-3.3-1-5.1-1c-1.7,0-3.5,0.3-5.1,1c-1.6,0.7-3.1,1.6-4.3,2.9c-1.2,1.2-2.2,2.7-2.9,4.3
			c-0.7,1.6-1,3.3-1,5.1c0,3.5,1.4,6.9,3.9,9.4C107.8,95.4,111.2,96.8,114.7,96.8z"/>
		<path fill="#231F20" d="M9.9,137.8c-0.5,0-1-0.1-1.4-0.3c-0.4-0.2-0.8-0.4-1.1-0.8c-0.3-0.3-0.5-0.7-0.7-1.1
			c-0.2-0.4-0.2-0.9-0.2-1.3c0-0.4,0.1-0.9,0.3-1.3c0.1-0.2,7.8-17.7,9.3-48.9C17,67.3,17,59.9,15.7,43.5c-1.3-15.8,0.8-25,6.3-27.6
			c7.7-3.5,14.6,2.2,21.4,7.7c7.4,6.1,15.1,12.3,25.4,10.8c7-1.1,9.6-7.6,12.7-17.5c2.4-7.7,4.9-15.6,12.3-16.8
			c3.2-0.5,6.8,0.8,10.6,3.7c18.1,14.1,44.8,71.7,49.1,116.3c0,0.4,0,0.9-0.1,1.3c-0.1,0.4-0.3,0.8-0.6,1.2c-0.3,0.3-0.6,0.6-1,0.8
			c-0.4,0.2-0.8,0.3-1.3,0.4c-0.9,0.1-1.8-0.2-2.5-0.8c-0.7-0.6-1.1-1.4-1.2-2.3c-4.1-41.9-29.7-98.4-46.6-111.6
			c-2.2-1.7-4.2-2.6-5.5-2.4c-3.2,0.5-5,6.1-6.9,12.1c-2.9,9.1-6.4,20.4-18.1,22.1c-13.2,2-22.9-5.9-30.6-12.3
			c-6.5-5.3-10.6-8.5-14.3-6.7c-1.6,0.7-3.6,7-2.4,20.9c1.4,16.8,1.4,24.4,0.5,41.5c-1.6,32.7-9.6,50.7-9.9,51.4
			c-0.3,0.6-0.7,1.1-1.2,1.4C11.2,137.6,10.6,137.8,9.9,137.8L9.9,137.8z"/>
		<path fill="#231F20" d="M28,102.7c-0.3,0-0.6-0.1-0.9-0.3c-0.3-0.2-0.5-0.4-0.6-0.7c-0.1-0.2-0.1-0.4-0.1-0.6c0-0.2,0-0.4,0.1-0.7
			c0.1-0.2,0.2-0.4,0.4-0.6c0.2-0.2,0.3-0.3,0.5-0.4l13.2-5.6L26.7,91c-0.2,0-0.4-0.1-0.6-0.3c-0.2-0.1-0.3-0.3-0.5-0.5
			c-0.1-0.2-0.2-0.4-0.2-0.6c0-0.2,0-0.4,0-0.7c0-0.2,0.1-0.4,0.3-0.6c0.1-0.2,0.3-0.3,0.5-0.5c0.2-0.1,0.4-0.2,0.6-0.2
			c0.2,0,0.4,0,0.7,0l19.1,3.9c0.4,0.1,0.7,0.3,0.9,0.5c0.2,0.3,0.4,0.6,0.4,1c0,0.4,0,0.7-0.2,1c-0.2,0.3-0.5,0.5-0.8,0.7
			l-18.1,7.8C28.5,102.7,28.2,102.7,28,102.7L28,102.7z"/>
		<path fill="#231F20" d="M131.7,86.4L131.7,86.4l-19.8-1.1c-0.4,0-0.7-0.2-1-0.4c-0.3-0.2-0.5-0.5-0.6-0.9c-0.1-0.3-0.1-0.7,0.1-1
			c0.1-0.3,0.4-0.6,0.7-0.8L127.7,72c0.2-0.1,0.4-0.2,0.6-0.2c0.2,0,0.4,0,0.7,0c0.2,0.1,0.4,0.1,0.6,0.3c0.2,0.1,0.3,0.3,0.4,0.5
			c0.2,0.4,0.3,0.8,0.2,1.3c-0.1,0.4-0.4,0.8-0.8,1l-12,7.4l14.3,0.8c0.4,0,0.9,0.2,1.2,0.6c0.3,0.3,0.5,0.8,0.4,1.2
			c0,0.4-0.2,0.8-0.5,1.1C132.5,86.2,132.1,86.4,131.7,86.4L131.7,86.4z"/>
		<path fill="#231F20" d="M79.2,97.9c-2.7,0.1-5.4-0.7-7.7-2.3c-2.2-1.6-3.9-3.9-4.7-6.5c-0.1-0.3-0.1-0.6-0.1-0.9
			c0-0.3,0.1-0.6,0.2-0.8c0.1-0.3,0.3-0.5,0.5-0.7c0.2-0.2,0.5-0.3,0.8-0.4c0.3-0.1,0.6-0.1,0.9-0.1c0.3,0,0.6,0.1,0.8,0.2
			c0.3,0.1,0.5,0.3,0.7,0.5c0.2,0.2,0.3,0.5,0.4,0.8c1.5,4.5,5.3,6.4,10.6,5.5c5.3-1,8.1-4.2,8-8.9c0-0.6,0.2-1.2,0.7-1.6
			c0.4-0.4,1-0.7,1.6-0.7s1.2,0.2,1.6,0.7c0.4,0.4,0.7,1,0.7,1.6c0.1,6.9-4.3,12-11.7,13.4C81.4,97.9,80.3,97.9,79.2,97.9L79.2,97.9
			z"/>
		<path fill="#231F20" d="M41.9,78c-0.2,0-0.3,0-0.5,0c-0.6-0.1-1.1-0.5-1.4-1c-0.3-0.5-0.4-1.1-0.3-1.7c1.1-4.8,7.2-12.2,14.8-13.4
			c7.6-1.2,15.3,4.5,16.6,8.8c0.2,0.6,0.1,1.2-0.2,1.7c-0.3,0.5-0.8,0.9-1.3,1.1c-0.6,0.2-1.2,0.1-1.7-0.2c-0.5-0.3-0.9-0.8-1.1-1.3
			c-0.6-2.1-6.1-6.5-11.6-5.7c-5.5,0.9-10.4,6.6-11.2,10c-0.1,0.5-0.4,0.9-0.8,1.2C42.8,77.8,42.3,78,41.9,78L41.9,78z"/>
		<path fill="#231F20" d="M85.4,70.5c-0.2,0-0.4,0-0.6-0.1c-0.3-0.1-0.5-0.2-0.8-0.4c-0.2-0.2-0.4-0.4-0.6-0.7
			c-0.1-0.3-0.2-0.5-0.3-0.8c0-0.3,0-0.6,0.1-0.9c1.1-4.1,5.2-11.3,13-12.5c7.1-1.1,15.3,3.6,17.6,8.5c0.1,0.3,0.2,0.6,0.2,0.9
			c0,0.3,0,0.6-0.1,0.9c-0.1,0.3-0.3,0.5-0.5,0.7c-0.2,0.2-0.4,0.4-0.7,0.5c-0.3,0.1-0.6,0.2-0.9,0.2c-0.3,0-0.6,0-0.9-0.1
			c-0.3-0.1-0.5-0.3-0.7-0.5c-0.2-0.2-0.4-0.4-0.5-0.7c-1.4-2.9-7.5-6.8-12.8-6c-5.6,0.9-8.6,6.5-9.4,9.3c-0.1,0.5-0.4,0.9-0.8,1.2
			C86.4,70.3,85.9,70.5,85.4,70.5L85.4,70.5z"/>
		<path fill="#B4BCF6" d="M97.5,78.5c-4.7,0-9.2-1.9-12.5-5.2c-3.3-3.3-5.2-7.8-5.2-12.5c0-4.7,1.9-9.2,5.2-12.5
			c3.3-3.3,7.8-5.2,12.5-5.2c4.7,0,9.2,1.9,12.5,5.2c3.3,3.3,5.2,7.8,5.2,12.5c0,4.7-1.9,9.2-5.2,12.5
			C106.7,76.7,102.2,78.5,97.5,78.5L97.5,78.5z M97.5,48.7c-1.6,0-3.2,0.3-4.7,0.9c-1.5,0.6-2.8,1.5-3.9,2.6c-1.1,1.1-2,2.5-2.6,4
			c-0.6,1.5-0.9,3.1-0.9,4.7c0,3.2,1.3,6.3,3.6,8.6c2.3,2.3,5.4,3.6,8.6,3.6c3.2,0,6.3-1.3,8.6-3.6c2.3-2.3,3.6-5.4,3.6-8.6
			c0-1.6-0.3-3.2-0.9-4.7c-0.6-1.5-1.5-2.8-2.6-4c-1.1-1.1-2.5-2-3.9-2.6C100.7,49,99.1,48.7,97.5,48.7L97.5,48.7z"/>
		<path fill="#B4BCF6" d="M54.8,86c-4.7,0-9.2-1.9-12.5-5.2c-3.3-3.3-5.2-7.8-5.2-12.5c0-4.7,1.9-9.2,5.2-12.5
			c3.3-3.3,7.8-5.2,12.5-5.2c4.7,0,9.2,1.9,12.5,5.2c3.3,3.3,5.2,7.8,5.2,12.5c0,4.7-1.9,9.2-5.2,12.5C64,84.1,59.5,86,54.8,86
			L54.8,86z M54.8,56.2c-3.2,0-6.3,1.3-8.6,3.6c-2.3,2.3-3.6,5.4-3.6,8.6c0,3.2,1.3,6.3,3.6,8.6c2.3,2.3,5.4,3.6,8.6,3.6
			c3.2,0,6.3-1.3,8.6-3.6c2.3-2.3,3.6-5.4,3.6-8.6c0-3.2-1.3-6.3-3.6-8.6C61.1,57.4,58,56.2,54.8,56.2L54.8,56.2z"/>
		<path fill="#B4BCF6" d="M68.2,64.3c-0.4,0-0.8-0.1-1.2-0.3c-0.4-0.2-0.7-0.4-1-0.7c-0.2-0.3-0.4-0.6-0.5-1
			c-0.1-0.3-0.2-0.7-0.1-1.1c0-0.4,0.1-0.7,0.3-1c0.2-0.3,0.4-0.6,0.7-0.9c3.2-2.7,7.2-4.2,11.4-4.2c1.8,0,3.6,0.3,5.4,0.8
			c0.7,0.2,1.3,0.7,1.6,1.4c0.3,0.7,0.4,1.4,0.2,2.1c-0.1,0.4-0.3,0.7-0.5,1c-0.2,0.3-0.5,0.5-0.9,0.7c-0.3,0.2-0.7,0.3-1,0.3
			c-0.4,0-0.7,0-1.1-0.1c-1.2-0.4-2.4-0.6-3.7-0.6c-2.9,0-5.6,1-7.8,2.9C69.5,64,68.8,64.3,68.2,64.3L68.2,64.3z"/>
		<path fill="#B4BCF6" d="M112.8,56.2c-0.6,0-1.3-0.2-1.8-0.6c-0.5-0.4-0.8-1-1-1.6c-0.1-0.7,0-1.5,0.4-2.1c0.4-0.6,1.1-1,1.8-1.2
			l4.2-0.8c0.4-0.1,0.7-0.1,1.1,0c0.4,0.1,0.7,0.2,1,0.4c0.3,0.2,0.6,0.5,0.8,0.8c0.2,0.3,0.3,0.7,0.4,1c0.1,0.7,0,1.5-0.4,2.1
			c-0.4,0.6-1.1,1-1.8,1.2l-4.2,0.8C113.1,56.2,112.9,56.2,112.8,56.2L112.8,56.2z"/>
		<path fill="#B4BCF6" d="M33.1,70.7c-0.6,0-1.3-0.2-1.8-0.6c-0.5-0.4-0.8-1-1-1.6c-0.1-0.7,0-1.5,0.4-2.1c0.4-0.6,1.1-1,1.8-1.2
			l5.4-1c0.4-0.1,0.7-0.1,1.1,0c0.4,0.1,0.7,0.2,1,0.4c0.3,0.2,0.6,0.5,0.8,0.8c0.2,0.3,0.3,0.7,0.4,1c0.1,0.7,0,1.5-0.4,2.1
			c-0.4,0.6-1.1,1-1.8,1.2l-5.4,1C33.5,70.7,33.3,70.7,33.1,70.7L33.1,70.7z"/>
	</g>
</g>
</svg>
