<svg width="200" height="200" viewBox="0 0 40 40" fill="none" xmlns="http://www.w3.org/2000/svg">
<rect width="40" height="40" fill="#3CDC97"/>
<path fill-rule="evenodd" clip-rule="evenodd" d="M24.3335 31C22.6766 31 21.3335 29.6569 21.3335 28C21.3335 26.3431 22.6766 25 24.3335 25C25.9903 25 27.3335 26.3431 27.3335 28C27.3335 29.6569 25.9903 31 24.3335 31Z" fill="white"/>
<path fill-rule="evenodd" clip-rule="evenodd" d="M15 15C13.3431 15 12 13.6569 12 12C12 10.3431 13.3431 9 15 9C16.6569 9 18 10.3431 18 12C18 13.6569 16.6569 15 15 15Z" fill="white"/>
<path fill-rule="evenodd" clip-rule="evenodd" d="M19.6667 22.9999C18.0098 22.9999 16.6667 21.6568 16.6667 19.9999C16.6667 18.3431 18.0098 16.9999 19.6667 16.9999C21.3235 16.9999 22.6667 18.3431 22.6667 19.9999C22.6667 21.6568 21.3235 22.9999 19.6667 22.9999Z" fill="white"/>
</svg>
