<svg width="330" height="330" viewBox="0 0 330 330" fill="none"
    xmlns="http://www.w3.org/2000/svg">
    <mask id="mask0" mask-type="alpha" maskUnits="userSpaceOnUse" x="0" y="0" width="330" height="330">
        <circle cx="165" cy="165" r="165" fill="#C4C4C4"/>
    </mask>
    <g mask="url(#mask0)">
        <ellipse cx="165" cy="164.985" rx="165" ry="164.985" fill="url(#paint0_linear)"/>
        <g filter="url(#filter0_f)">
            <path d="M163.283 24.4L163 22.5L159.888 24L105 20L159.888 26.3063V28L162.5 26.3063L221 31L163.283 24.4Z" fill="#F199FF"/>
        </g>
        <path d="M202 29L161.537 24.5L123 22L161.537 26L202 29Z" fill="white"/>
        <g opacity="0.7">
            <g filter="url(#filter1_f)">
                <path d="M218.382 49.6942L218.382 48.0001L216.5 49.5001L180 47.6272L216.296 52.0255L216 53.5001L217.5 52.0001L256.529 53.9797L218.382 49.6942Z" fill="#F199FF"/>
            </g>
            <path d="M243.981 52.7413L217.246 49.8637L191.893 48.9055L217.337 51.3609L243.981 52.7413Z" fill="white"/>
        </g>
        <g opacity="0.3">
            <g filter="url(#filter2_f)">
                <path d="M269.868 82.5858L269.5 81L268 82.5L237 81L268 84L268 85.9796L269.5 84.5L302.529 85.9796L269.868 82.5858Z" fill="#F199FF"/>
            </g>
            <path d="M291.787 85.0028L268.896 82.7268L247.184 82.011L268.97 83.9463L291.787 85.0028Z" fill="white"/>
        </g>
        <g opacity="0.3">
            <g filter="url(#filter3_f)">
                <path d="M113.668 53.4L113 53L111.649 52.8L79 51L111.649 54.6H112.5H113.668L148 57L113.668 53.4Z" fill="#F199FF"/>
            </g>
            <path d="M136.698 55.9091L112.63 53.4546L89.707 52.0909L112.63 54.2728L136.698 55.9091Z" fill="white"/>
        </g>
        <path opacity="0.99" fill-rule="evenodd" clip-rule="evenodd" d="M325.5 202.982C324.504 197.26 324.071 196.35 322.013 191.474C317.238 180.154 310.069 171.074 302.663 163.994C295.29 156.948 287.694 151.886 281.977 148.614C276.401 145.421 272.616 143.916 272.616 143.916C272.719 143.889 272.822 143.87 272.925 143.845C276.531 142.948 280.226 142.876 283.728 143.247C292.328 144.155 299.699 147.764 301.349 148.618C301.573 148.734 301.694 148.803 301.694 148.803C297.24 142.922 292.213 137.794 286.964 133.317C262.766 112.676 233.794 106.12 233.794 106.12C233.959 106.036 234.139 105.962 234.315 105.885C243.211 102.006 265.995 106.12 265.995 106.12C265.842 106.013 265.688 105.91 265.533 105.804C234.827 84.6665 188.48 80.7795 188.48 80.7795C189.5 66.5 140.5 60 129 50C127 59 128.023 70.2086 128 76C118 76 112.923 74.7873 105.5 70.5C102.5 83 108.5 91 113.93 97.3637C76.6261 134.704 92.4963 165.137 92.4963 171.085C92.4963 177.51 62.5 219 62.5 219C62.5 219 62.5 224 66.5 226.5C69.8115 228.57 81.8071 233.339 87 236.5C100.5 244 117.668 229.234 133.5 219.48C196.269 180.804 224.656 240.023 210 287.974C204.575 305.724 237.974 313.123 251.5 305.472C278 290.484 315 253.477 325.5 202.982Z" fill="url(#paint1_linear)"/>
        <path d="M246.18 126.132C212.516 124.106 273.128 144.19 273.128 144.19L273.23 144.21L273.416 144.244C277.015 143.359 280.704 143.288 284.199 143.653C292.782 144.551 300.14 148.112 301.786 148.954C301.838 148.963 301.891 148.971 301.944 148.978L302 148.987C302 148.987 279.843 128.158 246.18 126.132Z" fill="url(#paint2_linear)"/>
        <path d="M246.18 126.132C212.516 124.106 273.128 144.19 273.128 144.19L273.23 144.21L273.416 144.244C277.015 143.359 280.704 143.288 284.199 143.653C292.782 144.551 300.14 148.112 301.786 148.954C301.838 148.963 301.891 148.971 301.944 148.978L302 148.987C302 148.987 279.843 128.158 246.18 126.132Z" fill="url(#paint3_radial)"/>
        <path d="M167 83.5C142.5 79 129 50 129 50C125 56 124 80.2244 134.5 87.5C128.5 89 119.5 92 112.999 98C66.4997 145.5 156 130.5 197.5 112C204 90 149.5 85.5 149.5 85.5C149.5 85.5 154.5 83.5 167 83.5Z" fill="url(#paint4_linear)"/>
        <path d="M167 83.5C142.5 79 129 50 129 50C125 56 124 80.2244 134.5 87.5C128.5 89 119.5 92 112.999 98C66.4997 145.5 156 130.5 197.5 112C204 90 149.5 85.5 149.5 85.5C149.5 85.5 154.5 83.5 167 83.5Z" fill="url(#paint5_radial)"/>
        <path d="M254 303.973C270.511 235.778 236.734 216.16 225.061 211.525C237.5 211.525 255.5 215.223 269.5 235.5C259.903 190.038 213.239 171.188 171.737 184.5C145.237 193 96 225.225 85.5 227.363C75 229.5 70 227.5 66.5 226.5C70 229.5 85 237.136 91 238.5C118.114 244.662 143.516 215.141 171.737 222.585C189.936 227.384 202.607 247.216 203.378 265.294C203.467 272.78 202.257 280.12 198.55 288.675C190.427 307.422 177.924 315.999 158.5 322.34C141.979 327.733 114 321.971 114 321.971C143.5 332.47 203.5 337.97 254 303.973Z" fill="url(#paint6_linear)"/>
        <path d="M282.672 176.134C315.628 179.492 325.5 202.982 325.5 202.982C324.795 207.916 323.136 213.468 321 217.98L282.672 176.134Z" fill="url(#paint7_linear)"/>
        <path d="M254 303.973C270.511 235.778 236.734 216.16 225.061 211.525C237.5 211.525 255.5 215.223 269.5 235.5C259.903 190.038 213.239 171.188 171.737 184.5C145.237 193 96 225.225 85.5 227.363C75 229.5 70 227.5 66.5 226.5C70 229.5 85 237.136 91 238.5C118.114 244.662 143.516 215.141 171.737 222.585C189.936 227.384 202.607 247.216 203.378 265.294C203.467 272.78 202.257 280.12 198.55 288.675C190.427 307.422 177.924 315.999 158.5 322.34C141.979 327.733 114 321.971 114 321.971C143.5 332.47 203.5 337.97 254 303.973Z" fill="url(#paint8_radial)"/>
        <path d="M282.672 176.134C315.628 179.492 325.5 202.982 325.5 202.982C324.795 207.916 323.136 213.468 321 217.98L282.672 176.134Z" fill="url(#paint9_radial)"/>
        <path d="M254 303.973C270.511 235.778 236.734 216.16 225.061 211.525C237.5 211.525 255.5 215.223 269.5 235.5C259.903 190.038 213.239 171.188 171.737 184.5C145.237 193 96 225.225 85.5 227.363C75 229.5 70 227.5 66.5 226.5C70 229.5 85 237.136 91 238.5C118.114 244.662 143.516 215.141 171.737 222.585C189.936 227.384 202.607 247.216 203.378 265.294C203.467 272.78 202.257 280.12 198.55 288.675C190.427 307.422 177.924 315.999 158.5 322.34C141.979 327.733 114 321.971 114 321.971C143.5 332.47 203.5 337.97 254 303.973Z" fill="url(#paint10_radial)"/>
        <path d="M282.672 176.134C315.628 179.492 325.5 202.982 325.5 202.982C324.795 207.916 323.136 213.468 321 217.98L282.672 176.134Z" fill="url(#paint11_radial)"/>
        <path d="M254 303.973C270.511 235.778 236.734 216.16 225.061 211.525C237.5 211.525 255.5 215.223 269.5 235.5C259.903 190.038 213.239 171.188 171.737 184.5C145.237 193 96 225.225 85.5 227.363C75 229.5 70 227.5 66.5 226.5C70 229.5 85 237.136 91 238.5C118.114 244.662 143.516 215.141 171.737 222.585C189.936 227.384 202.607 247.216 203.378 265.294C203.467 272.78 202.257 280.12 198.55 288.675C190.427 307.422 177.924 315.999 158.5 322.34C141.979 327.733 114 321.971 114 321.971C143.5 332.47 203.5 337.97 254 303.973Z" fill="url(#paint12_radial)"/>
        <path d="M282.672 176.134C315.628 179.492 325.5 202.982 325.5 202.982C324.795 207.916 323.136 213.468 321 217.98L282.672 176.134Z" fill="url(#paint13_radial)"/>
        <path d="M254 303.973C270.511 235.778 236.734 216.16 225.061 211.525C237.5 211.525 255.5 215.223 269.5 235.5C259.903 190.038 213.239 171.188 171.737 184.5C145.237 193 96 225.225 85.5 227.363C75 229.5 70 227.5 66.5 226.5C70 229.5 85 237.136 91 238.5C118.114 244.662 143.516 215.141 171.737 222.585C189.936 227.384 202.607 247.216 203.378 265.294C203.467 272.78 202.257 280.12 198.55 288.675C190.427 307.422 177.924 315.999 158.5 322.34C141.979 327.733 114 321.971 114 321.971C143.5 332.47 203.5 337.97 254 303.973Z" fill="url(#paint14_radial)"/>
        <path d="M282.672 176.134C315.628 179.492 325.5 202.982 325.5 202.982C324.795 207.916 323.136 213.468 321 217.98L282.672 176.134Z" fill="url(#paint15_radial)"/>
        <path d="M180.5 328.898C160 334 64.4999 321.954 69.4999 299.5C92.9999 311 118.161 318.351 150 315C179.069 311.94 203.248 296.017 202.878 264.908C202.425 254.288 198.755 244.723 191.802 236.612C217 263.5 212 313 180.5 328.898Z" fill="url(#paint16_linear)"/>
        <path d="M180.5 328.898C160 334 64.4999 321.954 69.4999 299.5C92.9999 311 118.161 318.351 150 315C179.069 311.94 203.248 296.017 202.878 264.908C202.425 254.288 198.755 244.723 191.802 236.612C217 263.5 212 313 180.5 328.898Z" fill="url(#paint17_radial)"/>
        <path opacity="0.99" fill-rule="evenodd" clip-rule="evenodd" d="M147.5 138.5C147.5 138.5 138.339 140.256 135 144.5C135 144.5 131.147 150.322 125.5 156.5C115.444 161.878 109.5 163.5 109.5 163.5C109.5 163.5 110 147.775 112.5 145.5C117.5 142 134 138.5 147.5 138.5Z" fill="url(#paint18_linear)"/>
        <path opacity="0.99" fill-rule="evenodd" clip-rule="evenodd" d="M145.5 139.5C145.5 139.5 137.001 142.452 134 146C134 146 131 152 129.5 154.5C125.35 158.937 110 163.5 110 163.5C110 163.5 111 153 113.5 147.5C115.039 144.115 126 141.5 145.5 139.5Z" fill="#7333D8"/>
    </g>
    <defs>
        <filter id="filter0_f" x="104" y="19" width="118" height="13" filterUnits="userSpaceOnUse" color-interpolation-filters="sRGB">
            <feFlood flood-opacity="0" result="BackgroundImageFix"/>
            <feBlend mode="normal" in="SourceGraphic" in2="BackgroundImageFix" result="shape"/>
            <feGaussianBlur stdDeviation="0.5" result="effect1_foregroundBlur"/>
        </filter>
        <filter id="filter1_f" x="179" y="42.0001" width="78.5287" height="17.6067" filterUnits="userSpaceOnUse" color-interpolation-filters="sRGB">
            <feFlood flood-opacity="0" result="BackgroundImageFix"/>
            <feBlend mode="normal" in="SourceGraphic" in2="BackgroundImageFix" result="shape"/>
            <feGaussianBlur stdDeviation="0.5" result="effect1_foregroundBlur"/>
        </filter>
        <filter id="filter2_f" x="236" y="76.0363" width="67.5287" height="14.9071" filterUnits="userSpaceOnUse" color-interpolation-filters="sRGB">
            <feFlood flood-opacity="0" result="BackgroundImageFix"/>
            <feBlend mode="normal" in="SourceGraphic" in2="BackgroundImageFix" result="shape"/>
            <feGaussianBlur stdDeviation="0.5" result="effect1_foregroundBlur"/>
        </filter>
        <filter id="filter3_f" x="78" y="50" width="71" height="8" filterUnits="userSpaceOnUse" color-interpolation-filters="sRGB">
            <feFlood flood-opacity="0" result="BackgroundImageFix"/>
            <feBlend mode="normal" in="SourceGraphic" in2="BackgroundImageFix" result="shape"/>
            <feGaussianBlur stdDeviation="0.5" result="effect1_foregroundBlur"/>
        </filter>
        <linearGradient id="paint0_linear" x1="249" y1="23" x2="89" y2="311" gradientUnits="userSpaceOnUse">
            <stop stop-color="#A359EC"/>
            <stop offset="1" stop-color="#5117CA"/>
        </linearGradient>
        <linearGradient id="paint1_linear" x1="217" y1="147" x2="271.5" y2="308" gradientUnits="userSpaceOnUse">
            <stop stop-color="#F2F0FF"/>
            <stop offset="1" stop-color="#E6E3FD"/>
        </linearGradient>
        <linearGradient id="paint2_linear" x1="191.646" y1="97.8742" x2="268.993" y2="178.491" gradientUnits="userSpaceOnUse">
            <stop stop-color="#B5ABEC"/>
            <stop offset="1" stop-color="#E2DCFF"/>
        </linearGradient>
        <radialGradient id="paint3_radial" cx="0" cy="0" r="1" gradientUnits="userSpaceOnUse" gradientTransform="translate(256 123) rotate(99.4623) scale(21.2897 59.6873)">
            <stop stop-color="#AA6EDA" stop-opacity="0.76"/>
            <stop offset="1" stop-color="#E2DCFF" stop-opacity="0"/>
        </radialGradient>
        <linearGradient id="paint4_linear" x1="137.5" y1="50" x2="130.5" y2="90" gradientUnits="userSpaceOnUse">
            <stop stop-color="#B3A8EC"/>
            <stop offset="1" stop-color="#F1EFFF"/>
        </linearGradient>
        <radialGradient id="paint5_radial" cx="0" cy="0" r="1" gradientUnits="userSpaceOnUse" gradientTransform="translate(136.5 56) rotate(138.24) scale(18.7683 50.1658)">
            <stop stop-color="#8F5BD1"/>
            <stop offset="1" stop-color="#F1EFFF" stop-opacity="0"/>
        </radialGradient>
        <linearGradient id="paint6_linear" x1="149.5" y1="196" x2="233.991" y2="295.508" gradientUnits="userSpaceOnUse">
            <stop offset="0.552083" stop-color="#D3CCF6"/>
            <stop offset="1" stop-color="#E7E4FD"/>
        </linearGradient>
        <linearGradient id="paint7_linear" x1="149.5" y1="196" x2="233.991" y2="295.508" gradientUnits="userSpaceOnUse">
            <stop offset="0.552083" stop-color="#D3CCF6"/>
            <stop offset="1" stop-color="#E7E4FD"/>
        </linearGradient>
        <radialGradient id="paint8_radial" cx="0" cy="0" r="1" gradientUnits="userSpaceOnUse" gradientTransform="translate(247 183.5) rotate(112.62) scale(97.5 418.141)">
            <stop offset="0.0833333" stop-color="#BCA6EA"/>
            <stop offset="1" stop-color="white" stop-opacity="0"/>
        </radialGradient>
        <radialGradient id="paint9_radial" cx="0" cy="0" r="1" gradientUnits="userSpaceOnUse" gradientTransform="translate(247 183.5) rotate(112.62) scale(97.5 418.141)">
            <stop offset="0.0833333" stop-color="#BCA6EA"/>
            <stop offset="1" stop-color="white" stop-opacity="0"/>
        </radialGradient>
        <radialGradient id="paint10_radial" cx="0" cy="0" r="1" gradientUnits="userSpaceOnUse" gradientTransform="translate(298 179) rotate(120.53) scale(22.6385 63.3348)">
            <stop stop-color="#B7A0E7"/>
            <stop offset="1" stop-color="#ECE9FF" stop-opacity="0"/>
        </radialGradient>
        <radialGradient id="paint11_radial" cx="0" cy="0" r="1" gradientUnits="userSpaceOnUse" gradientTransform="translate(298 179) rotate(120.53) scale(22.6385 63.3348)">
            <stop stop-color="#B7A0E7"/>
            <stop offset="1" stop-color="#ECE9FF" stop-opacity="0"/>
        </radialGradient>
        <radialGradient id="paint12_radial" cx="0" cy="0" r="1" gradientUnits="userSpaceOnUse" gradientTransform="translate(145.5 164) rotate(42.337) scale(121.754 126.752)">
            <stop offset="0.0833333" stop-color="#825AC5" stop-opacity="0.71"/>
            <stop offset="1" stop-color="white" stop-opacity="0"/>
        </radialGradient>
        <radialGradient id="paint13_radial" cx="0" cy="0" r="1" gradientUnits="userSpaceOnUse" gradientTransform="translate(145.5 164) rotate(42.337) scale(121.754 126.752)">
            <stop offset="0.0833333" stop-color="#825AC5" stop-opacity="0.71"/>
            <stop offset="1" stop-color="white" stop-opacity="0"/>
        </radialGradient>
        <radialGradient id="paint14_radial" cx="0" cy="0" r="1" gradientUnits="userSpaceOnUse" gradientTransform="translate(51.5 242.5) rotate(1.42764) scale(160.55 167.14)">
            <stop offset="0.0833333" stop-color="#825AC5" stop-opacity="0.71"/>
            <stop offset="1" stop-color="white" stop-opacity="0"/>
        </radialGradient>
        <radialGradient id="paint15_radial" cx="0" cy="0" r="1" gradientUnits="userSpaceOnUse" gradientTransform="translate(51.5 242.5) rotate(1.42764) scale(160.55 167.14)">
            <stop offset="0.0833333" stop-color="#825AC5" stop-opacity="0.71"/>
            <stop offset="1" stop-color="white" stop-opacity="0"/>
        </radialGradient>
        <linearGradient id="paint16_linear" x1="198.5" y1="276.5" x2="191.496" y2="319.999" gradientUnits="userSpaceOnUse">
            <stop stop-color="#D9D3F8"/>
            <stop offset="1" stop-color="#E8E4FE"/>
        </linearGradient>
        <radialGradient id="paint17_radial" cx="0" cy="0" r="1" gradientUnits="userSpaceOnUse" gradientTransform="translate(130 256) rotate(84.7582) scale(54.7289 336.192)">
            <stop stop-color="#5A2DDB"/>
            <stop offset="1" stop-color="#EEEBFF" stop-opacity="0"/>
        </radialGradient>
        <linearGradient id="paint18_linear" x1="116" y1="145.987" x2="151" y2="147.487" gradientUnits="userSpaceOnUse">
            <stop stop-color="#B7ADEA"/>
            <stop offset="1" stop-color="#F5F4FF"/>
        </linearGradient>
    </defs>
</svg>
