<?xml version="1.0" standalone="no"?>
<!DOCTYPE svg PUBLIC "-//W3C//DTD SVG 20010904//EN"
 "http://www.w3.org/TR/2001/REC-SVG-20010904/DTD/svg10.dtd">
<svg version="1.0" xmlns="http://www.w3.org/2000/svg"
 width="144.000000pt" height="144.000000pt" viewBox="0 0 144.000000 144.000000"
 preserveAspectRatio="xMidYMid meet">
<metadata>
Created by potrace 1.10, written by Peter Selinger 2001-2011
</metadata>
<g transform="translate(0.000000,144.000000) scale(0.050000,-0.050000)"
fill="#000000" stroke="none">
<path d="M1290 2816 c-276 -97 -413 -420 -289 -684 l45 -96 -107 -95 -108 -95
-90 40 c-199 89 -467 25 -592 -140 -291 -381 56 -904 519 -781 l122 32 114
-112 114 -112 -31 -71 c-71 -168 -21 -406 113 -536 382 -372 1005 41 807 535
l-33 83 109 108 109 109 131 -34 c310 -82 599 111 631 420 40 385 -345 652
-711 493 l-106 -46 -98 98 -99 98 50 98 c194 384 -194 830 -600 688z m-47
-916 c117 -53 298 -52 416 1 l88 40 105 -103 106 -104 -39 -75 c-81 -159 -67
-366 33 -501 l48 -66 -102 -104 -102 -104 -110 58 c-155 82 -315 81 -478 -2
l-118 -59 -99 98 -98 99 52 76 c106 155 118 343 34 509 l-42 82 96 98 c110
112 97 109 210 57z"/>
</g>
</svg>
