<svg version="1.1" id="Layer_1" xmlns="http://www.w3.org/2000/svg" x="0" y="0" viewBox="0 0 500 500" xml:space="preserve"><style>.st0-44BA13D4-9A21-43DD-AA9B-C775B10792BA{fill:#f22f46}</style><path class="st0-44BA13D4-9A21-43DD-AA9B-C775B10792BA" d="M246.91 319.1c-66.94 0-121.2-54.26-121.2-121.2s54.26-121.2 121.2-121.2 121.2 54.26 121.2 121.2c0 66.93-54.26 121.2-121.2 121.2zm0-285.78c-90.89 0-164.57 73.68-164.57 164.57 0 90.89 73.68 164.57 164.57 164.57 90.89 0 164.57-73.68 164.57-164.57.01-90.88-73.68-164.57-164.57-164.57z"/><path class="st0-44BA13D4-9A21-43DD-AA9B-C775B10792BA" d="M253.68 156.91c0-18.9 15.32-34.22 34.22-34.22s34.22 15.32 34.22 34.22-15.32 34.22-34.22 34.22-34.22-15.32-34.22-34.22m0 81.97c0-18.9 15.32-34.22 34.22-34.22s34.22 15.32 34.22 34.22-15.32 34.22-34.22 34.22-34.22-15.32-34.22-34.22m-81.97 0c0-18.9 15.32-34.22 34.22-34.22s34.22 15.32 34.22 34.22-15.32 34.22-34.22 34.22-34.22-15.32-34.22-34.22m0-81.97c0-18.9 15.32-34.22 34.22-34.22s34.22 15.32 34.22 34.22-15.32 34.22-34.22 34.22-34.22-15.32-34.22-34.22"/><g><path d="M127.3 387.21h10.26v70.86h33.96v8.61H127.3v-79.47zM195.81 441.68l-8.25 25h-10.61l27-79.47h12.38l27.12 79.47h-10.97l-8.49-25h-28.18zm26.05-8.02l-7.78-22.87c-1.77-5.19-2.95-9.9-4.13-14.5h-.24c-1.18 4.72-2.48 9.55-4.01 14.38l-7.78 22.99h23.94zM255.12 388.27c4.48-.94 11.55-1.65 18.75-1.65 10.26 0 16.86 1.77 21.81 5.78 4.13 3.07 6.6 7.78 6.6 14.03 0 7.66-5.07 14.38-13.44 17.45v.24c7.55 1.89 16.39 8.14 16.39 19.93 0 6.84-2.71 12.03-6.72 15.92-5.54 5.07-14.5 7.43-27.47 7.43-7.07 0-12.5-.47-15.92-.94v-78.19zm10.25 32.54h9.31c10.85 0 17.21-5.66 17.21-13.32 0-9.31-7.07-12.97-17.45-12.97-4.72 0-7.43.35-9.08.71v25.58zm0 38.09c2 .35 4.95.47 8.61.47 10.61 0 20.4-3.89 20.4-15.45 0-10.85-9.31-15.33-20.52-15.33h-8.49v30.31zM317.61 454.18c4.6 2.83 11.32 5.19 18.39 5.19 10.49 0 16.62-5.54 16.62-13.56 0-7.43-4.24-11.67-14.97-15.8-12.97-4.6-20.99-11.32-20.99-22.52 0-12.38 10.26-21.58 25.7-21.58 8.14 0 14.03 1.89 17.57 3.89l-2.83 8.37c-2.59-1.41-7.9-3.77-15.09-3.77-10.85 0-14.97 6.48-14.97 11.91 0 7.43 4.83 11.08 15.8 15.33 13.44 5.19 20.28 11.67 20.28 23.35 0 12.26-9.08 22.87-27.83 22.87-7.66 0-16.04-2.24-20.28-5.07l2.6-8.61z"/></g></svg>
