<?xml version="1.0" encoding="UTF-8"?><svg id="Layer_1" xmlns="http://www.w3.org/2000/svg" xmlns:xlink="http://www.w3.org/1999/xlink" viewBox="0 0 500 500"><defs><style>.cls-1{fill:none;}.cls-2{clip-path:url(#clippath);}.cls-3{fill:#fed626;}</style><clipPath id="clippath"><rect class="cls-1" width="500" height="500"/></clipPath></defs><g class="cls-2"><g><path d="M184.91,127.62v214.9c0,20.28,2.39,35.55,7.16,45.79,8.46,18.1,25.06,27.15,49.8,27.15,31.68,0,53.38-12.86,65.1-38.6,6.07-13.95,9.11-32.38,9.11-55.28V127.62h94.53V484.15h-90.61v-50.37c-.87,1.1-3.05,4.37-6.52,9.81-3.48,5.45-7.61,10.25-12.39,14.39-14.57,13.08-28.65,22.03-42.24,26.82-13.59,4.8-29.52,7.2-47.79,7.2-52.62,0-88.07-18.97-106.33-56.91-10.22-20.93-15.33-51.79-15.33-92.57V127.62h95.51Z"/><rect class="cls-3" x="106.1" y="8" width="284.7" height="58.62"/></g></g></svg>