<svg width="52" height="51" viewBox="0 0 52 51" fill="none" xmlns="http://www.w3.org/2000/svg">
<path d="M23.0221 1.01447H29.0221" stroke="#79B8FF" stroke-width="2" stroke-linecap="round" stroke-linejoin="round"/>
<path d="M23.0118 49.0046H29.0118" stroke="#79B8FF" stroke-width="2" stroke-linecap="round" stroke-linejoin="round"/>
<path d="M24.0028 43.0026H36.0028" stroke="#79B8FF" stroke-width="2" stroke-linecap="round" stroke-linejoin="round"/>
<path d="M41.0103 16.0045H46.0103" stroke="#79B8FF" stroke-width="2" stroke-linecap="round" stroke-linejoin="round"/>
<path d="M16.01 7.00342H28.01" stroke="#79B8FF" stroke-width="2" stroke-linecap="round" stroke-linejoin="round"/>
<path d="M35.0049 7.00757H41.0049" stroke="#2088FF" stroke-width="2" stroke-linecap="round" stroke-linejoin="round"/>
<path d="M38.0005 10.0128V4.01276" stroke="#2088FF" stroke-width="2" stroke-linecap="round" stroke-linejoin="round"/>
<path d="M11.0067 43.003H17.0067" stroke="#2088FF" stroke-width="2" stroke-linecap="round" stroke-linejoin="round"/>
<path d="M14.0018 46.004V40.004" stroke="#2088FF" stroke-width="2" stroke-linecap="round" stroke-linejoin="round"/>
<path fill-rule="evenodd" clip-rule="evenodd" d="M26.0147 1.01014L21.0116 7.0018L26.0147 1.01014Z" stroke="#79B8FF" stroke-width="2"/>
<path fill-rule="evenodd" clip-rule="evenodd" d="M30.0147 43.0101L25.0116 49.0018L30.0147 43.0101Z" stroke="#79B8FF" stroke-width="2"/>
<path d="M5.01001 15.0016H11.01" stroke="#2088FF" stroke-width="2" stroke-linecap="round" stroke-linejoin="round"/>
<path d="M44.0109 25H50.0109" stroke="#79B8FF" stroke-width="2" stroke-linecap="round" stroke-linejoin="round"/>
<path d="M41.0117 35.0025H47.0117" stroke="#2088FF" stroke-width="2" stroke-linecap="round" stroke-linejoin="round"/>
<path d="M2.35913 25C6.7143 25 8.76102 29.4719 8.76102 33" stroke="#79B8FF" stroke-width="2"/>
<path d="M10.9897 33.9955H5.98975" stroke="#79B8FF" stroke-width="2" stroke-linecap="round" stroke-linejoin="round"/>
<path d="M7.98914 25H1.98914" stroke="#79B8FF" stroke-width="2" stroke-linecap="round" stroke-linejoin="round"/>
<path fill-rule="evenodd" clip-rule="evenodd" d="M21.5029 18C22.6115 18 23.5105 18.8952 23.5105 19.9996C23.5105 21.1044 22.6115 22 21.5029 22C20.3943 22 19.4954 21.1044 19.4954 19.9996C19.4954 18.8952 20.3943 18 21.5029 18Z" stroke="#2088FF" stroke-width="2" stroke-linecap="round" stroke-linejoin="round"/>
<path fill-rule="evenodd" clip-rule="evenodd" d="M21.5012 28C22.6057 28 23.5012 28.8952 23.5012 30C23.5012 31.1044 22.6057 32 21.5012 32C20.3968 32 19.5012 31.1044 19.5012 30C19.5012 28.8952 20.3968 28 21.5012 28Z" stroke="#2088FF" stroke-width="2" stroke-linecap="round" stroke-linejoin="round"/>
<path fill-rule="evenodd" clip-rule="evenodd" d="M31 28C32.1044 28 33 28.8952 33 30C33 31.1044 32.1044 32 31 32C29.8956 32 29 31.1044 29 30C29 28.8952 29.8956 28 31 28Z" stroke="#2088FF" stroke-width="2" stroke-linecap="round" stroke-linejoin="round"/>
<path d="M21.5 22.0045V28.0054" stroke="#2088FF" stroke-width="2"/>
<path d="M28.0758 19.988L29.1025 19.9651V19.9651C30.1854 20.0003 31.0429 20.8923 31.0353 21.9757L31 27" stroke="#2088FF" stroke-width="2" stroke-linecap="round" stroke-linejoin="round"/>
<path d="M28.5883 22.2217L26.3942 20.1757L28.4402 17.9816" stroke="#2088FF" stroke-width="2" stroke-linecap="round" stroke-linejoin="round"/>
<path fill-rule="evenodd" clip-rule="evenodd" d="M26.0227 39C33.7547 39 40.0227 32.732 40.0227 25C40.0227 17.268 33.7547 11 26.0227 11C18.2907 11 12.0227 17.268 12.0227 25C12.0227 32.732 18.2907 39 26.0227 39Z" stroke="#2088FF" stroke-width="2"/>
</svg>
