<svg width="49" height="48" viewBox="0 0 49 48" fill="none" xmlns="http://www.w3.org/2000/svg">
<path fill-rule="evenodd" clip-rule="evenodd" d="M11.6992 4C12.0165 5.12165 12.2723 5.37177 13.4098 5.67815C12.2741 5.99232 12.0208 6.24417 11.7106 7.36842C11.3925 6.24677 11.1375 5.99578 10 5.6894C11.1349 5.3761 11.389 5.12338 11.6992 4Z" stroke="#2088FF" stroke-width="2" stroke-linecap="round" stroke-linejoin="round"/>
<path fill-rule="evenodd" clip-rule="evenodd" d="M37.6992 4C38.0165 5.12165 38.2723 5.37177 39.4098 5.67815C38.2741 5.99232 38.0208 6.24417 37.7106 7.36842C37.3925 6.24677 37.1375 5.99578 36 5.6894C37.1349 5.3761 37.389 5.12338 37.6992 4Z" stroke="#2088FF" stroke-width="2" stroke-linecap="round" stroke-linejoin="round"/>
<path fill-rule="evenodd" clip-rule="evenodd" d="M25.0225 1C25.3397 2.12165 25.5956 2.37177 26.7331 2.67815C25.5973 2.99232 25.3441 3.24417 25.0339 4.36842C24.7157 3.24677 24.4607 2.99578 23.3232 2.6894C24.4581 2.3761 24.7122 2.12338 25.0225 1Z" stroke="#2088FF" stroke-width="2" stroke-linecap="round" stroke-linejoin="round"/>
<path d="M15.0507 14.1947C15.0507 14.1947 9.46385 11 6.45147 11C5.92082 11 4.99961 11.1641 4.50012 11.653C4.00063 12.1418 3.92777 12.3944 3.78856 12.7929C3.05502 14.8932 2.22704 19.1104 3.86734 22.0786C-4.89999 47.4597 19.3796 46.9993 25.0744 46.9993C30.7692 46.9993 54.8197 47.4551 46.1114 22.0913C47.2232 19.8906 47.5151 16.972 46.2324 12.8072C44.9376 8.60338 34.8817 14.1913 34.8817 14.1913C34.8817 14.1913 30.1174 12.3813 25.0803 12.3813C20.0431 12.3813 15.0507 14.1947 15.0507 14.1947Z" stroke="#79B8FF" stroke-width="2" stroke-linecap="round" stroke-linejoin="round"/>
<path d="M10.9381 45.9968C11.4478 46.2095 12.0334 45.9688 12.2461 45.4591C12.4588 44.9495 12.2181 44.3638 11.7084 44.1511L10.9381 45.9968ZM25.0105 27.0304C25.5628 27.0246 26.0058 26.5722 25.9999 26.0199C25.9941 25.4677 25.5417 25.0247 24.9895 25.0305L25.0105 27.0304ZM11.7084 44.1511C9.8233 43.3643 9.39255 41.6102 9.39255 40.2398H7.39255C7.39255 41.9224 7.93871 44.745 10.9381 45.9968L11.7084 44.1511ZM9.39255 40.2398C9.39255 38.9259 9.78374 38.2444 10.3184 36.6353L8.42048 36.0046C7.97827 37.3354 7.39255 38.5006 7.39255 40.2398H9.39255ZM10.3184 36.6353C10.598 35.7941 10.7315 35.0553 10.5637 34.0369C10.4093 33.0992 10.0011 31.9429 9.32142 30.2386L7.46368 30.9794C8.15171 32.7048 8.4762 33.6691 8.59035 34.362C8.69121 34.9741 8.62941 35.3759 8.42048 36.0046L10.3184 36.6353ZM9.32142 30.2386C8.18001 27.3762 10.17 24.074 13.2771 24.074V22.074C8.56888 22.074 5.86974 26.9821 7.46368 30.9794L9.32142 30.2386ZM13.2771 24.074C14.9995 24.074 16.5792 24.7329 18.4944 25.499C20.3566 26.244 22.4752 27.0571 25.0105 27.0304L24.9895 25.0305C22.8898 25.0526 21.1008 24.3876 19.2372 23.6421C17.4266 22.9177 15.4623 22.074 13.2771 22.074V24.074Z" fill="#79B8FF"/>
<path d="M25 26.0305C29.635 26.0793 32.8153 23.074 36.7229 23.074C40.6305 23.074 42.9751 27.1791 41.6075 30.609C40.2398 34.0388 40.1421 34.85 40.6305 36.32C41.119 37.7899 41.6075 38.7133 41.6075 40.2398C41.6075 41.7663 41.119 44.0547 38.6767 45.074" stroke="#79B8FF" stroke-width="2"/>
<path d="M13 36C13.5523 36 14 35.5523 14 35C14 34.4477 13.5523 34 13 34C12.4477 34 12 34.4477 12 35C12 35.5523 12.4477 36 13 36Z" fill="#2088FF"/>
<path d="M14 34C14.5523 34 15 33.5523 15 33C15 32.4477 14.5523 32 14 32C13.4477 32 13 32.4477 13 33C13 33.5523 13.4477 34 14 34Z" fill="#2088FF"/>
<path d="M16 34C16.5523 34 17 33.5523 17 33C17 32.4477 16.5523 32 16 32C15.4477 32 15 32.4477 15 33C15 33.5523 15.4477 34 16 34Z" fill="#2088FF"/>
<path d="M24 41C24.5523 41 25 40.5523 25 40C25 39.4477 24.5523 39 24 39C23.4477 39 23 39.4477 23 40C23 40.5523 23.4477 41 24 41Z" fill="#2088FF"/>
<path d="M26 41C26.5523 41 27 40.5523 27 40C27 39.4477 26.5523 39 26 39C25.4477 39 25 39.4477 25 40C25 40.5523 25.4477 41 26 41Z" fill="#2088FF"/>
<path d="M18 34C18.5523 34 19 33.5523 19 33C19 32.4477 18.5523 32 18 32C17.4477 32 17 32.4477 17 33C17 33.5523 17.4477 34 18 34Z" fill="#2088FF"/>
<path d="M32 34C32.5523 34 33 33.5523 33 33C33 32.4477 32.5523 32 32 32C31.4477 32 31 32.4477 31 33C31 33.5523 31.4477 34 32 34Z" fill="#2088FF"/>
<path d="M34 34C34.5523 34 35 33.5523 35 33C35 32.4477 34.5523 32 34 32C33.4477 32 33 32.4477 33 33C33 33.5523 33.4477 34 34 34Z" fill="#2088FF"/>
<path d="M36 34C36.5523 34 37 33.5523 37 33C37 32.4477 36.5523 32 36 32C35.4477 32 35 32.4477 35 33C35 33.5523 35.4477 34 36 34Z" fill="#2088FF"/>
<path d="M13 38C13.5523 38 14 37.5523 14 37C14 36.4477 13.5523 36 13 36C12.4477 36 12 36.4477 12 37C12 37.5523 12.4477 38 13 38Z" fill="#2088FF"/>
<path d="M20 36C20.5523 36 21 35.5523 21 35C21 34.4477 20.5523 34 20 34C19.4477 34 19 34.4477 19 35C19 35.5523 19.4477 36 20 36Z" fill="#2088FF"/>
<path d="M20 38C20.5523 38 21 37.5523 21 37C21 36.4477 20.5523 36 20 36C19.4477 36 19 36.4477 19 37C19 37.5523 19.4477 38 20 38Z" fill="#2088FF"/>
<path d="M30 36C30.5523 36 31 35.5523 31 35C31 34.4477 30.5523 34 30 34C29.4477 34 29 34.4477 29 35C29 35.5523 29.4477 36 30 36Z" fill="#2088FF"/>
<path d="M30 38C30.5523 38 31 37.5523 31 37C31 36.4477 30.5523 36 30 36C29.4477 36 29 36.4477 29 37C29 37.5523 29.4477 38 30 38Z" fill="#2088FF"/>
<path d="M37 36C37.5523 36 38 35.5523 38 35C38 34.4477 37.5523 34 37 34C36.4477 34 36 34.4477 36 35C36 35.5523 36.4477 36 37 36Z" fill="#2088FF"/>
<path d="M37 38C37.5523 38 38 37.5523 38 37C38 36.4477 37.5523 36 37 36C36.4477 36 36 36.4477 36 37C36 37.5523 36.4477 38 37 38Z" fill="#2088FF"/>
</svg>
