<svg width="56" height="56" viewBox="0 0 56 56" fill="none" xmlns="http://www.w3.org/2000/svg">
    <path fill-rule="evenodd" clip-rule="evenodd" d="M12 15.6819V6.7C12 5.20883 13.2088 4 14.7 4H19.3C20.7912 4 22 5.20883 22 6.7V7.95148C23.8851 7.33337 25.9022 7 28 7C30.096 7 32.1134 7.33942 34 7.96818V6.7C34 5.20883 35.2088 4 36.7 4H41.3C42.7912 4 44 5.20883 44 6.7V15.7977C45.8638 18.7288 46.9599 22.2179 46.9999 25.9894L47.0001 26L47 34H50C50.5021 34 51.0357 34.1446 51.4436 34.5505C51.8523 34.9573 52 35.4922 52 36V41C52 43.7422 49.774 45.9358 47.0232 45.9997C46.9453 46.0015 46.8693 45.9944 46.7962 45.9792C45.9911 49.4297 42.8957 52 39.2 52H16.8C13.1043 52 10.0089 49.4297 9.20384 45.9792C9.13802 45.9928 9.06985 46 9 46C6.23858 46 4 43.7614 4 41V36C4 35.497 4.1433 34.9611 4.55221 34.5522C4.96111 34.1433 5.49704 34 6 34H9V26L9.00012 25.9315C8.42033 25.7233 8.00549 25.1672 8.00549 24.5139C8.00549 23.779 8.53044 23.1671 9.22461 23.0351C9.63685 20.3469 10.6021 17.8578 12 15.6819ZM14 6.7C14 6.3134 14.3134 6 14.7 6H19.3C19.6866 6 20 6.3134 20 6.7V8.73567C17.7168 9.78431 15.6809 11.2712 14 13.0942V6.7ZM13.7458 16.6662C13.8093 16.5951 13.8628 16.5149 13.9041 16.4278C16.9545 11.9188 22.1198 9 28 9C37.3021 9 44.8961 16.479 45 26.0053V44.2C45 47.4033 42.4033 50 39.2 50H16.8C13.5967 50 11 47.4033 11 44.2V26C11 22.5308 12.0082 19.3313 13.7458 16.6662ZM42 13.1815C40.3181 11.3358 38.2816 9.82871 36 8.76478V6.7C36 6.3134 36.3134 6 36.7 6H41.3C41.6866 6 42 6.3134 42 6.7V13.1815ZM50 41C50 42.6054 48.6968 43.9484 47 43.9996V40.0065H50V41ZM50 38.0065V36H47V38.0065H50ZM9 44V40.0068H6V41C6 42.6569 7.34315 44 9 44ZM9 36V38.0068H6V36H9Z" fill="#79B8FF"/>
    <path fill-rule="evenodd" clip-rule="evenodd" d="M29.58 30.81C29.75 30.93 29.96 31 30.17 31C30.27 31 30.37 30.99 30.47 30.95C33.13 30.14 35.13 28.66 36.42 26.57C37.48 24.85 38 23.08 38 21.18C38 17.77 36.49 15.45 35.23 14.11C33.36 12.13 30.73 11 28 11C25.28 11 22.54 12.2 20.68 14.21C19.46 15.53 18 17.81 18 21.18C18 23.34 18.7 25.46 19.95 27.16C21.31 28.97 23.13 30.22 25.38 30.88C25.68 30.97 26.01 30.91 26.26 30.72C26.51 30.53 26.66 30.23 26.66 29.92V27.37C26.66 27.11 26.73 26.88 26.87 26.66C27.07 26.36 27.09 25.99 26.93 25.67C26.78 25.36 26.46 25.15 26.11 25.12C25.03 25.04 23.2 24.51 23.2 21.82C23.2 21.06 23.41 20.48 23.84 20.03C24.09 19.78 24.18 19.41 24.08 19.07C23.99 18.72 23.94 18.35 23.95 17.95C24.18 18.04 24.52 18.2 25.03 18.51C25.29 18.67 25.62 18.7 25.9 18.6C26.98 18.2 28.37 18.21 30.04 18.64C30.42 18.74 30.77 18.65 31.02 18.35C31.19 18.19 31.65 17.93 31.97 17.82C31.97 18.05 31.94 18.48 31.86 19.24C31.83 19.54 31.93 19.84 32.14 20.05C32.46 20.37 32.63 21 32.63 21.85C32.63 23.64 31.7 24.66 29.6 25.15C29.29 25.22 29.03 25.43 28.91 25.72C28.79 26.01 28.8 26.34 28.95 26.61C29.1 26.89 29.17 27.14 29.17 27.37C29.16 27.78 29.16 28.66 29.17 30.01C29.17 30.33 29.33 30.62 29.58 30.81ZM31.17 27.41C31.18 27.2 31.16 26.99 31.12 26.78C34 25.72 34.63 23.56 34.63 21.84C34.63 20.67 34.38 19.72 33.89 19.03C33.99 17.9 33.97 17.48 33.93 17.24C33.82 16.51 33.38 16 32.73 15.82C31.82 15.58 30.7 16.12 30.04 16.58C28.39 16.22 26.93 16.22 25.68 16.57C24.4 15.85 23.54 15.69 22.85 16.02C22.56 16.16 22.06 16.53 21.98 17.37C21.92 17.96 21.94 18.53 22.04 19.07C21.49 19.83 21.21 20.75 21.21 21.81C21.21 24.77 22.9 26.31 24.71 26.87C24.69 27.04 24.68 27.21 24.68 27.38V28.49C23.43 27.91 22.4 27.08 21.57 25.96C20.57 24.62 20 22.88 20 21.18C20 18.46 21.17 16.63 22.15 15.58C23.64 13.96 25.83 13 28 13C30.18 13 32.28 13.91 33.76 15.49C34.78 16.57 35.99 18.43 35.99 21.19C35.99 22.71 35.57 24.13 34.71 25.53C33.88 26.87 32.71 27.88 31.16 28.57C31.16 28.2432 31.1637 27.9714 31.1666 27.7567C31.1684 27.6166 31.17 27.5008 31.17 27.41Z" fill="#2188FF"/>
    <path fill-rule="evenodd" clip-rule="evenodd" d="M15 36.7C15 35.2088 16.2088 34 17.7 34H38.3C39.7912 34 41 35.2088 41 36.7V45.3C41 46.7912 39.7912 48 38.3 48H17.7C16.2088 48 15 46.7912 15 45.3V36.7ZM17.7 36C17.3134 36 17 36.3134 17 36.7V38.0082H39V36.7C39 36.3134 38.6866 36 38.3 36H17.7ZM17 45.3V40.0082H39V45.3C39 45.6866 38.6866 46 38.3 46H17.7C17.3134 46 17 45.6866 17 45.3Z" fill="#2188FF"/>
</svg>
