<svg width="56" height="55" fill="none" xmlns="http://www.w3.org/2000/svg"><path fill-rule="evenodd" clip-rule="evenodd" d="M15.295 34.208c-2.946-5.481-2.024-12.456 2.744-16.889 4.767-4.433 11.79-4.846 17.043-1.51l8.049-7.483 4.766 5.126-8.048 7.483c2.946 5.482 2.024 12.457-2.744 16.89-4.767 4.432-11.791 4.846-17.044 1.51l-8.048 7.483-4.767-5.126 8.049-7.484zm17.52-.997a7.678 7.678 0 00.396-10.883 7.678 7.678 0 00-10.882-.395 7.678 7.678 0 00-.396 10.882 7.678 7.678 0 0010.882.396z" fill="#e1e4e8"/></svg>
