<svg width="50" height="50" fill="none" xmlns="http://www.w3.org/2000/svg"><path fill-rule="evenodd" clip-rule="evenodd" d="M49 25c0 .8-.04 1.59-.116 2.37a2 2 0 0 1-1.072 1.158l-5.5 2.444c-.248.11-.44.318-.538.57-.09.233-.186.464-.286.691-.11.25-.121.531-.023.785l2.16 5.618a2 2 0 0 1-.058 1.572 24.151 24.151 0 0 1-3.358 3.359 2 2 0 0 1-1.573.058l-5.618-2.16a1.031 1.031 0 0 0-.785.023c-.227.1-.457.195-.69.286-.253.099-.46.29-.57.538l-2.445 5.5a2 2 0 0 1-1.157 1.072 24.275 24.275 0 0 1-4.741 0 2 2 0 0 1-1.158-1.072l-2.444-5.5a1.032 1.032 0 0 0-.57-.538c-.233-.09-.464-.186-.691-.286a1.032 1.032 0 0 0-.785-.023l-5.618 2.16a2 2 0 0 1-1.573-.058 24.158 24.158 0 0 1-1.723-1.558l-.077-.077a24.148 24.148 0 0 1-1.558-1.723 2 2 0 0 1-.058-1.573l2.16-5.618a1.032 1.032 0 0 0-.023-.785c-.1-.227-.195-.457-.286-.69a1.032 1.032 0 0 0-.538-.57l-5.5-2.445a2 2 0 0 1-1.072-1.157 24.288 24.288 0 0 1 0-4.741 2 2 0 0 1 1.072-1.158l5.5-2.444c.248-.11.44-.318.538-.57.09-.233.186-.464.286-.691.11-.25.121-.532.023-.785l-2.16-5.618a2 2 0 0 1 .058-1.573c.492-.6 1.012-1.174 1.558-1.723l.077-.077A24.146 24.146 0 0 1 9.79 6.433a2 2 0 0 1 1.573-.058l5.618 2.16c.254.098.536.087.785-.023.227-.1.458-.195.69-.286.253-.099.46-.29.57-.538l2.445-5.5a2 2 0 0 1 1.157-1.072 24.288 24.288 0 0 1 4.741 0 2 2 0 0 1 1.158 1.072l2.444 5.5c.11.248.318.44.57.538.233.09.464.186.691.286.25.11.532.121.785.023l5.618-2.16a2 2 0 0 1 1.573.058 24.15 24.15 0 0 1 3.358 3.359 2 2 0 0 1 .058 1.572l-2.16 5.618c-.098.254-.087.536.023.785.1.227.195.458.286.69.099.253.29.46.538.57l5.5 2.445a2 2 0 0 1 1.072 1.157C48.961 23.41 49 24.2 49 25Zm-24 7c4.418 0 7-2.582 7-7s-2.582-7-7-7-7 2.582-7 7 2.582 7 7 7Z" fill="#E678AE" fill-opacity=".3" stroke="url(#a)"/><g filter="url(#b)"><path fill-rule="evenodd" clip-rule="evenodd" d="M49 25c0 .8-.04 1.59-.116 2.37a2 2 0 0 1-1.072 1.158l-5.5 2.444c-.248.11-.44.318-.538.57-.09.233-.186.464-.286.691-.11.25-.121.531-.023.785l2.16 5.618a2 2 0 0 1-.058 1.572 24.151 24.151 0 0 1-3.358 3.359 2 2 0 0 1-1.573.058l-5.618-2.16a1.031 1.031 0 0 0-.785.023c-.227.1-.457.195-.69.286-.253.099-.46.29-.57.538l-2.445 5.5a2 2 0 0 1-1.157 1.072 24.275 24.275 0 0 1-4.741 0 2 2 0 0 1-1.158-1.072l-2.444-5.5a1.032 1.032 0 0 0-.57-.538c-.233-.09-.464-.186-.691-.286a1.032 1.032 0 0 0-.785-.023l-5.618 2.16a2 2 0 0 1-1.573-.058 24.158 24.158 0 0 1-1.723-1.558l-.077-.077a24.148 24.148 0 0 1-1.558-1.723 2 2 0 0 1-.058-1.573l2.16-5.618a1.032 1.032 0 0 0-.023-.785c-.1-.227-.195-.457-.286-.69a1.032 1.032 0 0 0-.538-.57l-5.5-2.445a2 2 0 0 1-1.072-1.157 24.288 24.288 0 0 1 0-4.741 2 2 0 0 1 1.072-1.158l5.5-2.444c.248-.11.44-.318.538-.57.09-.233.186-.464.286-.691.11-.25.121-.532.023-.785l-2.16-5.618a2 2 0 0 1 .058-1.573c.492-.6 1.012-1.174 1.558-1.723l.077-.077A24.146 24.146 0 0 1 9.79 6.433a2 2 0 0 1 1.573-.058l5.618 2.16c.254.098.536.087.785-.023.227-.1.458-.195.69-.286.253-.099.46-.29.57-.538l2.445-5.5a2 2 0 0 1 1.157-1.072 24.288 24.288 0 0 1 4.741 0 2 2 0 0 1 1.158 1.072l2.444 5.5c.11.248.318.44.57.538.233.09.464.186.691.286.25.11.532.121.785.023l5.618-2.16a2 2 0 0 1 1.573.058 24.15 24.15 0 0 1 3.358 3.359 2 2 0 0 1 .058 1.572l-2.16 5.618c-.098.254-.087.536.023.785.1.227.195.458.286.69.099.253.29.46.538.57l5.5 2.445a2 2 0 0 1 1.072 1.157C48.961 23.41 49 24.2 49 25Zm-24 6c4.418 0 6-1.582 6-6s-1.582-6-6-6-5.972 1.582-5.972 6 1.554 6 5.972 6Z" fill="url(#c)"/></g><path d="M7.906 30.523 1.18 27.531s.238.657 1.093 1.035l5.422 2.41c.253.113.477.419.516.516.039.098.078.209.125.324.49.185.723.416.777.508-.066-.144-.188-.46-.425-.984-.264-.582-.61-.738-.778-.815l-.004-.002ZM30.527 7.91l-3.001-6.733s.657.234 1.04 1.088l2.44 5.409c.114.252.338.443.451.502.113.058.251.118.367.164.187.49.423.72.516.773-.145-.065-.474-.206-1-.441-.582-.26-.733-.589-.81-.757l-.003-.005Z" fill="#CF64B1"/><g filter="url(#d)"><path d="M25 49c.8 0 1.59-.04 2.37-.116a2 2 0 0 0 1.158-1.072l2.444-5.5c.11-.248.318-.44.57-.538.233-.09.464-.186.691-.286.25-.11.532-.121.785-.023l5.618 2.16a2 2 0 0 0 1.573-.058 24.151 24.151 0 0 0 3.358-3.358 2 2 0 0 0 .058-1.573l-2.16-5.618a1.032 1.032 0 0 1 .023-.785c.1-.227.195-.458.286-.69.099-.253.29-.46.538-.57l5.5-2.445a2 2 0 0 0 1.072-1.157 24.275 24.275 0 0 0 0-4.741 2 2 0 0 0-1.072-1.158l-5.5-2.444a1.032 1.032 0 0 1-.538-.57c-.09-.233-.186-.464-.286-.691-.11-.25-.121-.531-.023-.785l2.16-5.618a2 2 0 0 0-.058-1.572 24.15 24.15 0 0 0-3.358-3.359 2 2 0 0 0-1.573-.058l-5.618 2.16a1.032 1.032 0 0 1-.785-.023c-.227-.1-.457-.195-.69-.286a1.032 1.032 0 0 1-.57-.538l-2.445-5.5a2 2 0 0 0-1.157-1.072C26.59 1.039 25.8 1 25 1v17c4.418 0 7 2.582 7 7s-2.582 7-7 7v17Z" fill="url(#e)"/></g><circle cx="25" cy="25" r="8" fill="#fff" stroke="url(#f)"/><circle cx="25" cy="25" r="8" fill="#fff"/><path fill-rule="evenodd" clip-rule="evenodd" d="M23.542 21.61a1 1 0 0 1 1.04.076l3.5 2.5a1 1 0 0 1 0 1.628l-3.5 2.5A1 1 0 0 1 23 27.5v-5a1 1 0 0 1 .542-.89Z" fill="#161B22"/><defs><linearGradient id="a" x1="4.5" y1="2.5" x2="43" y2="47.5" gradientUnits="userSpaceOnUse"><stop stop-color="#DA9BF7"/><stop offset="1" stop-color="#CF87E1"/></linearGradient><linearGradient id="c" x1="1" y1="-5" x2="37.5" y2="49" gradientUnits="userSpaceOnUse"><stop stop-color="#E678AE" stop-opacity="0"/><stop offset=".671" stop-color="#DB469F"/></linearGradient><linearGradient id="e" x1="49" y1="37" x2="25" y2="12" gradientUnits="userSpaceOnUse"><stop stop-color="#D2A0FD"/><stop offset="1" stop-color="#C2A0FD" stop-opacity="0"/></linearGradient><linearGradient id="f" x1="21" y1="18" x2="29.5" y2="32" gradientUnits="userSpaceOnUse"><stop stop-color="#BB97EF"/><stop offset="1" stop-color="#DC479F"/></linearGradient><filter id="b" x="1" y="1" width="48" height="48" filterUnits="userSpaceOnUse" color-interpolation-filters="sRGB"><feFlood flood-opacity="0" result="BackgroundImageFix"/><feBlend in="SourceGraphic" in2="BackgroundImageFix" result="shape"/><feColorMatrix in="SourceAlpha" values="0 0 0 0 0 0 0 0 0 0 0 0 0 0 0 0 0 0 127 0" result="hardAlpha"/><feOffset dx="1" dy="1"/><feComposite in2="hardAlpha" operator="arithmetic" k2="-1" k3="1"/><feColorMatrix values="0 0 0 0 1 0 0 0 0 1 0 0 0 0 1 0 0 0 0.25 0"/><feBlend in2="shape" result="effect1_innerShadow_2600:52"/><feColorMatrix in="SourceAlpha" values="0 0 0 0 0 0 0 0 0 0 0 0 0 0 0 0 0 0 127 0" result="hardAlpha"/><feOffset dx="-1" dy="-1"/><feComposite in2="hardAlpha" operator="arithmetic" k2="-1" k3="1"/><feColorMatrix values="0 0 0 0 0 0 0 0 0 0 0 0 0 0 0 0 0 0 0.06 0"/><feBlend in2="effect1_innerShadow_2600:52" result="effect2_innerShadow_2600:52"/></filter><filter id="d" x="25" y="1" width="24" height="48" filterUnits="userSpaceOnUse" color-interpolation-filters="sRGB"><feFlood flood-opacity="0" result="BackgroundImageFix"/><feBlend in="SourceGraphic" in2="BackgroundImageFix" result="shape"/><feColorMatrix in="SourceAlpha" values="0 0 0 0 0 0 0 0 0 0 0 0 0 0 0 0 0 0 127 0" result="hardAlpha"/><feOffset dx="-1" dy="-1"/><feComposite in2="hardAlpha" operator="arithmetic" k2="-1" k3="1"/><feColorMatrix values="0 0 0 0 0 0 0 0 0 0 0 0 0 0 0 0 0 0 0.04 0"/><feBlend in2="shape" result="effect1_innerShadow_2600:52"/></filter></defs></svg>