<svg fill="none" height="48" viewBox="0 0 170 48" width="170" xmlns="http://www.w3.org/2000/svg"><path clip-rule="evenodd" d="m15.6941 20.3422c-.0283-.4506-.0567-.6627-.1417-.9542-.4816-1.5639-2.0396-2.7037-3.8527-2.7037h-7.76202v14.6844h3.93769v3.6313h-7.87537v-22h11.6997c3.9661 0 7.2238 2.7036 7.7904 6.2554.0567.3446.085.6892.085 1.0868zm3.9097 3.6578v3.6313c0 4.0023-3.5593 7.2818-7.8187 7.367v-3.6561h-.2266c2.2096 0 4.1076-1.6964 4.1076-3.7639v-3.5783zm-7.8187 10.9983v.0017h-.1699c.0567 0 .1134-.0006.1699-.0017zm56.0055-12.8419c0-1.6393-1.3032-2.5262-3.0029-2.5262-1.6714 0-3.0028.9137-3.0028 2.5262v4.058c0 1.6124 1.3031 2.5262 3.0028 2.5262 1.6714 0 3.0029-.9138 3.0029-2.5262zm-2.9745 9.2447c-3.8811 0-6.0907-2.0962-6.0907-5.1867v-4.058c0-3.1174 2.2096-5.2136 6.0907-5.2136 3.881 0 6.0906 2.0962 6.0906 5.2136v4.058c-.0283 3.1174-2.2379 5.1867-6.0906 5.1867zm-12.6344-9.0298c0-1.6125-1.3031-2.5262-3.0029-2.5262h-3.0028v8.7072h3.0028c1.6714 0 3.0029-.9137 3.0029-2.5261zm-9.0652 8.8416v-14.0552h6.0907c3.881 0 6.0906 2.0962 6.0906 5.1867v3.6818c0 3.1174-2.2096 5.1867-6.0906 5.1867zm36.9687 0 2.6062-7.8741 2.6346 7.8741h3.3144l2.9746-14.0552h-3.0879l-1.8697 9.5135-3.0028-9.5135h-1.898l-3.0029 9.5135-1.8697-9.5135h-3.0878l2.9462 14.0552zm26.4878-14.0552h3.087v10.0241c0 2.7949-1.784 4.2192-4.787 4.2192s-4.788-1.4243-4.788-4.2192h3.116c.085.9943.68 1.5318 1.672 1.5318 1.19 0 1.7-.6987 1.7-1.6125zm12.917 2.4725c1.7 0 3.003.8869 3.003 2.5262v4.058c0 1.6124-1.331 2.5262-3.003 2.5262-1.7 0-3.003-.9138-3.003-2.5262v-4.058c0-1.6125 1.332-2.5262 3.003-2.5262zm-6.09 6.5842c0 3.0905 2.209 5.1867 6.09 5.1867s6.091-2.0693 6.091-5.1867v-4.058c0-3.1174-2.21-5.2136-6.091-5.2136s-6.09 2.0962-6.09 5.2136zm28.102 4.9985h-3.088l-5.977-9.0566v9.0566h-3.088v-14.0552h3.088l5.977 9.0566v-9.0566h3.088zm13.172-8.4385h-6.005v-2.9293h6.714v-2.6874h-9.802v14.0552h9.802v-2.6606h-6.714v-3.0905h6.005zm3.966 4.0043h3.173c.17 1.1825 1.246 1.9619 2.776 1.9619 1.36 0 2.295-.43 2.295-1.3975 0-.7793-.538-1.2362-1.672-1.4781l-2.719-.645c-2.465-.5912-3.683-2.0961-3.683-4.1654 0-2.8218 2.521-4.0849 5.354-4.0849 3.23 0 5.213 1.6393 5.581 4.0311h-3.173c-.283-.9406-1.416-1.3706-2.436-1.3706-1.303 0-2.21.43-2.21 1.4244 0 .8331.737 1.1824 1.615 1.3974l2.635.6181c2.493.5912 3.824 1.9081 3.824 4.273 0 2.5262-1.898 4.0849-5.382 4.0849-3.542-.0269-5.836-1.8543-5.978-4.6493z" fill="#8b949e" fill-rule="evenodd"/></svg>