<svg fill="none" height="48" viewBox="0 0 106 48" width="106" xmlns="http://www.w3.org/2000/svg" xmlns:xlink="http://www.w3.org/1999/xlink"><clipPath id="a"><path d="m0 0h106v48h-106z"/></clipPath><g clip-path="url(#a)"><path clip-rule="evenodd" d="m0 23.9976c0-11.1246 23.5845-19.9976 53-19.9976 29.2259 0 53 8.9684 53 19.9976s-23.7741 20.0024-53 20.0024c-29.2211 0-53-8.9445-53-20.0024zm74.1235 4.4598c-.1138-.0429-.2323-.1288-.2465-.2242-.0173-.0606-.0105-.1256.019-.1813.4266-.8729.73-1.9845-.2276-2.4472-.9197-.4436-2.3276.3769-3.6029 1.9511-1.0429 1.2928-1.6118 2.6047-1.6307 3.8879-.0048.4532.1659 1.0161.5641 1.226.9007.4723 1.9863-.2337 2.7733-.8873.5167-.4293.9481-.873 1.3273-1.4454.0581-.0874.114-.1706.168-.2511.3293-.4906.5899-.8788.875-1.4854.0474-.1001.0284-.1288-.019-.1431zm9.8557-10.4091c.1565 0 .2228.0907.1565.2147v-.0048c-.1122.1929-.7806 1.2325-1.701 2.664-2.4257 3.7727-6.6014 10.2672-6.9554 11.156-.1564.3959-.1754.6917-.0142.9064.4077.5486 1.3084.229 1.8773-.167 1.2066-.8403 2.1485-1.804 3.0637-2.7402.3576-.3659.7112-.7276 1.0748-1.0761.0711-.0525.1991-.0764.2845 0 .0732.07.1599.1471.2497.227.1426.1269.2928.2606.4092.3836.0948.1002.0569.1956.0095.2528-1.261 1.5504-2.6547 3.0149-3.9916 4.0501-2.0764 1.6172-4.148 2.0322-5.172.997-.3793-.3912-.5878-.9398-.6163-1.4073-.0142-.2528-.1422-.2671-.2607-.1478-1.2278 1.2212-3.3564 2.5665-5.2905 1.6124-1.6213-.811-1.9958-2.7526-1.6924-4.3888.0094-.0334-.0285-.2672-.2276-.1288-.3318.2433-.7774.5104-1.3274.7155-.5051.2338-1.0558.3512-1.6118.3435-.4007.0041-.7955-.0977-1.1449-.2953-.3494-.1975-.6412-.4839-.8461-.8305-.2845-.4246-.3935-1.0686-.4267-1.5361 0-.0525-.0663-.1479-.1422-.0238-1.0615 1.6272-2.0651 3.2145-3.0964 4.8457-.2536.4012-.5089.805-.7672 1.2127-.0664.0954-.128.1574-.2655.167h-2.5883c-.1612 0-.2371-.1241-.1517-.2767.1751-.3381.6411-1.0719 1.2453-2.0233h.0001v-.0001c.9988-1.5726 2.375-3.7394 3.4383-5.6952.4693-.8634.3745-1.3071.0806-1.4979-.3651-.2385-1.0904.1193-1.7066.5915-1.4149 1.077-2.64 2.6654-3.4146 3.6697l-.0003.0003-.0002.0004c-.1414.1832-.2677.347-.3774.4847-.138.17-.2734.3675-.4314.598-.3254.4747-.7467 1.0894-1.4838 1.8922-1.7256 1.889-4.0153 2.9719-6.2197 2.223-.5808-.1988-1.1041-.5381-1.524-.9882-.4199-.45-.7236-.9969-.8842-1.5926-.0664-.229-.1991-.2958-.3224-.1431-.3555.4484-1.0856 1.1067-1.6924 1.5217-.0664.0477-.2323.1479-.3745.0764-.2648-.2613-.49-.5603-.6684-.8873-.0269-.0589-.0345-.1248-.0217-.1882.0128-.0635.0453-.1212.0928-.1649.8722-.768 1.3463-1.2069 1.7256-1.6839.3207-.4262.5749-.8991.7537-1.4025.5262-1.3453 1.7351-3.8545 4.1386-5.1521.9196-.4914 1.8488-.8491 2.8823-.9684.4408-.0477.8059.0048.9386.3578l.2512.6965c.0475.1431.0095.2528-.1564.3148-1.4174.5438-2.8396 1.3834-3.8257 2.7096-1.114 1.5075-1.4127 3.3155-.6684 4.3554.5452.7585 1.4269.8921 2.2708.6202 1.2847-.4055 2.375-1.6124 2.9391-2.9481.6116-1.4598.7111-3.1867.2608-4.7037-.0759-.2624-.0095-.4627.1612-.6058.2921-.2409.678-.4329.8693-.5281l.0436-.0217c.0133-.0067.0251-.0127.0352-.0179.1347-.073.2914-.0934.4401-.0574.1487.0361.279.1262.3658.253.4913.8152.7489 1.7514.7443 2.7048.0331.2147.1232.2194.2228.105.2166-.2316.4294-.4672.6413-.7018.6089-.6743 1.21-1.3399 1.8712-1.8743.8154-.6535 1.863-1.1878 2.8396-1.164 1.261.0287 1.8915.8921 1.8488 2.4282-.0047.1908.1328.1813.2276.0477.2922-.4436.6503-.8393 1.0619-1.1735.8723-.7251 1.7682-1.0495 2.6974-.9827.2796.0194.5523.0967.8009.2269.2486.1303.4678.3107.644.5301s.3055.4729.3799.7449c.0744.2719.0923.5564.0525.8356-.0462.3794-.1834.7418-.3998 1.0559-.2164.3142-.5054.5706-.8423.7473-.602.3005-1.2989.2481-1.7872-.1908-.1901-.1796-.3298-.4065-.4047-.6578s-.0825-.5181-.0219-.7734c.0237-.1097-.1185-.2146-.2371-.0906-1.1235 1.1735-1.2041 2.6953-.474 3.3775.8106.7537 2.0195.248 2.906-.3292.9426-.6213 1.7603-1.3684 2.5648-2.1034.5791-.5292 1.1514-1.0521 1.7586-1.5173.9671-.7347 2.0622-1.3882 3.2947-1.56.6776-.1019 1.37-.0196 2.0053.2385.8818.3578 1.4412 1.1068 1.5123 1.7556.0142.1908.1611.2146.2749.0477.2429-.3824.8561-1.3171 1.565-2.3977l.0014-.0022.0001-.0002.0003-.0005c1.3247-2.0192 2.9827-4.5464 3.1833-4.9316.0901-.186.1944-.2147.3935-.2147zm-36.3649 1.6506c.0332.1765.1043.2099.1849.1908.4422-.1211.8261-.399 1.0809-.7823.237-.3435.346-.8396.1137-1.04-.2086-.1765-.5451-.1288-.7964.0954-.2134.1895-.378.4282-.4796.6958-.1015.2675-.1371.5559-.1035.8403zm-19.7826 15.3083c-2.8917.0191-5.4422-1.7794-5.7361-4.8992-.1692-1.6224.2949-3.2475 1.2942-4.532.8628-1.1305 2.3229-2.0655 3.5555-2.2945.3982-.0764.9386-.0286 1.1614.2385.3508.4103.2513.8587-.0995 1.0399-.9434.4819-2.0764 1.3119-2.6358 2.4425-.2584.4805-.3813 1.0229-.3554 1.5686s.1996 1.0739.5023 1.5274c1.1615 1.7651 4.4041 1.8128 7.4143-1.0018.7491-.6917 1.4127-1.3548 2.0907-2.1371 1.3273-1.5266 1.7682-2.0847 3.5317-4.5462.019-.0287.0285-.0668.019-.0811-.0143-.0334-.038-.0382-.0901-.0477-1.1757.0381-2.2044.3911-3.1999 1.1401-.2845.2099-.7016.1813-.8818-.0954-.1991-.3149-.0569-.7251.275-.9541 1.4516-1.0199 3.0277-1.2803 4.6438-1.5473h.0003c.1677-.0277.3358-.0555.5042-.0842 0 0 .1232 0 .2275-.1288.3052-.3962.5792-.775.8514-1.1514.3833-.5299.7629-1.0547 1.2203-1.6154.7917-.9732 1.8109-1.87 2.5884-2.5427.9299-.8015 1.5736-1.1484 2.1811-1.4758.1048-.0565.2085-.1124.3124-.17.1896-.0954-.0237-.2146-.0806-.2146-.2906-.055-.5821-.1112-.8743-.1675l-.0006-.0001c-3.6865-.7106-7.4824-1.4422-11.1236-.0853-2.7211 1.0209-3.9157 3.1962-3.3421 4.6464.4077 1.0304 1.754 1.1926 3.015.5725 1.043-.5105 2.0148-1.3453 2.7022-2.4139.3792-.5963 1.1899-.1669.7537.8683-1.1519 2.7191-3.3468 4.8753-6.0205 4.966-2.2803.0763-3.7498-1.6124-3.7451-3.6923.0095-4.1026 4.551-6.8027 9.3153-7.2082 4.0197-.3337 7.8909.3202 11.8068.9817 1.6813.284 3.3709.5694 5.084.7786 4.3708.5296 8.5615.5439 12.9561-.477.5214-.1097.8817.2242.8533.7489-.0474.7633-.6353 1.498-2.0812 2.2899-1.6449.9111-3.3658 1.1878-5.1672 1.2021-2.9832.0262-5.8276-.7716-8.6762-1.5705h-.0001c-1.2979-.3641-2.5968-.7284-3.91-1.0151.0009.0346.0034.0704.0059.1065v.0001c.0112.1578.0227.3211-.1007.4182-2.3229 1.7173-4.423 3.4681-5.831 5.9248-.0474.0573-.019.1145.0616.105.3373-.0171.6648-.032.9863-.0467.8444-.0385 1.6469-.075 2.4744-.1441.1943-.0143.2038-.062.1896-.2099-.0616-.4536-.0136-.9155.1399-1.3465s.4079-.8184.7419-1.1294c.7585-.6821 1.7066-.7632 2.3371-.2671.7111.5581.6494 1.5695.2607 2.3232-.1752.3318-.4149.6248-.7048.8617-.2899.2368-.6241.4126-.9828.5169 0 0-.1328.0287-.1138.1479.0141.1139.3274.3316.5927.5159.1791.1244.3362.2336.3649.2855.0711.1241.0332.3101-.0948.4532-.0507.0621-.1144.1123-.1865.1469s-.1508.0529-.2307.0535c-.1424 0-.2314-.0493-.4094-.1479l-.0173-.0095c-.4519-.2431-.8541-.57-1.1851-.9637-.1138-.1383-.1707-.1431-.4409-.124-1.2325.0716-3.1572.2576-4.4562.4198-.3176.0382-.365.1002-.4266.2099l-.1382.2293c-2.0366 3.379-4.2108 6.9863-6.5935 9.4213-2.6073 2.6666-4.7785 3.3679-7.0825 3.387zm-23.83067-11.0007c0-9.2117 21.93477-16.73462 48.99897-16.73462 27.0594 0 48.999 7.52772 48.999 16.73462s-21.9349 16.7347-48.999 16.7347c-27.0642 0-48.99897-7.5278-48.99897-16.7347zm-1.78721 0c0 10.0799 22.73598 18.2517 50.78618 18.2517 28.0454 0 50.781-8.1718 50.781-18.2517 0-10.0847-22.7356-18.25162-50.781-18.25162-28.0502 0-50.78618 8.16692-50.78618 18.25162z" fill="#8b949e" fill-rule="evenodd"/></g></svg>