<svg fill="none" height="48" viewBox="0 0 125 48" width="125" xmlns="http://www.w3.org/2000/svg"><path clip-rule="evenodd" d="m11.6589 14.7261c-1.83824 0-3.32394-1.5032-3.32394-3.363 0-1.85991 1.4857-3.3631 3.32394-3.3631 1.8382 0 3.3239 1.50319 3.3239 3.3631v3.363zm45.7786-6.24221h5.3888v26.67511h-5.3888zm-17.4502 24.71311 1.5612-3.6688c1.6872 1.2739 3.9283 1.9363 6.1443 1.9363 1.6368 0 2.6692-.6369 2.6692-1.6051-.0097-1.0452-1.4792-1.3691-3.2814-1.7664-2.8544-.6292-6.5434-1.4424-6.5897-5.5966-.0252-3.4395 2.9966-6.0892 7.2774-6.0892 2.5433 0 5.0866.637 6.8997 2.0892l-1.4605 3.7452c-1.662-1.07-3.7268-1.8344-5.691-1.8344-1.3346 0-2.2159.637-2.2159 1.4523.0098 1.0344 1.5164 1.4436 3.3556 1.9432 2.8719.7802 6.5548 1.7806 6.6162 5.7255 0 3.516-2.9463 5.9873-7.1767 5.9873-3.0973 0-5.9428-.7389-8.1084-2.3185zm59.9055-4.9931c-.7807 1.3758-2.2412 2.3185-3.9283 2.3185-2.493 0-4.5075-2.0383-4.5075-4.5605 0-2.5223 2.0145-4.5606 4.5075-4.5606 1.6871 0 3.1476.9427 3.9283 2.3185l4.3062-2.4204c-1.612-2.9044-4.7091-4.8917-8.2345-4.8917-5.2126 0-9.443 4.2803-9.443 9.5542 0 5.2738 4.2304 9.5541 9.443 9.5541 3.5505 0 6.6225-1.9618 8.2345-4.8917zm6.4212-19.72001v26.67511h5.389v-8l6.396 8h6.9l-8.134-9.5031 7.53-8.8663h-6.598l-6.094 7.3631v-15.66881zm-31.6772 22.03801c1.8131 0 3.4247-.9682 4.2053-2.2675v-4.5096c-.7806-1.3248-2.3922-2.3439-4.2053-2.3439-2.4929 0-4.5074 2.0382-4.5074 4.5605s2.0145 4.5605 4.5074 4.5605zm4.2053-11.5669v-2.1656h5.3888v18.3439h-5.3888v-2.1656c-.8813 1.5032-3.0721 2.5478-5.3636 2.5478-4.7341 0-8.4609-4.2803-8.4609-9.5796 0-5.2994 3.7268-9.5287 8.4609-9.5287 2.2915 0 4.4823 1.0446 5.3636 2.5478zm-72.16982 9.2743c0 1.8598-1.4857 3.363-3.32393 3.363-1.83824 0-3.3239359-1.5032-3.3239359-3.363 0-1.8599 1.4856959-3.3631 3.3239359-3.3631h3.32393zm4.98662-3.3631c-1.83824 0-3.32394 1.5032-3.32394 3.3631v8.4076c0 1.8599 1.4857 3.3631 3.32394 3.3631 1.8382 0 3.3239-1.5032 3.3239-3.3631v-8.4076c0-1.8599-1.4857-3.3631-3.3239-3.3631zm3.324-5.0695c0-1.8599-1.4857-3.3631-3.324-3.3631h-8.33497c-1.83823 0-3.32393 1.5032-3.32393 3.3631 0 1.8598 1.4857 3.363 3.32393 3.363h8.33497c1.8383 0 3.324-1.5032 3.324-3.363zm9.9976 0c0-1.8599 1.4857-3.3631 3.3239-3.3631s3.3239 1.5032 3.3239 3.3631c0 1.8598-1.4857 3.363-3.3239 3.363h-3.3239zm-4.9866 3.3625c1.8382 0 3.3239-1.5032 3.3239-3.363v-8.4331c0-1.85991-1.4857-3.3631-3.3239-3.3631-1.8383 0-3.324 1.50319-3.324 3.3631v8.4331c0 1.8598 1.4857 3.363 3.324 3.363zm0 10.1147c1.8382 0 3.3239 1.5031 3.3239 3.363s-1.4857 3.3631-3.3239 3.3631c-1.8383 0-3.324-1.5032-3.324-3.3631v-3.363zm-3.324-5.0446c0 1.8598 1.4857 3.363 3.324 3.363h8.335c1.8382 0 3.3239-1.5032 3.3239-3.363 0-1.8599-1.4857-3.3631-3.3239-3.3631h-8.335c-1.8383 0-3.324 1.5032-3.324 3.3631z" fill="#8b949e" fill-rule="evenodd"/></svg>