<svg fill="none" height="48" viewBox="0 0 136 48" width="136" xmlns="http://www.w3.org/2000/svg"><path d="m20.3949 4c-11.26357 0-20.3949 8.9545-20.3949 20.0001 0 11.0462 9.13133 19.9999 20.3949 19.9999 11.2647 0 20.3951-8.9537 20.3951-19.9999 0-11.0449-9.1304-19.99914-20.3954-19.99914zm9.3529 28.8459c-.3653.5875-1.1495.7738-1.7486.4132-4.7885-2.8684-10.8166-3.518-17.9159-1.9274-.68407.1529-1.36598-.2675-1.52185-.9386-.1566-.6711.27033-1.3398.95614-1.4927 7.76901-1.7406 14.43301-.9911 19.80891 2.2307.5991.3606.7891 1.1273.4213 1.7148zm2.4963-5.4458c-.4603.7337-1.4393.9654-2.187.514-5.4821-3.3045-13.8387-4.2615-20.323-2.3313-.84095.2491-1.72914-.2156-1.98437-1.0389-.25329-.8246.22089-1.694 1.06038-1.9448 7.40679-2.2039 16.61489-1.1363 22.91039 2.6575.7477.4514.9839 1.4115.5236 2.1437zm.2143-5.6708c-6.5731-3.8287-17.418-4.1807-23.69384-2.3128-1.00777.2997-2.07351-.2582-2.37891-1.2465-.3054-.9887.26303-2.0331 1.27153-2.3336 7.20422-2.1447 19.18032-1.7303 26.74812 2.6754.9084.5276 1.2055 1.6756.6673 2.5634-.5358.8889-1.7096 1.1819-2.6132.6541zm23.0293.7337c-3.5216-.8235-4.1475-1.4014-4.1475-2.6159 0-1.1473 1.1008-1.9195 2.7398-1.9195 1.5879 0 3.1612.5863 4.8124 1.7934.0487.0365.112.0511.1729.0416.0633-.0091.1169-.0423.1535-.0922l1.7194-2.3769c.0706-.0979.0511-.2328-.0439-.3076-1.9654-1.5459-4.1767-2.2975-6.7631-2.2975-3.8017 0-6.4587 2.2376-6.4587 5.4391 0 3.4332 2.2917 4.6488 6.2517 5.5872 3.3681.7611 3.938 1.3988 3.938 2.5385 0 1.2634-1.1495 2.0492-3.0004 2.0492-2.0555 0-3.7335-.6807-5.6088-2.2713-.0462-.0406-.1095-.0573-.168-.0549-.0633.0047-.1193.0334-.1583.0788l-1.9288 2.2498c-.0804.0955-.0707.234.0219.3152 2.1821 1.9107 4.8659 2.9185 7.7641 2.9185 4.0963 0 6.7436-2.1948 6.7436-5.5934.0073-2.8676-1.7437-4.4558-6.0325-5.479zm15.309-3.4057c-1.7754 0-3.2318.6859-4.4349 2.0914v-1.582c0-.1249-.1023-.2266-.2289-.2266h-3.1539c-.1266 0-.2289.1017-.2289.2266v17.5782c0 .1241.1023.2268.2289.2268h3.1539c.1266 0 .2289-.1027.2289-.2268v-5.5481c1.2031 1.3208 2.6595 1.968 4.4349 1.968 3.3 0 6.6414-2.491 6.6414-7.253.0048-4.763-3.3365-7.2548-6.639-7.2548zm2.9736 7.2545c0 2.4238-1.5221 4.1171-3.7042 4.1171-2.1553 0-3.7822-1.7697-3.7822-4.1171 0-2.3477 1.6269-4.117 3.7822-4.117 2.1456-.0002 3.7042 1.7308 3.7042 4.1167zm12.2283-7.2545c-4.2499 0-7.5791 3.2089-7.5791 7.3063 0 4.0534 3.3073 7.2275 7.5279 7.2275 4.2644 0 7.6034-3.198 7.6034-7.2793 0-4.0676-3.3171-7.254-7.5522-7.254zm0 11.3955c-2.2601 0-3.9649-1.7816-3.9649-4.1422 0-2.3714 1.6463-4.0922 3.9137-4.0922 2.2747 0 3.9892 1.781 3.9892 4.144 0 2.3709-1.6561 4.0904-3.938 4.0904zm16.6264-11.1127h-3.4703v-3.4788c0-.1247-.1023-.2264-.229-.2264h-3.1538c-.1267 0-.2314.1017-.2314.2264v3.4788h-1.5148c-.1267 0-.229.1017-.229.2266v2.6575c0 .1246.1023.2266.229.2266h1.5148v6.8771c0 2.7776 1.4101 4.1867 4.1938 4.1867 1.1297 0 2.0677-.2292 2.9517-.7212.073-.0382.117-.1147.117-.1959v-2.5316c0-.0764-.042-.1504-.11-.191-.068-.043-.153-.0454-.224-.0096-.606.2985-1.193.4371-1.851.4371-1.0104 0-1.4633-.4514-1.4633-1.4593v-6.3911h3.4703c.127 0 .229-.1017.229-.2266v-2.6573c.005-.1249-.097-.2266-.226-.2266zm12.09.0136v-.4273c0-1.257.491-1.8175 1.592-1.8175.658 0 1.186.128 1.778.3215.073.0224.149.0112.207-.0315.061-.0428.095-.1113.095-.1839v-2.6057c0-.0996-.063-.1877-.163-.2171-.624-.1822-1.422-.3692-2.621-.3692-2.91 0-4.452 1.6083-4.452 4.6493v.6544h-1.514c-.127 0-.232.1017-.232.2264v2.6711c0 .1246.105.2266.232.2266h1.514v10.6053c0 .1266.105.2269.232.2269h3.151c.129 0 .232-.1003.232-.2269v-10.6046h2.944l4.51 10.6046c-.511 1.1129-1.015 1.335-1.702 1.335-.555 0-1.142-.1624-1.739-.4848-.056-.0286-.124-.0334-.182-.0167-.061.0215-.112.0645-.137.1218l-1.069 2.2999c-.051.1099-.007.2365.1.2938 1.115.5923 2.121.8455 3.366.8455 2.328 0 3.616-1.0652 4.749-3.9264l5.47-13.861c.029-.0697.019-.1486-.025-.2104-.041-.0614-.112-.0984-.187-.0984h-3.283c-.1 0-.188.0614-.219.1519l-3.364 9.418-3.682-9.4242c-.034-.0877-.119-.1457-.214-.1457h-5.387zm-7.01-.0136h-3.153c-.127 0-.232.1017-.232.2266v13.4894c0 .1266.105.2269.232.2269h3.153c.127 0 .232-.1003.232-.2269v-13.4884c0-.1249-.103-.2267-.232-.2267zm-1.558-6.1425c-1.25 0-2.263.9916-2.263 2.2166 0 1.2256 1.013 2.2185 2.263 2.2185 1.249 0 2.26-.9929 2.26-2.2185 0-1.2247-1.013-2.2166-2.26-2.2166zm27.622 10.4799c-1.247 0-2.219-.9828-2.219-2.1763 0-1.1934.984-2.1874 2.231-2.1874s2.219.9825 2.219 2.175c0 1.1935-.984 2.1887-2.231 2.1887zm.012-4.1473c-1.137 0-1.997.886-1.997 1.971 0 1.0846.855 1.9587 1.985 1.9587 1.138 0 1.997-.8854 1.997-1.9711 0-1.0845-.855-1.9586-1.985-1.9586zm.492 2.1824.629.8617h-.531l-.565-.7905h-.485v.7905h-.443v-2.2842h1.037c.543 0 .899.2716.899.7287.002.3745-.219.6033-.538.6938zm-.375-1.0306h-.577v.7225h.577c.288 0 .461-.1383.461-.3616 0-.235-.173-.3609-.461-.3609z" fill="#8b949e"/></svg>