<svg fill="none" height="138" viewBox="0 0 138 138" width="138" xmlns="http://www.w3.org/2000/svg"><g stroke="#fff"><path d="m135.755 84.3625.112-.4872-.487-.1122-36.0508-8.2964-.4877-.1123-.1118.4878c-3.1056 13.5504-15.2379 23.6578-29.7297 23.6578-16.8446 0-30.5-13.6553-30.5-30.5s13.6554-30.5 30.5-30.5h.5v-.5-37-.5h-.5c-12.8889 0-25.5163 3.63635-36.4311 10.4912-10.9149 6.8549-19.6744 16.6501-25.27188 28.2601-5.5975 11.61-7.805892 24.5636-6.371416 37.3724 1.434476 12.8089 6.453616 24.9533 14.480696 35.0373 8.027 10.084 18.7363 17.699 30.8971 21.97 12.1608 4.27 25.2798 5.023 37.8494 2.172s24.0802-9.191 33.2082-18.29c9.128-9.1 15.504-20.5899 18.394-33.1505z" fill="#ffea7f"/><path d="m69 .5h-.5v.5 37 .5h.5c16.8447 0 30.5 13.6553 30.5 30.5 0 2.353-.2664 4.6432-.7704 6.8422l-.1116.487.4869.112 36.0511 8.2965.487.1121.112-.4873c2.31-10.0387 2.327-20.4693.048-30.5152-2.279-10.046-6.794-19.4487-13.209-27.5083-6.416-8.0595-14.566-14.5683-23.8453-19.04202-9.279-4.47368-19.4475-6.79698-29.7487-6.79698z" fill="#f9c513"/></g></svg>