<svg width="138" height="138" viewBox="0 0 138 138" fill="none" xmlns="http://www.w3.org/2000/svg">
<path d="M134.659 88.5238L134.801 88.0446L134.322 87.9021L98.8645 77.3586L98.385 77.2161L98.2427 77.6956C94.4991 90.3043 82.8228 99.5 69 99.5C52.1553 99.5 38.5 85.8447 38.5 69C38.5 52.1553 52.1553 38.5 69 38.5H69.5V38L69.5 1V0.5H69C56.294 0.5 43.8384 4.03399 33.0256 10.7069C22.2128 17.3798 13.4691 26.9286 7.7719 38.2858C2.07472 49.6429 -0.351354 62.3609 0.764887 75.0178C1.88113 87.6747 6.49569 99.7717 14.0927 109.956C21.6897 120.141 31.9697 128.012 43.7835 132.69C55.5973 137.367 68.4792 138.667 80.9891 136.443C93.499 134.219 105.144 128.559 114.622 120.097C124.1 111.635 131.037 100.703 134.659 88.5238Z" fill="#FFEA7F" stroke="white"/>
<path d="M69 0.5H68.5L68.5 1L68.5 38L68.5 38.5H69C85.8447 38.5 99.5 52.1553 99.5 69C99.5 72.022 99.0606 74.9405 98.2426 77.6956L98.1004 78.1747L98.5795 78.3172L134.037 88.8606L134.516 89.0031L134.659 88.5238C137.698 78.3016 138.309 67.5109 136.443 57.0109C134.576 46.511 130.284 36.5919 123.907 28.0435C117.531 19.4951 109.247 12.5537 99.7143 7.77186C90.1818 2.99005 79.6646 0.5 69 0.5Z" fill="#F9C513" stroke="white"/>
</svg>
