<svg enable-background="new 0 0 136 300" viewBox="0 0 136 300" xmlns="http://www.w3.org/2000/svg"><path d="m21.2 292.2c0 2.4 1.5 3.9 4.1 3.9 2.5 0 4.1-1.5 4.1-3.9v-6.4h-1.3v6.3c0 1.8-1.1 2.9-2.8 2.9s-2.8-1-2.8-2.9v-6.3h-1.3zm11.5.7h-1.3c0 1.9 1.4 3.3 4 3.3 2.3 0 3.9-1.1 3.9-3s-1.5-2.5-2.6-2.8l-1.9-.4c-.7-.1-1.8-.4-1.8-1.6 0-1 .8-1.6 2.2-1.6s2.4.6 2.5 1.9h1.3c0-1.8-1.3-3-3.7-3-2.2 0-3.6 1.1-3.6 2.8 0 2.1 1.9 2.5 2.8 2.7l1.9.4c.5.1 1.6.4 1.6 1.7 0 1.1-.9 1.9-2.5 1.9-1.8-.1-2.7-.9-2.8-2.3z" fill="#707a84"/><path d="m88.4 296h4.6c2 0 3.2-1.1 3.2-2.8 0-1.1-.6-2.1-1.7-2.4v-.1c1-.4 1.5-1.2 1.5-2.3 0-1.5-1.1-2.6-3-2.6h-4.6zm1.3-5.8v-3.4h3.1c1.1 0 1.9.6 1.9 1.7 0 1-.7 1.7-1.9 1.7zm0 4.7v-3.6h3.2c1.2 0 2 .6 2 1.8 0 1.1-.6 1.8-2 1.8zm8.5 1.1h1.2v-10.3h-1.2zm9.9-7.3h-1.1l-.1 1.3h-.1c-.4-.9-1.3-1.5-2.5-1.5-1.9 0-3.2 1.5-3.2 3.8s1.3 3.8 3.1 3.8c1.2 0 2.2-.6 2.5-1.5h.1v1.4h1.2v-7.3zm-1.2 3.2v.9c0 1.3-1 2.3-2.3 2.3-1.2 0-2.2-.8-2.2-2.7s1.1-2.7 2.2-2.7c1.3-.1 2.3.9 2.3 2.2zm9.7 1.6h-1.2c-.1.9-.9 1.6-2 1.6-1.4 0-2.2-1-2.2-2.7 0-1.6.8-2.7 2.3-2.7.9 0 1.7.4 1.9 1.4h1.2c-.2-1.5-1.4-2.5-3.1-2.5-2.2 0-3.5 1.5-3.5 3.8s1.4 3.8 3.5 3.8c1.7-.1 3-1.1 3.1-2.7zm6.7 2.5h1.4l-3-4.5 2.8-2.9h-1.5l-3.4 3.5v-6.4h-1.2v10.3h1.2v-2.3l1.3-1.3z" fill="#707a84"/><path d="m0 144v131h60v-131z" fill="#eaeef2"/><path d="m76 89v186h60v-186z" fill="#aceebb"/><g fill="#24292f"><path d="m14.4 165.1c2 0 3.4-1.2 3.4-3 0-1-.5-2-1.7-2.4v-.1c1-.4 1.5-1.3 1.5-2.3 0-1.7-1.4-2.7-3.2-2.7-2 0-3.3 1.2-3.3 3.2h1.5c0-1.2.7-1.9 1.8-1.9 1 0 1.7.5 1.7 1.5 0 .9-.6 1.6-1.8 1.6h-.8v1.2h.8c1.2 0 1.9.7 1.9 1.7 0 1.1-.8 1.8-1.9 1.8s-1.9-.6-1.8-1.9h-1.5c.1 2.1 1.3 3.3 3.4 3.3zm8.4 0c2 0 3.4-1.2 3.4-3 0-1-.5-2-1.7-2.4v-.1c1-.4 1.5-1.3 1.5-2.3 0-1.7-1.4-2.7-3.2-2.7-2 0-3.3 1.2-3.3 3.2h1.5c0-1.2.7-1.9 1.8-1.9 1 0 1.7.5 1.7 1.5 0 .9-.6 1.6-1.8 1.6h-.7v1.2h.8c1.2 0 1.9.7 1.9 1.7 0 1.1-.8 1.8-1.9 1.8s-1.9-.6-1.8-1.9h-1.5c0 2.1 1.2 3.3 3.3 3.3zm5.2-.1h1.7v-1.9h-1.7zm3.2-7.2h2.6v7.2h1.4v-10.1h-1.2c-.2 1.1-1 1.8-2.4 1.8h-.3zm6.7-.6c0 1.5 1 2.6 2.5 2.6s2.5-1 2.5-2.5-1-2.5-2.5-2.5c-1.5-.1-2.5.9-2.5 2.4zm1.8 7.8h1l6.5-10.2h-1zm-.7-7.8c0-.9.6-1.6 1.4-1.6s1.4.6 1.4 1.6c0 .9-.6 1.6-1.4 1.6s-1.4-.7-1.4-1.6zm4.9 5.4c0 1.5 1 2.6 2.5 2.6s2.5-1.1 2.5-2.5-1-2.6-2.5-2.6c-1.5-.1-2.5 1-2.5 2.5zm1.1 0c0-.9.6-1.6 1.4-1.6s1.4.7 1.4 1.6-.6 1.6-1.4 1.6-1.4-.7-1.4-1.6z"/><path d="m92.6 106.6v-6.7h-2.1l-4.2 6.7v1.2h4.9v2.1h1.4v-2.1h1.2v-1.2zm-4.8 0 3.4-5.5v5.5zm7-3.6h1.2v-1.8h3.8c-1.8 2.6-3.3 6-3.8 8.8h1.6c.5-3 2.1-6.5 3.9-9.1v-1h-6.8v3.1zm8.2 7h1.7v-1.9h-1.7zm7-1.3c-.7 0-1.4 0-2 .1.3-1.1 1.6-1.9 2.8-2.7 1.2-.9 2.2-1.8 2.2-3.4 0-1.7-1.3-2.9-3.2-2.9-2 0-3.3 1.3-3.3 3.2h1.5c-.1-1.2.6-1.9 1.8-1.9 1 0 1.7.6 1.7 1.7s-.8 1.8-1.8 2.5c-1.6 1.1-3.3 2.2-3.3 4.4v.3h6.7v-1.3zm4.5-6.5c0 1.5 1 2.6 2.5 2.6s2.5-1 2.5-2.5-1-2.5-2.5-2.5c-1.5-.1-2.5.9-2.5 2.4zm1.8 7.8h1l6.5-10.2h-1zm-.7-7.8c0-.9.6-1.6 1.4-1.6s1.4.6 1.4 1.6c0 .9-.6 1.6-1.4 1.6-.9 0-1.4-.7-1.4-1.6zm4.9 5.4c0 1.5 1 2.6 2.5 2.6s2.5-1.1 2.5-2.5-1-2.6-2.5-2.6c-1.5-.1-2.5 1-2.5 2.5zm1.1 0c0-.9.6-1.6 1.4-1.6s1.4.7 1.4 1.6-.6 1.6-1.4 1.6c-.9 0-1.4-.7-1.4-1.6z"/></g></svg>