<svg width="90" height="76" fill="none" xmlns="http://www.w3.org/2000/svg"><path d="M40.95 70.333c18.137 0 32.841-14.846 32.841-33.16 0-18.313-14.704-33.158-32.842-33.158-18.138 0-32.842 14.845-32.842 33.159 0 18.313 14.704 33.159 32.842 33.159z" fill="#B6BEC6"/><path d="M39.009 10.755a.37.37 0 00.368-.371.37.37 0 00-.368-.372.37.37 0 00-.368.372.37.37 0 00.368.371zM42.79 11.251a.37.37 0 00.368-.371.37.37 0 00-.368-.372.37.37 0 00-.368.372.37.37 0 00.368.371zM47.747 17.992a.37.37 0 00.368-.372.37.37 0 00-.368-.372.37.37 0 00-.368.372.37.37 0 00.368.372zM20.552 52.688a.37.37 0 00.368-.372.37.37 0 00-.368-.372.37.37 0 00-.368.372.37.37 0 00.368.372zM21.509 55.662a.37.37 0 00.368-.372.37.37 0 00-.368-.372.37.37 0 00-.368.372.37.37 0 00.368.372zM16.944 53.04a.277.277 0 00.275-.278.277.277 0 00-.275-.278.277.277 0 00-.276.278c0 .154.123.278.276.278zM31.915 58.883a.278.278 0 00.277-.279.278.278 0 00-.277-.279.278.278 0 00-.276.28c0 .153.123.278.276.278zM55.399 53.957a.277.277 0 00.276-.278.277.277 0 00-.276-.278.277.277 0 00-.276.278c0 .154.123.278.276.278zM62.224 46.474a.278.278 0 00.276-.28.278.278 0 00-.276-.279.278.278 0 00-.277.28c0 .154.124.279.277.279zM28.774 20.073a.277.277 0 00.275-.279.277.277 0 00-.275-.278.277.277 0 00-.276.279c0 .153.123.278.276.278zM36.285 14.504a.277.277 0 00.276-.279.277.277 0 00-.276-.278.277.277 0 00-.275.278c0 .154.123.279.276.279zM35.47 13.958a.277.277 0 00.275-.278.277.277 0 00-.276-.278.277.277 0 00-.276.278c0 .154.124.278.276.278zM34.733 13.413a.277.277 0 00.276-.278.277.277 0 00-.276-.279.277.277 0 00-.276.279c0 .153.123.278.276.278zM29.951 21.511a.277.277 0 00.276-.278.277.277 0 00-.276-.279.277.277 0 00-.275.279c0 .154.123.278.276.278zM41.016 7.02a.277.277 0 00.276-.28.277.277 0 00-.276-.278.277.277 0 00-.276.279c0 .154.124.278.276.278zM42.832 15.049a.277.277 0 00.276-.279.277.277 0 00-.276-.278.277.277 0 00-.275.278c0 .154.123.279.275.279zM39.967 13.48a.277.277 0 00.276-.277.277.277 0 00-.276-.279.277.277 0 00-.276.279c0 .153.124.278.276.278zM35.057 15.613a.277.277 0 00.276-.278.277.277 0 00-.276-.279.277.277 0 00-.276.279c0 .153.124.278.276.278zM56.707 61.312a.277.277 0 00.276-.278.277.277 0 00-.276-.279.277.277 0 00-.275.279c0 .154.123.278.275.278zM20.085 54.479a.278.278 0 00.277-.28.278.278 0 00-.277-.279.278.278 0 00-.276.28c0 .154.123.279.276.279zM39.28 58.072a.278.278 0 00.277-.28.278.278 0 00-.276-.278.278.278 0 00-.277.279c0 .154.124.28.277.28zM25.798 54.256a.278.278 0 00.277-.28.278.278 0 00-.277-.279.278.278 0 00-.276.28c0 .154.123.279.276.279zM28.185 58.19a.278.278 0 00.276-.279.278.278 0 00-.276-.28.278.278 0 00-.277.28c0 .154.124.28.277.28zM45.76 55.711a.277.277 0 00.276-.278.277.277 0 00-.276-.279.277.277 0 00-.276.279c0 .154.124.278.276.278zM55.448 50.19a.277.277 0 00.275-.278.277.277 0 00-.275-.278.277.277 0 00-.276.278c0 .154.123.279.276.279zM62.793 53.579a.277.277 0 00.276-.278.277.277 0 00-.276-.279.277.277 0 00-.275.279c0 .153.123.278.275.278zM65.297 55.197a.277.277 0 00.276-.279.277.277 0 00-.276-.278.277.277 0 00-.275.278c0 .154.123.279.275.279zM65.71 50.785a.277.277 0 00.275-.278.277.277 0 00-.276-.279.277.277 0 00-.275.279c0 .154.123.278.275.278zM29.184 44.54a.277.277 0 00.276-.278.277.277 0 00-.276-.279.277.277 0 00-.276.279c0 .154.124.278.276.278zM29.29 51.027a.37.37 0 00.368-.372.37.37 0 00-.368-.371.37.37 0 00-.368.371.37.37 0 00.368.372zM31.499 55.736a.37.37 0 00.368-.372.37.37 0 00-.368-.372.37.37 0 00-.368.372.37.37 0 00.368.372zM57.958 50.83a.37.37 0 00.368-.373.37.37 0 00-.368-.371.37.37 0 00-.368.371.37.37 0 00.368.372zM67.481 50.284a.37.37 0 00.369-.372.37.37 0 00-.368-.372.37.37 0 00-.369.372.37.37 0 00.368.372zM62.77 48.252a.37.37 0 00.369-.372.37.37 0 00-.369-.372.37.37 0 00-.368.372.37.37 0 00.368.372zM57.958 48.45a.37.37 0 00.368-.372.37.37 0 00-.368-.372.37.37 0 00-.368.372.37.37 0 00.368.372zM48.034 10.15l.916-.088-.914-.051a.408.408 0 00-.349-.342l-.087-.92-.053.928a.407.407 0 00-.312.35l-.936.086.942.051c.035.16.162.284.323.314l.085.948.05-.946a.412.412 0 00.335-.33zM32.583 20.442l.916-.088-.914-.052a.407.407 0 00-.349-.341l-.087-.92-.052.927a.406.406 0 00-.313.35l-.936.086.942.051c.035.16.162.285.323.314l.085.949.05-.947a.41.41 0 00.335-.329zM66.81 47.652l.916-.089-.914-.052a.407.407 0 00-.348-.34l-.088-.921-.051.928a.407.407 0 00-.313.35l-.936.086.943.051c.034.16.162.284.322.314l.085.948.05-.946a.41.41 0 00.335-.33zM29.49 61.879l.915-.089-.914-.052a.408.408 0 00-.349-.34l-.087-.92-.052.927a.406.406 0 00-.313.35l-.936.086.942.051c.035.16.162.285.323.314l.085.948.05-.946a.41.41 0 00.335-.33zM63.903 54.94l.915-.089-.914-.052a.407.407 0 00-.348-.34l-.088-.921-.052.927a.407.407 0 00-.312.35l-.936.086.943.051c.034.16.162.284.322.314l.085.948.05-.946a.408.408 0 00.335-.328z" fill="#fff"/><path d="M48.737 29.231c-3.819 1.498-7.543 2.836-10.686 3.829-6.386 2.019-23.858 7.484-34.412 14.374l.883.347c6.431-3.668 10.611-4.82 14.63-6.097 4.368-1.387 18.493-4.725 24.889-6.542 2.16-.614 4.69-1.418 7.371-2.396a66.413 66.413 0 00-2.675-3.515zm4.665 6.492c-.924.63-1.7 1.134-2.242 1.45-3.141 1.835-18.459 12.392-21.943 14.82-3.485 2.43-13.157 11.649-16.004 14.325l-.098 1.09c9.18-8.327 12.06-10.38 15.709-13.184 4.516-3.47 13.86-9.888 17.034-11.945a552.006 552.006 0 008.23-5.429l-.12-.204a78.143 78.143 0 00-.566-.923zm14.35-15.302c-4.472 2.647-11.52 5.841-18.359 8.552a60.355 60.355 0 012.652 3.54c5.375-2 11.273-4.682 15.954-7.93-2.23 2.133-9.601 7.696-14.095 10.796.231.38.455.761.672 1.14 6.81-4.6 11.39-7.986 14.06-10.25 3.683-3.123 12.077-10.112 15.268-19.48-5.597 7.188-12.215 11.301-16.152 13.632z" fill="#E1E6ED"/><path d="M36.722 45.384c-.724-.92-1.725-2.152-2.477-3.108a57.735 57.735 0 01-2.789-3.859l-.833.21a58.683 58.683 0 003.418 4.824c.91 1.157 1.737 2.088 2.16 2.667.087.117.257.377.487.722l.802-.55a16.538 16.538 0 01-.768-.906zm5.286 4.844c-.595-.568-2.038-1.517-3.54-2.941-.33.23-.665.462-1 .697.969 1.38 2.29 3.074 3.324 3.568 1.558.745 1.977-.595 1.216-1.324zm7.873-20.643c-8.584-10.91-19.071-16.903-23.592-13.276-3.512 2.817-2.07 11.05 2.77 19.698l.744-.256c-4.886-8.426-6.223-16.256-2.91-18.914 4.162-3.339 14.211 2.678 22.547 13.27a62.799 62.799 0 014.527 6.539c4.919 8.22 6.428 15.653 3.03 18.687-1.04.928-4.218 1.293-8.381-.599-.058.074.035.273.108.321 3.594 1.46 7.036 2.015 8.773.622 4.176-3.351.968-15.183-7.616-26.092zM13.065 30.88h5.498l4.614 7.905v-6.171c0-.694-.871-1.598-1.178-1.735h3.805c-.234.062-.982.98-.982 1.735v9.07c0 .558.797 1.326 1.178 1.624h-5.302l-4.688-7.943v6.245c0 .62.601 1.214 1.227 1.722h-4.05c.577-.247 1.13-1.028 1.178-1.648.05-.62 0-8.612 0-8.959 0-.755-.724-1.375-1.3-1.846z" fill="#fff"/><path d="M63.36 43.308h7.314c-.405-.1-.86-.583-1.105-1.227-.245-.645-4.123-11.202-4.123-11.202h-2.781c-.79.573-1.634 1.178-2.537 1.815a.89.89 0 01-.009.069c-.12.743-2.297 8.702-2.43 9.095-.184.545-1.129 1.152-1.51 1.474h3.94c-.392-.446-.712-.88-.638-1.375.074-.496.295-1.487.295-1.487h4.074c.184.496.322.94.393 1.363.086.508-.43 1.078-.884 1.475zm-3.216-4.424l1.374-4.535 1.817 4.535h-3.191zm-.62-7.552c.203-.15.405-.302.608-.453h-1.068c.106.1.282.255.46.453zM31.547 41.957c.074-.496.295-1.487.295-1.487h4.075c.184.496.321.94.392 1.363.086.508-.43 1.078-.883 1.475h6.44l.4-.272a2.478 2.478 0 01-.63-.955 6174.11 6174.11 0 01-4.124-11.202H31.13c.307.285 1.19 1.053 1.056 1.884-.12.743-2.298 8.702-2.43 9.095-.184.545-1.13 1.152-1.51 1.474h3.94c-.393-.446-.712-.88-.639-1.375zm2.038-7.608l1.816 4.535h-3.19l1.374-4.535zM53.794 37.048a502.532 502.532 0 01-3.804 2.532c.6.294 1.076.662 1.122 1.138.085.894-1.694 1.326-3.301 1.14a3.937 3.937 0 01-.939-.236c-.334.217-.67.436-1.013.657-.348.226-.77.503-1.252.824v1.283c.32-.632 1.017-1.198 1.56-1.227.232-.012 1.042.743 4.38.558 1.62-.09 4.75-1.834 4.7-3.842-.029-1.186-.642-2.111-1.453-2.827zm-9.187 3.1v1.307c.295-.2.586-.395.872-.586a6.465 6.465 0 01-.872-.721zm8.046-3.92c-.311-.186-.626-.349-.928-.492-1.571-.744-3.216-.88-3.56-1.884-.242-.708.443-1.363 2.112-1.338 1.669.025 3.215 1.028 3.632 1.388v-3.197c-.122.124-.66.747-1.153.644a21.366 21.366 0 00-4.394-.446c-2.11.013-3.927 1.66-3.989 3.742-.085 2.912 2.222 3.705 3.523 4.164.134.047.287.097.453.15 1.248-.819 2.234-1.45 2.812-1.786a31.6 31.6 0 001.492-.945z" fill="#fff"/></svg>