<svg width="850" height="600" viewBox="0 0 850 600" fill="none" xmlns="http://www.w3.org/2000/svg">
<g clip-path="url(#clip0_3_1249)">
<path d="M293.62 397.01C357.431 397.01 409.16 386.61 409.16 373.78C409.16 360.951 357.431 350.55 293.62 350.55C229.809 350.55 178.08 360.951 178.08 373.78C178.08 386.61 229.809 397.01 293.62 397.01Z" fill="#1B1F25"/>
<path d="M532.26 388.83C569.208 388.83 599.16 383.014 599.16 375.84C599.16 368.666 569.208 362.85 532.26 362.85C495.312 362.85 465.36 368.666 465.36 375.84C465.36 383.014 495.312 388.83 532.26 388.83Z" fill="#1B1F25"/>
<path d="M738.84 400.51C783.619 400.51 819.92 393.808 819.92 385.54C819.92 377.272 783.619 370.57 738.84 370.57C694.061 370.57 657.76 377.272 657.76 385.54C657.76 393.808 694.061 400.51 738.84 400.51Z" fill="#1B1F25"/>
<path d="M121.34 422.68C145.64 422.68 165.34 418.857 165.34 414.14C165.34 409.424 145.64 405.6 121.34 405.6C97.0394 405.6 77.34 409.424 77.34 414.14C77.34 418.857 97.0394 422.68 121.34 422.68Z" fill="#1B1F25"/>
<path d="M158.22 396.38C156.45 400.56 165.87 405.38 168.91 404.48C170.64 397.15 165.32 396.09 163.31 395.43C161.3 394.77 158.22 396.38 158.22 396.38Z" fill="#1B8CFA"/>
<path d="M167.27 402.34C167.1 401.698 166.702 401.14 166.149 400.771C165.596 400.403 164.928 400.25 164.27 400.34C164.27 400.34 164.45 402.27 167.27 402.34Z" fill="#FFA875"/>
<path d="M167.54 403.64C166.77 404.8 166.6 405.94 167.84 406.09M168.26 402.94C169.53 402.24 170.42 403.04 171.26 405.03M165.09 403.18C162.85 404.79 162.68 407.44 163.34 408.46M162.49 401.29C159.49 401.56 157.65 404.95 157.85 407.17M160 398.79C157.33 398.79 155.11 401.49 154.85 403.66M168.78 401.7C170.32 400.57 175.06 400.41 175.33 404.21M168 399.14C168.48 396.89 172.34 396.14 172.26 398.5M163.84 397.06C164.1 394.89 166.41 394.06 167.15 395.68" stroke="#1B8CFA" stroke-width="1.25" stroke-miterlimit="10"/>
<path d="M168.78 401.7C168.882 401.158 168.81 400.597 168.572 400.099C168.335 399.601 167.945 399.192 167.46 398.93C167.46 398.93 166.78 400.16 168.78 401.7Z" fill="#FFA875"/>
<path d="M834.52 318.1L839.19 -91L261.2 -83.36L251.48 92.31L57.39 94.88L46.49 -22.01L-182 -18.99L-166.39 316.44L834.52 318.1Z" fill="#24282E"/>
<path d="M898.1 312.93H-322.93" stroke="#24282E" stroke-width="2.43" stroke-miterlimit="10" stroke-linecap="square"/>
<path d="M745.42 318.6C745.42 318.6 725.13 331.47 717.57 336.51C711.69 340.44 692.38 346.74 668.47 340.45" stroke="#218BFF" stroke-width="2.43" stroke-linecap="square" stroke-linejoin="round"/>
<path d="M655 45L698.67 44.2C698.67 44.2 702.67 108.09 700.29 107.28C697.91 106.47 659.29 104.45 659.29 104.45L655 45Z" fill="#30363D"/>
<path d="M665.28 97.17L662.23 52.09L693.35 51.47L694.58 99.19L665.28 97.17Z" fill="#24282E"/>
<path d="M196.43 319.8L198.94 319.48L200.24 250.2L197.47 249" fill="#575D66"/>
<path d="M82.77 251.27L85.41 321.61L96.28 321.88L93.08 251.88L82.77 251.27Z" fill="#6D7481"/>
<path d="M96.28 321.88L99.55 321.89L96.12 253.09L93.08 251.88" fill="#575D66"/>
<path d="M98.34 240.96L100.69 321.59L110.39 321.74L107.54 241.57L98.34 240.96Z" fill="#6D7481"/>
<path d="M98.99 263.36L109.06 264.62L108.25 252.08L98.54 251.68L98.99 263.36Z" fill="#575D66"/>
<path d="M110.39 321.74L113.3 321.14L110.24 242.78L107.54 241.57" fill="#575D66"/>
<path d="M109.71 299.55L188.14 301.18L187.83 307.85L109.61 305.82L109.71 299.55Z" fill="#6D7481"/>
<path d="M96.9299 301.01L191.55 301.21L191.3 307.88L96.9299 307.28V301.01Z" fill="#6D7481"/>
<path d="M188.46 248.4L189.35 319.32L196.79 319.52L197.88 249L188.46 248.4Z" fill="#6D7481"/>
<path d="M200.04 255.48L188.72 256.29L188.31 251.64H200.04V255.48ZM113.91 248.04L102.59 248.85L102.18 244.19H113.91V248.04Z" fill="#575D66"/>
<path d="M173.75 248.04L174.59 319.58L183.24 319.8L184.07 248.64L173.75 248.04Z" fill="#6D7481"/>
<path d="M183.24 319.8L186.16 319.74L187.1 249.86L184.07 248.64" fill="#575D66"/>
<path d="M185.28 257.22L173.96 255.92L173.55 251.27H185.28V257.22ZM188.72 233.04L188.92 251.27L201.05 252.24L202.87 231.62L188.72 233.04Z" fill="#575D66"/>
<path d="M71.05 227.37L191.35 229.44L209.54 226.16L83.1801 225.76L71.05 227.37Z" fill="#6D7481"/>
<path d="M191.55 226.56H206.51V236.47L190.13 235.5L191.55 226.56Z" fill="#575D66"/>
<path d="M77.92 234.29L79.13 254.91L188.92 251.27L188.72 233.04L77.92 234.29Z" fill="#6D7481"/>
<path d="M78.12 238.13L78.53 241.57L191.55 240.96L190.74 233.07L78.12 238.13Z" fill="#575D66"/>
<path d="M71.05 227.37L71.8501 237.08L191.95 235.87L191.55 226.56L71.05 227.37Z" fill="#6D7481"/>
<path d="M94.3 260.29L82.9801 259.16L82.5701 254.51H94.3V260.29ZM188.11 260.53L198.02 262.15L199.43 253.25L188.72 256.29L188.11 260.53Z" fill="#575D66"/>
<path d="M134.12 246.54H131.59V244.21H134.12C134.451 244.491 134.67 244.881 134.74 245.31C134.749 245.551 134.696 245.79 134.588 246.005C134.479 246.22 134.319 246.404 134.12 246.54Z" fill="#24282E"/>
<path d="M90.05 240.35L89.75 251.27L173.45 249.15L172.85 237.62" stroke="#575D66" stroke-width="1.21" stroke-miterlimit="10"/>
<path d="M129.49 248.8C131.335 248.8 132.83 247.305 132.83 245.46C132.83 243.615 131.335 242.12 129.49 242.12C127.645 242.12 126.15 243.615 126.15 245.46C126.15 247.305 127.645 248.8 129.49 248.8Z" fill="#444D56"/>
<path d="M132.8 245.84C132.895 245.013 132.673 244.181 132.18 243.51C132.173 243.625 132.156 243.738 132.13 243.85C132.035 244.208 131.857 244.539 131.611 244.815C131.364 245.092 131.055 245.306 130.71 245.44C130.441 245.515 130.18 245.615 129.93 245.74C129.657 245.942 129.42 246.189 129.23 246.47C128.864 246.952 128.368 247.32 127.8 247.53C127.501 247.567 127.199 247.567 126.9 247.53C127.316 248.037 127.871 248.41 128.498 248.604C129.124 248.797 129.793 248.802 130.422 248.617C131.051 248.433 131.612 248.067 132.035 247.566C132.458 247.065 132.724 246.451 132.8 245.8V245.84Z" fill="#575D66"/>
<path d="M134.7 245.32L132.41 245.69L132.2 246.53H134.12C134.77 246.25 134.7 245.32 134.7 245.32ZM89.24 225.76L121.59 225.8L120.44 204.81L120.38 203.56L87.22 205.94L89.24 225.76Z" fill="#575D66"/>
<path d="M132.91 192.64L171.13 198.46L160.81 208.37L120.38 203.56L132.91 192.64Z" fill="#444D56"/>
<path d="M132.91 192.64C130.08 201.09 175.57 212.64 171.13 198.46L132.91 192.64Z" fill="#6D7481"/>
<path d="M160.81 208.37L163.04 226.36L121.59 225.8L120.38 203.56L160.81 208.37Z" fill="#24282E"/>
<path d="M160.81 208.37L163.04 226.36L121.35 225.07" stroke="#444D56" stroke-width="1.21" stroke-miterlimit="10"/>
<path d="M160.128 214.94C160.128 215.32 160.678 215.58 161.278 215.54C161.878 215.5 162.038 215.43 162.008 215.05C161.978 214.67 161.508 213.9 160.898 213.94C160.781 213.953 160.668 213.99 160.565 214.048C160.463 214.106 160.373 214.184 160.302 214.277C160.23 214.371 160.177 214.477 160.148 214.591C160.118 214.705 160.111 214.824 160.128 214.94Z" fill="#30363D"/>
<path d="M171.63 227.06L144.94 226.6C144.94 226.6 145.58 215.29 157.83 214.84C170.08 214.39 171.63 227.06 171.63 227.06Z" fill="#6D7481"/>
<path d="M157.83 214.84C147.83 215.21 145.55 222.84 145.07 225.62C146.9 226.26 149.12 226.16 150.24 224.85C152.46 222.24 153.24 219.71 156.55 217.95C158.844 216.773 161.336 216.031 163.9 215.76C161.96 215.045 159.895 214.732 157.83 214.84Z" fill="#575D66"/>
<path d="M166.14 216.89C166.319 217.863 166.283 218.863 166.034 219.82C165.785 220.777 165.33 221.668 164.7 222.43C163.973 223.264 163.012 223.859 161.942 224.139C160.872 224.419 159.742 224.371 158.7 224C158.044 223.63 157.331 223.373 156.59 223.24C155.59 223.24 154.71 223.92 153.81 224.4C152.936 224.875 151.944 225.093 150.951 225.027C149.958 224.962 149.004 224.616 148.2 224.03C147.458 223.409 146.952 222.551 146.77 221.6C146.744 221.371 146.744 221.139 146.77 220.91C145.756 222.653 145.129 224.593 144.93 226.6L171.62 227.06C171.62 227.06 171.14 220.05 166.14 216.89Z" fill="#575D66"/>
<path d="M152.428 225.58C152.428 225.95 152.978 226.22 153.588 226.17C154.198 226.12 154.668 225.78 154.638 225.41C154.608 225.04 153.818 224.53 153.208 224.58C153.091 224.594 152.977 224.63 152.874 224.688C152.772 224.746 152.681 224.824 152.609 224.917C152.536 225.01 152.483 225.116 152.452 225.23C152.421 225.344 152.413 225.463 152.428 225.58ZM162.888 222.94C162.888 223.31 163.428 223.57 164.038 223.53C164.648 223.49 164.798 223.42 164.768 223.04C164.738 222.66 164.268 221.89 163.658 221.94C163.54 221.952 163.427 221.988 163.324 222.046C163.22 222.103 163.13 222.181 163.058 222.275C162.986 222.368 162.934 222.475 162.905 222.59C162.875 222.704 162.87 222.823 162.888 222.94ZM154.248 220.01C154.248 220.33 154.718 220.56 155.248 220.52C155.778 220.48 155.908 220.43 155.878 220.1C155.848 219.77 155.448 219.1 154.878 219.1C154.776 219.117 154.679 219.154 154.591 219.209C154.504 219.264 154.429 219.336 154.37 219.421C154.311 219.506 154.27 219.602 154.249 219.703C154.228 219.804 154.228 219.909 154.248 220.01ZM166.938 218.22C166.869 218.412 166.877 218.624 166.961 218.811C167.045 218.997 167.198 219.144 167.388 219.22C167.644 219.28 167.913 219.237 168.138 219.1C168.428 218.96 168.458 218.24 168.018 217.94C167.929 217.885 167.83 217.848 167.727 217.832C167.624 217.817 167.519 217.822 167.418 217.848C167.317 217.875 167.222 217.921 167.14 217.985C167.057 218.049 166.989 218.129 166.938 218.22ZM147.158 219.79C147.091 219.983 147.101 220.193 147.185 220.379C147.268 220.565 147.42 220.712 147.608 220.79C147.865 220.847 148.135 220.8 148.358 220.66C148.648 220.52 148.678 219.81 148.238 219.5C148.149 219.445 148.049 219.409 147.946 219.394C147.842 219.379 147.737 219.385 147.636 219.413C147.534 219.44 147.44 219.487 147.358 219.552C147.276 219.617 147.208 219.698 147.158 219.79ZM177.798 213.15C177.798 213.6 177.218 213.96 176.488 213.96C175.758 213.96 175.578 213.9 175.578 213.45C175.578 213 176.068 212.04 176.788 212.04C176.93 212.038 177.071 212.066 177.201 212.122C177.331 212.178 177.448 212.262 177.544 212.367C177.639 212.472 177.711 212.596 177.755 212.731C177.799 212.866 177.814 213.009 177.798 213.15Z" fill="#30363D"/>
<path d="M165.22 227L197.11 226.81C197.11 226.81 195.86 212.14 181.3 212.75C166.74 213.36 165.22 227 165.22 227Z" fill="#6D7481"/>
<path d="M197.11 226.82C197.11 226.82 196.81 219.15 191.49 215.41C191.94 216.21 192.59 216.96 193.06 217.76C193.631 218.752 193.945 219.871 193.973 221.015C194 222.159 193.742 223.292 193.22 224.31C192.17 226.31 190.43 226.04 188.16 226.21C184.895 226.313 181.628 226.247 178.37 226.01C176.624 226.091 174.892 226.353 173.2 226.79C171.492 227.224 169.687 227.055 168.09 226.31C167.19 225.79 166.78 224.31 166.09 223.75C165.704 224.806 165.425 225.898 165.26 227.01L197.11 226.82Z" fill="#575D66"/>
<path d="M187.908 225.03C187.908 225.48 187.328 225.84 186.598 225.84C185.868 225.84 185.288 225.48 185.288 225.03C185.288 224.58 186.178 223.92 186.898 223.92C187.04 223.918 187.181 223.946 187.311 224.002C187.441 224.058 187.558 224.142 187.654 224.247C187.749 224.352 187.821 224.476 187.865 224.611C187.909 224.746 187.923 224.889 187.908 225.03ZM175.278 222.86C175.278 223.3 174.688 223.66 173.958 223.66C173.228 223.66 173.048 223.61 173.048 223.16C173.048 222.71 173.538 221.74 174.268 221.74C174.408 221.746 174.545 221.78 174.672 221.84C174.799 221.9 174.913 221.985 175.007 222.089C175.101 222.193 175.173 222.315 175.22 222.447C175.266 222.58 175.286 222.72 175.278 222.86ZM185.248 218.59C185.248 218.98 184.728 219.3 184.098 219.3C183.468 219.3 183.298 219.25 183.298 218.86C183.298 218.47 183.728 217.62 184.358 217.62C184.48 217.624 184.601 217.652 184.713 217.703C184.824 217.754 184.924 217.827 185.007 217.917C185.09 218.008 185.154 218.114 185.195 218.229C185.237 218.345 185.255 218.467 185.248 218.59ZM170.028 217.66C170.088 217.769 170.127 217.889 170.14 218.013C170.153 218.138 170.141 218.263 170.105 218.383C170.068 218.502 170.008 218.613 169.928 218.709C169.848 218.804 169.749 218.883 169.638 218.94C169.491 218.988 169.335 219.007 169.181 218.995C169.026 218.983 168.876 218.941 168.738 218.87C168.378 218.73 168.278 217.87 168.738 217.48C168.834 217.406 168.944 217.351 169.061 217.32C169.178 217.289 169.301 217.281 169.421 217.298C169.541 217.315 169.657 217.356 169.761 217.418C169.865 217.48 169.956 217.562 170.028 217.66ZM193.638 217.68C193.738 217.91 193.749 218.169 193.667 218.406C193.586 218.643 193.418 218.84 193.198 218.96C192.899 219.053 192.576 219.024 192.298 218.88C191.938 218.74 191.848 217.88 192.298 217.49C192.396 217.409 192.51 217.35 192.633 217.316C192.755 217.282 192.884 217.273 193.009 217.291C193.135 217.309 193.256 217.353 193.364 217.42C193.473 217.487 193.566 217.575 193.638 217.68Z" fill="#30363D"/>
<path d="M125.13 214.65C125.084 214.767 125.013 214.872 124.924 214.96C124.834 215.048 124.727 215.116 124.61 215.16C124.488 215.177 124.364 215.168 124.245 215.136C124.127 215.103 124.016 215.047 123.92 214.97C123.67 214.82 123.72 214.22 124.09 213.97C123.34 213.52 122.2 213.89 121.19 213.82V215.35C121.291 215.418 121.375 215.509 121.436 215.614C121.496 215.72 121.532 215.838 121.54 215.96C121.539 216.042 121.518 216.123 121.477 216.194C121.437 216.266 121.38 216.326 121.31 216.37L121.74 224.27L129.63 224.42C129.63 224.42 129.9 218.33 125.13 214.65ZM125.34 223.03C125.123 222.982 124.933 222.85 124.813 222.662C124.693 222.475 124.652 222.247 124.7 222.03C124.77 221.68 125.28 221.48 125.84 221.58C126.4 221.68 126.84 222.04 126.76 222.39C126.68 222.74 125.91 223.13 125.34 223V223.03Z" fill="#575D66"/>
<path d="M125.478 221.51C124.918 221.41 124.408 221.61 124.338 221.96C124.29 222.177 124.331 222.405 124.451 222.592C124.571 222.78 124.76 222.912 124.978 222.96C125.548 223.06 126.338 222.66 126.398 222.31C126.458 221.96 126.048 221.61 125.478 221.51ZM121.178 215.87C121.17 215.748 121.134 215.63 121.073 215.524C121.013 215.419 120.929 215.328 120.828 215.26L120.948 216.26C121.015 216.218 121.07 216.161 121.111 216.093C121.151 216.025 121.174 215.949 121.178 215.87ZM124.778 214.16C124.734 214.072 124.674 213.994 124.6 213.93C124.526 213.866 124.44 213.817 124.347 213.786C124.254 213.755 124.155 213.743 124.058 213.751C123.96 213.759 123.865 213.785 123.778 213.83L123.718 213.88C124.063 214.099 124.397 214.336 124.718 214.59C124.757 214.526 124.783 214.455 124.793 214.381C124.803 214.307 124.798 214.232 124.778 214.16Z" fill="#30363D"/>
<path d="M123.558 214.94C123.654 215.017 123.765 215.073 123.883 215.106C124.002 215.138 124.126 215.147 124.248 215.13C124.365 215.086 124.472 215.018 124.562 214.93C124.651 214.842 124.721 214.736 124.768 214.62C124.447 214.366 124.113 214.129 123.768 213.91C123.358 214.16 123.308 214.76 123.558 214.94Z" fill="#30363D"/>
<path d="M173.05 102.12L169.01 102.04L167.43 91.24L172.63 90.47L173.05 102.12ZM226.02 100.91L222.07 100.95L221.88 90.03L227.14 89.95L226.02 100.91Z" fill="#575D66"/>
<path d="M249.88 92.0099L147.98 93.22V84.33H250.28L249.88 92.0099Z" fill="#6D7481"/>
<path d="M188 79.7799C189.82 79.7799 197.4 84.3299 197.4 84.3299L215.9 42.7799L205.59 37.9299L188 79.7799Z" fill="#24282E"/>
<path d="M212.88 20.03L216.21 84.63L228.34 84.94L227.13 21.85L212.88 20.03Z" fill="#24282E"/>
<path d="M228.34 35.5L241.08 34.29L241.69 84.33L229.56 84.94L228.34 35.5Z" fill="#24282E"/>
<path d="M168.51 63.57C169.64 52.37 182.27 19.76 191.91 24.64C201.55 29.52 176.06 61.46 172.72 63.16C169.38 64.86 168.51 63.57 168.51 63.57Z" fill="#24282E"/>
<path d="M169.6 62.5501C165.46 51.6101 151.1 26.8101 144.6 34.1701C138.1 41.5301 159.28 58.9701 165.05 62.8501C170.82 66.7301 169.6 62.5501 169.6 62.5501Z" fill="#24282E"/>
<path d="M169.1 63.8C169.1 62.19 172.96 24.27 172.96 24.27C175.85 25.27 175.53 19.45 172.96 19.13C170.39 18.81 168.78 22.99 170.39 23.63L169.1 43.23C162.68 42.23 162.03 33.91 163.96 31.02C165.89 31.66 166.53 27.48 163.96 26.84C161.39 26.2 159.78 29.84 161.71 30.54C160.43 36 160.81 43.63 168.2 44.92L167.82 64.12L169.1 63.8Z" fill="#24282E"/>
<path d="M145.07 64.11C153.68 59.47 181.84 58.11 188.8 62.11C189.46 74.7 181.8 83.98 168.59 83.98C156.33 84 146.4 79 145.07 64.11Z" fill="#24282E"/>
<path d="M145.07 64.11C153.68 59.47 181.84 58.11 188.8 62.11C189.46 74.7 181.8 83.98 168.59 83.98C156.33 84 146.4 79 145.07 64.11Z" fill="#24282E"/>
<path d="M179.52 71.67C176.38 73.92 172.63 75.74 168.78 75.33C166.07 75.04 163.56 73.67 160.85 73.39C158.14 73.11 153.43 75.1 150.7 77.86C155.03 82.28 161.41 83.99 168.59 83.99C180.87 83.99 188.31 75.99 188.81 64.85C185.45 66.71 182.65 69.43 179.52 71.67Z" fill="#444D56"/>
<path d="M171.83 62.19C172.19 61.73 186.98 32.83 186.98 32.83M179.3 49.0099L182.12 48.21M180.87 43.88L179.32 38.45M183.86 39.3699L189.64 37.36" stroke="#0D1116" stroke-width="1.21" stroke-miterlimit="10"/>
<path d="M190.152 31.3586C190.231 30.2513 189.433 29.2922 188.37 29.2164C187.306 29.1405 186.381 29.9767 186.302 31.084C186.223 32.1912 187.02 33.1503 188.084 33.2262C189.147 33.302 190.073 32.4659 190.152 31.3586Z" stroke="#0D1116" stroke-width="1.21" stroke-miterlimit="10"/>
<path d="M165.58 61.89C165.58 61.41 150.08 40.3 150.08 40.3" stroke="#0D1116" stroke-width="1.21" stroke-miterlimit="10"/>
<path d="M149.4 40.9299C150.289 40.9299 151.01 40.2091 151.01 39.32C151.01 38.4308 150.289 37.71 149.4 37.71C148.511 37.71 147.79 38.4308 147.79 39.32C147.79 40.2091 148.511 40.9299 149.4 40.9299Z" stroke="#0D1116" stroke-width="1.21" stroke-miterlimit="10"/>
<path d="M154.56 46.1L154.42 41.76M157.59 50.93L153.58 49.79M161.59 55.93L161.45 50.63" stroke="#0D1116" stroke-width="1.21" stroke-miterlimit="10"/>
<path d="M250.28 84.33L249.88 92.0099H239.97V84.53L250.28 84.33Z" fill="#575D66"/>
<path d="M676.616 312.224C678.029 309.635 674.235 304.84 668.141 301.514C662.048 298.187 655.962 297.589 654.549 300.178C653.136 302.766 656.93 307.561 663.024 310.888C669.117 314.214 675.202 314.812 676.616 312.224Z" stroke="#218BFF" stroke-width="2.43" stroke-linecap="square" stroke-linejoin="round"/>
<path d="M420.42 252.04L439.02 251.23L441.45 283.18L421.23 284.39L420.42 252.04Z" fill="#0D1116"/>
<path d="M427.75 264.63H432.3C435.03 262.35 434.12 256.74 430.02 257.2C425.92 257.66 425 261.44 427.75 264.63ZM432.61 277.42L428.07 277.31C425.39 274.97 426.43 269.38 430.51 269.93C434.59 270.48 435.42 274.3 432.61 277.42Z" fill="#30363D"/>
<path d="M428.61 259.616L429.616 259.536L429.853 262.557L428.846 262.637L428.61 259.616ZM428.299 272.38L429.306 272.302L429.543 275.322L428.536 275.402L428.299 272.38ZM431.22 259.539L432.229 259.584L432.094 262.611L431.085 262.566L431.22 259.539ZM431.124 272.302L432.134 272.347L431.999 275.374L430.989 275.329L431.124 272.302Z" fill="#24282E"/>
<path d="M192.49 406C191.23 412.56 207.93 417.19 212.04 415.74C214.54 413.01 213.73 406.39 208.04 404.48C202.35 402.57 193.93 403.36 192.49 406Z" fill="#1B8CFA"/>
<path d="M196.77 410.29C192.85 407.09 187.77 409.44 187.86 415.94M201.36 412.55C195.52 411.66 191.97 414.49 191.9 421.76M206.65 413.62C200.65 415.3 198.29 419.09 200.01 424.81M211.32 412C214.46 406.77 220.39 405.34 219.42 411.68M208.91 409C210.35 403 214.26 401.24 213.56 405.81M204.26 405.46C205.08 400.13 206.05 397.16 204.43 399.25C202.81 401.34 201.9 405.62 201.9 405.62" stroke="#1B8CFA" stroke-width="1.03" stroke-miterlimit="10"/>
<path d="M209.27 414.16C209.13 413.22 208.653 412.364 207.928 411.749C207.203 411.135 206.28 410.805 205.33 410.82C205.33 410.82 205.25 413.55 209.27 414.16ZM211.54 413.52C211.785 412.766 211.784 411.953 211.536 411.199C211.288 410.446 210.806 409.791 210.16 409.33C210.16 409.33 209 411 211.54 413.52Z" fill="#FFA875"/>
<path d="M210.49 414.85C209.04 416.71 210.72 419.31 211.99 419.5M211.9 414.16C214.15 413.86 215.9 415.94 215.44 417.3" stroke="#1B8CFA" stroke-width="1.03" stroke-miterlimit="10"/>
<path d="M720.86 14.27L758.47 20.34L755.44 68.86L719.04 67.65L720.86 14.27Z" fill="#30363D"/>
<path d="M726.12 23.17L724.5 61.9901L747.95 61.18L752 24.79L726.12 23.17Z" fill="#24282E"/>
<path d="M735.594 152.531C746.506 151.734 754.547 140.072 753.554 126.483C752.56 112.894 742.91 102.525 731.998 103.323C721.086 104.12 713.046 115.782 714.039 129.371C715.032 142.96 724.683 153.329 735.594 152.531Z" fill="#30363D"/>
<path d="M749.318 128.871C750.001 118.167 743.584 109.046 734.986 108.497C726.388 107.949 718.864 116.181 718.181 126.885C717.498 137.588 723.915 146.71 732.513 147.259C741.111 147.807 748.635 139.575 749.318 128.871Z" fill="#24282E"/>
<path d="M666.88 290.44L690.4 306.15M659.64 314.32C670.64 319.52 681.26 323.24 693.31 325M610 289.43C601.68 287.13 592.29 274.32 597.65 260.78C603.01 247.24 622.2 253.51 622.2 253.51M686.24 240.92L675.93 228.22C675.93 228.22 676.72 222.66 687.43 221.08C694.096 220.238 700.844 221.782 706.48 225.44" stroke="#218BFF" stroke-width="2.43" stroke-linecap="square" stroke-linejoin="round"/>
<path d="M436.318 162.34C442.525 162.34 447.558 155.996 447.558 148.17C447.558 140.344 442.525 134 436.318 134C430.11 134 425.078 140.344 425.078 148.17C425.078 155.996 430.11 162.34 436.318 162.34Z" fill="#30363D"/>
<path d="M415.518 169.77C416.518 171.34 427.838 175.6 433.708 173.11C439.578 170.62 433.878 162.54 433.878 162.54L415.518 169.77Z" fill="#30363D"/>
<path d="M429.44 122.65C424.03 122.65 416.96 126.83 413.59 137.97C413.865 137.84 414.166 137.772 414.47 137.77C417.19 137.77 419.39 143.29 419.39 150.09C419.39 156.89 417.19 162.41 414.47 162.41C413.962 162.356 413.474 162.179 413.049 161.895C412.624 161.612 412.275 161.229 412.03 160.78C412.33 163.97 412.8 167.38 413.49 171.05L426 167.94L436.63 168.28C436.63 168.28 438.82 122.65 429.44 122.65Z" fill="#FEDD6A"/>
<path d="M414.47 162.41C417.19 162.41 419.39 156.89 419.39 150.09C419.39 143.29 417.19 137.77 414.47 137.77C414.166 137.772 413.865 137.84 413.59 137.97C411.87 143.65 411.11 151.13 412.03 160.78C412.275 161.229 412.624 161.612 413.049 161.895C413.474 162.179 413.962 162.356 414.47 162.41Z" fill="#24282E"/>
<path d="M411.87 147.31C411.753 148.681 411.68 150.055 411.65 151.43L412.75 148.67L411.87 147.31ZM418.42 157.43C419.098 155.043 419.435 152.572 419.42 150.09C419.42 145.2 418.28 140.97 416.63 138.99L412.78 148.67L418.42 157.43Z" fill="#24282E"/>
<path d="M411.65 151.43C411.602 154.551 411.729 157.673 412.03 160.78C412.275 161.229 412.624 161.612 413.049 161.895C413.474 162.179 413.962 162.356 414.47 162.41C416.09 162.41 417.53 160.41 418.42 157.41L412.75 148.65L411.65 151.43Z" fill="#B8C1C9"/>
<path d="M414.47 137.77C414.166 137.772 413.865 137.84 413.59 137.97C412.695 141.015 412.118 144.146 411.87 147.31L412.75 148.67L416.6 139C416.359 138.649 416.043 138.356 415.674 138.143C415.306 137.931 414.894 137.803 414.47 137.77Z" fill="#B8C1C9"/>
<path d="M537.53 367.76C543.75 367.76 544.79 366.76 555.16 363.61C555.16 363.61 563.46 348.06 563.46 336.61H511.6C511.6 348.02 519.9 363.61 519.9 363.61C530.27 366.73 531.31 367.76 537.53 367.76Z" fill="#6A737D"/>
<path d="M480.48 86.69C493.82 82.16 549.14 69.19 594.57 86.69L572.68 98.94L498.07 98.13L480.48 86.69Z" fill="#FEDD6A"/>
<path d="M498.07 101.16L480.48 89.73C493.82 85.19 549.14 72.22 594.57 89.73" fill="#FFD051"/>
<path d="M635.528 162.34C641.736 162.34 646.768 155.996 646.768 148.17C646.768 140.344 641.736 134 635.528 134C629.32 134 624.288 140.344 624.288 148.17C624.288 155.996 629.32 162.34 635.528 162.34Z" fill="#30363D"/>
<path d="M537.53 209.39C537.88 208.51 598.42 274.16 598.72 273.39C617.39 255.75 634 202.85 634 179V124C634 111.55 594.59 86.66 594.59 86.66C573.85 86.66 547.46 89.2 538.12 89.2C528.78 89.2 501.25 86.66 480.5 86.66C480.5 86.66 441.09 111.55 441.09 124V179C441.09 202.85 457.69 255.75 476.36 273.38C476.66 274.16 537.2 208.51 537.55 209.38" fill="#FFDF5D"/>
<path d="M656.318 169.77C655.318 171.34 644.008 175.6 638.138 173.11C632.268 170.62 637.968 162.54 637.968 162.54L656.318 169.77Z" fill="#30363D"/>
<path d="M643.13 122.65C648.54 122.65 655.61 126.83 658.98 137.97C658.704 137.841 658.404 137.773 658.1 137.77C655.38 137.77 653.17 143.29 653.17 150.09C653.17 156.89 655.38 162.41 658.1 162.41C658.608 162.356 659.096 162.179 659.521 161.895C659.946 161.612 660.295 161.229 660.54 160.78C660.24 163.97 659.76 167.38 659.07 171.05L646.57 167.94L635.93 168.28C635.93 168.28 633.75 122.65 643.13 122.65Z" fill="#FEDD6A"/>
<path d="M658.1 162.41C655.38 162.41 653.17 156.89 653.17 150.09C653.17 143.29 655.38 137.77 658.1 137.77C658.404 137.773 658.704 137.841 658.98 137.97C660.7 143.65 661.45 151.13 660.54 160.78C660.295 161.229 659.946 161.612 659.521 161.895C659.096 162.179 658.608 162.356 658.1 162.41Z" fill="#24282E"/>
<path d="M660.69 147.31C660.81 148.62 660.88 149.99 660.91 151.43L659.81 148.67L660.69 147.31ZM654.14 157.43C653.462 155.043 653.125 152.572 653.14 150.09C653.14 145.2 654.28 140.97 655.93 138.99L659.78 148.67L654.14 157.43Z" fill="#24282E"/>
<path d="M660.91 151.43C660.967 154.551 660.843 157.673 660.54 160.78C660.296 161.229 659.946 161.612 659.521 161.895C659.096 162.179 658.608 162.356 658.1 162.41C656.48 162.41 655.04 160.41 654.1 157.41L659.77 148.65L660.91 151.43ZM658.1 137.77C658.404 137.773 658.704 137.841 658.98 137.97C659.872 141.016 660.445 144.146 660.69 147.31L659.81 148.67L656 139C656.238 138.653 656.55 138.363 656.913 138.151C657.276 137.938 657.681 137.808 658.1 137.77Z" fill="#B8C1C9"/>
<path d="M537.53 201.61L599.17 254.5L597.74 275.87C592.02 290.13 580.05 315.87 580.05 315.87C570.72 328.31 547.9 334.53 537.53 334.53C527.16 334.53 504.34 328.31 495 315.87C495 315.87 483 290.09 477.31 275.87L475.89 254.5L537.53 201.61Z" fill="#FFA875"/>
<path d="M584.24 281.21C578.24 280.81 572.6 278.29 566.71 277.21C560.35 276.08 552.79 277.09 549.19 282.45C546.93 285.81 546.75 290.12 545.19 293.87C541.99 301.81 532.09 306.31 524 303.51C521.47 302.63 519.05 301.14 516.38 301.15C510.79 301.15 507.46 307.42 502.46 309.9C500.873 310.623 499.157 311.016 497.414 311.055C495.671 311.095 493.938 310.78 492.32 310.13L494.96 315.87C504.3 328.31 527.12 334.53 537.49 334.53C547.86 334.53 570.68 328.31 580.01 315.87C580.01 315.87 590.86 292.49 596.84 277.95C592.7 279.42 589.19 281.54 584.24 281.21Z" fill="#FFA875"/>
<path d="M537.53 344.27C546.06 344.27 555.67 344.27 563.14 339.09C563.14 339.09 580.21 327.68 581.28 314.19C573.81 322.49 537.53 326.64 537.53 326.64C537.53 326.64 501.25 322.49 493.78 314.19C494.85 327.68 511.92 339.09 511.92 339.09C519.39 344.27 528.99 344.27 537.53 344.27Z" fill="#FFCFAF"/>
<path d="M537.91 122.76L537.98 218.41" stroke="#FFD051" stroke-width="1.21" stroke-miterlimit="10"/>
<path d="M537.89 104.72L537.91 122.76" stroke="#FEDD6A" stroke-width="1.21" stroke-miterlimit="10"/>
<path d="M537.53 346C546.06 346 555.67 346 563.14 340.82C563.14 340.82 580.21 329.41 581.28 315.93C573.81 324.22 537.53 328.37 537.53 328.37C537.53 328.37 501.25 324.22 493.78 315.93C494.85 329.41 511.92 340.82 511.92 340.82C519.39 346 529 346 537.53 346Z" fill="#FFA875"/>
<path d="M578.93 320.51C573.22 324.23 568.53 330.1 561.84 331.36C554.49 332.75 542.22 340.06 525.84 337.12C521.504 336.224 517.244 334.99 513.1 333.43C510.1 332.43 506.32 332.43 503.85 334C506.34 336.498 509.044 338.773 511.93 340.8C519.39 346 529 346 537.53 346C546.06 346 555.67 346 563.14 340.82C563.14 340.82 577.24 331.39 580.61 319.54C580 319.84 579.47 320.16 578.93 320.51Z" fill="#FFA875"/>
<path d="M537.53 218.41C551.01 222.56 575.9 251.6 598.72 273.41C598.72 273.41 608.66 263.1 618.43 243.33C598.72 224.67 545.83 183.18 537.53 182.14C529.23 183.14 476.34 224.67 456.63 243.33C469.16 267.95 476.34 273.41 476.34 273.41C499.15 251.63 524.05 222.59 537.53 218.41Z" fill="white"/>
<path d="M676.4 242.38C676.4 242.38 671.16 235.76 673.15 233.38C673.786 232.703 674.592 232.209 675.484 231.951C676.376 231.692 677.321 231.678 678.22 231.91M700.92 222.27C700.92 222.27 708.46 215.13 731.47 220.27C757.68 226.15 776.47 251.42 772.85 276.02C769.23 300.62 757.57 318.74 721.05 327.57" stroke="#218BFF" stroke-width="2.43" stroke-linecap="square" stroke-linejoin="round"/>
<path d="M755.5 312.14C755.5 312.14 780.31 332.38 781.5 348.44C782.76 365.44 767.42 376.96 737.18 372.91" stroke="#218BFF" stroke-width="2.43" stroke-linecap="square" stroke-linejoin="round"/>
<path d="M737.43 300.14C737.43 300.14 744 290.58 754.92 288.7C756.839 288.371 758.793 288.301 760.73 288.49" stroke="#218BFF" stroke-width="2.43" stroke-linejoin="round"/>
<path d="M656.99 318.41L653.57 323.1L663.57 329.19L662.43 339.26L661.8 351.53L664.29 349.61L669.32 340.84L669.21 326.62L656.99 318.41Z" fill="#6A737D"/>
<path d="M655.348 318.15L651.928 322.84L660.798 330.11L662.068 339.2L658.518 349L661.438 351.47L667.678 340.58L666.258 326.1L655.348 318.15Z" fill="#30363D"/>
<path d="M643.44 319.11L636.55 331.32V341.76L639.21 351.26L642.01 350.91L645.54 347.94L641.46 340.76L641.18 332.59L649.45 321.39L643.44 319.11Z" fill="#6A737D"/>
<path d="M656.69 319.72L651.03 322.35L657.34 333.51L653.75 342.84L647.9 350.36L649.7 355.55L654.57 353.54L659.56 345.36L662.69 332.62L656.69 319.72Z" fill="#444D56"/>
<path d="M641.518 318.79L634.628 331L634.638 341.44L638.848 351.2L643.628 347.61L639.538 340.44L638.568 332.15L645.788 321.2L641.518 318.79Z" fill="#30363D"/>
<path d="M652.66 319.38L647 322.01L653.31 333.17L651.31 343.19L647.34 352.16L649.7 355.55L655.53 345.02L658.66 332.28L652.66 319.38ZM633.09 321.28L631.67 311.7L636.94 311.77C636.701 315.546 637.059 319.336 638 323C636.323 322.549 634.682 321.974 633.09 321.28Z" fill="#6D7481"/>
<path d="M668.098 319.12C663.248 320.5 657.398 322.61 653.098 323.33C654.098 319.25 653.498 315.63 652.588 311.91L667.708 312.1L668.098 319.12Z" fill="#30363D"/>
<path d="M638 323C637.205 319.309 636.996 315.516 637.38 311.76L653.38 312.62C654.14 316.38 654.61 319.39 653.45 323.42C648.323 324.299 643.072 324.157 638 323Z" fill="#444D56"/>
<path d="M652.13 320.66C644.063 320.817 636.142 318.492 629.44 314C629.95 308.86 630.82 303.64 631.27 298.27C641.33 301.27 651.71 302.73 661.68 301.73C665.357 304.644 669.48 306.947 673.89 308.55C673.056 310.485 672.108 312.368 671.05 314.19C669.9 316.12 663.27 320.3 652.13 320.66Z" fill="#6A737D"/>
<path d="M621.29 295C623.43 295.74 628.75 297.88 631.39 298.58C630.9 302.73 630.25 309.82 629.7 314.15C628.667 313.504 627.8 312.623 627.17 311.58C625.57 309.16 622.35 301.14 621.29 295Z" fill="#586069"/>
<path d="M677.41 297.8C684.75 270.43 673.99 243.7 670.9 238.36C662.44 232.77 638.7 229.73 628.55 239.24C620.55 253.24 616.83 275.57 621.29 295.03C636.82 301.52 659.55 306 677.41 297.8Z" fill="#FFF5B1"/>
<path d="M636.68 234.75C633.666 235.614 630.887 237.149 628.55 239.24C620.55 253.24 616.83 275.57 621.29 295.03C632.47 299.7 647.39 303.35 661.53 301.96C656.53 297.96 644.82 287.84 651.67 273.31C664.05 247 667.87 226.74 636.68 234.75Z" fill="#FFDF5D"/>
<path d="M628.55 239.24C620.55 253.24 616.83 275.57 621.29 295.03C624.393 296.324 627.561 297.459 630.78 298.43C632.28 282.06 630.47 256.15 628.55 239.24Z" fill="#F9C513"/>
<path d="M673.398 308.46C669.154 306.787 665.144 304.572 661.468 301.87C666.758 301.57 675.198 298.87 677.048 297.74C676.087 301.396 674.868 304.978 673.398 308.46Z" fill="#30363D"/>
<path d="M740.89 302C740.89 302 748.45 297.38 756.95 298.85" stroke="#218BFF" stroke-width="2.43" stroke-linejoin="round"/>
<path d="M746.39 292C750.666 289.316 755.7 288.098 760.73 288.53M748 299.27C750.943 298.532 754.005 298.399 757 298.88" stroke="#218BFF" stroke-width="2.43" stroke-linecap="round" stroke-linejoin="round"/>
<path d="M611.79 282.82C611.79 282.82 607.38 296.36 614.31 296.05C621.24 295.74 625.31 281.88 624.38 271.17C624.02 267.09 620.92 259.83 618.08 256.05M624.33 271.71C624.33 280.84 606.96 292.15 612.07 295.29M744.78 326.15C744.78 326.15 742.16 337.82 741.18 341.63M748.1 323.24C750.1 326.43 754.16 337.78 749.37 346.88M700 363.78C700 363.78 701.14 380.13 716.5 383.34" stroke="#218BFF" stroke-width="2.43" stroke-linecap="square" stroke-linejoin="round"/>
<path d="M758.77 315C763.35 319 770.77 324.29 777.54 323.91C784.31 323.53 791.84 322.59 793.4 315.96C795.9 305.31 792.4 292.84 807.52 283.46C816.09 278.13 827.59 280.02 830.38 283.34" stroke="#218BFF" stroke-width="2.43" stroke-miterlimit="10"/>
<path d="M806.41 314.12C804.421 314.089 802.492 313.433 800.897 312.245C799.301 311.057 798.12 309.397 797.52 307.5C796.41 303.69 799.46 298.58 802.81 296.5M816.93 316.31C815.93 325.02 813.04 329.67 806.44 335.45C803.029 338.376 798.941 340.404 794.547 341.351C790.154 342.297 785.593 342.132 781.28 340.87C779.62 340.36 777.66 338.99 778.28 337.36" stroke="#218BFF" stroke-width="2.43" stroke-miterlimit="10"/>
<path d="M825 337.8C821.4 341.14 826.06 348.19 831.51 346.48C832.774 346.133 833.916 345.441 834.81 344.482C835.703 343.523 836.313 342.335 836.57 341.05L830.38 334.77L825 337.8ZM827.29 319.71C828.26 319.315 829.302 319.124 830.349 319.149C831.396 319.174 832.427 319.415 833.378 319.856C834.328 320.297 835.177 320.929 835.873 321.712C836.568 322.496 837.095 323.414 837.42 324.41C842.13 323.69 845.42 328.41 840.68 331.65C835.94 334.89 833.08 328.75 834.53 327.3C833.44 324.41 831.27 322.96 828.74 323.3" fill="#77BAFC"/>
<path d="M826.79 314.28L828.24 318.62C829.211 318.227 830.252 318.037 831.298 318.063C832.345 318.088 833.376 318.329 834.326 318.77C835.276 319.211 836.125 319.842 836.821 320.625C837.516 321.408 838.044 322.325 838.37 323.32C843.08 322.6 846.37 327.32 841.63 330.56C836.89 333.8 834.03 327.67 835.48 326.22C834.39 323.32 832.22 321.88 829.69 322.22L832.22 334.88C835.84 333.8 839.81 341.36 834.03 343.57C826.43 346.46 825.03 338.14 827.88 336.33L821.73 316.07" fill="#C8E2FD"/>
<path d="M822.72 319C824.13 319 827.92 317.42 827.92 317.42L827.11 315.25L821.73 316.11L822.72 319Z" fill="#77BAFC"/>
<path d="M819.92 316.81L824.98 337.8L827.88 336.35L821.73 316.09L819.92 316.81Z" fill="#77BAFC"/>
<path d="M820 317.17C820.09 317.63 820.81 320.61 820.81 320.61L822.71 318.98L822.08 316.98L820 317.17Z" fill="#1B8CFA"/>
<path d="M802.19 261.46L798.19 266.16C796.45 271.16 800.91 280.99 809.19 277.56L810.09 275.56L803.22 270.31L802.19 261.46Z" fill="#77BAFC"/>
<path d="M803.73 273.49L801.2 276.92L803.91 278.46L805.63 274.48L803.73 273.49Z" fill="#1B8CFA"/>
<path d="M806.71 274.57L804.9 278.55L806.08 278.37L807.53 275.11L806.71 274.57ZM812.14 259.28L810.83 261.64L813.81 268.01L817.75 266.93L813.95 259.19L812.14 259.28Z" fill="#77BAFC"/>
<path d="M813.77 288.59L821.77 287.87L816.7 273.76C825.7 271.59 819.96 258.92 813.81 257.11L812.18 259.28L816.88 266.7L806.57 270.5L805.49 261.27L803.14 261.09C796.8 263.09 800.6 278.82 810.19 275.57L813.77 288.59Z" fill="#C8E2FD"/>
<path d="M817.75 287.96L814.04 275.11" stroke="#77BAFC" stroke-width="1.26" stroke-miterlimit="10"/>
<path d="M809.25 277.56L812.46 288.64L813.77 288.59L810.15 275.57L809.25 277.56Z" fill="#77BAFC"/>
<path d="M830.38 283.36C838.38 293.27 844.28 307.15 831.03 313.3C824.74 316.22 818.15 316.72 811.12 316.17C798.21 315.17 799.03 289.93 812.46 288.64C816.46 288.26 820.92 288.55 824 286.18" stroke="#218BFF" stroke-width="2.43" stroke-miterlimit="10"/>
<path d="M833.42 340.133C833.801 338.956 833.271 337.73 832.236 337.394C831.201 337.059 830.053 337.741 829.672 338.918C829.29 340.094 829.82 341.32 830.855 341.656C831.89 341.991 833.038 341.309 833.42 340.133Z" fill="#77BAFC"/>
<path d="M840.396 329.053C841.267 328.609 841.564 327.447 841.059 326.458C840.554 325.469 839.439 325.028 838.569 325.472C837.698 325.917 837.401 327.079 837.906 328.067C838.411 329.056 839.526 329.497 840.396 329.053Z" fill="#77BAFC"/>
<path d="M823.27 321.15L821.64 324.05L822 325.13L823.72 322.15L823.27 321.15ZM827.61 342.77L825.35 344.67C825.989 345.293 826.721 345.813 827.52 346.21L829.06 343.86L827.61 342.77ZM827.25 342.23L824.62 343.86L824.17 343.22L827.07 341.78L827.25 342.23ZM832.94 338.07L830.05 340.96C829.794 340.586 829.639 340.152 829.6 339.7C829.87 339.42 832.21 337.37 832.21 337.37L832.94 338.07ZM840 325.68L837.65 327.68C837.91 328.03 838.28 328.68 838.28 328.68L840.81 326.15L840 325.68ZM833.4 338.7L830.32 341.32L830.83 341.63L833.49 339.15L833.4 338.7ZM841.05 326.42L838.73 328.84L839.19 329.11L841.27 326.94L841.05 326.42Z" fill="#1B8CFA"/>
<path d="M815.22 264.35L813.41 266.88L813.81 268.01L816.85 266.7L815.22 264.35Z" fill="#77BAFC"/>
<path d="M814.67 263.17L813.14 266.16L812.95 265.53L814.31 262.72L814.67 263.17Z" fill="#1B8CFA"/>
<path d="M825.62 317.54L830.37 334.77M827 321.06C829.17 319.98 833.51 318.89 836 322.96" stroke="#77BAFC" stroke-width="1.26" stroke-miterlimit="10"/>
<path d="M337.83 198.56L391.76 140.53" stroke="#218BFF" stroke-width="2.43" stroke-linecap="square" stroke-linejoin="round"/>
<path d="M437.919 124.449C444.051 123.638 448.178 116.594 447.137 108.715C446.095 100.836 440.28 95.1062 434.148 95.9168C428.015 96.7274 423.888 103.772 424.93 111.65C425.971 119.529 431.787 125.259 437.919 124.449Z" fill="#B8C1C9"/>
<path d="M416.51 132.24C417.6 133.81 429.21 137.93 434.9 135.32C440.59 132.71 434.35 124.63 434.35 124.63L416.51 132.24Z" fill="#B8C1C9"/>
<path d="M427.46 84.34C422.05 84.34 415.19 88.57 412.4 99.85C412.671 99.7171 412.968 99.6454 413.27 99.64C415.99 99.64 418.49 105.22 418.84 112.1C419.19 118.98 417.28 124.56 414.56 124.56C414.04 124.502 413.541 124.323 413.101 124.039C412.662 123.754 412.295 123.371 412.03 122.92C412.5 126.14 413.15 129.59 414.03 133.3L426.38 130.15L437.03 130.5C437.03 130.5 436.84 84.34 427.46 84.34Z" fill="#CED5DA"/>
<path d="M414.56 124.56C417.28 124.56 419.2 118.98 418.84 112.1C418.48 105.22 415.99 99.64 413.27 99.64C412.968 99.6454 412.671 99.7171 412.4 99.85C410.98 105.59 410.62 113.15 412.03 122.92C412.295 123.371 412.662 123.754 413.101 124.039C413.54 124.323 414.04 124.502 414.56 124.56Z" fill="#24282E"/>
<path d="M411.17 109.29C411.13 110.623 411.13 112.013 411.17 113.46L412.17 110.66L411.17 109.29Z" fill="#24282E"/>
<path d="M418.25 119.53C418.802 117.095 419.001 114.592 418.84 112.1C418.59 107.1 417.23 102.88 415.47 100.87L412.13 110.66L418.25 119.53Z" fill="#24282E"/>
<path d="M411.17 113.46C411.282 116.627 411.569 119.785 412.03 122.92C412.295 123.371 412.662 123.754 413.101 124.039C413.54 124.323 414.04 124.502 414.56 124.56C416.18 124.56 417.56 122.56 418.25 119.56L412.13 110.69L411.17 113.46ZM413.27 99.64C412.968 99.6454 412.671 99.7171 412.4 99.85C411.669 102.946 411.256 106.11 411.17 109.29L412.17 110.66L415.51 100.87C415.25 100.513 414.915 100.217 414.527 100.005C414.14 99.792 413.711 99.6675 413.27 99.64Z" fill="#B8C1C9"/>
<path d="M387.09 170.76C386.86 163.83 395.09 153.05 408.2 153.36M234.6 355.25C254.42 345.34 268.81 357.67 268.81 357.67" stroke="#218BFF" stroke-width="2.43" stroke-linecap="square" stroke-linejoin="round"/>
<path d="M321.44 354.57C321.44 354.57 321.57 378.26 320.74 382.57C323.62 389.89 335.55 387.04 333.82 380.76C333.82 374.76 331.06 353.39 331.06 353.39L321.44 354.57Z" fill="#444D56"/>
<path d="M341.038 341.32C341.038 341.32 340.948 359.7 340.948 362.83C342.168 366.73 349.258 365.83 348.948 362.07C349.088 358.43 347.378 341.27 347.378 341.27L341.038 341.32Z" fill="#30363D"/>
<path d="M366.71 350C366.71 350 365.42 373.07 365.42 377.66C366.94 382.44 377.59 380.94 377.94 375.66C377.63 371.2 375.71 349.34 375.61 348.51L366.71 350Z" fill="#444D56"/>
<path d="M321.078 354.51C321.078 354.51 321.978 366.65 320.848 376.09C329.848 365.45 331.708 370.97 333.218 376.09C332.328 367 330.698 353.31 330.698 353.31L321.078 354.51ZM366.348 349.94C366.348 349.94 365.638 363.94 365.228 372.19C370.138 365.47 374.228 365.11 376.888 367.19C376.178 359.01 375.318 349.1 375.248 348.54L366.348 349.94Z" fill="#30363D"/>
<path d="M300.64 342.12C300.64 342.12 299.86 359.85 299.86 362.99C301.21 367.92 311.42 367.23 310.08 361.99C309.67 358.44 306.95 341.99 306.95 341.99L300.64 342.12Z" fill="#444D56"/>
<path d="M316.9 347.91L292 324.88L336.09 324.4L386.71 335.35L383.99 348.55L317.8 359.41L316.9 347.91Z" fill="#444D56"/>
<path d="M300.278 342.06C300.278 342.06 300.008 346.6 299.888 351.34C303.645 354.395 306.955 357.963 309.718 361.94C309.308 358.39 306.588 341.94 306.588 341.94L300.278 342.06Z" fill="#30363D"/>
<path d="M291.638 324.82L292.828 336.09L317.438 359.35L316.538 347.85L291.638 324.82Z" fill="#30363D"/>
<path d="M292 324.88L336.09 324.4L386.71 335.35L316.9 347.91L292 324.88Z" fill="#6D7481"/>
<path d="M260.66 374.55C260.66 374.55 254.77 370.93 245.39 371.16C239.656 371.365 234.164 373.521 229.82 377.27" stroke="#218BFF" stroke-width="2.43" stroke-linecap="square" stroke-linejoin="round"/>
<path d="M354 324.92C358.45 319.44 368.23 316.76 371.26 317.34C374.29 317.92 372.17 321.54 368.96 324.22C368.96 324.22 315.69 335.31 305.24 324.51C294.79 313.71 319.77 283.03 327.24 268.32C330.02 262.8 319.53 238.47 311.24 235.07C311.7 238.56 307.3 267.99 297.45 289.31C287.6 310.63 266.88 345.57 266.22 355.2C270.6 355.56 281.66 374.2 250.59 378.04C219.52 381.88 212.2 366.64 212.2 366.64C214.2 355.96 241.11 326.77 253.9 309.94C265.27 294.94 291.68 253.94 300.9 236.84" stroke="#218BFF" stroke-width="2.43" stroke-linecap="square" stroke-linejoin="round"/>
<path d="M441.05 145.19C452.53 140.65 482.05 122.04 500.69 100.28C507.38 92.47 439.41 43.03 432.04 40.91C420.038 47.0308 409.606 55.8312 401.55 66.63C409.55 87.78 431.88 141.97 441.15 145.63" fill="#FEEB93"/>
<mask id="mask0_3_1249" style="mask-type:luminance" maskUnits="userSpaceOnUse" x="387" y="34" width="135" height="126">
<path d="M521.93 66.32C521.93 66.32 474 6.65998 418.25 49.64C362.5 92.62 400.73 159.76 400.73 159.76C400.73 159.76 445.88 148.15 476.18 124.76C506.48 101.37 521.93 66.29 521.93 66.29" fill="white"/>
</mask>
<g mask="url(#mask0_3_1249)">
<path d="M523.35 57.07C523.35 57.07 506.35 49.85 505.75 65.56C505.15 81.27 493 101.76 478.2 112.21C439.51 139.49 418.69 117.43 397.73 129.78C381.23 139.5 393.96 164.45 393.96 164.45C393.96 164.45 434.02 165.33 478.46 132.33C503.52 113.73 533.98 69.21 533.98 69.21L523.35 57.07Z" fill="#F9C513"/>
<path d="M521.2 65.3899C521.2 65.3899 505.75 100.49 475.45 123.85C445.15 147.21 400 158.85 400 158.85" stroke="#E3A92E" stroke-width="1.36" stroke-miterlimit="10"/>
<path d="M399.15 61.2999C400.96 65.2999 403.29 70.4799 405.99 76.2999C392.62 77.9799 386.32 73.7399 386.32 73.7399L399.15 61.2999ZM452.47 25.5599C457.032 25.9678 461.555 26.7267 466 27.8299C465.35 34.6699 462.27 45.1799 451 55.3699C441.11 47.0799 432.42 40.0299 427.17 35.8099L452.47 25.5599Z" fill="#FFF5B1"/>
<path d="M421.86 31.5699C421.86 31.5699 511.26 102.26 513.61 117.89C515.96 133.52 536.87 65.0599 536.87 65.0599C536.87 65.0599 464.53 6.42993 421.87 31.5699M396.12 54.2999C396.12 54.2999 441.74 158.74 456.26 165C470.78 171.26 399.26 174.05 399.26 174.05C399.26 174.05 361 89.1699 396.12 54.2999Z" fill="#FFDF5D"/>
<path d="M397.73 129.78C408 123.78 418.25 125.94 430.58 126.56C434.19 133.36 437.74 139.73 441.05 145.19C452.85 139.86 465.44 133.06 476.18 124.79C485.88 117.31 494.44 109.07 500.69 100.28C498.812 98.3381 496.909 96.4213 494.98 94.5299C501.25 85.1599 505.41 74.5299 505.75 65.5299C506.35 49.8199 523.35 57.0399 523.35 57.0399L534 69.2099C534 69.2099 503.54 113.73 478.48 132.33C434.04 165.33 393.98 164.45 393.98 164.45C393.98 164.45 381.23 139.5 397.73 129.78Z" fill="#F2B549"/>
<path d="M492.94 69.3999C502.41 78.3999 474.06 107.93 462.63 116.74C451.2 125.55 422.63 143.61 411.31 126.34C403.52 114.42 439 98.6699 445.54 91.9999C456.93 80.2499 477.85 55.1099 492.94 69.4399" fill="#F2B549"/>
<path d="M489.8 69C498.59 77.25 471.3 105.37 460.36 113.81C449.42 122.25 422.09 139.63 411.72 123.67C404.57 112.67 438.39 97.31 444.64 90.92C455.64 79.73 475.79 55.85 489.8 69Z" fill="#005CC5"/>
<path d="M465.71 20.2C465.71 20.2 471.71 46.0899 436.92 65.2599C402.13 84.4299 386.32 73.78 386.32 73.78L424.07 37.06L465.71 20.2Z" fill="#FDFAD2"/>
<path d="M413.38 125.73C420.19 121.18 424.88 118.81 427.38 119.21C429.88 119.61 431.57 126.21 435.24 124.64C441.24 122.12 427.99 112.7 433.14 109.49C437.59 106.72 441.14 117.16 445.06 113.74C449.44 109.96 437.8 99.3799 442.21 96.4599C446.21 93.7999 449.21 100.32 452.77 99.6899C454.97 99.2999 462.44 92.2699 465.89 89.9899C469.34 87.7099 472.89 94.9899 475.69 92.6199C479.69 89.2199 466.01 79.2799 469.85 75.3099C473.69 71.3399 478.45 78.7499 480.66 78.3999C482.87 78.0499 487.98 72.0499 490.15 69.7899" stroke="#F1F8FF" stroke-width="1.21" stroke-miterlimit="10"/>
</g>
<path d="M406.05 76.34C405.05 74.34 402.48 68.34 401.77 66.34C399.452 69.5719 397.376 72.9712 395.56 76.51C399.041 77.0458 402.586 76.9951 406.05 76.36M464.73 34.25C454.81 32.95 440.01 36.25 430.42 41.75C435.91 44 447.36 51.22 450.92 55.34C456.75 51.73 464.7 37.61 464.73 34.25Z" fill="#FFF5B1"/>
<path d="M364.28 317.22C364.28 317.22 356.17 300.78 330.87 304.51" stroke="#218BFF" stroke-width="2.43" stroke-linecap="square" stroke-linejoin="round"/>
<path d="M320.87 229.15C334.16 234.05 351.57 246.2 363.14 268.23C371.96 285.03 350.55 305.91 350.55 305.91" stroke="#218BFF" stroke-width="2.43" stroke-linejoin="round"/>
<path d="M316.74 230.24C316.74 230.24 381.43 213.83 415.48 188.17C449.53 162.51 450.48 146.75 447.8 140.17C450.43 134.86 457.05 126.47 447.59 125.17C438.13 123.87 335.46 222.61 313.29 223.66" stroke="#2185F2" stroke-width="2.43" stroke-linejoin="round"/>
<path d="M336.63 210.72C336.63 210.72 337.2 204.32 341.85 200.13C344.17 198.03 351.42 194.49 353.95 196.52M364.05 189.34C364.23 185.75 370.19 175.03 380.17 176.68M214.65 169.67C214.65 169.67 203.85 163.72 201.31 158.45C206.24 143.8 221.87 139.22 221.87 139.22" stroke="#218BFF" stroke-width="2.43" stroke-linecap="square" stroke-linejoin="round"/>
<path d="M216.58 154.9C216.58 154.9 208.8 154.43 206.1 158.19M223 138.83C227.43 130.53 241.28 109.05 274.17 103.92C314.45 97.6501 345.17 132.17 345.79 162.8C346.53 197.48 327.48 214.11 310.91 226.02C303 231.71 283.37 242.86 261.3 238.02C244.91 234.43 247.3 219.52 247.3 219.52C247.3 219.52 232.11 204.29 225 196.08C205.21 173.3 223 138.83 223 138.83Z" stroke="#218BFF" stroke-width="2.43" stroke-linecap="square" stroke-linejoin="round"/>
<path d="M267.23 224.617C270.062 224.249 272.222 222.911 272.055 221.629C271.888 220.348 269.457 219.608 266.626 219.977C263.795 220.345 261.635 221.683 261.801 222.965C261.968 224.246 264.399 224.986 267.23 224.617Z" stroke="#218BFF" stroke-width="2.43" stroke-linecap="square" stroke-linejoin="round"/>
<path d="M223.92 192.52C223.92 192.52 234.45 197.52 240.27 194.64C246.09 191.76 265.73 160.72 285.17 164.75C294.89 166.75 302.56 173.09 304.17 181.47C305.78 189.85 303.59 196.8 309.82 200.1C313.08 201.83 324.39 200.77 325.35 212.3M266.2 144.7C264.35 140.7 274.26 118.94 292.76 118.11C307.51 117.44 312.35 141.17 312.83 150.51" stroke="#218BFF" stroke-width="2.43" stroke-linecap="square" stroke-linejoin="round"/>
<path d="M271.92 141.39C271.92 141.39 277.04 132.45 285.72 133.39C296.07 134.51 305.65 143.54 305.65 143.54" stroke="#218BFF" stroke-width="2.43" stroke-linecap="square" stroke-linejoin="round"/>
<path d="M296.28 234.51C278.82 260.03 244.78 301.29 235.64 310.68C226.5 320.07 210.64 334.56 209.7 341.9" stroke="#218BFF" stroke-width="2.43" stroke-linecap="round" stroke-linejoin="round"/>
<path d="M212.1 366.64C212.1 366.64 173.77 371.19 174.83 364.58C175.89 357.97 185.59 361.58 185.59 361.58C188.615 363.694 191.829 365.525 195.19 367.05" stroke="#218BFF" stroke-width="2.43" stroke-linecap="square" stroke-linejoin="round"/>
<path d="M215 340.06C205.2 343.13 190.65 352.55 185.55 361.61M324.29 192.93C331.84 181.13 344.29 173.7 351.22 172.86M329.11 199.55C333.35 195.46 342.34 191.64 349.91 193.21" stroke="#218BFF" stroke-width="2.43" stroke-linejoin="round"/>
<path d="M339.62 177.69C343.96 174.91 348.13 173.24 351.22 172.86M342.43 193.19C344.902 192.725 347.438 192.725 349.91 193.19M246.11 223.73C240.57 222.8 234.18 223.11 230.01 224.96M250.09 231.85C244.69 231.75 238.77 235.14 236.44 237.3" stroke="#218BFF" stroke-width="2.43" stroke-linecap="round" stroke-linejoin="round"/>
<path d="M674.35 410.39L673.08 415.72L670.41 417.27L672.46 412.25L674.35 410.39ZM657.82 415.22L663.62 413.03L664.42 408.7L656.16 411.82L657.82 415.22ZM611.47 393.1L611.23 396.46C614.23 397.71 619.44 398.41 621 397.77L622.42 393.52L613.84 392.79L611.47 393.1ZM606.51 392.22L606.25 397.27L608.16 398.8L609.38 394.51L606.51 392.22Z" fill="#1B8CFA"/>
<path d="M611.47 393.1L611.23 396.46L608.16 398.8L609.38 394.51L611.47 393.1ZM622.42 393.52L621 397.77L648.62 414.4L649.65 409.88L622.42 393.52ZM632.69 386.43L631.77 390.12L628.27 391.18L626.92 388.41L629.1 386.37L632.69 386.43Z" fill="#77BAFC"/>
<path d="M628.92 388.68L628.57 392.86L625.66 392.47L625.87 389.33L628.92 388.68Z" fill="#006AD2"/>
<path d="M649.16 410.59L648.1 416.59C648.6 422.37 657.31 425.26 662.1 422.31L663.33 416.31M664.42 408.7L663.62 413.03L670.66 417.37L672.4 412.31L664.42 408.7Z" fill="#77BAFC"/>
<path d="M611.47 393.1C614.19 394.95 622.42 393.52 622.42 393.52C622.99 394.02 649.65 409.88 649.65 409.88C646.86 413.32 653.98 420.21 663.38 416.39L656.16 411.82L664.07 409.71L672.4 412.31C678.2 410.13 669.25 401.09 657.21 405.61L626.74 391.35C627.125 391.285 627.491 391.135 627.811 390.91C628.13 390.686 628.396 390.393 628.587 390.052C628.779 389.712 628.892 389.333 628.919 388.943C628.945 388.554 628.884 388.163 628.74 387.8L632.74 386.43L630.06 384.43L625.82 385.98C622.72 383.86 617.92 383.39 614.99 384.69C612.06 385.99 609.55 387.38 609.81 390.17L606.56 392.27L609.43 394.57L611.47 393.1Z" fill="#C8E2FD"/>
<path d="M616.93 387.91C618.503 387.335 620.21 387.234 621.84 387.62C622.66 387.83 623.84 389.62 621.46 390.43C619.08 391.24 616.56 391.43 615.66 390.28C614.76 389.13 616.15 388.23 616.93 387.91ZM615.55 394.24L614.49 397.43C615.035 397.557 615.591 397.631 616.15 397.65L617.05 394.32L615.55 394.24ZM618.09 394.26L617.14 397.78L617.94 397.73L618.85 394.2L618.09 394.26Z" fill="#77BAFC"/>
<path d="M619.95 387.52L618.81 390.98L619.78 390.87L620.73 387.63L619.95 387.52ZM618.63 387.58L617.73 391.03L618.16 391.09L619.27 387.55M653.79 416.85C654.432 417.187 655.137 417.388 655.86 417.44L654.52 423.22C653.43 422.9 652.398 422.411 651.46 421.77L652.76 416.23L653.79 416.85ZM656.4 417.51L655.85 423.39L656.47 423.48L657.35 417.56L656.4 417.51ZM631.21 398.8L632.98 405.15L636.37 407.12L635.54 401.45L631.21 398.8ZM637.3 402.56L638.36 408.26L638.95 408.58L638.34 403.1L637.3 402.56Z" fill="#1B8CFA"/>
<path d="M625.08 392.5L652.7 407.25" stroke="#77BAFC" stroke-width="1.26" stroke-miterlimit="10"/>
<path d="M779 361.71C788.41 360.63 790.94 363.16 793.84 367.14C796.74 371.12 797.1 377.63 798.9 378.72C800.7 379.81 806.5 381.61 806.14 383.78C805.78 385.95 795.66 387 792 386C787.66 387.09 781.15 388.9 781.15 388.9L782.3 388.5C767.37 393.5 712.54 396.63 713.92 375.3C715.77 346.98 747.92 347.03 747.92 347.03M749.82 320.28C749.82 320.28 733.72 339.28 726.72 345.8C716.16 355.61 694.61 369.69 674.14 369.42C637.36 368.93 629.66 352.42 623.99 347.71C610.76 349.28 612.1 346.71 612.1 346.71C608.5 343.71 618.43 329.71 640.35 333.94C649.866 335.425 659.264 337.591 668.47 340.42M686.84 315.12C686.369 314.918 685.943 314.625 685.585 314.258C685.228 313.891 684.946 313.457 684.756 312.981C684.566 312.505 684.472 311.996 684.479 311.484C684.485 310.972 684.593 310.466 684.795 309.995C684.997 309.524 685.29 309.098 685.657 308.74C686.024 308.383 686.458 308.101 686.934 307.911C687.41 307.721 687.919 307.627 688.431 307.634C688.943 307.64 689.449 307.748 689.92 307.95" stroke="#218BFF" stroke-width="2.43" stroke-linecap="square" stroke-linejoin="round"/>
<path d="M813.47 316.31C812.914 319.22 811.684 321.96 809.88 324.31C806 329.54 800.51 332.08 798.47 330.56C796.43 329.04 798.38 324.06 802.26 318.84C803.496 317.143 804.881 315.56 806.4 314.11M771.37 328.15C774.448 327.525 777.614 327.474 780.71 328C787.16 328.85 792.31 330.95 791.98 333.47C791.65 335.99 786.08 338.18 779.63 337.33C778.89 337.23 778.17 337.09 777.48 336.93" stroke="#218BFF" stroke-width="2.43" stroke-miterlimit="10"/>
<path d="M728.72 343.86C733.877 342.974 739.11 342.608 744.34 342.77" stroke="#218BFF" stroke-width="2.43" stroke-linecap="square" stroke-linejoin="round"/>
<path d="M79.07 373.87L73.99 376.66L69.21 365.97L59.08 365.82L46.83 364.88L49.05 362.67L58.39 358.79L72.48 360.7L79.07 373.87Z" fill="#6A737D"/>
<path d="M78.7378 375.1L73.6578 377.9L67.5678 368.18L58.7178 365.76L48.5478 368.04L46.4678 364.82L58.0578 360.02L72.2378 363.27L78.7378 375.1Z" fill="#30363D"/>
<path d="M76.66 387.22L63.67 392.5L53.31 391.17L44.23 387.33L44.93 384.59L48.33 381.47L54.93 386.43L63 387.74L75.15 380.96L76.66 387.22Z" fill="#6A737D"/>
<path d="M77.7401 373.99L74.4001 379.28L64.1301 371.6L54.4301 373.98L46.2301 378.82L41.3101 376.38L43.9201 371.8L52.6701 367.89L65.7001 366.41L77.7401 373.99Z" fill="#444D56"/>
<path d="M76.3578 388.74L63.3678 394.02L53.0078 392.69L43.8678 387.27L48.0278 382.99L54.6278 387.95L62.7178 389.97L74.5078 384.19L76.3578 388.74Z" fill="#30363D"/>
<path d="M77.5601 378.03L74.2301 383.32L63.9601 375.63L53.7701 376.35L44.3701 379.15L41.3101 376.38L52.4901 371.93L65.5301 370.44L77.5601 378.03ZM73.1901 397.2L82.5101 399.83L83.11 394.6C79.3348 394.35 75.6226 393.506 72.11 392.1C72.3411 393.825 72.7021 395.53 73.1901 397.2Z" fill="#6D7481"/>
<path d="M79.3978 362.33C77.3978 366.97 74.5777 372.5 73.3177 376.67C77.4877 376.21 81.0078 377.25 84.5778 378.67L86.3177 363.67L79.3978 362.33Z" fill="#30363D"/>
<path d="M72.14 392.1C75.6997 393.34 79.4315 394.015 83.2 394.1L84.38 378.1C80.75 376.87 77.83 376.01 73.68 376.65C72.1547 381.648 71.6314 386.899 72.14 392.1Z" fill="#444D56"/>
<path d="M76.2199 378.4C75.0535 386.387 76.3732 394.539 79.9999 401.75C85.1699 401.9 90.4599 401.75 95.8399 401.94C94.1599 391.58 94.0099 381.09 96.2699 371.33C93.8389 367.308 92.0792 362.917 91.0599 358.33C89.0204 358.915 87.0169 359.62 85.0599 360.44C82.9999 361.35 77.9999 367.39 76.2199 378.4Z" fill="#6A737D"/>
<path d="M97.7301 412.24C97.2701 410.03 95.8201 404.47 95.4601 401.77C91.2801 401.77 84.17 401.48 79.8 401.47C80.3091 402.579 81.0732 403.552 82.0301 404.31C84.2301 406.2 91.7701 410.41 97.7301 412.24Z" fill="#586069"/>
<path d="M102.11 356.23C130.18 352.42 155.34 366.49 160.24 370.23C164.71 379.33 164.71 403.23 153.99 412.13C139.06 418.31 116.46 419.13 97.73 412.24C93.26 396 91.67 372.89 102.11 356.23Z" fill="#FFF5B1"/>
<path d="M159.47 404.63C158.232 407.511 156.359 410.075 153.99 412.13C139.06 418.31 116.46 419.13 97.7299 412.24C94.5099 400.56 92.7899 385.3 95.9699 371.45C99.2499 376.93 107.84 389.82 123.13 384.87C150.76 375.93 171.38 374.72 159.47 404.63Z" fill="#FFDF5D"/>
<path d="M154 412.13C139.07 418.31 116.47 419.13 97.7401 412.24C96.8453 408.997 96.121 405.709 95.5701 402.39C112 403 137.46 408.07 154 412.13Z" fill="#F9C513"/>
<path d="M90.6378 358.43C91.7559 362.846 93.4363 367.101 95.6378 371.09C96.6378 365.88 100.378 357.86 101.718 356.17C97.9747 356.654 94.2716 357.409 90.6378 358.43Z" fill="#30363D"/>
<path d="M682.4 236.78C675.446 245.359 671.995 256.252 672.74 267.27C673.93 285.92 691.97 306.57 691.97 306.57C691.97 306.57 684.31 313.57 691.41 321.98C698.32 330.15 707.88 330.35 719.8 327.85C728.8 325.95 733.86 314.32 733.46 310.75C733.06 307.18 730.21 300.96 717.91 296.99C721.37 263.3 690.22 254.84 683.91 259.52C676.91 264.7 678.1 272.2 674.14 274.18" stroke="#218BFF" stroke-width="2.43" stroke-linecap="square" stroke-linejoin="round"/>
</g>
<defs>
<clipPath id="clip0_3_1249">
<rect width="850" height="600" fill="white"/>
</clipPath>
</defs>
</svg>
