<?xml version="1.0" encoding="utf-8"?>
<!-- Generator: Adobe Illustrator 23.0.2, SVG Export Plug-In . SVG Version: 6.00 Build 0)  -->
<svg version="1.1" id="Layer_1" xmlns="http://www.w3.org/2000/svg" xmlns:xlink="http://www.w3.org/1999/xlink" x="0px" y="0px"
	 width="60px" height="60px" viewBox="0 0 60 60" style="enable-background:new 0 0 60 60;" xml:space="preserve">
<style type="text/css">
	.st0{fill-rule:evenodd;clip-rule:evenodd;fill:#001B38;}
	.st1{fill:url(#SVGID_1_);}
	.st2{opacity:0.5;fill:url(#SVGID_2_);enable-background:new    ;}
</style>
<path class="st0" d="M9.2,10.4c0-5.5,4.4-9.9,9.9-9.9h9.1h22.6v14.1c0,2.7-2.2,5-5,5h-13c-2.6,0-4.7,2.1-4.7,4.7V55c0,2.7-2.2,5-5,5
	H9.2V19.5V10.4z"/>
<linearGradient id="SVGID_1_" gradientUnits="userSpaceOnUse" x1="23.7868" y1="47.0019" x2="43.1265" y2="27.5287" gradientTransform="matrix(1 0 0 -1 0 62)">
	<stop  offset="0" style="stop-color:#FF0057;stop-opacity:0.16"/>
	<stop  offset="0.8614" style="stop-color:#FF0057"/>
</linearGradient>
<path class="st1" d="M20.2,24.4c0,7.1,5.8,12.9,12.9,12.9c7.1,0,12.9-5.8,12.9-12.9c0-7.1-5.8-12.9-12.9-12.9
	C26,11.5,20.2,17.3,20.2,24.4z"/>
<linearGradient id="SVGID_2_" gradientUnits="userSpaceOnUse" x1="23.7868" y1="47.0019" x2="43.1265" y2="27.5287" gradientTransform="matrix(1 0 0 -1 0 62)">
	<stop  offset="0" style="stop-color:#FF0057;stop-opacity:0.16"/>
	<stop  offset="0.8614" style="stop-color:#FF0057"/>
</linearGradient>
<path class="st2" d="M20.2,24.4c0,7.1,5.8,12.9,12.9,12.9c7.1,0,12.9-5.8,12.9-12.9c0-7.1-5.8-12.9-12.9-12.9
	C26,11.5,20.2,17.3,20.2,24.4z"/>
</svg>
