<?xml version="1.0" encoding="utf-8"?>
<!-- Generator: Adobe Illustrator 23.0.2, SVG Export Plug-In . SVG Version: 6.00 Build 0)  -->
<svg version="1.1" id="Layer_1" xmlns="http://www.w3.org/2000/svg" xmlns:xlink="http://www.w3.org/1999/xlink" x="0px" y="0px"
	 width="497.9px" height="505.5px" viewBox="0 0 497.9 505.5" style="enable-background:new 0 0 497.9 505.5;" xml:space="preserve"
	>
<style type="text/css">
	.st0{display:none;fill:#FFFFFF;}
	.st1{fill:#171717;}
</style>
<rect x="-101" y="47.2" class="st0" width="700" height="700"/>
<path class="st1" d="M185,252.7c0-33.2,26.9-60.2,60.2-60.2c33.2,0,60.2,26.9,60.2,60.2c0,33.2-26.9,60.2-60.2,60.2
	C211.9,312.9,185,286,185,252.7z M245.2,0c-118,0-217,80.8-244.9,190.1c-0.2,0.8-0.3,1.6-0.3,2.5c0,6.6,5.4,12,12,12h101.9
	c4.9,0,9-2.9,10.9-7l0,0c20.9-45.6,66.9-77.2,120.3-77.2c73.1,0,132.4,59.3,132.4,132.4c0,73.1-59.3,132.4-132.4,132.4
	c-53.4,0-99.4-31.7-120.3-77.2l0,0c-1.9-4.1-6.1-7-10.9-7H12c-6.6,0-12,5.4-12,12c0,0.8,0.1,1.6,0.3,2.4
	c27.9,109.3,126.9,190.2,244.9,190.2c139.6,0,252.7-113.2,252.7-252.7C497.9,113.2,384.7,0,245.2,0z"/>
</svg>
