<svg viewBox="0 0 18 18" xmlns="http://www.w3.org/2000/svg"><path d="M4.87725 15.564C4.87725 16.9095 3.78525 18 2.439 18C1.092 18 0 16.9095 0 15.564C0 14.2185 1.092 13.128 2.439 13.128C3.78525 13.1288 4.87725 14.2185 4.87725 15.564ZM1.81214 6.28433C0.821676 6.12662 0 6.95184 0 7.95478V7.95478C0 8.94548 0.80745 9.7311 1.77335 9.95134C4.88751 10.6614 7.34477 13.1147 8.05723 16.2246C8.27873 17.1915 9.06526 18 10.0572 18V18C11.0614 18 11.8877 17.1772 11.729 16.1856C10.9163 11.1056 6.89914 7.09432 1.81214 6.28433ZM0 1.81156C0 2.80552 0.807508 3.60066 1.79343 3.72683C8.29332 4.55863 13.4443 9.69716 14.2712 16.2022C14.3968 17.1901 15.193 18 16.1889 18V18C17.1885 18 18.0077 17.1862 17.9062 16.1918C17.0415 7.71196 10.2969 0.968855 1.80862 0.0956699C0.814393 -0.00660638 0 0.81208 0 1.81156V1.81156Z" fill="currentColor"/></svg>
