<svg viewBox="0 0 200 200" xmlns="http://www.w3.org/2000/svg"><text fill="#bef5cb" font-family="ChartwellPies, Chartwell Pies" font-size="36" transform="translate(6.04 -7.64)">67+<tspan fill="#34d058" x="35.85" y="0">33</tspan></text><g stroke="#fff" stroke-miterlimit="10" stroke-width="1.5"><path d="m73.43 196.42a100.37 100.37 0 0 1 -44.12-25.63 98.62 98.62 0 0 1 -15.65-20.2 100.05 100.05 0 0 1 -10.09-23.87 100.85 100.85 0 0 1 0-53.19 100.18 100.18 0 0 1 69.86-69.95 98.05 98.05 0 0 1 26.57-3.58v100.14l87.48 48.11a100.34 100.34 0 0 1 -15.48 21.1 98.61 98.61 0 0 1 -20.42 16.34 100.32 100.32 0 0 1 -24.34 10.56 100.53 100.53 0 0 1 -53.79.17z" fill="#ffea7f"/><path d="m100 100.14v-100.14a101.2 101.2 0 0 1 24.47 3 101.17 101.17 0 0 1 45.29 25.35 100.63 100.63 0 0 1 27.52 95 97.68 97.68 0 0 1 -9.66 25z" fill="#f9c513"/><circle cx="100" cy="100" fill="#fff" r="48.6"/></g></svg>