<svg fill="none" height="45" viewBox="0 0 42 45" width="42" xmlns="http://www.w3.org/2000/svg"><g stroke-linecap="round" stroke-linejoin="round" stroke-width="2"><g stroke="#2188ff"><path d="m11.2 39.6v-15h10v15"/><path d="m31 4.5v-2h5.7v6.5"/><path d="m15.4 33.3c.2762 0 .5-.2239.5-.5 0-.2762-.2238-.5-.5-.5-.2761 0-.5.2238-.5.5 0 .2761.2239.5.5.5z" fill="#2188ff" stroke-miterlimit="10"/></g><g stroke="#79b8ff"><path d="m4 23.5v20.1m34 0v-19"/><path d="m13.4 18.2h14.5"/><path d="m40.3 21.8-.1-5.5-19.3-15.3-19.8 15-.1 5.7 20-14.6z"/><path d="m31.9 28.6h-5" stroke-miterlimit="10"/><path d="m31.9 35.6h-5" stroke-miterlimit="10"/><path d="m2 44h38"/></g></g></svg>