<svg enable-background="new 0 0 138 138" viewBox="0 0 138 138" xmlns="http://www.w3.org/2000/svg"><g stroke="#fff"><path d="m69.5 1v-.5h-.5c-13 0-25.8 3.7-36.7 10.7-11 7-19.8 17-25.3 28.7-5.5 11.8-7.6 24.9-5.9 37.8s7 25.1 15.3 35.1 19.3 17.4 31.7 21.4 25.7 4.3 38.3 1 24-10.1 32.8-19.7c8.9-9.5 14.8-21.4 17.2-34.2l.1-.5-.5-.1-36.5-6.7h-.5l-.1.5c-2.6 14.2-15.1 24.9-30 24.9-16.8 0-30.5-13.7-30.5-30.5s13.7-30.5 30.5-30.5h.1.5v-.5z" fill="#e6dcfd"/><path d="m123.6 28.4.4-.3-.3-.4c-6.4-8.5-14.6-15.3-24.1-20-9.6-4.7-20-7.2-30.6-7.2h-.5v.5 36.9.5h.5c9.9 0 18.8 4.8 24.3 12.2l.3.4.4-.3z" fill="#d1bcf9"/><path d="m134.9 52.2.5-.1-.1-.5c-2.3-8.6-6.2-16.7-11.6-23.8l-.3-.4-.4.3-29.6 22.2-.4.3.3.4c2.4 3.1 4.1 6.7 5.1 10.6l.1.5.5-.1z" fill="#b392f0"/><path d="m99.4 68.6v.5h.5l37.1-.5h.5v-.5c-.1-5.6-.8-11.2-2.3-16.6l-.1-.5-.5.1-35.8 9.4-.5.1.1.5c.7 2.5 1 5 1 7.5z" fill="#8a63d2"/><path d="m98.9 74.5-.1.5.5.1 36.5 6.7.5.1.1-.5c.8-4.4 1.2-8.8 1.1-13.3v-.5h-.5l-37.1.5h-.5v.5.4c0 1.8-.1 3.7-.5 5.5z" fill="#6f42c1"/></g></svg>