<svg viewBox="0 0 200 200" xmlns="http://www.w3.org/2000/svg"><g stroke="#fff" stroke-miterlimit="10"><path d="m9.17 140.7a100.16 100.16 0 0 0 33.69 40.77 99.73 99.73 0 0 0 97.87 9.38 97.41 97.41 0 0 0 22.65-14.1l-32.2-38.95a49 49 0 1 1 -31.25-86.8v-50.3a96.59 96.59 0 0 0 -16.69 1.3 98.83 98.83 0 0 0 -16.34 4.27 96.77 96.77 0 0 0 -15.62 7.12 99.81 99.81 0 0 0 -14.59 10.06 97.67 97.67 0 0 0 -18.12 19.55 99.77 99.77 0 0 0 -17.57 47.61 98.21 98.21 0 0 0 .8 25.4 99.64 99.64 0 0 0 7.37 24.69z" fill="#e6dcfd"/><path d="m100 51a49 49 0 0 1 46.59 33.81l48-15.6a98.73 98.73 0 0 0 -8.48-18.92 102.74 102.74 0 0 0 -12.05-16.59 98 98 0 0 0 -15.13-13.78 101.66 101.66 0 0 0 -17.73-10.44 98.2 98.2 0 0 0 -19.81-6.66 100 100 0 0 0 -21.39-2.32z" fill="#d1bcf9"/><path d="m146.63 85a49 49 0 0 1 2.37 15c0 1.07-.05 2.13-.11 3.18s-.17 2-.29 3l50.11 6.38a100.73 100.73 0 0 0 .4-21.49 97.19 97.19 0 0 0 -4.49-21.72l-48 15.53z" fill="#b392f0"/><path d="m142.91 123.66 44.27 24.39a99.66 99.66 0 0 0 11.53-35.48l-50.11-6.38a48.62 48.62 0 0 1 -5.69 17.47z" fill="#8a63d2"/><path d="m142.9 123.68a49.06 49.06 0 0 1 -11.71 14.11l32.2 38.95a99.62 99.62 0 0 0 13.06-13 102 102 0 0 0 10.74-15.7l-44.27-24.39z" fill="#6f42c1"/></g></svg>