<svg width="72" height="72" viewBox="0 0 72 72" fill="none" xmlns="http://www.w3.org/2000/svg"><path d="M66.8572 6.4285a1.2859 1.2859 0 00-1.9654-1.0914c-13.086 8.1484-20.0223 12.4853-20.6577 12.9451-1.729 1.2495-2.8494 2.8138-3.0698 4.7124-.0819.7053.4236 1.3435 1.1289 1.4254.7054.0818 1.3435-.4236 1.4254-1.1289.1139-.9815.6906-1.9629 2.0216-2.9248l.0032-.0022c.4897-.3562 6.6345-4.2035 18.5423-11.6202v55.5418h-5.1428v-2.5715c0-.71-.5757-1.2857-1.2857-1.2857h-6.4286c-.7101 0-1.2857.5757-1.2857 1.2857v3.8572c0 .7101.5756 1.2857 1.2857 1.2857.7101 0 1.2857-.5756 1.2857-1.2857V63h3.8571v2.5714c0 .7101.5757 1.2857 1.2858 1.2857h7.7142c.7101 0 1.2858-.5756 1.2858-1.2857V6.4285zM17.6385 40.2359a1.2855 1.2855 0 00-1.8205-.0022l-9.5346 9.5346c-.7389.723-1.1405 1.7107-1.1405 2.7274V63c0 2.1243 1.7327 3.8571 3.8571 3.8571h5.1429c.71 0 1.2857-.5756 1.2857-1.2857V63H18v2.5714c0 .7101.5756 1.2857 1.2857 1.2857.7101 0 1.2857-.5756 1.2857-1.2857v-3.8572c0-.71-.5756-1.2857-1.2857-1.2857h-5.1428c-.7101 0-1.2858.5757-1.2858 1.2857v2.5715H9c-.7042 0-1.2857-.5815-1.2857-1.2857V52.4957c0-.3431.1358-.6639.3698-.8917l.0122-.012 8.6286-8.6287 1.7009 1.7093c.5008.5033 1.3149.5053 1.8182.0045.5034-.5009.5054-1.315.0045-1.8183l-2.61-2.6229z" fill="#79B8FF"/><path d="M50.1557 35.1642c0-.7101.5757-1.2857 1.2857-1.2857H57.87c.7101 0 1.2857.5756 1.2857 1.2857 0 .7101-.5756 1.2857-1.2857 1.2857h-6.4286c-.71 0-1.2857-.5756-1.2857-1.2857zM51.4414 28.7356c-.71 0-1.2857.5757-1.2857 1.2858 0 .71.5757 1.2857 1.2857 1.2857H57.87c.7101 0 1.2857-.5757 1.2857-1.2857 0-.7101-.5756-1.2858-1.2857-1.2858h-6.4286z" fill="#79B8FF"/><path d="M28.2926 32.7876c0-.7101.5757-1.2857 1.2857-1.2857h3.8482c.7101 0 1.2857.5756 1.2857 1.2857 0 .7101-.5756 1.2857-1.2857 1.2857h-3.8482c-.71 0-1.2857-.5756-1.2857-1.2857zM42.4286 32.8223c0 .7101-.5757 1.2857-1.2857 1.2857-.7101 0-1.2858-.5756-1.2858-1.2857 0-.7101.5757-1.2857 1.2858-1.2857.71 0 1.2857.5756 1.2857 1.2857zM28.2926 46.9305c0-.7101.5757-1.2858 1.2857-1.2858h3.8482c.7101 0 1.2857.5757 1.2857 1.2858 0 .71-.5756 1.2857-1.2857 1.2857h-3.8482c-.71 0-1.2857-.5757-1.2857-1.2857zM42.4286 46.9651c0 .7101-.5757 1.2858-1.2857 1.2858-.7101 0-1.2858-.5757-1.2858-1.2858 0-.71.5757-1.2857 1.2858-1.2857.71 0 1.2857.5757 1.2857 1.2857zM28.2926 61.0733c0-.7101.5757-1.2857 1.2857-1.2857h3.8482c.7101 0 1.2857.5756 1.2857 1.2857 0 .7101-.5756 1.2857-1.2857 1.2857h-3.8482c-.71 0-1.2857-.5756-1.2857-1.2857zM42.4286 61.108c0 .7101-.5757 1.2857-1.2857 1.2857-.7101 0-1.2858-.5756-1.2858-1.2857 0-.7101.5757-1.2857 1.2858-1.2857.71 0 1.2857.5756 1.2857 1.2857z" fill="#2188FF"/><path fill-rule="evenodd" clip-rule="evenodd" d="M27 27c-2.1302 0-3.8571 1.7269-3.8571 3.8571v3.8572c0 2.1302 1.7269 3.8571 3.8571 3.8571h1.2857v2.5715H27c-2.1302 0-3.8571 1.7269-3.8571 3.8571v3.8571c0 2.1303 1.7269 3.8572 3.8571 3.8572h1.2857v2.5714H27c-2.1302 0-3.8571 1.7269-3.8571 3.8572V63c0 2.1302 1.7269 3.8571 3.8571 3.8571h16.7143c2.1302 0 3.8571-1.7269 3.8571-3.8571v-3.8571c0-2.1303-1.7269-3.8572-3.8571-3.8572h-1.2857v-2.5714h1.2857c2.1302 0 3.8571-1.7269 3.8571-3.8572V45c0-2.1302-1.7269-3.8571-3.8571-3.8571h-1.2857v-2.5715h1.2857c2.1302 0 3.8571-1.7269 3.8571-3.8571v-3.8572c0-2.1302-1.7269-3.8571-3.8571-3.8571H27zm12.8571 25.7143h-9v2.5714h9v-2.5714zm0-14.1429h-9v2.5715h9v-2.5715zm-14.1428-7.7143c0-.71.5756-1.2857 1.2857-1.2857h16.7143c.7101 0 1.2857.5757 1.2857 1.2857v3.8572C45 35.4244 44.4244 36 43.7143 36H27c-.7101 0-1.2857-.5756-1.2857-1.2857v-3.8572zm0 14.1429c0-.7101.5756-1.2857 1.2857-1.2857h16.7143C44.4244 43.7143 45 44.2899 45 45v3.8571c0 .7101-.5756 1.2858-1.2857 1.2858H27c-.7101 0-1.2857-.5757-1.2857-1.2858V45zM27 57.8571c-.7101 0-1.2857.5757-1.2857 1.2858V63c0 .7101.5756 1.2857 1.2857 1.2857h16.7143C44.4244 64.2857 45 63.7101 45 63v-3.8571c0-.7101-.5756-1.2858-1.2857-1.2858H27z" fill="#2188FF"/></svg>
