<svg width="80" height="80" fill="none" xmlns="http://www.w3.org/2000/svg"><g clip-path="url(#a)"><path d="M79.6836 40c0 22.0909-17.7627 39.9546-39.7288 39.9546V61.5H40.452c.0903 0 .1807-.0151.2711-.0454.3616 0 .7232-.0152 1.0848-.0455.1506-.0303.2862-.0454.4068-.0454.3013-.0303.6177-.0758.9491-.1364h.1808c.0603 0 .1055-.0152.1356-.0455.0904 0 .1808-.0151.2712-.0454.241-.0303.467-.0758.6779-.1364.4822-.0909.9492-.2121 1.4012-.3636.0904 0 .1808-.0152.2712-.0455.1506-.0606.2862-.106.4067-.1363.0603-.0303.1206-.0455.1808-.0455.211-.0909.4068-.1667.5876-.2273.0301 0 .0603-.0151.0904-.0454.2109-.0606.4068-.1364.5876-.2273.0602 0 .1054-.0151.1356-.0454.1506-.0606.3013-.1213.4519-.1819.0904-.0606.1808-.106.2712-.1363.1808-.0909.3616-.1667.5424-.2273 0-.0303.0151-.0455.0452-.0455L49.9435 59l.6327-.3636c.1808-.1212.3616-.2273.5424-.3182h.0452c.1507-.1212.3164-.2424.4972-.3636.1808-.1212.3616-.2425.5424-.3637.1808-.1212.3465-.2424.4971-.3636.3616-.2727.7081-.5455 1.0396-.8182.1506-.1515.3013-.2879.452-.4091.1808-.1515.3465-.303.4971-.4545.1206-.1212.2562-.2576.4068-.4091l.2712-.2727c.3917-.394.7533-.8031 1.0847-1.2273.1808-.2121.3466-.4394.4972-.6818.1507-.1515.2863-.3182.4068-.5.1808-.2728.3767-.5606.5876-.8637.1808-.303.3465-.5909.4971-.8636.5424-.9091.9944-1.8636 1.356-2.8636.0602-.1516.1205-.3031.1808-.4546.0602-.1818.1205-.3485.1808-.5.0602-.1818.1205-.3485.1808-.5.0904-.3333.1807-.6818.2711-1.0454.0904-.3334.1658-.6819.226-1.0455.0603-.1818.1055-.3485.1356-.5.0302-.1818.0452-.3636.0452-.5454.0302-.091.0452-.197.0452-.3182 0-.0303.0151-.0606.0452-.0909v-.2273c.0603-.3333.0904-.6515.0904-.9546.0301-.1515.0452-.3181.0452-.5v-.1363c0-.1515.0151-.303.0452-.4546V39.4546c0-.1515-.0151-.3182-.0452-.5v-.0909c0-.1819-.0151-.3485-.0452-.5 0-.3334-.0301-.6819-.0904-1.0455v-.0454c0-.091-.015-.1667-.0452-.2273-.0301-.2727-.0753-.5455-.1356-.8182-.0301-.1818-.0602-.3636-.0904-.5455-.1205-.6969-.2862-1.3787-.4971-2.0454-.0904-.2424-.1808-.5-.2712-.7727-.0904-.2425-.1808-.4849-.2712-.7273-.0904-.2121-.1808-.4394-.2712-.6818-.1205-.2425-.2411-.4849-.3616-.7273-.0603-.1818-.1356-.3485-.226-.5-.0602-.1212-.1205-.2424-.1808-.3636-.0301-.0606-.0602-.1061-.0904-.1364-.0602-.1212-.1205-.2273-.1808-.3182l-.0903-.1818c-.0603-.1212-.1356-.2424-.226-.3636-.0603-.1212-.1507-.2576-.2712-.4091-.1808-.3031-.3616-.5909-.5424-.8637-.1507-.2121-.3013-.4091-.452-.5909-.1506-.2121-.3164-.4242-.4972-.6363-.3314-.394-.6779-.7879-1.0395-1.1819l-.2712-.2727c-.1506-.1515-.3013-.303-.452-.4545-.6629-.6364-1.386-1.2425-2.1694-1.8182-.2411-.1818-.4972-.3636-.7684-.5455-.3013-.2121-.6177-.4091-.9492-.5909-.1205-.0606-.226-.1212-.3163-.1818-.4219-.2424-.8437-.4545-1.2656-.6364-.0904-.0606-.1958-.1212-.3164-.1818-.0301-.0303-.0753-.0454-.1356-.0454-.0602-.0303-.1205-.0606-.1808-.0909-1.5367-.6819-3.1186-1.1819-4.7909-1.5-.1507-.0303-.3164-.0455-.4972-.0455-.5424-.1212-1.0998-.197-1.6723-.2273h-.3164c-.4218-.0303-.8587-.0454-1.3107-.0454V.0454788C61.8757.0454788 79.6836 17.9091 79.6836 40Z" fill="#014141"/><path d="M39.9548.0454865v.0454542h-2.0339c-.0301.0303033-.0603.0454543-.0904.0454543h-.678c-.1506.030303-.3013.045455-.4519.045455-.0904 0-.1959.015151-.3164.045454-.2411 0-.4671.015152-.678.045455-.2712.030303-.5273.060606-.7684.090909-.0904.030303-.1807.045454-.2711.045454-.0904 0-.1658.015152-.226.045455-.0904 0-.1808.015152-.2712.045455h-.1808c-.0603 0-.1356.015151-.226.045454h-.0904c-.0904.030303-.1657.045455-.226.045455-.0904 0-.1808.015151-.2712.045454-.0602 0-.1356.015152-.226.045455-.1205.030303-.241.045455-.3615.045455-.0904.030303-.1959.060606-.3164.090909h-.1356c-.0603.030303-.1205.045454-.1808.045454-.0904.030303-.1808.045455-.2712.045455l-.2712.090907c-.0602 0-.1356.01515-.226.04546-.0904 0-.1808.01515-.2712.04545-.0602.0303-.1356.04546-.2259.04546-.1808.0606-.3466.10606-.4972.13636l-.3616.09091h-.0452c-.0603.0303-.1055.04545-.1356.04545-.0904.03031-.1808.04546-.2712.04546-.0301.0303-.0753.04545-.1356.04545-.1205.0303-.226.06061-.3164.09091-.5423.15152-1.0546.31818-1.5367.5-.1205.0303-.226.06061-.3164.09091-.0602.0303-.1205.04545-.1808.04545l-.0452.04546c-.0602.0303-.1205.04545-.1807.04545-.0904.03031-.1658.06061-.226.09091-.0603 0-.1055.01515-.1356.04546-.0301.0303-.0754.04545-.1356.04545-.1507.06061-.3164.12121-.4972.18182-.1205.06061-.2561.12121-.4068.18182-.1205.0606-.2561.12121-.4068.18182l-.4519.18181c-.0603 0-.1055.01516-.1356.04546l-.1808.09091c-.0302 0-.0603.01515-.0904.04545-.0603.03031-.1055.04546-.1356.04546l-.3616.18182c-.241.12121-.4972.24242-.7684.36363-.1807.09091-.3766.18182-.5875.27273h-.0452c-.0603.0606-.1356.10606-.226.13636-.0301 0-.0452.01515-.0452.04546-.0603 0-.1055.01515-.1356.04545-.2109.12121-.4369.24243-.678.36364-.0602.0303-.1356.07576-.2259.13636l-.6328.36364c-.2109.12121-.4369.24242-.678.36363-.0602.06061-.1205.10606-.1808.13637h-.0452c-.0301.0303-.0753.0606-.1356.09091h20.8362V.0909407H40l-.0452-.0454542ZM39.9548 18.5455V61.5h-.0452c-.2109 0-.4219-.0151-.6328-.0454H6.41806c-1.17514-1.8637-2.21469-3.8182-3.07345-5.9091H25.2203l-.4068-.4091c-.0904-.0909-.1808-.197-.2712-.3182-.3615-.3636-.7231-.7576-1.0847-1.1818-.1507-.1818-.3164-.3788-.4972-.5909-.1205-.2121-.2561-.4091-.4068-.5909-.2109-.303-.4067-.5909-.5875-.8637l-.2712-.4545-.1808-.3636c-.0301-.0303-.0603-.0758-.0904-.1364-.0904-.1212-.1507-.2273-.1808-.3182l-.0904-.1818c-.0602-.1212-.1356-.2424-.226-.3636-.0602-.1516-.1356-.3031-.226-.4546-.1205-.2424-.2259-.5-.3163-.7727-.0904-.2121-.1808-.4394-.2712-.6818-.1206-.2425-.226-.4849-.3164-.7273-.0603-.2424-.1356-.4849-.226-.7273-.2109-.6969-.3917-1.3939-.5424-2.0909-.0301-.1818-.0602-.3485-.0904-.5-.0301-.303-.0753-.5909-.1356-.8636H.316362C.256098 41.9849.225967 41 .225967 40c0-1 .030131-1.9848.090395-2.9545H18.8022c.0302-.0909.0452-.197.0452-.3182.0302-.1818.0603-.3485.0904-.5l.0904-.5454c.0904-.3334.1808-.6819.2712-1.0455.0603-.3333.1507-.6667.2712-1 .0603-.1818.1205-.3485.1808-.5.0301-.1818.0753-.3485.1356-.5.0602-.1818.1205-.3485.1808-.5.3917-.9697.8437-1.9091 1.3559-2.8182.1808-.303.3616-.5909.5424-.8636.1808-.3031.3766-.5909.5875-.8637l.3616-.5454.5424-.6364c.3315-.4242.678-.8333 1.0396-1.2272.1205-.091.2259-.1819.3163-.2728.1206-.1515.2562-.303.4068-.4545H3.34461c.85876-2.0455 1.89831-4.0455 3.07345-5.9091H39.9548ZM39.9548 74.0909v-.0454l.0452.0454h-.0452ZM39.9548 74.0909h-20.791l.0904.091h.0452l.5424.3636c.0602 0 .1054.0151.1356.0455.0301.0302.0602.0454.0904.0454.0301.0303.0753.0606.1356.0909.2711.1515.5574.303.8587.4545.1507.091.3164.197.4972.3182l.1808.0909c.0301 0 .0602.0152.0904.0455h.0452c.0602.0303.1054.0606.1356.0909l.7231.3636c.2712.1213.5273.2425.7684.3637.1205.0303.226.0757.3164.1363h.0904c.1506.091.3164.1667.4971.2273l.3616.1818h.0452c.0904.0303.1808.0758.2712.1364.0603.0303.1356.0606.226.0909.0603 0 .1205.0152.1808.0455.0301.0303.0753.0454.1356.0454 0 .0303.015.0455.0452.0455.0301 0 .0602.0151.0904.0454.0904.0303.1958.0606.3164.0909.0301.0303.0753.0455.1356.0455.0301.0303.0602.0454.0904.0454l.1807.0909c.0603 0 .1206.0152.1808.0455l.1808.0909h.0452c.0603.0303.1205.0455.1808.0455 0 .0303.0151.0454.0452.0454h.0904l.1808.0909c.2411.0606.4972.1364.7683.2273.2411.0606.4972.1364.7684.2273h.0452c.0302.0303.0603.0454.0904.0454h.0904c.0301.0303.0603.0455.0904.0455.0603 0 .1055.0151.1356.0454.0904.0303.1808.0455.2712.0455.0602.0303.1054.0455.1356.0455h.0452c.0602.0303.1205.0454.1808.0454.0602.0303.1205.0455.1807.0455.1507.0606.3164.106.4972.1363.1808.0303.3465.0758.4972.1364.0904 0 .1808.0151.2712.0454.0603 0 .1356.0152.226.0455.0904.0303.1808.0455.2712.0455.0602.0303.1205.0454.1808.0454.0301 0 .0753.0152.1355.0455h.1356c.0302.0303.0603.0454.0904.0454h.1808c.0904.0303.1808.0455.2712.0455l.2712.0909h.226c.0603.0303.1356.0454.226.0454.0301 0 .0602.0152.0904.0455h.2712c.0301 0 .0602.0151.0904.0455h.0452c.0904 0 .1808.0151.2711.0454h.2712c.0603.0303.1206.0455.1808.0455.0904 0 .1808.0151.2712.0454h.3616c.0904.0303.1657.0455.226.0455.2109.0303.4218.0454.6327.0454.0904.0303.1959.0455.3164.0455.1507 0 .3014.0151.452.0454h.4068c.0904 0 .1657.0152.226.0455h2.1695v-5.8637Z" fill="#48BEA1"/></g><defs><clipPath id="a"><path fill="#fff" d="M0 0h80v80H0z"/></clipPath></defs></svg>
