<svg fill="none" height="151" viewBox="0 0 822 151" width="822" xmlns="http://www.w3.org/2000/svg" xmlns:xlink="http://www.w3.org/1999/xlink"><linearGradient id="a" gradientUnits="userSpaceOnUse" x1="478" x2="36" y1="120" y2=".000013"><stop offset="0" stop-color="#c6c6c6"/><stop offset="1" stop-color="#c6c6c6" stop-opacity="0"/></linearGradient><clipPath id="b"><path d="m0 0h822v150.652h-822z"/></clipPath><clipPath id="c"><path d="m454 0h368v150h-368z"/></clipPath><g clip-path="url(#b)" opacity=".1"><path clip-rule="evenodd" d="m32.8802 150.652v-.649h-32.8802v-1h.0000756l.00000317-29.286h-.00007877v-1h.00007888l.00000318-29.2864h-.00008206v-1h.00008217l.00000318-29.2861h-.00008535v-1h.00008546l.00000318-29.2861h-.00008864v-1h.00008875l.0000028-25.8584h.99999845v25.8584h31.88011v-27.8584h1v27.8584h32.1198v-27.8584h1v27.8584h31.64v-27.8584h1v27.8584h31.88v-27.8584h1v27.8584h31.88v-27.8584h1v27.8584h31.88v-27.8584h1v27.8584h31.88v-27.8584h1v27.8584h31.88v-27.8584h1v27.8584h31.96v-27.8584h1v27.8584h31.8v-27.8584h1v27.8584h31.88v-27.8584h1v27.8584h31.88v-27.8584h1v27.8584h31.88v-27.8584h1v27.8584h31.88v-27.8584h1v27.8584h31.88v-27.8584h1v27.8584h31.88v-27.8584h1v27.8584h31.88v-27.8584h1v27.8584h31.88v-27.8584h1v27.8584h31.88v-27.8584h1v27.8584h31.88v-27.8584h1v27.8584h31.88v-27.8584h1v27.8584h31.88v-27.8584h1v27.8584h31.88v-27.8584h1v27.8584h31.88v-27.8584h1v27.8584h31.88v1h-31.88v29.2861h31.88v1h-31.88v29.2862h31.88v1h-31.88v29.2863h31.88v1h-31.88v29.286h31.88v1h-31.88v.649h-1v-.649h-722.12v.649h-1v-.649h-32.1198v.649zm756.2398-1.649v-29.286h-31.88v29.286zm0-30.286v-29.2863h-31.88v29.2863zm0-30.2863v-29.2862h-31.88v29.2862zm0-30.2862v-29.2861h-31.88v29.2861zm-64.76-29.2861h31.88v29.2861h-31.88zm0 30.2861h31.88v29.2862h-31.88zm0 30.2862h31.88v29.2863h-31.88zm0 30.2863h31.88v29.286h-31.88zm-1 29.286v-29.286h-31.88v29.286zm0-30.286v-29.2864h-31.88v29.2864zm0-30.2864v-29.2861h-31.88v29.2861zm0-30.2861v-29.2861h-31.88v29.2861zm-64.76-29.2861h31.88v29.2861h-31.88zm0 30.2861h31.88v29.2861h-31.88zm0 30.2861h31.88v29.2864h-31.88zm0 30.2864h31.88v29.286h-31.88zm-1 29.286v-29.286h-31.88v29.286zm0-30.286v-29.2864h-31.88v29.2864zm0-30.2864v-29.2861h-31.88v29.2861zm0-30.2861v-29.2861h-31.88v29.2861zm-64.76-29.2861h31.88v29.2861h-31.88zm0 30.2861h31.88v29.2861h-31.88zm0 30.2861h31.88v29.2864h-31.88zm0 30.2864h31.88v29.286h-31.88zm-1 29.286v-29.286h-31.88v29.286zm0-30.286v-29.2864h-31.88v29.2864zm0-30.2864v-29.2861h-31.88v29.2861zm0-30.2861v-29.2861h-31.88v29.2861zm-64.76-29.2861h31.88v29.2861h-31.88zm0 30.2861h31.88v29.2861h-31.88zm0 30.2861h31.88v29.2864h-31.88zm0 30.2864h31.88v29.286h-31.88zm-1 29.286v-29.286h-31.88v29.286zm0-30.286v-29.2864h-31.88v29.2864zm0-30.2864v-29.2861h-31.88v29.2861zm0-30.2861v-29.2861h-31.88v29.2861zm-64.76-29.2861h31.88v29.2861h-31.88zm0 30.2861h31.88v29.2861h-31.88zm0 30.2861h31.88v29.2864h-31.88zm0 30.2864h31.88v29.286h-31.88zm-1 29.286v-29.286h-31.88v29.286zm0-30.286v-29.2864h-31.88v29.2864zm0-30.2864v-29.2861h-31.88v29.2861zm0-30.2861v-29.2861h-31.88v29.2861zm-64.76-29.2861h31.88v29.2861h-31.88zm0 30.2861h31.88v29.2861h-31.88zm0 30.2861h31.88v29.2864h-31.88zm0 30.2864h31.88v29.286h-31.88zm-1 29.286v-29.286h-31.88v29.286zm0-30.286v-29.2864h-31.88v29.2864zm0-30.2864v-29.2861h-31.88v29.2861zm0-30.2861v-29.2861h-31.88v29.2861zm-64.76-29.2861h31.88v29.2861h-31.88zm0 30.2861h31.88v29.2861h-31.88zm0 30.2861h31.88v29.2864h-31.88zm0 30.2864h31.88v29.286h-31.88zm-1 29.286v-29.286h-31.8v29.286zm0-30.286v-29.2864h-31.8v29.2864zm0-30.2864v-29.2861h-31.8v29.2861zm0-30.2861v-29.2861h-31.8v29.2861zm-64.76-29.2861h31.96v29.2861h-31.96zm0 30.2861h31.96v29.2861h-31.96zm0 30.2861h31.96v29.2864h-31.96zm0 30.2864h31.96v29.286h-31.96zm-1 29.286v-29.286h-31.88v29.286zm0-30.286v-29.2864h-31.88v29.2864zm0-30.2864v-29.2861h-31.88v29.2861zm0-30.2861v-29.2861h-31.88v29.2861zm-64.76-29.2861h31.88v29.2861h-31.88zm0 30.2861h31.88v29.2861h-31.88zm0 30.2861h31.88v29.2864h-31.88zm0 30.2864h31.88v29.286h-31.88zm-1 29.286v-29.286h-31.88v29.286zm0-30.286v-29.2864h-31.88v29.2864zm0-30.2864v-29.2861h-31.88v29.2861zm0-30.2861v-29.2861h-31.88v29.2861zm-64.76-29.2861h31.88v29.2861h-31.88zm0 30.2861h31.88v29.2861h-31.88zm0 30.2861h31.88v29.2864h-31.88zm0 30.2864h31.88v29.286h-31.88zm-1 29.286v-29.286h-31.88v29.286zm0-30.286v-29.2864h-31.88v29.2864zm0-30.2864v-29.2861h-31.88v29.2861zm0-30.2861v-29.2861h-31.88v29.2861zm-64.52-29.2861h31.64v29.2861h-31.64zm0 30.2861h31.64v29.2861h-31.64zm0 30.2861h31.64v29.2864h-31.64zm0 30.2864h31.64v29.286h-31.64zm-1 29.286v-29.286h-32.1198v29.286zm0-30.286v-29.2864h-32.1198v29.2864zm0-30.2864v-29.2861h-32.1198v29.2861zm0-30.2861v-29.2861h-32.1198v29.2861zm-33.1198 61.5725v29.286h-31.88012v-29.286zm0-30.2864v29.2864h-31.88012v-29.2864zm0-30.2861v29.2861h-31.88012l.00001-29.2861zm0-30.2861v29.2861h-31.88011v-29.2861z" fill="url(#a)" fill-rule="evenodd"/></g><g clip-path="url(#c)" fill="#f6f8fa"><circle cx="461.5" cy="135.5" r="7.5"/><circle cx="526.5" cy="102.5" r="7.5"/><circle cx="526.5" cy="42.5" r="7.5"/><circle cx="576.5" cy="58.5" r="7.5"/><circle cx="625.5" cy="119.5" r="7.5"/><path d="m690.5 142c-4.142 0-7.5 3.358-7.5 7.5h15c0-4.142-3.358-7.5-7.5-7.5z"/><circle cx="756.5" cy="15.5" r="7.5"/><circle cx="789.5" cy="119.5" r="7.5"/><circle cx="674.5" cy="28.5" r="7.5"/></g></svg>