<svg width="51" height="50" viewBox="0 0 51 50" fill="none" xmlns="http://www.w3.org/2000/svg">
<path d="M17 21L13.601 24.399C13.2691 24.7309 13.2691 25.2691 13.601 25.601L17 29" stroke="#2088FF" stroke-width="2" stroke-linecap="round" stroke-linejoin="round"/>
<path d="M34.0139 21L37.4129 24.399C37.7449 24.7309 37.7449 25.2691 37.4129 25.601L34.0139 29" stroke="#2088FF" stroke-width="2" stroke-linecap="round" stroke-linejoin="round"/>
<path d="M28.0286 18.0449L22.9747 32.0608" stroke="#2088FF" stroke-width="2" stroke-linecap="round"/>
<path d="M20.0176 7H29.0023" stroke="#79B8FF" stroke-width="2" stroke-linecap="round" stroke-linejoin="round"/>
<path d="M23 44H28" stroke="#79B8FF" stroke-width="2" stroke-linecap="round" stroke-linejoin="round"/>
<path d="M30 12C29.4477 12 29 12.4477 29 13C29 13.5523 29.4477 14 30 14V12ZM45.7252 14C46.2775 14 46.7252 13.5523 46.7252 13C46.7252 12.4477 46.2775 12 45.7252 12V14ZM30 14H45.7252V12H30V14Z" fill="#79B8FF"/>
<path d="M5 38C7.70085 38 16.7092 38 18 38" stroke="#79B8FF" stroke-width="2" stroke-linecap="round" stroke-linejoin="round"/>
<path fill-rule="evenodd" clip-rule="evenodd" d="M1.7288 31.0434C2.25599 30.8788 2.81678 31.1727 2.98138 31.6999C3.6298 33.7768 4.64337 35.9272 5.66835 37.4617C5.9751 37.9209 5.85148 38.5419 5.39222 38.8487C4.93296 39.1554 4.31198 39.0318 4.00522 38.5726C2.86204 36.861 1.77082 34.5334 1.07226 32.2959C0.907666 31.7688 1.20161 31.208 1.7288 31.0434ZM45.2765 12.1419C45.7504 11.8583 46.3645 12.0125 46.6481 12.4865C47.7793 14.3767 48.6467 16.5934 49.1856 18.6722C49.3242 19.2068 49.0032 19.7526 48.4686 19.8912C47.934 20.0298 47.3882 19.7088 47.2496 19.1741C46.7505 17.2488 45.95 15.2146 44.932 13.5135C44.6483 13.0396 44.8026 12.4255 45.2765 12.1419Z" fill="#79B8FF"/>
<path d="M23 38H40" stroke="#2088FF" stroke-width="2" stroke-linecap="round" stroke-linejoin="round"/>
<path d="M4.18298 13C2.18573 16.5822 1 20.6188 1 25" stroke="#2088FF" stroke-width="2" stroke-linecap="round"/>
<path d="M39.6078 44.0204C42.2547 42.1495 45.2496 38.5721 46.9031 34.8394C48.519 31.1917 49.071 27.324 49 25" stroke="#2088FF" stroke-width="2" stroke-linecap="round"/>
<path d="M4.22607 13H25" stroke="#2088FF" stroke-width="2" stroke-linecap="round" stroke-linejoin="round"/>
<path d="M10.3435 44H18" stroke="#2088FF" stroke-width="2" stroke-linecap="round" stroke-linejoin="round"/>
<path d="M10.3374 44.0105C11.8194 45.1551 13.9947 46.5154 16.5271 47.4607C18.7499 48.2905 21.268 48.8411 23.7443 48.9654C25.8894 49.0732 28.4162 48.9147 31.0387 48.2268" stroke="#2088FF" stroke-width="2" stroke-linecap="round"/>
<path d="M33 44H39.6467" stroke="#2088FF" stroke-width="2" stroke-linecap="round" stroke-linejoin="round"/>
<path d="M9 7H15" stroke="#2088FF" stroke-width="2" stroke-linecap="round" stroke-linejoin="round"/>
<path d="M34 7H40.858" stroke="#2088FF" stroke-width="2" stroke-linecap="round" stroke-linejoin="round"/>
<path d="M40.8519 6.99998C36.8489 3.33268 30.8685 0.946085 24.8045 0.999979C22.4379 1.02101 20.147 1.34709 17.9954 2.04453" stroke="#2088FF" stroke-width="2" stroke-linecap="round"/>
<path d="M2.04138 32H7.00294" stroke="#79B8FF" stroke-width="2" stroke-linecap="round" stroke-linejoin="round"/>
<path d="M44 19H48.1905" stroke="#79B8FF" stroke-width="2" stroke-linecap="round" stroke-linejoin="round"/>
</svg>
