<svg version="1.1" id="Layer_2" xmlns="http://www.w3.org/2000/svg" x="0" y="0" viewBox="0 0 75.9 72.9" xml:space="preserve"><style>.st0{fill:#79b8ff}.st2,.st3{fill:#2188ff}.st3{fill-rule:evenodd;clip-rule:evenodd}</style><path class="st0" d="M41.2 8c0-.8-.6-1.4-1.4-1.4-.8 0-1.4.6-1.4 1.4 0 .8.6 1.4 1.4 1.4.8 0 1.4-.6 1.4-1.4zM41.3 16.4c0-.8.6-1.4 1.4-1.4h24.9c2.3 0 4.2 1.9 4.2 4.2v47.1c0 2.3-1.9 4.2-4.2 4.2H14.9c-2.3 0-4.2-1.9-4.2-4.2v-29c0-.8.6-1.4 1.4-1.4s1.4.6 1.4 1.4v29c0 .8.6 1.4 1.4 1.4h52.7c.8 0 1.4-.6 1.4-1.4V24.7H42.6c-.8 0-1.4-.6-1.4-1.4 0-.8.6-1.4 1.4-1.4H69v-2.8c0-.8-.6-1.4-1.4-1.4h-25c-.7 0-1.3-.6-1.3-1.3z"/><path class="st0" d="M42.6 28.8c-.8 0-1.4.6-1.4 1.4 0 .8.6 1.4 1.4 1.4h2.8c.8 0 1.4-.6 1.4-1.4 0-.8-.6-1.4-1.4-1.4h-2.8zM49.5 30.2c0-.8.6-1.4 1.4-1.4h4.2c.8 0 1.4.6 1.4 1.4 0 .8-.6 1.4-1.4 1.4h-4.2c-.7 0-1.4-.6-1.4-1.4zM60.7 28.8c-.8 0-1.4.6-1.4 1.4 0 .8.6 1.4 1.4 1.4h4.1c.8 0 1.4-.6 1.4-1.4 0-.8-.6-1.4-1.4-1.4h-4.1zM17.7 35.8c-.8 0-1.4.6-1.4 1.4 0 .8.6 1.4 1.4 1.4h12.5c.8 0 1.4-.6 1.4-1.4 0-.8-.6-1.4-1.4-1.4H17.7zM52.3 53.8c0-.8-.6-1.4-1.4-1.4-.8 0-1.4.6-1.4 1.4 0 .8.6 1.4 1.4 1.4.8 0 1.4-.7 1.4-1.4zM48.2 57.9c0-.8-.6-1.4-1.4-1.4-.8 0-1.4.6-1.4 1.4 0 .8.6 1.4 1.4 1.4.7 0 1.4-.6 1.4-1.4zM52.3 57.9c0-.8-.6-1.4-1.4-1.4-.8 0-1.4.6-1.4 1.4 0 .8.6 1.4 1.4 1.4.8 0 1.4-.6 1.4-1.4zM56.5 53.8c0-.8-.6-1.4-1.4-1.4-.8 0-1.4.6-1.4 1.4 0 .8.6 1.4 1.4 1.4.8 0 1.4-.7 1.4-1.4zM56.5 57.9c0-.8-.6-1.4-1.4-1.4-.8 0-1.4.6-1.4 1.4 0 .8.6 1.4 1.4 1.4.8 0 1.4-.6 1.4-1.4zM60.6 53.8c0-.8-.6-1.4-1.4-1.4-.8 0-1.4.6-1.4 1.4 0 .8.6 1.4 1.4 1.4.8 0 1.4-.7 1.4-1.4zM60.6 57.9c0-.8-.6-1.4-1.4-1.4-.8 0-1.4.6-1.4 1.4 0 .8.6 1.4 1.4 1.4.8 0 1.4-.6 1.4-1.4z"/><path d="M39.9 52.4c0-2.3 1.9-4.2 4.2-4.2h18c2.3 0 4.2 1.9 4.2 4.2v6.9c0 2.3-1.9 4.2-4.2 4.2H44c-2.3 0-4.2-1.9-4.2-4.2v-6.9zM44 51c-.8 0-1.4.6-1.4 1.4v6.9c0 .8.6 1.4 1.4 1.4h18c.8 0 1.4-.6 1.4-1.4v-6.9c0-.8-.6-1.4-1.4-1.4H44z" fill-rule="evenodd" clip-rule="evenodd" fill="#79b8ff"/><path class="st0" d="M17.7 41.3c-.8 0-1.4.6-1.4 1.4 0 .8.6 1.4 1.4 1.4h6.9c.8 0 1.4-.6 1.4-1.4 0-.8-.6-1.4-1.4-1.4h-6.9zM17.7 46.8c-.8 0-1.4.6-1.4 1.4 0 .8.6 1.4 1.4 1.4h6.9c.8 0 1.4-.6 1.4-1.4 0-.8-.6-1.4-1.4-1.4h-6.9zM45.4 37.1c0-.8.6-1.4 1.4-1.4h16.6c1.5 0 2.8 1.2 2.8 2.8v2.8c0 1.5-1.2 2.8-2.8 2.8H44c-.8 0-1.4-.6-1.4-1.4 0-.8.6-1.4 1.4-1.4h19.4v-2.8H46.8c-.8 0-1.4-.6-1.4-1.4zM8 33c.8 0 1.4.6 1.4 1.4 0 .8-.6 1.4-1.4 1.4-.8 0-1.4-.6-1.4-1.4 0-.8.6-1.4 1.4-1.4z"/><path class="st2" d="M8.9 3.5c-.2-.6-.7-1-1.3-1-.6 0-1.2.4-1.3 1-.3.8-.4.9-.5 1-.1.1-.2.2-1 .4-.6.2-1 .7-1 1.3 0 .6.4 1.2 1 1.3.8.2.9.3 1 .4.1.1.2.3.5 1 .2.6.7 1 1.3 1s1.2-.4 1.3-1c.2-.8.3-.9.4-1 .1-.1.2-.2 1-.4.6-.2 1-.7 1-1.3 0-.6-.4-1.2-1-1.3-.8-.2-.9-.3-1-.4-.1-.1-.2-.2-.4-1zM40.8 34c-.2-.6-.7-1-1.3-1-.6 0-1.2.4-1.3 1-.2.8-.3.9-.4 1-.1.1-.2.2-1 .4-.6.2-1 .7-1 1.3 0 .6.4 1.2 1 1.3.8.2.9.3 1 .4.1.1.2.2.4 1 .2.6.7 1 1.3 1 .6 0 1.2-.4 1.3-1 .2-.8.3-.9.4-1 .1-.1.2-.2 1-.4.6-.2 1-.7 1-1.3 0-.6-.4-1.2-1-1.3-.8-.2-.9-.3-1-.4-.1-.1-.2-.2-.4-1z"/><path class="st3" d="M28.8 18.4c0 1.2-.5 2.3-1.2 3.2 1.4 1 2.4 2.5 2.6 4.3.1.8-.5 1.4-1.3 1.5-.8.1-1.4-.5-1.5-1.3-.1-1.5-1.6-2.9-3.5-2.9s-3.3 1.3-3.5 2.9c-.1.8-.7 1.3-1.5 1.3-.8-.1-1.3-.7-1.3-1.5.2-1.8 1.2-3.3 2.6-4.3-.7-.9-1.2-2-1.2-3.2 0-2.7 2.2-4.8 4.8-4.8s5 2.2 5 4.8zm-4.9-2c-1.1 0-2.1.9-2.1 2.1 0 1.1.9 2.1 2.1 2.1s2.1-.9 2.1-2.1c0-1.2-.9-2.1-2.1-2.1z"/><path class="st3" d="M10.8 13.6c0-2.3 1.9-4.2 4.2-4.2h18c2.3 0 4.2 1.9 4.2 4.2v13.9c0 2.3-1.9 4.2-4.2 4.2H15c-2.3 0-4.2-1.9-4.2-4.2V13.6zm4.1-1.4c-.8 0-1.4.6-1.4 1.4v13.9c0 .8.6 1.4 1.4 1.4h18c.8 0 1.4-.6 1.4-1.4V13.6c0-.8-.6-1.4-1.4-1.4h-18z"/><path class="st2" d="M48.2 53.8c0-.8-.6-1.4-1.4-1.4-.8 0-1.4.6-1.4 1.4 0 .8.6 1.4 1.4 1.4.7 0 1.4-.7 1.4-1.4z"/></svg>