<svg height="39" viewBox="0 0 210 39" width="210" xmlns="http://www.w3.org/2000/svg"><g fill="#8b949e" fill-rule="evenodd" transform="translate(0 .1)"><path d="m103.7 30.4h1.2v-4.5h-3.3v1.4h1.7c-.1 1.1-.8 1.8-1.7 1.8-1.2 0-1.9-1.1-1.9-3.1 0-2.1.7-3.1 1.9-3.1.8 0 1.3.4 1.6 1.2l1.5-.4c-.4-1.4-1.5-2.2-3.1-2.2-2.3 0-3.7 1.6-3.7 4.4 0 2.9 1.3 4.6 3.4 4.6 1 0 1.8-.3 2.3-1.1z" fill-rule="nonzero"/><path d="m107.2 30.4h1.6v-3.5h1.5l1.7 3.6h1.8l-2-4c1-.3 1.6-1.1 1.6-2.2 0-1.8-1.1-2.6-3.3-2.6h-3v8.7zm1.7-4.9v-2.5h1.4c1 0 1.6.4 1.6 1.2s-.5 1.2-1.6 1.2h-1.4z"/><path d="m115.4 26.1c0 2.9 1.4 4.5 3.7 4.5s3.7-1.7 3.7-4.5c0-2.9-1.4-4.5-3.7-4.5-2.3-.1-3.7 1.6-3.7 4.5zm1.7 0c0-2 .7-3.1 2-3.1s2 1 2 3.1c0 2-.7 3-2 3s-2-1-2-3z"/><path d="m124.8 27.2c0 2.3 1.1 3.4 3.3 3.4 2.1 0 3.3-1.1 3.3-3.1v-5.8h-1.6v5.7c0 1.3-.4 1.9-1.7 1.9-1.2 0-1.7-.6-1.7-1.9v-5.7h-1.7v5.5z" fill-rule="nonzero"/><path d="m134 30.4h1.7v-3.5h1.6c1.9 0 2.9-.9 2.9-2.6 0-1.8-1-2.6-3.1-2.6h-3.1zm1.7-4.9v-2.5h1.2c1.1 0 1.7.3 1.7 1.2s-.5 1.2-1.7 1.2h-1.2z"/><path d="m98.5 16.4h2.6c2.8 0 4.2-1.5 4.2-4.4s-1.4-4.4-4.1-4.4h-2.7zm1.7-1.4v-5.9h.9c1.8 0 2.6.9 2.6 2.9 0 2.1-.8 3-2.6 3z"/><path d="m107.5 16.4h5.9v-1.5h-4.3v-2.4h3v-1.4h-3v-2h4.1v-1.5h-5.7z" fill-rule="nonzero"/><path d="m115.4 13.2c0 2.3 1.1 3.4 3.3 3.4 2.1 0 3.3-1.1 3.3-3.1v-5.9h-1.6v5.7c0 1.3-.4 1.9-1.7 1.9-1.2 0-1.7-.6-1.7-1.9v-5.7h-1.7v5.6z" fill-rule="nonzero"/><path d="m126.2 16.4h1.7v-7.3h2.3v-1.5h-6.3v1.5h2.3z" fill-rule="nonzero"/><path d="m131.4 14.5c.6 1.4 1.7 2.1 3.3 2.1 1.9 0 3-1 3-2.6 0-1.4-.7-2-2.2-2.6-1.4-.6-2.3-.7-2.3-1.6 0-.6.4-.9 1.2-.9s1.2.4 1.6 1.1l1.5-.5c-.5-1.3-1.5-1.9-3-1.9-1.7 0-2.9 1-2.9 2.4 0 .8.4 1.5 1 1.9s1.3.6 2.1.9c.9.3 1.3.6 1.3 1.2 0 .7-.5 1.1-1.4 1.1-.8 0-1.3-.4-1.8-1.3z" fill-rule="nonzero"/><path d="m144.4 13.8c-.2.8-.9 1.3-1.7 1.3-1.3 0-1.8-1-1.8-3 0-2.1.6-3.2 1.8-3.2.8 0 1.3.4 1.5 1.3l1.5-.4c-.3-1.5-1.4-2.3-3-2.3-2.3 0-3.6 1.6-3.6 4.6s1.2 4.5 3.5 4.5c1.7 0 2.8-.8 3.3-2.4z" fill-rule="nonzero"/><path d="m147.8 16.4h1.7v-3.8h3.4v3.8h1.6v-8.8h-1.6v3.5h-3.4v-3.5h-1.7z" fill-rule="nonzero"/><path d="m157.2 16.4h5.9v-1.5h-4.3v-2.4h3v-1.4h-3v-2h4.1v-1.5h-5.7z" fill-rule="nonzero"/><path d="m169.3 16.4h3.1c2.2 0 3.3-.8 3.3-2.5 0-1.1-.5-1.8-1.5-2.1.9-.4 1.3-1 1.3-1.9 0-1.5-1-2.3-3-2.3h-3.2zm1.6-1.3v-2.6h1.4c1.1 0 1.7.4 1.7 1.3s-.5 1.3-1.7 1.3zm0-3.9v-2.2h1.3c1.1 0 1.6.3 1.6 1.1 0 .7-.5 1.1-1.5 1.1z"/><path d="m179.4 6.6h1.3v-1.5h-1.3zm2 0h1.3v-1.5h-1.3zm-4 5.4c0 2.9 1.4 4.5 3.7 4.5s3.7-1.7 3.7-4.5c0-2.9-1.4-4.5-3.7-4.5s-3.7 1.7-3.7 4.5zm1.7 0c0-2 .7-3.1 2-3.1s2 1 2 3.1c0 2-.7 3-2 3-1.3.1-2-.9-2-3z"/><path d="m186.8 16.4h1.6v-3.5h1.5l1.7 3.6h1.8l-2-4c1-.3 1.6-1.1 1.6-2.2 0-1.8-1.1-2.6-3.3-2.6h-3v8.7zm1.6-4.9v-2.5h1.4c1 0 1.6.4 1.6 1.2s-.5 1.2-1.6 1.2h-1.4z"/><g fill-rule="nonzero"><path d="m194.8 14.5c.6 1.4 1.7 2.1 3.3 2.1 1.9 0 3-1 3-2.6 0-1.4-.7-2-2.2-2.6-1.4-.6-2.3-.7-2.3-1.6 0-.6.4-.9 1.2-.9s1.2.4 1.6 1.1l1.5-.5c-.5-1.3-1.5-1.9-3-1.9-1.7 0-2.9 1-2.9 2.4 0 .8.4 1.5 1 1.9s1.3.6 2.1.9c.9.3 1.3.6 1.3 1.2 0 .7-.5 1.1-1.4 1.1-.8 0-1.3-.4-1.8-1.3z"/><path d="m203.2 16.4h5.9v-1.5h-4.2v-2.4h3v-1.4h-3v-2h4.1v-1.5h-5.8z"/><path d="m9.2 23.5-9.2 5.3v5.6l14.2-8.1z"/><path d="m24 25.5-4.2-2.4h-9.9l9.2 5.2z"/><path d="m39 17.8-19.1 10.9h9.9l14-8z"/><path d="m53.8 19.8-4.3-2.4h-9.9l9.2 5.3z"/><path d="m83.3 9.4-23.9 13.7h-9.8l33.7-19.3z"/><path d="m90.1 0h1.5v38h-1.5z"/></g></g></svg>