<?xml version="1.0" encoding="utf-8"?>
<!-- Generator: Adobe Illustrator 26.5.0, SVG Export Plug-In . SVG Version: 6.00 Build 0)  -->
<svg version="1.1" id="Layer_1" xmlns="http://www.w3.org/2000/svg" xmlns:xlink="http://www.w3.org/1999/xlink" x="0px" y="0px"
	 viewBox="0 0 500 500" style="enable-background:new 0 0 500 500;" xml:space="preserve">
<style type="text/css">
	.st0{fill-rule:evenodd;clip-rule:evenodd;fill:#FFFFFF;}
	.st1{fill-rule:evenodd;clip-rule:evenodd;fill:#1A8CFF;}
	.st2{opacity:0.5;enable-background:new    ;}
	.st3{fill-rule:evenodd;clip-rule:evenodd;fill-opacity:0.0524;}
	.st4{opacity:0.2561;enable-background:new    ;}
	.st5{fill-opacity:0.25;}
	.st6{fill-rule:evenodd;clip-rule:evenodd;fill:#F7F7F7;}
	.st7{fill-rule:evenodd;clip-rule:evenodd;fill-opacity:0.05;}
	.st8{fill:#FFFFFF;}
	.st9{fill-opacity:0.15;}
	.st10{fill-rule:evenodd;clip-rule:evenodd;fill:#0A2D4D;}
	.st11{fill-opacity:0.4;}
</style>
<g id="_x31_Password-logo-2020-_x2F_-coloured-_x2F_-light-bg-_x2F_-116px" transform="translate(421.000000, 12.000000)">
	<g>
		<g id="lock">
			<g id="Chrome">
				<path id="chrome" class="st0" d="M-412.38,238c0,133.31,108.07,241.38,241.38,241.38S70.38,371.31,70.38,238
					C70.38,104.69-37.69-3.38-171-3.38S-412.38,104.69-412.38,238z"/>
				<path id="color" class="st1" d="M-171,48.34c104.74,0,189.66,84.91,189.66,189.66c0,104.75-84.91,189.66-189.66,189.66
					S-360.66,342.75-360.66,238C-360.66,133.26-275.74,48.34-171,48.34"/>
				<path id="chrome_00000070840182762510599370000009911911290531058325_" class="st2" d="M-421,238c0,138.08,111.93,250,250,250
					S79,376.08,79,238C79,99.93-32.93-12-171-12S-421,99.93-421,238L-421,238z M-412.38,238L-412.38,238
					C-412.38,104.7-304.33-3.38-171-3.38S70.38,104.7,70.38,238c0,133.3-108.05,241.38-241.38,241.38S-412.38,371.3-412.38,238
					L-412.38,238z"/>
				<path id="shadows" class="st3" d="M70.04,225.07c0.23,4.28,0.34,8.59,0.34,12.93c0,133.31-108.07,241.38-241.38,241.38
					S-412.38,371.31-412.38,238c0-4.34,0.11-8.65,0.34-12.93c6.72,127.3,112.07,228.45,241.04,228.45
					c127.98,0,232.69-99.6,240.87-225.51L70.04,225.07z M-171,22.48c116.65,0,211.21,94.56,211.21,211.21
					c0,65.21-29.55,123.52-76,162.27c38.81-36.19,63.07-87.78,63.07-145.02C27.28,141.43-61.5,52.66-171,52.66
					s-198.28,88.77-198.28,198.28c0,57.25,24.26,108.83,63.07,145.02c-46.44-38.74-76-97.05-76-162.27
					C-382.21,117.04-287.65,22.48-171,22.48z"/>
			</g>
			<path id="inside-shadow-outer" class="st4" d="M-171,48.34c104.76,0,189.66,84.93,189.66,189.66
				c0,104.73-84.9,189.66-189.66,189.66c-103.71,0-187.96-83.23-189.63-186.52l-0.03-3.14C-360.66,133.27-275.76,48.34-171,48.34z
				 M-171,56.97c-99.98,0-181.03,81.05-181.03,181.03c0,99.99,81.05,181.03,181.03,181.03S10.03,337.99,10.03,238
				C10.03,138.02-71.02,56.97-171,56.97z"/>
			<path id="inside-shadow" class="st5" d="M-170.04,87.14c-84.28,0-151.82,67.54-151.82,151.82c0,82.67,67.86,149.9,151.82,149.9
				c82.36,0,149.9-67.54,149.9-149.9C-20.14,155-87.37,87.14-170.04,87.14z M-170.05,95.76c77.6,0,141.29,63.68,141.29,143.2
				c0,77.61-63.68,141.29-141.29,141.29c-79.51,0-143.2-63.68-143.2-141.29C-313.24,159.44-249.56,95.76-170.05,95.76z"/>
			<path id="inside" class="st6" d="M-170.05,95.76c77.6,0,141.29,63.68,141.29,143.2c0,77.61-63.68,141.29-141.29,141.29
				c-79.51,0-143.2-63.68-143.2-141.29C-313.24,159.44-249.56,95.76-170.05,95.76L-170.05,95.76z"/>
			<g id="bevel" transform="translate(41.000000, 41.000000)">
				<path class="st7" d="M-147.34,197c0,35.71-28.95,64.66-64.66,64.66s-64.66-28.95-64.66-64.66s28.95-64.66,64.66-64.66
					S-147.34,161.29-147.34,197z"/>
				<path id="bevel-outside" class="st8" d="M-212,123.72c-40.47,0-73.28,32.81-73.28,73.28s32.81,73.28,73.28,73.28
					s73.28-32.81,73.28-73.28S-171.53,123.72-212,123.72z M-212,132.34c35.71,0,64.66,28.95,64.66,64.66s-28.95,64.66-64.66,64.66
					s-64.66-28.95-64.66-64.66S-247.71,132.34-212,132.34z"/>
				<path id="bevel-inside" class="st9" d="M-212,132.34c35.71,0,64.66,28.95,64.66,64.66s-28.95,64.66-64.66,64.66
					s-64.66-28.95-64.66-64.66S-247.71,132.34-212,132.34z M-212,140.97c-30.95,0-56.03,25.09-56.03,56.03s25.09,56.03,56.03,56.03
					s56.03-25.09,56.03-56.03S-181.05,140.97-212,140.97z"/>
			</g>
		</g>
		<g id="keyhole" transform="translate(48.000000, 32.000000)">
			<path id="keyhole-outer" class="st8" d="M-194.96,93.93h-48.08c-10.66,0-19.07,9.33-19.07,20.57v46.52
				c0,4.23,1.53,8.32,4.29,11.39l7.07,7.84c0.16,0.18,0.16,0.7,0,0.88l-7.07,7.84c-2.77,3.07-4.29,7.16-4.29,11.39v97.15
				c0,11.24,8.41,20.57,19.07,20.57h48.08c10.66,0,19.07-9.33,19.07-20.57v-46.52c0-4.23-1.53-8.32-4.29-11.39l-7.07-7.84
				c-0.16-0.18-0.16-0.7,0-0.88l7.07-7.84c2.77-3.07,4.29-7.16,4.29-11.39V114.5C-175.9,103.26-184.31,93.93-194.96,93.93z
				 M-195.51,102.71c6.07,0,10.99,5.58,10.99,12.46v96.44c0,2.2-0.77,4.31-2.15,5.87l-6.87,7.79c-2.86,3.24-2.86,8.5,0,11.74
				l6.87,7.79c1.37,1.56,2.15,3.67,2.15,5.87v46.16c0,6.88-4.92,12.46-10.99,12.46h-46.98c-6.07,0-10.99-5.58-10.99-12.46v-96.44
				c0-2.2,0.77-4.31,2.15-5.87l6.87-7.79c2.86-3.24,2.86-8.5,0-11.74l-6.87-7.79c-1.37-1.56-2.15-3.67-2.15-5.87v-46.16
				c0-6.88,4.92-12.46,10.99-12.46H-195.51z"/>
			<path class="st10" d="M-253.48,161.26v-46.23c0-6.89,4.92-12.48,10.99-12.48h46.98c6.07,0,10.99,5.59,10.99,12.48v96.59
				c0,2.21-0.77,4.32-2.15,5.88l-6.87,7.8c-2.86,3.25-2.86,8.51,0,11.76l6.87,7.8c1.37,1.56,2.15,3.68,2.15,5.88v46.23
				c0,6.89-4.92,12.48-10.99,12.48h-46.98c-6.07,0-10.99-5.59-10.99-12.48v-96.59c0-2.21,0.77-4.32,2.15-5.88l6.87-7.8
				c2.86-3.25,2.86-8.51,0-11.76l-6.87-7.8C-252.71,165.58-253.48,163.47-253.48,161.26z"/>
			<path id="keyhole-shadow" class="st11" d="M-195.51,102.55c6.07,0,10.99,5.59,10.99,12.48v96.59c0,2.21-0.77,4.32-2.15,5.88
				l-6.87,7.8c-2.86,3.25-2.86,8.51,0,11.76l6.87,7.8c1.37,1.56,2.15,3.68,2.15,5.88v46.23c0,6.89-4.92,12.48-10.99,12.48h-46.98
				c-6.07,0-10.99-5.59-10.99-12.48v-96.59c0-2.21,0.77-4.32,2.15-5.88l6.87-7.8c2.86-3.25,2.86-8.51,0-11.76l-6.87-7.8
				c-1.37-1.56-2.15-3.68-2.15-5.88v-46.23c0-6.89,4.92-12.48,10.99-12.48H-195.51z M-196.75,111.41l-44.5-0.06
				c-1.74,0-3.38,1.63-3.59,3.95l-0.02,0.51v45.82c0,0.13,0.03,0.25,0.07,0.34l0.06,0.1l7.2,7.73c5.63,6.05,5.82,15.52,0.58,21.8
				l-0.58,0.66l-7.2,7.73c-0.04,0.04-0.08,0.13-0.11,0.25l-0.02,0.19v95.77c0,2.41,1.52,4.2,3.24,4.43l0.37,0.02l44.5,0.06
				c1.74,0,3.38-1.63,3.59-3.95l0.02-0.51v-45.82c0-0.13-0.03-0.25-0.07-0.34l-0.06-0.1l-7.2-7.73c-5.63-6.05-5.82-15.52-0.58-21.8
				l0.58-0.66l7.2-7.73c0.04-0.04,0.08-0.13,0.11-0.25l0.02-0.19v-95.77c0-2.41-1.52-4.2-3.24-4.43L-196.75,111.41z"/>
		</g>
	</g>
</g>
</svg>
