<svg width="58" height="48" viewBox="0 0 58 48" fill="none" xmlns="http://www.w3.org/2000/svg">
<rect width="58" height="48" fill="white"/>
<path d="M40.7205 27.5456L35.3958 8H23.441V13.238C21.8833 10.0989 18.1208 8.21545 12.8743 8.21545C6.7105 8.21545 1.21401 11.2202 0.919431 18.2744H8.806C9.05818 16.0967 10.5668 15.0102 12.6221 15.0102C14.3404 15.0102 16.0588 15.7469 16.0588 17.7531C16.0588 20.6235 13.1666 20.8852 10.8591 20.8852V26.2437C12.9546 26.2437 16.311 26.5472 16.311 29.6399C16.311 31.4237 14.9675 33.2099 12.4123 33.2099C9.68749 33.2099 8.21908 31.5094 8.21908 28.6831H0C0 36.2146 5.07472 40 11.9526 40C17.3085 40 21.3522 38.3088 23.4432 35.0377V39.3513H32.3363V28.7248C32.3363 26.1973 31.9993 21.9764 31.707 19.2335H31.7918L37.2838 39.349H44.1617L49.6537 19.2335H49.7385C49.3614 22.8451 49.1092 26.2437 49.1092 29.7673V39.3467H58V8H46.0496L40.7205 27.5456ZM23.441 24.71C22.7559 23.9154 21.8722 23.2784 20.801 22.8451C22.0195 22.2243 22.8831 21.381 23.441 20.3408V24.71Z" fill="#24292E"/>
</svg>
