<svg width="156" height="48" viewBox="0 0 156 48" fill="none" xmlns="http://www.w3.org/2000/svg">
<mask id="mask0_2_54" style="mask-type:alpha" maskUnits="userSpaceOnUse" x="0" y="6" width="156" height="35">
<path d="M156 6H0V41H156V6Z" fill="white"/>
</mask>
<g mask="url(#mask0_2_54)">
<path d="M82.0419 27.1458C78.0945 27.1458 74.9664 30.1354 74.9664 34.0729C74.9664 38.0104 78.169 41 82.0419 41C85.9893 41 89.1175 37.9375 89.1175 34.0729C89.1175 30.1354 85.9893 27.1458 82.0419 27.1458ZM82.0419 29.9167C84.4253 29.9167 86.2128 31.6667 86.2128 34.0729C86.2128 36.4792 84.3508 38.2292 82.0419 38.2292C79.6586 38.2292 77.8711 36.4792 77.8711 34.0729C77.7966 31.6667 79.6586 29.9167 82.0419 29.9167ZM140.955 36.5521V30.2083H144.307V27.4375H140.955V23.7188L138.05 24.5938V27.4375H135.593V30.2083H138.05V36.5521C138.05 39.9792 139.838 41.2188 144.307 40.6354V38.0833C142.072 38.2292 140.955 38.2292 140.955 36.5521ZM156 38.0104H149.371L156 30.2083V27.5833H145.722V30.2083H152.351L145.722 38.0104V40.7083H156V38.0104ZM97.3102 27.2917V30.3542C95.3737 30.2083 93.1394 31.0833 93.1394 34.0729V40.7083H90.2347V27.5104H93.1394V29.6979C93.9586 27.9479 95.5972 27.2917 97.3102 27.2917ZM104.311 27.1458C100.364 27.1458 97.2357 30.1354 97.2357 34.0729C97.2357 38.0104 100.438 41 104.311 41C108.259 41 111.387 37.9375 111.387 34.0729C111.461 30.1354 108.333 27.1458 104.311 27.1458ZM104.311 29.9167C106.695 29.9167 108.482 31.6667 108.482 34.0729C108.482 36.4792 106.62 38.2292 104.311 38.2292C101.928 38.2292 100.14 36.4792 100.14 34.0729C100.14 31.6667 102.002 29.9167 104.311 29.9167ZM130.603 27.5104L126.357 40.7083H123.527L120.697 31.8125L117.867 40.7083H115.036L110.791 27.5104H113.845L116.451 36.625L119.282 27.5104H122.037L124.868 36.625L127.474 27.5104H130.603ZM134.475 27.5104H131.571V40.7083H134.475V27.5104ZM39.961 6.875V12.3438C38.8438 11.5417 37.2798 10.8854 35.7902 10.8854C31.6193 10.8854 28.2678 14.4583 28.7146 18.6146C29.087 21.8229 31.7683 24.4479 35.0454 24.8125C36.9074 24.9583 38.6204 24.4479 39.961 23.5V24.5208H42.9402V6L39.961 6.875ZM39.8866 17.8854C39.8866 20.4375 37.5032 22.4063 34.822 21.8229C33.2579 21.5313 31.9917 20.2917 31.6193 18.6875C31.098 16.0625 33.1834 13.7292 35.7902 13.7292C38.0246 13.7292 39.8866 15.5521 39.8866 17.8854ZM11.212 11.3229V12.1979C10.0948 11.3958 8.60519 10.8854 7.11561 10.8854C2.94476 10.8854 -0.406818 14.4583 0.0400587 18.6146C0.412456 21.8229 3.09372 24.4479 6.37081 24.8125C8.2328 24.9583 9.94582 24.4479 11.2865 23.5V24.5208H14.2656V11.3229H11.212ZM11.212 17.8854C11.212 20.4375 8.82863 22.4063 6.14737 21.8229C4.5833 21.5313 3.31715 20.2917 2.94476 18.6875C2.4234 16.0625 4.50883 13.7292 7.11561 13.7292C9.34999 13.7292 11.212 15.5521 11.212 17.8854ZM22.4584 10.9583C20.5964 10.9583 19.1813 11.6146 18.2875 13V11.25H15.3828V24.4479H18.2875V17.375C18.2875 14.6771 19.7771 13.5833 21.7136 13.5833C23.5756 13.5833 24.6928 14.6042 24.6928 16.6458V24.4479H27.5975V16.4271C27.6719 13 25.512 10.9583 22.4584 10.9583ZM76.6049 20.5833C75.9346 21.5312 74.7429 22.1875 73.1044 22.1875C70.9445 22.1875 69.2315 21.1667 68.7846 19.0521H79.5096C79.5841 18.6875 79.5841 18.25 79.5841 17.8854C79.5841 14.0938 76.8284 10.9583 72.8065 10.9583C68.5611 10.9583 65.7309 14.0208 65.7309 17.8854C65.7309 21.8229 68.6356 24.8125 73.0299 24.8125C75.6367 24.8125 77.7221 23.7188 78.9138 21.9688L76.6049 20.5833ZM72.881 13.5833C74.6685 13.5833 76.307 14.5313 76.7539 16.7917H68.7846C69.2315 14.8229 70.721 13.5833 72.881 13.5833ZM109.897 22.2604C111.536 22.2604 112.727 21.5312 113.398 20.6562L115.781 22.0417C114.515 23.8646 112.504 24.8854 109.897 24.8854C105.428 24.8854 102.598 21.8958 102.598 17.9583C102.598 14.0208 105.503 11.0312 109.674 11.0312C113.696 11.0312 116.451 14.1667 116.451 17.9583C116.451 18.1042 116.451 18.3229 116.377 18.5417C116.377 18.7604 116.302 18.9062 116.302 19.125H105.577C106.024 21.1667 107.737 22.2604 109.897 22.2604ZM113.472 16.7917C113.1 14.5313 111.387 13.5833 109.599 13.5833C107.439 13.5833 105.95 14.8229 105.503 16.7917H113.472ZM134.475 24.5208H131.571V21.9688H134.475V24.5208ZM117.867 24.5208H120.771V17.4479C120.771 14.75 122.261 13.6562 124.197 13.6562C125.985 13.6562 127.176 14.75 127.176 16.7188V24.4479H130.081V16.3542C130.081 12.9271 127.921 10.9583 124.942 10.9583C123.08 10.9583 121.665 11.6146 120.771 13V11.3229H117.867V24.5208ZM83.457 14.9688C83.457 14.0208 84.3508 13.5833 85.3935 13.5833C86.4362 13.5833 87.33 14.0208 87.8513 14.8958L90.3836 13.6562C89.4154 11.9792 87.6279 10.9583 85.3935 10.9583C82.6378 10.9583 80.4779 12.4896 80.4779 14.9688C80.4779 17.7396 82.8612 18.3958 84.9466 18.9792H85.0211C85.0956 18.9792 85.1701 19.0521 85.2445 19.0521C86.6596 19.4896 87.7024 19.7813 87.7024 20.7292C87.7024 21.75 86.7341 22.1875 85.3935 22.1875C84.1273 22.1875 83.0846 21.6771 82.5633 20.7292L79.9565 21.9688C80.8503 23.7188 82.7867 24.8125 85.319 24.8125C88.2237 24.8125 90.6071 23.3542 90.6071 20.7292C90.6071 17.8854 88.0748 17.1562 86.0638 16.6458C84.7232 16.2812 83.457 15.9167 83.457 14.9688ZM94.7034 14.9688C94.7034 14.0208 95.5972 13.5833 96.6399 13.5833C97.6826 13.5833 98.5764 14.0208 99.1722 14.9688L101.704 13.7292C100.736 12.0521 98.8743 11.0312 96.7144 11.0312C93.9586 11.0312 91.7987 12.5625 91.7987 15.0417C91.7987 17.8125 94.1821 18.4687 96.2675 19.0521H96.4909C97.8316 19.4896 99.0232 19.8542 99.0232 20.8021C99.0232 21.8229 97.9805 22.2604 96.7144 22.2604C95.3737 22.2604 94.4055 21.75 93.8841 20.8021L91.2774 22.0417C92.1711 23.7917 94.0331 24.8854 96.6399 24.8854C99.6191 24.8854 101.928 23.4271 101.928 20.8021C101.928 17.9583 99.5446 17.3021 97.4592 16.7188H97.3847C97.2357 16.7188 97.1612 16.6458 97.0123 16.6458C95.7461 16.2083 94.7034 15.9167 94.7034 14.9688ZM51.2074 14.1667V11.1042C49.4944 11.1042 47.8559 11.7604 47.0366 13.5104V11.3229H44.1319V24.5208H47.0366V17.8854C47.0366 14.8958 49.271 14.0208 51.2074 14.1667ZM64.5393 21.9688V29.1875C65.433 27.8021 66.8481 27.1458 68.7101 27.1458C71.6893 27.1458 73.8492 29.1146 73.8492 32.5417V40.7083H70.9445V32.9062C70.9445 30.9375 69.7528 29.8438 67.9653 29.8438C66.0288 29.8438 64.5393 30.9375 64.5393 33.6354V40.7083H61.6346V24.3021C60.7408 24.6667 59.7726 24.8854 58.6554 24.8854C54.1866 24.8854 51.3564 21.8958 51.3564 17.9583C51.3564 14.0208 54.2611 11.0312 58.4319 11.0312C62.4538 11.0312 65.2096 14.1667 65.2096 17.9583C65.2096 18.1042 65.2096 18.3229 65.1351 18.5417C65.1351 18.7604 65.0606 18.9062 65.0606 19.125H54.3356C54.7824 21.1667 56.4955 22.2604 58.6554 22.2604C59.9215 22.2604 60.8898 21.8229 61.6346 21.2396C61.858 21.0937 62.007 20.875 62.1559 20.6562L64.5393 21.9688ZM62.2304 16.7917C61.7835 14.5313 60.145 13.5833 58.3575 13.5833C56.1976 13.5833 54.708 14.8229 54.3356 16.7917H62.2304Z" fill="#25292F"/>
</g>
</svg>
