<svg width="355" height="78" viewBox="0 0 355 78" fill="none" xmlns="http://www.w3.org/2000/svg"><mask id="a" maskUnits="userSpaceOnUse" x=".941" y=".114" width="355" height="78" fill="#000"><path fill="#fff" d="M.941.114h355v78h-355z"/><path fill-rule="evenodd" clip-rule="evenodd" d="M13.082 6.533A5.419 5.419 0 0118.5 1.114h320.052a5.42 5.42 0 015.419 5.42v15.94c0 3.084 2.5 5.535 5.065 7.248A11.13 11.13 0 01354 38.994c0 3.868-1.971 7.275-4.963 9.273-2.565 1.712-5.065 4.163-5.065 7.248v15.94a5.42 5.42 0 01-5.419 5.419H18.501a5.419 5.419 0 01-5.42-5.42v-15.32c0-3.313-2.87-5.872-5.714-7.574a11.135 11.135 0 01-5.426-9.566c0-4.064 2.176-7.62 5.426-9.565 2.843-1.703 5.715-4.262 5.715-7.575V6.534z"/></mask><path fill-rule="evenodd" clip-rule="evenodd" d="M13.082 6.533A5.419 5.419 0 0118.5 1.114h320.052a5.42 5.42 0 015.419 5.42v15.94c0 3.084 2.5 5.535 5.065 7.248A11.13 11.13 0 01354 38.994c0 3.868-1.971 7.275-4.963 9.273-2.565 1.712-5.065 4.163-5.065 7.248v15.94a5.42 5.42 0 01-5.419 5.419H18.501a5.419 5.419 0 01-5.42-5.42v-15.32c0-3.313-2.87-5.872-5.714-7.574a11.135 11.135 0 01-5.426-9.566c0-4.064 2.176-7.62 5.426-9.565 2.843-1.703 5.715-4.262 5.715-7.575V6.534z" fill="#24292F"/><path d="M7.367 29.429l-.513-.858.513.858zm341.67 18.838l.556.831-.556-.831zm0-18.545l.556-.832-.556.832zM18.501.114a6.419 6.419 0 00-6.42 6.42h2a4.419 4.419 0 014.42-4.42v-2zm320.052 0H18.501v2h320.052v-2zm6.419 6.42a6.419 6.419 0 00-6.419-6.42v2a4.42 4.42 0 014.419 4.42h2zm0 15.94V6.534h-2v15.94h2zm3.51 8.08a10.13 10.13 0 014.518 8.44h2a12.13 12.13 0 00-5.407-10.104l-1.111 1.663zm4.518 8.44c0 3.52-1.792 6.62-4.518 8.44l1.111 1.664A12.13 12.13 0 00355 38.994h-2zm-8.028 32.46v-15.94h-2v15.94h2zm-6.419 6.42a6.42 6.42 0 006.419-6.42h-2a4.42 4.42 0 01-4.419 4.42v2zm-320.052 0h320.052v-2H18.501v2zm-6.42-6.42a6.419 6.419 0 006.42 6.42v-2a4.419 4.419 0 01-4.42-4.42h-2zm0-15.32v15.32h2v-15.32h-2zM.942 38.995c0 4.43 2.373 8.304 5.913 10.424l1.027-1.716a10.135 10.135 0 01-4.94-8.708h-2zm5.913-10.423A12.135 12.135 0 00.94 38.994h2c0-3.698 1.979-6.934 4.94-8.707L6.854 28.57zm5.228-22.038v15.32h2V6.534h-2zm-4.2 23.753c1.473-.882 3.002-2.013 4.172-3.394 1.174-1.386 2.028-3.075 2.028-5.038h-2c0 1.35-.582 2.597-1.554 3.745-.977 1.153-2.305 2.152-3.674 2.972l1.027 1.715zm6.2 25.849c0-1.964-.854-3.653-2.028-5.038-1.17-1.381-2.699-2.513-4.173-3.395l-1.027 1.716c1.369.82 2.697 1.819 3.674 2.971.972 1.148 1.554 2.396 1.554 3.746h2zm334.4-8.7c-2.594 1.732-5.51 4.445-5.51 8.08h2c0-2.534 2.084-4.724 4.621-6.417l-1.111-1.663zm-5.51-24.962c0 3.636 2.916 6.349 5.51 8.08l1.111-1.663c-2.537-1.693-4.621-3.883-4.621-6.416h-2z" fill="#000" fill-opacity=".3" mask="url(#a)"/><circle cx="11.968" cy="38.993" r="4.456" fill="#6E7681"/><circle cx="342.857" cy="38.993" r="4.456" fill="#2188FF"/><path d="M70.118 46.161a2.25 2.25 0 00-1.117.275 2.61 2.61 0 00-.836.741l-.005-.143-.042-.767h-.932v5.726h.985V48.32c.063-.176.142-.335.238-.476a1.546 1.546 0 01.852-.62c.194-.06.41-.09.65-.09.188 0 .366.011.535.033.173.017.355.047.545.09l.133-.958a1.743 1.743 0 00-.445-.1 4.444 4.444 0 00-.56-.038zm6.53 5.832h.89v-5.726h-.985v4.107c-.053.123-.12.238-.201.344-.078.102-.17.19-.275.264a1.524 1.524 0 01-.45.217 2.14 2.14 0 01-.587.074c-.187 0-.353-.025-.498-.074a.788.788 0 01-.36-.26 1.2 1.2 0 01-.222-.486 3.367 3.367 0 01-.074-.773v-3.413h-.98v3.403c0 .427.047.794.138 1.1.096.304.23.554.403.752.173.197.38.344.624.44.244.09.515.137.815.137.374 0 .704-.078.99-.233.285-.159.524-.38.714-.662l.058.789zm2.736 0h.98v-4.107c.066-.123.144-.236.232-.338.092-.103.19-.193.296-.27a1.66 1.66 0 01.43-.207c.154-.052.322-.079.502-.079.208 0 .391.025.55.074.162.05.3.129.413.238.11.11.192.252.249.429.056.176.084.392.084.646v3.614h.98v-3.636c0-.38-.048-.709-.144-.984a1.777 1.777 0 00-.397-.688 1.56 1.56 0 00-.63-.397 2.47 2.47 0 00-.814-.127 2.217 2.217 0 00-1.185.36c-.113.074-.221.162-.323.265-.1.099-.19.208-.275.328l-.07-.847h-.878v5.726zm8.478-.635c0 .205.063.38.19.524.13.14.323.212.577.212.25 0 .443-.071.577-.212a.731.731 0 00.201-.524.757.757 0 00-.201-.535c-.13-.148-.323-.222-.577-.222-.257 0-.45.074-.577.222a.794.794 0 00-.19.535zm0-4.636c0 .205.063.38.19.524.13.141.323.212.577.212.25 0 .443-.07.577-.212a.731.731 0 00.201-.524.757.757 0 00-.201-.534c-.13-.149-.323-.223-.577-.223-.257 0-.45.074-.577.223a.794.794 0 00-.19.534z" fill="#D1D5DA"/><path d="M102.674 51.993h1.021v-.085a2.706 2.706 0 01-.148-.555 3.803 3.803 0 01-.053-.609v-2.662c0-.32-.058-.601-.174-.841a1.75 1.75 0 00-.477-.603 2.07 2.07 0 00-.725-.355 3.222 3.222 0 00-.905-.122c-.356 0-.675.05-.957.148-.28.1-.516.228-.71.387a1.78 1.78 0 00-.455.545 1.395 1.395 0 00-.158.614h.984c0-.12.028-.235.085-.344a.876.876 0 01.248-.291c.106-.081.235-.147.387-.196.155-.05.329-.074.523-.074.209 0 .396.026.561.08.17.052.313.126.429.221a1.031 1.031 0 01.365.82v.45h-1.069c-.398 0-.76.04-1.085.117a2.514 2.514 0 00-.825.35c-.23.158-.408.355-.535.592a1.76 1.76 0 00-.185.825c0 .24.046.464.138.672.095.205.229.381.402.53.17.151.376.271.619.36.247.088.522.132.826.132.187 0 .363-.02.529-.058a2.326 2.326 0 00.868-.392c.123-.088.234-.182.333-.28.011.12.026.236.048.349.024.11.056.2.095.275zm-1.731-.746a1.55 1.55 0 01-.502-.074.99.99 0 01-.36-.207.825.825 0 01-.217-.307 1.09 1.09 0 01-.069-.391.95.95 0 01.08-.397.866.866 0 01.243-.302 1.44 1.44 0 01.598-.264c.254-.06.55-.09.889-.09h.91v1.159a1.384 1.384 0 01-.233.328 1.7 1.7 0 01-.349.275 2.042 2.042 0 01-.455.196c-.166.05-.344.074-.535.074zm4.292-2.165v.111c0 .41.055.793.164 1.149.11.353.263.66.461.92.197.262.435.466.714.614.282.149.596.223.942.223.353 0 .662-.06.926-.18.265-.12.492-.296.683-.53l.042.604h.9v-8.129h-.979v2.97a1.846 1.846 0 00-.667-.498 2.127 2.127 0 00-.894-.175c-.35 0-.665.073-.948.217a2.106 2.106 0 00-.719.603 2.815 2.815 0 00-.466.927 4.108 4.108 0 00-.159 1.174zm.979.111v-.11c0-.28.03-.544.09-.794.06-.254.154-.479.281-.672.123-.191.282-.343.476-.456.197-.113.434-.169.709-.169.321 0 .589.076.804.228.216.148.387.338.514.571v2.657a1.57 1.57 0 01-.514.598c-.215.148-.486.222-.815.222-.271 0-.504-.055-.698-.164a1.394 1.394 0 01-.476-.455 2.037 2.037 0 01-.281-.662c-.06-.25-.09-.515-.09-.794zm5.53-.11v.11c0 .41.055.793.164 1.149.11.353.263.66.461.92.197.262.435.466.714.614.282.149.596.223.942.223.353 0 .662-.06.926-.18.265-.12.492-.296.683-.53l.042.604h.9v-8.129h-.979v2.97a1.837 1.837 0 00-.667-.498 2.127 2.127 0 00-.894-.175c-.35 0-.665.073-.948.217a2.106 2.106 0 00-.719.603 2.815 2.815 0 00-.466.927 4.108 4.108 0 00-.159 1.174zm.979.11v-.11c0-.28.03-.544.09-.794.06-.254.154-.479.281-.672.123-.191.282-.343.476-.456.198-.113.434-.169.709-.169.321 0 .589.076.804.228.216.148.387.338.514.571v2.657a1.57 1.57 0 01-.514.598c-.215.148-.486.222-.814.222-.272 0-.505-.055-.699-.164a1.394 1.394 0 01-.476-.455 2.037 2.037 0 01-.281-.662c-.06-.25-.09-.515-.09-.794z" fill="#959DA5"/><path d="M68.787 30l.844-2.434h3.592l.84 2.434h1.473l-3.31-9.196h-1.602L67.314 30h1.473zm1.248-3.602l1.356-3.924h.072l1.356 3.924h-2.784zm9.192 3.736c1.257 0 1.75-.768 1.993-1.208h.112V30h1.312v-9.196H81.3v3.417h-.08c-.243-.427-.701-1.208-1.986-1.208-1.665 0-2.891 1.315-2.891 3.552 0 2.231 1.208 3.57 2.883 3.57zm.296-1.145c-1.199 0-1.823-1.055-1.823-2.438 0-1.37.61-2.398 1.823-2.398 1.172 0 1.8.957 1.8 2.398 0 1.45-.642 2.438-1.8 2.438zm7.618 1.145c1.258 0 1.752-.768 1.994-1.208h.112V30h1.311v-9.196h-1.342v3.417h-.08c-.243-.427-.701-1.208-1.986-1.208-1.665 0-2.891 1.315-2.891 3.552 0 2.231 1.208 3.57 2.882 3.57zm.297-1.145c-1.199 0-1.823-1.055-1.823-2.438 0-1.37.61-2.398 1.823-2.398 1.172 0 1.8.957 1.8 2.398 0 1.45-.642 2.438-1.8 2.438zm11.602-5.886h-1.414V21.45h-1.343v1.653h-1.01v1.077h1.01v4.073c-.004 1.253.952 1.859 2.012 1.836a2.57 2.57 0 00.871-.143l-.242-1.11c-.09.019-.256.059-.472.059-.436 0-.826-.144-.826-.92V24.18h1.414v-1.077zm4.316 7.036c1.945 0 3.215-1.424 3.215-3.556 0-2.147-1.27-3.57-3.215-3.57-1.944 0-3.215 1.423-3.215 3.57 0 2.132 1.271 3.556 3.215 3.556zm.005-1.127c-1.271 0-1.863-1.11-1.863-2.434 0-1.32.592-2.443 1.863-2.443 1.262 0 1.854 1.123 1.854 2.443 0 1.325-.592 2.434-1.854 2.434zm8.055 3.574h1.343v-3.66h.081c.242.44.736 1.208 1.993 1.208 1.67 0 2.883-1.338 2.883-3.57 0-2.236-1.231-3.551-2.896-3.551-1.28 0-1.743.781-1.98 1.208h-.113v-1.118h-1.311v9.483zm1.316-6.035c0-1.441.628-2.398 1.8-2.398 1.217 0 1.828 1.029 1.828 2.398 0 1.383-.629 2.438-1.828 2.438-1.154 0-1.8-.988-1.8-2.438zM119.22 30h1.342v-4.212c0-.903.696-1.554 1.648-1.554.279 0 .593.05.701.081v-1.284a5.45 5.45 0 00-.57-.032c-.809 0-1.5.458-1.752 1.2h-.071v-1.096h-1.298v6.896zm7.511.139c1.944 0 3.215-1.424 3.215-3.556 0-2.147-1.271-3.57-3.215-3.57s-3.215 1.423-3.215 3.57c0 2.132 1.271 3.556 3.215 3.556zm.004-1.127c-1.27 0-1.863-1.11-1.863-2.434 0-1.32.593-2.443 1.863-2.443 1.262 0 1.855 1.123 1.855 2.443 0 1.325-.593 2.434-1.855 2.434zm4.709-5.91v7.337c0 .638-.265.988-.902.988h-.216v1.154c.095.005.18.005.274.005 1.428 0 2.187-.755 2.187-2.137v-7.346h-1.343zm.665-1.063c.462 0 .848-.36.848-.8 0-.44-.386-.803-.848-.803-.467 0-.849.363-.849.803 0 .44.382.8.849.8zm5.456 8.1c1.505 0 2.569-.741 2.874-1.864l-1.271-.229c-.242.651-.826.984-1.589.984-1.15 0-1.922-.746-1.958-2.075h4.903v-.476c0-2.492-1.49-3.466-3.053-3.466-1.922 0-3.188 1.464-3.188 3.583 0 2.142 1.248 3.543 3.282 3.543zm-1.939-4.19c.054-.978.763-1.827 1.854-1.827 1.042 0 1.724.772 1.729 1.827h-3.583zm9.293 4.19c1.63 0 2.685-.98 2.833-2.322h-1.306c-.171.746-.75 1.186-1.518 1.186-1.136 0-1.868-.948-1.868-2.452 0-1.477.746-2.407 1.868-2.407.853 0 1.374.54 1.518 1.186h1.306c-.143-1.392-1.279-2.317-2.846-2.317-1.945 0-3.202 1.464-3.202 3.57 0 2.079 1.213 3.556 3.215 3.556zm7.488-7.036h-1.414V21.45h-1.342v1.653h-1.011v1.077h1.011v4.073c-.005 1.253.951 1.859 2.011 1.836.427-.004.714-.085.871-.143l-.242-1.11c-.09.019-.256.059-.472.059-.435 0-.826-.144-.826-.92V24.18h1.414v-1.077zm5.315 2.429h-4.078v1.163h4.078v-1.163zm4.694 4.607c1.63 0 2.685-.98 2.833-2.322h-1.306c-.171.746-.75 1.186-1.518 1.186-1.136 0-1.868-.948-1.868-2.452 0-1.477.745-2.407 1.868-2.407.853 0 1.374.54 1.518 1.186h1.306c-.144-1.392-1.28-2.317-2.847-2.317-1.944 0-3.201 1.464-3.201 3.57 0 2.079 1.212 3.556 3.215 3.556zm7.174 0c1.944 0 3.215-1.424 3.215-3.556 0-2.147-1.271-3.57-3.215-3.57s-3.215 1.423-3.215 3.57c0 2.132 1.271 3.556 3.215 3.556zm.004-1.127c-1.27 0-1.863-1.11-1.863-2.434 0-1.32.593-2.443 1.863-2.443 1.262 0 1.855 1.123 1.855 2.443 0 1.325-.593 2.434-1.855 2.434zm6.052-8.208h-1.343V30h1.343v-9.196zm6.175 6.335c.005 1.172-.867 1.729-1.621 1.729-.831 0-1.405-.602-1.405-1.54v-4.225h-1.343v4.386c0 1.711.939 2.6 2.263 2.6 1.037 0 1.742-.547 2.061-1.284h.072V30h1.32v-6.897h-1.347v4.036zm3.151 2.86h1.343v-4.252c0-.93.651-1.576 1.414-1.576.745 0 1.262.494 1.262 1.244V30h1.338v-4.396c0-.831.507-1.433 1.383-1.433.709 0 1.293.396 1.293 1.33v4.498h1.342v-4.624c0-1.576-.88-2.362-2.128-2.362-.992 0-1.738.476-2.07 1.212h-.072c-.301-.754-.934-1.212-1.854-1.212-.912 0-1.59.453-1.877 1.212h-.085v-1.122h-1.289v6.896zm12.517-4.095c0-1.1.674-1.728 1.608-1.728.911 0 1.464.597 1.464 1.598V30h1.342v-4.387c0-1.707-.938-2.6-2.348-2.6-1.037 0-1.716.48-2.034 1.212h-.086v-1.122h-1.288v6.896h1.342v-4.095z" fill="#fff"/><g clip-path="url(#clip0)"><path fill-rule="evenodd" clip-rule="evenodd" d="M35.923 38.994a7.242 7.242 0 1114.483 0 7.242 7.242 0 01-14.483 0zm7.242-8.913a8.913 8.913 0 100 17.825 8.913 8.913 0 000-17.825zM44 35.373a.836.836 0 10-1.67 0v2.785h-2.786a.836.836 0 100 1.671h2.785v2.785a.836.836 0 101.671 0V39.83h2.786a.836.836 0 000-1.67H44v-2.786z" fill="#fff"/></g><defs><clipPath id="clip0"><path fill="#fff" transform="translate(34.252 30.08)" d="M0 0h17.826v17.826H0z"/></clipPath></defs></svg>