<svg fill="none" height="34" viewBox="0 0 34 34" width="34" xmlns="http://www.w3.org/2000/svg"><g stroke="#fff" stroke-linecap="round" stroke-width="2"><g opacity=".5"><path d="m14.2191 10.7373v12.5217"/><path clip-rule="evenodd" d="m14.2159 6.56543c1.1526 0 2.0869.93448 2.0869 2.08696 0 1.15247-.9343 2.08691-2.0869 2.08691s-2.087-.93444-2.087-2.08691c0-1.15248.9344-2.08696 2.087-2.08696z" fill-rule="evenodd"/><path clip-rule="evenodd" d="m14.2159 23.2622c1.1526 0 2.0869.9349 2.0869 2.087 0 1.1526-.9343 2.0869-2.0869 2.0869s-2.087-.9343-2.087-2.0869c0-1.1521.9344-2.087 2.087-2.087z" fill-rule="evenodd"/><path d="m14.2267 21.8724c-.0122-.6681.6334-2.7425 1.7574-3.4822.7132-.4693 1.7097-.8776 3.1065-1.229 1.4897-.3748 2.2477-1.2394 2.5747-2.0484"/><path clip-rule="evenodd" d="m21.8682 10.7378c1.1526 0 2.087.9345 2.087 2.0869 0 1.1525-.9344 2.087-2.087 2.087s-2.087-.9345-2.087-2.087c0-1.1524.9344-2.0869 2.087-2.0869z" fill-rule="evenodd"/><path d="m20.315 32.6561c-1.0695.2254-2.1784.3439-3.315.3439-8.83656 0-16.000001-7.1634-16.000001-16 0-8.83656 7.163441-16 16.000001-16 8.8366 0 16 7.16344 16 16 0 .9557-.0838 1.8919-.2444 2.8015" stroke-linejoin="round"/></g><g stroke-linejoin="round"><path d="m22.5 24h1 8"/><path d="m25 24v-1c0-.2652.1054-.5196.2929-.7071s.4419-.2929.7071-.2929h2c.2652 0 .5196.1054.7071.2929s.2929.4419.2929.7071v1m1.5 0v7c0 .2652-.1054.5196-.2929.7071s-.4419.2929-.7071.2929h-5c-.2652 0-.5196-.1054-.7071-.2929s-.2929-.4419-.2929-.7071v-7z"/></g></g></svg>