<svg aria-label="Linux" class="octicon mr-2 color-fg-muted flex-shrink-0 os-icon-linux" width="16" height="16" viewBox="0 0 32 32" fill="none" xmlns="http://www.w3.org/2000/svg">
  <title>Linux</title>
  <g clip-path="url(#clip0)"><path fill-rule="evenodd" clip-rule="evenodd" d="M29.3313 18.9379C29.921 19.9919 30.4634 21.0709 30.8837 22.2069C31.0806 22.7389 31.0392 23.2549 30.6691 23.7019C30.3069 24.1409 29.8373 24.0659 29.3628 23.9389C29.0719 23.8614 28.7805 23.7854 28.4887 23.7109C27.9974 23.5873 27.5077 23.4566 27.02 23.3189C26.7483 23.2409 26.6568 23.2929 26.5958 23.5759C26.2808 25.0359 25.701 26.3889 24.7973 27.5699C22.4978 30.5769 19.5378 32.0289 16.0009 31.9999C12.4631 32.0289 9.50404 30.5769 7.20355 27.5699C6.29891 26.3889 5.72108 25.0369 5.4051 23.5759C5.34406 23.2929 5.25252 23.2409 4.98181 23.3189C4.49455 23.4589 4.00334 23.5849 3.51214 23.7109C3.22077 23.7859 2.92939 23.8609 2.63801 23.9389C2.16354 24.0659 1.69498 24.1409 1.33175 23.7019C0.961621 23.2559 0.918309 22.7389 1.11715 22.2069C1.53847 21.0709 2.07987 19.9929 2.66853 18.9379C4.11932 16.3293 5.91438 13.9345 8.00385 11.8199C8.16627 11.6559 8.27554 11.4659 8.36512 11.2539C8.85337 10.0889 9.07387 8.85689 9.29634 7.62389C9.33177 7.43089 9.36524 7.23689 9.40166 7.04389C9.59952 5.97689 9.81806 4.91489 10.2679 3.92189C11.4334 1.33989 13.4534 0.0878934 15.6082 0.00189339H15.741C15.8277 -0.000106609 15.9143 -0.00110661 16.0009 0.00189339C16.0866 -0.00110661 16.1732 -0.000106609 16.2598 0.00189339H16.3927C18.5475 0.0888934 20.5665 1.33989 21.7339 3.92189C22.1818 4.91589 22.4004 5.97789 22.5992 7.04489L22.7075 7.63589C22.928 8.86489 23.1504 10.0939 23.6367 11.2549C23.7253 11.4649 23.8346 11.6559 23.998 11.8199C26.0868 13.9348 27.8815 16.3296 29.3323 18.9379H29.3313ZM16.0019 28.5199C17.6301 28.5159 19.1519 28.0509 20.5064 27.0459C22.7971 25.3459 23.7726 22.9909 23.5452 20.1639C23.3119 17.2739 22.1119 14.8159 19.9906 12.8489C19.3183 12.2269 18.5314 11.7463 17.6753 11.4349C17.6753 11.4349 17.5927 11.4029 17.4509 11.3579C17.5799 11.2799 17.7118 11.2049 17.8447 11.1339L18.5209 10.6889C18.9708 10.3919 19.4206 10.0959 19.8725 9.80189C20.1333 9.63289 20.3007 9.40989 20.2771 9.08889C20.2544 8.77089 20.0674 8.56289 19.7819 8.43789C17.2895 7.34489 14.7911 7.24289 12.2819 8.37989C11.9807 8.51589 11.7464 8.69989 11.7218 9.06389C11.6972 9.42589 11.9059 9.63889 12.1845 9.81889C12.659 10.1239 13.1295 10.4349 13.6 10.7459L14.1828 11.1299C14.3157 11.1999 14.4456 11.2739 14.5736 11.3519C14.419 11.3999 14.3275 11.4349 14.3275 11.4349C13.4714 11.7463 12.6845 12.2269 12.0122 12.8489C9.8909 14.8159 8.69094 17.2729 8.45863 20.1639C8.23026 22.9899 9.20676 25.3459 11.4964 27.0459C12.8509 28.0509 14.3728 28.5149 16.0019 28.5199V28.5199Z"></path></g><defs><clipPath id="clip0"><rect width="32" height="32" fill="white"></rect></clipPath></defs>
</svg>
