<svg fill="none" height="32" viewBox="0 0 153 32" width="153" xmlns="http://www.w3.org/2000/svg" xmlns:xlink="http://www.w3.org/1999/xlink"><clipPath id="a"><path d="m0 0h152.988v32h-152.988z"/></clipPath><g clip-path="url(#a)"><path d="m11.7131 16c0-2.1036 1.7052-3.8088 3.8088-3.8088s3.8088 1.7052 3.8088 3.8088-1.7052 3.8088-3.8088 3.8088-3.8088-1.7052-3.8088-3.8088zm3.8088-16c-7.47409 0-13.73704 5.11554-15.5059637 12.0319-.0159363.0478-.0159363.0956-.0159363.1593 0 .4144.334661.765.76494.765h6.45418c.30279 0 .57371-.1913.68526-.4462 1.32271-2.8845 4.23902-4.89247 7.61752-4.89247 4.6215 0 8.3825 3.76097 8.3825 8.38247s-3.761 8.3825-8.3825 8.3825c-3.3785 0-6.29481-2.008-7.61752-4.8925-.12749-.2549-.38247-.4462-.68526-.4462h-6.45418c-.414342 0-.76494.3347-.76494.765 0 .0478.0159363.0956.0159363.1593 1.7689237 6.9164 8.0318737 12.0319 15.5059637 12.0319 8.8287 0 16-7.1713 16-16 0-8.82869-7.1713-16-16-16zm41.8327 19.745h-2.1833c-.1593 0-.2868.0797-.3665.1913-1.259 1.8645-3.3944 3.0916-5.8327 3.0916-3.8884 0-7.0279-3.1554-7.0279-7.0279s3.1554-7.02789 7.0279-7.02789c2.4223 0 4.5578 1.22709 5.8327 3.09159.0797.1116.2231.1913.3665.1913h2.1833c.255 0 .4781-.2072.4781-.4622 0-.0797-.016-.1434-.0478-.2071-1.6255-3.21917-4.9562-5.41837-8.7969-5.41837-5.4342 0-9.8486 4.41437-9.8486 9.84857 0 5.4343 4.4144 9.8486 9.8486 9.8486 3.8407 0 7.1714-2.1992 8.7969-5.4183.0318-.0637.0478-.1275.0478-.2072 0-.2709-.2072-.494-.4781-.494zm6.5657-16.87647c0 1.03585-.8446 1.88047-1.8805 1.88047-1.0358 0-1.8804-.84462-1.8804-1.88047 0-1.03586.8446-1.880482 1.8804-1.880482 1.0518 0 1.8805.844622 1.8805 1.880482zm-.4621 22.03987v-18.27892h-2.8207v18.27892c0 .2549.2071.4621.4621.4621h1.8805c.2709 0 .4781-.2072.4781-.4621zm12.1912-18.74107c-2.8366.12749-5.0996 1.48207-6.5657 3.55379v-2.62949c0-.25498-.2072-.46215-.4622-.46215h-1.8805c-.2549 0-.4621.20717-.4621.46215v17.81677c0 .2549.2072.4621.4621.4621h1.8805c.255 0 .4622-.2072.4622-.4621v-8.9084c0-3.7291 2.9004-6.77291 6.5657-7.01195.255 0 .4781-.20717.4781-.46215v-1.89642c-.0159-.25498-.2231-.46215-.4781-.46215zm18.6932 13.57767h-2.1832c-.1594 0-.2869.0797-.3666.1913-1.2589 1.8645-3.3944 3.0916-5.8326 3.0916-3.8885 0-7.0279-3.1554-7.0279-7.0279s3.1554-7.02789 7.0279-7.02789c2.4223 0 4.5577 1.22709 5.8326 3.09159.0797.1116.2231.1913.3666.1913h2.1832c.255 0 .4622-.2072.4622-.4622 0-.0797-.016-.1434-.0478-.2071-1.6255-3.21917-4.9562-5.41837-8.7968-5.41837-5.4343 0-9.8486 4.41437-9.8486 9.84857 0 5.4343 4.4143 9.8486 9.8486 9.8486 3.8406 0 7.1713-2.1992 8.7968-5.4183.0318-.0637.0478-.1275.0478-.2072 0-.2709-.2072-.494-.4622-.494zm5.6255-19.219104h-1.8804c-.255 0-.4622.207172-.4622.462152v23.920352c0 .2549.2072.4621.4622.4621h1.8804c.2549 0 .4619-.2072.4619-.4621v-23.920352c0-.25498-.207-.462152-.4619-.462152zm13.1319 5.625494c-5.435 0-9.849 4.41431-9.849 9.84861s4.414 9.8486 9.849 9.8486c3.84 0 7.171-2.1992 8.796-5.4183.032-.0638.048-.1275.048-.2072 0-.255-.207-.4621-.462-.4621h-2.183c-.16 0-.287.0796-.383.1912-1.259 1.8645-3.394 3.0916-5.816 3.0916-3.57 0-6.518-2.6613-6.965-6.1036h16.335c.255 0 .462-.1912.462-.4462.016-.1593.016-.3346.016-.494-.016-5.4343-4.414-9.84861-9.848-9.84861zm-6.789 7.96811c.828-2.9801 3.538-5.16332 6.773-5.16332s5.96 2.19922 6.789 5.16332zm43.856-14.055755c-1.545 0-2.82 1.258965-2.82 2.820715 0 1.56176 1.259 2.82072 2.82 2.82072 1.562 0 2.821-1.25896 2.821-2.82072 0-1.56175-1.259-2.820715-2.821-2.820715zm2.359 6.565735v18.27892c0 .2549-.207.4621-.462.4621h-3.745c-.255 0-.462-.2072-.462-.4621v-18.27892zm-16.924 19.21912c4.589 0 8.446-3.1554 9.545-7.4104 0-.0318.016-.0637.016-.0956 0-.255-.207-.4621-.462-.4621h-3.984c-.191 0-.35.1115-.43.2709-.813 1.7689-2.614 3.0119-4.685 3.0119-2.853 0-5.164-2.3107-5.164-5.1633s2.311-5.1633 5.164-5.1633c2.087 0 3.872 1.227 4.685 3.0119.08.1594.239.2709.43.2709h3.968c.255 0 .462-.2071.462-.4621 0-.0319 0-.0638-.016-.0956-1.083-4.25503-4.94-7.41041-9.545-7.41041-5.435 0-9.849 4.41431-9.849 9.84861.016 5.4343 4.43 9.8486 9.865 9.8486z" fill="#959da5"/></g></svg>