<svg fill="none" height="32" viewBox="0 0 187 32" width="187" xmlns="http://www.w3.org/2000/svg" xmlns:xlink="http://www.w3.org/1999/xlink"><clipPath id="a"><path d="m0 0h186.822v32h-186.822z"/></clipPath><g clip-path="url(#a)" fill="#959da5"><path d="m30.6875 28.1342c0-.0477-.3818-2.8158-1.4794-6.8486 1.2408-.1432 2.2192-1.1931 2.2192-2.4817 0-1.3841-1.1216-2.5295-2.5295-2.5295-.3579 0-.7636.0955-1.0738.2625-.5727-1.8136-1.2886-3.7942-2.1238-5.7032-2.3624-5.46457-5.5361-7.39746-7.7077-8.04175l-1.4556-1.40791-.1193.6443-.6204-1.193142-.1193.811332-.6443-1.169274-.0716.787474-.8114-1.26473.4534 2.52946c-2.0044.28635-6.03726 1.71812-8.87693 8.30424-.8352 1.909-1.55108 3.8658-2.12379 5.7032-.31022-.167-.71588-.2625-1.07382-.2625-1.40791 0-2.52946 1.1454-2.52946 2.5295 0 1.2886.978374 2.3624 2.21924 2.4817-1.09769 4.0328-1.479494 6.8009-1.479494 6.8486l-.023862.1671c-.047726.5249.047725.6204.453396.7874 3.24534 1.4795 8.51901 2.9113 14.55632 2.9113 6.0373 0 11.3109-1.4079 14.5563-2.8874.4056-.1909.5011-.2864.4534-.8113zm-15.0096-1.0499c-3.8658.0477-7.06343-2.3625-7.06343-5.2976 0-1.5511.88292-3.818 2.26693-5.5361-1.28856-.5727-2.17148-1.7898-2.17148-3.2931 0-2.0045 1.59878-3.60329 3.60328-3.60329 1.5988 0 2.9828 1.07379 3.4124 2.48169.4772-1.4556 1.8135-2.48169 3.4124-2.48169 2.0044 0 3.6032 1.59879 3.6032 3.60329 0 1.4556-.8829 2.7442-2.1715 3.2931 1.3841 1.7658 2.267 3.985 2.267 5.5123-.0239 2.9112-3.2215 5.3214-7.1588 5.3214z"/><path d="m13.0037 14.3892c.3558 0 .6443-.2885.6443-.6443 0-.3559-.2885-.6443-.6443-.6443-.3559 0-.6443.2884-.6443.6443 0 .3558.2884.6443.6443.6443z"/><path d="m18.4216 14.3892c.3559 0 .6443-.2885.6443-.6443 0-.3559-.2884-.6443-.6443-.6443-.3558 0-.6443.2884-.6443.6443 0 .3558.2885.6443.6443.6443z"/><path d="m15.2242 18.6369c-.0478-.1671-.5011-.7636-1.5511-.4773-1.05.2864-.9307 2.1238 0 2.2431 0 0-.525-.167-.5011-.8113.0238-.692.4772-.9784 1.0499-.692.6443.3102 1.0977.0715 1.0023-.2625z"/><path d="m16.2021 18.6369c.0478-.1671.5012-.7636 1.5511-.4773 1.05.2864.9307 2.1238 0 2.2431 0 0 .525-.167.5011-.8113-.0477-.8591-.8351-.8114-1.0499-.692-.6443.3102-1.0977.0715-1.0023-.2625z"/><path d="m59.0135 27.2508c-1.1931 1.2409-3.3408 3.1499-7.9702 3.1499s-9.1156-2.7919-9.1156-8.9247c0-6.1327 4.5101-8.9008 9.2827-8.9008 4.7725 0 6.777 2.5056 7.2781 3.0067l-3.7464 3.126c-.3819-.3818-1.5034-1.5033-3.5079-1.5033s-3.5794 1.5033-3.5794 4.2714 1.5511 4.2715 3.5556 4.2715c2.0044 0 2.3385-.6205 2.3385-.6205v-1.2408h-2.6249v-4.2953h8.1134v7.6599z"/><path d="m67.2217 30.4248c-4.2714 0-7.3975-2.4101-7.3975-6.6577s3.1261-6.6577 7.3975-6.6577 7.3975 2.4101 7.3975 6.6577-3.1261 6.6577-7.3975 6.6577zm0-8.9485c-1.1216 0-1.7659.8829-1.7659 2.1953 0 1.3125.6205 2.1716 1.7659 2.1716s1.7658-.883 1.7658-2.1716c0-1.3124-.6204-2.1953-1.7658-2.1953z"/><path d="m85.1683 22.4546h-.2386c-.2625 0-.8829-.3579-1.6227-.3579-.7397 0-1.4317.3579-1.7897.8352-.3579.4534-.525 1.1931-.525 2.1954v4.9634h-5.4884v-12.6472h5.5362l-.0716 1.5749c.8352-1.384 1.8374-1.909 3.1976-1.909.8829 0 1.2647.2147 1.2647.2147z"/><path d="m89.2235 16.8941c-1.8136 0-3.0067-1.05-3.0067-2.6726 0-1.6227 1.1931-2.6727 3.0067-2.6727 1.8374 0 3.0067 1.05 3.0067 2.6727 0 1.6226-1.1931 2.6726-3.0067 2.6726zm2.7204 13.1961h-5.4885v-12.6473h5.4885z"/><path d="m99.104 30.0904h-5.727v-17.1812h5.727z"/><path d="m105.786 30.0904h-5.727v-17.1812h5.727z"/><path d="m120.102 30.0907h-5.464l-.12-1.0977c-.62.6205-1.622 1.4318-3.269 1.4318-2.386 0-4.892-1.05-4.892-4.176s3.174-3.8657 5.035-3.9373l2.983-.1194v-.1193c0-.692-.596-1.1931-2.1-1.1931-1.503 0-3.149.6204-4.009 1.1215l-1.384-3.5555c1.241-.5727 3.508-1.3363 6.133-1.3363s4.2.5011 5.322 1.5033c1.121 1.0023 1.765 2.3863 1.765 4.5101zm-5.727-5.1782-1.121.0716c-.597.0239-1.241.2625-1.241 1.0022 0 .7398.62 1.0023 1.241 1.0023.62 0 1.121-.3818 1.121-.5011z"/><path d="m132.63 28.9444c-1.384 1.0499-3.103 1.4794-5.107 1.4794-2.005 0-4.319-.5488-6.658-2.3146l2.506-4.2476c1.599 1.3602 3.866 1.8851 4.605 1.8851.764 0 1.289-.2147 1.289-.7158 0-.5012-.62-.6921-1.241-.9068-.62-.1671-2.004-.6205-2.506-.8114-.501-.1909-1.503-.525-2.386-1.2886s-1.575-1.8135-1.575-3.6748c0-1.8852.979-3.3408 2.005-4.176 1.05-.8829 2.792-1.5034 5.083-1.5034 2.29 0 4.653.8352 6.156 2.0761l-2.148 4.0089c-1.312-1.1454-3.197-1.6465-4.104-1.6465s-1.408.167-1.408.692c0 .5011.811.6682 1.193.8114.406.1193 1.456.4295 2.053.6204.596.1909 2.004.692 2.887 1.4556.883.7398 1.623 1.9329 1.623 3.7703 0 1.7898-.883 3.4124-2.267 4.4863z"/><path d="m144.919 21.4998h-2.625v3.4839c0 .7637.31.883.954.883.621 0 1.217-.1671 1.217-.1671l.239 4.3192c-.501.1193-1.885.4295-3.508.4295-1.622 0-2.744-.4295-3.508-1.0977-.763-.692-1.121-1.8374-1.121-3.6987v-4.1521h-1.671v-4.0567h1.671v-4.5339h5.727v4.5339h2.625z"/><path d="m158.759 30.0907h-5.25l-.119-1.0977c-.621.6205-1.623 1.4318-3.27 1.4318-2.386 0-4.891-1.05-4.891-4.176s3.197-3.8657 5.058-3.9373l2.983-.1194v-.1193c0-.692-.62-1.1931-2.124-1.1931-1.503 0-3.149.6204-4.032 1.1215l-1.384-3.5555c1.241-.5727 3.507-1.3363 6.132-1.3363s4.105.5011 5.226 1.5033c1.122 1.0023 1.671 2.3863 1.671 4.5101zm-5.489-5.1782-1.145.0716c-.597.0239-1.265.2625-1.265 1.0022 0 .7398.644 1.0023 1.265 1.0023.62 0 .907-.3818 1.145-.5011z"/><path d="m171.168 29.2555s-1.503 1.1693-4.629 1.1693c-3.77 0-7.016-2.4101-7.016-6.6577s3.27-6.6577 7.016-6.6577c2.888 0 4.51 1.0022 4.51 1.0022l-.883 4.2715c-.501-.3819-1.503-.883-2.768-.883s-2.338.7398-2.338 2.1954c0 1.4318.954 2.1715 2.457 2.1715 1.504 0 2.625-.8829 2.625-.8829z"/><path d="m186.823 30.0904h-6.395l-2.004-3.8658-.836.9068v2.959h-5.727v-17.1812h5.727v7.827l2.697-3.2931h6.395l-4.367 4.701z"/></g></svg>