<svg fill="none" height="32" viewBox="0 0 39 32" width="39" xmlns="http://www.w3.org/2000/svg"><g fill="#fff"><path d="m34.2128 12.7127c0-.0008 0-.0025-.0009-.0034-.0043-.0202-.0239-.0337-.0443-.0303-.0205.0034-.0349.0219-.0324.0421.0639.5511.0972 1.092.0972 1.6085 0 7.648-6.2919 13.8696-14.0264 13.8696-3.4782 0-6.6633-1.2614-9.1174-3.3425-.0111.0101-.0221.0202-.0332.0303-.0077.0076-.0162.0152-.0239.0219-1.10514 1.0229-2.60141 1.7281-4.1633 2.2126-.01619.0051-.03323.0101-.04942.0152-.01108.0034-.02216.0067-.03324.0101 2.94143 2.9894 7.04936 4.8524 11.59106 4.8524 8.9223 0 16.1804-7.1779 16.1804-15.9996-.0009-1.1021-.1167-2.2084-.3442-3.2869zm-26.92708 7.118c.01278-.0058.02557-.0126.03835-.0193-.73536-1.6826-1.14436-3.5355-1.14436-5.4826-.00086-7.64721 6.29189-13.869599 14.02629-13.869599.8956 0 1.7997.086785 2.6875.257827.0205.004213.0401-.008426.0452-.028648.0051-.020221-.0068-.040443-.0264-.046341-1.4784-.426341-3.0045-.642039-4.5366-.642039-8.9214 0-16.18039 7.17786-16.18039 16.0004 0 2.2842.48996 4.4555 1.36591 6.4229.00937-.0084.01789-.016.02727-.0236.01107-.0101.023-.0202.03408-.0303 1.40596-1.2445 2.61763-2.0331 3.63248-2.5226.00937-.0051.0196-.011.03067-.0161z"/><path d="m13.1146 15.8174c.824-1.1687 1.8482-2.4983 3.0172-3.8624-3.0326-1.2689-6.0549-.4407-7.41829.0784 2.34919 1.1703 3.66829 2.6195 4.40109 3.784zm22.8404-13.58229c-.5258 1.85113-1.6684 3.52953-3.4468 4.97959l-.1124.09268c-.386.32692-1.0012.25699-1.5662-.17946-.3749-.289-.6808-.7204-.6808-1.14337 0-.12639.0273-.25193.0886-.37326.0222-.04381.052-.08257.0886-.11459 1.4903-1.31947 2.3245-2.42323 2.7966-3.23716-2.2913.19632-4.5485.83246-6.7179 1.94129-3.2542 1.66407-6.4453 4.59622-9.0254 7.49467-.0878.0986-.1764.1972-.2624.2957-.0895.102-.1764.2039-.265.3059-1.3148 1.5234-2.4481 3.0105-3.3189 4.2735-.0878.1281-.1747.2536-.2565.3766-.0903.134-.1773.2654-.2608.3927-.3476.5325-.6365 1.0094-.858 1.4113.0588.0354.1235.0792.19.1255.1091.0767.2258.1711.3468.2798.1082.0977.2164.2106.3246.3361.2318.2688.4508.6033.6204 1.0162.0528.1289.1031.2612.1448.4044.0401.1382.0716.2865.098.439.0051.0278.0136.0522.0179.0809.2284-.0329.599-.1003 1.0864-.2107.1278-.0294.2633-.0615.4065-.0969.1295-.0311.265-.0657.4064-.1027.1134-.0295.2301-.0607.3511-.0944-.0665-.1584-.1244-.2882-.1696-.3884-.0639-.1399-.1039-.2199-.1065-.225-.0221-.0438-.0324-.091-.0366-.1382-.0051-.059-.0009-.1179.0213-.1744.04-.102.1218-.182.2249-.2208.2309-.0867.4559-.1777.6774-.2704 2.6535-1.1088 4.6542-2.5859 4.6763-2.6027.1057-.0792.2446-.0986.369-.0539.1244.0455.2164.1491.2454.2772.1159.5122.1909 1.0009.236 1.4711.5522-.2663 1.1188-.5553 1.6957-.8687 4.6439-2.5277 10.802-7.2065 14.0178-15.16375-.4082-.10532-1.1163-.25193-2.0467-.33534zm-13.6225 13.06829c-.7882 0-1.4272-.6319-1.4272-1.4113s.639-1.4113 1.4272-1.4113 1.4273.6319 1.4273 1.4113-.6391 1.4113-1.4273 1.4113zm3.1971-2.3862c-.7882 0-1.4273-.6319-1.4273-1.4113s.6391-1.4113 1.4273-1.4113 1.4272.6319 1.4272 1.4113-.639 1.4113-1.4272 1.4113zm3.0624-2.3609c-.7882 0-1.4272-.63189-1.4272-1.41127s.639-1.4113 1.4272-1.4113 1.4273.63192 1.4273 1.4113-.6391 1.41127-1.4273 1.41127zm-17.3188 9.8564c-.0912-.107-.1823-.2005-.2718-.2772-.1278-.1095-.2522-.1853-.363-.2157-.1261.0944-.2377.1803-.3298.2536.0921-.0724.2037-.1592.3298-.2536-.006-.0017-.0128-.0059-.0188-.0076-.3203-.0733-1.31559-.1803-2.96354.6025-.01278.0059-.02641.0126-.03919.0185-.01023.0051-.02045.0101-.03068.0143-.97991.4753-2.18647 1.2656-3.61543 2.5556-.01108.0101-.02216.0202-.03409.0303-.00852.0076-.01704.0152-.02556.0227-1.16055 1.0549-2.4634 2.4334-3.91111 4.2449 1.25087-.0446 3.77052-.2207 6.18279-.899.01108-.0034.02216-.0059.03324-.0093.01619-.005.03323-.0092.04942-.0143 1.57126-.4499 3.08799-1.1164 4.17355-2.0997.0077-.0076.0162-.0143.0247-.021.0111-.0102.023-.0194.0341-.0295.6024-.5603 1.0617-1.2235 1.3173-2.0054.0435-.1331.081-.2687.1125-.4086.023-.1011.0469-.2014.0631-.3067-.012-.0295-.0264-.0581-.0392-.0876-.1815-.4188-.4261-.8114-.6783-1.1072zm-1.1767-.0699c.0008 0 .0008 0 0 0l-.0009.0008c.0009 0 .0009-.0008.0009-.0008zm.0025-.0017c-.0008.0009-.0008.0009-.0017.0017h-.0008c.0008-.0008.0017-.0008.0025-.0017zm.4005 1.1265c-.0997.0826-.2156.1753-.3442.2756-.1006.0783-.20881.1609-.32213.246-.26927.203-.5675.4204-.86488.6344-.01193.0085-.02386.0177-.03664.0262-.00937.0059-.01789.0126-.02642.0193-.89299.6412-1.75446 1.2319-1.75446 1.2319s.85636-2.0534.72684-2.0272c-1.18526.3286-2.78379 1.6767-3.37429 2.2007-.01108.0102-.02386.0211-.03409.0304-.00937.0084-.01619.0143-.02471.0219-.10907.0977-.17382.1584-.17382.1584s.05197-.075.14826-.2031c.00596-.0084.01534-.0193.0213-.0286.00938-.0118.0196-.0261.02897-.0388.45673-.6024 1.65136-2.0845 2.99256-2.9894.09373-.0632.18831-.118.28289-.1694.00938-.005.0196-.0126.02897-.0177.01279-.0067.02557-.0126.0392-.0193.76433-.3952 1.51161-.4121 2.07655-.2899.1602.0346.3042.0792.4303.1306.1525.0615.2769.1306.369.1989.1235.0918.1883.1811.1729.2451-.0144.0565-.1499.1879-.3621.364zm5.179.3809c-.1005.6311-.2386 1.3751-.4124 2.0146.4286-.2225.9859-.5713 1.5304-1.0634-.1168-.4246-.2446-.8147-.3664-1.1534-.2804.0792-.5317.1466-.7516.2022zm-3.7577-1.8722c.3289.3985.5973.8729.7694 1.2723.1227-.0641.2352-.134.3392-.2056-.1832-.573-.49-.9816-.7848-1.2597-.104.0582-.2122.1222-.3238.193zm9.6099-1.0204c-.029-.3463-.0758-.7044-.1397-1.0734-.5956.4027-1.6778 1.0819-3.0403 1.7475-.1696.0826-.3434.1651-.5215.2469-.2905.1331-.5922.2645-.9024.3918-.0613.0252-.121.0505-.1823.0749.0469.1028.1005.2259.1593.3666.0452.1087.0938.23.144.3589.0435.1121.0887.23.1338.3564.081.2224.1628.4643.2429.7246.0443.1433.0869.2932.1295.4466.0392.1441.0775.2924.1142.4432.196.8131.34 1.7256.34 2.6583 0 .2064-.0384.4128-.0529.6201 1.1597-.7676 3.5285-2.7923 3.6001-6.5324.0009-.0582.0068-.1121.0068-.1702 0-.0809-.0042-.1652-.0076-.2486-.0034-.1348-.012-.2713-.0239-.4112z"/></g></svg>