<svg width="321" height="78" viewBox="0 0 321 78" fill="none" xmlns="http://www.w3.org/2000/svg"><mask id="a" maskUnits="userSpaceOnUse" x="0" y="0" width="321" height="78" fill="#000"><path fill="#fff" d="M0 0h321v78H0z"/><path fill-rule="evenodd" clip-rule="evenodd" d="M6.419 1A5.419 5.419 0 001 6.419V71.34a5.419 5.419 0 005.419 5.42h296.656a5.419 5.419 0 005.419-5.42V56.02c0-3.313 2.871-5.872 5.714-7.575a11.136 11.136 0 005.426-9.565c0-4.064-2.176-7.62-5.426-9.566-2.843-1.702-5.714-4.261-5.714-7.575V6.42A5.419 5.419 0 00303.075 1H6.419z"/></mask><path fill-rule="evenodd" clip-rule="evenodd" d="M6.419 1A5.419 5.419 0 001 6.419V71.34a5.419 5.419 0 005.419 5.42h296.656a5.419 5.419 0 005.419-5.42V56.02c0-3.313 2.871-5.872 5.714-7.575a11.136 11.136 0 005.426-9.565c0-4.064-2.176-7.62-5.426-9.566-2.843-1.702-5.714-4.261-5.714-7.575V6.42A5.419 5.419 0 00303.075 1H6.419z" fill="#24292F"/><path d="M314.208 29.314l-.514.858.514-.858zM2 6.42A4.419 4.419 0 016.419 2V0A6.419 6.419 0 000 6.419h2zM2 71.34V6.42H0V71.34h2zm4.419 4.42A4.419 4.419 0 012 71.34H0a6.419 6.419 0 006.419 6.42v-2zm296.656 0H6.419v2h296.656v-2zm4.419-4.42a4.42 4.42 0 01-4.419 4.42v2a6.42 6.42 0 006.419-6.42h-2zm0-15.32v15.32h2V56.02h-2zm11.14-17.14c0 3.698-1.979 6.934-4.94 8.707l1.027 1.716a12.135 12.135 0 005.913-10.423h-2zm-4.94-8.708a10.136 10.136 0 014.94 8.708h2c0-4.43-2.373-8.304-5.913-10.424l-1.027 1.716zm-6.2-23.753v15.32h2V6.42h-2zM303.075 2a4.42 4.42 0 014.419 4.419h2A6.419 6.419 0 00303.075 0v2zM6.419 2h296.656V0H6.419v2zM314.72 28.456c-1.369-.82-2.697-1.819-3.673-2.971-.973-1.148-1.554-2.395-1.554-3.746h-2c0 1.964.854 3.653 2.028 5.038 1.169 1.381 2.698 2.513 4.172 3.395l1.027-1.716zm-5.227 27.564c0-1.35.581-2.597 1.554-3.745.976-1.153 2.304-2.152 3.673-2.972l-1.027-1.716c-1.474.883-3.003 2.014-4.172 3.395-1.174 1.386-2.028 3.075-2.028 5.038h2z" fill="#000" fill-opacity=".3" mask="url(#a)"/><circle cx="308.494" cy="38.879" r="4.456" fill="#2188FF"/><path d="M54.009 48.963v.117c0 .413.06.795.18 1.148.12.353.293.66.518.92.223.262.494.467.815.615.325.148.69.222 1.096.222a2.56 2.56 0 001.085-.222 2.4 2.4 0 00.82-.614c.222-.261.393-.568.513-.92.12-.354.18-.736.18-1.15v-.116c0-.413-.06-.795-.18-1.148a2.776 2.776 0 00-.513-.926 2.388 2.388 0 00-.826-.614 2.522 2.522 0 00-1.09-.227c-.402 0-.764.075-1.085.227a2.347 2.347 0 00-.815.614c-.225.26-.398.57-.518.926-.12.353-.18.736-.18 1.148zm.979.117v-.117c0-.278.033-.545.1-.799.068-.257.17-.483.307-.677.134-.194.302-.348.503-.46a1.39 1.39 0 01.71-.175c.27 0 .507.058.708.175.205.112.376.266.514.46.134.194.234.42.301.677.07.254.106.52.106.8v.116c0 .282-.033.552-.1.81a2.124 2.124 0 01-.302.672 1.526 1.526 0 01-.513.46c-.202.113-.436.17-.704.17-.272 0-.51-.057-.715-.17a1.478 1.478 0 01-.508-.46 2.06 2.06 0 01-.307-.673 3.203 3.203 0 01-.1-.81zm5.805 2.8h.98v-4.107c.066-.124.144-.237.232-.34.092-.101.19-.191.296-.269a1.66 1.66 0 01.429-.206c.155-.053.323-.08.503-.08.208 0 .391.025.55.074.162.05.3.13.413.239.11.109.192.252.249.428.056.177.084.392.084.646v3.614h.98v-3.635c0-.381-.048-.71-.144-.985a1.776 1.776 0 00-.397-.688 1.558 1.558 0 00-.63-.396 2.468 2.468 0 00-.814-.127 2.214 2.214 0 00-1.186.36 2.04 2.04 0 00-.322.264c-.1.099-.19.208-.276.328l-.068-.847h-.879v5.726zm8.478-.636c0 .205.063.38.19.524.13.141.323.212.577.212.25 0 .443-.07.577-.212a.731.731 0 00.201-.524.757.757 0 00-.201-.534c-.13-.148-.323-.223-.577-.223-.257 0-.45.075-.577.223a.794.794 0 00-.19.534zm0-4.636c0 .205.063.38.19.524.13.141.323.212.577.212.25 0 .443-.07.577-.212a.731.731 0 00.201-.524.757.757 0 00-.201-.534c-.13-.148-.323-.222-.577-.222-.257 0-.45.074-.577.222a.794.794 0 00-.19.534z" fill="#D1D5DA"/><path d="M80.315 54.08h.979V51.33c.07.077.146.15.228.217.08.063.167.121.259.174.152.085.32.15.508.196.19.046.395.069.614.069.36 0 .679-.074.958-.222.282-.148.518-.353.709-.614a2.85 2.85 0 00.434-.92c.098-.357.148-.74.148-1.15v-.11c0-.427-.05-.819-.148-1.175a2.776 2.776 0 00-.434-.926 2.015 2.015 0 00-.71-.604 2.106 2.106 0 00-.973-.217c-.208 0-.404.023-.588.07-.18.042-.344.105-.492.19a1.808 1.808 0 00-.55.47l-.048-.624h-.894v7.928zm3.858-5.111v.11c0 .28-.032.546-.096.8-.06.254-.153.478-.28.672-.127.194-.29.35-.487.466-.197.112-.432.169-.704.169a1.465 1.465 0 01-.841-.238 1.182 1.182 0 01-.265-.233 1.936 1.936 0 01-.206-.296V47.66c.067-.12.145-.229.233-.328.088-.098.189-.181.302-.248.102-.067.217-.118.344-.154.13-.035.271-.053.423-.053.275 0 .511.057.709.17.197.112.361.264.492.455.127.194.22.418.28.672.064.25.096.515.096.794zm6.43 2.91h.889v-5.726h-.985v4.107c-.053.123-.12.238-.2.344-.079.102-.17.19-.276.264a1.525 1.525 0 01-.45.217c-.173.05-.368.075-.587.075-.187 0-.353-.025-.498-.075a.79.79 0 01-.36-.259 1.202 1.202 0 01-.222-.487 3.367 3.367 0 01-.074-.772v-3.414h-.979v3.403c0 .427.046.794.138 1.1.095.304.229.555.402.752.173.198.38.344.624.44.244.091.515.137.815.137.374 0 .704-.078.99-.233.286-.159.524-.38.714-.661l.059.788zm6.54-1.519a.645.645 0 01-.053.26.72.72 0 01-.153.222c-.11.11-.261.196-.455.26a2.32 2.32 0 01-.683.09c-.166 0-.333-.018-.503-.054a1.428 1.428 0 01-.46-.18 1.143 1.143 0 01-.355-.333 1.03 1.03 0 01-.158-.508h-.98c0 .243.055.478.165.704.113.226.275.423.487.593.208.172.463.312.767.417.303.103.65.154 1.037.154.339 0 .651-.04.937-.122.286-.08.53-.196.735-.344.205-.148.364-.326.477-.534.116-.208.174-.44.174-.693 0-.237-.05-.445-.153-.625a1.452 1.452 0 00-.434-.476 2.78 2.78 0 00-.704-.344 7.4 7.4 0 00-.947-.26 6.134 6.134 0 01-.667-.164 1.616 1.616 0 01-.413-.19.612.612 0 01-.222-.238.69.69 0 01-.063-.302c0-.11.026-.215.079-.317a.781.781 0 01.238-.27c.102-.078.231-.14.386-.185.16-.046.343-.07.55-.07.202 0 .382.03.54.086.163.056.3.13.413.222.113.092.201.197.265.317a.743.743 0 01.095.36h.98c0-.25-.056-.483-.165-.698a1.683 1.683 0 00-.455-.572 2.182 2.182 0 00-.72-.38 3.071 3.071 0 00-.952-.139c-.328 0-.63.045-.905.133a2.322 2.322 0 00-.704.36c-.198.151-.351.33-.46.534-.11.201-.164.418-.164.651 0 .236.052.444.158.624.106.177.256.33.45.46.19.135.42.25.688.345.272.095.572.176.9.243.268.053.492.113.672.18.18.064.324.134.434.212.109.078.187.164.233.26a.69.69 0 01.068.311zm3.683-3.355v-3.254h-.979v8.128h.979v-4.16a1.857 1.857 0 01.535-.555 1.623 1.623 0 01.942-.286c.215-.003.406.027.571.09.166.06.304.152.413.275.103.113.18.256.233.43.053.168.079.366.079.592v3.614h.979v-3.604c0-.384-.047-.716-.142-.994a1.824 1.824 0 00-.397-.7 1.536 1.536 0 00-.63-.401 2.381 2.381 0 00-1.466-.032 2.089 2.089 0 00-.857.54 2.116 2.116 0 00-.26.317z" fill="#959DA5"/><path d="M55.381 29.825h1.343v-6.897H55.38v6.897zm.678-7.96c.463 0 .849-.36.849-.8 0-.44-.386-.804-.849-.804-.467 0-.849.364-.849.804 0 .44.382.8.849.8zm5.753 1.063h-1.486v-.62c0-.61.251-.942.907-.942.278 0 .476.063.601.103l.315-1.087a3.221 3.221 0 00-1.123-.184c-1.09 0-2.047.638-2.047 1.931v.8h-1.064v1.077h1.064v5.82h1.347v-5.82h1.486v-1.078zm6.074-2.299h-1.343v9.196h1.343V20.63zm3.813 9.349c1.14 0 1.783-.58 2.039-1.096h.054v.943h1.31v-4.58c0-2.007-1.58-2.406-2.675-2.406-1.249 0-2.398.503-2.847 1.76l1.262.287c.197-.49.7-.96 1.603-.96.866 0 1.31.453 1.31 1.234v.031c0 .49-.502.48-1.742.625-1.306.152-2.644.493-2.644 2.06 0 1.357 1.02 2.102 2.33 2.102zm.292-1.078c-.759 0-1.307-.341-1.307-1.006 0-.718.638-.974 1.415-1.077.435-.058 1.468-.175 1.661-.368v.889c0 .817-.65 1.562-1.769 1.562zm5.008.925h1.31v-1.073h.113c.243.44.736 1.208 1.994 1.208 1.67 0 2.882-1.338 2.882-3.57 0-2.236-1.23-3.551-2.896-3.551-1.28 0-1.742.78-1.98 1.207h-.08V20.63h-1.343v9.195zm1.315-3.448c0-1.441.629-2.398 1.8-2.398 1.218 0 1.828 1.028 1.828 2.398 0 1.383-.628 2.438-1.827 2.438-1.154 0-1.8-.988-1.8-2.438zm9.464 3.587c1.504 0 2.569-.74 2.874-1.863l-1.27-.229c-.243.651-.827.983-1.59.983-1.15 0-1.922-.745-1.958-2.074h4.903v-.476c0-2.492-1.49-3.466-3.053-3.466-1.922 0-3.188 1.463-3.188 3.583 0 2.142 1.248 3.542 3.282 3.542zm-1.94-4.189c.054-.979.764-1.827 1.855-1.827 1.042 0 1.724.772 1.729 1.827h-3.583zm7.731-5.145h-1.342v9.195h1.342V20.63zm5.153 9.195h1.342v-6.897h-1.342v6.897zm.678-7.96c.462 0 .848-.36.848-.8 0-.44-.386-.804-.848-.804-.467 0-.849.364-.849.804 0 .44.382.8.849.8zm7.639 2.747c-.279-1.073-1.118-1.773-2.609-1.773-1.558 0-2.663.821-2.663 2.043 0 .978.593 1.63 1.886 1.917l1.167.256c.665.148.975.444.975.875 0 .535-.57.952-1.45.952-.804 0-1.321-.346-1.482-1.024l-1.298.198c.225 1.221 1.239 1.908 2.789 1.908 1.665 0 2.819-.884 2.819-2.132 0-.975-.619-1.576-1.886-1.868l-1.095-.252c-.759-.18-1.087-.435-1.082-.902-.005-.53.57-.907 1.333-.907.835 0 1.222.462 1.379.925l1.217-.216zm6.964 5.366c1.14 0 1.782-.58 2.038-1.096h.054v.943h1.311v-4.58c0-2.007-1.58-2.406-2.676-2.406-1.248 0-2.398.503-2.847 1.76l1.262.287c.198-.49.701-.96 1.603-.96.867 0 1.311.453 1.311 1.234v.031c0 .49-.503.48-1.742.625-1.307.152-2.645.493-2.645 2.06 0 1.357 1.02 2.102 2.331 2.102zm.292-1.078c-.759 0-1.307-.341-1.307-1.006 0-.718.638-.974 1.414-1.077.436-.058 1.469-.175 1.662-.368v.889c0 .817-.651 1.562-1.769 1.562zm7.481 1.06c1.257 0 1.751-.768 1.994-1.208h.112v1.073h1.311V20.63h-1.342v3.416h-.081c-.243-.426-.701-1.207-1.985-1.207-1.666 0-2.891 1.315-2.891 3.551 0 2.232 1.207 3.57 2.882 3.57zm.297-1.145c-1.199 0-1.823-1.055-1.823-2.438 0-1.37.61-2.398 1.823-2.398 1.172 0 1.8.957 1.8 2.398 0 1.45-.642 2.438-1.8 2.438zm7.618 1.145c1.257 0 1.751-.768 1.994-1.208h.112v1.073h1.311V20.63h-1.342v3.416h-.081c-.243-.426-.701-1.207-1.985-1.207-1.666 0-2.891 1.315-2.891 3.551 0 2.232 1.207 3.57 2.882 3.57zm.297-1.145c-1.199 0-1.823-1.055-1.823-2.438 0-1.37.61-2.398 1.823-2.398 1.171 0 1.8.957 1.8 2.398 0 1.45-.642 2.438-1.8 2.438zm8.009 1.15c1.504 0 2.568-.741 2.873-1.864l-1.27-.229c-.243.651-.826.983-1.59.983-1.149 0-1.922-.745-1.957-2.074h4.903v-.476c0-2.492-1.491-3.466-3.054-3.466-1.921 0-3.188 1.463-3.188 3.583 0 2.142 1.249 3.542 3.283 3.542zm-1.94-4.19c.054-.979.763-1.827 1.854-1.827 1.042 0 1.725.772 1.729 1.827h-3.583zm8.97 4.185c1.257 0 1.751-.768 1.994-1.208h.112v1.073h1.311V20.63h-1.342v3.416h-.081c-.243-.426-.701-1.207-1.985-1.207-1.666 0-2.891 1.315-2.891 3.551 0 2.232 1.207 3.57 2.882 3.57zm.297-1.145c-1.199 0-1.823-1.055-1.823-2.438 0-1.37.61-2.398 1.823-2.398 1.171 0 1.8.957 1.8 2.398 0 1.45-.642 2.438-1.8 2.438z" fill="#fff"/><g clip-path="url(#clip0)" stroke="#FAFBFC"><circle cx="30.509" cy="24.937" r="1.129" fill="#FAFBFC" stroke-width=".452"/><circle cx="30.509" cy="24.937" r="6.548" stroke-width="1.355" stroke-linecap="round" stroke-linejoin="round"/></g><defs><clipPath id="clip0"><path fill="#fff" transform="translate(23.283 17.711)" d="M0 0h17.826v17.826H0z"/></clipPath></defs></svg>