<svg fill="none" height="32" viewBox="0 0 63 32" width="63" xmlns="http://www.w3.org/2000/svg"><path d="m.905.918v30.16h30.808l30.157-30.158h-60.965zm39.023 27.074v2.249h.34v-.976h.382l.615.976h.382l-.658-.976c.329-.04.594-.232.594-.637 0-.443-.271-.636-.806-.636zm.34.297h.466c.23 0 .488.037.488.318 0 .351-.261.382-.551.382h-.403zm.424-1.125c-1.077 0-1.995.83-1.995 1.952 0 1.13.918 1.974 1.995 1.974a1.947 1.947 0 0 0 1.952-1.974c0-1.122-.89-1.952-1.952-1.952zm0 .318c.879 0 1.57.71 1.57 1.634 0 .94-.691 1.634-1.57 1.634-.894 0-1.613-.694-1.613-1.634 0-.924.72-1.634 1.613-1.634z" fill="#959da5"/><path clip-rule="evenodd" d="m37.435 15.348h-1.322v-4.833h1.322c1.764 0 3.168.581 3.168 2.385 0 1.864-1.404 2.447-3.168 2.447zm-14.223 3.454c-.699 0-1.355-.127-1.922-.34l1.904-6.003h.04l1.864 6.019c-.561.2-1.2.324-1.883.324zm13.872-12.212h-6v14.268l-5.242-14.268h-5.196l-4.48 11.929c-.472-3.007-3.587-4.048-6.036-4.824-1.614-.52-3.332-1.283-3.316-2.128.013-.691.923-1.332 2.716-1.237 1.209.062 2.275.16 4.391 1.183l2.085-3.632c-1.931-.986-4.607-1.606-6.796-1.61h-.014c-2.554 0-4.682.832-6.002 2.195a5.077 5.077 0 0 0 -1.436 3.502c-.034 1.838.643 3.143 2.06 4.187 1.2.879 2.73 1.445 4.08 1.868 1.667.514 3.028.963 3.013 1.92a1.392 1.392 0 0 1 -.396.933c-.415.431-1.052.59-1.934.61-1.7.034-2.961-.23-4.97-1.418l-1.853 3.682a13.846 13.846 0 0 0 6.792 1.807h.313c2.105-.041 3.806-.642 5.164-1.734l.22-.192-.6 1.613h5.45l.915-2.783c.957.324 2.047.506 3.202.506 1.126 0 2.189-.17 3.13-.48l.88 2.757h8.89v-5.764h1.94c4.686 0 7.46-2.384 7.46-6.387 0-4.454-2.694-6.497-8.43-6.497" fill="#fff" fill-rule="evenodd"/></svg>