<?xml version="1.0" encoding="UTF-8"?>
<svg width="56px" height="56px" viewBox="0 0 56 56" version="1.1" xmlns="http://www.w3.org/2000/svg" xmlns:xlink="http://www.w3.org/1999/xlink">
    <!-- Generator: Sketch 56.2 (81672) - https://sketch.com -->
    <title>Multiple OS &amp; containers</title>
    <desc>Created with Sketch.</desc>
    <g id="light" stroke="none" stroke-width="1" fill="none" fill-rule="evenodd">
        <g id="Titles" opacity="0.597353981" transform="translate(-129.000000, -1295.000000)"></g>
        <g id="Slides" transform="translate(-114.000000, -1361.000000)"></g>
        <g id="Group-33" transform="translate(5.000000, 5.000000)" stroke-width="2">
            <g id="Group-64">
                <rect id="Rectangle-29" stroke="#2088FF" x="14" y="0" width="18" height="7" rx="2"></rect>
                <path d="M6.98608398,14.0333252 C6.98608398,12.1003286 8.55308736,10.5333252 10.486084,10.5333252 L19.5203857,10.5333252 C21.4533824,10.5333252 23.0203857,8.96632182 23.0203857,7.0333252 L23.0203857,7.0333252" id="Path-39" stroke="#2088FF" stroke-linecap="round" stroke-linejoin="round"></path>
                <path d="M23,14.0333252 C23,12.1003286 24.5670034,10.5333252 26.5,10.5333252 L35.5,10.5333252 C37.4329966,10.5333252 39,8.96632182 39,7.0333252 L39,7.0333252" id="Path-39" stroke="#2088FF" stroke-linecap="round" stroke-linejoin="round" transform="translate(31.000000, 10.533325) scale(-1, 1) translate(-31.000000, -10.533325) "></path>
                <path d="M2,15 L10,15 C11.1045695,15 12,15.8954305 12,17 L12,19 C12,20.1045695 11.1045695,21 10,21 L2,21 C0.8954305,21 1.3527075e-16,20.1045695 0,19 L0,17 C-1.3527075e-16,15.8954305 0.8954305,15 2,15 Z" id="Rectangle-29" stroke="#2088FF"></path>
                <path d="M19,15 L27,15 C28.1045695,15 29,15.8954305 29,17 L29,19 C29,20.1045695 28.1045695,21 27,21 L19,21 C17.8954305,21 17,20.1045695 17,19 L17,17 C17,15.8954305 17.8954305,15 19,15 Z" id="Rectangle-29" stroke="#2088FF"></path>
                <path d="M7.03625488,31.9083252 C7.03625488,29.9753286 8.60325826,28.4083252 10.5362549,28.4083252 L19.6896973,28.4083252 C21.5291857,28.4083252 23.0203857,26.9171252 23.0203857,25.0776367 L23.0203857,25.0776367" id="Path-39" stroke="#79B8FF" stroke-linecap="round" stroke-linejoin="round" transform="translate(15.028320, 28.492981) scale(1, -1) translate(-15.028320, -28.492981) "></path>
                <path d="M23,31.9083252 C23,29.9753286 24.5670034,28.4083252 26.5,28.4083252 L35.6693115,28.4083252 C37.5088,28.4083252 39,26.9171252 39,25.0776367 L39,25.0776367" id="Path-39" stroke="#79B8FF" stroke-linecap="round" stroke-linejoin="round" transform="translate(31.000000, 28.492981) scale(-1, -1) translate(-31.000000, -28.492981) "></path>
                <path d="M23.0203857,25.0776367 L23.0203857,31.6859131" id="Path-54" stroke="#79B8FF" stroke-linecap="round"></path>
                <path d="M36,15 L44,15 C45.1045695,15 46,15.8954305 46,17 L46,19 C46,20.1045695 45.1045695,21 44,21 L36,21 C34.8954305,21 34,20.1045695 34,19 L34,17 C34,15.8954305 34.8954305,15 36,15 Z" id="Rectangle-29" stroke="#2088FF"></path>
                <path d="M23.0203857,7.0333252 L23.0203857,15.0333252" id="Path-54" stroke="#2088FF"></path>
                <path d="M15.9973145,40 L5,40 C3.8954305,40 3,39.1045695 3,38 C3,30.9214836 3,27.8746696 3,25.000061 M3,11.0186768 C3,9.44809299 3,8.14116753 3,5 C3,3.8954305 3.8954305,3 5,3 L9.97851562,3" id="Shape" stroke="#79B8FF" stroke-linecap="round" stroke-linejoin="round"></path>
                <path d="M42.9973145,40 L32,40 C30.8954305,40 30,39.1045695 30,38 C30,31.4515606 30,27.8104066 30,25.0765381 M30,11.0515137 C30,9.70673286 30,7.68956163 30,5 C30,3.8954305 30.8954305,3 32,3 L36.9785156,3" id="Shape" stroke="#79B8FF" stroke-linecap="round" stroke-linejoin="round" transform="translate(36.498657, 21.500000) scale(-1, 1) translate(-36.498657, -21.500000) "></path>
            </g>
            <path d="M23.050293,46 C26.6401438,46 29.550293,43.0898509 29.550293,39.5 C29.550293,35.9101491 26.6401438,33 23.050293,33 C19.4604421,33 16.550293,35.9101491 16.550293,39.5 C16.550293,43.0898509 19.4604421,46 23.050293,46 Z" id="Oval-5" stroke="#79B8FF"></path>
            <path d="M22.572998,36.8859405 L25.5883514,38.6588103 C26.0644443,38.938728 26.2234758,39.5515957 25.9435581,40.0276887 C25.8561255,40.1763969 25.7317104,40.2999582 25.5824038,40.3863648 L22.5670504,42.1314073 C22.0890413,42.4080403 21.4772831,42.2447927 21.2006502,41.7667837 C21.1125516,41.6145534 21.0661621,41.44178 21.0661621,41.2658954 L21.0661621,37.7479831 C21.0661621,37.1956983 21.5138774,36.7479831 22.0661621,36.7479831 C22.2443824,36.7479831 22.4193645,36.7956121 22.572998,36.8859405 Z" id="Rectangle-50" stroke="#2088FF" stroke-linecap="round" stroke-linejoin="round" fill-rule="nonzero"></path>
        </g>
    </g>
</svg>