<svg fill="none" height="34" viewBox="0 0 35 34" width="35" xmlns="http://www.w3.org/2000/svg" xmlns:xlink="http://www.w3.org/1999/xlink"><mask id="a" height="34" maskUnits="userSpaceOnUse" width="34" x="0" y="0"><path d="m17 33c8.8366 0 16-7.1634 16-16 0-8.83656-7.1634-16-16-16-8.83656 0-16 7.16344-16 16 0 8.8366 7.16344 16 16 16z" fill="#1b1f23" stroke="#1b1f23" stroke-width=".659794"/></mask><path d="m17 33c8.8366 0 16-7.1634 16-16 0-8.83656-7.1634-16-16-16-8.83656 0-16 7.16344-16 16 0 8.8366 7.16344 16 16 16z" fill="#959da5" stroke="#959da5" stroke-width=".659794"/><path d="m32 10.6495.9897-.65981zm.9897-1.6495v.98969h.8247" fill="#959da5"/><path d="m32.9897 9v.98969h.8247m-1.8144.65981.9897-.65981z" stroke="#959da5" stroke-linecap="round" stroke-linejoin="round" stroke-width=".659794"/><g mask="url(#a)" stroke="#fff"><path d="m2.48438 25.5779c7.91752-8.9072 7.58762-1.3196 14.51542.6598 5.9382 1.3196 7.5877-4.9485 3.299-8.2474-2.3093-1.9794-5.2783-1.6495-7.5876-2.9691-3.29899-1.6495-2.6392-6.59794.6598-7.58763 9.567-3.29897 5.2783 10.55673 16.1649 4.28863" stroke-width="2.30928"/><path d="m26.5664 10.7324 1.6495 3.6289 2.9691-2.6392-.3299-.9897z" fill="#fff" stroke-linejoin="round" stroke-width=".494845"/></g></svg>