<svg fill="none" height="29" width="28" xmlns="http://www.w3.org/2000/svg"><path d="m0 0h28v29h-28z" fill="#041027"/><g fill="#ffd33d"><path d="m15 19.5a1 1 0 1 1 -2 0 1 1 0 0 1 2 0zm-.25-8.25a.75.75 0 0 0 -1.5 0v4.5a.75.75 0 0 0 1.5 0z"/><path clip-rule="evenodd" d="m11.836 5.244c.963-1.665 3.366-1.665 4.329 0l8.966 15.504c.964 1.667-.239 3.752-2.164 3.752h-17.933c-1.925 0-3.128-2.085-2.164-3.752zm3.03.751a1 1 0 0 0 -1.731 0l-8.967 15.504a1 1 0 0 0 .866 1.501h17.933a1 1 0 0 0 .865-1.5l-8.966-15.506z" fill-rule="evenodd"/></g></svg>