<svg width="49" height="48" viewBox="0 0 49 48" fill="none" xmlns="http://www.w3.org/2000/svg">
<path d="M10 12H1" stroke="#79B8FF" stroke-width="2" stroke-linecap="round"/>
<path d="M41 41H36" stroke="#2088FF" stroke-width="2" stroke-linecap="round"/>
<path d="M12 7H7" stroke="#79B8FF" stroke-width="2" stroke-linecap="round"/>
<path d="M47.0159 36.0197L38.0159 36.0068" stroke="#2088FF" stroke-width="2" stroke-linecap="round"/>
<path fill-rule="evenodd" clip-rule="evenodd" d="M13.7737 25.7806C16.1166 23.4371 19.9164 23.4371 22.2593 25.7806C24.6022 28.1241 24.6022 31.9219 22.2593 34.2654C19.9164 36.6089 16.1166 36.6089 13.7737 34.2654C11.4308 31.9219 11.4308 28.1241 13.7737 25.7806Z" stroke="#2088FF" stroke-width="2" stroke-linecap="round" stroke-linejoin="round"/>
<path fill-rule="evenodd" clip-rule="evenodd" d="M29 24L30 27L35 28V32L30 34L29 36L31 41L29 43L24 41L22 42L20 47H16L14 42L12 41L7 43L5 41L7 36L6 34L1 32V28L6 26L7 24L5 19L7 17L12 19L14 18L16 13H20L22 18L24 19L29 17L31 19L29 24Z" stroke="#2088FF" stroke-width="2" stroke-linecap="round" stroke-linejoin="round"/>
<path d="M29.2627 12.4072C31.0024 10.5814 33.9207 10.5648 35.7126 12.348C37.5044 14.1313 37.4054 17.0089 35.6467 18.7606" stroke="#79B8FF" stroke-width="2" stroke-linecap="round" stroke-linejoin="round"/>
<path d="M25 9L23 6L25 4L29 6L31 5L32 1H35L36 5L38 6L42 4L44 6L42 10L43 12L47 13V16L43 17L42 19L44 23L42 25L38 23" stroke="#79B8FF" stroke-width="2" stroke-linecap="round" stroke-linejoin="round"/>
</svg>
