<svg id="Warstwa_1" data-name="Warstwa 1" xmlns="http://www.w3.org/2000/svg" xmlns:xlink="http://www.w3.org/1999/xlink" viewBox="0 0 500 500"><defs><style>.cls-1,.cls-2{fill-rule:evenodd;}.cls-1{fill:url(#Gradient_bez_nazwy_2);}.cls-2{fill:url(#Gradient_bez_nazwy_3);}</style><linearGradient id="Gradient_bez_nazwy_2" x1="0.61" y1="501.08" x2="1.49" y2="499.73" gradientTransform="matrix(231.64, 0, 0, -299.09, -30.25, 149871.94)" gradientUnits="userSpaceOnUse"><stop offset="0" stop-color="#dbcdf6"/><stop offset="1" stop-color="#fff"/></linearGradient><linearGradient id="Gradient_bez_nazwy_3" x1="0.61" y1="501.08" x2="1.49" y2="499.73" gradientTransform="matrix(231.64, 0, 0, -299.09, -30.25, 149871.94)" gradientUnits="userSpaceOnUse"><stop offset="0" stop-color="#9478d2"/><stop offset="1" stop-color="#59418d"/></linearGradient></defs><g id="astronomer-monogram-reverse"><g id="Group-3"><path id="Fill-1" class="cls-1" d="M244.76,36.63A213.23,213.23,0,0,0,95.15,104.35h0C14.24,190.67,18.65,326.72,105,407.63h0a213.19,213.19,0,0,0,104.67,53.75h0L221,432.91a183.29,183.29,0,0,1-95.49-47.23h0c-74.21-69.56-78-186.53-8.44-260.75h0A183.32,183.32,0,0,1,245.73,66.7h0q3.08-.09,6.12-.09h0a182.82,182.82,0,0,1,103,31.56h0L366.3,69.66A212.75,212.75,0,0,0,251.87,36.52h0q-3.54,0-7.11.11ZM266.48,145.5H236.62l-.36.9-76,190-.78,2h33.77l.35-.91,18.65-48h82l18.88,48,.36.9H348.3l-.78-2L298.43,213.73l-.36-.9H264.3l.76,1.95,17.41,44.75H224.21l43.6-112.08.76-1.95Z"/></g></g><g id="astronomer-monogram"><g id="Group-3-2" data-name="Group-3"><path id="Fill-1-2" data-name="Fill-1" class="cls-2" d="M244.76,36.63A213.23,213.23,0,0,0,95.15,104.35h0C14.24,190.67,18.65,326.72,105,407.63h0a213.19,213.19,0,0,0,104.67,53.75h0L221,432.91a183.29,183.29,0,0,1-95.49-47.23h0c-74.21-69.56-78-186.53-8.44-260.75h0A183.32,183.32,0,0,1,245.73,66.7h0q3.08-.09,6.12-.09h0a182.82,182.82,0,0,1,103,31.56h0L366.3,69.66A212.75,212.75,0,0,0,251.87,36.52h0q-3.54,0-7.11.11ZM266.48,145.5H236.62l-.36.9-76,190-.78,2h33.77l.35-.91,18.65-48h82l18.88,48,.36.9H348.3l-.78-2L298.43,213.73l-.36-.9H264.3l.76,1.95,17.41,44.75H224.21l43.6-112.08.76-1.95Z"/></g></g></svg>
