<svg id="Layer_1" xmlns="http://www.w3.org/2000/svg" width="1880.6" height="226" viewBox="0 0 1880.6 226"><style>.st0,.st1{fill:none;stroke-width:4;stroke-miterlimit:10}.st0{stroke-linecap:round;stroke:#84e89e}.st1{stroke:#34d058}.st1,.st2{stroke-linecap:round}.st2,.st3{fill:none;stroke:#f6f8fa;stroke-width:4;stroke-miterlimit:10}.st10,.st11,.st12,.st13,.st4,.st5,.st6,.st7,.st8,.st9{fill:none;stroke:#ffea7f;stroke-width:4;stroke-linecap:round;stroke-miterlimit:10}.st10,.st11,.st12,.st13,.st5,.st6,.st7,.st8,.st9{stroke:#8a64d2}.st10,.st11,.st12,.st13,.st6,.st7,.st8,.st9{stroke:#ffd33d}.st10,.st11,.st12,.st13,.st7,.st8,.st9{stroke:#6f42c1}.st10,.st11,.st12,.st13,.st8,.st9{stroke:#f66a09}.st10,.st11,.st12,.st13,.st9{stroke:#ffdf5c}.st10,.st11,.st12,.st13{stroke:#2088ff}.st11,.st12,.st13{stroke:#ffab70}.st12,.st13{stroke:#79b8ff}.st13{stroke:#28a745}</style><path class="st0" d="M1169.9 191.5h-61.2"/><path class="st1" d="M1140.8 191.5c-16.6 0-30-13.4-30-30"/><path class="st2" d="M1076.5 101.1H956.3"/><path class="st3" d="M1785.1 100.9L1755 131"/><path class="st4" d="M1821.7 131.2h-128.1"/><path class="st2" d="M878.6 101.1l30 30"/><path class="st5" d="M1369.2 161h124.5"/><path class="st4" d="M1244.2 161.1h85.2"/><path class="st2" d="M17.4 131.3h168.2"/><circle class="st2" cx="913.5" cy="71.2" r="5.9"/><circle class="st2" cx="882.8" cy="191.1" r="5.9"/><circle class="st2" cx="1473.2" cy="11.2" r="5.9"/><circle class="st2" cx="386.8" cy="41" r="5.9"/><circle class="st2" cx="1538.2" cy="100.8" r="5.9"/><circle class="st2" cx="1289.7" cy="40.8" r="5.9"/><path class="st2" d="M1101.3 131.1h-113"/><path class="st6" d="M1304.3 131.1h-99"/><path class="st2" d="M714.6 131.1h-67.9M956.2 131.1h-76.8M901.4 101.1h-53.7M106.6 71.1l30 30M184.2 101.1h-76.8M123.4 71.1H69.7M1401 130.7h-63.5M1037.9 71.1h-91.1M907.7 71.1h-60"/><path class="st7" d="M1474.7 40.8h-46"/><path class="st2" d="M1425.7 191.2h-99.6M1041.2 191.2H889.1"/><circle class="st2" cx="31.1" cy="191.1" r="5.9"/><path class="st2" d="M189.5 191.2H37.4M1086.9 71.1h-77.7"/><path class="st8" d="M1191.3 71.1h-77.6"/><path class="st2" d="M1609.7 41.1H1495"/><path class="st0" d="M1472 100.9h-101.9"/><path class="st2" d="M1569.3 11.1h-87.7M1408.9 41.2h-113.2M744.4 41.2H631.3M336.5 191.1H223.4M458.5 71h-26.3M1467.4 11.2h-48.1M1482.6 221.2h-72.3"/><path class="st9" d="M1696.9 131h-68.5"/><path class="st2" d="M1657.4 101h-113.5"/><path class="st6" d="M1739.7 101h-41.5"/><path class="st2" d="M1798.7 100.8h-33.3"/><path class="st10" d="M1834.4 160.5h-42.1"/><path class="st7" d="M1850.4 191.2h-42.2"/><path class="st2" d="M974.7 161.1h-24.5M1213.6 161.1h-44.5M921 161.1h-74.5M38.4 161.1H3.9M1701 71h-94.5"/><path class="st11" d="M1785.4 41h-138.3"/><path class="st10" d="M1869.4 71h-26.8"/><path class="st12" d="M1846 71h-9.9"/><path class="st2" d="M1819.3 71h-93.1"/><path class="st8" d="M1685.5 11h-56.4"/><path class="st2" d="M372.6 71h35.2M344.2 41h36.7M156 41h207.5M1664.9 191.2H1574"/><path class="st12" d="M1558.8 221.2h-52.9"/><path class="st10" d="M1592.1 221.2h-35.7"/><path class="st2" d="M1600.5 131.2h-138.7"/><path class="st7" d="M1514.8 191.2h-59.6"/><path class="st2" d="M1576.8 40.9c16.2 0 29.4 13.2 29.4 29.4"/><path class="st1" d="M1411.9 71.1c-16.4 0-29.8 13.3-29.8 29.8"/><path class="st8" d="M1645.7 11c16.4 0 29.8 13.3 29.8 29.8"/><path class="st2" d="M1540.2 131.2c16.4 0 29.8 13.3 29.8 29.8M653.7 100h138.7M713.9 100c-16.4 0-29.8 13.3-29.8 29.8M376.7 71c-16.7 0-30.2-13.5-30.2-30.2"/><path class="st6" d="M1701 100.8c-16.7 0-30.2 13.5-30.2 30.2"/><path class="st2" d="M1421.4 11.2c-16.6 0-30 13.4-30 30"/><path class="st10" d="M1609.7 191.2c-16.6 0-30 13.4-30 30"/><path class="st2" d="M1622 101c16.5 0 29.9-13.4 29.9-29.9"/><path class="st7" d="M1494.7 191.2c-16.6 0-30-13.4-30-30"/><path class="st6" d="M1245.3 161.1c16.6 0 30-13.4 30-30"/><path class="st2" d="M1046.9 131.1c-16.2 0-29.4-13.2-29.4-29.4M1513.7 41c16.5 0 29.9-13.4 29.9-29.9"/><path class="st5" d="M1875.6 191.2h-24.1"/><path class="st2" d="M1022.2 41.1h-70.9M1021.3 71.1c-16.6 0-30-13.4-30-30"/><path class="st13" d="M1432.6 71.1h-49"/><path class="st2" d="M864.5 40.6h-70.9M867.7 70.6c-16.6 0-30-13.4-30-30M58 131.2c16.7 0 30.3 13.5 30.3 30.3"/><circle class="st2" cx="138.2" cy="161.5" r="5.9"/><path class="st2" d="M132.4 161.3h-60"/><path class="st13" d="M1135.8 161.1h-47.6"/></svg>