<svg viewBox="0 0 58.51 58.77" xmlns="http://www.w3.org/2000/svg"><g fill="none" stroke-linecap="round" stroke-linejoin="round" stroke-width="2"><path d="m13.38 1h-12.38v24.75h12.38v-12.37h12.19v-12.38zm44.13 19.6h-12.43v12.4h-11.22a1 1 0 0 0 -.95.95v11.4h-11.46a1 1 0 0 0 -.95.95v10.48a1 1 0 0 0 .95.95h36.06z" stroke="#2088ff"/><path d="m40.92 16.35-1.41-1.41m-4.94-4.94-1.41-1.41m-4.57 20.09-1.41-1.41m-4.94-4.94-1.41-1.41m-4.77 19.91-1.41-1.41m-4.65-4.64-1.41-1.42" stroke="#79b8ff"/><path d="m45.08 30.99v26.66m.28-12.3h12.15m-24.58 0 12.42 12.42" stroke="#2088ff"/></g></svg>