<svg viewBox="0 0 58.78 55.8" xmlns="http://www.w3.org/2000/svg"><g transform="translate(-3.71 -5.43)"><path d="m31.37 18.55a1.25 1.25 0 0 1 -.7-.22l-3.55-2.41-3.55 2.41a1.25 1.25 0 0 1 -2-1v-10.65a1.25 1.25 0 0 1 1.25-1.25h8.5a1.25 1.25 0 0 1 1.25 1.25v10.62a1.25 1.25 0 0 1 -1.2 1.25zm-4.25-5.39a1.25 1.25 0 0 1 .7.22l2.3 1.56v-7h-6v7l2.3-1.56a1.25 1.25 0 0 1 .7-.21z" fill="#ac3396"/><path d="m53.18 61.23h-39.62a9.36 9.36 0 0 1 -1.71-.05 9.47 9.47 0 0 1 -8.15-9.54v-43.9a2.31 2.31 0 0 1 2.3-2.31h42a2.31 2.31 0 0 1 2.31 2.31v42.94h10.9a1.25 1.25 0 0 1 1.25 1.25 9.32 9.32 0 0 1 -9.28 9.3zm-47-53.3v43.69a7 7 0 0 0 5.95 7.06 6.81 6.81 0 0 0 7.67-6.75 1.25 1.25 0 0 1 1.25-1.25h26.78v-42.75h-41.62zm13.15 50.8h33.85a6.82 6.82 0 0 0 6.69-5.56h-37.64a9.32 9.32 0 0 1 -2.87 5.56z" fill="#5f3797"/><path d="m19.16 25.72a1.05 1.05 0 0 0 -.16-.19l-.48-.53h-.07a.46.46 0 0 0 -.72 0l-3.37 3.36-1.44-1.46a.46.46 0 0 0 -.7 0l-.22.04-.44.4-.12.13-.1.2v.12l.08.21a.67.67 0 0 0 .1.13l2.48 2.47a.5.5 0 0 0 .36.18.54.54 0 0 0 .37-.18l4.27-4.31a1.1 1.1 0 0 0 .12-.15l.08-.14v-.1zm0 13.5v-.05l-.16-.17-.41-.41-.15-.15a.46.46 0 0 0 -.72 0l-3.37 3.36-1.44-1.46a.46.46 0 0 0 -.7 0l-.21.16-.38.34-.17.16-.09.19v.12l.06.16a.67.67 0 0 0 .1.14l2.48 2.49a.51.51 0 0 0 .36.18.52.52 0 0 0 .37-.18l4.27-4.32a.82.82 0 0 0 .12-.15l.08-.18v-.1z" fill="#ac3396"/><path d="m40.75 26.85h-16.75a.75.75 0 0 1 0-1.5h16.75a.75.75 0 0 1 0 1.5zm0 3.73h-16.75a.75.75 0 1 1 0-1.5h16.75a.75.75 0 0 1 0 1.5zm0 9.77h-16.75a.75.75 0 1 1 0-1.5h16.75a.75.75 0 0 1 0 1.5zm0 3.72h-16.75a.75.75 0 1 1 0-1.5h16.75a.75.75 0 0 1 0 1.5z" fill="#af9bcb"/></g></svg>