<svg viewBox="0 0 46.63 57.61" xmlns="http://www.w3.org/2000/svg"><g transform="translate(-8.78 -4.53)"><path d="m18.44 35.89a2.68 2.68 0 1 1 2.68-2.68 2.69 2.69 0 0 1 -2.68 2.68zm0-3.86a1.18 1.18 0 1 0 1.18 1.18 1.18 1.18 0 0 0 -1.18-1.21zm29.3 1.97h-21.51a.75.75 0 0 1 0-1.5h21.51a.75.75 0 0 1 0 1.5z" fill="#af9bcb"/><path d="m18.44 46.47a2.68 2.68 0 1 1 2.68-2.68 2.69 2.69 0 0 1 -2.68 2.68zm0-3.86a1.18 1.18 0 1 0 1.18 1.18 1.18 1.18 0 0 0 -1.18-1.18zm29.3 1.93h-21.51a.75.75 0 1 1 0-1.5h21.51a.75.75 0 0 1 0 1.5z" fill="#ac3396"/><path d="m18.49 57.06a2.68 2.68 0 1 1 2.68-2.68 2.68 2.68 0 0 1 -2.68 2.68zm0-3.86a1.18 1.18 0 1 0 1.18 1.18 1.18 1.18 0 0 0 -1.18-1.18zm29.3 1.93h-21.51a.75.75 0 0 1 0-1.5h21.51a.75.75 0 0 1 0 1.5z" fill="#af9bcb"/><path d="m53 62.14h-41.75a2.38 2.38 0 0 1 -2.36-2.38v-31.91a2.38 2.38 0 0 1 2.36-2.38h31.54l2.21-2.08a1.25 1.25 0 0 1 1.7 0l2.3 2.08h4a2.38 2.38 0 0 1 2.36 2.38v31.9a2.38 2.38 0 0 1 -2.36 2.39zm-41.66-2.5h41.57v-31.64h-4.4a1.25 1.25 0 0 1 -.84-.32l-1.82-1.68-1.68 1.62a1.25 1.25 0 0 1 -.87.35h-31.92v31.67z" fill="#5f3797"/><path d="m34.15 13.26h-17.49a.75.75 0 0 1 0-1.5h17.49a.75.75 0 0 1 0 1.5z" fill="#af9bcb"/></g><path d="m31.04.27h1.5v14.35h-1.5z" fill="#5f3797"/><path d="m50 11.81a.56.56 0 0 0 -.52-.37h-4.62a.56.56 0 0 0 -.36 1l2.29 1.94a.55.55 0 0 0 .72 0l2.29-1.94a.56.56 0 0 0 .2-.63z" fill="#ac3396" transform="translate(-8.78 -4.53)"/><path d="m53.16 20.51h-42.16a2.25 2.25 0 0 1 -2.25-2.25v-11.48a2.25 2.25 0 0 1 2.25-2.25h42.16a2.25 2.25 0 0 1 2.25 2.25v11.48a2.25 2.25 0 0 1 -2.25 2.25zm-41.88-2.51h41.63v-11h-41.63z" fill="#5f3797" transform="translate(-8.78 -4.53)"/></svg>