<svg fill="none" height="22" viewBox="0 0 22 22" width="22" xmlns="http://www.w3.org/2000/svg"><path clip-rule="evenodd" d="m0 11c0-6.075 4.925-11 11-11s11 4.925 11 11-4.925 11-11 11-11-4.925-11-11zm16.28-2.72c.1325-.14217.2046-.33022.2012-.52452-.0035-.1943-.0822-.37969-.2196-.5171s-.3228-.21613-.5171-.21956c-.1943-.00342-.3823.0687-.5245.20118l-5.97 5.97-2.47-2.47c-.14217-.1325-.33022-.2046-.52452-.2012-.1943.0035-.37969.0822-.5171.2196s-.21613.3228-.21955.5171c-.00343.1943.06869.3823.20117.5245l3 3c.14063.1405.33125.2193.53.2193s.38937-.0788.53-.2193z" fill="#000" fill-rule="evenodd"/></svg>