<svg height="198" width="300" xmlns="http://www.w3.org/2000/svg"><g transform="translate(-51.687 -197.062)"><g fill="#27adea"><path d="m186.34 230.47 13.08-7.55v31.45l2.98 1.72 2.99-1.73v-31.44l13.08 7.55 2.99-5.17-19.05-11-19.05 11z"/><path d="m178.58 299.54-13.08-7.55 27.24-15.72v-3.44l-2.99-1.73-27.24 15.72v-15.1h-5.98v21.99l19.05 11z"/><path d="m202.4 197.06-60.8 35.09v70.18l60.8 35.09 60.8-35.09v-70.18zm-54.83 101.83v-63.29l54.83-31.64 54.83 31.64v63.29l-54.83 31.64z"/><path d="m226.23 234.95 13.08 7.55-36.91 21.3-36.91-21.3 13.08-7.55-2.98-5.17-19.05 10.99v21.99h5.97v-15.1l36.91 21.3v42.6l-13.08-7.55-2.99 5.17 19.05 11 19.05-11-2.99-5.17-13.08 7.55v-42.6l36.91-21.3v15.1h5.98v-21.99l-19.05-10.99z"/><path d="m242.3 271.72v15.1l-27.24-15.72-2.99 1.72v3.45l27.24 15.72-13.08 7.54 2.99 5.17 19.05-11v-21.99h-5.97z"/><path d="m258.69 312.67h.69c.15 0 .29-.01.44-.01.14-.01.27-.04.37-.08.11-.05.2-.12.27-.22s.1-.24.1-.42a.64.64 0 0 0 -.09-.36.659.659 0 0 0 -.23-.21c-.1-.05-.2-.07-.32-.09-.11-.01-.23-.02-.34-.02h-.88zm-.67-1.96h1.66c1.02 0 1.54.42 1.54 1.26 0 .4-.11.69-.33.88-.23.18-.5.29-.83.33l1.26 1.94h-.72l-1.19-1.89h-.72v1.89h-.67z"/><path d="m259.46 309.2c-2.05 0-3.72 1.67-3.72 3.71 0 2.05 1.67 3.72 3.72 3.72a3.715 3.715 0 0 0 0-7.43m0 8.18c-2.46 0-4.47-2.01-4.47-4.47s2.01-4.47 4.47-4.47 4.47 2 4.47 4.47-2.01 4.47-4.47 4.47"/></g><g><path d="m72.51 390.77c-1.34 1.81-3.67 4.29-6.56 4.29h-6.46c-1.14 0-2.38-.41-3.2-.93-1.09-.62-3.15-2.74-3.77-3.67s-.83-1.96-.83-2.94v-16.27c0-.98.21-1.96.83-2.89.62-.88 2.69-3.1 3.77-3.72.83-.47 2.07-.93 3.2-.93h6.46c2.89 0 5.22 2.53 6.56 4.29.41.57.62.98 1.09 1.81l-5.27 1.5s-1.55-1.91-2.33-2.38c-.05-.05-.16-.05-.21-.05h-6.1c-.1 0-.21.05-.21.05-.67.36-1.81 1.45-2.32 2.27-.05.1-.05.46-.05.57v15.7c0 .62 1.6 1.96 2.38 2.38.05.05.31.05.36.05h5.89c.05 0 .16 0 .26-.05 1.09-.52 2.33-2.43 2.33-2.43l5.27 1.39c-.41.93-.67 1.4-1.09 1.96"/><path d="m78.35 388.3h6.36v6.51h-6.36z"/><path d="m106.83 394.8v-12.76h-11.27v12.76h-5.43v-30.89h5.43v12.97h11.27v-12.97h5.43v30.89z"/><path d="m117.68 388.3h6.36v6.51h-6.36z"/><path d="m157.73 371.09s0-.26-.05-.36c-.31-.57-1.14-1.6-1.65-1.65h-9.36v8.37h9.09c.47 0 1.5-.98 1.91-1.7 0 0 .05-.1.05-.21v-4.45zm4.5 7.65c-.47.67-2.07 2.22-2.79 2.74-.41.31-.88.57-1.34.72l6.15 12.61h-5.89l-5.73-12.19h-5.94v12.19h-5.43v-30.89h14.52c1.24 0 2.64.41 3.67 1.13.72.52 2.33 2.17 2.79 2.84.62.93.93 2.06.93 3.15v4.55c-.01 1.13-.32 2.22-.94 3.15"/><path d="m174.68 387.42s0 .16.05.21c.62.93 1.7 1.91 2.27 2.22.1.05.21.05.26.05h7.44s.16 0 .26-.05c.57-.31 1.65-1.29 2.28-2.22.05-.1.05-.21.05-.21v-15.96s0-.21-.05-.26c-.62-.93-1.71-1.96-2.28-2.27-.1-.05-.21-.05-.26-.05h-7.44s-.21 0-.26.05c-.57.31-1.65 1.34-2.27 2.27-.05.1-.05.26-.05.26zm17.21 2.99c-.67.88-2.69 3.1-3.77 3.72-.83.52-2.12.93-3.2.93h-7.85c-1.14 0-2.38-.41-3.21-.93-1.09-.62-3.15-2.84-3.77-3.72-.62-.93-.83-1.96-.83-2.94v-16.17c0-.98.21-2.01.83-2.94.62-.88 2.69-3.1 3.77-3.72.83-.52 2.07-.93 3.21-.93h7.85c1.09 0 2.38.41 3.2.93 1.09.62 3.1 2.84 3.77 3.72.62.93.83 1.96.83 2.94v16.17c0 .98-.21 2.01-.83 2.94"/><path d="m215.82 387.57v-3.67c0-.16-.05-.26-.05-.26-.46-.83-1.45-1.76-1.91-1.76h-9.04v7.75h9.09c.47 0 1.5-.93 1.86-1.71 0 .01.05-.14.05-.35m0-12.76v-3.67c0-.1-.05-.26-.05-.26-.46-.83-1.45-1.81-1.91-1.81h-9.04v7.8h9.09c.47 0 1.5-.93 1.86-1.71 0 .01.05-.09.05-.35m4.55 16.07c-.47.67-2.02 2.27-2.74 2.79-1.03.72-2.48 1.14-3.72 1.14h-14.52v-30.89h14.52c1.34 0 2.69.46 3.72 1.19.72.52 2.27 2.12 2.74 2.79.67.98.88 2.17.88 3.2v3.82c0 2.17-.83 3.31-2.01 4.49 1.19 1.19 2.01 2.27 2.01 4.44v3.93c0 1.08-.26 2.17-.88 3.1"/><path d="m228.59 363.91h5.43v30.89h-5.43z"/><path d="m258.1 394.8-10.7-20.51v20.51h-5.43v-30.89h5.84l10.59 20.76v-20.76h5.43v30.89z"/><path d="m293.03 390.41c-.62.93-2.69 3.1-3.77 3.72-.83.46-2.12.93-3.21.93h-8.99c-3.05 0-5.22-2.48-6.56-4.29-.41-.57-.52-.83-.93-1.6l5.12-1.7s1.03 1.45 2.27 2.37c0 0 .1.05.36.05h8.48c.21 0 .31-.05.31-.05.77-.41 2.33-1.96 2.33-2.37v-3.05c0-.47-.36-.83-.62-.88l-13.44-3.82c-2.64-.72-4.03-3.26-4.03-5.63v-2.79c0-.88.15-2.01.77-2.94s2.74-3.1 3.82-3.72c.83-.46 2.07-.93 3.2-.93h7.65c3.1 0 5.22 2.53 6.56 4.29.41.57.67 1.03 1.03 1.81l-5.22 1.5s-1.19-1.7-2.28-2.37c0 0-.05-.05-.31-.05h-7.29c-.21 0-.31.05-.31.05-.82.41-2.22 1.86-2.22 2.27v2.58c0 .47.31.83.57.88l13.49 3.93c2.63.72 4.03 3.31 4.03 5.63v3.25c.02.87-.14 2-.81 2.93"/><path d="m305.12 387.42s0 .16.05.21c.62.93 1.7 1.91 2.27 2.22.1.05.21.05.26.05h7.44s.16 0 .26-.05c.57-.31 1.65-1.29 2.28-2.22.05-.1.05-.21.05-.21v-15.96s0-.21-.05-.26c-.62-.93-1.71-1.96-2.28-2.27-.1-.05-.21-.05-.26-.05h-7.44s-.21 0-.26.05c-.57.31-1.65 1.34-2.27 2.27-.05.1-.05.26-.05.26zm17.21 2.99c-.67.88-2.69 3.1-3.77 3.72-.83.52-2.12.93-3.2.93h-7.85c-1.14 0-2.38-.41-3.21-.93-1.09-.62-3.15-2.84-3.77-3.72-.62-.93-.83-1.96-.83-2.94v-16.17c0-.98.21-2.01.83-2.94.62-.88 2.69-3.1 3.77-3.72.83-.52 2.07-.93 3.21-.93h7.85c1.09 0 2.38.41 3.2.93 1.09.62 3.1 2.84 3.77 3.72.62.93.82 1.96.82 2.94v16.17c.01.98-.2 2.01-.82 2.94"/><path d="m345.95 394.8-10.7-20.51v20.51h-5.43v-30.89h5.84l10.59 20.76v-20.76h5.43v30.89z"/></g></g></svg>