<svg width="1000" height="1000" viewBox="0 0 1000 1000" fill="none" xmlns="http://www.w3.org/2000/svg">
<rect width="1000" height="1000" fill="white"/>
<path d="M416.326 335.011C416.214 335.013 416.102 335.015 415.989 335.018C406.78 338.618 397.888 342.825 389.377 347.596C351.077 368.751 319.655 401.173 302.571 441.724C245.733 451.222 200 498.974 200 560C200 626.411 252.835 680 320.832 680L603.81 680C604.588 676.626 605 673.111 605 669.5C605 643.819 584.181 623 558.5 623C542.204 623 527.866 631.383 519.563 644.071C515.156 635.032 508.405 627.354 500.104 621.833C503.446 622.597 506.926 623 510.5 623C536.181 623 557 602.181 557 576.5C557 550.819 536.181 530 510.5 530C494.748 530 480.825 537.833 472.414 549.816C468.091 542.404 461.806 534.582 455.419 529.464C457.728 529.817 460.093 530 462.5 530C488.181 530 509 509.181 509 483.5C509 458.243 488.863 437.689 463.768 437.017C470.463 429.377 475.297 420.065 477.56 409.789C481.938 423.818 495.03 434 510.5 434C529.554 434 545 418.554 545 399.5C545 380.446 529.554 365 510.5 365C495.81 365 483.265 374.181 478.289 387.117C476.228 373.656 469.803 361.632 460.503 352.534C462.625 352.841 464.794 353 467 353C487.538 353 504.862 339.242 510.259 320.439C505.669 320.148 501.046 320 496.394 320C472.625 320 449.627 323.731 428.129 330.687C428.15 330.723 428.171 330.759 428.192 330.794C424.194 332.089 420.236 333.496 416.326 335.011Z" fill="#007AF5"/>
<path d="M579.837 336.612C562.97 329.603 545.013 324.647 526.359 322.063C531.382 334.904 543.879 344 558.5 344C566.555 344 573.966 341.239 579.837 336.612Z" fill="#007AF5"/>
<path d="M606.5 422C618.926 422 629 411.926 629 399.5C629 387.074 618.926 377 606.5 377C594.074 377 584 387.074 584 399.5C584 411.926 594.074 422 606.5 422Z" fill="#007AF5"/>
<path d="M677 489.5C677 501.926 666.926 512 654.5 512C642.074 512 632 501.926 632 489.5C632 477.074 642.074 467 654.5 467C666.926 467 677 477.074 677 489.5Z" fill="#007AF5"/>
<path d="M738.5 506C747.613 506 755 498.613 755 489.5C755 480.387 747.613 473 738.5 473C729.387 473 722 480.387 722 489.5C722 498.613 729.387 506 738.5 506Z" fill="#007AF5"/>
<path d="M800 579.5C800 588.613 792.613 596 783.5 596C774.387 596 767 588.613 767 579.5C767 570.387 774.387 563 783.5 563C792.613 563 800 570.387 800 579.5Z" fill="#007AF5"/>
<path d="M702.5 602C714.926 602 725 591.926 725 579.5C725 567.074 714.926 557 702.5 557C690.074 557 680 567.074 680 579.5C680 591.926 690.074 602 702.5 602Z" fill="#007AF5"/>
<path d="M773 669.5C773 673.292 772.062 676.865 770.405 680H730.595C728.938 676.865 728 673.292 728 669.5C728 657.074 738.074 647 750.5 647C762.926 647 773 657.074 773 669.5Z" fill="#007AF5"/>
<path d="M621.627 680C620.57 676.689 620 673.161 620 669.5C620 650.446 635.446 635 654.5 635C673.554 635 689 650.446 689 669.5C689 673.161 688.43 676.689 687.373 680H621.627Z" fill="#007AF5"/>
<path d="M558.5 524C577.554 524 593 508.554 593 489.5C593 470.446 577.554 455 558.5 455C539.446 455 524 470.446 524 489.5C524 508.554 539.446 524 558.5 524Z" fill="#007AF5"/>
<path d="M641 579.5C641 598.554 625.554 614 606.5 614C587.446 614 572 598.554 572 579.5C572 560.446 587.446 545 606.5 545C625.554 545 641 560.446 641 579.5Z" fill="#007AF5"/>
</svg>
