<svg width="56" height="56" xmlns="http://www.w3.org/2000/svg"><g transform="translate(5 5)" fill="none" fill-rule="evenodd"><circle fill="var(--color-marketing-icon-primary, #2088FF)" cx="38" cy="42" r="1"/><path d="M41.182 38.565c-.098-.132-.29.112-.58-1.565-.273-1.582-.655-3-2.602-3-1.947 0-2.363 1.361-2.628 3-.267 1.648-.477 1.414-.523 1.552-.566.22-.849.664-.849 1.334 0 .482.597 1.11 1 1.114h6c.435.001 1-.605 1-1.114 0-.667-.273-1.107-.818-1.32z" stroke="var(--color-marketing-icon-primary, #2088FF)" stroke-width="2" stroke-linecap="round" stroke-linejoin="round"/><path d="M38 29a9 9 0 110 18 9 9 0 010-18z" stroke="var(--color-marketing-icon-primary, #2088FF)" stroke-width="2" stroke-linecap="round" stroke-linejoin="round"/><path stroke="var(--color-marketing-icon-secondary, #79B8FF)" stroke-width="2" stroke-linecap="round" stroke-linejoin="round" d="M23 26H5M33 26h-5M26 32h-8M13 32H5"/><path stroke="var(--color-marketing-icon-primary, #2088FF)" stroke-width="2" stroke-linecap="round" stroke-linejoin="round" d="M23 6H5"/><path stroke="var(--color-marketing-icon-secondary, #79B8FF)" stroke-width="2" stroke-linecap="round" stroke-linejoin="round" d="M37 6h-9"/><path stroke="var(--color-marketing-icon-primary, #2088FF)" stroke-width="2" stroke-linecap="round" stroke-linejoin="round" d="M37 12H18"/><path stroke="var(--color-marketing-icon-secondary, #79B8FF)" stroke-width="2" stroke-linecap="round" stroke-linejoin="round" d="M13 12H5"/><rect stroke="var(--color-marketing-icon-primary, #2088FF)" stroke-width="2" width="42" height="18" rx="2"/><path d="M0 22v14c0 1.105.892 2 1.993 2H25m17-11.94v-4" stroke="var(--color-marketing-icon-secondary, #79B8FF)" stroke-width="2" stroke-linecap="round"/></g></svg>