<svg width="56" height="56" xmlns="http://www.w3.org/2000/svg"><g transform="translate(4 4)" fill="none" fill-rule="evenodd"><path d="M21.68 32.927v-2.54a2.227 2.227 0 01.37-1.265c-.526-.04-3.84-.371-3.84-4.302 0-1.013.305-1.839.915-2.477a4.989 4.989 0 01-.146-1.86c.087-.882.946-.823 2.577.178 1.277-.47 2.852-.47 4.725 0 .248-.303 2.434-1.704 2.658-.268.047.296.016.946-.093 1.95.516.524.776 1.358.78 2.501.007 2.261-1.26 3.687-3.8 4.278.24.436.355.857.346 1.264a117.22 117.22 0 000 2.614c2.43-.744 4.228-2.06 5.395-3.95.837-1.356 1.433-2.932 1.433-4.865 0-2.886-1.175-4.984-2.5-6.388C28.714 15.903 26.266 15 24 15a9.094 9.094 0 00-6.588 2.897C16.028 19.393 15 21.507 15 24.185c0 2.026.701 3.945 1.773 5.38 1.228 1.643 2.864 2.764 4.907 3.362z" stroke="#2088FF" stroke-width="2" stroke-linecap="round" stroke-linejoin="round"/><path d="M20 37.054V45a2 2 0 01-2 2H3a2 2 0 01-2-2V33a2 2 0 012-2h10m-8-.994V29a2 2 0 012-2h4" stroke="#79B8FF" stroke-width="2" stroke-linecap="round"/><path d="M19.997 42.003h2.006a2 2 0 002-2v-3M14 35h2" stroke="#79B8FF" stroke-width="2" stroke-linecap="round"/><path stroke="#2088FF" stroke-width="2" stroke-linecap="round" d="M11 39h5M5 35h5"/><path stroke="#79B8FF" stroke-width="2" stroke-linecap="round" d="M5 39h2"/><path stroke="#2088FF" stroke-width="2" stroke-linecap="round" d="M5 43h5"/><path stroke="#79B8FF" stroke-width="2" stroke-linecap="round" d="M14 43h2"/><path d="M35.021 17.022h7.982a3.997 3.997 0 100-7.994H43V6.75A5.75 5.75 0 0037.25 1h-.72a5.585 5.585 0 00-5.555 5l-.644-.2A4.895 4.895 0 0024 10.016l-.015-.005A3.152 3.152 0 0020 12" stroke="#79B8FF" stroke-width="2" stroke-linecap="round" stroke-linejoin="round"/><circle fill="#2088FF" cx="23" cy="4" r="1"/><circle fill="#2088FF" cx="35" cy="13" r="1"/><circle fill="#2088FF" cx="47" cy="6" r="1"/><path d="M5.07 9.245A23.897 23.897 0 000 24c0 1.018.063 2.02.186 3.005M23.03 47.981a23.897 23.897 0 0012.008-2.663m7.939-6.622A23.896 23.896 0 0048 24c0-1.363-.114-2.7-.332-4M28.991.52A24.153 24.153 0 0024 0c-3.96 0-7.694.959-10.986 2.657" stroke="#2088FF" stroke-width="2" stroke-linecap="round"/><path d="M10 7a3 3 0 11-6 0 3 3 0 016 0zm34 34a3 3 0 11-6 0 3 3 0 016 0z" stroke="#2088FF" stroke-width="2" stroke-linecap="round" stroke-linejoin="round"/></g></svg>