<svg width="56" height="56" viewBox="0 0 56 56" fill="none" xmlns="http://www.w3.org/2000/svg">
  <path fill-rule="evenodd" clip-rule="evenodd" d="M17.8809 9.52668C18.1423 10.0132 17.9598 10.6195 17.4733 10.8809C13.8322 12.8374 10.8347 15.8348 8.88102 19.4731C8.61975 19.9597 8.0135 20.1423 7.52692 19.881C7.04035 19.6198 6.85771 19.0135 7.11899 18.5269C9.25865 14.5423 12.5399 11.2614 16.5267 9.11913C17.0132 8.85771 17.6195 9.04018 17.8809 9.52668ZM36.1198 9.52533C36.382 9.03923 36.9886 8.85769 37.4747 9.11985C41.459 11.2687 44.7387 14.5474 46.8805 18.526C47.1423 19.0123 46.9603 19.6187 46.474 19.8805C45.9877 20.1423 45.3813 19.9603 45.1195 19.474C43.1635 15.8407 40.1665 12.8439 36.5253 10.8802C36.0392 10.618 35.8577 10.0114 36.1198 9.52533ZM6.59498 37.0857C7.09994 36.862 7.69063 37.09 7.91431 37.595C9.72073 41.6728 12.7482 45.0221 16.4905 47.1286C16.9718 47.3995 17.1423 48.0093 16.8714 48.4905C16.6005 48.9718 15.9908 49.1423 15.5095 48.8714C11.3809 46.5475 8.06173 42.8658 6.0857 38.405C5.86201 37.9001 6.09003 37.3094 6.59498 37.0857ZM46.4059 37.0861C46.9106 37.3102 47.1381 37.9011 46.9139 38.4059C44.9356 42.8609 41.618 46.5403 37.4918 48.8707C37.0109 49.1423 36.4009 48.9727 36.1293 48.4918C35.8577 48.0109 36.0273 47.4009 36.5082 47.1293C40.2505 45.0157 43.2774 41.6672 45.0861 37.5942C45.3102 37.0894 45.9011 36.8619 46.4059 37.0861Z" fill="#79B8FF"/>
  <path d="M27.0001 9.99255C27.5525 9.99255 28.0001 9.54493 28.0001 8.99255C28.0001 8.44017 27.5525 7.99255 27.0001 7.99255C26.4477 7.99255 26.0001 8.44017 26.0001 8.99255C26.0001 9.54493 26.4477 9.99255 27.0001 9.99255Z" fill="#2188FF"/>
  <path fill-rule="evenodd" clip-rule="evenodd" d="M21.0072 7.5C21.0072 5.51523 22.5402 4 24.4617 4H29.5543C31.3922 4 33.0089 5.28372 33.0089 7.3497V10.4973C33.0089 11.3743 32.7407 12.2498 32.1328 12.9206C31.5127 13.6049 30.6217 13.9842 29.5666 13.9972L29.5543 13.9973L24.7138 13.9973L22.6585 15.7612C22.362 16.0156 21.9446 16.0741 21.5896 15.911C21.2347 15.7479 21.0072 15.393 21.0072 15.0024V7.5ZM24.4617 6C23.6543 6 23.0072 6.61018 23.0072 7.5V12.8263L23.6922 12.2384C23.8735 12.0828 24.1046 11.9973 24.3435 11.9973H29.5477C30.1163 11.989 30.451 11.798 30.6508 11.5776C30.8633 11.343 31.0089 10.9786 31.0089 10.4973V7.3497C31.0089 6.54108 30.4468 6 29.5543 6H24.4617Z" fill="#2188FF"/>
  <path d="M22.5827 25.4432C22.9796 25.0591 23.6126 25.0694 23.9967 25.4663L25.3341 26.848C25.7094 27.2357 25.7094 27.8512 25.3341 28.2389L23.9967 29.6207C23.6126 30.0175 22.9796 30.0278 22.5827 29.6437C22.1859 29.2596 22.1756 28.6265 22.5597 28.2297L23.2239 27.5435L22.5597 26.8572C22.1756 26.4604 22.1859 25.8273 22.5827 25.4432Z" fill="#2188FF"/>
  <path d="M28.0066 28.0015C27.4543 28.0015 27.0066 28.4492 27.0066 29.0015C27.0066 29.5537 27.4543 30.0015 28.0066 30.0015H30.0066C30.5589 30.0015 31.0066 29.5537 31.0066 29.0015C31.0066 28.4492 30.5589 28.0015 30.0066 28.0015H28.0066Z" fill="#2188FF"/>
  <path fill-rule="evenodd" clip-rule="evenodd" d="M20.0001 20.9926C18.8956 20.9926 18.0001 21.888 18.0001 22.9926V32.0007H16.0056C15.4533 32.0007 15.0056 32.4484 15.0056 33.0007C15.0056 33.553 15.4533 34.0007 16.0056 34.0007H38.0056C38.5579 34.0007 39.0056 33.553 39.0056 33.0007C39.0056 32.4484 38.5579 32.0007 38.0056 32.0007H36.0001V22.9926C36.0001 21.888 35.1047 20.9926 34.0001 20.9926H20.0001ZM20.0001 31.9926V22.9926H34.0001V31.9926H20.0001Z" fill="#2188FF"/>
  <path d="M29.7072 45.6234C30.0978 46.0139 30.0978 46.6471 29.7072 47.0376L27.0406 49.7043C26.853 49.8918 26.5987 49.9972 26.3335 49.9972C26.0682 49.9972 25.8139 49.8918 25.6263 49.7043L24.293 48.3709C23.9025 47.9804 23.9025 47.3473 24.293 46.9567C24.6835 46.5662 25.3167 46.5662 25.7072 46.9567L26.3335 47.583L28.293 45.6234C28.6835 45.2329 29.3167 45.2329 29.7072 45.6234Z" fill="#2188FF"/>
  <path fill-rule="evenodd" clip-rule="evenodd" d="M27.0151 40.9979C23.4258 40.9979 20.5155 43.9078 20.5155 47.4975C20.5155 51.0871 23.4256 53.9979 27.0151 53.9979C30.6053 53.9979 33.5155 51.0872 33.5155 47.4975C33.5155 43.9077 30.6051 40.9979 27.0151 40.9979ZM22.5155 47.4975C22.5155 45.0124 24.5303 42.9979 27.0151 42.9979C29.5008 42.9979 31.5155 45.0125 31.5155 47.4975C31.5155 49.9827 29.5006 51.9979 27.0151 51.9979C24.5305 51.9979 22.5155 49.9828 22.5155 47.4975Z" fill="#2188FF"/>
  <path fill-rule="evenodd" clip-rule="evenodd" d="M9.8682 29.781C10.5688 29.0606 11.0001 28.0769 11.0001 26.9926C11.0001 24.7834 9.21003 22.9926 7.00012 22.9926C4.79109 22.9926 3.00012 24.7833 3.00012 26.9926C3.00012 28.074 3.42927 29.0552 4.12652 29.7751C2.99523 30.4548 2.17643 31.5379 2.00804 32.8668C1.93861 33.4148 2.3265 33.9152 2.8744 33.9846C3.42231 34.054 3.92275 33.6662 3.99218 33.1183C4.12606 32.0616 5.28542 30.9926 7.00011 30.9926C8.654 30.9926 9.83748 32.0158 10.0118 33.1451C10.0961 33.6909 10.6068 34.0651 11.1527 33.9808C11.6985 33.8966 12.0727 33.3858 11.9884 32.84C11.784 31.5155 10.9724 30.4515 9.8682 29.781ZM5.00012 26.9926C5.00012 25.8879 5.89559 24.9926 7.00012 24.9926C8.10522 24.9926 9.00012 25.8878 9.00012 26.9926C9.00012 28.0973 8.10522 28.9926 7.00012 28.9926C5.89559 28.9926 5.00012 28.0972 5.00012 26.9926Z" fill="#2188FF"/>
  <path fill-rule="evenodd" clip-rule="evenodd" d="M49.868 29.7809C50.5686 29.0605 51.0001 28.0769 51.0001 26.9926C51.0001 24.7833 49.2092 22.9926 47.0001 22.9926C44.7902 22.9926 43.0001 24.7834 43.0001 26.9926C43.0001 28.074 43.4291 29.0551 44.1263 29.7751C42.9948 30.4548 42.1759 31.538 42.008 32.8673C41.9388 33.4152 42.3269 33.9155 42.8748 33.9847C43.4227 34.0539 43.923 33.6658 43.9922 33.1179C44.1256 32.0619 45.285 30.9926 47.0001 30.9926C48.654 30.9926 49.8375 32.0158 50.0118 33.1451C50.0961 33.6909 50.6068 34.0651 51.1527 33.9808C51.6985 33.8966 52.0727 33.3858 51.9884 32.84C51.7839 31.5154 50.9723 30.4514 49.868 29.7809ZM45.0001 26.9926C45.0001 25.8878 45.895 24.9926 47.0001 24.9926C48.1047 24.9926 49.0001 25.8879 49.0001 26.9926C49.0001 28.0972 48.1047 28.9926 47.0001 28.9926C45.895 28.9926 45.0001 28.0973 45.0001 26.9926Z" fill="#2188FF"/>
</svg>
