<svg version="1.1" id="Layer_3" xmlns="http://www.w3.org/2000/svg" x="0" y="0" viewBox="0 0 75.9 72.9" xml:space="preserve"><style>.st0{fill:#79b8ff}.st1{fill-rule:evenodd;clip-rule:evenodd;fill:#2188ff}</style><path class="st0" d="M23.4 5c4.4-2 9.2-3.1 14.3-3.1 8.4 0 16.1 3 22.1 8V4.6c0-.8.6-1.4 1.4-1.4.8 0 1.4.6 1.4 1.4v8.3c0 .8-.6 1.4-1.4 1.4h-8.3c-.8 0-1.4-.6-1.4-1.4 0-.8.6-1.4 1.4-1.4h4.6c-5.4-4.3-12.3-6.9-19.8-6.9-4.7 0-9.2 1-13.2 2.9-.7.3-1.5 0-1.8-.7-.3-.7 0-1.5.7-1.8zM64.6 16.9c.6-.4 1.5-.3 1.9.4 3.6 5.5 5.8 12 5.8 19.1 0 4.9-1 9.5-2.8 13.8-.3.7-1.1 1-1.8.7-.7-.3-1-1.1-.7-1.8 1.7-3.9 2.6-8.2 2.6-12.7 0-6.5-2-12.5-5.3-17.6-.5-.6-.3-1.5.3-1.9zM8.1 21.4c.7.3 1 1.1.7 1.8C7 27.2 6 31.7 6 36.4 6 42.9 8 49 11.3 54c.4.6.3 1.5-.4 1.9-.6.4-1.5.3-1.9-.4C5.3 50 3.2 43.4 3.2 36.4c0-5.1 1.1-10 3.1-14.4.3-.6 1.1-.9 1.8-.6zM17.9 61.3h4.6c.8 0 1.4-.6 1.4-1.4 0-.8-.6-1.4-1.4-1.4h-8.3c-.8 0-1.4.6-1.4 1.4v8.3c0 .8.6 1.4 1.4 1.4s1.4-.6 1.4-1.4V63c6 5 13.7 8 22.1 8 5.2 0 10-1.1 14.4-3.2.7-.3 1-1.1.7-1.8-.3-.7-1.1-1-1.8-.7-4 1.9-8.5 2.9-13.3 2.9-7.5 0-14.3-2.6-19.8-6.9zM47.8 21.6c.5-.5 1.4-.5 2 0l1.4 1.4c.5.5.5 1.4 0 2-.5.5-1.4.5-2 0l-1.4-1.4c-.5-.6-.5-1.4 0-2zM44.2 14.7c-.5-.5-1.4-.5-2 0-.5.5-.5 1.4 0 2l1.4 1.4c.5.5 1.4.5 2 0s.5-1.4 0-2l-1.4-1.4zM35.4 34.1c.5-.5 1.4-.5 2 0l1.4 1.4c.5.5.5 1.4 0 2s-1.4.5-2 0L35.4 36c-.6-.5-.6-1.4 0-1.9zM31.8 28.5c-.5-.5-1.4-.5-2 0-.5.5-.5 1.4 0 2l1.4 1.4c.5.5 1.4.5 2 0 .5-.5.5-1.4 0-2l-1.4-1.4zM21.8 46.7c.5-.5 1.4-.5 2 0l1.2 1.2c.5.5.5 1.4 0 2-.5.5-1.4.5-2 0l-1.2-1.2c-.5-.6-.5-1.4 0-2zM18 41c-.5-.5-1.4-.5-2 0-.5.5-.5 1.4 0 2l1.2 1.2c.5.5 1.4.5 2 0 .5-.5.5-1.4 0-2L18 41z"/><path class="st1" d="M15.6 10.2c-2.3 0-4.1 1.9-4.1 4.1v16.6c0 .8.6 1.4 1.4 1.4h9.7c.8 0 1.4-.6 1.4-1.4v-8.3h8.3c.8 0 1.4-.6 1.4-1.4v-9.7c0-.8-.6-1.4-1.4-1.4H15.6zm5.6 2.7h-5.5c-.8 0-1.4.6-1.4 1.4v15.2h6.9V12.9zm2.7 6.9v-6.9h6.9v6.9h-6.9zM52.9 29.5c-.8 0-1.4.6-1.4 1.4v8.3H43c-.4.1-1.1.2-1.7.7-.6.6-.7 1.3-.8 1.8v8.5h-6.9-.4c-.2 0-.6.1-.9.2-.4.2-.8.4-1.1.9-.3.5-.4 1-.4 1.6v6.9c0 .6.1 1.4.7 2.1.6.6 1.5.7 2.1.7h26.3c2.3 0 4.1-1.9 4.1-4.1V30.9c0-.8-.6-1.4-1.4-1.4h-9.7zm-1.3 28.7L43.3 51v-9-.1H51.6v16.3zm-2.3 1.7L41.4 53h-7.8v6.9h15.7zm5-27.6h6.9v15.2h-6.9V32.3zm0 17.9h6.9v8.3c0 .8-.6 1.4-1.4 1.4h-5.5v-9.7z"/></svg>