<?xml version="1.0" encoding="UTF-8" standalone="no"?>
<!-- Created with Inkscape (http://www.inkscape.org/) -->

<svg
   version="1.1"
   id="svg2"
   width="576"
   height="566.40002"
   viewBox="0 0 576 566.40002"
   sodipodi:docname="Logo_FalconOnly.ai"
   xmlns:inkscape="http://www.inkscape.org/namespaces/inkscape"
   xmlns:sodipodi="http://sodipodi.sourceforge.net/DTD/sodipodi-0.dtd"
   xmlns="http://www.w3.org/2000/svg"
   xmlns:svg="http://www.w3.org/2000/svg">
  <defs
     id="defs6">
    <clipPath
       clipPathUnits="userSpaceOnUse"
       id="clipPath16">
      <path
         d="M 0,424.8 H 432 V 0 H 0 Z"
         id="path14" />
    </clipPath>
  </defs>
  <sodipodi:namedview
     id="namedview4"
     pagecolor="#ffffff"
     bordercolor="#000000"
     borderopacity="0.25"
     inkscape:showpageshadow="2"
     inkscape:pageopacity="0.0"
     inkscape:pagecheckerboard="0"
     inkscape:deskcolor="#d1d1d1" />
  <g
     id="g8"
     inkscape:groupmode="layer"
     inkscape:label="Logo_FalconOnly"
     transform="matrix(1.3333333,0,0,-1.3333333,0,566.4)">
    <g
       id="g10">
      <g
         id="g12"
         clip-path="url(#clipPath16)">
        <g
           id="g18"
           transform="translate(383.3593,124.0604)">
          <path
             d="m 0,0 c -7.997,0.795 -22.187,2.77 -39.944,-6.181 -17.746,-8.951 -24.734,-9.337 -33.445,-8.408 2.56,-4.686 7.75,-11.114 24.068,-12.262 16.313,-1.15 24.115,-1.653 15.531,-21.984 0.196,6.141 -1.237,18.013 -17.436,15.93 -16.189,-2.086 -19.975,-16.663 -2.603,-23.939 -5.649,-1.134 -17.621,-1.811 -26.176,20.563 -5.925,-2.574 -15.058,-7.737 -31.619,5.056 5.767,-2.092 12.906,-2.222 12.906,-2.222 -14.704,7.017 -28.743,20.068 -37.743,32.402 7.133,-5.312 15.006,-10.605 22.963,-11.596 -9.403,11.473 -31.156,34.42 -57.771,57.998 17.114,-11.171 37.761,-28.839 71.551,-24.868 C -65.922,24.462 -43.209,32.205 0,0"
             style="fill:#ec0000;fill-opacity:1;fill-rule:nonzero;stroke:none"
             id="path20" />
        </g>
        <g
           id="g22"
           transform="translate(238.7217,132.0282)">
          <path
             d="m 0,0 c -21.196,9.183 -25.732,11.026 -52.975,17.951 -27.248,6.921 -54.05,21.327 -71.965,43.811 12.636,-9.255 38.431,-27.874 64.923,-25.858 C -64.046,41.8 -71.47,46.393 -80.35,51.026 -70.312,48.621 -40.007,40.871 0,0"
             style="fill:#ec0000;fill-opacity:1;fill-rule:nonzero;stroke:none"
             id="path24" />
        </g>
        <g
           id="g26"
           transform="translate(192.5876,210.4579)">
          <path
             d="m 0,0 c -5.466,15.674 -15.32,35.744 -62.069,65.561 -22.769,15.025 -56.193,33.894 -100.204,82.01 3.146,-12.969 17.053,-46.696 87.122,-90.482 C -52.131,41.384 -22.423,31.691 0,0"
             style="fill:#ec0000;fill-opacity:1;fill-rule:nonzero;stroke:none"
             id="path28" />
        </g>
        <g
           id="g30"
           transform="translate(195.4768,187.7374)">
          <path
             d="m 0,0 c -5.753,13.267 -17.309,30.287 -62.597,54.586 -20.879,11.699 -56.559,29.695 -88.644,63.912 2.912,-12.353 17.806,-39.49 81.892,-73.38 C -51.601,35.338 -21.597,26.169 0,0"
             style="fill:#ec0000;fill-opacity:1;fill-rule:nonzero;stroke:none"
             id="path32" />
        </g>
        <g
           id="g34"
           transform="translate(239.3996,256.3118)">
          <path
             d="m 0,0 c -88.276,25.258 -123.381,57.136 -150.537,90.511 12.398,-38.414 41.979,-52.158 73.572,-77.946 31.597,-25.792 33.395,-39.65 42.701,-54.887 20.734,-33.944 24.032,-39.552 44.61,-54.373 24.25,-16.088 53.584,-5.2 85.76,-10.245 32.172,-5.043 58.767,-29.568 64.552,-39.004 6.745,12.033 -9.368,29.371 -13.72,33.723 2.322,15.763 -34.948,22.688 -49.063,28.083 -2.769,1.058 -9.63,2.647 -3.681,16.792 C 102.216,-47.826 110.572,-30.837 0,0 m 127.4,-103.569 c 16.739,-2.529 15.895,-6.079 16.075,-12.197 -7.121,7.778 -16.075,12.197 -16.075,12.197"
             style="fill:#ec0000;fill-opacity:1;fill-rule:nonzero;stroke:none"
             id="path36" />
        </g>
      </g>
    </g>
  </g>
</svg>
