<svg class="icon" viewBox="0 0 402 366" fill="none" xmlns="http://www.w3.org/2000/svg"><g filter="url(#filter0_d)"><path d="M192.541 191.914V158.846H107.353L204 34.4347L269.041 111.086L204 16L57.2374 169.535L82.0975 191.914H192.541Z" fill="#89BBE8"/><path d="M324.52 158.846H215.459V191.914H302.417L299.294 197.426L204 317.565L138.421 238.352L204 336L351.726 183.316L324.52 158.846Z" fill="#89BBE8"/><path d="M204 57.7096H380L320.688 111.086H269.041V217.997L209.729 294.29V111.086H209.281H204V57.7096Z" fill="#435070"/><path d="M204 57.7096H28L87.3116 111.086H138.959V217.997L198.271 294.29V111.086H198.726H204V57.7096Z" fill="#435070"/></g><defs><filter id="filter0_d" x="-20" y="-16" width="442" height="406" filterUnits="userSpaceOnUse" color-interpolation-filters="sRGB"><feFlood flood-opacity="0" result="BackgroundImageFix"/><feColorMatrix in="SourceAlpha" type="matrix" values="0 0 0 0 0 0 0 0 0 0 0 0 0 0 0 0 0 0 127 0"/><feOffset dy="4"/><feGaussianBlur stdDeviation="10"/><feColorMatrix type="matrix" values="0 0 0 0 0 0 0 0 0 0 0 0 0 0 0 0 0 0 0.7 0"/><feBlend mode="normal" in2="BackgroundImageFix" result="effect1_dropShadow"/><feBlend mode="normal" in="SourceGraphic" in2="effect1_dropShadow" result="shape"/></filter></defs></svg>