<svg fill="none" height="24" viewBox="0 0 162 24" width="162" xmlns="http://www.w3.org/2000/svg"><g clip-rule="evenodd" fill="#000" fill-rule="evenodd"><path d="m37.3008 18.6441h-4.8942l3.8294-16.80462 5.3369-1.83850344z"/><path d="m26.7881 9.01847c-1.1707 0-1.8462.909-2.1195 1.96363 2.3182 0 3.0195-.6795 3.0195-1.24184 0-.3958-.3782-.72179-.9-.72179zm-2.6662 4.90683c-.0285.1147-.0515.3277-.0515.4424 0 .7485.5466 1.0046 1.9952 1.0046 1.2958 0 3.1401-.3027 4.2141-.6519v3.4347c-1.3712.4674-3.5183.7235-5.2393.7235-4.0402 0-5.9839-1.0296-5.9839-4.4626 0-3.3701 1.6695-8.62523 8.107-8.62523 4.0881 0 5.3084 1.7324 5.3084 3.5537 0 2.35943-2.1673 4.36953-8.35 4.58083z"/><path d="m46.1892 5.1888c-1.6676 0-2.7416-1.0047-2.7416-2.3836 0-1.7997 1.3473-2.8052 3.0149-2.8052 1.6971 0 2.7462 1.0055 2.7462 2.3603 0 1.8238-1.3225 2.8285-3.0195 2.8285z"/><path d="m42.7564 6.21313h5.036l-2.5466 12.24537h-5.0885l1.7956-8.59847"/><path d="m62.3057 6.21313c-1.7467 4.11337-3.6674 8.13197-6.1109 12.24537h-6.236c-.797-3.8806-1.1467-7.9707-1.0464-12.24537h5.0884c-.1012 2.0093-.0745 4.06687.0469 5.98127.0267.514.0783 1.0046.1261 1.4979h.0286c.2218-.4933.4702-.9839.6957-1.4979.8725-2.0127 1.6695-4.20307 2.2723-5.98127z"/><path d="m69.1151 9.01847c-1.1697 0-1.848.909-2.1232 1.96363 2.3229 0 3.0214-.6795 3.0214-1.24184 0-.3958-.3727-.72179-.8982-.72179zm-2.6671 4.90683c-.0248.1147-.0534.3277-.0534.4424 0 .7485.5522 1.0046 1.9962 1.0046 1.2976 0 3.1429-.3027 4.215-.6519v3.4347c-1.3722.4674-3.5165.7235-5.2356.7235-4.043 0-5.9876-1.0296-5.9876-4.4626 0-3.3701 1.6695-8.62523 8.107-8.62523 4.0899 0 5.3093 1.7324 5.3093 3.5537 0 2.35943-2.1655 4.36953-8.3509 4.58083z"/><path d="m84.581 10.5354c-.2771-.0698-.8265-.1423-1.2241-.1423-1.1237 0-2.021 1.0547-2.4222 2.9933l-1.0427 5.0732h-5.094l2.5493-12.24543h3.8165l.1234 1.6324c1.1715-1.353 2.0964-2.0558 3.5174-2.0558.647 0 .9967.0465 1.1697.094z"/><path d="m100.49 6.21313c-2.245 5.46817-4.239 9.46517-6.2356 12.22377-2.8926 4.0445-5.4382 4.9793-8.0583 4.9793-.774 0-1.5958-.1906-1.9961-.376l.8006-3.5296h1.7459c.8733 0 1.2451-.3294 1.8203-1.0521-.9727-3.2942-1.4467-7.8983-1.3979-12.24537h5.1151c-.104 1.9843-.0764 4.04357.0497 5.91227.0248.5355.0718 1.0503.1215 1.5669h.0266c.2237-.4933.4722-.9839.6986-1.5212.8485-1.9403 1.6731-4.16077 2.2179-5.95797z"/><path d="m120.05 18.4596h-5.367l1.273-6.1727h-4.542l-1.273 6.1727h-5.359l3.39-16.31482h5.365l-1.221 5.8217h4.539l1.223-5.8217h5.359z"/><path d="m130.62 9.01847c-1.173 0-1.845.909-2.118 1.96363 2.319 0 3.02-.6795 3.02-1.24184 0-.3958-.378-.72179-.902-.72179zm-2.668 4.90683c-.025.1147-.048.3277-.048.4424 0 .7485.549 1.0046 1.992 1.0046 1.299 0 3.145-.3027 4.217-.6519v3.4347c-1.371.4674-3.517.7235-5.239.7235-4.041 0-5.986-1.0296-5.986-4.4626 0-3.3701 1.671-8.62523 8.106-8.62523 4.093 0 5.316 1.7324 5.316 3.5537 0 2.35943-2.174 4.36953-8.358 4.58083z"/><path d="m146.083 10.5354c-.274-.0698-.818-.1423-1.22-.1423-1.122 0-2.021 1.0547-2.42 2.9933l-1.048 5.0732h-5.085l2.541-12.24543h3.815l.127 1.6324c1.172-1.353 2.092-2.0558 3.513-2.0558.652 0 .999.0465 1.176.094z"/><path d="m154.44 9.55399c-2.045 0-2.594 2.92161-2.594 4.23151 0 1.0512.474 1.3539 1.399 1.3539 2.017 0 2.541-2.9234 2.541-4.2514 0-1.02791-.447-1.33401-1.346-1.33401zm-1.898 9.32371c-3.964 0-5.907-1.5902-5.907-4.7671 0-3.5287 1.869-8.32081 8.456-8.32081 3.94 0 5.909 1.63681 5.909 4.77051 0 3.5995-1.871 8.3174-8.458 8.3174z"/><path d="m8.1333 14.5789h-.9985l1.7937-8.60189h1.3998c2.1185 0 2.8925 1.1728 2.8925 2.781 0 3.25109-1.9243 5.82089-5.0875 5.82089zm4.7525-8.29749 3.3905-3.0493c-1.3225-.7451-3.1383-1.0866-5.4032-1.0866h-6.48451l-3.38859 16.31399h6.7597c7.8539 0 10.995-5.1413 10.995-10.49309 0-1.391-.3185-2.5025-.936-3.3666z"/></g></svg>