<?xml version="1.0" encoding="utf-8"?>
<!-- Generator: Adobe Illustrator 25.3.1, SVG Export Plug-In . SVG Version: 6.00 Build 0)  -->
<svg version="1.1" id="Layer_2" xmlns="http://www.w3.org/2000/svg" xmlns:xlink="http://www.w3.org/1999/xlink" x="0px" y="0px"
	 viewBox="0 0 75.9 72.9" style="enable-background:new 0 0 75.9 72.9;" xml:space="preserve">
<style type="text/css">
	.st0{fill-rule:evenodd;clip-rule:evenodd;fill:#79B8FF;}
	.st1{fill:#79B8FF;}
	.st2{fill-rule:evenodd;clip-rule:evenodd;fill:#2188FF;}
	.st3{fill:#2188FF;}
</style>
<path class="st0" d="M17,5.9c-0.7,0-1.2,0.4-1.2,1.2V24h1.4c1.5,0,2.8,1.2,2.8,2.8v1.4h6.9c0.8,0,1.4,0.6,1.4,1.4s-0.6,1.4-1.4,1.4
	H20v1.4c0,1.5-1.2,2.8-2.8,2.8h-1.4v8.3c0,0.8-0.6,1.4-1.4,1.4c-0.8,0-1.4-0.6-1.4-1.4v-8.3h-1.4c-1.5,0-2.8-1.2-2.8-2.8v-5.6
	c0-1.5,1.2-2.8,2.8-2.8H13V7.1c0-2.4,1.9-4,4-4h42.1c2.1,0,4,1.5,4,4c0,0.8-0.6,1.4-1.4,1.4c-0.8,0-1.4-0.6-1.4-1.4
	c0-0.7-0.5-1.2-1.2-1.2H17z M17.2,26.8v2.5c0,0.1,0,0.2,0,0.2c0,0.1,0,0.2,0,0.2v2.5h-5.6v-5.6H17.2z"/>
<path class="st0" d="M61.7,28.2c0.8,0,1.4,0.6,1.4,1.4v8.3h1.4c1.5,0,2.8,1.2,2.8,2.8v5.6c0,1.5-1.2,2.8-2.8,2.8h-1.4v16.9
	c0,2.4-1.9,4-4,4H17c-2.1,0-4-1.5-4-4c0-0.8,0.6-1.4,1.4-1.4c0.8,0,1.4,0.6,1.4,1.4c0,0.7,0.5,1.2,1.2,1.2h42.1
	c0.7,0,1.2-0.4,1.2-1.2V49h-1.4c-1.5,0-2.8-1.2-2.8-2.8v-1.4h-6.9c-0.8,0-1.4-0.6-1.4-1.4c0-0.8,0.6-1.4,1.4-1.4h6.9v-1.4
	c0-1.5,1.2-2.8,2.8-2.8h1.4v-8.3C60.3,28.8,60.9,28.2,61.7,28.2z M58.9,43.7c0-0.1,0-0.2,0-0.2c0-0.1,0-0.2,0-0.2v-2.5h5.6v5.6h-5.6
	V43.7z"/>
<path class="st1" d="M32.5,29.5c0-0.8,0.6-1.4,1.4-1.4h8.3c0.8,0,1.4,0.6,1.4,1.4s-0.6,1.4-1.4,1.4h-8.3
	C33.1,30.9,32.5,30.3,32.5,29.5z"/>
<path class="st1" d="M33.9,42c-0.8,0-1.4,0.6-1.4,1.4c0,0.8,0.6,1.4,1.4,1.4h8.3c0.8,0,1.4-0.6,1.4-1.4c0-0.8-0.6-1.4-1.4-1.4H33.9z
	"/>
<path class="st2" d="M70,8.7c2.3,0,4.2,1.9,4.2,4.2c0,1.8-1.2,3.4-2.8,3.9v4.4c0,2.3-1.9,4.2-4.2,4.2h-5.6c-2.3,0-4.2-1.9-4.2-4.2
	v-1.4h-4.2c-0.8,0-1.4-0.6-1.4-1.4c0-0.8,0.6-1.4,1.4-1.4h4.2v-1.4c0-2.3,1.9-4.2,4.2-4.2h4.4C66.7,9.9,68.2,8.7,70,8.7z M66.1,14.3
	h-4.4c-0.8,0-1.4,0.6-1.4,1.4v5.6c0,0.8,0.6,1.4,1.4,1.4h5.6c0.8,0,1.4-0.6,1.4-1.4v-4.4C67.4,16.4,66.5,15.4,66.1,14.3z M71.4,12.9
	c0-0.8-0.6-1.4-1.4-1.4c-0.8,0-1.4,0.6-1.4,1.4c0,0.8,0.6,1.4,1.4,1.4C70.8,14.3,71.4,13.6,71.4,12.9z"/>
<path class="st2" d="M6.1,46.2c1.2,0,2.3,0.5,3.1,1.4h5.2c2.3,0,4.2,1.9,4.2,4.2v1.4h4.2c0.8,0,1.4,0.6,1.4,1.4
	c0,0.8-0.6,1.4-1.4,1.4h-4.2v1.4c0,2.3-1.9,4.2-4.2,4.2H8.9c-2.3,0-4.2-1.9-4.2-4.2v-3c-1.6-0.6-2.8-2.1-2.8-3.9
	C1.9,48.1,3.8,46.2,6.1,46.2z M15.8,51.8v5.6c0,0.8-0.6,1.4-1.4,1.4H8.9c-0.8,0-1.4-0.6-1.4-1.4v-3c1.6-0.6,2.8-2.1,2.8-3.9h4.2
	C15.2,50.4,15.8,51,15.8,51.8z M6.1,49c-0.8,0-1.4,0.6-1.4,1.4c0,0.8,0.6,1.4,1.4,1.4c0.8,0,1.4-0.6,1.4-1.4C7.5,49.6,6.9,49,6.1,49
	z"/>
<path class="st3" d="M28.3,54.6c0-0.8,0.6-1.4,1.4-1.4h18.1c0.8,0,1.4,0.6,1.4,1.4c0,0.8-0.6,1.4-1.4,1.4H29.7
	C29,55.9,28.3,55.3,28.3,54.6z"/>
<path class="st3" d="M28.3,17c-0.8,0-1.4,0.6-1.4,1.4c0,0.8,0.6,1.4,1.4,1.4h18.1c0.8,0,1.4-0.6,1.4-1.4c0-0.8-0.6-1.4-1.4-1.4H28.3
	z"/>
</svg>
