<svg id="Layer_3" data-name="Layer 3" xmlns="http://www.w3.org/2000/svg" viewBox="0 0 66.5 60.96"><path d="M4.1,12.5A4.16,4.16,0,0,1,8.26,8.34H18a1.39,1.39,0,1,1,0,2.77H8.26A1.39,1.39,0,0,0,6.87,12.5V59.6A1.39,1.39,0,0,0,8.26,61H18a1.39,1.39,0,1,1,0,2.77H8.26A4.16,4.16,0,0,1,4.1,59.6Z" transform="translate(-4.1 -2.8)" fill="#79b8ff" fill-rule="evenodd"/><path d="M30.42,44.36a1.39,1.39,0,0,0,0,2.77H62.29a1.39,1.39,0,0,0,0-2.77Z" transform="translate(-4.1 -2.8)" fill="#2188ff"/><path d="M29,37.44a1.38,1.38,0,0,1,1.38-1.39H62.29a1.39,1.39,0,0,1,0,2.77H30.42A1.38,1.38,0,0,1,29,37.44Z" transform="translate(-4.1 -2.8)" fill="#2188ff"/><path d="M30.42,27.74a1.39,1.39,0,0,0,0,2.77H62.29a1.39,1.39,0,0,0,0-2.77Z" transform="translate(-4.1 -2.8)" fill="#2188ff"/><path d="M29,20.81a1.39,1.39,0,0,1,1.38-1.39h18a1.39,1.39,0,1,1,0,2.78h-18A1.38,1.38,0,0,1,29,20.81Z" transform="translate(-4.1 -2.8)" fill="#2188ff"/><path d="M26.27,2.8A4.16,4.16,0,0,0,22.11,7V59.6a4.16,4.16,0,0,0,4.16,4.16H66.44A4.16,4.16,0,0,0,70.6,59.6V7A4.16,4.16,0,0,0,66.44,2.8ZM24.88,7a1.39,1.39,0,0,1,1.39-1.39H66.44A1.39,1.39,0,0,1,67.83,7V59.6A1.39,1.39,0,0,1,66.44,61H26.27a1.39,1.39,0,0,1-1.39-1.39Z" transform="translate(-4.1 -2.8)" fill="#2188ff" fill-rule="evenodd"/><path d="M12.41,44.36a1.39,1.39,0,0,0,0,2.77H18a1.39,1.39,0,1,0,0-2.77Z" transform="translate(-4.1 -2.8)" fill="#2188ff"/><path d="M11,37.44a1.38,1.38,0,0,1,1.38-1.39H18a1.39,1.39,0,1,1,0,2.77H12.41A1.38,1.38,0,0,1,11,37.44Z" transform="translate(-4.1 -2.8)" fill="#2188ff"/><path d="M12.41,27.74a1.39,1.39,0,0,0,0,2.77H18a1.39,1.39,0,1,0,0-2.77Z" transform="translate(-4.1 -2.8)" fill="#2188ff"/></svg>