<svg width="241" height="137" viewBox="0 0 241 137" fill="none" xmlns="http://www.w3.org/2000/svg">
<path d="M103.626 136.637C160.512 136.637 206.626 133.697 206.626 130.07C206.626 126.443 160.512 123.503 103.626 123.503C46.7411 123.503 0.626465 126.443 0.626465 130.07C0.626465 133.697 46.7411 136.637 103.626 136.637Z" fill="#161B22" fill-opacity="0.5"/>
<path d="M152.063 117.608L155.89 116.273L157.766 84.3041L156.625 84.5887L149.21 86.4105L142.48 87.2075L136.205 87.4352L129.646 87.3214L122.687 85.4996L118.637 82.8239L113.675 82.5962L111.736 80.6036L114.36 77.7002L122.06 74.5691L129.931 73.7721L136.548 73.7151L149.096 73.5443L157.424 71.9503L157.139 65.5742L155.256 67.4529L152.69 70.584L149.438 73.1458L140.483 73.4874L135.92 71.0394L143.392 68.4776L149.952 64.7202L148.64 65.1757L140.027 65.9158L132.669 65.6311L124.398 63.1262L121.946 61.2475L119.607 57.5471L119.037 54.0174L117.44 50.8863L113.162 42.7453L111.622 36.3692L112.021 30.2208L110.139 28.2282L105.861 22.9907L106.488 20.9412L112.706 16.3868L118.866 14.6789L120.064 13.028L126.281 7.79043L135.35 3.74841L143.108 2.72368L150.637 3.29298L159.192 6.02561L165.125 10.1815L169.631 16.5007L171.855 22.8199L172.368 31.7579L171.461 41.0944L169.345 46.5027L167.292 50.2031L163.984 54.5867L169.174 53.9605L174.65 52.0249L179.498 49.3492L184.461 44.9087L188.853 40.0696L191.876 34.2628L193.53 28.8545L191.705 25.154L190.507 20.7704L190.45 13.9388L191.762 8.35973L193.815 4.88701L196.781 2.83754L200.831 2.49609L205.223 4.54561L209.101 7.90455L212.125 12.6865L214.463 17.4115L214.976 21.6815L214.121 27.0322L210.699 34.9452L207.39 39.9551L202.827 45.0798L197.58 50.0896L191.191 54.7001L182.407 59.1975L174.023 61.1331L167.463 61.0767L170.657 64.9478L173.395 70.1279L173.851 73.6576L172.996 75.8218L177.274 86.183L183.434 103.432L185.944 114.534L190.621 116.697L193.587 119.373L196.61 122.959L198.834 122.618L198.207 124.496L196.838 126.375L193.815 128.14L188.967 129.165L185.202 129.335L180.525 128.709L176.076 127.343L171.855 125.179L169.003 126.432L163.87 127.741L157.881 128.538L152.405 128.254L148.184 127.4L144.419 125.976L142.822 123.699L143.222 122.618L145.674 123.244L148.127 120.17L152.063 117.608Z" fill="#0D1117"/>
<path d="M10.0713 125.707L11.24 124.372L13.1602 124.873L13.4942 123.707L16.0823 121.04L19.5887 118.874L23.5126 117.957L30.7759 89.5427L30.5254 88.5428L20.5905 83.2099L18.0024 79.3768L18.4199 75.3771L20.7575 72.6274L25.1823 69.0443L36.2025 61.5449L43.2989 57.8785L38.7071 53.2955L34.2823 46.6293L31.8612 39.7965L30.7278 34.4989L31.0264 28.0474L32.4456 21.7979L35.2007 15.4651L39.375 9.88216L44.9686 5.63249L51.9815 2.54939L60.6641 1.13281L67.8439 1.71604L75.1073 3.96511L80.9513 7.54891L86.211 12.5486L89.8009 18.2146L97.7321 23.1307L98.8175 25.297L97.1477 28.2969L93.3908 31.1306L92.9734 36.7134L90.7193 42.3793L87.5468 47.7958L82.1201 53.462L77.4449 57.2951L76.1926 60.4615L73.6045 63.4613L69.5137 65.4611L62.5008 65.8778L56.1558 65.1278L57.3246 67.9609L59.9962 69.6275L74.2724 68.7109L75.1908 67.0443L78.6972 61.2114L83.7064 55.1286L90.1349 51.3789L95.9789 50.462L100.905 51.7121L104.077 54.795L105.246 59.9614L106.582 62.2112L105.246 63.1278L102.658 62.9612L98.4835 61.0441L94.8936 64.2102L93.1404 68.1273L52.8164 72.2096L55.4879 101.792L58.8274 115.79L60.3301 116.456L63.6696 117.707L66.9256 120.29L69.1797 123.206L70.6825 123.04L72.6862 123.873L73.1871 125.79L71.2669 127.706L67.0091 128.956L61.8329 129.206L56.2393 128.956L51.4806 128.373L46.3879 126.873L44.6347 125.29L44.1338 123.123L40.7108 122.956L38.4567 121.873L36.9539 127.123L35.3677 128.623L31.4438 130.289L23.1786 131.539L16.7502 131.122L12.4088 129.872L10.3217 128.456L10.0713 125.707Z" fill="#0D1117"/>
<path fill-rule="evenodd" clip-rule="evenodd" d="M54.1241 69.0822C54.2203 69.6374 54.4856 70.3694 54.9109 71.1321C55.3363 71.8948 55.8196 72.5048 56.2412 72.8781C56.4539 73.0665 56.6287 73.1748 56.7531 73.2229C56.7842 73.235 56.8078 73.2418 56.8251 73.2456C56.8309 73.2289 56.8375 73.2052 56.8436 73.1723C56.8679 73.0411 56.8675 72.8352 56.8189 72.5551C56.7226 72 56.4574 71.268 56.032 70.5053C55.6066 69.7426 55.1233 69.1325 54.7018 68.7592C54.4891 68.5709 54.3142 68.4626 54.1899 68.4144C54.1588 68.4024 54.1351 68.3955 54.1179 68.3917C54.1121 68.4084 54.1055 68.4322 54.0994 68.465C54.0751 68.5963 54.0755 68.8022 54.1241 69.0822ZM54.1343 68.3569C54.1344 68.357 54.1338 68.3579 54.1323 68.3595C54.1336 68.3576 54.1343 68.3568 54.1343 68.3569ZM54.0829 68.3872C54.0808 68.3876 54.0796 68.3876 54.0796 68.3875C54.0796 68.3874 54.0806 68.3872 54.0829 68.3872ZM56.8086 73.2805C56.8086 73.2804 56.8092 73.2794 56.8107 73.2778C56.8094 73.2798 56.8087 73.2806 56.8086 73.2805ZM56.86 73.2502C56.8622 73.2498 56.8633 73.2498 56.8634 73.2499C56.8634 73.25 56.8624 73.2502 56.86 73.2502ZM53.0757 68.2752C53.13 67.9816 53.2726 67.6506 53.6018 67.4665C53.9311 67.2825 54.2873 67.3345 54.5655 67.4423C54.8476 67.5515 55.1281 67.7452 55.3915 67.9784C55.9221 68.4483 56.474 69.1598 56.941 69.9971C57.408 70.8344 57.7235 71.678 57.8447 72.3768C57.9048 72.7237 57.9224 73.0644 57.8673 73.3621C57.813 73.6558 57.6703 73.9868 57.3411 74.1708C57.0119 74.3549 56.6556 74.3029 56.3774 74.1951C56.0954 74.0859 55.8149 73.8922 55.5515 73.659C55.0208 73.1891 54.469 72.4776 54.002 71.6403C53.535 70.803 53.2195 69.9593 53.0983 69.2606C53.0381 68.9137 53.0206 68.573 53.0757 68.2752Z" fill="#1F6FEB"/>
<path fill-rule="evenodd" clip-rule="evenodd" d="M88.6149 63.7977C87.1976 64.9622 86.084 66.1872 85.4216 67.1985C85.088 67.7078 84.8864 68.1364 84.8049 68.4581C84.7188 68.7982 84.7946 68.8874 84.7983 68.8913L84.7985 68.8916C84.8086 68.9024 84.8709 68.9693 85.1551 68.9135C85.4408 68.8575 85.8329 68.6953 86.3338 68.4161C87.3289 67.8615 88.602 66.9328 90.0545 65.8268C91.491 64.7331 92.7491 63.6275 93.5584 62.7108C93.9666 62.2484 94.2348 61.8626 94.3643 61.5712C94.45 61.3784 94.4501 61.2911 94.4449 61.2615C94.4328 61.2547 94.4065 61.2429 94.3575 61.2321C94.2635 61.2114 94.1211 61.2031 93.924 61.2216C93.5301 61.2587 93.006 61.3945 92.402 61.6236C91.1991 62.0799 89.7774 62.8688 88.6149 63.7977ZM94.441 61.2491C94.4412 61.2489 94.4422 61.2506 94.4433 61.2544C94.4413 61.2511 94.4407 61.2492 94.441 61.2491ZM94.5808 60.214C94.8155 60.2656 95.0619 60.3742 95.2434 60.5886C95.6157 61.0281 95.4984 61.5835 95.3154 61.995C95.1218 62.4306 94.7718 62.9102 94.3385 63.4011C93.4646 64.391 92.146 65.544 90.6847 66.6566C89.2395 67.7569 87.9099 68.7306 86.8402 69.3269C86.3086 69.6232 85.8027 69.8487 85.3553 69.9365C84.909 70.024 84.4016 69.9928 84.0377 69.6031C83.6683 69.2074 83.6791 68.6625 83.7957 68.2019C83.9171 67.7227 84.1861 67.1839 84.551 66.6269C85.2849 65.5064 86.4782 64.2045 87.9573 62.9896L87.9626 62.9852V62.9853C89.2116 61.9867 90.7296 61.1434 92.0332 60.6489C92.6828 60.4024 93.304 60.2331 93.8265 60.1838C94.0876 60.1592 94.3461 60.1624 94.5808 60.214Z" fill="#1F6FEB"/>
<path d="M161.407 114.556C167.654 114.556 172.131 107.989 172.131 101.422C172.131 94.8548 166.769 92.4573 166.769 86.4984C166.769 80.5396 172.131 76.9434 179.592 76.9434" stroke="#E1E4E8" stroke-width="0.34" stroke-miterlimit="10"/>
<path d="M221.722 114.556C227.986 114.556 232.463 107.989 232.463 101.422C232.463 94.8547 227.101 92.4746 227.101 86.4983C227.101 80.5221 232.567 75.4492 240.011 75.4492C216.416 76.0327 203.187 76.3598 179.592 76.9433C172.131 76.9433 166.769 80.5221 166.769 86.4983C166.769 92.4746 172.131 94.8547 172.131 101.422C172.131 107.989 167.654 114.556 161.407 114.556" fill="#30363D"/>
<path d="M232.463 101.422C232.463 95.6887 228.35 93.1349 227.257 88.6006C221.861 96.4184 211.641 102.013 203.867 98.5379C203.867 98.5379 204.579 109.24 205.099 114.556L221.202 116.884C227.535 116.884 232.463 107.989 232.463 101.422Z" fill="#0D1117"/>
<path d="M232.463 101.422C232.463 95.6887 228.35 93.1349 227.257 88.6006C221.861 96.4184 211.641 102.013 203.867 98.5379C203.867 98.5379 204.579 109.24 205.099 114.556L221.202 116.884C227.535 116.884 232.463 107.989 232.463 101.422Z" fill="#161B22"/>
<path opacity="0.6" d="M232.463 101.422C232.463 95.6887 228.35 93.1349 227.257 88.6006C221.861 96.4184 211.641 102.013 203.867 98.5379C203.867 98.5379 204.579 109.24 205.099 114.556L221.202 116.884C227.535 116.884 232.463 107.989 232.463 101.422Z" fill="#30363D"/>
<path opacity="0.5" d="M225.245 101.717H175.619V99.3369H225.106L225.245 101.717Z" fill="#30363D"/>
<path opacity="0.8" d="M221.722 92.4745H172.634V90.0771H220.629L221.722 92.4745Z" fill="#484F58"/>
<path d="M220.091 84.4141H172.478V82.0166H221.08L220.091 84.4141Z" fill="#484F58"/>
<path d="M224.759 78.7332H175.914V77.5518H227.483L224.759 78.7332Z" fill="#484F58"/>
<path opacity="0.5" d="M222.468 110.074H174.126V108.284H223.614L222.468 110.074Z" fill="#30363D"/>
<path d="M192.797 62.6113C210.391 62.6113 208.899 78.7334 209.801 94.2647C210.704 109.796 215.007 116.849 221.271 116.849L161.408 114.521C155.144 114.521 150.372 109.744 149.47 94.23C148.567 78.716 150.077 66.6592 132.482 66.6592" fill="#21262D"/>
<path d="M171.333 121.592C187.435 121.592 172.148 103.993 170.743 94.7165C169.285 85.0224 170.743 61.4127 192.797 62.6114L132.482 65.9296C110.116 65.9296 110.411 88.1496 110.411 94.7165C110.411 101.283 127.121 121.592 111.018 121.592" fill="#484F58"/>
<path d="M170.604 94.4378C170.268 92.2598 170.117 90.0571 170.153 87.8535C164.08 102.864 148.342 103.489 136.213 102.899L137.202 107.676C137.202 107.676 140.499 115.338 142.997 121.297H171.194C187.296 121.297 172.096 103.698 170.604 94.4378Z" fill="#30363D"/>
<path opacity="0.5" d="M169.997 118.239H122.141V117.04H170.743L169.997 118.239Z" fill="#6E7681"/>
<path opacity="0.5" d="M171.142 114.764H122.939V112.975H171.038L171.142 114.764Z" fill="#6E7681"/>
<path opacity="0.5" d="M170.24 109.883H120.648V107.503H169.355L170.24 109.883Z" fill="#6E7681"/>
<path opacity="0.5" d="M167.064 102.412H117.664V100.032H165.867L167.064 102.412Z" fill="#6E7681"/>
<path fill-rule="evenodd" clip-rule="evenodd" d="M160.36 6.26439C166.499 9.66703 171.691 15.6538 172.77 25.5504C173.875 35.8927 171.329 47.3287 164.456 55.4728C157.558 63.6456 146.362 68.4341 130.343 65.5563L130.527 64.5303C146.227 67.3508 157.032 62.6538 163.66 54.8001C170.313 46.9179 172.816 35.7857 171.735 25.6631C170.696 16.137 165.729 10.4319 159.856 7.17634C153.958 3.90682 147.132 3.10463 142.446 3.45499L142.44 3.45544C138.053 3.73191 133.766 4.88867 129.834 6.85702C125.902 8.82538 122.405 11.5651 119.552 14.9134C119.468 15.0123 119.349 15.0761 119.221 15.0923C117.358 15.3254 114.472 16.3105 111.894 17.6097C110.61 18.2568 109.422 18.9721 108.489 19.695C107.542 20.4294 106.918 21.1264 106.676 21.7208C106.469 22.2315 106.58 22.9272 107.019 23.7868C107.449 24.6289 108.139 25.5195 108.887 26.3445C109.632 27.1653 110.415 27.9003 111.014 28.4315C111.314 28.6966 111.565 28.9098 111.742 29.0563C111.83 29.1295 111.9 29.186 111.947 29.224L112 29.2666L112.013 29.277L112.016 29.2794C112.016 29.2794 112.017 29.28 111.695 29.6895C111.373 30.0991 111.373 30.099 111.373 30.0989L111.371 30.0977L111.367 30.0943L111.351 30.082L111.293 30.0354C111.243 29.9948 111.17 29.9354 111.078 29.859C110.894 29.7063 110.633 29.4856 110.324 29.2119C109.708 28.6654 108.895 27.9031 108.117 27.0453C107.342 26.1916 106.583 25.2222 106.092 24.2613C105.611 23.318 105.33 22.2677 105.712 21.3277C106.06 20.4715 106.866 19.6354 107.852 18.8708C108.853 18.0947 110.103 17.3453 111.426 16.6786C113.976 15.3935 116.871 14.3795 118.89 14.0853C121.81 10.6996 125.371 7.92576 129.368 5.9247C133.424 3.89431 137.846 2.70087 142.372 2.41528C147.212 2.05393 154.248 2.87646 160.36 6.26439Z" fill="#1F6FEB"/>
<path d="M163.629 91.0676H114.697V88.6875H163.594L163.629 91.0676Z" fill="#6E7681"/>
<path d="M165.034 79.4279H115.287V77.0479H165.52L165.034 79.4279Z" fill="#6E7681"/>
<path d="M168.452 71.0716H121.637L122.991 69.2822H169.65L168.452 71.0716Z" fill="#6E7681"/>
<path d="M173.831 67.354L126.843 69.0044L129.515 67.8057L175.966 66.1553L173.831 67.354Z" fill="#6E7681"/>
<path d="M144.49 67.9635L152.366 63.998L156.967 65.1807L154.457 68.8679L148.742 73.9464L139.89 77.0074L136.823 70.8854L144.49 67.9635Z" fill="#0D1117"/>
<path fill-rule="evenodd" clip-rule="evenodd" d="M145.997 66.5436C147.97 65.5807 149.645 64.5964 150.68 63.6504L151.382 64.4203C150.231 65.4723 148.442 66.5097 146.453 67.4806C144.454 68.4565 142.209 69.3854 140.117 70.21C139.079 70.6191 138.089 70.9984 137.181 71.3461C136.242 71.7061 135.391 72.0322 134.666 72.3224C133.959 72.6058 133.401 72.8434 133.028 73.0312C132.839 73.1267 132.72 73.198 132.658 73.245C132.641 73.2576 132.635 73.264 132.635 73.264C132.635 73.2639 132.641 73.258 132.65 73.2459C132.662 73.2293 132.749 73.1104 132.717 72.9279L131.692 73.1065C131.651 72.874 131.758 72.6985 131.818 72.6189C131.884 72.5315 131.965 72.4627 132.032 72.412C132.17 72.3079 132.356 72.2034 132.56 72.1002C132.976 71.8904 133.57 71.6386 134.279 71.3546C134.999 71.0667 135.867 70.7336 136.82 70.3683C137.734 70.0181 138.725 69.6382 139.735 69.24C141.82 68.4186 144.035 67.5015 145.997 66.5436Z" fill="#1F6FEB"/>
<path fill-rule="evenodd" clip-rule="evenodd" d="M152.261 70.2729C154.066 68.6362 155.832 66.4595 156.37 64.0107L157.387 64.2347C156.78 66.9978 154.824 69.3553 152.96 71.0456C151.096 72.7349 149.237 73.835 148.694 74.0562L148.302 73.0909C148.696 72.9298 150.454 71.9105 152.261 70.2729Z" fill="#1F6FEB"/>
<path fill-rule="evenodd" clip-rule="evenodd" d="M151.366 68.3279C150.152 68.8017 148.545 69.6236 146.827 70.6815L146.817 70.6875V70.6874C145.073 71.7085 143.47 72.9538 142.048 74.3914L141.309 73.6582C142.793 72.1573 144.466 70.8571 146.287 69.7906C148.037 68.7131 149.699 67.8596 150.987 67.3567C151.628 67.1067 152.202 66.9329 152.66 66.8701C152.887 66.839 153.117 66.8305 153.326 66.8722C153.536 66.9141 153.787 67.0216 153.94 67.2749C154.093 67.5271 154.073 67.7993 154.016 68.0038C153.958 68.2093 153.847 68.4133 153.717 68.6054C153.455 68.9925 153.042 69.4354 152.53 69.9036C151.499 70.8455 149.988 71.9628 148.235 73.0426C147.424 73.5542 146.616 74.0117 145.863 74.4148L145.372 73.4958C146.111 73.1002 146.897 72.6547 147.682 72.1593L147.687 72.1563C149.403 71.0997 150.858 70.0201 151.827 69.1339C152.315 68.6879 152.66 68.3088 152.856 68.02C152.889 67.9708 152.916 67.9271 152.938 67.8888C152.898 67.8913 152.853 67.8958 152.801 67.9029C152.462 67.9493 151.977 68.0893 151.366 68.3279Z" fill="#1F6FEB"/>
<path fill-rule="evenodd" clip-rule="evenodd" d="M111.442 38.2708C110.53 33.1312 111.229 27.8349 113.445 23.1094L114.387 23.5523C112.263 28.0845 111.592 33.1642 112.468 38.0934L112.469 38.1036C113.018 41.5951 114.792 45.2977 116.453 48.2762C117.102 49.4411 117.728 50.4842 118.251 51.3574C118.395 51.5978 118.532 51.8253 118.659 52.0389C118.951 52.5296 119.197 52.9541 119.37 53.2877C119.456 53.4541 119.53 53.6092 119.582 53.7456C119.627 53.8617 119.686 54.0371 119.676 54.2145L119.675 54.2224C119.434 57.5865 121.62 61.1633 125.969 63.1804L125.531 64.1262C120.907 61.9814 118.375 58.0732 118.634 54.189C118.631 54.1767 118.624 54.1541 118.61 54.1193C118.578 54.0353 118.524 53.9192 118.446 53.7673C118.289 53.4643 118.057 53.0642 117.764 52.5722C117.64 52.3634 117.506 52.1392 117.363 51.901C116.839 51.0269 116.202 49.9651 115.544 48.7842C113.873 45.7879 112.022 41.9528 111.442 38.2708Z" fill="#1F6FEB"/>
<path d="M62.1211 69.4907C81.208 69.4907 87.7496 91.867 90.4391 98.4339C93.1286 105.001 94.9332 122.2 111.036 122.2L171.333 119.942C155.23 119.942 153.443 105.001 150.771 98.4339C148.099 91.867 142.841 62.9238 123.754 62.9238L62.1211 69.4907Z" fill="#21262D"/>
<path fill-rule="evenodd" clip-rule="evenodd" d="M97.9832 22.951C98.6318 23.6301 99.1472 24.3455 99.2781 25.0008C99.3564 25.3932 99.2658 25.787 99.1121 26.1412C98.957 26.4984 98.7194 26.8577 98.4427 27.2048C97.8891 27.8991 97.1256 28.6098 96.3703 29.2406C95.6111 29.8746 94.8416 30.443 94.2635 30.8521C93.974 31.0569 93.7315 31.2225 93.5609 31.3371C93.5498 31.3446 93.539 31.3519 93.5285 31.3589C93.5293 31.4711 93.5304 31.5858 93.5315 31.7031C93.5447 33.0667 93.5612 34.7789 93.1017 36.9404C92.5684 39.4495 91.4 42.5478 88.8814 46.4753C86.3489 50.4243 83.4685 53.0064 81.2327 54.7705C80.6747 55.2107 80.1565 55.6003 79.6968 55.9451L79.6459 55.9833C79.2052 56.314 78.8249 56.5993 78.5088 56.8535C78.1775 57.1201 77.9409 57.3336 77.7901 57.5093C77.6456 57.6778 77.6341 57.7499 77.6333 57.7497C77.6332 57.7497 77.6332 57.7487 77.6332 57.7466C77.6332 57.7551 77.633 57.7636 77.6326 57.772C77.4747 61.0119 72.811 67.9862 60.0195 66.2197C60.0075 66.2181 59.9956 66.216 59.9838 66.2135C55.0448 65.1769 50.305 63.3498 45.9468 60.8027L46.4717 59.9025C50.728 62.3901 55.3566 64.1753 60.1797 65.1896C72.5178 66.8865 76.4627 60.1961 76.5922 57.731C76.5979 57.3713 76.7983 57.0656 77.0004 56.8301C77.2164 56.5784 77.5149 56.3159 77.8567 56.0409C78.1869 55.7753 78.5801 55.4803 79.0137 55.1551L79.0725 55.111C79.5322 54.7661 80.0413 54.3834 80.5883 53.9517C82.7729 52.2282 85.5578 49.7287 88.0053 45.9121C90.4666 42.0739 91.58 39.0917 92.0834 36.7234C92.5175 34.6812 92.5028 33.0833 92.4903 31.7224C92.4883 31.5021 92.4863 31.288 92.4863 31.0793C92.4863 30.9022 92.576 30.7373 92.7246 30.6413H92.7247L92.7253 30.6409L92.7282 30.639L92.7405 30.631L92.79 30.5986C92.8337 30.5698 92.8983 30.527 92.9806 30.4717C93.1453 30.361 93.3809 30.2002 93.6627 30.0008C94.2271 29.6015 94.9726 29.0504 95.7035 28.4401C96.4382 27.8265 97.1399 27.1681 97.629 26.5545C97.8737 26.2476 98.0519 25.9684 98.1573 25.7256C98.264 25.4798 98.2786 25.3123 98.2572 25.2052C98.1885 24.8616 97.8602 24.3305 97.2307 23.6713C96.6212 23.0331 95.7928 22.3396 94.8435 21.6702C92.9381 20.3264 90.6124 19.126 88.7019 18.6602L88.9482 17.6475C91.0287 18.1546 93.4747 19.4298 95.443 20.818C96.4306 21.5144 97.3147 22.251 97.9832 22.951Z" fill="#1F6FEB"/>
<path fill-rule="evenodd" clip-rule="evenodd" d="M83.153 10.0323C78.587 5.68674 71.2774 1.41125 60.28 1.73661C50.3938 2.02773 37.7297 7.52331 33.2909 20.8895C29.6436 31.8962 30.508 46.5884 43.4339 57.2051L42.7736 58.011C29.4291 47.0505 28.5582 31.8614 32.3028 20.5613C36.9217 6.65228 50.0771 0.994232 60.2493 0.694683C71.5662 0.359873 79.1357 4.77083 83.8703 9.27677C86.2337 11.5261 87.8882 13.7961 88.9528 15.5054C89.4853 16.3605 89.871 17.0763 90.1244 17.5808C90.2512 17.833 90.345 18.0325 90.4076 18.1703C90.4389 18.2392 90.4624 18.2926 90.4784 18.3295L90.4968 18.3723L90.5017 18.3842L90.5032 18.3877C90.5033 18.388 90.5039 18.3895 90.0229 18.5886C89.5418 18.7876 89.5418 18.7878 89.5419 18.7879L89.538 18.7786L89.5232 18.7442C89.5097 18.7129 89.4887 18.6651 89.46 18.6021C89.4027 18.476 89.3148 18.2888 89.1944 18.0492C88.9536 17.5701 88.5834 16.8823 88.0694 16.057C87.041 14.4058 85.4398 12.2088 83.153 10.0323Z" fill="#1F6FEB"/>
<path d="M55.8256 28.4114C58.6293 26.9087 60.7966 26.6618 62.5979 27.1063C64.416 27.555 65.949 28.7283 67.4415 30.2462C68.1862 31.0035 68.909 31.8339 69.6486 32.6888L69.7623 32.8203C70.4622 33.6295 71.1783 34.4574 71.9279 35.2411C73.5073 36.8923 75.2762 38.3919 77.4756 39.1793C80.8015 40.3667 83.4904 40.3698 85.4693 40.0974C86.4503 39.9623 87.2527 39.76 87.8523 39.6088L87.8604 39.6068C88.166 39.5298 88.4025 39.4704 88.5911 39.4354C88.6839 39.4181 88.7536 39.409 88.8053 39.4059C88.8393 39.4038 88.858 39.4049 88.8652 39.4055L88.8677 39.4071C88.8869 39.4192 88.9998 39.4904 89.1274 39.7826C89.2632 40.0935 89.3699 40.5621 89.3829 41.1688C89.4089 42.3761 89.0617 44.0671 87.9423 45.9825L88.8409 46.5089C90.0466 44.4459 90.4543 42.5668 90.4238 41.1464C90.4086 40.4393 90.2843 39.8297 90.0813 39.3649C89.8921 38.9318 89.5748 38.4971 89.0965 38.3887C88.8681 38.3369 88.6125 38.3712 88.4011 38.4105C88.1757 38.4524 87.9069 38.5202 87.6168 38.5933L87.6062 38.596C87.0073 38.747 86.2508 38.9376 85.3275 39.0647C83.4891 39.3178 80.9721 39.3208 77.8257 38.1976C75.8523 37.4909 74.2182 36.1284 72.6798 34.5202C71.9488 33.7559 71.2484 32.9461 70.5442 32.132L70.4356 32.0064C69.6983 31.1541 68.9548 30.2994 68.1834 29.5149C66.6438 27.9491 64.945 26.612 62.847 26.0943C60.7323 25.5724 58.2994 25.9031 55.3338 27.4926C50.6962 29.9866 49.1489 33.9602 48.6076 37.5998C48.3544 39.3023 48.3187 40.9464 48.2887 42.329L48.283 42.589C48.2668 43.3124 48.2486 43.9486 48.1988 44.4888C48.1483 45.0359 48.0688 45.4379 47.9521 45.7104C47.5181 46.7245 46.7515 47.0641 45.7214 47.5206C45.5632 47.5907 45.3989 47.6635 45.2286 47.7419C44.6124 48.0257 43.9487 48.3813 43.3607 48.977C42.769 49.5765 42.281 50.391 41.9611 51.5575C41.6278 52.6788 41.5909 53.8677 41.8542 55.0077C42.1179 56.1496 42.6737 57.2032 43.467 58.0651L44.2325 57.3587C43.5616 56.6297 43.0915 55.7386 42.8685 54.7728C42.6455 53.8071 42.6771 52.7998 42.9604 51.85L42.9637 51.8385C43.2425 50.819 43.6496 50.1672 44.1013 49.7096C44.5577 49.2472 45.0869 48.9545 45.6637 48.6889C45.8059 48.6234 45.9538 48.5591 46.1049 48.4935C47.1286 48.0488 48.3021 47.5389 48.9091 46.121C49.0917 45.6942 49.1825 45.1597 49.2355 44.5846C49.2892 44.0027 49.3077 43.331 49.3238 42.6124L49.3293 42.3631C49.3448 41.6511 49.3615 40.8887 49.4066 40.0947C49.4497 39.3375 49.5187 38.5515 49.6374 37.7533C50.1502 34.3049 51.5794 30.695 55.8256 28.4114Z" fill="#1F6FEB"/>
<path fill-rule="evenodd" clip-rule="evenodd" d="M68.2264 54.623C68.8945 54.312 69.7374 54.2449 70.4477 54.4927C71.125 54.729 71.717 55.1997 72.0442 55.7697C72.3787 56.3521 72.4564 57.0994 71.9483 57.7268C71.6203 58.1363 71.1258 58.3585 70.6357 58.4596C70.1382 58.5622 69.5897 58.5526 69.0797 58.449C68.5724 58.346 68.0668 58.1422 67.676 57.8232C67.2797 57.4996 66.982 57.0369 66.9796 56.4515C66.9579 55.554 67.555 54.9355 68.2264 54.623ZM68.6652 55.5682C68.2279 55.7718 68.0108 56.0803 68.0205 56.4297L68.0209 56.4442H68.0207C68.0207 56.6458 68.1147 56.8364 68.3339 57.0153C68.5602 57.2001 68.8961 57.3481 69.2867 57.4275C69.6747 57.5063 70.0806 57.5098 70.4257 57.4386C70.7776 57.3661 71.0134 57.2283 71.1366 57.0741L71.139 57.071H71.1391C71.3064 56.8649 71.3232 56.6053 71.1417 56.2892C70.9527 55.9601 70.5729 55.6403 70.1051 55.477C69.6702 55.3253 69.1075 55.3624 68.6652 55.5682Z" fill="#1F6FEB"/>
<path fill-rule="evenodd" clip-rule="evenodd" d="M111.893 60.2618C114.432 58.8438 117.32 58.1709 120.224 58.3202C120.511 58.335 120.732 58.58 120.717 58.8674C120.702 59.1549 120.458 59.376 120.171 59.3612C117.462 59.222 114.769 59.8496 112.4 61.1722C112.149 61.3124 111.831 61.2222 111.691 60.9708C111.551 60.7194 111.642 60.402 111.893 60.2618Z" fill="#1F6FEB"/>
<path fill-rule="evenodd" clip-rule="evenodd" d="M27.6786 35.8616C27.695 35.5743 27.941 35.3546 28.228 35.371C30.7647 35.5162 33.6364 36.5618 36.0401 38.1372C38.4369 39.7082 40.4485 41.8597 41.1563 44.2747L40.1573 44.5682C39.5464 42.4837 37.758 40.5091 35.4699 39.0094C33.1886 37.5142 30.4904 36.5445 28.1686 36.4117C27.8816 36.3953 27.6622 36.149 27.6786 35.8616Z" fill="#1F6FEB"/>
<path fill-rule="evenodd" clip-rule="evenodd" d="M29.2978 45.2615C32.6719 44.7348 36.1247 45.3691 39.0922 47.0608L38.5771 47.9666C35.8142 46.3916 32.5996 45.8011 29.4582 46.2914C29.1741 46.3357 28.9079 46.1411 28.8637 45.8567C28.8194 45.5723 29.0137 45.3058 29.2978 45.2615Z" fill="#1F6FEB"/>
<path fill-rule="evenodd" clip-rule="evenodd" d="M85.2692 59.4702C82.6389 58.8438 79.8953 58.8727 77.2787 59.5545C77.0005 59.627 76.7163 59.4598 76.6439 59.1813C76.5715 58.9027 76.7383 58.6181 77.0165 58.5456C79.7979 57.821 82.7142 57.7903 85.5101 58.4561C85.7898 58.5227 85.9626 58.8037 85.8961 59.0837C85.8296 59.3638 85.5489 59.5368 85.2692 59.4702Z" fill="#1F6FEB"/>
<path fill-rule="evenodd" clip-rule="evenodd" d="M76.3022 60.8554C76.3408 60.5702 76.6031 60.3704 76.888 60.4091C77.6558 60.5135 78.8497 60.8846 79.9211 61.351C80.4611 61.586 80.9869 61.8526 81.4249 62.1332C81.8475 62.404 82.2475 62.7247 82.4679 63.0863C82.6176 63.332 82.54 63.6527 82.2946 63.8027C82.0492 63.9526 81.7289 63.8749 81.5791 63.6292C81.4872 63.4783 81.256 63.2626 80.8636 63.0111C80.4866 62.7695 80.0136 62.5279 79.506 62.3069C78.4822 61.8612 77.3857 61.5287 76.7479 61.442C76.463 61.4033 76.2635 61.1406 76.3022 60.8554Z" fill="#1F6FEB"/>
<path fill-rule="evenodd" clip-rule="evenodd" d="M42.83 57.6923C43.9898 57.3316 45.2134 57.2575 46.0721 58.1057C46.9483 58.971 46.8509 60.2377 46.3285 61.429C45.7968 62.6414 44.7613 63.9584 43.4182 65.1696C40.1111 68.1748 36.9795 71.368 34.0389 74.7334L33.2553 74.0471C36.2224 70.6513 39.3823 67.4293 42.7192 64.3971L42.7207 64.3958C43.9974 63.2445 44.9223 62.0427 45.3752 61.0099C45.8375 59.9557 45.7488 59.2506 45.341 58.8477C44.9157 58.4276 44.2132 58.3536 43.1389 58.6878C42.0872 59.0149 40.8631 59.68 39.6063 60.435C38.3514 61.1889 33.8006 63.9548 29.2974 66.9751C27.0451 68.4856 24.8116 70.0552 23.0104 71.4657C22.1097 72.1711 21.3229 72.8322 20.6981 73.4226C20.0664 74.0197 19.6272 74.5198 19.3956 74.9032C18.3968 76.5564 18.2308 78.2786 18.8534 79.921C19.4811 81.5768 20.9332 83.2084 23.279 84.6004C30.1634 88.119 37.2431 91.2407 44.4833 93.9504L44.1188 94.9267C36.8363 92.2013 29.7154 89.061 22.7911 85.5214C22.7815 85.5165 22.7721 85.5113 22.7629 85.5058C20.2756 84.0331 18.6176 82.2366 17.88 80.2909C17.1362 78.3284 17.3519 76.272 18.5048 74.3637C18.8111 73.8567 19.3338 73.2787 19.9835 72.6646C20.6401 72.044 21.4541 71.3611 22.369 70.6447C24.1992 69.2114 26.4566 67.6257 28.718 66.109C33.242 63.0749 37.8095 60.2988 39.0706 59.5412C40.3298 58.7848 41.6477 58.0601 42.83 57.6923Z" fill="#1F6FEB"/>
<path fill-rule="evenodd" clip-rule="evenodd" d="M37.7256 75.3449C40.617 76.2911 43.9668 77.406 45.7649 78.0702L45.4046 79.0481C43.6282 78.3919 40.2976 77.2832 37.4022 76.3357C35.9564 75.8626 34.6222 75.4307 33.6493 75.117C33.1629 74.9602 32.7669 74.833 32.4926 74.745L32.0674 74.6088C32.0673 74.6087 32.0656 74.6082 32.2239 74.1117L32.3823 73.6152L32.8102 73.7523C33.085 73.8405 33.4815 73.9678 33.9684 74.1248C34.9422 74.4388 36.278 74.8712 37.7256 75.3449Z" fill="#1F6FEB"/>
<path d="M14.2593 130.595L10.8363 128.929L9.83447 126.846L10.8363 124.013L13.4244 125.429L17.2648 124.013L38.0529 123.513L37.0511 126.846L35.6318 128.929L28.012 130.797L19.4354 131.429L14.2593 130.595Z" fill="#0D1117"/>
<path d="M44.9824 126.012L44.5649 123.763L56.1696 120.68L69.11 123.18L71.8651 123.346L73.2843 125.346L71.8651 127.346L67.3568 129.012L62.0136 129.429L56.42 128.929L50.0751 128.179L44.9824 126.012Z" fill="#0D1117"/>
<path fill-rule="evenodd" clip-rule="evenodd" d="M44.5119 81.1403C46.0562 74.4935 47.573 68.4959 48.5667 65.7842L49.5441 66.1432C48.577 68.7823 47.0745 74.7112 45.5259 81.3764C43.9806 88.0273 42.3982 95.3718 41.2709 100.816C40.1492 106.232 39.4964 112.288 38.9712 117.31C38.9517 117.496 38.9323 117.681 38.9132 117.865C38.6747 120.148 38.4603 122.201 38.2367 123.845C38.1158 124.733 37.9912 125.512 37.8568 126.147C37.7247 126.772 37.5752 127.301 37.3907 127.665C36.9991 128.438 36.0775 129.035 35.021 129.507C33.9332 129.993 32.5761 130.401 31.1509 130.732C28.3002 131.393 25.0979 131.763 23.0564 131.807H23.0451H22.9834C19.5502 131.807 14.6453 131.807 10.9837 129.669L10.9825 129.668C10.1523 129.181 9.57219 128.087 9.39021 127.015C9.20664 125.934 9.3953 124.661 10.3819 123.879C10.7602 123.57 11.1874 123.462 11.6333 123.581C12.0316 123.687 12.3875 123.959 12.7043 124.259C13.0288 124.565 13.372 124.959 13.7337 125.38C13.7695 125.421 13.8055 125.463 13.8418 125.506C14.1788 125.898 14.5409 126.319 14.9461 126.751C16.7276 128.651 19.2981 130.713 23.6177 130.713V130.745C25.5858 130.652 28.3932 130.302 30.9159 129.716C32.3083 129.393 33.594 129.003 34.5966 128.555C35.6304 128.093 36.2466 127.619 36.4623 127.193C36.5814 126.958 36.709 126.543 36.8382 125.932C36.965 125.332 37.0857 124.582 37.2051 123.704C37.4264 122.077 37.6392 120.04 37.8783 117.75C37.8973 117.569 37.9164 117.386 37.9357 117.201C38.4603 112.186 39.1176 106.08 40.2515 100.604C41.38 95.1543 42.9642 87.8014 44.5119 81.1403ZM18.3601 130.626C15.9701 130.427 13.522 129.944 11.5094 128.769C11.0382 128.492 10.5686 127.736 10.4165 126.84C10.2663 125.955 10.4587 125.146 11.0305 124.694L11.038 124.688C11.1879 124.565 11.2772 124.565 11.3662 124.588C11.5042 124.625 11.7032 124.746 11.9897 125.017C12.2684 125.28 12.5768 125.632 12.945 126.06C12.9806 126.102 13.0167 126.144 13.0533 126.186C13.3889 126.577 13.7656 127.015 14.1871 127.465C15.2333 128.58 16.5699 129.78 18.3601 130.626Z" fill="#1F6FEB"/>
<path fill-rule="evenodd" clip-rule="evenodd" d="M14.9632 122.951C14.1375 123.892 13.6167 124.829 13.4348 125.588L12.4224 125.345C12.6569 124.366 13.2878 123.281 14.1811 122.263C15.0799 121.239 16.27 120.253 17.6655 119.481C20.4593 117.936 24.1125 117.232 27.8997 118.854L27.4901 119.813C24.059 118.343 20.7454 118.968 18.1689 120.393C16.8792 121.107 15.7832 122.017 14.9632 122.951Z" fill="#1F6FEB"/>
<path fill-rule="evenodd" clip-rule="evenodd" d="M22.9653 118.276C24.6066 108.244 27.1524 98.3804 30.5715 88.8076L31.5519 89.1586C28.1539 98.6721 25.6238 108.474 23.9927 118.445L22.9653 118.276Z" fill="#1F6FEB"/>
<path fill-rule="evenodd" clip-rule="evenodd" d="M36.2832 75.263C37.487 72.1731 38.9456 69.1884 40.6439 66.3398L41.5378 66.874C39.8691 69.673 38.436 72.6057 37.2531 75.6418L36.2832 75.263Z" fill="#1F6FEB"/>
<path fill-rule="evenodd" clip-rule="evenodd" d="M53.1172 90.1611C51.9758 80.6219 51.7406 71.0122 52.949 63.6211L53.9765 63.7895C52.7904 71.0438 53.015 80.5443 54.151 90.0371C55.2863 99.5254 57.3272 108.966 59.751 116.09L58.7655 116.427C56.3134 109.219 54.2593 99.7048 53.1172 90.1611Z" fill="#1F6FEB"/>
<path fill-rule="evenodd" clip-rule="evenodd" d="M62.3808 117.605C59.7997 116.535 56.9229 116.419 54.2639 117.276L53.9448 116.284C56.8388 115.351 59.9697 115.478 62.7789 116.642C65.5881 117.806 67.8928 119.932 69.2816 122.639L68.3555 123.116C67.0794 120.628 64.9619 118.675 62.3808 117.605Z" fill="#1F6FEB"/>
<path fill-rule="evenodd" clip-rule="evenodd" d="M43.9239 107.063C44.2624 98.3099 44.9181 88.6086 45.6243 83.3711L46.6561 83.5106C45.9568 88.6968 45.3024 98.3576 44.9642 107.104C44.7952 111.474 44.7055 115.607 44.7282 118.83C44.7395 120.442 44.779 121.821 44.85 122.884C44.9229 123.976 45.0258 124.664 45.1345 124.951C45.3454 125.506 45.9298 126.036 46.9003 126.514C47.855 126.984 49.0942 127.361 50.4643 127.663C51.724 127.941 53.0723 128.151 54.3766 128.315L54.3741 128.264C57.0559 128.132 59.655 127.292 61.9071 125.828L61.9265 125.815L61.9268 125.816C63.6311 124.813 65.4124 123.947 67.0033 123.367C68.5667 122.797 70.0357 122.47 71.0726 122.641C72.09 122.809 73.0865 123.43 73.4873 124.361C73.6934 124.839 73.7315 125.383 73.5393 125.94C73.35 126.488 72.9495 127.016 72.3364 127.506C71.7014 128.014 70.7826 128.419 69.7356 128.74C68.6791 129.065 67.4506 129.317 66.1634 129.5C63.5912 129.866 60.7412 129.959 58.4866 129.773C56.2762 129.591 53.0552 129.302 50.2403 128.681C48.8342 128.371 47.5031 127.972 46.4407 127.449C45.3941 126.934 44.5143 126.251 44.1613 125.321C43.9881 124.865 43.8823 124.019 43.8112 122.954C43.7382 121.861 43.6985 120.459 43.6871 118.837C43.6642 115.593 43.7545 111.442 43.9239 107.063ZM58.1052 128.695C58.2649 128.709 58.4207 128.722 58.572 128.734C60.7421 128.913 63.5141 128.824 66.0172 128.468C67.2678 128.29 68.4402 128.048 69.4302 127.744C70.4296 127.437 71.2026 127.079 71.6868 126.692C72.1928 126.287 72.4475 125.912 72.5553 125.599C72.6602 125.295 72.6376 125.02 72.5313 124.773C72.3075 124.254 71.6729 123.797 70.9031 123.67C70.1528 123.546 68.9062 123.783 67.3594 124.347C65.8429 124.899 64.123 125.734 62.4641 126.709C61.1114 127.587 59.6417 128.254 58.1052 128.695Z" fill="#1F6FEB"/>
<path fill-rule="evenodd" clip-rule="evenodd" d="M58.9919 69.7392C57.2046 68.6628 55.7274 66.9798 55.4785 64.7177L56.5134 64.6035C56.7156 66.4414 57.9193 67.8768 59.5286 68.846C61.1414 69.8174 63.0943 70.2753 64.6419 70.186L64.7017 71.2267C62.9352 71.3285 60.7756 70.8135 58.9919 69.7392Z" fill="#1F6FEB"/>
<path fill-rule="evenodd" clip-rule="evenodd" d="M99.8169 51.9558C95.2699 50.0589 88.4937 51.2924 82.7028 57.0562L82.7021 57.0569C79.9857 59.751 78.4044 62.3853 77.0911 64.6669C77.0039 64.8184 76.9176 64.9688 76.8321 65.118C75.6469 67.1854 74.5948 69.0206 72.995 70.1894L72.3813 69.3474C73.7948 68.3147 74.7394 66.6701 75.9728 64.5226C76.0439 64.3989 76.1159 64.2735 76.189 64.1464C77.5131 61.8461 79.1505 59.1123 81.9691 56.3167C87.9773 50.3367 95.1864 48.8948 100.217 50.9936C102.768 52.0578 104.154 53.96 104.896 55.7364C105.634 57.5026 105.743 59.1616 105.743 59.8137C105.743 59.9602 105.807 60.1259 105.961 60.3384C106.077 60.4994 106.211 60.6432 106.361 60.8051C106.419 60.8674 106.479 60.9324 106.542 61.0021C106.732 61.213 106.993 61.5162 107.077 61.8746C107.124 62.0764 107.115 62.2945 107.024 62.5109C106.936 62.7185 106.786 62.8897 106.608 63.0338L106.601 63.0391C105.596 63.8242 104.461 63.9814 103.385 63.8071C102.323 63.6351 101.304 63.1397 100.464 62.597C100.145 62.3914 99.8017 62.1404 99.4487 61.8826C99.3375 61.8014 99.2253 61.7194 99.1127 61.6381C98.6333 61.2915 98.1256 60.9388 97.578 60.6274C96.4858 60.006 95.2599 59.5629 93.8476 59.673C90.1914 59.9857 84.9482 62.8002 81.736 70.0662L80.7839 69.6443C84.1302 62.0751 89.6784 58.9825 93.7611 58.6342L93.7647 58.634C95.4576 58.5014 96.8946 59.0397 98.0923 59.7211C98.69 60.0611 99.2343 60.4403 99.7222 60.7929C99.8466 60.8829 99.9663 60.9703 100.082 61.0547C100.428 61.3074 100.737 61.5331 101.028 61.7211C101.802 62.2208 102.683 62.6375 103.551 62.7781C104.404 62.9164 105.228 62.7876 105.957 62.22C106.029 62.1616 106.055 62.1237 106.062 62.11C106.048 62.0489 105.976 61.9309 105.769 61.7003C105.728 61.6555 105.683 61.6063 105.634 61.5535C105.472 61.3797 105.275 61.1674 105.118 60.9504C104.905 60.6569 104.702 60.2753 104.702 59.8137C104.702 59.2498 104.604 57.7382 103.936 56.1384C103.272 54.5488 102.055 52.8896 99.8169 51.9558Z" fill="#1F6FEB"/>
<path fill-rule="evenodd" clip-rule="evenodd" d="M92.6479 66.492C94.2262 64.4279 96.5685 61.8654 98.8361 60.6709L99.3209 61.5934C97.268 62.6748 95.0413 65.0766 93.4746 67.1256C92.6984 68.1407 92.0549 69.0865 91.6055 69.7784C91.381 70.1241 91.2053 70.4059 91.0861 70.6007C91.0265 70.698 90.981 70.7736 90.9507 70.8244L90.9166 70.8818L90.9083 70.8959L90.9064 70.8992L90.4563 70.6373C90.0067 70.3747 90.0068 70.3745 90.0068 70.3745L90.0078 70.3729L90.0104 70.3685L90.02 70.352L90.0569 70.2899C90.0891 70.2358 90.1366 70.1569 90.1984 70.056C90.3219 69.8542 90.5026 69.5645 90.7327 69.2101C91.1927 68.5019 91.8517 67.5333 92.6479 66.492Z" fill="#1F6FEB"/>
<path fill-rule="evenodd" clip-rule="evenodd" d="M41.0184 123.634C39.7643 123.415 38.5784 122.907 37.5542 122.15L38.1725 121.312C39.0667 121.972 40.1022 122.416 41.1972 122.607C42.2921 122.798 43.4165 122.732 44.4814 122.413L44.7796 123.412C43.5601 123.777 42.2724 123.853 41.0184 123.634Z" fill="#1F6FEB"/>
<path fill-rule="evenodd" clip-rule="evenodd" d="M43.4085 116.438C43.8754 116.509 44.3101 116.719 44.6557 117.041L43.9462 117.804C43.7539 117.625 43.5119 117.508 43.2521 117.469L43.2477 117.468C42.7686 117.392 42.217 117.613 41.7084 118.181C41.2042 118.744 40.7944 119.601 40.6338 120.628C40.5158 121.431 40.5968 122.251 40.8696 123.015L39.8892 123.366C39.7023 122.842 39.5898 122.297 39.5532 121.746C39.5251 121.323 39.5419 120.896 39.6042 120.474L39.6048 120.469C39.6757 120.015 39.7895 119.581 39.9393 119.178C40.184 118.519 40.525 117.941 40.9331 117.485C41.5866 116.755 42.4656 116.29 43.4085 116.438Z" fill="#1F6FEB"/>
<path fill-rule="evenodd" clip-rule="evenodd" d="M42.7417 102.539C43.2847 101.596 44.0926 100.812 45.0775 100.903L44.982 101.941C44.6481 101.91 44.146 102.187 43.6436 103.059C43.1663 103.888 42.7927 105.097 42.6678 106.489C42.5425 107.886 42.6796 109.148 42.9871 110.054C43.3113 111.009 43.743 111.366 44.0711 111.396L43.9756 112.434C42.9849 112.343 42.3495 111.415 42.0014 110.389C41.6365 109.314 41.4959 107.901 41.6309 106.396C41.7663 104.887 42.1735 103.525 42.7417 102.539Z" fill="#1F6FEB"/>
<path d="M61.8782 69.4906C42.7913 69.4906 38.627 85.2999 38.627 101.127H98.9415C98.9415 85.2999 104.962 62.9062 124.032 62.9062L61.8782 69.4906Z" fill="#484F58"/>
<path d="M220.681 114.469V114.261C221.341 113.757 221.688 113.444 222.121 113.114L223.336 113.705C222.47 114.022 221.583 114.278 220.681 114.469Z" fill="#0D1117"/>
<path d="M225.019 111.915L223.96 111.568C224.395 111.206 224.801 110.811 225.175 110.386L226.806 110.63C226.244 111.104 225.647 111.534 225.019 111.915Z" fill="#0D1117"/>
<path d="M227.535 109.153L226.511 108.528C226.805 108.039 227.071 107.534 227.309 107.016L228.663 107.225C228.324 107.889 227.948 108.533 227.535 109.153Z" fill="#0D1117"/>
<path d="M229.235 105.522L228.073 105.209C228.232 104.64 228.348 104.059 228.42 103.472L229.6 103.646C229.514 104.278 229.392 104.904 229.235 105.522Z" fill="#0D1117"/>
<path d="M228.576 101.231C228.581 100.648 228.529 100.066 228.42 99.4937L229.6 99.2852C229.701 99.9 229.759 100.521 229.773 101.144L228.576 101.231Z" fill="#0D1117"/>
<path d="M227.778 97.391C227.558 96.8623 227.309 96.3461 227.032 95.8448L228.073 95.2715C228.381 95.8303 228.648 96.411 228.871 97.0088L227.778 97.391Z" fill="#0D1117"/>
<path d="M225.852 93.8126C225.522 93.3088 225.21 92.7877 224.915 92.2665L225.956 91.6758C226.234 92.1796 226.546 92.6834 226.858 93.1872L225.852 93.8126Z" fill="#0D1117"/>
<path d="M223.856 90.0249C223.64 89.4612 223.471 88.88 223.353 88.2876L224.533 88.0791C224.629 88.6296 224.774 89.1704 224.967 89.6948L223.856 90.0249Z" fill="#161B22"/>
<path d="M224.446 85.7686L223.249 85.6643C223.303 85.029 223.419 84.4005 223.596 83.7881L224.741 84.1355C224.58 84.6666 224.481 85.2146 224.446 85.7686Z" fill="#161B22"/>
<path d="M225.887 82.329L224.776 81.9294C225.085 81.253 225.457 80.6074 225.887 80.001L227.344 80.47C226.806 81.0467 226.318 81.6686 225.887 82.329Z" fill="#161B22"/>
<path d="M228.489 79.4976L227.257 78.959C228.003 78.4781 228.773 78.0373 229.565 77.6387L230.745 78.0383C230.207 78.2641 228.958 79.2196 228.489 79.4976Z" fill="#161B22"/>
<path d="M232.22 77.065L231.005 76.6133L232.636 75.6926H234.892C234.32 75.6752 232.758 76.9434 232.22 77.065Z" fill="#161B22"/>
<path d="M171.715 119.889L171.558 119.403C172.104 119.205 172.618 118.93 173.085 118.586L173.536 119.212C172.966 119.526 172.352 119.754 171.715 119.889Z" fill="#161B22"/>
<path d="M175.22 117.127L174.109 116.675C174.313 116.178 174.431 115.649 174.456 115.112H175.636C175.623 115.804 175.482 116.487 175.22 117.127Z" fill="#161B22"/>
<path d="M174.3 112.888C174.196 112.367 174.074 111.794 173.901 111.151L175.046 110.821C175.222 111.39 175.361 111.971 175.463 112.558L174.3 112.888Z" fill="#161B22"/>
<path d="M173.172 108.979C172.964 108.441 172.756 107.885 172.513 107.242L173.623 106.79C173.849 107.346 174.074 107.92 174.283 108.528L173.172 108.979Z" fill="#161B22"/>
<path d="M171.558 105.157C171.315 104.619 171.073 104.08 170.812 103.542L171.888 103.038C172.148 103.576 172.409 104.115 172.652 104.671L171.558 105.157Z" fill="#161B22"/>
<path d="M169.788 101.387C169.528 100.831 169.285 100.293 169.025 99.7548L170.118 99.251C170.361 99.7895 170.621 100.328 170.864 100.884L169.788 101.387Z" fill="#161B22"/>
<path d="M168.071 97.5482C167.81 96.9054 167.585 96.3495 167.429 95.8109L168.557 95.4287C168.713 95.9325 168.921 96.4537 169.164 97.166L168.071 97.5482Z" fill="#161B22"/>
<path d="M166.873 93.3437V91.5195H168.053V93.0657C168.045 93.1349 168.045 93.205 168.053 93.2742L166.873 93.3437Z" fill="#21262D"/>
<path d="M168.105 89.1571H166.926C166.926 88.5838 166.926 87.9758 166.926 87.4199H168.123C168.158 87.9932 168.14 88.5838 168.105 89.1571Z" fill="#21262D"/>
<path d="M168.418 85.0228L167.238 84.8838C167.238 84.2931 167.377 83.7024 167.481 83.1465L168.661 83.3202C168.557 83.8588 168.487 84.4495 168.418 85.0228Z" fill="#21262D"/>
<path d="M169.077 80.9569L167.897 80.6963L168.314 78.959L169.476 79.2717C169.337 79.7929 169.199 80.2967 169.077 80.9569Z" fill="#21262D"/>
<path d="M170.153 76.9963L169.025 76.5967C169.216 76.0234 169.441 75.4501 169.667 74.8594L170.76 75.3111C170.517 75.8671 170.344 76.423 170.153 76.9963Z" fill="#21262D"/>
<path d="M171.749 73.2431L170.691 72.6872C170.986 72.1313 171.298 71.5927 171.61 71.0889L172.617 71.7317C172.252 72.2181 172.027 72.722 171.749 73.2431Z" fill="#21262D"/>
<path d="M173.988 69.8734L173.068 69.1264C173.446 68.641 173.858 68.1824 174.3 67.7539L175.15 68.5878C174.74 68.9957 174.352 69.4248 173.988 69.8734Z" fill="#21262D"/>
<path d="M176.851 67.041L176.122 66.1029C176.603 65.7241 177.107 65.376 177.631 65.0605L178.273 66.0681C177.779 66.3622 177.304 66.6871 176.851 67.041Z" fill="#21262D"/>
<path d="M180.304 64.9909L179.818 63.9138C180.381 63.6508 180.961 63.4245 181.553 63.2363L181.935 64.3655C181.362 64.5566 180.807 64.7651 180.304 64.9909Z" fill="#21262D"/>
<path d="M184.138 63.7581L183.861 62.8373C184.451 62.7157 185.041 62.6288 185.596 62.542L185.787 63.4627C185.266 63.5322 184.694 63.6365 184.138 63.7581Z" fill="#21262D"/>
<path d="M214.955 114.608C214.351 114.387 213.77 114.107 213.22 113.774L213.844 112.767C214.29 113.078 214.708 113.427 215.094 113.809L214.955 114.608ZM211.242 112.159C210.808 111.7 210.413 111.206 210.062 110.682L211.051 110.022C211.366 110.491 211.72 110.932 212.109 111.342L211.242 112.159ZM208.83 108.528C208.587 107.989 208.344 107.398 208.118 106.79L209.246 106.373C209.454 106.947 209.68 107.485 209.906 107.989L208.83 108.528ZM207.39 104.462C207.233 103.889 207.095 103.298 206.973 102.725L208.136 102.482C208.257 103.072 208.396 103.663 208.535 104.219L207.39 104.462ZM206.539 100.275C206.435 99.7026 206.366 99.0945 206.279 98.5386L207.476 98.3822C207.476 98.9903 207.615 99.581 207.719 100.119L206.539 100.275ZM206.053 96.0716C206.053 95.4983 206.053 94.9076 205.932 94.3343L207.112 94.2127C207.112 94.8034 207.112 95.3941 207.233 95.95L206.053 96.0716ZM205.793 91.85C205.793 91.242 205.793 90.6339 205.793 90.1127H206.99C206.99 90.7034 206.99 91.3115 206.99 91.85H205.793ZM205.62 87.6458C205.62 87.0377 205.62 86.4297 205.62 85.9085H206.8C206.8 86.4992 206.8 87.1072 206.8 87.6458H205.62ZM205.411 83.4415C205.411 82.8509 205.411 82.2602 205.273 81.7043L206.47 81.6C206.47 82.1907 206.47 82.7987 206.591 83.3373L205.411 83.4415ZM205.047 79.2894C205.047 78.6987 204.891 78.1081 204.804 77.5521L205.984 77.3784C205.984 77.9691 206.158 78.5771 206.227 79.1157L205.047 79.2894ZM204.37 75.2068C204.232 74.5987 204.093 74.0254 203.919 73.4695L205.064 73.1394C205.238 73.6954 205.394 74.3034 205.533 74.8767L204.37 75.2068ZM203.156 71.2805C202.93 70.742 202.67 70.2034 202.41 69.717L203.451 69.1437C203.746 69.6649 204.006 70.2382 204.266 70.881L203.156 71.2805ZM201.143 67.8059C200.778 67.374 200.39 66.9623 199.98 66.5725L200.779 65.6865C201.237 66.1142 201.666 66.5727 202.063 67.0589L201.143 67.8059ZM198.158 65.2174C197.671 64.9212 197.16 64.6655 196.631 64.453L197.083 63.3411C197.68 63.5842 198.26 63.8686 198.818 64.1924L198.158 65.2174ZM194.445 63.7407C193.89 63.6191 193.317 63.4975 192.71 63.428L192.866 62.542C193.491 62.542 193.994 62.7852 194.601 62.9242L194.445 63.7407Z" fill="#161B22"/>
<path d="M164.635 119.975C164.058 119.926 163.477 119.926 162.9 119.975L163.125 119.194C163.654 119.494 164.253 119.649 164.861 119.645L164.635 119.975Z" fill="#161B22"/>
<path d="M160.488 119.124C159.893 118.868 159.314 118.578 158.753 118.255L159.343 117.109C159.837 117.413 160.353 117.68 160.887 117.908L160.488 119.124Z" fill="#161B22"/>
<path d="M156.74 116.78C156.271 116.363 155.803 115.911 155.352 115.442L156.202 114.504C156.604 114.942 157.033 115.354 157.486 115.737L156.74 116.78Z" fill="#161B22"/>
<path d="M153.738 113.427C153.374 112.906 153.009 112.35 152.68 111.776L155.352 111.081C155.664 111.62 154.345 112.141 154.692 112.628L153.738 113.427Z" fill="#161B22"/>
<path d="M151.43 109.448C151.17 108.875 150.91 108.267 150.667 107.711L151.76 107.19C152.003 107.798 152.246 108.371 152.489 108.927L151.43 109.448Z" fill="#161B22"/>
<path d="M149.851 105.175C149.643 104.549 149.452 103.924 149.279 103.316L150.407 102.881C150.598 103.489 150.771 104.115 150.979 104.723L149.851 105.175Z" fill="#161B22"/>
<path d="M148.567 100.814C148.382 100.154 148.209 99.5281 148.047 98.9375L149.175 98.5205L149.695 100.414L148.567 100.814Z" fill="#161B22"/>
<path d="M147.266 96.5225C147.075 95.984 146.867 95.3585 146.641 94.6636L147.769 94.2119C147.995 94.8895 148.186 95.4975 148.377 95.9492L147.266 96.5225Z" fill="#161B22"/>
<path d="M145.826 92.2139L145.201 90.4767L146.312 89.9902L146.954 91.8317L145.826 92.2139Z" fill="#161B22"/>
<path d="M144.299 87.9924C144.073 87.4191 143.848 86.8284 143.587 86.2551L144.681 85.6992C144.941 86.3072 145.184 86.9153 145.409 87.4365L144.299 87.9924Z" fill="#161B22"/>
<path d="M142.581 83.893C142.321 83.3197 142.043 82.7464 141.765 82.1557L142.806 81.5303C143.101 82.1036 143.379 82.6943 143.639 83.2676L142.581 83.893Z" fill="#161B22"/>
<path d="M140.585 79.9486C140.273 79.41 139.961 78.8715 139.631 78.3329L140.638 77.5859C140.967 78.1418 141.297 78.6977 141.609 79.3232L140.585 79.9486Z" fill="#161B22"/>
<path d="M137.757 75.0846C137.393 74.5634 137.028 74.0596 136.664 73.5906L137.566 72.7393C137.948 73.2258 138.347 73.747 138.712 74.2681L137.757 75.0846Z" fill="#161B22"/>
<path d="M135.259 71.2631L133.975 69.9602L134.755 68.9873C135.207 69.4042 135.658 69.8559 136.109 70.3424L135.259 71.2631Z" fill="#161B22"/>
<path d="M132.135 68.4657C131.661 68.1067 131.175 67.7592 130.678 67.4233L131.32 66.3115C131.84 66.6589 132.344 67.0238 132.847 67.406L132.135 68.4657Z" fill="#161B22"/>
<path d="M128.491 66.3978C127.967 66.1314 127.428 65.8936 126.878 65.6855L127.155 64.8516C127.82 64.9664 128.467 65.1649 129.081 65.4422L128.491 66.3978Z" fill="#161B22"/>
<path d="M124.83 65.043C124.275 64.904 123.754 64.487 123.095 64.4001L123.199 63.9658C123.785 64.0584 124.364 64.186 124.934 64.348L124.83 65.043Z" fill="#161B22"/>
<path d="M109.925 121.488C110.515 121.627 111.365 121.8 111.99 121.905L111.244 122.183C110.51 122.241 109.773 122.241 109.04 122.183L109.925 121.488ZM106.576 121.488C105.969 121.245 105.344 120.967 104.841 120.671L105.448 119.455C106.223 119.912 107.036 120.302 107.877 120.619L106.576 121.488ZM102.516 119.264C101.978 118.864 101.462 118.435 100.971 117.978L101.943 117.405C102.394 117.822 103.279 118.309 103.765 118.673L102.516 119.264ZM99.0455 116.033C98.629 115.529 98.2298 114.99 97.8481 114.434L98.9413 113.67C99.2883 114.191 100.086 115.303 100.468 115.772L99.0455 116.033ZM96.46 112.176C96.165 111.603 95.8526 111.012 95.575 110.439L96.7549 109.848C97.0326 110.439 97.449 111.464 97.7266 112.002L96.46 112.176ZM94.5339 107.972C94.291 107.346 94.0481 106.721 93.8398 106.113L95.0892 105.661C95.2974 106.252 95.575 107.398 95.8006 107.92L94.5339 107.972Z" fill="#161B22"/>
<path opacity="0.7" d="M94.0136 84.7096H47.3027L48.2744 82.3294L95.1414 81.5303L94.0136 84.7096Z" fill="#8B949E"/>
<path opacity="0.65" d="M98.681 74.7548L51.3281 76.8569L52.9071 75.0502L101.249 71.9404L98.681 74.7548Z" fill="#8B949E"/>
<path d="M105.986 67.997L57.4536 71.9754L59.5358 70.7767L109.456 65.5127L105.986 67.997Z" fill="#6E7681"/>
<path fill-rule="evenodd" clip-rule="evenodd" d="M111.175 21.4554C112.943 21.8367 115.196 22.8882 117.659 25.2475L116.94 26.0007C114.596 23.7561 112.511 22.8098 110.956 22.4744C110.177 22.3063 109.529 22.2912 109.044 22.3433C108.541 22.3974 108.259 22.5184 108.175 22.5769L107.58 21.7221C107.869 21.52 108.35 21.3696 108.933 21.3069C109.534 21.2423 110.294 21.2652 111.175 21.4554Z" fill="#1F6FEB"/>
<path fill-rule="evenodd" clip-rule="evenodd" d="M150.247 31.4586C149.271 30.7764 148.167 30.287 147.04 30.0147C145.799 29.7148 144.529 29.6782 143.371 29.9373C142.885 30.0458 142.426 30.1958 141.986 30.3803C141.205 30.7075 140.484 31.1435 139.775 31.6498C139.065 32.1574 138.395 32.7136 137.691 33.298C137.274 33.6444 136.845 34.0008 136.389 34.3629C135.244 35.2701 133.989 36.1591 132.478 36.8657C130.787 37.6565 128.775 38.2189 126.24 38.3231C124.247 38.405 122.614 38.2319 121.259 37.9134C119.372 37.4697 118.027 36.7439 117.01 36.0319C116.579 35.7303 116.211 35.4345 115.895 35.1738C115.833 35.1226 115.773 35.0734 115.716 35.026C115.475 34.8265 115.274 34.6605 115.088 34.5253C114.857 34.3569 114.7 34.276 114.583 34.2465C114.493 34.2236 114.419 34.2285 114.319 34.2826L114.315 34.2847C113.885 34.5129 113.541 34.978 113.324 35.7159C113.108 36.4528 113.036 37.4073 113.113 38.508C113.265 40.7069 113.998 43.3797 115.163 45.8143L114.224 46.2646C113.012 43.7304 112.237 40.9297 112.074 38.5801C111.993 37.4066 112.062 36.318 112.325 35.422C112.588 34.5277 113.061 33.7704 113.827 33.3643C114.16 33.1848 114.5 33.1504 114.838 33.236C115.151 33.3152 115.438 33.4914 115.7 33.6819C115.915 33.8382 116.148 34.0309 116.391 34.2319C116.445 34.2772 116.5 34.3229 116.556 34.3687C116.866 34.6239 117.209 34.8993 117.606 35.1775C118.476 35.7858 119.63 36.4243 121.259 36.8403C122.566 37.174 124.179 37.3645 126.197 37.2816C128.229 37.1981 129.897 36.8048 131.331 36.2284C133.071 35.5285 134.465 34.5587 135.742 33.5457C136.157 33.2166 136.569 32.8748 136.981 32.5336C137.709 31.9293 138.435 31.3272 139.17 30.8015C140.344 29.9624 141.612 29.2619 143.144 28.92C145.672 28.3545 148.582 29.0235 150.843 30.604C153.115 32.1919 154.775 34.7334 154.71 37.9346C154.649 40.9385 154.651 43.5003 154.93 45.3604C155.069 46.2916 155.272 47.0024 155.543 47.4931C155.807 47.9711 156.11 48.2008 156.46 48.271L156.48 48.275C159.352 48.9689 161.523 50.6123 162.156 52.8992C162.794 55.2022 161.807 57.915 158.897 60.5969L158.192 59.8299C160.956 57.2825 161.643 54.9485 161.153 53.1776C160.659 51.3926 158.904 49.9358 156.245 49.2909C155.517 49.1413 154.995 48.6559 154.632 47.9971C154.273 47.3476 154.047 46.4949 153.9 45.5151C153.606 43.5532 153.608 40.9031 153.669 37.9134C153.725 35.121 152.288 32.8849 150.247 31.4586Z" fill="#1F6FEB"/>
<path fill-rule="evenodd" clip-rule="evenodd" d="M127.317 56.0643C127.891 55.6805 128.689 55.4531 129.48 55.4531C130.312 55.4531 131.192 55.7999 131.792 56.2793C132.093 56.5196 132.361 56.8237 132.499 57.1784C132.644 57.5551 132.635 57.9819 132.376 58.3675C132.235 58.577 132.03 58.7275 131.826 58.8367C131.617 58.9484 131.377 59.0349 131.125 59.1004C130.622 59.2313 130.026 59.2913 129.442 59.275C128.86 59.2587 128.256 59.1657 127.747 58.9679C127.25 58.7748 126.752 58.4442 126.546 57.8946L126.544 57.8875C126.258 57.0901 126.761 56.4364 127.317 56.0643ZM127.523 57.5323C127.578 57.6768 127.749 57.8506 128.124 57.9961C128.489 58.1381 128.967 58.2189 129.471 58.233C129.973 58.247 130.469 58.1941 130.863 58.0916C131.06 58.0404 131.218 57.98 131.335 57.9176C131.456 57.8526 131.502 57.8017 131.512 57.7854C131.557 57.7193 131.567 57.6575 131.528 57.5553C131.48 57.4311 131.358 57.2663 131.142 57.0939C130.71 56.7481 130.054 56.4955 129.48 56.4955C128.867 56.4955 128.276 56.6764 127.896 56.931C127.501 57.1949 127.48 57.4084 127.523 57.5323Z" fill="#1F6FEB"/>
<path d="M127.955 86.9973C124.037 86.4272 120.609 84.3158 119.385 83.3314C118.501 83.3314 116.059 83.0463 113.366 81.9058C109.999 80.4802 113.876 78.0364 116.732 76.5091C119.589 74.9818 129.873 73.4542 136.402 73.7597C141.626 74.0041 153.528 72.8433 156.929 72.2324V65.919L151.114 64.3712L158.459 60.3186L162.234 58.2822L166.213 60.3186L170.396 64.3712L173.967 72.2324L173.354 76.5091L178.558 89.7466L186.311 114.796L191.412 116.934L196.309 122.535C197.262 122.127 199.105 121.7 198.86 123.248C198.554 125.182 195.799 126.302 193.555 127.83C191.31 129.357 183.353 129.459 180.598 128.868C178.394 128.396 173.831 126.078 171.824 124.979C170.294 125.725 166.866 127.341 165.397 127.83C163.56 128.441 157.847 128.97 155.603 128.868C153.358 128.767 146.115 126.608 144.482 126.302C142.85 125.997 142.34 123.248 142.646 122.535C142.891 121.965 145.06 122.772 146.115 123.248C146.387 123.01 147.257 122.026 148.563 119.989C149.869 117.953 153.8 116.697 155.603 116.323L157.847 84.1461C155.263 84.7231 149.175 86.1012 145.503 86.9973C140.912 88.1175 132.852 87.71 127.955 86.9973Z" fill="#0D1117"/>
<path fill-rule="evenodd" clip-rule="evenodd" d="M141.905 16.4687C140.172 18.155 138.42 20.4708 137.665 22.9608L136.669 22.6583C137.494 19.9365 139.377 17.4747 141.179 15.7212C142.084 14.8412 142.982 14.126 143.739 13.6356C144.117 13.3909 144.469 13.1958 144.777 13.0648C145.061 12.9436 145.387 12.8416 145.678 12.8758C146.104 12.926 146.713 13.2144 147.368 13.6621C148.047 14.1255 148.84 14.8031 149.639 15.7113C151.24 17.5299 152.875 20.282 153.675 24.11L152.656 24.3235C151.895 20.6812 150.346 18.0911 148.858 16.4004C148.113 15.554 147.385 14.9351 146.782 14.5233C146.156 14.0959 145.721 13.9304 145.557 13.9111C145.558 13.9112 145.559 13.9113 145.559 13.9113C145.559 13.9115 145.531 13.9106 145.466 13.9261C145.396 13.9429 145.302 13.974 145.184 14.024C144.949 14.1242 144.651 14.2864 144.304 14.5108C143.613 14.9585 142.768 15.6288 141.905 16.4687Z" fill="#1F6FEB"/>
<path fill-rule="evenodd" clip-rule="evenodd" d="M181.276 48.5319C175.471 52.8299 168.97 54.9672 164.618 54.9672V53.9248C168.698 53.9248 174.987 51.8919 180.657 47.6938C186.314 43.5059 191.302 37.2018 192.861 28.708L193.885 28.8963C192.268 37.7058 187.095 44.2238 181.276 48.5319Z" fill="#1F6FEB"/>
<path fill-rule="evenodd" clip-rule="evenodd" d="M164.693 59.7464C163.018 58.7622 161.634 58.5854 160.708 59.2047L160.129 58.3379C161.58 57.3676 163.461 57.8141 165.22 58.8473C167.012 59.8995 168.862 61.6578 170.42 63.6873C171.979 65.7183 173.273 68.057 173.922 70.294C174.567 72.5175 174.601 74.7388 173.485 76.4313L173.484 76.4328C172.636 77.7096 171.182 78.9318 169.328 80.0678C167.466 81.2087 165.164 82.2853 162.577 83.2559C157.404 85.1973 151.05 86.7301 144.711 87.5C138.376 88.2695 132.022 88.2814 126.859 87.1562C121.715 86.0352 117.617 83.7518 116.036 79.8131L117.002 79.4245C118.388 82.878 122.052 85.042 127.08 86.1377C132.089 87.2291 138.316 87.2269 144.585 86.4653C150.85 85.7043 157.123 84.1893 162.212 82.2799C164.757 81.3251 166.995 80.2755 168.785 79.1788C170.582 78.0776 171.889 76.951 172.616 75.8568C173.487 74.535 173.53 72.6804 172.922 70.5848C172.318 68.5025 171.096 66.2786 169.595 64.3225C168.092 62.3649 166.337 60.7117 164.693 59.7464Z" fill="#1F6FEB"/>
<path fill-rule="evenodd" clip-rule="evenodd" d="M164.779 69.0519C164.716 69.8277 164.438 70.6334 163.659 70.9327C157.533 73.2941 145.864 75.087 133.942 74.3019C127.244 73.8899 121.675 75.0975 117.869 76.6509C115.963 77.4289 114.518 78.2864 113.597 79.0558C113.134 79.442 112.824 79.7898 112.648 80.0766C112.467 80.3736 112.473 80.5299 112.489 80.5838C112.709 81.3331 113.394 81.7832 114.571 82.0297C115.742 82.2748 117.214 82.2771 118.722 82.2771V83.3195H118.686C117.22 83.3195 115.645 83.3195 114.358 83.05C113.067 82.7797 111.878 82.1961 111.49 80.8779C111.355 80.415 111.511 79.9405 111.76 79.5324C112.016 79.1142 112.418 78.6829 112.93 78.2555C113.956 77.3978 115.504 76.4909 117.476 75.6857C121.427 74.073 127.153 72.8398 134.006 73.2615L134.009 73.2617C145.822 74.0398 157.334 72.2541 163.285 69.9598L163.286 69.9596C163.479 69.8853 163.687 69.6357 163.742 68.9668C163.794 68.3266 163.684 67.4735 163.441 66.5353C162.955 64.6528 161.987 62.6148 161.037 61.5511L161.813 60.8564C162.911 62.0859 163.938 64.2956 164.449 66.2742C164.706 67.2666 164.845 68.2474 164.779 69.0519Z" fill="#1F6FEB"/>
<path fill-rule="evenodd" clip-rule="evenodd" d="M185.839 115.038C182.327 101.84 177.894 88.9059 172.571 76.3305L173.53 75.9238C178.871 88.5441 183.321 101.525 186.845 114.769L185.839 115.038Z" fill="#1F6FEB"/>
<path fill-rule="evenodd" clip-rule="evenodd" d="M185.089 115.135C182.265 115.032 180.034 116.646 178.076 118.07L177.464 117.227C177.488 117.209 177.512 117.192 177.536 117.174C179.439 115.79 181.931 113.977 185.127 114.094C188.388 114.213 192.202 116.32 196.802 122.353L195.975 122.985C191.448 117.048 187.888 115.238 185.089 115.135Z" fill="#1F6FEB"/>
<path fill-rule="evenodd" clip-rule="evenodd" d="M143.694 124.292C144.487 125.302 146.507 126.637 150.562 127.278C150.614 127.286 150.667 127.294 150.72 127.302C149.836 126.817 149.035 126.287 148.283 125.777C148.161 125.695 148.041 125.613 147.922 125.532C146.368 124.474 145.051 123.577 143.55 123.247L143.544 123.245C143.396 123.21 143.331 123.236 143.318 123.242C143.318 123.242 143.318 123.242 143.317 123.243C143.313 123.245 143.3 123.25 143.289 123.292C143.257 123.415 143.285 123.77 143.694 124.292ZM154.577 127.738C152.27 127.152 150.508 126.027 148.867 124.914C148.735 124.824 148.603 124.734 148.471 124.645C146.964 123.616 145.482 122.606 143.777 122.229C143.462 122.156 143.135 122.167 142.85 122.311C142.554 122.46 142.362 122.723 142.282 123.029C142.13 123.61 142.378 124.302 142.875 124.936C143.896 126.236 146.213 127.646 150.4 128.308H150.402C151.802 128.524 153.139 128.675 154.41 128.771C154.431 128.776 154.451 128.781 154.471 128.786L154.474 128.776C159.226 129.129 163.072 128.714 165.957 128.02C167.79 127.578 169.242 127.022 170.294 126.474C170.819 126.201 171.252 125.925 171.585 125.662C171.909 125.406 172.174 125.134 172.32 124.856L171.398 124.372C171.352 124.459 171.219 124.623 170.94 124.844C170.67 125.057 170.296 125.298 169.813 125.55C168.848 126.052 167.479 126.581 165.714 127.006C162.945 127.673 159.216 128.081 154.577 127.738Z" fill="#1F6FEB"/>
<path fill-rule="evenodd" clip-rule="evenodd" d="M152.805 117.74C150.02 118.81 147.934 120.8 146.358 123.408L145.467 122.868C147.136 120.108 149.387 117.937 152.432 116.767C155.473 115.598 159.249 115.448 163.928 116.622L163.676 117.633C159.141 116.496 155.594 116.668 152.805 117.74Z" fill="#1F6FEB"/>
<path fill-rule="evenodd" clip-rule="evenodd" d="M156.741 92.6993C156.905 89.693 157.061 86.8068 157.209 84.3311L158.249 84.3933C158.099 86.9016 157.943 89.768 157.781 92.755C157.612 95.8597 157.437 99.0948 157.253 102.193C156.896 108.223 156.513 113.651 156.109 116.201L155.081 116.038C155.475 113.55 155.855 108.181 156.214 102.132C156.395 99.0757 156.572 95.8227 156.741 92.6993Z" fill="#1F6FEB"/>
<path fill-rule="evenodd" clip-rule="evenodd" d="M156.775 72.1187C156.846 69.0685 156.627 66.0185 156.123 63.0096L157.149 62.8369C157.665 65.9108 157.888 69.0268 157.816 72.143L156.775 72.1187Z" fill="#1F6FEB"/>
<path fill-rule="evenodd" clip-rule="evenodd" d="M161.13 64.8584C161.647 66.8288 162 68.8386 162.186 70.8672L161.15 70.9626C160.969 68.9911 160.625 67.038 160.123 65.1231L161.13 64.8584Z" fill="#1F6FEB"/>
<path fill-rule="evenodd" clip-rule="evenodd" d="M172.352 124.596C172.103 122.641 168.392 94.3821 165.962 81.5371L164.939 81.7311C167.365 94.5512 171.076 122.818 171.319 124.733L171.32 124.737C171.372 125.116 171.634 125.437 171.905 125.687C172.195 125.953 172.584 126.22 173.041 126.481C173.957 127.005 175.212 127.543 176.659 128.028C179.552 128.996 183.284 129.774 186.752 129.775C190.672 129.873 194.494 128.54 197.503 126.022C197.532 125.998 197.558 125.971 197.581 125.942C198.313 124.997 198.818 124.257 199.113 123.697C199.261 123.419 199.369 123.16 199.421 122.928C199.471 122.707 199.49 122.416 199.328 122.159C199.152 121.88 198.864 121.794 198.64 121.778C198.419 121.762 198.179 121.804 197.948 121.867C197.479 121.994 196.887 122.25 196.224 122.58C194.89 123.244 193.151 124.268 191.308 125.365C191.098 125.49 190.887 125.616 190.675 125.742C189.015 126.732 187.291 127.759 185.692 128.64L185.73 128.709C182.695 128.577 179.517 127.885 176.99 127.039C175.582 126.568 174.395 126.055 173.557 125.576C173.136 125.336 172.82 125.113 172.61 124.919C172.506 124.823 172.437 124.743 172.396 124.681C172.359 124.626 172.352 124.598 172.352 124.596ZM187.657 128.729C190.994 128.619 194.21 127.402 196.793 125.258C197.494 124.35 197.944 123.681 198.193 123.209C198.274 123.057 198.328 122.934 198.363 122.839C198.322 122.847 198.274 122.859 198.22 122.873C197.855 122.972 197.338 123.19 196.687 123.514C195.395 124.157 193.691 125.159 191.84 126.261C191.631 126.386 191.42 126.511 191.208 126.638C190.041 127.334 188.833 128.053 187.657 128.729ZM198.415 122.63C198.415 122.63 198.415 122.631 198.415 122.634C198.415 122.631 198.415 122.63 198.415 122.63Z" fill="#1F6FEB"/>
<path fill-rule="evenodd" clip-rule="evenodd" d="M170.582 42.9444C167.449 43.6186 164.141 44.9704 161.338 46.9006L160.748 46.0418C163.672 44.0285 167.107 42.6259 170.363 41.9253C173.607 41.2273 176.735 41.2133 179.019 42.0474C179.289 42.146 179.428 42.4452 179.33 42.7156C179.231 42.986 178.932 43.1253 178.662 43.0266C176.635 42.2864 173.728 42.2676 170.582 42.9444Z" fill="#1F6FEB"/>
<path fill-rule="evenodd" clip-rule="evenodd" d="M168.729 49.095C166.951 48.9742 165.168 49.2298 163.496 49.8451L163.137 48.8666C164.946 48.2009 166.876 47.9243 168.799 48.055C170.723 48.1857 172.598 48.7207 174.301 49.6251C174.555 49.7599 174.652 50.0754 174.517 50.3297C174.382 50.584 174.067 50.6808 173.813 50.546C172.239 49.7102 170.507 49.2158 168.729 49.095Z" fill="#1F6FEB"/>
<path fill-rule="evenodd" clip-rule="evenodd" d="M110.912 55.2554C113.631 54.6877 116.451 54.8425 119.092 55.7044C119.365 55.7937 119.515 56.0878 119.426 56.3615C119.336 56.6352 119.043 56.7847 118.769 56.6955C116.301 55.8899 113.666 55.7453 111.124 56.2758C110.843 56.3346 110.567 56.1538 110.509 55.872C110.45 55.5903 110.631 55.3142 110.912 55.2554Z" fill="#1F6FEB"/>
<path d="M65.5915 96.5572C54.9375 97.2348 45.4635 96.7483 39.1822 94.0208C38.9566 96.3488 38.8525 98.7462 38.8525 101.127L99.2018 105.748C99.2018 100.38 99.4621 90.3725 100.937 85.6123C90.164 91.9594 78.0624 95.7067 65.5915 96.5572Z" fill="#30363D"/>
<path opacity="0.2" d="M65.5915 96.5572C54.9375 97.2348 45.4635 96.7483 39.1822 94.0208C38.9566 96.3488 38.8525 98.7462 38.8525 101.127L99.2018 105.748C99.2018 100.38 99.4621 90.3725 100.937 85.6123C90.164 91.9594 78.0624 95.7067 65.5915 96.5572Z" fill="#484F58"/>
<path d="M100.937 81.8425H99.2021C99.4797 81.1129 99.7574 80.3832 100.052 79.6709L101.683 79.7925C101.475 80.4179 101.197 81.1302 100.937 81.8425Z" fill="#21262D"/>
<path d="M103.054 76.9783L101.475 76.822C101.856 76.0923 102.273 75.38 102.689 74.6851L104.268 74.5635C103.869 75.0847 103.418 76.2834 103.054 76.9783Z" fill="#21262D"/>
<path d="M106.316 71.6103L104.581 71.9056C105.101 71.2107 105.639 70.5332 106.212 69.873H107.947C107.339 70.3768 106.871 70.8807 106.316 71.6103Z" fill="#21262D"/>
<path d="M110.272 67.4237L108.693 67.2153C109.352 66.5898 110.047 65.9992 110.758 65.478L112.771 65.3564C112.094 65.8254 110.879 66.8504 110.272 67.4237Z" fill="#21262D"/>
<path d="M97.9007 100.797L96.1655 101.283C96.1655 100.936 96.1655 99.9105 96.2523 99.5456L97.9875 99.1982C97.9701 99.5456 97.9007 100.467 97.9007 100.797Z" fill="#161B22"/>
<path d="M98.1087 96.4705L96.3735 96.7658C96.3735 96.0709 96.3735 95.3586 96.5297 94.6637L98.2648 94.3857C98.1954 95.0807 98.1434 95.7756 98.1087 96.4705Z" fill="#161B22"/>
<path d="M98.5946 91.6236L96.8594 91.8321C96.9635 91.1198 97.0677 90.4075 97.2065 89.6952L98.9416 89.5215C98.8028 90.2164 98.6814 90.9113 98.5946 91.6236Z" fill="#161B22"/>
<path d="M99.4968 86.7248L97.7617 86.8464C97.9178 86.1167 98.1087 85.3871 98.3169 84.6748H100.052C99.8439 85.3349 99.6704 86.0298 99.4968 86.7248Z" fill="#21262D"/>
<path d="M95.957 104.653L96.1132 102.621L97.8483 102.273L97.8657 104.393L95.957 104.653Z" fill="#161B22"/>
<path d="M42.7741 93.8989L41.5942 93.7773C41.5942 93.204 41.7157 92.6133 41.7851 92.04L42.965 92.179C42.8956 92.7523 42.8262 93.3256 42.7741 93.8989Z" fill="#21262D"/>
<path d="M43.3293 89.9213L42.1147 89.7129C42.2188 89.1222 42.3403 88.5489 42.4617 87.9756L43.6243 88.2362C43.5375 88.7921 43.4334 89.348 43.3293 89.9213Z" fill="#21262D"/>
<path d="M44.2146 86.0127L43.0693 85.6826C43.2255 85.1093 43.4164 84.536 43.5899 83.9453L44.7351 84.3276C44.5442 84.9009 44.3707 85.5089 44.2146 86.0127Z" fill="#21262D"/>
<path d="M45.5851 82.2419L44.4746 81.7728C44.7175 81.2169 44.9778 80.6783 45.238 80.1572L46.2965 80.7131C46.0189 81.1995 45.7759 81.7207 45.5851 82.2419Z" fill="#21262D"/>
<path d="M47.3205 78.7504L46.3315 78.0902C46.6611 77.5864 47.0082 77.1 47.3552 76.6309L48.3095 77.3605C47.9563 77.8065 47.6262 78.2704 47.3205 78.7504Z" fill="#21262D"/>
<path d="M49.8539 75.6758L49.0557 74.8245C49.4721 74.4075 49.9233 73.9906 50.3744 73.6084L51.1379 74.5292C50.6694 74.894 50.2529 75.2762 49.8539 75.6758Z" fill="#21262D"/>
<path d="M52.9077 73.2081L52.2656 72.2004C52.7682 71.8744 53.2897 71.5787 53.8273 71.3145L54.3652 72.3742C53.862 72.6348 53.3588 72.9128 52.9077 73.2081Z" fill="#21262D"/>
<path d="M56.4126 71.4707L55.9961 70.3589C56.5514 70.1504 57.124 69.9767 57.7313 69.8203L58.0437 70.9669C57.4884 71.1059 56.9331 71.2796 56.4126 71.4707Z" fill="#21262D"/>
<path d="M59.9868 70.2375V69.56C60.5594 69.4557 61.1667 69.56 61.722 69.56L61.8608 69.8553C61.3403 69.8727 60.5247 70.1333 59.9868 70.2375Z" fill="#21262D"/>
<path d="M42.4444 101.144H41.2471V100.241H42.4444V101.144Z" fill="#161B22"/>
<path d="M42.4966 97.9297H41.2993L41.4034 96.1924H42.5834C42.5487 96.7657 42.5139 97.3564 42.4966 97.9297Z" fill="#161B22"/>
<path opacity="0.77" d="M92.5214 92.8741H45.585L46.0882 89.9033L92.7296 90.4766L92.5214 92.8741Z" fill="#8B949E"/>
<path fill-rule="evenodd" clip-rule="evenodd" d="M61.9929 12.1111C61.8306 12.0181 61.6285 11.9905 61.3421 12.0711C57.3677 13.1938 54.8717 16.3013 52.7202 20.1788L51.8101 19.6726C53.8579 15.982 56.3337 12.7438 60.2459 11.3293C60.5105 11.2336 60.7818 11.1463 61.0599 11.0677C61.5456 10.9311 62.0491 10.9424 62.5097 11.2062C62.9566 11.462 63.2881 11.9125 63.5352 12.4978C64.0236 13.6547 64.2725 15.5573 64.2725 18.3795H63.2314C63.2314 15.5729 62.9772 13.8532 62.5763 12.9036C62.3787 12.4357 62.1692 12.2119 61.9929 12.1111Z" fill="#1F6FEB"/>
<path fill-rule="evenodd" clip-rule="evenodd" d="M63.0529 9.05031C61.3186 7.38267 58.7867 6.96352 55.3292 7.86915L55.3179 7.87211V7.87198C54.2805 8.11892 53.3087 8.58764 52.4693 9.24598C51.6382 9.89784 50.9562 10.7203 50.4693 11.6579C49.696 13.7756 49.6186 16.0856 50.2488 18.2509L49.2492 18.5425C48.5537 16.1527 48.6428 13.6024 49.5036 11.2671C49.5109 11.2472 49.5194 11.2279 49.5291 11.2091C50.0856 10.1261 50.8697 9.17647 51.8273 8.4254C52.7834 7.67554 53.89 7.14132 55.0713 6.85924C58.7081 5.90782 61.6747 6.27979 63.7741 8.29851C65.8395 10.2846 66.9336 13.7483 67.1523 18.6514L66.1122 18.6979C65.897 13.8722 64.8222 10.7516 63.0529 9.05031Z" fill="#1F6FEB"/>
<path fill-rule="evenodd" clip-rule="evenodd" d="M97.3348 26.5278C94.3995 26.4681 91.5146 27.2983 89.059 28.9096L88.4883 28.0378C91.1196 26.3113 94.2107 25.4216 97.356 25.4857L97.3348 26.5278Z" fill="#1F6FEB"/>
<path fill-rule="evenodd" clip-rule="evenodd" d="M92.5045 31.1063C92.428 29.6456 92.1899 28.198 91.7944 26.79L92.7967 26.5078C93.2129 27.9901 93.4636 29.514 93.5442 31.0517L92.5045 31.1063Z" fill="#1F6FEB"/>
<path fill-rule="evenodd" clip-rule="evenodd" d="M201.581 2.24262C206.208 3.29369 211.079 7.96553 214.38 16.2231C216.088 20.4978 215.371 25.7692 213.055 31.1264C210.734 36.4953 206.777 42.0258 201.876 46.8773C192.099 56.5547 178.404 63.6769 166.232 61.2111L166.439 60.1894C178.108 62.5533 191.465 55.7163 201.144 46.136C205.97 41.3585 209.842 35.9354 212.1 30.7123C214.363 25.4775 214.975 20.5184 213.413 16.6104C210.172 8.50287 205.5 4.20162 201.351 3.25915C199.29 2.79093 197.343 3.14357 195.704 4.2762C194.058 5.41375 192.681 7.36838 191.838 10.1728C189.619 17.6693 190.975 24.8617 194.172 28.7916C195.762 30.7461 197.786 31.8749 200.05 31.8955C202.321 31.9161 204.938 30.8226 207.702 28.1187C207.925 27.8984 208.146 27.6544 208.385 27.3914C208.482 27.2848 208.581 27.175 208.685 27.0624C209.035 26.6825 209.419 26.2845 209.843 25.945C210.7 25.2579 211.771 24.7727 213.104 25.1585L212.815 26.1598C211.927 25.9029 211.202 26.1907 210.493 26.7588C210.134 27.0469 209.793 27.397 209.45 27.769C209.36 27.8675 209.268 27.9688 209.175 28.0708C208.928 28.3428 208.677 28.6199 208.432 28.8619L208.43 28.8637C205.538 31.6927 202.671 32.9617 200.041 32.9378C197.403 32.9139 195.107 31.591 193.365 29.4498C189.899 25.1886 188.549 17.6145 190.84 9.87547L190.841 9.8735C191.733 6.90192 193.226 4.72211 195.112 3.41835C197.006 2.10955 199.255 1.71408 201.581 2.24262Z" fill="#1F6FEB"/>
<path d="M187.643 12.5426C185.717 11.0485 183.427 10.1104 182.872 8.96377C182.788 8.56654 182.785 8.15668 182.861 7.75809C182.938 7.3595 183.093 6.98015 183.317 6.64218C183.542 6.30421 183.831 6.01437 184.169 5.78957C184.506 5.56478 184.885 5.40952 185.283 5.33285C186.498 5.17649 188.754 8.94641 189.448 9.69344C190.142 10.4405 187.643 12.5426 187.643 12.5426Z" fill="#B1BAC4"/>
<path d="M183.427 6.44434C184.277 7.22612 186.533 9.50196 187.019 9.81468C187.505 10.1274 186.724 12.1253 185.821 11.3782C184.919 10.6312 182.681 9.34561 182.768 8.28586C182.79 7.61811 183.02 6.97411 183.427 6.44434Z" fill="#8B949E"/>
<path d="M186.134 13.1159C184.746 11.0486 186.637 7.90406 189.5 7.46973C194.324 9.64134 216.014 35.8918 217.003 37.5769C217.992 39.2621 216.69 41.2253 215.025 39.5401C213.359 37.8549 187.158 14.6795 186.134 13.1159Z" fill="#6E7681"/>
<path d="M186.134 9.78027C185.831 10.2837 185.671 10.8603 185.671 11.4481C185.671 12.0358 185.831 12.6125 186.134 13.1159C187.262 14.61 209.576 34.5019 215.024 39.54C215.718 40.1828 216.135 40.2697 216.36 40.1828C216.194 40.0943 216.047 39.9726 215.929 39.8252C215.81 39.6779 215.724 39.508 215.673 39.3259C215.623 39.1437 215.61 38.9533 215.636 38.7661C215.662 38.5789 215.725 38.3989 215.823 38.2371C214.799 37.4379 186.134 10.8053 186.134 9.78027Z" fill="#484F58"/>
<path fill-rule="evenodd" clip-rule="evenodd" d="M194.73 33.7035C194.261 32.6429 194.117 31.363 194.294 30.1028L195.325 30.2482C195.171 31.3451 195.303 32.4244 195.682 33.2815C196.059 34.1344 196.667 34.744 197.468 34.9863C198.272 35.2297 199.372 35.1326 200.787 34.3648C202.203 33.5961 203.899 32.173 205.85 29.8408L206.649 30.5102C204.648 32.9005 202.855 34.428 201.283 35.2813C199.708 36.1356 198.317 36.3321 197.167 35.9841C196.013 35.6351 195.201 34.7684 194.73 33.7035Z" fill="#1F6FEB"/>
<path d="M185.854 53.7492L185.853 53.7488C185.83 53.6704 185.723 53.5146 185.315 53.3772C184.922 53.2451 184.353 53.1689 183.631 53.1689C182.194 53.1691 180.268 53.471 178.203 54.0869L178.203 54.0869C176.137 54.7026 174.36 55.5047 173.157 56.2914C172.552 56.6865 172.118 57.0618 171.861 57.3878C171.593 57.7269 171.589 57.9163 171.612 57.9952L185.854 53.7492ZM185.854 53.7492C185.877 53.828 185.872 54.0174 185.605 54.3565M185.854 53.7492L185.605 54.3565M185.605 54.3565C185.348 54.6825 184.914 55.0578 184.309 55.4529M185.605 54.3565L184.309 55.4529M184.309 55.4529C183.107 56.2396 181.33 57.0417 179.264 57.6574M184.309 55.4529L179.264 57.6574M179.264 57.6574C177.198 58.2732 175.272 58.5751 173.835 58.5753C173.113 58.5754 172.545 58.4992 172.151 58.3671C171.743 58.2298 171.635 58.0738 171.612 57.9952L179.264 57.6574Z" stroke="#1F6FEB" stroke-linejoin="round"/>
<path d="M193.186 39.8593C194.3 38.2912 195.678 36.929 197.257 35.8336L196.665 34.9766C194.987 36.1399 193.524 37.5863 192.341 39.2513C190.96 41.121 189.99 43.0442 189.545 44.6585C189.322 45.4644 189.223 46.2204 189.287 46.8668C189.35 47.5128 189.585 48.1081 190.09 48.4869C190.587 48.8599 191.21 48.9179 191.832 48.7996C192.453 48.6813 193.129 48.3789 193.816 47.9484C195.249 47.0501 196.838 45.5275 198.247 43.6196C199.457 41.9815 200.357 40.3031 200.865 38.8273C201.123 38.0761 201.285 37.3643 201.329 36.7286C201.372 36.0987 201.302 35.5039 201.056 35.0195L200.128 35.4921C200.257 35.7471 200.326 36.1319 200.29 36.6572C200.254 37.1769 200.119 37.7962 199.881 38.4877C199.413 39.8452 198.569 41.4304 197.41 42.9998C196.058 44.8315 194.56 46.2527 193.264 47.0649C192.64 47.4557 192.087 47.6899 191.637 47.7755C191.188 47.861 190.898 47.7902 190.714 47.6526C190.525 47.5102 190.37 47.2393 190.323 46.7643C190.276 46.2897 190.346 45.6699 190.548 44.9362C190.952 43.4722 191.855 41.6618 193.181 39.8671L193.186 39.8593Z" fill="#1F6FEB"/>
<path fill-rule="evenodd" clip-rule="evenodd" d="M150.872 10.629C148.708 10.2571 146.482 10.5257 144.467 11.4027C142.431 12.2889 140.702 13.7569 139.496 15.6228L138.622 15.0564C139.939 13.0183 141.828 11.4148 144.052 10.4468C146.276 9.47873 148.735 9.18927 151.122 9.61462C151.167 9.62262 151.211 9.6365 151.252 9.65589C153.057 10.5036 154.829 12.1579 155.832 14.8907C156.832 17.616 157.054 21.3788 155.841 26.4409L154.828 26.1977C156.009 21.2704 155.763 17.7279 154.855 15.25C153.96 12.8122 152.413 11.3711 150.872 10.629Z" fill="#1F6FEB"/>
<path d="M191.756 9.06738C191.349 9.91702 191.257 10.8836 191.496 11.795C194.934 15.4493 198.553 18.9283 202.34 22.2187C203.26 22.0276 203.694 22.0102 204.249 21.8712C203.486 21.3327 191.825 9.39746 191.756 9.06738Z" fill="#8B949E"/>
<path d="M191.756 9.06817C192.155 9.53724 203.26 21.2292 204.249 21.8546C204.663 21.0161 205.023 20.1514 205.325 19.2661C205.325 19.2661 193.526 8.42538 193.283 8.51224L191.756 9.06817Z" fill="#B1BAC4"/>
<path d="M204.216 31.6004L209.524 27.448L208.233 18.1411L194.03 5.11133L192.165 7.83205L190.444 15.1343V20.4321L204.216 31.6004Z" fill="#0D1117"/>
<path fill-rule="evenodd" clip-rule="evenodd" d="M201.563 2.25571C206.165 3.31137 211.035 7.98207 214.379 16.2205L213.414 16.6129C210.13 8.52071 205.457 4.21832 201.33 3.27175C199.281 2.80171 197.354 3.15139 195.737 4.27952C194.113 5.41303 192.76 7.36424 191.943 10.1694L191.942 10.1716C189.723 17.6686 191.079 24.8614 194.276 28.7915C195.866 30.746 197.89 31.8748 200.154 31.8954C202.425 31.916 205.041 30.8226 207.806 28.1189C208.029 27.8985 208.25 27.6545 208.489 27.3913C208.586 27.2847 208.685 27.1749 208.789 27.0623C209.139 26.6824 209.523 26.2844 209.947 25.9449C210.804 25.2578 211.875 24.7725 213.208 25.1584L212.919 26.1597C212.031 25.9028 211.306 26.1906 210.597 26.7587C210.238 27.0468 209.897 27.3969 209.554 27.7689C209.464 27.8674 209.372 27.9687 209.279 28.0708C209.032 28.3427 208.781 28.6198 208.536 28.8618L208.534 28.8636C205.642 31.6926 202.775 32.9616 200.145 32.9377C197.507 32.9138 195.211 31.5909 193.469 29.4497C190.003 25.1887 188.653 17.6151 190.944 9.87636C191.81 6.90559 193.276 4.72677 195.142 3.42444C197.016 2.11656 199.248 1.72464 201.563 2.25571Z" fill="#1F6FEB"/>
<path d="M215.354 39.4008C215.181 38.6364 216.222 37.455 216.777 38.0978C217.332 38.7406 218.148 40.5648 217.61 40.7732C217.072 40.9817 215.354 39.4008 215.354 39.4008Z" fill="#B1BAC4"/>
<path d="M216.655 37.9761C215.181 38.8447 217.124 40.7905 217.766 40.582C217.766 41.3638 215.389 39.696 215.354 39.4007C215.285 38.6015 215.927 37.7155 216.655 37.9761Z" fill="#8B949E"/>
</svg>
