<svg width="170" height="48" viewBox="0 0 170 48" fill="none" xmlns="http://www.w3.org/2000/svg">
<rect width="170" height="48" fill="white"/>
<path fill-rule="evenodd" clip-rule="evenodd" d="M15.6941 20.3422C15.6658 19.8916 15.6374 19.6795 15.5524 19.388C15.0708 17.8241 13.5128 16.6843 11.6997 16.6843H3.93768V31.3687H7.87537V35H0V13H11.6997C15.6658 13 18.9235 15.7036 19.4901 19.2554C19.5468 19.6 19.5751 19.9446 19.5751 20.3422H15.6941ZM19.6038 24V27.6313C19.6038 31.6336 16.0445 34.9131 11.7851 34.9983V31.3422H11.5585C13.7681 31.3422 15.6661 29.6458 15.6661 27.5783V24H19.6038ZM11.7851 34.9983V35H11.6152C11.6719 35 11.7286 34.9994 11.7851 34.9983ZM67.7906 22.1564C67.7906 20.5171 66.4874 19.6302 64.7877 19.6302C63.1163 19.6302 61.7849 20.5439 61.7849 22.1564V26.2144C61.7849 27.8268 63.088 28.7406 64.7877 28.7406C66.4591 28.7406 67.7906 27.8268 67.7906 26.2144V22.1564ZM64.8161 31.4011C60.935 31.4011 58.7254 29.3049 58.7254 26.2144V22.1564C58.7254 19.039 60.935 16.9428 64.8161 16.9428C68.6971 16.9428 70.9067 19.039 70.9067 22.1564V26.2144C70.8784 29.3318 68.6688 31.4011 64.8161 31.4011ZM52.1817 22.3713C52.1817 20.7588 50.8786 19.8451 49.1788 19.8451H46.176V28.5523H49.1788C50.8502 28.5523 52.1817 27.6386 52.1817 26.0262V22.3713ZM43.1165 31.2129V17.1577H49.2072C53.0882 17.1577 55.2978 19.2539 55.2978 22.3444V26.0262C55.2978 29.1436 53.0882 31.2129 49.2072 31.2129H43.1165ZM80.0852 31.2129L82.6914 23.3388L85.326 31.2129H88.6405L91.615 17.1577H88.5271L86.6574 26.6712L83.6546 17.1577H81.7566L78.7537 26.6712L76.8841 17.1577H73.7962L76.7424 31.2129H80.0852ZM106.573 17.1577H109.66V27.1818C109.66 29.9767 107.876 31.401 104.873 31.401C101.87 31.401 100.085 29.9767 100.085 27.1818H103.201C103.286 28.1761 103.881 28.7136 104.873 28.7136C106.063 28.7136 106.573 28.0149 106.573 27.1011V17.1577ZM119.49 19.6302C121.19 19.6302 122.493 20.5171 122.493 22.1564V26.2144C122.493 27.8268 121.162 28.7406 119.49 28.7406C117.79 28.7406 116.487 27.8268 116.487 26.2144V22.1564C116.487 20.5439 117.819 19.6302 119.49 19.6302ZM113.4 26.2144C113.4 29.3049 115.609 31.4011 119.49 31.4011C123.371 31.4011 125.581 29.3318 125.581 26.2144V22.1564C125.581 19.039 123.371 16.9428 119.49 16.9428C115.609 16.9428 113.4 19.039 113.4 22.1564V26.2144ZM141.502 31.2129H138.414L132.437 22.1563V31.2129H129.349V17.1577H132.437L138.414 26.2143V17.1577H141.502V31.2129ZM154.674 22.7744H148.669V19.8451H155.383V17.1577H145.581V31.2129H155.383V28.5523H148.669V25.4618H154.674V22.7744ZM158.64 26.7787H161.813C161.983 27.9612 163.059 28.7406 164.589 28.7406C165.949 28.7406 166.884 28.3106 166.884 27.3431C166.884 26.5638 166.346 26.1069 165.212 25.865L162.493 25.22C160.028 24.6288 158.81 23.1239 158.81 21.0546C158.81 18.2328 161.331 16.9697 164.164 16.9697C167.394 16.9697 169.377 18.609 169.745 21.0008H166.572C166.289 20.0602 165.156 19.6302 164.136 19.6302C162.833 19.6302 161.926 20.0602 161.926 21.0546C161.926 21.8877 162.663 22.237 163.541 22.452L166.176 23.0701C168.669 23.6613 170 24.9782 170 27.3431C170 29.8693 168.102 31.428 164.618 31.428C161.076 31.4011 158.782 29.5737 158.64 26.7787Z" fill="#24292F"/>
</svg>
