<svg fill="none" height="28" viewBox="0 0 28 28" width="28" xmlns="http://www.w3.org/2000/svg"><path clip-rule="evenodd" d="m13.0719 18.8655c.5126.5126 1.3436.5126 1.8562 0l6.5624-6.5624c.5126-.5126.5126-1.3436 0-1.8562-.5125-.51254-1.3435-.51254-1.856 0l-4.322 4.3219v-11.7063c0-.72487-.5876-1.3125-1.3125-1.3125s-1.3125.58763-1.3125 1.3125v11.7063l-4.32192-4.3219c-.51256-.51254-1.3436-.51254-1.85616 0-.51255.5126-.51255 1.3436 0 1.8562zm-6.5094 3.8847c-.72487 0-1.3125.5876-1.3125 1.3125 0 .7248.58763 1.3125 1.3125 1.3125h14.875c.7248 0 1.3125-.5877 1.3125-1.3125 0-.7249-.5877-1.3125-1.3125-1.3125z" fill-rule="evenodd"/></svg>