<svg data-name="EDITOR TOOLS" xmlns="http://www.w3.org/2000/svg" viewBox="300 150 850 600"><path fill="#f6f8fa" d="M240.56 496L216.3 361.34l254.54-46.9-46.5-247.88 577.03-20.62-17.79 127.68 217.55-7.28.81 329.66H240.56z"/><path fill="none" stroke="#e1e4e8" stroke-miterlimit="10" stroke-width="2.53" d="M1203.75 494.17H-17.18"/><path fill="#e1e4e8" d="M873.49 440.5h17.31v28.12h-17.31z"/><circle cx="881.98" cy="448.69" r="4.25" fill="#f6f8fa"/><circle cx="882.59" cy="459.91" r="4.25" fill="#f6f8fa"/><ellipse cx="573.66" cy="564.95" rx="139.33" ry="19.41" fill="#e8eaee"/><path fill="#e8eaee" d="M543.93 107.3h410.84v242.62H543.93z"/><circle cx="566.18" cy="125.51" r="2.84" fill="#d1d5da"/><circle cx="599.47" cy="125.51" r="2.84" fill="#d1d5da"/><circle cx="632.76" cy="125.51" r="2.84" fill="#d1d5da"/><circle cx="666.04" cy="125.51" r="2.84" fill="#d1d5da"/><circle cx="699.33" cy="125.51" r="2.84" fill="#d1d5da"/><circle cx="732.61" cy="125.51" r="2.84" fill="#d1d5da"/><circle cx="765.9" cy="125.51" r="2.84" fill="#d1d5da"/><circle cx="799.19" cy="125.51" r="2.84" fill="#d1d5da"/><circle cx="832.47" cy="125.51" r="2.84" fill="#d1d5da"/><circle cx="865.76" cy="125.51" r="2.84" fill="#d1d5da"/><circle cx="899.04" cy="125.51" r="2.84" fill="#d1d5da"/><circle cx="932.33" cy="125.51" r="2.84" fill="#d1d5da"/><circle cx="566.18" cy="151.08" r="2.84" fill="#d1d5da"/><circle cx="599.47" cy="151.08" r="2.84" fill="#d1d5da"/><circle cx="632.76" cy="151.08" r="2.84" fill="#d1d5da"/><circle cx="666.04" cy="151.08" r="2.84" fill="#d1d5da"/><circle cx="699.33" cy="151.08" r="2.84" fill="#d1d5da"/><circle cx="732.61" cy="151.08" r="2.84" fill="#d1d5da"/><circle cx="765.9" cy="151.08" r="2.84" fill="#d1d5da"/><circle cx="799.19" cy="151.08" r="2.84" fill="#d1d5da"/><circle cx="832.47" cy="151.08" r="2.84" fill="#d1d5da"/><circle cx="865.76" cy="151.08" r="2.84" fill="#d1d5da"/><circle cx="899.04" cy="151.08" r="2.84" fill="#d1d5da"/><circle cx="932.33" cy="151.08" r="2.84" fill="#d1d5da"/><circle cx="566.18" cy="176.65" r="2.84" fill="#d1d5da"/><circle cx="599.47" cy="176.65" r="2.84" fill="#d1d5da"/><circle cx="632.76" cy="176.65" r="2.84" fill="#d1d5da"/><circle cx="666.04" cy="176.65" r="2.84" fill="#d1d5da"/><circle cx="699.33" cy="176.65" r="2.84" fill="#d1d5da"/><circle cx="732.61" cy="176.65" r="2.84" fill="#d1d5da"/><circle cx="765.9" cy="176.65" r="2.84" fill="#d1d5da"/><circle cx="799.19" cy="176.65" r="2.84" fill="#d1d5da"/><circle cx="832.47" cy="176.65" r="2.84" fill="#d1d5da"/><circle cx="865.76" cy="176.65" r="2.84" fill="#d1d5da"/><circle cx="899.04" cy="176.65" r="2.84" fill="#d1d5da"/><circle cx="932.33" cy="176.65" r="2.84" fill="#d1d5da"/><circle cx="566.18" cy="202.23" r="2.84" fill="#d1d5da"/><circle cx="599.47" cy="202.23" r="2.84" fill="#d1d5da"/><circle cx="632.76" cy="202.23" r="2.84" fill="#d1d5da"/><circle cx="666.04" cy="202.23" r="2.84" fill="#d1d5da"/><circle cx="699.33" cy="202.23" r="2.84" fill="#d1d5da"/><circle cx="732.61" cy="202.23" r="2.84" fill="#d1d5da"/><circle cx="765.9" cy="202.23" r="2.84" fill="#d1d5da"/><circle cx="799.19" cy="202.23" r="2.84" fill="#d1d5da"/><circle cx="832.47" cy="202.23" r="2.84" fill="#d1d5da"/><circle cx="865.76" cy="202.23" r="2.84" fill="#d1d5da"/><circle cx="899.04" cy="202.23" r="2.84" fill="#d1d5da"/><circle cx="932.33" cy="202.23" r="2.84" fill="#d1d5da"/><circle cx="566.18" cy="227.8" r="2.84" fill="#d1d5da"/><circle cx="599.47" cy="227.8" r="2.84" fill="#d1d5da"/><circle cx="632.76" cy="227.8" r="2.84" fill="#d1d5da"/><circle cx="666.04" cy="227.8" r="2.84" fill="#d1d5da"/><circle cx="699.33" cy="227.8" r="2.84" fill="#d1d5da"/><circle cx="732.61" cy="227.8" r="2.84" fill="#d1d5da"/><circle cx="765.9" cy="227.8" r="2.84" fill="#d1d5da"/><circle cx="799.19" cy="227.8" r="2.84" fill="#d1d5da"/><circle cx="832.47" cy="227.8" r="2.84" fill="#d1d5da"/><circle cx="865.76" cy="227.8" r="2.84" fill="#d1d5da"/><circle cx="899.04" cy="227.8" r="2.84" fill="#d1d5da"/><circle cx="932.33" cy="227.8" r="2.84" fill="#d1d5da"/><circle cx="566.18" cy="253.37" r="2.84" fill="#d1d5da"/><circle cx="599.47" cy="253.37" r="2.84" fill="#d1d5da"/><circle cx="632.76" cy="253.37" r="2.84" fill="#d1d5da"/><circle cx="666.04" cy="253.37" r="2.84" fill="#d1d5da"/><circle cx="699.33" cy="253.37" r="2.84" fill="#d1d5da"/><circle cx="732.61" cy="253.37" r="2.84" fill="#d1d5da"/><circle cx="765.9" cy="253.37" r="2.84" fill="#d1d5da"/><circle cx="799.19" cy="253.37" r="2.84" fill="#d1d5da"/><circle cx="832.47" cy="253.37" r="2.84" fill="#d1d5da"/><circle cx="865.76" cy="253.37" r="2.84" fill="#d1d5da"/><circle cx="899.04" cy="253.37" r="2.84" fill="#d1d5da"/><circle cx="932.33" cy="253.37" r="2.84" fill="#d1d5da"/><circle cx="566.18" cy="278.95" r="2.84" fill="#d1d5da"/><circle cx="599.47" cy="278.95" r="2.84" fill="#d1d5da"/><circle cx="632.76" cy="278.95" r="2.84" fill="#d1d5da"/><circle cx="666.04" cy="278.95" r="2.84" fill="#d1d5da"/><circle cx="699.33" cy="278.95" r="2.84" fill="#d1d5da"/><circle cx="732.61" cy="278.95" r="2.84" fill="#d1d5da"/><circle cx="765.9" cy="278.95" r="2.84" fill="#d1d5da"/><circle cx="799.19" cy="278.95" r="2.84" fill="#d1d5da"/><circle cx="832.47" cy="278.95" r="2.84" fill="#d1d5da"/><circle cx="865.76" cy="278.95" r="2.84" fill="#d1d5da"/><circle cx="899.04" cy="278.95" r="2.84" fill="#d1d5da"/><circle cx="932.33" cy="278.95" r="2.84" fill="#d1d5da"/><circle cx="566.18" cy="304.52" r="2.84" fill="#d1d5da"/><circle cx="599.47" cy="304.52" r="2.84" fill="#d1d5da"/><circle cx="632.76" cy="304.52" r="2.84" fill="#d1d5da"/><circle cx="666.04" cy="304.52" r="2.84" fill="#d1d5da"/><circle cx="699.33" cy="304.52" r="2.84" fill="#d1d5da"/><circle cx="732.61" cy="304.52" r="2.84" fill="#d1d5da"/><circle cx="765.9" cy="304.52" r="2.84" fill="#d1d5da"/><circle cx="799.19" cy="304.52" r="2.84" fill="#d1d5da"/><circle cx="832.47" cy="304.52" r="2.84" fill="#d1d5da"/><circle cx="865.76" cy="304.52" r="2.84" fill="#d1d5da"/><circle cx="899.04" cy="304.52" r="2.84" fill="#d1d5da"/><circle cx="932.33" cy="304.52" r="2.84" fill="#d1d5da"/><circle cx="566.18" cy="330.1" r="2.84" fill="#d1d5da"/><circle cx="599.47" cy="330.1" r="2.84" fill="#d1d5da"/><circle cx="632.76" cy="330.1" r="2.84" fill="#d1d5da"/><circle cx="666.04" cy="330.1" r="2.84" fill="#d1d5da"/><circle cx="699.33" cy="330.1" r="2.84" fill="#d1d5da"/><circle cx="732.61" cy="330.1" r="2.84" fill="#d1d5da"/><circle cx="765.9" cy="330.1" r="2.84" fill="#d1d5da"/><circle cx="799.19" cy="330.1" r="2.84" fill="#d1d5da"/><circle cx="832.47" cy="330.1" r="2.84" fill="#d1d5da"/><circle cx="865.76" cy="330.1" r="2.84" fill="#d1d5da"/><circle cx="899.04" cy="330.1" r="2.84" fill="#d1d5da"/><circle cx="932.33" cy="330.1" r="2.84" fill="#d1d5da"/><path d="M557 121.35v144.06h18.5V121.35zm9.41 11.83a4 4 0 114-4 4 4 0 01-4.03 4z" fill="#ffea7f"/><path d="M566.17 127.52c-1.23 0-1.73-1-1.73-2.23L564 119a2.22 2.22 0 012.22-2.23 2.23 2.23 0 012.18 2.23l-.49 6.26a2 2 0 01-1.74 2.26z" fill="#f6f8fa"/><path fill="none" stroke="#ffab70" stroke-miterlimit="10" stroke-width="1.21" d="M556.97 139.14l9.2-.1M556.97 145.82l5.56-.11M556.97 152.49l5.56-.1M556.97 159.16l5.56-.1M556.97 165.83l5.56-.1M556.97 172.5l9.2-.1M556.97 179.18l5.56-.1M556.97 185.85l5.56-.1M556.97 192.52l5.56-.1M556.97 199.19l5.56-.1M556.97 205.86l9.2-.1M556.97 212.54l5.56-.1M556.97 219.21l5.56-.1M556.97 225.88l5.56-.1M556.97 232.55l5.56-.1M556.97 239.22l9.2-.1M556.97 245.9l5.56-.1M556.97 252.57l5.56-.1M556.97 259.24l5.56-.1"/><path d="M610 133.89c9.7 0 14.55 9.4 14.55 15.16l-3.94.91c-2.43-6.37-10.31-8.19-13-5.46" fill="#2188ff"/><path d="M608.23 140.26c9.7 0 14.15 3.53 14.15 9.3l-1.82.4c-2.43-6.37-10.31-8.19-13-5.46" fill="#0366d6"/><path d="M602.59 233.41l-8.72-.66.61-74.9v-29.73h9.7v30.64l1.74 71.49a3.1 3.1 0 01-3.33 3.16z" fill="#ffab70"/><path d="M604.18 147.07a3.19 3.19 0 00-.75.35 2.3 2.3 0 00-.66.72h-8.09v7.48h7.38c0 .72.08 1.35.08 1.83 0 8.45.7 16.88 1.05 25.32.51 12 .25 24.34-3.7 35.7a7 7 0 01-2.29 3.66 11.74 11.74 0 01-3 1.16l-.23.09-.08 9.37 8.72.66a3.1 3.1 0 003.33-3.16l-1.74-71.49z" fill="#fb8532"/><path fill="#2188ff" d="M586.59 132.67h24.31v15.47h-24.31z"/><path d="M610.9 140.93a12 12 0 00-8.95.21c-1.24.53-2.37 1.28-3.61 1.82-2.82 1.25-8.64.36-11.75 2.23v2.95h24.31z" fill="#0366d6"/><path fill="#2188ff" d="M582.95 150.49h-5.45v-20.47h5.45l1.82 9.78-1.82 10.69z"/><path fill="#2188ff" d="M580.22 135.77h9.4v7.46h-9.4z"/><path d="M607.42 153c-1.23 0-1.74-1-1.74-2.22l-.49-6.27a2.22 2.22 0 012.23-2.22 2.21 2.21 0 012.22 2.22l-.49 6.27a2 2 0 01-1.73 2.22zM589.83 153c-1.23 0-1.74-1-1.74-2.22l-.49-6.27a2.22 2.22 0 012.23-2.22 2.21 2.21 0 012.22 2.22l-.49 6.27a2 2 0 01-1.73 2.22z" fill="#f6f8fa"/><path d="M583 130c-.8 5.79-2 19-5.46 20.47H583l1-7 .21-7.68z" fill="#0366d6"/><path d="M651.72 226.58L643 226l.61-66.89v-26.54h9.7v27.35l1.74 63.84a3 3 0 01-3.33 2.82z" fill="#ffab70"/><path d="M653.31 159.92v-16a13.72 13.72 0 01-2.31-.06c-1.72-.21-3.4-.74-5.14-.78a10 10 0 00-2.25.22v12.42l3.33.42 1.95-.23c-.68 5.81.11 12.69.26 15.86.57 12.06 2.43 24.05 2.16 36.14-.09 4.3-.84 9.26-4.54 11.45a23.06 23.06 0 01-3.72 1.48v5.17l8.72.58a3 3 0 003.33-2.82z" fill="#fb8532"/><path d="M667.57 150.47l-20.63 2.42-19.4-2.42a43.54 43.54 0 01-1.54-10.92 71.59 71.59 0 011.52-12.74l20.31-2.12 19.72 2.12a66.58 66.58 0 011.51 12.43 47.88 47.88 0 01-1.49 11.23z" fill="#2188ff"/><path d="M651 140.62c-1.72-.21-3.4-.75-5.14-.79-3.51-.08-6.7 1.85-9.92 3.28-2.62 1.17-6.76.87-9.46 2.31a41.84 41.84 0 001.06 5.05l19.4 2.42 20.63-2.42a47.88 47.88 0 001.51-11.23 50.62 50.62 0 00-.46-6.36 32 32 0 00-4.41 3.32c-3.71 3-8.48 4.99-13.21 4.42z" fill="#0366d6"/><path d="M657.86 155.82c-1.23 0-1.73-1-1.73-2.22l-.49-6.27a2.21 2.21 0 012.22-2.22 2.22 2.22 0 012.23 2.22l-.49 6.27a2 2 0 01-1.74 2.22zM639.06 155.82c-1.23 0-1.73-1-1.73-2.22l-.49-6.27a2.21 2.21 0 012.22-2.22 2.21 2.21 0 012.22 2.22l-.49 6.27a2 2 0 01-1.73 2.22z" fill="#f6f8fa"/><path d="M809.06 128.07l6.53.41V122l-6.6.42a10.33 10.33 0 00-19.89.31l-7.32-.46v6.44l7.39-.46a10.34 10.34 0 005.49 6.43v56.19a10.84 10.84 0 00-5.64 9.45c0 4.23 2.42 9 7.25 9.52.47.05-1.88-12.21-1.88-12.21l10.74-.13s-2.52 12.23-2 12.07c4.51-1.39 8.19-4.4 8.19-9.25a10.87 10.87 0 00-7-10.08v-56a10.36 10.36 0 004.74-6.17zm-9.84 1.09a3.49 3.49 0 113.49-3.49 3.49 3.49 0 01-3.49 3.49z" fill="#79b8ff"/><path d="M795.67 125.67a3 3 0 01.47-3.08 3.81 3.81 0 011.35-1.1 4.17 4.17 0 011.73-.4 3.92 3.92 0 013.08 1.5 3 3 0 01.47 3.08h-.12a3.45 3.45 0 00-1-2.41 3.48 3.48 0 00-4.8 0 3.45 3.45 0 00-1 2.41z" fill="#2188ff"/><path d="M799.22 127.4c-1.23 0-1.74-1-1.74-2.22l-.49-6.27a2.23 2.23 0 012.23-2.23 2.23 2.23 0 012.22 2.23l-.49 6.27a2 2 0 01-1.73 2.22z" fill="#f6f8fa"/><path fill="#2188ff" d="M794.66 154.64v6.39l9.66-5.96v-5.68l-9.66 5.25zM796.27 209.88c.47.05-1.88-12.21-1.88-12.21l10.74-.13s-2.52 12.23-2 12.07c4.51-1.39 8.19-4.4 8.19-9.25a10.87 10.87 0 00-7-10.08v-30.77l-9.66 6.86v24.54a10.84 10.84 0 00-5.64 9.45c-.02 4.23 2.42 8.99 7.25 9.52z"/><path d="M804.26 190.28c-.31-4.67-.54-9.33-.66-14l-.21-7-.08-7-.07-7v-7c.07-4.66 0-9.33.22-14v-.5l.38-.2a9.53 9.53 0 002.86-2.35 10.75 10.75 0 001.82-3.3l.14-.41h.36c2.17.27 4.34.51 6.51.83v.13l-6.54-.4.08-.06a10.46 10.46 0 01-4.76 6.28v-.07 56z" fill="#2188ff"/><path d="M776.28 126.64l4 .34v-5.37l-4 .35a8.61 8.61 0 00-16.59.26l-4-.39v5.38l4.1-.39a8.61 8.61 0 004.58 5.36v48.07a9 9 0 00-4.7 7.87c0 3.53 2 7.5 6 7.95.39 0-1.57-10.18-1.57-10.18l9-.12s-2.11 10.21-1.68 10.08c3.75-1.17 6.82-3.67 6.82-7.73a9.07 9.07 0 00-5.82-8.4v-47.89a8.63 8.63 0 003.86-5.19zm-8.2.9a2.91 2.91 0 112.91-2.91 2.91 2.91 0 01-2.91 2.91z" fill="#79b8ff"/><path d="M765.11 124.63a2.52 2.52 0 01.3-2.67 3.31 3.31 0 011.16-1 3.76 3.76 0 011.51-.36 3.33 3.33 0 012.67 1.34 2.5 2.5 0 01.3 2.66h-.12a2.86 2.86 0 00-4.84-2 2.84 2.84 0 00-.86 2z" fill="#2188ff"/><path d="M768.08 126.94c-1.23 0-1.74-1-1.74-2.22l-.49-6.27a2.22 2.22 0 012.23-2.22 2.22 2.22 0 012.22 2.22l-.49 6.27a2 2 0 01-1.73 2.22z" fill="#f6f8fa"/><path fill="#2188ff" d="M764.28 148.79v5.33l8.05-4.96v-4.75l-8.05 4.38zM765.62 196.07c.39 0-1.57-10.18-1.57-10.18l9-.12s-2.11 10.21-1.68 10.08c3.75-1.17 6.82-3.67 6.82-7.73a9.07 9.07 0 00-5.82-8.4v-26.86l-8.05 5.71v21.68a9 9 0 00-4.7 7.87c-.04 3.53 1.97 7.5 6 7.95z"/><path d="M772.27 179.72c-.31-4-.54-8-.66-12l-.21-6-.07-6-.07-6v-6c.07-4 0-8 .23-12v-.5l.37-.2a7.8 7.8 0 002.37-1.91 9 9 0 001.53-2.71l.15-.42.36.07c1.32.24 2.64.46 3.95.76v.19l-4-.33h.07a8.7 8.7 0 01-4 5.24v-.07 23.94l-.05 23.95z" fill="#2188ff"/><path d="M740 126.78l4.52.29v-4.46l-4.57.29a7.14 7.14 0 00-13.76.21l-5.07-.32v4.46l5.12-.32a7.14 7.14 0 003.8 4.45v41.13a7.49 7.49 0 00-3.9 6.54c0 2.92 1.67 6.22 5 6.59.32 0-1.3-8.45-1.3-8.45l7.43-.09s-1.74 8.46-1.39 8.35c3.12-1 5.66-3 5.66-6.4a7.54 7.54 0 00-4.83-7v-41a7.14 7.14 0 003.29-4.27zm-6.81.75a2.42 2.42 0 112.42-2.41 2.41 2.41 0 01-2.46 2.41z" fill="#79b8ff"/><path d="M730.68 125.12a2.1 2.1 0 01.15-2.32 2.71 2.71 0 011-.87 3.37 3.37 0 011.32-.32 2.86 2.86 0 012.32 1.19 2.08 2.08 0 01.16 2.32h-.12a2.32 2.32 0 00-2.36-2.3 2.35 2.35 0 00-1.64.65 2.38 2.38 0 00-.71 1.65z" fill="#2188ff"/><path d="M733.05 127.4c-1.23 0-1.74-1-1.74-2.22l-.49-6.27a2.23 2.23 0 012.23-2.23 2.22 2.22 0 012.22 2.23l-.49 6.27a2 2 0 01-1.73 2.22z" fill="#f6f8fa"/><path fill="#2188ff" d="M729.58 145.8v4.42l6.68-4.12v-3.94l-6.68 3.64zM731.11 185.64c.32 0-1.3-8.45-1.3-8.45l7.43-.09s-1.74 8.46-1.39 8.35c3.12-1 5.66-3 5.66-6.4a7.54 7.54 0 00-4.83-7v-23.51l-6.68 4.74v19.23a7.49 7.49 0 00-3.9 6.54c0 2.95 1.67 6.22 5.01 6.59z"/><path d="M736.62 172.07c-.31-3.41-.54-6.83-.66-10.24l-.21-5.13-.07-5.12-.08-5.12v-5.13c.07-3.41 0-6.83.23-10.24v-.51l.37-.19a6.42 6.42 0 002-1.54 7.7 7.7 0 001.27-2.19l.16-.41h.34c1.5.23 3 .42 4.5.71v.12l-4.52-.28h.07a7.25 7.25 0 01-3.3 4.36v-.07 40.98z" fill="#2188ff"/><path d="M701.38 281.89c-.3-5.77 7.89-34-2.42-34-14.26.3-4.25 28.51-4.25 34.88s-5.15 4.54-4.85 10.61h17.89c-.91-5.38-6.06-5.73-6.37-11.49zm-3.64-23.66a3 3 0 113-3 3 3 0 01-3 3z" fill="#ffab70"/><path fill="#ffea7f" d="M689.56 291.89h17.89v6.37h-17.89z"/><path d="M707 316.66c-1-.17-1.22-.89-1.94-1.74l-1 1.93c-.09.15-.18.32-.34.38-.33.15-.66-.2-.86-.51l-1.37-2.14a5.13 5.13 0 01-1.81 3.17l-1.28-3.39a19.1 19.1 0 01-1.89 3.54 11.47 11.47 0 01-1.41-4.61 14 14 0 00-2 3.79 4.53 4.53 0 01-1.42-2.67c-.47 1.28-.48 2.17-1.87 2.34v-19.09h17.27s.18 17.27-.08 19z" fill="#959da5"/><path d="M697.79 255.65c-1.22 0-1.73-1-1.73-2.22l-.49-6.27a2.22 2.22 0 012.22-2.22 2.22 2.22 0 012.23 2.22l-.49 6.27a2 2 0 01-1.74 2.22z" fill="#f6f8fa"/><path d="M701.53 281.33c-.17-3.3 2.44-14 2.76-22.49-1.06 2.79-.95 7.42-1.6 9.74a24.31 24.31 0 01-5.69 10.73 8.43 8.43 0 00-2.09 2.87v.06c0 .45 0 .85-.05 1.23a2.49 2.49 0 00.14.41 3.71 3.71 0 001.42 1.3 37.55 37.55 0 004.26 2.24 10.76 10.76 0 004 1.06c-1.38-2-2.95-3.48-3.15-7.15z" fill="#fb8532"/><path d="M734.29 281.73c-.31-5.76 7.88-34-2.43-34-14.25.3-4.24 28.5-4.24 34.87s-3.48 4.55-3.24 10.62H739c-.76-5.42-4.41-5.72-4.71-11.49zm-3.64-23.65a3 3 0 113-3 3 3 0 01-3 3z" fill="#ffab70"/><path fill="#ffea7f" d="M724.14 291.74h14.6v6.37h-14.6z"/><path d="M738.4 316.51c-.86-.17-1-.89-1.58-1.74l-.82 1.93a.72.72 0 01-.27.38c-.27.15-.54-.2-.7-.51l-1.12-2.14a5.47 5.47 0 01-1.48 3.17l-1-3.39a21.16 21.16 0 01-1.54 3.54 13.54 13.54 0 01-1.15-4.61 15.64 15.64 0 00-1.62 3.79 5 5 0 01-1.16-2.67c-.38 1.28-.39 2.16-1.52 2.34v-19.1h14.1s.04 17.28-.14 19.01z" fill="#959da5"/><path d="M730.65 255.5c-1.23 0-1.73-1-1.73-2.22l-.5-6.27a2.23 2.23 0 012.23-2.23 2.22 2.22 0 012.22 2.23l-.49 6.27a2 2 0 01-1.73 2.22z" fill="#f6f8fa"/><path d="M734.29 281.73c-.18-3.3 2.44-14 2.76-22.48-1.06 2.79-1 7.42-1.6 9.74a24.33 24.33 0 01-5.75 10.73 8.53 8.53 0 00-2.09 2.86v.06c0 .45 0 .86-.06 1.23a2 2 0 00.14.41 3.6 3.6 0 001.43 1.3 35.87 35.87 0 004.25 2.24 11 11 0 004 1.07c-1.32-2.01-2.89-3.46-3.08-7.16z" fill="#fb8532"/><path d="M766.28 246.77c-3.67 0-6.62 2.67-6.54 5.92L762.1 283h8.37l2.35-30.33c.09-3.23-2.82-5.9-6.54-5.9zm.16 9.56a2.73 2.73 0 112.72-2.73 2.73 2.73 0 01-2.72 2.73z" fill="#ffab70"/><path fill="#c8e1ff" d="M770.47 283.02l12.34 26.08h-33.66l12.95-26.08h8.37z"/><path d="M766.44 254.36c-1.23 0-1.74-1-1.74-2.23l-.49-6.26a2.23 2.23 0 012.23-2.23 2.23 2.23 0 012.22 2.23l-.49 6.26a2 2 0 01-1.73 2.23z" fill="#f6f8fa"/><path d="M762.1 283h8.37l1.9-24.49c-1.12 4.36-2.21 8.78-5.21 12.29-1.06 1.25-3.62 3.26-5.58 5.5z" fill="#fb8532"/><path d="M774.38 291.27a10 10 0 00-5.62 3.83c-1 1.52-1.34 3.48-2.77 4.58-3.13 2.42-8-.64-11.64.94a9.93 9.93 0 00-1.36.74l-3.84 7.74h33.66zM931.72 216.11a21.51 21.51 0 1021.52 21.51 21.51 21.51 0 00-21.52-21.51zm.95 33.72a12.5 12.5 0 1111.81-13.16 12.49 12.49 0 01-11.81 13.16z" fill="#79b8ff"/><path d="M932 223.35A13.66 13.66 0 10945.65 237 13.66 13.66 0 00932 223.35zm0 24.6a10.95 10.95 0 1111-10.94A10.94 10.94 0 01932 248z" fill="#f6f8fa"/><path d="M932.11 230.86c-1.22 0-1.73-1-1.73-2.23l-.49-6.26a2.23 2.23 0 012.22-2.23 2.23 2.23 0 012.23 2.23l-.49 6.26a2 2 0 01-1.74 2.23z" fill="#f6f8fa"/><path d="M931.6 270.32a15.46 15.46 0 1015.46 15.46 15.46 15.46 0 00-15.46-15.46zm.68 24.23a9 9 0 118.49-9.45 9 9 0 01-8.49 9.45z" fill="#79b8ff"/><path d="M931.8 275.53a9.81 9.81 0 109.81 9.81 9.82 9.82 0 00-9.81-9.81zm0 17.67a7.86 7.86 0 117.86-7.86 7.86 7.86 0 01-7.86 7.86z" fill="#f6f8fa"/><path d="M932 281.57c-1.23 0-1.73-1-1.73-2.23l-.49-6.27a2.22 2.22 0 012.22-2.22 2.23 2.23 0 012.23 2.22l-.49 6.27a2 2 0 01-1.74 2.23z" fill="#f6f8fa"/><path fill="#ffab70" d="M806.9 323.95h2.34v9.49h-2.34zM861.914 324.263l1.73 1.577-6.394 7.013-1.73-1.576z"/><path d="M872 320.7h-75.25s2 4.86 2 8.19-2 7.58-2 7.58H872a17.54 17.54 0 01-2.05-7.58 22.2 22.2 0 012.05-8.19zm-63.84 12.44a4.4 4.4 0 114.4-4.4 4.4 4.4 0 01-4.44 4.4zm31.65-2.14h-12.73a2.43 2.43 0 010-4.86h12.73a2.43 2.43 0 110 4.86zm19.31 2.12a4.4 4.4 0 114.4-4.4 4.4 4.4 0 01-4.4 4.42z" fill="#79b8ff"/><path fill="#d1d5da" d="M792.81 317.67h81.88v4.55h-81.88zM792.81 334.96h81.88v4.55h-81.88z"/><path d="M834.51 329.7c-1.23 0-1.74-1-1.74-2.22l-.49-6.27a2.22 2.22 0 012.23-2.22 2.22 2.22 0 012.22 2.22l-.49 6.27a2 2 0 01-1.73 2.22zM840.33 148.95h84.51v2.63h-84.51z" fill="#f6f8fa"/><path fill="#c8e1ff" d="M847.21 152.84h3.03v41.65h-3.03z"/><path d="M852.14 150.59c-1.17-2-1.17-5.46-1.17-5.46h-4s.35 3.31-1.29 5.46h-1.9v3.34h9.87v-3.34z" fill="#f66a0a"/><path d="M849.23 114.88a5.76 5.76 0 015.76 5.76v24.87h-11.52v-24.87a5.76 5.76 0 015.76-5.76z" fill="#ffab70"/><path fill="#c8e1ff" d="M848.32 198.89h.91l.99-4.55h-2.89l.99 4.55z"/><path d="M854.49 118.31a13.17 13.17 0 00-1.37 3.75h-2.37v17.41a9.22 9.22 0 01-2.73 3v-20.11h-2.13v21.12a23.54 23.54 0 00-2.42.77v1.26H855v-24.87a5.7 5.7 0 00-.51-2.33z" fill="#f66a0a"/><path d="M840.94 153.3c-1.12 0-1.58-.91-1.58-2l-.44-5.69a2 2 0 012-2 2 2 0 012 2l-.44 5.69a1.85 1.85 0 01-1.54 2zM924.64 153.3c-1.11 0-1.57-.91-1.57-2l-.45-5.69a2 2 0 012-2 2 2 0 012 2l-.45 5.69a1.85 1.85 0 01-1.53 2z" fill="#f6f8fa"/><path fill="#c8e1ff" d="M863.99 152.84h3.03v41.65h-3.03z"/><path d="M868.92 150.59c-1.17-2-1.17-5.46-1.17-5.46h-4s.34 3.31-1.3 5.46h-1.9v3.34h9.88v-3.34z" fill="#f66a0a"/><path d="M866 114.88a5.76 5.76 0 015.76 5.76v24.87h-11.51v-24.87a5.76 5.76 0 015.75-5.76z" fill="#ffab70"/><path d="M871.32 118.31a13.17 13.17 0 00-1.37 3.75h-2.37v17.41a9.22 9.22 0 01-2.73 3v-20.11h-2.12v21.12a23 23 0 00-2.43.77v1.26h11.52v-24.87a5.7 5.7 0 00-.5-2.33z" fill="#f66a0a"/><path d="M857.72 153.3c-1.12 0-1.57-.91-1.57-2l-.45-5.69a2 2 0 012-2 2 2 0 012 2l-.44 5.69a1.85 1.85 0 01-1.54 2z" fill="#f6f8fa"/><path fill="#c8e1ff" d="M880.77 152.84h3.03v41.65h-3.03z"/><path d="M885.7 150.59c-1.16-2-1.16-5.46-1.16-5.46h-4s.35 3.31-1.3 5.46h-1.89v3.34h9.87v-3.34z" fill="#f66a0a"/><path d="M882.79 114.88a5.76 5.76 0 015.76 5.76v24.87H877v-24.87a5.76 5.76 0 015.79-5.76z" fill="#ffab70"/><path fill="#f6f8fa" d="M881.88 198.89h.91l.99-4.55h-2.88l.98 4.55z"/><path d="M888 118.31a13.17 13.17 0 00-1.37 3.75h-2.37v17.41a9.22 9.22 0 01-2.73 3v-20.11h-2.12v21.12a23 23 0 00-2.43.77v1.26h11.52v-24.87a5.7 5.7 0 00-.5-2.33z" fill="#f66a0a"/><path d="M874.5 153.3c-1.11 0-1.57-.91-1.57-2l-.45-5.69a2 2 0 012-2 2 2 0 012 2l-.44 5.69a1.85 1.85 0 01-1.54 2z" fill="#f6f8fa"/><path fill="#c8e1ff" d="M900.39 188.12h-2.64l-.2-35.28h3.03l-.19 35.28z"/><path d="M902.48 150.59c-1.16-2-1.16-5.46-1.16-5.46h-4s.35 3.31-1.3 5.46h-1.89v3.34H904v-3.34z" fill="#f66a0a"/><path d="M899.57 114.88a5.76 5.76 0 015.76 5.76v24.87h-11.52v-24.87a5.76 5.76 0 015.76-5.76z" fill="#ffab70"/><path fill="#c8e1ff" d="M898.72 192.52h.79l.86-4.55h-2.51l.86 4.55z"/><path d="M904.83 118.31a13.17 13.17 0 00-1.37 3.75h-2.37v17.41a9.22 9.22 0 01-2.73 3v-20.11h-2.12v21.12a23.72 23.72 0 00-2.43.77v1.26h11.53v-24.87a5.7 5.7 0 00-.51-2.33z" fill="#f66a0a"/><path d="M891.28 153.3c-1.11 0-1.57-.91-1.57-2l-.45-5.69a2 2 0 012-2 2 2 0 012 2l-.45 5.69a1.85 1.85 0 01-1.53 2z" fill="#f6f8fa"/><path fill="#c8e1ff" d="M914.33 152.84h3.03v24.36h-3.03z"/><path d="M919.26 150.59c-1.16-2-1.16-5.46-1.16-5.46h-4s.35 3.31-1.29 5.46h-1.9v3.34h9.87v-3.34z" fill="#f66a0a"/><path d="M916.35 114.88a5.76 5.76 0 015.76 5.76v24.87h-11.52v-24.87a5.76 5.76 0 015.76-5.76z" fill="#ffab70"/><path fill="#c8e1ff" d="M915.45 181.6h.9l.99-4.55h-2.88l.99 4.55z"/><path d="M921.51 118.31a13.17 13.17 0 00-1.37 3.75h-2.37v17.41a9.22 9.22 0 01-2.73 3v-20.11h-2.12v21.12a23.72 23.72 0 00-2.43.77v1.26H922v-24.87a5.7 5.7 0 00-.49-2.33z" fill="#f66a0a"/><path d="M908.06 153.3c-1.11 0-1.57-.91-1.57-2l-.45-5.69a2 2 0 012-2 2 2 0 012 2l-.45 5.69a1.85 1.85 0 01-1.53 2z" fill="#f6f8fa"/><path fill="#c8e1ff" d="M869.25 200.51h-7.28l1.78-8.29h3.71l1.79 8.29z"/><path fill="#0366d6" d="M583.96 140.66h2.63v2.43h-2.63z"/><path fill="#ffab70" d="M853.63 152.69l-9.87-.91v-1.19h9.87v2.1zM870.31 152.69l-9.87-.91v-1.19h9.87v2.1zM887.14 152.69l-9.87-.91v-1.19h9.87v2.1zM903.82 152.69l-9.86-.91v-1.19h9.86v2.1zM920.8 152.69l-9.86-.91v-1.19h9.86v2.1z"/><path fill="#e8eaee" d="M1114.156 160.71l4.812-.607 3.953 31.291-4.812.608z"/><path fill="#e1e4e8" d="M1126.624 160.362l3.869.102-.831 31.529-3.87-.102z"/><path fill="#e8eaee" d="M1133.894 161.126l3.824.594-4.841 31.166-3.824-.594z"/><path fill="#e8eaee" d="M1113.07 181.61h27.5V218h-27.5z"/><path fill="#e1e4e8" d="M1031.6 202.73h74.4v15.37h-74.4z"/><path fill="#e8eaee" d="M1040.79 192.68h62.06v11.46h-62.06z"/><path fill="#d1d5da" d="M687.28 371.96h192.28v6.37H687.28z"/><path fill="#e8eaee" d="M681.82 370.44h201.07v2.73H681.82z"/><path d="M779 374.76c0 8.39-3.35 15.19-7.48 15.19s-7.49-6.8-7.49-15.19c0-3.68 4.38-15.08 4.38-15.08a27.1 27.1 0 013.11-.11c4.13 0 7.48 6.8 7.48 15.19z" fill="#e8eaee"/><ellipse cx="768.56" cy="374.76" rx="7.48" ry="15.19" fill="#f6f8fa"/><path fill="#f6f8fa" d="M766.13 357.55l.76.76-4.25.83-.3-1.06 3.79-.53zM776.29 358.31l.76 1.44-4.25 1.59-.3-2.02 3.79-1.01z"/><ellipse cx="768.1" cy="376.3" rx="1.77" ry="3.54" fill="#e8eaee"/><path fill="#d1d5da" d="M640.58 377.01h26.69v13.34h-26.69z"/><path fill="#e8eaee" d="M833.89 504.19H724.43l-1.36-114.04h112.81l-1.99 114.04z"/><path fill="#d1d5da" d="M723.07 389.55h112.6v12.74h-112.6z"/><path fill="#d1d5da" d="M703.84 502.87l20.59 1.01-1.36-113.73h-21.23l2 112.72zM798.26 447.49h-6v-13.36h2.94c15.56 0 33.19.09 43.72-10.41 6.87-6.85 10.36-18.15 10.36-33.58h13.34c0 19.37-4.67 33.45-14.28 43-13.64 13.59-33.42 14.35-50.08 14.35z"/><path fill="#e1e4e8" d="M791 433.52h.61v13.34H791zM797.79 446.83l-.2-13.35h1.2l.23 13.34zm7.49-.21l-.58-13.33 1.17-.06.66 13.33zm7.61-.51l-1.24-13.29 1.13-.11 1.4 13.27zm7.74-1L818.38 432l1.11-.2 2.43 13.12zm7.82-1.74l-3.65-12.84 1-.3 4 12.74zm7.79-2.84l-5.53-12.14.91-.44 5.9 12zm7.44-4.29l-7.8-10.83.79-.59 8.17 10.56zm6.49-5.88l-10-8.82.62-.73 10.34 8.43c-.31.37-.63.76-.96 1.11zm5-7.14l-11.68-6.45c.16-.29.32-.59.47-.89l11.89 6.12c-.21.39-.44.8-.66 1.21zm3.39-7.76l-12.65-4.26c.11-.32.22-.65.32-1l12.77 3.92c-.13.45-.27.88-.42 1.33zm2-7.95L847.51 405c.07-.36.13-.72.19-1.08l13.16 2.22c-.07.48-.15.92-.23 1.36zm1-7.92l-13.3-1.07c0-.36 0-.74.08-1.11l13.31.87zM861.97 391.67h-13.34l-.01-.56 13.35-.09v.65z"/><path d="M799.34 458.09a16.84 16.84 0 1116.83-16.83 16.85 16.85 0 01-16.83 16.83zm0-28.81a12 12 0 1012 12 12 12 0 00-12-12z" fill="#e1e4e8"/><circle cx="789.18" cy="431.1" r="3.94" fill="#d1d5da"/><path fill="#e8eaee" d="M1163.42 519.75l-184.39-5.66V216.48h184.39v303.27z"/><path fill="#e1e4e8" d="M1163.42 216.48l22.65 20.22v261.22l-22.65 21.83V216.48zM988.032 231.577l163.757-2.029.315 25.388-163.757 2.03z"/><path fill="#f6f8fa" d="M983.522 224.345l171.997-2.132.128 10.31-171.997 2.131z"/><path fill="#e1e4e8" d="M988.057 275.89l163.769-.771.183 38.99-163.768.771z"/><path fill="#f6f8fa" d="M983.593 268.642l172.008-.81.049 10.31-172.008.81z"/><path fill="#e1e4e8" d="M988.13 334.35h163.77v38.99H988.13z"/><path fill="#f6f8fa" d="M983.758 325.914l171.993 2.462-.148 10.31-171.992-2.463z"/><path fill="#e1e4e8" d="M987.93 394.208l163.758-2 .476 38.986-163.758 2.001z"/><path fill="#f6f8fa" d="M983.411 386.986l171.997-2.101.126 10.309-171.997 2.101z"/><path fill="#e1e4e8" d="M988.13 452.02h163.77v38.99H988.13z"/><path fill="#f6f8fa" d="M983.781 443.72l172 1.952-.118 10.31-171.999-1.952z"/><path fill="#e1e4e8" d="M380.1 262.53l4.5-.08-.97-36.52-4.5.08.97 36.52z"/><path fill="#e8eaee" d="M376.33 263.2l4.46-.45-5.64-36.24-4.45.46 5.63 36.23z"/><path fill="#f6f8fa" d="M399.43 282.7h-32.01v-40.28h32.01z"/><path fill="#e8eaee" d="M458.48 282.78h-45.01v-13.21h45.01z"/><path fill="#e1e4e8" d="M305.03 516.12l214.64-4.38V281.53H305.03v234.59z"/><path fill="#e8eaee" d="M305.03 281.53l-26.36 15.64v202.05l26.36 16.9V281.53zM318.22 317.4l190.62 1.56.36-19.64-190.62-1.56-.36 19.64z"/><path fill="#f6f8fa" d="M314.09 300.07l200.22 1.64.15-7.98-200.22-1.64-.15 7.98z"/><path fill="#e8eaee" d="M318.32 363.12l190.63.59.22-30.15-190.64-.6-.21 30.16z"/><path fill="#f6f8fa" d="M316.05 335.3l198.25.62.06-7.98-198.25-.62-.06 7.98z"/><path fill="#e8eaee" d="M509.08 408.92H318.44v-30.16h190.64z"/><path fill="#f6f8fa" d="M314.09 382.06l200.22-1.89-.18-7.98-200.21 1.9.17 7.97z"/><path fill="#e8eaee" d="M318.12 453.66l190.62 1.55.56-30.16-190.62-1.55-.56 30.16z"/><path fill="#f6f8fa" d="M314.19 425.81l200.21 1.63.15-7.98-200.22-1.63-.14 7.98z"/><path fill="#e8eaee" d="M509.08 499.94H318.44v-30.16h190.64z"/><path fill="#f6f8fa" d="M314.07 472.89l200.22-1.51-.14-7.98-200.21 1.52.13 7.97z"/><path fill="#e8eaee" d="M904.63 390.76H667.26l-.8-13.75 239.38 1.22-1.21 12.53z"/><path d="M467.4 350.22c-1.91 12.82 9 35.16 24 39.33 7.28 2 12.24-8 17-11.53" fill="none" stroke="#0366d6" stroke-miterlimit="10" stroke-width="2.43"/><path d="M523.41 373.7L507.17 387l-41.06-37.34c-6.67-6.1-7.08-16.09-.31-21.78 6.8-5.71 17.31-4.15 22.94 2.87z" fill="#ffab70"/><path d="M510.58 376c-4.47 4-6.15 8.7-3.87 10.55s7.26.22 11.43-3.43 6.11-8.28 4.22-10.35-7.29-.77-11.78 3.23z" fill="#fb8532"/><path d="M524.77 381.35c-2.27.19-6-3-6-3-2.24-.53-5.08 1.42-5.21 3.32a29.42 29.42 0 011.68 6.76z" fill="#ffab70"/><path d="M513.85 380.67c2.14 3 9.82.28 9.82.28l-3.76 4.76-4.39 3.06-2-7.11z" fill="#fb8532"/><path d="M518.76 384.23c-3.7 3.24-5.82 6.57-4.77 7.42s4.73-1 8.3-4.12 5.78-6.44 4.89-7.4-4.7.87-8.42 4.1z" fill="#ffab70"/><path fill="#ffab70" d="M513.99 391.65l1.62 1.61 12.88-10.51-1.32-2.62-7.82 4.25-5.36 7.27z"/><path d="M519.91 385.71c-3.65 3.19-5.75 6.45-4.73 7.28s4.64-1 8.17-4.09 5.72-6.33 4.84-7.26-4.61.86-8.28 4.07z" fill="#fb8532"/><path d="M569 435.06l-3.08 2.58-45.57-48.32a3 3 0 011.32-2.32 3.43 3.43 0 012.55-1z" fill="#c8e1ff"/><path d="M508.73 385.72c2-3.38 2.72-7.05 3.47-10.77-2.61 1.13-5.38 2.29-8.09 2.27-3.07 0-5.61-1.56-8-3.21a102.27 102.27 0 01-10.19-8.14 137.88 137.88 0 01-19.7-22.66c-.84-1.2-2.77-5.07-4.83-8.38a15 15 0 004.7 14.83L507.17 387z" fill="#fb8532"/><path fill="#fb8532" d="M512.47 379.88l-3.05 2.49-37.53-37.24 3.17-4.58 37.41 39.33zM520.37 374.53l-2.02 1.65-35.75-41.78 3.68-1.05 34.09 41.18z"/><path d="M549 297.35c-12.94 21-8.94 46.89-4.67 62.29 5.21 18.82 21.12 28.2 45.71 33.55 24.33 5.29 39.57 3.13 60.4-6.5 12-5.53 27.5-43.12 25.57-71.35 6.23-7.07 6.63-27.29 6.23-28.91s-15.77-12.53-28.71-12.94c-17.39-10.51-47.32-19-71.17-8.89-12.94-3.24-31.14 4.85-35.18 11.32C546 282.39 550.5 301 550.5 301" fill="none" stroke="#0366d6" stroke-miterlimit="10" stroke-width="2.43"/><path d="M655.74 382.57c7.58-7.28-.48-14.85-1.06-19.46s8.05-10 10.25-26.62-12.66-24.21-22-19-25.42 10.61-46.61 7.39C578 322.14 570 306.73 563.72 306s-13.24 9.21-12.24 20.13 3 16.38 2 21-4 6.3-4 13.79 2.29 14.7 8.63 18.73" fill="none" stroke="#0366d6" stroke-miterlimit="10" stroke-width="2.43"/><ellipse cx="597.19" cy="366.8" rx="3.74" ry="6.62" transform="rotate(-81.83 597.153 366.804)" fill="none" stroke="#0366d6" stroke-miterlimit="10" stroke-width="2.43"/><path d="M598.76 453.43c.55 26.35-4.72 57.72-.47 83.73a8.14 8.14 0 001 3 7.84 7.84 0 002.51 2.24 72.27 72.27 0 0054.47 9.75 14.63 14.63 0 006.57-2.79c1.82-1.57 2.88-4.25 1.91-6.45-1.06-2.4-4.12-3.34-6.69-2.83s-4.75 2.14-6.85 3.69c-6.06 4.48-14.89 7.41-22.24 9.08" fill="none" stroke="#0366d6" stroke-miterlimit="10" stroke-width="2.43"/><path d="M664.06 541.59c.63-4.71 1.12-9.51.41-14.22s-2.74-9.36-6.4-12.4a23.93 23.93 0 00-7.61-3.92 56.52 56.52 0 00-30.26-1.72" fill="none" stroke="#0366d6" stroke-miterlimit="10" stroke-width="2.43"/><path d="M635.65 508.83c-5.93-17.67-13.17-41-10.64-59.44a1.09 1.09 0 00.31 1.67M594.48 458.29c-2 26.28-1.84 56-8.8 80.51a7.82 7.82 0 01-1.24 2.81 7.45 7.45 0 01-2.63 1.86 67.72 67.72 0 01-52.56 3.1 14 14 0 01-5.9-3.44c-1.54-1.72-2.24-4.42-1.08-6.43 1.27-2.18 4.28-2.73 6.65-1.94s4.24 2.6 6.05 4.34a48.08 48.08 0 0017.53 10.71c-.15-.75-.3.21-.44-.54" fill="none" stroke="#0366d6" stroke-miterlimit="10" stroke-width="2.43"/><path d="M568.13 509.52c-8.83-5.94-16-5.11-25.65-.09s-17.36 15.71-20.23 28M551.21 506c7.61-16.31 13.64-38.57 13.35-56.62M541.12 340.53c-16-13.91-40.16-18.15-59.79-9.84-9 3.8-12.5 10-13.93 19.53M467.4 350.22c-1.91 12.82 9 35.16 24 39.33M653.52 291.69c7.27-3.64 22.64-1.62 23.45 0s-2.43 21.43-5.66 25.88" fill="none" stroke="#0366d6" stroke-miterlimit="10" stroke-width="2.43"/><path d="M631.35 393.51a23.54 23.54 0 016.78 11.81M634.45 398c2.06-2.26 6-1.69 8.25.38s3.26 5.12 4.18 8a.84.84 0 00-.26-1.06" fill="none" stroke="#0366d6" stroke-linejoin="round" stroke-width="2.43"/><path d="M554.45 297.05c-2.43-8.19-3.43-19.91-1.52-20.26 6.67-1.21 20 9.64 22.14 12.07M521.69 361.24c3.24-1.62 4.61-2.58 8.79-1.55s7.84 3.5 11.39 5.94l8.72 5.95M656 382.39a35.25 35.25 0 0033.92-18.21c5.14-9.76 5.71-22.12 13.52-29.92 5.43-5.43 13.33-7.5 20.93-8.67a132 132 0 0139.74-.08c3.73.56 10 .89 10.57 3.65s-2.77 2.33-4.53 2.48c1.63 6.28-3.88 12.08-9.29 15.65a76.67 76.67 0 01-22.6 10.1 21.93 21.93 0 00-5.57 1.95c-3.11 1.84-4.88 5.24-6.63 8.41-6.59 11.89-15.33 22.94-27 30s-26.48 9.55-39.08 4.46" fill="none" stroke="#0366d6" stroke-miterlimit="10" stroke-width="2.43"/><ellipse cx="737.22" cy="333.54" rx="21.84" ry="4.25" transform="rotate(-3.49 736.632 333.246)" fill="none" stroke="#0366d6" stroke-miterlimit="10" stroke-width="2.43"/><path d="M650.65 386.1c2.62-.14 5.49-.17 8.51-.08 12.05.37 21.76 2.58 21.69 4.93s-9.9 4-22 3.58c-2.61-.08-5.11-.24-7.42-.48M714.88 352.85c1.74 1.57.22 8.56-7.87 17.51s-13.74 13.48-15.48 11.91 1.09-8.66 9.18-17.61 12.43-13.38 14.17-11.81z" fill="none" stroke="#0366d6" stroke-miterlimit="10" stroke-width="2.43"/><path d="M498.28 381.61a22 22 0 0111-15.13 11.22 11.22 0 015.77-1.61 5.81 5.81 0 015 2.94c4.54-6.57-.9-14.33-4.84-20.21a30.16 30.16 0 00-16.85-12.15" fill="none" stroke="#0366d6" stroke-linejoin="round" stroke-width="2.43"/><path fill="#e8eaee" d="M469.13 407.74l3.63 2.03-44.07 71.57-3.64-1.62 44.08-71.98z"/><path d="M455 435.34l-2.94.23a5.8 5.8 0 00-5.33 5.33l-.83 10.52 8.5-.61z" fill="#f6f8fa"/><ellipse cx="491.45" cy="545.84" rx="10.8" ry="10.61" fill="#959da5"/><ellipse cx="455.58" cy="442.47" rx="3.64" ry="6.82" fill="#e8eaee"/><path d="M492.72 533.81c-7 5.66-8.56 19.41-3.89 22.65h6.61c-5.06-6.88.78-21 .78-21z" fill="#d1d5da"/><path fill="#d1d5da" d="M501.67 539.48h-24.52l-.57-86.14h25.48l-.39 86.14z"/><path fill="#959da5" d="M501.67 539.48l4.54-2.43.57-83.71h-4.72l-.39 86.14z"/><path fill="#d1d5da" d="M503.959 513.248l161.781 1.695-.143 13.669-161.781-1.694z"/><path fill="#e1e4e8" d="M503.98 510.24l161.781 1.694-.031 3.01-161.781-1.695z"/><ellipse cx="667.67" cy="545.84" rx="10.8" ry="10.61" fill="#959da5"/><path d="M668.94 533.81c-7 5.66-8.56 19.41-3.89 22.65h6.61c-5.06-6.88.78-21 .78-21z" fill="#d1d5da"/><path fill="#d1d5da" d="M677.89 539.48h-24.52l-.57-86.14h25.48l-.39 86.14z"/><path fill="#959da5" d="M677.89 539.48l4.54-2.43.57-83.71h-4.72l-.39 86.14z"/><ellipse cx="450.43" cy="566.96" rx="10.8" ry="10.61" fill="#959da5"/><path d="M451.7 554.93c-7 5.66-8.57 19.41-3.9 22.65h6.62c-5.06-6.88.78-21 .78-21z" fill="#d1d5da"/><path fill="#959da5" d="M666.09 475.68l23.01-24.87-.61-10.92-22.4 19.41v16.38z"/><path fill="#d1d5da" d="M435.56 459.3h230.53v16.38H435.56z"/><path d="M424 453.24c2.42-.61 58.23-24.87 58.23-24.87l208.65 4.24-20.58 24.87z" fill="#959da5"/><path fill="#6a737d" d="M424.04 453.24l1.82 8.49 243.83 3.03.61-7.28-246.26-4.24z"/><path fill="#6a737d" d="M690.92 432.61l.61 7.89-21.84 24.26.61-7.28 20.62-24.87z"/><path fill="#d1d5da" d="M460.65 560.6h-24.52l-.57-84.92h25.48l-.39 84.92z"/><path fill="#959da5" d="M460.65 560.6l4.54-2.43.57-82.49h-4.72l-.39 84.92z"/><path fill="#d1d5da" d="M462.721 526.516l177.1 1.854-.156 14.96-177.1-1.855z"/><path fill="#e1e4e8" d="M462.756 523.217l177.1 1.855-.034 3.29-177.1-1.855z"/><ellipse cx="648.98" cy="566.95" rx="10.83" ry="10.35" fill="#959da5"/><path d="M650.25 555.22c-7 5.52-8.59 18.92-3.9 22.07H653c-5.07-6.7.78-20.49.78-20.49z" fill="#d1d5da"/><path fill="#d1d5da" d="M659.23 560.74h-24.59l-.53-85.06h25.48l-.36 85.06z"/><path fill="#959da5" d="M659.23 561.95l4.55-2.36.53-82.7h-4.72l-.36 85.06z"/><ellipse cx="471.65" cy="408.35" rx="4.55" ry="4.25" fill="#e8eaee"/><ellipse cx="426.77" cy="480.83" rx="4.55" ry="4.25" fill="#e8eaee"/><ellipse cx="990.25" cy="535.91" rx="58.33" ry="7.26" fill="#e8eaee"/><path d="M954.93 530.5a5.39 5.39 0 01-5 1.44c-3.29-.61-4.1-2.37-4.1-2.37l6-70.61 11.61 1.18zM1027.28 513.68a5.4 5.4 0 01-3.92 3.48c-3.23.88-4.72-.35-4.72-.35l-25.3-66.2 11-4z" fill="#959da5"/><path d="M1007.9 483.74l-50.81 7.81a4.85 4.85 0 01-1.18-3.51 21.31 21.31 0 011-4.07l49.58-8.45z" fill="#959da5"/><path d="M925 452.25c1.12 7 6.65 14.9 10.34 15.07 0 0 29.41.73 47.56-3.29s25.5-6.43 27.72-8.22 5.33-10.78 4-17.46z" fill="#d1d5da"/><ellipse cx="969.79" cy="445.3" rx="45.33" ry="7.73" transform="rotate(-8.82 969.637 445.22)" fill="#e1e4e8"/><path d="M945.18 541.86a5.91 5.91 0 01-5.58 1.3c-3.55-.84-4.34-2.8-4.34-2.8l10.26-76.67 12.6 1.91zM1025.69 530.13a5.91 5.91 0 01-4.46 3.6c-3.57.78-5.13-.65-5.13-.65l-24.79-76.27 12.17-3.75z" fill="#d1d5da"/><path d="M1005.41 493.7l-55.81 5.81a5.3 5.3 0 01-1.09-3.89 23.48 23.48 0 011.32-4.39l54.49-6.56z" fill="#d1d5da"/><path fill="#959da5" d="M541.73 419.04l-2.47 5.17-10.17-5.9-8.59 3.21-6.95 5.28-4.74-1.7 1.88-4.45 7.56-4.49 11.71-2.74 11.77 5.62z"/><path fill="#6a737d" d="M542 422.74l-2.47 5.17-10.17-5.9-9.21 1.74-8.26 3.55-3.08-2.2 9.71-5.24 11.71-2.75 11.77 5.63z"/><ellipse cx="575.07" cy="448.08" rx="48.52" ry="4.55" fill="#6a737d"/><path d="M628.74 427.65a23.31 23.31 0 0115 6.47c3.3 3.18 5.69 7.37 9.57 9.81 3.44 2.16 7.66 2.67 11.72 2.73 10.3.13 22.72-3.14 32.47 2.06 7.22 3.86 8.13 13.66 8.13 21.84v81.49c0 4.32 0 8.82 2 12.68 3.37 6.65 11.27 9.43 18.51 11.19 38.47 9.35 78.9 6.78 118 .31 9.24-1.53 20.14-4.73 22.71-13.74 2.19-7.68-3.47-15.8-10.63-19.35s-15.45-3.73-23.42-4.27c-10.41-.7-21.09-2.23-30.07-7.54a7.52 7.52 0 01-3-2.76c-2-3.84 2.66-7.77 6.77-9.12 23.28-7.63 49.94 5.7 72.77-3.21 4.88-1.91 9.48-4.89 12.43-9.22 3.89-5.72 4.48-13 4.47-19.94a153.66 153.66 0 00-2.31-26.48c-.68-3.91-1.76-8.16-5-10.44a8.11 8.11 0 00-5.74-1.35" fill="none" stroke="#ffd1ac" stroke-miterlimit="10" stroke-width="1.21"/><path fill="#6a737d" d="M544.77 415.56l-5.4 2.77-4.67-11.32-10.58-.45-12.78-1.36 2.4-2.25 9.87-3.77 14.67 2.42 6.49 13.96z"/><path fill="#959da5" d="M544.76 416.92l-5.4 2.76-6.07-10.34-9.17-2.78-10.7 2.07-2.08-3.43 12.26-4.66 14.72 3.82 6.44 12.56z"/><path fill="#d1d5da" d="M545.35 426.33l-10.3 10.42-10.51 2.98-10.31.05-.45-2.92 1.99-4.4 8.38 2.05 8.29-2.05 8.9-11.52 4.01 5.39z"/><path fill="#6a737d" d="M546.06 427.82l-10.31 10.42-10.5 2.99-11.02-1.45 2.24-5.83 8.39 2.05 8.61-1.39 8.94-10.4 3.65 3.61z"/><path d="M539.71 438.51l10 1.48-.07-5.5a37.76 37.76 0 01-11.71-1.14 37.14 37.14 0 001.78 5.16z" fill="#d1d5da"/><path d="M541.9 401.53c-1.43 5.08-3.65 11.19-4.4 15.68 4.27-1 8-.41 11.94.54l-.2-15.81z" fill="#959da5"/><path d="M537.94 433.35a37.45 37.45 0 0011.75.65l-.9-16.71c-3.93-.79-7.07-1.29-11.29-.08a41.52 41.52 0 00.44 16.14z" fill="#b2bbc4"/><path d="M540.36 418.61a41.09 41.09 0 007 23.71c5.37-.52 10.83-1.44 16.44-1.9-3.11-10.53-4.66-21.38-3.61-31.8a45.31 45.31 0 01-7.19-12.76 54.84 54.84 0 00-5.9 3c-1.99 1.14-6.37 8.14-6.74 19.75z" fill="#6a737d"/><path d="M564.25 392.18c28.61-7.68 56.56 3.57 62.14 6.81 5.84 8.83 9 33.65-.91 44.27-14.67 8.39-38 12.25-58.33 7.58-6.79-16.23-11.51-40-2.9-58.66z" fill="#fff4b5"/><path d="M630.17 434.75a22 22 0 01-4.69 8.51c-14.67 8.39-38 12.25-58.33 7.58-4.89-11.69-8.7-27.28-7.24-42.06 4.13 5.24 14.75 17.47 30 10.31 27.41-12.94 48.63-16.94 40.26 15.66z" fill="#ffdf5d"/><path d="M553 396a55.71 55.71 0 006.9 12.47c.31-5.53 3.16-14.35 4.31-16.28A82.58 82.58 0 00553 396z" fill="#959da5"/><path d="M567.15 450.84c-.77-2.23-4.29-11.23-5-14-4.85-2-16.1-8.05-20.62-7.48a28.37 28.37 0 008.31 15.32c2.53 1.67 10.91 5 17.33 6.14" fill="#586069"/><path d="M625.48 443.26c-14.67 8.39-38 12.25-58.33 7.58-1.28-3.06-4-10.46-5-14 12.11 4.47 45.65 4.4 63.33 6.42zM560.11 407.34s2.12-10.72 3.13-12.94l45.19 1.82-2.12 10z" fill="#f9c513"/><path d="M570.23 405c-2.21-2.15-5-4.11-8.05-4a8.62 8.62 0 00-6.83 4.77 18.35 18.35 0 00-1.77 8.45 21.89 21.89 0 01-.4 5.43 5.55 5.55 0 01-3.37 4c-.22.07-.58 0-.5-.23" fill="none" stroke="#fb8532" stroke-miterlimit="10" stroke-width="1.21"/><path d="M569.38 404.07c-2.1-3.91-7.16-5.28-11.58-4.82a9.14 9.14 0 00-5.54 2.19c-2 2-2.34 5.06-2.25 7.87a7 7 0 01-.2 2.54 2.18 2.18 0 01-1.81 1.58" fill="none" stroke="#79b8ff" stroke-miterlimit="10" stroke-width="1.21"/><path d="M613.43 403.42c-1.2-2.18 3.1 3.59 3.69 1.17a6.57 6.57 0 012.32-3.8 7.92 7.92 0 013.93-1.23 11 11 0 014.16.31c1.11.34 2.13.94 3.23 1.31a8.86 8.86 0 009.06-2.17" fill="none" stroke="#fb8532" stroke-miterlimit="10" stroke-width="1.21"/><path d="M620.27 407.34h-56.12c4.38-5.66 8.94-14.56 7.8-21.43l56.5-.2c.19 9.09-8.18 21.63-8.18 21.63z" fill="#ffdf5d"/><path fill="#fff4b5" d="M570.81 383.48h56.49l1.15 2.23h-56.5l-1.14-2.23z"/><path d="M570.81 383.48c1.33 6.94-5.73 24.47-6.66 23.86a25.52 25.52 0 007.8-21.63z" fill="#ffd33d"/><path d="M659.54 410.25a103.44 103.44 0 00-27.69-6.05 7 7 0 00-4.09.53c-1.42.83-2.08 2.49-2.94 3.88-2.59 4.19-7.36 6.37-11.74 8.61-7.69 3.94-15.23 9.07-19.26 16.7-1.22 2.32-2.08 5.13-1 7.51a4 4 0 006.49 1.09 4.13 4.13 0 001.54 4.76 10.88 10.88 0 003.84 1.48c10.53 2.54 24.69 1.48 32-7.87 5.39-6.91 6.24-17.77 3.68-25.9" fill="none" stroke="#0366d6" stroke-linejoin="round" stroke-width="2.43"/><path d="M637.65 440.23c9.16 6.86 22 5.86 33 2.7 2.67-.77 5.49-1.78 7.08-4.05 2.41-3.45 1-8.19-.77-12a92.8 92.8 0 00-32.18-37.93" fill="none" stroke="#0366d6" stroke-linejoin="round" stroke-width="2.43"/><path d="M887.35 296.06c11.65-7 21.33-18.7 26.72-35.45 9.89-30.73-12.22-59.92-36.66-69.76M861.46 187.36c-1.13 0-2.25 0-3.36.07-29.83 2.06-44.36 20.75-46.92 31.76-2.83 12.21-2.8 25.6-4 28.34s-8.22 4.91-9.84 9.5c-3.11 8.83 6.43 27.94 33.25 40.83a61.6 61.6 0 0042.13 4.38M862.9 206.46c3-6.9-4.41-28-5-28.5" fill="none" stroke="#0366d6" stroke-miterlimit="10" stroke-width="2.43"/><path d="M855.53 187.59c1.09-5.71-.83-8.9 2.35-10.42s16.7 4.43 25.45 23.13M855.39 184.23c-1.71-3.78-5-7.58-6.78-7.42s-3.9 8.82-3.56 12.37M848 178.18a71.69 71.69 0 012.2 9.51M803.76 249.65c-.56-2.18-1.92-3.19-3.93-1.25s-2.44 4.29.51 4.94M812.23 215.85c5.67-8.58 25.52-15.35 34.63-5.92s.59 23.1-3.89 31.31-6.92 12.12-7.82 18.81 4.47 15.47-.21 23.87-15.54 8.81-21.18 3.78M852.32 271.07c9.83-6 25.08-9.54 31.92-9.33M854.26 277.64c5.81-2.49 20.32-2.09 23.87 1.34" fill="none" stroke="#0366d6" stroke-miterlimit="10" stroke-width="2.43"/><path d="M866.88 264.81c6.81-2.09 13.46-3.19 17.36-3.07M866.7 276.08c4.93.18 9.61 1.14 11.43 2.9" fill="none" stroke="#0366d6" stroke-linecap="round" stroke-miterlimit="10" stroke-width="2.43"/><path d="M819.31 378.23h44.91c12.85 0 21.54-11 28.79-20.16 8-10.07 15.19-21.9 9.39-34.88a191.17 191.17 0 00-19.21-33.46c-1.51-2.11-3.14-4.25-5.43-5.46s-5.42-1.23-7.21.65c-2.19 2.31-1.39 6-.46 9.07 2.18 7.11 4.93 14 7.2 21.1 1.67 5.2 5.7 14 2.83 19.16a44.91 44.91 0 01-18.44 17.95" fill="none" stroke="#0366d6" stroke-miterlimit="10" stroke-width="2.43"/><path d="M867.91 358.8c-.79-3.43-3.65-6-6.73-7.71-8-4.38-18.09-4-26.19.09s-13.1 10.18-16.37 18.65" fill="none" stroke="#0366d6" stroke-miterlimit="10" stroke-width="2.43"/><path d="M836.27 377.88c-4.78.29-8.87-3.09-12.93-5.62a40.47 40.47 0 00-9.26-4.26c-1.32-.42-2.92-.71-3.93.23a2.74 2.74 0 00-.75 2.14c.14 2.78 3 4.51 5.5 5.74s5 2.39 7.68 1.89M899 350.31a274.24 274.24 0 0069.51 90.2" fill="none" stroke="#0366d6" stroke-miterlimit="10" stroke-width="2.43"/><path d="M973 441.2a29.28 29.28 0 00-8.64-2.32 13.14 13.14 0 00-8.55 2.08 10.33 10.33 0 00-4.23 9.18 1.54 1.54 0 00.34 1 1.59 1.59 0 00.93.33 66.2 66.2 0 0035.1-4.93c.94-9.19-3.61-17.94-8.27-25.92a320 320 0 00-28.39-40.89" fill="none" stroke="#0366d6" stroke-miterlimit="10" stroke-width="2.43"/><path d="M903.13 338.85c13.21 14.91 28.28 29.59 45.57 39.48 17 9.7 37.61 11.22 55.81-.91 2 1.76 5.09 2.69 5.55 2.92 9.33 4.61 21.77 3.81 31.14-.19a6.29 6.29 0 005.27 2.57 3.73 3.73 0 003.37-4.24 6.87 6.87 0 00-1-2.18c-8.74-14.81-20-29-35.53-36.31-4.69-2.21-10.59-3.62-14.78-.57-2.2 1.61-3.47 4.16-5.08 6.35-6.71 9.1-19.64 11.78-30.68 9.29s-20.58-9.17-29.64-15.94c-17-12.73-33.75-26.63-45-44.68" fill="none" stroke="#0366d6" stroke-linejoin="round" stroke-width="2.43"/><path d="M891.51 299.19c7.74 4.83 14.71 10.82 22.54 15.51s16.87 8.11 25.92 7c14.22-1.71 24.64-13.63 36.6-21.51 11-7.28 24.36-11.35 37.57-10.51s26.21 6.77 34.79 16.85c2.33 2.73 4.42 6 4.2 9.62s-3.78 7.06-7.19 5.95c-2.11-.69-3.41-2.75-5.07-4.22a15 15 0 00-7.42-3.19c-10.22-1.8-20.54 2.45-29.39 7.87s-17 12.1-26.6 16.05a66.81 66.81 0 01-13.74 3.86 84.12 84.12 0 01-25 .89M797.68 250.27c-3.5-1.1-6.33-3.62-9.06-6.06q-33.37-29.75-69.48-56.21c-12.14-8.89-24.79-17.63-39.22-21.89-2.88-.85-6.79-1.1-8.09 1.61-1 2 .22 4.34 1.41 6.22 25.19 39.87 63.49 70.1 105 92.47 7.6 4.1 15.5 8 24 9.26" fill="none" stroke="#0366d6" stroke-linejoin="round" stroke-width="2.43"/><ellipse cx="721.25" cy="208.39" rx="5.66" ry="19.61" transform="rotate(-50.2 717.842 207.81)" fill="none" stroke="#0366d6" stroke-linejoin="round" stroke-width="2.43"/><ellipse cx="766.54" cy="245.19" rx="5.66" ry="19.61" transform="rotate(-55.64 766.55 245.19)" fill="none" stroke="#0366d6" stroke-linejoin="round" stroke-width="2.43"/><ellipse cx="977.38" cy="322.87" rx="18.48" ry="5.66" transform="rotate(-23.4 977.384 322.865)" fill="none" stroke="#0366d6" stroke-linejoin="round" stroke-width="2.43"/><path d="M920 329.08a64.86 64.86 0 018.65.26c10.16 1 18.18 3.93 17.93 6.59-.19 2-6.19 3.26-12.84 3.36M1034.85 305.53c-.31 2.66-7.6 3.38-16.27 2.36s-15.19-1.77-15.18-4.45 7.64-5.59 16.31-4.57 15.46 4 15.14 6.66z" fill="none" stroke="#0366d6" stroke-linejoin="round" stroke-width="2.43"/></svg>
