<svg width="850" height="600" viewBox="0 0 850 600" fill="none" xmlns="http://www.w3.org/2000/svg">
<g clip-path="url(#clip0_3_900)">
<path d="M-59.44 346L-83.7 211.34L170.84 164.44L124.34 -83.4401L701.37 -104.06L683.58 23.6199L901.13 16.3399L901.94 346H-59.44Z" fill="#24282E"/>
<path d="M903.75 344.17H-317.18" stroke="#24282E" stroke-width="2.53" stroke-miterlimit="10"/>
<path d="M573.49 290.5H590.8V318.62H573.49V290.5Z" fill="#6D7481"/>
<path d="M581.98 302.94C584.327 302.94 586.23 301.037 586.23 298.69C586.23 296.343 584.327 294.44 581.98 294.44C579.633 294.44 577.73 296.343 577.73 298.69C577.73 301.037 579.633 302.94 581.98 302.94Z" fill="#24282E"/>
<path d="M582.59 314.16C584.937 314.16 586.84 312.257 586.84 309.91C586.84 307.563 584.937 305.66 582.59 305.66C580.243 305.66 578.34 307.563 578.34 309.91C578.34 312.257 580.243 314.16 582.59 314.16Z" fill="#24282E"/>
<path d="M273.66 434.36C350.61 434.36 412.99 425.67 412.99 414.95C412.99 404.23 350.61 395.54 273.66 395.54C196.71 395.54 134.33 404.23 134.33 414.95C134.33 425.67 196.71 434.36 273.66 434.36Z" fill="#1B1F25"/>
<path d="M243.93 -42.7H654.77V199.92H243.93V-42.7Z" fill="#1B1F25"/>
<path d="M266.18 3.91998C267.748 3.91998 269.02 2.64848 269.02 1.07999C269.02 -0.488502 267.748 -1.76001 266.18 -1.76001C264.612 -1.76001 263.34 -0.488502 263.34 1.07999C263.34 2.64848 264.612 3.91998 266.18 3.91998Z" fill="#24282E"/>
<path d="M299.47 3.91998C301.038 3.91998 302.31 2.64848 302.31 1.07999C302.31 -0.488502 301.038 -1.76001 299.47 -1.76001C297.901 -1.76001 296.63 -0.488502 296.63 1.07999C296.63 2.64848 297.901 3.91998 299.47 3.91998Z" fill="#24282E"/>
<path d="M332.76 3.91998C334.328 3.91998 335.6 2.64848 335.6 1.07999C335.6 -0.488502 334.328 -1.76001 332.76 -1.76001C331.192 -1.76001 329.92 -0.488502 329.92 1.07999C329.92 2.64848 331.192 3.91998 332.76 3.91998Z" fill="#24282E"/>
<path d="M366.04 3.91998C367.608 3.91998 368.88 2.64848 368.88 1.07999C368.88 -0.488502 367.608 -1.76001 366.04 -1.76001C364.471 -1.76001 363.2 -0.488502 363.2 1.07999C363.2 2.64848 364.471 3.91998 366.04 3.91998Z" fill="#24282E"/>
<path d="M399.33 3.91998C400.899 3.91998 402.17 2.64848 402.17 1.07999C402.17 -0.488502 400.899 -1.76001 399.33 -1.76001C397.762 -1.76001 396.49 -0.488502 396.49 1.07999C396.49 2.64848 397.762 3.91998 399.33 3.91998Z" fill="#24282E"/>
<path d="M432.61 3.91998C434.178 3.91998 435.45 2.64848 435.45 1.07999C435.45 -0.488502 434.178 -1.76001 432.61 -1.76001C431.041 -1.76001 429.77 -0.488502 429.77 1.07999C429.77 2.64848 431.041 3.91998 432.61 3.91998Z" fill="#24282E"/>
<path d="M465.9 3.91998C467.469 3.91998 468.74 2.64848 468.74 1.07999C468.74 -0.488502 467.469 -1.76001 465.9 -1.76001C464.332 -1.76001 463.06 -0.488502 463.06 1.07999C463.06 2.64848 464.332 3.91998 465.9 3.91998Z" fill="#24282E"/>
<path d="M499.19 3.91998C500.758 3.91998 502.03 2.64848 502.03 1.07999C502.03 -0.488502 500.758 -1.76001 499.19 -1.76001C497.622 -1.76001 496.35 -0.488502 496.35 1.07999C496.35 2.64848 497.622 3.91998 499.19 3.91998Z" fill="#24282E"/>
<path d="M532.47 3.91998C534.038 3.91998 535.31 2.64848 535.31 1.07999C535.31 -0.488502 534.038 -1.76001 532.47 -1.76001C530.901 -1.76001 529.63 -0.488502 529.63 1.07999C529.63 2.64848 530.901 3.91998 532.47 3.91998Z" fill="#24282E"/>
<path d="M565.76 3.91998C567.328 3.91998 568.6 2.64848 568.6 1.07999C568.6 -0.488502 567.328 -1.76001 565.76 -1.76001C564.192 -1.76001 562.92 -0.488502 562.92 1.07999C562.92 2.64848 564.192 3.91998 565.76 3.91998Z" fill="#24282E"/>
<path d="M599.04 3.91998C600.608 3.91998 601.88 2.64848 601.88 1.07999C601.88 -0.488502 600.608 -1.76001 599.04 -1.76001C597.471 -1.76001 596.2 -0.488502 596.2 1.07999C596.2 2.64848 597.471 3.91998 599.04 3.91998Z" fill="#24282E"/>
<path d="M632.33 3.91998C633.899 3.91998 635.17 2.64848 635.17 1.07999C635.17 -0.488502 633.899 -1.76001 632.33 -1.76001C630.762 -1.76001 629.49 -0.488502 629.49 1.07999C629.49 2.64848 630.762 3.91998 632.33 3.91998Z" fill="#24282E"/>
<path d="M266.18 29.4901C267.748 29.4901 269.02 28.2185 269.02 26.6501C269.02 25.0816 267.748 23.8101 266.18 23.8101C264.612 23.8101 263.34 25.0816 263.34 26.6501C263.34 28.2185 264.612 29.4901 266.18 29.4901Z" fill="#24282E"/>
<path d="M299.47 29.4901C301.038 29.4901 302.31 28.2185 302.31 26.6501C302.31 25.0816 301.038 23.8101 299.47 23.8101C297.901 23.8101 296.63 25.0816 296.63 26.6501C296.63 28.2185 297.901 29.4901 299.47 29.4901Z" fill="#24282E"/>
<path d="M332.76 29.4901C334.328 29.4901 335.6 28.2185 335.6 26.6501C335.6 25.0816 334.328 23.8101 332.76 23.8101C331.192 23.8101 329.92 25.0816 329.92 26.6501C329.92 28.2185 331.192 29.4901 332.76 29.4901Z" fill="#24282E"/>
<path d="M366.04 29.4901C367.608 29.4901 368.88 28.2185 368.88 26.6501C368.88 25.0816 367.608 23.8101 366.04 23.8101C364.471 23.8101 363.2 25.0816 363.2 26.6501C363.2 28.2185 364.471 29.4901 366.04 29.4901Z" fill="#24282E"/>
<path d="M399.33 29.4901C400.899 29.4901 402.17 28.2185 402.17 26.6501C402.17 25.0816 400.899 23.8101 399.33 23.8101C397.762 23.8101 396.49 25.0816 396.49 26.6501C396.49 28.2185 397.762 29.4901 399.33 29.4901Z" fill="#24282E"/>
<path d="M432.61 29.4901C434.178 29.4901 435.45 28.2185 435.45 26.6501C435.45 25.0816 434.178 23.8101 432.61 23.8101C431.041 23.8101 429.77 25.0816 429.77 26.6501C429.77 28.2185 431.041 29.4901 432.61 29.4901Z" fill="#24282E"/>
<path d="M465.9 29.4901C467.469 29.4901 468.74 28.2185 468.74 26.6501C468.74 25.0816 467.469 23.8101 465.9 23.8101C464.332 23.8101 463.06 25.0816 463.06 26.6501C463.06 28.2185 464.332 29.4901 465.9 29.4901Z" fill="#24282E"/>
<path d="M499.19 29.4901C500.758 29.4901 502.03 28.2185 502.03 26.6501C502.03 25.0816 500.758 23.8101 499.19 23.8101C497.622 23.8101 496.35 25.0816 496.35 26.6501C496.35 28.2185 497.622 29.4901 499.19 29.4901Z" fill="#24282E"/>
<path d="M532.47 29.4901C534.038 29.4901 535.31 28.2185 535.31 26.6501C535.31 25.0816 534.038 23.8101 532.47 23.8101C530.901 23.8101 529.63 25.0816 529.63 26.6501C529.63 28.2185 530.901 29.4901 532.47 29.4901Z" fill="#24282E"/>
<path d="M565.76 29.4901C567.328 29.4901 568.6 28.2185 568.6 26.6501C568.6 25.0816 567.328 23.8101 565.76 23.8101C564.192 23.8101 562.92 25.0816 562.92 26.6501C562.92 28.2185 564.192 29.4901 565.76 29.4901Z" fill="#24282E"/>
<path d="M599.04 29.4901C600.608 29.4901 601.88 28.2185 601.88 26.6501C601.88 25.0816 600.608 23.8101 599.04 23.8101C597.471 23.8101 596.2 25.0816 596.2 26.6501C596.2 28.2185 597.471 29.4901 599.04 29.4901Z" fill="#24282E"/>
<path d="M632.33 29.4901C633.899 29.4901 635.17 28.2185 635.17 26.6501C635.17 25.0816 633.899 23.8101 632.33 23.8101C630.762 23.8101 629.49 25.0816 629.49 26.6501C629.49 28.2185 630.762 29.4901 632.33 29.4901Z" fill="#24282E"/>
<path d="M266.18 55.07C267.748 55.07 269.02 53.7985 269.02 52.23C269.02 50.6615 267.748 49.39 266.18 49.39C264.612 49.39 263.34 50.6615 263.34 52.23C263.34 53.7985 264.612 55.07 266.18 55.07Z" fill="#24282E"/>
<path d="M299.47 55.07C301.038 55.07 302.31 53.7985 302.31 52.23C302.31 50.6615 301.038 49.39 299.47 49.39C297.901 49.39 296.63 50.6615 296.63 52.23C296.63 53.7985 297.901 55.07 299.47 55.07Z" fill="#24282E"/>
<path d="M332.76 55.07C334.328 55.07 335.6 53.7985 335.6 52.23C335.6 50.6615 334.328 49.39 332.76 49.39C331.192 49.39 329.92 50.6615 329.92 52.23C329.92 53.7985 331.192 55.07 332.76 55.07Z" fill="#24282E"/>
<path d="M366.04 55.07C367.608 55.07 368.88 53.7985 368.88 52.23C368.88 50.6615 367.608 49.39 366.04 49.39C364.471 49.39 363.2 50.6615 363.2 52.23C363.2 53.7985 364.471 55.07 366.04 55.07Z" fill="#24282E"/>
<path d="M399.33 55.07C400.899 55.07 402.17 53.7985 402.17 52.23C402.17 50.6615 400.899 49.39 399.33 49.39C397.762 49.39 396.49 50.6615 396.49 52.23C396.49 53.7985 397.762 55.07 399.33 55.07Z" fill="#24282E"/>
<path d="M432.61 55.07C434.178 55.07 435.45 53.7985 435.45 52.23C435.45 50.6615 434.178 49.39 432.61 49.39C431.041 49.39 429.77 50.6615 429.77 52.23C429.77 53.7985 431.041 55.07 432.61 55.07Z" fill="#24282E"/>
<path d="M465.9 55.07C467.469 55.07 468.74 53.7985 468.74 52.23C468.74 50.6615 467.469 49.39 465.9 49.39C464.332 49.39 463.06 50.6615 463.06 52.23C463.06 53.7985 464.332 55.07 465.9 55.07Z" fill="#24282E"/>
<path d="M499.19 55.07C500.758 55.07 502.03 53.7985 502.03 52.23C502.03 50.6615 500.758 49.39 499.19 49.39C497.622 49.39 496.35 50.6615 496.35 52.23C496.35 53.7985 497.622 55.07 499.19 55.07Z" fill="#24282E"/>
<path d="M532.47 55.07C534.038 55.07 535.31 53.7985 535.31 52.23C535.31 50.6615 534.038 49.39 532.47 49.39C530.901 49.39 529.63 50.6615 529.63 52.23C529.63 53.7985 530.901 55.07 532.47 55.07Z" fill="#24282E"/>
<path d="M565.76 55.07C567.328 55.07 568.6 53.7985 568.6 52.23C568.6 50.6615 567.328 49.39 565.76 49.39C564.192 49.39 562.92 50.6615 562.92 52.23C562.92 53.7985 564.192 55.07 565.76 55.07Z" fill="#24282E"/>
<path d="M599.04 55.07C600.608 55.07 601.88 53.7985 601.88 52.23C601.88 50.6615 600.608 49.39 599.04 49.39C597.471 49.39 596.2 50.6615 596.2 52.23C596.2 53.7985 597.471 55.07 599.04 55.07Z" fill="#24282E"/>
<path d="M632.33 55.07C633.899 55.07 635.17 53.7985 635.17 52.23C635.17 50.6615 633.899 49.39 632.33 49.39C630.762 49.39 629.49 50.6615 629.49 52.23C629.49 53.7985 630.762 55.07 632.33 55.07Z" fill="#24282E"/>
<path d="M266.18 80.64C267.748 80.64 269.02 79.3684 269.02 77.8C269.02 76.2315 267.748 74.96 266.18 74.96C264.612 74.96 263.34 76.2315 263.34 77.8C263.34 79.3684 264.612 80.64 266.18 80.64Z" fill="#24282E"/>
<path d="M299.47 80.64C301.038 80.64 302.31 79.3684 302.31 77.8C302.31 76.2315 301.038 74.96 299.47 74.96C297.901 74.96 296.63 76.2315 296.63 77.8C296.63 79.3684 297.901 80.64 299.47 80.64Z" fill="#24282E"/>
<path d="M332.76 80.64C334.328 80.64 335.6 79.3684 335.6 77.8C335.6 76.2315 334.328 74.96 332.76 74.96C331.192 74.96 329.92 76.2315 329.92 77.8C329.92 79.3684 331.192 80.64 332.76 80.64Z" fill="#24282E"/>
<path d="M366.04 80.64C367.608 80.64 368.88 79.3684 368.88 77.8C368.88 76.2315 367.608 74.96 366.04 74.96C364.471 74.96 363.2 76.2315 363.2 77.8C363.2 79.3684 364.471 80.64 366.04 80.64Z" fill="#24282E"/>
<path d="M399.33 80.64C400.899 80.64 402.17 79.3684 402.17 77.8C402.17 76.2315 400.899 74.96 399.33 74.96C397.762 74.96 396.49 76.2315 396.49 77.8C396.49 79.3684 397.762 80.64 399.33 80.64Z" fill="#24282E"/>
<path d="M432.61 80.64C434.178 80.64 435.45 79.3684 435.45 77.8C435.45 76.2315 434.178 74.96 432.61 74.96C431.041 74.96 429.77 76.2315 429.77 77.8C429.77 79.3684 431.041 80.64 432.61 80.64Z" fill="#24282E"/>
<path d="M465.9 80.64C467.469 80.64 468.74 79.3684 468.74 77.8C468.74 76.2315 467.469 74.96 465.9 74.96C464.332 74.96 463.06 76.2315 463.06 77.8C463.06 79.3684 464.332 80.64 465.9 80.64Z" fill="#24282E"/>
<path d="M499.19 80.64C500.758 80.64 502.03 79.3684 502.03 77.8C502.03 76.2315 500.758 74.96 499.19 74.96C497.622 74.96 496.35 76.2315 496.35 77.8C496.35 79.3684 497.622 80.64 499.19 80.64Z" fill="#24282E"/>
<path d="M532.47 80.64C534.038 80.64 535.31 79.3684 535.31 77.8C535.31 76.2315 534.038 74.96 532.47 74.96C530.901 74.96 529.63 76.2315 529.63 77.8C529.63 79.3684 530.901 80.64 532.47 80.64Z" fill="#24282E"/>
<path d="M565.76 80.64C567.328 80.64 568.6 79.3684 568.6 77.8C568.6 76.2315 567.328 74.96 565.76 74.96C564.192 74.96 562.92 76.2315 562.92 77.8C562.92 79.3684 564.192 80.64 565.76 80.64Z" fill="#24282E"/>
<path d="M599.04 80.64C600.608 80.64 601.88 79.3684 601.88 77.8C601.88 76.2315 600.608 74.96 599.04 74.96C597.471 74.96 596.2 76.2315 596.2 77.8C596.2 79.3684 597.471 80.64 599.04 80.64Z" fill="#24282E"/>
<path d="M632.33 80.64C633.899 80.64 635.17 79.3684 635.17 77.8C635.17 76.2315 633.899 74.96 632.33 74.96C630.762 74.96 629.49 76.2315 629.49 77.8C629.49 79.3684 630.762 80.64 632.33 80.64Z" fill="#24282E"/>
<path d="M266.18 106.21C267.748 106.21 269.02 104.939 269.02 103.37C269.02 101.802 267.748 100.53 266.18 100.53C264.612 100.53 263.34 101.802 263.34 103.37C263.34 104.939 264.612 106.21 266.18 106.21Z" fill="#24282E"/>
<path d="M299.47 106.21C301.038 106.21 302.31 104.939 302.31 103.37C302.31 101.802 301.038 100.53 299.47 100.53C297.901 100.53 296.63 101.802 296.63 103.37C296.63 104.939 297.901 106.21 299.47 106.21Z" fill="#24282E"/>
<path d="M332.76 106.21C334.328 106.21 335.6 104.939 335.6 103.37C335.6 101.802 334.328 100.53 332.76 100.53C331.192 100.53 329.92 101.802 329.92 103.37C329.92 104.939 331.192 106.21 332.76 106.21Z" fill="#24282E"/>
<path d="M366.04 106.21C367.608 106.21 368.88 104.939 368.88 103.37C368.88 101.802 367.608 100.53 366.04 100.53C364.471 100.53 363.2 101.802 363.2 103.37C363.2 104.939 364.471 106.21 366.04 106.21Z" fill="#24282E"/>
<path d="M399.33 106.21C400.899 106.21 402.17 104.939 402.17 103.37C402.17 101.802 400.899 100.53 399.33 100.53C397.762 100.53 396.49 101.802 396.49 103.37C396.49 104.939 397.762 106.21 399.33 106.21Z" fill="#24282E"/>
<path d="M432.61 106.21C434.178 106.21 435.45 104.939 435.45 103.37C435.45 101.802 434.178 100.53 432.61 100.53C431.041 100.53 429.77 101.802 429.77 103.37C429.77 104.939 431.041 106.21 432.61 106.21Z" fill="#24282E"/>
<path d="M465.9 106.21C467.469 106.21 468.74 104.939 468.74 103.37C468.74 101.802 467.469 100.53 465.9 100.53C464.332 100.53 463.06 101.802 463.06 103.37C463.06 104.939 464.332 106.21 465.9 106.21Z" fill="#24282E"/>
<path d="M499.19 106.21C500.758 106.21 502.03 104.939 502.03 103.37C502.03 101.802 500.758 100.53 499.19 100.53C497.622 100.53 496.35 101.802 496.35 103.37C496.35 104.939 497.622 106.21 499.19 106.21Z" fill="#24282E"/>
<path d="M532.47 106.21C534.038 106.21 535.31 104.939 535.31 103.37C535.31 101.802 534.038 100.53 532.47 100.53C530.901 100.53 529.63 101.802 529.63 103.37C529.63 104.939 530.901 106.21 532.47 106.21Z" fill="#24282E"/>
<path d="M565.76 106.21C567.328 106.21 568.6 104.939 568.6 103.37C568.6 101.802 567.328 100.53 565.76 100.53C564.192 100.53 562.92 101.802 562.92 103.37C562.92 104.939 564.192 106.21 565.76 106.21Z" fill="#24282E"/>
<path d="M599.04 106.21C600.608 106.21 601.88 104.939 601.88 103.37C601.88 101.802 600.608 100.53 599.04 100.53C597.471 100.53 596.2 101.802 596.2 103.37C596.2 104.939 597.471 106.21 599.04 106.21Z" fill="#24282E"/>
<path d="M632.33 106.21C633.899 106.21 635.17 104.939 635.17 103.37C635.17 101.802 633.899 100.53 632.33 100.53C630.762 100.53 629.49 101.802 629.49 103.37C629.49 104.939 630.762 106.21 632.33 106.21Z" fill="#24282E"/>
<path d="M266.18 131.79C267.748 131.79 269.02 130.519 269.02 128.95C269.02 127.382 267.748 126.11 266.18 126.11C264.612 126.11 263.34 127.382 263.34 128.95C263.34 130.519 264.612 131.79 266.18 131.79Z" fill="#24282E"/>
<path d="M299.47 131.79C301.038 131.79 302.31 130.519 302.31 128.95C302.31 127.382 301.038 126.11 299.47 126.11C297.901 126.11 296.63 127.382 296.63 128.95C296.63 130.519 297.901 131.79 299.47 131.79Z" fill="#24282E"/>
<path d="M332.76 131.79C334.328 131.79 335.6 130.519 335.6 128.95C335.6 127.382 334.328 126.11 332.76 126.11C331.192 126.11 329.92 127.382 329.92 128.95C329.92 130.519 331.192 131.79 332.76 131.79Z" fill="#24282E"/>
<path d="M366.04 131.79C367.608 131.79 368.88 130.519 368.88 128.95C368.88 127.382 367.608 126.11 366.04 126.11C364.471 126.11 363.2 127.382 363.2 128.95C363.2 130.519 364.471 131.79 366.04 131.79Z" fill="#24282E"/>
<path d="M399.33 131.79C400.899 131.79 402.17 130.519 402.17 128.95C402.17 127.382 400.899 126.11 399.33 126.11C397.762 126.11 396.49 127.382 396.49 128.95C396.49 130.519 397.762 131.79 399.33 131.79Z" fill="#24282E"/>
<path d="M432.61 131.79C434.178 131.79 435.45 130.519 435.45 128.95C435.45 127.382 434.178 126.11 432.61 126.11C431.041 126.11 429.77 127.382 429.77 128.95C429.77 130.519 431.041 131.79 432.61 131.79Z" fill="#24282E"/>
<path d="M465.9 131.79C467.469 131.79 468.74 130.519 468.74 128.95C468.74 127.382 467.469 126.11 465.9 126.11C464.332 126.11 463.06 127.382 463.06 128.95C463.06 130.519 464.332 131.79 465.9 131.79Z" fill="#24282E"/>
<path d="M499.19 131.79C500.758 131.79 502.03 130.519 502.03 128.95C502.03 127.382 500.758 126.11 499.19 126.11C497.622 126.11 496.35 127.382 496.35 128.95C496.35 130.519 497.622 131.79 499.19 131.79Z" fill="#24282E"/>
<path d="M532.47 131.79C534.038 131.79 535.31 130.519 535.31 128.95C535.31 127.382 534.038 126.11 532.47 126.11C530.901 126.11 529.63 127.382 529.63 128.95C529.63 130.519 530.901 131.79 532.47 131.79Z" fill="#24282E"/>
<path d="M565.76 131.79C567.328 131.79 568.6 130.519 568.6 128.95C568.6 127.382 567.328 126.11 565.76 126.11C564.192 126.11 562.92 127.382 562.92 128.95C562.92 130.519 564.192 131.79 565.76 131.79Z" fill="#24282E"/>
<path d="M599.04 131.79C600.608 131.79 601.88 130.519 601.88 128.95C601.88 127.382 600.608 126.11 599.04 126.11C597.471 126.11 596.2 127.382 596.2 128.95C596.2 130.519 597.471 131.79 599.04 131.79Z" fill="#24282E"/>
<path d="M632.33 131.79C633.899 131.79 635.17 130.519 635.17 128.95C635.17 127.382 633.899 126.11 632.33 126.11C630.762 126.11 629.49 127.382 629.49 128.95C629.49 130.519 630.762 131.79 632.33 131.79Z" fill="#24282E"/>
<path d="M266.18 157.36C267.748 157.36 269.02 156.088 269.02 154.52C269.02 152.951 267.748 151.68 266.18 151.68C264.612 151.68 263.34 152.951 263.34 154.52C263.34 156.088 264.612 157.36 266.18 157.36Z" fill="#24282E"/>
<path d="M299.47 157.36C301.038 157.36 302.31 156.088 302.31 154.52C302.31 152.951 301.038 151.68 299.47 151.68C297.901 151.68 296.63 152.951 296.63 154.52C296.63 156.088 297.901 157.36 299.47 157.36Z" fill="#24282E"/>
<path d="M332.76 157.36C334.328 157.36 335.6 156.088 335.6 154.52C335.6 152.951 334.328 151.68 332.76 151.68C331.192 151.68 329.92 152.951 329.92 154.52C329.92 156.088 331.192 157.36 332.76 157.36Z" fill="#24282E"/>
<path d="M366.04 157.36C367.608 157.36 368.88 156.088 368.88 154.52C368.88 152.951 367.608 151.68 366.04 151.68C364.471 151.68 363.2 152.951 363.2 154.52C363.2 156.088 364.471 157.36 366.04 157.36Z" fill="#24282E"/>
<path d="M399.33 157.36C400.899 157.36 402.17 156.088 402.17 154.52C402.17 152.951 400.899 151.68 399.33 151.68C397.762 151.68 396.49 152.951 396.49 154.52C396.49 156.088 397.762 157.36 399.33 157.36Z" fill="#24282E"/>
<path d="M432.61 157.36C434.178 157.36 435.45 156.088 435.45 154.52C435.45 152.951 434.178 151.68 432.61 151.68C431.041 151.68 429.77 152.951 429.77 154.52C429.77 156.088 431.041 157.36 432.61 157.36Z" fill="#24282E"/>
<path d="M465.9 157.36C467.469 157.36 468.74 156.088 468.74 154.52C468.74 152.951 467.469 151.68 465.9 151.68C464.332 151.68 463.06 152.951 463.06 154.52C463.06 156.088 464.332 157.36 465.9 157.36Z" fill="#24282E"/>
<path d="M499.19 157.36C500.758 157.36 502.03 156.088 502.03 154.52C502.03 152.951 500.758 151.68 499.19 151.68C497.622 151.68 496.35 152.951 496.35 154.52C496.35 156.088 497.622 157.36 499.19 157.36Z" fill="#24282E"/>
<path d="M532.47 157.36C534.038 157.36 535.31 156.088 535.31 154.52C535.31 152.951 534.038 151.68 532.47 151.68C530.901 151.68 529.63 152.951 529.63 154.52C529.63 156.088 530.901 157.36 532.47 157.36Z" fill="#24282E"/>
<path d="M565.76 157.36C567.328 157.36 568.6 156.088 568.6 154.52C568.6 152.951 567.328 151.68 565.76 151.68C564.192 151.68 562.92 152.951 562.92 154.52C562.92 156.088 564.192 157.36 565.76 157.36Z" fill="#24282E"/>
<path d="M599.04 157.36C600.608 157.36 601.88 156.088 601.88 154.52C601.88 152.951 600.608 151.68 599.04 151.68C597.471 151.68 596.2 152.951 596.2 154.52C596.2 156.088 597.471 157.36 599.04 157.36Z" fill="#24282E"/>
<path d="M632.33 157.36C633.899 157.36 635.17 156.088 635.17 154.52C635.17 152.951 633.899 151.68 632.33 151.68C630.762 151.68 629.49 152.951 629.49 154.52C629.49 156.088 630.762 157.36 632.33 157.36Z" fill="#24282E"/>
<path d="M266.18 182.94C267.748 182.94 269.02 181.668 269.02 180.1C269.02 178.532 267.748 177.26 266.18 177.26C264.612 177.26 263.34 178.532 263.34 180.1C263.34 181.668 264.612 182.94 266.18 182.94Z" fill="#24282E"/>
<path d="M299.47 182.94C301.038 182.94 302.31 181.668 302.31 180.1C302.31 178.532 301.038 177.26 299.47 177.26C297.901 177.26 296.63 178.532 296.63 180.1C296.63 181.668 297.901 182.94 299.47 182.94Z" fill="#24282E"/>
<path d="M332.76 182.94C334.328 182.94 335.6 181.668 335.6 180.1C335.6 178.532 334.328 177.26 332.76 177.26C331.192 177.26 329.92 178.532 329.92 180.1C329.92 181.668 331.192 182.94 332.76 182.94Z" fill="#24282E"/>
<path d="M366.04 182.94C367.608 182.94 368.88 181.668 368.88 180.1C368.88 178.532 367.608 177.26 366.04 177.26C364.471 177.26 363.2 178.532 363.2 180.1C363.2 181.668 364.471 182.94 366.04 182.94Z" fill="#24282E"/>
<path d="M399.33 182.94C400.899 182.94 402.17 181.668 402.17 180.1C402.17 178.532 400.899 177.26 399.33 177.26C397.762 177.26 396.49 178.532 396.49 180.1C396.49 181.668 397.762 182.94 399.33 182.94Z" fill="#24282E"/>
<path d="M432.61 182.94C434.178 182.94 435.45 181.668 435.45 180.1C435.45 178.532 434.178 177.26 432.61 177.26C431.041 177.26 429.77 178.532 429.77 180.1C429.77 181.668 431.041 182.94 432.61 182.94Z" fill="#24282E"/>
<path d="M465.9 182.94C467.469 182.94 468.74 181.668 468.74 180.1C468.74 178.532 467.469 177.26 465.9 177.26C464.332 177.26 463.06 178.532 463.06 180.1C463.06 181.668 464.332 182.94 465.9 182.94Z" fill="#24282E"/>
<path d="M499.19 182.94C500.758 182.94 502.03 181.668 502.03 180.1C502.03 178.532 500.758 177.26 499.19 177.26C497.622 177.26 496.35 178.532 496.35 180.1C496.35 181.668 497.622 182.94 499.19 182.94Z" fill="#24282E"/>
<path d="M532.47 182.94C534.038 182.94 535.31 181.668 535.31 180.1C535.31 178.532 534.038 177.26 532.47 177.26C530.901 177.26 529.63 178.532 529.63 180.1C529.63 181.668 530.901 182.94 532.47 182.94Z" fill="#24282E"/>
<path d="M565.76 182.94C567.328 182.94 568.6 181.668 568.6 180.1C568.6 178.532 567.328 177.26 565.76 177.26C564.192 177.26 562.92 178.532 562.92 180.1C562.92 181.668 564.192 182.94 565.76 182.94Z" fill="#24282E"/>
<path d="M599.04 182.94C600.608 182.94 601.88 181.668 601.88 180.1C601.88 178.532 600.608 177.26 599.04 177.26C597.471 177.26 596.2 178.532 596.2 180.1C596.2 181.668 597.471 182.94 599.04 182.94Z" fill="#24282E"/>
<path d="M632.33 182.94C633.899 182.94 635.17 181.668 635.17 180.1C635.17 178.532 633.899 177.26 632.33 177.26C630.762 177.26 629.49 178.532 629.49 180.1C629.49 181.668 630.762 182.94 632.33 182.94Z" fill="#24282E"/>
<path d="M257 -28.65V115.41H275.5V-28.65H257ZM266.41 -16.82C265.619 -16.82 264.846 -17.0546 264.188 -17.4941C263.53 -17.9337 263.017 -18.5584 262.714 -19.2893C262.412 -20.0202 262.333 -20.8245 262.487 -21.6004C262.641 -22.3763 263.022 -23.089 263.582 -23.6485C264.141 -24.2079 264.854 -24.5888 265.63 -24.7432C266.406 -24.8975 267.21 -24.8183 267.941 -24.5155C268.672 -24.2128 269.296 -23.7001 269.736 -23.0423C270.175 -22.3845 270.41 -21.6112 270.41 -20.82C270.41 -20.2922 270.306 -19.7696 270.103 -19.2823C269.9 -18.7951 269.602 -18.3528 269.228 -17.9809C268.853 -17.6091 268.409 -17.3151 267.92 -17.1159C267.431 -16.9166 266.908 -16.8161 266.38 -16.82H266.41Z" fill="#FFEA7F"/>
<path d="M256.97 -10.86L266.17 -10.96M256.97 -4.17995L262.53 -4.28995M256.97 2.49005L262.53 2.39005M256.97 9.16005L262.53 9.06004M256.97 15.83L262.53 15.73M256.97 22.5L266.17 22.4M256.97 29.18L262.53 29.08M256.97 35.8501L262.53 35.75M256.97 42.5201L262.53 42.42M256.97 49.19L262.53 49.09M256.97 55.86L266.17 55.76M256.97 62.54L262.53 62.44M256.97 69.2101L262.53 69.11M256.97 75.8801L262.53 75.78M256.97 82.55L262.53 82.45M256.97 89.22L266.17 89.12M256.97 95.9L262.53 95.8M256.97 102.57L262.53 102.47M256.97 109.24L262.53 109.14" stroke="#FFAB70" stroke-width="1.21" stroke-miterlimit="10"/>
<path d="M302.59 83.41L293.87 82.75L294.48 7.85001V-21.88H304.18V8.75999L305.92 80.25C305.93 80.6822 305.849 81.1117 305.682 81.5107C305.516 81.9098 305.268 82.2697 304.955 82.5673C304.641 82.8649 304.269 83.0936 303.861 83.2387C303.454 83.3838 303.021 83.4422 302.59 83.41Z" fill="#FFAB70"/>
<path d="M304.18 -2.92993C303.916 -2.84633 303.664 -2.72868 303.43 -2.57994C303.161 -2.38996 302.936 -2.14442 302.77 -1.85994H294.68V5.62006H302.06C302.06 6.34006 302.14 6.97006 302.14 7.45006C302.14 15.9001 302.84 24.3301 303.19 32.7701C303.7 44.7701 303.44 57.1101 299.49 68.4701C299.131 69.9009 298.33 71.1818 297.2 72.1301C296.258 72.6525 295.248 73.0429 294.2 73.2901L293.97 73.3801L293.89 82.7501L302.61 83.4101C303.041 83.4422 303.474 83.3839 303.881 83.2388C304.289 83.0936 304.661 82.8649 304.975 82.5673C305.288 82.2698 305.536 81.9099 305.702 81.5108C305.869 81.1117 305.95 80.6823 305.94 80.2501L304.2 8.76006L304.18 -2.92993Z" fill="#FB8532"/>
<path d="M282.95 0.490021H277.5V-19.98H282.95L284.77 -10.2L282.95 0.490021Z" fill="#2188FF"/>
<path d="M307.42 3.00007C306.19 3.00007 305.68 2.00007 305.68 0.780067L305.19 -5.48994C305.19 -5.78231 305.248 -6.07181 305.36 -6.3418C305.472 -6.6118 305.637 -6.85698 305.844 -7.06326C306.051 -7.26953 306.297 -7.43284 306.567 -7.54382C306.838 -7.65479 307.128 -7.71126 307.42 -7.70994C307.712 -7.71126 308.001 -7.65474 308.271 -7.54365C308.541 -7.43255 308.786 -7.26907 308.993 -7.06266C309.199 -6.85625 309.363 -6.611 309.474 -6.34106C309.585 -6.07112 309.641 -5.78184 309.64 -5.48994L309.15 0.780067C309.212 1.3034 309.066 1.83017 308.742 2.24587C308.418 2.66158 307.943 2.93262 307.42 3.00007ZM289.83 3.00007C288.6 3.00007 288.09 2.00007 288.09 0.780067L287.6 -5.48994C287.6 -5.78231 287.658 -6.07181 287.77 -6.3418C287.882 -6.6118 288.047 -6.85698 288.254 -7.06326C288.461 -7.26953 288.707 -7.43284 288.977 -7.54382C289.248 -7.65479 289.538 -7.71126 289.83 -7.70994C290.122 -7.71126 290.411 -7.65474 290.681 -7.54365C290.951 -7.43255 291.196 -7.26907 291.403 -7.06266C291.609 -6.85625 291.773 -6.611 291.884 -6.34106C291.995 -6.07112 292.051 -5.78184 292.05 -5.48994L291.56 0.780067C291.622 1.3034 291.476 1.83017 291.152 2.24587C290.828 2.66158 290.353 2.93262 289.83 3.00007Z" fill="#24282E"/>
<path d="M283 -20C282.2 -14.21 281 -0.999999 277.54 0.470001H283L284 -6.53L284.21 -14.21L283 -20Z" fill="#0366D6"/>
<path d="M351.72 76.5801L343 76.0001L343.61 9.11006V-17.4299H353.31V9.92006L355.05 73.7601C355.028 74.168 354.923 74.5673 354.741 74.9332C354.559 75.2991 354.305 75.6241 353.993 75.8881C353.681 76.1522 353.319 76.3498 352.928 76.4687C352.537 76.5877 352.126 76.6256 351.72 76.5801Z" fill="#FFAB70"/>
<path d="M353.31 9.91998V-6.08002C352.54 -6.03502 351.767 -6.05509 351 -6.14002C349.28 -6.35002 347.6 -6.88001 345.86 -6.92001C345.104 -6.93197 344.349 -6.85816 343.61 -6.70001V5.71999L346.94 6.13998L348.89 5.90999C348.21 11.72 349 18.6 349.15 21.77C349.72 33.83 351.58 45.82 351.31 57.91C351.22 62.21 350.47 67.17 346.77 69.36C345.575 69.9602 344.331 70.4554 343.05 70.84V76.01L351.77 76.59C352.176 76.6355 352.587 76.5976 352.978 76.4787C353.369 76.3597 353.731 76.1621 354.043 75.8981C354.355 75.634 354.609 75.3091 354.791 74.9431C354.973 74.5772 355.078 74.178 355.1 73.77L353.31 9.91998Z" fill="#FB8532"/>
<path d="M367.57 0.46994L346.94 2.88994L327.54 0.46994C326.566 -3.09007 326.048 -6.7595 326 -10.4501C326.124 -14.7337 326.633 -18.9975 327.52 -23.1901L347.83 -25.3101L367.55 -23.1901C368.443 -19.1034 368.948 -14.9416 369.06 -10.7601C369.009 -6.97095 368.509 -3.20124 367.57 0.46994Z" fill="#2188FF"/>
<path d="M351 -9.38C349.28 -9.59 347.6 -10.13 345.86 -10.17C342.35 -10.25 339.16 -8.32 335.94 -6.89C333.32 -5.72 329.18 -6.02 326.48 -4.58C326.729 -2.87646 327.083 -1.18992 327.54 0.470001L346.94 2.89L367.57 0.470001C368.516 -3.20037 369.023 -6.97009 369.08 -10.76C369.06 -12.8876 368.907 -15.0118 368.62 -17.12C367.057 -16.1424 365.582 -15.0316 364.21 -13.8C360.5 -10.8 355.73 -8.81 351 -9.38Z" fill="#0366D6"/>
<path d="M357.86 5.82001C356.63 5.82001 356.13 4.82001 356.13 3.60001L355.64 -2.66999C355.639 -2.9619 355.695 -3.25117 355.806 -3.52111C355.917 -3.79105 356.081 -4.0363 356.287 -4.24271C356.494 -4.44912 356.739 -4.61261 357.009 -4.7237C357.279 -4.8348 357.568 -4.89132 357.86 -4.88999C358.152 -4.89131 358.442 -4.83486 358.713 -4.72388C358.983 -4.61291 359.229 -4.44959 359.436 -4.24331C359.643 -4.03703 359.808 -3.79185 359.92 -3.52186C360.032 -3.25186 360.09 -2.96237 360.09 -2.66999L359.6 3.60001C359.662 4.12487 359.514 4.653 359.188 5.06898C358.862 5.48496 358.385 5.75497 357.86 5.82001ZM339.06 5.82001C337.83 5.82001 337.33 4.82001 337.33 3.60001L336.84 -2.66999C336.839 -2.9619 336.895 -3.25117 337.006 -3.52111C337.117 -3.79105 337.281 -4.0363 337.487 -4.24271C337.694 -4.44912 337.939 -4.61261 338.209 -4.7237C338.479 -4.8348 338.768 -4.89132 339.06 -4.88999C339.352 -4.89132 339.641 -4.8348 339.911 -4.7237C340.181 -4.61261 340.426 -4.44912 340.633 -4.24271C340.839 -4.0363 341.003 -3.79105 341.114 -3.52111C341.225 -3.25117 341.281 -2.9619 341.28 -2.66999L340.79 3.60001C340.852 4.12334 340.706 4.65011 340.382 5.06582C340.058 5.48152 339.583 5.75256 339.06 5.82001Z" fill="#24282E"/>
<path d="M509.06 -21.93L515.59 -21.52V-28L508.99 -27.58C508.348 -29.7399 507.017 -31.6306 505.2 -32.9638C503.383 -34.297 501.181 -34.9996 498.927 -34.9644C496.674 -34.9293 494.495 -34.1584 492.72 -32.7693C490.946 -31.3801 489.675 -29.4489 489.1 -27.27L481.78 -27.73V-21.29L489.17 -21.75C489.58 -20.3519 490.282 -19.0563 491.228 -17.9482C492.174 -16.8401 493.343 -15.9444 494.66 -15.32V40.87C492.962 41.7984 491.543 43.1643 490.552 44.8261C489.56 46.4879 489.031 48.3849 489.02 50.3201C489.02 54.5501 491.44 59.32 496.27 59.84C496.74 59.89 494.39 47.6301 494.39 47.6301L505.13 47.5C505.13 47.5 502.61 59.7301 503.13 59.5701C507.64 58.1801 511.32 55.1701 511.32 50.3201C511.304 48.1303 510.628 45.9963 509.379 44.1977C508.129 42.3991 506.366 41.0196 504.32 40.2401V-15.76C506.642 -17.1227 508.342 -19.3356 509.06 -21.93ZM499.22 -20.84C498.53 -20.84 497.855 -21.0446 497.281 -21.4281C496.707 -21.8116 496.26 -22.3567 495.996 -22.9944C495.732 -23.6321 495.662 -24.3338 495.797 -25.0108C495.932 -25.6878 496.264 -26.3097 496.752 -26.7978C497.24 -27.2858 497.862 -27.6182 498.539 -27.7529C499.216 -27.8876 499.918 -27.8184 500.556 -27.5543C501.193 -27.2901 501.738 -26.8428 502.122 -26.2689C502.505 -25.695 502.71 -25.0202 502.71 -24.33C502.71 -23.8716 502.62 -23.4178 502.444 -22.9944C502.269 -22.571 502.012 -22.1862 501.688 -21.8622C501.364 -21.5381 500.979 -21.281 500.556 -21.1056C500.132 -20.9302 499.678 -20.84 499.22 -20.84Z" fill="#79B8FF"/>
<path d="M494.66 4.64001V11.03L504.32 5.07002V-0.609985L494.66 4.64001ZM496.27 59.88C496.74 59.93 494.39 47.67 494.39 47.67L505.13 47.54C505.13 47.54 502.61 59.77 503.13 59.61C507.64 58.22 511.32 55.21 511.32 50.36C511.304 48.1703 510.628 46.0363 509.379 44.2377C508.129 42.439 506.366 41.0596 504.32 40.28V9.51001L494.66 16.37V40.91C492.962 41.8383 491.543 43.2043 490.552 44.8661C489.56 46.5278 489.031 48.4248 489.02 50.36C489 54.59 491.44 59.35 496.27 59.88Z" fill="#2188FF"/>
<path d="M504.26 40.28C503.95 35.61 503.72 30.95 503.6 26.28L503.39 19.28L503.31 12.28L503.24 5.28002V-1.71998C503.31 -6.37998 503.24 -11.05 503.46 -15.72V-16.22L503.84 -16.42C504.938 -17.0089 505.909 -17.8073 506.7 -18.77C507.496 -19.7542 508.112 -20.8714 508.52 -22.07L508.66 -22.48H509.02C511.19 -22.21 513.36 -21.97 515.53 -21.65V-21.52L508.99 -21.92L509.07 -21.98C508.363 -19.3462 506.655 -17.0928 504.31 -15.7V-15.77V40.23L504.26 40.28Z" fill="#2188FF"/>
<path d="M476.28 -23.36L480.28 -23.02V-28.39L476.28 -28.04C475.748 -29.8452 474.639 -31.4264 473.123 -32.5416C471.608 -33.6569 469.768 -34.2447 467.886 -34.2153C466.004 -34.1858 464.184 -33.5405 462.704 -32.3783C461.224 -31.2161 460.165 -29.601 459.69 -27.78L455.69 -28.17V-22.79L459.79 -23.18C460.132 -22.0139 460.717 -20.9335 461.506 -20.0097C462.296 -19.0859 463.272 -18.3396 464.37 -17.82V30.25C462.953 31.0205 461.77 32.1574 460.943 33.5418C460.116 34.9263 459.676 36.5075 459.67 38.12C459.67 41.65 461.67 45.62 465.67 46.07C466.06 46.07 464.1 35.89 464.1 35.89L473.1 35.77C473.1 35.77 470.99 45.98 471.42 45.85C475.17 44.68 478.24 42.18 478.24 38.12C478.226 36.2972 477.664 34.5207 476.626 33.0224C475.587 31.524 474.122 30.3732 472.42 29.72V-18.17C474.331 -19.3342 475.715 -21.195 476.28 -23.36ZM468.08 -22.46C467.504 -22.46 466.942 -22.6306 466.463 -22.9504C465.985 -23.2702 465.612 -23.7246 465.392 -24.2564C465.171 -24.7881 465.114 -25.3732 465.226 -25.9377C465.338 -26.5022 465.615 -27.0207 466.022 -27.4277C466.429 -27.8346 466.948 -28.1118 467.512 -28.2241C468.077 -28.3363 468.662 -28.2787 469.194 -28.0585C469.725 -27.8382 470.18 -27.4652 470.5 -26.9867C470.819 -26.5081 470.99 -25.9455 470.99 -25.37C470.99 -24.5982 470.683 -23.858 470.138 -23.3123C469.592 -22.7666 468.852 -22.46 468.08 -22.46Z" fill="#79B8FF"/>
<path d="M464.28 -1.20998V4.12003L472.33 -0.839966V-5.58997L464.28 -1.20998ZM465.62 46.07C466.01 46.07 464.05 35.89 464.05 35.89L473.05 35.77C473.05 35.77 470.94 45.98 471.37 45.85C475.12 44.68 478.19 42.18 478.19 38.12C478.176 36.2972 477.614 34.5207 476.576 33.0224C475.537 31.524 474.072 30.3732 472.37 29.72V2.86003L464.32 8.57004V30.25C462.903 31.0205 461.72 32.1574 460.893 33.5418C460.066 34.9263 459.626 36.5075 459.62 38.12C459.58 41.65 461.59 45.62 465.62 46.07Z" fill="#2188FF"/>
<path d="M472.27 29.72C471.96 25.72 471.73 21.72 471.61 17.72L471.4 11.72L471.33 5.71998L471.26 -0.280022V-6.28002C471.33 -10.28 471.26 -14.28 471.49 -18.28V-18.78L471.86 -18.98C472.768 -19.4549 473.573 -20.1039 474.23 -20.89C474.893 -21.6977 475.411 -22.6147 475.76 -23.6L475.91 -24.02L476.27 -23.95C477.59 -23.71 478.91 -23.49 480.22 -23.19V-23L476.22 -23.33H476.29C475.696 -21.1263 474.259 -19.2443 472.29 -18.09V-18.16V5.77998L472.24 29.73L472.27 29.72Z" fill="#2188FF"/>
<path d="M440 -23.22L444.52 -22.93V-27.39L439.95 -27.1C439.51 -28.5982 438.591 -29.9109 437.334 -30.8371C436.077 -31.7633 434.551 -32.2519 432.99 -32.228C431.429 -32.2042 429.919 -31.6693 428.69 -30.7052C427.462 -29.7411 426.584 -28.4009 426.19 -26.89L421.12 -27.21V-22.75L426.24 -23.07C426.523 -22.1019 427.008 -21.2048 427.663 -20.4378C428.318 -19.6708 429.128 -19.0513 430.04 -18.62V22.51C428.865 23.1519 427.883 24.0972 427.197 25.2474C426.511 26.3977 426.146 27.7108 426.14 29.05C426.14 31.97 427.81 35.27 431.14 35.64C431.46 35.64 429.84 27.19 429.84 27.19L437.27 27.1C437.27 27.1 435.53 35.56 435.88 35.45C439 34.45 441.54 32.45 441.54 29.05C441.533 27.5327 441.068 26.0529 440.206 24.804C439.344 23.5552 438.126 22.5953 436.71 22.05V-18.95C438.322 -19.8888 439.503 -21.4215 440 -23.22ZM433.19 -22.47C432.711 -22.47 432.243 -22.6122 431.844 -22.8786C431.446 -23.1449 431.136 -23.5235 430.953 -23.9662C430.77 -24.409 430.723 -24.8961 430.817 -25.3658C430.911 -25.8355 431.143 -26.2667 431.482 -26.6047C431.822 -26.9428 432.254 -27.1725 432.724 -27.2647C433.194 -27.357 433.681 -27.3076 434.123 -27.1229C434.565 -26.9382 434.942 -26.6265 435.207 -26.2272C435.472 -25.8279 435.612 -25.3591 435.61 -24.88C435.61 -24.5593 435.546 -24.2417 435.422 -23.946C435.298 -23.6503 435.116 -23.3824 434.887 -23.158C434.657 -22.9335 434.386 -22.757 434.088 -22.6389C433.789 -22.5208 433.471 -22.4634 433.15 -22.47H433.19Z" fill="#79B8FF"/>
<path d="M429.58 -4.19997V0.220032L436.26 -3.89996V-7.83997L429.58 -4.19997ZM431.11 35.64C431.43 35.64 429.81 27.19 429.81 27.19L437.24 27.1C437.24 27.1 435.5 35.56 435.85 35.45C438.97 34.45 441.51 32.45 441.51 29.05C441.503 27.5327 441.038 26.0529 440.176 24.8041C439.314 23.5552 438.096 22.5954 436.68 22.05V-1.45998L430 3.28003V22.51C428.825 23.1519 427.843 24.0972 427.157 25.2475C426.471 26.3977 426.106 27.7108 426.1 29.05C426.1 32 427.77 35.27 431.11 35.64Z" fill="#2188FF"/>
<path d="M436.62 22.07C436.31 18.66 436.08 15.24 435.96 11.83L435.75 6.7L435.68 1.58L435.6 -3.53999V-8.67C435.67 -12.08 435.6 -15.5 435.83 -18.91V-19.42L436.2 -19.61C436.962 -19.9859 437.642 -20.5094 438.2 -21.15C438.741 -21.8049 439.17 -22.5449 439.47 -23.34L439.63 -23.75H439.97C441.47 -23.52 442.97 -23.33 444.47 -23.04V-22.92L439.95 -23.2H440.02C439.531 -21.3717 438.347 -19.8069 436.72 -18.84V-18.91V22.07H436.62Z" fill="#2188FF"/>
<path d="M401.38 131.89C401.08 126.12 409.27 97.89 398.96 97.89C384.7 98.19 394.71 126.4 394.71 132.77C394.71 139.14 389.56 137.31 389.86 143.38H407.75C406.84 138 401.69 137.65 401.38 131.89ZM397.74 108.23C397.147 108.23 396.567 108.054 396.073 107.724C395.58 107.395 395.195 106.926 394.968 106.378C394.741 105.83 394.682 105.227 394.798 104.645C394.913 104.063 395.199 103.528 395.619 103.109C396.038 102.689 396.573 102.403 397.155 102.288C397.737 102.172 398.34 102.231 398.888 102.458C399.436 102.685 399.905 103.07 400.234 103.563C400.564 104.057 400.74 104.637 400.74 105.23C400.74 106.026 400.424 106.789 399.861 107.351C399.299 107.914 398.536 108.23 397.74 108.23Z" fill="#FFAB70"/>
<path d="M389.56 141.89H407.45V148.26H389.56V141.89Z" fill="#FFEA7F"/>
<path d="M406.638 166.6C405.638 166.43 405.418 165.71 404.698 164.86L403.698 166.79C403.608 166.94 403.518 167.11 403.358 167.17C403.028 167.32 402.698 166.97 402.498 166.66L401.128 164.52C400.934 165.763 400.289 166.891 399.318 167.69L398.038 164.3C397.534 165.543 396.9 166.73 396.148 167.84C395.357 166.421 394.876 164.849 394.738 163.23C393.881 164.383 393.206 165.662 392.738 167.02C391.973 166.319 391.471 165.376 391.318 164.35C390.848 165.63 390.838 166.52 389.448 166.69V147.6H406.718C406.718 147.6 406.898 164.87 406.638 166.6Z" fill="#30363D"/>
<path d="M397.79 105.65C396.57 105.65 396.06 104.65 396.06 103.43L395.57 97.16C395.57 96.5712 395.804 96.0065 396.22 95.5902C396.637 95.1739 397.201 94.94 397.79 94.94C398.082 94.9386 398.372 94.9951 398.643 95.1061C398.913 95.217 399.159 95.3804 399.366 95.5866C399.573 95.7929 399.738 96.0381 399.85 96.3081C399.962 96.5781 400.02 96.8676 400.02 97.16L399.53 103.43C399.592 103.955 399.444 104.483 399.118 104.899C398.792 105.315 398.314 105.585 397.79 105.65Z" fill="#24282E"/>
<path d="M401.53 131.33C401.36 128.03 403.97 117.33 404.29 108.84C403.23 111.63 403.34 116.26 402.69 118.58C401.732 122.58 399.774 126.272 397 129.31C396.107 130.107 395.395 131.086 394.91 132.18V132.24C394.91 132.69 394.91 133.09 394.86 133.47C394.895 133.61 394.942 133.748 395 133.88C395.351 134.431 395.841 134.879 396.42 135.18C397.791 136.017 399.214 136.765 400.68 137.42C401.932 138.029 403.291 138.389 404.68 138.48C403.3 136.48 401.73 135 401.53 131.33Z" fill="#FB8532"/>
<path d="M434.29 131.73C433.98 125.97 442.17 97.73 431.86 97.73C417.61 98.03 427.62 126.23 427.62 132.6C427.62 138.97 424.14 137.15 424.38 143.22H439C438.24 137.8 434.59 137.5 434.29 131.73ZM430.65 108.08C430.057 108.08 429.477 107.904 428.983 107.574C428.49 107.245 428.105 106.776 427.878 106.228C427.651 105.68 427.592 105.077 427.708 104.495C427.823 103.913 428.109 103.378 428.529 102.959C428.948 102.539 429.483 102.253 430.065 102.138C430.647 102.022 431.25 102.081 431.798 102.308C432.346 102.535 432.815 102.92 433.144 103.413C433.474 103.907 433.65 104.487 433.65 105.08C433.65 105.876 433.334 106.639 432.771 107.201C432.209 107.764 431.446 108.08 430.65 108.08Z" fill="#FFAB70"/>
<path d="M424.14 141.74H438.74V148.11H424.14V141.74Z" fill="#FFEA7F"/>
<path d="M438.038 166.45C437.178 166.28 437.038 165.56 436.458 164.71L435.638 166.64C435.592 166.793 435.497 166.927 435.368 167.02C435.098 167.17 434.828 166.82 434.668 166.51L433.548 164.37C433.415 165.56 432.895 166.674 432.068 167.54L431.068 164.15C430.663 165.374 430.148 166.559 429.528 167.69C428.876 166.233 428.486 164.672 428.378 163.08C427.673 164.266 427.128 165.541 426.758 166.87C426.115 166.115 425.711 165.185 425.598 164.2C425.218 165.48 425.208 166.36 424.078 166.54V147.44H438.178C438.178 147.44 438.218 164.72 438.038 166.45Z" fill="#30363D"/>
<path d="M430.65 105.5C429.42 105.5 428.92 104.5 428.92 103.28L428.42 97.01C428.42 96.4186 428.655 95.8514 429.073 95.4332C429.491 95.015 430.059 94.78 430.65 94.78C430.942 94.78 431.232 94.8378 431.502 94.95C431.772 95.0622 432.017 95.2266 432.223 95.4338C432.43 95.641 432.593 95.8869 432.704 96.1574C432.815 96.4279 432.871 96.7177 432.87 97.01L432.38 103.28C432.442 103.803 432.296 104.33 431.972 104.746C431.648 105.162 431.173 105.433 430.65 105.5Z" fill="#24282E"/>
<path d="M434.29 131.73C434.11 128.43 436.73 117.73 437.05 109.25C435.99 112.04 436.05 116.67 435.45 118.99C434.474 122.996 432.495 126.688 429.7 129.72C428.811 130.517 428.099 131.491 427.61 132.58V132.64C427.61 133.09 427.61 133.5 427.55 133.87C427.582 134.011 427.629 134.149 427.69 134.28C428.039 134.836 428.534 135.285 429.12 135.58C430.485 136.421 431.905 137.169 433.37 137.82C434.624 138.427 435.981 138.79 437.37 138.89C436.05 136.88 434.48 135.43 434.29 131.73Z" fill="#FB8532"/>
<path d="M466.44 104.36C465.21 104.36 464.7 103.36 464.7 102.13L464.21 95.87C464.21 95.2786 464.445 94.7114 464.863 94.2932C465.281 93.875 465.849 93.64 466.44 93.64C467.03 93.6427 467.594 93.8788 468.01 94.2967C468.426 94.7146 468.66 95.2803 468.66 95.87L468.17 102.13C468.235 102.655 468.09 103.184 467.765 103.602C467.441 104.02 466.965 104.293 466.44 104.36Z" fill="#24282E"/>
<path d="M632 73.35C629.297 73.348 626.655 74.1477 624.407 75.6479C622.159 77.1482 620.407 79.2815 619.372 81.7779C618.337 84.2743 618.065 87.0217 618.592 89.6725C619.119 92.3232 620.42 94.7581 622.331 96.669C624.242 98.58 626.677 99.8812 629.327 100.408C631.978 100.935 634.726 100.663 637.222 99.6283C639.719 98.5931 641.852 96.8407 643.352 94.5928C644.852 92.3449 645.652 89.7025 645.65 87C645.647 83.3806 644.208 79.9102 641.649 77.3509C639.09 74.7916 635.619 73.3526 632 73.35ZM632 97.95C629.836 97.9401 627.723 97.2892 625.929 96.0796C624.135 94.87 622.739 93.1558 621.918 91.1535C621.097 89.1512 620.888 86.9506 621.317 84.8296C621.746 82.7085 622.794 80.7621 624.328 79.2361C625.863 77.7101 627.815 76.673 629.938 76.2556C632.062 75.8383 634.261 76.0595 636.259 76.8912C638.257 77.723 639.963 79.1281 641.163 80.929C642.363 82.7299 643.002 84.846 643 87.01C643.007 88.4559 642.727 89.8888 642.176 91.2258C641.625 92.5628 640.815 93.7774 639.792 94.7994C638.769 95.8214 637.554 96.6304 636.217 97.1798C634.879 97.7291 633.446 98.0079 632 98V97.95Z" fill="#24282E"/>
<path d="M632.11 80.86C630.89 80.86 630.38 79.86 630.38 78.63L629.89 72.37C629.89 71.7803 630.124 71.2146 630.54 70.7967C630.956 70.3788 631.52 70.1427 632.11 70.14C632.701 70.14 633.269 70.375 633.687 70.7932C634.105 71.2114 634.34 71.7786 634.34 72.37L633.85 78.63C633.882 78.8907 633.863 79.1551 633.793 79.4083C633.723 79.6614 633.603 79.8983 633.442 80.1054C633.28 80.3125 633.08 80.4857 632.851 80.6152C632.622 80.7447 632.371 80.8278 632.11 80.86Z" fill="#24282E"/>
<path d="M631.8 125.53C629.86 125.53 627.963 126.105 626.35 127.183C624.737 128.261 623.479 129.793 622.737 131.586C621.994 133.378 621.8 135.351 622.178 137.254C622.557 139.157 623.491 140.905 624.863 142.277C626.235 143.649 627.983 144.583 629.886 144.962C631.789 145.34 633.762 145.146 635.554 144.403C637.347 143.661 638.879 142.403 639.957 140.79C641.035 139.177 641.61 137.28 641.61 135.34C641.607 132.739 640.573 130.245 638.734 128.406C636.895 126.567 634.401 125.533 631.8 125.53ZM631.8 143.2C630.245 143.2 628.726 142.739 627.433 141.875C626.141 141.012 625.133 139.784 624.538 138.348C623.943 136.912 623.788 135.331 624.091 133.807C624.394 132.282 625.143 130.881 626.242 129.782C627.341 128.683 628.742 127.934 630.267 127.631C631.791 127.328 633.372 127.483 634.808 128.078C636.244 128.673 637.472 129.681 638.335 130.973C639.199 132.266 639.66 133.785 639.66 135.34C639.66 137.425 638.832 139.424 637.358 140.898C635.884 142.372 633.885 143.2 631.8 143.2Z" fill="#24282E"/>
<path d="M632 131.57C630.77 131.57 630.27 130.57 630.27 129.34L629.78 123.07C629.78 122.481 630.014 121.917 630.43 121.5C630.847 121.084 631.411 120.85 632 120.85C632.59 120.85 633.155 121.084 633.573 121.5C633.991 121.916 634.227 122.48 634.23 123.07L633.74 129.34C633.772 129.601 633.753 129.865 633.683 130.118C633.613 130.371 633.493 130.608 633.332 130.815C633.17 131.022 632.969 131.196 632.741 131.325C632.512 131.455 632.261 131.538 632 131.57Z" fill="#24282E"/>
<path d="M534.51 179.7C533.28 179.7 532.77 178.7 532.77 177.48L532.28 171.21C532.28 170.918 532.338 170.628 532.45 170.358C532.562 170.088 532.727 169.843 532.934 169.637C533.141 169.43 533.387 169.267 533.657 169.156C533.928 169.045 534.218 168.989 534.51 168.99C535.099 168.99 535.663 169.224 536.08 169.64C536.496 170.057 536.73 170.621 536.73 171.21L536.24 177.48C536.302 178.003 536.156 178.53 535.832 178.946C535.508 179.361 535.033 179.633 534.51 179.7ZM540.33 -1.05005H624.84V1.57996H540.33V-1.05005Z" fill="#24282E"/>
<path d="M540.94 3.29999C539.82 3.29999 539.36 2.38999 539.36 1.29999L538.92 -4.39001C538.92 -4.92045 539.131 -5.42916 539.506 -5.80423C539.881 -6.1793 540.39 -6.39001 540.92 -6.39001C541.45 -6.39001 541.959 -6.1793 542.334 -5.80423C542.709 -5.42916 542.92 -4.92045 542.92 -4.39001L542.48 1.29999C542.524 1.76639 542.39 2.23222 542.104 2.60342C541.818 2.97463 541.402 3.22358 540.94 3.29999ZM624.64 3.29999C623.53 3.29999 623.07 2.38999 623.07 1.29999L622.62 -4.39001C622.62 -4.92045 622.831 -5.42916 623.206 -5.80423C623.581 -6.1793 624.09 -6.39001 624.62 -6.39001C625.15 -6.39001 625.659 -6.1793 626.034 -5.80423C626.409 -5.42916 626.62 -4.92045 626.62 -4.39001L626.17 1.29999C626.215 1.76493 626.082 2.2295 625.798 2.60046C625.514 2.97143 625.1 3.22133 624.64 3.29999Z" fill="#24282E"/>
<path d="M557.72 3.29999C556.6 3.29999 556.15 2.38999 556.15 1.29999L555.7 -4.39001C555.7 -4.92045 555.911 -5.42916 556.286 -5.80423C556.661 -6.1793 557.17 -6.39001 557.7 -6.39001C558.23 -6.39001 558.739 -6.1793 559.114 -5.80423C559.489 -5.42916 559.7 -4.92045 559.7 -4.39001L559.26 1.29999C559.304 1.76639 559.17 2.23222 558.884 2.60342C558.598 2.97463 558.182 3.22358 557.72 3.29999Z" fill="#24282E"/>
<path d="M581.88 48.89H582.79L583.78 44.34H580.9L581.88 48.89Z" fill="#24282E"/>
<path d="M600.39 38.12H597.75L597.55 2.83997H600.58L600.39 38.12Z" fill="#C8E1FF"/>
<path d="M602.48 0.589996C601.32 -1.41 601.32 -4.87 601.32 -4.87H597.32C597.32 -4.87 597.67 -1.56 596.02 0.589996H594.13V3.92999H604V0.589996H602.48Z" fill="#F66A0A"/>
<path d="M598.72 42.52H599.51L600.37 37.97H597.86L598.72 42.52Z" fill="#C8E1FF"/>
<path d="M591.28 3.29999C590.17 3.29999 589.71 2.38999 589.71 1.29999L589.26 -4.39001C589.26 -4.92045 589.471 -5.42916 589.846 -5.80423C590.221 -6.1793 590.73 -6.39001 591.26 -6.39001C591.79 -6.39001 592.299 -6.1793 592.674 -5.80423C593.049 -5.42916 593.26 -4.92045 593.26 -4.39001L592.81 1.29999C592.855 1.76493 592.722 2.2295 592.438 2.60046C592.154 2.97143 591.74 3.22133 591.28 3.29999Z" fill="#24282E"/>
<path d="M614.33 2.83997H617.36V27.2H614.33V2.83997Z" fill="#C8E1FF"/>
<path d="M619.26 0.589996C618.1 -1.41 618.1 -4.87 618.1 -4.87H614.1C614.1 -4.87 614.45 -1.56 612.81 0.589996H610.91V3.92999H620.78V0.589996H619.26Z" fill="#F66A0A"/>
<path d="M615.45 31.6001H616.35L617.34 27.05H614.46L615.45 31.6001Z" fill="#C8E1FF"/>
<path d="M608.06 3.29999C606.95 3.29999 606.49 2.38999 606.49 1.29999L606.04 -4.39001C606.04 -4.92045 606.251 -5.42916 606.626 -5.80423C607.001 -6.1793 607.51 -6.39001 608.04 -6.39001C608.57 -6.39001 609.079 -6.1793 609.454 -5.80423C609.829 -5.42916 610.04 -4.92045 610.04 -4.39001L609.59 1.29999C609.635 1.76493 609.502 2.2295 609.218 2.60046C608.934 2.97143 608.52 3.22133 608.06 3.29999Z" fill="#24282E"/>
<path d="M814.156 10.71L818.968 10.103L822.921 41.394L818.109 42.002L814.156 10.71Z" fill="#1B1F25"/>
<path d="M826.624 10.3621L830.493 10.4641L829.662 41.9931L825.792 41.8911L826.624 10.3621Z" fill="#30363D"/>
<path d="M833.894 11.126L837.718 11.72L832.877 42.886L829.053 42.292L833.894 11.126Z" fill="#1B1F25"/>
<path d="M813.07 31.61H840.57V68H813.07V31.61Z" fill="#1B1F25"/>
<path d="M731.6 52.73H806V68.1H731.6V52.73Z" fill="#30363D"/>
<path d="M740.79 42.6799H802.85V54.1399H740.79V42.6799Z" fill="#1B1F25"/>
<path d="M387.28 221.96H579.56V228.33H387.28V221.96Z" fill="#30363D"/>
<path d="M381.82 220.44H582.89V223.17H381.82V220.44Z" fill="#1B1F25"/>
<path d="M479 224.76C479 233.15 475.65 239.95 471.52 239.95C467.39 239.95 464.03 233.15 464.03 224.76C464.03 221.08 468.41 209.68 468.41 209.68C469.444 209.584 470.482 209.547 471.52 209.57C475.65 209.57 479 216.37 479 224.76Z" fill="#1B1F25"/>
<path d="M468.56 239.95C472.691 239.95 476.04 233.149 476.04 224.76C476.04 216.371 472.691 209.57 468.56 209.57C464.429 209.57 461.08 216.371 461.08 224.76C461.08 233.149 464.429 239.95 468.56 239.95Z" fill="#24282E"/>
<path d="M466.13 207.55L466.89 208.31L462.64 209.14L462.34 208.08L466.13 207.55ZM476.29 208.31L477.05 209.75L472.8 211.34L472.5 209.32L476.29 208.31Z" fill="#24282E"/>
<path d="M468.1 229.84C469.078 229.84 469.87 228.255 469.87 226.3C469.87 224.345 469.078 222.76 468.1 222.76C467.122 222.76 466.33 224.345 466.33 226.3C466.33 228.255 467.122 229.84 468.1 229.84Z" fill="#1B1F25"/>
<path d="M340.58 227.01H367.27V240.35H340.58V227.01Z" fill="#30363D"/>
<path d="M533.89 354.19H424.43L423.07 240.15H535.88L533.89 354.19Z" fill="#1B1F25"/>
<path d="M423.07 239.55H535.67V252.29H423.07V239.55Z" fill="#30363D"/>
<path d="M403.84 352.87L424.43 353.88L423.07 240.15H401.84L403.84 352.87ZM498.26 297.49H492.26V284.13H495.2C510.76 284.13 528.39 284.22 538.92 273.72C545.79 266.87 549.28 255.57 549.28 240.14H562.62C562.62 259.51 557.95 273.59 548.34 283.14C534.7 296.73 514.92 297.49 498.26 297.49Z" fill="#1B1F25"/>
<path d="M491 283.52H491.61V296.86H491V283.52ZM497.79 296.83L497.59 283.48H498.79L499.02 296.82L497.79 296.83ZM505.28 296.62L504.7 283.29L505.87 283.23L506.53 296.56L505.28 296.62ZM512.89 296.11L511.65 282.82L512.78 282.71L514.18 295.98L512.89 296.11ZM520.63 295.11L518.38 282L519.49 281.8L521.92 294.92L520.63 295.11ZM528.45 293.37L524.8 280.53L525.8 280.23L529.8 292.97L528.45 293.37ZM536.24 290.53L530.71 278.39L531.62 277.95L537.52 289.95L536.24 290.53ZM543.68 286.24L535.88 275.41L536.67 274.82L544.84 285.38L543.68 286.24ZM550.17 280.36L540.17 271.54L540.79 270.81L551.13 279.24C550.82 279.61 550.5 280 550.17 280.35V280.36ZM555.17 273.22L543.49 266.77C543.65 266.48 543.81 266.18 543.96 265.88L555.85 272C555.64 272.39 555.41 272.8 555.19 273.21L555.17 273.22ZM558.56 265.46L545.91 261.2C546.02 260.88 546.13 260.55 546.23 260.2L559 264.12C558.87 264.57 558.73 265 558.58 265.45L558.56 265.46ZM560.56 257.51L547.51 255C547.58 254.64 547.64 254.28 547.7 253.92L560.86 256.14C560.79 256.62 560.71 257.06 560.63 257.5L560.56 257.51ZM561.56 249.59L548.26 248.52C548.26 248.16 548.26 247.78 548.34 247.41L561.65 248.28L561.56 249.59ZM561.97 241.67H548.63L548.62 241.11L561.97 241.02V241.67Z" fill="#30363D"/>
<path d="M499.34 308.09C496.009 308.092 492.751 307.106 489.98 305.256C487.21 303.406 485.05 300.777 483.774 297.699C482.498 294.622 482.164 291.235 482.813 287.967C483.463 284.7 485.067 281.698 487.422 279.342C489.778 276.987 492.78 275.383 496.047 274.733C499.315 274.084 502.701 274.418 505.779 275.694C508.856 276.97 511.486 279.13 513.336 281.9C515.186 284.671 516.172 287.929 516.17 291.26C516.165 295.722 514.39 300 511.235 303.155C508.08 306.31 503.802 308.085 499.34 308.09ZM499.34 279.28C496.967 279.28 494.647 279.984 492.673 281.302C490.7 282.621 489.162 284.495 488.253 286.688C487.345 288.881 487.108 291.293 487.571 293.621C488.034 295.949 489.176 298.087 490.855 299.765C492.533 301.444 494.671 302.586 496.999 303.049C499.327 303.512 501.739 303.275 503.932 302.367C506.125 301.458 507.999 299.92 509.318 297.947C510.636 295.973 511.34 293.653 511.34 291.28C511.34 288.097 510.076 285.045 507.825 282.795C505.575 280.544 502.523 279.28 499.34 279.28Z" fill="#30363D"/>
<path d="M489.18 285.04C491.356 285.04 493.12 283.276 493.12 281.1C493.12 278.924 491.356 277.16 489.18 277.16C487.004 277.16 485.24 278.924 485.24 281.1C485.24 283.276 487.004 285.04 489.18 285.04Z" fill="#30363D"/>
<path d="M863.42 369.75L679.03 364.09V66.48H863.42V369.75Z" fill="#1B1F25"/>
<path d="M863.42 66.48L886.07 86.7V347.92L863.42 369.75V66.48ZM688.032 81.577L851.789 79.548L852.104 104.936L688.347 106.966L688.032 81.577Z" fill="#30363D"/>
<path d="M683.522 74.345L855.519 72.213L855.647 82.523L683.65 84.654L683.522 74.345Z" fill="#24282E"/>
<path d="M688.057 125.89L851.826 125.119L852.009 164.109L688.241 164.88L688.057 125.89Z" fill="#30363D"/>
<path d="M683.593 118.642L855.601 117.832L855.65 128.142L683.642 128.952L683.593 118.642Z" fill="#24282E"/>
<path d="M688.13 184.35H851.9V223.34H688.13V184.35Z" fill="#30363D"/>
<path d="M683.758 175.914L855.751 178.376L855.603 188.686L683.611 186.223L683.758 175.914Z" fill="#24282E"/>
<path d="M687.93 244.208L851.688 242.208L852.164 281.194L688.406 283.195L687.93 244.208Z" fill="#30363D"/>
<path d="M683.411 236.986L855.408 234.885L855.534 245.194L683.537 247.295L683.411 236.986Z" fill="#24282E"/>
<path d="M688.13 302.02H851.9V341.01H688.13V302.02Z" fill="#30363D"/>
<path d="M683.781 293.72L855.781 295.672L855.663 305.982L683.664 304.03L683.781 293.72Z" fill="#24282E"/>
<path d="M80.1 112.53L84.6 112.45L83.63 75.9299L79.13 76.0099L80.1 112.53Z" fill="#6D7481"/>
<path d="M76.33 113.2L80.79 112.75L75.15 76.51L70.7 76.97L76.33 113.2Z" fill="#1B1F25"/>
<path d="M99.43 132.7H67.42V92.42H99.43V132.7Z" fill="#24282E"/>
<path d="M158.48 132.78H113.47V119.57H158.48V132.78Z" fill="#1B1F25"/>
<path d="M5.03 366.12L219.67 361.74V131.53H5.03V366.12Z" fill="#30363D"/>
<path d="M5.03 131.53L-21.33 147.17V349.22L5.03 366.12V131.53ZM18.22 167.4L208.84 168.96L209.2 149.32L18.58 147.76L18.22 167.4Z" fill="#24282E"/>
<path d="M14.09 150.07L214.31 151.71L214.46 143.73L14.24 142.09L14.09 150.07Z" fill="#24282E"/>
<path d="M18.32 213.12L208.95 213.71L209.17 183.56L18.53 182.96L18.32 213.12Z" fill="#1B1F25"/>
<path d="M16.05 185.3L214.3 185.92L214.36 177.94L16.11 177.32L16.05 185.3Z" fill="#24282E"/>
<path d="M209.08 258.92H18.44V228.76H209.08V258.92Z" fill="#1B1F25"/>
<path d="M14.09 232.06L214.31 230.17L214.13 222.19L13.92 224.09L14.09 232.06Z" fill="#24282E"/>
<path d="M18.12 303.66L208.74 305.21L209.3 275.05L18.68 273.5L18.12 303.66Z" fill="#1B1F25"/>
<path d="M14.19 275.81L214.4 277.44L214.55 269.46L14.33 267.83L14.19 275.81Z" fill="#24282E"/>
<path d="M209.08 349.94H18.44V319.78H209.08V349.94Z" fill="#1B1F25"/>
<path d="M14.07 322.89L214.29 321.38L214.15 313.4L13.94 314.92L14.07 322.89Z" fill="#24282E"/>
<path d="M604.63 240.76H367.26L366.46 227.01L605.84 228.23L604.63 240.76Z" fill="#1B1F25"/>
<path d="M167.4 200.22C165.49 213.04 176.4 235.38 191.4 239.55C198.68 241.55 203.64 231.55 208.4 228.02" stroke="#218BFF" stroke-width="2.43" stroke-miterlimit="10"/>
<path d="M223.41 223.7L207.17 237L166.11 199.66C159.44 193.56 159.03 183.57 165.8 177.88C172.6 172.17 183.11 173.73 188.74 180.75L223.41 223.7Z" fill="#FFAB70"/>
<path d="M210.58 226C206.11 230 204.43 234.7 206.71 236.55C208.99 238.4 213.97 236.77 218.14 233.12C222.31 229.47 224.25 224.84 222.36 222.77C220.47 220.7 215.07 222 210.58 226Z" fill="#FB8532"/>
<path d="M224.77 231.35C222.5 231.54 218.77 228.35 218.77 228.35C216.53 227.82 213.69 229.77 213.56 231.67C214.386 233.849 214.95 236.118 215.24 238.43L224.77 231.35Z" fill="#FFAB70"/>
<path d="M213.85 230.67C215.99 233.67 223.67 230.95 223.67 230.95L219.91 235.71L215.52 238.77L213.52 231.66L213.85 230.67Z" fill="#FB8532"/>
<path d="M218.76 234.23C215.06 237.47 212.94 240.8 213.99 241.65C215.04 242.5 218.72 240.65 222.29 237.53C225.86 234.41 228.07 231.09 227.18 230.13C226.29 229.17 222.48 231 218.76 234.23Z" fill="#FFAB70"/>
<path d="M213.99 241.65L215.61 243.26L228.49 232.75L227.17 230.13L219.35 234.38L213.99 241.65Z" fill="#FFAB70"/>
<path d="M219.91 235.71C216.26 238.9 214.16 242.16 215.18 242.99C216.2 243.82 219.82 241.99 223.35 238.9C226.88 235.81 229.07 232.57 228.19 231.64C227.31 230.71 223.58 232.5 219.91 235.71Z" fill="#FB8532"/>
<path d="M269 285.06L265.92 287.64L220.35 239.32C220.376 238.858 220.509 238.408 220.738 238.005C220.967 237.603 221.286 237.259 221.67 237C222.004 236.667 222.402 236.406 222.841 236.234C223.28 236.062 223.749 235.983 224.22 236L269 285.06Z" fill="#C8E1FF"/>
<path d="M208.73 235.72C210.73 232.34 211.45 228.67 212.2 224.95C209.59 226.08 206.82 227.24 204.11 227.22C201.04 227.22 198.5 225.66 196.11 224.01C192.544 221.516 189.14 218.797 185.92 215.87C178.548 209.056 171.942 201.458 166.22 193.21C165.38 192.01 163.45 188.14 161.39 184.83C160.743 187.495 160.839 190.287 161.667 192.902C162.496 195.517 164.026 197.854 166.09 199.66L207.17 237L208.73 235.72Z" fill="#FB8532"/>
<path d="M212.47 229.88L209.42 232.37L171.89 195.13L175.06 190.55L212.47 229.88ZM220.37 224.53L218.35 226.18L182.6 184.4L186.28 183.35L220.37 224.53Z" fill="#FB8532"/>
<path d="M249 147.35C236.06 168.35 240.06 194.24 244.33 209.64C249.54 228.46 265.45 237.84 290.04 243.19C314.37 248.48 329.61 246.32 350.44 236.69C362.44 231.16 377.94 193.57 376.01 165.34C382.24 158.27 382.64 138.05 382.24 136.43C381.84 134.81 366.47 123.9 353.53 123.49C336.14 112.98 306.21 104.49 282.36 114.6C269.42 111.36 251.22 119.45 247.18 125.92C246 132.39 250.5 151 250.5 151" stroke="#218BFF" stroke-width="2.43" stroke-miterlimit="10"/>
<path d="M355.74 232.57C363.32 225.29 355.26 217.72 354.68 213.11C354.1 208.5 362.73 203.11 364.93 186.49C367.13 169.87 352.27 162.28 342.93 167.49C333.59 172.7 317.51 178.1 296.32 174.88C278 172.14 270 156.73 263.72 156C257.44 155.27 250.48 165.21 251.48 176.13C252.48 187.05 254.48 192.51 253.48 197.13C252.48 201.75 249.48 203.43 249.48 210.92C249.48 218.41 251.77 225.62 258.11 229.65" stroke="#218BFF" stroke-width="2.43" stroke-miterlimit="10"/>
<path d="M303.707 217.708C304.001 215.663 301.305 213.584 297.686 213.065C294.067 212.545 290.895 213.781 290.601 215.826C290.308 217.871 293.004 219.949 296.623 220.469C300.242 220.988 303.414 219.752 303.707 217.708Z" stroke="#218BFF" stroke-width="2.43" stroke-miterlimit="10"/>
<path d="M298.76 303.43C299.31 329.78 294.04 361.15 298.29 387.16C298.424 388.216 298.764 389.235 299.29 390.16C299.955 391.079 300.811 391.844 301.8 392.4C309.794 397.524 318.719 401.022 328.065 402.695C337.411 404.368 346.995 404.183 356.27 402.15C358.657 401.777 360.914 400.818 362.84 399.36C364.66 397.79 365.72 395.11 364.75 392.91C363.69 390.51 360.63 389.57 358.06 390.08C355.49 390.59 353.31 392.22 351.21 393.77C345.15 398.25 336.32 401.18 328.97 402.85" stroke="#218BFF" stroke-width="2.43" stroke-miterlimit="10"/>
<path d="M364.06 391.59C364.69 386.88 365.18 382.08 364.47 377.37C363.76 372.66 361.73 368.01 358.07 364.97C355.79 363.217 353.212 361.889 350.46 361.05C340.718 357.732 330.255 357.138 320.2 359.33" stroke="#218BFF" stroke-width="2.43" stroke-miterlimit="10"/>
<path d="M335.65 358.83C329.72 341.16 322.48 317.83 325.01 299.39C324.904 299.514 324.827 299.659 324.784 299.817C324.742 299.974 324.735 300.139 324.765 300.299C324.795 300.459 324.86 300.611 324.956 300.743C325.052 300.874 325.176 300.983 325.32 301.06M294.48 308.29C292.48 334.57 292.64 364.29 285.68 388.8C285.456 389.809 285.035 390.764 284.44 391.61C283.709 392.414 282.812 393.049 281.81 393.47C273.7 397.47 264.871 399.805 255.844 400.337C246.816 400.87 237.774 399.589 229.25 396.57C227.029 395.928 225.002 394.746 223.35 393.13C221.81 391.41 221.11 388.71 222.27 386.7C223.54 384.52 226.55 383.97 228.92 384.76C231.29 385.55 233.16 387.36 234.97 389.1C239.973 393.891 245.953 397.545 252.5 399.81C252.35 399.06 252.2 400.02 252.06 399.27" stroke="#218BFF" stroke-width="2.43" stroke-miterlimit="10"/>
<path d="M268.13 359.52C259.3 353.58 252.13 354.41 242.48 359.43C232.83 364.45 225.12 375.14 222.25 387.43M251.21 356C258.82 339.69 264.85 317.43 264.56 299.38M241.12 190.53C225.12 176.62 200.96 172.38 181.33 180.69C172.33 184.49 168.83 190.69 167.4 200.22C165.49 213.04 176.4 235.38 191.4 239.55M353.52 141.69C360.79 138.05 376.16 140.07 376.97 141.69C377.78 143.31 374.54 163.12 371.31 167.57" stroke="#218BFF" stroke-width="2.43" stroke-miterlimit="10"/>
<path d="M331.35 243.51C334.724 246.693 337.083 250.801 338.13 255.32M334.45 248C336.51 245.74 340.45 246.31 342.7 248.38C344.95 250.45 345.96 253.5 346.88 256.38C346.97 256.201 346.993 255.996 346.946 255.802C346.898 255.608 346.782 255.437 346.62 255.32" stroke="#0366D6" stroke-width="2.43" stroke-linejoin="round"/>
<path d="M254.45 147.05C252.02 138.86 251.02 127.14 252.93 126.79C259.6 125.58 272.93 136.43 275.07 138.86M221.69 211.24C224.93 209.62 226.3 208.66 230.48 209.69C234.66 210.72 238.32 213.19 241.87 215.63L250.59 221.58M356 232.39C362.811 232.97 369.643 231.558 375.666 228.325C381.688 225.092 386.64 220.177 389.92 214.18C395.06 204.42 395.63 192.06 403.44 184.26C408.87 178.83 416.77 176.76 424.37 175.59C437.537 173.558 450.935 173.531 464.11 175.51C467.84 176.07 474.11 176.4 474.68 179.16C475.25 181.92 471.91 181.49 470.15 181.64C471.78 187.92 466.27 193.72 460.86 197.29C453.923 201.859 446.291 205.27 438.26 207.39C436.324 207.786 434.45 208.442 432.69 209.34C429.58 211.18 427.81 214.58 426.06 217.75C419.47 229.64 410.73 240.69 399.06 247.75C387.39 254.81 372.58 257.3 359.98 252.21" stroke="#218BFF" stroke-width="2.43" stroke-miterlimit="10"/>
<path d="M437.495 187.746C449.535 187.012 459.179 184.517 459.036 182.174C458.893 179.831 449.018 178.527 436.978 179.262C424.939 179.996 415.294 182.49 415.437 184.833C415.58 187.176 425.456 188.48 437.495 187.746Z" stroke="#218BFF" stroke-width="2.43" stroke-miterlimit="10"/>
<path d="M350.65 236.1C353.27 235.96 356.14 235.93 359.16 236.02C371.21 236.39 380.92 238.6 380.85 240.95C380.78 243.3 370.95 244.95 358.85 244.53C356.24 244.45 353.74 244.29 351.43 244.05M414.88 202.85C416.62 204.42 415.1 211.41 407.01 220.36C398.92 229.31 393.27 233.84 391.53 232.27C389.79 230.7 392.62 223.61 400.71 214.66C408.8 205.71 413.14 201.28 414.88 202.85Z" stroke="#218BFF" stroke-width="2.43" stroke-miterlimit="10"/>
<path d="M198.28 231.61C198.889 228.435 200.191 225.433 202.092 222.818C203.993 220.203 206.447 218.039 209.28 216.48C211.022 215.43 213.016 214.874 215.05 214.87C216.068 214.879 217.066 215.155 217.943 215.671C218.821 216.187 219.547 216.925 220.05 217.81C224.59 211.24 219.15 203.48 215.21 197.6C211.209 191.682 205.238 187.377 198.36 185.45" stroke="#0366D6" stroke-width="2.43" stroke-linejoin="round"/>
<path d="M169.13 257.74L172.76 259.77L128.69 331.34L125.05 329.72L169.13 257.74Z" fill="#6A737D"/>
<path d="M155 285.34L152.06 285.57C150.682 285.678 149.388 286.274 148.411 287.251C147.434 288.228 146.838 289.522 146.73 290.9L145.9 301.42L154.4 300.81L155 285.34Z" fill="#24282E"/>
<path d="M191.088 406.39C197.053 406.39 201.888 401.64 201.888 395.78C201.888 389.92 197.053 385.17 191.088 385.17C185.123 385.17 180.288 389.92 180.288 395.78C180.288 401.64 185.123 406.39 191.088 406.39Z" fill="#30363D"/>
<path d="M155.58 299.29C157.59 299.29 159.22 296.237 159.22 292.47C159.22 288.703 157.59 285.65 155.58 285.65C153.57 285.65 151.94 288.703 151.94 292.47C151.94 296.237 153.57 299.29 155.58 299.29Z" fill="#1B1F25"/>
<path d="M192.72 383.81C185.72 389.47 184.16 403.22 188.83 406.46H195.44C190.38 399.58 196.22 385.46 196.22 385.46L192.72 383.81Z" fill="#444D56"/>
<path d="M201.67 389.48H177.15L176.58 303.34H202.06L201.67 389.48Z" fill="#444D56"/>
<path d="M201.308 389.42L205.848 386.99L206.418 303.28H201.698L201.308 389.42Z" fill="#30363D"/>
<path d="M203.959 363.248L365.74 364.943L365.597 378.612L203.816 376.918L203.959 363.248Z" fill="#444D56"/>
<path d="M203.98 360.24L365.761 361.934L365.73 364.944L203.949 363.249L203.98 360.24Z" fill="#575D66"/>
<path d="M367.308 406.39C373.272 406.39 378.108 401.64 378.108 395.78C378.108 389.92 373.272 385.17 367.308 385.17C361.343 385.17 356.508 389.92 356.508 395.78C356.508 401.64 361.343 406.39 367.308 406.39Z" fill="#30363D"/>
<path d="M368.94 383.81C361.94 389.47 360.38 403.22 365.05 406.46H371.66C366.6 399.58 372.44 385.46 372.44 385.46L368.94 383.81Z" fill="#444D56"/>
<path d="M377.89 389.48H353.37L352.8 303.34H378.28L377.89 389.48Z" fill="#444D56"/>
<path d="M377.528 389.42L382.068 386.99L382.638 303.28H377.918L377.528 389.42Z" fill="#30363D"/>
<path d="M150.068 427.51C156.032 427.51 160.868 422.76 160.868 416.9C160.868 411.04 156.032 406.29 150.068 406.29C144.103 406.29 139.268 411.04 139.268 416.9C139.268 422.76 144.103 427.51 150.068 427.51Z" fill="#30363D"/>
<path d="M151.7 404.93C144.7 410.59 143.13 424.34 147.8 427.58H154.42C149.36 420.7 155.2 406.58 155.2 406.58L151.7 404.93Z" fill="#6D7481"/>
<path d="M365.728 325.62L388.738 300.75L388.128 289.83L365.728 309.24V325.62Z" fill="#30363D"/>
<path d="M135.56 309.3H366.09V325.68H135.56V309.3Z" fill="#6D7481"/>
<path d="M123.638 303.18C126.058 302.57 181.868 278.31 181.868 278.31L390.518 282.55L369.938 307.42L123.638 303.18Z" fill="#575D66"/>
<path d="M124.04 303.24L125.86 311.73L369.69 314.76L370.3 307.48L124.04 303.24Z" fill="#6A737D"/>
<path d="M390.92 282.61L391.53 290.5L369.69 314.76L370.3 307.48L390.92 282.61Z" fill="#6A737D"/>
<path d="M160.65 410.6H136.13L135.56 325.68H161.04L160.65 410.6Z" fill="#6D7481"/>
<path d="M160.288 410.54L164.828 408.11L165.398 325.62H160.678L160.288 410.54Z" fill="#30363D"/>
<path d="M162.721 376.516L339.821 378.37L339.665 393.33L162.565 391.475L162.721 376.516Z" fill="#6D7481"/>
<path d="M162.756 373.217L339.856 375.072L339.822 378.362L162.722 376.507L162.756 373.217Z" fill="#6D7481"/>
<path d="M348.618 427.24C354.599 427.24 359.448 422.606 359.448 416.89C359.448 411.174 354.599 406.54 348.618 406.54C342.637 406.54 337.788 411.174 337.788 416.89C337.788 422.606 342.637 427.24 348.618 427.24Z" fill="#30363D"/>
<path d="M350.25 405.22C343.25 410.74 341.66 424.14 346.35 427.29H353C347.93 420.59 353.78 406.8 353.78 406.8L350.25 405.22Z" fill="#6D7481"/>
<path d="M359.23 410.74H334.64L334.11 325.68H359.59L359.23 410.74Z" fill="#6D7481"/>
<path d="M358.868 411.89L363.418 409.53L363.948 326.83H359.228L358.868 411.89Z" fill="#30363D"/>
<path d="M171.65 262.6C174.163 262.6 176.2 260.697 176.2 258.35C176.2 256.003 174.163 254.1 171.65 254.1C169.137 254.1 167.1 256.003 167.1 258.35C167.1 260.697 169.137 262.6 171.65 262.6Z" fill="#6A737D"/>
<path d="M126.77 335.08C129.283 335.08 131.32 333.177 131.32 330.83C131.32 328.483 129.283 326.58 126.77 326.58C124.257 326.58 122.22 328.483 122.22 330.83C122.22 333.177 124.257 335.08 126.77 335.08Z" fill="#6A737D"/>
<path d="M690.25 393.17C722.465 393.17 748.58 389.92 748.58 385.91C748.58 381.9 722.465 378.65 690.25 378.65C658.035 378.65 631.92 381.9 631.92 385.91C631.92 389.92 658.035 393.17 690.25 393.17Z" fill="#1B1F25"/>
<path d="M654.568 380.44C653.924 381.083 653.127 381.552 652.253 381.803C651.379 382.055 650.455 382.082 649.568 381.88C646.278 381.27 645.468 379.51 645.468 379.51L651.468 308.9L663.078 310.08L654.568 380.44ZM726.918 363.62C726.614 364.485 726.094 365.259 725.408 365.868C724.723 366.476 723.893 366.901 722.998 367.1C719.768 367.98 718.278 366.75 718.278 366.75L692.978 300.55L703.978 296.55L726.918 363.62Z" fill="#30363D"/>
<path d="M707.538 333.68L656.728 341.49C655.886 340.522 655.461 339.26 655.548 337.98C655.747 336.594 656.082 335.23 656.548 333.91L706.128 325.46L707.538 333.68Z" fill="#30363D"/>
<path d="M625 302.25C626.12 309.25 631.65 317.15 635.34 317.32C635.34 317.32 664.75 318.05 682.9 314.03C701.05 310.01 708.4 307.6 710.62 305.81C712.84 304.02 715.95 295.03 714.62 288.35L625 302.25Z" fill="#444D56"/>
<path d="M670.986 302.914C695.725 299.076 715.249 292.544 714.594 288.325C713.94 284.106 693.354 283.798 668.615 287.637C643.876 291.476 624.352 298.007 625.007 302.226C625.661 306.445 646.247 306.753 670.986 302.914Z" fill="#6D7481"/>
<path d="M645.18 391.86C644.436 392.532 643.534 393.004 642.558 393.231C641.582 393.459 640.564 393.434 639.6 393.16C636.05 392.32 635.26 390.36 635.26 390.36L645.52 313.69L658.12 315.6L645.18 391.86ZM725.69 380.13C725.313 381.059 724.706 381.877 723.926 382.507C723.145 383.137 722.218 383.558 721.23 383.73C717.66 384.51 716.1 383.08 716.1 383.08L691.31 306.81L703.48 303.06L725.69 380.13Z" fill="#6D7481"/>
<path d="M705.41 343.7L649.6 349.51C648.737 348.408 648.346 347.01 648.51 345.62C648.806 344.117 649.248 342.647 649.83 341.23L704.32 334.67L705.41 343.7Z" fill="#6D7481"/>
<path d="M241.368 268.98L238.898 274.15L228.728 268.25L220.138 271.46L213.188 276.74L208.448 275.04L210.328 270.59L217.888 266.1L229.598 263.36L241.368 268.98Z" fill="#30363D"/>
<path d="M242 272.74L239.53 277.91L229.36 272.01L220.15 273.75L211.89 277.3L208.81 275.1L218.52 269.86L230.23 267.11L242 272.74Z" fill="#6A737D"/>
<path d="M275.07 302.63C301.867 302.63 323.59 300.593 323.59 298.08C323.59 295.567 301.867 293.53 275.07 293.53C248.273 293.53 226.55 295.567 226.55 298.08C226.55 300.593 248.273 302.63 275.07 302.63Z" fill="#444D56"/>
<path d="M328.74 277.65C334.357 277.927 339.684 280.225 343.74 284.12C347.04 287.3 349.43 291.49 353.31 293.93C356.75 296.09 360.97 296.6 365.03 296.66C375.33 296.79 387.75 293.52 397.5 298.72C404.72 302.58 405.63 312.38 405.63 320.56V402.05C405.63 406.37 405.63 410.87 407.63 414.73C411 421.38 418.9 424.16 426.14 425.92C464.61 435.27 505.04 432.7 544.14 426.23C553.38 424.7 564.28 421.5 566.85 412.49C569.04 404.81 563.38 396.69 556.22 393.14C549.06 389.59 540.77 389.41 532.8 388.87C522.39 388.17 511.71 386.64 502.73 381.33C501.495 380.704 500.457 379.749 499.73 378.57C497.73 374.73 502.39 370.8 506.5 369.45C529.78 361.82 556.44 375.15 579.27 366.24C584.15 364.33 588.75 361.35 591.7 357.02C595.59 351.3 596.18 344.02 596.17 337.08C596.166 328.203 595.393 319.343 593.86 310.6C593.18 306.69 592.1 302.44 588.86 300.16C587.184 299.006 585.135 298.524 583.12 298.81" stroke="#FFD1AC" stroke-width="1.21" stroke-miterlimit="10"/>
<path d="M244.77 265.56L239.37 268.33L234.7 257.01L224.12 256.56L211.34 255.2L213.74 252.95L223.61 249.18L238.28 251.6L244.77 265.56Z" fill="#6A737D"/>
<path d="M244.398 266.86L238.998 269.62L232.928 259.28L223.758 256.5L213.058 258.57L210.978 255.14L223.238 250.48L237.958 254.3L244.398 266.86Z" fill="#30363D"/>
<path d="M245.35 276.33L235.05 286.75L224.54 289.73L214.23 289.78L213.78 286.86L215.77 282.46L224.15 284.51L232.44 282.46L241.34 270.94L245.35 276.33Z" fill="#6D7481"/>
<path d="M246.06 277.82L235.75 288.24L225.25 291.23L214.23 289.78L216.47 283.95L224.86 286L233.47 284.61L242.41 274.21L246.06 277.82Z" fill="#6A737D"/>
<path d="M239.71 288.51L249.71 289.99L249.64 284.49C245.701 284.724 241.75 284.339 237.93 283.35C238.396 285.111 238.991 286.836 239.71 288.51Z" fill="#6D7481"/>
<path d="M241.538 251.47C240.108 256.55 237.888 262.66 237.138 267.15C241.408 266.15 245.138 266.74 249.078 267.69L248.878 251.88L241.538 251.47Z" fill="#30363D"/>
<path d="M237.94 283.35C241.798 284.185 245.764 284.404 249.69 284L248.79 267.29C244.86 266.5 241.72 266 237.5 267.21C236.589 272.567 236.739 278.051 237.94 283.35Z" fill="#444D56"/>
<path d="M240.36 268.61C240.204 277.045 242.648 285.323 247.36 292.32C252.73 291.8 258.19 290.88 263.8 290.42C260.69 279.89 259.14 269.04 260.19 258.62C257.117 254.785 254.689 250.475 253 245.86C250.975 246.74 249.004 247.742 247.1 248.86C245.11 250 240.73 257 240.36 268.61Z" fill="#6A737D"/>
<path d="M264.25 242.18C292.86 234.5 320.81 245.75 326.39 248.99C332.23 257.82 335.39 282.64 325.48 293.26C310.81 301.65 287.48 305.51 267.15 300.84C260.36 284.61 255.64 260.84 264.25 242.18Z" fill="#FFF4B5"/>
<path d="M330.17 284.75C329.26 287.901 327.658 290.808 325.48 293.26C310.81 301.65 287.48 305.51 267.15 300.84C262.26 289.15 258.45 273.56 259.91 258.78C264.04 264.02 274.66 276.25 289.91 269.09C317.32 256.15 338.54 252.15 330.17 284.75Z" fill="#FFDF5D"/>
<path d="M252.638 245.94C254.394 250.375 256.713 254.566 259.538 258.41C259.848 252.88 262.698 244.06 263.848 242.13C260.025 243.13 256.279 244.403 252.638 245.94Z" fill="#30363D"/>
<path d="M267.15 300.84C266.38 298.61 262.86 289.61 262.15 286.84C257.3 284.84 246.05 278.79 241.53 279.36C242.624 285.212 245.531 290.572 249.84 294.68C252.37 296.35 260.75 299.68 267.17 300.82" fill="#586069"/>
<path d="M325.48 293.26C310.81 301.65 287.48 305.51 267.15 300.84C265.87 297.78 263.15 290.38 262.15 286.84C274.26 291.31 307.8 291.24 325.48 293.26ZM260.11 257.34C260.11 257.34 262.23 246.62 263.24 244.4L308.43 246.22L306.31 256.22L260.11 257.34Z" fill="#F9C513"/>
<path d="M270.23 255C268.02 252.85 265.23 250.89 262.18 251C260.731 251.153 259.345 251.671 258.15 252.505C256.956 253.339 255.993 254.463 255.35 255.77C254.096 258.406 253.49 261.303 253.58 264.22C253.673 266.04 253.539 267.864 253.18 269.65C252.99 270.542 252.584 271.374 251.996 272.072C251.408 272.77 250.657 273.312 249.81 273.65C249.59 273.72 249.23 273.65 249.31 273.42" stroke="#FB8532" stroke-width="1.21" stroke-miterlimit="10"/>
<path d="M269.38 254.07C267.28 250.16 262.22 248.79 257.8 249.25C255.761 249.341 253.81 250.112 252.26 251.44C250.26 253.44 249.92 256.5 250.01 259.31C250.099 260.162 250.031 261.023 249.81 261.85C249.696 262.262 249.464 262.631 249.142 262.912C248.821 263.193 248.423 263.373 248 263.43" stroke="#79B8FF" stroke-width="1.21" stroke-miterlimit="10"/>
<path d="M313.43 253.42C312.23 251.24 316.53 257.01 317.12 254.59C317.428 253.092 318.248 251.748 319.44 250.79C320.619 250.041 321.974 249.616 323.37 249.56C324.764 249.397 326.176 249.502 327.53 249.87C328.64 250.21 329.66 250.81 330.76 251.18C332.323 251.695 333.998 251.765 335.598 251.382C337.198 250.999 338.66 250.177 339.82 249.01" stroke="#FB8532" stroke-width="1.21" stroke-miterlimit="10"/>
<path d="M320.27 257.34H264.15C268.53 251.68 273.09 242.78 271.95 235.91L328.45 235.71C328.64 244.8 320.27 257.34 320.27 257.34Z" fill="#FFDF5D"/>
<path d="M270.81 233.48H327.3L328.45 235.71H271.95L270.81 233.48Z" fill="#FFF4B5"/>
<path d="M270.81 233.48C272.14 240.42 265.08 257.95 264.15 257.34C267.052 254.596 269.269 251.21 270.624 247.453C271.979 243.696 272.433 239.674 271.95 235.71L270.81 233.48Z" fill="#FFD33D"/>
<path d="M359.54 260.25C350.631 256.972 341.314 254.937 331.85 254.2C330.464 253.962 329.039 254.147 327.76 254.73C326.34 255.56 325.68 257.22 324.82 258.61C322.23 262.8 317.46 264.98 313.08 267.22C305.39 271.16 297.85 276.29 293.82 283.92C292.6 286.24 291.74 289.05 292.82 291.43C293.095 292.016 293.507 292.526 294.023 292.918C294.538 293.309 295.141 293.57 295.779 293.677C296.417 293.784 297.072 293.735 297.687 293.533C298.302 293.332 298.859 292.984 299.31 292.52C299.011 293.373 298.999 294.3 299.277 295.16C299.555 296.019 300.108 296.764 300.85 297.28C302.024 298.013 303.327 298.515 304.69 298.76C315.22 301.3 329.38 300.24 336.69 290.89C342.08 283.98 342.93 273.12 340.37 264.99" stroke="#0366D6" stroke-width="2.43" stroke-linejoin="round"/>
<path d="M337.65 290.23C346.81 297.09 359.65 296.09 370.65 292.93C373.32 292.16 376.14 291.15 377.73 288.88C380.14 285.43 378.73 280.69 376.96 276.88C369.885 261.544 358.758 248.429 344.78 238.95" stroke="#0366D6" stroke-width="2.43" stroke-linejoin="round"/>
<path d="M587.35 146.06C599 139.06 608.68 127.36 614.07 110.61C623.96 79.8799 601.85 50.69 577.41 40.85M561.46 37.36C560.33 37.36 559.21 37.3599 558.1 37.4299C528.27 39.4899 513.74 58.18 511.18 69.19C508.35 81.4 508.38 94.79 507.18 97.53C505.98 100.27 498.96 102.44 497.34 107.03C494.23 115.86 503.77 134.97 530.59 147.86C543.674 154.254 558.6 155.806 572.72 152.24M562.9 56.46C565.9 49.56 558.49 28.46 557.9 27.96" stroke="#218BFF" stroke-width="2.43" stroke-miterlimit="10"/>
<path d="M555.53 37.5901C556.62 31.8801 554.7 28.6901 557.88 27.1701C561.06 25.6501 574.58 31.6001 583.33 50.3001M555.39 34.2301C553.68 30.4501 550.39 26.6501 548.61 26.8101C546.83 26.9701 544.71 35.6301 545.05 39.1801M548 28.1801C548.949 31.2964 549.684 34.4738 550.2 37.6901M503.76 99.6501C503.2 97.4701 501.84 96.4601 499.83 98.4001C497.82 100.34 497.39 102.69 500.34 103.34M512.23 65.8501C517.9 57.2701 537.75 50.5001 546.86 59.9301C555.97 69.3601 547.45 83.0301 542.97 91.2401C538.49 99.4501 536.05 103.36 535.15 110.05C534.25 116.74 539.62 125.52 534.94 133.92C530.26 142.32 519.4 142.73 513.76 137.7M552.32 121.07C562.15 115.07 577.4 111.53 584.24 111.74M554.26 127.64C560.07 125.15 574.58 125.55 578.13 128.98" stroke="#218BFF" stroke-width="2.43" stroke-miterlimit="10"/>
<path d="M566.88 114.81C573.69 112.72 580.34 111.62 584.24 111.74M566.7 126.08C571.63 126.26 576.31 127.22 578.13 128.98" stroke="#0366D6" stroke-width="2.43" stroke-miterlimit="10" stroke-linecap="round"/>
<path d="M519.31 228.23H564.22C577.07 228.23 585.76 217.23 593.01 208.07C601.01 198 608.2 186.17 602.4 173.19C597.141 161.417 590.705 150.207 583.19 139.73C581.68 137.62 580.05 135.48 577.76 134.27C575.47 133.06 572.34 133.04 570.55 134.92C568.36 137.23 569.16 140.92 570.09 143.99C572.27 151.1 575.02 157.99 577.29 165.09C578.96 170.29 582.99 179.09 580.12 184.25C575.856 191.904 569.446 198.143 561.68 202.2" stroke="#218BFF" stroke-width="2.43" stroke-miterlimit="10"/>
<path d="M567.91 208.8C567.12 205.37 564.26 202.8 561.18 201.09C553.18 196.71 543.09 197.09 534.99 201.18C526.89 205.27 521.89 211.36 518.62 219.83" stroke="#218BFF" stroke-width="2.43" stroke-miterlimit="10"/>
<path d="M536.27 227.88C531.49 228.17 527.4 224.79 523.34 222.26C520.445 220.455 517.334 219.024 514.08 218C512.76 217.58 511.16 217.29 510.15 218.23C509.88 218.513 509.673 218.85 509.543 219.219C509.414 219.588 509.365 219.98 509.4 220.37C509.54 223.15 512.4 224.88 514.9 226.11C517.4 227.34 519.9 228.5 522.58 228M599 200.31C615.604 234.909 639.284 265.638 668.51 290.51" stroke="#218BFF" stroke-width="2.43" stroke-miterlimit="10"/>
<path d="M673 291.2C670.256 289.989 667.342 289.206 664.36 288.88C661.356 288.57 658.336 289.305 655.81 290.96C654.378 292 653.236 293.39 652.496 294.997C651.755 296.605 651.44 298.376 651.58 300.14C651.572 300.503 651.692 300.857 651.92 301.14C652.187 301.346 652.513 301.461 652.85 301.47C664.781 303.048 676.916 301.343 687.95 296.54C688.89 287.35 684.34 278.6 679.68 270.62C671.293 256.273 661.801 242.602 651.29 229.73" stroke="#218BFF" stroke-width="2.43" stroke-miterlimit="10"/>
<path d="M603.13 188.85C616.34 203.76 631.41 218.44 648.7 228.33C665.7 238.03 686.31 239.55 704.51 227.42C706.51 229.18 709.6 230.11 710.06 230.34C719.39 234.95 731.83 234.15 741.2 230.15C741.804 230.974 742.599 231.639 743.517 232.087C744.435 232.534 745.449 232.752 746.47 232.72C746.975 232.676 747.466 232.53 747.912 232.29C748.359 232.05 748.752 231.722 749.067 231.325C749.382 230.928 749.614 230.471 749.746 229.982C749.879 229.493 749.911 228.982 749.84 228.48C749.637 227.7 749.299 226.962 748.84 226.3C740.1 211.49 728.84 197.3 713.31 189.99C708.62 187.78 702.72 186.37 698.53 189.42C696.33 191.03 695.06 193.58 693.45 195.77C686.74 204.87 673.81 207.55 662.77 205.06C651.73 202.57 642.19 195.89 633.13 189.12C616.13 176.39 599.38 162.49 588.13 144.44" stroke="#218BFF" stroke-width="2.43" stroke-linejoin="round"/>
<path d="M591.51 149.19C599.25 154.02 606.22 160.01 614.05 164.7C621.88 169.39 630.92 172.81 639.97 171.7C654.19 169.99 664.61 158.07 676.57 150.19C687.57 142.91 700.93 138.84 714.14 139.68C727.35 140.52 740.35 146.45 748.93 156.53C751.26 159.26 753.35 162.53 753.13 166.15C752.91 169.77 749.35 173.21 745.94 172.1C743.83 171.41 742.53 169.35 740.87 167.88C738.735 166.158 736.168 165.055 733.45 164.69C723.23 162.89 712.91 167.14 704.06 172.56C695.21 177.98 687.06 184.66 677.46 188.61C673.031 190.384 668.425 191.678 663.72 192.47C655.478 194.011 647.051 194.311 638.72 193.36M497.68 100.27C494.18 99.17 491.35 96.65 488.62 94.21C466.373 74.3767 443.213 55.64 419.14 38C407 29.11 394.35 20.37 379.92 16.11C377.04 15.26 373.13 15.01 371.83 17.72C370.83 19.72 372.05 22.06 373.24 23.94C398.43 63.81 436.73 94.04 478.24 116.41C485.84 120.51 493.74 124.41 502.24 125.67" stroke="#218BFF" stroke-width="2.43" stroke-linejoin="round"/>
<path d="M435.535 68.1155C437.536 65.7139 432.413 58.1471 424.092 51.2145C415.771 44.2819 407.404 40.6088 405.403 43.0104C403.402 45.412 408.525 52.9789 416.846 59.9114C425.167 66.844 433.534 70.5171 435.535 68.1155Z" stroke="#218BFF" stroke-width="2.43" stroke-linejoin="round"/>
<path d="M482.733 106.266C484.497 103.686 478.679 96.6385 469.739 90.5259C460.798 84.4134 452.12 81.5501 450.356 84.1306C448.592 86.7111 454.409 93.7582 463.35 99.8707C472.29 105.983 480.968 108.847 482.733 106.266Z" stroke="#218BFF" stroke-width="2.43" stroke-linejoin="round"/>
<path d="M679.63 178.066C688.997 174.012 695.584 168.401 694.342 165.532C693.101 162.663 684.501 163.623 675.134 167.677C665.768 171.73 659.181 177.342 660.422 180.21C661.664 183.079 670.263 182.119 679.63 178.066Z" stroke="#218BFF" stroke-width="2.43" stroke-linejoin="round"/>
<path d="M620 179.08C622.886 178.974 625.776 179.061 628.65 179.34C638.81 180.34 646.83 183.27 646.58 185.93C646.39 187.93 640.39 189.19 633.74 189.29M734.85 155.53C734.54 158.19 727.25 158.91 718.58 157.89C709.91 156.87 703.39 156.12 703.4 153.44C703.41 150.76 711.04 147.85 719.71 148.87C728.38 149.89 735.17 152.87 734.85 155.53Z" stroke="#218BFF" stroke-width="2.43" stroke-linejoin="round"/>
</g>
<defs>
<clipPath id="clip0_3_900">
<rect width="850" height="600" fill="white"/>
</clipPath>
</defs>
</svg>
