<svg xmlns="http://www.w3.org/2000/svg" viewBox="300 150 850 600"><defs><clipPath id="a"><path d="M821.93 216.32S774 156.66 718.25 199.64s-17.52 110.12-17.52 110.12 45.15-11.61 75.45-35 45.75-58.47 45.75-58.47" fill="none"/></clipPath></defs><ellipse cx="593.62" cy="523.78" rx="115.54" ry="23.23" fill="#e8eaee"/><ellipse cx="832.26" cy="525.84" rx="66.9" ry="12.99" fill="#e8eaee"/><ellipse cx="1038.84" cy="535.54" rx="81.08" ry="14.97" fill="#e8eaee"/><ellipse cx="421.34" cy="564.14" rx="44" ry="8.54" fill="#e8eaee"/><path d="M458.22 546.38c-1.77 4.18 7.65 9 10.69 8.1 1.73-7.33-3.59-8.39-5.6-9.05s-5.09.95-5.09.95z" fill="#1b8cfa"/><path d="M467.27 552.34a2.72 2.72 0 00-3-2s.18 1.93 3 2z" fill="#ffa875"/><path d="M467.54 553.64c-.77 1.16-.94 2.3.3 2.45M468.26 552.94c1.27-.7 2.16.1 3 2.09M465.09 553.18c-2.24 1.61-2.41 4.26-1.75 5.28M462.49 551.29c-3 .27-4.84 3.66-4.64 5.88M460 548.79c-2.67 0-4.89 2.7-5.15 4.87M468.78 551.7c1.54-1.13 6.28-1.29 6.55 2.51M468 549.14c.48-2.25 4.34-3 4.26-.64M463.84 547.06c.26-2.17 2.57-3 3.31-1.38" fill="none" stroke="#1b8cfa" stroke-miterlimit="10" stroke-width="1.25"/><path d="M468.78 551.7a2.6 2.6 0 00-1.32-2.77s-.68 1.23 1.32 2.77z" fill="#ffa875"/><path fill="#f6f8fa" d="M1134.06 464.29l4.67-409.1-577.99 7.64-9.72 175.67-194.09 2.57-10.9-116.89-228.49 3.02 15.61 335.43 1000.91 1.66z"/><path fill="none" stroke="#e0e3e7" stroke-linecap="square" stroke-miterlimit="10" stroke-width="2.43" d="M1198.1 462.93H-22.93"/><path d="M1045.42 468.6s-20.29 12.87-27.85 17.91c-5.88 3.93-25.19 10.23-49.1 3.94" fill="none" stroke="#0366d6" stroke-linecap="square" stroke-linejoin="round" stroke-width="2.43"/><path d="M955 195l43.67-.8s4 63.89 1.62 63.08-41-2.83-41-2.83z" fill="#e1e4e8"/><path fill="#f9fbfc" d="M965.28 247.17l-3.05-45.08 31.12-.62 1.23 47.72-29.3-2.02"/><path fill="#d0d5da" d="M496.43 469.8l2.51-.32 1.3-69.28-2.77-1.2"/><path fill="#e1e4e8" d="M382.77 401.27l2.64 70.34 10.87.27-3.2-70-10.31-.61z"/><path fill="#d0d5da" d="M396.28 471.88l3.27.01-3.43-68.8-3.04-1.21"/><path fill="#e1e4e8" d="M398.34 390.96l2.35 80.63 9.7.15-2.85-80.17-9.2-.61z"/><path fill="#d0d5da" d="M398.99 413.36l10.07 1.26-.81-12.54-9.71-.4.45 11.68z"/><path fill="#d0d5da" d="M410.39 471.74l2.91-.6-3.06-78.36-2.7-1.21"/><path fill="#e1e4e8" d="M409.71 449.55l78.43 1.63-.31 6.67-78.22-2.03.1-6.27z"/><path fill="#e1e4e8" d="M396.93 451.01l94.62.2-.25 6.67-94.37-.6v-6.27z"/><path fill="#e1e4e8" d="M488.46 398.4l.89 70.92 7.44.2 1.09-70.52-9.42-.6z"/><path fill="#d0d5da" d="M500.04 405.48l-11.32.81-.41-4.65h11.73v3.84zM413.91 398.04l-11.32.81-.41-4.66h11.73v3.85z"/><path fill="#e1e4e8" d="M473.75 398.04l.84 71.54 8.65.22.83-71.16-10.32-.6z"/><path fill="#d0d5da" d="M483.24 469.8l2.92-.06.94-69.88-3.03-1.22"/><path fill="#d0d5da" d="M485.28 407.22l-11.32-1.3-.41-4.65h11.73v5.95zM488.72 383.04l.2 18.23 12.13.97 1.82-20.62-14.15 1.42z"/><path fill="#e1e4e8" d="M371.05 377.37l120.3 2.07 18.19-3.28-126.36-.4-12.13 1.61z"/><path fill="#d0d5da" d="M491.55 376.56h14.96v9.91l-16.38-.97 1.42-8.94z"/><path fill="#e1e4e8" d="M377.92 384.29l1.21 20.62 109.79-3.64-.2-18.23-110.8 1.25z"/><path fill="#d0d5da" d="M378.12 388.13l.41 3.44 113.02-.61-.81-7.89-112.62 5.06z"/><path fill="#e1e4e8" d="M371.05 377.37l.8 9.71 120.1-1.21-.4-9.31-120.5.81z"/><path fill="#d0d5da" d="M394.3 410.29l-11.32-1.13-.41-4.65h11.73v5.78zM488.11 410.53l9.91 1.62 1.41-8.9-10.71 3.04-.61 4.24z"/><path d="M434.12 396.54h-2.53v-2.33h2.53a1.83 1.83 0 01.62 1.1 1.43 1.43 0 01-.62 1.23z" fill="#f6f8fa"/><path fill="none" stroke="#d0d5da" stroke-miterlimit="10" stroke-width="1.21" d="M390.05 390.35l-.3 10.92 83.7-2.12-.6-11.53"/><circle cx="429.49" cy="395.46" r="3.34" fill="#f6f8fa"/><path d="M432.8 395.84a3.3 3.3 0 00-.62-2.33 2 2 0 01-.05.34 2.35 2.35 0 01-1.42 1.59 4.33 4.33 0 00-.78.3 3 3 0 00-.7.73 3.19 3.19 0 01-1.43 1.06 3.65 3.65 0 01-.9 0 3.34 3.34 0 005.9-1.73z" fill="#d0d5da"/><path d="M434.7 395.32l-2.29.37-.21.84h1.92c.65-.28.58-1.21.58-1.21zM389.24 375.76l32.35.04-1.15-20.99-.06-1.25-33.16 2.38 2.02 19.82z" fill="#d0d5da"/><path fill="#ced5da" d="M432.91 342.64l38.22 5.82-10.32 9.91-40.43-4.81 12.53-10.92z"/><path d="M432.91 342.64c-2.83 8.45 42.66 20 38.22 5.82z" fill="#e1e4e8"/><path fill="#b2bbc4" d="M460.81 358.37l2.23 17.99-41.45-.56-1.21-22.24 40.43 4.81z"/><path fill="none" stroke="#b2bbc4" stroke-miterlimit="10" stroke-width="1.21" d="M460.81 358.37l2.23 17.99-41.69-1.29"/><path d="M460.49 365c0 .38.55.64 1.15.6s.76-.11.73-.49-.5-1.15-1.11-1.11a.88.88 0 00-.77 1z" fill="#959da5"/><path d="M471.63 377.06l-26.69-.46s.64-11.31 12.89-11.76 13.8 12.22 13.8 12.22z" fill="#e1e4e8"/><path d="M457.83 364.84c-10 .37-12.28 8-12.76 10.78 1.83.64 4.05.54 5.17-.77 2.22-2.61 3-5.14 6.31-6.9a20.92 20.92 0 017.35-2.19 15.25 15.25 0 00-6.07-.92z" fill="#d0d5da"/><path d="M466.14 366.89a6.77 6.77 0 01-1.44 5.54 5.51 5.51 0 01-6 1.57 6.7 6.7 0 00-2.11-.76c-1 0-1.88.68-2.78 1.16a5.26 5.26 0 01-5.61-.37 4.2 4.2 0 01-1.43-2.43 3.1 3.1 0 010-.69 14.08 14.08 0 00-1.84 5.69l26.69.46s-.48-7.01-5.48-10.17z" fill="#d0d5da"/><path d="M452.79 375.64c0 .37.55.64 1.16.59s1.08-.39 1.05-.76-.82-.88-1.43-.83a.89.89 0 00-.78 1zM463.25 373c0 .37.54.63 1.15.59s.76-.11.73-.49-.5-1.15-1.11-1.1a.87.87 0 00-.77 1zM454.61 370.07c0 .32.47.55 1 .51s.66-.09.63-.42-.43-1-1-1a.77.77 0 00-.63.91zM467.3 368.28a.79.79 0 00.45 1 1 1 0 00.75-.12c.29-.14.32-.86-.12-1.16a.77.77 0 00-1.08.28zM447.52 369.85a.8.8 0 00.45 1 1 1 0 00.75-.13c.29-.14.32-.85-.12-1.16a.77.77 0 00-1.08.29zM478.16 363.21c0 .45-.58.81-1.31.81s-.91-.06-.91-.51.49-1.41 1.21-1.41a1 1 0 011.01 1.11z" fill="#959da5"/><path d="M465.22 377l31.89-.19s-1.25-14.67-15.81-14.06S465.22 377 465.22 377z" fill="#e1e4e8"/><path d="M497.11 376.82s-.3-7.67-5.62-11.41c.45.8 1.1 1.55 1.57 2.35a6.86 6.86 0 01.16 6.55c-1.05 2-2.79 1.73-5.06 1.9a94.09 94.09 0 01-9.79-.2 25.35 25.35 0 00-5.17.78 7.64 7.64 0 01-5.11-.48c-.9-.52-1.31-2-2-2.56a16.58 16.58 0 00-.83 3.26z" fill="#d0d5da"/><path d="M488.27 375.09c0 .45-.58.81-1.31.81s-1.31-.36-1.31-.81.89-1.11 1.61-1.11a1 1 0 011.01 1.11zM475.64 372.92c0 .44-.59.8-1.32.8s-.91-.05-.91-.5.49-1.42 1.22-1.42a1.06 1.06 0 011.01 1.12zM485.61 368.65c0 .39-.52.71-1.15.71s-.8-.05-.8-.44.43-1.24 1.06-1.24a.92.92 0 01.89.97zM470.39 367.72A.93.93 0 01470 369a1.17 1.17 0 01-.9-.07c-.36-.14-.46-1 0-1.39a.91.91 0 011.29.18zM494 367.74a1 1 0 01-.44 1.28 1.19 1.19 0 01-.9-.08c-.36-.14-.45-1 0-1.39a.92.92 0 011.34.19z" fill="#959da5"/><path d="M425.13 364.65a.9.9 0 01-.52.51.91.91 0 01-.69-.19c-.25-.15-.2-.75.17-1-.75-.45-1.89-.08-2.9-.15v1.53a.8.8 0 01.35.61.49.49 0 01-.23.41l.43 7.9 7.89.15s.27-6.09-4.5-9.77zm.21 8.38a.84.84 0 01-.64-1c.07-.35.58-.55 1.14-.45s1 .46.92.81-.85.74-1.42.61z" fill="#d0d5da"/><path d="M425.84 371.57c-.56-.1-1.07.1-1.14.45a.84.84 0 00.64 1c.57.1 1.36-.3 1.42-.65s-.35-.7-.92-.8zM421.54 365.93a.8.8 0 00-.35-.61l.12 1a.49.49 0 00.23-.39zM425.14 364.22a.74.74 0 00-1-.33l-.06.05a11.83 11.83 0 011 .71.54.54 0 00.06-.43z" fill="#959da5"/><path d="M423.92 365a.91.91 0 00.69.19.9.9 0 00.52-.51 11.83 11.83 0 00-1-.71c-.41.25-.46.85-.21 1.03z" fill="#959da5"/><path fill="#ced5da" d="M473.05 252.12l-4.04-.08-1.58-10.8 5.2-.77.42 11.65zM526.02 250.91l-3.95.04-.19-10.92 5.26-.08-1.12 10.96z"/><path fill="#e1e4e8" d="M549.88 242.01l-101.9 1.21v-8.89h102.3l-.4 7.68z"/><path d="M488 229.78c1.82 0 9.4 4.55 9.4 4.55l18.5-41.55-10.31-4.85z" fill="#ced5da"/><path fill="#e1e4e8" d="M512.88 170.03l3.33 64.6 12.13.31-1.21-63.09-14.25-1.82z"/><path fill="#ced5da" d="M528.34 185.5l12.74-1.21.61 50.04-12.13.61-1.22-49.44z"/><path d="M468.51 213.57c1.13-11.2 13.76-43.81 23.4-38.93s-15.85 36.82-19.19 38.52-4.21.41-4.21.41z" fill="#e1e4e8"/><path d="M469.6 212.55c-4.14-10.94-18.5-35.74-25-28.38s14.68 24.8 20.45 28.68 4.55-.3 4.55-.3z" fill="#e1e4e8"/><path d="M469.1 213.8c0-1.61 3.86-39.53 3.86-39.53 2.89 1 2.57-4.82 0-5.14s-4.18 3.86-2.57 4.5l-1.29 19.6c-6.42-1-7.07-9.32-5.14-12.21 1.93.64 2.57-3.54 0-4.18s-4.18 3-2.25 3.7c-1.28 5.46-.9 13.09 6.49 14.38l-.38 19.2z" fill="#e1e4e8"/><path d="M445.07 214.11c8.61-4.64 36.77-6 43.73-2 .66 12.59-7 21.87-20.21 21.87-12.26.02-22.19-4.98-23.52-19.87z" fill="#f6f8fa"/><path d="M445.07 214.11c8.61-4.64 36.77-6 43.73-2 .66 12.59-7 21.87-20.21 21.87-12.26.02-22.19-4.98-23.52-19.87z" fill="#f6f8fa"/><path d="M479.52 221.67c-3.14 2.25-6.89 4.07-10.74 3.66-2.71-.29-5.22-1.66-7.93-1.94s-7.42 1.71-10.15 4.47c4.33 4.42 10.71 6.13 17.89 6.13 12.28 0 19.72-8 20.22-19.14-3.36 1.86-6.16 4.58-9.29 6.82z" fill="#e1e4e8"/><path d="M471.83 212.19c.36-.46 15.15-29.36 15.15-29.36M479.3 199.01l2.82-.8M480.87 193.88l-1.55-5.43M483.86 189.37l5.78-2.01" fill="none" stroke="#f6f8fa" stroke-miterlimit="10" stroke-width="1.21"/><ellipse cx="488.22" cy="181.22" rx="2.01" ry="1.93" transform="rotate(-85.92 488.224 181.217)" fill="none" stroke="#f6f8fa" stroke-miterlimit="10" stroke-width="1.21"/><path d="M465.58 211.89c0-.48-15.5-21.59-15.5-21.59" fill="none" stroke="#f6f8fa" stroke-miterlimit="10" stroke-width="1.21"/><circle cx="449.4" cy="189.32" r="1.61" fill="none" stroke="#f6f8fa" stroke-miterlimit="10" stroke-width="1.21"/><path fill="none" stroke="#f6f8fa" stroke-miterlimit="10" stroke-width="1.21" d="M454.56 196.1l-.14-4.34M457.59 200.93l-4.01-1.14M461.59 205.93l-.14-5.3"/><path fill="#d0d5da" d="M550.28 234.33l-.4 7.68h-9.91v-7.48l10.31-.2z"/><ellipse cx="965.55" cy="456.15" rx="5.34" ry="12.57" transform="rotate(-61.37 965.609 456.148)" fill="none" stroke="#0366d6" stroke-linecap="square" stroke-linejoin="round" stroke-width="2.43"/><path fill="#fff" d="M720.42 402.04l18.6-.81 2.43 31.95-20.22 1.21-.81-32.35z"/><path d="M727.75 414.63h4.55c2.73-2.28 1.82-7.89-2.28-7.43s-5.02 4.24-2.27 7.43zM732.61 427.42l-4.54-.11c-2.68-2.34-1.64-7.93 2.44-7.38s4.91 4.37 2.1 7.49z" fill="#e1e4e8"/><path fill="#ced5da" d="M728.61 409.616l1.006-.08.237 3.021-1.007.08zM728.299 422.38l1.007-.078.237 3.02-1.007.08zM731.22 409.539l1.009.045-.135 3.027-1.009-.045zM731.124 422.302l1.01.045-.135 3.027-1.01-.045z"/><path d="M492.49 556c-1.26 6.56 15.44 11.19 19.55 9.74 2.5-2.73 1.69-9.35-4-11.26s-14.11-1.12-15.55 1.52z" fill="#1b8cfa"/><path d="M496.77 560.29c-3.92-3.2-9-.85-8.91 5.65M501.36 562.55c-5.84-.89-9.39 1.94-9.46 9.21M506.65 563.62c-6 1.68-8.36 5.47-6.64 11.19M511.32 562c3.14-5.23 9.07-6.66 8.1-.32M508.91 559c1.44-6 5.35-7.76 4.65-3.19M504.26 555.46c.82-5.33 1.79-8.3.17-6.21s-2.53 6.37-2.53 6.37" fill="none" stroke="#1b8cfa" stroke-miterlimit="10" stroke-width="1.03"/><path d="M509.27 564.16a3.92 3.92 0 00-3.94-3.34s-.08 2.73 3.94 3.34zM511.54 563.52a3.73 3.73 0 00-1.38-4.19s-1.16 1.67 1.38 4.19z" fill="#ffa875"/><path d="M510.49 564.85c-1.45 1.86.23 4.46 1.5 4.65M511.9 564.16c2.25-.3 4 1.78 3.54 3.14" fill="none" stroke="#1b8cfa" stroke-miterlimit="10" stroke-width="1.03"/><path fill="#e1e4e8" d="M1020.86 164.27l37.61 6.07-3.03 48.52-36.4-1.21 1.82-53.38z"/><path fill="#f9fbfc" d="M1026.12 173.17l-1.62 38.82 23.45-.81 4.05-36.39-25.88-1.62z"/><ellipse cx="1033.8" cy="277.9" rx="19.81" ry="24.67" transform="rotate(-4.18 1034.168 277.965)" fill="#e1e4e8"/><ellipse cx="1033.8" cy="277.9" rx="19.42" ry="15.6" transform="rotate(-86.35 1033.763 277.916)" fill="#f9fbfc"/><path fill="none" stroke="#0366d6" stroke-linecap="square" stroke-linejoin="round" stroke-width="2.43" d="M966.88 440.44l23.52 15.71M959.64 464.32c11 5.2 21.62 8.92 33.67 10.68M910 439.43c-8.32-2.3-17.71-15.11-12.35-28.65s24.55-7.27 24.55-7.27M986.24 390.92l-10.31-12.7s.79-5.56 11.5-7.14a28.44 28.44 0 0119.05 4.36"/><ellipse cx="736.68" cy="298.23" rx="11.24" ry="14.17" fill="#959da5"/><path d="M715.88 319.83c1 1.57 12.32 5.83 18.19 3.34s.17-10.57.17-10.57z" fill="#959da5"/><path d="M729.44 272.65c-5.41 0-12.48 4.18-15.85 15.32a2.09 2.09 0 01.88-.2c2.72 0 4.92 5.52 4.92 12.32s-2.2 12.32-4.92 12.32a3.16 3.16 0 01-2.44-1.63c.3 3.19.77 6.6 1.46 10.27l12.51-3.11 10.63.34s2.19-45.63-7.19-45.63z" fill="#fedd6a"/><path d="M714.47 312.41c2.72 0 4.92-5.52 4.92-12.32s-2.2-12.32-4.92-12.32a2.09 2.09 0 00-.88.2c-1.72 5.68-2.48 13.16-1.56 22.81a3.16 3.16 0 002.44 1.63z" fill="#f9fbfc"/><path d="M711.65 301.43c0-1.44.11-2.81.22-4.12l-3.54-5.48s-1.06 11.63-1.79 18.85l.41 2.59z" fill="none"/><path d="M711.87 297.31a65.34 65.34 0 00-.22 4.12l1.1-2.76zM718.42 307.43a26.27 26.27 0 001-7.34c0-4.89-1.14-9.12-2.79-11.1l-3.85 9.68z" fill="#f9fbfc"/><path d="M711.65 301.43a83.65 83.65 0 00.38 9.35 3.16 3.16 0 002.44 1.63c1.62 0 3.06-2 3.95-5l-5.67-8.76z" fill="#b8c1c9"/><path d="M714.47 287.77a2.09 2.09 0 00-.88.2 45.83 45.83 0 00-1.72 9.34l.88 1.36 3.85-9.67a2.85 2.85 0 00-2.13-1.23z" fill="#b8c1c9"/><path d="M837.53 517.76c6.22 0 7.26-1 17.63-4.15 0 0 8.3-15.55 8.3-27H811.6c0 11.41 8.3 27 8.3 27 10.37 3.12 11.41 4.15 17.63 4.15" fill="#6a737d"/><path d="M780.48 236.69c13.34-4.53 68.66-17.5 114.09 0l-21.89 12.25-74.61-.81z" fill="#fedd6a"/><path d="M798.07 251.16l-17.59-11.43c13.34-4.54 68.66-17.51 114.09 0" fill="#ffd051"/><ellipse cx="935.89" cy="298.23" rx="11.24" ry="14.17" fill="#959da5"/><path d="M837.53 359.39c.35-.88 60.89 64.77 61.19 64C917.39 405.75 934 352.85 934 329v-55c0-12.45-39.41-37.34-39.41-37.34-20.74 0-47.13 2.54-56.47 2.54s-36.87-2.54-57.62-2.54c0 0-39.41 24.89-39.41 37.34v55c0 23.85 16.6 76.75 35.27 94.38.3.78 60.84-64.87 61.19-64" fill="#ffdf5d"/><path d="M956.68 319.83c-1 1.57-12.31 5.83-18.18 3.34s-.17-10.57-.17-10.57z" fill="#959da5"/><path d="M943.13 272.65c5.41 0 12.48 4.18 15.85 15.32a2.13 2.13 0 00-.88-.2c-2.72 0-4.93 5.52-4.93 12.32s2.21 12.32 4.93 12.32a3.16 3.16 0 002.44-1.63c-.3 3.19-.78 6.6-1.47 10.27l-12.5-3.11-10.64.34s-2.18-45.63 7.2-45.63z" fill="#fedd6a"/><path d="M958.1 312.41c-2.72 0-4.93-5.52-4.93-12.32s2.21-12.32 4.93-12.32a2.13 2.13 0 01.88.2c1.72 5.68 2.47 13.16 1.56 22.81a3.16 3.16 0 01-2.44 1.63z" fill="#f9fbfc"/><path d="M960.91 301.43c0-1.44-.1-2.81-.22-4.12l3.54-5.48s1.06 11.63 1.79 18.85l-.4 2.59z" fill="none"/><path d="M960.69 297.31c.12 1.31.19 2.68.22 4.12l-1.1-2.76zM954.14 307.43a26.27 26.27 0 01-1-7.34c0-4.89 1.14-9.12 2.79-11.1l3.85 9.68z" fill="#f9fbfc"/><path d="M960.91 301.43a81.19 81.19 0 01-.37 9.35 3.16 3.16 0 01-2.44 1.63c-1.62 0-3.06-2-4-5l5.67-8.76zM958.1 287.77a2.13 2.13 0 01.88.2 45.87 45.87 0 011.71 9.34l-.88 1.36L956 289a2.86 2.86 0 012.1-1.23z" fill="#b8c1c9"/><path d="M837.53 351.61l61.64 52.89-1.43 21.37c-5.72 14.26-17.69 40-17.69 40-9.33 12.44-32.15 18.66-42.52 18.66s-33.19-6.22-42.53-18.66c0 0-12-25.78-17.69-40l-1.42-21.37 61.64-52.89" fill="#ffa875"/><path d="M884.24 431.21c-6-.4-11.64-2.92-17.53-4-6.36-1.13-13.92-.12-17.52 5.24-2.26 3.36-2.44 7.67-4 11.42-3.2 7.94-13.1 12.44-21.19 9.64-2.53-.88-4.95-2.37-7.62-2.36-5.59 0-8.92 6.27-13.92 8.75a12.88 12.88 0 01-10.14.23l2.64 5.74c9.34 12.44 32.16 18.66 42.53 18.66s33.19-6.22 42.52-18.66c0 0 10.85-23.38 16.83-37.92-4.14 1.47-7.65 3.59-12.6 3.26z" fill="#ffa875"/><path d="M837.53 494.27c8.53 0 18.14 0 25.61-5.18 0 0 17.07-11.41 18.14-24.9-7.47 8.3-43.75 12.45-43.75 12.45s-36.28-4.15-43.75-12.45c1.07 13.49 18.14 24.9 18.14 24.9 7.47 5.18 17.07 5.18 25.61 5.18" fill="#ffcfaf"/><path fill="none" stroke="#ffd051" stroke-miterlimit="10" stroke-width="1.21" d="M837.91 272.76l.07 95.65"/><path fill="none" stroke="#fedd6a" stroke-miterlimit="10" stroke-width="1.21" d="M837.89 254.72l.02 18.04"/><path d="M837.53 496c8.53 0 18.14 0 25.61-5.18 0 0 17.07-11.41 18.14-24.89-7.47 8.29-43.75 12.44-43.75 12.44s-36.28-4.15-43.75-12.44c1.07 13.48 18.14 24.89 18.14 24.89C819.39 496 829 496 837.53 496" fill="#ffa875"/><path d="M878.93 470.51c-5.71 3.72-10.4 9.59-17.09 10.85-7.35 1.39-19.62 8.7-36 5.76a85 85 0 01-12.74-3.69c-3-1-6.78-1-9.25.57a60.47 60.47 0 008.08 6.8c7.46 5.2 17.07 5.2 25.6 5.2s18.14 0 25.61-5.18c0 0 14.1-9.43 17.47-21.28-.61.3-1.14.62-1.68.97z" fill="#ffa875"/><path d="M837.53 368.41c13.48 4.15 38.37 33.19 61.19 55 0 0 9.94-10.31 19.71-30.08-19.71-18.66-72.6-60.15-80.9-61.19-8.3 1-61.19 42.53-80.9 61.19 12.53 24.62 19.71 30.08 19.71 30.08 22.81-21.78 47.71-50.82 61.19-55" fill="#fff"/><path d="M976.4 392.38s-5.24-6.62-3.25-9a5.18 5.18 0 015.07-1.47M1000.92 372.27s7.54-7.14 30.55-2c26.21 5.88 45 31.15 41.38 55.75s-15.28 42.72-51.8 51.55" fill="none" stroke="#0366d6" stroke-linecap="square" stroke-linejoin="round" stroke-width="2.43"/><path d="M1055.5 462.14s24.81 20.24 26 36.3c1.26 17-14.08 28.52-44.32 24.47" fill="none" stroke="#0366d6" stroke-linecap="square" stroke-linejoin="round" stroke-width="2.43"/><path d="M1037.43 450.14s6.57-9.56 17.49-11.44a21.83 21.83 0 015.81-.21" fill="none" stroke="#0366d6" stroke-linejoin="round" stroke-width="2.43"/><path fill="#6a737d" d="M956.99 468.41l-3.42 4.69 10 6.09-1.14 10.07-.63 12.27 2.49-1.92 5.03-8.77-.11-14.22-12.22-8.21z"/><path fill="#959da5" d="M955.71 468.21l-3.42 4.69 8.87 7.27 1.27 9.09-3.55 9.8 2.92 2.47 6.24-10.89-1.42-14.48-10.91-7.95z"/><path fill="#6a737d" d="M943.44 469.11l-6.89 12.21v10.44l2.66 9.5 2.8-.35 3.53-2.97-4.08-7.18-.28-8.17 8.27-11.2-6.01-2.28z"/><path fill="#b2bbc4" d="M956.69 469.72l-5.66 2.63 6.31 11.16-3.59 9.33-5.85 7.52 1.8 5.19 4.87-2.01 4.99-8.18 3.13-12.74-6-12.9z"/><path fill="#959da5" d="M941.88 468.85l-6.89 12.21.01 10.44 4.21 9.76 4.78-3.59-4.09-7.17-.97-8.29 7.22-10.95-4.27-2.41z"/><path fill="#d1d5da" d="M952.66 469.38l-5.66 2.63 6.31 11.16-2 10.02-3.97 8.97 2.36 3.39 5.83-10.53 3.13-12.74-6-12.9zM933.09 471.28l-1.42-9.58 5.27.07A36 36 0 00938 473a35.14 35.14 0 01-4.91-1.72z"/><path d="M968.46 469.18c-4.85 1.38-10.7 3.49-15 4.21 1-4.08.4-7.7-.51-11.42l15.12.19z" fill="#959da5"/><path d="M938 473a36 36 0 01-.62-11.24l16 .86c.76 3.76 1.23 6.77.07 10.8A39.48 39.48 0 01938 473z" fill="#b2bbc4"/><path d="M952.13 470.66a39.38 39.38 0 01-22.69-6.66c.51-5.14 1.38-10.36 1.83-15.73 10.06 3 20.44 4.46 30.41 3.46a43.7 43.7 0 0012.21 6.82 52.88 52.88 0 01-2.84 5.64c-1.15 1.93-7.78 6.11-18.92 6.47z" fill="#6a737d"/><path d="M921.29 445c2.14.74 7.46 2.88 10.1 3.58-.49 4.15-1.14 11.24-1.69 15.57a7.77 7.77 0 01-2.53-2.57c-1.6-2.42-4.82-10.44-5.88-16.58" fill="#586069"/><path d="M977.41 447.8c7.34-27.37-3.42-54.1-6.51-59.44-8.46-5.59-32.2-8.63-42.35.88-8 14-11.72 36.33-7.26 55.79 15.53 6.49 38.26 10.97 56.12 2.77z" fill="#fff5b1"/><path d="M936.68 384.75a20.78 20.78 0 00-8.13 4.49c-8 14-11.72 36.33-7.26 55.79 11.18 4.67 26.1 8.32 40.24 6.93-5-4-16.71-14.12-9.86-28.65 12.38-26.31 16.2-46.57-14.99-38.56z" fill="#ffdf5d"/><path d="M928.55 389.24c-8 14-11.72 36.33-7.26 55.79a98.84 98.84 0 009.49 3.4c1.5-16.37-.31-42.28-2.23-59.19z" fill="#f9c513"/><path d="M973.76 458.52a52.91 52.91 0 01-11.93-6.59c5.29-.3 13.73-3 15.58-4.13a79.53 79.53 0 01-3.65 10.72z" fill="#959da5"/><path d="M1040.89 452s7.56-4.62 16.06-3.15" fill="none" stroke="#0366d6" stroke-linejoin="round" stroke-width="2.43"/><path d="M1046.39 442a23.23 23.23 0 0114.34-3.47M1048 449.27a22.4 22.4 0 019-.39" fill="none" stroke="#0366d6" stroke-linecap="round" stroke-linejoin="round" stroke-width="2.43"/><path d="M911.79 432.82s-4.41 13.54 2.52 13.23 11-14.17 10.07-24.88c-.36-4.08-3.46-11.34-6.3-15.12M924.33 421.71c0 9.13-17.37 20.44-12.26 23.58M1044.78 476.15s-2.62 11.67-3.6 15.48M1048.1 473.24c2 3.19 6.06 14.54 1.27 23.64M1000 513.78s1.14 16.35 16.5 19.56" fill="none" stroke="#0366d6" stroke-linecap="square" stroke-linejoin="round" stroke-width="2.43"/><path d="M1058.77 465c4.58 4 12 9.29 18.77 8.91s14.3-1.32 15.86-7.95c2.5-10.65-1-23.12 14.12-32.5 8.57-5.33 20.07-3.44 22.86-.12" fill="none" stroke="#0366d6" stroke-miterlimit="10" stroke-width="2.43"/><path d="M1106.41 464.12a9.48 9.48 0 01-8.89-6.62c-1.11-3.81 1.94-8.92 5.29-11M1116.93 466.31c-1 8.71-3.89 13.36-10.49 19.14a27 27 0 01-25.16 5.42c-1.66-.51-3.62-1.88-3-3.51" fill="none" stroke="#0366d6" stroke-miterlimit="10" stroke-width="2.43"/><path d="M1125 487.8c-3.6 3.34 1.06 10.39 6.51 8.68a7.07 7.07 0 005.06-5.43l-6.19-6.28zM1127.29 469.71a7.63 7.63 0 0110.13 4.7c4.71-.72 8 4 3.26 7.24s-7.6-2.9-6.15-4.35c-1.09-2.89-3.26-4.34-5.79-4" fill="#77bafc"/><path d="M1126.79 464.28l1.45 4.34a7.64 7.64 0 0110.13 4.7c4.71-.72 8 4 3.26 7.24s-7.6-2.89-6.15-4.34c-1.09-2.9-3.26-4.34-5.79-4l2.53 12.66c3.62-1.08 7.59 6.48 1.81 8.69-7.6 2.89-9-5.43-6.15-7.24l-6.15-20.26" fill="#c8e2fd"/><path d="M1122.72 469c1.41 0 5.2-1.58 5.2-1.58l-.81-2.17-5.38.86z" fill="#77bafc"/><path fill="#77bafc" d="M1119.92 466.81l5.06 20.99 2.9-1.45-6.15-20.26-1.81.72z"/><path d="M1120 467.17c.09.46.81 3.44.81 3.44l1.9-1.63-.63-2z" fill="#1b8cfa"/><path d="M1102.19 411.46l-4 4.7c-1.74 5 2.72 14.83 11 11.4l.9-2-6.87-5.25z" fill="#77bafc"/><path fill="#1b8cfa" d="M1103.73 423.49l-2.53 3.43 2.71 1.54 1.72-3.98-1.9-.99z"/><path fill="#77bafc" d="M1106.71 424.57l-1.81 3.98 1.18-.18 1.45-3.26-.82-.54zM1112.14 409.28l-1.31 2.36 2.98 6.37 3.94-1.08-3.8-7.74-1.81.09z"/><path d="M1113.77 438.59l8-.72-5.07-14.11c9-2.17 3.26-14.84-2.89-16.65l-1.63 2.17 4.7 7.42-10.31 3.8-1.08-9.23-2.35-.18c-6.34 2-2.54 17.73 7.05 14.48z" fill="#c8e2fd"/><path fill="none" stroke="#77bafc" stroke-miterlimit="10" stroke-width="1.26" d="M1117.75 437.96l-3.71-12.85"/><path fill="#77bafc" d="M1109.25 427.56l3.21 11.08 1.31-.05-3.62-13.02-.9 1.99z"/><path d="M1130.38 433.36c8 9.91 13.9 23.79.65 29.94-6.29 2.92-12.88 3.42-19.91 2.87-12.91-1-12.09-26.24 1.34-27.53 4-.38 8.46-.09 11.54-2.46" fill="none" stroke="#0366d6" stroke-miterlimit="10" stroke-width="2.43"/><ellipse cx="1131.52" cy="489.5" rx="2.24" ry="1.97" transform="rotate(-72.04 1131.55 489.495)" fill="#77bafc"/><ellipse cx="1139.48" cy="477.22" rx="1.77" ry="2.01" transform="rotate(-27.04 1139.57 477.236)" fill="#77bafc"/><path fill="#1b8cfa" d="M1123.27 471.15l-1.63 2.9.36 1.08 1.72-2.98-.45-1zM1127.61 492.77l-2.26 1.9a8.58 8.58 0 002.17 1.54l1.54-2.35zM1127.25 492.23l-2.63 1.63-.45-.64 2.9-1.44.18.45zM1132.94 488.07l-2.89 2.89a2.63 2.63 0 01-.45-1.26c.27-.28 2.61-2.33 2.61-2.33zM1140 475.68l-2.35 2c.26.35.63 1 .63 1l2.53-2.53zM1133.4 488.7l-3.08 2.62.51.31 2.66-2.48-.09-.45zM1141.05 476.42l-2.32 2.42.46.27 2.08-2.17-.22-.52z"/><path fill="#77bafc" d="M1115.22 414.35l-1.81 2.53.4 1.13 3.04-1.31-1.63-2.35z"/><path fill="#1b8cfa" d="M1114.67 413.17l-1.53 2.99-.19-.63 1.36-2.81.36.45z"/><path fill="none" stroke="#77bafc" stroke-miterlimit="10" stroke-width="1.26" d="M1125.62 467.54l4.75 17.23M1127 471.06c2.17-1.08 6.51-2.17 9 1.9"/><path fill="none" stroke="#0366d6" stroke-linecap="square" stroke-linejoin="round" stroke-width="2.43" d="M637.83 348.56l53.93-58.03"/><ellipse cx="736.03" cy="260.22" rx="11.2" ry="14.39" transform="rotate(-7.53 735.748 260.176)" fill="#b8c1c9"/><path d="M716.51 282.24c1.09 1.57 12.7 5.69 18.39 3.08s-.55-10.69-.55-10.69z" fill="#b8c1c9"/><path d="M727.46 234.34c-5.41 0-12.27 4.23-15.06 15.51a2.06 2.06 0 01.87-.21c2.72 0 5.22 5.58 5.57 12.46s-1.56 12.46-4.28 12.46a3.37 3.37 0 01-2.53-1.64c.47 3.22 1.12 6.67 2 10.38l12.35-3.15 10.65.35s-.19-46.16-9.57-46.16z" fill="#ced5da"/><path d="M714.56 274.56c2.72 0 4.64-5.58 4.28-12.46s-2.85-12.46-5.57-12.46a2.06 2.06 0 00-.87.21c-1.42 5.74-1.78 13.3-.37 23.07a3.37 3.37 0 002.53 1.64z" fill="#f9fbfc"/><path d="M711.17 263.46q-.06-2.19 0-4.17l-3.82-5.54s-.45 11.76-.81 19.07l.54 2.61z" fill="none"/><path d="M711.17 259.29q-.06 2 0 4.17l1-2.8z" fill="#f9fbfc"/><path d="M718.25 269.53a26 26 0 00.59-7.43c-.25-5-1.61-9.22-3.37-11.23l-3.34 9.79z" fill="#f9fbfc"/><path d="M711.17 263.46a85.74 85.74 0 00.86 9.46 3.37 3.37 0 002.53 1.64c1.62 0 3-2 3.69-5l-6.12-8.87zM713.27 249.64a2.06 2.06 0 00-.87.21 46.57 46.57 0 00-1.23 9.44l1 1.37 3.34-9.79a3 3 0 00-2.24-1.23z" fill="#b8c1c9"/><path d="M687.09 320.76c-.23-6.93 8-17.71 21.11-17.4M534.6 505.25c19.82-9.91 34.21 2.42 34.21 2.42" fill="none" stroke="#0366d6" stroke-linecap="square" stroke-linejoin="round" stroke-width="2.43"/><path d="M621.44 504.57s.13 23.69-.7 28c2.88 7.32 14.81 4.47 13.08-1.81 0-6-2.76-27.37-2.76-27.37z" fill="#b2bbc4"/><path d="M641.4 491.38s-.09 18.38-.09 21.51c1.22 3.9 8.31 3 8-.76.14-3.64-1.57-20.8-1.57-20.8z" fill="#959da5"/><path d="M666.71 500s-1.29 23.07-1.29 27.66c1.52 4.78 12.17 3.28 12.52-2-.31-4.46-2.23-26.32-2.33-27.15z" fill="#b2bbc4"/><path d="M621.44 504.57s.9 12.14-.23 21.58c9-10.64 10.86-5.12 12.37 0-.89-9.09-2.52-22.78-2.52-22.78zM666.71 500s-.71 14-1.12 22.25c4.91-6.72 9-7.08 11.66-5-.71-8.18-1.57-18.09-1.64-18.65z" fill="#959da5"/><path d="M600.64 492.12s-.78 17.73-.78 20.87c1.35 4.93 11.56 4.24 10.22-1-.41-3.55-3.13-20-3.13-20z" fill="#b2bbc4"/><path fill="#b2bbc4" d="M616.9 497.91L592 474.88l44.09-.48 50.62 10.95-2.72 13.2-66.19 10.86-.9-11.5z"/><path d="M600.64 492.12s-.27 4.54-.39 9.28a51.62 51.62 0 019.83 10.6c-.41-3.55-3.13-20-3.13-20z" fill="#959da5"/><path fill="#959da5" d="M592 474.88l1.19 11.27 24.61 23.26-.9-11.5-24.9-23.03z"/><path fill="#e1e4e8" d="M592 474.88l44.09-.48 50.62 10.95-69.81 12.56-24.9-23.03z"/><path d="M560.66 524.55s-5.89-3.62-15.27-3.39a25.21 25.21 0 00-15.57 6.11" fill="none" stroke="#0366d6" stroke-linecap="square" stroke-linejoin="round" stroke-width="2.43"/><path d="M654 474.92c4.45-5.48 14.23-8.16 17.26-7.58s.91 4.2-2.3 6.88c0 0-53.27 11.09-63.72.29s14.53-41.48 22-56.19c2.78-5.52-7.71-29.85-16-33.25.46 3.49-3.94 32.92-13.79 54.24s-30.57 56.26-31.23 65.89c4.38.36 15.44 19-15.63 22.84s-38.39-11.4-38.39-11.4c2-10.68 28.91-39.87 41.7-56.7 11.37-15 37.78-56 47-73.1" fill="none" stroke="#0366d6" stroke-linecap="square" stroke-linejoin="round" stroke-width="2.43"/><path d="M741.05 295.19c11.48-4.54 41-23.15 59.64-44.91 6.69-7.81-61.28-57.25-68.65-59.37a87.81 87.81 0 00-30.49 25.72c8 21.15 30.33 75.34 39.6 79" fill="#feeb93"/><g clip-path="url(#a)"><path d="M823.35 207.07s-17-7.22-17.6 8.49-12.75 36.2-27.55 46.65c-38.69 27.28-59.51 5.22-80.47 17.57-16.5 9.72-3.77 34.67-3.77 34.67s40.06.88 84.5-32.12c25.06-18.6 55.52-63.12 55.52-63.12z" fill="#f9c513"/><path d="M821.2 215.39s-15.45 35.1-45.75 58.46-75.45 35-75.45 35" fill="none" stroke="#e3a92e" stroke-miterlimit="10" stroke-width="1.36"/><path d="M699.15 211.3c1.81 4 4.14 9.18 6.84 15-13.37 1.68-19.67-2.56-19.67-2.56zM752.47 175.56a89.1 89.1 0 0113.53 2.27c-.65 6.84-3.73 17.35-15 27.54-9.89-8.29-18.58-15.34-23.83-19.56z" fill="#fff5b1"/><path d="M821.93 216.32s-15.45 35.11-45.75 58.47S712.41 305 712.41 305s-51.09-61.86 4.66-104.84 104.86 16.12 104.86 16.12" fill="none"/><path d="M721.86 181.57s89.4 70.69 91.75 86.32 23.26-52.83 23.26-52.83-72.34-58.63-115-33.49M696.12 204.3s45.62 104.44 60.14 110.7-57 9.05-57 9.05-38.26-84.88-3.14-119.75" fill="#ffdf5d"/><path d="M697.73 279.78c10.27-6 20.52-3.84 32.85-3.22 3.61 6.8 7.16 13.17 10.47 18.63 11.8-5.33 24.39-12.13 35.13-20.4 9.7-7.48 18.26-15.72 24.51-24.51a305.33 305.33 0 00-5.71-5.75c6.27-9.37 10.43-20 10.77-29 .6-15.71 17.6-8.49 17.6-8.49L834 219.21s-30.46 44.52-55.52 63.12c-44.44 33-84.5 32.12-84.5 32.12s-12.75-24.95 3.75-34.67z" fill="#f2b549"/><path d="M792.94 219.4c9.47 9-18.88 38.53-30.31 47.34s-40 26.87-51.32 9.6c-7.79-11.92 27.69-27.67 34.23-34.34 11.39-11.75 32.31-36.89 47.4-22.56" fill="#f2b549"/><path d="M789.8 219c8.79 8.25-18.5 36.37-29.44 44.81s-38.27 25.82-48.64 9.86c-7.15-11 26.67-26.36 32.92-32.75 11-11.19 31.15-35.07 45.16-21.92" fill="#005cc5"/><path d="M765.71 170.2s6 25.89-28.79 45.06-50.6 8.52-50.6 8.52l37.75-36.72z" fill="#fdfad2"/><path d="M713.38 275.73c6.81-4.55 11.5-6.92 14-6.52s4.19 7 7.86 5.43c6-2.52-7.25-11.94-2.1-15.15 4.45-2.77 8 7.67 11.92 4.25 4.38-3.78-7.26-14.36-2.85-17.28 4-2.66 7 3.86 10.56 3.23 2.2-.39 9.67-7.42 13.12-9.7s7 5 9.8 2.63c4-3.4-9.68-13.34-5.84-17.31s8.6 3.44 10.81 3.09 7.32-6.35 9.49-8.61" fill="none" stroke="#f1f8ff" stroke-miterlimit="10" stroke-width="1.21"/></g><path d="M706.05 226.34c-1-2-3.57-8-4.28-10a80.47 80.47 0 00-6.21 10.17 31.55 31.55 0 0010.49-.15M764.73 184.25c-9.92-1.3-24.72 2-34.31 7.5 5.49 2.25 16.94 9.47 20.5 13.59 5.83-3.61 13.78-17.73 13.81-21.09z" fill="#fff5b1"/><path d="M664.28 467.22s-8.11-16.44-33.41-12.71" fill="none" stroke="#0366d6" stroke-linecap="square" stroke-linejoin="round" stroke-width="2.43"/><path d="M620.87 379.15c13.29 4.9 30.7 17.05 42.27 39.08 8.82 16.8-12.59 37.68-12.59 37.68" fill="none" stroke="#0366d6" stroke-linejoin="round" stroke-width="2.43"/><path d="M616.74 380.24s64.69-16.41 98.74-42.07 35-41.42 32.32-48c2.63-5.31 9.25-13.7-.21-15s-112.13 97.44-134.3 98.49" fill="none" stroke="#0366d6" stroke-linejoin="round" stroke-width="2.43"/><path d="M636.63 360.72s.57-6.4 5.22-10.59c2.32-2.1 9.57-5.64 12.1-3.61M664.05 339.34c.18-3.59 6.14-14.31 16.12-12.66M514.65 319.67s-10.8-5.95-13.34-11.22c4.93-14.65 20.56-19.23 20.56-19.23" fill="none" stroke="#0366d6" stroke-linecap="square" stroke-linejoin="round" stroke-width="2.43"/><path d="M523 288.83c4.43-8.3 18.28-29.78 51.17-34.91 40.28-6.27 71 28.25 71.62 58.88.74 34.68-18.31 51.31-34.88 63.22-7.91 5.69-27.54 16.84-49.61 12-16.39-3.59-14-18.5-14-18.5s-15.19-15.23-22.3-23.44c-19.79-22.78-2-57.25-2-57.25zM516.58 304.9s-7.78-.47-10.48 3.29" fill="none" stroke="#0366d6" stroke-linecap="square" stroke-linejoin="round" stroke-width="2.43"/><ellipse cx="566.94" cy="372.27" rx="5.17" ry="2.34" transform="rotate(-7.42 567.143 372.375)" fill="none" stroke="#0366d6" stroke-linecap="square" stroke-linejoin="round" stroke-width="2.43"/><path d="M523.92 342.52s10.53 5 16.35 2.12 25.46-33.92 44.9-29.89c9.72 2 17.39 8.34 19 16.72s-.58 15.33 5.65 18.63c3.26 1.73 14.57.67 15.53 12.2M566.2 294.7c-1.85-4 8.06-25.76 26.56-26.59 14.75-.67 19.59 23.06 20.07 32.4" fill="none" stroke="#0366d6" stroke-linecap="square" stroke-linejoin="round" stroke-width="2.43"/><path d="M571.92 291.39s5.12-8.94 13.8-8c10.35 1.12 19.93 10.15 19.93 10.15" fill="none" stroke="#0366d6" stroke-linecap="square" stroke-linejoin="round" stroke-width="2.43"/><path d="M596.28 384.51c-17.46 25.52-51.5 66.78-60.64 76.17s-25 23.88-25.94 31.22" fill="none" stroke="#0366d6" stroke-linecap="round" stroke-linejoin="round" stroke-width="2.43"/><path d="M512.1 516.64s-38.33 4.55-37.27-2.06 10.76-3 10.76-3a60.17 60.17 0 009.6 5.47" fill="none" stroke="#0366d6" stroke-linecap="square" stroke-linejoin="round" stroke-width="2.43"/><path d="M515 490.06c-9.8 3.07-24.35 12.49-29.45 21.55M624.29 342.93c7.55-11.8 20-19.23 26.93-20.07M629.11 349.55c4.24-4.09 13.23-7.91 20.8-6.34" fill="none" stroke="#0366d6" stroke-linejoin="round" stroke-width="2.43"/><path d="M639.62 327.69c4.34-2.78 8.51-4.45 11.6-4.83M642.43 343.19a20.22 20.22 0 017.48 0M546.11 373.73c-5.54-.93-11.93-.62-16.1 1.23M550.09 381.85c-5.4-.1-11.32 3.29-13.65 5.45" fill="none" stroke="#0366d6" stroke-linecap="round" stroke-linejoin="round" stroke-width="2.43"/><path fill="#1b8cfa" d="M974.35 560.39l-1.27 5.33-2.67 1.55 2.05-5.02 1.89-1.86zM957.82 565.22l5.8-2.19.8-4.33-8.26 3.12 1.66 3.4zM911.47 543.1l-.24 3.36c3 1.25 8.21 1.95 9.77 1.31l1.42-4.25-8.58-.73zM906.51 542.22l-.26 5.05 1.91 1.53 1.22-4.29-2.87-2.29z"/><path fill="#77bafc" d="M911.47 543.1l-.24 3.36-3.07 2.34 1.22-4.29 2.09-1.41zM922.42 543.52l-1.42 4.25 27.62 16.63 1.03-4.52-27.23-16.36zM932.69 536.43l-.92 3.69-3.5 1.06-1.35-2.77 2.18-2.04 3.59.06z"/><path fill="#006ad2" d="M928.92 538.68l-.35 4.18-2.91-.39.21-3.14 3.05-.65z"/><path d="M949.16 560.59l-1.06 6c.5 5.78 9.21 8.67 14 5.72l1.23-6M964.42 558.7l-.8 4.33 7.04 4.34 1.74-5.06-7.98-3.61z" fill="#77bafc"/><path d="M911.47 543.1c2.72 1.85 10.95.42 10.95.42.57.5 27.23 16.36 27.23 16.36-2.79 3.44 4.33 10.33 13.73 6.51l-7.22-4.57 7.91-2.11 8.33 2.6c5.8-2.18-3.15-11.22-15.19-6.7l-30.47-14.26a2.62 2.62 0 002-3.55l4-1.37-2.68-2-4.24 1.55c-3.1-2.12-7.9-2.59-10.83-1.29s-5.44 2.69-5.18 5.48l-3.25 2.1 2.87 2.3z" fill="#c8e2fd"/><path d="M916.93 537.91a8.56 8.56 0 014.91-.29c.82.21 2 2-.38 2.81s-4.9 1-5.8-.15.49-2.05 1.27-2.37zM915.55 544.24l-1.06 3.19a8.62 8.62 0 001.66.22l.9-3.33zM918.09 544.26l-.95 3.52.8-.05.91-3.53-.76.06z" fill="#77bafc"/><path fill="#1b8cfa" d="M919.95 537.52l-1.14 3.46.97-.11.95-3.24-.78-.11zM918.63 537.58l-.9 3.45.43.06 1.11-3.54M953.79 566.85a5.27 5.27 0 002.07.59l-1.34 5.78a10.83 10.83 0 01-3.06-1.45l1.3-5.54zM956.4 567.51l-.55 5.88.62.09.88-5.92-.95-.05zM931.21 548.8l1.77 6.35 3.39 1.97-.83-5.67-4.33-2.65zM937.3 552.56l1.06 5.7.59.32-.61-5.48-1.04-.54z"/><path fill="none" stroke="#77bafc" stroke-miterlimit="10" stroke-width="1.26" d="M925.08 542.5l27.62 14.75"/><path d="M1079 511.71c9.41-1.08 11.94 1.45 14.84 5.43s3.26 10.49 5.06 11.58 7.6 2.89 7.24 5.06S1095.66 537 1092 536c-4.34 1.09-10.85 2.9-10.85 2.9l1.15-.4c-14.93 5-69.76 8.13-68.38-13.2 1.85-28.32 34-28.27 34-28.27M1049.82 470.28s-16.1 19-23.1 25.52c-10.56 9.81-32.11 23.89-52.58 23.62-36.78-.49-44.48-17-50.15-21.71-13.23 1.57-11.89-1-11.89-1-3.6-3 6.33-17 28.25-12.77a201.49 201.49 0 0128.12 6.48M986.84 465.12a3.9 3.9 0 113.08-7.17" fill="none" stroke="#0366d6" stroke-linecap="square" stroke-linejoin="round" stroke-width="2.43"/><path d="M1113.47 466.31a19 19 0 01-3.59 8c-3.88 5.23-9.37 7.77-11.41 6.25s-.09-6.5 3.79-11.72a35.06 35.06 0 014.14-4.73M1071.37 478.15a25.49 25.49 0 019.34-.15c6.45.85 11.6 2.95 11.27 5.47s-5.9 4.71-12.35 3.86c-.74-.1-1.46-.24-2.15-.4" fill="none" stroke="#0366d6" stroke-miterlimit="10" stroke-width="2.43"/><path d="M1028.72 493.86a78 78 0 0115.62-1.09" fill="none" stroke="#0366d6" stroke-linecap="square" stroke-linejoin="round" stroke-width="2.43"/><path fill="#6a737d" d="M379.07 523.87l-5.08 2.79-4.78-10.69-10.13-.15-12.25-.94 2.22-2.21 9.34-3.88 14.09 1.91 6.59 13.17z"/><path fill="#959da5" d="M379.1 525.16l-5.08 2.8-6.09-9.72-8.85-2.42-10.17 2.28-2.08-3.22 11.59-4.8 14.18 3.25 6.5 11.83z"/><path fill="#6a737d" d="M376.66 537.22l-12.99 5.28-10.36-1.33-9.08-3.84.7-2.74 3.4-3.12 6.6 4.96 8.07 1.31 12.15-6.78 1.51 6.26z"/><path fill="#b2bbc4" d="M377.74 523.99l-3.34 5.29-10.27-7.68-9.7 2.38-8.2 4.84-4.92-2.44 2.61-4.58 8.75-3.91 13.03-1.48 12.04 7.58z"/><path fill="#959da5" d="M376.72 538.8l-12.99 5.28-10.36-1.33-9.14-5.42 4.16-4.28 6.6 4.96 8.09 2.02 11.79-5.78 1.85 4.55z"/><path fill="#d1d5da" d="M377.56 528.03l-3.33 5.29-10.27-7.69-10.19.72-9.4 2.8-3.06-2.77 11.18-4.45 13.04-1.49 12.03 7.59zM373.19 547.2l9.32 2.63.6-5.23a36 36 0 01-11-2.5 34.54 34.54 0 001.08 5.1z"/><path d="M379.76 512.39c-2 4.64-4.82 10.17-6.08 14.34 4.17-.46 7.69.58 11.26 2l1.74-15z" fill="#959da5"/><path d="M372.14 542.1a36.11 36.11 0 0011.06 2l1.18-16c-3.63-1.23-6.55-2.09-10.7-1.45a39.7 39.7 0 00-1.54 15.45z" fill="#b2bbc4"/><path d="M376.22 528.4a39.32 39.32 0 003.78 23.35c5.17.15 10.46 0 15.84.19-1.68-10.36-1.83-20.85.43-30.61a43.27 43.27 0 01-5.21-13 54.21 54.21 0 00-6 2.11c-2.06.91-7.06 6.95-8.84 17.96z" fill="#6a737d"/><path d="M397.73 562.24c-.46-2.21-1.91-7.77-2.27-10.47-4.18 0-11.29-.29-15.66-.3a7.74 7.74 0 002.23 2.84c2.2 1.89 9.74 6.1 15.7 7.93" fill="#586069"/><path d="M402.11 506.23c28.07-3.81 53.23 10.26 58.13 14 4.47 9.1 4.47 33-6.25 41.9-14.93 6.18-37.53 7-56.26.11-4.47-16.24-6.06-39.35 4.38-56.01z" fill="#fff5b1"/><path d="M459.47 554.63a20.79 20.79 0 01-5.48 7.5c-14.93 6.18-37.53 7-56.26.11-3.22-11.68-4.94-26.94-1.76-40.79 3.28 5.48 11.87 18.37 27.16 13.42 27.63-8.94 48.25-10.15 36.34 19.76z" fill="#ffdf5d"/><path d="M454 562.13c-14.93 6.18-37.53 7-56.26.11a96.37 96.37 0 01-2.17-9.85c16.43.61 41.89 5.68 58.43 9.74z" fill="#f9c513"/><path d="M391 508.49a53.24 53.24 0 005 12.66c1-5.21 4.74-13.23 6.08-14.92a78 78 0 00-11.08 2.26z" fill="#959da5"/><path d="M982.4 386.78a43.74 43.74 0 00-9.66 30.49c1.19 18.65 19.23 39.3 19.23 39.3s-7.66 7-.56 15.41c6.91 8.17 16.47 8.37 28.39 5.87 9-1.9 14.06-13.53 13.66-17.1s-3.25-9.79-15.55-13.76c3.46-33.69-27.69-42.15-34-37.47-7 5.18-5.81 12.68-9.77 14.66" fill="none" stroke="#0366d6" stroke-linecap="square" stroke-linejoin="round" stroke-width="2.43"/></svg>
