<svg fill="none" height="40" viewBox="0 0 158 40" width="158" xmlns="http://www.w3.org/2000/svg" xmlns:xlink="http://www.w3.org/1999/xlink"><clipPath id="a"><path d="m.5 0h157v40h-157z"/></clipPath><g clip-path="url(#a)" fill="#fff"><path d="m67.7285 21.3599h.8601v16.9962h-3.2537v-14.9333c0-.4848 1.0432-2.0629 2.3936-2.0629zm17.8045 3.7638c-1.596 0-2.824.6667-3.6832 2.0029v-5.7667h-.3689c-1.596 0-2.4561.8495-2.8848 1.5781v-.1219 9.7733c0 3.8248 2.0256 5.7667 6.0778 5.7667 4.0512-.06 6.0161-2.2457 6.0161-6.4952 0-4.4315-1.7193-6.6162-5.157-6.7372zm-.9824 10.441c-1.8416 0-2.7624-1.3362-2.7008-3.8857.1223-2.4886.9825-3.7029 2.7624-3.7029 1.78 0 2.6392 1.2143 2.7625 3.7029 0 2.6104-.9825 3.8857-2.8241 3.8857zm8.0426-3.8857c.1223-4.1286 2.1479-6.4353 6.5073-6.4353h.9825v3.3391h-1.5344c-1.8426 0-2.6401 1.1533-2.6401 3.0352v6.6772h-3.3153zm12.6468 3.3381c.553.4857 1.29.7285 2.271.7285.676 0 1.29-.1809 1.781-.5457.491-.3647.799-.7285.921-1.0933h3.07c-.492 1.5181-1.229 2.5495-2.273 3.2181-1.043.6667-2.209.9714-3.683.9714-.923.0027-1.838-.162-2.701-.4857-.798-.3048-1.473-.7895-2.026-1.3362-.556-.6025-.993-1.3025-1.289-2.0638-.307-.7895-.43-1.699-.43-2.6705 0-.9105.184-1.8219.492-2.6105.306-.7895.736-1.518 1.288-2.0638.553-.6076 1.229-1.0323 2.027-1.3962.798-.3647 1.657-.4857 2.639-.4857 1.044 0 2.027.1819 2.824.6067.799.4257 1.474.9714 1.965 1.639.491.6677.859 1.4572 1.105 2.3677.246.8495.307 1.8209.246 2.7923h-9.148c.122 1.1534.43 1.9429.921 2.4286zm3.929-6.5553c-.43-.4247-1.043-.6676-1.903-.6676-.552 0-1.044.121-1.413.3038-.367.181-.675.4238-.859.6667-.209.2555-.375.5427-.491.8505-.122.3038-.122.6066-.184.8495h5.648c-.061-.9105-.369-1.5781-.798-2.0029zm-33.8275-7.1019h-3.2536v2.9143h3.2536zm0 4.3705h-3.2536v12.5657h3.2536zm77.9065-11.1095c-.275.3109-.615.559-.996.7267-.382.1678-.796.2513-1.213.2447-.418.0065-.832-.0771-1.214-.2448-.382-.1678-.722-.4157-.997-.7266-.553-.6067-.737-1.6381-.737-2.8534 0-1.2742.246-2.18472.737-2.79139.275-.31089.615-.55883.997-.72659.382-.16775.796-.2513 1.214-.24483.92 0 1.657.36381 2.209.97142.553.60667.737 1.63809.737 2.79139 0 1.1534-.184 2.1248-.737 2.8534zm2.579-7.52669c-.983-1.27524-2.639-2.00381-4.788-2.00381-2.088 0-3.807.60762-4.789 2.00381-.983 1.27429-1.596 2.85238-1.596 4.61329 0 1.821.553 3.4 1.596 4.6134.982 1.2743 2.64 1.9428 4.789 1.9428 2.087 0 3.805-.6076 4.788-1.9428.982-1.2753 1.597-2.8534 1.597-4.6134.06-1.7-.493-3.27805-1.597-4.61329zm-15.962 7.52759c-.43.6067-1.167.9715-2.088.9715-.92 0-1.657-.3648-2.025-.9715-.43-.7285-.615-1.639-.615-2.8533 0-1.0924.185-1.94286.615-2.60953.429-.72952 1.105-1.09333 2.087-1.09333.614 0 1.167.1819 1.658.54571.737.60762 1.166 1.82195 1.166 3.40005-.184 1.0923-.307 2.0028-.798 2.6095zm3.806-13.2333s-3.315-.36477-3.315 2.24571v3.46c-.368-.54667-.798-.97143-1.473-1.39619-.553-.36381-1.29-.42476-2.026-.42476-1.658 0-2.947.60666-3.991 1.82095-.982 1.15333-1.473 2.91429-1.473 5.09909 0 1.8209.43 3.4 1.473 4.4314.983 1.1533 2.947 1.6381 4.666 1.6381 6.079 0 5.955-5.0981 5.955-5.0981zm-16.33 11.7152c0 1.0934-.369 1.821-.921 2.2457-.614.3648-1.289.6077-1.964.6077-.43 0-.799-.061-1.105-.3648-.307-.3029-.43-.6067-.43-1.1524 0-.6076.246-1.0933.736-1.3971.247-.181.799-.3638 1.474-.4248l.737-.1809c.368-.0619.614-.1829.92-.1829.184-.0609.43-.1819.615-.2428zm1.658-7.10187c-1.105-.54667-2.271-.78952-3.683-.78952-2.089 0-3.623.54666-4.483 1.63904-.552.72857-.798 1.5781-.92 2.60953h3.131c.061-.42381.245-.78857.429-1.09143.369-.36476.921-.54667 1.658-.54667s1.166.06095 1.597.24286c.368.1819.552.54666.552 1.09238 0 .42476-.246.72857-.737.91048-.246.0609-.737.1819-1.289.2429l-1.106.0609c-1.288.1819-2.209.4248-2.884.7895-1.167.6067-1.781 1.821-1.781 3.2772 0 1.1543.369 2.0647 1.105 2.7324.737.6066 1.657.9104 2.824.9714 7.183.2419 7.121-3.7638 7.121-4.5524v-4.61524c.062-1.33524-.429-2.42762-1.534-2.97333zm-16.269 2.00286c.798 0 1.412.24285 1.841.72857.246.36381.43.78857.43 1.27424h3.499c-.184-1.75996-.797-3.03519-1.841-3.64186-.982-.72857-2.394-.97143-4.053-.97143-1.964 0-3.499.54667-4.604 1.76095-1.104 1.21334-1.657 2.85234-1.657 4.91624 0 1.9428.43 3.4 1.473 4.5523.983 1.1543 2.579 1.7619 4.666 1.7619s3.683-.7295 4.789-2.0647c.614-.9105.982-1.821 1.105-2.8534h-3.499c-.062.6077-.246 1.1534-.614 1.5781-.369.3648-.922.6077-1.781.6077-1.105 0-1.965-.5467-2.271-1.5781-.243-.7037-.368-1.4421-.369-2.1858 0-.9104.062-1.76.369-2.24567.553-1.09333 1.289-1.63904 2.517-1.63904zm-7.306-2.73143c-7.305 0-6.8147 6.37334-6.8147 6.37334v6.4352h3.3157v-6.0095c0-.9714.061-1.7609.369-2.18571.429-.78952 1.288-1.27524 2.639-1.27524h.369c.184 0 .368 0 .551.06096v-3.2781h-.244c-.062-.12095-.062-.12095-.185-.12095zm-16.4533 3.33905c.4305-.42477 1.1057-.72858 1.9649-.72858.7368 0 1.412.18191 1.9649.60667.5519.42476.7975 1.09333.7975 1.9429h-5.6481c.1839-.72861.4305-1.33528.9208-1.82099zm4.421 6.00949c-.0373.0969-.095.1848-.1692.2581-.0742.0732-.1633.13-.2613.1667-.4296.3638-1.1048.4248-1.8417.4248-.7368 0-1.2887-.061-1.7799-.4248-.7985-.4248-1.2897-1.3962-1.2897-2.5495h9.0867c0-1.0924 0-1.9429-.0617-2.4286-.1839-.97143-.4295-1.82096-.9824-2.54953-.5529-.78857-1.2897-1.45714-2.0872-1.82095-.7985-.36381-1.8417-.54571-2.9474-.54571-1.8416 0-3.3143.54571-4.4201 1.76-1.1048 1.15333-1.78 2.79238-1.78 4.91709 0 2.2458.6136 3.9458 1.965 4.9172 1.2887.9714 2.7624 1.5781 4.42 1.5781 2.0256 0 3.6216-.6067 4.6657-1.821.6136-.6076.9825-1.2752 1.1048-1.9428zm-9.9459 3.3991h-3.0706v-7.4667c0-.72761-.184-2.2457-2.2106-2.2457-1.2887 0-2.2712.91047-2.2712 2.2457v7.4667h-3.0697v-7.4667c0-.72761-.183-2.2457-2.2095-2.2457-1.2897 0-2.2105.91047-2.2105 2.2457v7.4667h-3.0697v-7.4057c0-3.09528 2.0256-5.46289 5.2185-5.46289 1.5961 0 2.8858.60666 3.8056 1.76.9218-1.09239 2.2105-1.76 3.8065-1.76 3.3153 0 5.2186 2.24571 5.2186 5.46289z"/><path clip-rule="evenodd" d="m29.7232 0c16.1459 0 29.2222 8.4981 29.2222 18.879v1.0924c0 11.0476-11.3579 19.9715-29.2232 19.9715-17.8036 0-29.2222-8.9239-29.2222-19.9715v-1.0924c0-10.3809 13.0763-18.879 29.2232-18.879zm.1223 36.6038c15.4708 0 28.0558-7.9524 28.0558-17.7248 0-9.77424-12.5841-17.72662-28.0558-17.72662-15.4707 0-28.05675 7.95238-28.05675 17.72572 0 9.7733 12.58605 17.7257 28.05675 17.7257z" fill-rule="evenodd"/><path d="m45.4403 20.7602c-2.7634-2.3667-9.1484-7.8915-10.9284-9.1658-.9825-.7285-1.6567-1.1533-2.2712-1.2752-.2456-.06-.6145-.1819-1.1057-.1819-.4296 0-.9209.061-1.4111.2429-1.1058.3647-2.2105 1.2142-3.3153 2.0638l-.0617.0609c-.9824.7895-2.0265 1.5781-2.824 1.76-.3689.061-.6752.1219-1.0441.1219-.8592 0-1.6567-.2428-1.9649-.6076-.0607-.06 0-.1809.1232-.3029l2.4562-2.6104c1.9032-1.88193 3.6832-3.64193 7.8577-3.76384h.184c2.5784 0 5.1569 1.15334 5.4641 1.27524 2.4562 1.15238 4.9113 1.76 7.4282 1.76 2.6401 0 5.3418-.66762 8.1659-1.94285-.3082-.24286-.6752-.54572-.9825-.78858-2.5168 1.09238-4.8506 1.5781-7.1834 1.5781-2.3329 0-4.6657-.54667-6.9369-1.6381-.1224-.0619-2.9474-1.39714-5.9554-1.39714h-.2447c-3.5002.06095-5.4642 1.27524-6.7539 2.36762-1.2887 0-2.3945.36381-3.376.60667-.8601.24285-1.6576.42476-2.3945.42476h-.9208c-.8601 0-5.1569-1.03143-8.53383-2.36667-.36794.24286-.6752.48572-1.04314.72857 3.55997 1.45715 7.91937 2.54862 9.26977 2.67052.3689 0 .7985.0609 1.228.0609.9209 0 1.78-.2428 2.7008-.4857.5529-.12191 1.1058-.30381 1.6577-.42476l-.4912.48566-2.4562 2.6705c-.183.1819-.6135.7286-.3679 1.3353.1233.2428.3689.4857.6752.7285.6145.3648 1.6576.6677 2.6401.6677.3689 0 .7368-.06 1.0441-.121 1.0431-.2429 2.1479-1.0924 3.2536-2.0038.9208-.7276 2.2096-1.6381 3.192-1.9429.3073-.06.6146-.1209.9209-.1209h.2456c.6752.0609 1.2897.3047 2.4561 1.1533 2.0256 1.5181 11.0507 9.2876 11.1123 9.3486 0 0 .5519.4857.5519 1.3352 0 .4257-.3063.8505-.7358 1.1534-.3457.2298-.751.3564-1.1674.3647-.6136 0-1.0432-.3038-1.0432-.3038s-3.1313-2.7924-4.2361-3.7638c-.1839-.181-.3689-.3029-.5528-.3029-.1224 0-.184.06-.2457.121-.1839.2429 0 .5467.2457.7286l3.6216 3.5809s.4305.4257.4912.9714c0 .6077-.2447 1.0934-.8592 1.4572-.3723.2747-.8242.4237-1.2887.4248-.5529 0-.9208-.2429-1.0441-.3039l-.5529-.4857c-.9199-.9095-1.9023-1.8809-2.6391-2.4276-.185-.1209-.3689-.3038-.5529-.3038-.0617 0-.184 0-.2456.1219-.0617.061-.1224.2429.0616.5467.0617.1209.184.1809.184.1809l2.6391 2.9143s.5539.6676.0626 1.2143l-.1233.1219-.2456.2429c-.4296.3638-1.0431.4247-1.2887.4247h-.3689c-.2456-.0609-.4296-.1219-.5519-.2428-.1233-.1829-1.4737-1.4572-2.5785-2.3677-.1233-.1219-.3082-.2428-.4912-.2428-.0923.015-.1779.0571-.2456.1209-.184.2429.1223.6077.2456.7286l2.2712 2.4286s0 .06-.0617.1809c-.0616.1219-.3679.3657-1.1654.4857h-.3082c-.8592 0-1.7184-.4238-2.2096-.6666.1957-.4404.3002-.9152.3073-1.3962.0017-.431-.0828-.8581-.2488-1.2566-.1659-.3985-.4101-.7606-.7183-1.0653-.3082-.3048-.6744-.5462-1.0774-.7103-.4031-.1641-.835-.2477-1.2708-.2459h-.1233c.0616-.8495-.0607-2.4286-1.7184-3.0952-.4912-.1829-.9208-.3048-1.412-.3048-.3689 0-.6752.0609-1.0441.1829-.3679-.6677-.9208-1.1534-1.6567-1.3962-.3984-.1198-.8125-.1811-1.229-.1819-.6742 0-1.2888.1809-1.8416.6066-.2485-.3011-.5576-.548-.9076-.7249s-.7333-.2801-1.1257-.3029-.7854.0351-1.1539.1703c-.3686.1351-.7048.3444-.9873.6147-.6752-.5467-3.4386-2.2457-10.86671-3.9457-.36794-.061-1.16546-.3039-1.65669-.4858-.06164.3648-.12329.7896-.18493 1.2143 0 0 1.35135.3038 1.65765.3638 7.55138 1.6391 10.06818 3.4 10.49878 3.7029-.1211.3521-.1835.7214-.1849 1.0933-.0011.367.0713.7306.2129 1.0698.1415.3393.3495.6475.6119.907.2625.2595.5742.4651.9173.6051s.7108.2115 1.0819.2105c.184 0 .3689 0 .5529-.0609.2456 1.1523.9825 2.0028 2.1479 2.4285.3689.121.6762.181.9825.181.1849 0 .4305 0 .6761-.06.183.5457.6743 1.2133 1.78 1.6381.3434.1669.7222.2505 1.1048.2438.3072 0 .6145-.061.8601-.1829.4912 1.2143 1.7183 2.0648 3.0697 2.0648.9208 0 1.78-.3648 2.3935-1.0324.5529.3038 1.6577.8505 2.8241.8505h.4296c1.1674-.1219 1.6576-.6076 1.9033-.9114.0616-.06.0616-.121.1232-.182.2457.061.5529.122.9209.122.6135 0 1.228-.182 1.8416-.6686.6135-.4248 1.0441-1.0314 1.0441-1.5781.183.0609.4296.0609.6135.0609.6136 0 1.2888-.1819 1.9033-.6066 1.1664-.7286 1.3504-1.761 1.3504-2.3676.1839.0609.4305.0609.6145.0609.6135 0 1.2281-.1829 1.78-.5467.7368-.4857 1.1654-1.1533 1.228-1.9428.0617-.5457-.1233-1.0924-.3689-1.5781 1.9649-.8495 6.385-2.4286 11.6643-3.6419 0-.4248-.0607-.7895-.183-1.2143-6.3243 1.3352-11.0517 3.3381-12.2171 3.8848zm-17.743 10.1381c-1.228 0-2.2095-.9715-2.2712-2.1858 0-.1209 0-.3638-.2456-.3638-.1233 0-.184.06-.3072.121-.2457.2428-.6136.4857-1.1048.4857-.2456 0-.4913-.061-.7369-.1819-1.2897-.5467-1.3504-1.3962-1.2897-1.761 0-.1209 0-.1809-.0607-.2428l-.0616-.06h-.0616c-.0617 0-.1224 0-.2457.1209-.3679.2429-.7368.3648-1.1047.3648-.184 0-.4296-.061-.6136-.1219-1.7193-.6676-1.597-2.2457-1.4737-2.7314 0-.1219 0-.1819-.0616-.2429l-.1223-.1219-.1233.1219c-.368.3038-.7976.4857-1.2281.4857-.4721-.0005-.9247-.1862-1.2584-.5164-.3337-.3301-.5213-.7777-.5216-1.2445.0005-.4667.1882-.914.5219-1.244.3337-.3299.7862-.5155 1.2581-.516.8601 0 1.6577.6676 1.7809 1.5171l.0617.4857.2456-.4247c0-.061.7359-1.1524 2.0872-1.0924.2456 0 .4913.0609.7976.1209 1.0441.3038 1.228 1.2753 1.228 1.6391 0 .2428.184.2428.184.2428.0616 0 .184-.0609.184-.1209.1672-.1716.3675-.3083.589-.4022.2214-.0939.4597-.143.7007-.1445.3072 0 .6135.061.9824.2429 1.6567.7285.9208 2.7924.9208 2.8533-.1233.3638-.1839.4857 0 .6067h.1224c.0616 0 .1849 0 .3072-.061.2456-.06.5529-.1809.8592-.1809 1.2281 0 2.2712 1.0314 2.2712 2.2457.0189.2975-.0243.5956-.1271.8759-.1027.2802-.2627.5365-.47.7529s-.4574.3883-.7349.5049c-.2774.1166-.5761.1755-.8776.173z"/></g></svg>