<?xml version="1.0" encoding="utf-8"?>
<!-- Generator: Adobe Illustrator 25.2.1, SVG Export Plug-In . SVG Version: 6.00 Build 0)  -->
<svg version="1.1" id="Layer_1" xmlns="http://www.w3.org/2000/svg" xmlns:xlink="http://www.w3.org/1999/xlink" x="0px" y="0px"
	 viewBox="0 0 68.6 69.1" style="enable-background:new 0 0 68.6 69.1;" xml:space="preserve">
<style type="text/css">
	.st0{fill:#79B8FF;}
	.st1{fill:#9EF5D3;}
	.st2{fill-rule:evenodd;clip-rule:evenodd;fill:#9EF5D3;}
</style>
<path class="st0" d="M57.4,24.3l9.9,8.5c0.3,0.3,0.5,0.7,0.5,1.1v31c0,2.3-1.9,4.2-4.2,4.2H52.2c-0.8,0-1.4-0.6-1.4-1.4
	c0-0.8,0.6-1.4,1.4-1.4h11.3c0.8,0,1.4-0.6,1.4-1.4v0V34.5l-8.5-7.3l-4.8,3.6c-0.6,0.5-1.5,0.3-2-0.3c-0.5-0.6-0.3-1.5,0.3-2
	l5.7-4.2C56.1,23.9,56.9,23.9,57.4,24.3z"/>
<path class="st0" d="M15.5,24c0.8,0.1,1.4,0.8,1.3,1.5c-0.1,0.7-0.6,1.2-1.3,1.3H4.2c-0.8,0-1.4,0.6-1.4,1.4v36.7
	c0,0.8,0.6,1.4,1.4,1.4h11.3c0.8,0,1.4,0.6,1.4,1.4c0,0.8-0.6,1.4-1.4,1.4H4.2c-2.3,0-4.2-1.9-4.2-4.2V28.2C0,25.9,1.9,24,4.2,24
	L15.5,24z"/>
<path class="st0" d="M15.5,32.4c0,0.8-0.6,1.4-1.4,1.4h-7c-0.8,0-1.4-0.6-1.4-1.4c0-0.8,0.6-1.4,1.4-1.4h7
	C14.9,31,15.5,31.7,15.5,32.4z"/>
<path class="st0" d="M7.1,40.9h7c0.8,0,1.4-0.6,1.4-1.4c0-0.8-0.6-1.4-1.4-1.4h-7c-0.8,0-1.4,0.6-1.4,1.4
	C5.7,40.3,6.3,40.9,7.1,40.9z"/>
<path class="st0" d="M60.7,40.9h-7.1c-0.8,0-1.4,0.6-1.4,1.4c0,0.8,0.6,1.4,1.4,1.4c0,0,0,0,0,0h7.1c0.8,0,1.4-0.6,1.4-1.4
	C62.1,41.6,61.5,40.9,60.7,40.9C60.7,40.9,60.7,40.9,60.7,40.9z"/>
<path class="st0" d="M52.2,49.4c0-0.8,0.6-1.4,1.4-1.4c0,0,0,0,0,0h7.1c0.8,0,1.4,0.6,1.4,1.4c0,0.8-0.6,1.4-1.4,1.4h-7.1
	C52.9,50.8,52.2,50.2,52.2,49.4z"/>
<path class="st1" d="M45.9,0.2c0.7-0.4,1.6-0.1,1.9,0.6C47.9,1,48,1.2,48,1.4v25.4c-0.1,0.8-0.8,1.4-1.5,1.3
	c-0.7-0.1-1.2-0.6-1.3-1.3v-23L26.1,14.2c-2.2,1.3-3.5,3.6-3.5,6.2v6.4c0,0.8-0.6,1.4-1.4,1.4c-0.8,0-1.4-0.6-1.4-1.4v-6.4
	c0-3.6,2.1-7.3,5-8.6L45.9,0.2z"/>
<path class="st2" d="M33.9,25.4c-7.9,0.2-14.2,6.7-14,14.6c0.1,6.3,4.3,11.7,10.3,13.4c0.4,0.1,0.9,0,1.2-0.2
	c0.4-0.3,0.6-0.7,0.6-1.1v-3.6c0-0.4,0.1-0.7,0.3-1c0.3-0.4,0.3-0.9,0.1-1.4c-0.2-0.4-0.7-0.7-1.2-0.8c-1.2-0.1-4.1-0.7-4.1-4.7
	c-0.1-0.9,0.3-1.8,0.9-2.5c0.3-0.4,0.5-0.9,0.3-1.4c-0.1-0.5-0.2-1-0.2-1.6c0.5,0.2,1,0.5,1.5,0.8c0.4,0.2,0.8,0.3,1.2,0.1
	c1.9-0.6,3.9-0.6,5.8,0c0.5,0.2,1,0,1.4-0.4c0.4-0.3,0.9-0.6,1.3-0.7c0,0.3,0,0.9-0.2,2c0,0.4,0.1,0.8,0.4,1.1
	c0.5,0.7,0.8,1.6,0.7,2.5c0,2.5-1.3,4-4.3,4.7c-0.4,0.1-0.8,0.4-1,0.8c-0.2,0.4-0.2,0.9,0.1,1.3c0.2,0.3,0.3,0.7,0.3,1.1
	c0,0.6,0,1.8,0,3.7c0,0.8,0.6,1.4,1.4,1.4c0.1,0,0.3,0,0.4-0.1c3.5-0.9,6.5-3.1,8.4-6.2c1.5-2.3,2.2-4.9,2.2-7.6
	c0-3.7-1.4-7.3-3.9-10C41.4,27,37.7,25.4,33.9,25.4z M43.3,45.9c-1.2,1.9-2.9,3.4-5,4.3c0-0.8,0-1.3,0-1.6c0-0.3,0-0.6-0.1-0.9
	c3.1-0.9,5.2-3.8,5-7c0.1-1.4-0.3-2.8-1-4c0.1-0.8,0.2-1.7,0.1-2.5c-0.1-0.9-0.8-1.7-1.7-2c-1.4-0.2-2.7,0.2-3.8,1.1
	c-2-0.5-4.1-0.5-6.2,0c-1.8-1-3-1.2-4-0.8c-0.8,0.4-1.3,1.1-1.3,2c-0.1,0.8-0.1,1.6,0.1,2.4c-0.8,1.1-1.2,2.5-1.2,3.9
	c0,4.2,2.4,6.3,4.9,7.1l0,0c0,0.2,0,0.5,0,0.7v1.6c-1.7-0.8-3.3-2-4.4-3.6c-1.4-2-2.2-4.3-2.2-6.8c-0.1-6.3,4.9-11.4,11.1-11.5
	c0,0,0.1,0,0.1,0c3.1,0,6,1.3,8.1,3.5C45.6,35.6,46.2,41.4,43.3,45.9L43.3,45.9z"/>
<path class="st1" d="M46.6,50.8c-0.8,0-1.4,0.6-1.4,1.4v14.1h-5.6v-3c0-0.8-0.6-1.4-1.4-1.4h0h-8.5c-0.8,0-1.4,0.6-1.4,1.4l0,0v3
	h-5.6V52.2c0-0.8-0.6-1.4-1.4-1.4c-0.8,0-1.4,0.6-1.4,1.4v15.5c0,0.8,0.6,1.4,1.4,1.4h8.4c0.8,0,1.4-0.6,1.4-1.4v-3h5.6v3
	c0,0.8,0.6,1.4,1.4,1.4h8.5c0.8,0,1.4-0.6,1.4-1.4V52.2C48,51.4,47.3,50.8,46.6,50.8z"/>
</svg>
