<svg fill="none" height="24" viewBox="0 0 30 24" width="30" xmlns="http://www.w3.org/2000/svg"><path d="m29.5385 0v5.98058h-1.5671c-1.7759.05178-3.0296.49191-3.7608 1.32039-.6791.7767-1.0186 1.86408-1.0186 3.26213v2.6408h5.1712v10.7961h-11.4393v-13.9029c0-3.67639.8619-6.2395 2.5856-7.68934 1.7237-1.501614 4.0481-2.278312 6.9733-2.3300911zm-16.9239 0v5.98058h-1.5671c-1.77592.05178-3.02955.49191-3.76082 1.32039-.67905.7767-1.01857 1.86408-1.01857 3.26213v2.6408h5.17119v10.7961h-11.4393v-13.9029c0-3.67639.861865-6.2395 2.58559-7.68934 1.72373-1.501614 4.04816-2.278312 6.97327-2.3300911z" fill="#c8ff80"/></svg>