<svg width="24" height="24" viewBox="0 0 24 24" fill="none" xmlns="http://www.w3.org/2000/svg">
<path d="M15.5 11.9999C15.5 13.9329 13.933 15.4999 12 15.4999C10.067 15.4999 8.5 13.9329 8.5 11.9999C8.5 10.0669 10.067 8.49988 12 8.49988C13.933 8.49988 15.5 10.0669 15.5 11.9999Z" fill="currentColor"/>
<path fill-rule="evenodd" clip-rule="evenodd" d="M12.0001 3.5C8.56823 3.5 5.87563 5.03417 3.94603 6.74062C2.0204 8.44355 0.814528 10.3513 0.329717 11.2012C0.0450429 11.7003 0.045042 12.2997 0.329716 12.7987C0.814527 13.6487 2.0204 15.5564 3.94603 17.2594C5.87563 18.9658 8.56822 20.5 12.0001 20.5C15.432 20.5 18.1246 18.9658 20.0542 17.2593C21.9798 15.5564 23.1857 13.6486 23.6705 12.7987C23.9552 12.2996 23.9552 11.7003 23.6705 11.2012C23.1857 10.3512 21.9798 8.44351 20.0542 6.74059C18.1246 5.03415 15.432 3.5 12.0001 3.5ZM1.63266 11.9444C2.07414 11.1704 3.18421 9.41675 4.93973 7.86426C6.69127 6.31527 9.04499 5 12.0001 5C14.9553 5 17.309 6.31526 19.0605 7.86423C20.816 9.41671 21.9261 11.1704 22.3675 11.9444C22.3807 11.9674 22.384 11.9859 22.384 11.9999C22.384 12.0139 22.3807 12.0325 22.3675 12.0555C21.9261 12.8295 20.816 14.5832 19.0605 16.1357C17.309 17.6847 14.9553 19 12.0001 19C9.04499 19 6.69127 17.6847 4.93973 16.1357C3.18421 14.5832 2.07414 12.8296 1.63266 12.0556C1.61955 12.0326 1.61621 12.014 1.61621 12C1.61621 11.986 1.61955 11.9674 1.63266 11.9444Z" fill="currentColor"/>
</svg>
