<?xml version="1.0" encoding="UTF-8" standalone="no"?>
<svg
   xmlns:dc="http://purl.org/dc/elements/1.1/"
   xmlns:cc="http://creativecommons.org/ns#"
   xmlns:rdf="http://www.w3.org/1999/02/22-rdf-syntax-ns#"
   xmlns:svg="http://www.w3.org/2000/svg"
   xmlns="http://www.w3.org/2000/svg"
   version="1.1"
   id="svg448"
   xml:space="preserve"
   width="375.608"
   height="265.67334"
   viewBox="0 0 375.608 265.67334"><metadata
     id="metadata454"><rdf:RDF><cc:Work
         rdf:about=""><dc:format>image/svg+xml</dc:format><dc:type
           rdf:resource="http://purl.org/dc/dcmitype/StillImage" /><dc:title></dc:title></cc:Work></rdf:RDF></metadata><defs
     id="defs452"><clipPath
       clipPathUnits="userSpaceOnUse"
       id="clipPath464"><path
         d="M 0,199.255 H 281.706 V 0 H 0 Z"
         id="path462" /></clipPath></defs><g
     id="g456"
     transform="matrix(1.3333333,0,0,-1.3333333,0,265.67333)"><g
       id="g458"><g
         id="g460"
         clip-path="url(#clipPath464)"><g
           id="g466"
           transform="translate(236.0462,59.4691)"><path
             d="m 0,0 c 0,0.974 -0.789,1.763 -1.763,1.763 h -182.365 c -0.973,0 -1.762,-0.789 -1.762,-1.763 0,-0.973 0.789,-1.762 1.762,-1.762 H -1.763 C -0.789,-1.762 0,-0.973 0,0 m -156.481,78.417 c 0.897,0 1.623,0.726 1.623,1.623 v 9.431 c 0,0.906 -0.734,1.641 -1.641,1.641 h -26.112 c -0.907,0 -1.641,-0.735 -1.641,-1.641 V 8.67 c 0,-0.897 0.727,-1.623 1.623,-1.623 h 9.106 c 0.897,0 1.623,0.726 1.623,1.623 v 32.847 h 9.815 c 0.896,0 1.623,0.727 1.623,1.623 v 9.449 c 0,0.896 -0.727,1.623 -1.623,1.623 h -9.815 v 24.205 z m 142.316,-8.139 c 0.046,-0.925 0.852,-1.623 1.773,-1.536 l 8.916,0.841 c 0.858,0.081 1.501,0.814 1.474,1.676 -0.143,4.342 -0.919,9.248 -3.063,13.334 -2.403,4.461 -6.748,7.549 -14.183,7.434 -5.833,-0.114 -9.837,-2.745 -12.467,-6.405 -2.631,-3.774 -3.66,-8.692 -3.66,-13.267 0,-2.288 0.343,-4.575 1.029,-6.749 1.258,-4.46 3.317,-8.806 6.062,-13.038 2.745,-4.232 5.376,-8.121 7.777,-11.552 1.145,-1.716 2.174,-3.432 3.203,-5.033 1.83,-3.316 3.202,-6.519 3.202,-9.264 0,-5.375 -1.372,-9.264 -5.032,-9.264 -2.631,0 -4.003,1.83 -4.803,4.575 -0.764,2.196 -0.97,5.03 -1.017,7.969 -0.016,0.944 -0.833,1.675 -1.774,1.587 l -8.88,-0.838 c -0.838,-0.079 -1.485,-0.787 -1.471,-1.63 0.091,-5.752 0.76,-11.225 3.076,-15.437 2.517,-4.576 6.978,-7.549 14.869,-7.549 6.748,0 10.98,2.515 13.611,6.405 2.63,3.889 3.545,9.15 3.545,14.754 0,4.575 -1.487,8.921 -3.66,13.153 -2.173,4.232 -5.032,8.578 -7.891,12.81 -2.403,3.546 -4.804,6.863 -6.634,10.065 -1.83,3.202 -3.089,6.177 -3.089,9.036 0,4.918 1.03,8.235 4.232,8.349 1.945,0 3.203,-1.601 4.003,-3.889 0.526,-1.574 0.755,-4.623 0.852,-6.537 m -38.924,3.563 c 0,2.288 -0.457,3.889 -1.6,5.262 -0.573,0.572 -1.488,0.915 -2.517,0.915 -2.173,0 -3.202,-1.601 -3.66,-3.088 -0.343,-0.915 -0.458,-1.945 -0.458,-3.089 V 24.317 c 0,-2.402 0.572,-4.003 1.716,-5.261 0.572,-0.572 1.373,-0.915 2.402,-0.915 2.173,0 3.202,1.373 3.66,3.088 0.343,0.801 0.457,1.83 0.457,3.088 z m 12.353,-49.524 c -0.115,-3.431 -0.801,-6.519 -2.059,-9.15 -1.029,-2.287 -2.631,-4.46 -4.918,-6.176 -2.288,-1.83 -5.376,-2.859 -9.493,-2.859 -4.118,0 -7.32,1.029 -9.607,2.859 -2.289,1.716 -3.775,3.889 -4.804,6.176 -1.259,2.631 -1.945,5.719 -2.059,9.15 v 49.524 c 0.114,3.318 0.8,6.406 2.059,9.036 1.029,2.288 2.515,4.575 4.804,6.291 2.287,1.715 5.489,2.859 9.607,2.859 4.117,0 7.205,-1.144 9.493,-2.859 2.287,-1.716 3.889,-4.003 4.918,-6.291 1.258,-2.63 1.944,-5.718 2.059,-9.036 z m -60.137,27.494 c 1.715,0 4.003,0.228 5.833,1.83 1.83,1.601 3.317,5.938 3.317,11.885 0,5.948 -1.487,10.031 -3.317,11.633 -1.83,1.601 -4.118,1.715 -5.833,1.715 V 53.059 Z m 3.317,-7.692 h -3.317 V 8.67 c 0,-0.897 -0.727,-1.623 -1.624,-1.623 h -9.106 c -0.896,0 -1.623,0.726 -1.623,0.742 v 80.819 c 0,1.777 0.727,2.504 1.623,2.504 h 10.73 c 14.755,0 21.045,-9.23 21.045,-25.128 0,-8.35 -2.173,-15.899 -6.862,-19.101 l 7.517,-37.904 c 0.194,-1.002 -0.573,-1.932 -1.594,-1.932 h -9.028 c -0.785,0 -1.458,0.561 -1.598,1.335 z"
             style="fill:#074f73;fill-opacity:1;fill-rule:nonzero;stroke:none"
             id="path468" /></g><g
           id="g470"
           transform="translate(102.7728,102.2596)"><path
             d="m 0,0 c -0.358,-0.301 -0.909,-0.03 -0.909,0.437 v 5.554 c 0,0.495 -0.297,0.941 -0.753,1.133 l -2.573,1.082 c -0.429,0.18 -0.911,0.18 -1.339,0 L -8.147,7.124 C -8.604,6.932 -8.9,6.486 -8.9,5.991 V 0.437 c 0,-0.468 -0.551,-0.739 -0.909,-0.438 -1.646,1.385 -2.7,3.449 -2.717,5.765 -0.031,3.952 3.453,7.569 7.404,7.679 4.309,0.12 7.84,-3.338 7.84,-7.619 C 2.718,3.484 1.66,1.396 0,0 m -4.904,1.542 c -1.087,0 -1.968,0.88 -1.968,1.966 0,1.087 0.881,1.968 1.968,1.968 1.086,0 1.966,-0.881 1.966,-1.968 0,-1.086 -0.88,-1.966 -1.966,-1.966 M 14.934,-33.876 2.727,46.963 c -0.12,0.794 -0.802,1.382 -1.605,1.382 h -12.308 c -0.802,0 -1.484,-0.588 -1.605,-1.382 L -25,-33.876 c -0.148,-0.983 0.612,-1.867 1.605,-1.867 h 9.983 l 3.037,31.055 h -0.709 c -0.608,0 -1.102,0.493 -1.102,1.101 0,0.608 0.494,1.102 1.102,1.102 H 1.171 c 0.609,0 1.101,-0.494 1.101,-1.102 0,-0.608 -0.492,-1.101 -1.101,-1.101 H 0.556 l 2.79,-31.055 h 9.983 c 0.993,0 1.753,0.884 1.605,1.867 m -19.783,4.578 c -0.73,0 -1.321,0.592 -1.321,1.322 v 1.947 c 0,0.731 0.591,1.322 1.321,1.322 0.73,0 1.322,-0.591 1.322,-1.322 v -1.947 c 0,-0.73 -0.592,-1.322 -1.322,-1.322 m 0,8.281 c -0.73,0 -1.321,0.592 -1.321,1.321 v 1.948 c 0,0.73 0.591,1.322 1.321,1.322 0.73,0 1.322,-0.592 1.322,-1.322 v -1.948 c 0,-0.729 -0.592,-1.321 -1.322,-1.321 m 0,8.28 c -0.73,0 -1.321,0.592 -1.321,1.321 v 1.949 c 0,0.729 0.591,1.321 1.321,1.321 0.73,0 1.322,-0.592 1.322,-1.321 v -1.949 c 0,-0.729 -0.592,-1.321 -1.322,-1.321 m 7.506,-50.287 h -6.73 c -0.973,0 -1.762,0.789 -1.762,1.762 0,0.972 0.789,1.762 1.762,1.762 h 6.73 c 0.973,0 1.762,-0.79 1.762,-1.762 0,-0.973 -0.789,-1.762 -1.762,-1.762 m -7.432,-5.659 h -4.327 c -0.973,0 -1.762,0.789 -1.762,1.762 0,0.973 0.789,1.762 1.762,1.762 h 4.327 c 0.973,0 1.762,-0.789 1.762,-1.762 0,-0.973 -0.789,-1.762 -1.762,-1.762 m 3.425,13.079 c 0,0.973 -0.789,1.762 -1.762,1.762 h -4.326 c -0.973,0 -1.762,-0.789 -1.762,-1.762 0,-0.974 0.789,-1.763 1.762,-1.763 h 4.326 c 0.973,0 1.762,0.789 1.762,1.763 m 8.063,5.658 c 0,0.973 -0.789,1.762 -1.762,1.762 h -9.227 c -0.973,0 -1.762,-0.789 -1.762,-1.762 0,-0.973 0.789,-1.762 1.762,-1.762 h 9.227 c 0.973,0 1.762,0.789 1.762,1.762 m -17.154,-1.762 h -4.326 c -0.973,0 -1.762,0.789 -1.762,1.762 0,0.973 0.789,1.762 1.762,1.762 h 4.326 c 0.973,0 1.762,-0.789 1.762,-1.762 0,-0.973 -0.789,-1.762 -1.762,-1.762"
             style="fill:#ea560d;fill-opacity:1;fill-rule:nonzero;stroke:none"
             id="path472" /></g></g></g></g></svg>
