<svg xmlns="http://www.w3.org/2000/svg" width="32" height="32" fill="none"><g clip-path="url(#a)"><rect width="32" height="32" fill="#000" rx="3"/><path fill="#E4E4E4" d="M3 15.816C3 8.736 8.818 3 16 3c7.183 0 13 5.735 13 12.816 0 .23-.006.46-.018.687a8.953 8.953 0 0 0-4.664-1.498c-.031-1.346-.529-2.438-1.33-3.306.13-.32.585-1.634-.13-3.396 0 0-1.09-.353-3.576 1.313a12.225 12.225 0 0 0-3.25-.432c-1.104 0-2.21.144-3.25.432-2.486-1.65-3.575-1.313-3.575-1.313-.715 1.762-.26 3.076-.13 3.396-.828.897-1.332 2.05-1.332 3.444 0 4.902 3.022 6.008 5.915 6.328-.374.32-.715.881-.829 1.715-.747.336-2.616.88-3.786-1.058-.244-.384-.975-1.33-1.999-1.314-1.089.017-.439.61.016.85.553.304 1.187 1.441 1.333 1.81.26.72 1.105 2.099 4.371 1.506 0 .7.007 1.373.012 1.841l.005.546c0 .336-.244.72-.894.608C6.72 26.277 3 21.488 3 15.816Z"/><circle cx="24" cy="24" r="5" fill="#ADBAC7"/></g><defs><clipPath id="a"><path fill="#fff" d="M0 0h32v32H0z"/></clipPath></defs></svg>