<svg width="146" height="108" viewBox="0 0 146 108" fill="none" xmlns="http://www.w3.org/2000/svg">
<path d="M79.1425 94.3077C115.66 94.3077 145.263 90.8702 145.263 86.6297C145.263 82.3893 115.66 78.9518 79.1425 78.9518C42.6254 78.9518 13.0225 82.3893 13.0225 86.6297C13.0225 90.8702 42.6254 94.3077 79.1425 94.3077Z" fill="#E8EAEE"/>
<path d="M94.9971 45.3734C97.5861 45.1333 100.047 44.1364 102.074 42.507C103.886 40.7072 105.488 38.7065 106.847 36.5438" stroke="#0366D6" stroke-width="0.767797" stroke-miterlimit="10"/>
<path fill-rule="evenodd" clip-rule="evenodd" d="M86.3979 82.5988V88.5087L86.398 88.5107L86.398 88.5176L86.3981 88.5433C86.3981 88.5657 86.398 88.5982 86.3974 88.6398C86.3962 88.7229 86.3932 88.8423 86.3861 88.9888C86.3718 89.2816 86.3409 89.6844 86.2739 90.1239C86.207 90.5628 86.1035 91.0432 85.9423 91.4891C85.7819 91.9332 85.5593 92.3571 85.2465 92.67L85.2333 92.6832L85.2181 92.6939C84.1202 93.4681 82.7944 93.8516 81.4528 93.783H49.1171C48.7317 93.7527 48.3444 93.8073 47.9828 93.9441C47.6296 94.0778 47.3096 94.2861 47.0444 94.5548C46.686 95.1906 46.5388 95.9242 46.6246 96.6495L46.6533 96.8926H21.3816C21.1373 96.8818 20.8933 96.9202 20.6643 97.006C20.4353 97.0918 20.2259 97.2229 20.0488 97.3915C19.8716 97.5601 19.7303 97.7627 19.6334 97.9872C19.5364 98.2117 19.4858 98.4535 19.4845 98.698L19.4844 98.7018C19.4733 99.1948 19.6485 99.6738 19.9752 100.043C20.2995 100.41 20.7494 100.642 21.236 100.693H33.0697C33.7907 100.662 34.4977 100.899 35.0553 101.357L35.0702 101.369L35.0828 101.384C35.5384 101.919 35.7639 102.612 35.7106 103.312V105.56L35.7078 105.578C35.673 105.794 35.6879 106.016 35.7515 106.226C35.815 106.436 35.9252 106.628 36.0738 106.789C36.1057 106.822 36.1649 106.862 36.2612 106.902C36.356 106.942 36.4743 106.977 36.6111 107.007C36.8847 107.068 37.2122 107.103 37.532 107.124C37.8505 107.144 38.155 107.149 38.3803 107.149C38.4928 107.148 38.5852 107.147 38.6492 107.146L38.723 107.144L38.7419 107.143L38.7466 107.143L38.7562 107.142L71.2495 107.143C71.7141 107.042 72.134 106.794 72.4469 106.435C72.7609 106.075 72.95 105.624 72.9864 105.148C72.9417 104.668 72.7496 104.213 72.4362 103.845C72.1248 103.48 71.709 103.22 71.2451 103.099H61.5131L61.4808 103.089C60.9474 102.919 60.4858 102.576 60.1688 102.114C59.8553 101.658 59.7009 101.111 59.7292 100.558C59.6732 100.021 59.825 99.4831 60.1537 99.0544C60.4863 98.6207 60.9741 98.3329 61.5145 98.2514L61.5306 98.249H76.9796V98.6841H61.5637C61.1409 98.7519 60.7598 98.979 60.499 99.3192C60.2349 99.6635 60.1147 100.097 60.1635 100.528L60.1656 100.546L60.1645 100.565C60.1375 101.028 60.2652 101.486 60.5274 101.868C60.7835 102.241 61.1536 102.52 61.5816 102.664H71.299L71.3248 102.67C71.887 102.81 72.3913 103.122 72.7672 103.563C73.1432 104.003 73.3719 104.551 73.4214 105.128L73.4228 105.145L73.4217 105.161C73.382 105.738 73.1548 106.286 72.7747 106.721C72.3946 107.157 71.8825 107.456 71.3165 107.573L71.2947 107.578H38.7601L38.7569 107.578L38.7363 107.579C38.7183 107.579 38.6922 107.58 38.6589 107.581C38.5923 107.582 38.4969 107.584 38.381 107.584C38.1497 107.584 37.8351 107.579 37.5042 107.558C37.1745 107.537 36.8222 107.499 36.5176 107.432C36.3653 107.399 36.2198 107.357 36.0928 107.304C35.968 107.251 35.8474 107.182 35.7576 107.088L35.7558 107.086C35.5617 106.876 35.4178 106.626 35.3351 106.352C35.2541 106.085 35.2338 105.803 35.2755 105.526V103.286C35.3218 102.704 35.1384 102.128 34.764 101.681C34.2905 101.298 33.693 101.101 33.0841 101.128L33.0745 101.128L21.2139 101.128L21.2031 101.127C20.6034 101.067 20.0485 100.783 19.6493 100.331C19.2504 99.8804 19.0362 99.2957 19.0494 98.6939C19.0513 98.3914 19.114 98.0924 19.234 97.8147C19.3541 97.5365 19.5293 97.2853 19.7488 97.0763C19.9684 96.8674 20.2278 96.7049 20.5117 96.5986C20.794 96.4928 21.0947 96.4449 21.3958 96.4575H46.1715C46.1305 95.7107 46.3064 94.9661 46.6806 94.3145L46.694 94.291L46.7128 94.2716C47.0261 93.9476 47.4072 93.6968 47.8288 93.5372C48.2476 93.3787 48.6961 93.3141 49.1426 93.3479H81.4698C82.7095 93.4125 83.9351 93.0611 84.9517 92.3493C85.1958 92.0998 85.3866 91.7467 85.5331 91.3413C85.6815 90.9307 85.7795 90.4801 85.8438 90.0584C85.9079 89.6374 85.9378 89.25 85.9515 88.9677C85.9584 88.8267 85.9612 88.7123 85.9623 88.6336C85.9629 88.5943 85.963 88.5638 85.963 88.5435L85.9629 88.5206L85.9629 88.5151L85.9629 88.5136L85.9629 88.5108V82.5988H86.3979Z" fill="#72B5E4"/>
<path fill-rule="evenodd" clip-rule="evenodd" d="M127.808 55.9306L139.44 66.7693L138.007 67.921L127.36 57.7605L127.808 55.9306Z" fill="#DCA82D"/>
<path d="M127.565 56.9032C127.832 56.8142 128.119 56.8042 128.392 56.8746C128.664 56.945 128.911 57.0927 129.101 57.2999C130.202 58.4004 128.794 58.7843 129.766 59.7696C130.739 60.755 130.905 59.0146 131.839 59.9616C132.774 60.9085 131.417 61.3308 132.505 62.3545C133.593 63.3783 133.913 61.9195 134.783 62.6233C135.653 63.3271 134.271 64.0693 135.525 65.285C136.779 66.5006 136.549 64.274 137.675 65.4001C138.801 66.5262 136.933 66.539 137.879 67.4348C137.982 67.55 138.097 67.6523 138.199 67.7547" stroke="#F9C513" stroke-width="0.409492" stroke-miterlimit="10"/>
<path d="M130.125 87.1288L92.5283 91.019V55.6619L127.988 55.9179L130.125 87.1288Z" fill="#FFDF5D"/>
<path d="M129.37 76.1749L127.988 55.9179L92.5283 55.6619V59.5009C94.4606 66.3727 96.7256 73.2061 99.221 79.9755C109.317 78.5679 119.401 77.8129 129.37 76.1749Z" fill="#F9C513"/>
<mask id="mask0" mask-type="alpha" maskUnits="userSpaceOnUse" x="92" y="59" width="39" height="32">
<path d="M99.1692 79.9372C96.6099 73.2189 94.4089 66.3856 92.4766 59.4626V90.9678L130.073 87.1289L129.318 76.175C119.401 77.8129 109.317 78.5679 99.1692 79.9372Z" fill="#FFDF5D"/>
</mask>
<g mask="url(#mask0)">
<path d="M90.916 75.2791C97.2247 73.4236 95.5868 79.3356 102.036 81.9589C110.341 85.3245 110.994 83.4433 117.623 83.8144C124.251 84.1856 125.045 89.381 125.045 89.381V93.4631L91.6582 96.0224L90.916 75.2791Z" fill="#FFD33D"/>
</g>
<path d="M107.424 90.6478L106.989 76.5204L96.2783 76.3668L96.5726 91.8635L107.424 90.6478Z" fill="#FEFAE1"/>
<path d="M104.608 78.2607H97.2119" stroke="#F9A877" stroke-width="0.83178" stroke-miterlimit="10"/>
<path d="M104.712 79.8347L97.2383 80.257" stroke="#F9A877" stroke-width="0.83178" stroke-miterlimit="10"/>
<path d="M101.602 82.2149L97.0332 82.5348" stroke="#F9A877" stroke-width="0.409492" stroke-miterlimit="10"/>
<path d="M101.153 83.0723L97.1094 83.2258" stroke="#F9A877" stroke-width="0.409492" stroke-miterlimit="10"/>
<path d="M103.469 84.1088L97.1094 84.3647" stroke="#F9A877" stroke-width="0.409492" stroke-miterlimit="10"/>
<path d="M102.714 85.1837L97.1094 85.5036" stroke="#F9A877" stroke-width="0.409492" stroke-miterlimit="10"/>
<path d="M102.509 89.0483L96.9043 89.3683" stroke="#F9A877" stroke-width="0.409492" stroke-miterlimit="10"/>
<mask id="mask1" mask-type="alpha" maskUnits="userSpaceOnUse" x="92" y="55" width="44" height="20">
<path d="M127.809 55.9307L135.832 70.8771L135.461 72.2207L100.053 74.972L92.5283 57.9141V55.6619L127.809 55.9307Z" fill="#F9A877"/>
</mask>
<g mask="url(#mask1)">
<path d="M127.809 55.9307L135.832 70.8771L135.461 72.2207L100.053 74.972L92.5283 57.9141V55.6619L127.809 55.9307Z" fill="#F9A877"/>
<path d="M99.2715 75.0872C100.551 74.972 100.014 74.1402 101.357 74.0123C102.701 73.8843 101.997 74.5753 103.302 74.4474C104.608 74.3194 104.301 73.6668 105.452 73.59C106.604 73.5132 105.747 74.2938 106.988 74.1914C108.229 74.0891 107.244 73.6028 108.651 73.4492C110.059 73.2957 109.458 74.0379 110.801 73.9483C112.145 73.8587 111.377 73.2189 112.58 73.0653C113.783 72.9118 113.143 73.6796 114.423 73.5772C115.702 73.4748 115.446 72.8606 116.585 72.7454C118.479 72.5535 118.326 73.3213 119.337 73.2317C121.064 73.0525 120.77 72.3871 122.446 72.2463C124.123 72.1056 122.766 73.0141 125.249 72.8094C127.731 72.6046 126.797 71.824 129.433 71.6065C131.353 71.4529 130.444 72.3359 132.786 72.1568C135.128 71.9776 135.473 71.0818 137.175 70.9667" stroke="#F9C513" stroke-width="0.409492" stroke-miterlimit="10"/>
<path d="M91.415 54.8813C92.0805 55.3036 91.671 55.3036 92.3364 56.852C93.0018 58.4004 92.9634 56.852 93.6161 58.2469C94.2687 59.6417 93.0914 58.8739 93.6161 60.0128C94.1407 61.1517 94.3839 59.8592 94.8957 60.9981C95.4076 62.137 94.3199 61.7147 94.8957 62.8025C95.4716 63.8902 95.51 62.7001 96.1754 64.1973C96.8408 65.6945 95.8043 64.9779 96.4313 66.2191C97.0583 67.4604 97.0072 66.0656 97.6214 67.4092C98.2356 68.7529 97.2119 68.241 97.8261 69.5847C98.4404 70.9283 98.5044 69.4823 99.0162 70.6212C99.5281 71.7601 98.6067 71.453 99.1186 72.4895C99.6305 73.526 99.7968 72.4895 100.309 73.5132C100.821 74.5369 99.6433 73.7308 100.206 74.9208" stroke="#F9C513" stroke-width="0.409492" stroke-miterlimit="10"/>
</g>
<mask id="mask2" mask-type="alpha" maskUnits="userSpaceOnUse" x="80" y="55" width="13" height="37">
<path d="M92.5151 91.0318L80.8574 84.3391V57.5942L92.5279 55.6619L92.5151 91.0318Z" fill="#79B8FF"/>
</mask>
<g mask="url(#mask2)">
<path d="M92.5151 91.0318L80.8574 84.3391V57.5942L92.5279 55.6619L92.5151 91.0318Z" fill="#79B8FF"/>
<path d="M92.5155 91.0317L80.8578 87.8582C80.8578 87.8582 78.2984 82.9571 80.3587 79.5532C82.419 76.1493 83.7754 83.6097 86.5906 83.6097C89.4059 83.6097 89.2395 75.1768 92.5667 74.9464L92.5155 91.0317Z" fill="#2188FF"/>
<path d="M92.4 63.583L92.5279 55.6619L80.8574 57.5942V76.0597L88.4586 78.9006L92.4 63.583Z" fill="#005CC5"/>
</g>
<path d="M92.5283 55.6619C101.985 78.4015 95.2156 62.1242 100.078 73.8331L135.832 70.8899L127.988 55.7259L92.5283 55.6619Z" fill="#FFF5B1"/>
<mask id="mask3" mask-type="alpha" maskUnits="userSpaceOnUse" x="69" y="55" width="24" height="22">
<path d="M92.5283 57.9141L84.9399 76.2133L70.2366 71.6577L69.584 70.5828L92.5283 55.6619V57.9141Z" fill="#0366D6"/>
</mask>
<g mask="url(#mask3)">
<path d="M92.5283 57.9141L84.9399 76.2133L70.2366 71.6577L69.584 70.5828L92.5283 55.6619V57.9141Z" fill="#0366D6"/>
<path d="M70.0449 71.4401C70.1729 71.3122 70.1217 70.9027 70.7231 71.0562C71.6957 71.2994 71.363 71.7857 72.3867 72.08C73.4104 72.3743 72.6554 71.4529 73.7304 71.7473C74.8053 72.0416 73.8967 72.5151 74.946 72.899C75.9953 73.2829 75.4195 72.1824 76.4816 72.4511C77.5437 72.7198 76.4816 73.3468 77.6461 73.7307C78.8106 74.1146 77.9532 72.8862 79.0409 73.1805C80.1286 73.4748 79.1561 74.1786 80.3206 74.4601C81.4851 74.7417 80.3974 73.4876 81.6003 73.7947C82.8031 74.1018 81.1524 74.8185 82.4448 75.2279C83.7373 75.6374 82.9439 74.0507 83.8781 74.3706C84.8122 74.6905 83.7629 75.6502 85.6568 76.3285" stroke="#178CFA" stroke-width="0.396695" stroke-miterlimit="10"/>
</g>
<path d="M69.9287 70.4675L80.9466 55.9306L92.2204 55.8538L83.8642 73.897L69.9287 70.4675Z" fill="#C8E1FF"/>
<path d="M91.9146 56.0586L83.8144 73.6796L70.314 70.3524L81.1015 56.1226H91.9658L91.9146 56.0586ZM92.5801 55.7259L80.9096 55.8027L69.6357 70.6468L84.0319 74.1914L92.5289 55.6619L92.5801 55.7259Z" fill="#C8E1FF"/>
<path d="M84.7988 76.0085C85.1699 75.1255 83.9286 74.5241 84.7988 72.7454C85.669 70.9666 86.0145 73.1165 86.7055 71.3633C87.3965 69.6102 85.9121 70.2628 86.6287 68.7016C87.3453 67.1405 87.678 69.1495 88.369 67.422C89.0601 65.6944 88.0363 65.7712 88.5866 64.4916C89.1368 63.2119 89.7255 64.0437 90.2629 62.7384C90.8004 61.4332 89.8023 61.9834 90.2629 60.7805C90.7236 59.5777 91.1459 60.435 91.7729 58.925C92.4 57.415 91.4274 58.2852 92.1312 56.8008C92.2464 56.5449 92.3616 56.3273 92.464 56.1354" stroke="#178CFA" stroke-width="0.396695" stroke-miterlimit="10"/>
<path d="M109.855 43.8482C112.049 41.8174 113.1 39.3849 112.202 38.4151C111.304 37.4452 108.798 38.3053 106.604 40.3361C104.41 42.3669 103.36 44.7994 104.257 45.7693C105.155 46.7391 107.661 45.879 109.855 43.8482Z" stroke="#0366D6" stroke-width="0.767797" stroke-miterlimit="10"/>
<path d="M112.631 10.9506L114.154 9.86284L111.71 6.9708L113.079 4.00199L114.513 0.303772L113.566 0.649281L111.121 2.82471L109.714 7.18835L112.631 10.9506Z" fill="#6A737D"/>
<path d="M113.002 11.1425L114.525 10.0548L112.542 6.91962L113.079 4.00199L115.165 1.36589L114.512 0.303772L111.505 3.01665L110.469 7.59784L113.002 11.1425Z" fill="#959DA5"/>
<path d="M116.855 12.1151L120.207 9.06948L121.257 5.87033L121.41 2.68397L120.514 2.50482L119.132 3.06787L119.657 5.67838L118.915 8.21211L115.242 10.797L116.855 12.1151Z" fill="#6A737D"/>
<path d="M112.849 10.5794L114.858 10.3491L114.052 6.27979L116.099 3.79725L118.659 2.0825L118.633 0.303772L116.931 0.431736L114.576 2.42801L112.324 6.01106L112.849 10.5794Z" fill="#B2BBC4"/>
<path d="M117.302 12.3453L120.655 9.31254L121.717 6.11339L121.41 2.6839L119.58 3.29814L120.105 5.92144L119.567 8.55754L116.24 11.1808L117.302 12.3453Z" fill="#959DA5"/>
<path d="M114.052 11.0913L116.048 10.861L115.255 6.79165L116.88 3.92521L119.017 1.58343L118.633 0.303772L115.78 2.93988L113.527 6.52293L114.052 11.0913Z" fill="#D1D5DA"/>
<path d="M120.245 12.4989L119.707 15.5829L118.095 15.0198C118.549 13.8884 118.822 12.6919 118.901 11.4752C119.373 11.7835 119.822 12.1257 120.245 12.4989Z" fill="#D1D5DA"/>
<path d="M109.189 9.54297C110.814 9.61975 112.823 9.54297 114.218 9.7861C113.602 10.8584 113.268 12.0689 113.245 13.3052L108.639 11.7184L109.189 9.54297Z" fill="#959DA5"/>
<path d="M118.902 11.4752C118.768 12.6855 118.448 13.868 117.955 14.9814L113.144 13.1003C113.194 11.9184 113.566 10.7727 114.218 9.78601C115.876 10.035 117.467 10.6091 118.902 11.4752Z" fill="#B2BBC4"/>
<path d="M114.346 10.7458C116.83 11.5166 119.019 13.0306 120.616 15.0838C119.938 16.6066 119.144 18.1294 118.466 19.729C115.777 17.7779 112.735 16.3657 109.509 15.5701C108.672 14.3057 107.64 13.1826 106.45 12.243C106.902 11.7353 107.385 11.2566 107.896 10.8097C108.434 10.3363 110.891 9.73482 114.346 10.7458Z" fill="#6A737D"/>
<path d="M121.193 21.7381C120.617 21.303 119.196 20.1002 118.454 19.6139C119.03 18.3342 119.951 16.2868 120.553 15.0199C120.805 15.3206 120.984 15.6753 121.077 16.0564C121.401 17.9338 121.44 19.8492 121.193 21.7381Z" fill="#586069"/>
<path d="M104.288 15.1862C100.82 20.8299 99.3926 27.4922 100.244 34.0612C102.266 36.6206 109.202 39.9861 113.309 38.105C117.767 33.7355 120.56 27.9468 121.205 21.7381C117.084 18.1679 110.584 14.4824 104.288 15.1862Z" fill="#FFF5B1"/>
<path d="M110.354 38.6553C111.364 38.6896 112.368 38.5017 113.297 38.105C117.755 33.7356 120.548 27.9469 121.193 21.7382C117.864 18.7738 113.877 16.6461 109.561 15.5318C110.7 17.2465 113.246 21.559 109.676 25.3084C103.214 32.1034 99.9762 37.9387 110.354 38.6553Z" fill="#FFDF5D"/>
<path d="M113.246 38.1049C117.704 33.7355 120.496 27.9468 121.142 21.7381C120.324 21.024 119.47 20.3534 118.582 19.729C116.284 25.6912 114.498 31.8389 113.246 38.1049Z" fill="#F9C513"/>
<path d="M106.49 12.2686C107.616 13.2178 108.618 14.3056 109.472 15.5061C107.772 15.1259 106.023 15.0179 104.289 15.1862C104.954 14.1634 105.689 13.1885 106.49 12.2686Z" fill="#959DA5"/>
<path d="M88.2537 48.8669C88.3689 49.2508 87.7802 49.6603 86.974 49.7627C86.1678 49.865 85.3745 49.6475 85.2593 49.2636C85.1441 48.8797 85.7456 48.4702 86.5389 48.3678C87.3323 48.2655 88.1513 48.483 88.2537 48.8669Z" stroke="#0366D6" stroke-width="0.767797" stroke-miterlimit="10"/>
<path d="M67.9074 51.695C64.9642 48.3551 66.2823 45.7702 67.7667 44.2986C68.7264 43.3388 67.2164 41.1762 67.9842 37.1836C68.7008 33.4342 70.6971 29.8384 73.8578 29.045C80.077 27.471 83.6728 34.2404 91.0181 33.6134C93.9613 33.3702 96.1367 28.917 98.0178 28.7891C98.7089 28.7891 99.4639 29.9919 99.9501 30.7597" stroke="#0366D6" stroke-width="0.767797" stroke-miterlimit="10"/>
<path d="M86.1689 53.1282C92.1229 54.1329 98.2346 53.6089 103.931 51.6054C118.224 46.5763 123.484 34.3683 123.484 28.1748C123.484 24.3358 121.104 19.8698 117.521 19.1276C113.208 18.219 111.122 22.4931 110.585 23.312C110.585 23.312 110.393 20.7527 108.691 21.1878C106.989 21.6229 104.532 30.6061 115.089 32.3848" stroke="#0366D6" stroke-width="0.767797" stroke-miterlimit="10"/>
<path d="M62.3926 61.8299C71.427 54.5614 76.6352 55.0733 81.0116 56.5321C82.5868 56.958 83.9447 57.9596 84.8167 59.3387C85.6888 60.7179 86.0114 62.3741 85.7208 63.9797C85.7208 63.9797 89.2271 65.1442 89.0863 66.539C88.6768 70.378 59.5261 71.325 57.2483 67.8955C54.7658 64.1589 61.4328 47.6896 64.0433 47.9839C65.323 48.1375 64.1841 51.9381 65.1694 59.5009" stroke="#0366D6" stroke-width="0.767797" stroke-miterlimit="10"/>
<path d="M54.2536 77.3649C51.6553 77.6702 49.1563 78.544 46.9339 79.9243C43.3381 82.33 40.9067 84.8382 41.8153 86.5273C42.7238 88.2165 47.1387 88.1781 47.1387 88.1781C52.247 90.0414 57.6222 91.0698 63.0576 91.2237C70.4541 91.1469 73.922 86.924 73.8836 83.6225C73.8836 79.7835 68.1379 71.9008 66.2824 70.1221" stroke="#0366D6" stroke-width="0.767797" stroke-miterlimit="10"/>
<path d="M64.7083 49.7883C73.4484 56.8136 93.9742 54.0623 94.8443 47.0882C94.9851 45.9749 94.7803 45.6678 95.0747 45.0791C100.436 34.5731 101.473 28.917 97.3525 21.431C93.1424 13.7402 82.534 10.7458 77.2362 10.9122C71.9384 11.0785 56.9408 14.1113 55.3668 28.7379C53.7928 43.3644 63.0447 48.4062 63.0447 48.4062" stroke="#0366D6" stroke-width="0.767797" stroke-miterlimit="10"/>
<path d="M67.8947 51.8613C67.0117 53.4736 66.7686 56.9799 66.7686 58.6819" stroke="#0366D6" stroke-width="0.767797" stroke-miterlimit="10"/>
<path d="M73.4482 70.1477C73.4482 70.1477 79.8465 74.3066 79.3475 79.63C79.1688 81.0754 78.5278 82.4244 77.5201 83.476C76.5124 84.5275 75.1919 85.2252 73.7554 85.4652" stroke="#0366D6" stroke-width="0.767797" stroke-miterlimit="10"/>
<path fill-rule="evenodd" clip-rule="evenodd" d="M15.3936 37.6214C15.3934 37.6213 15.3932 37.6211 15.6203 37.3116C15.8474 37.0021 15.8472 37.002 15.8471 37.0019L15.8468 37.0017L15.8465 37.0015C15.8464 37.0014 15.8464 37.0014 15.8467 37.0015L15.8499 37.0038L15.8681 37.0165C15.8856 37.0283 15.9134 37.0468 15.9517 37.0707C16.0282 37.1186 16.1461 37.1882 16.3049 37.2702C16.6224 37.4341 17.103 37.6473 17.7419 37.8341C19.0179 38.2072 20.9321 38.4775 23.4492 38.034L23.7694 37.9776L23.8778 38.2842C24.5071 40.0651 25.7742 42.7255 27.2771 45.2134C28.7881 47.7147 30.4997 49.9776 32.0015 51.0215L32.0028 51.0224C34.2838 52.6215 38.7866 54.0184 43.4728 54.8197C48.1579 55.6207 52.9066 55.806 55.6631 55.061L55.8634 55.8022C52.9382 56.5928 48.0511 56.3814 43.3434 55.5765C38.6374 54.7718 33.9911 53.3537 31.5628 51.6515C29.9167 50.5071 28.1351 48.1186 26.6199 45.6104C25.178 43.2235 23.9433 40.6702 23.2638 38.8432C20.7784 39.2324 18.8528 38.9589 17.5264 38.571C16.836 38.3692 16.3097 38.1368 15.9526 37.9524C15.7741 37.8603 15.6378 37.78 15.5444 37.7216C15.4977 37.6924 15.4617 37.6686 15.4364 37.6514L15.4067 37.6308L15.3979 37.6246L15.3951 37.6225L15.394 37.6217L15.3936 37.6214Z" fill="#0366D6"/>
<path fill-rule="evenodd" clip-rule="evenodd" d="M49.7893 67.0934C50.2157 61.1135 53.6435 56.5288 62.4352 48.2167L62.9627 48.7746C54.159 57.0981 50.9581 61.4974 50.5552 67.148C50.156 72.7467 54.3463 77.3031 58.5388 79.5075L58.1814 80.1871C53.8561 77.9128 49.3593 73.1253 49.7893 67.0934Z" fill="#0366D6"/>
<path fill-rule="evenodd" clip-rule="evenodd" d="M33.9238 32.9977C32.697 32.2885 31.3684 31.7724 29.9844 31.4674L30.1496 30.7176C31.6283 31.0434 33.0472 31.5977 34.3553 32.3604L34.3998 32.3864L34.436 32.4232C35.4517 33.4587 36.392 34.8521 37.3806 36.3482C37.4545 36.46 37.5287 36.5725 37.6033 36.6855C38.5338 38.0958 39.5232 39.5953 40.6886 41.0302C43.1979 44.1195 46.5013 46.881 51.6861 47.6683C56.373 48.357 59.2268 48.4565 60.899 48.3874C61.7346 48.3529 62.2719 48.2764 62.5934 48.2115C62.754 48.1791 62.8601 48.1498 62.9221 48.1303C62.9531 48.1206 62.973 48.1133 62.9832 48.1095L62.9913 48.1063C62.9914 48.1062 62.991 48.1064 62.9901 48.1068L62.9883 48.1076L62.987 48.1082L62.9864 48.1085C62.986 48.1086 62.9856 48.1088 63.1462 48.4575C63.3068 48.8062 63.3064 48.8064 63.306 48.8065L63.3052 48.8069L63.3034 48.8077L63.2992 48.8096L63.2885 48.8142C63.2803 48.8177 63.2699 48.8218 63.2572 48.8267C63.2319 48.8364 63.1972 48.8487 63.1521 48.8629C63.0619 48.8912 62.9296 48.927 62.7453 48.9642C62.3769 49.0385 61.7986 49.1187 60.9307 49.1546C59.1959 49.2263 56.2914 49.1211 51.5735 48.4278L51.5717 48.4276C46.1358 47.6023 42.6763 44.6951 40.0927 41.5142C38.9021 40.0485 37.8928 38.5186 36.9654 37.1129C36.8897 36.9982 36.8146 36.8844 36.74 36.7715C35.7561 35.2825 34.8655 33.9679 33.9238 32.9977Z" fill="#0366D6"/>
<path fill-rule="evenodd" clip-rule="evenodd" d="M31.3946 40.8172C31.7576 41.7555 32.4906 42.8581 33.5189 43.8863C34.5471 44.9146 35.6497 45.6476 36.588 46.0106C37.0577 46.1924 37.4688 46.2746 37.7991 46.2673C38.1268 46.2601 38.3508 46.1666 38.4956 46.0218C38.6404 45.877 38.7338 45.6531 38.7411 45.3254C38.7484 44.995 38.6661 44.5839 38.4844 44.1142C38.1214 43.176 37.3884 42.0733 36.3601 41.0451C35.3319 40.0169 34.2292 39.2838 33.291 38.9208C32.8213 38.7391 32.4102 38.6568 32.0799 38.6641C31.7522 38.6714 31.5282 38.7648 31.3834 38.9096C31.2386 39.0544 31.1452 39.2784 31.1379 39.6061C31.1306 39.9365 31.2129 40.3475 31.3946 40.8172ZM30.3703 39.5891C30.3806 39.1246 30.518 38.6892 30.8405 38.3667C31.163 38.0443 31.5983 37.9068 32.0629 37.8965C32.5248 37.8863 33.0388 38 33.568 38.2047C34.6275 38.6146 35.8174 39.4165 36.903 40.5022C37.9887 41.5878 38.7906 42.7778 39.2005 43.8372C39.4052 44.3664 39.5189 44.8805 39.5087 45.3423C39.4984 45.8069 39.361 46.2423 39.0385 46.5647C38.716 46.8872 38.2806 47.0246 37.8161 47.0349C37.3542 47.0451 36.8402 46.9315 36.311 46.7267C35.2515 46.3168 34.0616 45.5149 32.976 44.4293C31.8903 43.3436 31.0884 42.1537 30.6785 41.0942C30.4738 40.565 30.3601 40.051 30.3703 39.5891Z" fill="#0366D6"/>
<path fill-rule="evenodd" clip-rule="evenodd" d="M44.8164 50.9431C45.649 51.4981 46.8766 51.9749 48.3017 52.2221C49.7267 52.4693 51.0432 52.4339 52.0141 52.1917C52.5001 52.0704 52.8815 51.9018 53.146 51.7067C53.4083 51.5131 53.5369 51.3088 53.5717 51.1082C53.6065 50.9075 53.5543 50.6718 53.3725 50.4012C53.1892 50.1284 52.8868 49.8412 52.4701 49.5634C51.6375 49.0083 50.4098 48.5315 48.9848 48.2843C47.5597 48.0371 46.2432 48.0726 45.2723 48.3148C44.7863 48.436 44.4049 48.6046 44.1405 48.7997C43.8781 48.9933 43.7496 49.1976 43.7147 49.3983C43.6799 49.599 43.7322 49.8346 43.914 50.1052C44.0973 50.3781 44.3996 50.6652 44.8164 50.9431ZM43.2801 50.5311C43.0224 50.1474 42.8848 49.7147 42.9623 49.2677C43.0398 48.8208 43.3151 48.4597 43.687 48.1853C44.0567 47.9124 44.5399 47.7104 45.0875 47.5738C46.1837 47.3003 47.6106 47.2709 49.1153 47.5319C50.6199 47.7929 51.9536 48.3012 52.8937 48.9279C53.3633 49.241 53.7501 49.5939 54.0064 49.9754C54.2641 50.359 54.4017 50.7918 54.3242 51.2387C54.2466 51.6856 53.9713 52.0467 53.5994 52.3212C53.2297 52.594 52.7466 52.796 52.199 52.9326C51.1027 53.2061 49.6758 53.2356 48.1712 52.9745C46.6665 52.7135 45.3329 52.2052 44.3928 51.5785C43.9232 51.2654 43.5363 50.9125 43.2801 50.5311Z" fill="#0366D6"/>
<path d="M94.8831 47.9968C95.3737 47.7194 95.9049 47.5208 96.4571 47.4081C99.1572 46.7043 101.576 47.101 101.921 48.2911C102.267 49.4812 100.296 51.0424 97.596 51.7462C94.8959 52.45 92.4773 52.0533 92.1318 50.8632" stroke="#0366D6" stroke-width="0.767797" stroke-miterlimit="10"/>
<path d="M64.1328 32.7944C62.0597 29.6848 61.3559 23.5424 63.3394 19.166C64.9901 15.455 73.5767 18.347 76.3919 21.6101" stroke="#0366D6" stroke-width="0.767797" stroke-miterlimit="10"/>
<path d="M64.9766 30.5294C65.1032 27.0663 66.2031 23.709 68.1501 20.8424C68.9435 19.7035 74.075 22.2628 74.075 22.2628" stroke="#0366D6" stroke-width="0.767797" stroke-miterlimit="10"/>
<path d="M90.6084 14.5848C90.6084 14.5848 97.0067 13.2028 99.9499 15.1095C102.061 16.4787 99.9499 18.3854 97.5698 21.5974" stroke="#0366D6" stroke-width="0.767797" stroke-miterlimit="10"/>
<path d="M95.8545 19.3067C96.9063 18.3807 98.0415 17.554 99.2456 16.837" stroke="#0366D6" stroke-width="0.767797" stroke-miterlimit="10"/>
<path d="M63.9779 42.8397C61.3162 40.7922 55.3913 38.3097 53.5742 38.5144" stroke="#0366D6" stroke-width="0.767797" stroke-miterlimit="10"/>
<path d="M63.3394 44.1833C63.3394 44.1833 57.3762 42.6478 53.2812 44.3497" stroke="#0366D6" stroke-width="0.767797" stroke-miterlimit="10"/>
<path d="M55.3274 38.7448C54.7605 38.5681 54.1675 38.4902 53.5742 38.5144" stroke="#0366D6" stroke-width="0.767797" stroke-miterlimit="10" stroke-linecap="round"/>
<path d="M54.8164 43.8762C54.3112 43.9993 53.8152 44.1575 53.332 44.3497" stroke="#0366D6" stroke-width="0.767797" stroke-miterlimit="10" stroke-linecap="round"/>
<path d="M13.0102 38.5528C16.9644 38.0153 27.6495 34.4323 35.1611 29.0449C37.8612 27.1126 20.3299 6.39492 18.18 5.16644C13.9532 6.16477 10.0126 8.12191 6.66309 10.8865C7.54605 18.1294 10.3997 36.8381 13.0614 38.6808" fill="#FEEB93"/>
<path d="M25.5896 34.8546C32.8897 31.3673 39.3236 26.3015 44.4262 20.0233C44.4262 20.0233 43.5819 18.287 41.9139 15.9824C40.8927 16.0848 39.9229 16.7296 39.4099 18.5131C38.0151 23.363 32.6277 28.9168 27.1892 31.0666C18.7217 34.3896 13.5815 32.7148 9.22462 31.2953C6.26616 30.3314 3.66885 29.4852 0.636214 30.4012C0.622668 30.4052 0.609165 30.4093 0.595703 30.4135C1.41191 35.6011 3.27231 39.4485 3.27231 39.4485C10.947 39.457 18.5422 37.8936 25.5896 34.8546Z" fill="#F9C513"/>
<path d="M44.3745 19.9215C39.2569 26.1721 32.8219 31.2159 25.5289 34.6924L25.5235 34.695C19.8521 37.2092 13.2409 38.4922 8.05601 39.1475C7.33495 39.2386 6.64121 39.3177 5.98111 39.3862C5.07957 39.4287 4.17615 39.4495 3.27163 39.4485C3.27163 39.4485 3.23029 39.363 3.15723 39.2003C4.52694 39.0993 6.17629 38.9465 8.00145 38.7158C13.1682 38.0628 19.7299 36.7868 25.3444 34.2984C32.6096 30.8346 39.0164 25.803 44.1033 19.5657L44.2522 19.6871C44.305 19.7864 44.3458 19.8652 44.3745 19.9215Z" fill="#E3A92E"/>
<path d="M28.8581 5.69677C27.5024 8.03593 25.4763 9.93851 23.0182 11.1425C21.3051 8.81691 19.7336 6.71914 18.4873 5.07552C22.3709 4.32117 25.8306 4.6849 28.8581 5.69677Z" fill="#FFF5B1"/>
<path d="M12.9477 38.6203C9.76037 39.1737 6.52314 39.4522 3.27162 39.4486C3.27162 39.4486 -5.47561 21.3584 6.64288 10.7418C7.86754 17.3421 10.4183 30.3433 12.9477 38.6203Z" fill="#FFDF5D"/>
<path d="M18.4842 5.07585C35.5452 1.7606 44.4255 20.0234 44.4255 20.0234C41.6901 23.389 38.5721 26.4062 35.1432 29.0186C30.9 21.6946 22.7576 10.7116 18.4842 5.07585Z" fill="#FFDF5D"/>
<path d="M35.1629 29.004C38.5844 26.395 41.6959 23.3827 44.4262 20.0234C44.4262 20.0234 43.5875 18.2985 41.9303 16.0051C40.9361 16.1303 40.0002 16.7889 39.4995 18.5389C38.397 21.7393 36.4677 24.5913 33.9074 26.8055C34.2921 27.5268 34.7106 28.2368 35.11 28.9143C35.1277 28.9443 35.1453 28.9742 35.1629 29.004Z" fill="#F2B549"/>
<path d="M24.4637 35.3258C20.7758 36.7888 16.9467 37.8703 13.0361 38.5528C12.4603 36.5949 11.7948 34.3171 11.1806 31.9114C10.5127 31.7119 9.86845 31.5019 9.24013 31.297C6.28081 30.3322 3.67618 29.4831 0.636189 30.4014C0.622652 30.4054 0.609157 30.4095 0.595703 30.4136C1.41192 35.6012 3.2723 39.4486 3.2723 39.4486C10.54 39.4567 17.7363 38.0551 24.4637 35.3258Z" fill="#F2B549"/>
<path d="M35.0969 18.7693C37.3747 22.2628 26.2289 29.4033 21.9676 31.2844C17.7063 33.1655 7.35388 36.6462 5.12727 30.3631C3.60448 26.025 15.9916 23.8112 18.5509 22.2628C23.0297 19.4475 31.5139 13.1644 35.1865 18.8205" fill="#F2B549"/>
<path d="M34.15 18.4237C36.2742 21.6869 25.5506 28.4179 21.4813 30.2222C17.412 32.0265 7.49463 35.3408 5.47277 29.5824C4.06514 25.577 15.8508 23.3632 18.2694 21.9044C22.5562 19.2299 30.7205 13.2923 34.1116 18.4877" fill="#005CC5"/>
<path d="M28.8776 5.70337C27.3572 8.32012 24.2397 11.4451 17.8477 13.177C10.8513 15.0726 6.48525 14.4565 4.01172 13.563C5.9462 10.9981 8.76485 8.68944 12.7802 6.90675C19.0604 4.11857 24.4349 4.21339 28.8776 5.70337Z" fill="#FDFAD2"/>
<path fill-rule="evenodd" clip-rule="evenodd" d="M28.376 18.9155C28.1253 18.8196 27.8498 18.8226 27.5241 19.0269C27.256 19.195 27.1773 19.5161 27.2691 20.0334C27.3598 20.5441 27.6028 21.156 27.8571 21.7889L27.8743 21.8316C28.1181 22.4382 28.3695 23.0638 28.4651 23.5884C28.5141 23.8579 28.5263 24.1209 28.4629 24.3512C28.3969 24.5906 28.2507 24.7867 28.0071 24.9096L28.0056 24.9103C27.841 24.9916 27.6768 25.0157 27.5161 24.9891C27.359 24.9631 27.2182 24.8909 27.0928 24.8002C26.8641 24.6349 26.6512 24.3803 26.4539 24.1443C26.4406 24.1284 26.4273 24.1126 26.4141 24.0969C26.1957 23.8362 25.991 23.6001 25.7715 23.4518C25.5625 23.3106 25.3572 23.2599 25.1181 23.3453C24.6328 23.5186 23.8948 23.8671 23.1246 24.2308C22.9181 24.3283 22.7093 24.4269 22.5024 24.5235C22.0174 24.75 21.545 24.9644 21.1478 25.1225C20.9491 25.2015 20.7663 25.2677 20.608 25.3143C20.4537 25.3598 20.3078 25.3915 20.1887 25.3915H20.1754L20.1755 25.3911C19.8178 25.3672 19.5405 25.1719 19.311 24.9408C19.1532 24.7821 19.0013 24.5878 18.8564 24.4024C18.7958 24.325 18.7366 24.2491 18.6786 24.1781C18.4717 23.9246 18.2692 23.7143 18.0352 23.5932C17.8119 23.4776 17.5463 23.4364 17.1916 23.5518C17.0428 23.6003 16.9496 23.688 16.8886 23.8123C16.8239 23.9442 16.792 24.1256 16.7928 24.3577C16.7943 24.825 16.9255 25.4185 17.0678 26.0501L17.0764 26.0883C17.2132 26.695 17.357 27.3328 17.3717 27.8692C17.3866 28.4096 17.2718 28.9359 16.7851 29.1833C16.5664 29.2946 16.3555 29.3342 16.1527 29.305C15.9517 29.2761 15.7775 29.1822 15.6257 29.0585C15.3325 28.8194 15.0875 28.4367 14.8619 28.0844L14.8582 28.0785C14.6215 27.7089 14.4016 27.3657 14.1486 27.1412C14.0252 27.0318 13.9018 26.9582 13.774 26.9233C13.6487 26.889 13.5074 26.8885 13.3403 26.9428C13.1516 27.0054 13.0463 27.1032 12.9851 27.2201C12.9204 27.3437 12.8943 27.5097 12.9072 27.7224C12.933 28.1461 13.1058 28.6695 13.2883 29.2226L13.2989 29.2547C13.4786 29.7993 13.6683 30.3792 13.6694 30.846C13.6699 31.0845 13.622 31.3183 13.4775 31.5073C13.331 31.6987 13.1074 31.8158 12.8147 31.8634C12.4313 31.9397 12.1302 31.8232 11.8971 31.604C11.6752 31.3952 11.5177 31.0966 11.3878 30.8094C11.334 30.6905 11.2858 30.5758 11.2393 30.4654C11.1668 30.2932 11.0988 30.1315 11.0213 29.9811C10.8941 29.7343 10.7775 29.5967 10.6583 29.549C10.3331 29.4189 9.7798 29.4223 8.96429 29.5895C8.15948 29.7546 7.1368 30.0707 5.89903 30.5237L5.7627 30.1511C7.00747 29.6956 8.05145 29.3718 8.8846 29.2009C9.70706 29.0323 10.363 29.0036 10.8056 29.1807C11.0704 29.2866 11.2432 29.5457 11.374 29.7995C11.4567 29.9601 11.5371 30.1503 11.6153 30.3355C11.6606 30.4429 11.7053 30.5487 11.7493 30.6459C11.8769 30.9282 12.0082 31.1638 12.1689 31.315C12.3177 31.4549 12.492 31.5239 12.7401 31.4738L12.748 31.4722L12.748 31.4724C12.9717 31.4365 13.093 31.357 13.1624 31.2662C13.2344 31.1722 13.2731 31.0366 13.2727 30.8469C13.2718 30.4572 13.1088 29.9445 12.9222 29.379C12.9153 29.3583 12.9085 29.3375 12.9016 29.3166C12.7272 28.7889 12.5402 28.2228 12.5113 27.7465C12.496 27.4957 12.5226 27.2484 12.6336 27.0362C12.7481 26.8174 12.9413 26.657 13.2162 26.566L13.2171 26.5657C13.4529 26.489 13.6734 26.4845 13.8786 26.5406C14.0814 26.5961 14.2573 26.7074 14.4118 26.8445C14.707 27.1063 14.9522 27.4895 15.1748 27.8374C15.1806 27.8465 15.1865 27.8556 15.1923 27.8647C15.4296 28.2353 15.641 28.5591 15.8764 28.751C15.9897 28.8435 16.0988 28.8965 16.2092 28.9124C16.3179 28.928 16.4465 28.9105 16.6053 28.8297C16.8736 28.6933 16.9891 28.3877 16.9752 27.8801C16.9615 27.3828 16.8249 26.7764 16.6836 26.1495L16.6808 26.1373C16.5417 25.5197 16.3978 24.8791 16.3961 24.359C16.3952 24.0975 16.4297 23.8469 16.5325 23.6375C16.6391 23.4204 16.8146 23.2574 17.0689 23.1746C17.5204 23.0277 17.8963 23.0745 18.2176 23.2409C18.5283 23.4017 18.7737 23.6672 18.9859 23.9272C19.0564 24.0137 19.1226 24.0983 19.1866 24.1802C19.3241 24.3563 19.4518 24.5198 19.5924 24.6613C19.7902 24.8604 19.9796 24.9782 20.1949 24.9947C20.2556 24.9936 20.3548 24.9754 20.4958 24.9338C20.6378 24.892 20.8082 24.8307 21.0011 24.7539C21.3868 24.6005 21.8502 24.3903 22.3345 24.1641C22.5346 24.0707 22.7385 23.9743 22.9419 23.8783C23.7148 23.5132 24.479 23.1523 24.9847 22.9717C25.3726 22.8331 25.7095 22.9312 25.9936 23.1231C26.2671 23.3079 26.5064 23.5893 26.7182 23.8421C26.7269 23.8524 26.7355 23.8628 26.7441 23.873C26.9551 24.1249 27.1382 24.3436 27.3252 24.4787C27.4192 24.5467 27.5032 24.5849 27.5809 24.5977C27.6548 24.61 27.735 24.6014 27.8292 24.555C27.9658 24.4859 28.0423 24.3842 28.0804 24.2458C28.1212 24.098 28.1191 23.9027 28.0748 23.6595C27.9865 23.175 27.7476 22.5804 27.495 21.9517L27.489 21.9368C27.2394 21.3156 26.9779 20.6623 26.8785 20.1028C26.7804 19.5499 26.8265 18.9961 27.3134 18.6908C27.7427 18.4215 28.1486 18.4038 28.5177 18.545C28.8723 18.6807 29.1771 18.9568 29.4369 19.2419C29.5683 19.3861 29.6924 19.5375 29.8083 19.6812C29.8309 19.7092 29.8531 19.7368 29.875 19.764C29.9666 19.878 30.0523 19.9846 30.1352 20.0809C30.2382 20.2006 30.3294 20.2955 30.4116 20.3613C30.4961 20.4289 30.5517 20.4499 30.5844 20.4528C30.6394 20.4577 30.7235 20.4481 30.84 20.4152C30.9542 20.383 31.0874 20.3318 31.2362 20.2644C31.5339 20.1294 31.8788 19.9362 32.2328 19.721C32.6917 19.4422 33.1486 19.1378 33.5325 18.8821C33.7467 18.7394 33.9381 18.6118 34.0945 18.5123L34.3074 18.847C34.1646 18.9379 33.98 19.0608 33.7699 19.2007C33.3798 19.4605 32.9016 19.7789 32.4388 20.0601C32.0795 20.2784 31.719 20.4811 31.4 20.6257C31.2405 20.698 31.0876 20.7575 30.9479 20.797C30.8106 20.8358 30.6732 20.859 30.5491 20.8479C30.4025 20.8348 30.2726 20.7582 30.1637 20.671C30.0524 20.582 29.9423 20.4649 29.8345 20.3396C29.7469 20.2378 29.6559 20.1247 29.564 20.0103C29.5426 19.9837 29.5211 19.9569 29.4995 19.9302C29.3844 19.7875 29.2665 19.644 29.1436 19.5091C28.8947 19.2359 28.6413 19.017 28.376 18.9155Z" fill="#F1F8FF"/>
<path fill-rule="evenodd" clip-rule="evenodd" d="M17.6038 5.34555C21.332 4.35077 25.2675 4.44849 28.9416 5.62708C27.5303 8.00492 25.4707 9.93138 23.004 11.1808C21.5274 8.95961 19.7042 6.98953 17.6038 5.34555ZM6.73935 10.8097C6.80333 11.5007 7.16164 13.5866 7.3152 14.2776C6.17964 14.2163 5.06298 13.961 4.01367 13.5226C4.85628 12.5544 5.76717 11.6478 6.73935 10.8097Z" fill="#FFF5B1"/>
</svg>
