<svg width="106" height="48" viewBox="0 0 106 48" fill="none" xmlns="http://www.w3.org/2000/svg">
<g clip-path="url(#clip0_215_139557)">
<rect width="106" height="48" fill="white"/>
<path fill-rule="evenodd" clip-rule="evenodd" d="M0 23.9976C0 12.873 23.5845 4 53 4C82.2259 4 106 12.9684 106 23.9976C106 35.0268 82.2259 44 53 44C23.7789 44 0 35.0555 0 23.9976ZM74.1235 28.4574C74.0097 28.4145 73.8912 28.3286 73.877 28.2332C73.8597 28.1726 73.8665 28.1076 73.896 28.0519C74.3226 27.179 74.626 26.0674 73.6684 25.6047C72.7487 25.1611 71.3408 25.9816 70.0655 27.5558C69.0226 28.8486 68.4537 30.1605 68.4348 31.4437C68.43 31.8969 68.6007 32.4598 68.9989 32.6697C69.8996 33.142 70.9852 32.436 71.7722 31.7824C72.2889 31.3531 72.7203 30.9094 73.0995 30.337C73.1576 30.2496 73.2135 30.1664 73.2675 30.0859C73.5968 29.5953 73.8574 29.2071 74.1425 28.6005C74.1899 28.5004 74.1709 28.4717 74.1235 28.4574ZM83.9792 18.0483C84.1357 18.0483 84.202 18.139 84.1357 18.263V18.2582C84.0235 18.4511 83.3551 19.4907 82.4347 20.9222C80.009 24.6949 75.8333 31.1894 75.4793 32.0782C75.3229 32.4741 75.3039 32.7699 75.4651 32.9846C75.8728 33.5332 76.7735 33.2136 77.3424 32.8176C78.549 31.9773 79.4909 31.0136 80.4061 30.0774C80.7637 29.7115 81.1173 29.3498 81.4809 29.0013C81.552 28.9488 81.68 28.9249 81.7654 29.0013C81.8386 29.0713 81.9253 29.1484 82.0151 29.2283C82.1577 29.3552 82.3079 29.4889 82.4243 29.6119C82.5191 29.7121 82.4812 29.8075 82.4338 29.8647C81.1728 31.4151 79.7791 32.8796 78.4422 33.9148C76.3658 35.532 74.2942 35.947 73.2702 34.9118C72.8909 34.5206 72.6824 33.972 72.6539 33.5045C72.6397 33.2517 72.5117 33.2374 72.3932 33.3567C71.1654 34.5779 69.0368 35.9232 67.1027 34.9691C65.4814 34.1581 65.1069 32.2165 65.4103 30.5803C65.4197 30.5469 65.3818 30.3131 65.1827 30.4515C64.8509 30.6948 64.4053 30.9619 63.8553 31.167C63.3502 31.4008 62.7995 31.5182 62.2435 31.5105C61.8428 31.5146 61.448 31.4128 61.0986 31.2152C60.7492 31.0177 60.4574 30.7313 60.2525 30.3847C59.968 29.9601 59.859 29.3161 59.8258 28.8486C59.8258 28.7961 59.7595 28.7007 59.6836 28.8248C58.6221 30.452 57.6185 32.0393 56.5872 33.6705C56.3336 34.0717 56.0783 34.4755 55.82 34.8832C55.7536 34.9786 55.692 35.0406 55.5545 35.0502H52.9662C52.805 35.0502 52.7291 34.9261 52.8145 34.7735C52.9896 34.4354 53.4556 33.7016 54.0598 32.7502L54.0599 32.7502L54.0599 32.7501C55.0587 31.1775 56.4349 29.0107 57.4982 27.0549C57.9675 26.1915 57.8727 25.7478 57.5788 25.557C57.2137 25.3185 56.4884 25.6763 55.8722 26.1485C54.4573 27.2255 53.2322 28.8139 52.4576 29.8182L52.4573 29.8185L52.4571 29.8189C52.3157 30.0021 52.1894 30.1659 52.0797 30.3036C51.9417 30.4736 51.8063 30.6711 51.6483 30.9016C51.3229 31.3763 50.9016 31.991 50.1645 32.7938C48.4389 34.6828 46.1492 35.7657 43.9448 35.0168C43.364 34.818 42.8407 34.4787 42.4208 34.0286C42.0009 33.5786 41.6972 33.0317 41.5366 32.436C41.4702 32.207 41.3375 32.1402 41.2142 32.2929C40.8587 32.7413 40.1286 33.3996 39.5218 33.8146C39.4554 33.8623 39.2895 33.9625 39.1473 33.891C38.8825 33.6297 38.6573 33.3307 38.4789 33.0037C38.452 32.9448 38.4444 32.8789 38.4572 32.8155C38.47 32.752 38.5025 32.6943 38.55 32.6506C39.4222 31.8826 39.8963 31.4437 40.2756 30.9667C40.5963 30.5405 40.8505 30.0676 41.0293 29.5642C41.5555 28.2189 42.7644 25.7097 45.1679 24.4121C46.0875 23.9207 47.0167 23.563 48.0502 23.4437C48.491 23.396 48.8561 23.4485 48.9888 23.8015L49.24 24.498C49.2875 24.6411 49.2495 24.7508 49.0836 24.8128C47.6662 25.3566 46.244 26.1962 45.2579 27.5224C44.1439 29.0299 43.8452 30.8379 44.5895 31.8778C45.1347 32.6363 46.0164 32.7699 46.8603 32.498C48.145 32.0925 49.2353 30.8856 49.7994 29.5499C50.411 28.0901 50.5105 26.3632 50.0602 24.8462C49.9843 24.5838 50.0507 24.3835 50.2214 24.2404C50.5135 23.9995 50.8994 23.8075 51.0907 23.7123L51.1343 23.6906C51.1476 23.6839 51.1594 23.6779 51.1695 23.6727C51.3042 23.5997 51.4609 23.5793 51.6096 23.6153C51.7583 23.6514 51.8886 23.7415 51.9754 23.8683C52.4667 24.6835 52.7243 25.6197 52.7197 26.5731C52.7528 26.7878 52.8429 26.7925 52.9425 26.6781C53.1591 26.4465 53.3719 26.2109 53.5838 25.9763L53.5838 25.9763C54.1927 25.302 54.7938 24.6364 55.455 24.102C56.2704 23.4485 57.318 22.9142 58.2946 22.938C59.5556 22.9667 60.1861 23.8301 60.1434 25.3662C60.1387 25.557 60.2762 25.5475 60.371 25.4139C60.6632 24.9703 61.0213 24.5746 61.4329 24.2404C62.3052 23.5153 63.2011 23.1909 64.1303 23.2577C64.4099 23.2771 64.6826 23.3544 64.9312 23.4846C65.1798 23.6149 65.399 23.7953 65.5752 24.0147C65.7514 24.2341 65.8807 24.4876 65.9551 24.7596C66.0295 25.0315 66.0474 25.316 66.0076 25.5952C65.9614 25.9746 65.8242 26.337 65.6078 26.6511C65.3914 26.9653 65.1024 27.2217 64.7655 27.3984C64.1635 27.6989 63.4666 27.6465 62.9783 27.2076C62.7882 27.028 62.6485 26.8011 62.5736 26.5498C62.4987 26.2985 62.4911 26.0317 62.5517 25.7764C62.5754 25.6667 62.4332 25.5618 62.3146 25.6858C61.1911 26.8593 61.1105 28.3811 61.8406 29.0633C62.6512 29.817 63.8601 29.3113 64.7466 28.7341C65.6892 28.1128 66.5069 27.3657 67.3114 26.6307C67.8905 26.1015 68.4628 25.5786 69.07 25.1134C70.0371 24.3787 71.1322 23.7252 72.3647 23.5534C73.0423 23.4515 73.7347 23.5338 74.37 23.7919C75.2518 24.1497 75.8112 24.8987 75.8823 25.5475C75.8965 25.7383 76.0434 25.7621 76.1572 25.5952C76.4001 25.2128 77.0133 24.2781 77.7222 23.1975L77.7236 23.1953L77.7237 23.1951L77.724 23.1946C79.0487 21.1754 80.7067 18.6482 80.9073 18.263C80.9974 18.077 81.1017 18.0483 81.3008 18.0483H83.9792ZM47.6143 19.6989C47.6475 19.8754 47.7186 19.9088 47.7992 19.8897C48.2414 19.7686 48.6253 19.4907 48.8801 19.1074C49.1171 18.7639 49.2261 18.2678 48.9938 18.0674C48.7852 17.8909 48.4487 17.9386 48.1974 18.1628C47.984 18.3523 47.8194 18.591 47.7178 18.8586C47.6163 19.1261 47.5807 19.4145 47.6143 19.6989ZM27.8317 35.0072C24.94 35.0263 22.3895 33.2278 22.0956 30.108C21.9264 28.4856 22.3905 26.8605 23.3898 25.576C24.2526 24.4455 25.7127 23.5105 26.9453 23.2815C27.3435 23.2051 27.8839 23.2529 28.1067 23.52C28.4575 23.9303 28.358 24.3787 28.0072 24.5599C27.0638 25.0418 25.9308 25.8718 25.3714 27.0024C25.113 27.4829 24.9901 28.0253 25.016 28.571C25.0419 29.1167 25.2156 29.6449 25.5183 30.0984C26.6798 31.8635 29.9224 31.9112 32.9326 29.0966C33.6817 28.4049 34.3453 27.7418 35.0233 26.9595C36.3506 25.4329 36.7915 24.8748 38.555 22.4133C38.574 22.3846 38.5835 22.3465 38.574 22.3322C38.5597 22.2988 38.536 22.294 38.4839 22.2845C37.3082 22.3226 36.2795 22.6756 35.284 23.4246C34.9995 23.6345 34.5824 23.6059 34.4022 23.3292C34.2031 23.0143 34.3453 22.6041 34.6772 22.3751C36.1288 21.3552 37.7049 21.0948 39.321 20.8278L39.3213 20.8278C39.489 20.8001 39.6571 20.7723 39.8255 20.7436C39.8255 20.7436 39.9487 20.7436 40.053 20.6148C40.3582 20.2186 40.6322 19.8398 40.9044 19.4634L40.9044 19.4634C41.2877 18.9335 41.6673 18.4087 42.1247 17.848C42.9164 16.8748 43.9356 15.978 44.7131 15.3053C45.643 14.5038 46.2867 14.1569 46.8942 13.8295C46.999 13.773 47.1027 13.7171 47.2066 13.6595C47.3962 13.5641 47.1829 13.4449 47.126 13.4449C46.8354 13.3899 46.5439 13.3337 46.2517 13.2774L46.2511 13.2773C42.5646 12.5667 38.7687 11.8351 35.1275 13.192C32.4064 14.2129 31.2118 16.3882 31.7854 17.8384C32.1931 18.8688 33.5394 19.031 34.8004 18.4109C35.8434 17.9004 36.8152 17.0656 37.5026 15.997C37.8818 15.4007 38.6925 15.8301 38.2563 16.8653C37.1044 19.5844 34.9095 21.7406 32.2358 21.8313C29.9555 21.9076 28.486 20.2189 28.4907 18.139C28.5002 14.0364 33.0417 11.3363 37.806 10.9308C41.8257 10.5971 45.6969 11.251 49.6128 11.9125C51.2941 12.1965 52.9837 12.4819 54.6968 12.6911C59.0676 13.2207 63.2583 13.235 67.6529 12.2141C68.1743 12.1044 68.5346 12.4383 68.5062 12.963C68.4588 13.7263 67.8709 14.461 66.425 15.2529C64.7801 16.164 63.0592 16.4407 61.2578 16.455C58.2746 16.4812 55.4302 15.6834 52.5816 14.8845L52.5815 14.8845C51.2836 14.5204 49.9847 14.1561 48.6715 13.8694C48.6724 13.904 48.6749 13.9398 48.6774 13.9759L48.6774 13.976C48.6886 14.1338 48.7001 14.2971 48.5767 14.3942C46.2538 16.1115 44.1537 17.8623 42.7457 20.319C42.6983 20.3763 42.7267 20.4335 42.8073 20.424C43.1446 20.4069 43.4721 20.392 43.7936 20.3773C44.638 20.3388 45.4405 20.3023 46.268 20.2332C46.4623 20.2189 46.4718 20.1712 46.4576 20.0233C46.396 19.5697 46.444 19.1078 46.5975 18.6768C46.751 18.2458 47.0054 17.8584 47.3394 17.5474C48.0979 16.8653 49.046 16.7842 49.6765 17.2803C50.3876 17.8384 50.3259 18.8498 49.9372 19.6035C49.762 19.9353 49.5223 20.2283 49.2324 20.4652C48.9425 20.702 48.6083 20.8778 48.2496 20.9821C48.2496 20.9821 48.1168 21.0108 48.1358 21.13C48.1499 21.2439 48.4632 21.4616 48.7285 21.6459C48.9076 21.7703 49.0647 21.8795 49.0934 21.9314C49.1645 22.0555 49.1266 22.2415 48.9986 22.3846C48.9479 22.4467 48.8842 22.4969 48.8121 22.5315C48.74 22.5661 48.6613 22.5844 48.5814 22.585C48.439 22.585 48.35 22.5357 48.172 22.4371L48.1547 22.4276C47.7028 22.1845 47.3006 21.8576 46.9696 21.4639C46.8558 21.3256 46.7989 21.3208 46.5287 21.3399C45.2962 21.4115 43.3715 21.5975 42.0725 21.7597C41.7549 21.7979 41.7075 21.8599 41.6459 21.9696L41.5077 22.1989L41.5077 22.1989C39.4711 25.5779 37.2969 29.1852 34.9142 31.6202C32.3069 34.2868 30.1357 34.9881 27.8317 35.0072ZM4.00103 24.0065C4.00103 14.7948 25.9358 7.27188 53 7.27188C80.0594 7.27188 101.999 14.7996 101.999 24.0065C101.999 33.2134 80.0641 40.7412 53 40.7412C25.9358 40.7412 4.00103 33.2134 4.00103 24.0065ZM2.21382 24.0065C2.21382 34.0864 24.9498 42.2582 53 42.2582C81.0454 42.2582 103.781 34.0864 103.781 24.0065C103.781 13.9218 81.0454 5.75488 53 5.75488C24.9498 5.75488 2.21382 13.9218 2.21382 24.0065Z" fill="#24292E"/>
</g>
<defs>
<clipPath id="clip0_215_139557">
<rect width="106" height="48" fill="white"/>
</clipPath>
</defs>
</svg>
