<?xml version="1.0" encoding="UTF-8"?>
<!DOCTYPE svg PUBLIC "-//W3C//DTD SVG 1.1//EN" "http://www.w3.org/Graphics/SVG/1.1/DTD/svg11.dtd">
<svg xmlns="http://www.w3.org/2000/svg" version="1.1" width="279px" height="226px" style="shape-rendering:geometricPrecision; text-rendering:geometricPrecision; image-rendering:optimizeQuality; fill-rule:evenodd; clip-rule:evenodd" xmlns:xlink="http://www.w3.org/1999/xlink">
<g><path style="opacity:0.955" fill="#24c9b1" d="M 177.5,48.5 C 182.511,48.3341 187.511,48.5007 192.5,49C 198.748,51.7079 204.914,54.5412 211,57.5C 214.543,56.3131 218.043,54.9798 221.5,53.5C 225.908,55.5931 227.242,58.9264 225.5,63.5C 215.072,72.4247 205.905,82.4247 198,93.5C 198.08,100.006 198.58,106.506 199.5,113C 200.541,129.286 194.375,141.786 181,150.5C 180.586,150.043 180.086,149.709 179.5,149.5C 179.687,144.729 179.187,140.062 178,135.5C 157.725,165.219 129.559,178.719 93.5,176C 75.6196,170.781 61.7863,160.281 52,144.5C 51.5065,142.866 51.3398,141.199 51.5,139.5C 57.8791,140.848 64.2125,142.514 70.5,144.5C 75.3779,142.452 79.8779,139.785 84,136.5C 85.6532,136.82 86.6532,137.82 87,139.5C 87.8196,144.638 87.3196,149.638 85.5,154.5C 86.0402,155.748 86.7069,156.915 87.5,158C 93.9026,158.972 99.5693,157.306 104.5,153C 112.419,146.408 118.919,138.575 124,129.5C 130.057,115.995 135.724,102.328 141,88.5C 146.573,76.9242 153.74,66.4242 162.5,57C 167.27,53.619 172.27,50.7857 177.5,48.5 Z M 185.5,71.5 C 189.485,71.6294 190.818,73.4628 189.5,77C 184.728,77.8104 183.395,75.9771 185.5,71.5 Z"/></g>
</svg>
