<svg width="1356" height="1358" viewBox="0 0 1356 1358" fill="none" xmlns="http://www.w3.org/2000/svg">
<g clip-path="url(#clip0_7_4405)">
<path opacity="0.1" fill-rule="evenodd" clip-rule="evenodd" d="M1353.76 678.5C1353.76 701.014 1352.65 723.271 1350.5 745.22C1345.41 759.501 1334.66 771.419 1320.3 777.795L1165.39 846.594C1158.39 849.7 1153 855.532 1150.22 862.656C1147.66 869.2 1144.98 875.678 1142.16 882.086C1139.08 889.094 1138.76 897.034 1141.51 904.179L1202.37 1062.3C1207.99 1076.91 1207.19 1092.89 1200.73 1106.55C1172.39 1141.09 1140.69 1172.76 1106.13 1201.08C1092.45 1207.54 1076.46 1208.34 1061.84 1202.72L903.606 1141.91C896.455 1139.16 888.509 1139.48 881.496 1142.56C875.081 1145.37 868.598 1148.06 862.048 1150.62C854.918 1153.4 849.082 1158.78 845.974 1165.77L777.124 1320.57C770.743 1334.92 758.816 1345.66 744.525 1350.75C722.56 1352.9 700.286 1354 677.755 1354C655.224 1354 632.951 1352.9 610.986 1350.75C596.694 1345.66 584.768 1334.92 578.387 1320.57L509.537 1165.77C506.428 1158.78 500.593 1153.4 493.463 1150.62C486.913 1148.06 480.431 1145.37 474.017 1142.56C467.003 1139.48 459.057 1139.16 451.907 1141.91L293.673 1202.72C279.046 1208.35 263.053 1207.54 249.374 1201.08C232.489 1187.24 216.287 1172.6 200.826 1157.22L198.677 1155.08C183.287 1139.63 168.639 1123.44 154.793 1106.57C148.329 1092.9 147.519 1076.92 153.145 1062.3L214.004 904.185C216.754 897.04 216.436 889.1 213.355 882.091C210.536 875.681 207.847 869.202 205.29 862.656C202.507 855.532 197.116 849.7 190.121 846.594L35.2095 777.795C20.8522 771.419 10.0973 759.502 5.01113 745.221C2.85754 723.272 1.75525 701.014 1.75525 678.5C1.75525 655.986 2.85754 633.728 5.01114 611.779C10.0973 597.498 20.8521 585.581 35.2095 579.205L190.121 510.406C197.116 507.3 202.507 501.468 205.29 494.344C207.847 487.798 210.536 481.319 213.355 474.909C216.436 467.9 216.754 459.96 214.004 452.815L153.145 294.7C147.519 280.083 148.329 264.101 154.793 250.432C168.639 233.562 183.285 217.374 198.675 201.927L200.829 199.774C216.289 184.395 232.49 169.758 249.374 155.922C263.053 149.463 279.046 148.654 293.673 154.275L451.907 215.09C459.057 217.838 467.003 217.521 474.017 214.441C480.431 211.626 486.913 208.939 493.463 206.384C500.593 203.603 506.428 198.216 509.537 191.227L578.387 36.4295C584.768 22.0828 596.694 11.3359 610.985 6.25348C632.95 4.10147 655.224 3 677.755 3C700.286 3 722.56 4.10148 744.525 6.25348C758.817 11.3359 770.743 22.0828 777.124 36.4295L845.974 191.227C849.082 198.216 854.918 203.603 862.048 206.384C868.598 208.939 875.081 211.626 881.496 214.442C888.509 217.521 896.455 217.839 903.606 215.091L1061.84 154.275C1076.46 148.655 1092.45 149.463 1106.13 155.917C1140.69 184.237 1172.39 215.912 1200.73 250.445C1207.19 264.112 1207.99 280.088 1202.37 294.7L1141.51 452.821C1138.76 459.966 1139.08 467.906 1142.16 474.914C1144.98 481.322 1147.66 487.8 1150.22 494.344C1153 501.468 1158.39 507.3 1165.39 510.406L1320.3 579.205C1334.66 585.581 1345.41 597.499 1350.5 611.78C1352.65 633.729 1353.76 655.986 1353.76 678.5Z" stroke="white" stroke-width="2"/>
<path opacity="0.1" fill-rule="evenodd" clip-rule="evenodd" d="M1330.59 853.682C1324.76 875.44 1317.93 896.665 1310.16 917.32C1301.55 929.806 1288.08 938.54 1272.57 940.988L1105.15 967.392C1097.59 968.584 1090.87 972.824 1086.34 978.99C1082.18 984.652 1077.9 990.217 1073.52 995.681C1068.73 1001.66 1066.37 1009.25 1067.17 1016.87L1085 1185.43C1086.65 1201.01 1081.73 1216.24 1071.96 1227.77C1035.64 1253.81 996.83 1276.22 956.122 1294.65C941.243 1297.35 925.593 1293.99 912.927 1284.78L775.862 1185.06C769.669 1180.55 761.913 1178.8 754.342 1179.96C747.419 1181.02 740.462 1181.94 733.475 1182.72C725.869 1183.56 718.838 1187.26 714.026 1193.21L607.45 1324.99C597.573 1337.21 583.272 1344.51 568.154 1345.72C546.385 1342.12 524.589 1337.42 502.831 1331.59C481.072 1325.76 459.847 1318.93 439.192 1311.16C426.706 1302.55 417.972 1289.08 415.525 1273.57L389.12 1106.15C387.928 1098.59 383.688 1091.87 377.522 1087.34C371.859 1083.18 366.294 1078.9 360.83 1074.52C354.854 1069.73 347.262 1067.37 339.645 1068.17L171.087 1086C155.505 1087.65 140.269 1082.73 128.732 1072.95C116.009 1055.2 104.153 1036.87 93.2049 1018L91.6857 1015.37C80.8229 996.457 70.8696 977.021 61.867 957.134C59.164 942.251 62.5204 926.595 71.7386 913.925L171.456 776.864C175.962 770.671 177.712 762.915 176.551 755.344C175.489 748.42 174.57 741.462 173.796 734.475C172.953 726.869 169.257 719.838 163.306 715.026L31.5198 608.45C19.3058 598.573 12.0056 584.273 10.7919 569.155C14.3959 547.385 19.0951 525.59 24.9254 503.831C30.7557 482.072 37.5839 460.847 45.3475 440.191C53.9575 427.706 67.4297 418.972 82.9461 416.525L250.364 390.121C257.923 388.928 264.64 384.688 269.173 378.522C273.337 372.858 277.612 367.292 281.994 361.826C286.785 355.85 289.147 348.259 288.342 340.642L270.514 172.085C268.866 156.503 273.787 141.267 283.569 129.729C301.309 117.008 319.645 105.154 338.508 94.2069L341.145 92.6843C360.059 81.8212 379.495 71.8677 399.382 62.8649C414.265 60.1624 429.92 63.5191 442.59 72.737L579.652 172.456C585.846 176.962 593.601 178.711 601.172 177.551C608.095 176.489 615.051 175.57 622.037 174.796C629.643 173.953 636.674 170.257 641.486 164.306L748.062 32.5199C757.939 20.3059 772.24 13.0057 787.357 11.7919C809.127 15.396 830.923 20.0952 852.681 25.9254C874.44 31.7557 895.666 38.5839 916.321 46.3476C928.806 54.9576 937.54 68.4298 939.987 83.9462L966.392 251.365C967.584 258.924 971.824 265.64 977.99 270.173C983.654 274.337 989.219 278.612 994.684 282.993C1000.66 287.784 1008.25 290.146 1015.87 289.341L1184.43 271.512C1200.01 269.865 1215.24 274.782 1226.78 284.559C1252.82 320.871 1275.23 359.686 1293.65 400.394C1296.35 415.273 1292.99 430.922 1283.78 443.588L1184.06 580.654C1179.55 586.847 1177.8 594.603 1178.96 602.174C1180.02 609.096 1180.94 616.052 1181.72 623.038C1182.56 630.644 1186.26 637.674 1192.21 642.486L1323.99 749.062C1336.21 758.939 1343.51 773.24 1344.72 788.358C1341.12 810.127 1336.42 831.923 1330.59 853.682Z" stroke="white" stroke-width="2"/>
</g>
<defs>
<clipPath id="clip0_7_4405">
<rect width="1356" height="1358" fill="white"/>
</clipPath>
</defs>
</svg>
