<svg fill="none" height="138" viewBox="0 0 138 138" width="138" xmlns="http://www.w3.org/2000/svg"><g stroke="#fff"><path d="m128.854 102.317-.435-.247-32.1924-18.2278-.4346-.2462-.2466.4345c-5.2424 9.2385-15.1666 15.4695-26.5455 15.4695-16.8447 0-30.5-13.6553-30.5-30.5 0-16.8446 13.6553-30.4999 30.4999-30.5h.5v-.5-37-.5h-.5c-12.0486 0-23.884 3.17794-34.3121 9.21316-10.4281 6.03524-19.0798 14.71414-25.08226 25.16114-6.00243 10.447-9.143198 22.2924-9.105346 34.3409s3.253016 23.8739 9.320966 34.2828c6.06794 10.409 14.77404 19.034 25.23984 25.003 10.4658 5.97 22.3209 9.073 34.3693 8.998 12.0483-.076 23.8636-3.328 34.2538-9.429 10.39-6.101 18.987-14.834 24.923-25.318z" fill="#ffea7f"/><path d="m69 .5h-.5v.5 37 .5h.5c16.8447 0 30.5 13.6553 30.5 30.5 0 5.466-1.4374 10.5947-3.9545 15.0304l-.247.4353.4355.2466 32.192 18.2287.435.246.247-.435c5.9-10.4212 8.966-22.207 8.891-34.1824-.076-11.9754-3.289-23.7218-9.32-34.0678s-14.67-18.9301-25.053-24.89614c-10.384-5.96608-22.1504-9.10566-34.126-9.10566z" fill="#f9c513"/></g></svg>