<svg fill="none" height="44" viewBox="0 0 56 44" width="56" xmlns="http://www.w3.org/2000/svg"><g stroke-linecap="round" stroke-linejoin="round" stroke-width="2"><g stroke="#79b8ff"><path d="m54.7 16.5h-53.7v4.3h53.7z"/><path d="m1 20.8v21.4"/><path d="m54.7 20.8v21.4"/></g><g stroke="#2188ff"><path d="m21.5 30.2h-12c-1.4 0-2.5-1.1-2.5-2.5s1.1-2.5 2.5-2.5h12c1.4 0 2.5 1.1 2.5 2.5s-1.1 2.5-2.5 2.5z"/><path d="m10 41.6 5-3.6"/><path d="m20 41.6-5-3.6"/><path d="m15 38.2v-7.7"/><path d="m47 30.2h-12c-1.4 0-2.5-1.1-2.5-2.5s1.1-2.5 2.5-2.5h12c1.4 0 2.5 1.1 2.5 2.5s-1.1 2.5-2.5 2.5z"/><path d="m7.19995 12h16.00005v-10c0-.6-.4-1-1-1h-14.00005c-.6 0-1 .4-1 1z"/><path d="m4.19995 12h22.00005"/><path d="m11.4 5.2 1.4 1.4-1.4 1.4"/><path d="m16.2 8h2"/><path d="m33.2 12h16v-10c0-.6-.4-1-1-1h-14c-.6 0-1 .4-1 1z"/><path d="m30.2 12h22"/><path d="m37.4 5.2 1.4 1.4-1.4 1.4"/><path d="m42.2 8h2"/><path d="m36 41.6 5-3.6"/><path d="m46 41.6-5-3.6"/><path d="m41 38.2v-7.7"/></g></g></svg>