<svg version="1.1" xmlns="http://www.w3.org/2000/svg" xmlns:xlink="http://www.w3.org/1999/xlink" x="0px" y="0px" width="204" height="29"
   viewBox="0 0 216 30.4" enable-background="new 0 0 216 30.4" xml:space="preserve">
<path fill="#333333" d="M105.6,12.3h-9.8v8.8h10.9V23H93.7V0.8h12.9v1.9H95.8v7.8h9.8V12.3z M118.6,12.2c0-1.9-1.1-2.5-3-2.5
  c-1.9,0-2.9,0.3-4,0.9V23h-2.1V8.2h1.2l0.4,1.2c1.4-1,2.9-1.5,4.5-1.5c3.5,0,5,1.6,5,4.4V23h-2.1V12.2z M131.8,23.1
  c-0.4,0.1-0.9,0.1-1.3,0.1c-2.5,0-4.7-1.1-4.7-4V9.8h-3V8.9l3-0.9V4l2.1-0.6v4.7h4.6v1.6h-4.6V19c0,1.8,1,2.5,2.8,2.5
  c0.4,0,0.8,0,1.2-0.1V23.1z M140.3,7.9c5,0,5.6,3.4,5.6,7.7v0.9h-9.8c0.1,2.6,0.8,4.9,4.1,4.9c2.1,0,3.4-0.2,4.9-0.8v1.8
  c-1.7,0.7-3.4,0.9-4.9,0.9c-5,0-6.2-3.4-6.2-7.7C134.1,11.3,135.3,7.9,140.3,7.9z M136.2,14.8h7.7c0-2.6-0.1-5.1-3.6-5.1
  C136.9,9.7,136.2,12.2,136.2,14.8z M157.1,9.9c-0.4-0.1-1-0.2-1.8-0.2c-2,0-3.2,0.3-4.3,0.9V23h-2.1V8.2h1.2l0.4,1.2
  c1.4-1,3.1-1.5,4.8-1.5c0.7,0,1.2,0.1,1.8,0.1V9.9z M161.5,22v8.3h-2.1V8.2h1.2l0.4,1.2c1.5-1,3-1.5,4.6-1.5c4.8,0,6.1,3.4,6.1,7.7
  c0,4.3-1.3,7.7-6.1,7.7C164.3,23.3,162.8,22.9,161.5,22z M169.6,15.6c0-2.9-0.4-5.9-4-5.9c-1.9,0-3,0.3-4.1,0.9v9.8
  c1.2,0.6,2.2,0.9,4.1,0.9C169.2,21.4,169.6,18.5,169.6,15.6z M182.8,9.9c-0.4-0.1-1-0.2-1.8-0.2c-2,0-3.2,0.3-4.3,0.9V23h-2.1V8.2
  h1.2l0.4,1.2c1.4-1,3.1-1.5,4.8-1.5c0.7,0,1.2,0.1,1.8,0.1V9.9z M186.4,2.2c0.8,0,1.5,0.7,1.5,1.5c0,0.8-0.7,1.5-1.5,1.5
  c-0.8,0-1.5-0.7-1.5-1.5C184.9,2.9,185.6,2.2,186.4,2.2z M185.4,20V8.2h2v12.1c0,1,0.3,1.3,1.2,1.3v1.7
  C186.5,23.3,185.4,22.4,185.4,20z M196.4,14.5c4.2,0.4,5.2,1.8,5.2,4.2c0,2.3-1.5,4.6-6,4.6c-1.4,0-3.5-0.4-4.4-0.7v-1.8
  c0.9,0.3,2.3,0.7,4.4,0.7c3.1,0,3.9-1.3,3.9-2.7c0-1.4-0.4-2.3-3.3-2.5c-4.3-0.4-5.2-1.9-5.2-3.9c0-2.1,1.4-4.4,5.5-4.4
  c1.4,0,3,0.2,4.3,0.7v1.8c-1.2-0.4-2.3-0.7-4.3-0.7c-2.9,0-3.6,1.1-3.6,2.5C193,13.5,193.6,14.2,196.4,14.5z M210.4,7.9
  c5,0,5.6,3.4,5.6,7.7v0.9h-9.8c0.1,2.6,0.8,4.9,4.1,4.9c2.1,0,3.4-0.2,4.9-0.8v1.8c-1.7,0.7-3.4,0.9-4.9,0.9c-5,0-6.2-3.4-6.2-7.7
  C204.2,11.3,205.4,7.9,210.4,7.9z M206.2,14.8h7.7c0-2.6-0.1-5.1-3.6-5.1C206.9,9.7,206.3,12.2,206.2,14.8z M0.4,12.5 M16.6,10H9.4
  C9.2,10,9,10.1,9,10.3v3.5c0,0.2,0.2,0.3,0.3,0.3h2.8v4.4c0,0-0.6,0.2-2.4,0.2c-2.1,0-5-0.8-5-7.1c0-6.4,3-7.2,5.8-7.2
  c2.4,0,3.5,0.4,4.2,0.6c0.2,0.1,0.4-0.1,0.4-0.3l0.8-3.4c0-0.1,0-0.2-0.1-0.3C15.7,0.9,14,0,9.8,0C5,0,0,2.1,0,12
  c0,9.9,5.7,11.4,10.5,11.4c4,0,6.4-1.7,6.4-1.7c0.1-0.1,0.1-0.2,0.1-0.3V10.3C17,10.1,16.8,10,16.6,10z M54.3,1.2
  c0-0.2-0.1-0.3-0.3-0.3h-4.1c-0.2,0-0.3,0.2-0.3,0.3c0,0,0,7.9,0,7.9h-6.4V1.2c0-0.2-0.2-0.3-0.3-0.3h-4.1c-0.2,0-0.3,0.2-0.3,0.3
  v21.4c0,0.2,0.2,0.3,0.3,0.3h4.1c0.2,0,0.3-0.2,0.3-0.3v-9.1h6.4c0,0,0,9.1,0,9.1c0,0.2,0.2,0.3,0.3,0.3H54c0.2,0,0.3-0.2,0.3-0.3
  V1.2z M24.5,4c0-1.5-1.2-2.7-2.6-2.7c-1.5,0-2.6,1.2-2.6,2.7c0,1.5,1.2,2.7,2.6,2.7C23.3,6.7,24.5,5.5,24.5,4z M24.2,18.1
  c0-0.5,0-9.9,0-9.9c0-0.2-0.2-0.3-0.3-0.3h-4.1c-0.2,0-0.4,0.2-0.4,0.4c0,0,0,11.9,0,14.1c0,0.4,0.3,0.5,0.6,0.5c0,0,1.7,0,3.7,0
  c0.4,0,0.5-0.2,0.5-0.5C24.2,21.6,24.2,18.6,24.2,18.1z M70.2,7.9h-4.1c-0.2,0-0.3,0.2-0.3,0.3v10.5c0,0-1,0.8-2.5,0.8
  c-1.5,0-1.8-0.7-1.8-2.1c0-1.4,0-9.1,0-9.1c0-0.2-0.2-0.3-0.3-0.3H57c-0.2,0-0.3,0.2-0.3,0.3c0,0,0,5.6,0,9.8c0,4.3,2.4,5.3,5.6,5.3
  c2.7,0,4.8-1.5,4.8-1.5s0.1,0.8,0.1,0.9c0,0.1,0.2,0.2,0.3,0.2l2.6,0c0.2,0,0.3-0.2,0.3-0.3l0-14.4C70.5,8,70.4,7.9,70.2,7.9z
   M81.5,7.4c-2.3,0-3.9,1-3.9,1V1.2c0-0.2-0.2-0.3-0.3-0.3h-4.1c-0.2,0-0.3,0.2-0.3,0.3v21.4c0,0.2,0.2,0.3,0.3,0.3c0,0,2.8,0,2.8,0
  c0.1,0,0.2-0.1,0.3-0.2c0.1-0.1,0.2-1,0.2-1s1.7,1.6,4.8,1.6c3.7,0,5.9-1.9,5.9-8.5C87.2,8.3,83.8,7.4,81.5,7.4z M79.9,19.4
  c-1.4,0-2.4-0.7-2.4-0.7V12c0,0,0.9-0.6,2.1-0.7c1.5-0.1,2.9,0.3,2.9,3.8C82.5,18.8,81.8,19.5,79.9,19.4z M35.9,7.8h-3.1
  c0,0,0-4,0-4c0-0.2-0.1-0.2-0.3-0.2h-4.2c-0.2,0-0.2,0.1-0.2,0.2V8c0,0-2.1,0.5-2.2,0.5c-0.1,0-0.2,0.2-0.2,0.3v2.6
  c0,0.2,0.2,0.3,0.3,0.3h2.1c0,0,0,2.7,0,6.3c0,4.7,3.3,5.2,5.5,5.2c1,0,2.2-0.3,2.4-0.4c0.1,0,0.2-0.2,0.2-0.3l0-2.9
  c0-0.2-0.2-0.3-0.3-0.3c-0.2,0-0.6,0.1-1.1,0.1c-1.5,0-2-0.7-2-1.6c0-0.9,0-6,0-6h3.1c0.2,0,0.3-0.2,0.3-0.3V8.2
  C36.2,8,36,7.8,35.9,7.8z"/>
</svg>
