<svg viewBox="0 0 56 56" xmlns="http://www.w3.org/2000/svg"><g fill="none" fill-rule="evenodd" stroke-width="2" transform="translate(2 4)"><path d="m23.68 32.927v-2.54a2.227 2.227 0 0 1 .37-1.265c-.526-.04-3.84-.371-3.84-4.302 0-1.013.305-1.839.915-2.477a4.989 4.989 0 0 1 -.146-1.86c.087-.882.946-.823 2.577.178 1.277-.47 2.852-.47 4.725 0 .248-.303 2.434-1.704 2.658-.268.047.296.016.946-.093 1.95.516.524.776 1.358.78 2.501.007 2.261-1.26 3.687-3.8 4.278.24.436.355.857.346 1.264a117.22 117.22 0 0 0 0 2.614c2.43-.744 4.228-2.06 5.395-3.95.837-1.356 1.433-2.932 1.433-4.865 0-2.886-1.175-4.984-2.5-6.388-1.786-1.894-4.234-2.797-6.5-2.797a9.094 9.094 0 0 0 -6.588 2.897c-1.384 1.496-2.412 3.61-2.412 6.288 0 2.026.701 3.945 1.773 5.38 1.228 1.643 2.864 2.764 4.907 3.362z" stroke="#2088ff" stroke-linecap="round" stroke-linejoin="round"/><path d="m17 14.012v-.557c0-2.336 1.383-4.466 3-5.228l15-8.227v14.022m-9-14.022c-2.479 0-4.87.376-7.119 1.073m-9.835 5.94a23.93 23.93 0 0 0 -6.863 14.009m1.58 12.024c.139.34.284.675.437 1.006m12.81 4.972-.003-6.016m17.996-.006c0 .084-.006 2.952-.01 6.054m12.79-4.986a23.822 23.822 0 0 0 1.452-4.048m-.581-13.966a24.061 24.061 0 0 0 -8.626-11.532" stroke="#79b8ff" stroke-linecap="round" stroke-linejoin="round"/><g stroke="#2088ff"><path d="m7.006 38.181c-.454.162-.811.305-1.07.427-1.871.878-2.936 1.892-2.936 2.972 0 3.089 8.721 5.64 20.012 6.027.003-.488-.001-1.689-.012-3.602h6c.002 1.859.004 3.06.006 3.6 11.282-.386 19.994-2.936 19.994-6.023 0-1.066-1.037-2.067-2.86-2.938-.21-.1-.592-.243-1.145-.43" stroke-linecap="round" stroke-linejoin="round"/><path d="m13.012 35.353c-3.7.913-6.012 2.21-6.012 3.65 0 2.112 4.976 3.918 12.011 4.65m14.01-.003c7.017-.734 11.979-2.538 11.979-4.647 0-1.434-2.295-2.728-5.971-3.64" stroke-linecap="round"/><circle cx="13.5" cy="3.5" r="1.5"/><circle cx="2" cy="27" r="2"/><circle cx="49" cy="23" r="3"/></g></g></svg>