<svg width="232" height="66" viewBox="0 0 232 66" version="1.1" xmlns="http://www.w3.org/2000/svg"><defs/><path d="M125 47.32v13.95a18.32 18.32 0 01-5.59 2.83 21.82 21.82 0 01-6.36.89 21.08 21.08 0 01-7.64-1.31A17.12 17.12 0 0199.59 60a16.14 16.14 0 01-3.73-5.58 18.78 18.78 0 01-1.31-7.08 19.58 19.58 0 011.26-7.14A15.68 15.68 0 01105 31a20.39 20.39 0 017.45-1.29 22 22 0 013.92.33 20.43 20.43 0 013.39.92 15.16 15.16 0 012.85 1.42 17.3 17.3 0 012.39 1.87l-1.84 2.91a1.72 1.72 0 01-1.12.84 2 2 0 01-1.5-.34l-1.54-.91a10.49 10.49 0 00-1.75-.79 15.29 15.29 0 00-4.95-.76 11.91 11.91 0 00-4.61.86 9.66 9.66 0 00-3.52 2.46 10.9 10.9 0 00-2.24 3.84 14.88 14.88 0 00-.79 5 15.23 15.23 0 00.85 5.28 11.06 11.06 0 002.38 3.94 10.15 10.15 0 003.68 2.42 14.28 14.28 0 008.25.44 17.1 17.1 0 002.94-1.09v-6.21h-4.35a1.3 1.3 0 01-1-.35 1.15 1.15 0 01-.35-.85v-3.62H125zm10.47-2.93a10.53 10.53 0 012.72-3.45 5.77 5.77 0 013.72-1.25 4.5 4.5 0 012.72.74l-.38 4.41a1.18 1.18 0 01-.34.61 1 1 0 01-.61.18 6.76 6.76 0 01-1.06-.12 8.22 8.22 0 00-1.38-.12 5 5 0 00-1.74.28 4.37 4.37 0 00-1.37.83 5.55 5.55 0 00-1.07 1.3 12.26 12.26 0 00-.87 1.74v15.07H130V40.14h3.45a1.94 1.94 0 011.27.32 1.9 1.9 0 01.48 1.16l.27 2.77zm11.36-.84A14.49 14.49 0 01157 39.69a9.92 9.92 0 013.84.7 8.06 8.06 0 012.86 2 8.38 8.38 0 011.78 3 11.64 11.64 0 01.61 3.82v15.4h-2.68a2.64 2.64 0 01-1.28-.25 1.72 1.72 0 01-.72-1l-.52-1.77a20.25 20.25 0 01-1.82 1.47 10.86 10.86 0 01-1.83 1.06 10.36 10.36 0 01-2 .66 12 12 0 01-2.4.22 9.64 9.64 0 01-2.86-.41 6.28 6.28 0 01-2.27-1.26 5.6 5.6 0 01-1.48-2.07 7.38 7.38 0 01-.52-2.89 5.7 5.7 0 01.31-1.85 5.3 5.3 0 011-1.75 8.25 8.25 0 011.83-1.57 11.17 11.17 0 012.75-1.29 23.28 23.28 0 013.81-.9 36.77 36.77 0 015-.41v-1.44a5.35 5.35 0 00-1.05-3.64 3.83 3.83 0 00-3-1.18 7.3 7.3 0 00-2.38.33 9.39 9.39 0 00-1.65.75l-1.3.75a2.52 2.52 0 01-1.3.34 1.7 1.7 0 01-1.05-.32 2.61 2.61 0 01-.69-.76l-1.16-1.88zm13.5 10.61a31.66 31.66 0 00-4.3.45 11 11 0 00-2.79.82 3.57 3.57 0 00-1.5 1.17 2.89 2.89 0 00.47 3.67 3.93 3.93 0 002.39.67 7 7 0 003.14-.66 9.52 9.52 0 002.59-2v-4.12zm32.53-25v35.45h-3.6a1.39 1.39 0 01-1.48-1.07l-.5-2.36a12.4 12.4 0 01-3.4 2.74 9.17 9.17 0 01-4.47 1 7.95 7.95 0 01-6.55-3.26 11.61 11.61 0 01-1.86-3.87 19.71 19.71 0 01-.66-5.34 16.77 16.77 0 01.74-5.06 12.21 12.21 0 012.13-4 9.88 9.88 0 013.31-2.69 9.64 9.64 0 014.34-1 8.63 8.63 0 013.51.64 9 9 0 012.6 1.74V29.17l5.89-.01zM187 46.39a5.94 5.94 0 00-2.18-1.72 6.54 6.54 0 00-2.54-.5 5.68 5.68 0 00-2.41.5 4.87 4.87 0 00-1.87 1.52 7.19 7.19 0 00-1.17 2.57 14.83 14.83 0 00-.4 3.69 16.34 16.34 0 00.34 3.63 7.14 7.14 0 001 2.44 3.79 3.79 0 001.58 1.36 5 5 0 002.07.41 6 6 0 003.13-.76 9.19 9.19 0 002.45-2.17V46.39zm17.67-17.22v35.44h-5.89V29.17h5.89zm10.43 23.94a11.37 11.37 0 00.67 3.26c.3.843.77 1.616 1.38 2.27a5.39 5.39 0 002 1.33 7.26 7.26 0 002.61.44 8.21 8.21 0 002.47-.33 11.51 11.51 0 001.81-.74c.52-.27 1-.52 1.36-.74a2.31 2.31 0 011.13-.33c.44-.03.86.18 1.1.55l1.73 2.18a9.45 9.45 0 01-2.19 1.92 12.18 12.18 0 01-2.54 1.24 14 14 0 01-2.7.66 18.78 18.78 0 01-2.65.19 12.93 12.93 0 01-4.75-.85 10.65 10.65 0 01-3.82-2.5 11.8 11.8 0 01-2.55-4.1 15.9 15.9 0 01-.93-5.67 13.55 13.55 0 01.81-4.71 11.34 11.34 0 012.33-3.84 11 11 0 013.69-2.59 12.31 12.31 0 014.93-1 11.86 11.86 0 014.27.74 9.25 9.25 0 013.36 2.16 9.84 9.84 0 012.21 3.48 13 13 0 01.8 4.71 3.82 3.82 0 01-.29 1.8 1.19 1.19 0 01-1.1.46l-15.14.01zm11.23-3.55a7.28 7.28 0 00-.33-2.16 5.16 5.16 0 00-1-1.77 4.44 4.44 0 00-1.63-1.21 5.68 5.68 0 00-2.3-.44 5.46 5.46 0 00-4 1.45 7.13 7.13 0 00-1.87 4.13h11.13zM82.26 5C77.028-.236 68.585-.378 63.18 4.68a1.27 1.27 0 00-.41.93c-.007.355.13.698.38.95l1.73 1.73c.461.46 1.19.51 1.71.12a7.78 7.78 0 014.71-1.57 7.87 7.87 0 015.57 13.43C66 31.2 51.41.66 18.4 16.37a4.48 4.48 0 00-2 6.29l5.66 9.79a4.49 4.49 0 006.07 1.67l.14-.08-.11.08 2.51-1.41a57.72 57.72 0 007.91-5.89 1.37 1.37 0 011.8-.06 1.29 1.29 0 010 2A59.79 59.79 0 0132.11 35l-.09.05-2.51 1.4a7 7 0 01-3.47.91 7.19 7.19 0 01-6.23-3.57l-5.36-9.24C4.17 31.81-2.07 45.8 1.28 63.5a1.31 1.31 0 001.29 1.06h6.09A1.3 1.3 0 0010 63.42a8.94 8.94 0 0117.73 0A1.3 1.3 0 0029 64.56h5.94a1.31 1.31 0 001.3-1.14 8.93 8.93 0 0117.72 0 1.3 1.3 0 001.29 1.14h5.87a1.3 1.3 0 001.3-1.28c.14-8.28 2.37-17.79 8.74-22.55C93.15 24.25 87.36 10.12 82.26 5zM59.79 29.92l-4.2-2.11a2.64 2.64 0 114.2 2.12v-.01z" fill="#959DA5" fill-rule="nonzero" stroke="none" stroke-width="1"/></svg>