<svg enable-background="new 0 0 136 300" viewBox="0 0 136 300" xmlns="http://www.w3.org/2000/svg"><path d="m7.5 290.9c0 3.1 1.8 5.2 4.8 5.2 2.9 0 4.8-2.1 4.8-5.2s-1.9-5.2-4.8-5.2-4.8 2.1-4.8 5.2zm1.4 0c0-2.5 1.3-4.1 3.4-4.1s3.4 1.6 3.4 4.1c0 2.4-1.3 4.1-3.4 4.1s-3.4-1.6-3.4-4.1zm8.8-2.2 2.6 7.3h1.4l2.6-7.3h-1.3l-1.3 3.9-.7 2.2-.7-2.2-1.3-3.9zm10.7 7.4c1.8 0 3-1 3.3-2.3h-1.2c-.2.8-.9 1.3-2 1.3-1.4 0-2.3-.9-2.3-2.5h5.4c0-.2 0-.5 0-.8 0-2-1.2-3.3-3.2-3.3s-3.4 1.5-3.4 3.9 1.4 3.7 3.4 3.7zm-2.2-4.4c0-1.3.9-2.2 2.2-2.2s2 .8 2 2.2zm7.3 4.3h1.2v-3.4c0-1.9.8-2.9 2.5-3v-1.1c-1.1 0-1.9.5-2.4 1.6h-.1l-.2-1.5h-1.1v7.4zm11.1-7.3h-1.1l-.1 1.3h-.1c-.4-.9-1.3-1.5-2.5-1.5-1.9 0-3.2 1.5-3.2 3.8s1.3 3.8 3.1 3.8c1.2 0 2.2-.6 2.5-1.5h.1v1.4h1.2v-7.3zm-1.2 3.2v.9c0 1.3-1 2.3-2.3 2.3-1.2 0-2.2-.8-2.2-2.7s1-2.7 2.2-2.7c1.3-.1 2.3.9 2.3 2.2zm3.7 4.1h1.2v-10.3h-1.2zm3.6 0h1.2v-10.3h-1.2z" fill="#707a84"/><path d="m81 285.8 2 10.2h1.8l2.4-8.8h.1l2.4 8.8h1.8l2.1-10.2h-1.4l-1.2 6.1-.5 2.7h-.1l-2.4-8.8h-1.7l-2.4 8.8h.1l-.5-2.7-1.2-6.1zm13 6.6c0 2.2 1.4 3.8 3.5 3.8s3.5-1.5 3.5-3.8-1.4-3.8-3.5-3.8-3.5 1.5-3.5 3.8zm1.2-.1c0-1.7.9-2.7 2.3-2.7 1.5 0 2.3 1.1 2.3 2.7 0 1.7-.9 2.7-2.3 2.7-1.5.1-2.3-1-2.3-2.7zm7.6 3.7h1.2v-3.9c0-1.5.7-2.5 1.9-2.5 1 0 1.6.6 1.6 2v4.4h1.2v-3.9c0-1.5.6-2.5 1.9-2.5 1 0 1.6.6 1.6 2v4.4h1.2v-4.5c0-1.8-.9-3-2.4-3-1 0-2 .5-2.4 1.6h-.1c-.3-.9-1.1-1.6-2.1-1.6s-1.8.5-2.3 1.5h-.1l-.2-1.4h-1.1zm15.9.1c1.8 0 3-1 3.3-2.3h-1.2c-.2.8-.9 1.3-2 1.3-1.4 0-2.3-.9-2.3-2.5h5.4c0-.2 0-.5 0-.8 0-2-1.2-3.3-3.2-3.3s-3.4 1.5-3.4 3.8 1.3 3.8 3.4 3.8zm-2.3-4.4c0-1.3.9-2.2 2.2-2.2s2 .8 2 2.2zm7.4 4.3h1.2v-3.8c0-1.5.9-2.5 2.2-2.5 1.1 0 1.7.6 1.7 2v4.4h1.2v-4.5c0-1.8-.9-3-2.5-3-1.1 0-2 .6-2.5 1.5h-.1l-.2-1.4h-1.1v7.3z" fill="#707a84"/><path d="m0 113v162h60v-162z" fill="#eaeef2"/><path d="m76 103v172h60v-172z" fill="#aceebb"/><g fill="#24292f"><path d="m17.2 130.6v-6.7h-2.2l-4.2 6.7v1.2h4.9v2.1h1.4v-2.1h1.2v-1.2zm-4.8 0 3.4-5.5v5.5zm7.2-3.8h2.6v7.2h1.4v-10.1h-1.3c-.2 1.1-1 1.8-2.4 1.8h-.3zm6.8 7.2h1.7v-1.9h-1.7zm7-1.3c-.7 0-1.4 0-2 .1.3-1.1 1.6-1.9 2.8-2.7 1.2-.9 2.2-1.8 2.2-3.4 0-1.7-1.3-2.9-3.2-2.9-2 0-3.3 1.3-3.3 3.2h1.5c-.1-1.2.6-1.9 1.8-1.9 1 0 1.7.6 1.7 1.7s-.8 1.8-1.8 2.5c-1.6 1.1-3.3 2.2-3.3 4.4v.4h6.7v-1.3zm4.5-6.5c0 1.5 1 2.6 2.5 2.6s2.5-1 2.5-2.5-1-2.5-2.5-2.5c-1.5-.1-2.5.9-2.5 2.4zm1.8 7.8h1l6.5-10.2h-1zm-.7-7.8c0-.9.6-1.6 1.4-1.6s1.4.6 1.4 1.6c0 .9-.6 1.6-1.4 1.6-.9 0-1.4-.7-1.4-1.6zm4.9 5.4c0 1.5 1 2.6 2.5 2.6s2.5-1.1 2.5-2.5-1-2.6-2.5-2.6c-1.5-.1-2.5 1-2.5 2.5zm1.1 0c0-.9.6-1.6 1.4-1.6s1.4.7 1.4 1.6-.6 1.6-1.4 1.6c-.9 0-1.4-.7-1.4-1.6z"/><path d="m92.4 120.6v-6.7h-2.1l-4.2 6.7v1.2h4.9v2.1h1.4v-2.1h1.2v-1.2zm-4.8 0 3.4-5.5v5.5zm10.7 3.5c2 0 3.4-1.2 3.4-3 0-1-.5-2-1.7-2.4v-.1c1-.4 1.5-1.3 1.5-2.3 0-1.7-1.4-2.7-3.2-2.7-2 0-3.3 1.2-3.3 3.2h1.5c0-1.2.7-1.9 1.8-1.9 1 0 1.7.5 1.7 1.5 0 .9-.6 1.6-1.8 1.6h-.8v1.2h.8c1.2 0 1.9.7 1.9 1.7 0 1.1-.8 1.8-1.9 1.8s-1.9-.6-1.8-1.9h-1.4c0 2.1 1.2 3.3 3.3 3.3zm5.2-.1h1.7v-1.9h-1.7zm3.1-7h1.2v-1.8h3.8c-1.8 2.6-3.3 6-3.8 8.8h1.6c.5-3 2.1-6.5 3.9-9.1v-1h-6.8v3.1zm8-.8c0 1.5 1 2.6 2.5 2.6s2.5-1 2.5-2.5-1-2.5-2.5-2.5c-1.5-.1-2.5.9-2.5 2.4zm1.8 7.8h1l6.5-10.2h-1zm-.7-7.8c0-.9.6-1.6 1.4-1.6s1.4.6 1.4 1.6c0 .9-.6 1.6-1.4 1.6s-1.4-.7-1.4-1.6zm4.9 5.4c0 1.5 1 2.6 2.5 2.6s2.5-1.1 2.5-2.5-1-2.6-2.5-2.6c-1.5-.1-2.5 1-2.5 2.5zm1.1 0c0-.9.6-1.6 1.4-1.6s1.4.7 1.4 1.6-.6 1.6-1.4 1.6-1.4-.7-1.4-1.6z"/></g></svg>