<?xml version="1.0" encoding="UTF-8"?>
<svg width="80px" height="80px" viewBox="0 0 80 80" version="1.1" xmlns="http://www.w3.org/2000/svg" xmlns:xlink="http://www.w3.org/1999/xlink">
    <title>Group</title>
    <defs>
        <linearGradient x1="100%" y1="13.75%" x2="0%" y2="69.375%" id="linearGradient-1">
            <stop stop-color="#FFFFFF" stop-opacity="0.32" offset="0%"></stop>
            <stop stop-color="#FFFFFF" stop-opacity="0" offset="100%"></stop>
        </linearGradient>
    </defs>
    <g id="Page-1" stroke="none" stroke-width="1" fill="none" fill-rule="evenodd">
        <g id="Group">
            <circle id="Oval" fill="#0366D6" fill-rule="nonzero" cx="40" cy="40.0015" r="40"></circle>
            <circle id="Oval" fill="url(#linearGradient-1)" fill-rule="nonzero" cx="40" cy="40.0015" r="40"></circle>
            <path d="M23,16.0015 C21.3431,16.0015 20,17.3446 20,19.0015 L20,34.0015 C20,35.6583 21.3431,37.0015 23,37.0015 L33,37.0015 C33.5523,37.0015 34,36.5537 34,36.0015 C34,35.4492 33.5523,35.0015 33,35.0015 L23,35.0015 C22.4477,35.0015 22,34.5537 22,34.0015 L22,19.0015 C22,18.4492 22.4477,18.0015 23,18.0015 L57,18.0015 C57.5523,18.0015 58,18.4492 58,19.0015 L58,34.0015 C58,34.5537 57.5523,35.0015 57,35.0015 L56.0181,35.0015 C55.4658,35.0015 55.0181,35.4492 55.0181,36.0015 C55.0181,36.5537 55.4658,37.0015 56.0181,37.0015 L57,37.0015 C58.6569,37.0015 60,35.6583 60,34.0015 L60,19.0015 C60,17.3446 58.6569,16.0015 57,16.0015 L23,16.0015 Z" id="Path" fill="#F6F8FA" fill-rule="nonzero"></path>
            <path d="M17.0028,47.0197 C17.0028,44.8105 18.7933,43.02 21.0024,43.02 C23.2112,43.02 25.0028,44.8102 25.0028,47.0197 C25.0028,48.1377 24.5443,49.1484 23.8052,49.8741 C24.1524,50.1098 24.4682,50.3878 24.7451,50.7006 C25.1111,51.1142 25.0726,51.7462 24.659,52.1122 C24.2455,52.4783 23.6135,52.4398 23.2475,52.0262 C22.7278,51.4391 21.985,51.0588 21.1521,51.0173 C21.1024,51.0191 21.0526,51.02 21.0024,51.02 C20.9514,51.02 20.9006,51.0191 20.8501,51.0172 C19.2629,51.0953 18,52.4069 18,54.0135 C18,54.5658 17.5523,55.0135 17,55.0135 C16.4477,55.0135 16,54.5658 16,54.0135 C16,52.2905 16.8715,50.771 18.1978,49.8719 C17.4602,49.1463 17.0028,48.1365 17.0028,47.0197 Z M23.0028,47.0197 C23.0028,48.0787 22.1803,48.945 21.1395,49.0154 C21.0931,49.0141 21.0466,49.0135 21,49.0135 C20.9545,49.0135 20.9092,49.0141 20.864,49.0153 C19.8242,48.9442 19.0028,48.0785 19.0028,47.0197 C19.0028,45.9151 19.8979,45.02 21.0024,45.02 C22.1073,45.02 23.0028,45.9154 23.0028,47.0197 Z" id="Shape" fill="#F6F8FA"></path>
            <path d="M36.0028,47.0197 C36.0028,48.1365 36.4602,49.1463 37.1979,49.872 C37.0138,49.9967 36.8386,50.1334 36.6733,50.2808 C36.5293,50.4091 36.3929,50.5457 36.2646,50.6897 C35.8974,51.1022 35.934,51.7343 36.3465,52.1016 C36.759,52.4688 37.3911,52.4321 37.7584,52.0197 C37.8356,51.9329 37.9177,51.8507 38.0044,51.7735 C38.5004,51.3311 39.1421,51.0519 39.8499,51.0172 C39.9005,51.0191 39.9514,51.02 40.0024,51.02 C40.0526,51.02 40.1024,51.0191 40.1521,51.0173 C40.9891,51.0589 41.735,51.4428 42.255,52.0348 C42.6195,52.4497 43.2513,52.4906 43.6663,52.1261 C44.0812,51.7617 44.1221,51.1298 43.7576,50.7149 C43.4777,50.3963 43.1576,50.1134 42.8052,49.8741 C43.5443,49.1484 44.0028,48.1377 44.0028,47.0197 C44.0028,44.8102 42.2112,43.02 40.0024,43.02 C37.7933,43.02 36.0028,44.8105 36.0028,47.0197 Z M40,49.0135 C39.9545,49.0135 39.9092,49.0141 39.8641,49.0153 C38.8242,48.9442 38.0028,48.0785 38.0028,47.0197 C38.0028,45.9151 38.8979,45.02 40.0024,45.02 C41.1073,45.02 42.0028,45.9154 42.0028,47.0197 C42.0028,48.0787 41.1803,48.945 40.1395,49.0154 C40.0931,49.0141 40.0466,49.0135 40,49.0135 Z" id="Shape" fill="#F6F8FA"></path>
            <path d="M55.0028,47.0197 C55.0028,48.1366 55.4602,49.1464 56.1979,49.8721 C55.851,50.1072 55.5354,50.3846 55.2585,50.6967 C54.892,51.1099 54.9299,51.7419 55.343,52.1084 C55.7562,52.4749 56.3882,52.437 56.7547,52.0238 C57.2747,51.4376 58.0174,51.0581 58.85,51.0172 C58.9006,51.0191 58.9514,51.02 59.0024,51.02 C59.0525,51.02 59.1024,51.0191 59.152,51.0173 C60.7383,51.0964 62.0001,52.4076 62.0001,54.0135 C62.0001,54.5658 62.4478,55.0135 63.0001,55.0135 C63.5523,55.0135 64.0001,54.5658 64.0001,54.0135 C64.0001,52.2918 63.1299,50.7734 61.8053,49.874 C62.5444,49.1482 63.0028,48.1376 63.0028,47.0197 C63.0028,44.8102 61.2112,43.02 59.0024,43.02 C56.7933,43.02 55.0028,44.8105 55.0028,47.0197 Z M59.0001,49.0135 C58.9546,49.0135 58.9093,49.0141 58.8641,49.0153 C57.8242,48.9443 57.0028,48.0785 57.0028,47.0197 C57.0028,45.9151 57.8979,45.02 59.0024,45.02 C60.1073,45.02 61.0028,45.9154 61.0028,47.0197 C61.0028,48.0787 60.1803,48.945 59.1395,49.0154 C59.0932,49.0141 59.0467,49.0135 59.0001,49.0135 Z" id="Shape" fill="#F6F8FA"></path>
            <path d="M25.2947,21.3108 C25.6845,20.9196 26.3177,20.9184 26.709,21.3082 L28.7094,23.3012 C28.8975,23.4885 29.0033,23.743 29.0036006,24.0084 C29.0039,24.2739 28.8987,24.5286 28.7111,24.7164 L26.7153,26.7142 C26.325,27.1049 25.6919,27.1052 25.3011,26.7149 C24.9104,26.3246 24.9101,25.6914 25.3004,25.3007 L26.5885,24.0113 L25.2974,22.725 C24.9061,22.3352 24.905,21.7021 25.2947,21.3108 Z" id="Path" fill="#FFFFFF" fill-rule="nonzero"></path>
            <path d="M44.002,24.0043 C41.7928,24.0043 40.0023,25.7948 40.0023,28.0039 C40.0023,29.0678 40.4173,30.0345 41.0942,30.751 C39.5272,31.6201 38.3902,33.1702 38.083,35.0017 L37,35.0017 C36.4477,35.0017 36,35.4494 36,36.0017 L36,40.0017 C36,40.554 36.4477,41.0017 37,41.0017 L52,41.0017 C52.5523,41.0017 53,40.554 53,40.0017 L53,36.0017 C53,35.4494 52.5523,35.0017 52,35.0017 L49.917,35.0017 C49.61,33.1713 48.4741,31.6219 46.9086,30.7526 C47.5865,30.0359 48.0023,29.0686 48.0023,28.0039 C48.0023,25.7945 46.2108,24.0043 44.002,24.0043 Z M43.8987,32.003 C43.933,32.0038 43.9674,32.0043 44.002,32.0043 C44.0358,32.0043 44.0696,32.0039 44.1032,32.003 C45.9215,32.0491 47.4382,33.3084 47.874,35.0017 L40.126,35.0017 C40.562,33.3078 42.0796,32.0482 43.8987,32.003 Z M44.09,30.0024 C45.1538,29.9563 46.0023,29.0795 46.0023,28.0039 C46.0023,26.8997 45.1068,26.0043 44.002,26.0043 C42.8974,26.0043 42.0023,26.8994 42.0023,28.0039 C42.0023,29.0795 42.8499,29.9558 43.9129,30.0023 C43.9419,30.0019 43.9709,30.0017 44,30.0017 C44.03,30.0017 44.06,30.0019 44.09,30.0024 Z M38,39.0017 L38,37.0017 L51,37.0017 L51,39.0017 L38,39.0017 Z" id="Shape" fill="#FFFFFF"></path>
            <path d="M26.0028,56.0199 C26.0028,53.8108 27.7933,52.0203 30.0024,52.0203 C32.2112,52.0203 34.0028,53.8105 34.0028,56.0199 C34.0028,57.1379 33.5444,58.1485 32.8053,58.8743 C34.1298,59.7736 35,61.2921 35,63.0137 C35,63.566 34.5523,64.0137 34,64.0137 C33.4477,64.0137 33,63.566 33,63.0137 C33,61.4078 31.7382,60.0967 30.152,60.0175 C30.1024,60.0193 30.0525,60.0203 30.0024,60.0203 C29.9514,60.0203 29.9006,60.0193 29.8501,60.0174 C28.2629,60.0955 27,61.4072 27,63.0137 C27,63.566 26.5523,64.0137 26,64.0137 C25.4477,64.0137 25,63.566 25,63.0137 C25,61.2907 25.8715,59.7713 27.1978,58.8722 C26.4602,58.1465 26.0028,57.1367 26.0028,56.0199 Z M32.0028,56.0199 C32.0028,57.0789 31.1803,57.9452 30.1395,58.0156 C30.0932,58.0144 30.0467,58.0137 30,58.0137 C29.9545,58.0137 29.9092,58.0143 29.864,58.0155 C28.8242,57.9445 28.0028,57.0788 28.0028,56.0199 C28.0028,54.9154 28.8979,54.0203 30.0024,54.0203 C31.1073,54.0203 32.0028,54.9157 32.0028,56.0199 Z" id="Shape" fill="#FFFFFF"></path>
            <path d="M46.0028,56.0199 C46.0028,57.1367 46.4602,58.1465 47.1978,58.8722 C45.8715,59.7713 45,61.2907 45,63.0137 C45,63.566 45.4477,64.0137 46,64.0137 C46.5523,64.0137 47,63.566 47,63.0137 C47,61.4072 48.2629,60.0955 49.8501,60.0174 C49.9006,60.0193 49.9514,60.0203 50.0024,60.0203 C50.0525,60.0203 50.1024,60.0193 50.152,60.0175 C51.7382,60.0967 53,61.4078 53,63.0137 C53,63.566 53.4477,64.0137 54,64.0137 C54.5523,64.0137 55,63.566 55,63.0137 C55,61.2921 54.1298,59.7736 52.8053,58.8743 C53.5444,58.1485 54.0028,57.1379 54.0028,56.0199 C54.0028,53.8105 52.2112,52.0203 50.0024,52.0203 C47.7933,52.0203 46.0028,53.8108 46.0028,56.0199 Z M50,58.0137 C49.9545,58.0137 49.9092,58.0143 49.864,58.0155 C48.8242,57.9445 48.0028,57.0788 48.0028,56.0199 C48.0028,54.9154 48.8979,54.0203 50.0024,54.0203 C51.1073,54.0203 52.0028,54.9157 52.0028,56.0199 C52.0028,57.0789 51.1803,57.9452 50.1395,58.0156 C50.0932,58.0144 50.0466,58.0137 50,58.0137 Z" id="Shape" fill="#FFFFFF"></path>
            <path d="M32.0073,25.0055 C31.455,25.0055 31.0073,25.4532 31.0073,26.0055 C31.0073,26.5578 31.455,27.0055 32.0073,27.0055 L35.0073,27.0055 C35.5596,27.0055 36.0073,26.5578 36.0073,26.0055 C36.0073,25.4532 35.5596,25.0055 35.0073,25.0055 L32.0073,25.0055 Z" id="Path" fill="#FFFFFF" fill-rule="nonzero"></path>
        </g>
    </g>
</svg>