<svg fill="none" height="48" viewBox="0 0 48 48" width="48" xmlns="http://www.w3.org/2000/svg" xmlns:xlink="http://www.w3.org/1999/xlink"><linearGradient id="a" gradientUnits="userSpaceOnUse" x1=".000001" x2="40.081" y1="-4.6522" y2="-2.062"><stop offset="0" stop-color="#bef5cb"/><stop offset="1" stop-color="#79b8ff"/></linearGradient><path clip-rule="evenodd" d="m3.5 6c-1.933 0-3.5 1.567-3.5 3.5v28c0 1.933 1.567 3.5 3.5 3.5h41c1.933 0 3.5-1.567 3.5-3.5v-28c0-1.933-1.567-3.5-3.5-3.5zm-.5 3.5c0-.27614.22386-.5.5-.5h41c.2761 0 .5.22386.5.5v1.7031l-20.7201 14.0001c-.1692.1143-.3908.1143-.5599 0l-20.72-14zm0 5.3238v22.6762c0 .2761.22386.5.5.5h41c.2761 0 .5-.2239.5-.5v-22.6763l-19.0406 12.8653c-1.1838.7999-2.7351.7999-3.919 0z" fill="url(#a)" fill-rule="evenodd"/></svg>