<svg width="311" height="85" viewBox="0 0 311 85" fill="#bcbcbc" xmlns="http://www.w3.org/2000/svg">
<path fill-rule="evenodd" clip-rule="evenodd" d="M37.3461 0.00996599C33.9105 0.101165 30.4527 0.819035 27.1657 2.00332C14.4355 7.31634 5.58266 18.9091 1.5777 32.8183C0.901523 35.4292 0.353024 38.0427 0.0585799 40.7396C0.0585799 40.8269 -0.152482 43.4821 0.226647 42.7656C0.605776 42.135 0.773844 41.206 0.984905 40.4882C2.92354 33.9557 5.28691 28.0108 8.91144 22.3629C17.5962 9.58851 31.5484 1.37014 46.3006 5.9236C49.0418 6.84862 51.4859 8.19967 53.9301 9.80087C54.3926 10.1383 57.8073 12.8365 57.0491 10.3911C56.4172 8.45503 54.816 6.80693 53.4233 5.50017C48.7356 1.4431 43.0734 -0.142467 37.3461 0.00996599ZM145.017 12.7909C143.037 12.7909 141.521 13.4684 140.465 14.8598C139.368 16.207 138.864 18.2316 138.864 20.8881V40.1104C136.419 37.4135 133.891 35.4722 131.321 34.1628C129.551 33.3088 127.658 32.7402 125.711 32.4783C124.426 32.3056 123.132 32.2216 121.836 32.2268C115.387 32.2268 110.117 34.5003 106.156 39.0511C102.191 43.6046 100.211 49.9299 100.211 58.0649C100.211 61.9018 100.719 65.482 101.687 68.7704C102.701 72.0588 104.174 74.9238 106.113 77.3692C107.978 79.7334 110.336 81.6618 113.023 83.0197C115.68 84.3225 118.545 85 121.665 85C123.058 85 124.406 84.8697 125.711 84.6183C126.54 84.4875 127.358 84.2911 128.156 84.0307C130.13 83.3576 131.992 82.3913 133.679 81.1644C135.409 79.898 137.094 78.2552 138.864 76.2748V77.536C138.864 79.9423 139.456 81.7546 140.592 83.0601C141.729 84.3238 143.249 85 145.017 85C146.745 85 148.263 84.3681 149.402 83.1447C150.54 81.8797 151.086 80.027 151.086 77.536V20.2106C151.086 17.8095 150.582 15.9542 149.527 14.6892C148.434 13.4254 146.914 12.7909 145.017 12.7909ZM304.095 12.7909C302.115 12.7909 300.597 13.4684 299.544 14.8598C298.489 16.207 297.942 18.2316 297.942 20.8881V40.1104C295.498 37.4135 292.968 35.4722 290.398 34.1628C288.796 33.3616 286.9 32.7753 284.791 32.4783C283.505 32.3054 282.21 32.2214 280.912 32.2268C274.466 32.2268 269.239 34.5003 265.233 39.0511C261.272 43.6046 259.289 49.9299 259.289 58.0649C259.289 61.9018 259.795 65.482 260.806 68.7704C261.817 72.0588 263.25 74.9238 265.19 77.3692C267.055 79.7343 269.415 81.6629 272.104 83.0197C274.758 84.3225 277.627 85 280.746 85C282.176 85 283.526 84.8697 284.791 84.6183C285.635 84.4932 286.433 84.2834 287.234 84.0307C289.208 83.3578 291.069 82.3915 292.755 81.1644C294.485 79.898 296.214 78.2552 297.941 76.2748V77.536C297.941 79.9423 298.531 81.7546 299.67 83.0601C300.85 84.3238 302.325 85 304.094 85C305.909 85 307.381 84.3681 308.522 83.1447C309.661 81.8797 310.25 80.027 310.25 77.536V20.2106C310.25 17.8095 309.703 15.9542 308.65 14.6892C307.553 13.4254 306.08 12.7909 304.095 12.7909ZM34.0238 16.3021C32.242 16.2555 30.4771 16.6583 28.8919 17.4734C23.6232 20.1273 21.5139 26.5764 24.2121 31.8451C26.8673 37.1151 33.3138 39.2244 38.5838 36.5275C43.8525 33.871 45.9605 27.4219 43.2637 22.1558C42.3973 20.4353 41.0804 18.9822 39.4532 17.9513C37.826 16.9204 35.9495 16.3504 34.0238 16.3021ZM180.889 32.0561C177.137 32.0991 173.723 32.731 170.604 33.9088C167.399 35.1765 164.703 36.99 162.512 39.3091C160.318 41.6673 158.632 44.4944 157.494 47.7802C156.355 51.0699 155.766 54.6527 155.766 58.487C155.766 66.665 158.127 73.0698 162.762 77.8317C167.146 82.3448 173.176 84.703 180.889 84.9544C181.351 84.9987 181.773 85 182.237 85C185.905 85 189.108 84.5349 191.933 83.5669C194.756 82.5949 197.074 81.4172 198.928 79.9814C200.826 78.5092 202.175 76.9901 203.104 75.4293C204.031 73.8711 204.492 72.4809 204.492 71.3435C204.492 70.0368 204.073 68.9828 203.272 68.2636C202.431 67.5496 201.332 67.1679 200.025 67.1679C198.761 67.1679 197.836 67.465 197.159 68.0122C195.862 69.2465 194.542 70.4554 193.198 71.638C192.137 72.5303 191.024 73.3603 189.867 74.1238C188.642 74.8821 187.423 75.4749 186.115 75.811C184.851 76.1888 183.418 76.3582 181.858 76.3582C181.519 76.3582 181.183 76.3582 180.889 76.3152C178.951 76.1888 177.137 75.6416 175.495 74.628C173.597 73.4919 172.036 71.8074 170.901 69.6147C169.719 67.3386 169.128 64.7251 169.086 61.7754H194.545C197.92 61.7754 200.574 61.2699 202.469 60.3423C204.326 59.3313 205.253 57.222 205.253 53.9766C205.253 50.4354 204.367 46.9803 202.554 43.5668C200.742 40.1924 198.003 37.4135 194.378 35.2598C190.751 33.1127 186.366 32.0561 181.311 32.0561H180.889ZM232.947 32.0561C229.195 32.0991 225.738 32.731 222.662 33.9088C219.457 35.1765 216.76 36.99 214.523 39.3091C212.373 41.6673 210.69 44.4944 209.554 47.7802C208.414 51.0699 207.824 54.6527 207.824 58.487C207.824 66.665 210.142 73.0698 214.778 77.8317C219.16 82.3448 225.233 84.703 232.947 84.9544C233.37 84.9987 233.829 85 234.293 85C237.92 85 241.165 84.5349 243.988 83.5669C246.812 82.5949 249.131 81.4172 250.985 79.9814C252.843 78.5092 254.23 76.9901 255.159 75.4293C256.085 73.8711 256.55 72.4809 256.55 71.3435C256.55 70.0368 256.127 68.9828 255.284 68.2636C254.484 67.5496 253.39 67.1679 252.04 67.1679C250.815 67.1679 249.889 67.465 249.214 68.0122C247.57 69.53 246.267 70.7521 245.255 71.638C244.179 72.5306 243.052 73.3606 241.88 74.1238C240.704 74.8821 239.436 75.4749 238.174 75.811C236.864 76.1888 235.477 76.3582 233.916 76.3582C233.577 76.3582 233.241 76.3582 232.947 76.3152C231.007 76.1888 229.193 75.6416 227.549 74.628C225.61 73.4919 224.093 71.8074 222.913 69.6147C221.775 67.3386 221.183 64.7251 221.142 61.7754H246.558C249.974 61.7754 252.629 61.2699 254.484 60.3423C256.382 59.3313 257.306 57.222 257.306 53.9766C257.306 50.4354 256.382 46.9803 254.569 43.5668C252.757 40.1924 250.057 37.4135 246.39 35.2598C242.764 33.1127 238.425 32.0561 233.323 32.0561H232.947ZM55.9117 32.1434C54.0148 32.1434 52.5373 32.774 51.4846 33.9961C50.3889 35.1765 49.8404 37.0317 49.8404 39.5176V77.0735C49.8404 79.601 50.4306 81.5839 51.6514 82.9337C52.8761 84.3225 54.3913 85 56.2895 85C58.2282 85 59.7864 84.3225 61.0111 83.0197C62.2331 81.6699 62.8663 79.7274 62.8663 77.0735V60.8465C62.8663 55.4918 63.1608 51.9103 63.7926 49.9703C64.6773 47.5275 66.113 45.6318 68.0087 44.2404C69.9069 42.8906 72.0136 42.1741 74.3327 42.1741C77.8699 42.1741 80.2737 43.3128 81.4554 45.5862C82.6344 47.8649 83.2272 51.1494 83.2272 55.4514V77.0735C83.2272 79.601 83.8148 81.5839 85.0382 82.9337C86.259 84.3225 87.8198 85 89.7584 85C91.6541 85 93.2136 84.3225 94.3939 82.9741C95.5756 81.6699 96.2062 79.6857 96.2062 77.0735V52.9226C96.2062 50.0576 96.0811 47.6942 95.8271 45.882C95.5743 44.0267 95.0284 42.3017 94.1425 40.6979C92.7941 37.9593 90.8124 35.8513 88.1142 34.3752C85.416 32.8991 82.3413 32.1434 78.9252 32.1434C75.3841 32.1434 72.2651 32.8574 69.5252 34.2501C66.8283 35.682 64.3424 37.8747 62.0208 40.9077V39.3091C62.0208 37.7913 61.7693 36.4845 61.2221 35.3875C60.6749 34.2931 59.9154 33.4906 58.989 32.9421C58.0588 32.3936 57.0478 32.1434 55.9117 32.1434ZM180.848 41.1201H180.889C184.258 41.1201 186.999 42.2158 189.064 44.4084C191.175 46.5985 192.353 49.9299 192.689 54.3987H169.085C169.55 50.0159 170.814 46.6845 172.879 44.4514C174.944 42.2171 177.599 41.1201 180.847 41.1201H180.848ZM232.904 41.1201H232.947C236.318 41.1201 239.054 42.2158 241.119 44.4084C243.187 46.5985 244.409 49.9299 244.705 54.3987H221.143C221.564 50.0159 222.829 46.6845 224.937 44.4514C227.003 42.2171 229.658 41.1201 232.904 41.1201ZM125.546 41.8783H125.711C127.945 41.8783 130.011 42.5532 131.866 43.8613C133.805 45.1667 135.326 47.0637 136.462 49.5508C137.56 52.0379 138.149 55.0306 138.149 58.4883C138.149 62.1962 137.56 65.2723 136.462 67.7164C135.326 70.1619 133.805 71.9728 131.909 73.1519C130.053 74.3323 127.945 74.9264 125.711 74.9264H125.671C123.395 74.9264 121.328 74.2932 119.431 73.0711C117.495 71.8074 116.017 69.9521 114.923 67.508C113.826 65.0208 113.279 62.0282 113.279 58.487C113.279 55.1569 113.787 52.206 114.798 49.7189C115.851 47.1913 117.284 45.2501 119.179 43.9016C121.035 42.5089 123.184 41.8783 125.546 41.8783ZM284.663 41.8783H284.791C287.025 41.8783 289.09 42.5532 290.987 43.8613C292.884 45.1667 294.403 47.0637 295.539 49.5508C296.678 52.0379 297.227 55.0306 297.227 58.4883C297.227 62.1962 296.678 65.2723 295.539 67.7164C294.403 70.1619 292.882 71.9728 291.028 73.1519C289.161 74.3273 286.997 74.9431 284.791 74.9264H284.751C282.476 74.9264 280.407 74.2932 278.51 73.0711C276.616 71.8074 275.098 69.9521 274.002 67.508C272.906 65.0208 272.358 62.0282 272.358 58.487C272.358 55.1569 272.859 52.2073 273.915 49.7189C274.927 47.1913 276.403 45.2501 278.258 43.9016C280.158 42.5089 282.262 41.8783 284.663 41.8783ZM41.2416 42.3017C37.8673 44.3212 33.9066 45.4612 29.6919 45.4612C28.8085 45.4612 27.9643 45.4208 27.0784 45.3348V76.3582C27.0784 79.2245 27.7532 81.3742 29.0613 82.8086C30.4097 84.2834 32.0552 85 34.1203 85C36.2257 85 37.9571 84.2834 39.26 82.8503C40.5694 81.4172 41.2416 79.2675 41.2416 76.3582V42.3017Z" fill="#B8BDC4"/>
</svg>
