<svg width="425" height="425" viewBox="0 0 425 425" fill="none" xmlns="http://www.w3.org/2000/svg">
<rect width="425" height="425" fill="white"/>
<g filter="url(#filter0_d_802_19)">
<path d="M267.678 31.9404L150 149.74H213.125C255.625 149.74 275 189.781 275 212.306V389.99C275 395.517 279.477 400 285 400H389.375C394.898 400 399.375 395.533 399.383 390.005C399.455 338.522 400 232.53 400 149.74C400 77.1901 342.228 30.2203 285.341 25.0805C278.736 24.4839 272.366 27.2472 267.678 31.9404Z" fill="url(#paint0_linear_802_19)"/>
</g>
<g filter="url(#filter1_d_802_19)">
<path fill-rule="evenodd" clip-rule="evenodd" d="M25 35C25 29.4772 29.4772 25 35 25H47.5C53.0228 25 57.5 29.4772 57.5 35V140C57.5 145.523 53.0228 150 47.5 150H35C29.4771 150 25 145.523 25 140V35ZM81.25 25C75.7272 25 71.25 29.4772 71.25 35V140C71.25 145.523 75.7272 150 81.25 150H93.75C99.2728 150 103.75 145.523 103.75 140V35C103.75 29.4772 99.2728 25 93.75 25H81.25ZM127.5 25C121.977 25 117.5 29.4772 117.5 35V140C117.5 145.523 121.977 150 127.5 150H150L123.358 176.642C119.607 180.393 117.5 185.48 117.5 190.784V390C117.5 395.523 121.977 400 127.5 400H140C145.523 400 150 395.523 150 390V150V35C150 29.4772 145.523 25 140 25H127.5ZM30.8579 269.142C27.1071 272.892 25 277.98 25 283.284V390C25 395.523 29.4771 400 35 400H47.5C53.0228 400 57.5 395.523 57.5 390V248.536C57.5 246.308 54.8072 245.192 53.2322 246.767L30.8579 269.142ZM71.25 237.034C71.25 231.73 73.3572 226.642 77.1078 222.892L99.4822 200.517C101.057 198.942 103.75 200.058 103.75 202.286V390C103.75 395.523 99.2728 400 93.75 400H81.25C75.7272 400 71.25 395.523 71.25 390V237.034Z" fill="#1B1B42"/>
</g>
<defs>
<filter id="filter0_d_802_19" x="146" y="25" width="258" height="383" filterUnits="userSpaceOnUse" color-interpolation-filters="sRGB">
<feFlood flood-opacity="0" result="BackgroundImageFix"/>
<feColorMatrix in="SourceAlpha" type="matrix" values="0 0 0 0 0 0 0 0 0 0 0 0 0 0 0 0 0 0 127 0" result="hardAlpha"/>
<feOffset dy="4"/>
<feGaussianBlur stdDeviation="2"/>
<feComposite in2="hardAlpha" operator="out"/>
<feColorMatrix type="matrix" values="0 0 0 0 0 0 0 0 0 0 0 0 0 0 0 0 0 0 0.25 0"/>
<feBlend mode="normal" in2="BackgroundImageFix" result="effect1_dropShadow_802_19"/>
<feBlend mode="normal" in="SourceGraphic" in2="effect1_dropShadow_802_19" result="shape"/>
</filter>
<filter id="filter1_d_802_19" x="21" y="25" width="133" height="383" filterUnits="userSpaceOnUse" color-interpolation-filters="sRGB">
<feFlood flood-opacity="0" result="BackgroundImageFix"/>
<feColorMatrix in="SourceAlpha" type="matrix" values="0 0 0 0 0 0 0 0 0 0 0 0 0 0 0 0 0 0 127 0" result="hardAlpha"/>
<feOffset dy="4"/>
<feGaussianBlur stdDeviation="2"/>
<feComposite in2="hardAlpha" operator="out"/>
<feColorMatrix type="matrix" values="0 0 0 0 0 0 0 0 0 0 0 0 0 0 0 0 0 0 0.25 0"/>
<feBlend mode="normal" in2="BackgroundImageFix" result="effect1_dropShadow_802_19"/>
<feBlend mode="normal" in="SourceGraphic" in2="effect1_dropShadow_802_19" result="shape"/>
</filter>
<linearGradient id="paint0_linear_802_19" x1="400" y1="24.6106" x2="63.35" y2="134.469" gradientUnits="userSpaceOnUse">
<stop stop-color="#E7B28C"/>
<stop offset="0.49698" stop-color="#BD62B6"/>
<stop offset="1" stop-color="#6658C5"/>
</linearGradient>
</defs>
</svg>
