<svg id="svg" version="1.1" xmlns="http://www.w3.org/2000/svg" viewBox="0 0 800 800" style="display: block;"><path d="M0 0 C264 0 528 0 800 0 C800 264 800 528 800 800 C536 800 272 800 0 800 C0 536 0 272 0 0 Z " transform="translate(0,0)" style="fill: #F8F8F8;"/><path d="M0 0 C44.55 0 89.1 0 135 0 C135 44.55 135 89.1 135 135 C179.55 135 224.1 135 270 135 C270 179.55 270 224.1 270 270 C314.55 270 359.1 270 405 270 C405 314.55 405 359.1 405 405 C360.45 405 315.9 405 270 405 C270 360.78 270 316.56 270 271 C225.45 271 180.9 271 135 271 C135 315.22 135 359.44 135 405 C90.45 405 45.9 405 0 405 C0 271.35 0 137.7 0 0 Z " transform="translate(198,198)" style="fill: #CDB8FE;"/><path d="M0 0 C44.55 0 89.1 0 135 0 C135 89.1 135 178.2 135 270 C90.45 270 45.9 270 0 270 C0 180.9 0 91.8 0 0 Z " transform="translate(198,198)" style="fill: #005A00;"/><path d="M0 0 C44.55 0 89.1 0 135 0 C135 44.55 135 89.1 135 135 C90.45 135 45.9 135 0 135 C0 90.45 0 45.9 0 0 Z " transform="translate(198,468)" style="fill: #3A9AFE;"/><path d="M0 0 C44.55 0 89.1 0 135 0 C135 44.55 135 89.1 135 135 C90.45 135 45.9 135 0 135 C0 90.45 0 45.9 0 0 Z " transform="translate(333,333)" style="fill: #0054FE;"/><path d="M0 0 C44.55 0 89.1 0 135 0 C135 44.55 135 89.1 135 135 C90.45 135 45.9 135 0 135 C0 90.45 0 45.9 0 0 Z " transform="translate(468,198)" style="fill: #8655FE;"/><path d="M0 0 C44.55 0 89.1 0 135 0 C135 44.55 135 89.1 135 135 C90.45 135 45.9 135 0 135 C0 90.45 0 45.9 0 0 Z " transform="translate(198,198)" style="fill: #00BA00;"/></svg>