<svg width="44" height="44" viewBox="0 0 44 44" fill="none" xmlns="http://www.w3.org/2000/svg">
<path d="M44 22C44 34.1503 34.1503 44 22 44C9.84974 44 0 34.1503 0 22C0 9.84974 9.84974 0 22 0C34.1503 0 44 9.84974 44 22Z" fill="#F0883E"/>
<path fill-rule="evenodd" clip-rule="evenodd" d="M15.75 16.5C15.6837 16.5 15.6201 16.5263 15.5732 16.5732C15.5263 16.6201 15.5 16.6837 15.5 16.75V18.25C15.5 18.388 15.612 18.5 15.75 18.5H28.25C28.3163 18.5 28.3799 18.4737 28.4268 18.4268C28.4737 18.3799 28.5 18.3163 28.5 18.25V16.75C28.5 16.6837 28.4737 16.6201 28.4268 16.5732C28.3799 16.5263 28.3163 16.5 28.25 16.5H15.75ZM14 16.75C14 15.784 14.784 15 15.75 15H28.25C29.216 15 30 15.784 30 16.75V18.25C30 18.7141 29.8156 19.1593 29.4874 19.4874C29.1592 19.8156 28.7141 20 28.25 20H15.75C15.2859 20 14.8408 19.8156 14.5126 19.4874C14.1844 19.1593 14 18.7141 14 18.25V16.75ZM15.75 21C15.9489 21 16.1397 21.079 16.2803 21.2197C16.421 21.3603 16.5 21.5511 16.5 21.75V27.25C16.5 27.388 16.612 27.5 16.75 27.5H27.25C27.3163 27.5 27.3799 27.4737 27.4268 27.4268C27.4737 27.3799 27.5 27.3163 27.5 27.25V21.75C27.5 21.5511 27.579 21.3603 27.7197 21.2197C27.8603 21.079 28.0511 21 28.25 21C28.4489 21 28.6397 21.079 28.7803 21.2197C28.921 21.3603 29 21.5511 29 21.75V27.25C29 27.7141 28.8156 28.1592 28.4874 28.4874C28.1592 28.8156 27.7141 29 27.25 29H16.75C16.2859 29 15.8407 28.8156 15.5126 28.4874C15.1844 28.1592 15 27.7141 15 27.25V21.75C15 21.5511 15.079 21.3603 15.2197 21.2197C15.3603 21.079 15.5511 21 15.75 21ZM20.25 22C20.0511 22 19.8603 22.079 19.7197 22.2197C19.579 22.3603 19.5 22.5511 19.5 22.75C19.5 22.9489 19.579 23.1397 19.7197 23.2803C19.8603 23.421 20.0511 23.5 20.25 23.5H23.75C23.9489 23.5 24.1397 23.421 24.2803 23.2803C24.421 23.1397 24.5 22.9489 24.5 22.75C24.5 22.5511 24.421 22.3603 24.2803 22.2197C24.1397 22.079 23.9489 22 23.75 22H20.25Z" fill="white"/>
</svg>
