<svg width="84" height="64" viewBox="0 0 84 64" fill="none" xmlns="http://www.w3.org/2000/svg">
<path d="M42.6099 40.3501C48.1327 40.3501 52.6099 35.8729 52.6099 30.3501C52.6099 24.8272 48.1327 20.3501 42.6099 20.3501C37.087 20.3501 32.6099 24.8272 32.6099 30.3501C32.6099 35.8729 37.087 40.3501 42.6099 40.3501Z" fill="#039C49"/>
<path d="M38.5598 0.940027L6.1898 18.24C5.99878 18.3424 5.83203 18.4847 5.70089 18.6573C5.56975 18.8298 5.4773 19.0286 5.4298 19.24L0.429802 41.74C0.356891 42.0727 0.399349 42.4203 0.550194 42.7256C0.701039 43.0309 0.951291 43.2758 1.2598 43.42L43.1298 63.13C43.5247 63.3128 43.9547 63.4075 44.3898 63.4075C44.825 63.4075 45.2549 63.3128 45.6498 63.13L72.2898 51C72.5702 50.8719 72.8172 50.6807 73.0115 50.4413C73.2058 50.2019 73.3421 49.9208 73.4098 49.62L83.4098 4.86003C83.4536 4.64747 83.4505 4.4279 83.4006 4.21669C83.3507 4.00547 83.2553 3.8077 83.121 3.63721C82.9867 3.46672 82.8168 3.32763 82.6231 3.22966C82.4294 3.13169 82.2167 3.07721 81.9998 3.07003L40.1498 0.590027C39.5977 0.557902 39.0474 0.679028 38.5598 0.940027V0.940027ZM43.7598 60.11L8.6098 43.57H19.1998L50.4098 48L43.7598 60.11ZM53.5898 48.47L66.5898 50.33L47.8798 58.83L53.5898 48.47ZM21.5898 40.88L33.2098 18L69.2098 13.85L51.9998 45.21L21.5898 40.88ZM71.3198 10.62L34.8398 14.83L40.5298 3.62003L77.7198 5.82003L71.3198 10.62ZM31.2598 15.24L14.5598 17.17L36.1398 5.63003L31.2598 15.24ZM8.1298 20.93L29.6298 18.45L18.3898 40.57H3.7598L8.1298 20.93ZM70.7298 47.93L55.1298 45.71L73.0498 13.07L79.5498 8.20003L70.7298 47.93Z" fill="#121C21"/>
</svg>
