<svg width="46" height="58" viewBox="0 0 46 58" fill="none" xmlns="http://www.w3.org/2000/svg">
<path d="M6.64107 51.3044C5.81775 51.3044 5.41037 51.9524 5.22432 52.3705C5.11953 52.6036 5.09066 52.7886 5.00619 52.7886C4.88644 52.7886 4.97198 52.6282 4.87468 52.2732C4.74637 51.8048 4.3593 51.3055 3.53705 51.3055C2.67204 51.3055 2.30208 52.0358 2.12672 52.4378C2.00697 52.7126 2.00697 52.7886 1.91394 52.7886C1.78029 52.7886 1.89149 52.5704 1.95137 52.3138C2.07005 51.8091 1.98024 51.4231 1.98024 51.4231H0.608398V56.5779H2.47957C2.47957 56.5779 2.47957 54.4234 2.47957 54.0128C2.47957 53.5071 2.69128 52.8655 3.05376 52.8655C3.4729 52.8655 3.5563 53.1874 3.5563 53.7829C3.5563 54.3229 3.5563 56.579 3.5563 56.579H5.43496C5.43496 56.579 5.43496 54.4117 5.43496 54.0128C5.43496 53.5627 5.61887 52.8655 6.01235 52.8655C6.43684 52.8655 6.51276 53.3178 6.51276 53.7829C6.51276 54.2491 6.51276 56.5779 6.51276 56.5779H8.3572C8.3572 56.5779 8.3572 54.5357 8.3572 53.5466C8.3572 52.2015 7.88353 51.3044 6.64107 51.3044Z" fill="white"/>
<path d="M38.4017 51.3044C37.5784 51.3044 37.171 51.9524 36.985 52.3705C36.8802 52.6036 36.8513 52.7886 36.7668 52.7886C36.6471 52.7886 36.7273 52.5854 36.6353 52.2732C36.4985 51.8081 36.1574 51.3055 35.2977 51.3055C34.4327 51.3055 34.0627 52.0358 33.8874 52.4378C33.7676 52.7126 33.7676 52.7886 33.6746 52.7886C33.5409 52.7886 33.6521 52.5704 33.712 52.3138C33.8307 51.8091 33.7409 51.4231 33.7409 51.4231H32.3701V56.5779H34.2413C34.2413 56.5779 34.2413 54.4234 34.2413 54.0128C34.2413 53.5071 34.453 52.8655 34.8155 52.8655C35.2346 52.8655 35.318 53.1874 35.318 53.7829C35.318 54.3229 35.318 56.579 35.318 56.579H37.1967C37.1967 56.579 37.1967 54.4117 37.1967 54.0128C37.1967 53.5627 37.3806 52.8655 37.7741 52.8655C38.1986 52.8655 38.2745 53.3178 38.2745 53.7829C38.2745 54.2491 38.2745 56.5779 38.2745 56.5779H40.1189C40.1189 56.5779 40.1189 54.5357 40.1189 53.5466C40.1178 52.2015 39.6431 51.3044 38.4017 51.3044Z" fill="white"/>
<path d="M11.5523 51.3054C10.1184 51.3054 9.09087 51.8326 9.09087 51.8326V53.3819C9.09087 53.3819 10.2264 52.7286 11.1481 52.7286C11.8837 52.7286 11.9735 53.1253 11.9404 53.4546C11.9404 53.4546 11.7287 53.399 11.0807 53.399C9.55599 53.399 8.78613 54.0919 8.78613 55.2039C8.78613 56.2582 9.65115 56.6987 10.3804 56.6987C11.4443 56.6987 11.9115 55.9844 12.0559 55.6444C12.1553 55.4092 12.1735 55.2509 12.2633 55.2509C12.3649 55.2509 12.3307 55.3643 12.3264 55.5984C12.3178 56.009 12.3371 56.318 12.4023 56.58H13.8126V54.0427C13.8116 52.4581 13.2513 51.3054 11.5523 51.3054ZM11.0968 55.3728C10.6498 55.4765 10.4178 55.3386 10.4178 55.0414C10.4178 54.635 10.838 54.4725 11.4379 54.4725C11.702 54.4725 11.9511 54.495 11.9511 54.495C11.9511 54.6693 11.5736 55.2627 11.0968 55.3728Z" fill="white"/>
<path d="M18.7638 49.8618H16.8926V56.5777H18.7638V49.8618Z" fill="white"/>
<path d="M20.8248 54.0011C20.8248 53.5381 21.2557 53.1157 22.0458 53.1157C22.9076 53.1157 23.6005 53.5306 23.7556 53.6247V51.8316C23.7556 51.8316 23.2081 51.3044 21.863 51.3044C20.4452 51.3044 19.2637 52.1342 19.2637 53.9198C19.2637 55.7054 20.3351 56.6956 21.8587 56.6956C23.0488 56.6956 23.7577 56.0423 23.7577 56.0423V54.339C23.5332 54.4641 22.9077 54.8982 22.0533 54.8982C21.1498 54.9003 20.8248 54.4844 20.8248 54.0011Z" fill="white"/>
<path d="M27.5453 51.3053C26.4622 51.3053 26.0505 52.3318 25.9671 52.5103C25.8837 52.6889 25.8431 52.7915 25.7747 52.7883C25.656 52.7841 25.7394 52.5691 25.7854 52.4301C25.872 52.1671 26.057 51.4774 26.057 50.6295C26.057 50.0543 25.9789 49.8618 25.9789 49.8618H24.3633V56.5777H26.2345C26.2345 56.5777 26.2345 54.4307 26.2345 54.0126C26.2345 53.5945 26.4013 52.8653 26.8728 52.8653C27.2631 52.8653 27.386 53.1551 27.386 53.7368C27.386 54.3184 27.386 56.5777 27.386 56.5777H29.2572C29.2572 56.5777 29.2572 55.007 29.2572 53.849C29.2572 52.5274 29.038 51.3053 27.5453 51.3053Z" fill="white"/>
<path d="M29.8652 51.4294V56.5778H31.7364V51.4294C31.7364 51.4294 31.4221 51.6134 30.803 51.6134C30.1828 51.6144 29.8652 51.4294 29.8652 51.4294Z" fill="white"/>
<path d="M30.7956 51.3056C31.428 51.3056 31.9407 50.971 31.9407 50.5582C31.9407 50.1454 31.428 49.8108 30.7956 49.8108C30.1631 49.8108 29.6504 50.1454 29.6504 50.5582C29.6504 50.971 30.1631 51.3056 30.7956 51.3056Z" fill="white"/>
<path d="M14.417 51.4294V56.5778H16.2882V51.4294C16.2882 51.4294 15.9738 51.6134 15.3547 51.6134C14.7356 51.6144 14.417 51.4294 14.417 51.4294Z" fill="white"/>
<path d="M15.3463 51.3056C15.9788 51.3056 16.4915 50.971 16.4915 50.5582C16.4915 50.1454 15.9788 49.8108 15.3463 49.8108C14.7139 49.8108 14.2012 50.1454 14.2012 50.5582C14.2012 50.971 14.7139 51.3056 15.3463 51.3056Z" fill="white"/>
<path d="M43.8361 51.3042C42.8738 51.3042 42.4333 52.0259 42.2419 52.4365C42.1157 52.7081 42.1221 52.7872 42.0291 52.7872C41.8954 52.7872 42.0066 52.5691 42.0665 52.3125C42.1852 51.8078 42.0954 51.4218 42.0954 51.4218H40.7246V57.9998H42.5958C42.5958 57.9998 42.5958 56.9231 42.5958 55.9137C42.8171 56.289 43.2277 56.691 43.8596 56.691C45.2122 56.691 45.8933 55.5459 45.8933 53.9998C45.8923 52.2473 45.0775 51.3042 43.8361 51.3042ZM43.3218 55.471C42.893 55.471 42.5765 54.9268 42.5765 54.1687C42.5765 53.432 42.9005 52.8664 43.3068 52.8664C43.8276 52.8664 44.05 53.3443 44.05 54.1687C44.05 55.0262 43.8457 55.471 43.3218 55.471Z" fill="white"/>
<path d="M9.87814 23.0262C9.52743 23.008 9.20238 23.039 8.93293 23.0936C6.68218 23.5469 5.41085 25.4619 5.66105 27.9501C5.88773 30.2008 8.16415 32.0987 10.2727 32.1554C10.4908 32.1608 10.7068 32.1458 10.9196 32.1105C13.2003 31.7213 13.798 29.2449 13.4216 26.8113C12.9971 24.0634 11.1388 23.0957 9.87814 23.0262ZM12.1129 29.5347C12.0295 29.7293 11.6969 29.9955 11.2232 29.9774C10.7357 29.9399 10.1925 29.5849 10.1187 28.7017C10.0824 28.2655 10.247 27.7341 10.3486 27.4572C10.5443 26.9204 10.3679 26.358 9.90808 26.0564C9.63863 25.88 9.31572 25.8201 9.00029 25.8875C8.69128 25.9538 8.42718 26.1356 8.25824 26.4007C8.11817 26.6199 8.03263 26.8937 7.98558 27.0401C7.97382 27.0797 7.96313 27.1107 7.95564 27.131C7.85193 27.409 7.68726 27.4903 7.57606 27.4753C7.52367 27.4678 7.45096 27.4326 7.40391 27.3053C7.27667 26.9578 7.37932 25.973 8.03477 25.2502C8.4507 24.7915 9.10187 24.5574 9.73486 24.6376C10.3935 24.721 10.942 25.1198 11.2778 25.7603C11.7247 26.6103 11.327 27.5031 11.0885 28.0367C11.0629 28.0944 11.0393 28.1479 11.019 28.1949C10.8704 28.5488 10.8618 28.8579 10.9976 29.0653C11.1014 29.2246 11.2863 29.3176 11.5034 29.3219C11.605 29.324 11.698 29.3016 11.7793 29.2834C11.8969 29.2556 12.0177 29.2278 12.0915 29.3208C12.1203 29.3486 12.162 29.4192 12.1129 29.5347Z" fill="white"/>
<path d="M41.5933 27.3298C41.3282 27.0048 41.0085 26.7418 40.6631 26.5568C40.6342 26.4616 40.6032 26.3611 40.5711 26.2563C40.5337 26.1366 40.4963 26.0243 40.4599 25.9195C40.9988 24.7808 40.9561 23.7896 40.863 23.2432C40.7198 22.3183 40.3252 21.5442 39.6217 20.8053C38.7641 19.905 37.3356 19.3266 36.1979 18.9844C36.184 18.4434 36.1669 17.8307 36.1509 17.449C36.1284 16.9411 36.0825 15.8889 35.7521 14.8272C35.5072 13.9536 35.1469 13.1528 34.701 12.4749C36.4236 10.4069 37.3581 8.27059 37.3549 6.36413C37.3506 3.27509 34.9459 1.27988 31.2302 1.27988C29.466 1.27988 27.4537 1.72683 25.4082 2.57367C25.405 2.57474 25.2927 2.62285 25.1366 2.68808C24.5143 2.07861 23.6953 1.27561 23.6408 1.22749C22.7062 0.413797 21.545 0 20.1903 0C18.5779 0 16.726 0.597707 14.6837 1.77601C12.9237 2.79286 11.0312 4.24596 9.21239 5.9792C5.50319 9.51412 2.51359 13.7462 1.21339 17.2993C0.655243 18.8251 0.415733 20.2098 0.501272 21.4148C0.604989 22.8775 1.19842 24.1061 2.21527 24.9647L2.84826 25.5014C2.64724 26.3707 2.59485 27.2903 2.69108 28.2483C2.87392 30.065 3.79347 31.7918 5.28186 33.1102C6.47834 34.1698 7.94534 34.8594 9.42196 35.0712C10.7468 37.7154 12.7708 39.9448 15.3167 41.5529C18.0636 43.2883 21.3515 44.2602 24.8244 44.3629C25.0457 44.3693 25.2703 44.3725 25.4905 44.3725C25.4905 44.3725 25.4905 44.3725 25.4916 44.3725C29.0768 44.3725 32.4353 43.4914 35.2003 41.8234C38.0488 40.1062 40.229 37.5796 41.5078 34.5152C41.5121 34.5045 41.5164 34.4927 41.5217 34.482C41.742 33.9142 42.4626 31.9158 42.4626 30.0372C42.4626 28.6814 41.99 27.8163 41.5933 27.3298ZM40.1606 33.9538C37.7056 39.8368 31.8472 43.1119 24.8672 42.9044C18.3608 42.7109 12.8115 39.2776 10.3832 33.6811C8.91407 33.6822 7.4011 33.0364 6.25059 32.0174C5.03807 30.9428 4.2896 29.5528 4.14418 28.1029C4.03084 26.9738 4.16984 25.9238 4.52376 25.0074L3.15941 23.8516C-3.08176 18.5813 16.4383 -3.11577 22.6816 2.32988C22.7127 2.35768 24.8052 4.41063 24.8105 4.4149C24.8191 4.41063 25.9653 3.92519 25.9706 3.92198C31.4462 1.65412 35.89 2.74902 35.8953 6.36734C35.8986 8.24921 34.6989 10.4422 32.7785 12.4332C33.4746 13.079 34.0317 14.0883 34.3524 15.2421C34.6208 16.0942 34.6689 16.9603 34.6924 17.5142C34.7256 18.2808 34.763 20.0675 34.7662 20.0996C34.8154 20.1146 35.3693 20.2664 35.5371 20.3135C37.0074 20.7262 38.0531 21.2758 38.5642 21.8125C39.0753 22.3493 39.3287 22.869 39.4217 23.4784C39.5083 23.9703 39.4966 24.8385 38.8475 25.8083C38.8475 25.8083 39.0143 26.1729 39.1769 26.6915C39.3394 27.2101 39.4559 27.6399 39.4741 27.7041C40.0686 27.7041 41.001 28.3884 41.001 30.0382C41.0031 31.6806 40.3209 33.5411 40.1606 33.9538Z" fill="white"/>
<path d="M39.1805 29.0491C38.8661 28.8556 38.4897 28.923 38.4897 28.923C38.4897 28.923 38.3176 27.7479 37.8322 26.6797C36.3908 27.8174 34.5357 28.6161 33.1221 29.0224C31.4915 29.4907 29.2857 29.85 26.8243 29.7035C25.4589 29.5934 24.5554 29.1946 24.2154 30.2991C27.3354 31.441 30.6372 30.9524 30.6372 30.9524C30.7014 30.946 30.758 30.9919 30.7645 31.0561C30.7698 31.1085 30.7377 31.1609 30.6928 31.1801C30.6928 31.1801 28.1566 32.3574 24.1277 31.1117C24.2399 32.0569 25.1606 32.4803 25.6 32.6514C26.1539 32.8674 26.7602 32.9668 26.7602 32.9668C31.7514 33.8254 36.4186 30.9716 37.4697 30.252C37.5488 30.1986 37.6001 30.251 37.537 30.3461C37.4761 30.4381 37.4729 30.4434 37.4344 30.4926C36.1481 32.151 32.6912 34.0724 28.1929 34.0714C26.2309 34.0714 24.271 33.3796 23.5503 32.3178C22.4329 30.6701 23.4947 28.2654 25.3562 28.5156C25.3584 28.5156 25.9924 28.5883 26.171 28.6075C28.4977 28.8663 31.8647 28.5402 34.6405 27.2517C37.1799 26.0734 38.139 24.7764 37.9947 23.7264C37.9551 23.4431 37.829 23.1469 37.5574 22.8678C37.1008 22.4209 36.378 22.0734 35.1569 21.7312C34.7538 21.6179 34.4801 21.5452 34.185 21.449C33.661 21.2768 33.4012 21.1378 33.3435 20.152C33.3178 19.7211 33.243 18.2198 33.2152 17.5986C33.1671 16.5112 33.0366 15.0249 32.1138 14.4112C31.8733 14.2508 31.606 14.1738 31.3258 14.1589C31.051 14.146 30.9131 14.1952 30.8575 14.2048C30.3314 14.2936 30.0203 14.5748 29.6321 14.8977C28.4816 15.8557 27.5108 16.0129 26.4308 15.9669C25.785 15.9402 25.1018 15.8397 24.318 15.7927C24.1651 15.7841 24.0122 15.7745 23.8593 15.7659C22.0501 15.6729 20.1105 17.2361 19.7876 19.4537C19.3385 22.5417 21.5754 24.137 22.2201 25.0737C22.3025 25.186 22.3976 25.3431 22.3976 25.4939C22.3976 25.6735 22.2811 25.8157 22.1678 25.9366V25.9376C20.3222 27.8355 19.732 30.8497 20.427 33.3625C20.5136 33.6768 20.6238 33.9762 20.7542 34.2628C22.3859 38.0757 27.4477 39.8517 32.3929 38.2361C33.0559 38.0201 33.6824 37.7517 34.2716 37.4427C35.3804 36.8995 36.3502 36.1521 37.1489 35.2924C38.4609 33.9217 39.2414 32.4312 39.544 30.5953C39.6958 29.6116 39.4777 29.232 39.1805 29.0491ZM32.5223 22.7363C32.5159 23.1426 32.27 23.4677 31.9738 23.4634C31.6776 23.4581 31.4424 23.1245 31.4498 22.7181C31.4563 22.3118 31.7022 21.9868 31.9984 21.9911C32.2946 21.9964 32.5298 22.33 32.5223 22.7363ZM31.1644 17.9311C31.7407 17.8381 32.0198 18.4348 32.2261 19.4217C32.3651 20.0857 32.3384 20.6951 32.1844 21.0491C31.9182 21.0116 31.6284 21.0127 31.3258 21.0491C31.0959 20.755 30.8896 20.2813 30.773 19.7253C30.5667 18.7395 30.588 18.0242 31.1644 17.9311ZM29.2301 23.2346C29.3605 22.9684 29.7626 22.8978 30.1272 23.0774C30.4918 23.257 30.6821 23.6174 30.5506 23.8836C30.4202 24.1499 30.0181 24.2204 29.6535 24.0408C29.2889 23.8612 29.0986 23.5008 29.2301 23.2346ZM26.9697 22.9363C26.9109 23.0293 26.7826 23.0122 26.5132 22.9823C26.0245 22.9267 25.5316 22.8946 24.7831 23.1619C24.7831 23.1619 24.5115 23.2709 24.3896 23.2709C24.3544 23.2709 24.3255 23.2592 24.3009 23.2378C24.2827 23.2228 24.2603 23.1929 24.2603 23.1394C24.2592 23.0293 24.3597 22.8721 24.5222 22.7299C24.7125 22.5652 25.0087 22.3878 25.5455 22.3033C26.2854 22.2156 26.8275 22.561 26.9537 22.7641C27.0082 22.8518 26.9868 22.9095 26.9697 22.9363ZM22.8424 21.9184C22.7451 21.9045 22.7045 21.8638 22.6917 21.8082C22.6543 21.6382 22.9162 21.3581 23.1921 21.156C24.0282 20.5551 25.1114 20.4257 26.0202 20.816C26.465 21.0052 26.8831 21.342 27.0873 21.6746C27.1857 21.836 27.205 21.9601 27.1408 22.0253C27.0414 22.1301 26.788 22.0103 26.3752 21.8296C25.9625 21.6489 25.4268 21.4468 24.781 21.4864C23.8657 21.542 23.0702 21.944 22.8424 21.9184Z" fill="white"/>
<path d="M29.1258 10.7244C29.205 10.7426 29.2552 10.6058 29.1846 10.5662C28.14 9.98025 26.5361 9.58249 25.3984 9.57394C25.3428 9.57394 25.3108 9.50871 25.3439 9.46381C25.5407 9.1997 25.8101 8.93774 26.056 8.74848C26.1116 8.70571 26.0774 8.61697 26.0079 8.62124C24.388 8.72068 22.5414 9.49588 21.4797 10.2198C21.4273 10.255 21.3599 10.2091 21.3727 10.1471C21.4551 9.74823 21.716 9.22323 21.8518 8.9773C21.8838 8.91956 21.8208 8.85541 21.762 8.88535C20.0554 9.75785 18.1511 11.3125 16.6029 13.1014C16.5483 13.1645 16.6296 13.2532 16.697 13.2051C18.0335 12.2331 19.8651 11.3286 22.2656 10.7437C24.9558 10.0872 27.5444 10.362 29.1258 10.7244Z" fill="white"/>
<path d="M23.3489 5.18271C23.3489 5.18271 21.6499 3.21209 21.1366 3.06774C17.9813 2.21449 11.1638 6.91595 6.81093 13.1272C5.04989 15.641 2.52862 20.0912 3.73365 22.3804C3.88228 22.6648 4.7227 23.393 5.17392 23.7694C5.92881 22.6723 7.16378 21.8789 8.56449 21.6063C10.348 16.8193 13.3258 12.4086 17.2671 9.37307C20.1936 6.93306 23.3489 5.18271 23.3489 5.18271Z" fill="white"/>
</svg>
