<svg xmlns="http://www.w3.org/2000/svg" viewBox="0 0 251 43" fill="currentColor">
  <path d="M17.5 22.2c.3-.4.3-.9-.1-1.2l-3.7-3.3c-1.1 1.9-1.6 4-1.5 6.1l4.9-1.4c.2 0 .3-.1.4-.2zM17.8 25.3l-5 .9c.7 2 2.1 3.8 3.9 4.9l1.9-4.6c.1-.2.1-.4.1-.5-.1-.4-.5-.7-.9-.7zM20.7 23.9l1.3.7 1.4-.7.3-1.4-.9-1.2h-1.5l-1 1.2zM23.6 18.6c.3.4.8.4 1.1.2l4.1-2.9c-1.5-1.5-3.5-2.5-5.7-2.7l.3 5.1c.1.1.1.2.2.3zM19.7 18.9c.5 0 .9-.4.9-.8l.3-5-1 .2c-1.8.4-3.4 1.3-4.7 2.6l4.2 3h.3z"/>
  <path d="M40.2 9.7c-.3-.8-.9-1.5-1.6-1.9L23.3.5c-.4-.2-.9-.3-1.3-.3s-.9 0-1.3.1L5.6 7.7c-.8.4-1.3 1-1.5 1.9L.3 26.2c-.2.9.1 1.7.6 2.4l10.6 13.1c.6.6 1.5 1 2.3 1.1h16.8c.9.1 1.8-.3 2.3-1.1l10.6-13.1c.5-.7.7-1.6.6-2.4L40.2 9.7zm-2.4 17.6c-.1 0-.2 0-.3-.1 0-.1-.1-.1-.1-.1-.1 0-.2-.1-.2-.1l-.6-.3c-.1 0-.2-.1-.3-.1h-.1c-.5-.2-1.1-.4-1.6-.5h-.1c-.2 0-.3.1-.4.2 0 0 0 .1-.1.1l-.4-.1c-.9 2.9-2.9 5.3-5.4 6.8l.2.4s-.1 0-.1.1c-.1.2-.1.4 0 .5.2.5.5 1 .8 1.5v.1c.1.1.2.2.2.3.2.2.3.3.4.5.1.1.1.1.1.2 0 0 .1 0 .1.1.1.3.1.5.1.8-.1.3-.3.5-.5.6-.2.1-.3.1-.4.1-.4 0-.8-.3-1-.6-.1 0-.1-.1-.1-.1-.1-.1-.1-.1-.1-.2-.1-.2-.2-.4-.2-.6l-.1-.3v-.1c-.2-.6-.4-1.1-.7-1.6-.1-.2-.3-.3-.4-.3 0-.1 0-.1-.1-.1l-.2-.4c-.5.2-1.1.4-1.6.5-.7.4-1.6.5-2.5.5-1.5 0-3-.3-4.4-.8l-.2.4v.1c-.2.1-.3.2-.4.3-.3.5-.5 1-.7 1.6l-.1.3c-.1.2-.2.4-.2.6-.1.1-.1.1-.1.2-.1 0-.1.1-.1.1-.2.4-.6.6-1 .6-.1 0-.3-.1-.4-.1-.5-.3-.7-.9-.4-1.4.1 0 .1-.1.1-.1.1-.1.1-.1.1-.2.2-.2.3-.4.4-.5.1-.1.2-.2.2-.3v-.1c.3-.5.6-1 .8-1.5.1-.2.1-.4-.1-.5 0 0-.1 0-.1-.1l.3-.4c-.5-.3-.9-.6-1.4-.9-2-1.5-3.4-3.6-4.1-5.9l-.5.1s0-.1-.1-.1c-.1-.1-.3-.2-.4-.2h.3c-.6.1-1.1.3-1.7.5-.1 0-.2.1-.3.1-.2.2-.4.3-.6.4-.1 0-.2-.1-.2 0s0 .1-.1.1c-.1.1-.2.1-.3.1-.5.1-.9-.3-1-.7-.1-.6.3-1.1.8-1.2l.1-.1c.1 0 .2-.1.2-.1.2 0 .4-.1.6-.1.1-.1.2-.1.3-.1.6-.1 1.2-.2 1.7-.3.2-.1.3-.2.4-.4 0 0 .1 0 .1-.1l.4-.1c-.5-2.9.2-5.8 1.8-8.2.1-.1.1-.2.2-.3l-.3-.3v.1c.1-.2-.1-.4-.2-.5-.4-.4-.9-.7-1.4-1-.1.1-.2.1-.3 0l-.6-.3c-.1 0-.2-.1-.2-.1s0-.1-.1-.1c-.4-.4-.5-1-.2-1.4.2-.3.4-.4.7-.4.3 0 .5.1.7.3l.1.1c.1.1.1.1.2.1.2.2.3.3.4.5.1.1.2.1.2.2.4.4.8.8 1.3 1.2.1.1.2.1.3.1.1 0 .2-.1.2-.1l.3.2c1.7-1.8 3.8-3 6.2-3.5.6-.1 1.2-.2 1.7-.3l.1-.4V10c.2-.1.2-.3.3-.4 0-.6 0-1.2-.1-1.7v-.1c0-.1 0-.2-.1-.3-.1-.2-.2-.4-.2-.6v-.2c0-.3.1-.5.3-.7.3-.3.6-.4.9-.4.5.1.9.6.9 1.1V7c-.1.2-.1.4-.2.6 0 .1-.1.2-.1.3V8c-.1.6-.1 1.2-.1 1.7.1.2.1.3.3.4V10l.1.4c2.4.3 4.7 1.2 6.5 2.6.4.4.9.8 1.3 1.2l.4-.3c.1.1.2.1.2.1.1 0 .2-.1.3-.1.5-.3.9-.7 1.3-1.1.1-.1.2-.1.2-.2.1-.2.3-.3.4-.5 0 0 .1-.1.2-.1l.1-.1c.2-.2.5-.3.7-.3.3 0 .6.2.7.4.4.5.3 1.1-.2 1.4v.1c-.1.1-.1.1-.2.1l-.6.3c-.1.1-.2.1-.3.2-.5.3-1 .6-1.4 1-.1.1-.2.3-.2.5v.1l-.3.3c.8 1.3 1.4 2.7 1.8 4.1.3 1.5.4 3 .2 4.4l.4.1c.1.2.2.3.4.4.6.2 1.2.3 1.7.3h.1c.1.1.2.1.3.1.2 0 .4 0 .6.1.1 0 .2 0 .2.1s.1.1.1.1c.5.1.9.5.9 1.1-.3.2-.7.5-1.1.5z"/>
  <path d="M22.3 27.5c-.4-.2-.8-.1-1 .2l-2.5 4.5c1 .3 2.1.5 3.2.5.8 0 1.5-.1 2.2-.3.4-.1.7-.2 1-.2l-2.4-4.4c-.2-.1-.3-.2-.5-.3zM30.4 17.7l-3.8 3.4c-.1.1-.2.2-.2.4-.1.5.2.9.6 1l4.8 1.4c.1-1.1 0-2.1-.2-3.2-.3-1.1-.7-2.1-1.2-3zM25.8 25.4c-.4.2-.6.6-.5 1l2 4.7c1.2-.8 2.3-1.8 3-3 .4-.6.7-1.2 1-1.9l-5-.9c-.2 0-.4 0-.5.1zM72.4 30.1c-.8-1-1.5-1.9-2.3-2.8-.7-.9-1.5-1.6-2.3-2.4 1.5-1.4 2.8-2.8 4-4.2 1.2-1.4 2.5-2.8 3.8-4.3h-6.4c-.4.4-.8.9-1.3 1.5s-1 1.1-1.5 1.8c-.6.6-1.1 1.2-1.7 1.9-.6.6-1.1 1.2-1.7 1.8v-16l-5.4.9v27.6H63v-8.4c.7.5 1.3 1.1 1.8 1.8.7.7 1.3 1.5 1.8 2.2.5.8 1.1 1.6 1.6 2.3.5.8 1 1.4 1.4 2.1h6.2c-.4-.8-.9-1.7-1.5-2.7s-1.2-2.2-1.9-3.1zM89.3 31.1c-.4.1-.7.1-1.2.2s-.9.1-1.3.1c-1.3 0-2.1-.4-2.6-1.2-.5-.8-.7-2-.7-3.8v-10h-5.4V27c0 1.2.1 2.5.4 3.6.3 1.1.7 2 1.4 2.9.7.8 1.6 1.4 2.6 1.8 1.3.5 2.7.7 4.1.7 1.5 0 3.1-.1 4.6-.4 1.2-.2 2.4-.4 3.6-.7V16.4h-5.4v14.7zM115.5 18.8c-.7-.9-1.6-1.6-2.6-2-1.2-.6-2.4-.8-3.6-.8-.7 0-1.4.1-2.1.2-.7.2-1.3.4-1.9.6V7.3l-5.4.9v26.9c.5.2 1 .4 1.7.5.7.2 1.3.3 2 .4.7.1 1.4.2 2.1.2.7.1 1.4.1 2.1.1 1.5 0 2.9-.2 4.2-.7 1.2-.5 2.2-1.2 3.1-2.1.9-.9 1.5-2 1.9-3.2.5-1.4.7-2.8.7-4.2 0-1.4-.2-2.8-.5-4.1-.4-1.2-.9-2.2-1.7-3.2zM111 29.9c-.8 1.1-2.1 1.6-3.4 1.5-.5 0-1 0-1.4-.1-.4-.1-.8-.1-1-.2v-9.9c.4-.3.9-.5 1.3-.6.6-.2 1.1-.2 1.7-.2 2.6 0 3.9 1.7 3.9 5.2 0 1.7-.4 3.1-1.1 4.3zM129.9 15.9c-1.2 0-2.3.2-3.4.7-1.1.4-2.1 1.1-2.9 1.9-.9 1-1.6 2-2.1 3.2-.5 1.4-.8 2.9-.8 4.4 0 1.4.2 2.7.5 4 .4 1.2 1 2.3 1.9 3.2.9.9 2 1.6 3.2 2.1 1.5.6 3 .8 4.5.8.7 0 1.4-.1 2.1-.1.7-.1 1.3-.2 1.9-.3.6-.1 1.1-.2 1.7-.4.4-.2.8-.3 1.2-.5l-.8-4.4c-.8.3-1.6.6-2.4.7-1 .2-2 .3-2.9.3-1.3.1-2.6-.3-3.7-1-.9-.6-1.5-1.6-1.6-2.7h12.3v-1c.1-.4.1-.8.1-1.1 0-3.2-.8-5.6-2.4-7.3-1.5-1.6-3.7-2.5-6.4-2.5zm-3.5 8.2c.1-.5.2-.9.3-1.4.1-.5.4-.9.7-1.2.3-.4.7-.6 1.1-.8.5-.3 1-.4 1.6-.4.6 0 1.1.1 1.6.4.4.2.8.5 1.1.9.2.4.5.7.6 1.2.2.5.2.9.2 1.4h-7.2zM153 16.2c-.5-.1-.9-.2-1.3-.2s-.7-.1-1.1-.1c-1.5-.1-3 .1-4.4.5-1.2.3-2.3.6-3.4 1v18.2h5.4V21c.3-.1.7-.2 1.1-.2.5-.1.9-.1 1.3-.1.7 0 1.4.1 2.1.2.7.1 1.2.3 1.7.4l.9-4.5c-.3-.2-.7-.3-1.1-.3-.4-.2-.8-.3-1.2-.3zM172.9 18.4c-.7-.8-1.6-1.4-2.6-1.8-1.3-.5-2.7-.7-4-.7-1.5 0-3.1.1-4.6.4-1.2.2-2.4.5-3.6.8v18.5h5.4V20.7c.4-.1.7-.1 1.2-.1.5-.1.9-.1 1.3-.1 1.3 0 2.1.4 2.6 1.1.5.8.7 2 .7 3.7v10.1h5.4V24.7c0-1.2-.1-2.4-.4-3.6-.3-1-.7-1.9-1.4-2.7zM187.9 15.9c-1.2 0-2.3.2-3.4.7-1.1.4-2.1 1.1-2.9 1.9-.9 1-1.6 2-2.1 3.2-.5 1.4-.8 2.9-.8 4.4 0 1.3.2 2.7.6 4 .4 1.2 1 2.3 1.9 3.2.9.9 2 1.6 3.2 2.1 1.5.6 3 .8 4.5.8.7 0 1.4-.1 2.1-.1.7-.1 1.3-.2 1.9-.3.6-.1 1.1-.2 1.7-.4.4-.2.8-.3 1.2-.5l-.8-4.4c-.8.4-1.6.6-2.4.8-1 .2-2 .3-2.9.3-1.3.1-2.6-.3-3.7-1-.9-.6-1.5-1.6-1.6-2.7h12.3c0-.3 0-.6.1-1v-1.1c0-3.2-.8-5.7-2.4-7.3s-3.8-2.6-6.5-2.6zm-3.5 8.2c.1-.5.2-.9.3-1.4.2-.5.4-.9.7-1.2.3-.4.7-.6 1.1-.8.5-.3 1-.4 1.6-.4.6 0 1.1.1 1.6.4.4.2.8.5 1.1.9.3.4.5.7.6 1.2.2.5.3.9.3 1.4h-7.3zM210.9 31.2c-.6.1-1.2.2-1.8.2-1.3 0-2.1-.4-2.5-1-.5-.8-.7-1.8-.6-2.7V21h6.5v-4.5H206v-5.6l-5.4.9v16.1c-.1 1.1 0 2.3.3 3.4.2 1 .7 1.9 1.3 2.6.6.7 1.4 1.3 2.3 1.7 1.2.5 2.4.7 3.7.6 1 0 2-.1 3-.3.8-.2 1.5-.4 2.2-.7l-.8-4.2c-.6 0-1.1.1-1.7.2zM224.5 15.9c-1.2 0-2.3.2-3.4.7-1.1.4-2.1 1.1-2.9 1.9-.9 1-1.6 2-2.1 3.2-.5 1.4-.8 2.9-.8 4.4 0 1.3.2 2.7.6 4 .4 1.2 1 2.3 1.9 3.2.9.9 2 1.6 3.2 2.1 1.5.6 3 .8 4.5.8.7 0 1.4-.1 2.1-.1.7-.1 1.3-.2 1.9-.3.6-.1 1.1-.2 1.7-.4.4-.2.8-.3 1.2-.5l-.8-4.4c-.8.4-1.6.6-2.4.8-1 .2-2 .3-2.9.3-1.3.1-2.6-.3-3.7-1-.9-.6-1.5-1.6-1.6-2.7h12.2c0-.3.1-.6.1-1v-1.1c0-3.2-.8-5.7-2.4-7.3s-3.7-2.6-6.4-2.6zm-3.6 8.2c0-.5.2-.9.3-1.4.1-.5.4-.9.7-1.2.3-.4.7-.6 1.1-.8.5-.3 1-.4 1.6-.4.6 0 1.1.1 1.6.4.4.2.8.5 1.1.9.3.4.5.7.6 1.2.1.5.2.9.2 1.4h-7.2zM250.7 28.4c-.2-.7-.5-1.2-1-1.7-.5-.6-1.1-1.1-1.8-1.4-.9-.5-1.9-1-2.9-1.3-.6-.2-1.1-.4-1.5-.6-.4-.2-.7-.4-.9-.5-.2-.2-.3-.3-.4-.5-.1-.2-.1-.4-.1-.6 0-1 .9-1.4 2.6-1.4.8 0 1.7.1 2.5.3l2.1.6 1-4.3c-.9-.3-1.7-.5-2.6-.7-1.1-.3-2.3-.4-3.4-.4-2.3 0-4.1.5-5.5 1.6-1.3 1-2.1 2.6-2 4.3 0 .8.1 1.6.4 2.4.2.7.6 1.2 1.1 1.7.6.5 1.1.9 1.8 1.2.7.4 1.5.7 2.3 1 .9.3 1.7.7 2.5 1.1.5.2.8.6.8 1.1 0 .5-.2.9-.6 1.1-.7.3-1.4.4-2.1.3-1 0-2-.1-3-.2-1-.2-1.9-.5-2.8-.9l-.9 4.4c.8.3 1.5.5 2.3.7 1.4.4 2.8.5 4.3.5 2.6 0 4.6-.5 6-1.5 1.5-1 2.3-2.6 2.2-4.3-.1-.6-.2-1.3-.4-2z"/>
</svg>
