<svg viewBox="0 0 137 54" fill="none" xmlns="http://www.w3.org/2000/svg">
  <g clip-path="url(#clip0)" fill="currentColor">
    <path d="M53.007 26.52v-3.776h-5.44V18.39h-4.426v4.355h-4.596v3.776h4.596v5.702c0 2.693.52 4.304 1.638 5.418 1.52 1.518 3.569 1.89 5.3 1.89 2.072 0 2.74-.34 2.74-.34v-3.724c-.853.122-1.713.178-2.574.168-.526 0-1.449-.117-2.046-.712-.519-.517-.64-1.375-.64-2.096V26.52h5.448zM65.277 22.404c-1.854 0-3.498.648-4.51 1.657-.11.109-.215.224-.313.345v-1.662h-4.253v16.454h4.417V28.904a5.059 5.059 0 014.32-2.433c.608.005 1.214.061 1.812.17v-4.1a9.685 9.685 0 00-1.473-.137zM105.622 22.744h-4.658l-4.49 9.807-4.8-9.807h-4.867l7.386 14.79v.002l-3.343 7.072h4.625l10.147-21.864zM80.709 22.744v1.305a8.04 8.04 0 00-4.828-1.645c-4.459 0-8.112 3.691-8.112 8.584 0 4.892 3.771 8.548 8.312 8.548 2.829 0 4.464-1.488 4.62-1.634v1.296h4.245V22.744H80.71zm-4.162 12.723c-2.376 0-4.35-1.803-4.35-4.48 0-2.558 1.828-4.511 4.248-4.511a5.282 5.282 0 014.084 1.968v5.059a4.942 4.942 0 01-3.982 1.964zM105.414 33.753a2.904 2.904 0 012.635 1.83 2.89 2.89 0 01-2.157 3.905 2.906 2.906 0 01-2.959-1.242 2.886 2.886 0 011.351-4.29c.36-.143.744-.211 1.13-.203zM113.553 14.406a2.818 2.818 0 012.708 3.402 2.83 2.83 0 01-5.119.975 2.82 2.82 0 01-.473-1.559 2.837 2.837 0 01.851-2.01 2.836 2.836 0 012.033-.808zM115.763 22.744h-4.417v16.454h4.417V22.744zM127.508 22.404c-4.85 0-8.781 3.731-8.781 8.566 0 4.835 3.931 8.569 8.781 8.569 4.849 0 8.783-3.732 8.783-8.569 0-4.837-3.934-8.566-8.783-8.566zm0 13.063c-2.407 0-4.357-1.816-4.357-4.497 0-2.636 1.95-4.494 4.357-4.494s4.361 1.858 4.361 4.494c0 2.68-1.954 4.497-4.361 4.497zM23.082 9.22c-2.343 0-4.59.927-6.247 2.579a8.794 8.794 0 00-2.587 6.228v1.652h4.417v-1.652c0-.871.26-1.722.745-2.446a4.429 4.429 0 016.796-.665 4.399 4.399 0 01.956 4.799 4.406 4.406 0 01-1.627 1.976 4.426 4.426 0 01-2.453.742H9.83c-2.343 0-4.59.927-6.247 2.58A8.793 8.793 0 00.997 31.24c0 2.335.93 4.576 2.587 6.227a8.848 8.848 0 006.247 2.58h1.655v-4.404H9.83a4.423 4.423 0 01-3.123-1.29 4.397 4.397 0 010-6.227 4.423 4.423 0 013.123-1.29h4.417v13.211h4.417v-13.21h4.417a8.861 8.861 0 006.338-2.53 8.809 8.809 0 002.638-6.28 8.787 8.787 0 00-2.638-6.278 8.838 8.838 0 00-6.338-2.53z"/>
  </g>
  <defs>
    <clipPath id="clip0">
      <path fill="currentColor" d="M.997.371h135.327v53.084H.997z"/>
    </clipPath>
  </defs>
</svg>
