<svg width="544" height="96" viewBox="0 0 544 96" fill="none" xmlns="http://www.w3.org/2000/svg">
<path d="M140.57 18.63V67.59C140.57 68.6 140.48 69.47 140.29 70.23C140.1 70.98 139.77 71.58 139.3 72.02C138.83 72.46 138.12 72.68 137.18 72.68C136.49 72.68 135.89 72.54 135.39 72.26C134.89 71.98 134.5 71.46 134.21 70.71C133.93 69.96 133.79 68.92 133.79 67.6V18.63H117.03V67.3C117.03 71.44 117.75 75.08 119.2 78.22C120.64 81.36 122.84 83.79 125.79 85.52C128.74 87.25 132.47 88.11 136.99 88.11C141.01 88.11 144.52 87.36 147.53 85.85C150.54 84.34 152.9 82.05 154.59 78.98C156.28 75.91 157.13 72.01 157.13 67.31V18.63H140.56H140.57Z" fill="white"/>
<path d="M161.75 87.27V18.63H179.54L186.88 52.81H187.54L186.69 33.13V18.63H202.13V87.26H184.52L176.89 53.55H176.33L177.18 72.47V87.25H161.74L161.75 87.27Z" fill="white"/>
<path d="M224.27 18.63H206.66V87.26H224.27V18.63Z" fill="white"/>
<path d="M252.7 18.63L248.75 57.51L247.71 71.64H247.05L245.83 57.42L242.06 18.63H226.34L236.32 87.27H258.35L268.42 18.63H252.7Z" fill="white"/>
<path d="M301.94 33.41V18.63H270.68V87.27H301.94V72.48H287.35V59.12H300.62V45.37H287.35V33.41H301.94Z" fill="white"/>
<path d="M344.96 80.3V69.28C344.96 65.89 344.47 62.85 343.5 60.15C342.53 57.45 340.72 55.88 338.09 55.44V54.78C340.47 53.9 342.39 52.1 343.83 49.37C345.27 46.64 346 43.05 346 38.59C346 34.76 345.48 31.56 344.45 28.99C343.41 26.42 341.94 24.38 340.03 22.87C338.11 21.36 335.82 20.28 333.16 19.62C330.49 18.96 327.53 18.63 324.26 18.63H305.34V87.26H322.19V63.91H324.54C325.61 63.91 326.38 64.29 326.85 65.04C327.32 65.79 327.6 66.72 327.7 67.82C327.79 68.92 327.84 70.03 327.84 71.16V81.33C327.84 81.96 327.9 82.87 328.03 84.06C328.16 85.25 328.34 86.32 328.6 87.26H345.64C345.45 86.26 345.29 85.2 345.17 84.11C345.04 83.01 344.98 81.74 344.98 80.3H344.96ZM327.97 48.48C327.25 49.99 325.73 50.74 323.4 50.74H322.18V33.42H323.31C324.69 33.42 325.79 33.7 326.61 34.27C327.42 34.83 328.04 35.75 328.45 37C328.86 38.26 329.06 39.95 329.06 42.08C329.06 44.84 328.7 46.98 327.98 48.48H327.97Z" fill="white"/>
<path d="M386.62 60.67C385.83 58.44 384.78 56.47 383.47 54.74C382.15 53.01 380.61 51.44 378.86 50.03C377.1 48.62 375.22 47.32 373.21 46.12C371.26 44.93 369.69 43.86 368.5 42.92C367.31 41.98 366.46 40.96 365.96 39.86C365.46 38.76 365.21 37.37 365.21 35.67C365.21 34.54 365.32 33.57 365.54 32.75C365.76 31.94 366.12 31.31 366.62 30.87C367.12 30.43 367.78 30.21 368.6 30.21C369.54 30.21 370.29 30.51 370.86 31.1C371.42 31.7 371.83 32.64 372.08 33.92C372.33 35.21 372.42 36.95 372.36 39.15H387.24C387.24 34 386.45 29.86 384.89 26.72C383.32 23.58 381.09 21.31 378.21 19.89C375.32 18.48 371.84 17.77 367.76 17.77C364.06 17.77 360.76 18.44 357.87 19.79C354.98 21.14 352.72 23.21 351.09 26C349.46 28.79 348.64 32.39 348.64 36.78C348.64 39.79 349.02 42.43 349.77 44.69C350.52 46.95 351.54 48.91 352.83 50.57C354.12 52.23 355.54 53.69 357.11 54.95C358.68 56.21 360.28 57.34 361.91 58.34C363.54 59.35 364.92 60.26 366.05 61.07C367.18 61.89 368.11 62.7 368.83 63.52C369.55 64.34 370.08 65.25 370.43 66.25C370.77 67.25 370.95 68.42 370.95 69.73C370.95 71.49 370.7 72.88 370.2 73.92C369.7 74.96 368.76 75.47 367.38 75.47C366.44 75.47 365.62 75.17 364.93 74.58C364.24 73.98 363.72 72.95 363.38 71.47C363.03 70 362.86 68 362.86 65.49H348.27C348.27 70.01 348.93 73.98 350.25 77.4C351.57 80.82 353.67 83.47 356.56 85.36C359.45 87.24 363.24 88.18 367.95 88.18C372.09 88.18 375.64 87.46 378.59 86.01C381.54 84.57 383.82 82.37 385.42 79.42C387.02 76.47 387.82 72.74 387.82 68.22C387.82 65.4 387.43 62.87 386.64 60.64L386.62 60.67Z" fill="white"/>
<path d="M421.98 33.41V18.63H390.72V87.27H421.98V72.48H407.38V59.12H420.66V45.37H407.38V33.41H421.98Z" fill="white"/>
<path fill-rule="evenodd" clip-rule="evenodd" d="M50.21 0C23.02 0 1 22.02 1 49.21C1 70.99 15.09 89.38 34.65 95.9C37.11 96.33 38.03 94.85 38.03 93.56C38.03 92.39 37.97 88.52 37.97 84.39C25.6 86.67 22.41 81.38 21.42 78.61C20.87 77.2 18.47 72.83 16.38 71.66C14.66 70.74 12.2 68.46 16.32 68.4C20.2 68.34 22.96 71.97 23.89 73.44C28.32 80.88 35.39 78.79 38.22 77.5C38.65 74.3 39.94 72.15 41.36 70.92C30.41 69.69 18.97 65.44 18.97 46.62C18.97 41.27 20.88 36.84 24.01 33.39C23.52 32.16 21.8 27.12 24.5 20.35C24.5 20.35 28.62 19.06 38.03 25.39C41.97 24.28 46.15 23.73 50.33 23.73C54.51 23.73 58.7 24.28 62.63 25.39C72.04 18.99 76.16 20.35 76.16 20.35C78.87 27.12 77.14 32.16 76.65 33.39C79.79 36.83 81.69 41.2 81.69 46.62C81.69 65.51 70.19 69.69 59.24 70.92C61.02 72.46 62.56 75.41 62.56 80.02C62.56 86.6 62.5 91.89 62.5 93.55C62.5 94.84 63.42 96.38 65.88 95.89C85.32 89.37 99.41 70.91 99.41 49.2C99.43 22.02 77.4 0 50.21 0Z" fill="white"/>
<path d="M426.37 87.27V85.0015C426.37 81.3467 427.119 78.1645 428.618 75.4549C430.116 72.7453 432.115 70.3508 434.612 68.2714C437.172 66.1919 439.951 64.3015 442.948 62.6001C445.945 60.8358 448.943 59.1659 451.94 57.5905C454.937 55.9522 457.684 54.2823 460.182 52.581C462.68 50.8166 464.678 48.8631 466.176 46.7207C467.737 44.5782 468.518 42.1207 468.518 39.3481C468.518 36.5755 467.831 34.2755 466.457 32.4481C465.146 30.5577 463.367 29.1714 461.119 28.2892C458.871 27.407 456.342 26.9659 453.532 26.9659C450.098 26.9659 447.163 27.533 444.728 28.6673C442.293 29.8015 440.419 31.4399 439.108 33.5823C437.797 35.6618 437.11 38.1193 437.047 40.9549H426.557C426.807 35.9768 428.056 31.8179 430.304 28.4782C432.614 25.1385 435.767 22.6179 439.764 20.9166C443.76 19.1522 448.474 18.27 453.907 18.27C459.339 18.27 463.96 19.1522 467.769 20.9166C471.578 22.6179 474.481 25.0125 476.479 28.1001C478.477 31.1878 479.476 34.8111 479.476 38.97C479.476 42.3097 478.79 45.2714 477.416 47.8549C476.105 50.3755 474.356 52.644 472.171 54.6604C469.985 56.6768 467.55 58.5042 464.865 60.1426C462.18 61.7179 459.464 63.2303 456.717 64.6796C454.032 66.0659 451.503 67.4837 449.13 68.933C446.757 70.3823 444.759 71.8947 443.136 73.47C441.574 75.0453 440.607 76.8412 440.232 78.8577H480.226V87.27H426.37Z" fill="white"/>
<path d="M516.921 87.27V70.8234H476.74V62.8837L513.924 19.1207H527.88V62.1275H538.37L538.276 70.8234H527.88V87.27H516.921ZM488.448 62.1275H516.921V29.1399L488.448 62.1275Z" fill="white"/>
</svg>
