<svg xmlns="http://www.w3.org/2000/svg" width="120" height="34.2"><path d="M25.8 6.4c0-.2-.2-.3-.3-.3H23S21 4.2 20.8 4c-.2-.2-.6-.1-.7-.1 0 0-.4.1-1 .3-.1-.4-.3-.8-.5-1.2-.7-1.3-1.8-2.1-3-2.1h-.3l-.1-.1C14.7.3 14 0 13.1 0c-1.6 0-3.2 1.2-4.5 3.3C7.7 4.8 7 6.6 6.8 8c-1.9.6-3.2 1-3.2 1-.9.3-1 .3-1.1 1.2-.1.6-2.5 19.6-2.5 19.6l20.5 3.6 8.9-2.2c0-.1-3.6-24.6-3.6-24.8zM18 4.5c-.5.1-1 .3-1.6.5 0-.8-.1-2-.5-2.9 1.3.2 1.9 1.6 2.1 2.4zm-2.6.8c-1.1.4-2.3.7-3.4 1.1.3-1.3 1-2.5 1.7-3.4.3-.3.7-.6 1.2-.8.4.9.5 2.2.5 3.1zm-2.2-4.2c.4 0 .7.1 1 .3-.4.2-.9.6-1.2 1-1 1.1-1.8 2.8-2.1 4.5-1 .3-1.9.6-2.8.9.4-2.8 2.6-6.6 5.1-6.7z" fill="#95bf47"/><path d="M25.5 6.1H23S21 4.2 20.8 4c-.1-.1-.2-.1-.3-.1v29.5l8.9-2.2S25.8 6.6 25.8 6.5c0-.3-.2-.4-.3-.4z" fill="#5e8e3e"/><path d="M15.6 10.7l-1 3.9s-1.2-.5-2.5-.4c-2 .1-2 1.4-2 1.7.1 1.7 4.7 2.1 4.9 6.2.2 3.2-1.7 5.4-4.4 5.5-3.3.2-5.1-1.8-5.1-1.8l.7-3s1.8 1.4 3.3 1.3c.9 0 1.3-.8 1.2-1.4-.1-2.3-3.8-2.1-4.1-5.8-.2-3.1 1.8-6.3 6.4-6.6 1.7 0 2.6.4 2.6.4z" fill="#fff"/><g><path d="M41.5 19c-1-.6-1.6-1-1.6-1.7 0-.8.7-1.3 1.9-1.3 1.3 0 2.5.6 2.5.6l.9-2.9s-.9-.7-3.4-.7c-3.6 0-6 2-6 4.9 0 1.6 1.2 2.9 2.7 3.7 1.2.7 1.7 1.2 1.7 1.9 0 .8-.6 1.4-1.8 1.4-1.7 0-3.3-.9-3.3-.9l-1 2.9s1.5 1 4 1c3.6 0 6.3-1.8 6.3-5 0-1.8-1.3-3-2.9-3.9zM56 12.9c-1.8 0-3.2.9-4.3 2.2l1.6-8.2h-4.1l-4 20.8h4.1l1.3-7.1c.5-2.7 1.9-4.3 3.2-4.3.9 0 1.3.6 1.3 1.5 0 .6 0 1.2-.2 1.8l-1.5 8.1h4.1l1.6-8.4c.2-.9.3-1.9.3-2.7 0-2.3-1.2-3.7-3.4-3.7zM68.6 12.9c-4.9 0-8.1 4.4-8.1 9.3 0 3.1 1.9 5.7 5.6 5.7 4.8 0 8-4.3 8-9.3 0-2.9-1.7-5.7-5.5-5.7zm-2 11.9c-1.4 0-2-1.2-2-2.7 0-2.3 1.2-6.1 3.4-6.1 1.4 0 1.9 1.2 1.9 2.4 0 2.6-1.2 6.4-3.3 6.4zM84.5 12.9c-2.7 0-4.3 2.4-4.3 2.4l.2-2.2h-3.6c-.2 1.5-.5 3.7-.8 5.4l-2.8 14.9h4.1l1.1-6h.1s.8.5 2.4.5c4.8 0 7.9-4.9 7.9-9.8-.1-2.8-1.3-5.2-4.3-5.2zm-3.9 12c-1.1 0-1.7-.6-1.7-.6l.7-3.8c.5-2.5 1.8-4.2 3.2-4.2 1.2 0 1.6 1.2 1.6 2.2 0 2.6-1.5 6.4-3.8 6.4zM94.5 7.1c-1.3 0-2.3 1-2.3 2.4 0 1.2.8 2 1.9 2 1.3 0 2.4-.9 2.4-2.4 0-1.2-.8-2-2-2zM88.8 27.6h4.1l2.7-14.4h-4.1zM106 13.2h-2.8l.1-.7c.2-1.4 1.1-2.6 2.4-2.6.7 0 1.3.2 1.3.2l.8-3.2s-.7-.4-2.2-.4c-1.4 0-2.9.4-4 1.3-1.4 1.2-2 2.9-2.4 4.6l-.1.7h-1.9l-.6 3.1h1.9l-2.2 11.4h4.1l2.2-11.4h2.8l.6-3zM115.8 13.2s-2.5 6.4-3.7 9.9c-.1-1.1-1-9.9-1-9.9h-4.3l2.4 13.2c0 .3 0 .5-.1.7-.5.9-1.3 1.8-2.2 2.4-.8.6-1.6.9-2.3 1.2l1.1 3.5c.8-.2 2.5-.9 4-2.2 1.8-1.7 3.6-4.4 5.3-8.1l5-10.7h-4.2z"/></g></svg>