<svg xmlns="http://www.w3.org/2000/svg" viewBox="0 0 81.9 84.08"><title>machinelearning-flourish-1</title><g style="isolation:isolate"><g id="Layer_3" data-name="Layer 3"><g style="opacity:0.75"><path d="M1006.65,434.91v-39a0.85,0.85,0,0,0-.43-0.74l-40.84-23.57a0.85,0.85,0,0,0-1.28.74v39a0.85,0.85,0,0,0,.43.74l40.84,23.58A0.85,0.85,0,0,0,1006.65,434.91Z" transform="translate(-950.34 -359.18)" style="fill:#e1eaf7"/><path d="M1003.76,431.59a0.29,0.29,0,0,1-.15,0l-37.47-21.63a0.3,0.3,0,0,1-.15-0.26V375.93a0.3,0.3,0,0,1,.44-0.26l37.47,21.63a0.3,0.3,0,0,1,.15.26v33.74A0.3,0.3,0,0,1,1003.76,431.59Zm-37.17-22.1,36.88,21.29V397.73l-36.88-21.29v33Z" transform="translate(-950.34 -359.18)" style="fill:#bdd4ee;mix-blend-mode:darken"/><rect x="984.73" y="398.84" width="0.59" height="43.27" transform="translate(-821.95 704.14) rotate(-60)" style="fill:#bdd4ee;mix-blend-mode:darken"/><rect x="984.73" y="394.03" width="0.59" height="43.27" transform="translate(-817.77 701.74) rotate(-60)" style="fill:#bdd4ee;mix-blend-mode:darken"/><rect x="984.73" y="389.21" width="0.59" height="43.27" transform="translate(-813.59 699.33) rotate(-60)" style="fill:#bdd4ee;mix-blend-mode:darken"/><rect x="984.73" y="384.39" width="0.59" height="43.27" transform="translate(-809.41 696.93) rotate(-60)" style="fill:#bdd4ee;mix-blend-mode:darken"/><rect x="984.73" y="379.57" width="0.59" height="43.27" transform="translate(-805.24 694.53) rotate(-60)" style="fill:#bdd4ee;mix-blend-mode:darken"/><rect x="984.73" y="374.75" width="0.59" height="43.27" transform="translate(-801.06 692.12) rotate(-60)" style="fill:#bdd4ee;mix-blend-mode:darken"/><rect x="984.73" y="369.93" width="0.59" height="43.26" transform="translate(-796.88 689.72) rotate(-60)" style="fill:#bdd4ee;mix-blend-mode:darken"/><rect x="984.73" y="365.11" width="0.59" height="43.26" transform="translate(-792.7 687.32) rotate(-60.01)" style="fill:#bdd4ee;mix-blend-mode:darken"/><rect x="15.65" y="16.74" width="0.59" height="33.73" style="fill:#bdd4ee;mix-blend-mode:darken"/><rect x="19.82" y="19.15" width="0.59" height="33.73" style="fill:#bdd4ee;mix-blend-mode:darken"/><rect x="23.98" y="21.55" width="0.59" height="33.74" style="fill:#bdd4ee;mix-blend-mode:darken"/><rect x="28.14" y="23.95" width="0.59" height="33.74" style="fill:#bdd4ee;mix-blend-mode:darken"/><rect x="32.31" y="26.36" width="0.59" height="33.74" style="fill:#bdd4ee;mix-blend-mode:darken"/><rect x="36.47" y="28.76" width="0.59" height="33.74" style="fill:#bdd4ee;mix-blend-mode:darken"/><rect x="40.63" y="31.16" width="0.59" height="33.74" style="fill:#bdd4ee;mix-blend-mode:darken"/><rect x="44.8" y="33.57" width="0.59" height="33.74" style="fill:#bdd4ee;mix-blend-mode:darken"/><rect x="48.96" y="35.97" width="0.59" height="33.74" style="fill:#bdd4ee;mix-blend-mode:darken"/><rect x="53.12" y="38.37" width="0.59" height="33.74" style="fill:#bdd4ee;mix-blend-mode:darken"/><path d="M1002.57,427.53l-0.11,0c-1.71-.58-2.32-2.93-2.9-5.2-0.47-1.83-1-3.72-2-4.32a1.34,1.34,0,0,0-1.42.33,2,2,0,0,1-2.41.2c-0.93-.71-1.16-4.12-1.47-10.09s-0.72-13.79-2.54-14.59a0.92,0.92,0,0,0-.81,0c-1.13.52-2,3.24-2.68,5.65-0.9,3-1.7,5.5-3.16,5.36s-2.39-2-3.08-3.56c-0.56-1.29-1.09-2.5-1.87-2.57s-1.87,1.94-2.59,3.42-1.19,2.4-1.78,2.5a0.67,0.67,0,0,1-.59-0.2,5.26,5.26,0,0,1-1-2.71,4.3,4.3,0,0,0-.9-2.41,0.38,0.38,0,0,0-.34-0.12c-0.5.18-.91,2-1.21,3.34-0.48,2.13-.93,4.15-2.1,4.26a0.35,0.35,0,0,1-.07-0.69c0.66-.06,1.14-2.18,1.49-3.72,0.43-1.9.8-3.54,1.65-3.85a1,1,0,0,1,1,.23,4.64,4.64,0,0,1,1.16,2.83,4.89,4.89,0,0,0,.82,2.35,7.26,7.26,0,0,0,1.25-2.11c0.89-1.84,1.91-3.94,3.28-3.81,1.2,0.11,1.8,1.51,2.45,3s1.31,3,2.51,3.14c0.9,0.1,1.71-2.54,2.42-4.87,0.81-2.67,1.64-5.43,3.05-6.08a1.61,1.61,0,0,1,1.38,0c2.06,0.9,2.52,6.87,3,15.19,0.22,4.23.47,9,1.19,9.57,0.52,0.4.94,0.18,1.63-.24a2,2,0,0,1,2.13-.33c1.26,0.74,1.76,2.69,2.29,4.74s1.1,4.26,2.45,4.72A0.35,0.35,0,0,1,1002.57,427.53Z" transform="translate(-950.34 -359.18)" style="fill:#4063ae"/><path d="M1002.57,429.16a0.34,0.34,0,0,1-.18,0c-1.67-1-2-6.12-2.32-12.06-0.32-5.37-.68-11.47-2.22-13.25a1.72,1.72,0,0,0-1.14-.74,2.34,2.34,0,0,0-1.34,1.09c-0.57.71-1.21,1.51-2.15,1.39a4.18,4.18,0,0,1-2.26-1.2,1.73,1.73,0,0,0-1.47-.7c-1.41.3-2.28,2.68-3.05,4.78s-1.59,4.36-3.09,4c-0.79-.19-1.43-1.22-2.17-2.41s-1.46-2.35-2.26-2.61a2.09,2.09,0,0,0-1.84.44,2.33,2.33,0,0,1-1.87.49c-0.7-.19-1-0.9-1.49-1.79a8.42,8.42,0,0,0-2-2.88,2.94,2.94,0,0,0-2.57-.78,1.76,1.76,0,0,1-1.79-.54,0.35,0.35,0,0,1,.54-0.45,1.1,1.1,0,0,0,1.18.3,3.61,3.61,0,0,1,3.09.95,9,9,0,0,1,2.2,3.1,2.6,2.6,0,0,0,1,1.43,1.66,1.66,0,0,0,1.32-.41,2.73,2.73,0,0,1,2.42-.5c1,0.34,1.85,1.64,2.64,2.9,0.6,1,1.23,2,1.74,2.1,0.89,0.2,1.59-1.7,2.27-3.55,0.83-2.27,1.77-4.84,3.56-5.22a2.37,2.37,0,0,1,2.07.85,3.51,3.51,0,0,0,1.88,1,2.15,2.15,0,0,0,1.53-1.13,2.76,2.76,0,0,1,1.87-1.35,2.37,2.37,0,0,1,1.67,1c1.7,2,2.05,7.91,2.39,13.67,0.3,5,.63,10.71,2,11.51A0.35,0.35,0,0,1,1002.57,429.16Z" transform="translate(-950.34 -359.18)" style="fill:#4063ae"/><path d="M977.58,396.34l0.07,0,0.07,0h0.48l0.1,0,0.08,0,0.11,0,0.07,0,0.19,0.1a4,4,0,0,1,1.82,3.16,2.07,2.07,0,0,1,0,.4h0a1.47,1.47,0,0,1-.11.33h0a1.08,1.08,0,0,1-.17.26h0a0.9,0.9,0,0,1-.22.18,1.29,1.29,0,0,1-1.31-.12,4,4,0,0,1-1.83-3.16,1.28,1.28,0,0,1,.54-1.17l0.07,0Z" transform="translate(-950.34 -359.18)" style="fill:#4063ae"/></g><g style="opacity:0.75"><path d="M982.75,391.09V373.84a1,1,0,0,0-.51-0.88l-23.63-13.64a1,1,0,0,0-1.52.88v17.25a1,1,0,0,0,.51.88L981.24,392A1,1,0,0,0,982.75,391.09Z" transform="translate(-950.34 -359.18)" style="fill:#3e60ac;mix-blend-mode:darken"/><polygon points="9.6 6.07 9.6 8.09 24.01 16.46 24.01 14.45 9.6 6.07" style="fill:#fff"/><polyline points="26.39 28.98 26.39 35.04 19.98 25.77" style="fill:#3e60ac;mix-blend-mode:darken"/><polygon points="15.83 13.82 15.83 15.83 27.71 22.73 27.71 20.72 15.83 13.82" style="fill:#fff"/><polygon points="9.6 10.2 9.6 12.21 13.86 14.69 13.86 12.67 9.6 10.2" style="fill:#fff"/><polygon points="9.6 14.3 9.6 16.32 18.6 21.55 18.6 19.54 9.6 14.3" style="fill:#fff"/><polygon points="20.57 20.68 20.57 22.7 25.34 25.47 25.34 23.45 20.57 20.68" style="fill:#fff"/></g><g style="opacity:0.75"><path d="M1010.62,435.12v-18a0.85,0.85,0,0,1,.43-0.74l19.92-11.5a0.85,0.85,0,0,1,1.28.74v18a0.85,0.85,0,0,1-.43.74l-19.92,11.5A0.85,0.85,0,0,1,1010.62,435.12Z" transform="translate(-950.34 -359.18)" style="fill:#27b465"/><path d="M1025.56,415.59l-5.74,7.42a0.36,0.36,0,0,1-.49.07l-2.13-1.49a0.36,0.36,0,0,0-.57.29V424a0.36,0.36,0,0,0,.15.29l2.54,1.8a0.36,0.36,0,0,0,.49-0.07l6.32-8.17a0.36,0.36,0,0,0,.08-0.22v-1.82A0.36,0.36,0,0,0,1025.56,415.59Z" transform="translate(-950.34 -359.18)" style="fill:#fff"/></g><g style="opacity:0.75"><path d="M950.73,388.15a0.39,0.39,0,0,1-.27-0.66l2-2a0.39,0.39,0,1,1,.55.55l-2,2A0.38,0.38,0,0,1,950.73,388.15Z" transform="translate(-950.34 -359.18)" style="fill:#54b0e3"/><path d="M952.76,388.15a0.38,0.38,0,0,1-.27-0.11l-2-2a0.39,0.39,0,0,1,.55-0.55l2,2A0.39,0.39,0,0,1,952.76,388.15Z" transform="translate(-950.34 -359.18)" style="fill:#54b0e3"/></g><path d="M1003.53,443.26a0.39,0.39,0,0,1-.19-0.05,1.51,1.51,0,0,1-.72-1.08,0.76,0.76,0,0,0-.35-0.6,0.76,0.76,0,0,0-.69,0,1.46,1.46,0,0,1-2-1.16,0.71,0.71,0,0,0-1-.6,1.46,1.46,0,0,1-2-1.16,0.71,0.71,0,0,0-1.05-.61,1.51,1.51,0,0,1-1.3-.08,0.39,0.39,0,0,1,.39-0.67,0.76,0.76,0,0,0,.7,0,1.46,1.46,0,0,1,2,1.16,0.71,0.71,0,0,0,1,.61,1.45,1.45,0,0,1,2,1.16,0.71,0.71,0,0,0,1,.6,1.46,1.46,0,0,1,2,1.16,0.76,0.76,0,0,0,.35.6A0.39,0.39,0,0,1,1003.53,443.26Z" transform="translate(-950.34 -359.18)" style="fill:#54b0e3;opacity:0.75"/><path d="M1019.36,405.76a0.35,0.35,0,0,1-.35-0.35V405a0.35,0.35,0,1,1,.7,0v0.39A0.35,0.35,0,0,1,1019.36,405.76Z" transform="translate(-950.34 -359.18)" style="fill:#231e1f"/><path d="M1019.36,403.93a0.35,0.35,0,0,1-.35-0.35v-0.72a0.35,0.35,0,1,1,.7,0v0.72A0.35,0.35,0,0,1,1019.36,403.93Zm0-2.16a0.35,0.35,0,0,1-.35-0.35V400.7a0.35,0.35,0,1,1,.7,0v0.72A0.35,0.35,0,0,1,1019.36,401.77Zm0-2.16a0.35,0.35,0,0,1-.35-0.35v-0.72a0.35,0.35,0,1,1,.7,0v0.72A0.35,0.35,0,0,1,1019.36,399.61Z" transform="translate(-950.34 -359.18)" style="fill:#231e1f"/><path d="M1019.36,397.45a0.35,0.35,0,0,1-.35-0.35v-0.19l-0.16-.09a0.35,0.35,0,0,1,.35-0.6l0.33,0.19a0.35,0.35,0,0,1,.17.3v0.39A0.35,0.35,0,0,1,1019.36,397.45Z" transform="translate(-950.34 -359.18)" style="fill:#231e1f"/><path d="M1017.67,396.09a0.35,0.35,0,0,1-.17,0l-0.68-.39a0.35,0.35,0,0,1,.35-0.6l0.68,0.39A0.35,0.35,0,0,1,1017.67,396.09Zm-2-1.17a0.35,0.35,0,0,1-.17,0l-0.68-.39a0.35,0.35,0,0,1,.35-0.6l0.68,0.39A0.35,0.35,0,0,1,1015.64,394.92Zm-2-1.17a0.35,0.35,0,0,1-.17,0l-0.68-.39a0.35,0.35,0,0,1,.35-0.6l0.68,0.39A0.35,0.35,0,0,1,1013.61,393.75Zm-2-1.17a0.35,0.35,0,0,1-.17,0l-0.68-.39a0.35,0.35,0,0,1,.35-0.6l0.68,0.39A0.35,0.35,0,0,1,1011.58,392.58Zm-2-1.17a0.35,0.35,0,0,1-.17,0l-0.68-.39a0.35,0.35,0,0,1,.35-0.6l0.68,0.39A0.35,0.35,0,0,1,1009.55,391.4Zm-2-1.17a0.35,0.35,0,0,1-.17,0l-0.68-.39a0.35,0.35,0,0,1,.35-0.6l0.68,0.39A0.35,0.35,0,0,1,1007.52,390.23Zm-2-1.17a0.35,0.35,0,0,1-.17,0l-0.68-.39a0.35,0.35,0,0,1,.35-0.6l0.68,0.39A0.35,0.35,0,0,1,1005.49,389.06Zm-2-1.17a0.35,0.35,0,0,1-.17,0l-0.68-.39a0.35,0.35,0,0,1,.35-0.6l0.68,0.39A0.35,0.35,0,0,1,1003.46,387.89Zm-2-1.17a0.35,0.35,0,0,1-.17,0l-0.68-.39a0.35,0.35,0,0,1,.35-0.6l0.68,0.39A0.35,0.35,0,0,1,1001.43,386.72Zm-2-1.17a0.35,0.35,0,0,1-.17,0l-0.68-.39a0.35,0.35,0,0,1,.35-0.6l0.68,0.39A0.35,0.35,0,0,1,999.4,385.54Zm-2-1.17a0.35,0.35,0,0,1-.17,0l-0.68-.39a0.35,0.35,0,0,1,.35-0.6l0.68,0.39A0.35,0.35,0,0,1,997.37,384.37Zm-2-1.17a0.35,0.35,0,0,1-.17,0l-0.68-.39a0.35,0.35,0,0,1,.35-0.6l0.68,0.39A0.35,0.35,0,0,1,995.34,383.2Zm-2-1.17a0.35,0.35,0,0,1-.17,0l-0.68-.39a0.35,0.35,0,0,1,.35-0.6l0.68,0.39A0.35,0.35,0,0,1,993.31,382Zm-2-1.17a0.35,0.35,0,0,1-.17,0l-0.68-.39a0.35,0.35,0,0,1,.35-0.6l0.68,0.39A0.35,0.35,0,0,1,991.28,380.86Z" transform="translate(-950.34 -359.18)" style="fill:#231e1f"/><path d="M989.25,379.68a0.35,0.35,0,0,1-.17,0l-0.33-.19a0.35,0.35,0,0,1,.35-0.6l0.33,0.19A0.35,0.35,0,0,1,989.25,379.68Z" transform="translate(-950.34 -359.18)" style="fill:#231e1f"/><path d="M1020.52,403.11l-0.07,0-0.07,0h-0.48l-0.1,0-0.08,0-0.11,0-0.07,0-0.19.1a4,4,0,0,0-1.82,3.16,2.07,2.07,0,0,0,0,.4h0a1.46,1.46,0,0,0,.11.33h0a1.08,1.08,0,0,0,.17.26h0a0.9,0.9,0,0,0,.22.18,1.29,1.29,0,0,0,1.31-.12,4,4,0,0,0,1.83-3.16,1.28,1.28,0,0,0-.54-1.17l-0.07,0Z" transform="translate(-950.34 -359.18)" style="fill:#231e1f"/><path d="M987.76,376.85l0.07,0,0.07,0h0.48l0.1,0,0.08,0,0.11,0,0.07,0,0.19,0.1a4,4,0,0,1,1.82,3.16,2.07,2.07,0,0,1,0,.4h0a1.47,1.47,0,0,1-.11.33h0a1.08,1.08,0,0,1-.17.26h0a0.9,0.9,0,0,1-.22.18,1.29,1.29,0,0,1-1.31-.12,4,4,0,0,1-1.83-3.16,1.28,1.28,0,0,1,.54-1.17l0.07,0Z" transform="translate(-950.34 -359.18)" style="fill:#231e1f"/></g></g></svg>