<svg id="Layer_3" data-name="Layer 3" xmlns="http://www.w3.org/2000/svg" viewBox="0 0 140.02 118.39"><title>machinelearning-flourish-3</title><g style="opacity:0.75"><path d="M1258.55,425h-4a0.43,0.43,0,1,1,0-.87h4A0.43,0.43,0,1,1,1258.55,425Z" transform="translate(-1169.64 -360.55)" style="fill:#54b0e3"/><path d="M1256.53,427a0.43,0.43,0,0,1-.43-0.43v-4a0.43,0.43,0,1,1,.87,0v4A0.43,0.43,0,0,1,1256.53,427Z" transform="translate(-1169.64 -360.55)" style="fill:#54b0e3"/></g><path d="M1182.7,448.19h-0.09a3.44,3.44,0,0,1-1-.38,0.43,0.43,0,1,1,.43-0.75,2.59,2.59,0,0,0,.73.28A0.43,0.43,0,0,1,1182.7,448.19Zm1.79-.14a0.43,0.43,0,0,1-.16-0.84,2.64,2.64,0,0,0,.67-0.39,0.43,0.43,0,0,1,.54.68,3.45,3.45,0,0,1-.9.52A0.42,0.42,0,0,1,1184.49,448.05Zm-3.87-1.5a0.43,0.43,0,0,1-.39-0.24,3.45,3.45,0,0,1-.31-1,0.43,0.43,0,0,1,.36-0.5,0.44,0.44,0,0,1,.49.36,2.59,2.59,0,0,0,.23.74,0.43,0.43,0,0,1-.2.58A0.44,0.44,0,0,1,1180.62,446.55Zm5.66-.44-0.13,0a0.43,0.43,0,0,1-.29-0.54,2.63,2.63,0,0,0,.12-0.77,0.45,0.45,0,0,1,.43-0.45,0.42,0.42,0,0,1,.43.42v0a3.48,3.48,0,0,1-.15,1A0.43,0.43,0,0,1,1186.29,446.11Zm-5.68-2.21a0.43,0.43,0,0,1-.39-0.62,3.52,3.52,0,0,1,.58-0.86,0.43,0.43,0,0,1,.64.58,2.66,2.66,0,0,0-.44.65A0.43,0.43,0,0,1,1180.6,443.9Zm5.27-.44a0.43,0.43,0,0,1-.36-0.19,2.6,2.6,0,0,0-.54-0.57,0.43,0.43,0,0,1,.53-0.68,3.51,3.51,0,0,1,.71.75A0.43,0.43,0,0,1,1185.87,443.46Zm-3.21-1.23a0.43,0.43,0,0,1-.1-0.86,4.77,4.77,0,0,1,.81-0.09h0.23a0.43,0.43,0,0,1,.4.46,0.45,0.45,0,0,1-.46.4h-0.18a2.58,2.58,0,0,0-.59.07h-0.1Z" transform="translate(-1169.64 -360.55)" style="fill:#54b0e3;opacity:0.75"/><path d="M1273.51,477.69a0.43,0.43,0,0,1-.22-0.06,1.69,1.69,0,0,1-.8-1.21,0.79,0.79,0,0,0-1.17-.68,1.63,1.63,0,0,1-2.26-1.3,0.79,0.79,0,0,0-1.17-.68,1.64,1.64,0,0,1-2.26-1.3,0.8,0.8,0,0,0-1.18-.68,1.69,1.69,0,0,1-1.45-.09,0.43,0.43,0,0,1,.43-0.75,0.86,0.86,0,0,0,.78,0,1.64,1.64,0,0,1,2.26,1.3,0.8,0.8,0,0,0,1.18.68,1.63,1.63,0,0,1,2.26,1.3,0.79,0.79,0,0,0,1.17.68,1.63,1.63,0,0,1,2.26,1.3,0.85,0.85,0,0,0,.4.67A0.43,0.43,0,0,1,1273.51,477.69Z" transform="translate(-1169.64 -360.55)" style="fill:#54b0e3;opacity:0.75"/><g style="opacity:0.75"><path d="M1195.35,454.18a0.29,0.29,0,0,1-.15-0.55l0.28-.16a0.29,0.29,0,0,1,.29.51l-0.28.16A0.3,0.3,0,0,1,1195.35,454.18Z" transform="translate(-1169.64 -360.55)" style="fill:#231e1f"/><path d="M1190,457.24a0.29,0.29,0,0,1-.15-0.55l0.59-.34a0.29,0.29,0,0,1,.29.51l-0.59.34A0.3,0.3,0,0,1,1190,457.24Zm1.77-1a0.29,0.29,0,0,1-.15-0.55l0.59-.34a0.29,0.29,0,1,1,.29.51l-0.59.34A0.29,0.29,0,0,1,1191.81,456.22Zm1.77-1a0.29,0.29,0,0,1-.15-0.55l0.59-.34a0.29,0.29,0,1,1,.29.51l-0.59.34A0.29,0.29,0,0,1,1193.58,455.2Z" transform="translate(-1169.64 -360.55)" style="fill:#231e1f"/><path d="M1188.86,458.24a0.3,0.3,0,0,1-.15,0l-0.28-.16a0.29,0.29,0,0,1,0-.51l0.28-.16A0.44,0.44,0,0,1,1188.86,458.24Z" transform="translate(-1169.64 -360.55)" style="fill:#231e1f"/><path d="M1212.77,472.05a0.3,0.3,0,0,1-.15,0l-0.57-.33a0.29,0.29,0,0,1,.29-0.51l0.57,0.33A0.29,0.29,0,0,1,1212.77,472.05Zm-1.71-1a0.3,0.3,0,0,1-.15,0l-0.57-.33a0.29,0.29,0,0,1,.29-0.51l0.57,0.33A0.29,0.29,0,0,1,1211.06,471.07Zm-1.71-1a0.3,0.3,0,0,1-.15,0l-0.57-.33a0.29,0.29,0,1,1,.29-0.51l0.57,0.33A0.29,0.29,0,0,1,1209.36,470.08Zm-1.71-1a0.29,0.29,0,0,1-.15,0l-0.57-.33a0.29,0.29,0,0,1,.29-0.51l0.57,0.33A0.29,0.29,0,0,1,1207.65,469.09Zm-1.71-1a0.29,0.29,0,0,1-.15,0l-0.57-.33a0.29,0.29,0,0,1,.29-0.51l0.57,0.33A0.29,0.29,0,0,1,1205.94,468.11Zm-1.71-1a0.29,0.29,0,0,1-.15,0l-0.57-.33a0.29,0.29,0,0,1,.29-0.51l0.57,0.33A0.29,0.29,0,0,1,1204.23,467.12Zm-1.71-1a0.29,0.29,0,0,1-.15,0l-0.57-.33a0.29,0.29,0,1,1,.29-0.51l0.57,0.33A0.29,0.29,0,0,1,1202.52,466.13Zm-1.71-1a0.29,0.29,0,0,1-.15,0l-0.57-.33a0.29,0.29,0,0,1,.29-0.51l0.57,0.33A0.29,0.29,0,0,1,1200.81,465.15Zm-1.71-1a0.29,0.29,0,0,1-.15,0l-0.57-.33a0.29,0.29,0,0,1,.29-0.51l0.57,0.33A0.29,0.29,0,0,1,1199.11,464.16Zm-1.71-1a0.29,0.29,0,0,1-.15,0l-0.57-.33a0.29,0.29,0,0,1,.29-0.51l0.57,0.33A0.29,0.29,0,0,1,1197.4,463.18Zm-1.71-1a0.29,0.29,0,0,1-.15,0l-0.57-.33a0.29,0.29,0,1,1,.29-0.51l0.57,0.33A0.29,0.29,0,0,1,1195.69,462.19Zm-1.71-1a0.29,0.29,0,0,1-.15,0l-0.57-.33a0.29,0.29,0,0,1,.29-0.51l0.57,0.33A0.29,0.29,0,0,1,1194,461.2Zm-1.71-1a0.29,0.29,0,0,1-.15,0l-0.57-.33a0.29,0.29,0,0,1,.29-0.51l0.57,0.33A0.29,0.29,0,0,1,1192.27,460.22Zm-1.71-1a0.29,0.29,0,0,1-.15,0l-0.57-.33a0.29,0.29,0,0,1,.29-0.51l0.57,0.33A0.29,0.29,0,0,1,1190.56,459.23Z" transform="translate(-1169.64 -360.55)" style="fill:#231e1f"/><path d="M1214.19,472.87a0.3,0.3,0,0,1-.15,0l-0.28-.16a0.29,0.29,0,0,1,.29-0.51l0.28,0.16A0.29,0.29,0,0,1,1214.19,472.87Z" transform="translate(-1169.64 -360.55)" style="fill:#231e1f"/><path d="M1197.64,453.6l0-.06v-0.06l0-.06,0-.05,0-.06,0-.05,0-.06,0-.05-0.06-.06,0,0-0.08-.06,0,0-0.15-.1a3.38,3.38,0,0,0-3.07,0,1.74,1.74,0,0,0-.27.2h0a1.23,1.23,0,0,0-.2.22h0a0.91,0.91,0,0,0-.12.23h0a0.76,0.76,0,0,0,0,.23,1.08,1.08,0,0,0,.64.9,3.39,3.39,0,0,0,3.08,0,1.07,1.07,0,0,0,.63-0.89s0,0,0-.06S1197.64,453.62,1197.64,453.6Z" transform="translate(-1169.64 -360.55)" style="fill:#231e1f"/><path d="M1216.36,472.46l0-.06v-0.06l0-.06,0-.05,0-.06,0-.05,0-.06,0-.05-0.06-.06,0,0-0.08-.06,0,0-0.15-.1a3.38,3.38,0,0,0-3.07,0,1.74,1.74,0,0,0-.27.2h0a1.23,1.23,0,0,0-.2.22h0a0.91,0.91,0,0,0-.12.23h0a0.76,0.76,0,0,0,0,.23,1.08,1.08,0,0,0,.64.9,3.39,3.39,0,0,0,3.08,0,1.07,1.07,0,0,0,.63-0.89s0,0,0-.06S1216.36,472.48,1216.36,472.46Z" transform="translate(-1169.64 -360.55)" style="fill:#231e1f"/></g><g style="opacity:0.75"><polygon points="57.12 54.52 84.81 38.39 84.65 0 56.97 16.13 57.12 54.52" style="fill:#e1eaf7"/><path d="M1240.23,379.55l0,9.89,0,9.89c-4.76,2.75-8.62.54-8.64-4.92S1235.47,382.3,1240.23,379.55Z" transform="translate(-1169.64 -360.55)" style="fill:#fff"/><path d="M1241.35,376.37c3.8-2.2,7-1.37,8.21,2.11l-8.18,7.79Z" transform="translate(-1169.64 -360.55)" style="fill:#5d95cf"/><path d="M1248.44,381.66c1.48,4.35-1,11.36-5.49,15.66a13.51,13.51,0,0,1-2.66,2l0-9.89Z" transform="translate(-1169.64 -360.55)" style="fill:#3e60ac"/></g><g id="_Group_" data-name="&lt;Group&gt;" style="opacity:0.75"><g id="_Group_2" data-name="&lt;Group&gt;"><g id="_Group_3" data-name="&lt;Group&gt;"><polygon id="_Path_" data-name="&lt;Path&gt;" points="91.52 105.46 69.28 118.39 46.74 105.29 69.13 92.52 91.52 105.46" style="fill:#f1603f"/></g></g><g id="_Group_4" data-name="&lt;Group&gt;"><g id="_Group_5" data-name="&lt;Group&gt;" style="isolation:isolate"><g id="_Group_6" data-name="&lt;Group&gt;"><path id="_Path_2" data-name="&lt;Path&gt;" d="M1241,463.54a1,1,0,0,1,0,1.87,3.55,3.55,0,0,1-3.23,0,1,1,0,0,1,0-1.87A3.56,3.56,0,0,1,1241,463.54Z" transform="translate(-1169.64 -360.55)" style="fill:#fff"/></g><g id="_Group_7" data-name="&lt;Group&gt;"><path id="_Compound_Path_" data-name="&lt;Compound Path&gt;" d="M1246,467.33a10.47,10.47,0,0,1-5.59,1.86l-8.88.61a1.81,1.81,0,0,1-1-.2,0.57,0.57,0,0,1-.35-0.58l1-5.14c0.26-1.3,1.39-2.45,3.19-3.25a12.9,12.9,0,0,1,6.25-.92,11.29,11.29,0,0,1,4.58,1.34,4.68,4.68,0,0,1,2.33,2.65A3.39,3.39,0,0,1,1246,467.33Zm-5.88.47a7.42,7.42,0,0,0,4-1.31,2.4,2.4,0,0,0,1.1-2.56,3.29,3.29,0,0,0-1.65-1.87,8,8,0,0,0-3.24-.95,9.1,9.1,0,0,0-4.42.65,3.51,3.51,0,0,0-2.26,2.29l-0.85,4.26,7.35-.51" transform="translate(-1169.64 -360.55)" style="fill:#fff"/></g></g></g></g><g id="_Group_8" data-name="&lt;Group&gt;" style="opacity:0.75"><g id="_Group_9" data-name="&lt;Group&gt;"><g id="_Group_10" data-name="&lt;Group&gt;"><polygon id="_Path_3" data-name="&lt;Path&gt;" points="84.03 86.9 74.53 92.41 59.66 83.75 69.22 78.3 84.03 86.9" style="fill:#27b465"/></g></g><g id="_Group_11" data-name="&lt;Group&gt;"><g id="_Group_12" data-name="&lt;Group&gt;"><path id="_Path_4" data-name="&lt;Path&gt;" d="M1242.11,445.32a1.42,1.42,0,0,1,.84,1.8,0.6,0.6,0,0,1-.61.21,0.66,0.66,0,0,1-.23-0.08A0.22,0.22,0,0,1,1242,447a1,1,0,0,0-.58-1.24,3.43,3.43,0,0,0-2.14-.33,0.78,0.78,0,0,1-.49-0.08,0.31,0.31,0,0,1-.13-0.13c-0.07-.16.09-0.31,0.35-0.36A5,5,0,0,1,1242.11,445.32Z" transform="translate(-1169.64 -360.55)" style="fill:#fff"/></g><g id="_Group_13" data-name="&lt;Group&gt;"><path id="_Path_5" data-name="&lt;Path&gt;" d="M1240.26,446.39a0.38,0.38,0,0,1,0,.72,1.37,1.37,0,0,1-1.24,0,0.38,0.38,0,0,1,0-.72A1.37,1.37,0,0,1,1240.26,446.39Z" transform="translate(-1169.64 -360.55)" style="fill:#fff"/></g><g id="_Group_14" data-name="&lt;Group&gt;"><path id="_Path_6" data-name="&lt;Path&gt;" d="M1243.92,444.26c1.29,0.75,1.81,1.85,1.34,2.87a0.6,0.6,0,0,1-.61.21,0.66,0.66,0,0,1-.23-0.08,0.22,0.22,0,0,1-.13-0.28c0.37-.82,0-1.71-1.08-2.31a6.41,6.41,0,0,0-4-.62,0.78,0.78,0,0,1-.49-0.08,0.31,0.31,0,0,1-.13-0.13c-0.07-.16.09-0.31,0.35-0.36A8,8,0,0,1,1243.92,444.26Z" transform="translate(-1169.64 -360.55)" style="fill:#fff"/></g></g></g><g id="_Group_15" data-name="&lt;Group&gt;" style="opacity:0.75"><g id="_Group_16" data-name="&lt;Group&gt;"><g id="_Group_17" data-name="&lt;Group&gt;"><polygon id="_Path_7" data-name="&lt;Path&gt;" points="55.48 97.95 41.26 106.22 26.66 97.73 41 89.58 55.48 97.95" style="fill:#f0598b"/></g></g><g id="_Group_18" data-name="&lt;Group&gt;"><g id="_Group_19" data-name="&lt;Group&gt;"><path id="_Compound_Path_2" data-name="&lt;Compound Path&gt;" d="M1216.77,458.9a0.34,0.34,0,0,1,0,.65l-5,2.9a1.23,1.23,0,0,1-1.11,0L1203,458a0.34,0.34,0,0,1,0-.65l5-2.9a1.23,1.23,0,0,1,1.12,0l1.82,1,0.89-.54a1.11,1.11,0,0,1,.56-0.14,1.14,1.14,0,0,1,.57.13l2.94,1.7a0.34,0.34,0,0,1,0,.65l-0.92.53Zm-5.56,2.58,3.89-2.26-1.83-1.06a0.34,0.34,0,0,1,0-.64l0.92-.54-1.81-1-0.89.54a1.12,1.12,0,0,1-.56.14,1.15,1.15,0,0,1-.57-0.13l-1.83-1.06-3.89,2.26,6.57,3.79" transform="translate(-1169.64 -360.55)" style="fill:#fff"/></g><g id="_Group_20" data-name="&lt;Group&gt;"><path id="_Path_8" data-name="&lt;Path&gt;" d="M1211,457.79a0.63,0.63,0,0,1,0,1.18,2.25,2.25,0,0,1-2,0,0.63,0.63,0,0,1,0-1.18A2.25,2.25,0,0,1,1211,457.79Z" transform="translate(-1169.64 -360.55)" style="fill:#fff"/></g></g></g><g id="_Group_21" data-name="&lt;Group&gt;" style="opacity:0.75"><g id="_Group_22" data-name="&lt;Group&gt;"><g id="_Group_23" data-name="&lt;Group&gt;"><polygon id="_Path_9" data-name="&lt;Path&gt;" points="67.03 91.05 57.36 96.68 47.44 90.9 57.18 85.36 67.03 91.05" style="fill:#f5c714"/></g></g><g id="_Group_24" data-name="&lt;Group&gt;"><path id="_Compound_Path_3" data-name="&lt;Compound Path&gt;" d="M1231.8,451.81a0.2,0.2,0,0,1,0,.37l-3.52,2a0.71,0.71,0,0,1-.64,0l-5.42-3.13a0.2,0.2,0,0,1,0-.37l3.52-2a0.71,0.71,0,0,1,.64,0Zm-1.71.62,0.75-.44-4.77-2.76-0.75.44,0.29,2.59,4.48,0.16m-2.13,1.24,1.42-.82-3-.11,1.62,0.93m-4.77-2.76,1.62,0.93-0.2-1.76-1.42.82" transform="translate(-1169.64 -360.55)" style="fill:#fff"/></g></g><g id="_Group_25" data-name="&lt;Group&gt;" style="opacity:0.75"><g id="_Group_26" data-name="&lt;Group&gt;"><g id="_Group_27" data-name="&lt;Group&gt;"><polygon id="_Path_10" data-name="&lt;Path&gt;" points="63.5 78.95 45.34 89.52 26.68 78.67 45 68.25 63.5 78.95" style="fill:#3e60ac"/></g></g><g id="_Group_28" data-name="&lt;Group&gt;"><g id="_Group_29" data-name="&lt;Group&gt;" style="isolation:isolate"><g id="_Group_30" data-name="&lt;Group&gt;"><path id="_Path_11" data-name="&lt;Path&gt;" d="M1215.8,438.21a0.43,0.43,0,0,1,0,.81,1.53,1.53,0,0,1-1.4,0,0.43,0.43,0,0,1,0-.81A1.54,1.54,0,0,1,1215.8,438.21Z" transform="translate(-1169.64 -360.55)" style="fill:#fff"/></g><g id="_Group_31" data-name="&lt;Group&gt;"><path id="_Compound_Path_4" data-name="&lt;Compound Path&gt;" d="M1223.61,439.08a0.42,0.42,0,0,1,0,.8l-6.52,3.79a1.52,1.52,0,0,1-1.38,0l-1-.61-1.26.73a1.52,1.52,0,0,1-1,.13,1.21,1.21,0,0,1-.35-0.13,0.51,0.51,0,0,1-.29-0.36l-0.27-2.22-5.1-2.94a0.42,0.42,0,0,1,0-.8l6.52-3.79a1.52,1.52,0,0,1,1.38,0Zm-7.21,3.39,5.15-3-8-4.6-5.15,3,4.67,2.69a0.51,0.51,0,0,1,.28.36l0.15,1.19,0.44-.25a1.52,1.52,0,0,1,1.38,0l1,0.61" transform="translate(-1169.64 -360.55)" style="fill:#fff"/></g><g id="_Group_32" data-name="&lt;Group&gt;"><path id="_Path_12" data-name="&lt;Path&gt;" d="M1213.85,437.09a0.43,0.43,0,0,1,0,.81,1.53,1.53,0,0,1-1.4,0,0.43,0.43,0,0,1,0-.81A1.54,1.54,0,0,1,1213.85,437.09Z" transform="translate(-1169.64 -360.55)" style="fill:#fff"/></g><g id="_Group_33" data-name="&lt;Group&gt;"><path id="_Path_13" data-name="&lt;Path&gt;" d="M1217.74,439.33a0.43,0.43,0,0,1,0,.81,1.53,1.53,0,0,1-1.4,0,0.43,0.43,0,0,1,0-.81A1.54,1.54,0,0,1,1217.74,439.33Z" transform="translate(-1169.64 -360.55)" style="fill:#fff"/></g></g></g></g><g id="_Group_34" data-name="&lt;Group&gt;" style="opacity:0.75"><g id="_Group_35" data-name="&lt;Group&gt;"><g id="_Group_36" data-name="&lt;Group&gt;"><polygon id="_Path_14" data-name="&lt;Path&gt;" points="128.95 93.76 103.3 108.67 77.3 93.57 103.12 78.83 128.95 93.76" style="fill:#3e60ac"/></g></g><g id="_Group_37" data-name="&lt;Group&gt;"><g id="_Group_38" data-name="&lt;Group&gt;"><path id="_Compound_Path_5" data-name="&lt;Compound Path&gt;" d="M1280.94,448.88c4.54,2.62,4.57,6.89.05,9.51s-11.87,2.62-16.42,0-4.56-6.89-.05-9.51S1276.41,446.26,1280.94,448.88Zm-14.46,8.41a13.91,13.91,0,0,0,12.61,0c3.47-2,3.45-5.29,0-7.3a13.91,13.91,0,0,0-12.61,0c-3.46,2-3.45,5.29,0,7.3" transform="translate(-1169.64 -360.55)" style="fill:#fff"/></g><g id="_Group_39" data-name="&lt;Group&gt;"><path id="_Path_15" data-name="&lt;Path&gt;" d="M1274.17,450.94a0.59,0.59,0,0,1,.25.26l1.68,3.68c0.19,0.42-.46.8-1.18,0.69l-6.37-1a1.27,1.27,0,0,1-.44-0.15,0.42,0.42,0,0,1,0-.8l4.69-2.72A1.52,1.52,0,0,1,1274.17,450.94Z" transform="translate(-1169.64 -360.55)" style="fill:#fff"/></g></g></g><g id="_Group_40" data-name="&lt;Group&gt;" style="opacity:0.75"><g id="_Group_41" data-name="&lt;Group&gt;"><g id="_Group_42" data-name="&lt;Group&gt;"><g id="_Group_43" data-name="&lt;Group&gt;"><polygon id="_Path_16" data-name="&lt;Path&gt;" points="39.1 88.46 32.27 92.52 25.27 88.34 32.19 84.37 39.1 88.46" style="fill:#40bb96"/></g></g></g><g id="_Group_44" data-name="&lt;Group&gt;"><g id="_Group_45" data-name="&lt;Group&gt;"><path id="_Path_17" data-name="&lt;Path&gt;" d="M1202.26,448.7a0.26,0.26,0,0,1,0,.5,1,1,0,0,1-.86,0,0.26,0.26,0,0,1,0-.5A1,1,0,0,1,1202.26,448.7Z" transform="translate(-1169.64 -360.55)" style="fill:#fff"/></g><g id="_Group_46" data-name="&lt;Group&gt;"><path id="_Compound_Path_6" data-name="&lt;Compound Path&gt;" d="M1203.36,450.55a0.22,0.22,0,0,1-.23.2l-0.86.13a0.49,0.49,0,0,1-.31,0l-0.07-.06-0.33-.42a4,4,0,0,1-.72-0.11l-0.64.27a0.5,0.5,0,0,1-.41,0l-0.63-.37a0.13,0.13,0,0,1,0-.24l0.46-.37a1,1,0,0,1-.19-0.41l-0.72-.19-0.1,0a0.14,0.14,0,0,1-.08-0.18l0.23-.5a0.35,0.35,0,0,1,.34-0.14l0.79,0,0.24-.16,0.28-.14-0.08-.46a0.22,0.22,0,0,1,.23-0.2l0.86-.13a0.5,0.5,0,0,1,.31,0l0.07,0.05,0.33,0.42a4,4,0,0,1,.72.11l0.64-.27a0.5,0.5,0,0,1,.41,0l0.63,0.37a0.13,0.13,0,0,1,0,.24l-0.46.37a1,1,0,0,1,.19.41L1205,449l0.09,0a0.14,0.14,0,0,1,.09.18l-0.23.5a0.35,0.35,0,0,1-.34.14l-0.79,0-0.24.16-0.28.14Zm-1-.07,0.34-.05-0.07-.41a0.18,0.18,0,0,1,.15-0.18,2,2,0,0,0,.33-0.15,1.4,1.4,0,0,0,.26-0.19,0.42,0.42,0,0,1,.3-0.09l0.71,0,0.09-.19-0.65-.17-0.1,0a0.16,0.16,0,0,1-.09-0.13,0.76,0.76,0,0,0-.22-0.47,0.12,0.12,0,0,1,0-.2l0.41-.33-0.25-.14L1203,448a0.52,0.52,0,0,1-.34,0,2.89,2.89,0,0,0-.82-0.13,0.46,0.46,0,0,1-.22-0.05l-0.07-.05-0.29-.38-0.34.05,0.07,0.41a0.18,0.18,0,0,1-.15.18,2,2,0,0,0-.33.15,1.4,1.4,0,0,0-.26.19,0.42,0.42,0,0,1-.3.09l-0.71,0-0.09.19,0.65,0.17,0.09,0a0.17,0.17,0,0,1,.09.13,0.75,0.75,0,0,0,.22.47,0.12,0.12,0,0,1,0,.2l-0.41.33,0.25,0.14,0.57-.24a0.52,0.52,0,0,1,.34,0,2.93,2.93,0,0,0,.82.13,0.46,0.46,0,0,1,.22.05l0.07,0.06,0.29,0.38" transform="translate(-1169.64 -360.55)" style="fill:#fff"/></g></g></g><g style="opacity:0.75"><path d="M1234.69,432.42l0-.06V432.3l0-.06,0-.05,0-.06,0-.05,0-.06,0-.05-0.06-.06,0,0-0.08-.06,0,0-0.15-.1a3.38,3.38,0,0,0-3.07,0,1.74,1.74,0,0,0-.27.2h0a1.23,1.23,0,0,0-.2.22h0a0.91,0.91,0,0,0-.12.23h0a0.76,0.76,0,0,0,0,.23,1.08,1.08,0,0,0,.64.9,3.39,3.39,0,0,0,3.08,0,1.07,1.07,0,0,0,.63-0.89s0,0,0-.06S1234.69,432.44,1234.69,432.42Z" transform="translate(-1169.64 -360.55)" style="fill:#231e1f"/><path d="M1259.64,438.12l0-.06V438l0-.06,0-.05,0-.06,0-.05,0-.06,0-.05-0.06-.06,0,0-0.08-.06,0,0-0.15-.1a3.38,3.38,0,0,0-3.07,0,1.74,1.74,0,0,0-.27.2h0a1.23,1.23,0,0,0-.2.22h0a0.91,0.91,0,0,0-.12.23h0a0.76,0.76,0,0,0,0,.23,1.08,1.08,0,0,0,.64.9,3.39,3.39,0,0,0,3.08,0,1.07,1.07,0,0,0,.63-0.89s0,0,0-.06S1259.64,438.14,1259.64,438.12Z" transform="translate(-1169.64 -360.55)" style="fill:#231e1f"/><path d="M1257.44,438.49a0.29,0.29,0,0,1-.15,0l-0.56-.33a0.29,0.29,0,1,1,.29-0.51l0.56,0.33A0.29,0.29,0,0,1,1257.44,438.49Zm-1.69-1a0.29,0.29,0,0,1-.15,0l-0.56-.33a0.29,0.29,0,1,1,.29-0.51l0.56,0.33A0.29,0.29,0,0,1,1255.75,437.52Zm-1.69-1a0.29,0.29,0,0,1-.15,0l-0.56-.33a0.29,0.29,0,0,1,.29-0.51l0.56,0.33A0.29,0.29,0,0,1,1254.06,436.54Zm-1.69-1a0.29,0.29,0,0,1-.15,0l-0.56-.33a0.29,0.29,0,1,1,.29-0.51l0.56,0.33A0.29,0.29,0,0,1,1252.37,435.57Zm-1.69-1a0.29,0.29,0,0,1-.15,0l-0.56-.33a0.29,0.29,0,1,1,.29-0.51l0.56,0.33A0.29,0.29,0,0,1,1250.68,434.59Zm-1.69-1a0.29,0.29,0,0,1-.15,0l-0.56-.33a0.29,0.29,0,0,1-.11-0.4,0.3,0.3,0,0,1,.4-0.11l0.56,0.33A0.29,0.29,0,0,1,1249,433.62Zm-1.69-1a0.29,0.29,0,0,1-.15,0l-0.56-.32a0.29,0.29,0,1,1,.29-0.51l0.56,0.32A0.29,0.29,0,0,1,1247.3,432.64Zm-14.1-.14a0.29,0.29,0,0,1-.15-0.55l0.56-.32a0.29,0.29,0,0,1,.29.51l-0.56.32A0.3,0.3,0,0,1,1233.21,432.5Zm12.41-.84a0.29,0.29,0,0,1-.15,0l-0.56-.33a0.29,0.29,0,1,1,.29-0.51l0.56,0.33A0.29,0.29,0,0,1,1245.61,431.67Zm-10.71-.13a0.29,0.29,0,0,1-.15-0.55l0.56-.32a0.29,0.29,0,0,1,.29.51l-0.56.32A0.3,0.3,0,0,1,1234.9,431.54Zm9-.85a0.29,0.29,0,0,1-.15,0l-0.56-.33a0.29,0.29,0,0,1-.11-0.4,0.3,0.3,0,0,1,.4-0.11l0.56,0.33A0.29,0.29,0,0,1,1243.93,430.69Zm-7.33-.12a0.29,0.29,0,0,1-.15-0.55l0.56-.32a0.29,0.29,0,0,1,.29.51l-0.56.32A0.3,0.3,0,0,1,1236.59,430.58Zm5.64-.86a0.29,0.29,0,0,1-.15,0l-0.56-.33a0.29,0.29,0,1,1,.29-0.51l0.56,0.33A0.29,0.29,0,0,1,1242.24,429.72Zm-3.95-.1a0.29,0.29,0,0,1-.15-0.55l0.56-.32a0.29,0.29,0,0,1,.29.51l-0.56.32A0.3,0.3,0,0,1,1238.29,429.61Zm2.26-.87a0.29,0.29,0,0,1-.15,0l-0.22-.12-0.06,0a0.3,0.3,0,0,1-.4-0.11,0.29,0.29,0,0,1,.11-0.4l0.2-.12a0.29,0.29,0,0,1,.29,0l0.36,0.21A0.29,0.29,0,0,1,1240.55,428.74Z" transform="translate(-1169.64 -360.55)" style="fill:#231e1f"/><path d="M1240.19,428.53a0.29,0.29,0,0,1-.29-0.29v-0.65a0.29,0.29,0,0,1,.59,0v0.65A0.29,0.29,0,0,1,1240.19,428.53Zm0-2a0.29,0.29,0,0,1-.29-0.29v-0.65a0.29,0.29,0,0,1,.59,0v0.65A0.29,0.29,0,0,1,1240.19,426.58Zm0-2a0.29,0.29,0,0,1-.29-0.29v-0.65a0.29,0.29,0,0,1,.59,0v0.65A0.29,0.29,0,0,1,1240.19,424.63Zm0-1.95a0.29,0.29,0,0,1-.29-0.29v-0.65a0.29,0.29,0,0,1,.59,0v0.65A0.29,0.29,0,0,1,1240.19,422.68Zm0-2a0.29,0.29,0,0,1-.29-0.29v-0.65a0.29,0.29,0,0,1,.59,0v0.65A0.29,0.29,0,0,1,1240.19,420.73Zm0-2a0.29,0.29,0,0,1-.29-0.29v-0.65a0.29,0.29,0,0,1,.59,0v0.65A0.29,0.29,0,0,1,1240.19,418.78Zm0-2a0.29,0.29,0,0,1-.29-0.29v-0.65a0.29,0.29,0,0,1,.59,0v0.65A0.29,0.29,0,0,1,1240.19,416.83Zm0-2a0.29,0.29,0,0,1-.29-0.29v-0.65a0.29,0.29,0,0,1,.59,0v0.65A0.29,0.29,0,0,1,1240.19,414.88Zm0-2a0.29,0.29,0,0,1-.29-0.29V412a0.29,0.29,0,0,1,.59,0v0.65A0.29,0.29,0,0,1,1240.19,412.93Z" transform="translate(-1169.64 -360.55)" style="fill:#231e1f"/><path d="M1241.17,410l-0.06,0-0.06,0h-0.41l-0.08,0-0.07,0-0.1,0-0.06,0-0.16.08a3.38,3.38,0,0,0-1.54,2.66,1.74,1.74,0,0,0,0,.34h0a1.23,1.23,0,0,0,.09.28h0a0.91,0.91,0,0,0,.14.21h0a0.76,0.76,0,0,0,.18.15,1.08,1.08,0,0,0,1.1-.1,3.39,3.39,0,0,0,1.54-2.66,1.07,1.07,0,0,0-.45-1l-0.06,0Z" transform="translate(-1169.64 -360.55)" style="fill:#231e1f"/></g><g style="opacity:0.5"><polygon points="3.48 58.93 20.02 49.38 20.02 42.56 3.48 52.11 3.48 58.93" style="fill:#37a8d9"/><polygon points="3.48 52.16 20.02 42.61 16.54 40.6 0 50.15 3.48 52.16" style="fill:#54b0e3"/><polygon points="5.51 62.19 19.14 54.32 16.27 52.67 2.64 60.54 5.51 62.19" style="fill:#e1eaf7"/><polygon points="3.48 59.03 3.48 52.16 0 50.15 0 57.02 3.48 59.03" style="fill:#00a2d2"/></g><g style="opacity:0.5"><polygon points="135.38 60.35 113.34 47.62 113.34 43.57 135.38 56.3 135.38 60.35" style="fill:#00a2d2"/><polygon points="135.38 56.37 113.34 43.64 117.98 40.96 140.02 53.69 135.38 56.37" style="fill:#54b0e3"/><polygon points="133.27 65.8 114.13 54.75 118.16 52.42 137.3 63.47 133.27 65.8" style="fill:#e1eaf7"/></g></svg>