<svg xmlns="http://www.w3.org/2000/svg" viewBox="0 0 70.92 56.98"><g data-name="Layer 2"><path d="M6.18 57H1a1 1 0 0 1 0-2h5.18a1 1 0 0 1 0 2zm63.74 0h-5.18a1 1 0 1 1 0-2h5.18a1 1 0 0 1 0 2z" fill="#2088ff"/><path d="M29.67 56.47a1 1 0 0 1-1-1V34.84H16v20.23a1 1 0 0 1-2 0V33.84a1 1 0 0 1 1-1h14.67a1 1 0 0 1 1 1v21.63a1 1 0 0 1-1 1z" fill="#79b8ff"/><path d="M64.74 57H6.18a1 1 0 0 1-1-1v-8.65a1 1 0 0 1 2 0V55h56.56V33.84a1 1 0 0 1 2 0V56a1 1 0 0 1-1 1zM6.18 41.24a1 1 0 0 1-1-1V1a1 1 0 0 1 1-1h58.58a1 1 0 0 1 1 1v10.52a1 1 0 1 1-2 0V2H7.18v38.24a1 1 0 0 1-1 1z" fill="#2088ff"/><path d="M56.82 45.94H36.34a1 1 0 0 1-1-1v-11.1a1 1 0 0 1 1-1h20.48a1 1 0 0 1 1 1v11.1a1 1 0 0 1-1 1zm-19.48-2h18.48v-9.1H37.34z" fill="#79b8ff"/><path d="M31.55 27.5a7.84 7.84 0 0 1-5.21-2.42c-1.06-1-11.87-9.74-12-9.83a1 1 0 0 1 .66-1.78h43.66a1 1 0 0 1 .64.24l11.26 9.48a1 1 0 0 1-1.29 1.53l-11-9.25H17.81c3.26 2.65 9.08 7.4 9.88 8.12a6 6 0 0 0 3.87 1.9 3.3 3.3 0 0 0 3-1.95 1 1 0 1 1 1.82.82 5.3 5.3 0 0 1-4.83 3.14z" fill="#2088ff"/><path d="M40.24 27.5a5.26 5.26 0 0 1-1.86-.34 1 1 0 0 1 .71-1.87 3.26 3.26 0 0 0 1.16.21 3.3 3.3 0 0 0 3-1.95 1 1 0 1 1 1.82.82 5.3 5.3 0 0 1-4.83 3.13zm8.58 0a5.26 5.26 0 0 1-1.82-.34 1 1 0 0 1 .71-1.87 3.26 3.26 0 0 0 1.16.21 3.3 3.3 0 0 0 3-1.95 1 1 0 1 1 1.82.82 5.3 5.3 0 0 1-4.87 3.13zm8.59 0a5.26 5.26 0 0 1-1.86-.34 1 1 0 0 1 .71-1.87 3.26 3.26 0 0 0 1.16.21 3.3 3.3 0 0 0 3-1.95 1 1 0 1 1 1.82.82 5.3 5.3 0 0 1-4.83 3.13zm8.59 0a5.26 5.26 0 0 1-1.86-.34 1 1 0 0 1 .71-1.87 3.26 3.26 0 0 0 1.15.21 3.3 3.3 0 0 0 3-2 1 1 0 0 1 1.82.82A5.31 5.31 0 0 1 66 27.5zm-51-.28a1 1 0 0 1-1-1V14.71a1 1 0 0 1 2 0v11.51a1 1 0 0 1-1 1z" fill="#2088ff"/><path d="M44.16 25a1 1 0 0 1-.65-.24L38.07 20a1 1 0 0 1 1.3-1.52l5.43 4.67a1 1 0 0 1-.64 1.85zm-8.64 0a1 1 0 0 1-.65-.24L29.44 20a1 1 0 0 1 1.3-1.52l5.43 4.67a1 1 0 0 1-.65 1.85zm17.22 0a1 1 0 0 1-.65-.24L46.66 20A1 1 0 0 1 48 18.53l5.43 4.67a1 1 0 0 1-.69 1.8zm8.59 0a1 1 0 0 1-.65-.24L55.25 20a1 1 0 0 1 1.3-1.52L62 23.2a1 1 0 0 1-.67 1.8zM22.23 8.42H6.51a1 1 0 0 1 0-2h15.72a1 1 0 0 1 0 2zm42.53 0H58.4a1 1 0 0 1 0-2h6.36a1 1 0 0 1 0 2z" fill="#2088ff"/><path d="M46.58 45.72a1 1 0 0 1-1-1V34.1a1 1 0 0 1 2 0v10.62a1 1 0 0 1-1 1z" fill="#79b8ff"/></g></svg>