<svg width="199" height="35" fill="none" viewBox="0 0 220 60" xmlns="http://www.w3.org/2000/svg"><g clip-path="url(#a)"><path d="M48.885 1.607h.505l14.923 17.476L79.097 1.607h.505v31.596h-4.638V16.97c0-1.7.184-4.368.184-4.461-.09.093-1.56 2.345-2.802 3.723l-7.85 9.475h-.55l-7.854-9.475c-1.148-1.333-2.618-3.54-2.752-3.723 0 .093.182 2.76.182 4.461v16.237h-4.637v-31.6ZM84.29 17.566c0-9.336 7.162-16.054 16.115-16.054 8.909 0 16.071 6.714 16.071 16.053 0 9.336-7.162 16.054-16.071 16.054-8.953 0-16.116-6.714-16.116-16.053Zm27.227 0c0-6.669-4.593-11.682-11.112-11.682s-11.156 5.013-11.156 11.681c0 6.669 4.637 11.682 11.156 11.682 6.519 0 11.112-5.01 11.112-11.681ZM121.278 1.928h8.587c10.009 0 16.666 6.257 16.666 15.637 0 9.385-6.612 15.638-16.666 15.638h-8.587V1.928Zm8.266 27c8.127 0 11.938-4.69 11.938-11.359 0-6.668-3.811-11.359-11.938-11.359h-3.396v22.718h3.396ZM149.029 27.134l3.994-2.207c1.47 2.439 3.351 4.368 7.162 4.368 3.168 0 5.42-1.7 5.42-4.278 0-2.712-1.837-3.907-5.237-5.428l-2.064-.918c-4.544-2.023-7.301-4.324-7.301-9.153 0-4.645 3.58-7.957 8.771-7.957 4.133 0 6.934 1.566 8.815 4.923l-3.811 2.345c-1.193-2.072-2.573-3.035-5.004-3.035-2.48 0-4.039 1.518-4.039 3.634 0 2.346 1.331 3.402 4.499 4.784l2.02.922c5.325 2.345 8.172 4.83 8.172 9.842 0 5.473-4.271 8.646-10.147 8.646-5.924-.003-9.507-2.948-11.25-6.488ZM182.821 21.754 171.937 1.932h5.464l6.014 11.269c.872 1.7 1.882 4.462 1.882 4.462s1.009-2.713 1.881-4.462l5.879-11.27h5.004l-10.375 19.5v11.775h-4.865V21.754Z" fill="#000"/><path d="M16.844 8.932v8.654l8.638-8.703V.229l-8.638 8.703Z" fill="#ECBC13"/><path d="M25.482.229v8.654l4.329 4.36 4.31-4.311L25.481.229Z" fill="#415B82"/><path d="M34.12 8.931 16.844 26.228v8.654L34.12 17.585V8.932Z" fill="#698CCF"/><path d="M16.844 8.932v8.654L8.207 8.883V.229l8.637 8.703Z" fill="#0E7065"/><path d="M8.206.23v8.654l-4.328 4.36-4.31-4.311L8.206.23Z" fill="#EB9494"/><path d="m-.432 8.931 17.276 17.297v8.654L-.432 17.585V8.932Z" fill="#A84C58"/></g><defs><clipPath id="a"><path fill="#fff" d="M0 0h198.218v35H0z"/></clipPath></defs></svg>
