<?xml version="1.0" encoding="UTF-8"?>
<svg width="50px" height="49px" viewBox="0 0 50 49" version="1.1" xmlns="http://www.w3.org/2000/svg" xmlns:xlink="http://www.w3.org/1999/xlink">
    <!-- Generator: Sketch 47.1 (45422) - http://www.bohemiancoding.com/sketch -->
    <title>Group 16</title>
    <desc>Created with Sketch.</desc>
    <defs></defs>
    <g id="Page-1" stroke="none" stroke-width="1" fill="none" fill-rule="evenodd">
        <g id="Group-16" transform="translate(1.000000, 1.000000)">
            <g id="Finish-your-Project">
                <g id="Group-11">
                    <path d="M27,38 L2,38 C0.772073016,38 0,37.1599711 0,36 L0,2 C0,0.840028925 0.772073016,0 2,0 L40,0 C41.227927,0 42,0.840028925 42,2 L42,27" id="Stroke-5" stroke="var(--color-marketing-icon-secondary, #79B8FF)" stroke-width="2" stroke-linecap="round" stroke-linejoin="round"></path>
                    <path d="M6,15.5204873 L6,30.2391304 C6,31.2116318 6.8954305,32 8,32 L16,32 C17.1045695,32 18,31.2116318 18,30.2391304 L18,23.3198932 M18,7.83844411 L18,7.76086957 C18,6.78836816 17.1045695,6 16,6 L8,6 C6.8954305,6 6,6.78836816 6,7.76086957 L6,15.5505803" id="Stroke-7" stroke="var(--color-marketing-icon-secondary, #79B8FF)" stroke-width="2" stroke-linecap="round" stroke-linejoin="round"></path>
                    <path d="M24,24.0567627 L24,25 C24,26.1045695 24.8954305,27 26,27 L34,27 C35.1045695,27 36,26.1045695 36,25 L36,8 C36,6.8954305 35.1045695,6 34,6 L26,6 C24.8954305,6 24,6.8954305 24,8" id="Stroke-9" stroke="var(--color-marketing-icon-primary, #2088FF)" stroke-width="2" stroke-linecap="round" stroke-linejoin="round"></path>
                    <rect id="Rectangle-5" stroke="var(--color-marketing-icon-primary, #2088FF)" stroke-width="2" x="18" y="12" width="12" height="8" rx="2"></rect>
                    <path d="M39.0491803,31.0125732 C43.4674412,31.0125732 47.0491803,34.5943124 47.0491803,39.0125732 C47.0491803,43.4308341 43.4674412,47.0125732 39.0491803,47.0125732 C34.6309195,47.0125732 31.0491803,43.4308341 31.0491803,39.0125732 C31.0491803,34.5943124 34.6309195,31.0125732 39.0491803,31.0125732 Z" id="Stroke-3" stroke="var(--color-marketing-icon-primary, #2088FF)" stroke-width="2" stroke-linecap="round" stroke-linejoin="round"></path>
                    <g id="Group" transform="translate(39.000000, 39.500000) scale(1, -1) translate(-39.000000, -39.500000) translate(38.000000, 36.000000)">
                        <path d="M1,4 L1,7" id="Stroke-11" stroke="var(--color-marketing-icon-primary, #2088FF)" stroke-width="2" stroke-linecap="round" stroke-linejoin="round" transform="translate(1.000000, 5.500000) scale(1, -1) translate(-1.000000, -5.500000) "></path>
                        <path d="M1,2 C1.55228475,2 2,1.55228475 2,1 C2,0.44771525 1.55228475,0 1,0 C0.44771525,0 0,0.44771525 0,1 C0,1.55228475 0.44771525,2 1,2 Z" id="Oval-10" fill="var(--color-marketing-icon-primary, #2088FF)" transform="translate(1.000000, 1.000000) scale(1, -1) translate(-1.000000, -1.000000) "></path>
                    </g>
                </g>
            </g>
            <path d="M12.0065308,14.0039673 L14.0065308,14.0039673" id="Line" stroke="var(--color-marketing-icon-primary, #2088FF)" stroke-width="2" stroke-linecap="round"></path>
            <path d="M10.0065308,18.0039673 L14.0065308,18.0039673" id="Line" stroke="var(--color-marketing-icon-primary, #2088FF)" stroke-width="2" stroke-linecap="round"></path>
        </g>
    </g>
</svg>