<?xml version="1.0" encoding="UTF-8"?>
<svg width="51px" height="49px" viewBox="0 0 51 49" version="1.1" xmlns="http://www.w3.org/2000/svg" xmlns:xlink="http://www.w3.org/1999/xlink">
    <!-- Generator: Sketch 47.1 (45422) - http://www.bohemiancoding.com/sketch -->
    <title>Group 21</title>
    <desc>Created with Sketch.</desc>
    <defs></defs>
    <g id="Page-1" stroke="none" stroke-width="1" fill="none" fill-rule="evenodd" stroke-linecap="round" stroke-linejoin="round">
        <g id="Group-21" transform="translate(1.000000, 1.000000)" stroke-width="2">
            <g id="Share-work">
                <path d="M0,13 L0,2 C-1.3527075e-16,0.8954305 0.8954305,2.02906125e-16 2,0 L40,0 C41.1045695,-2.02906125e-16 42,0.8954305 42,2 L42,13" id="Rectangle-14" stroke="var(--color-marketing-icon-secondary, #79B8FF)"></path>
                <path d="M32.0133057,38 L2,38 C0.8954305,38 1.3527075e-16,36.9553311 0,35.6666667 L0,19.3333333 C-1.3527075e-16,18.0446689 0.8954305,17 2,17 L40,17 C41.1045695,17 42,18.0446689 42,19.3333333 L42,31" id="Rectangle-13" stroke="var(--color-marketing-icon-primary, #2088FF)"></path>
                <path d="M36,25 L19,25" id="Stroke-7" stroke="var(--color-marketing-icon-secondary, #79B8FF)"></path>
                <path d="M36,9 L19,9" id="Stroke-7" stroke="var(--color-marketing-icon-secondary, #79B8FF)"></path>
                <path d="M27,30 L19,30" id="Stroke-9" stroke="var(--color-marketing-icon-secondary, #79B8FF)"></path>
                <path d="M42,47 L42,44 C41.124721,43.7114136 34.551963,44.1607069 33,47 C33.073903,40.5826311 41.0467529,37.9996338 42,38 L42,35 L49,41 L42,47 Z" id="Stroke-17" stroke="var(--color-marketing-icon-primary, #2088FF)"></path>
            </g>
            <rect id="Rectangle-7" stroke="var(--color-marketing-icon-secondary, #79B8FF)" x="6" y="24" width="7" height="7" rx="2"></rect>
            <rect id="Rectangle-7" stroke="var(--color-marketing-icon-secondary, #79B8FF)" x="6" y="6" width="7" height="7" rx="2"></rect>
        </g>
    </g>
</svg>