<svg viewBox="0 0 960 500" xmlns="http://www.w3.org/2000/svg"><path d="m874.5 286.2c3.1.5 5.9.7 10 2.5-2.6-17.1-25.1-69.6-25-81.6 1.5 2 5.8 3.6 9.7 4.9-5.3-7.9-31.1-87.1-30.2-65.1.5 12.4-16.5 53.7-20.1 71 5.6-4 13-10 11.7-8.4-4.5 5.5-12.5 22.2-19.8 45.7-10.3-26.6-20.1-50.1-22.2-53.5 2.9 2.7 17.6 9.3 22.2 16.4-9.6-30.8-35.6-67.5-39.6-92 2.3 3.2 8.6 8.3 17.4 9.9-18.6-22.5-30.7-94.6-38.4-106.9-2.1 15.5-17.6 84.4-29.5 111 5.1-5.2 14.4-11.2 12.3-8.8-6.6 7.8-15.4 28.7-24.5 59.5-3-4.9-5.9-9.2-8.6-12.8l-.4-2.3-1.6-.3c-3.2-4.1-6-7.2-8.3-9.2-2.2-1.9 10.5 5.1 20.2 9.8-6.3-20.3-42.5-150.2-49-123.3-2.1 8.6-6 22.5-10.6 37.3l-25.1-24-171.7 43.7c1.7 2.9 3 5.9 4.1 9.1l190.4-21.4c-8 25.1-17.4 50.8-22.8 56.2 6.7-1.5 14.1-3.3 16.7-5.7 0 2.9-1.7 8.5-4.5 15.8l-50.2-9.7c-2.5-10.7-4.3-19.1-4.8-22.2-1.7 2.2-4 9.9-6.7 20l-115.7-22.3c.2 1.6.2 3.2.2 4.9 0 3.3-.3 6.5-.9 9.6l108.6 37.8c-3.5 12.7-7.3 25.5-11.4 35.1l-102.1-59.2c-1.8 3.4-4 6.5-6.6 9.4l93.2 100.6c-3.4 6-6.4 11.8-8.4 17 1.5-2.2 7.1-8.3 11.8-13.3l2.1 2.3c-5.4 11.3-14 30.5-20.8 46.5l-88.9-143.9c-4.2 2.6-8.9 4.6-13.8 5.8l46.6 196.1h31.5c-.2.1-.3.1-.5.1h140c-1.2-1.2-3.3-7-5.8-15.1 16.1 0 32.6-.1 48-.1-2.3 7.8-4.1 13.1-5.2 14.4h121.9c15.1.2 82.4.9 105.6 0-8.2-29.4-25.2-82.2-30.5-91.3zm-268.5-52c-3.7-7.4-7.1-12.7-10-15.4-1.6-1.5 8.3 2.3 12.4 5.7-3.5-6.2-7.6-18.7-11.6-32.7l24.5 8.5c-5.4 11.7-10.9 23.6-15.3 33.9zm205.8 69.3c-.1-.2-.2-.5-.2-.7.1 0 .2.1.3.1 0 .2 0 .4-.1.6zm-462.7 74.6h40.9l20.6-194.6c-4.3 0-8.5-.6-12.5-1.7zm25.6-210.4-94.6 131.9c-11.5-30.1-28.7-52.6-37-58.6-1.8-1.3 8.1 3.4 15.7 6.6-1-2.9-3.7-9.1-7.2-16.9l116.8-71.4c-1.9-3.2-3.5-6.7-4.6-10.4l-132.2 38.6c-8.2-16.9-14.4-28.6-11.9-20.4 5 16.4-21.6 69.6-28.6 75.7 5.3-.9 11-2.2 13.1-3.8.1 7.3-17.6 33.2-27.4 51-3.1-5.7-5.9-9.7-8.3-11.6-1.2-.9 5.7 1.4 8.5 3.4-6.6-10.2-17-49.2-18.1-55.2-4.3 4.7-10.9 44.9-21.2 53.6 4.9-.6 8.4-2.6 9.7-3.8-2.2 9.4-17.3 29.2-22.7 41.1 1.7-2.1 11.3-10.9 13-12-2.1 2.3-13.8 24.7-20.4 38.6 1.9-.4 6-1.9 9.9-3-7.6 16.5-21.9 32.1-24.5 32.1h40.3c0 .1-.1.1-.1.2 28.3.6 105.1.3 134.5.1l16.7 4.5 92.8-200.8c-4.6-2.5-8.7-5.7-12.2-9.5zm-12.3-42.3-112.5-8.4-17.1 30.8 129.1-8c-.2-1.8-.3-3.7-.3-5.5 0-3.1.3-6 .8-8.9zm-55.8-69-26.1 23.7 85.4 34c1.8-4.1 4.2-7.8 7-11.2zm43.2-26.9-21.8 12.1 50.7 55.5c3.5-3 7.4-5.6 11.7-7.5l-40.6-60.1zm55-19.8c-3.6.9-28.1 8.3-28.1 8.3l25.9 67.8c2.1-.3 4.2-.6 6.3-.7l-4.1-75.4zm68.4-6-38.9 1-12.8 81.6c3.8.8 7.4 2.1 10.8 3.7l40.9-86.3zm-25.3 98.3 129.4-70.8-52.6-20.8-83.9 84.9c2.6 2 4.9 4.2 7.1 6.7z" fill="#f6f8fa"/><path d="m531.1 371.1c-39.7-34.5-113.5-59.7-177.7-24.7-3.5-5-7.2-9.2-11.1-12.6 1.1-6.3-3.9-12-17.8-11.9 8.7-19.9-12.8-13.6-17.7-1.4h-1.6c-1.8-9.9-6.5-6.8-8.2.6-7 1-13.9 3-20.4 5.5-2.6-3.9-4-7.1-4.5-11.6 55.6-9.6 10.4-57.7 1.6-22.3 5.5-34.2-22.4-5.6-12.3 6.4-16.3-11.2-29.9 7.3 6 14.4 2.2 1.7 5 10.3 5.6 14.6-.5.2-.9.4-1.4.6-7.7-3.8-23.1-11.8-24.6-12.4-16-47.6-67.7-39.9-23-3.2-57.8 4.3.4 30.7 23.4 12.3 8.8-.1 15.1 2 19.4 5.7-15.3 8-26.6 18.4-28.9 24-4.2-2-13.2-3.1-24-3.4 0-4.4-4.4-6-11.7-.1h-2.3c2.5-12.6-24.5-31-19.5 0-5.5-22.1-25.2-11.6-25.7 1.7-5.2.3-8.1 4.4-2.8 5.3-7 2.1-13.2 7.3-16.1 9.9-14-.5-33.3.2-47.6 9.3h784.6c-100.5-75.3-289.6-26.3-341.7-6.7z" fill="#e8eaee"/><path d="m2.9 377.1h955.7v1.9h-955.7z" fill="#d9dde2"/><path d="m925.3 459.6c0-7.9-98.8-14.3-220.7-14.3-37.4 0-72.7.6-103.5 1.7-22.5-1.1-46.8-1.7-72.3-1.7-113.4 0-205.4 11.7-205.4 26.2s92 26.2 205.4 26.2c107.4 0 195.6-10.5 204.6-23.9 108.3-.9 191.9-6.9 191.9-14.2z" fill="#e8eaee"/><path d="m387.8 305.1c-3.2 0-6.8-.3-10.7-1.1-20.3-4.1-26-21.6-24.8-35.4l2 .2c-1.2 12.9 4.2 29.4 23.2 33.2 19.7 4 30.4-4.5 30.5-4.6l1.3 1.5c-.4.4-7.8 6.2-21.5 6.2z" fill="#0366d6"/><path d="m377.9 325.5c-9.1 0-19.9-2.3-30.1-8.8-9.7-6.2-22.2-18.6-26.4-42.1-3.3-18.7-1-33.7 6.9-44.7 9.1-12.6 23.3-16.4 31-17.5 10.4-1.5 20.6 2.8 26.6 11.2 5.6 7.8 6.3 17.3 1.8 26-8.9 17.5-23.3 16.5-26.7 15.3l.7-1.9c3 1.1 16 1.9 24.3-14.3 4.1-8 3.5-16.8-1.6-24-5.6-7.8-15.1-11.8-24.7-10.4-7.3 1.1-21 4.6-29.7 16.7-7.6 10.5-9.8 25-6.6 43.1 4 22.8 16.1 34.8 25.5 40.8 14.6 9.3 30.4 9.8 40.4 7.1l.5 1.9c-3.4 1.1-7.5 1.6-11.9 1.6zm122.7 88.8c-7.1-2.9-9-7.4-9.3-10.6-.5-5.1 2.8-10.9 8.1-14.4 7.9-5.1 25.9-11.4 46.9-16.4 2.3-.6 4.5-1.1 6.6-1.6 15.4-3.7 25.5-6.1 49.4-10l.3 2c-23.8 3.9-34 6.3-49.3 10-2.1.5-4.3 1-6.6 1.6-20.8 5-38.5 11.2-46.3 16.2-4.7 3.1-7.6 8.1-7.2 12.5.4 3.8 3.1 6.9 8.1 8.9zm161.2-69.1h-1.5l.1-2c12.2.8 28.2-8.8 38.6-18.7 10.6-10.1 18.7-25.9 18.8-26l1.8.9c-.1.2-8.3 16.3-19.2 26.6-10.4 9.7-26.1 19.2-38.6 19.2z" fill="#0366d6"/><path d="m678.2 357.4c-7.7 0-13.4-1.7-13.7-1.8l.6-1.9c.1 0 11.3 3.3 23.4.6 14.5-3.2 26.3-10.5 39.3-24.4 3.8-4 6.9-7.8 9.5-11.7 7.6-10.9 12.2-22.9 13-33.6.9-12.2-3.4-22.1-14.4-33.2-4.3-4.4-9-6.4-13.7-5.8-4.6.6-8.8 3.6-11.6 8.3-4 6.8-3.3 11.8-2.6 16.1.2 1.4.4 2.8.5 4.1 0 1.9-.1 3.3-.3 4.6-.3 2.6-.5 4.8.8 10.2 1.9 7.6 9.4 9.8 21.4 12.7l-.5 1.9c-11-2.7-20.5-5-22.8-14.1-1.5-5.7-1.2-8.2-.9-10.9.1-1.3.3-2.6.3-4.4 0-1.2-.2-2.5-.4-3.9-.7-4.7-1.5-10 2.9-17.4 3.1-5.3 7.9-8.6 13.1-9.3 3.7-.5 9.4.3 15.4 6.4 11.3 11.4 15.9 22.1 15 34.8-.9 11.1-5.6 23.4-13.4 34.6-2.7 4-5.8 7.9-9.7 11.9-13.3 14.2-25.4 21.7-40.3 25-3.9.9-7.6 1.2-10.9 1.2z" fill="#0366d6"/><path d="m714.7 325.7c-.9 0-1.6-.3-2.2-.9-2.5-2.7-.9-8.2 2.1-12 1.4-1.8 6.3-7.8 10.4-8.3 1-.1 1.9.1 2.6.7 2.7 2.3 1.6 7.6-2.8 13-2.8 3.5-6.9 7.3-10.1 7.5.1 0 .1 0 0 0zm10.8-19.2h-.2c-2.1.2-5.7 3.2-9 7.5-2.7 3.4-3.7 7.8-2.2 9.4.1.1.3.3.8.2 1.9-.1 5.4-2.8 8.5-6.7 3.5-4.3 4.8-8.7 3-10.2-.2-.1-.4-.2-.9-.2z" fill="#0366d6"/><path d="m792.3 214.9c-28.4-9.5-46.2-6.2-56.9.9 6.1-14.3 12.4-29.4 19.4-37.5-23.3 5.6-40.8 32.7-41.5 52.6-1.8-2.2-3.9-4.3-6.3-6.3-21.5-17.1-50.4-4.4-54.8 2.1 33.4.9 53.6 14.5 65.5 20.6 9.8 14.6 5.1 69.3 2.5 74.3 1.1 2.2 5.2 2 6.8 1 2.2-19.6-2.1-63.6-.7-77.7 15.5 1.6 33.5-31.8 66-30z" fill="#79b8ff"/><path d="m721 238.2c-1.1-7.3-.3-14.6 1.7-21.2.2-.1.4-.3.6-.7.9-1.9 5.3-7.1 8.8-9.5l-.6-1c-2.6 1.7-5.5 4.9-7.4 7.3 3-7.7 7.6-14.3 12.5-18.4.3.2.6.2 1 .2.2 0 .5 0 .8-.1.8-.2 1.6-.7 2.2-1.4 1.5-1.5 1.9-3.5.9-4.4-1-1-2.9-.5-4.4 1-.7.7-1.1 1.5-1.3 2.3-.1.6-.1 1.1.1 1.6-5.4 4.5-10.4 11.8-13.4 20.5-.1-1.1-.1-2.4-.1-3.1l-1.2-.1s-.2 3.9.6 5.3c-2.2 7.3-3 15.4-1.5 23.5-2.7-3.5-6.5-7-11.1-10-4.6-3.1-9.9-5.8-15.5-7.8-1.4-1-5.1-3.6-6.5-4.3l-.5 1.1c.6.3 1.9 1.1 3.2 2-7.3-2.2-14.9-3-21.7-1.9l.2 1.1c6.3-1.1 13.4-.4 20.2 1.5-2.8 0-5.9.5-8.5 2.5l.7.9c4-3.1 9.6-2.3 12.6-1.9h.2c4.8 1.7 9.4 4 13.5 6.6-1.1.1-2.5.3-4.2.7l.3 1.1c3.3-.8 4.9-.8 5.7-.7 5.1 3.4 9.2 7.4 11.7 11.3l.2-.1v-.1l.7-.5c-.1-.2-.2-.4-.4-.5l.3-.8c.7-2 3.7-7.2 8.9-12.6 4.2-2.7 9.3-3.8 14.8-3.1l.1-1.2c-4.3-.5-8.5 0-12.1 1.5 7.7-7.1 19.1-13.6 34-13v-1.2c-26.7-.9-42 19.6-46.1 27.6zm15.8-45.5c.1-.6.5-1.2 1-1.7.7-.8 1.6-1.1 2.2-1.1.2 0 .4.1.6.2.4.4.2 1.7-.9 2.8-.5.5-1.1.9-1.7 1.1-.5.1-.9.1-1.1-.1-.2-.3-.2-.7-.1-1.2zm130.4 142.1h-2c0 .6 0 1.2-.1 1.7 0 1-.1 1.8.1 2.5l2-.4c-.1-.4-.1-1.1 0-1.9z" fill="#0366d6"/><path d="m922.8 285.7c5.9-16.7 4.4-34.4-3.9-48.5-8.3-13.9-22.7-23.2-40.8-26.2-15.8-2.6-32.1.2-45.4 7.5-6.3-3.2-21-5-26.8-2.3-1.6.7-2.5 1.8-2.8 3.1-1 5.9 1.5 20.7 5.4 28.1-.4 1.1-.6 2.3-.7 2.9-.2 1-.3 1.9-.4 2.9-.7 6.5.2 17.1 1 25.7.3 3.1.5 5.7.7 7.9 0 .1 0 .1-.1.2-7.4-6.4-13.7-9.4-14-9.6-.5-.2-1.1 0-1.3.5s0 1.1.5 1.3c.1 0 6.8 3.3 14.3 9.9-.2.9-.3 1.8-.4 2.7-6-1.7-13.8-3.8-13.8-3.8l-.5 1.9s8.2 2.2 14.2 3.9c.1 6.3 2.7 13.1 9.1 17.8-1.1 1.6-2 3.5-2.7 5.5-3 8.6-2.3 19.6 0 28l-.4.4c-6.5 5.4-15.4 13.1-18.2 16.7l1.6 1.2c2.9-3.8 13.8-13 17.7-16.2 1.2 3.7 2.7 6.7 4.2 8.5 1 1.2 2.1 2.1 3.2 2.9-5.3 7.2-11.4 17.8-13.4 26.8l2 .4c1.9-8.8 8-19.2 13.2-26.2 1.3.7 2.7 1 4.1 1 .4 0 .8 0 1.2-.1 4-.5 7.8-3.9 10.4-9.1l-.9-.4c.8-1.2 1.4-2.4 1.7-3.5.5-2.1-.2-3.1-.7-3.5-1.8-1.4-4.9.6-6.9 3.2-1 1.3-1.8 2.8-2.1 4.1-.5 2.1.2 3.1.7 3.5.3.2.7.5 1.4.5.6 0 1.3-.2 2.1-.6.2-.1.4-.2.6-.4-1.9 2.4-4.3 4-6.6 4.3-2.8.4-5.6-1-8.4-4.2-4.4-5-9.1-23.5-4.5-36.6 2.5-7.1 7.3-11.4 14.3-12.6 11.1-2 17.9 3.1 21 6.4 3.7 4 5.7 9.1 5.1 13.2-4.1.2-9.4 2.8-14.3 9.1l1.5 1.2c6.5-8.3 12.7-9 15.4-8 1.4.5 2.1 1.4 2.1 2.5-.1 1.9-2.5 4.7-9.3 6.7l.5 1.9c6.6-1.9 10.6-5.1 10.7-8.5v-.3h.1c1.9 0 3.8-.1 5.6-.2 3.2 1.6 8.3 5.8 9.3 9.3l1.9-.6c-.9-3.3-4.6-6.8-7.9-9 9.5-1.1 17.9-4 25.1-8.6 4 1 8.3 2.5 11.5 4.1 1 .5 1.9 1 2.6 1.4.2.1.4.2.5.2.3 0 .7-.2.8-.5.3-.5.2-1.1-.3-1.4-2.6-1.7-6.6-3.4-10.8-4.7-.1 0-.3-.1-.4 0-.6-.2-1.2-.4-1.9-.6 2.1-1.5 4-3.1 5.9-4.8 8.6 1.4 14.7 3.9 14.7 3.9.1.1.3.1.4.1.4 0 .8-.2.9-.6.2-.5 0-1.1-.5-1.3-.1 0-1.3-.5-3.2-1.2-2.4-.8-6.1-1.9-10.6-2.7 6.8-6.9 12-15.7 15.7-26.5zm-88.5 67.1c-.8.4-1.2.4-1.3.3s-.2-.5 0-1.4c.3-1 .9-2.2 1.8-3.3 1.7-2.2 3.3-2.9 3.9-2.9h.2c.1.1.2.5 0 1.4-.3 1-.9 2.2-1.8 3.3-.8 1.2-1.8 2.1-2.8 2.6zm-29.1-133.1c.1-.6.7-1.2 1.6-1.6 4.8-2.2 17.5-.9 23.9 1.7-1.8 1.1-3.6 2.3-5.2 3.5-3.2 2.4-6 5.1-8.4 8-2.3-3.4-4.9-6-9-9.6l-1.3 1.5c4.2 3.6 6.8 6.2 9 9.7-2.7 3.6-4.8 7.5-6.2 11.6-3.3-7.3-5.3-19.8-4.4-24.8zm27.2 81.5c-.1.3-.4.5-.8.7-.6.2-1.8.4-3.8-.6-.9-.5-1.6-1.1-1.9-1.8-.3-.5-.3-1.1-.1-1.4.3-.6 2.2-1 4.1-.1 1.8.9 2.9 2.3 2.5 3.2zm30.5 26c-.6-.9-1.5-1.6-2.7-2-.4-.1-.8-.2-1.3-.3.6-4.7-1.5-10.3-5.7-14.7-5-5.3-12-7.9-19.6-7.4.2-.3.4-.5.6-.9.8-2-.6-4.3-3.5-5.6-2.7-1.3-5.8-.8-6.7.9-.4.9-.4 2 .1 3.1.4.8 1.2 1.9 2.8 2.7l1.5.6c-4.1 1.1-7.4 3.2-10 6.4-8.2-6-9.6-15.9-7.3-22.8l.1-.2v-.2c-.1-2.2-.4-4.9-.7-8.1-.8-8.5-1.7-19-1-25.3.2-1.8.5-3.5.9-5.2.1-.4.3-.7.4-.9.3.3.9 1.2 1.9 4.4 2.2 7.9 6 13.2 11.6 16.2 8.1 4.4 19.9 4.1 37.2-1 10.6-3.2 18.7-1.2 23.2 5.7 6.3 9.6 4.3 26.6-1.8 33.7-1.3 1.5-.4 3.6.7 6 2 4.2 4.2 9-3.6 13.1-5.3 1.2-11 1.9-17.1 1.8zm32-7.8c-3 1.7-6.1 3.2-9.5 4.4 3.7-4.3 1.5-9 0-12.4-.8-1.6-1.5-3.3-1-3.9 6.5-7.6 8.7-25.8 2-36.1-3.5-5.4-10.8-10.9-25.4-6.5-16.7 5-28 5.4-35.6 1.2-5.1-2.8-8.5-7.7-10.6-15-1.1-3.7-2.1-5.6-3.4-5.9 2.6-7.7 7.8-14.7 15.3-20.4 13.8-10.5 32.9-14.9 51.2-11.9 17.4 2.9 31.4 11.8 39.4 25.2 8.1 13.6 9.4 30.7 3.8 46.8-3.9 11-9.2 19.9-16 26.6-4.3-.6-9.1-.9-14.2-.4l.2 1.9c4.3-.4 8.5-.2 12.2.2-1.9 1.7-3.8 3.2-5.9 4.6-2.6-.6-5.1-1.1-7.2-1.2l-.1 1.9c1.3.3 3 .5 4.8.9zm22.6 134.1c-1.2-.9-3.1-1.4-5.4-1.3-1.8-4.7-5.6-8.3-11.1-10.5-2.5-1-5.1-1.5-7.6-1.8-3.1-5.7-8.5-30.7-8.2-44.4h-2c-.3 12.8 4.4 36.4 7.9 44.3-4.9-.2-9.4.8-12.2 2.4l1 1.7c4.2-2.4 13-3.1 20.4-.3 3.4 1.3 7.7 3.9 9.8 8.9-1.5.3-3.2 1-4.9 2l1 1.7c4.8-2.8 8.6-2.2 10.1-1.1.6.4.8.9.6 1.5-.4 1.6-3.8 3.9-11.8 4.8-10.3 1.3-31.1-3.5-39.4-8 1.7-8.2 2.1-55 2-57.1l-1.9.1c.1 3.6-.4 50.9-2 56.8-3.1 1.6-18.7 7.6-29.9 7.9-4.9.1-11.3-.9-13.3-2.9-.4-.4-.6-.8-.6-1.2 0-.8.3-1.4 1-1.7 2.3-1.2 7.5.2 10.3 2.2l1.2-1.6c-1.9-1.4-4.7-2.5-7.3-2.9 3.8-7.7 9-12.6 15.6-14.4 6.2-1.7 11.5 0 12.3.6l1.1-1.6c-1.1-.8-6.3-2.5-12.6-1.2.3-1.2.6-2.5 1-4 2.3-8.7 6.2-23.3 6.8-39.4l-1.9-.1c-.6 15.8-4.4 30.3-6.7 38.9-.5 1.9-1 3.6-1.3 5-5 1.5-11.7 5.6-16.5 16-1.1 0-2.2.2-3 .6-1.3.7-2.1 1.9-2.1 3.5 0 1 .4 1.9 1.2 2.7 2.8 2.7 9.9 3.4 14.1 3.4h.7c11.5-.4 27.1-6.3 30.7-8.1 7.6 4.2 25.1 8.5 36.5 8.5 1.5 0 2.9-.1 4.1-.2 7.7-1 12.6-3.2 13.4-6.3.6-1.2.1-2.5-1.1-3.4z" fill="#0366d6"/><path d="m830.3 345.2c2.1 0 4.2-1.2 5.5-3.1.7.3 1.3.4 1.6.5l.5-1.9c-1.6-.4-9.8-3-15.3-10.9-3-4.3-4.1-5-5.2-4.6-1.1.3-1.1 1.6-1.1 2.5v.4l2 .2v-.6c.5.5 1.3 1.5 2.6 3.3.8 1.1 1.6 2.1 2.5 3.1-.1.7-.2 1.4-.2 2.1 0 4.9 3.2 9 7.1 9zm3.7-3.9c-.9 1.2-2.3 1.9-3.7 1.9-2.8 0-5.1-3.2-5.1-7.2v-.4c3.1 2.9 6.3 4.7 8.8 5.7zm-19 27c2.8-4.1 3.2-8.4.9-9.8-2.2-1.5-6 .5-8.7 4.6-2.8 4.1-3.2 8.4-.9 9.8.5.3 1.1.5 1.7.5.8 0 1.8-.3 2.8-.9 1.5-.9 3-2.4 4.2-4.2zm-7.6 3c-.9-.6-.8-3.6 1.5-7.1 2.3-3.4 5-4.7 6-4.1.9.6.8 3.6-1.5 7.1-1 1.6-2.4 2.9-3.6 3.6-1 .6-1.9.8-2.4.5zm97.4-131.4c2.7 3.2 7 15.7-2.1 28.4l1.6 1.2c10.1-14.1 4.9-27.7 1.8-31.1l-.2-.2-.2-.1c-5.2-1.9-18.8-5.1-31.6 6.4l1.3 1.5c11.9-10.7 24.4-7.9 29.4-6.1z" fill="#0366d6"/><path d="m893.3 245.4c4.5 4.8 5.9 11.9 4.3 21.1l2 .3c1.7-9.9.1-17.6-4.8-22.8-.8-.9-2.3-1.3-4.3-1.3-5 .1-12.5 2.8-16.4 7.2l1.5 1.3c3.5-4 10.5-6.5 14.9-6.5 2 0 2.6.5 2.8.7z" fill="#0366d6"/><path d="m834.4 339.8c.8 11.8 6.2 44.7 9.6 53.9.4 1.1 1.3 1.9 2.5 2.1 10.3 2 37 1.2 44.6-.9.8-.2 1.5-.8 2-1.6 4.4-7.8 13.4-36.9 17.1-50 .6-2.1-.9-4.1-3-4.3-14-.9-56.6-2.3-69.2-2.9-2.1 0-3.8 1.7-3.6 3.7z" fill="#ffd051"/><path d="m851.6 378.1c-5.5.7-9.5 6.8-6.3 15.4.4 1 1.2 1.7 2.3 2 9.5 1.9 36.3 1.1 43.3-.8.8-.2 1.4-.7 1.8-1.4 4-7.2 12.4-34.2 15.9-46.4.5-1.9-.8-3.8-2.8-4-12.9-.9-16.3 37.9-33.4 40.9-11.7 2.1-12-6.7-20.8-5.7z" fill="#fac237"/><path d="m907.1 339.1c-6.6-.4-66.2-2.8-68.6-2.8-2-.1-4.7.2-4 5.4.6 4.4 1.9 15.6 3.1 22.9-.3-3.2.3-7.4 0-11.9-.3-4.2-.8-7.9-.9-10.2-.1-2-1.2-4 3.2-4s51.5 1.6 54.7 1.9c3.3.1 9.2-1.1 12.5-1.3z" fill="#fedd6a"/><path d="m838.3 338.6c20 .4 62.6.4 68.4.1s-68.6-3.8-70.3-2.2 1.9 2.1 1.9 2.1z" fill="#fdfad2"/><path d="m322.5 418.1 8.8 26.5 352.2 1.2 6-24.5z" fill="#79b8ff"/><path d="m351.9 444.7.4 22.5 312.3 1.9.2-23.4z" fill="#79b8ff"/><path d="m352.7 444.7c10.8 24.2 94.2 4.8 135.4 7.1 43.1 2.4 43 7.8 114.9 7.8 28.9 0 51.8-7 61.8-13.9z" fill="#168cfa"/><path d="m655.4 394.9-286.5.5-46.4 22.7 367 3.2z" fill="#c8e1ff"/><path d="m354.4 456.7c-1.4 2.5 0 9.9.3 12.1-.6-2.4-2.6-10.1-5.5-15.2-2.2-3.8-7.8-.6-6.4 2.7 2.4 5.6 7.3 9.4 10.2 11.5-2.7-1.6-7.1-4-9.3-3.8-4.1.3-2.8 5.5.1 6.2 4.7 1.1 8.5-.4 11-1.2.1 0 .1 0 .2-.1h-.1c1.7-2 4.7-5 5.5-9.8.4-3-4.1-6.2-6-2.4z" fill="#d1d5da"/><path d="m349.6 413.9s26-12.9 30-13.4c8.7-1.1 17.4.9 26 1.9 23.7 2.7 47.5-2.3 71.4-2.7 7.2-.1 14.5.2 21.7-.7 10.7-1.4 18.9-8.4 27.2-14.9 5.4-4.1 16.6-18.4 24.2-13.7 3.5 2.2 10.5 9.6 14.5 11 4.1 1.4 6.1.4 10 1.4 4.9 1.3 9.3 4.2 12.2 8.3.4.6.9 1.3 1.5 1.6s1.3.2 2 .1c5.7-.7 8.9-.7 14.3 1.5 6.7 2.8 14.1 2.5 21.2 2.6 6.5.2 13 1 19.5 1.3 4.3.2 16.5 15.6 18.1 15.6-2.6-2.1-313.8.1-313.8.1z" fill="#fff5b1"/><path d="m357 413.4 298.2-.2s-5.1-2.1-9.8-2.8-39.2.4-49.3 1.4-47.8-.8-52.7-2.3-22.4-6.1-27.6-2.5-9.8 1.2-18.1 2.5-25.9 3.6-31.9 2.9c-6-.6-41.4-.2-46.4-.6-5.1-.5-7.6-2.2-15.3-1.2s-29.1-1.4-35.3 0-10.2 2.3-11.8 2.8zm187-39.5c-2.4 0-5.7 3.4-6.8 4.9 2.4-.7 3.8-3.2 6-1 .4-1.8 2.2-1.3 3.5-.2 0-1.9 1-3.5 3.3-4.1-4.2-1-5.1.4-6 .4z" fill="#ffd33d"/><ellipse cx="548.7" cy="382.9" fill="#fac237" rx="1.3" ry=".8"/><ellipse cx="542.9" cy="381.7" fill="#fac237" rx=".7" ry=".7"/><ellipse cx="552.1" cy="378.6" fill="#fac237" rx=".6" ry=".6"/><ellipse cx="539" cy="380.5" fill="#fac237" rx=".3" ry=".3"/><ellipse cx="551.6" cy="382.4" fill="#fac237" rx=".3" ry=".3"/><ellipse cx="550.1" cy="379.5" fill="#fac237" rx=".6" ry=".3"/><path d="m538.7 303.1c-9.9 30.9-5.4 51.2-.1 62.2-9-9.5-18.1-8.4-35.9-9.6 11.1 17.7 33.5 23 42.8 19.1 0 0 .1 0 .1.1 5.6-8.4 15.7-31.6-6.9-71.8z" fill="#79b8ff"/><path d="m548.5 352.4-.8-.8c-1.1 1.1-2.7 3.4-3.9 5.6-.4-5.8-1-12.1-1.5-17.6.3-1.4.9-4.2 1.7-5.2l-.9-.7c-.4.6-.8 1.5-1.1 2.6-.5-5.1-.9-9.5-.8-10.3 1.5-.5 2.6-1.9 2.6-3.6 0-2.1-1.6-3.8-3.6-3.8s-3.6 1.7-3.6 3.8c0 1 .4 2 1 2.7s1.5 1.1 2.4 1.1c0 1.3.3 4.7.9 10.8.6 6.4 1.5 14.5 1.9 21.5-1.6-2-3.6-5-4.1-7l-1.1.3c.8 3.2 4.8 8 5.2 8.5l.1.1c.2 4.3.2 8.1-.1 10.6-1.8-1.7-5.2-4.4-11.1-7l-.1-.1c-.8-1.2-2.1-3.1-4.1-3.9l-.4 1.1c1.1.4 1.9 1.3 2.6 2.1-.4-.2-.8-.3-1.3-.5h-.1c-4.7-1.7-10.7-3.2-18.1-4.1l-.1 1.2c6.4.7 11.7 2 16 3.4-2 .5-4.3 1.4-5.4 2l.6 1c1.4-.8 5.2-2.1 6.9-2.3 8.9 3.3 15 8.6 15 8.6l.6.1c.6-2.6.6-7.4.3-13 .9-2.4 3-5.9 4.4-7.2zm-10.8-30.1c0-1.4 1.1-2.6 2.4-2.6s2.4 1.2 2.4 2.6-1.1 2.6-2.4 2.6c-.6 0-1.2-.3-1.7-.8-.4-.4-.7-1.1-.7-1.8z" fill="#0366d6"/><ellipse cx="722.2" cy="395.3" fill="#fff" opacity=".3" rx="1.1" ry=".8"/><path d="m729.8 319.4c-1.2-.4-2.5-.8-3.9-1-5.1-.8-11.8.2-14.5 3.2-2.2 2.4-2.6 5.6-3 8.5-2.1 19.7 2 39.8 8.9 58.6 19.6-15.9 26.6-62.7 12.5-69.3z" fill="#fff5b1"/><path d="m736.5 327.2c-.4-1.8-1-3.7-2.4-5.2-1.1-1.1-2.6-2-4.3-2.6 2.5 1.6 4.5 4.5 3.4 7.9-5.5 8.4-18.4 2.1-22.8-.1 2.6 3.6 13.9 11.1 23.4 3.2.5 2.1.4 3.1.6 5.4-6.8 9.5-24.1.8-24 1.4.1.7 10.4 11.2 24.4 3.4.1 2.1.1 4.3-.1 6.5-8.4 7.1-24.3-1.1-24.3-.3-.1.8 9.8 11.5 23.7 5.7-.3 2.1-.6 3.5-1.1 5.6-7.3 5.9-21.4-1.1-21.6-.3s11.4 9.8 20.2 5.1c-.5 1.6-1.1 3.2-1.8 4.7-.2.5-4.3 4.4-17-.2-.5 1 8.3 7 14.8 4.7-.7 1.4-1.5 2.8-2.3 4.1-.4.6-5.2 1-9.5-.6-.3.5 4.2 4.6 7.3 4-1.9 2.6-4 5.1-6.3 7.5.7 2 1.5 4 2.3 5.9 1.2 2.8 2.9 5.5 3.9 8.4 5.4-10.8 8.9-23 11.7-34.4 3.2-13.2 4.9-26.6 1.8-39.8z" fill="#ffd33d"/><path d="m414.6 133.4c-.6-1.2-1.7-2-2.8-2.5-.9-.4-1.9-.5-2.9-.4-22.7 3.1-43.9 35.1-48.8 63-.6 3.1 1.5 6.2 4.6 6.8 1.7.3 4.7 1.3 8 2.4 3-6.2 5.3-10.8 6-12.3 3-6.3 10.7-4.9 9.3 1.9 0 0-2.1 7.3-4.8 14.7l6.1 3.4c2.6 2 6.2 1.7 8.3-.8 16-19.5 27.1-58.7 17-76.2z" fill="#fff5b1"/><path d="m414.6 133.4c-.6-1.2-1.7-2-2.8-2.5-3.7 8.3-16.9 36.8-25.6 56 1.5.8 2.4 2.7 1.8 5.4 0 0-2.1 7.3-4.8 14.7l6.1 3.4c2.6 2 6.2 1.7 8.3-.8 16-19.5 27.1-58.7 17-76.2z" fill="#ffd33d"/><path d="m387 200.9 4.2 2.2c.5.2 1-.1 1.1-.6l.8-7c.1-.7-.8-1.1-1.3-.6l-5 4.8c-.4.4-.3 1 .2 1.2z" fill="#fff5b1" opacity=".3"/><path d="m343.4 263c-1.8 4.3 13.8 11.3 16.9 5.5 1.3-2.5 26.3-69.7 27.7-76.2 1.4-6.8-6.3-8.2-9.3-1.9-3 6.4-33.4 68.1-35.3 72.6z" fill="#79b8ff"/><path d="m354.7 263.9c-1.8 4.3 3 5.7 5.7 4.6 1.3-2.5 26.3-69.7 27.7-76.2-1.9.6-3 2.7-6 9-3.1 6.4-25.6 58.1-27.4 62.6z" fill="#168cfa"/><ellipse cx="351.5" cy="266.4" fill="#168cfa" rx="3.4" ry="8.8" transform="matrix(.30740644 -.95157831 .95157831 .30740644 -10.079711 518.953135)"/><path d="m902.5 388c-12.5 0-24.8-7.7-25.7-16.3-.5-5.3 2.9-15 32.3-19.8h.4c6.9 1.6 10.6 6.8 10.2 14.3-.6 10.1-8.4 20.8-15.7 21.7h-.1c-.5.1-1 .1-1.4.1zm6.7-34c-28.6 4.7-30.8 13.8-30.4 17.5.8 7.8 13.2 14.9 25 14.4 6.4-.7 13.4-10.7 13.9-19.8.2-3.6-.7-10.1-8.5-12.1z" fill="#0366d6"/><path d="m577.2 384.4c.1-.1 1.2-1.3 1.1-2.8 0-.6-.3-1.6-1.3-2.4-1.9-1.5-5.5-1.2-12.7 1l.6 1.9c2.2-.7 9.1-2.9 10.9-1.4.4.3.6.6.6 1 0 .5-.4 1.1-.5 1.3z" fill="#0366d6"/><path d="m665.8 354.3h1.2c5.4 0 11.1-.1 11.2-4 0-.8-.3-1.5-.9-2.1-3-2.7-13.3-1.5-16.1-1.1.4-2.9-.4-4.8-2.3-5.8.6-.8 1.1-1.5 1.7-2.3 2.3 0 4.4.2 6.1.5h.2c.5 0 .9-.3.9-.8.1-.5-.2-1-.8-1.1v-.1c-1.4-.3-3.2-.4-5.1-.5 1.3-2 2.6-4 3.8-6.1 3.2-.2 5.2-.1 5.3-.1.6 0 1-.4 1-.9s-.4-1-.9-1v-.1c-.2 0-1.7-.1-4.2.1 8.5-15.5 12.4-34.2-.2-61.1-6.9-14.9-21.8-25.5-41-29.3-19.3-3.8-39 .6-50.3 11.1-4.9 4.6-8.8 9-11.8 13.2-6.7 0-17.5 6.5-20.8 10.1-.8.9-1.2 1.7-1.1 2.3.4 2.6 5.2 9.6 12.2 15.1 0 2.5.1 5 .5 7.4v1.1h.2c.3 2 .7 4.1 1.2 6 2.6 11.1 6.3 17.8 8.4 21.9 1 1.8 1.8 3.2 1.8 4 .1.5 0 1-.1 1.5-5.7-4.9-10.6-7.3-10.8-7.4-.5-.2-1.1 0-1.3.5s0 1.1.5 1.3c.1 0 5.3 2.5 11.1 7.7-.2.6-.3 1.2-.4 1.9-4.7-1.3-10.4-2.8-10.4-2.8l-.6 1.6s6.2 1.7 10.9 3c.1.7.3 1.6.6 2.5.4 1.2 2.7 7.7 10.3 13.6 8.1 6.2 18.8 9.4 31.9 9.4 5.2 0 10.4-.7 15.2-1.8-3.7 2.4-7.7 4.8-11.7 7.1 0-.3-.1-.5-.2-.6-1-2-4.5-4.7-16.5.1-5.2 2.1-8.6 4.8-9.5 7.4-.3 1-.3 2 .2 2.8.6 1 2.1 1.4 4.1 1.4h1.1c-4.3 2.2-8.1 3.9-10.6 5l.8 1.8c3.8-1.6 10.2-4.7 17.4-8.5 1-.4 2-.7 2.7-1.1 3-1.5 5.1-2.8 6.6-3.9 7.6-4.2 15.3-8.8 21.4-13 .7-.2 1.5-.4 2.2-.7v.1c.1 0 .5-.2 1.2-.5 2.7-.9 5.2-1.8 7.3-2.7-3.4 3.4-8.1 7.5-15.3 12.6-17.7 12.6-31.2 16.5-47 20.1-13.6 3.3-31.4 11.2-32.6 15.9-.4 1.5-.2 2.8.5 4 1.4 2.1 4.9 3.5 10.9 4.3.3.2.6.4 1 .6l.9-1.7c-.4-.2-.8-.5-1.2-.8h-.1c-1.7-1.4-2.3-3.3-1.8-5.4l-1.9-.5c-.5 1.9-.2 3.8.8 5.4-3.7-.7-6.1-1.7-7-3-.4-.7-.5-1.4-.3-2.4.8-2.9 15.4-10.7 31.2-14.5 16-3.7 29.6-7.6 47.7-20.5 15-10.7 19.6-17.1 22.9-21.7l1.8-2.4c4-5.2 6.8-3.9 7.8-3.4 1.7.8 1.7 3.4.1 7.8-.1.3-.2.7-.4 1.1-8.4 24.6-27.2 44.9-55.7 60.4l1 1.8c15.5-8.5 28.2-18.3 38-29.5 2.3-.1 17.1-.9 24-.5l.1-2c-1.7-.1-3.9-.2-6.2-.1 1.5-3 2.4-8.3 1.4-12.9l-2 .4c1.2 5.2-.4 10.9-1.8 12.5-3.3.1-6.8.2-9.6.3 4.6-3 8.7-8.4 8-18.4 1.8-3.7 3.4-7.5 4.8-11.4.1-.4.3-.8.4-1.1.1-.4.3-.7.4-1.1.9 1.3 1.9 2.6 2.8 3.8v.1h.1c1.2 1.5 2.5 3 3.7 4.5 6.4 7.6 12.4 14.7 12.5 28 .1 10.2-4 16-7.5 19.2-4 3.6-8.5 4.9-11.1 4.6l-.2 2h.9c3.1 0 7.8-1.5 11.8-5.2 3.7-3.4 8.2-9.7 8.1-20.7-.1-14-6.3-21.4-13-29.3-.6-.8-1.6-1.9-2.5-3zm-78.7 23.2c-.2-.3-.2-.7 0-1.2.3-.8 1.6-3.4 8.4-6.2 8.7-3.5 12.9-2.9 13.9-1.2-.1.4-1 1.3-2.9 2.6-3.1 1.7-6.2 3.4-9.2 4.9-4.6 1.6-9.6 1.9-10.2 1.1zm-43.3-102.5c.4-1.8 11.4-9.2 18.5-10.2-2.9 4.4-4.9 8.6-6.2 12.7-2.3-1.6-6.4-2.4-10.1-1.9l.2 1.9c3.9-.5 7.9.6 9.3 2-.8 2.8-1.2 5.6-1.4 8.3-6.3-5.2-10.1-11.2-10.3-12.8zm64 86.5c-26.7 0-38-14.1-40.3-21.6-.3-1-.5-1.8-.5-2.5v-.3c0-1.3.3-2.3.6-3.3s.7-2.1.6-3.4c-.1-1.2-.9-2.6-2.1-4.8-2.1-3.9-5.7-10.5-8.3-21.4-.5-2.2-1-4.5-1.3-6.8.1-4.4.8-5.5 1-5.7.1.1.3.2.6.6.2.3.4.8.7 1.4 1.6 3.6 5.2 11.9 15.4 11.3 5.4-.3 10.4-2.3 15.7-4.4 5.9-2.4 11.9-4.8 19.1-5h.7c13.2 0 16.6 7.8 18.3 16.3 1.2 6.2.4 13-.2 18-.3 2.7-.6 4.8-.4 6.1.1 1.7 1.8 3.3 3.7 5.2 2.6 2.6 5.6 5.5 5 9.1-.6 4.3-3 6.2-4.4 6.9-1.1.4-2.3.7-3.5 1.1 0 0-.1 0-.1.1-6.2 1.7-13.2 3.1-20.3 3.1zm40.9-16.2c-.6.8-1.2 1.6-1.8 2.5-1.1 1.5-2.4 3.3-4.1 5.3l-.1-.2c-1.8.8-4 1.7-6.5 2.7.8-1.2 1.5-2.9 1.8-5 .7-4.6-2.8-8.1-5.6-10.8-1.5-1.4-3-2.9-3.1-3.9-.1-1.1.1-3.2.4-5.7.6-5.1 1.4-12.1.2-18.6-1.8-9-5.6-18.2-21-17.9-7.5.2-13.8 2.7-19.8 5.1-5.1 2.1-9.9 4-15 4.3-8.8.5-11.8-6.4-13.5-10.1-.3-.7-.6-1.3-.8-1.7-1.1-1.7-2.3-1.6-2.8-1.5-.3.1-.6.3-.9.6.1-11.6 4.8-24.4 20.8-39.3 10.9-10.1 29.9-14.2 48.6-10.6 18.5 3.6 32.9 13.9 39.5 28.2 12.6 27 8.5 44.9-.4 60.5-4.8.5-11.8 1.8-18.7 5l.8 1.8c4.1-1.9 8.2-3.1 11.8-3.9 1.7-.3 3.4-.6 4.8-.8-1.2 2-2.5 3.9-3.8 5.8-4.3 0-9.1.5-12.6 1.5l.5 1.9c2.6-.8 6.2-1.2 9.6-1.4h1c-.4.6-.8 1.1-1.2 1.7-2.6-.6-5.3 1-8.1 4.5zm-6 37.3c.1-.1.2-.2.3-.4l.1.3c-.1.1-.2.1-.4.1zm.4-.5c3.8-4.6 7-9.4 9.8-14.4-.3 5.4-2.6 11.3-9.8 14.4zm32.9-32.4c.2.2.3.4.2.6-.1 2-5.1 2-9.2 2h-2.7l-2.4-3.3c5.8-.7 12.5-.7 14.1.7zm-147.7 47.8c-3-1.4-6.3-2.9-6.7-4.2-.6-1.9-.6-3.5.2-4.9 1.2-2.2 4.3-4 9.2-5.3l-.5-1.9c-5.5 1.4-9 3.5-10.5 6.3-1 1.9-1.1 4.1-.3 6.5.7 2.1 3.8 3.5 7.8 5.4 4.4 2 9.4 4.3 10.1 7.4.3 1.5.2 2.7-.5 3.6-1.3 1.8-4.2 2.1-4.2 2.1l.2 2c.2 0 3.8-.3 5.6-2.9 1-1.4 1.3-3.2.9-5.2-1-4.2-6.5-6.7-11.3-8.9zm-35 6c-.4-4.4 2.5-9.5 7.2-12.5l-1.1-1.6c-5.3 3.4-8.6 9.2-8.1 14.3.3 3.2 2.1 7.6 9.3 10.6l.7-1.8c-4.9-2-7.7-5.1-8-9z" fill="#0366d6"/><path d="m525 411.4v2c3.7 0 6.4-3.8 7.1-7.6l-2-.4c-.5 3-2.6 6-5.1 6zm-150.8-92.4c2.1 0 3.8-.6 4.6-2.2s.6-3.4-.6-5.1c-2.6-3.9-10.1-7.3-15.1-6.9-2.7.2-3.8 1.4-4.2 2.4-1.7 3.6 2.7 7.4 7.1 9.6 2.6 1.3 5.7 2.2 8.2 2.2zm-13.5-11c.4-.9 1.7-1.2 2.6-1.3h.6c4.3 0 10.5 2.9 12.6 6 .8 1.1.9 2.2.5 3.1-.9 1.8-5.5 1.4-10.2-.9-3.8-1.8-7.1-4.8-6.1-6.9zm-15.7-36.6c-1.2 0-2.9.5-4 2.8-.7 1.5-1.1 3.5-1.1 5.9 0 7.1 3.5 17.5 9.8 17.5 1.3 0 2.3-.7 3-2 .5-1 .7-2.4.7-4.1.1-6.4-3.9-20.1-8.4-20.1zm6 23.3c-.4.8-.8.9-1.2.9-4.4 0-7.8-8.3-7.8-15.5 0-2.1.3-3.8.9-5 .8-1.7 1.8-1.7 2.2-1.7 2 0 6.5 10.5 6.5 18.1-.1 1.4-.3 2.5-.6 3.2zm138.9 4.8c-2.5-.8-6-.2-6.8 2v.1c-.2.7-.2 1.5.3 2.2.9 1.5 3.2 2.5 5 2.8.9.2 1.8.3 2.6.3 1.3 0 2.5-.3 3.2-1.3.5-.7.5-1.5.2-2.4-.6-1.5-2.4-3-4.5-3.7zm2.6 4.9c-.4.5-1.7.6-3.8.2-1.6-.3-3.2-1.1-3.6-1.9-.1-.2-.1-.4-.1-.5.4-.8 2.5-1.4 4.4-.8 1.7.5 2.9 1.6 3.2 2.4 0 .4-.1.6-.1.6zm-6.2-116-.8-1.8c-8.2 3.6-19.8 13.4-25.4 29.1l1.9.7c5.4-15.2 16.5-24.6 24.3-28z" fill="#0366d6"/><path d="m516.3 312.5c-.3-.1-7-3.3-12.5-3.9v-2.7c6.2-2.7 16.1-2 16.2-1.9.6.1 1-.4 1.1-.9 0-.6-.4-1-.9-1.1-.4 0-9.9-.8-16.6 1.8-.1-.9-.2-1.8-.3-2.5-.2-1-.3-2.2-.3-2.4.1-.2.9-1.2 1.8-2.2 6-7 21.8-25.6 24.4-47.1 0-.4.1-.8.1-1.1.2-.5.3-.8.3-.9l-.2-.1c.2-4.1-.3-8-1.5-11.8 4.4-5.6 9-17.8 7.5-20.3-1.6-2.7-13.3-3.4-20.5-1.4-7.8-8.5-16.7-14.5-21.7-16.6-.2-3.9-.8-7.6-1.9-10.1-.9-2-2-3.2-3.4-3.8-5.4-2.1-15.2 1.4-24.2 7.4-9.3-.3-37.8 4.2-50.5 27.8-8.8 16.5-11.7 32.6-8.7 49.3-4.2-1.4-7.9-2.4-10.3-2.9-.5-.1-1 .3-1.1.8s.3 1 .8 1.1c2.6.5 6.6 1.6 11.1 3.2.6 2.8 1.4 5.7 2.3 8.6-5.2 0-10 .1-12.1.4-.5.1-.9.6-.8 1.1s.5.8 1 .8h.1c1.9-.3 6.8-.5 12.4-.3 1.1 3.1 2.3 6.2 3.8 9.3-1.3 1.9-2.3 4.1-3.3 6-1 2.1-3.6 7.8-7 15.5-.3.2-.6.4-.9.7-5.7-2-12.6.5-14.2 4-.5 1-1.1 3.6 2.6 5.8-25.8 24.5-25.4 43.6-24.4 49.4 1.2 7.4 5.2 12.9 11.5 15.8l-6.4 19.2 1.9.6 6.3-19h.1l.6-1.8h-.1l1.7-5.2-1.9-.6-1.7 5.1c-5.6-2.6-9.2-7.6-10.2-14.3-3-19 14.6-40.8 33.3-55.9-3.9 8.8-8.6 19.6-13.2 30.2-3.4 7.8-6.8 15.5-9.6 22-.4.9-.3 1.8.1 2.6s1.2 1.3 2 1.4c5.5 1.1 13.4 6.5 15.8 10.9l1.5 2.7c2.3 4.4 4.9 9.4 11.3 12.2.5.2 1 .4 1.5.5l-3.9 11 1.9.7 4-11.3h.4c2.3 0 3.8-1.1 4.4-2.5 1-1.9.5-4.1-.9-5.5 3.4-2.2 5.8-5.3 6.9-9.2.1-.4.2-.9.3-1.3 1.4 3.8 2.6 7.8 3.6 11.1.3 1.1.7 2.1 1.2 3.1l-3.8 10 1.8.7 3.2-8.7c1.6 2.1 3.6 3.5 5.7 3.7.3 0 .6.1.8.1 1 0 1.7-.3 2.4-.8 1.2-1.1 1.8-3.2 1.9-7 5.4-3.8 11.9-10.4 10.6-19.1-.9-5.9-4.2-9.8-10-11.8 0-4.4.3-22.8 2.4-41.3 8 4.2 16.6 6.9 25.9 8 3.1.4 6 .6 8.7.6 11.6 0 19.8-3.3 24.5-10 1.7-2.5 2.4-5.2 2.7-7.8 5.1.6 11.7 3.7 11.8 3.7.1.1.3.1.4.1.4 0 .7-.2.9-.6.2-.5 0-1.1-.5-1.3zm17.3-96.1c.6 1.3-2.4 11.1-6.5 17-1.2-3.2-2.7-6.3-4.5-9.2 3.8-3.5 9-5.1 9.1-5.2l-.6-1.9c-.2.1-5.5 1.7-9.6 5.4-1.6-2.4-3.3-4.6-5.2-6.8 7.1-1.7 16.4-.5 17.3.7zm-123.7 64.5c3.8.1 7.7.4 11.3.8l.2-1.9c-3.9-.5-8.2-.7-12.2-.8-.9-2.7-1.6-5.3-2.2-7.9 5.2 1.9 10.7 4.3 15.2 6.8l1-1.7c-4.9-2.8-11.1-5.4-16.7-7.4-3.3-16.7-.5-32.4 8.4-49.1 11.1-20.7 34.9-26.1 45.8-26.7-5.4 4-10.3 8.9-13.5 13.9l1.7 1.1c8.9-14.2 30.4-25.6 38.2-22.6.9.3 1.6 1.2 2.3 2.7 2.8 6.5 1.9 21.3.3 25.3l1.9.8c1-2.5 1.8-8.5 1.7-14.6 5.4 2.4 14 8.6 21.1 16.6v.1c6.5 7.4 13.8 18.7 13 31.6-.9 2.4-4.3 9.6-11.1 9.8h-.2c-5.4 0-12.5-6.1-19.5-12.1-4.1-3.5-8-6.9-11.6-9.1-10.8-6.6-23.4-4.1-34.4 6.9-7.5 7.5-6.9 20.7-6.3 31.2.3 5.5.5 10.2-.6 12.2-1.4 2.5-3.2 3.1-5.3 3.9-2.6.9-5.6 2-7.6 6.8-2 4.4-1.6 8.8 1.3 13.5-3-2.3-5.8-4.9-8.6-7.8.4-2.1.7-3.6.8-4.2s.2-1.3.3-2c.7-4.1 1.9-10.3-3.3-12-3.4-1.1-6 .6-8.2 3.2-1.3-2.4-2.3-4.9-3.2-7.3zm17.4 37.4c-.1 0-.1.1-.1.1-4.9 6.3-9.1 14.5-12 21.1.7-3.2 1.5-6.6 2.2-10 2.1-9.3 4.1-18.2 5.3-24.1 2.9 2.9 5.9 5.6 9 8-1.4 1.4-2.9 3.1-4.4 4.9zm-15.9 39.1c.3-1.4.7-3.5 1.3-6h.1c.1-.2 4.9-14.5 12.2-26.1-3.9 12.7-7.1 28.6-8.1 36.1-1.6-1.7-3.4-3.1-5.5-4zm-23.3-40.2c1-2.2 5.9-4.3 10.4-3.3-2.9 2.4-5.6 4.7-8.1 6.9-1.5-.8-3-2.1-2.3-3.6zm22 73.4.6 1.8c.8-.3 1.6-.6 2.3-.9 1.3.9 1.6 2.5 1 3.6-.6 1.3-2.5 2.1-5.8.6-5.8-2.5-8.1-7-10.3-11.3-.5-.9-1-1.9-1.5-2.8-2.7-4.9-11.1-10.7-17.2-11.9-.4-.1-.5-.3-.6-.4-.1-.3-.2-.6 0-.9 2.9-6.5 6.2-14.2 9.6-22 5.2-12 10.6-24.2 14.7-33.6.1-.1.2-.2.3-.2l-.1-.2c3.4-7.6 5.9-13.3 6.9-15.4 3.7-7.6 6.5-11.4 10.4-10.1 3.3 1.1 2.9 4.9 2 9.8-.1.7-.3 1.4-.3 2-.3 2.2-3.5 16.5-6.6 30.3-2.6 11.8-5.1 23-6 27.6-2.5-.7-5.3-.7-8.4.2l.6 1.9c4.5-1.4 14-.9 17.8 10.7 1.9 6.1 2.2 17.3-9.4 21.2zm27.4-30.1c-2.6-.7-5.6-1-9-1v2c11.6 0 17.8 3.8 19 11.7 1.3 8.9-7 15.5-12.1 18.7l1.1 1.7c.1-.1.3-.2.4-.3-.1 1.8-.4 3.5-1.1 4.1-.2.2-.6.4-1.6.3-2.2-.2-5.3-2.9-6.5-7.4-1.2-4.2-2.9-9.6-4.8-14.3l-.3.1c0-3.5-.8-6.3-1.1-7.3-.6-1.8-1.5-3.6-2.8-5.4.6-7.3 5.1-29.8 10.3-43.9 1.5-1.9 3-3.6 4.6-4.9.8.6 1.6 1.1 2.4 1.7.2.2.4.5.6.7l.2-.2c1.1.7 2.1 1.3 3.2 2-2.1 18.1-2.4 36.3-2.5 41.7zm61.9-43.2c-5.3 7.6-15.9 10.4-31.4 8.6-11.2-1.3-21.3-4.9-30.4-10.8-7.7-8.2-6.7-13.5-5.2-16.8 1.7-4 4-4.8 6.5-5.7 2.1-.8 4.6-1.7 6.4-4.8 1.4-2.5 1.2-7.2.9-13.3-.5-10.2-1.1-22.8 5.8-29.7 10.5-10.5 21.8-12.8 32-6.7 3.5 2.1 7.3 5.4 11.4 8.9 7.2 6.2 14.7 12.6 20.8 12.6h.3c4.9-.2 8.2-3.1 10.2-6.1-3.8 19.2-17.8 35.5-23.2 41.9-1.5 1.8-2 2.3-2.1 2.7-.2.6-.1 1.5.2 3.4.2 1.1.3 2.3.5 3.7v.2c.1 1.1.1 2.3.1 3.4-.1.2-.2.3-.2.5s.1.4.1.5c-.5 2.7-1.1 5.3-2.7 7.5zm142.3-56.8-.2-.3-.4-.1c-8.9-2.3-23.6 1.3-30.4 10.2l1.6 1.2c6.3-8.1 19.7-11.5 28-9.5 7.1 10.4 6.9 24.8-.4 32.8l1.5 1.3c8-8.7 8.1-24.4.3-35.6z" fill="#0366d6"/><path d="m628.6 270.6c-.3-.2-.6-.3-.9-.2-5.5-1.2-12 .8-15.7 4.9l1.5 1.4c3.4-3.6 9.5-5.4 14.4-4.1 4.2 3.5 8.8 10.6 8.6 19.9h2c.1-10.3-5.2-18.3-9.9-21.9zm-41.6 68.3c-3.1-.4-5.8 1-6.1 3.1-.1 1.5 1.1 3.2 4.8 3.8.7.1 1.4.2 2 .2 1.6 0 2.7-.3 3.5-1 .6-.5.9-1.1.9-1.8.1-2.2-1.9-3.9-5.1-4.3zm2.9 4.5c-.2.2-1.1.8-3.9.4-2.2-.3-3.2-1.2-3.2-1.6.1-.7 1.7-1.6 3.9-1.3 2 .2 3.4 1.1 3.3 2.2.1.1.1.2-.1.3zm102.8-7c-1.5 1.4-7.3 7.5-5.6 10.6.3.5.9 1.2 2.2 1.3h.7c3.3 0 8.5-3 11-5.4 1.9-1.8 8-7.9 5.1-11.1-2.8-2.9-11.3 2.8-13.4 4.6zm6.9 5.2c-2.6 2.4-7.7 5.1-10 4.8-.5-.1-.6-.3-.7-.4-.6-1.1 2.2-5.5 5.2-8.2 3.1-2.7 9.5-5.7 10.5-4.6 1 1.2-1.2 4.8-5 8.4zm37.7-91.6c-6-6.1-11.7-6.8-15.4-6.4-5.2.6-10 4-13.1 9.3-4.4 7.4-3.6 12.7-2.9 17.4.2 1.4.4 2.7.4 3.9 0 1.8-.1 3.1-.3 4.4-.3 2.7-.6 5.2.9 10.9 2.3 9.1 11.8 11.4 22.8 14.1l.2-.9.2-1c-12-2.9-19.4-5.1-21.4-12.7-1.4-5.3-1.1-7.6-.8-10.1.1-1.3.3-2.7.3-4.6 0-1.4-.3-2.7-.5-4.1-.7-4.4-1.4-9.3 2.6-16.1 2.8-4.7 7-7.8 11.6-8.3 4.7-.6 9.4 1.4 13.7 5.8 11 11.1 15.3 21.1 14.4 33.2-.9 10.8-5.5 22.9-13.1 33.9l1.6 1.1c7.8-11.3 12.6-23.7 13.5-34.9 1.3-12.7-3.4-23.5-14.7-34.9z" fill="#0366d6"/><ellipse cx="204.2" cy="446.1" fill="#e8eaee" rx="31.7" ry="7.5"/><path d="m228.1 408.8c1.5 2.3-.7 10.3-1.8 14.8-1.6 6.7-40 7.8-43.5-1-3.3-8.4-6.7-12.4-3.4-15.5 7.4-7 43.9-5.3 48.7 1.7z" fill="#d1d5da"/><path d="m188.1 410.6c4.3 1.7 30.7 2.2 34.3-.3 3.5-2.5-1-4.8-2.9-3.6-1.2-10.2-12.7-9.7-13.1-4.2-5-15-18.6-1.9-14.2 5.3-5.4-2.5-7.4 1.5-4.1 2.8z" fill="#f2f2f2"/><path d="m206.5 403.8c-2.7-15.1-8.6-15.9-22.1-22.1 2.7 13.7 15.4 22.3 22.1 22.1z" fill="#d1d5da"/><path d="m219.4 357.6c-20.5 25.5-14.6 43.9-12.8 46.2 5.4-3.8 17.2-15.8 12.8-46.2z" fill="#d1d5da"/><path d="m209.9 392.2c1.4-4.3 2.7-9.2 3.7-13.1.9-3.3 1.7-6.2 1.9-6.7l-.9-.5c-.3.6-.9 2.7-2 6.9-1.1 4.1-2.5 9.4-4 13.9-.5-1.6-1-3.8-.8-5.1l-1-.1c-.2 1.9.6 5.1 1.2 6.6v.1c-.9 2.6-1.7 4.9-2.5 6.4-.7-1.5-2.2-3.9-5.1-6.8-.2-.9-.5-2.5-1.6-3.5l-.7.7c.5.5.7 1 1 1.6-.2-.1-.3-.3-.5-.4v-.1h-.1c-2.5-2.2-5.8-4.5-10.2-6.8l-.3.7c3.6 1.9 6.5 3.9 8.8 5.7-1.2-.1-2.7-.1-3.4 0l.2 1c1-.2 3.5 0 4.7.2 4.7 4.2 6.5 7.7 7 9l.4-.2.4.3c1-1.5 2.2-4.5 3.3-8 1.3-1.3 3.4-2.8 4.5-3.2l-.3-.9c-1.1.3-2.5 1.3-3.7 2.3zm-22.2 34.2c1.6 7.1 3.2 15.7 4 16.9 2.5 4.4 25 5.2 26.3-1 .6-3.1 1.4-9.8 2-15-8.7 2.3-24.2 2.3-32.3-.9z" fill="#b2bbc4"/><path d="m280.5 447.3c-.9 3.9-1.6 7-2 7.7-2.9 5.1-29.1 4-30.7-3.3-.3-1.5-.7-3.4-1-5.7-14.7 1.2-25.2 4.6-25.2 8.6 0 5 16.7 9.1 37.4 9.2 20.7 0 37.4-4 37.4-9 0-3.1-6.3-5.9-15.9-7.5z" fill="#e8eaee"/><path d="m235.8 414.4c-1.8 2.7.9 12.1 2.1 17.4 1.8 7.9 47.1 9.1 51.1-1.1 3.9-9.9 7.9-14.6 4-18.2-8.7-8.3-51.7-6.3-57.2 1.9z" fill="#d1d5da"/><path d="m282.7 416.6c-5 2-36.1 2.5-40.3-.3s1.1-5.7 3.4-4.2c1.5-11.9 14.9-11.4 15.4-4.9 5.9-17.6 21.9-2.3 16.7 6.3 6.3-3.1 8.7 1.6 4.8 3.1z" fill="#f2f2f2"/><path d="m263.5 399.8c.8-9.4-1.5-25.6-17.5-45.5-5.2 35.7 8.7 49.8 15.1 54.3 7.9.2 22.8-9.9 25.9-26-12.6 5.8-19.6 7.7-23.5 17.2z" fill="#d1d5da"/><path d="m272 394.6c2.8-2.3 6.3-4.7 10.8-7l-.4-.9c-5.7 3-9.8 6-12.9 8.8.3-.7.6-1.5 1.2-2.1l-.7-.7c-1.2 1.2-1.7 2.8-1.9 4.1-3.7 3.7-5.4 6.8-6.1 8.3-.9-1.7-2-4.5-3.1-7.7v-.1c.7-2 1.7-5.6 1.4-7.7l-1 .1c.2 1.6-.5 4.3-1 6.1-1.5-4.6-2.9-9.8-4.1-14.1-.3-1-.5-1.9-.8-2.8-1.1-3.9-1.7-6.2-2-7.2 1.4-.6 2-2.3 1.4-3.8s-2.3-2.3-3.7-1.8c-.7.3-1.2.8-1.5 1.6-.3.7-.3 1.5 0 2.2.5 1.2 1.6 1.9 2.7 1.9h.1c.3.8 1.1 3.8 2.1 7.2 0 .1.1.2.1.3-.5-.7-1-1.1-1.4-1.4l-.5.8c.6.4 1.5 1.5 2.7 3.2 1.1 4.2 2.5 8.9 3.8 13.2-1.5-1.3-3.2-2.5-4.3-3l-.4.9c1.3.5 3.8 2.5 5.3 3.9 1.4 4.1 2.7 7.6 3.9 9.4l.5-.3.4.1c.1-.3 1.7-4.8 7.9-10.3 1.2-.4 4.5-.5 5.9-.4l.1-1c-.9 0-2.9 0-4.5.2zm-23.3-25.1c-.2-.5-.2-1.1 0-1.5.2-.5.5-.8 1-1 .9-.4 2 .2 2.4 1.2s0 2.2-1 2.5c-.9.3-2-.2-2.4-1.2zm-3.5 66.7c.8 5.4 1.8 12 2.6 15.5 1.6 7.3 27.8 8.4 30.7 3.3.8-1.4 2.8-11.5 4.6-19.8-9.5 3.6-27.7 3.6-37.9 1z" fill="#b2bbc4"/><path d="m805.9 396.9c-14 13.2-35.4 14.5-45 13.3 2.4 5.3 9.5 16.5 12.9 21.9 12.4 6.7 35.8-3 34.1-14.2-.8-5.9-1.2-14.5-2-21z" fill="#168cfa"/><path d="m786.1 430.1c-2.5 0-4.9-.3-7.4-.8-10.7-2.3-18.3-9.6-20.8-19.9l1.9-.5c3.2 13.1 13.5 17.2 19.3 18.4 10.9 2.4 22.8-1.1 28.5-8.2 1.6-2 6.5-8.1 5.3-13.6-.7-2.8-2.5-4.9-6.3-6.8-5.4 5.9-13 9.9-27.9 12.6l-.4-2c18.2-3.8 21.4-6.7 26.9-12.7l.5-.5.7.3c4.8 2.2 7.6 5.1 8.4 8.7 1.5 6.4-3.9 13.1-5.6 15.3-4.8 6.1-13.8 9.7-23.1 9.7z" fill="#0366d6"/><path d="m739.9 384.5c-1.6 5 10.9 21.2 16.4 24.6 4 2.5 39.2 4.7 55-18.5.5-9.4.5-18-3-22.5-8.7-11.1-58.9-13.1-68.4 16.4z" fill="#79b8ff"/><path d="m739.9 384.5c7.1-25 53.2-31.1 68.3-16.5 5.5 8.2-7.3 20.7-25.5 24.9-19 4.6-42.8 1.6-42.8-8.4z" fill="#c8e1ff" opacity=".46"/><path d="m803.6 374.3c-9.6 17.7-45 18.8-55.1 15.1-7.2-2.6-.7-11.5 3-9.9-4.5-20.9 13.5-20.6 17.6-9.6 6.5-26.5 33.3-13.3 28.3-.3 7.3-4.5 9-.4 6.2 4.7z" fill="#fff5b1"/><g fill="#fac237"><path d="m759.3 379.1c8.8 0 10.8 2.4 12.1 3.9.7-4.2 9.1-4.4 11.4-3.9-1.7-1.6-2.3-3.3 2.5-5.7-8.1 2.7-7.2-.3-7.7-2.3-1 1.3-4.2 4.3-7.1 3.1.2 3.3-4.2 4-11.2 4.9zm-7.9 11.1c7.4 2.2 40 2.1 51.2-14.2-3.1 1.1-5.9 7-13.7 7-1.5 2.5-11.6 8.2-22.6 5.6-2.2 1.8-3.7 2-14.9 1.6z"/><ellipse cx="785.8" cy="365.1" rx=".7" ry=".7"/><ellipse cx="776.8" cy="368.6" rx=".6" ry=".6" transform="matrix(.9993 -.037 .037 .9993 -13.106 28.994)"/><ellipse cx="777.1" cy="364.7" rx=".3" ry=".3"/><ellipse cx="778.7" cy="367.6" rx=".6" ry=".3" transform="matrix(.9993 -.037 .037 .9993 -13.068 29.064)"/><ellipse cx="762.6" cy="370.9" rx=".7" ry=".7"/><ellipse cx="760.3" cy="369.5" rx=".6" ry=".6" transform="matrix(.9993 -.037 .037 .9993 -13.15 28.384)"/><ellipse cx="762.2" cy="382.1" rx=".6" ry=".3" transform="matrix(.9993 -.037 .037 .9993 -13.616 28.463)"/><ellipse cx="788.4" cy="374.4" rx=".6" ry=".3" transform="matrix(.9993 -.037 .037 .9993 -13.313 29.427)"/><ellipse cx="790.6" cy="373.5" rx=".3" ry=".3"/><ellipse cx="760.3" cy="371.5" rx=".4" ry=".4" transform="matrix(.9993 -.037 .037 .9993 -13.225 28.386)"/><path d="m727.4 468c-1.6 2.8-6.3 1.2-10.7 1.2-3.8 0-.9-.4-.9-2.6 0-1.3.9-2.8 4.4-2.1 3.1-5.4 8.1 1.9 7.2 3.5zm10-.2c-3.4 1.1-7.6-1-5.6-2.2s9.3 1 5.6 2.2z"/></g><path d="m720.2 464.4c1.7-2.8 4.4-2.4 6.2.3s-2.4-1.6-6.5.7c-2.1-.7-3.9.5-4 1.1-.3-1.8 2.1-2.9 4.3-2.1zm11.3 1.7c1.1-1.2 3.9-.8 6 .3-1.7-.5-3.1-1.1-6-.3z" fill="#ffd33d"/><path d="m364.6 261c-.6-3.4-2.8-6.2-6-7.7-4-1.9-8.9-1.8-12.8.3l-1-1.8c4.5-2.4 10.1-2.6 14.6-.4 3.9 1.9 6.4 5.1 7.1 9.2z" fill="#0366d6"/></svg>