<svg width="121" height="121" viewBox="0 0 121 121" fill="none" xmlns="http://www.w3.org/2000/svg">
<path d="M60.5 121C93.9132 121 121 93.9132 121 60.5C121 27.0868 93.9132 0 60.5 0C27.0868 0 0 27.0868 0 60.5C0 93.9132 27.0868 121 60.5 121Z" fill="#00D1CA"/>
<path d="M39.4565 60.4999C39.4565 48.9793 48.9761 39.4564 60.9476 39.4564C67.7915 39.4564 73.8591 42.5786 77.7923 47.4302C80.1448 50.332 84.4043 50.7774 87.3061 48.4249C90.208 46.0724 90.6533 41.8129 88.3008 38.911C81.8797 30.9905 71.9967 25.9285 60.9476 25.9285C41.7094 25.9285 25.9285 41.3052 25.9285 60.4999C25.9285 79.6946 41.7094 95.0713 60.9476 95.0713C71.9967 95.0713 81.8797 90.0093 88.3008 82.0888C90.6533 79.1869 90.208 74.9274 87.3061 72.5749C84.4043 70.2224 80.1448 70.6677 77.7923 73.5696C73.8591 78.4212 67.7915 81.5434 60.9476 81.5434C48.9761 81.5434 39.4565 72.0204 39.4565 60.4999Z" fill="#1A263E"/>
<path d="M88.3074 67.2639C92.043 67.2639 95.0714 64.2355 95.0714 60.4999C95.0714 56.7643 92.043 53.7359 88.3074 53.7359C84.5718 53.7359 81.5434 56.7643 81.5434 60.4999C81.5434 64.2355 84.5718 67.2639 88.3074 67.2639Z" fill="#1A263E"/>
</svg>