
<svg xmlns="http://www.w3.org/2000/svg" width="106" height="106" viewBox= "0 0 100 100" preserveAspectRatio="xMaxYMax meet">
  <title>Parasoft</title>
  <linearGradient id="primary" gradientUnits="userSpaceOnUse">
    <stop stop-color="#0073b5"/>
  </linearGradient>
<g transform="translate(9,0)">
  <g transform="scale(.75) translate(0,0)">
    <path d="M 0,0 l 32,0 l 0,8 l 42,8 l -42,8 l 0,8 l -32,0 l z" stroke-width="0" stroke="none" fill="url(#primary)"/>
    <path d="M 84,0 l 32,0 l 0,32 l -8,0 l -8,42 l -8,-42 l -8,0 z" stroke-width="0" stroke="none" fill="url(#primary)"/>
    <path d="M 84,84 l 32,0 l 0,32 l -32,0 l 0,-8 l -42,-8 l 42,-8 z" stroke-width="0" stroke="none" fill="url(#primary)"/>
    <path d="M 0,84 l 8,0 l 8,-42 l 8,42 l 8,0 l 0,32 l -32,0 z" stroke-width="0" stroke="none" fill="url(#primary)"/>
  </g>
  <g transform="rotate(-16.6,43.5,43.5) scale(.33333333) translate(82.5,82.5)">
    <path d="M 0,0 l 32,0 l 0,8 l 28,8 l -28,8 l 0,8 l -32,0 l z" stroke-width="0" stroke="none" fill="url(#primary)"/>
    <path d="M 64,0 l 32,0 l 0,32 l -8,0 l -8,28 l -8,-28 l -8,0 z" stroke-width="0" stroke="none" fill="url(#primary)"/>
    <path d="M 64,64 l 32,0 l 0,32 l -32,0 l 0,-8 l -28,-8 l 28,-8 z" stroke-width="0" stroke="none" fill="url(#primary)"/>
    <path d="M 0,64 l 8,0 l 8,-28 l 8,28 l 8,0 l 0,32 l -32,0 z" stroke-width="0" stroke="none" fill="url(#primary)"/>
  </g>
</g>
</svg>
