<svg width="296" height="35" fill="none" xmlns="http://www.w3.org/2000/svg"><g clip-path="url(#a)"><path fill-rule="evenodd" clip-rule="evenodd" d="M266.97 13.602h11.639c.98 0 1.335.103 1.694.294.358.192.639.473.831.831.191.359.294.714.294 1.694v3.394c0 .98-.103 1.335-.294 1.694-.192.358-.473.639-.831.83-.359.192-.714.294-1.694.294H266.97c-.98 0-1.336-.102-1.694-.293a2.001 2.001 0 0 1-.831-.831c-.192-.359-.294-.714-.294-1.694V16.42c0-.98.102-1.335.294-1.694.192-.358.473-.64.831-.83.358-.192.714-.295 1.694-.295Zm0 .786c-.775 0-1.046.052-1.324.2a1.22 1.22 0 0 0-.509.51c-.148.278-.2.548-.2 1.323v3.394c0 .775.052 1.045.2 1.323.119.222.288.39.509.51.278.148.549.2 1.324.2h11.639c.775 0 1.045-.052 1.323-.2.222-.12.391-.288.509-.51.149-.278.201-.548.201-1.323V16.42c0-.775-.052-1.045-.201-1.323a1.208 1.208 0 0 0-.509-.51c-.278-.148-.548-.2-1.323-.2H266.97Zm16.421 3.683c0 .97-1.178 1.57-1.178 1.57v-3.14s1.178.599 1.178 1.57Z" fill="#57606A"/><rect x="265.722" y="15.108" width="14.135" height="6.021" rx="1.256" fill="#24292F"/><path fill-rule="evenodd" clip-rule="evenodd" d="M241.867 14.707c-.018.09-.018.2-.018.419v6.047c0 .219 0 .328.018.42a.944.944 0 0 0 .741.74c.091.018.2.018.419.018.219 0 .329 0 .42-.018a.943.943 0 0 0 .74-.74c.018-.092.018-.201.018-.42v-6.047c0-.219 0-.328-.018-.42a.942.942 0 0 0-.74-.74c-.091-.018-.201-.018-.42-.018-.219 0-.328 0-.419.018a.944.944 0 0 0-.741.74Zm-3.709 2.304c0-.22 0-.329.019-.42a.941.941 0 0 1 .74-.74c.091-.018.2-.018.419-.018.219 0 .329 0 .42.018a.941.941 0 0 1 .74.74c.018.091.018.2.018.42v4.162c0 .219 0 .328-.018.42a.941.941 0 0 1-.74.74c-.091.018-.201.018-.42.018-.219 0-.328 0-.419-.018a.941.941 0 0 1-.74-.74c-.019-.092-.019-.201-.019-.42V17.01Zm-3.594 1.386c-.018.091-.018.2-.018.42v2.356c0 .219 0 .328.018.42a.944.944 0 0 0 .741.74c.091.018.2.018.419.018.219 0 .328 0 .419-.018a.944.944 0 0 0 .741-.74c.018-.092.018-.201.018-.42v-2.356c0-.22 0-.329-.018-.42a.944.944 0 0 0-.741-.74c-.091-.018-.2-.018-.419-.018-.219 0-.328 0-.419.018a.944.944 0 0 0-.741.74Zm-3.769 1.571c-.018.091-.018.2-.018.42v.785c0 .219 0 .328.018.42a.941.941 0 0 0 .74.74c.091.018.201.018.42.018.219 0 .328 0 .419-.018a.944.944 0 0 0 .741-.74c.018-.092.018-.201.018-.42v-.786c0-.218 0-.328-.018-.419a.944.944 0 0 0-.741-.74c-.091-.019-.2-.019-.419-.019-.219 0-.329 0-.42.019a.941.941 0 0 0-.74.74ZM254.179 15.594a6.84 6.84 0 0 1 4.713 1.884.245.245 0 0 0 .344-.003l.915-.924a.255.255 0 0 0-.002-.361 8.629 8.629 0 0 0-11.941 0 .254.254 0 0 0-.003.361l.916.924a.243.243 0 0 0 .343.003 6.844 6.844 0 0 1 4.715-1.884Zm0 3.006c.964 0 1.893.358 2.608 1.005.097.092.249.09.343-.004l.914-.924a.255.255 0 0 0-.003-.363 5.67 5.67 0 0 0-7.723 0 .257.257 0 0 0-.078.18.26.26 0 0 0 .075.183l.914.924a.246.246 0 0 0 .343.004 3.885 3.885 0 0 1 2.607-1.005Zm1.757 2.205a.25.25 0 0 0-.008-.362 2.709 2.709 0 0 0-3.499 0 .246.246 0 0 0-.082.18.246.246 0 0 0 .074.182l1.582 1.596a.247.247 0 0 0 .351 0l1.582-1.596Z" fill="#24292F"/></g><path d="M27.71 22.322c2.111 0 3.365-1.65 3.365-4.451 0-2.75-1.334-4.256-3.319-4.256-1.805 0-3.082 1.213-3.082 2.91 0 1.593 1.15 2.755 2.732 2.755.972 0 1.76-.449 2.15-1.237h.098c-.017 1.95-.713 3.066-1.926 3.066-.713 0-1.283-.391-1.461-1.024h-1.478c.241 1.352 1.403 2.237 2.921 2.237Zm.052-4.187c-.966 0-1.633-.679-1.633-1.656 0-.938.701-1.657 1.639-1.657.938 0 1.64.73 1.64 1.686 0 .943-.685 1.627-1.646 1.627Zm5.79-1.386c.545 0 .92-.38.92-.891 0-.512-.375-.892-.92-.892-.542 0-.921.38-.921.892 0 .511.38.891.92.891Zm0 4.222c.545 0 .92-.386.92-.892 0-.512-.375-.891-.92-.891-.542 0-.921.38-.921.891 0 .506.38.892.92.892Zm6.524 1.15h1.42v-1.593h1.122v-1.225h-1.121V13.82h-2.094a110.492 110.492 0 0 0-3.382 5.493v1.214h4.055v1.593Zm-2.68-2.87a90.606 90.606 0 0 1 2.623-4.245h.08v4.331h-2.703v-.086Zm8.492 2.87h1.484v-8.3h-1.478l-2.169 1.525v1.397l2.065-1.46h.098v6.838Z" fill="#24292F"/><rect x="129.5" y="9.29" width="35.758" height="3.155" rx="1.578" fill="#050505"/><defs><clipPath id="a"><path fill="#fff" transform="translate(230.777 13.163)" d="M0 0h53.399v10.209H0z"/></clipPath></defs></svg>