<svg viewBox="0 0 2584 655" xmlns="http://www.w3.org/2000/svg" xml:space="preserve" style="fill-rule:evenodd;clip-rule:evenodd;stroke-linejoin:round;stroke-miterlimit:2"><path d="M142.259 55.502c6.723 0 13.173-5.597 14.295-12.503 1.327-6.721-3.231-12.317-9.949-12.317-6.72 0-13.171 5.596-14.309 12.317-1.311 6.906 3.059 12.503 9.963 12.503ZM323.783 74.799c6.561 0 8.84 3.988 8.84 8.741 0 8.039-6.234 12.942-15.985 12.942-3.491 0-8.37-.827-11.25-1.787 1.206-7.394 5.952-19.896 18.395-19.896Zm141.025 0c5.995 0 8.843 3.988 8.843 8.741 0 8.039-6.235 12.942-15.987 12.942-3.492 0-8.371-.827-11.25-1.787 1.211-7.394 6.562-19.896 18.394-19.896Zm133.674.679h15.039c2.061 0 3.268-.837 3.733-2.76a683.75 683.75 0 0 1 2.22-8.921c.445-1.732-.562-3.043-2.482-3.043h-14.84c1.069-4.253 5.231-18.061 5.231-27.064 0-17.978-15.264-33.27-36.925-33.27-24.463 0-40.378 16.417-40.378 39.518 0 6.738 2.512 14.593 5.629 19.465a69.977 69.977 0 0 0-4.028-.114c-18.588 0-30.296 10.083-30.296 24.756 0 13.769 10.857 19.12 21.076 22.68 9.079 3.163 17.437 4.635 17.437 11.728 0 4.781-4.6 7.586-13.601 7.586-10.68 0-16.55-5.029-18.044-6.936 1.012-.796 2.517-2.689 2.517-5.843 0-4.412-3.098-8.012-8.855-8.012-4.872 0-8.989 3.972-10.021 9.197-7.822 6.401-16.359 10.547-28.467 10.547-11.921 0-18.11-6.202-18.11-19.396 2.795.85 10.073 1.873 14.883 1.873 20.185 0 33.945-9.172 33.945-27.539 0-9.878-8.671-20.251-25.825-20.251h-.039c-22.563 0-35.2 14.292-40.718 30.013a286.775 286.775 0 0 0-4.646-1.084c1.235-3.489 2.121-7.529 2.121-12.009 0-7.764-4.808-16.92-17.674-16.92-8.962 0-17.463 5.87-23.356 14.669 1.465-5.739 2.437-9.561 2.501-9.818.383-1.501-.242-3.173-2.582-3.173h-13.206c-1.881 0-3.209.665-3.745 2.808a51840.07 51840.07 0 0 1-9.313 36.564c-2.783 10.808-17.174 24.263-35.263 24.263-11.924 0-18.108-6.61-18.108-19.808 3.121 1.242 10.073 2.285 14.881 2.285 21.006 0 33.945-9.172 33.945-27.539 0-9.878-8.67-20.251-25.826-20.251h-.038c-25.406 0-40.968 19.733-43.607 42.107-1.097 9.301-8.947 22.073-17.457 22.073-4.145 0-6.458-2.604-6.458-7.025 0-3.819 2.689-13.155 5.634-24.854.988-3.914 2.486-9.883 4.145-16.502h13.813c2.056 0 3.262-.837 3.73-2.76a675.299 675.299 0 0 1 2.217-8.921c.446-1.732-.556-3.043-2.482-3.043h-13.582s6.253-24.95 6.402-25.592c.601-2.537-1.52-4-3.742-3.534 0 0-10.498 2.055-12.446 2.462-1.958.395-3.475 1.47-4.183 4.292l-5.56 22.372h-10.906c-2.055 0-3.263.839-3.724 2.758a924.923 924.923 0 0 1-2.218 8.923c-.452 1.732.556 3.043 2.479 3.043h10.696c-.076.306-3.863 14.714-6.925 27.613-1.443 6.204-6.272 20.719-14.18 20.719-4.723 0-6.719-2.382-6.719-7.494 0-8.049 7.923-28.198 7.923-37.34 0-12.213-6.552-19.289-19.975-19.289-8.461 0-17.234 5.463-20.951 10.259 0 0 1.127-3.925 1.513-5.434.412-1.595-.443-3.16-2.536-3.16h-13.124c-2.793 0-3.565 1.493-3.975 3.135-.163.659-4.891 19.231-9.432 37.055-3.106 12.208-10.651 22.408-18.717 22.408-4.149 0-5.995-2.602-5.995-7.025 0-3.82 2.468-13.246 5.413-24.945 3.583-14.243 6.744-25.971 7.082-27.342.441-1.756-.344-3.286-2.607-3.286h-13.204c-2.39 0-3.246 1.255-3.749 2.998 0 0-3.716 14.068-7.652 29.728-2.858 11.365-6.014 22.942-6.014 28.378 0 9.707 4.36 17.023 16.34 17.023 9.247 0 16.565-4.689 22.153-10.661-.822 3.233-1.344 5.28-1.399 5.488-.482 1.849.102 3.484 2.281 3.484h13.51c2.352 0 3.257-.947 3.747-2.997.473-1.957 10.565-41.648 10.565-41.648 2.667-10.663 9.263-17.722 18.545-17.722 4.401 0 8.21 2.914 7.767 8.577-.489 6.231-8.003 28.61-8.003 38.433 0 7.434 2.757 17.052 16.753 17.052 9.54 0 16.564-4.573 21.671-10.475 1.869 6.264 6.824 10.475 15.91 10.475 15.103 0 24.205-8.956 29.553-17.954 4.437 10.453 14.832 17.95 30.074 17.95 15.535 0 27.557-6.548 36.077-15.453l-2.657 10.422c-.484 1.878.334 3.353 2.538 3.353h13.372c1.831 0 3.134-.931 3.61-2.856.236-.944 2.167-8.411 4.896-19.019 5.219-20.302 13.608-41.367 26.211-41.367 4.445 0 6.267 2.485 6.267 6.4 0 1.846-.536 3.441-.999 4.296-6.11-1.214-11.025 1.802-11.025 8.326 0 4.25 4.472 8.112 10.508 8.112 4.612 0 8.425-1.129 11.466-3.178 2.84.585 5.89 1.249 8.959 1.95a58.902 58.902 0 0 0-.703 8.898c0 16.297 11.636 30.116 32.495 30.116 16.342 0 27.558-5.977 37.242-13.642 4.654 7.615 16.405 13.768 31.822 13.768 21.13 0 33.114-10.988 33.114-25.51 0-13.143-10.791-17.983-21.919-22.009-9.045-3.269-16.591-5.046-16.591-11.439 0-5.24 4.127-7.637 11.197-7.637 4.587 0 8.031.987 9.87 1.504 1.824 4.565 5.598 9.619 12.041 9.619 5.452 0 7.9-4.311 7.9-8.283 0-11.304-18.83-12.489-18.83-36.732 0-15.075 8.531-27.511 26.198-27.511 12.275 0 20.291 7.784 20.291 20.347 0 10.358-6.284 28.798-6.284 28.798h-10.676c-2.052 0-3.263.839-3.727 2.758a761.603 761.603 0 0 1-2.222 8.923c-.449 1.732.558 3.043 2.484 3.043h10.426s-10.78 39.749-10.78 46.978c0 9.707 5.47 17.02 17.456 17.02 16.954 0 27.547-11.016 32.155-27.037.358-1.239-.344-2.249-1.599-2.249h-6.468c-1.291 0-2.04.738-2.366 1.999-1.461 5.686-5.082 11.67-12.212 11.67-4.144 0-6.457-2.604-6.457-7.025 0-3.819 2.528-12.759 5.638-24.854 1.477-5.758 4.116-16.502 4.116-16.502ZM64.347.247C21.569.247 0 30.918 0 56.494c0 15.485 5.862 29.262 18.438 34.397 2.061.843 3.909.029 4.507-2.253.416-1.581 1.4-5.567 1.839-7.226.603-2.258.369-3.05-1.295-5.019-3.626-4.277-5.943-9.814-5.943-17.656 0-22.755 17.024-43.124 44.33-43.124 24.179 0 37.463 14.774 37.463 34.505 0 25.961-11.489 47.871-28.546 47.871-9.419 0-16.47-7.789-14.209-17.343 2.706-11.406 7.948-23.716 7.948-31.949 0-7.37-3.956-13.517-12.143-13.517-9.629 0-17.364 9.961-17.364 23.305 0 8.498 2.872 14.247 2.872 14.247s-9.854 41.75-11.582 49.061c-3.44 14.562-.517 32.413-.27 34.217.145 1.069 1.519 1.322 2.14.514.888-1.159 12.357-15.318 16.255-29.464 1.103-4.005 6.334-24.749 6.334-24.749 3.128 5.968 12.271 11.223 21.994 11.223 28.944 0 48.581-26.387 48.581-61.706C121.349 25.12 98.727.247 64.347.247Z" style="fill:#cb2026;fill-rule:nonzero" transform="scale(4.16667)"/></svg>