<svg id="Layer_1" data-name="Layer 1" xmlns="http://www.w3.org/2000/svg" viewBox="0 0 16 16"><defs><style>.cls-1{fill:#b7312c;}.cls-2{fill:#f2a900;}.cls-3{fill:#48a23f;}</style></defs><path class="cls-1" d="M3.65,2H1.33A.33.33,0,0,0,1,2.49l2.34,4L4.91,3.85l-1-1.69A.32.32,0,0,0,3.65,2Z"/><polygon class="cls-2" points="5.47 4.84 3.94 7.51 4.58 8.6 6.11 5.94 5.47 4.84"/><path class="cls-3" d="M12.07,2.17,8.29,8.71a.34.34,0,0,1-.58,0l-1-1.78L5.16,9.6,7.72,14a.33.33,0,0,0,.57,0L15,2.5a.34.34,0,0,0-.29-.5H12.35A.3.3,0,0,0,12.07,2.17Z"/></svg>