<svg width="32" height="34" fill="none" xmlns="http://www.w3.org/2000/svg"><path fill-rule="evenodd" clip-rule="evenodd" d="M26.907 17.74l-5.826-9.077c-.767-1.1-1.856-1.81-3.27-2.105-1.415-.296-2.694-.128-3.85.553l-1.445.927-1.855-2.89-1.553 7.119 7.12 1.552-1.856-2.89L15.817 10a1.795 1.795 0 011.285-.192c.489.094.823.329 1.088.71l5.827 9.076a3.424 3.424 0 004.896 4.448 3.423 3.423 0 00-2.006-6.304zm1.264 5.147a2.078 2.078 0 01-2.848-.62c-.603-.94-.318-2.245.621-2.848.94-.604 2.245-.319 2.848.62.603.94.318 2.245-.62 2.848zM9.108 12.267a3.423 3.423 0 00-4.746-1.035 3.423 3.423 0 002.006 6.304l6.087 9.481a3.423 3.423 0 004.896 4.449 3.422 3.422 0 00-2.006-6.305l-6.086-9.48a3.415 3.415 0 00-.15-3.414zm8.122 15.195a2.078 2.078 0 01-.621 2.847c-.94.604-2.245.319-2.848-.62-.603-.94-.318-2.245.621-2.848.94-.603 2.245-.319 2.848.62zM7.331 15.857a2.078 2.078 0 01-2.848-.621c-.603-.94-.318-2.245.621-2.848.94-.603 2.245-.318 2.848.621.603.94.319 2.245-.62 2.848z" fill="#e1e4e8"/></svg>
