<svg width="56" height="56" fill="none" xmlns="http://www.w3.org/2000/svg"><path d="M46.001 43.996c0 .735-.396 1.377-.987 1.724v1.315a1 1 0 0 1-2 0v-1.3a2 2 0 1 1 2.987-1.74Z" fill="#218BFF"/><path fill-rule="evenodd" clip-rule="evenodd" d="M49 35.883V38a3 3 0 0 1 3 3v8a3 3 0 0 1-3 3H39a3 3 0 0 1-3-3v-8a3 3 0 0 1 3-3v-2.117c0-1.322.638-2.537 1.536-3.403.9-.868 2.143-1.466 3.473-1.466 1.28 0 2.514.57 3.421 1.424.91.856 1.57 2.074 1.57 3.445Zm-8 0c0-.674.334-1.394.924-1.963.59-.568 1.352-.906 2.085-.906.696 0 1.456.321 2.05.88.592.557.94 1.273.94 1.99V38h-6v-2.117ZM38 41a1 1 0 0 1 1-1h10a1 1 0 0 1 1 1v8a1 1 0 0 1-1 1H39a1 1 0 0 1-1-1v-8Z" fill="#218BFF"/><path d="M28 4c13.255 0 24 10.745 24 24 0 1.432-.126 2.836-.367 4.201a1 1 0 0 1-1.97-.348c.222-1.25.337-2.538.337-3.853 0-12.15-9.85-22-22-22S6 15.85 6 28s9.85 22 22 22c1.564 0 3.09-.163 4.56-.473a1 1 0 1 1 .411 1.957A24.09 24.09 0 0 1 28 52C14.745 52 4 41.255 4 28S14.745 4 28 4Z" fill="#54AEFF"/><path fill-rule="evenodd" clip-rule="evenodd" d="M36 17a1 1 0 0 1 1 1v9.65a1 1 0 0 1-.306.72L24.72 39.917a1 1 0 0 1-1.402-.013l-9.222-9.222a1 1 0 0 1-.013-1.402L25.63 17.306a1 1 0 0 1 .72-.306H36Zm3 1a3 3 0 0 0-3-3h-9.65a3 3 0 0 0-2.16.918L12.643 27.892a3 3 0 0 0 .039 4.204l9.222 9.222a3 3 0 0 0 4.204.038L38.082 29.81A3 3 0 0 0 39 27.65V18Z" fill="#54AEFF"/><path d="M30 22a2 2 0 1 0 4 0 2 2 0 0 0-4 0Z" fill="#54AEFF"/><path fill-rule="evenodd" clip-rule="evenodd" d="M26.707 24.293a1 1 0 0 1 0 1.414l-6 6a1 1 0 0 1-1.414-1.414l6-6a1 1 0 0 1 1.414 0ZM26.707 30.293a1 1 0 0 1 0 1.414l-3 3a1 1 0 1 1-1.414-1.414l3-3a1 1 0 0 1 1.414 0Z" fill="#54AEFF"/></svg>
