<?xml version="1.0" encoding="utf-8"?>
<!-- Generator: Adobe Illustrator 25.3.1, SVG Export Plug-In . SVG Version: 6.00 Build 0)  -->
<svg version="1.1" id="Layer_3" xmlns="http://www.w3.org/2000/svg" xmlns:xlink="http://www.w3.org/1999/xlink" x="0px" y="0px"
	 viewBox="0 0 75.9 72.9" style="enable-background:new 0 0 75.9 72.9;" xml:space="preserve">
<style type="text/css">
	.st0{fill:#79B8FF;}
	.st1{fill:#2188FF;}
	.st2{fill-rule:evenodd;clip-rule:evenodd;fill:#2188FF;}
</style>
<path class="st0" d="M32.3,4.2c0-0.7,0.6-1.3,1.3-1.3h8c0.7,0,1.3,0.6,1.3,1.3s-0.6,1.3-1.3,1.3h-3.4l-4.5,5.3h6.5
	c0.7,0,1.3,0.6,1.3,1.3s-0.6,1.3-1.3,1.3h-16c-0.7,0-1.3-0.6-1.3-1.3s0.6-1.3,1.3-1.3h6.1l4.5-5.3h-1.1C32.9,5.5,32.3,5,32.3,4.2z"
	/>
<path class="st0" d="M32.3,68.4c0-0.7,0.6-1.3,1.3-1.3h2l4.5-5.4H35c-0.7,0-1.3-0.6-1.3-1.3c0-0.7,0.6-1.3,1.3-1.3h16
	c0.7,0,1.3,0.6,1.3,1.3c0,0.7-0.6,1.3-1.3,1.3h-7.4l-4.5,5.4h2.5c0.7,0,1.3,0.6,1.3,1.3c0,0.7-0.6,1.3-1.3,1.3h-8
	C32.9,69.7,32.3,69.1,32.3,68.4z"/>
<path class="st0" d="M56.4,24.3c0-0.7,0.6-1.3,1.3-1.3h6.7c0.7,0,1.3,0.6,1.3,1.3c0,0.7-0.6,1.3-1.3,1.3h-6.7
	C57,25.6,56.4,25,56.4,24.3z"/>
<path class="st0" d="M60.4,36.3c0-0.7,0.6-1.3,1.3-1.3h8c0.7,0,1.3,0.6,1.3,1.3c0,0.7-0.6,1.3-1.3,1.3h-8C61,37.6,60.4,37,60.4,36.3
	z"/>
<path class="st0" d="M12.4,37.6c0.5,0.5,0.9,1,1.2,1.5c1.6,2.3,2.3,5.3,2.3,7.9h1.6c0.7,0,1.3,0.6,1.3,1.3c0,0.7-0.6,1.3-1.3,1.3
	h-6.7c-0.7,0-1.3-0.6-1.3-1.3c0-0.7,0.6-1.3,1.3-1.3h2.4c0-2.1-0.6-4.5-1.9-6.4c-1.2-1.8-3-3-5.4-3H5.5c-0.7,0-1.3-0.6-1.3-1.3
	c0-0.7,0.6-1.3,1.3-1.3h8c0.7,0,1.3,0.6,1.3,1.3c0,0.7-0.6,1.3-1.3,1.3H12.4z"/>
<path class="st1" d="M55,8.2c0-0.7-0.6-1.3-1.3-1.3s-1.3,0.6-1.3,1.3v2.7h-2.7c-0.7,0-1.3,0.6-1.3,1.3c0,0.7,0.6,1.3,1.3,1.3h2.7
	v2.7c0,0.7,0.6,1.3,1.3,1.3S55,17,55,16.2v-2.7h2.7c0.7,0,1.3-0.6,1.3-1.3c0-0.7-0.6-1.3-1.3-1.3H55V8.2z"/>
<path class="st1" d="M16.2,60.4c0-0.7,0.6-1.3,1.3-1.3h2.7v-2.7c0-0.7,0.6-1.3,1.3-1.3c0.7,0,1.3,0.6,1.3,1.3V59h2.7
	c0.7,0,1.3,0.6,1.3,1.3s-0.6,1.3-1.3,1.3h-2.7v2.7c0,0.7-0.6,1.3-1.3,1.3c-0.7,0-1.3-0.6-1.3-1.3v-2.7h-2.7
	C16.8,61.7,16.2,61.1,16.2,60.4z"/>
<path class="st1" d="M8.2,22.9c0-0.7,0.6-1.3,1.3-1.3h8c0.7,0,1.3,0.6,1.3,1.3c0,0.7-0.6,1.3-1.3,1.3h-8C8.8,24.3,8.2,23.7,8.2,22.9
	z"/>
<path class="st1" d="M57.7,48.3c-0.7,0-1.3,0.6-1.3,1.3c0,0.7,0.6,1.3,1.3,1.3h8c0.7,0,1.3-0.6,1.3-1.3c0-0.7-0.6-1.3-1.3-1.3H57.7z
	"/>
<path class="st2" d="M41.9,27.8c0.5-0.5,0.5-1.4-0.1-1.9c-0.5-0.5-1.4-0.5-1.9,0.1l-2.7,2.9c-0.5,0.5-0.5,1.4,0.1,1.9l2.9,2.7
	c0.5,0.5,1.4,0.5,1.9-0.1c0.5-0.5,0.5-1.4-0.1-1.9l-0.7-0.7l0.5,0c0.7,0,1.3,0.6,1.3,1.3l0,6.7c0,0.1,0,0.2,0,0.2
	c-1.6,0.5-2.7,2-2.7,3.8c0,2.2,1.8,4,4,4c2.2,0,4-1.8,4-4c0-1.8-1.1-3.2-2.7-3.8c0-0.1,0-0.1,0-0.2l0-6.7c0-2.2-1.8-4-4-4l-0.3,0
	L41.9,27.8z M44.3,41.6c-0.7,0-1.3,0.6-1.3,1.3c0,0.7,0.6,1.3,1.3,1.3c0.7,0,1.3-0.6,1.3-1.3C45.7,42.2,45.1,41.6,44.3,41.6z"/>
<path class="st2" d="M31.6,25.6c-2.2,0-4,1.8-4,4c0,1.7,1.1,3.2,2.7,3.8v5.8c-1.6,0.6-2.7,2-2.7,3.8c0,2.2,1.8,4,4,4s4-1.8,4-4
	c0-1.7-1.1-3.2-2.7-3.8v-5.8c1.6-0.5,2.7-2,2.7-3.8C35.6,27.4,33.8,25.6,31.6,25.6z M30.3,29.6c0-0.7,0.6-1.3,1.3-1.3
	c0.7,0,1.3,0.6,1.3,1.3c0,0.7-0.6,1.3-1.3,1.3C30.9,30.9,30.3,30.3,30.3,29.6z M30.3,43c0-0.7,0.6-1.3,1.3-1.3
	c0.7,0,1.3,0.6,1.3,1.3c0,0.7-0.6,1.3-1.3,1.3C30.9,44.3,30.3,43.7,30.3,43z"/>
<path class="st2" d="M37.7,16.2c-11.1,0-20.1,9-20.1,20.1s9,20.1,20.1,20.1s20.1-9,20.1-20.1S48.7,16.2,37.7,16.2z M20.3,36.3
	c0-9.6,7.8-17.4,17.4-17.4c9.6,0,17.4,7.8,17.4,17.4s-7.8,17.4-17.4,17.4C28.1,53.7,20.3,45.9,20.3,36.3z"/>
</svg>
