<svg width="144" height="123" viewBox="0 0 144 123" fill="none" xmlns="http://www.w3.org/2000/svg">
<g filter="url(#filter0_dd_674_121666)">
<circle cx="82.3928" cy="51.9544" r="46" fill="#C4C4C4"/>
<circle cx="82.3928" cy="51.9544" r="46.5" stroke="#E7E9EB"/>
</g>
<path fill-rule="evenodd" clip-rule="evenodd" d="M49.3474 83.9544C44.9562 79.4207 41.4896 73.986 39.2518 67.9544L125.534 67.9544C123.296 73.986 119.83 79.4207 115.438 83.9544L49.3474 83.9544Z" fill="#FBFBFB"/>
<path fill-rule="evenodd" clip-rule="evenodd" d="M39.2518 67.9544C37.403 62.9713 36.3928 57.5809 36.3928 51.9544L128.393 51.9544C128.393 57.5809 127.383 62.9713 125.534 67.9544L39.2518 67.9544Z" fill="#F9F9F9"/>
<path fill-rule="evenodd" clip-rule="evenodd" d="M118.766 80.1179C110.351 90.9697 97.1878 97.9544 82.3928 97.9544C67.5977 97.9544 54.4341 90.9697 46.0194 80.1179H118.766Z" fill="#FAFAFA"/>
<path fill-rule="evenodd" clip-rule="evenodd" d="M39.2518 35.9544L125.534 35.9544C127.383 40.9375 128.393 46.328 128.393 51.9544L36.3928 51.9544C36.3928 46.328 37.403 40.9375 39.2518 35.9544Z" fill="#FEFEFE"/>
<path d="M28.6426 45.0362C28.6426 41.2153 31.74 38.1179 35.5609 38.1179H69.0024C72.8232 38.1179 75.9207 41.2153 75.9207 45.0362V45.0362C75.9207 48.857 72.8232 51.9544 69.0024 51.9544H35.5609C31.74 51.9544 28.6426 48.857 28.6426 45.0362V45.0362Z" fill="#FFD33D"/>
<path d="M76.7407 59.0362C76.7407 55.125 79.9113 51.9544 83.8224 51.9544H129.052C132.963 51.9544 136.134 55.125 136.134 59.0362V59.0362C136.134 62.9473 132.963 66.1179 129.052 66.1179H83.8224C79.9113 66.1179 76.7407 62.9473 76.7407 59.0362V59.0362Z" fill="#F66A0A"/>
<path d="M36.3926 51.9544H56.3112C60.2223 51.9544 63.3929 55.125 63.3929 59.0362V59.0362C63.3929 62.9473 60.2223 66.1179 56.3112 66.1179H38.5332C38.5332 66.1179 37.7051 63.6005 37.0801 59.9535C36.3577 55.7381 36.3926 51.9544 36.3926 51.9544Z" fill="#6F42C1"/>
<path d="M38.6115 66.1179H75.393C79.259 66.1179 82.393 69.2519 82.393 73.1179V73.1179C82.393 76.9839 79.259 80.1179 75.393 80.1179H46.0176C46.0176 80.1179 45.0254 79.2585 42.3067 74.5397C39.5879 69.821 38.6115 66.1179 38.6115 66.1179Z" fill="#E7E9EB"/>
<path opacity="0.7" d="M126.236 38.1179H95.572C91.7511 38.1179 88.6537 41.2153 88.6537 45.0362C88.6537 48.857 91.7511 51.9544 95.572 51.9544H128.393C128.393 51.9544 128.361 47.8835 127.736 44.2272C127.111 40.571 126.236 38.1179 126.236 38.1179Z" fill="#E7E9EB"/>
<path fill-rule="evenodd" clip-rule="evenodd" d="M47.5206 21.9544L117.265 21.9544C121.247 26.5786 124.324 32.0034 126.224 37.9544L38.562 37.9544C40.4612 32.0034 43.5389 26.5786 47.5206 21.9544Z" fill="white"/>
<path fill-rule="evenodd" clip-rule="evenodd" d="M119.017 24.1179C110.615 13.0796 97.3358 5.95443 82.3928 5.95443C67.4498 5.95443 54.1709 13.0796 45.7683 24.1179L119.017 24.1179Z" fill="#25292E"/>
<g filter="url(#filter1_dddddd_674_121666)">
<path d="M73.4553 12.8401C73.4553 8.13978 69.645 4.32944 64.9447 4.32944H41.9659C37.2656 4.32944 33.4553 8.13978 33.4553 12.8401V30.6309C33.4553 34.7812 36.8197 38.1457 40.97 38.1457H55.2382L62.1203 44.1799C63.2205 45.1446 64.9446 44.3633 64.9446 42.9001V38.1457H65.9406C70.0909 38.1457 73.4553 34.7812 73.4553 30.6309V12.8401Z" fill="#FEFEFE"/>
</g>
<path fill-rule="evenodd" clip-rule="evenodd" d="M53.5491 12.6297C51.9558 12.6297 50.6641 13.9213 50.6641 15.5147V18.183H58.4378C60.2074 18.183 61.642 19.6175 61.642 21.3871V25.1144C61.642 28.6535 58.7729 31.5226 55.2337 31.5226H51.6769C48.1377 31.5226 45.2687 28.6535 45.2687 25.1144V21.3871C45.2687 19.944 46.2227 18.7237 47.5344 18.3226V15.5147C47.5344 12.1929 50.2273 9.5 53.5491 9.5C55.9691 9.5 58.0521 10.9292 59.0061 12.9828C59.1255 13.2397 59.2273 13.5065 59.31 13.7817C59.5587 14.6094 59.0894 15.482 58.2617 15.7307C57.434 15.9794 56.5615 15.5101 56.3127 14.6824C56.2733 14.5513 56.2248 14.424 56.1678 14.3013C55.7077 13.3111 54.7064 12.6297 53.5491 12.6297ZM55.5199 23.1874C55.5199 23.9381 55.1193 24.5952 54.5202 24.9566L55.2982 26.8371C55.5417 27.4258 55.109 28.0731 54.4719 28.0731H52.4386C51.8015 28.0731 51.3688 27.4258 51.6124 26.8371L52.3903 24.9566C51.7913 24.5952 51.3907 23.9381 51.3907 23.1874C51.3907 22.0472 52.315 21.1228 53.4553 21.1228C54.5955 21.1228 55.5199 22.0472 55.5199 23.1874Z" fill="#25292E"/>
<g filter="url(#filter2_d_674_121666)">
<path d="M91.3928 91.6697C91.3928 96.37 95.2032 100.18 99.9035 100.18H122.882C127.583 100.18 131.393 96.37 131.393 91.6697V73.8789C131.393 69.7286 128.028 66.3641 123.878 66.3641H109.61L102.728 60.3299C101.628 59.3652 99.9035 60.1465 99.9035 61.6097V66.3641H98.9075C94.7573 66.3641 91.3928 69.7286 91.3928 73.8789V91.6697Z" fill="#FEFEFE"/>
</g>
<circle r="2.17391" transform="matrix(1 0 0 -1 103.567 83.911)" fill="#25292E"/>
<circle r="2.17391" transform="matrix(1 0 0 -1 111.393 83.911)" fill="#57606A"/>
<circle r="2.17391" transform="matrix(1 0 0 -1 119.219 83.911)" fill="#6E7781"/>
<defs>
<filter id="filter0_dd_674_121666" x="21.3928" y="0.954381" width="122" height="122" filterUnits="userSpaceOnUse" color-interpolation-filters="sRGB">
<feFlood flood-opacity="0" result="BackgroundImageFix"/>
<feColorMatrix in="SourceAlpha" type="matrix" values="0 0 0 0 0 0 0 0 0 0 0 0 0 0 0 0 0 0 127 0" result="hardAlpha"/>
<feOffset dy="3"/>
<feGaussianBlur stdDeviation="2"/>
<feComposite in2="hardAlpha" operator="out"/>
<feColorMatrix type="matrix" values="0 0 0 0 0 0 0 0 0 0 0 0 0 0 0 0 0 0 0.14 0"/>
<feBlend mode="normal" in2="BackgroundImageFix" result="effect1_dropShadow_674_121666"/>
<feColorMatrix in="SourceAlpha" type="matrix" values="0 0 0 0 0 0 0 0 0 0 0 0 0 0 0 0 0 0 127 0" result="hardAlpha"/>
<feOffset dy="10"/>
<feGaussianBlur stdDeviation="7"/>
<feComposite in2="hardAlpha" operator="out"/>
<feColorMatrix type="matrix" values="0 0 0 0 0 0 0 0 0 0 0 0 0 0 0 0 0 0 0.12 0"/>
<feBlend mode="normal" in2="effect1_dropShadow_674_121666" result="effect2_dropShadow_674_121666"/>
<feBlend mode="normal" in="SourceGraphic" in2="effect2_dropShadow_674_121666" result="shape"/>
</filter>
<filter id="filter1_dddddd_674_121666" x="0.0331116" y="4.32944" width="106.844" height="115.476" filterUnits="userSpaceOnUse" color-interpolation-filters="sRGB">
<feFlood flood-opacity="0" result="BackgroundImageFix"/>
<feColorMatrix in="SourceAlpha" type="matrix" values="0 0 0 0 0 0 0 0 0 0 0 0 0 0 0 0 0 0 127 0" result="hardAlpha"/>
<feOffset dy="2.76726"/>
<feGaussianBlur stdDeviation="1.1069"/>
<feColorMatrix type="matrix" values="0 0 0 0 0 0 0 0 0 0 0 0 0 0 0 0 0 0 0.01 0"/>
<feBlend mode="normal" in2="BackgroundImageFix" result="effect1_dropShadow_674_121666"/>
<feColorMatrix in="SourceAlpha" type="matrix" values="0 0 0 0 0 0 0 0 0 0 0 0 0 0 0 0 0 0 127 0" result="hardAlpha"/>
<feOffset dy="6.6501"/>
<feGaussianBlur stdDeviation="2.66004"/>
<feColorMatrix type="matrix" values="0 0 0 0 0 0 0 0 0 0 0 0 0 0 0 0 0 0 0.0525061 0"/>
<feBlend mode="normal" in2="effect1_dropShadow_674_121666" result="effect2_dropShadow_674_121666"/>
<feColorMatrix in="SourceAlpha" type="matrix" values="0 0 0 0 0 0 0 0 0 0 0 0 0 0 0 0 0 0 127 0" result="hardAlpha"/>
<feOffset dy="12.5216"/>
<feGaussianBlur stdDeviation="5.00862"/>
<feColorMatrix type="matrix" values="0 0 0 0 0 0 0 0 0 0 0 0 0 0 0 0 0 0 0.065 0"/>
<feBlend mode="normal" in2="effect2_dropShadow_674_121666" result="effect3_dropShadow_674_121666"/>
<feColorMatrix in="SourceAlpha" type="matrix" values="0 0 0 0 0 0 0 0 0 0 0 0 0 0 0 0 0 0 127 0" result="hardAlpha"/>
<feOffset dy="22.3363"/>
<feGaussianBlur stdDeviation="8.93452"/>
<feColorMatrix type="matrix" values="0 0 0 0 0 0 0 0 0 0 0 0 0 0 0 0 0 0 0.0774939 0"/>
<feBlend mode="normal" in2="effect3_dropShadow_674_121666" result="effect4_dropShadow_674_121666"/>
<feColorMatrix in="SourceAlpha" type="matrix" values="0 0 0 0 0 0 0 0 0 0 0 0 0 0 0 0 0 0 127 0" result="hardAlpha"/>
<feOffset dy="41.7776"/>
<feGaussianBlur stdDeviation="16.711"/>
<feColorMatrix type="matrix" values="0 0 0 0 0 0 0 0 0 0 0 0 0 0 0 0 0 0 0.0934511 0"/>
<feBlend mode="normal" in2="effect4_dropShadow_674_121666" result="effect5_dropShadow_674_121666"/>
<feColorMatrix in="SourceAlpha" type="matrix" values="0 0 0 0 0 0 0 0 0 0 0 0 0 0 0 0 0 0 127 0" result="hardAlpha"/>
<feOffset dy="4"/>
<feGaussianBlur stdDeviation="2"/>
<feColorMatrix type="matrix" values="0 0 0 0 0 0 0 0 0 0 0 0 0 0 0 0 0 0 0.25 0"/>
<feBlend mode="normal" in2="effect5_dropShadow_674_121666" result="effect6_dropShadow_674_121666"/>
<feBlend mode="normal" in="SourceGraphic" in2="effect6_dropShadow_674_121666" result="shape"/>
</filter>
<filter id="filter2_d_674_121666" x="87.3928" y="59.9043" width="48.0001" height="48.2761" filterUnits="userSpaceOnUse" color-interpolation-filters="sRGB">
<feFlood flood-opacity="0" result="BackgroundImageFix"/>
<feColorMatrix in="SourceAlpha" type="matrix" values="0 0 0 0 0 0 0 0 0 0 0 0 0 0 0 0 0 0 127 0" result="hardAlpha"/>
<feOffset dy="4"/>
<feGaussianBlur stdDeviation="2"/>
<feColorMatrix type="matrix" values="0 0 0 0 0 0 0 0 0 0 0 0 0 0 0 0 0 0 0.25 0"/>
<feBlend mode="normal" in2="BackgroundImageFix" result="effect1_dropShadow_674_121666"/>
<feBlend mode="normal" in="SourceGraphic" in2="effect1_dropShadow_674_121666" result="shape"/>
</filter>
</defs>
</svg>
