<svg viewBox="0 0 200 200" xmlns="http://www.w3.org/2000/svg"><g stroke="#fff" stroke-miterlimit="10"><text fill="#e6dcfd" font-family="ChartwellPies, Chartwell Pies" font-size="36" transform="translate(6.01 -7.47)"><tspan letter-spacing="0em">7</tspan><tspan x="10.01" y="0">1+16+</tspan><tspan fill="#d1bcf9" letter-spacing="0em" x="65.77" y="0">5+</tspan><tspan fill="#b392f0" x="90.86" y="0">5+</tspan><tspan fill="#8a63d2" letter-spacing="0em" x="115.95" y="0">1</tspan></text><path d="m14.21 150.46a98.22 98.22 0 0 0 15.55 20.11 99.84 99.84 0 0 0 20.48 15.66 100.24 100.24 0 0 0 51.22 13.25 99.67 99.67 0 0 0 84.76-49.84 97.6 97.6 0 0 0 10.06-24.7l-48.86-12.65a48.79 48.79 0 0 1 -16.23 25.5 49 49 0 1 1 -31.29-86.79l.1-50.3a96.53 96.53 0 0 0 -21.76 2.3 100.5 100.5 0 0 0 -20.34 6.94 98.91 98.91 0 0 0 -54.21 65.17 97.75 97.75 0 0 0 -3.17 26.48 99.8 99.8 0 0 0 13.69 48.87z" fill="#e6dcfd"/><path d="m100 51a49 49 0 0 1 41.38 22.77l42.62-26.89a98.33 98.33 0 0 0 -15.55-19 99.67 99.67 0 0 0 -68.45-27.38l-.07 50.5z" fill="#d1bcf9"/><path d="m141.39 73.8a49.1 49.1 0 0 1 5.22 11.08h.06c.31 1 .58 1.93.84 2.91l48.86-12.43h.06a107.7 107.7 0 0 0 -5-14.63 92.19 92.19 0 0 0 -7.38-14z" fill="#b392f0"/><path d="m141.39 73.8 42.61-26.88-42.63 26.9z" fill="#b392f0"/><path d="m149 100c0 1-.05 2.1-.11 3.14l50.38 3.27a95.15 95.15 0 0 0 -2.93-31l-48.87 12.47a49 49 0 0 1 1.53 12.12z" fill="#8a63d2"/><path d="m147.47 87.86 48.87-12.42z" fill="#8a63d2"/><path d="m148.89 103.19c-.07 1-.17 2-.3 3l50.07 6.43c.12-1 .23-2 .33-3.08s.19-2.08.28-3.16l-50.38-3.27z" fill="#6f42c1"/></g></svg>