<svg viewBox="0 0 200 200" xmlns="http://www.w3.org/2000/svg"><text fill="#e6dcfd" font-family="ChartwellPies, Chartwell Pies" font-size="36" transform="translate(6.04 -7.64)">69+<tspan fill="#d1bcf9" x="39.49" y="0">14+</tspan><tspan fill="#b392f0" x="73.62" y="0">8+</tspan><tspan fill="#8a63d2" x="99.18" y="0">5+</tspan><tspan fill="#6f42c1" letter-spacing="0em" x="124.27" y="0">4</tspan></text><g stroke="#fff" stroke-miterlimit="10"><path d="m8.63 139.52a98.43 98.43 0 0 0 12.95 21.87 100.36 100.36 0 0 0 18.42 18.07 100.35 100.35 0 0 0 49.21 19.47 99.69 99.69 0 0 0 90.28-39 97.81 97.81 0 0 0 13-23.26l-47-18.59a46.87 46.87 0 0 1 -2.63 5.6 49.06 49.06 0 0 1 -11.71 14.11 49 49 0 1 1 -31.34-86.79l-.06-50.21a97.46 97.46 0 0 0 -28.93 4.28 99 99 0 0 0 -26.23 12.43 100.1 100.1 0 0 0 -21.72 19.72 99.7 99.7 0 0 0 -21.8 52.12 99.62 99.62 0 0 0 7.56 50.18z" fill="#e6dcfd"/><path d="m100 51a48.87 48.87 0 0 1 37.71 17.74l38.86-32.1a100 100 0 0 0 -54.34-33.6 98.1 98.1 0 0 0 -22.44-2.54v50.52h.21z" fill="#d1bcf9"/><path d="m146.61 84.88h.06a49.8 49.8 0 0 1 1.5 5.86l49.62-9.45a99 99 0 0 0 -21.18-44.71l-38.86 32.1a49 49 0 0 1 8.86 16.2z" fill="#b392f0"/><path d="m148.89 103.19c-.07 1-.17 2-.29 3l50.09 6.34h.07a104.12 104.12 0 0 0 .7-15.41 100.15 100.15 0 0 0 -1.74-15.71l-49.59 9.42a48.57 48.57 0 0 1 .87 9.17c0 1.08 0 2.14-.11 3.19z" fill="#8a63d2"/><g fill="#6f42c1"><path d="m145.53 118.07 47 18.59a99.18 99.18 0 0 0 6.18-24.12l-50.09-6.36a48.56 48.56 0 0 1 -3.09 11.89z"/><path d="m148.6 106.18 50.09 6.36z"/></g></g></svg>