<svg width="138" height="138" viewBox="0 0 138 138" fill="none" xmlns="http://www.w3.org/2000/svg">
<mask id="path-1-outside-1" maskUnits="userSpaceOnUse" x="0" y="0" width="136" height="138" fill="black">
<rect fill="white" width="136" height="138"/>
<path fill-rule="evenodd" clip-rule="evenodd" d="M33.3296 11.1068C44.0682 4.4903 56.4354 0.990985 69.0487 1.00002L69.0222 38C69.0148 38 69.0074 38 69 38C51.8792 38 38 51.8792 38 69C38 86.1208 51.8792 100 69 100C83.0423 100 94.904 90.6633 98.7156 77.8592L134.166 88.428C130.562 100.516 123.667 111.363 114.252 119.756C104.838 128.15 93.2738 133.76 80.8536 135.959C68.4335 138.158 55.6465 136.859 43.9223 132.207C32.1981 127.555 21.9987 119.734 14.4644 109.618C6.93005 99.5027 2.35778 87.4907 1.25869 74.9254C0.15959 62.36 2.57699 49.7366 8.24066 38.4664C13.9043 27.1962 22.591 17.7233 33.3296 11.1068Z"/>
</mask>
<path fill-rule="evenodd" clip-rule="evenodd" d="M33.3296 11.1068C44.0682 4.4903 56.4354 0.990985 69.0487 1.00002L69.0222 38C69.0148 38 69.0074 38 69 38C51.8792 38 38 51.8792 38 69C38 86.1208 51.8792 100 69 100C83.0423 100 94.904 90.6633 98.7156 77.8592L134.166 88.428C130.562 100.516 123.667 111.363 114.252 119.756C104.838 128.15 93.2738 133.76 80.8536 135.959C68.4335 138.158 55.6465 136.859 43.9223 132.207C32.1981 127.555 21.9987 119.734 14.4644 109.618C6.93005 99.5027 2.35778 87.4907 1.25869 74.9254C0.15959 62.36 2.57699 49.7366 8.24066 38.4664C13.9043 27.1962 22.591 17.7233 33.3296 11.1068Z" fill="#E6DCFD"/>
<path d="M69.0487 1.00002L70.0487 1.00073L70.0494 0.00073381L69.0494 1.76985e-05L69.0487 1.00002ZM69.0222 38V39H70.0215L70.0222 38.0007L69.0222 38ZM98.7156 77.8592L99.0014 76.9009L98.0426 76.615L97.7572 77.5739L98.7156 77.8592ZM134.166 88.428L135.124 88.7137L135.41 87.7554L134.451 87.4697L134.166 88.428ZM43.9223 132.207L43.5535 133.136L43.5535 133.136L43.9223 132.207ZM8.24066 38.4664L7.34714 38.0174L7.34714 38.0174L8.24066 38.4664ZM69.0494 1.76985e-05C56.2507 -0.00914766 43.7016 3.54163 32.805 10.2554L33.8542 11.9582C44.4348 5.43898 56.6202 1.99112 69.048 2.00002L69.0494 1.76985e-05ZM70.0222 38.0007L70.0487 1.00073L68.0487 0.999301L68.0222 37.9993L70.0222 38.0007ZM69 39C69.0034 39 69.0068 39 69.0106 39C69.0143 39 69.0182 39 69.0222 39V37C69.0188 37 69.0154 37 69.0116 37C69.008 37 69.004 37 69 37V39ZM39 69C39 52.4315 52.4315 39 69 39V37C51.3269 37 37 51.3269 37 69H39ZM69 99C52.4315 99 39 85.5685 39 69H37C37 86.6731 51.3269 101 69 101V99ZM97.7572 77.5739C94.0683 89.9657 82.5879 99 69 99V101C83.4968 101 95.7397 91.3609 99.6741 78.1445L97.7572 77.5739ZM134.451 87.4697L99.0014 76.9009L98.4299 78.8175L133.88 89.3863L134.451 87.4697ZM114.918 120.503C124.471 111.986 131.467 100.979 135.124 88.7137L133.207 88.1423C129.657 100.052 122.863 110.74 113.587 119.01L114.918 120.503ZM81.028 136.944C93.6308 134.713 105.365 129.02 114.918 120.503L113.587 119.01C104.311 127.28 92.9169 132.808 80.6793 134.974L81.028 136.944ZM43.5535 133.136C55.4501 137.856 68.4251 139.175 81.028 136.944L80.6793 134.974C68.4418 137.141 55.8429 135.861 44.2911 131.277L43.5535 133.136ZM13.6624 110.216C21.3075 120.48 31.6569 128.416 43.5535 133.136L44.2911 131.277C32.7393 126.694 22.6899 118.988 15.2664 109.021L13.6624 110.216ZM0.26249 75.0125C1.37775 87.7626 6.01726 99.9513 13.6624 110.216L15.2664 109.021C7.84285 99.0541 3.33782 87.2188 2.25488 74.8382L0.26249 75.0125ZM7.34714 38.0174C1.60018 49.4534 -0.852769 62.2624 0.26249 75.0125L2.25488 74.8382C1.17195 62.4577 3.5538 50.0199 9.13418 38.9154L7.34714 38.0174ZM32.805 10.2554C21.9085 16.9692 13.0941 26.5814 7.34714 38.0174L9.13418 38.9154C14.7146 27.8109 23.2735 18.4774 33.8542 11.9582L32.805 10.2554Z" fill="white" mask="url(#path-1-outside-1)"/>
<mask id="path-3-outside-2" maskUnits="userSpaceOnUse" x="67.0222" y="-1" width="58" height="53" fill="black">
<rect fill="white" x="67.0222" y="-1" width="58" height="53"/>
<path fill-rule="evenodd" clip-rule="evenodd" d="M99.5336 8.24061C108.993 12.9943 117.212 19.891 123.536 28.3815L93.8633 50.4816C88.2157 42.9112 79.1918 38.0071 69.0222 38L69.0487 1C79.6354 1.00758 90.0742 3.48692 99.5336 8.24061Z"/>
</mask>
<path fill-rule="evenodd" clip-rule="evenodd" d="M99.5336 8.24061C108.993 12.9943 117.212 19.891 123.536 28.3815L93.8633 50.4816C88.2157 42.9112 79.1918 38.0071 69.0222 38L69.0487 1C79.6354 1.00758 90.0742 3.48692 99.5336 8.24061Z" fill="#D1BCF9"/>
<path d="M123.536 28.3815L124.133 29.1835L124.935 28.5861L124.338 27.7841L123.536 28.3815ZM93.8633 50.4816L93.0618 51.0796L93.6593 51.8805L94.4607 51.2836L93.8633 50.4816ZM69.0222 38L68.0222 37.9993L68.0215 38.9993L69.0215 39L69.0222 38ZM69.0487 1L69.0494 2.5641e-07L68.0494 -0.000715858L68.0487 0.999284L69.0487 1ZM124.338 27.7841C117.921 19.1688 109.581 12.1707 99.9826 7.34709L99.0846 9.13413C108.405 13.8179 116.503 20.6132 122.734 28.9788L124.338 27.7841ZM94.4607 51.2836L124.133 29.1835L122.938 27.5795L93.266 49.6796L94.4607 51.2836ZM69.0215 39C78.8624 39.0069 87.5946 43.751 93.0618 51.0796L94.6649 49.8837C88.8367 42.0713 79.5212 37.0074 69.0229 37L69.0215 39ZM68.0487 0.999284L68.0222 37.9993L70.0222 38.0007L70.0487 1.00072L68.0487 0.999284ZM99.9826 7.34709C90.3841 2.5235 79.7918 0.00769304 69.0494 2.5641e-07L69.048 2C79.479 2.00747 89.7642 4.45035 99.0846 9.13413L99.9826 7.34709Z" fill="white" mask="url(#path-3-outside-2)"/>
<mask id="path-5-outside-3" maskUnits="userSpaceOnUse" x="91.8633" y="26.3815" width="46" height="40" fill="black">
<rect fill="white" x="91.8633" y="26.3815" width="46" height="40"/>
<path fill-rule="evenodd" clip-rule="evenodd" d="M123.536 28.3815C130.291 37.4514 134.678 48.063 136.298 59.2554L99.684 64.557C98.934 59.331 96.8804 54.5258 93.8633 50.4816L123.536 28.3815Z"/>
</mask>
<path fill-rule="evenodd" clip-rule="evenodd" d="M123.536 28.3815C130.291 37.4514 134.678 48.063 136.298 59.2554L99.684 64.557C98.934 59.331 96.8804 54.5258 93.8633 50.4816L123.536 28.3815Z" fill="#B392F0"/>
<path d="M136.298 59.2554L136.441 60.2451L137.431 60.1018L137.288 59.1121L136.298 59.2554ZM123.536 28.3815L124.338 27.7841L123.74 26.9821L122.938 27.5795L123.536 28.3815ZM99.684 64.557L98.6941 64.6991L98.8364 65.6902L99.8273 65.5467L99.684 64.557ZM93.8633 50.4816L93.266 49.6796L92.4634 50.2774L93.0618 51.0796L93.8633 50.4816ZM137.288 59.1121C135.643 47.7551 131.192 36.9874 124.338 27.7841L122.734 28.9788C129.39 37.9153 133.712 48.3709 135.309 59.3987L137.288 59.1121ZM99.8273 65.5467L136.441 60.2451L136.155 58.2658L99.5407 63.5674L99.8273 65.5467ZM93.0618 51.0796C95.9818 54.9937 97.9685 59.6429 98.6941 64.6991L100.674 64.415C99.8994 59.019 97.779 54.058 94.6649 49.8837L93.0618 51.0796ZM122.938 27.5795L93.266 49.6796L94.4607 51.2836L124.133 29.1835L122.938 27.5795Z" fill="white" mask="url(#path-5-outside-3)"/>
<mask id="path-7-outside-4" maskUnits="userSpaceOnUse" x="97.684" y="57.2555" width="41" height="22" fill="black">
<rect fill="white" x="97.684" y="57.2555" width="41" height="22"/>
<path fill-rule="evenodd" clip-rule="evenodd" d="M99.7798 72.7144C99.9252 71.4966 100 70.257 100 69C100 67.4914 99.8923 66.008 99.684 64.5571L136.298 59.2555C137.157 65.184 137.228 71.1998 136.51 77.147L99.7798 72.7144Z"/>
</mask>
<path fill-rule="evenodd" clip-rule="evenodd" d="M99.7798 72.7144C99.9252 71.4966 100 70.257 100 69C100 67.4914 99.8923 66.008 99.684 64.5571L136.298 59.2555C137.157 65.184 137.228 71.1998 136.51 77.147L99.7798 72.7144Z" fill="#8A63D2"/>
<path d="M99.7798 72.7144L98.7868 72.5959L98.6684 73.5876L99.66 73.7072L99.7798 72.7144ZM99.684 64.5571L99.5407 63.5674L98.5523 63.7105L98.6942 64.6992L99.684 64.5571ZM136.298 59.2555L137.288 59.1122L137.145 58.1225L136.155 58.2658L136.298 59.2555ZM136.51 77.147L136.39 78.1398L137.383 78.2596L137.503 77.2668L136.51 77.147ZM99 69C99 70.2173 98.9276 71.4173 98.7868 72.5959L100.773 72.833C100.923 71.5759 101 70.2967 101 69H99ZM98.6942 64.6992C98.8957 66.1032 99 67.5391 99 69H101C101 67.4438 100.889 65.9129 100.674 64.415L98.6942 64.6992ZM136.155 58.2658L99.5407 63.5674L99.8273 65.5468L136.442 60.2452L136.155 58.2658ZM137.503 77.2668C138.231 71.2322 138.159 65.1278 137.288 59.1122L135.309 59.3988C136.154 65.2401 136.225 71.1675 135.517 77.0272L137.503 77.2668ZM99.66 73.7072L136.39 78.1398L136.63 76.1542L99.8996 71.7216L99.66 73.7072Z" fill="white" mask="url(#path-7-outside-4)"/>
<mask id="path-9-outside-5" maskUnits="userSpaceOnUse" x="96.9788" y="70.7144" width="41" height="17" fill="black">
<rect fill="white" x="96.9788" y="70.7144" width="41" height="17"/>
<path fill-rule="evenodd" clip-rule="evenodd" d="M99.7798 72.7144C99.6085 74.1491 99.3392 75.5537 98.9788 76.9213L134.744 86.3715C135.544 83.341 136.135 80.2588 136.51 77.1469L99.7798 72.7144Z"/>
</mask>
<path fill-rule="evenodd" clip-rule="evenodd" d="M99.7798 72.7144C99.6085 74.1491 99.3392 75.5537 98.9788 76.9213L134.744 86.3715C135.544 83.341 136.135 80.2588 136.51 77.1469L99.7798 72.7144Z" fill="#6F42C1"/>
<path d="M99.7798 72.7144L99.8996 71.7216L98.9055 71.6017L98.7868 72.5959L99.7798 72.7144ZM98.9788 76.9213L98.0118 76.6665L97.7571 77.6328L98.7233 77.8881L98.9788 76.9213ZM134.744 86.3715L134.488 87.3383L135.455 87.5938L135.711 86.627L134.744 86.3715ZM136.51 77.1469L137.503 77.2668L137.623 76.274L136.63 76.1542L136.51 77.1469ZM98.7868 72.5959C98.621 73.9843 98.3605 75.3434 98.0118 76.6665L99.9457 77.1761C100.318 75.764 100.596 74.3139 100.773 72.833L98.7868 72.5959ZM98.7233 77.8881L134.488 87.3383L134.999 85.4047L99.2342 75.9545L98.7233 77.8881ZM135.711 86.627C136.523 83.5519 137.122 80.4244 137.503 77.2668L135.517 77.0271C135.147 80.0933 134.566 83.1301 133.777 86.116L135.711 86.627ZM136.63 76.1542L99.8996 71.7216L99.66 73.7072L136.39 78.1397L136.63 76.1542Z" fill="white" mask="url(#path-9-outside-5)"/>
<mask id="path-11-outside-6" maskUnits="userSpaceOnUse" x="96.7156" y="74.9213" width="40" height="15" fill="black">
<rect fill="white" x="96.7156" y="74.9213" width="40" height="15"/>
<path fill-rule="evenodd" clip-rule="evenodd" d="M98.9787 76.9213C98.8958 77.2359 98.8081 77.5486 98.7156 77.8592L134.166 88.428C134.369 87.7456 134.562 87.06 134.744 86.3715L98.9787 76.9213Z"/>
</mask>
<path fill-rule="evenodd" clip-rule="evenodd" d="M98.9787 76.9213C98.8958 77.2359 98.8081 77.5486 98.7156 77.8592L134.166 88.428C134.369 87.7456 134.562 87.06 134.744 86.3715L98.9787 76.9213Z" fill="#5A32A3"/>
<path d="M98.9787 76.9213L99.2342 75.9545L98.2668 75.6989L98.0118 76.6665L98.9787 76.9213ZM98.7156 77.8592L97.7572 77.5739L97.472 78.5319L98.4299 78.8175L98.7156 77.8592ZM134.166 88.428L133.88 89.3863L134.838 89.672L135.124 88.7137L134.166 88.428ZM134.744 86.3715L135.711 86.627L135.966 85.6601L134.999 85.4047L134.744 86.3715ZM98.0118 76.6665C97.9315 76.9709 97.8467 77.2734 97.7572 77.5739L99.6741 78.1445C99.7695 77.8238 99.8601 77.501 99.9457 77.1761L98.0118 76.6665ZM98.4299 78.8175L133.88 89.3863L134.451 87.4697L99.0013 76.9009L98.4299 78.8175ZM135.124 88.7137C135.33 88.0212 135.526 87.3256 135.711 86.627L133.777 86.116C133.598 86.7944 133.408 87.4699 133.207 88.1423L135.124 88.7137ZM134.999 85.4047L99.2342 75.9545L98.7233 77.8881L134.488 87.3383L134.999 85.4047Z" fill="white" mask="url(#path-11-outside-6)"/>
</svg>
