<svg fill="none" height="138" viewBox="0 0 138 138" width="138" xmlns="http://www.w3.org/2000/svg"><g stroke="#fff"><path d="m69.4812.999861-.0002-.5-.5.000139c-13.1084.003637-25.9406 3.76842-36.9732 10.8474-11.0327 7.079-19.8025 17.175-25.26847 29.0895-5.46597 11.9144-7.398547 25.1471-5.56834 38.1271 1.83022 12.9801 7.34636 25.162 15.89361 35.101 8.5473 9.939 19.7668 17.216 32.3267 20.968 12.5599 3.753 25.9328 3.823 38.5312.202 12.5985-3.621 23.8935-10.781 32.5435-20.63 8.651-9.849 14.294-21.973 16.26-34.9333l.075-.4943-.495-.075-36.5773-5.5476-.495-.075-.0744.495c-2.207 14.6743-14.8697 25.9252-30.1593 25.9252-16.8447 0-30.5-13.6553-30.5-30.5 0-16.8419 13.6508-30.4955 30.4916-30.5l.5-.0001-.0002-.5z" fill="#e6dcfd"/><path d="m125.032 30.4691.41-.2864-.286-.4099c-6.316-9.0409-14.721-16.4233-24.501-21.51971-9.7797-5.09641-20.6457-7.756147-31.6739-7.753087l-.5.000138.0001.499999.0103 36.99996.0001.4999h.4999.0001.0001.0001.0001.0001.0001.0001.0001.0001.0001.0001.0001.0001.0001.0001.0001.0001.0001.0001.0001.0001.0001.0001.0001.0001.0001.0001.0001.0001.0001.0001.0001.0001.0001.0001.0001.0001.0001.0001.0001.0001.0001.0001.0001.0001.0001.0001.0001.0001.0001.0001.0001.0001.0001.0001.0001.0001.0001.0001.0001.0001.0001.0001.0001.0001.0001.0001.0001.0001.0001.0001.0001.0001.0001.0001.0001.0001.0001.0001.0001.0001.0001.0001.0001.0001c10.347 0 19.4909 5.1519 25.0062 13.0328l.2864.4093.4096-.2861z" fill="#d1bcf9"/><path d="m134.772 51.7273.482-.1306-.13-.4826c-2.066-7.6359-5.438-14.8564-9.968-21.3412l-.286-.4099-.41.2863-30.3305 21.1869-.4103.2866.287.41c1.9939 2.8491 3.5131 6.0544 4.4431 9.5011l.1304.4831.4829-.1307z" fill="#b392f0"/><path d="m99.4516 67.2673.028.4997.4996-.0285 36.9398-2.1014.499-.0284-.028-.4992c-.27-4.731-1.029-9.4212-2.266-13.9954l-.131-.4827-.482.1306-35.7095 9.659-.4823.1305.1301.4824c.5406 2.0034.8822 4.0886 1.0023 6.2334z" fill="#8a63d2"/><path d="m99.1592 73.5749-.0742.4938.4937.0749 36.5773 5.5475.495.075.074-.4943c.711-4.6851.934-9.4313.664-14.1623l-.028-.4992-.499.0284-36.9396 2.1015-.4987.0283.0279.4988c.0321.5734.0484 1.1511.0484 1.7327 0 1.5552-.1164 3.0828-.3408 4.5749z" fill="#6f42c1"/></g></svg>