<svg width="512" height="512" viewBox="0 0 512 512" fill="none" xmlns="http://www.w3.org/2000/svg">
<circle cx="256" cy="256" r="256" fill="#23995B"/>
<path d="M328.849 320.253C285.843 363.258 232.895 358.543 198.736 343.81C188.864 352.464 176.102 372.567 176.102 372.567C171.908 379.673 150.71 371.824 152.598 363.117C164.746 333.732 205.861 253.391 291.229 215.792C293.515 214.292 295.263 213.602 297.389 212.763C298.819 212.199 300.421 211.566 302.474 210.574C229.25 219 191.066 251.038 155.605 307.47C154.771 308.797 152.756 308.589 152.205 307.121C118.744 218.055 188.103 165.938 252.278 156.622L361.569 137.032C362.627 136.843 363.645 137.504 363.867 138.557C375.818 195.294 365.161 283.941 328.849 320.253Z" fill="white"/>
</svg>
