<svg width="203" height="150" viewBox="0 0 203 150" fill="none" xmlns="http://www.w3.org/2000/svg">
<path d="M110.352 131.437C161.411 131.437 202.802 126.631 202.802 120.702C202.802 114.773 161.411 109.966 110.352 109.966C59.2938 109.966 17.9026 114.773 17.9026 120.702C17.9026 126.631 59.2938 131.437 110.352 131.437Z" fill="#E8EAEE"/>
<path fill-rule="evenodd" clip-rule="evenodd" d="M149.544 50.9565C147.621 54.0151 145.357 56.8444 142.793 59.3897L142.773 59.4095L142.752 59.4271C139.836 61.7714 136.295 63.2056 132.57 63.5511L132.471 62.4822C135.977 62.157 139.31 60.8098 142.057 58.608C144.554 56.1254 146.761 53.3668 148.635 50.3853L149.544 50.9565Z" fill="#0366D6"/>
<path fill-rule="evenodd" clip-rule="evenodd" d="M120.497 115.066L120.497 123.329L120.497 123.332L120.497 123.341L120.497 123.377C120.497 123.409 120.497 123.454 120.496 123.512C120.495 123.628 120.49 123.795 120.481 124C120.461 124.41 120.417 124.973 120.324 125.587C120.23 126.201 120.085 126.873 119.86 127.496C119.636 128.117 119.325 128.71 118.887 129.147L118.869 129.166L118.847 129.181C117.312 130.263 115.459 130.799 113.583 130.704H68.3706C67.8317 130.661 67.2902 130.737 66.7846 130.929C66.2908 131.116 65.8433 131.407 65.4726 131.783C64.9714 132.672 64.7656 133.697 64.8856 134.711L64.9258 135.051H29.5905C29.2489 135.036 28.9078 135.09 28.5876 135.21C28.2674 135.33 27.9747 135.513 27.727 135.749C27.4793 135.985 27.2818 136.268 27.1462 136.582C27.0106 136.896 26.9398 137.234 26.938 137.576L26.9379 137.581C26.9223 138.27 27.1674 138.94 27.6241 139.457C28.0776 139.969 28.7066 140.293 29.3869 140.365H45.933C46.9411 140.322 47.9296 140.653 48.7093 141.293L48.7302 141.311L48.7477 141.331C49.3847 142.079 49.7001 143.048 49.6255 144.027V147.171L49.6216 147.195C49.5729 147.498 49.5938 147.808 49.6827 148.102C49.7714 148.395 49.9255 148.664 50.1334 148.889C50.178 148.935 50.2608 148.991 50.3953 149.047C50.528 149.103 50.6933 149.152 50.8846 149.194C51.2672 149.278 51.7251 149.328 52.1722 149.357C52.6175 149.385 53.0433 149.392 53.3583 149.392C53.5156 149.391 53.6448 149.389 53.7343 149.387L53.8374 149.385L53.8639 149.384L53.8705 149.383L53.8839 149.383L99.3164 149.383C99.966 149.242 100.553 148.895 100.991 148.394C101.43 147.891 101.694 147.26 101.745 146.594C101.682 145.923 101.414 145.286 100.976 144.773C100.54 144.262 99.9588 143.898 99.3102 143.729H85.7028L85.6577 143.715C84.9119 143.477 84.2664 142.997 83.8232 142.352C83.3849 141.714 83.169 140.949 83.2085 140.177C83.1303 139.426 83.3425 138.674 83.8022 138.074C84.2672 137.468 84.9492 137.065 85.7048 136.951L85.7273 136.948H107.328V137.556H85.7736C85.1824 137.651 84.6496 137.969 84.2849 138.444C83.9157 138.926 83.7476 139.532 83.8158 140.134L83.8188 140.16L83.8172 140.186C83.7794 140.833 83.958 141.474 84.3247 142.008C84.6827 142.529 85.2001 142.919 85.7987 143.121H99.3856L99.4217 143.13C100.208 143.325 100.913 143.762 101.438 144.378C101.964 144.994 102.284 145.759 102.353 146.566L102.355 146.589L102.354 146.613C102.298 147.419 101.98 148.185 101.449 148.794C100.917 149.403 100.201 149.821 99.41 149.985L99.3795 149.991H53.8893L53.8849 149.992L53.856 149.993C53.8309 149.993 53.7944 149.994 53.7478 149.995C53.6547 149.997 53.5213 150 53.3594 150C53.0359 150 52.5961 149.994 52.1333 149.964C51.6724 149.935 51.1798 149.882 50.7539 149.788C50.5409 149.741 50.3375 149.683 50.16 149.608C49.9854 149.535 49.8169 149.439 49.6912 149.306L49.6887 149.304C49.4173 149.011 49.2162 148.66 49.1005 148.278C48.9872 147.904 48.9588 147.509 49.0171 147.123V143.991C49.0819 143.178 48.8254 142.372 48.302 141.746C47.6399 141.211 46.8045 140.936 45.9531 140.973L45.9397 140.974L29.3561 140.974L29.341 140.972C28.5025 140.888 27.7267 140.491 27.1684 139.86C26.6107 139.229 26.3113 138.411 26.3297 137.57C26.3323 137.147 26.42 136.729 26.5877 136.341C26.7557 135.952 27.0006 135.601 27.3076 135.308C27.6146 135.016 27.9774 134.789 28.3742 134.64C28.769 134.492 29.1894 134.425 29.6105 134.443H64.252C64.1948 133.399 64.4407 132.358 64.9638 131.447L64.9827 131.414L65.009 131.387C65.447 130.934 65.9798 130.583 66.5693 130.36C67.1549 130.138 67.782 130.048 68.4063 130.095H113.606C115.34 130.185 117.053 129.694 118.475 128.699C118.816 128.35 119.083 127.856 119.288 127.29C119.495 126.715 119.632 126.085 119.722 125.496C119.812 124.907 119.854 124.365 119.873 123.971C119.882 123.774 119.886 123.614 119.888 123.504C119.889 123.449 119.889 123.406 119.889 123.378L119.889 123.346L119.889 123.338L119.889 123.336L119.889 123.332V115.066H120.497Z" fill="#72B5E4"/>
<path fill-rule="evenodd" clip-rule="evenodd" d="M178.397 77.7781L194.661 92.933L192.657 94.5433L177.771 80.3367L178.397 77.7781Z" fill="#DCA82D"/>
<path fill-rule="evenodd" clip-rule="evenodd" d="M179.141 79.3751C178.814 79.2905 178.469 79.3024 178.148 79.4094L177.967 78.8662C178.392 78.7243 178.85 78.7085 179.284 78.8207C179.717 78.9324 180.108 79.1663 180.411 79.4942C180.82 79.9048 181.023 80.2753 181.089 80.6356C181.155 80.992 181.079 81.3014 181.014 81.5515C181.011 81.561 181.009 81.5704 181.006 81.5798C180.941 81.8292 180.894 82.0115 180.916 82.2087C180.938 82.3976 181.031 82.6332 181.338 82.9446C181.649 83.259 181.843 83.3038 181.961 83.2969C182.101 83.2886 182.234 83.208 182.441 83.0646C182.451 83.058 182.46 83.0513 182.47 83.0445C182.648 82.9212 182.895 82.7492 183.195 82.7222C183.54 82.6911 183.879 82.8498 184.237 83.213C184.598 83.5788 184.762 83.9207 184.8 84.2622C184.834 84.5614 184.765 84.8369 184.71 85.0587C184.705 85.0779 184.7 85.0967 184.696 85.115C184.636 85.3602 184.598 85.5537 184.641 85.7624C184.682 85.9653 184.808 86.2209 185.16 86.5515C185.511 86.8821 185.767 86.9814 185.958 86.9991C186.153 87.0172 186.331 86.9559 186.551 86.8553C186.581 86.8415 186.613 86.8263 186.646 86.8105C186.833 86.7219 187.067 86.6111 187.315 86.5792C187.64 86.5373 187.973 86.6253 188.328 86.9131C188.691 87.2064 188.84 87.5281 188.863 87.8745C188.88 88.1276 188.825 88.3953 188.777 88.6296C188.767 88.6819 188.756 88.7325 188.747 88.781C188.694 89.0668 188.664 89.3383 188.734 89.6303C188.803 89.9188 188.978 90.2565 189.385 90.6518C189.809 91.0621 190.034 91.1064 190.141 91.0938C190.259 91.0799 190.364 90.9904 190.544 90.7922C190.552 90.7837 190.56 90.7749 190.568 90.7659C190.642 90.6843 190.73 90.5871 190.826 90.5057C190.935 90.4129 191.074 90.3224 191.248 90.2873C191.615 90.2136 191.985 90.4063 192.395 90.8159C192.809 91.2304 193.005 91.5973 193.001 91.9543C192.997 92.3066 192.795 92.5656 192.651 92.7421C192.634 92.7629 192.618 92.7826 192.603 92.8013C192.546 92.871 192.499 92.9281 192.458 92.9881C192.409 93.0608 192.386 93.1145 192.379 93.1593C192.368 93.2228 192.372 93.3687 192.675 93.6553L192.693 93.6723C192.782 93.7724 192.871 93.8594 192.967 93.9516C193.019 94.0011 193.072 94.0522 193.128 94.1081L192.723 94.513C192.684 94.4741 192.64 94.4314 192.593 94.3861C192.49 94.2873 192.374 94.1759 192.273 94.0627C191.92 93.7261 191.757 93.4027 191.814 93.0642C191.841 92.9066 191.911 92.7747 191.984 92.6676C192.041 92.5831 192.11 92.4996 192.169 92.4279C192.182 92.4116 192.195 92.396 192.207 92.381C192.354 92.1997 192.427 92.0807 192.429 91.9477C192.43 91.8193 192.362 91.5935 191.99 91.2208C191.612 90.8431 191.432 90.8345 191.361 90.8486C191.317 90.8574 191.266 90.8831 191.197 90.9416C191.131 90.9976 191.068 91.0668 190.989 91.154C190.982 91.1616 190.975 91.1694 190.968 91.1774L190.961 91.1854C190.805 91.3566 190.565 91.6205 190.207 91.6625C189.833 91.7064 189.44 91.5025 188.987 91.0629C188.518 90.6083 188.277 90.1788 188.177 89.7639C188.078 89.3525 188.127 88.9844 188.185 88.6752C188.198 88.6055 188.211 88.5408 188.223 88.48C188.268 88.2534 188.303 88.0815 188.292 87.9122C188.28 87.7341 188.214 87.557 187.968 87.3583C187.716 87.1541 187.536 87.128 187.388 87.1471C187.237 87.1664 187.1 87.2309 186.912 87.319C186.873 87.337 186.833 87.356 186.789 87.3758C186.555 87.4833 186.26 87.602 185.905 87.5692C185.547 87.536 185.177 87.3536 184.767 86.9684C184.358 86.5834 184.151 86.2284 184.08 85.8766C184.009 85.5306 184.079 85.2254 184.14 84.9785C184.143 84.966 184.146 84.9537 184.149 84.9415C184.209 84.6992 184.253 84.5192 184.231 84.3261C184.21 84.1398 184.122 83.9114 183.829 83.6151C183.535 83.3164 183.354 83.2827 183.246 83.2924C183.109 83.3048 182.979 83.3886 182.767 83.5355C182.762 83.5386 182.758 83.5417 182.753 83.5449C182.57 83.6716 182.313 83.8498 181.994 83.8685C181.646 83.8889 181.3 83.7213 180.931 83.3468C180.558 82.9694 180.387 82.6212 180.348 82.2739C180.312 81.9664 180.386 81.6861 180.446 81.4598C180.45 81.442 180.455 81.4245 180.459 81.4074C180.524 81.1588 180.567 80.9594 180.526 80.7393C180.486 80.5244 180.359 80.2521 180.002 79.8949L179.993 79.8864C179.764 79.6373 179.469 79.4597 179.141 79.3751Z" fill="#F9C513"/>
<path d="M181.636 121.4L129.068 126.839V77.4025L178.648 77.7603L181.636 121.4Z" fill="#FFDF5D"/>
<path d="M180.58 106.084L178.648 77.7604L129.068 77.4026V82.7703C131.77 92.3785 134.937 101.933 138.426 111.398C152.543 109.43 166.642 108.374 180.58 106.084Z" fill="#F9C513"/>
<path d="M138.354 111.344C134.775 101.951 131.698 92.3965 128.996 82.7167V126.768L181.564 121.4L180.508 106.084C166.642 108.374 152.542 109.43 138.354 111.344Z" fill="#FFDF5D"/>
<mask id="mask0" mask-type="alpha" maskUnits="userSpaceOnUse" x="128" y="82" width="54" height="45">
<path d="M138.354 111.344C134.775 101.951 131.698 92.3961 128.996 82.7164V126.767L181.564 121.4L180.508 106.084C166.642 108.374 152.542 109.43 138.354 111.344Z" fill="#FFDF5D"/>
</mask>
<g mask="url(#mask0)">
<path d="M126.813 104.831C135.634 102.237 133.344 110.503 142.362 114.171C153.974 118.877 154.886 116.247 164.155 116.765C173.423 117.284 174.532 124.549 174.532 124.549V130.256L127.851 133.835L126.813 104.831Z" fill="#FFD33D"/>
</g>
<mask id="mask1" mask-type="alpha" maskUnits="userSpaceOnUse" x="128" y="82" width="54" height="45">
<path d="M138.578 105.028C134.999 95.6346 131.698 92.4678 128.996 82.788V126.839L181.564 121.471L180.508 106.155C166.642 108.446 152.766 103.114 138.578 105.028Z" fill="#FFDF5D"/>
</mask>
<g mask="url(#mask1)">
<path d="M149.895 126.32L149.286 106.567L134.31 106.352L134.722 128.019L149.895 126.32Z" fill="#FEFAE1"/>
</g>
<path d="M145.958 109.001H135.616" stroke="#F9A877" stroke-width="0.65" stroke-miterlimit="10"/>
<path d="M146.101 111.201L135.652 111.792" stroke="#F9A877" stroke-width="0.65" stroke-miterlimit="10"/>
<path d="M141.753 114.529L135.366 114.976" stroke="#F9A877" stroke-width="0.32" stroke-miterlimit="10"/>
<path d="M141.127 115.728L135.473 115.943" stroke="#F9A877" stroke-width="0.32" stroke-miterlimit="10"/>
<path d="M144.366 117.177L135.473 117.535" stroke="#F9A877" stroke-width="0.32" stroke-miterlimit="10"/>
<path d="M143.31 118.68L135.473 119.128" stroke="#F9A877" stroke-width="0.32" stroke-miterlimit="10"/>
<path d="M143.024 124.084L135.187 124.531" stroke="#F9A877" stroke-width="0.32" stroke-miterlimit="10"/>
<path d="M178.397 77.7783L189.616 98.6766L189.097 100.555L139.589 104.402L129.068 80.5516V77.4026L178.397 77.7783Z" fill="#F9A877"/>
<mask id="mask2" mask-type="alpha" maskUnits="userSpaceOnUse" x="129" y="77" width="61" height="28">
<path d="M178.397 77.7782L189.616 98.6765L189.097 100.555L139.589 104.402L129.068 80.5515V77.4025L178.397 77.7782Z" fill="#F9A877"/>
</mask>
<g mask="url(#mask2)">
<path fill-rule="evenodd" clip-rule="evenodd" d="M188.876 99.8624C188.032 100.234 187.06 100.623 185.379 100.751C184.546 100.815 183.983 100.786 183.564 100.702C183.137 100.616 182.874 100.475 182.647 100.342C182.626 100.329 182.606 100.317 182.586 100.306C182.394 100.193 182.24 100.101 182 100.038C181.733 99.9679 181.345 99.9297 180.692 99.9819C179.786 100.057 179.2 100.179 178.778 100.319C178.36 100.458 178.092 100.618 177.812 100.789L177.784 100.806C177.508 100.975 177.213 101.155 176.773 101.308C176.32 101.466 175.725 101.591 174.842 101.664C173.964 101.736 173.399 101.713 173.01 101.628C172.603 101.539 172.393 101.383 172.232 101.219C172.195 101.182 172.165 101.149 172.139 101.121C172.053 101.029 172.007 100.98 171.902 100.935C171.761 100.876 171.496 100.828 170.924 100.876C170.358 100.924 169.969 101.015 169.669 101.124C169.367 101.232 169.144 101.363 168.898 101.507L168.889 101.512C168.646 101.655 168.38 101.81 168.021 101.944C167.656 102.079 167.205 102.189 166.582 102.254L166.577 102.254L166.577 102.254C165.897 102.314 165.519 102.118 165.161 101.931C165.096 101.898 165.032 101.865 164.967 101.833C164.565 101.639 164.011 101.444 162.734 101.574L162.734 101.574C162.364 101.611 162.121 101.688 161.937 101.776C161.762 101.861 161.631 101.961 161.474 102.08C161.463 102.088 161.451 102.097 161.44 102.105C161.27 102.235 161.074 102.378 160.797 102.496C160.52 102.614 160.175 102.7 159.704 102.737C159.234 102.775 158.905 102.736 158.655 102.636C158.399 102.535 158.254 102.381 158.147 102.266L158.144 102.263C158.038 102.15 157.976 102.088 157.864 102.046C157.746 102.001 157.54 101.969 157.141 102.02C156.747 102.071 156.549 102.157 156.435 102.236C156.329 102.311 156.275 102.393 156.19 102.521C156.185 102.529 156.179 102.537 156.174 102.546C156.078 102.689 155.952 102.867 155.701 103.006C155.459 103.139 155.127 103.224 154.637 103.257C154.144 103.289 153.802 103.248 153.537 103.154C153.284 103.065 153.121 102.934 152.992 102.83C152.984 102.824 152.977 102.818 152.969 102.812C152.841 102.709 152.739 102.633 152.569 102.584C152.391 102.533 152.115 102.506 151.643 102.558C151.164 102.61 150.926 102.687 150.8 102.757C150.695 102.815 150.661 102.869 150.612 102.957C150.609 102.964 150.605 102.971 150.601 102.978C150.544 103.082 150.458 103.241 150.252 103.364C150.049 103.486 149.756 103.559 149.309 103.596C148.858 103.633 148.543 103.597 148.314 103.479C148.068 103.353 147.971 103.157 147.908 103.03C147.844 102.898 147.82 102.857 147.762 102.821C147.696 102.782 147.54 102.73 147.158 102.756C146.784 102.78 146.546 102.851 146.371 102.935C146.196 103.019 146.069 103.123 145.91 103.254L145.898 103.264C145.735 103.398 145.543 103.552 145.267 103.681C144.99 103.809 144.642 103.906 144.161 103.954C143.686 104 143.361 103.976 143.114 103.896C142.864 103.815 142.719 103.684 142.61 103.585C142.607 103.582 142.604 103.579 142.601 103.577C142.498 103.483 142.426 103.421 142.289 103.378C142.14 103.332 141.892 103.302 141.44 103.345C141.002 103.387 140.742 103.484 140.567 103.592C140.391 103.7 140.279 103.833 140.144 103.999C140.139 104.005 140.134 104.011 140.129 104.017C140 104.177 139.843 104.37 139.597 104.527C139.339 104.692 139.003 104.805 138.523 104.848L138.471 104.278C138.885 104.241 139.127 104.148 139.289 104.044C139.455 103.938 139.561 103.809 139.699 103.638C139.835 103.471 139.999 103.269 140.266 103.104C140.535 102.939 140.885 102.823 141.386 102.775C141.874 102.729 142.207 102.753 142.46 102.832C142.723 102.914 142.872 103.049 142.986 103.152L142.986 103.153C143.092 103.249 143.16 103.309 143.29 103.352C143.431 103.397 143.667 103.427 144.105 103.384C144.536 103.342 144.819 103.258 145.025 103.161C145.232 103.065 145.376 102.951 145.535 102.821C145.543 102.814 145.551 102.808 145.56 102.801C145.711 102.677 145.885 102.534 146.122 102.419C146.376 102.297 146.688 102.213 147.12 102.184C147.543 102.156 147.841 102.201 148.057 102.331C148.267 102.457 148.357 102.643 148.412 102.756C148.416 102.763 148.419 102.771 148.422 102.778C148.479 102.892 148.508 102.935 148.575 102.97C148.661 103.014 148.846 103.06 149.262 103.026C149.683 102.991 149.869 102.926 149.958 102.873C150.028 102.831 150.049 102.793 150.108 102.685L150.111 102.68C150.181 102.553 150.28 102.389 150.524 102.255C150.748 102.132 151.076 102.044 151.581 101.989C152.093 101.933 152.45 101.955 152.727 102.034C153.011 102.115 153.185 102.251 153.328 102.365L153.34 102.375C153.472 102.481 153.568 102.558 153.728 102.615C153.895 102.674 154.152 102.715 154.599 102.685C155.048 102.655 155.286 102.581 155.424 102.505C155.552 102.434 155.616 102.351 155.697 102.229C155.704 102.218 155.711 102.208 155.718 102.197C155.798 102.074 155.907 101.908 156.106 101.768C156.323 101.616 156.622 101.509 157.069 101.452C157.511 101.396 157.824 101.418 158.067 101.51C158.308 101.601 158.448 101.751 158.552 101.861C158.555 101.864 158.558 101.868 158.561 101.871C158.664 101.98 158.736 102.052 158.866 102.104C159.004 102.159 159.234 102.201 159.659 102.167C160.082 102.133 160.364 102.058 160.573 101.969C160.782 101.88 160.931 101.773 161.094 101.649C161.107 101.639 161.12 101.63 161.133 101.62C161.285 101.504 161.459 101.371 161.688 101.261C161.941 101.139 162.25 101.047 162.676 101.004L162.705 101.289L162.676 101.004C162.676 101.004 162.676 101.004 162.676 101.004C164.048 100.865 164.71 101.073 165.216 101.317C165.298 101.357 165.372 101.395 165.442 101.431C165.784 101.607 166.019 101.728 166.525 101.684C166.524 101.684 166.523 101.684 166.523 101.684L166.552 101.969L166.527 101.684C166.526 101.684 166.525 101.684 166.525 101.684C167.108 101.623 167.51 101.523 167.821 101.407C168.133 101.291 168.362 101.157 168.608 101.013L168.61 101.012C168.855 100.868 169.119 100.713 169.474 100.585C169.831 100.456 170.27 100.357 170.876 100.306C171.476 100.256 171.853 100.293 172.124 100.408C172.353 100.504 172.493 100.657 172.588 100.762C172.607 100.783 172.625 100.802 172.641 100.818C172.732 100.911 172.846 101.006 173.132 101.069C173.438 101.136 173.937 101.164 174.795 101.093C175.647 101.023 176.191 100.904 176.584 100.767C176.966 100.635 177.217 100.481 177.492 100.313L177.514 100.3C177.803 100.124 178.116 99.936 178.598 99.7758C179.076 99.6168 179.71 99.4885 180.646 99.4113L180.646 99.4112C181.335 99.3561 181.794 99.3918 182.146 99.4846C182.466 99.569 182.684 99.6984 182.875 99.8116C182.896 99.8239 182.916 99.8359 182.936 99.8478C183.136 99.965 183.337 100.072 183.677 100.141C184.025 100.211 184.531 100.242 185.335 100.181C186.929 100.059 187.835 99.6955 188.646 99.3384C188.707 99.3114 188.768 99.2842 188.829 99.2572C189.584 98.9216 190.321 98.5944 191.475 98.5164L191.513 99.0876C190.463 99.1587 189.809 99.4489 189.055 99.7832C188.996 99.8094 188.937 99.8358 188.876 99.8624Z" fill="#F9C513"/>
<path fill-rule="evenodd" clip-rule="evenodd" d="M127.749 76.863C127.688 76.786 127.584 76.6965 127.358 76.5528L127.664 76.0694C127.903 76.2209 128.076 76.3528 128.199 76.5096C128.328 76.6732 128.384 76.8421 128.432 77.0264C128.447 77.0835 128.462 77.145 128.478 77.2124C128.561 77.5606 128.681 78.0671 129.062 78.9535C129.294 79.4921 129.446 79.7139 129.539 79.802C129.579 79.8391 129.597 79.8415 129.597 79.8415C129.603 79.8429 129.614 79.8444 129.665 79.8381C129.67 79.8375 129.675 79.8369 129.68 79.8362C129.726 79.8302 129.81 79.8191 129.898 79.829C130.01 79.8414 130.12 79.8833 130.228 79.9661C130.426 80.1169 130.618 80.4044 130.848 80.8955C131.08 81.3926 131.176 81.7473 131.156 82.0224C131.133 82.3349 130.966 82.4981 130.841 82.6039L130.838 82.6066C130.712 82.7135 130.696 82.7267 130.686 82.7694C130.673 82.824 130.67 82.979 130.849 83.3662C131.026 83.7506 131.152 83.864 131.214 83.8975C131.258 83.9218 131.294 83.9224 131.433 83.8942C131.438 83.8932 131.443 83.8922 131.448 83.8911C131.577 83.8649 131.801 83.8192 132.038 83.9498C132.267 84.0761 132.454 84.3353 132.639 84.7463C132.828 85.1679 132.891 85.489 132.849 85.759C132.809 86.0251 132.672 86.199 132.579 86.3169C132.575 86.321 132.572 86.325 132.569 86.329C132.472 86.452 132.433 86.5114 132.424 86.6028C132.414 86.7035 132.44 86.8914 132.631 87.2525C132.826 87.6205 132.953 87.7513 133.028 87.8019C133.079 87.8371 133.107 87.8409 133.19 87.8524C133.212 87.8555 133.238 87.8591 133.269 87.864C133.342 87.8753 133.433 87.8949 133.533 87.9448C133.632 87.9946 133.726 88.0674 133.819 88.1694C134 88.3667 134.193 88.69 134.429 89.2205C134.666 89.7552 134.767 90.1247 134.778 90.4067C134.79 90.7124 134.694 90.8939 134.612 91.0314L134.605 91.0433C134.538 91.1545 134.515 91.1926 134.516 91.2811C134.517 91.3961 134.566 91.6103 134.78 92.0347C134.998 92.4645 135.131 92.6103 135.198 92.6568C135.221 92.6732 135.229 92.6719 135.229 92.6719C135.24 92.6726 135.253 92.6711 135.313 92.6603L135.315 92.6599C135.365 92.6509 135.455 92.6347 135.559 92.6501C135.671 92.667 135.776 92.717 135.875 92.801C136.055 92.954 136.233 93.2368 136.449 93.7087C136.672 94.195 136.761 94.546 136.761 94.8314C136.761 95.1246 136.665 95.3199 136.592 95.4687L136.589 95.475C136.519 95.6162 136.475 95.7103 136.475 95.8658C136.475 96.0333 136.528 96.2974 136.735 96.7504C136.948 97.2159 137.089 97.379 137.162 97.431C137.177 97.4416 137.186 97.4451 137.19 97.4462C137.192 97.4472 137.194 97.4475 137.196 97.4475C137.204 97.4477 137.221 97.4459 137.272 97.4293C137.279 97.4271 137.286 97.4244 137.295 97.4212C137.388 97.3884 137.603 97.3122 137.83 97.4307C138.048 97.5441 138.221 97.8024 138.4 98.2014C138.589 98.6215 138.66 98.9396 138.649 99.2073C138.637 99.4815 138.538 99.6707 138.464 99.8115C138.39 99.9522 138.35 100.032 138.345 100.149C138.339 100.27 138.371 100.464 138.539 100.804C138.711 101.152 138.832 101.279 138.904 101.328C138.959 101.365 138.997 101.368 139.112 101.367L139.123 101.367C139.243 101.366 139.436 101.364 139.642 101.5C139.839 101.629 140.016 101.862 140.202 102.234C140.297 102.424 140.36 102.586 140.392 102.726C140.424 102.866 140.43 103.004 140.386 103.132C140.305 103.37 140.084 103.468 139.992 103.508C139.983 103.512 139.976 103.515 139.97 103.518C139.872 103.564 139.873 103.576 139.874 103.581C139.874 103.582 139.874 103.582 139.874 103.583C139.863 103.632 139.867 103.797 140.062 104.208L139.544 104.453C139.345 104.033 139.26 103.714 139.314 103.462C139.378 103.165 139.611 103.054 139.726 103C139.803 102.964 139.834 102.946 139.845 102.94C139.846 102.928 139.845 102.901 139.834 102.853C139.816 102.775 139.774 102.659 139.69 102.49C139.519 102.147 139.398 102.024 139.327 101.978C139.273 101.942 139.234 101.939 139.117 101.94L139.11 101.94C138.987 101.941 138.792 101.943 138.583 101.802C138.387 101.67 138.212 101.434 138.026 101.058C137.836 100.673 137.76 100.378 137.773 100.122C137.784 99.8736 137.879 99.6943 137.948 99.5636C137.951 99.5575 137.954 99.5514 137.957 99.5455C138.026 99.4135 138.071 99.3209 138.077 99.1825C138.083 99.0375 138.047 98.8122 137.878 98.4361C137.701 98.0422 137.595 97.9542 137.566 97.939C137.566 97.939 137.565 97.9391 137.564 97.9393C137.546 97.9418 137.53 97.947 137.488 97.9608C137.477 97.9645 137.465 97.9687 137.45 97.9736C137.391 97.9927 137.296 98.0223 137.184 98.0199C137.064 98.0174 136.945 97.9789 136.831 97.898C136.624 97.751 136.431 97.4623 136.215 96.9885C135.992 96.5021 135.903 96.1512 135.903 95.8658C135.903 95.5725 135.999 95.3772 136.072 95.2284L136.075 95.2221C136.145 95.081 136.189 94.9869 136.189 94.8314C136.189 94.6639 136.136 94.3998 135.928 93.9467C135.715 93.4793 135.58 93.3014 135.505 93.2374C135.489 93.2241 135.479 93.219 135.476 93.2173L135.474 93.2165L135.474 93.2164C135.472 93.2161 135.464 93.2149 135.414 93.2238C135.411 93.2244 135.407 93.2252 135.403 93.226C135.359 93.234 135.279 93.2489 135.192 93.2432C135.084 93.2363 134.977 93.2008 134.87 93.1266C134.677 92.992 134.491 92.7308 134.269 92.2928C134.045 91.8493 133.946 91.538 133.944 91.2873C133.941 91.033 134.04 90.8699 134.106 90.7617C134.111 90.7533 134.116 90.7452 134.12 90.7375C134.175 90.6468 134.212 90.5779 134.206 90.4284C134.199 90.2553 134.133 89.965 133.905 89.453C133.676 88.9368 133.513 88.683 133.397 88.556C133.342 88.4959 133.302 88.4698 133.276 88.4566C133.25 88.4437 133.224 88.4364 133.181 88.4298C133.171 88.4281 133.157 88.4265 133.142 88.4247C133.047 88.4133 132.878 88.3928 132.705 88.2749C132.514 88.1444 132.333 87.9129 132.125 87.5204C131.913 87.1212 131.828 86.8125 131.854 86.5464C131.88 86.2779 132.019 86.1022 132.112 85.9838C132.115 85.9808 132.117 85.9778 132.119 85.9749C132.216 85.8514 132.267 85.782 132.283 85.6726C132.301 85.5579 132.285 85.3556 132.117 84.981C131.944 84.5958 131.82 84.4837 131.761 84.4512C131.72 84.4284 131.687 84.427 131.546 84.4554C131.542 84.4564 131.537 84.4573 131.532 84.4583C131.403 84.4846 131.179 84.5303 130.94 84.4007C130.71 84.2754 130.518 84.0175 130.329 83.6057C130.14 83.1966 130.068 82.8887 130.129 82.6358C130.186 82.3984 130.354 82.2621 130.443 82.1896C130.453 82.1813 130.463 82.1739 130.471 82.1672C130.551 82.0986 130.579 82.065 130.585 81.9805C130.594 81.8586 130.553 81.6161 130.329 81.1381C130.103 80.6541 129.959 80.4809 129.881 80.4214C129.853 80.3999 129.84 80.3986 129.836 80.3981C129.835 80.3981 129.835 80.3981 129.835 80.398C129.818 80.3962 129.803 80.398 129.736 80.4063C129.679 80.4133 129.581 80.425 129.471 80.4001C129.354 80.3738 129.247 80.3136 129.147 80.2187C128.96 80.0429 128.77 79.7234 128.536 79.1796C128.135 78.2462 128.005 77.6977 127.921 77.3469C127.906 77.2816 127.892 77.2231 127.878 77.1703C127.837 77.0102 127.804 76.9331 127.749 76.863Z" fill="#F9C513"/>
</g>
<path d="M129.05 126.857L112.75 117.499V80.1042L129.068 77.4025L129.05 126.857Z" fill="#79B8FF"/>
<mask id="mask3" mask-type="alpha" maskUnits="userSpaceOnUse" x="112" y="77" width="18" height="50">
<path d="M129.05 126.857L112.75 117.499V80.1042L129.068 77.4025L129.05 126.857Z" fill="#79B8FF"/>
</mask>
<g mask="url(#mask3)">
<path d="M129.05 126.857L112.75 122.42C112.75 122.42 109.172 115.567 112.052 110.808C114.933 106.048 116.83 116.48 120.766 116.48C124.702 116.48 124.47 104.689 129.122 104.367L129.05 126.857Z" fill="#2188FF"/>
<path d="M128.889 88.4778L129.068 77.4025L112.75 80.1042V105.923L123.378 109.895L128.889 88.4778Z" fill="#005CC5"/>
</g>
<path d="M129.068 77.4025C142.29 109.197 132.825 86.4381 139.624 102.81L189.616 98.6944L178.648 77.4919L129.068 77.4025Z" fill="#FFF5B1"/>
<path d="M129.068 80.5515L118.457 106.138L97.8991 99.7679L96.9866 98.265L129.068 77.4025V80.5515Z" fill="#0366D6"/>
<mask id="mask4" mask-type="alpha" maskUnits="userSpaceOnUse" x="96" y="77" width="34" height="30">
<path d="M129.068 80.5515L118.457 106.138L97.8991 99.7679L96.9866 98.265L129.068 77.4025V80.5515Z" fill="#0366D6"/>
</mask>
<g mask="url(#mask4)">
<path fill-rule="evenodd" clip-rule="evenodd" d="M97.9866 99.3948C97.9605 99.4581 97.9122 99.5749 97.827 99.66L97.4348 99.2678C97.4344 99.2682 97.4345 99.2681 97.4352 99.2667C97.4381 99.2616 97.4503 99.2396 97.4805 99.1673C97.4818 99.1643 97.483 99.1612 97.4844 99.1581C97.5138 99.0875 97.5606 98.9755 97.6393 98.8759C97.7292 98.7621 97.8575 98.6668 98.0393 98.625C98.2119 98.5853 98.4127 98.5985 98.6472 98.6582C99.0124 98.7496 99.2705 98.8678 99.4732 99.0085C99.6703 99.1453 99.803 99.2959 99.9168 99.425L99.9235 99.4326C100.04 99.5647 100.14 99.6765 100.29 99.7829C100.439 99.8885 100.648 99.996 100.982 100.092C101.327 100.191 101.447 100.163 101.478 100.149C101.496 100.141 101.508 100.133 101.567 100.008C101.568 100.005 101.569 100.002 101.571 99.9992C101.621 99.8917 101.714 99.6936 101.95 99.5945C102.175 99.5004 102.468 99.5193 102.857 99.6258C103.254 99.7346 103.517 99.8718 103.684 100.058C103.853 100.246 103.892 100.453 103.919 100.594L103.92 100.6C103.948 100.747 103.965 100.83 104.03 100.914C104.097 101.001 104.238 101.118 104.579 101.243C104.923 101.369 105.067 101.346 105.124 101.323C105.184 101.298 105.225 101.249 105.315 101.105C105.319 101.098 105.323 101.091 105.328 101.084C105.405 100.959 105.524 100.765 105.745 100.647C105.987 100.519 106.294 100.506 106.699 100.609C107.099 100.71 107.363 100.86 107.514 101.087C107.648 101.29 107.659 101.515 107.667 101.664C107.667 101.676 107.668 101.686 107.668 101.697C107.677 101.863 107.69 101.963 107.755 102.056C107.819 102.15 107.967 102.279 108.346 102.403C108.74 102.533 108.869 102.491 108.901 102.473C108.93 102.457 108.957 102.421 109.009 102.249C109.012 102.239 109.015 102.229 109.018 102.218C109.058 102.083 109.127 101.846 109.326 101.697C109.559 101.523 109.879 101.521 110.282 101.63C110.697 101.742 110.964 101.906 111.127 102.134C111.275 102.34 111.309 102.567 111.333 102.727C111.335 102.737 111.336 102.747 111.338 102.756C111.365 102.932 111.388 103.034 111.461 103.124C111.533 103.212 111.687 103.326 112.064 103.417C112.461 103.513 112.541 103.442 112.542 103.441C112.544 103.439 112.556 103.428 112.568 103.381C112.582 103.331 112.588 103.271 112.597 103.18L112.597 103.177C112.605 103.097 112.616 102.99 112.645 102.889C112.677 102.781 112.734 102.657 112.852 102.561C113.084 102.371 113.429 102.378 113.856 102.487C114.294 102.599 114.601 102.777 114.694 103.091C114.737 103.238 114.721 103.379 114.694 103.492C114.67 103.592 114.632 103.693 114.601 103.775C114.598 103.784 114.594 103.793 114.591 103.802C114.514 104.007 114.495 104.102 114.52 104.173C114.539 104.227 114.623 104.36 115.052 104.496C115.474 104.629 115.636 104.57 115.7 104.525C115.779 104.469 115.833 104.356 115.89 104.137C115.897 104.11 115.905 104.08 115.913 104.049C115.932 103.972 115.953 103.887 115.976 103.813C116.01 103.704 116.059 103.576 116.145 103.468C116.238 103.351 116.367 103.264 116.539 103.234C116.7 103.207 116.875 103.235 117.062 103.299C117.458 103.434 117.674 103.655 117.795 103.935C117.85 104.063 117.882 104.196 117.907 104.317C117.915 104.359 117.923 104.398 117.931 104.437C117.947 104.517 117.961 104.593 117.982 104.675C118.038 104.9 118.126 105.121 118.338 105.342C118.554 105.567 118.917 105.81 119.553 106.038L119.366 106.56C118.679 106.314 118.232 106.033 117.937 105.726C117.639 105.414 117.515 105.095 117.444 104.809C117.42 104.714 117.4 104.615 117.383 104.528C117.376 104.493 117.37 104.46 117.364 104.43C117.34 104.317 117.317 104.229 117.285 104.154C117.23 104.027 117.14 103.912 116.883 103.824C116.743 103.776 116.668 103.775 116.632 103.781C116.607 103.785 116.595 103.793 116.58 103.813C116.558 103.841 116.533 103.89 116.506 103.977C116.487 104.037 116.473 104.095 116.456 104.163C116.447 104.198 116.438 104.236 116.427 104.278C116.372 104.486 116.283 104.793 116.02 104.978C115.744 105.173 115.367 105.177 114.885 105.024C114.411 104.874 114.106 104.667 113.997 104.358C113.896 104.074 114.002 103.791 114.067 103.619L114.072 103.607C114.074 103.599 114.077 103.592 114.08 103.584C114.114 103.495 114.139 103.427 114.154 103.364C114.17 103.298 114.167 103.265 114.162 103.249C114.158 103.236 114.122 103.128 113.719 103.025C113.305 102.919 113.21 102.985 113.203 102.99L113.203 102.99C113.201 102.992 113.19 103.001 113.178 103.043C113.165 103.089 113.158 103.147 113.149 103.235C113.148 103.24 113.148 103.245 113.148 103.25C113.14 103.326 113.13 103.427 113.105 103.522C113.077 103.628 113.025 103.752 112.915 103.852C112.69 104.056 112.35 104.057 111.933 103.956C111.496 103.85 111.21 103.694 111.031 103.474C110.854 103.256 110.816 103.014 110.79 102.843L110.79 102.841C110.761 102.654 110.743 102.55 110.676 102.456C110.615 102.371 110.482 102.258 110.137 102.165C109.779 102.068 109.679 102.126 109.658 102.142C109.619 102.17 109.596 102.225 109.54 102.409C109.539 102.413 109.537 102.418 109.536 102.422C109.493 102.564 109.417 102.819 109.173 102.957C108.924 103.097 108.592 103.068 108.172 102.93C107.736 102.786 107.46 102.604 107.298 102.371C107.137 102.137 107.123 101.893 107.114 101.726C107.104 101.54 107.097 101.462 107.052 101.393C107.012 101.333 106.905 101.233 106.563 101.146C106.225 101.061 106.076 101.1 106.005 101.137C105.926 101.179 105.877 101.25 105.786 101.397C105.784 101.401 105.782 101.405 105.779 101.408C105.701 101.536 105.576 101.738 105.334 101.836C105.084 101.938 104.778 101.906 104.388 101.764C103.996 101.62 103.746 101.454 103.591 101.252C103.441 101.058 103.404 100.858 103.378 100.721C103.377 100.715 103.376 100.709 103.375 100.703C103.348 100.56 103.329 100.493 103.271 100.428C103.207 100.358 103.065 100.258 102.711 100.161C102.348 100.062 102.21 100.087 102.165 100.106C102.139 100.117 102.122 100.13 102.069 100.244C102.066 100.249 102.063 100.255 102.06 100.262C102.014 100.363 101.925 100.556 101.705 100.655C101.484 100.754 101.199 100.732 100.829 100.625C100.447 100.515 100.178 100.383 99.9687 100.235C99.7627 100.089 99.6262 99.9342 99.5107 99.8031L99.5073 99.7994C99.39 99.6662 99.2959 99.5606 99.1569 99.4642C99.0198 99.369 98.8263 99.2748 98.512 99.1962L98.5106 99.1958L98.5106 99.1958C98.3249 99.1484 98.2196 99.1527 98.1636 99.1655C98.1167 99.1763 98.0941 99.195 98.0744 99.2199C98.047 99.2545 98.0261 99.3003 97.9922 99.3814C97.9904 99.3855 97.9886 99.39 97.9866 99.3948Z" fill="#178CFA"/>
<path fill-rule="evenodd" clip-rule="evenodd" d="M129.223 78.1951C129.08 78.4631 128.923 78.7602 128.766 79.1088L128.764 79.1139L128.764 79.1138C128.52 79.6266 128.437 79.906 128.418 80.07C128.409 80.1466 128.415 80.1933 128.423 80.2251C128.431 80.2598 128.445 80.2903 128.471 80.3447L128.475 80.3514C128.534 80.4722 128.613 80.6345 128.599 80.9166C128.585 81.1799 128.491 81.535 128.268 82.0715C128.042 82.6164 127.826 82.9678 127.609 83.2097C127.388 83.4568 127.178 83.5759 126.996 83.6698C126.979 83.6789 126.962 83.6876 126.945 83.6961C126.793 83.7744 126.685 83.8295 126.574 83.9392C126.452 84.0592 126.312 84.2605 126.16 84.6587C126.006 85.0597 125.991 85.2747 126.009 85.3996C126.026 85.5153 126.074 85.5821 126.162 85.7074L126.167 85.7142C126.262 85.8476 126.383 86.0269 126.404 86.3161C126.423 86.5895 126.352 86.9305 126.157 87.4027C125.959 87.8845 125.746 88.1932 125.511 88.4044C125.278 88.615 125.04 88.7117 124.842 88.7922L124.84 88.793C124.64 88.8745 124.482 88.9393 124.324 89.0766C124.167 89.2129 123.993 89.437 123.812 89.8579C123.632 90.2759 123.589 90.5634 123.598 90.7929C123.606 91.0004 123.655 91.1725 123.717 91.388C123.726 91.4199 123.736 91.4527 123.745 91.4868C123.819 91.747 123.892 92.0485 123.877 92.4487C123.862 92.846 123.76 93.3239 123.51 93.9487C123.266 94.5581 123.027 94.9175 122.742 95.0787C122.43 95.2555 122.138 95.1527 121.962 95.0908L121.957 95.0891C121.752 95.0169 121.676 94.9963 121.591 95.0309C121.496 95.0697 121.317 95.2155 121.071 95.7506C120.83 96.276 120.796 96.5696 120.824 96.7519C120.85 96.9293 120.937 97.0422 121.079 97.2249C121.218 97.4047 121.397 97.6377 121.451 98.0076C121.504 98.3688 121.435 98.8239 121.185 99.4582C120.941 100.075 120.699 100.438 120.399 100.59C120.096 100.744 119.806 100.644 119.629 100.582C119.618 100.579 119.608 100.575 119.598 100.572C119.396 100.503 119.291 100.479 119.17 100.535C119.031 100.599 118.808 100.801 118.51 101.411C118.22 102.003 118.112 102.484 118.098 102.888C118.083 103.292 118.16 103.635 118.263 103.955C118.303 104.081 118.346 104.199 118.39 104.319C118.403 104.355 118.416 104.391 118.429 104.427C118.484 104.582 118.539 104.741 118.578 104.902C118.658 105.231 118.676 105.579 118.516 105.959L118.005 105.744C118.105 105.506 118.101 105.286 118.039 105.033C118.007 104.903 117.961 104.767 117.907 104.615C117.895 104.582 117.883 104.548 117.87 104.514C117.826 104.392 117.779 104.261 117.735 104.125C117.621 103.769 117.525 103.359 117.543 102.867C117.561 102.375 117.693 101.819 118.012 101.167C118.322 100.533 118.616 100.179 118.939 100.03C119.276 99.8758 119.576 99.9782 119.768 100.044L119.777 100.047C119.997 100.122 120.069 100.136 120.148 100.096C120.248 100.044 120.429 99.8634 120.669 99.2548C120.902 98.6636 120.935 98.3135 120.902 98.0882C120.87 97.8715 120.774 97.7366 120.641 97.5652C120.634 97.557 120.628 97.5486 120.621 97.5401C120.492 97.3748 120.323 97.1586 120.275 96.8334C120.225 96.4961 120.307 96.0853 120.567 95.5192C120.823 94.9629 121.077 94.6413 121.382 94.5173C121.675 94.3979 121.945 94.4953 122.108 94.5539C122.12 94.5581 122.131 94.5622 122.141 94.5659C122.328 94.6316 122.394 94.6384 122.469 94.5959C122.575 94.5362 122.756 94.341 122.995 93.7427C123.228 93.1597 123.31 92.7453 123.322 92.4274C123.335 92.1125 123.279 91.8761 123.212 91.6376C123.203 91.6077 123.194 91.5773 123.185 91.5463C123.124 91.3339 123.054 91.0941 123.043 90.8145C123.031 90.4854 123.097 90.1154 123.302 89.6388C123.506 89.1651 123.723 88.8636 123.96 88.6577C124.19 88.4586 124.422 88.3642 124.614 88.2861C124.62 88.2838 124.625 88.2815 124.631 88.2792C124.829 88.1988 124.985 88.1323 125.14 87.9924C125.295 87.8525 125.467 87.6221 125.644 87.1915C125.826 86.7511 125.861 86.5039 125.851 86.3557C125.841 86.2233 125.795 86.1477 125.715 86.035C125.709 86.0274 125.704 86.0195 125.698 86.0113C125.615 85.8959 125.497 85.7311 125.46 85.4807C125.422 85.2199 125.473 84.9003 125.642 84.4604C125.811 84.0176 125.987 83.7381 126.185 83.5439C126.36 83.3714 126.542 83.2788 126.691 83.203C126.708 83.1941 126.725 83.1855 126.742 83.177C126.898 83.0964 127.04 83.0142 127.196 82.8397C127.357 82.6601 127.544 82.3695 127.756 81.8588C127.971 81.3397 128.036 81.0551 128.045 80.8878C128.052 80.7493 128.023 80.6902 127.978 80.5979C127.976 80.5949 127.975 80.5918 127.973 80.5887L127.973 80.5886C127.946 80.5334 127.908 80.4548 127.884 80.3553C127.859 80.2528 127.852 80.1398 127.867 80.0057C127.897 79.7484 128.013 79.4023 128.261 78.8787" fill="#178CFA"/>
</g>
<path d="M97.4697 98.1037L112.875 77.7779L128.638 77.6706L116.954 102.899L97.4697 98.1037Z" fill="#C8E1FF"/>
<path d="M128.209 77.9571L116.883 102.595L98.0064 97.9429L113.09 78.0466H128.28L128.209 77.9571ZM129.139 77.4919L112.821 77.5993L97.0581 98.3544L117.187 103.311L129.068 77.4025L129.139 77.4919Z" fill="#C8E1FF"/>
<path fill-rule="evenodd" clip-rule="evenodd" d="M145.555 62.2195C145.548 62.6777 145.666 62.9956 145.861 63.2057C146.055 63.4159 146.363 63.5585 146.82 63.5863C147.282 63.6143 147.86 63.5216 148.526 63.293C149.857 62.8364 151.437 61.8716 152.929 60.4905C154.421 59.1093 155.505 57.6082 156.063 56.3169C156.342 55.6705 156.479 55.1006 156.486 54.6386C156.494 54.1804 156.376 53.8624 156.181 53.6523C155.987 53.4422 155.679 53.2995 155.221 53.2717C154.76 53.2437 154.181 53.3365 153.515 53.565C152.185 54.0216 150.605 54.9864 149.113 56.3676C147.621 57.7487 146.537 59.2498 145.979 60.5412C145.7 61.1875 145.563 61.7575 145.555 62.2195ZM144.994 60.1155C145.623 58.6573 146.808 57.0381 148.383 55.5798C149.959 54.1214 151.664 53.0652 153.167 52.5496C153.917 52.2921 154.642 52.161 155.286 52.2002C155.935 52.2396 156.536 52.4551 156.969 52.923C157.402 53.3909 157.571 54.0067 157.56 54.6563C157.549 55.3021 157.363 56.0142 157.048 56.7426C156.418 58.2007 155.234 59.82 153.658 61.2783C152.083 62.7366 150.377 63.7929 148.875 64.3084C148.124 64.5659 147.4 64.697 146.755 64.6579C146.107 64.6185 145.506 64.4029 145.073 63.935C144.64 63.4671 144.471 62.8514 144.482 62.2018C144.492 61.5559 144.679 60.8438 144.994 60.1155Z" fill="#0366D6"/>
<path d="M157.177 14.8864L159.306 13.3656L155.888 9.32191L157.803 5.17089L159.807 0L158.483 0.483094L155.065 3.5248L153.097 9.62609L157.177 14.8864Z" fill="#6A737D"/>
<path d="M157.696 15.1548L159.825 13.634L157.051 9.25034L157.803 5.17089L160.719 1.48506L159.807 0L155.602 3.79318L154.153 10.1986L157.696 15.1548Z" fill="#959DA5"/>
<path d="M163.081 16.5146L167.769 12.2562L169.236 7.78314L169.451 3.32795L168.198 3.07745L166.266 3.86471L166.999 7.51476L165.962 11.0574L160.826 14.6717L163.081 16.5146Z" fill="#6A737D"/>
<path d="M157.481 14.3676L160.29 14.0455L159.163 8.35573L162.026 4.88461L165.604 2.48704L165.568 0L163.189 0.178921L159.896 2.97013L156.747 7.97999L157.481 14.3676Z" fill="#B2BBC4"/>
<path d="M163.707 16.8367L168.395 12.5962L169.88 8.12309L169.451 3.32794L166.892 4.18677L167.626 7.85471L166.874 11.5405L162.222 15.2085L163.707 16.8367Z" fill="#959DA5"/>
<path d="M159.163 15.0833L161.954 14.7612L160.845 9.07142L163.117 5.06353L166.105 1.78924L165.568 0L161.578 3.68583L158.429 8.69568L159.163 15.0833Z" fill="#D1D5DA"/>
<path d="M167.823 17.0514L167.071 21.3635L164.817 20.5762C165.452 18.9943 165.833 17.3214 165.944 15.6201C166.604 16.0512 167.232 16.5296 167.823 17.0514Z" fill="#D1D5DA"/>
<path d="M152.363 12.9183C154.636 13.0256 157.445 12.9183 159.395 13.2582C158.534 14.7575 158.066 16.4501 158.035 18.1786L151.594 15.96L152.363 12.9183Z" fill="#959DA5"/>
<path d="M165.944 15.6199C165.756 17.3122 165.309 18.9656 164.62 20.5224L157.892 17.8922C157.963 16.2397 158.483 14.6377 159.395 13.2581C161.712 13.6063 163.938 14.4089 165.944 15.6199Z" fill="#B2BBC4"/>
<path d="M159.574 14.6001C163.048 15.6778 166.108 17.7948 168.342 20.6656C167.393 22.7948 166.284 24.924 165.336 27.1605C161.575 24.4325 157.322 22.4579 152.811 21.3455C151.641 19.5777 150.198 18.0073 148.535 16.6935C149.166 15.9836 149.841 15.3143 150.556 14.6895C151.308 14.0275 154.743 13.1866 159.574 14.6001Z" fill="#6A737D"/>
<path d="M169.147 29.9698C168.341 29.3614 166.355 27.6796 165.318 26.9996C166.123 25.2104 167.411 22.3476 168.252 20.5763C168.604 20.9968 168.855 21.4926 168.986 22.0256C169.438 24.6506 169.492 27.3286 169.147 29.9698Z" fill="#586069"/>
<path d="M145.511 20.8087C140.662 28.6997 138.666 38.0151 139.857 47.1999C142.684 50.7784 152.381 55.4841 158.125 52.8539C164.358 46.7445 168.262 38.6507 169.164 29.9696C163.403 24.9776 154.314 19.8246 145.511 20.8087Z" fill="#FFF5B1"/>
<path d="M153.992 53.6233C155.403 53.6713 156.808 53.4086 158.107 52.8539C164.34 46.7445 168.245 38.6507 169.147 29.9696C164.493 25.8248 158.917 22.8498 152.883 21.2918C154.475 23.6894 158.036 29.7191 153.044 34.9616C144.008 44.4624 139.481 52.6213 153.992 53.6233Z" fill="#FFDF5D"/>
<path d="M158.035 52.8539C164.268 46.7445 168.173 38.6507 169.075 29.9696C167.932 28.9711 166.738 28.0334 165.497 27.1605C162.283 35.4969 159.787 44.0926 158.035 52.8539Z" fill="#F9C513"/>
<path d="M148.588 16.7294C150.163 18.0566 151.564 19.5776 152.757 21.2561C150.381 20.7245 147.935 20.5735 145.511 20.8088C146.44 19.3788 147.468 18.0156 148.588 16.7294Z" fill="#959DA5"/>
<path fill-rule="evenodd" clip-rule="evenodd" d="M122.109 67.814C121.743 67.7106 121.253 67.6726 120.763 67.7359C120.272 67.7992 119.872 67.955 119.629 68.1232C119.493 68.2178 119.446 68.2824 119.43 68.3141C119.441 68.3272 119.462 68.3474 119.498 68.373C119.579 68.4303 119.709 68.4923 119.889 68.5438C120.249 68.6466 120.734 68.685 121.235 68.6213C121.735 68.5579 122.134 68.402 122.373 68.2352C122.514 68.1366 122.557 68.0708 122.57 68.0415C122.56 68.0304 122.541 68.011 122.504 67.985C122.423 67.9281 122.292 67.8659 122.109 67.814ZM122.573 68.0318C122.573 68.0265 122.574 68.0239 122.574 68.0239C122.574 68.0239 122.574 68.0266 122.573 68.0318ZM119.423 68.3365C119.422 68.3365 119.422 68.334 119.424 68.329C119.424 68.3341 119.423 68.3366 119.423 68.3365ZM123.608 67.7549C123.527 67.4616 123.326 67.2502 123.121 67.1066C122.912 66.9599 122.661 66.8544 122.401 66.781C121.881 66.634 121.244 66.5914 120.625 66.6712C120.007 66.7511 119.432 66.9532 119.017 67.2412C118.638 67.5041 118.205 67.9905 118.391 68.6103C118.476 68.8962 118.674 69.1052 118.879 69.2503C119.087 69.3965 119.336 69.5022 119.594 69.576C120.111 69.7237 120.744 69.7658 121.37 69.6863C121.997 69.6067 122.573 69.4047 122.988 69.1152C123.368 68.8495 123.787 68.3661 123.608 67.7549Z" fill="#0366D6"/>
<path fill-rule="evenodd" clip-rule="evenodd" d="M136.725 39.2915H136.743C137.14 39.2915 137.496 39.4623 137.789 39.6703C138.085 39.881 138.362 40.1617 138.611 40.4565C139.096 41.0294 139.539 41.7292 139.872 42.2543L139.899 42.2965L138.992 42.8709L138.98 42.853C138.638 42.3124 138.228 41.6656 137.792 41.1503C137.572 40.8904 137.361 40.6836 137.167 40.5454C136.98 40.4125 136.846 40.3698 136.759 40.3654C136.291 40.4054 135.73 40.7224 135.032 41.3181C134.488 41.7829 133.924 42.3593 133.313 42.9839C133.142 43.1587 132.967 43.3372 132.788 43.518C131.984 44.3311 131.107 45.1769 130.16 45.841C129.212 46.5057 128.159 47.0127 127.001 47.1086C121.792 47.553 117.886 45.4178 114.333 43.4755C114.259 43.435 114.185 43.3947 114.112 43.3545C110.465 41.3623 107.213 39.6642 103.094 40.7065C101.052 41.2193 99.3474 42.6468 98.0207 44.6249C96.6941 46.603 95.7681 49.099 95.2774 51.6664C94.7575 54.3697 95.0068 56.4517 95.2303 58.0559C95.2414 58.1357 95.2526 58.2149 95.2637 58.2935C95.3618 58.9904 95.4528 59.6363 95.4454 60.1856C95.4369 60.8146 95.3004 61.4185 94.8255 61.8934L94.8239 61.895C93.834 62.8764 92.9422 64.1886 92.7559 65.768C92.572 67.327 93.0636 69.2516 95.0455 71.5007L94.2401 72.2105C92.1067 69.7896 91.4621 67.5722 91.6898 65.6422C91.9149 63.7332 92.9817 62.2099 94.067 61.1337C94.2627 60.9376 94.3653 60.6604 94.3719 60.1711C94.3781 59.7097 94.2997 59.1507 94.1982 58.4264C94.188 58.354 94.1776 58.2798 94.167 58.204C93.9387 56.5652 93.6693 54.3434 94.223 51.4643C94.7343 48.7895 95.7049 46.1506 97.1291 44.027C98.5533 41.9035 100.455 40.2623 102.832 39.6656C107.409 38.5074 111.018 40.4414 114.626 42.4123C114.677 42.4398 114.727 42.4673 114.777 42.4948C118.371 44.4585 122.027 46.4558 126.911 46.0389C127.81 45.9646 128.682 45.5658 129.544 44.9619C130.406 44.3574 131.226 43.5716 132.025 42.7632C132.192 42.5947 132.358 42.4246 132.524 42.2549C133.14 41.6245 133.75 41.001 134.335 40.5017C135.065 39.8781 135.864 39.3501 136.707 39.2927L136.725 39.2915Z" fill="#0366D6"/>
<path fill-rule="evenodd" clip-rule="evenodd" d="M156.816 27.9478C158.479 26.3885 160.886 25.1131 164.121 25.7944C166.816 26.353 169.009 28.2983 170.516 30.739C172.025 33.1833 172.886 36.1836 172.886 38.9697C172.886 47.8503 165.395 65.1273 145.188 72.2369C137.138 75.0685 128.501 75.809 120.086 74.3891L120.265 73.3305C128.5 74.7202 136.953 73.9954 144.832 71.2242C164.596 64.2705 171.813 47.4089 171.813 38.9697C171.813 36.3881 171.01 33.5823 169.602 31.303C168.193 29.0205 166.217 27.3249 163.903 26.8454L163.901 26.845C161.106 26.2563 159.041 27.3337 157.55 28.731C156.318 29.8861 155.519 31.2161 155.042 32.0108C154.932 32.1934 154.84 32.3477 154.763 32.4651L153.897 33.7847L153.779 32.2115L153.778 32.2063L153.776 32.1828C153.774 32.161 153.77 32.1275 153.765 32.0841C153.754 31.9971 153.736 31.8715 153.708 31.7218C153.65 31.4189 153.551 31.0341 153.392 30.6758C153.23 30.312 153.024 30.0205 152.777 29.8488C152.553 29.6928 152.252 29.6048 151.799 29.7205C151.683 29.7501 151.463 29.8905 151.197 30.2596C150.944 30.6115 150.694 31.1092 150.494 31.7205C150.094 32.9425 149.912 34.5544 150.238 36.221C150.562 37.8801 151.388 39.5944 153.01 41.0465C154.635 42.5009 157.087 43.718 160.701 44.327L160.523 45.3856C156.757 44.751 154.103 43.4654 152.294 41.8463C150.483 40.2248 149.549 38.2946 149.184 36.4268C148.821 34.5663 149.022 32.7686 149.474 31.3866C149.7 30.696 149.994 30.0932 150.326 29.6321C150.646 29.1881 151.054 28.8029 151.533 28.6804C152.27 28.492 152.895 28.6232 153.39 28.9671C153.862 29.2952 154.17 29.7842 154.373 30.239C154.447 30.4057 154.51 30.574 154.563 30.7374C155.074 29.935 155.823 28.8791 156.816 27.9478Z" fill="#0366D6"/>
<path fill-rule="evenodd" clip-rule="evenodd" d="M79.5363 91.7611C79.6039 92.8484 79.827 93.6706 80.1857 94.2105L80.1858 94.2106C80.315 94.4051 80.5733 94.6293 81.0096 94.8618C81.4393 95.0908 82.0028 95.3075 82.692 95.5075C84.0701 95.9074 85.8913 96.2239 88.0156 96.4554C92.2602 96.9181 97.644 97.0346 102.956 96.834C108.269 96.6333 113.486 96.1163 117.398 95.3202C119.359 94.9213 120.964 94.4578 122.084 93.9426C122.645 93.6847 123.059 93.4253 123.333 93.174C123.606 92.9237 123.703 92.7163 123.721 92.5557C123.745 92.3107 123.615 91.9961 123.225 91.6109C122.846 91.2357 122.302 90.8777 121.72 90.5623C121.144 90.25 120.557 89.9941 120.112 89.8156C119.891 89.7266 119.706 89.6576 119.577 89.6111C119.513 89.5878 119.462 89.5702 119.429 89.5586L119.391 89.5456L119.382 89.5426L119.38 89.542L119.38 89.5419L119.38 89.5419L118.938 89.3952L119.021 88.9369C119.403 86.8242 118.979 84.645 117.831 82.8303C116.684 81.0157 114.897 79.6978 112.825 79.1373L112.81 79.1333L112.795 79.1284C109.786 78.1253 106.536 77.4617 102.496 78.2732C98.4439 79.0871 93.543 81.3962 87.2678 86.4448L86.5949 85.6084C87.8751 84.5784 89.1025 83.658 90.2815 82.8377C89.6307 77.8413 89.6382 74.0083 89.6435 71.3439C89.6438 71.1686 89.6442 70.9984 89.6443 70.8333C89.6454 69.4783 89.6318 68.5174 89.5182 67.8811C89.4616 67.564 89.3892 67.3871 89.3244 67.2945C89.2776 67.2275 89.2407 67.2082 89.1775 67.2003C89.096 67.1916 88.9592 67.2108 88.7518 67.3249C88.544 67.4391 88.299 67.6305 88.0214 67.9095C87.4663 68.4674 86.8416 69.3136 86.1851 70.3886C84.8752 72.5333 83.4903 75.5028 82.322 78.6601C81.1539 81.817 80.2118 85.1361 79.7761 87.9769C79.5581 89.3978 79.4693 90.6834 79.5363 91.7611ZM91.2779 82.1604C90.7051 77.4981 90.7121 73.9036 90.717 71.3424C90.7174 71.1682 90.7177 70.9988 90.7178 70.8342C90.7189 69.512 90.7091 68.4433 90.575 67.6924C90.5078 67.3159 90.4003 66.9597 90.2043 66.6794C89.9908 66.374 89.6863 66.1801 89.3034 66.1341L89.3034 66.1341L89.2996 66.1337C88.9247 66.0914 88.5614 66.2044 88.2345 66.3842C87.9065 66.5646 87.5803 66.8308 87.2604 67.1523C86.6206 67.7953 85.9453 68.7215 85.2689 69.8291C83.9128 72.0495 82.4998 75.0863 81.3152 78.2875C80.1306 81.4891 79.1649 84.8808 78.7149 87.8141C78.49 89.2804 78.3915 90.6477 78.4649 91.8277C78.5376 92.9981 78.7825 94.0383 79.2915 94.8046C79.5604 95.2094 79.9938 95.5369 80.5047 95.8092C81.0222 96.085 81.6616 96.3263 82.3928 96.5385C83.8555 96.963 85.7455 97.2879 87.8992 97.5226C92.2105 97.9926 97.6493 98.1087 102.997 97.9067C108.343 97.7048 113.622 97.1841 117.613 96.3721C119.604 95.967 121.302 95.4838 122.533 94.918C123.147 94.6353 123.671 94.3206 124.058 93.9651C124.446 93.6095 124.734 93.1781 124.789 92.6679L124.789 92.6649C124.863 91.935 124.453 91.3152 123.98 90.8473C123.496 90.3686 122.851 89.9539 122.232 89.6185C121.607 89.28 120.98 89.007 120.512 88.8192C120.377 88.7649 120.254 88.7176 120.148 88.6776C120.444 86.4432 119.948 84.1698 118.739 82.2566C117.45 80.219 115.446 78.738 113.12 78.1051C110.014 77.071 106.567 76.3605 102.285 77.2207C99.1147 77.8574 95.5165 79.3486 91.2779 82.1604Z" fill="#0366D6"/>
<path fill-rule="evenodd" clip-rule="evenodd" d="M102.195 111.419C102.996 113.264 103.534 115.04 103.535 116.494C103.592 121.507 98.3915 127.553 87.8671 127.662L87.8464 127.662L87.8464 127.662C80.2204 127.446 72.6787 126.008 65.5086 123.403C65.4624 123.403 65.4009 123.403 65.3259 123.401C65.1493 123.398 64.8969 123.391 64.5906 123.374C63.9792 123.342 63.147 123.273 62.2706 123.128C61.3979 122.983 60.4597 122.76 59.6464 122.408C58.8436 122.062 58.0889 121.559 57.6875 120.813C56.8802 119.312 57.629 117.586 58.9636 115.976C60.3319 114.324 62.4885 112.573 65.0187 110.88L65.0338 110.87L65.034 110.87C68.2083 108.899 71.7778 107.651 75.489 107.215L75.6143 108.281C72.0627 108.698 68.6465 109.892 65.6081 111.777C63.114 113.447 61.0598 115.129 59.7902 116.661C58.4858 118.235 58.1699 119.443 58.633 120.304C58.8667 120.739 59.3601 121.115 60.072 121.423C60.7734 121.726 61.6166 121.931 62.4459 122.069C63.2715 122.205 64.0619 122.271 64.6477 122.302C64.9399 122.318 65.1797 122.325 65.3456 122.328C65.4285 122.329 65.4929 122.33 65.536 122.33L65.5844 122.33L65.596 122.33L65.5985 122.33L65.5988 122.33L65.5989 122.33L65.6961 122.329L65.7874 122.362C72.8726 124.947 80.3276 126.374 87.8663 126.588C98.0161 126.479 102.511 120.721 102.462 116.503L102.462 116.497C102.462 115.268 101.996 113.654 101.21 111.847C100.431 110.052 99.3598 108.118 98.202 106.263C95.8796 102.542 93.2499 99.2073 91.999 98.0081L92.7419 97.2332C94.0854 98.521 96.7697 101.941 99.1127 105.694C100.288 107.577 101.387 109.56 102.195 111.419Z" fill="#0366D6"/>
<path fill-rule="evenodd" clip-rule="evenodd" d="M122.592 17.5425C128.036 19.9367 133.332 23.7467 136.307 29.2642C139.229 34.5742 140.342 39.2782 139.748 44.5302C139.157 49.7527 136.883 55.4739 133.13 62.8278C133.129 62.8285 133.129 62.8292 133.129 62.8298L133.131 62.8259C133.13 62.8265 133.13 62.8271 133.13 62.8278C132.976 63.1361 132.95 63.3574 132.946 63.7212C132.945 63.7887 132.945 63.861 132.945 63.9387C132.946 64.3035 132.946 64.788 132.861 65.4618C132.861 65.4619 132.861 65.4616 132.861 65.4618C132.523 68.1521 130.303 70.3329 127.199 71.9391C124.072 73.5569 119.922 74.663 115.451 75.1498C106.536 76.1207 96.1346 74.6466 89.8552 69.5882L90.5286 68.7522C96.4876 73.5525 106.546 75.0397 115.335 74.0826C119.717 73.6054 123.73 72.5254 126.706 70.9857C129.704 69.4345 131.525 67.4866 131.796 65.3281C131.872 64.7271 131.872 64.314 131.871 63.9522C131.871 63.8691 131.871 63.7887 131.872 63.7094C131.877 63.2643 131.913 62.8595 132.17 62.3458L132.172 62.3418C135.916 55.0071 138.114 49.4298 138.681 44.4095C139.246 39.4188 138.203 34.9358 135.365 29.7796L135.363 29.7755C132.541 24.5407 127.477 20.8633 122.16 18.5253C116.842 16.1867 111.34 15.2188 107.728 15.3497C104.084 15.4817 97.0754 16.5865 90.7266 20.1741C84.3981 23.7503 78.7424 29.7782 77.6822 39.7938C76.6134 49.89 79.2634 56.6381 82.1472 60.8536C83.5923 62.966 85.1018 64.4506 86.2457 65.4046C86.8176 65.8815 87.2976 66.2255 87.6318 66.4486C87.7988 66.5601 87.9293 66.6414 88.0165 66.694C88.0601 66.7202 88.0929 66.7393 88.1139 66.7514L88.1366 66.7643L88.1412 66.7668C88.141 66.7667 88.1412 66.7668 87.8838 67.2379C87.6264 67.7089 87.626 67.7087 87.6257 67.7085L87.6217 67.7063L87.6123 67.701L87.5798 67.6826C87.5522 67.6668 87.5127 67.6438 87.4624 67.6134C87.3616 67.5527 87.2171 67.4626 87.0356 67.3414C86.6728 67.0991 86.1619 66.7325 85.5581 66.229C84.3509 65.2222 82.7706 63.6662 81.2612 61.4598C78.2361 57.0378 75.5184 50.0356 76.6146 39.6808C77.7193 29.2454 83.64 22.9455 90.1985 19.2395C96.7366 15.5449 103.926 14.4132 107.689 14.2768C111.485 14.1393 117.148 15.1485 122.592 17.5425Z" fill="#0366D6"/>
<path fill-rule="evenodd" clip-rule="evenodd" d="M92.8424 76.7391C93.0826 74.9276 93.4851 73.0518 94.1539 71.8305L95.0955 72.3461C94.5297 73.3793 94.145 75.0819 93.9066 76.8802C93.6708 78.6588 93.587 80.4555 93.587 81.625H92.5134C92.5134 80.4147 92.5996 78.5704 92.8424 76.7391Z" fill="#0366D6"/>
<path fill-rule="evenodd" clip-rule="evenodd" d="M102.098 98.1063C102.098 98.1063 102.098 98.1064 102.39 97.6564C102.683 97.2063 102.683 97.2064 102.683 97.2065L102.686 97.2081L102.692 97.212L102.713 97.2261C102.731 97.2384 102.758 97.2562 102.792 97.2795C102.861 97.3261 102.96 97.3945 103.085 97.4838C103.335 97.6623 103.69 97.9244 104.112 98.2619C104.956 98.9362 106.076 99.9155 107.175 101.135C109.357 103.555 111.543 107.016 111.173 110.965L111.172 110.98C110.908 113.116 109.96 115.11 108.471 116.663C106.982 118.217 105.031 119.248 102.908 119.603L102.731 118.544C104.626 118.228 106.367 117.307 107.696 115.921C109.023 114.536 109.868 112.76 110.105 110.857C110.429 107.365 108.493 104.2 106.378 101.854C105.327 100.689 104.254 99.7492 103.442 99.1006C103.037 98.7767 102.698 98.5263 102.462 98.3577C102.344 98.2735 102.251 98.2097 102.189 98.1675L102.119 98.1204L102.102 98.1092L102.098 98.1063Z" fill="#0366D6"/>
<path fill-rule="evenodd" clip-rule="evenodd" d="M21.2178 52.1777C21.2175 52.1776 21.2173 52.1774 21.5348 51.7446C21.8523 51.3118 21.8521 51.3116 21.8519 51.3115L21.8515 51.3112L21.8511 51.3109C21.8509 51.3108 21.851 51.3108 21.8513 51.3111L21.8558 51.3143L21.8814 51.3319C21.9057 51.3485 21.9447 51.3743 21.9981 51.4078C22.1051 51.4747 22.27 51.5721 22.492 51.6867C22.9359 51.9159 23.608 52.2139 24.5012 52.4751C26.2854 52.9968 28.9618 53.3747 32.4812 52.7547L32.929 52.6758L33.0805 53.1045C33.9604 55.5946 35.7321 59.3143 37.8334 62.7929C39.9462 66.2903 42.3394 69.4542 44.4392 70.9139L44.441 70.9151C47.6303 73.1511 53.9262 75.1042 60.4785 76.2245C67.0292 77.3446 73.6689 77.6036 77.5231 76.562L77.8032 77.5983C73.7131 78.7037 66.8799 78.4082 60.2976 77.2827C53.7176 76.1577 47.2211 74.1748 43.8257 71.7948C41.5242 70.1947 39.0331 66.855 36.9145 63.348C34.8985 60.0107 33.1722 56.4406 32.2221 53.8861C28.7469 54.4302 26.0545 54.0478 24.1999 53.5055C23.2347 53.2233 22.4988 52.8984 21.9995 52.6406C21.7498 52.5117 21.5593 52.3996 21.4287 52.3178C21.3633 52.277 21.313 52.2437 21.2777 52.2197L21.2362 52.1909L21.2239 52.1822L21.2199 52.1793L21.2184 52.1782L21.2178 52.1777Z" fill="#0366D6"/>
<path fill-rule="evenodd" clip-rule="evenodd" d="M69.31 93.3862C69.9062 85.025 74.699 78.6146 86.9916 66.9926L87.7291 67.7726C75.4197 79.4106 70.9441 85.5618 70.3808 93.4625C69.8227 101.291 75.6816 107.661 81.5435 110.744L81.0439 111.694C74.9962 108.514 68.7087 101.82 69.31 93.3862Z" fill="#0366D6"/>
<path fill-rule="evenodd" clip-rule="evenodd" d="M47.1277 45.7131C45.4125 44.7215 43.5547 43.9998 41.6196 43.5734L41.8506 42.525C43.9182 42.9806 45.9021 43.7556 47.7311 44.8221L47.7934 44.8584L47.8439 44.9099C49.264 46.3577 50.5788 48.3059 51.9611 50.3978C52.0644 50.5541 52.1682 50.7114 52.2724 50.8694C53.5736 52.8414 54.9569 54.9379 56.5864 56.9442C60.0949 61.2637 64.7137 65.1249 71.9632 66.2257C78.5165 67.1886 82.5066 67.3278 84.8447 67.2312C86.0131 67.1829 86.7644 67.0759 87.2139 66.9852C87.4385 66.94 87.5868 66.8989 87.6735 66.8717C87.7169 66.8581 87.7447 66.8479 87.7589 66.8425L87.7702 66.8381C87.7704 66.838 87.7699 66.8382 87.7686 66.8388L87.766 66.8399L87.7643 66.8407L87.7633 66.8411C87.7628 66.8414 87.7623 66.8416 87.9869 67.3291C88.2114 67.8167 88.2109 67.8169 88.2103 67.8172L88.2092 67.8177L88.2066 67.8189L88.2008 67.8215L88.1858 67.8279C88.1743 67.8327 88.1598 67.8386 88.1421 67.8454C88.1066 67.8589 88.0582 67.8761 87.9951 67.8959C87.869 67.9355 87.684 67.9856 87.4262 68.0376C86.9112 68.1415 86.1025 68.2537 84.889 68.3038C82.4635 68.404 78.4024 68.257 71.8057 67.2877L71.8032 67.2873C64.2027 66.1335 59.3656 62.0685 55.7531 57.621C54.0885 55.5716 52.6772 53.4324 51.3805 51.467C51.2748 51.3067 51.1698 51.1475 51.0655 50.9897C49.6897 48.9078 48.4444 47.0696 47.1277 45.7131Z" fill="#0366D6"/>
<path fill-rule="evenodd" clip-rule="evenodd" d="M43.5912 56.6462C44.0988 57.9581 45.1237 59.4999 46.5614 60.9376C47.9991 62.3752 49.5408 63.4002 50.8527 63.9078C51.5094 64.1618 52.0842 64.2768 52.5461 64.2666C53.0043 64.2565 53.3175 64.1258 53.5199 63.9234C53.7224 63.7209 53.853 63.4078 53.8632 62.9496C53.8734 62.4877 53.7584 61.9129 53.5043 61.2562C52.9968 59.9443 51.9718 58.4026 50.5341 56.9649C49.0964 55.5272 47.5547 54.5022 46.2428 53.9947C45.5861 53.7406 45.0113 53.6256 44.5494 53.6358C44.0912 53.6459 43.7781 53.7766 43.5756 53.9791C43.3731 54.1815 43.2425 54.4946 43.2323 54.9528C43.2221 55.4148 43.3371 55.9896 43.5912 56.6462ZM42.1591 54.9291C42.1734 54.2796 42.3656 53.6708 42.8165 53.2199C43.2674 52.7691 43.8761 52.5769 44.5257 52.5625C45.1714 52.5482 45.8902 52.7072 46.6301 52.9934C48.1115 53.5665 49.7752 54.6878 51.2932 56.2058C52.8112 57.7238 53.9324 59.3875 54.5055 60.8688C54.7918 61.6088 54.9507 62.3275 54.9365 62.9733C54.9221 63.6228 54.7299 64.2316 54.279 64.6825C53.8282 65.1333 53.2194 65.3256 52.5699 65.3399C51.9241 65.3542 51.2053 65.1953 50.4654 64.909C48.984 64.3359 47.3203 63.2146 45.8023 61.6967C44.2843 60.1787 43.1631 58.5149 42.59 57.0336C42.3037 56.2937 42.1448 55.5749 42.1591 54.9291Z" fill="#0366D6"/>
<path fill-rule="evenodd" clip-rule="evenodd" d="M62.3574 70.8045C63.5216 71.5806 65.2381 72.2472 67.2306 72.5928C69.2231 72.9385 71.0639 72.8889 72.4214 72.5503C73.1009 72.3808 73.6342 72.1451 74.004 71.8722C74.3708 71.6015 74.5505 71.3159 74.5992 71.0353C74.6479 70.7547 74.5748 70.4253 74.3206 70.0469C74.0643 69.6654 73.6416 69.2639 73.0589 68.8754C71.8948 68.0993 70.1782 67.4327 68.1857 67.087C66.1932 66.7414 64.3524 66.7909 62.9949 67.1296C62.3154 67.2991 61.7821 67.5348 61.4123 67.8077C61.0456 68.0783 60.8658 68.364 60.8171 68.6445C60.7684 68.9251 60.8415 69.2546 61.0957 69.633C61.352 70.0145 61.7747 70.416 62.3574 70.8045ZM60.2094 70.2284C59.849 69.692 59.6566 69.0869 59.765 68.462C59.8734 67.8372 60.2584 67.3322 60.7783 66.9485C61.2953 66.567 61.9708 66.2846 62.7364 66.0936C64.2693 65.7112 66.2644 65.67 68.3682 66.0349C70.472 66.3999 72.3367 67.1106 73.6512 67.9869C74.3078 68.4247 74.8487 68.9181 75.207 69.4514C75.5673 69.9878 75.7597 70.593 75.6513 71.2178C75.5429 71.8427 75.158 72.3477 74.638 72.7314C74.121 73.1129 73.4455 73.3953 72.6799 73.5863C71.147 73.9687 69.1519 74.0099 67.0481 73.6449C64.9443 73.28 63.0796 72.5693 61.7651 71.6929C61.1085 71.2552 60.5676 70.7618 60.2094 70.2284Z" fill="#0366D6"/>
<path fill-rule="evenodd" clip-rule="evenodd" d="M139.529 66.0158C138.241 65.8068 136.529 65.9034 134.696 66.3812L134.682 66.3848L134.668 66.3877C133.951 66.534 133.261 66.7919 132.624 67.1521L132.096 66.2175C132.827 65.8045 133.617 65.508 134.439 65.3387C136.377 64.8355 138.238 64.7185 139.702 64.9562C141.116 65.1858 142.381 65.7925 142.716 66.9467C142.888 67.5367 142.758 68.1334 142.461 68.6732C142.167 69.2092 141.693 69.7205 141.109 70.1866C139.937 71.1199 138.232 71.9401 136.289 72.4467C134.346 72.953 132.48 73.0711 131.013 72.8328C129.598 72.6032 128.333 71.9965 127.998 70.8423L129.029 70.543C129.177 71.0529 129.844 71.5554 131.185 71.7732C132.473 71.9823 134.185 71.8856 136.018 71.4078C137.85 70.9303 139.41 70.1671 140.44 69.3469C140.955 68.9362 141.316 68.5284 141.52 68.1564C141.722 67.7881 141.756 67.4879 141.685 67.246C141.537 66.7361 140.871 66.2336 139.529 66.0158Z" fill="#0366D6"/>
<path fill-rule="evenodd" clip-rule="evenodd" d="M91.6244 24.6045C90.2254 24.863 89.2285 25.5056 88.7455 26.5915L88.744 26.5949L88.7439 26.5949C87.4032 29.5532 86.9613 33.1354 87.218 36.5247C87.475 39.9188 88.4275 43.0557 89.811 45.1309L88.9177 45.7264C87.4027 43.4538 86.4138 40.1226 86.1475 36.6058C85.8809 33.0848 86.3334 29.314 87.7654 26.1534C88.4367 24.646 89.8056 23.8488 91.4293 23.5488C93.0434 23.2506 94.9661 23.4277 96.8981 23.9041C100.75 24.8539 104.849 27.0488 106.912 29.4401L106.099 30.1414C104.226 27.9702 100.354 25.862 96.641 24.9464C94.791 24.4902 93.0335 24.3441 91.6244 24.6045Z" fill="#0366D6"/>
<path fill-rule="evenodd" clip-rule="evenodd" d="M95.4244 29.0222C95.4525 28.9829 95.5305 28.9135 95.7525 28.8734C95.9772 28.8329 96.2862 28.8354 96.6735 28.8875C97.4455 28.9914 98.4041 29.2742 99.359 29.618C100.308 29.9594 101.226 30.351 101.908 30.6583C102.249 30.8117 102.53 30.9435 102.725 31.0368C102.823 31.0834 102.899 31.1204 102.95 31.1455L103.009 31.1741L103.023 31.1813L103.026 31.183L103.267 30.7031C103.506 30.2228 103.506 30.2227 103.506 30.2227L103.5 30.2197L103.484 30.2116L103.422 30.1811C103.368 30.1546 103.289 30.1162 103.188 30.0681C102.986 29.9719 102.698 29.8366 102.349 29.6794C101.652 29.3655 100.706 28.962 99.7226 28.6079C98.7452 28.256 97.7021 27.9428 96.8168 27.8236C96.3755 27.7642 95.9419 27.7484 95.5619 27.8169C95.1824 27.8854 94.7925 28.0511 94.5423 28.4102L94.5387 28.4155C91.7596 32.5071 90.1897 37.299 90.009 42.2419L91.0819 42.2812C91.2551 37.5413 92.7601 32.9462 95.4244 29.0222Z" fill="#0366D6"/>
<path d="M136.593 30.0303L135.734 29.3862L137.309 27.3285C139.008 25.1635 140.35 23.4459 140.154 22.2829C140.094 22.0255 139.978 21.7844 139.814 21.5772C139.65 21.3699 139.442 21.2015 139.205 21.0841C135.376 18.5613 126.681 20.4042 126.537 20.4221L126.323 19.3665C126.698 19.3665 135.591 17.4341 139.796 20.1895C140.155 20.3886 140.467 20.6626 140.711 20.9929C140.955 21.3232 141.125 21.7022 141.209 22.104C141.478 23.7322 140.082 25.5214 138.167 27.9906C137.649 28.6168 137.112 29.2967 136.593 30.0303Z" fill="#0366D6"/>
<path fill-rule="evenodd" clip-rule="evenodd" d="M138.736 23.5781C137.081 24.5637 135.52 25.7002 134.075 26.9731L133.365 26.1673C134.861 24.8507 136.475 23.6752 138.187 22.6558L138.736 23.5781Z" fill="#0366D6"/>
<path fill-rule="evenodd" clip-rule="evenodd" d="M81.6402 54.774C84.5147 55.9725 87.5639 57.5771 89.477 59.0487L88.8224 59.8996C87.0139 58.5084 84.0602 56.9461 81.2271 55.7649C79.8146 55.1759 78.4463 54.6878 77.2815 54.3654C76.0944 54.0369 75.1874 53.9009 74.6633 53.9599C74.3687 53.9931 74.103 53.7812 74.0698 53.4866C74.0366 53.192 74.2485 52.9263 74.5431 52.8931C75.2894 52.809 76.3707 52.9995 77.5678 53.3308C78.7871 53.6682 80.1989 54.1731 81.6402 54.774Z" fill="#0366D6"/>
<path fill-rule="evenodd" clip-rule="evenodd" d="M88.3889 60.8329C88.389 60.833 88.3892 60.833 88.2553 61.3528L88.1216 61.8727L88.1172 61.8716L88.101 61.8675L88.0338 61.851C87.9739 61.8364 87.8843 61.8152 87.7675 61.7888C87.534 61.736 87.1923 61.6628 86.7637 61.582C85.906 61.4205 84.7032 61.2294 83.325 61.1116C80.5515 60.8746 77.1402 60.9414 74.398 62.0811C74.1242 62.1949 73.8101 62.0652 73.6963 61.7915C73.5825 61.5177 73.7122 61.2036 73.9859 61.0898C76.9692 59.8498 80.5896 59.8004 83.4164 60.0419C84.8384 60.1635 86.0779 60.3604 86.9625 60.5271C87.405 60.6104 87.7594 60.6863 88.0042 60.7417C88.1267 60.7693 88.2217 60.7919 88.2868 60.8077L88.3615 60.826L88.3813 60.831L88.3868 60.8324L88.3889 60.8329Z" fill="#0366D6"/>
<path d="M17.8846 53.4803C23.4134 52.7289 38.3535 47.719 48.8563 40.1863C52.6316 37.4846 28.119 8.51686 25.1131 6.79919C19.2031 8.19506 13.6934 10.9316 9.01001 14.7971C10.2446 24.9242 14.2346 51.0828 17.9562 53.6593" fill="#FEEB93"/>
<path d="M35.4731 48.3095C45.6801 43.4336 54.6761 36.3504 61.8106 27.5722C61.8106 27.5722 60.6302 25.1446 58.2979 21.9222C56.87 22.0654 55.514 22.967 54.7968 25.4607C52.8466 32.2419 45.3139 40.0072 37.7096 43.0131C25.8704 47.6593 18.6833 45.3177 12.5914 43.3329C8.45486 41.9852 4.82328 40.8019 0.58301 42.0827C0.56407 42.0884 0.54519 42.0941 0.526367 42.0999C1.6676 49.3532 4.26882 54.7328 4.26882 54.7328C14.9997 54.7447 25.6193 52.5587 35.4731 48.3095Z" fill="#F9C513"/>
<path d="M61.739 27.4298C54.5835 36.1694 45.5861 43.2218 35.389 48.0827L35.3814 48.0863C27.4515 51.6017 18.2077 53.3955 10.9582 54.3118C9.94998 54.4392 8.97999 54.5497 8.05703 54.6455C6.79648 54.705 5.53331 54.7341 4.2686 54.7327C4.2686 54.7327 4.21079 54.6132 4.10864 54.3857C6.02379 54.2444 8.32993 54.0308 10.8819 53.7083C18.1061 52.7952 27.2807 51.0111 35.131 47.5317C45.2893 42.6887 54.2473 35.6534 61.3599 26.9323L61.5681 27.1021C61.6419 27.241 61.6989 27.3511 61.739 27.4298Z" fill="#E3A92E"/>
<path d="M40.0418 7.54057C38.1462 10.8112 35.3133 13.4714 31.8764 15.1548C29.4811 11.9032 27.2838 8.97007 25.5413 6.67194C30.9714 5.6172 35.8087 6.12577 40.0418 7.54057Z" fill="#FFF5B1"/>
<path d="M17.7978 53.5751C13.3412 54.3489 8.81486 54.7383 4.26856 54.7333C4.26856 54.7333 -7.96192 29.4394 8.98229 14.595C10.6946 23.8236 14.2611 42.0021 17.7978 53.5751Z" fill="#FFDF5D"/>
<path d="M25.539 6.67289C49.3938 2.03748 61.8104 27.5727 61.8104 27.5727C57.9857 32.2785 53.6261 36.4972 48.8317 40.1498C42.8988 29.9094 31.5141 14.5529 25.539 6.67289Z" fill="#FFDF5D"/>
<path d="M48.8586 40.1294C53.6425 36.4814 57.993 32.2696 61.8106 27.5725C61.8106 27.5725 60.6379 25.1608 58.3208 21.9542C56.9307 22.1292 55.6221 23.05 54.9221 25.4969C53.3805 29.9718 50.683 33.9594 47.1031 37.0554C47.641 38.0639 48.2262 39.0566 48.7846 40.0039C48.8093 40.0458 48.834 40.0876 48.8586 40.1294Z" fill="#F2B549"/>
<path d="M33.8988 48.9685C28.7424 51.0141 23.3884 52.5263 17.9207 53.4806C17.1155 50.7431 16.1851 47.5582 15.3263 44.1945C14.3925 43.9156 13.4916 43.6219 12.6131 43.3355C8.47535 41.9865 4.83352 40.7991 0.582975 42.0832C0.564047 42.0888 0.545179 42.0945 0.526367 42.1003C1.66761 49.3536 4.26881 54.7331 4.26881 54.7331C14.4305 54.7444 24.4925 52.7847 33.8988 48.9685Z" fill="#F2B549"/>
<path d="M48.7667 25.8187C51.9515 30.7033 36.3673 40.6872 30.4091 43.3174C24.451 45.9476 9.97608 50.8143 6.86281 42.0292C4.73362 35.9637 22.0534 32.8683 25.6319 30.7033C31.8942 26.767 43.7568 17.9818 48.8919 25.8903" fill="#F2B549"/>
<path d="M47.4428 25.3358C50.4129 29.8983 35.4191 39.3097 29.7293 41.8325C24.0396 44.3554 10.173 48.9895 7.34599 40.9379C5.37783 35.3376 21.8567 32.2422 25.2383 30.2025C31.2323 26.463 42.6476 18.1609 47.3891 25.4252" fill="#005CC5"/>
<path d="M40.0699 7.54998C37.9442 11.2087 33.5852 15.5782 24.6478 17.9997C14.8654 20.6501 8.76077 19.7887 5.30225 18.5393C8.00706 14.9531 11.9481 11.7251 17.5625 9.23255C26.3435 5.33409 33.8581 5.46667 40.0699 7.54998Z" fill="#FDFAD2"/>
<path fill-rule="evenodd" clip-rule="evenodd" d="M39.3699 26.0234C39.0194 25.8894 38.6341 25.8936 38.1788 26.1791C37.8039 26.4142 37.6938 26.8633 37.8222 27.5865C37.949 28.3005 38.2888 29.1561 38.6444 30.041L38.6684 30.1007C39.0092 30.9489 39.3608 31.8236 39.4944 32.5572C39.563 32.934 39.5801 33.3017 39.4913 33.6237C39.399 33.9584 39.1947 34.2327 38.8541 34.4044L38.852 34.4054C38.6219 34.5191 38.3922 34.5528 38.1676 34.5156C37.9478 34.4793 37.7509 34.3782 37.5757 34.2515C37.256 34.0204 36.9582 33.6643 36.6823 33.3344C36.6637 33.3122 36.6452 33.2901 36.6268 33.2681C36.3214 32.9036 36.0352 32.5735 35.7283 32.3661C35.4361 32.1687 35.1489 32.0978 34.8146 32.2172C34.1361 32.4595 33.1042 32.9468 32.0273 33.4553C31.7386 33.5916 31.4466 33.7295 31.1573 33.8646C30.4792 34.1813 29.8187 34.4811 29.2633 34.7021C28.9856 34.8126 28.7298 34.9051 28.5086 34.9704C28.2928 35.034 28.0888 35.0782 27.9222 35.0782H27.9038L27.9038 35.0776C27.4036 35.0443 27.0159 34.7712 26.695 34.4481C26.4745 34.2262 26.2621 33.9545 26.0594 33.6952C25.9748 33.587 25.8919 33.481 25.8108 33.3816C25.5215 33.0272 25.2384 32.7331 24.9113 32.5638C24.599 32.4022 24.2277 32.3447 23.7318 32.506C23.5237 32.5737 23.3934 32.6964 23.3081 32.8701C23.2176 33.0546 23.173 33.3082 23.1741 33.6328C23.1762 34.2861 23.3596 35.1159 23.5587 35.9991L23.5707 36.0525C23.7619 36.9008 23.963 37.7926 23.9836 38.5426C24.0043 39.2983 23.8438 40.034 23.1633 40.38C22.8575 40.5355 22.5627 40.591 22.2791 40.5501C21.9981 40.5097 21.7545 40.3785 21.5423 40.2055C21.1323 39.8712 20.7897 39.3361 20.4744 38.8435L20.4691 38.8353C20.1382 38.3184 19.8307 37.8386 19.477 37.5248C19.3044 37.3717 19.1319 37.2689 18.9532 37.22C18.7779 37.1721 18.5805 37.1714 18.3469 37.2473C18.083 37.3348 17.9357 37.4716 17.8501 37.6351C17.7597 37.8079 17.7232 38.04 17.7413 38.3374C17.7773 38.9297 18.0189 39.6616 18.2741 40.435L18.2889 40.4798C18.5402 41.2413 18.8054 42.0521 18.8069 42.7048C18.8077 43.0383 18.7407 43.3652 18.5386 43.6294C18.3339 43.8971 18.0211 44.0607 17.612 44.1274C17.0759 44.234 16.6549 44.0711 16.3289 43.7646C16.0186 43.4727 15.7984 43.0551 15.6168 42.6536C15.5416 42.4873 15.4741 42.3269 15.4092 42.1726C15.3078 41.9318 15.2127 41.7058 15.1044 41.4955C14.9265 41.1503 14.7634 40.9579 14.5968 40.8913C14.1422 40.7094 13.3685 40.7141 12.2282 40.948C11.1029 41.1788 9.67299 41.6207 7.94234 42.2541L7.75171 41.7332C9.49217 41.0962 10.9519 40.6435 12.1168 40.4046C13.2668 40.1688 14.1839 40.1288 14.8028 40.3763C15.173 40.5244 15.4146 40.8867 15.5974 41.2415C15.7132 41.4661 15.8255 41.7321 15.9348 41.991C15.9983 42.1412 16.0607 42.2891 16.1222 42.4251C16.3007 42.8198 16.4842 43.1492 16.7089 43.3605C16.917 43.5562 17.1607 43.6527 17.5077 43.5826L17.5186 43.5804L17.5186 43.5806C17.8315 43.5304 18.001 43.4192 18.0981 43.2924C18.1987 43.1609 18.2529 42.9714 18.2523 42.7061C18.251 42.1611 18.0231 41.4443 17.7622 40.6536C17.7526 40.6246 17.743 40.5955 17.7333 40.5663C17.4896 39.8285 17.2281 39.037 17.1876 38.371C17.1663 38.0204 17.2034 37.6746 17.3587 37.3779C17.5187 37.072 17.7889 36.8477 18.1732 36.7205L18.1746 36.72C18.5043 36.6128 18.8126 36.6065 19.0995 36.685C19.383 36.7625 19.629 36.9182 19.845 37.1098C20.2577 37.4758 20.6006 38.0117 20.9118 38.4981C20.92 38.5108 20.9281 38.5236 20.9362 38.5363C21.268 39.0545 21.5636 39.5073 21.8927 39.7756C22.0513 39.9048 22.2038 39.9789 22.3582 40.0011C22.51 40.023 22.6899 39.9985 22.9119 39.8856C23.2871 39.6949 23.4486 39.2676 23.4291 38.5578C23.41 37.8625 23.219 37.0146 23.0214 36.1381L23.0176 36.121C22.823 35.2575 22.6218 34.3618 22.6194 33.6346C22.6182 33.269 22.6665 32.9186 22.8102 32.6257C22.9592 32.3222 23.2046 32.0943 23.5602 31.9786C24.1915 31.7731 24.717 31.8386 25.1663 32.0712C25.6007 32.2961 25.9438 32.6674 26.2405 33.0309C26.3391 33.1517 26.4316 33.2701 26.5211 33.3846C26.7134 33.6308 26.892 33.8594 27.0885 34.0572C27.3651 34.3356 27.63 34.5003 27.9309 34.5235C28.0158 34.5218 28.1546 34.4965 28.3517 34.4383C28.5502 34.3798 28.7885 34.2941 29.0582 34.1868C29.5975 33.9722 30.2454 33.6783 30.9226 33.362C31.2023 33.2314 31.4875 33.0967 31.7718 32.9624C32.8525 32.452 33.9211 31.9473 34.6281 31.6948C35.1705 31.5011 35.6415 31.6382 36.0388 31.9065C36.4212 32.1649 36.7557 32.5584 37.0519 32.9118C37.0641 32.9263 37.0761 32.9408 37.0882 32.9551C37.3831 33.3072 37.6392 33.6131 37.9006 33.802C38.032 33.897 38.1495 33.9504 38.2581 33.9684C38.3614 33.9855 38.4736 33.9735 38.6054 33.9086C38.7964 33.812 38.9032 33.6699 38.9566 33.4763C39.0136 33.2696 39.0106 32.9966 38.9487 32.6565C38.8253 31.9791 38.4913 31.1477 38.1381 30.2687L38.1297 30.2478C37.7807 29.3793 37.415 28.4658 37.2761 27.6835C37.1389 26.9105 37.2033 26.1362 37.8841 25.7092C38.4844 25.3328 39.0519 25.3079 39.5681 25.5054C40.0638 25.6951 40.49 26.0812 40.8532 26.4798C41.0369 26.6815 41.2105 26.8932 41.3725 27.094C41.4041 27.1332 41.4352 27.1718 41.4658 27.2099C41.5939 27.3692 41.7137 27.5182 41.8296 27.6529C41.9736 27.8203 42.1011 27.953 42.216 28.045C42.3342 28.1395 42.412 28.1688 42.4576 28.1729C42.5346 28.1798 42.6522 28.1664 42.8151 28.1204C42.9747 28.0753 43.161 28.0037 43.3691 27.9094C43.7853 27.7207 44.2675 27.4506 44.7625 27.1498C45.4041 26.7599 46.043 26.3343 46.5797 25.9767C46.8792 25.7772 47.1469 25.5988 47.3655 25.4597L47.6633 25.9277C47.4635 26.0548 47.2055 26.2266 46.9116 26.4223C46.3662 26.7854 45.6976 27.2306 45.0506 27.6238C44.5482 27.929 44.044 28.2124 43.5981 28.4146C43.375 28.5157 43.1613 28.5989 42.9659 28.6541C42.774 28.7084 42.5818 28.7408 42.4083 28.7254C42.2034 28.7071 42.0218 28.5999 41.8694 28.478C41.7139 28.3535 41.5598 28.1898 41.4092 28.0147C41.2867 27.8723 41.1595 27.7141 41.0309 27.5542C41.001 27.5169 40.9709 27.4796 40.9408 27.4423C40.7798 27.2427 40.615 27.042 40.4432 26.8534C40.0951 26.4714 39.7408 26.1653 39.3699 26.0234Z" fill="#F1F8FF"/>
<path fill-rule="evenodd" clip-rule="evenodd" d="M24.3079 7.04907C29.5206 5.65816 35.0233 5.7948 40.1605 7.4427C38.1873 10.7674 35.3075 13.461 31.8585 15.208C29.7939 12.1023 27.2446 9.34769 24.3079 7.04907ZM9.11747 14.6893C9.20693 15.6555 9.70791 18.5719 9.92262 19.5381C8.33488 19.4525 6.77355 19.0954 5.3064 18.4825C6.48454 17.1287 7.75815 15.861 9.11747 14.6893Z" fill="#FFF5B1"/>
</svg>
