<svg version="1.2" xmlns="http://www.w3.org/2000/svg" viewBox="0 0 513 513" width="200" height="200">
	<title>Sec1-Logo</title>
	<style>
		.s0 { fill: #f2f2f2 } 
		.s1 { fill: #ff5b1e } 
		.s2 { fill: #000000 } 
	</style>
	<path id="Layer" class="s0" d="m256 512c-141.6 0-256-114.4-256-256 0-141.6 114.4-256 256-256 141.6 0 256 114.4 256 256 0 141.6-114.4 256-256 256z"/>
	<path id="Layer" class="s1" d="m187.4 195.7v19.3h-68.8q-0.9 0-1.9 0.1-0.9 0.2-1.8 0.6-0.9 0.4-1.8 0.9-0.8 0.5-1.5 1.2-0.6 0.7-1.2 1.5-0.5 0.8-0.9 1.7-0.4 0.9-0.5 1.8-0.2 1-0.2 2 0 0.9 0.2 1.9 0.2 0.9 0.5 1.8 0.4 0.9 0.9 1.7 0.6 0.9 1.3 1.6 0.6 0.7 1.4 1.2 0.8 0.6 1.7 1 0.9 0.3 1.9 0.5 1 0.2 1.9 0.2h39.3q1.5 0 3 0.1 1.4 0.2 2.9 0.5 1.4 0.2 2.8 0.7 1.4 0.4 2.8 1 1.3 0.5 2.5 1.2 1.3 0.7 2.5 1.4 1.1 0.8 2.2 1.7 1.2 0.9 2.2 1.9c2 2 3.8 4.3 5.1 6.9 1.4 2.5 2.4 5.3 3 8.1 0.5 2.8 0.6 5.7 0.3 8.6-0.2 2.9-1 5.7-2.1 8.4q-1.1 2.6-2.7 4.9-1.6 2.4-3.6 4.4-2.1 2-4.4 3.6-2.4 1.6-5 2.7-1.4 0.5-2.8 1-1.4 0.4-2.8 0.7-1.5 0.2-2.9 0.4-1.5 0.1-3 0.1h-68.5v-19.3h68.5q1 0 2-0.1 1-0.2 1.9-0.6 0.9-0.3 1.8-0.9 0.8-0.5 1.5-1.2 0.7-0.7 1.3-1.5 0.5-0.9 0.9-1.8 0.4-0.9 0.5-1.9 0.2-1 0.2-1.9 0-1-0.2-2-0.2-0.9-0.5-1.8-0.4-0.9-0.9-1.7-0.6-0.8-1.3-1.5-0.7-0.7-1.5-1.2-0.9-0.6-1.8-0.9-0.9-0.4-1.9-0.6-1-0.1-2-0.1h-39.3q-1.4 0-2.9-0.1-1.5-0.2-2.9-0.5-1.4-0.2-2.8-0.7-1.5-0.4-2.8-1-1.3-0.5-2.6-1.2-1.2-0.7-2.4-1.5-1.1-0.7-2.2-1.7-1.1-0.9-2.1-1.9-1-1-1.9-2.1-0.9-1.1-1.6-2.2-0.8-1.2-1.5-2.4-0.7-1.3-1.2-2.6-1.1-2.7-1.7-5.6-0.6-2.8-0.6-5.8 0-2.9 0.6-5.8 0.6-2.8 1.7-5.5c1.1-2.7 2.6-5.1 4.5-7.3 1.8-2.2 3.9-4.1 6.3-5.6 2.4-1.6 5-2.8 7.8-3.6 2.7-0.8 5.5-1.2 8.4-1.2z"/>
	<path id="Layer" fill-rule="evenodd" class="s2" d="m270.3 258.8l13.8 13.6-6.8 6.7c-4.6 4.6-10 8.2-15.9 10.6-6 2.5-12.3 3.8-18.8 3.8-6.4 0-12.8-1.3-18.8-3.8-5.9-2.4-11.3-6-15.9-10.6q-1.7-1.7-3.3-3.6-1.5-1.8-2.9-3.9-1.3-2-2.5-4.2-1.1-2.1-2-4.4-0.8-2.2-1.5-4.4-0.7-2.3-1.1-4.6-0.4-2.3-0.7-4.6-0.2-2.4-0.2-4.7 0-2.3 0.2-4.7 0.3-2.3 0.7-4.6 0.4-2.3 1.1-4.5 0.6-2.2 1.5-4.4 0.9-2.3 2-4.4 1.2-2.2 2.5-4.2 1.4-2 2.9-3.9 1.6-1.8 3.3-3.5 1.7-1.7 3.6-3.3 1.9-1.6 4-2.9 2-1.4 4.2-2.5 2.2-1.1 4.5-2 4.4-1.8 9-2.7 4.7-0.9 9.4-0.9 4.7 0 9.4 0.9 4.7 0.9 9.1 2.7 2.2 0.9 4.4 2 2.2 1.1 4.2 2.5 2.1 1.3 4 2.9 1.9 1.6 3.6 3.3l6.8 6.7-54.4 54c2.8 1.4 5.7 2.3 8.7 2.8 3.1 0.4 6.1 0.4 9.2-0.1 3-0.5 5.9-1.5 8.6-2.9 2.7-1.4 5.2-3.2 7.4-5.4zm-48.7-34.9c-2.2 2.1-4 4.6-5.4 7.3-1.4 2.7-2.4 5.6-2.9 8.6-0.5 3-0.5 6-0.1 9 0.5 3 1.4 6 2.7 8.7l8-7.9 11.4-11.3q6-6 11.5-11.4 5.6-5.3 8.7-8.4-2.1-1-4.2-1.7-2.2-0.7-4.4-1.1-2.2-0.3-4.5-0.4-2.3 0-4.5 0.4-2.3 0.3-4.5 1-2.3 0.7-4.3 1.7-2.1 1.1-4 2.5-1.9 1.3-3.5 3z"/>
	<path id="Layer" class="s2" d="m305 210q1.7-1.7 3.6-3.3 1.9-1.5 4-2.9 2-1.3 4.2-2.5 2.2-1.1 4.5-2 4.4-1.8 9-2.7 4.7-0.9 9.4-0.9 4.7 0 9.4 0.9 4.6 0.9 9 2.7 2.3 0.9 4.5 2 2.2 1.1 4.2 2.5 2.1 1.4 4 2.9 1.9 1.6 3.6 3.3l6.8 6.7-13.5 13.7-7-6.7q-1.1-1.1-2.2-2-1.2-1-2.4-1.8-1.3-0.8-2.6-1.5-1.3-0.7-2.7-1.2-2.6-1.1-5.4-1.7-2.8-0.5-5.7-0.5-2.9 0-5.7 0.5-2.8 0.6-5.4 1.7-1.4 0.5-2.7 1.2-1.3 0.7-2.6 1.5-1.2 0.8-2.3 1.8-1.2 0.9-2.2 2-1.1 0.9-2.1 2.1-0.9 1.1-1.7 2.3-0.9 1.2-1.6 2.5-0.6 1.2-1.2 2.6-1.1 2.6-1.6 5.4-0.6 2.8-0.6 5.6 0 2.9 0.6 5.7 0.5 2.8 1.6 5.4 0.6 1.4 1.3 2.7 0.7 1.3 1.5 2.5 0.8 1.2 1.8 2.4 0.9 1.1 2 2.1 2 2.1 4.4 3.8 2.5 1.6 5.2 2.7 2.7 1.2 5.6 1.7 2.8 0.5 5.8 0.5 1.4 0 2.9-0.1 1.4-0.2 2.8-0.4 1.5-0.3 2.9-0.7 1.4-0.4 2.7-1 1.4-0.5 2.7-1.2 1.3-0.7 2.5-1.5 1.2-0.8 2.3-1.8 1.1-0.9 2.1-2l7-6.7 13.5 13.7-6.8 6.7q-1.7 1.8-3.6 3.3-1.9 1.6-4 2.9-2 1.4-4.2 2.5-2.2 1.1-4.4 2-4.4 1.8-9.1 2.7-4.6 0.9-9.4 0.9-4.7 0-9.4-0.9-4.6-0.9-9-2.7-2.3-0.9-4.5-2-2.2-1.1-4.2-2.5-2.1-1.3-4-2.9-1.9-1.6-3.6-3.3-1.7-1.7-3.3-3.6-1.5-1.8-2.9-3.8-1.3-2.1-2.5-4.2-1.1-2.1-2-4.4-1.7-4.4-2.6-9-0.9-4.6-0.9-9.3 0-4.7 0.9-9.3 0.9-4.6 2.6-9 0.9-2.3 2-4.4 1.2-2.2 2.5-4.2 1.4-2.1 2.9-3.9 1.6-1.9 3.3-3.6z"/>
	<path id="Layer" class="s2" d="m410.8 182.2v0.9c0 2-0.4 3.9-1.2 5.8-0.8 1.8-1.9 3.5-3.3 4.9-1.4 1.4-3.1 2.5-4.9 3.2-1.9 0.8-3.8 1.2-5.8 1.2h-7.4v19.2h7.4c4.5 0 9-0.9 13.2-2.6 4.1-1.7 7.9-4.2 11.1-7.4 3.3-3.2 5.8-7 7.6-11.2 1.7-4.1 2.6-8.6 2.6-13.1v-0.9z"/>
	<path id="Layer" class="s2" d="m409.5 220.1v73.1h20.6v-100.2c-0.4 2.9-1.1 5.8-2.3 8.6-1.1 2.7-2.6 5.3-4.4 7.7-1.8 2.3-3.9 4.5-6.3 6.3-2.3 1.8-4.9 3.3-7.6 4.5z"/>
	<path id="Layer" class="s2" d="m347.6 253c-1.1 1.1-2.4 2-3.9 2.7-1.5 0.6-3.1 0.9-4.7 0.9-1.6 0-3.2-0.3-4.7-0.9-1.5-0.7-2.8-1.6-4-2.7-1.1-1.1-2-2.5-2.7-3.9-0.6-1.5-0.9-3.1-0.9-4.7 0-1.6 0.3-3.2 0.9-4.7 0.7-1.4 1.6-2.8 2.7-3.9 1.2-1.1 2.5-2 4-2.6 1.5-0.7 3.1-1 4.7-1 1.6 0 3.2 0.3 4.7 1 1.5 0.6 2.8 1.5 3.9 2.6l8.8 8.7z"/>
	<path id="Layer" class="s2" d="m99.1 325.1q-0.6 0-1.3-0.1-0.6-0.1-1.3-0.2-0.6-0.2-1.2-0.4-0.6-0.2-1.2-0.6-0.5-0.3-1-0.6-0.5-0.4-1-0.8-0.4-0.5-0.8-1-0.3-0.5-0.6-1-0.7-1.2-1-2.4-0.3-1.3-0.3-2.6 0-1.3 0.3-2.6 0.3-1.3 0.9-2.4 0.4-0.6 0.7-1 0.4-0.5 0.8-1 0.5-0.4 1-0.8 0.5-0.4 1-0.7 0.6-0.3 1.2-0.5 0.6-0.3 1.2-0.4 0.7-0.2 1.3-0.2 0.7-0.1 1.3-0.1 0.8 0 1.5 0.1 0.8 0.1 1.5 0.3 0.8 0.2 1.4 0.6 0.7 0.3 1.4 0.8 0.6 0.4 1.1 1 0.5 0.5 0.9 1.1 0.4 0.7 0.7 1.3 0.3 0.7 0.5 1.4l-2.4 0.1q-0.2-0.5-0.4-1-0.3-0.4-0.6-0.8-0.3-0.5-0.7-0.8-0.4-0.4-0.8-0.6-0.5-0.3-1-0.6-0.4-0.2-1-0.3-0.5-0.2-1-0.2-0.5-0.1-1.1-0.1-0.7 0-1.4 0.1-0.7 0.1-1.4 0.4-0.7 0.3-1.3 0.7-0.6 0.4-1.1 0.9-1 1.1-1.5 2.4-0.6 1.4-0.6 2.9 0 1.5 0.6 2.8 0.5 1.4 1.5 2.5 0.9 0.9 2.1 1.4 1.2 0.5 2.4 0.7 1.3 0.1 2.6-0.2 1.2-0.3 2.3-1 0.4-0.4 0.8-0.7 0.4-0.4 0.7-0.8 0.3-0.5 0.6-0.9 0.2-0.5 0.4-1h2.4q-0.2 0.7-0.5 1.4-0.3 0.7-0.7 1.4-0.4 0.6-0.9 1.2-0.6 0.6-1.2 1-0.6 0.5-1.3 0.9-0.7 0.3-1.4 0.5-0.8 0.3-1.5 0.4-0.8 0.1-1.6 0.1z"/>
	<path id="Layer" class="s2" d="m122.1 310.3h2.5l-7 15.1q-0.2 0.5-0.5 1-0.2 0.5-0.5 0.9-0.3 0.5-0.7 0.9-0.3 0.4-0.7 0.8-0.4 0.3-0.8 0.4-0.4 0.2-0.8 0.4-0.4 0.1-0.9 0.2-0.4 0-0.8 0h-1.4v-2.1h1.2q0.2 0 0.5 0 0.3 0 0.6-0.1 0.3-0.1 0.5-0.2 0.3-0.1 0.6-0.3 0.2-0.2 0.5-0.5 0.2-0.3 0.4-0.6 0.2-0.3 0.4-0.6 0.1-0.4 0.3-0.7l0.5-1.1-6.5-13.5h2.5l5.2 11z"/>
	<path id="Layer" fill-rule="evenodd" class="s2" d="m135 310q0.5 0 1 0.1 0.5 0 1 0.1 0.5 0.2 1 0.4 0.5 0.1 0.9 0.4 0.4 0.2 0.8 0.5 0.4 0.3 0.7 0.7 0.4 0.3 0.7 0.7 0.2 0.4 0.5 0.8 0.2 0.5 0.4 0.9 0.2 0.5 0.3 1 0.2 0.5 0.2 1 0.1 0.5 0.1 1 0 0.7-0.1 1.5-0.2 0.7-0.4 1.4-0.3 0.7-0.7 1.3-0.4 0.7-0.9 1.2-0.6 0.5-1.2 1-0.6 0.4-1.3 0.6-0.7 0.3-1.5 0.5-0.7 0.1-1.5 0.1-0.4 0-0.8-0.1-0.4 0-0.8-0.1-0.4-0.1-0.7-0.2-0.4-0.1-0.8-0.3-0.3-0.1-0.7-0.3-0.3-0.2-0.6-0.4-0.3-0.2-0.6-0.5-0.3-0.2-0.6-0.5l-0.3 2.1h-1.8v-19.8h2.3v7q0.3-0.3 0.6-0.5 0.3-0.2 0.6-0.4 0.3-0.2 0.6-0.4 0.3-0.2 0.7-0.3 0.3-0.1 0.7-0.2 0.3-0.1 0.7-0.2 0.4-0.1 0.7-0.1 0.4 0 0.8 0zm-4 11.4c1.8 1.9 4.8 2.2 7 0.8 2.2-1.4 3.1-4.2 2.1-6.7-1-2.4-3.6-3.8-6.2-3.3-2.6 0.5-4.5 2.7-4.5 5.4q0 0.5 0.1 1 0.1 0.5 0.3 1 0.2 0.5 0.5 1 0.3 0.4 0.7 0.8z"/>
	<path id="Layer" fill-rule="evenodd" class="s2" d="m159.7 317.6q0 0.4 0 0.8h-12.5q0.1 0.5 0.2 0.9 0.1 0.5 0.3 0.9 0.3 0.4 0.5 0.8 0.3 0.4 0.7 0.7 0.3 0.3 0.8 0.5 0.4 0.2 0.8 0.4 0.5 0.1 0.9 0.2 0.5 0.1 1 0.1 0.3 0 0.7-0.1 0.3 0 0.6-0.1 0.4-0.1 0.7-0.2 0.3-0.1 0.6-0.3 0.3-0.1 0.6-0.3 0.3-0.2 0.5-0.5 0.2-0.2 0.4-0.5 0.2-0.2 0.4-0.5h2.4q-0.2 0.5-0.4 1-0.3 0.5-0.7 0.9-0.3 0.5-0.7 0.9-0.5 0.3-0.9 0.7-0.5 0.3-1 0.5-0.5 0.3-1 0.4-0.6 0.2-1.1 0.2-0.6 0.1-1.1 0.1-0.5 0-1 0-0.5-0.1-1-0.2-0.5-0.2-0.9-0.4-0.5-0.1-0.9-0.4-0.5-0.2-0.8-0.5-0.4-0.3-0.8-0.7-0.3-0.3-0.6-0.7-0.3-0.4-0.5-0.8-0.5-0.9-0.8-1.9-0.2-1-0.2-2 0-1 0.2-2 0.3-1 0.8-1.9 0.2-0.4 0.5-0.8 0.3-0.4 0.6-0.7 0.4-0.3 0.8-0.6 0.3-0.3 0.8-0.6 0.4-0.2 0.9-0.4 0.4-0.2 0.9-0.3 0.5-0.2 1-0.2 0.5-0.1 1-0.1 0.5 0 1 0.1 0.5 0 1 0.2 0.4 0.1 0.9 0.3 0.5 0.2 0.9 0.4 0.4 0.3 0.8 0.6 0.4 0.3 0.7 0.6 0.3 0.4 0.6 0.8 0.3 0.4 0.5 0.8 0.3 0.4 0.4 0.9 0.2 0.5 0.3 1 0.1 0.5 0.2 1 0 0.5 0 1zm-7.3-5.5q-0.5 0-0.9 0.1-0.5 0.1-0.9 0.2-0.5 0.1-0.8 0.4-0.4 0.2-0.8 0.5-0.3 0.2-0.6 0.6-0.3 0.3-0.5 0.7-0.3 0.4-0.4 0.8-0.2 0.4-0.2 0.9h10.1q-0.1-0.9-0.6-1.7-0.4-0.8-1.1-1.4-0.7-0.6-1.6-0.9-0.8-0.2-1.7-0.2z"/>
	<path id="Layer" class="s2" d="m169.9 310.2h1.3v2.2h-1.5q-0.5-0.1-0.9 0-0.4 0.1-0.8 0.2-0.4 0.2-0.8 0.4-0.3 0.3-0.6 0.6-0.3 0.3-0.5 0.7-0.2 0.4-0.4 0.8-0.1 0.5-0.2 0.9 0 0.5 0 0.9v7.9h-2.3v-14.5h1.6l0.4 2.2q0.4-0.6 0.9-1 0.5-0.5 1.1-0.8 0.6-0.3 1.3-0.4 0.7-0.1 1.4-0.1z"/>
	<path id="Layer" class="s2" d="m178.1 325.1q-0.5 0-1.1 0-0.5-0.1-1.1-0.3-0.5-0.1-1-0.4-0.5-0.2-0.9-0.6-0.4-0.3-0.7-0.7-0.3-0.4-0.5-0.8-0.3-0.5-0.4-1-0.1-0.5-0.1-0.9h2.3q0 0.2 0 0.5 0.1 0.3 0.3 0.6 0.1 0.2 0.3 0.4 0.2 0.2 0.5 0.4 0.2 0.2 0.5 0.3 0.4 0.2 0.7 0.3 0.3 0 0.6 0.1 0.4 0 0.7 0 0.3 0 0.7 0 0.3 0 0.6-0.1 0.3-0.1 0.6-0.2 0.3-0.1 0.6-0.3 0.2-0.1 0.4-0.3 0.2-0.2 0.3-0.4 0.2-0.2 0.2-0.5 0.1-0.2 0.1-0.5 0-0.1 0-0.1 0-0.1 0-0.2 0-0.1-0.1-0.2 0-0.1 0-0.2-0.1-0.1-0.1-0.2-0.1 0-0.1-0.1-0.1-0.1-0.1-0.1-0.1-0.1-0.2-0.2 0 0-0.1-0.1-0.1 0-0.1-0.1-0.1 0-0.2-0.1-0.1 0-0.1-0.1-0.1 0-0.2 0-0.1-0.1-0.2-0.1-0.1-0.1-0.2-0.1-0.1 0-0.2 0l-0.9-0.3-1-0.1-0.8-0.2-0.7-0.1q-0.5-0.1-0.8-0.2l-0.7-0.2q0-0.1-0.1-0.1-0.1 0-0.2-0.1-0.1 0-0.1-0.1-0.1 0-0.2-0.1l-0.6-0.4q0 0-0.1-0.1-0.1 0-0.1-0.1-0.1-0.1-0.1-0.1-0.1-0.1-0.1-0.2-0.1 0-0.1-0.1-0.1-0.1-0.1-0.2-0.1 0-0.1-0.1 0-0.1-0.1-0.2 0-0.1-0.1-0.2 0-0.1 0-0.1-0.1-0.1-0.1-0.2 0-0.1 0-0.2 0-0.1-0.1-0.3 0-0.1 0-0.2 0-0.1 0-0.2 0-0.1 0-0.2 0-0.5 0.1-0.9 0.1-0.4 0.3-0.8 0.2-0.4 0.5-0.7 0.3-0.4 0.6-0.6 0.5-0.3 0.9-0.6 0.5-0.2 1-0.4 0.5-0.1 1.1-0.2 0.5 0 1 0 0.6 0 1.1 0 0.5 0.1 1 0.3 0.5 0.1 1 0.4 0.5 0.2 0.9 0.5 0.4 0.3 0.7 0.7 0.3 0.4 0.5 0.8 0.2 0.4 0.3 0.9 0.1 0.4 0.1 0.9h-2.2q0-0.3-0.1-0.5 0-0.3-0.2-0.5-0.1-0.3-0.3-0.5-0.1-0.2-0.4-0.3-0.2-0.2-0.5-0.3-0.4-0.2-0.7-0.3-0.3-0.1-0.6-0.1-0.4 0-0.7 0-0.3 0-0.6 0-0.3 0-0.6 0.1-0.3 0.1-0.6 0.2-0.3 0.1-0.6 0.3-0.1 0.1-0.3 0.2-0.2 0.2-0.3 0.4-0.1 0.2-0.2 0.4 0 0.3 0 0.5 0 0.1 0 0.2 0 0 0 0.1 0 0.1 0 0.2 0.1 0.1 0.1 0.1 0 0.1 0.1 0.2 0 0.1 0.1 0.1 0 0.1 0.1 0.1 0 0.1 0.1 0.1 0.1 0.1 0.1 0.1 0.1 0.1 0.2 0.1 0 0.1 0.1 0.1 0.1 0.1 0.2 0.1 0 0.1 0.1 0.1 0.1 0 0.2 0.1 0.1 0 0.2 0 0.1 0 0.2 0.1l0.9 0.1q0.3 0.1 1 0.2 0.3 0.1 0.7 0.1 0.4 0.1 0.8 0.2 0.4 0.1 0.8 0.2 0.4 0.1 0.8 0.3 0.5 0.1 0.9 0.5 0.4 0.3 0.7 0.7 0.3 0.4 0.5 0.9 0.2 0.5 0.2 1 0 0.3 0 0.5 0 0.5-0.1 1-0.1 0.4-0.3 0.9-0.2 0.4-0.5 0.7-0.3 0.4-0.7 0.7-0.4 0.3-0.9 0.6-0.5 0.2-1.1 0.4-0.5 0.1-1 0.2-0.6 0-1.2 0z"/>
	<path id="Layer" fill-rule="evenodd" class="s2" d="m201.1 317.6q0 0.1 0 0.2 0 0.1 0 0.2 0 0.1 0 0.2 0 0.1 0 0.2h-12.5q0 0.5 0.1 0.9 0.2 0.5 0.4 0.9 0.2 0.4 0.5 0.8 0.3 0.4 0.6 0.7 0.4 0.3 0.8 0.5 0.4 0.2 0.9 0.4 0.4 0.2 0.9 0.2 0.4 0.1 0.9 0.1 0.4 0 0.7-0.1 0.4 0 0.7-0.1 0.3-0.1 0.7-0.2 0.3-0.1 0.6-0.3 0.3-0.1 0.5-0.3 0.3-0.2 0.6-0.5 0.2-0.2 0.4-0.5 0.2-0.2 0.4-0.5h2.4q-0.2 0.5-0.5 1-0.3 0.5-0.6 0.9-0.4 0.5-0.8 0.9-0.4 0.3-0.9 0.7-0.4 0.3-0.9 0.5-0.6 0.3-1.1 0.4-0.5 0.2-1.1 0.2-0.5 0.1-1.1 0.1-0.5 0-1 0-0.5-0.1-1-0.2-0.4-0.2-0.9-0.4-0.5-0.1-0.9-0.4-0.4-0.2-0.8-0.5-0.4-0.3-0.7-0.7-0.4-0.3-0.7-0.7-0.2-0.4-0.5-0.8-0.5-0.9-0.7-1.9-0.2-1-0.2-2 0-1 0.2-2 0.2-1 0.7-1.9 0.3-0.4 0.5-0.7 0.3-0.4 0.7-0.8 0.3-0.3 0.7-0.6 0.4-0.3 0.8-0.5 0.4-0.2 0.9-0.4 0.5-0.2 0.9-0.4 0.5-0.1 1-0.1 0.5-0.1 1-0.1 0.5 0 1 0 0.5 0.1 1 0.2 0.5 0.2 1 0.4 0.4 0.1 0.9 0.4 0.4 0.2 0.8 0.6 0.3 0.3 0.7 0.6 0.3 0.4 0.6 0.7 0.2 0.4 0.5 0.9 0.2 0.4 0.4 0.9 0.1 0.4 0.3 0.9 0.1 0.5 0.1 1 0.1 0.5 0.1 1zm-7.4-5.5q-0.4 0-0.9 0.1-0.4 0-0.9 0.2-0.4 0.1-0.8 0.4-0.4 0.2-0.8 0.5-0.3 0.2-0.6 0.6-0.3 0.3-0.5 0.7-0.2 0.4-0.4 0.8-0.1 0.4-0.2 0.9h10.2q-0.1-0.5-0.3-0.9-0.1-0.4-0.3-0.8-0.2-0.4-0.5-0.8-0.3-0.3-0.7-0.6-0.3-0.3-0.7-0.5-0.4-0.2-0.8-0.3-0.5-0.2-0.9-0.2-0.4-0.1-0.9-0.1z"/>
	<path id="Layer" class="s2" d="m211 325.1q-0.5 0-1 0-0.5-0.1-1-0.2-0.5-0.2-1-0.4-0.4-0.1-0.9-0.4-0.4-0.2-0.8-0.5-0.4-0.3-0.7-0.7-0.4-0.3-0.7-0.7-0.3-0.4-0.5-0.8-0.5-0.9-0.8-1.9-0.2-1-0.2-2 0-1 0.2-2 0.3-1 0.8-1.9 0.2-0.4 0.5-0.8 0.3-0.4 0.7-0.7 0.3-0.3 0.7-0.6 0.4-0.3 0.8-0.6 0.5-0.2 0.9-0.4 0.5-0.2 1-0.3 0.5-0.2 1-0.2 0.5-0.1 1-0.1 0.6 0 1.2 0.1 0.6 0.1 1.2 0.3 0.5 0.1 1.1 0.4 0.5 0.3 1 0.6 0.5 0.4 0.9 0.8 0.4 0.4 0.7 0.9 0.4 0.5 0.6 1 0.2 0.6 0.4 1.1h-2.3q-0.2-0.3-0.4-0.6-0.2-0.3-0.4-0.6-0.3-0.3-0.5-0.5-0.3-0.3-0.6-0.5-0.4-0.2-0.7-0.3-0.4-0.2-0.7-0.3-0.4-0.1-0.8-0.1-0.3-0.1-0.7-0.1-0.6 0-1.1 0.1-0.5 0.1-1 0.3-0.5 0.2-0.9 0.5-0.4 0.3-0.8 0.7-0.7 0.8-1.1 1.8-0.4 0.9-0.4 2 0 1.1 0.4 2.1 0.4 0.9 1.1 1.7 0.4 0.4 0.8 0.7 0.4 0.3 0.9 0.5 0.5 0.2 1 0.3 0.5 0.1 1.1 0.1 0.3 0 0.7-0.1 0.4 0 0.8-0.1 0.3-0.1 0.7-0.3 0.3-0.1 0.6-0.3 0.4-0.2 0.6-0.5 0.3-0.2 0.6-0.5 0.2-0.3 0.4-0.6 0.2-0.4 0.4-0.7h2.3q-0.2 0.6-0.4 1.1-0.2 0.5-0.6 1-0.3 0.5-0.7 1-0.4 0.4-0.9 0.7-0.5 0.4-1 0.7-0.6 0.3-1.1 0.4-0.6 0.2-1.2 0.3-0.6 0.1-1.2 0.1z"/>
	<path id="Layer" class="s2" d="m227.5 325.1q-1.3 0.1-2.5-0.4-1.2-0.4-2.2-1.3-0.9-1-1.4-2.2-0.4-1.2-0.3-2.5v-8.4h2.3v8q-0.1 0.4 0 0.9 0.1 0.4 0.2 0.9 0.1 0.4 0.4 0.8 0.2 0.4 0.5 0.8 0.6 0.5 1.4 0.9 0.8 0.3 1.6 0.3 0.9 0 1.7-0.3 0.8-0.4 1.4-0.9 0.3-0.4 0.5-0.8 0.2-0.4 0.4-0.8 0.1-0.5 0.2-0.9 0-0.5 0-0.9v-8h2.3v8.4q0.1 1.3-0.4 2.5-0.4 1.2-1.4 2.2-0.9 0.9-2.1 1.3-1.3 0.5-2.6 0.4z"/>
	<path id="Layer" class="s2" d="m245.1 310.2h1.3v2.2h-1.5q-0.4-0.1-0.8 0-0.5 0.1-0.9 0.2-0.4 0.2-0.7 0.4-0.4 0.3-0.7 0.6-0.3 0.3-0.5 0.7-0.2 0.4-0.3 0.8-0.2 0.5-0.2 0.9-0.1 0.5-0.1 0.9v7.9h-2.3v-14.5h1.6l0.4 2.2q0.4-0.6 0.9-1 0.6-0.5 1.2-0.8 0.6-0.3 1.3-0.4 0.6-0.1 1.3-0.1z"/>
	<path id="Layer" class="s2" d="m248.8 307.8v-2.7h2.5v2.7zm0.1 17v-14.5h2.3v14.5z"/>
	<path id="Layer" class="s2" d="m261.9 322.7h1.6v2.1h-1.9q-1.1 0.1-2.1-0.3-0.9-0.3-1.7-1.1-0.7-0.7-1.1-1.7-0.3-0.9-0.2-2v-7.4h-2.6v-0.4l4.5-4.7h0.4v3.1h4.6v2h-4.6v7.3q0 0.4 0 0.7 0 0.3 0.1 0.6 0.1 0.2 0.3 0.5 0.2 0.3 0.4 0.5 0.2 0.2 0.5 0.4 0.2 0.1 0.5 0.2 0.3 0.1 0.6 0.2 0.3 0 0.7 0z"/>
	<path id="Layer" class="s2" d="m277.2 310.3h2.5l-7 15.1q-0.2 0.5-0.5 1-0.2 0.5-0.6 0.9-0.3 0.5-0.6 0.9-0.4 0.4-0.8 0.8-0.3 0.3-0.7 0.5-0.4 0.1-0.8 0.3-0.4 0.1-0.9 0.2-0.4 0-0.9 0h-1.3v-2.1h1.1q0.3 0 0.6 0 0.3 0 0.6-0.1 0.3-0.1 0.5-0.2 0.3-0.1 0.5-0.3 0.3-0.2 0.5-0.5 0.3-0.3 0.5-0.6 0.2-0.3 0.4-0.6 0.1-0.4 0.3-0.7l0.5-1.1-6.5-13.5h2.5l5.2 11z"/>
	<path id="Layer" fill-rule="evenodd" class="s2" d="m301.6 324.8l-1.9-4.5h-9.2l-1.8 4.5h-2.5l7.7-18.8h2.3l8 18.8zm-6.5-15.5l-3.7 8.9h7.4z"/>
	<path id="Layer" class="s2" d="m307.2 324.8v-18.8h2.4v18.8z"/>
	<path id="Layer" class="s2" d="m332.5 308.2h-8.3v6.2h7.6v2.2h-7.6v8.2h-2.4v-18.8h10.7z"/>
	<path id="Layer" fill-rule="evenodd" class="s2" d="m342.1 325.1q-0.7 0-1.5-0.1-0.7-0.1-1.4-0.4-0.7-0.3-1.4-0.7-0.6-0.4-1.2-1-0.5-0.5-0.9-1.1-0.5-0.6-0.8-1.3-0.2-0.7-0.4-1.5-0.1-0.7-0.1-1.5 0-0.5 0.1-1 0-0.5 0.1-1 0.2-0.5 0.4-0.9 0.1-0.5 0.4-1 0.2-0.4 0.5-0.8 0.3-0.4 0.7-0.7 0.4-0.3 0.7-0.6 0.4-0.3 0.9-0.6 0.9-0.4 1.9-0.7 1-0.2 2-0.2 1.1 0 2.1 0.2 1 0.3 1.9 0.7 0.4 0.3 0.8 0.6 0.4 0.3 0.8 0.6 0.3 0.3 0.6 0.7 0.3 0.4 0.6 0.9 0.5 0.8 0.8 1.8 0.2 1 0.2 2 0 1.1-0.2 2-0.3 1-0.8 1.9-0.3 0.4-0.6 0.8-0.3 0.4-0.6 0.8-0.4 0.3-0.8 0.6-0.4 0.3-0.8 0.5-0.5 0.3-0.9 0.5-0.5 0.2-1 0.3-0.5 0.1-1 0.2-0.5 0-1.1 0zm-3.8-3.7q0.8 0.7 1.8 1.1 1 0.4 2.1 0.4 1 0 2-0.4 1-0.4 1.8-1.1 0.8-0.8 1.2-1.8 0.4-1 0.4-2.1 0-1-0.4-2-0.4-1-1.2-1.8-0.8-0.7-1.8-1.1-1-0.4-2-0.4-1.1 0-2.1 0.4-1 0.4-1.8 1.1-0.8 0.8-1.2 1.8-0.3 1-0.4 2 0.1 1.1 0.4 2.1 0.4 1 1.2 1.8z"/>
	<path id="Layer" class="s2" d="m360.1 310.2h1.3v2.2h-1.5q-0.4-0.1-0.9 0-0.4 0.1-0.8 0.2-0.4 0.2-0.7 0.4-0.4 0.3-0.7 0.6-0.3 0.3-0.5 0.7-0.2 0.4-0.4 0.8-0.1 0.5-0.2 0.9 0 0.5 0 0.9v7.9h-2.3v-14.5h1.6l0.4 2.2q0.4-0.6 0.9-1 0.5-0.5 1.1-0.8 0.7-0.3 1.3-0.4 0.7-0.1 1.4-0.1z"/>
	<path id="Layer" class="s2" d="m369.9 322.7h1.6v2.1h-1.9q-1 0.1-2-0.3-1-0.3-1.7-1.1-0.7-0.7-1.1-1.7-0.4-0.9-0.3-2v-7.4h-2.5v-0.4l4.5-4.7h0.4v3.1h4.6v2h-4.6v7.3q0 0.4 0 0.7 0 0.3 0.1 0.6 0.1 0.2 0.3 0.5 0.2 0.3 0.4 0.5 0.2 0.2 0.5 0.4 0.2 0.1 0.5 0.2 0.3 0.1 0.6 0.2 0.3 0 0.6 0z"/>
	<path id="Layer" class="s2" d="m374.5 307.8v-2.7h2.5v2.7zm0.1 17v-14.5h2.3v14.5z"/>
	<path id="Layer" class="s2" d="m389.3 310.4v1.9h-4.5v12.5h-2.3v-12.5h-2.8v-1.9h2.8v-1.2q0-0.5 0.1-0.9 0-0.5 0.2-1 0.1-0.4 0.3-0.8 0.3-0.4 0.6-0.8 0.3-0.3 0.8-0.5 0.4-0.3 0.8-0.4 0.5-0.2 1-0.2 0.5-0.1 0.9 0h2.1v1.8h-1.7q-0.2 0-0.5 0-0.3 0-0.6 0.1-0.3 0.1-0.6 0.2-0.2 0.2-0.5 0.4-0.2 0.2-0.3 0.4-0.1 0.3-0.2 0.6-0.1 0.3-0.1 0.6-0.1 0.3 0 0.5v1.2z"/>
	<path id="Layer" class="s2" d="m391.9 307.8v-2.7h2.5v2.7zm0.1 17v-14.5h2.3v14.5z"/>
	<path id="Layer" fill-rule="evenodd" class="s2" d="m412.6 317.6q0 0.1 0 0.2 0 0.1 0 0.2 0 0.1 0 0.2 0 0.1 0 0.2h-12.5q0 0.5 0.2 0.9 0.1 0.5 0.3 0.9 0.2 0.4 0.5 0.8 0.3 0.4 0.6 0.7 0.4 0.3 0.8 0.5 0.4 0.2 0.9 0.4 0.4 0.1 0.9 0.2 0.4 0.1 0.9 0.1 0.4 0 0.7-0.1 0.4 0 0.7-0.1 0.3-0.1 0.7-0.2 0.3-0.1 0.6-0.3 0.3-0.1 0.6-0.3 0.2-0.2 0.5-0.5 0.2-0.2 0.4-0.5 0.2-0.2 0.4-0.5h2.4q-0.2 0.5-0.5 1-0.3 0.5-0.6 0.9-0.4 0.5-0.8 0.9-0.4 0.3-0.9 0.7-0.4 0.3-0.9 0.5-0.5 0.3-1.1 0.4-0.5 0.2-1.1 0.2-0.5 0.1-1.1 0.1-0.5 0-1 0-0.5-0.1-1-0.2-0.4-0.2-0.9-0.4-0.5-0.1-0.9-0.4-0.4-0.2-0.8-0.5-0.4-0.3-0.7-0.7-0.4-0.3-0.6-0.7-0.3-0.4-0.6-0.8-0.4-0.9-0.7-1.9-0.2-1-0.2-2 0-1 0.2-2 0.3-1 0.7-1.9 0.3-0.4 0.6-0.8 0.2-0.4 0.6-0.7 0.3-0.3 0.7-0.6 0.4-0.3 0.8-0.6 0.4-0.2 0.9-0.4 0.5-0.2 0.9-0.3 0.5-0.2 1-0.2 0.5-0.1 1-0.1 0.5 0 1 0.1 0.5 0 1 0.2 0.5 0.1 1 0.3 0.4 0.2 0.9 0.4 0.4 0.3 0.8 0.6 0.3 0.3 0.7 0.6 0.3 0.4 0.6 0.8 0.3 0.4 0.5 0.8 0.2 0.5 0.4 0.9 0.2 0.5 0.3 1 0.1 0.5 0.1 1 0.1 0.5 0.1 1zm-7.4-5.5q-0.4 0-0.9 0.1-0.4 0-0.9 0.2-0.4 0.1-0.8 0.4-0.4 0.2-0.7 0.5-0.4 0.2-0.7 0.6-0.3 0.3-0.5 0.7-0.2 0.4-0.4 0.8-0.1 0.4-0.2 0.9h10.2q-0.1-0.5-0.2-0.9-0.2-0.4-0.4-0.8-0.2-0.4-0.5-0.8-0.3-0.3-0.7-0.6-0.3-0.3-0.7-0.5-0.4-0.2-0.8-0.3-0.4-0.2-0.9-0.2-0.4-0.1-0.9-0.1z"/>
	<path id="Layer" fill-rule="evenodd" class="s2" d="m427.8 305.1h2.3v19.7h-1.8l-0.3-2.1q-0.2 0.3-0.5 0.6-0.3 0.2-0.6 0.4-0.3 0.3-0.7 0.5-0.3 0.1-0.6 0.3-0.4 0.1-0.8 0.3-0.4 0.1-0.8 0.2-0.4 0-0.8 0.1-0.4 0-0.8 0-0.7 0-1.5-0.1-0.7-0.1-1.4-0.4-0.7-0.3-1.3-0.7-0.7-0.4-1.2-0.9-0.5-0.5-0.9-1.2-0.4-0.6-0.7-1.3-0.3-0.7-0.4-1.4-0.2-0.8-0.1-1.5 0-0.5 0-1 0.1-0.5 0.2-1 0.1-0.5 0.3-1 0.2-0.4 0.5-0.9 0.2-0.4 0.5-0.8 0.3-0.4 0.6-0.7 0.4-0.4 0.8-0.7 0.3-0.3 0.8-0.5 0.4-0.3 0.9-0.4 0.4-0.2 0.9-0.4 0.5-0.1 1-0.1 0.5-0.1 1-0.1 0.4 0 0.8 0 0.4 0.1 0.8 0.1 0.4 0.1 0.7 0.2 0.4 0.1 0.7 0.3 0.4 0.1 0.7 0.3 0.3 0.1 0.6 0.3 0.3 0.2 0.6 0.5 0.3 0.2 0.6 0.4zm-9.1 16.3c1.8 2 4.8 2.4 7.1 0.9 2.3-1.4 3.2-4.3 2.2-6.8-1-2.5-3.6-3.9-6.3-3.4-2.6 0.5-4.5 2.8-4.5 5.5q0 0.5 0 1.1 0.1 0.5 0.3 1 0.2 0.5 0.5 0.9 0.3 0.5 0.7 0.8z"/>
</svg>