<svg width="50" height="50" fill="none" xmlns="http://www.w3.org/2000/svg"><path d="m23.905 1.311-18 5.123A3.994 3.994 0 0 0 3 10.276v15.767c0 13.565 17.81 22.956 22 22.956 4.19 0 22-9.39 22-22.956V10.276a3.994 3.994 0 0 0-2.905-3.842l-18-5.123a4 4 0 0 0-2.19 0Z" fill="#fff"/><path d="M31.5 25a6.5 6.5 0 0 1-6.5 6.5v1a7.5 7.5 0 0 0 7.5-7.5h-1ZM25 31.5a6.5 6.5 0 0 1-6.5-6.5h-1a7.5 7.5 0 0 0 7.5 7.5v-1ZM18.5 25a6.5 6.5 0 0 1 6.5-6.5v-1a7.5 7.5 0 0 0-7.5 7.5h1Zm6.5-6.5a6.5 6.5 0 0 1 6.5 6.5h1a7.5 7.5 0 0 0-7.5-7.5v1Z" fill="url(#a)"/><g filter="url(#b)"><path fill-rule="evenodd" clip-rule="evenodd" d="m5.905 6.434 18-5.123a4 4 0 0 1 2.19 0l18 5.123A3.994 3.994 0 0 1 47 10.276v15.767c0 13.565-17.81 22.956-22 22.956-4.19 0-22-9.39-22-22.956V10.276a3.994 3.994 0 0 1 2.905-3.842ZM25 31a6 6 0 1 0 0-12 6 6 0 0 0 0 12Z" fill="url(#c)"/></g><mask id="d" style="mask-type:alpha" maskUnits="userSpaceOnUse" x="3" y="1" width="44" height="48"><path d="m23.905 1.312-18 5.122A3.994 3.994 0 0 0 3 10.277v15.767C3 39.608 20.81 49 25 49c4.19 0 22-9.391 22-22.956V10.277a3.994 3.994 0 0 0-2.905-3.843l-18-5.122a4 4 0 0 0-2.19 0Z" fill="#FF9F4C"/></mask><g filter="url(#e)" mask="url(#d)"><path fill-rule="evenodd" clip-rule="evenodd" d="M50-5H25v23a7 7 0 1 1 0 14v19h25V-5Z" fill="url(#f)"/></g><circle cx="25" cy="25" r="8" fill="#fff" stroke="url(#g)"/><circle cx="25" cy="25" r="8" fill="#fff"/><path fill-rule="evenodd" clip-rule="evenodd" d="M28.707 22.293a1 1 0 0 1 0 1.414l-3.998 4a1 1 0 0 1-1.414 0l-2.002-1.997a1 1 0 0 1 1.413-1.416l1.295 1.292 3.292-3.293a1 1 0 0 1 1.414 0Z" fill="#161B22"/><defs><linearGradient id="a" x1="18.636" y1="18.393" x2="28.347" y2="32.056" gradientUnits="userSpaceOnUse"><stop stop-color="#FCC27A"/><stop offset="1" stop-color="#F27831"/></linearGradient><linearGradient id="c" x1="-.75" y1="1.158" x2="29.5" y2="37" gradientUnits="userSpaceOnUse"><stop stop-color="#FFE57F" stop-opacity=".4"/><stop offset=".839" stop-color="#F06F00"/></linearGradient><linearGradient id="f" x1="22" y1="2.5" x2="39.5" y2="35" gradientUnits="userSpaceOnUse"><stop stop-color="#FFD33D" stop-opacity="0"/><stop offset="1" stop-color="#ED4E50"/></linearGradient><linearGradient id="g" x1="21" y1="18" x2="29.5" y2="32" gradientUnits="userSpaceOnUse"><stop stop-color="#EF6343"/><stop offset="1" stop-color="#F37D30"/></linearGradient><filter id="b" x="3" y="1.158" width="44" height="47.841" filterUnits="userSpaceOnUse" color-interpolation-filters="sRGB"><feFlood flood-opacity="0" result="BackgroundImageFix"/><feBlend in="SourceGraphic" in2="BackgroundImageFix" result="shape"/><feColorMatrix in="SourceAlpha" values="0 0 0 0 0 0 0 0 0 0 0 0 0 0 0 0 0 0 127 0" result="hardAlpha"/><feOffset dx="1" dy="1"/><feComposite in2="hardAlpha" operator="arithmetic" k2="-1" k3="1"/><feColorMatrix values="0 0 0 0 1 0 0 0 0 1 0 0 0 0 1 0 0 0 0.25 0"/><feBlend in2="shape" result="effect1_innerShadow_2600:59"/><feColorMatrix in="SourceAlpha" values="0 0 0 0 0 0 0 0 0 0 0 0 0 0 0 0 0 0 127 0" result="hardAlpha"/><feOffset dx="-1" dy="-1"/><feComposite in2="hardAlpha" operator="arithmetic" k2="-1" k3="1"/><feColorMatrix values="0 0 0 0 0 0 0 0 0 0 0 0 0 0 0 0 0 0 0.08 0"/><feBlend in2="effect1_innerShadow_2600:59" result="effect2_innerShadow_2600:59"/></filter><filter id="e" x="25" y="-5" width="25" height="56" filterUnits="userSpaceOnUse" color-interpolation-filters="sRGB"><feFlood flood-opacity="0" result="BackgroundImageFix"/><feBlend in="SourceGraphic" in2="BackgroundImageFix" result="shape"/><feColorMatrix in="SourceAlpha" values="0 0 0 0 0 0 0 0 0 0 0 0 0 0 0 0 0 0 127 0" result="hardAlpha"/><feOffset dx="-1" dy="-1"/><feComposite in2="hardAlpha" operator="arithmetic" k2="-1" k3="1"/><feColorMatrix values="0 0 0 0 0 0 0 0 0 0 0 0 0 0 0 0 0 0 0.25 0"/><feBlend in2="shape" result="effect1_innerShadow_2600:59"/></filter></defs></svg>