<svg width="38" height="52" viewBox="0 0 38 52" fill="none" xmlns="http://www.w3.org/2000/svg">
<path fill-rule="evenodd" clip-rule="evenodd" d="M35 13.0361C36.1046 13.0361 37 13.9316 37 15.0361V28.0511C37 32.0653 36.4127 36.991 32.2489 41.7213C26.4623 47.6327 19.4332 50.0003 19.0064 50.0042C18.5796 50.008 11.0964 47.366 5.78422 41.7213C1.71772 37.4003 1 32.056 1 28.0511L1 15.0361C1 13.9316 1.89543 13.0361 3 13.0361H35Z" stroke="#79B8FF" stroke-width="2" stroke-linecap="round" stroke-linejoin="round"/>
<path d="M7 13C7 6.38355 12.384 1 19 1C25.616 1 31 6.38355 31 13" stroke="#79B8FF" stroke-width="2" stroke-linecap="round" stroke-linejoin="round"/>
<path d="M12 13C12 9.25602 15.141 6 19 6C22.8599 6 26 9.25602 26 13" stroke="#79B8FF" stroke-width="2" stroke-linecap="round" stroke-linejoin="round"/>
<path d="M29.9991 43.3403C30.391 43.7295 31.0241 43.7274 31.4133 43.3356C31.8025 42.9438 31.8004 42.3106 31.4086 41.9214L29.9991 43.3403ZM27.7368 38.2741C27.345 37.8849 26.7118 37.887 26.3226 38.2789C25.9334 38.6707 25.9355 39.3039 26.3274 39.6931L27.7368 38.2741ZM8.33808 21.8239C8.72991 22.2131 9.36307 22.2109 9.75229 21.8191C10.1415 21.4273 10.1394 20.7941 9.74755 20.4049L8.33808 21.8239ZM2.6188 13.3237C2.22697 12.9345 1.59381 12.9366 1.20459 13.3285C0.815378 13.7203 0.817497 14.3535 1.20933 14.7427L2.6188 13.3237ZM31.4086 41.9214L27.7368 38.2741L26.3274 39.6931L29.9991 43.3403L31.4086 41.9214ZM9.74755 20.4049L2.6188 13.3237L1.20933 14.7427L8.33808 21.8239L9.74755 20.4049Z" fill="#79B8FF"/>
<path fill-rule="evenodd" clip-rule="evenodd" d="M19 21C23.4183 21 27 24.5817 27 29C27 33.4183 23.4183 37 19 37C14.5817 37 11 33.4183 11 29C11 24.5817 14.5817 21 19 21Z" stroke="#2088FF" stroke-width="2" stroke-linecap="round" stroke-linejoin="round"/>
<path d="M21.9665 27.0049L17.967 30.9991L15.9648 29.004" stroke="#2088FF" stroke-width="2" stroke-linecap="round" stroke-linejoin="round"/>
</svg>
