<svg fill="none" height="56" viewBox="0 0 56 56" width="56" xmlns="http://www.w3.org/2000/svg"><g fill="#79b8ff"><path d="m19.6864 5.41587c2.6022-.91729 5.4008-1.41587 8.3136-1.41587 9.4729 0 17.7136 5.269 21.954 13.0314.2648.4847.0865 1.0922-.3982 1.357-.4846.2648-1.0922.0865-1.357-.3982-3.9038-7.1463-11.4864-11.9902-20.1988-11.9902-2.6832 0-5.2571.45906-7.6487 1.30211-.5209.18361-1.092-.08979-1.2756-.61066s.0898-1.09197.6107-1.27558z"/><path d="m9.80559 13.3163c.43271.3432.50541.9722.16222 1.4049-3.1107 3.9229-4.96781 8.8826-4.96781 14.2788 0 3.4324.75121 6.6866 2.09724 9.6095.23102.5016.01163 1.0956-.49002 1.3266s-1.09559.0116-1.3266-.4901c-1.4644-3.1799-2.28062-6.719-2.28062-10.446 0-5.8634 2.01974-11.2578 5.40071-15.5215.34315-.4327.97213-.5053 1.40488-.1622z"/><path d="m53 29c0 3.7359-.8201 7.283-2.2911 10.4687-.2315.5015-.8257.7202-1.3271.4887s-.7202-.8257-.4887-1.3271c1.3521-2.9282 2.1069-6.1898 2.1069-9.6303 0-.5523.4477-1 1-1s1 .4477 1 1z"/><path clip-rule="evenodd" d="m4 46c0-2.2082 1.79025-4 4-4 1.86424 0 3.4299 1.2753 3.8739 3h13.1261c.5523 0 1 .4477 1 1s-.4477 1-1 1h-13.126c-.4439 1.7254-2.0098 3-3.874 3-2.20951 0-4-1.7905-4-4zm4-2c1.1047 0 2 .8959 2 2 0 1.1049-.89506 2-2 2s-2-.8951-2-2c0-1.1041.8953-2 2-2z" fill-rule="evenodd"/><path clip-rule="evenodd" d="m44.126 47h-6.126c-.5523 0-1-.4477-1-1s.4477-1 1-1h6.1261c.4442-1.7248 2.0105-3 3.8739-3 2.2087 0 4 1.7916 4 4 0 2.2097-1.7915 4-4 4-1.8633 0-3.4299-1.2745-3.874-3zm1.874-1c0 1.1048.8957 2 2 2s2-.8952 2-2c0-1.1039-.896-2-2-2s-2 .8961-2 2z" fill-rule="evenodd"/><path d="m16.7061 6.29387c.3905.39052.3905 1.02369 0 1.41421l-1.2919 1.2919 1.2929 1.29292c.3906.3905.3906 1.0237 0 1.4142-.3905.3906-1.0237.3906-1.4142 0l-1.2929-1.2929-1.2929 1.2929c-.3905.3905-1.0237.3905-1.4142 0s-.3905-1.0237 0-1.4142l1.2929-1.29292-1.2949-1.29483c-.3905-.39052-.3905-1.02369 0-1.41421.3906-.39052 1.0237-.39052 1.4143 0l1.2948 1.29483 1.2919-1.2919c.3905-.39052 1.0237-.39052 1.4142 0z"/><path d="m52.7071 20.2929c.3905.3905.3905 1.0237 0 1.4142l-1.2929 1.2929 1.2929 1.2929c.3905.3905.3905 1.0237 0 1.4142s-1.0237.3905-1.4142 0l-1.2929-1.2929-1.2929 1.2929c-.3905.3905-1.0237.3905-1.4142 0s-.3905-1.0237 0-1.4142l1.2929-1.2929-1.2929-1.2929c-.3905-.3905-.3905-1.0237 0-1.4142s1.0237-.3905 1.4142 0l1.2929 1.2929 1.2929-1.2929c.3905-.3905 1.0237-.3905 1.4142 0z"/></g><path clip-rule="evenodd" d="m14 14c.3398 0 .6563.1725.8404.4581l2 3.1016c.1042.1615.1596.3497.1596.5419v20.352c0 .7687-.592 1.5464-1.5005 1.5464h-2.999c-.9085 0-1.5005-.7777-1.5005-1.5464v-20.352c0-.1922.0554-.3804.1596-.5419l2-3.1016c.1841-.2856.5006-.4581.8404-.4581zm1 21v-16.6039l-1-1.5508-1 1.5508v16.6039zm-2 2h2v1h-2z" fill="#2188ff" fill-rule="evenodd"/><path clip-rule="evenodd" d="m25.3631 17.3882c.5919-.2052 1.4532-.3882 2.6369-.3882 1.1838 0 2.0451.183 2.637.3882.2952.1024.5204.2092.6826.2992.0811.0449.1461.0854.196.1188.0249.0167.0461.0316.0635.0443l.0154.0113.0081.0061.0096.0074.0044.0034.002.0016.001.0008c.0003.0003.0008.0006-.175.2231l.176-.2223c.1739.1376.2949.3272.3484.5372 1.8204 1.2084 3.031 3.2502 3.031 5.5809.5523 0 1 .4477 1 1s-.4477 1-1 1h-1.083c-.3406 2.0302-1.7009 3.7148-3.5364 4.5091.8415.3279 1.6117.8031 2.2809 1.3933.4142.3653.4538.9972.0885 1.4114s-.9973.4538-1.4115.0885c-.9952-.8778-2.2757-1.4023-3.6721-1.4023-2.5349 0-4.7627 1.7775-5.4846 4.3259-.1505.5313-.7033.8401-1.2347.6896-.5314-.1506-.8401-.7034-.6896-1.2347.7254-2.5607 2.6388-4.5974 5.0749-5.4049-1.6894-.84-2.9268-2.4529-3.2494-4.3759h-1.083c-.5523 0-1-.4477-1-1s.4477-1 1-1c0-2.3307 1.2106-4.3725 3.031-5.5809.0535-.2103.1748-.3998.3485-.5373l.1762.2223c-.1758-.2226-.1755-.2228-.1752-.2231l.001-.0008.002-.0016.0044-.0033.0096-.0074c.0069-.0053.0147-.0111.0235-.0175.0174-.0127.0386-.0276.0635-.0443.0499-.0333.1149-.0738.196-.1188.1622-.0899.3874-.1968.6826-.2991zm5.6137 2.7749c1.2344.8689 2.0232 2.2699 2.0232 3.8369h-2.8956v-.5729c0-1.5329.4175-2.5405.7958-3.146.0257-.041.0512-.0804.0766-.118zm-2.8724 3.264v.5729h-.2618v-.5729c0-1.8601-.517-3.2255-1.062-4.1411-.0361-.0607-.0723-.1194-.1085-.176.3459-.0634.7848-.11 1.3279-.11.5188 0 .9425.0425 1.2808.1016-.0255.0389-.0511.0788-.0767.1197-.5695.9114-1.0997 2.2844-1.0997 4.2058zm-2.2618 0v.5729h-2.8426c0-1.552.7737-2.941 1.9877-3.8117.0246.0386.0494.0789.0743.1207.3764.6322.7806 1.6473.7806 3.1181zm6.0314 2.5729h-7.748c.4441 1.7252 2.0102 3 3.8736 3 1.8642 0 3.4303-1.2749 3.8744-3z" fill="#2188ff" fill-rule="evenodd"/><path clip-rule="evenodd" d="m37.2473 30.4068c1.3392-1.4853 3.3802-1.9555 5.1607-1.3736.3217.1051.5684.3658.6556.6928s.0031.676-.2236.9273l-1.6204 1.7972.15.7229.6964.0542 1.6303-1.8081c.2263-.2511.5643-.3708.8982-.3182.334.0526.6187.2704.757.5789.7659 1.7091.5118 3.786-.8281 5.2713-1.2515 1.388-3.1134 1.8886-4.806 1.4737l-5.9427 7.4731c-.0056.0069-.0112.0138-.0169.0206-.7196.857-1.5514 1.322-2.4166 1.3856-.8505.0626-1.5817-.2747-2.0841-.7258-.46-.4136-.8683-1.0982-.9209-1.9333-.0551-.8747.2858-1.7937 1.1192-2.624l.0059-.0059 6.8197-6.6814c-.5889-1.638-.284-3.5398.9663-4.9273zm1.4853 1.3393c-.8457.9388-.9611 2.2803-.3796 3.3307.2178.3935.1462.8839-.175 1.1987l-7.3138 7.1655c-.4834.4828-.5458.8584-.532 1.0786.0164.2599.1499.4707.2612.571.1675.1504.3803.2356.601.2193.2048-.015.5683-.129 1.0237-.6675l6.3664-8.0059c.2794-.3513.7586-.4734 1.1721-.2986 1.1094.4691 2.4348.2133 3.2815-.7257.3182-.3528.5335-.763.6467-1.1934l-.4631.5137c-.2078.2305-.5109.3514-.8203.3273l-1.936-.1508c-.4437-.0345-.8111-.3581-.9015-.7938l-.4056-1.9547c-.0647-.312.0231-.6361.2365-.8728l.4589-.5089c-.4168.1578-.8028.4144-1.1211.7673z" fill="#2188ff" fill-rule="evenodd"/><path d="m12 51c0-.5523.4477-1 1-1h28c.5523 0 1 .4477 1 1s-.4477 1-1 1h-28c-.5523 0-1-.4477-1-1z" fill="#2188ff"/></svg>