<svg width="40" height="40" viewBox="0 0 40 40" fill="none" xmlns="http://www.w3.org/2000/svg">
<path d="M14.0619 3.86827C15.9206 3.21306 17.9196 2.85693 20.0002 2.85693C26.7665 2.85693 32.6528 6.62051 35.6817 12.1651C35.8708 12.5113 35.7434 12.9452 35.3972 13.1344C35.051 13.3235 34.6171 13.1961 34.428 12.8499C31.6395 7.74542 26.2234 4.28551 20.0002 4.28551C18.0836 4.28551 16.2451 4.61341 14.5369 5.21558C14.1648 5.34673 13.7569 5.15145 13.6257 4.7794C13.4946 4.40735 13.6899 3.99942 14.0619 3.86827Z" fill="#9DF4D3"/>
<path d="M7.0042 9.51145C7.3133 9.75656 7.36518 10.2058 7.12007 10.5149C4.89814 13.317 3.57164 16.8596 3.57164 20.7141C3.57164 23.1658 4.10822 25.4902 5.06967 27.578C5.23468 27.9363 5.07797 28.3605 4.71965 28.5256C4.36133 28.6906 3.93709 28.5339 3.77208 28.1755C2.72608 25.9042 2.14307 23.3762 2.14307 20.7141C2.14307 16.526 3.58574 12.6728 6.00071 9.62732C6.24582 9.31822 6.6951 9.26634 7.0042 9.51145Z" fill="#9DF4D3"/>
<path d="M37.8574 20.7141C37.8574 23.3826 37.2716 25.9162 36.2209 28.1917C36.0555 28.5499 35.6311 28.7062 35.2729 28.5408C34.9148 28.3754 34.7585 27.951 34.9239 27.5929C35.8896 25.5013 36.4288 23.1716 36.4288 20.7141C36.4288 20.3196 36.7486 19.9998 37.1431 19.9998C37.5376 19.9998 37.8574 20.3196 37.8574 20.7141Z" fill="#9DF4D3"/>
<path fill-rule="evenodd" clip-rule="evenodd" d="M2.85735 32.8569C2.85735 31.2797 4.1361 29.9998 5.7145 29.9998C7.04609 29.9998 8.16443 30.9107 8.48159 32.1426H17.8574C18.2518 32.1426 18.5716 32.4624 18.5716 32.8569C18.5716 33.2514 18.2518 33.5712 17.8574 33.5712H8.48167C8.16458 34.8037 7.04607 35.7141 5.7145 35.7141C4.13627 35.7141 2.85735 34.4352 2.85735 32.8569ZM5.7145 31.4284C6.50357 31.4284 7.14307 32.0683 7.14307 32.8569C7.14307 33.6462 6.50374 34.2855 5.7145 34.2855C4.92525 34.2855 4.28592 33.6462 4.28592 32.8569C4.28592 32.0683 4.92542 31.4284 5.7145 31.4284Z" fill="#9DF4D3"/>
<path fill-rule="evenodd" clip-rule="evenodd" d="M31.5188 33.5712H27.1431C26.7486 33.5712 26.4288 33.2514 26.4288 32.8569C26.4288 32.4624 26.7486 32.1426 27.1431 32.1426H31.5189C31.8362 30.9107 32.9549 29.9998 34.2859 29.9998C35.8636 29.9998 37.1431 31.2795 37.1431 32.8569C37.1431 34.4353 35.8634 35.7141 34.2859 35.7141C32.955 35.7141 31.836 34.8037 31.5188 33.5712ZM32.8574 32.8569C32.8574 33.646 33.4972 34.2855 34.2859 34.2855C35.0747 34.2855 35.7145 33.646 35.7145 32.8569C35.7145 32.0684 35.0745 31.4284 34.2859 31.4284C33.4973 31.4284 32.8574 32.0684 32.8574 32.8569Z" fill="#9DF4D3"/>
<path d="M11.9331 4.49541C12.2121 4.77436 12.2121 5.22662 11.9331 5.50556L11.0104 6.42835L11.9339 7.35188C12.2128 7.63083 12.2128 8.08309 11.9339 8.36203C11.6549 8.64098 11.2027 8.64098 10.9237 8.36203L10.0002 7.4385L9.07671 8.36199C8.79777 8.64093 8.34551 8.64093 8.06656 8.36199C7.78762 8.08304 7.78762 7.63078 8.06656 7.35184L8.99005 6.42835L8.06517 5.50347C7.78622 5.22453 7.78622 4.77227 8.06517 4.49332C8.34411 4.21437 8.79637 4.21437 9.07532 4.49332L10.0002 5.4182L10.923 4.49541C11.2019 4.21647 11.6542 4.21647 11.9331 4.49541Z" fill="#9DF4D3"/>
<path d="M37.6481 14.4947C37.9271 14.7737 37.9271 15.2259 37.6481 15.5049L36.7247 16.4284L37.6481 17.3519C37.9271 17.6308 37.9271 18.0831 37.6481 18.362C37.3692 18.641 36.9169 18.641 36.638 18.362L35.7145 17.4385L34.791 18.362C34.5121 18.641 34.0598 18.641 33.7808 18.362C33.5019 18.0831 33.5019 17.6308 33.7808 17.3519L34.7043 16.4284L33.7808 15.5049C33.5019 15.2259 33.5019 14.7737 33.7808 14.4947C34.0598 14.2158 34.5121 14.2158 34.791 14.4947L35.7145 15.4182L36.638 14.4947C36.9169 14.2158 37.3692 14.2158 37.6481 14.4947Z" fill="#9DF4D3"/>
<path fill-rule="evenodd" clip-rule="evenodd" d="M9.99979 10C10.2425 10 10.4686 10.1232 10.6001 10.3272L12.0287 12.5426C12.1031 12.658 12.1426 12.7924 12.1426 12.9297V27.4669C12.1426 28.0159 11.7198 28.5714 11.0709 28.5714H8.92869C8.27977 28.5714 7.85693 28.0159 7.85693 27.4669V12.9297C7.85693 12.7924 7.89651 12.658 7.97092 12.5426L9.39949 10.3272C9.53101 10.1232 9.7571 10 9.99979 10ZM10.7141 25V13.14L9.99979 12.0323L9.28551 13.14V25H10.7141ZM9.28551 26.4286H10.7141V27.1429H9.28551V26.4286Z" fill="#64ACFF"/>
<path fill-rule="evenodd" clip-rule="evenodd" d="M18.1163 12.4201C18.5391 12.2735 19.1543 12.1429 19.9998 12.1429C20.8454 12.1429 21.4606 12.2735 21.8834 12.4201C22.0942 12.4933 22.2551 12.5696 22.371 12.6338C22.4288 12.6659 22.4753 12.6949 22.5109 12.7187C22.5287 12.7306 22.5438 12.7413 22.5563 12.7503L22.5673 12.7585L22.573 12.7628L22.58 12.7681L22.583 12.7705L22.5845 12.7717L22.5852 12.7722C22.5854 12.7724 22.5858 12.7726 22.4602 12.9316L22.5859 12.7728C22.7101 12.8711 22.7966 13.0065 22.8348 13.1565C24.1351 14.0197 24.9998 15.4781 24.9998 17.1429C25.3943 17.1429 25.7141 17.4627 25.7141 17.8571C25.7141 18.2516 25.3943 18.5714 24.9998 18.5714H24.2262C23.9829 20.0216 23.0113 21.2249 21.7002 21.7922C22.3013 22.0264 22.8515 22.3659 23.3294 22.7874C23.6253 23.0483 23.6536 23.4997 23.3926 23.7956C23.1317 24.0914 22.6803 24.1197 22.3845 23.8588C21.6735 23.2318 20.7589 22.8571 19.7615 22.8571C17.9508 22.8571 16.3596 24.1268 15.8439 25.9471C15.7364 26.3266 15.3416 26.5471 14.962 26.4396C14.5825 26.3321 14.3619 25.9372 14.4695 25.5577C14.9876 23.7287 16.3543 22.2739 18.0944 21.6971C16.8877 21.0971 16.0038 19.945 15.7733 18.5714H14.9998C14.6053 18.5714 14.2855 18.2516 14.2855 17.8571C14.2855 17.4627 14.6053 17.1429 14.9998 17.1429C14.9998 15.4781 15.8645 14.0197 17.1648 13.1565C17.203 13.0063 17.2896 12.8709 17.4138 12.7727L17.5396 12.9315C17.414 12.7725 17.4142 12.7723 17.4144 12.7722L17.4151 12.7716L17.4166 12.7705L17.4197 12.7681L17.4266 12.7628C17.4315 12.759 17.4371 12.7548 17.4433 12.7503C17.4558 12.7412 17.4709 12.7306 17.4887 12.7187C17.5244 12.6948 17.5708 12.6659 17.6287 12.6338C17.7446 12.5696 17.9055 12.4932 18.1163 12.4201ZM22.1261 14.4022C23.0078 15.0229 23.5712 16.0235 23.5712 17.1429H21.5029V16.7336C21.5029 15.6387 21.8011 14.919 22.0714 14.4865C22.0897 14.4572 22.108 14.4291 22.1261 14.4022ZM20.0743 16.7336V17.1429H19.8874V16.7336C19.8874 15.405 19.5181 14.4297 19.1288 13.7757C19.103 13.7323 19.0771 13.6904 19.0513 13.65C19.2984 13.6047 19.6118 13.5714 19.9998 13.5714C20.3704 13.5714 20.673 13.6018 20.9147 13.644C20.8964 13.6718 20.8781 13.7003 20.8599 13.7295C20.4531 14.3805 20.0743 15.3612 20.0743 16.7336ZM18.4588 16.7336V17.1429L16.4284 17.1429C16.4284 16.0343 16.981 15.0422 17.8481 14.4202C17.8657 14.4478 17.8835 14.4765 17.9012 14.5064C18.1701 14.958 18.4588 15.6831 18.4588 16.7336ZM22.7669 18.5714H17.2327C17.5498 19.8037 18.6685 20.7143 19.9995 20.7143C21.3311 20.7143 22.4497 19.8037 22.7669 18.5714Z" fill="#64ACFF"/>
<path fill-rule="evenodd" clip-rule="evenodd" d="M26.605 21.7191C27.5615 20.6582 29.0194 20.3224 30.2912 20.738C30.521 20.8131 30.6972 20.9993 30.7595 21.2329C30.8218 21.4665 30.7617 21.7157 30.5998 21.8952L29.4424 23.179L29.5495 23.6953L30.0469 23.734L31.2114 22.4425C31.3731 22.2632 31.6145 22.1777 31.853 22.2152C32.0916 22.2528 32.295 22.4084 32.3937 22.6287C32.9408 23.8495 32.7593 25.333 31.8022 26.3939C30.9083 27.3853 29.5784 27.743 28.3693 27.4466L24.1245 32.7845C24.1206 32.7894 24.1166 32.7943 24.1125 32.7992C23.5985 33.4113 23.0044 33.7435 22.3864 33.789C21.7789 33.8337 21.2566 33.5927 20.8977 33.2705C20.5692 32.9751 20.2775 32.4861 20.2399 31.8896C20.2006 31.2648 20.4441 30.6084 21.0394 30.0153L21.0436 30.011L25.9148 25.2386C25.4941 24.0686 25.7119 22.7102 26.605 21.7191ZM27.666 22.6758C27.0619 23.3463 26.9794 24.3046 27.3948 25.0549C27.5504 25.3359 27.4992 25.6862 27.2698 25.911L22.0457 31.0293C21.7004 31.3742 21.6558 31.6424 21.6657 31.7997C21.6774 31.9854 21.7728 32.1359 21.8523 32.2076C21.9718 32.315 22.1238 32.3758 22.2815 32.3642C22.4278 32.3535 22.6875 32.2721 23.0127 31.8874L27.5601 26.1689C27.7597 25.918 28.102 25.8308 28.3974 25.9556C29.1898 26.2907 30.1365 26.108 30.7413 25.4373C30.9686 25.1853 31.1223 24.8923 31.2032 24.5849L30.8725 24.9518C30.724 25.1164 30.5075 25.2028 30.2865 25.1856L28.9036 25.0779C28.5867 25.0532 28.3243 24.8221 28.2597 24.5108L27.97 23.1147C27.9238 22.8918 27.9865 22.6603 28.1389 22.4912L28.4667 22.1277C28.169 22.2404 27.8933 22.4237 27.666 22.6758Z" fill="#64ACFF"/>
<path d="M8.57122 36.4286C8.57122 36.0341 8.89102 35.7143 9.28551 35.7143H29.2855C29.68 35.7143 29.9998 36.0341 29.9998 36.4286C29.9998 36.8231 29.68 37.1429 29.2855 37.1429H9.28551C8.89102 37.1429 8.57122 36.8231 8.57122 36.4286Z" fill="#64ACFF"/>
</svg>
