<svg fill="none" height="38" viewBox="0 0 133 38" width="133" xmlns="http://www.w3.org/2000/svg" xmlns:xlink="http://www.w3.org/1999/xlink"><clipPath id="a"><path d="m.5 0h132v38h-132z"/></clipPath><g clip-path="url(#a)" fill="#8b949e"><path d="m28.6533 6.89265c-.1338-.0114-2.7563-.05183-2.7563-.05183s-2.1931-2.16105-2.4098-2.38088c-.0807-.08193-.1901-.12445-.3046-.14207l.0011 33.05743 9.8284-2.4783s-4.0102-27.51072-4.0358-27.69948c-.0256-.18875-.1891-.29347-.323-.30487z"/><path clip-rule="evenodd" d="m28.6536 6.89575c.1348.0114.2974.11611.3229.30487.0255.18875 4.0358 27.70048 4.0358 27.70048l-9.8294 2.4794-22.678994-3.9799s2.706224-21.2329 2.806384-21.9805c.1349-.9894.1676-1.0215 1.20186-1.3512.02201-.0073.72035-.22669 1.83181-.57592.4883-.15344 1.05634-.33192 1.6818-.52848.21869-1.58964.99031-3.64286 2.00414-5.27712 1.441-2.3228 3.2182-3.6304155 5.0026-3.68226379.9249-.02799801 1.6965.29035079 2.2985.94363579.0429.047706.0838.096438.1247.146208.0102-.00088.0204-.00178.0307-.00267.0856-.0075.1706-.01495.2564-.01495h.0051c1.3818.00207 2.5254.80157 3.3061 2.31347.2422.4687.4119.93534.5274 1.31487.1765-.05544.3346-.1051.4723-.14835.4005-.12581.6279-.19722.6294-.198.1645-.04977.5877-.11613.8043.1037.2166.21984 2.4099 2.38089 2.4099 2.38089s2.6224.04043 2.7563.05183zm-9.3364-1.47891c.4036-.12679.782-.24565 1.1288-.35444-.2811-.92705-.9474-2.48146-2.3016-2.74174.4211 1.1023.5284 2.37776.5417 3.29444.2163-.06793.4269-.13411.6311-.19826zm-5.6041 1.76098 3.7865-1.18941c.0122-1.00068-.0951-2.48043-.5887-3.52569-.5253.21984-.9688.60456-1.2856.94986-.8524.92809-1.5463 2.34355-1.9122 3.76524zm2.4283-5.68258c-.3015-.20117-.6541-.2945-1.0732-.28517-2.7542.08088-5.15687 4.44547-5.77113 7.35419.56378-.17667 1.15573-.36274 1.76403-.55398.4415-.13878.8916-.28028 1.3459-.42287.3464-1.84787 1.2151-3.76315 2.3485-4.99714.4374-.47596.9035-.84098 1.3859-1.09503zm.4543 14.86246 1.1416-4.3334s-.9842-.4977-2.9076-.3723c-4.99236.3194-7.25509 3.8617-7.03738 7.3573.14524 2.3336 1.50024 3.3091 2.68788 4.1642.9265.667 1.7511 1.2607 1.8201 2.3686.0378.6108-.3362 1.4746-1.3828 1.542-1.60245.1027-3.60449-1.43-3.60449-1.43l-.76549 3.3038s1.98879 2.1621 5.60158 1.9308c3.0097-.1928 5.0987-2.6359 4.8769-6.2072-.1706-2.7458-2.0763-3.9857-3.5825-4.9656-.9841-.6403-1.7976-1.1695-1.8453-1.9354-.0225-.3557.001-1.7722 2.2147-1.9143 1.5094-.0964 2.7828.4915 2.7828.4915z" fill-rule="evenodd"/><path d="m45.9516 21.0995c-1.1302-.6222-1.7111-1.1467-1.7111-1.8678 0-.9174.8069-1.5067 2.0669-1.5067 1.4667 0 2.7763.6222 2.7763.6222l1.0329-3.211s-.9497-.7539-3.7454-.7539c-3.8904 0-6.5867 2.2607-6.5867 5.4388 0 1.8019 1.259 3.1781 2.9385 4.1603 1.3563.7858 1.8409 1.3432 1.8409 2.1619 0 .8517-.6781 1.5397-1.9371 1.5397-1.8763 0-3.6482-.9833-3.6482-.9833l-1.0977 3.211s1.637 1.1139 4.3911 1.1139c4.0039 0 6.8777-1.9984 6.8777-5.6023-.0011-1.9315-1.4536-3.3077-3.1981-4.3228z"/><path d="m61.9035 14.3499c-1.9697 0-3.5195.9504-4.7136 2.3914l-.0649-.033 1.711-9.07451h-4.456l-4.3263 23.09621h4.456l1.4851-7.8948c.5808-2.9817 2.0982-4.8155 3.5194-4.8155 1.0004 0 1.3887.688 1.3887 1.6713 0 .6223-.0649 1.3762-.1937 1.9984l-1.6786 9.0417h4.4563l1.743-9.3369c.194-.9833.3236-2.1619.3236-2.9487-.0019-2.5559-1.3256-4.0956-3.65-4.0956z"/><path d="m75.6248 14.3501c-5.3604 0-8.9109 4.9143-8.9109 10.3849 0 3.5052 2.1304 6.3223 6.1346 6.3223 5.2628 0 8.8145-4.7826 8.8145-10.3849 0-3.2429-1.8732-6.3223-6.0382-6.3223zm-2.1955 13.2359c-1.5177 0-2.1636-1.3103-2.1636-2.9487 0-2.5878 1.3243-6.8139 3.7457-6.8139 1.5822 0 2.0979 1.3761 2.0979 2.7194 0 2.7841-1.3224 7.0432-3.68 7.0432z"/><path d="m93.0564 14.3501c-3.0078 0-4.7146 2.6865-4.7146 2.6865h-.0638l.2585-2.4242h-3.9392c-.1934 1.6384-.5495 4.1274-.9037 5.9952l-3.0998 16.5436h4.456l1.2261-6.6833h.0976s.9142.5894 2.6154.5894c5.2303 0 8.6525-5.4378 8.6525-10.9424 0-3.0454-1.3243-5.7648-4.585-5.7648zm-4.2621 13.3007c-1.1567 0-1.8412-.6552-1.8412-.6552l.7429-4.2261c.5169-2.8171 1.9695-4.6849 3.5198-4.6849 1.3562 0 1.7755 1.2774 1.7755 2.4901 0 2.9158-1.7111 7.0761-4.197 7.0761z"/><path d="m104.003 7.86182c-1.421 0-2.551 1.14679-2.551 2.62058 0 1.3433.839 2.2607 2.099 2.2607h.064c1.389 0 2.583-.9503 2.616-2.6206 0-1.31037-.872-2.26068-2.228-2.26068z"/><path d="m97.7822 30.728h4.4548l3.036-16.019h-4.489z"/><path d="m116.601 14.6765h-3.1l.161-.7539c.259-1.5397 1.163-2.9159 2.648-2.9159.793 0 1.42.2294 1.42.2294l.872-3.53803s-.775-.39289-2.422-.39289c-1.582 0-3.163.45867-4.359 1.50673-1.517 1.31039-2.228 3.20999-2.582 5.11069l-.129.7539h-2.067l-.646 3.4075h2.067l-2.357 12.6455h4.456l2.357-12.6455h3.068z"/><path d="m127.314 14.71s-2.786 7.1204-4.036 11.0071h-.065c-.085-1.2516-1.098-11.0071-1.098-11.0071h-4.682l2.681 14.7087c.065.3271.033.5246-.097.7539-.518 1.0152-1.389 1.9984-2.422 2.7194-.839.6222-1.776 1.0151-2.518 1.2774l1.227 3.8333c.904-.1964 2.776-.9503 4.358-2.4571 2.035-1.9326 3.907-4.9142 5.844-8.9769l5.457-11.8597h-4.649z"/></g></svg>