<svg width="141" height="41" viewBox="0 0 141 41" fill="none" xmlns="http://www.w3.org/2000/svg">
<path d="M48.4569 22.845C47.262 22.1846 46.6331 21.6501 46.6331 20.8954C46.6331 19.9206 47.4821 19.3231 48.8342 19.3231C50.4065 19.3231 51.7901 19.9835 51.7901 19.9835L52.8906 16.6189C52.8906 16.6189 51.8844 15.8328 48.8971 15.8328C44.7464 15.8328 41.8535 18.2226 41.8535 21.5557C41.8535 23.4424 43.2056 24.8889 44.998 25.9266C46.4444 26.7441 46.9476 27.3416 46.9476 28.1906C46.9476 29.1025 46.2243 29.8257 44.8722 29.8257C42.8597 29.8257 40.973 28.788 40.973 28.788L39.8096 32.1526C39.8096 32.1526 41.5705 33.3161 44.4949 33.3161C48.7714 33.3161 51.8215 31.2093 51.8215 27.4359C51.8844 25.3606 50.3122 23.9141 48.4569 22.845Z" fill="#8B949E"/>
<path d="M65.5004 15.7699C63.3936 15.7699 61.7585 16.7762 60.4692 18.2855L60.4063 18.2541L62.2301 8.69482H57.4505L52.8281 33.0017H57.5763L59.1485 24.7003C59.7774 21.5558 61.3811 19.6376 62.8905 19.6376C63.9596 19.6376 64.3684 20.3609 64.3684 21.3985C64.3684 22.0589 64.3055 22.845 64.1483 23.5054L62.3559 33.0331H67.1041L68.9593 23.2223C69.1795 22.1847 69.3052 20.9583 69.3052 20.1093C69.3681 17.3736 67.9845 15.7699 65.5004 15.7699Z" fill="#8B949E"/>
<path d="M80.1215 15.7699C74.3986 15.7699 70.5938 20.9269 70.5938 26.6813C70.5938 30.3603 72.8578 33.3476 77.1343 33.3476C82.7629 33.3476 86.5363 28.3164 86.5363 22.4362C86.5677 19.0087 84.5867 15.7699 80.1215 15.7699ZM77.7946 29.6685C76.1595 29.6685 75.4991 28.2849 75.4991 26.5555C75.4991 23.8198 76.9142 19.3861 79.4926 19.3861C81.1907 19.3861 81.7252 20.8325 81.7252 22.2475C81.7252 25.2034 80.3102 29.6685 77.7946 29.6685Z" fill="#8B949E"/>
<path d="M98.7377 15.7699C95.5303 15.7699 93.7065 18.5999 93.7065 18.5999H93.6436L93.9266 16.0529H89.713C89.4929 17.7824 89.1156 20.3923 88.7382 22.3733L85.4365 39.7309H90.1847L91.5054 32.6872H91.5997C91.5997 32.6872 92.5745 33.3161 94.3983 33.3161C99.9955 33.3161 103.643 27.5932 103.643 21.8073C103.643 18.6314 102.228 15.7699 98.7377 15.7699ZM94.2096 29.7629C92.9833 29.7629 92.2601 29.0711 92.2601 29.0711L93.0462 24.6373C93.6122 21.6815 95.153 19.7005 96.7881 19.7005C98.2346 19.7005 98.6748 21.0526 98.6748 22.3104C98.6748 25.3606 96.851 29.7629 94.2096 29.7629Z" fill="#8B949E"/>
<path d="M110.435 8.94641C108.926 8.94641 107.699 10.1413 107.699 11.7136C107.699 13.1286 108.58 14.1034 109.932 14.1034H109.995C111.473 14.1034 112.762 13.0971 112.793 11.3362C112.825 9.9212 111.881 8.94641 110.435 8.94641Z" fill="#8B949E"/>
<path d="M103.769 33.0017H108.548L111.787 16.1472H106.976L103.769 33.0017Z" fill="#8B949E"/>
<path d="M123.861 16.1158H120.56L120.717 15.3297C121 13.6946 121.943 12.2481 123.547 12.2481C124.396 12.2481 125.056 12.4996 125.056 12.4996L126 8.78915C126 8.78915 125.182 8.38037 123.421 8.38037C121.723 8.38037 120.057 8.85204 118.767 9.95261C117.132 11.3362 116.377 13.3172 116 15.3297L115.874 16.1158H113.673L112.981 19.7005H115.183L112.667 33.0017H117.415L119.931 19.7005H123.201L123.861 16.1158Z" fill="#8B949E"/>
<path d="M135.307 16.1472C135.307 16.1472 132.32 23.6311 130.999 27.7189H130.936C130.842 26.3982 129.773 16.1472 129.773 16.1472H124.773L127.635 31.6181C127.698 31.964 127.666 32.1841 127.54 32.4042C126.974 33.4733 126.062 34.511 124.962 35.2657C124.081 35.926 123.075 36.3348 122.289 36.6178L123.61 40.6428C124.585 40.4226 126.566 39.6365 128.264 38.0643C130.433 36.0204 132.446 32.9073 134.49 28.6308L140.307 16.1472H135.307Z" fill="#8B949E"/>
<path d="M23.4264 5.20447C23.4264 5.20447 22.9862 5.33025 22.263 5.55036C22.1372 5.14158 21.9485 4.66991 21.697 4.16679C20.8794 2.59454 19.653 1.74553 18.2066 1.74553C18.1122 1.74553 18.0179 1.74553 17.8921 1.77698C17.8607 1.71409 17.7978 1.68264 17.7663 1.61975C17.1374 0.927967 16.3199 0.613518 15.3451 0.644963C13.4584 0.707853 11.5717 2.05998 10.0624 4.48124C8.99323 6.17926 8.17566 8.31751 7.95555 9.98409C5.78585 10.6444 4.2765 11.1161 4.24506 11.1475C3.14449 11.4934 3.11304 11.5249 2.98726 12.5626C2.89293 13.3487 0 35.4859 0 35.4859L23.7723 39.6051V5.17302C23.5836 5.17302 23.4893 5.20447 23.4264 5.20447ZM17.9236 6.90249C16.6658 7.27983 15.2822 7.72006 13.9301 8.12884C14.3074 6.65093 15.0621 5.17302 15.9425 4.19823C16.2884 3.85234 16.7601 3.44356 17.2947 3.192C17.8292 4.32401 17.955 5.86481 17.9236 6.90249ZM15.3451 1.9342C15.7853 1.9342 16.1627 2.02854 16.4771 2.21721C15.974 2.46877 15.4709 2.87755 14.9992 3.34922C13.8043 4.63846 12.8924 6.65093 12.5151 8.56907C11.383 8.91496 10.251 9.26085 9.21334 9.5753C9.90513 6.5566 12.4522 1.99709 15.3451 1.9342ZM11.6975 19.2289C11.8233 21.2413 17.1374 21.6816 17.4519 26.4297C17.672 30.1717 15.4709 32.7187 12.2949 32.9074C8.45867 33.1589 6.35186 30.8949 6.35186 30.8949L7.16943 27.436C7.16943 27.436 9.27623 29.0397 10.9743 28.9139C12.0748 28.851 12.4836 27.9391 12.4522 27.3102C12.2949 24.6688 7.95555 24.8261 7.67255 20.4867C7.42099 16.8391 9.8108 13.16 15.0935 12.8141C17.1374 12.6883 18.1751 13.1915 18.1751 13.1915L16.9802 17.7195C16.9802 17.7195 15.6281 17.0906 14.0244 17.2164C11.6975 17.3736 11.666 18.8515 11.6975 19.2289ZM19.1814 6.52515C19.1814 5.58181 19.0556 4.22968 18.6154 3.09766C20.0618 3.38067 20.7536 4.98435 21.0681 5.95914C20.502 6.11637 19.8731 6.30504 19.1814 6.52515Z" fill="#8B949E"/>
<path d="M24.4951 39.5423L34.3688 37.0896C34.3688 37.0896 30.1237 8.38045 30.0923 8.19178C30.0609 8.00311 29.9036 7.87733 29.7464 7.87733C29.5892 7.87733 26.822 7.81445 26.822 7.81445C26.822 7.81445 25.124 6.17931 24.4951 5.55042V39.5423Z" fill="#8B949E"/>
</svg>
