<svg width="125" height="48" viewBox="0 0 125 48" fill="none" xmlns="http://www.w3.org/2000/svg">
<rect width="125" height="48" fill="white"/>
<path fill-rule="evenodd" clip-rule="evenodd" d="M11.6589 14.7261C9.82066 14.7261 8.33496 13.2229 8.33496 11.3631C8.33496 9.50319 9.82066 8 11.6589 8C13.4971 8 14.9828 9.50319 14.9828 11.3631V14.7261H11.6589ZM57.4375 8.48389H62.8263V35.159H57.4375V8.48389ZM39.9873 33.197L41.5485 29.5282C43.2357 30.8021 45.4768 31.4645 47.6928 31.4645C49.3296 31.4645 50.362 30.8276 50.362 29.8595C50.3523 28.8142 48.8828 28.4903 47.0806 28.093C44.2262 27.4638 40.5372 26.6506 40.4909 22.4964C40.4657 19.0569 43.4875 16.4072 47.7683 16.4072C50.3116 16.4072 52.8549 17.0442 54.668 18.4964L53.2075 22.2416C51.5455 21.1716 49.4807 20.4072 47.5165 20.4072C46.1819 20.4072 45.3006 21.0442 45.3006 21.8595C45.3104 22.8939 46.817 23.3031 48.6562 23.8027C51.5281 24.5829 55.211 25.5833 55.2724 29.5282C55.2724 33.0442 52.3261 35.5155 48.0957 35.5155C44.9984 35.5155 42.1529 34.7766 39.9873 33.197ZM99.8928 28.2039C99.1121 29.5797 97.6516 30.5224 95.9645 30.5224C93.4715 30.5224 91.457 28.4841 91.457 25.9619C91.457 23.4396 93.4715 21.4013 95.9645 21.4013C97.6516 21.4013 99.1121 22.344 99.8928 23.7198L104.199 21.2994C102.587 18.395 99.4899 16.4077 95.9645 16.4077C90.7519 16.4077 86.5215 20.688 86.5215 25.9619C86.5215 31.2357 90.7519 35.516 95.9645 35.516C99.515 35.516 102.587 33.5542 104.199 30.6243L99.8928 28.2039ZM106.314 8.48389V35.159H111.703V27.159L118.099 35.159H124.999L116.865 25.6559L124.395 16.7896H117.797L111.703 24.1527V8.48389H106.314ZM74.6368 30.5219C76.4499 30.5219 78.0615 29.5537 78.8421 28.2544V23.7448C78.0615 22.42 76.4499 21.4009 74.6368 21.4009C72.1439 21.4009 70.1294 23.4391 70.1294 25.9614C70.1294 28.4837 72.1439 30.5219 74.6368 30.5219ZM78.8421 18.955V16.7894H84.2309V35.1333H78.8421V32.9677C77.9608 34.4709 75.77 35.5155 73.4785 35.5155C68.7444 35.5155 65.0176 31.2352 65.0176 25.9359C65.0176 20.6365 68.7444 16.4072 73.4785 16.4072C75.77 16.4072 77.9608 17.4518 78.8421 18.955ZM6.67228 28.2293C6.67228 30.0891 5.18658 31.5923 3.34835 31.5923C1.51011 31.5923 0.0244141 30.0891 0.0244141 28.2293C0.0244141 26.3694 1.51011 24.8662 3.34835 24.8662H6.67228V28.2293ZM11.6589 24.8662C9.82066 24.8662 8.33496 26.3694 8.33496 28.2293V36.6369C8.33496 38.4968 9.82066 40 11.6589 40C13.4971 40 14.9828 38.4968 14.9828 36.6369V28.2293C14.9828 26.3694 13.4971 24.8662 11.6589 24.8662ZM14.9829 19.7967C14.9829 17.9368 13.4972 16.4336 11.6589 16.4336H3.32393C1.4857 16.4336 0 17.9368 0 19.7967C0 21.6565 1.4857 23.1597 3.32393 23.1597H11.6589C13.4972 23.1597 14.9829 21.6565 14.9829 19.7967ZM24.9805 19.7967C24.9805 17.9368 26.4662 16.4336 28.3044 16.4336C30.1426 16.4336 31.6283 17.9368 31.6283 19.7967C31.6283 21.6565 30.1426 23.1597 28.3044 23.1597H24.9805V19.7967ZM19.9939 23.1592C21.8321 23.1592 23.3178 21.656 23.3178 19.7962V11.3631C23.3178 9.50319 21.8321 8 19.9939 8C18.1556 8 16.6699 9.50319 16.6699 11.3631V19.7962C16.6699 21.656 18.1556 23.1592 19.9939 23.1592ZM19.9939 33.2739C21.8321 33.2739 23.3178 34.777 23.3178 36.6369C23.3178 38.4968 21.8321 40 19.9939 40C18.1556 40 16.6699 38.4968 16.6699 36.6369V33.2739H19.9939ZM16.6699 28.2293C16.6699 30.0891 18.1556 31.5923 19.9939 31.5923H28.3289C30.1671 31.5923 31.6528 30.0891 31.6528 28.2293C31.6528 26.3694 30.1671 24.8662 28.3289 24.8662H19.9939C18.1556 24.8662 16.6699 26.3694 16.6699 28.2293Z" fill="#24292F"/>
</svg>
