<svg fill="none" height="24" viewBox="0 0 28 24" width="28" xmlns="http://www.w3.org/2000/svg"><path clip-rule="evenodd" d="m7.5 12c0-1.7239.68482-3.37721 1.90381-4.59619 1.21899-1.21899 2.87229-1.90381 4.59619-1.90381s3.3772.68482 4.5962 1.90381c1.219 1.21898 1.9038 2.87229 1.9038 4.59619s-.6848 3.3772-1.9038 4.5962-2.8723 1.9038-4.5962 1.9038-3.3772-.6848-4.59619-1.9038-1.90381-2.8723-1.90381-4.5962zm6.5-8c-2.1217 0-4.15656.84285-5.65685 2.34315-1.5003 1.50029-2.34315 3.53512-2.34315 5.65685 0 2.1217.84285 4.1566 2.34315 5.6569 1.50029 1.5002 3.53515 2.3431 5.65685 2.3431s4.1566-.8429 5.6569-2.3431c1.5002-1.5003 2.3431-3.5352 2.3431-5.6569 0-2.12173-.8429-4.15656-2.3431-5.65685-1.5003-1.5003-3.5352-2.34315-5.6569-2.34315zm-3 8c.2652 0 .5196-.1054.7071-.2929s.2929-.4419.2929-.7071-.1054-.5196-.2929-.7071-.4419-.2929-.7071-.2929-.5196.1054-.7071.2929-.2929.4419-.2929.7071.1054.5196.2929.7071.4419.2929.7071.2929zm7-1c0 .2652-.1054.5196-.2929.7071s-.4419.2929-.7071.2929-.5196-.1054-.7071-.2929-.2929-.4419-.2929-.7071.1054-.5196.2929-.7071.4419-.2929.7071-.2929.5196.1054.7071.2929.2929.4419.2929.7071zm-6.68 2.636c.1613-.113.3606-.1579.5549-.1252.1942.0327.3677.1406.4831.3002l.007.009c.1028.118.2205.2221.35.31.264.178.683.37 1.285.37s1.02-.192 1.285-.371c.1295-.0879.2472-.192.35-.31l.007-.008c.1154-.1621.2904-.2716.4865-.3046.1962-.033.3975.0132.5595.1286s.2716.2904.3046.4865c.033.1962-.0132.3975-.1286.5595l-.614-.431c.614.43.614.431.613.431v.001l-.001.002-.002.003-.005.007-.014.019c-.0562.0753-.1177.1464-.184.213-.1607.1664-.3383.3155-.53.445-.6298.4184-1.3709.6376-2.127.629-.946 0-1.652-.308-2.126-.63-.2508-.1697-.4772-.3729-.673-.604-.0143-.0174-.0283-.0351-.042-.053l-.014-.02-.005-.006-.002-.003v-.002h-.001l.613-.432-.614.43c-.114-.1628-.1588-.3641-.1245-.5599.0343-.1957.1449-.3698.3075-.4841z" fill="#dadfe9" fill-rule="evenodd"/></svg>