<svg width="200" height="200" viewBox="0 0 200 200" fill="none" xmlns="http://www.w3.org/2000/svg">
<path d="M148.795 89.1885C148.846 76.1957 146.487 63.3137 141.846 51.2432C140.886 51.6509 140.195 52.0287 139.696 52.2375C138.674 52.7843 137.838 53.643 137.303 54.6977C136.767 55.7523 136.557 56.9519 136.701 58.1342C137.283 63.4162 137.581 68.7278 137.594 74.0442C137.594 98.3566 130.021 121.665 116.276 139.673C103.27 156.716 85.811 167.674 66.8447 170.807L66.9983 170.906C72.4792 174.13 78.6374 175.918 84.9373 176.114C91.2373 176.309 97.4879 174.908 103.146 172.03C129.925 158.466 148.795 126.438 148.795 89.1885Z" fill="#FD3456"/>
<path d="M154.017 48.7674C152.353 48.7154 150.689 48.8252 149.045 49.0956C153.863 61.8708 156.312 75.473 156.263 89.1887C156.263 130.952 133.803 168.013 101.005 181.526C102.666 181.636 104.326 181.695 106.016 181.695H106.256C114.068 181.661 121.774 179.825 128.815 176.319C135.856 172.814 142.055 167.728 146.962 161.43C159.526 145.321 167.224 123.644 167.224 99.8683C167.344 81.9133 162.781 64.2582 154.017 48.7674V48.7674Z" fill="#FD3456"/>
<path d="M185 99.857C185.014 89.0871 182.969 78.421 178.982 68.4746C177.249 64.0125 174.671 59.9552 171.399 56.5421C169.641 54.701 167.629 53.1395 165.429 51.9083C164.872 51.6001 164.316 51.3316 163.759 51.083C171 66.2269 174.742 82.9075 174.691 99.8073C174.691 123.971 167.09 147.249 153.575 165.108C163.334 157.497 171.252 147.64 176.706 136.317C182.159 124.993 184.999 112.512 185 99.857V99.857Z" fill="#FD3456"/>
<path d="M162.674 42.8594C155.329 34.9896 146.529 28.7328 136.8 24.4618C127.071 20.1908 116.611 17.9932 106.044 18C62.3815 18 26.6087 55.4581 27.0502 100.682C27.1481 111.407 29.2844 122.006 33.3371 131.876C32.0365 131.692 30.7225 131.632 29.4114 131.697C25.8696 131.866 20.8689 130.533 18.5941 129.877C16.3193 129.221 14.3132 131.11 15.2251 133.298V133.357C23.0669 151.972 40.459 164.083 57.0449 164.044C58.1509 164.044 59.2562 163.984 60.3563 163.865C99.2102 160.802 130.05 121.713 130.05 74.0926C130.05 71.1095 129.925 68.1264 129.685 65.1433C129.657 64.7851 129.524 64.4443 129.304 64.1662C129.084 63.8882 128.788 63.6861 128.454 63.5868C128.121 63.4875 127.766 63.4957 127.437 63.6103C127.108 63.7249 126.821 63.9405 126.613 64.2284V64.2284C115.873 78.9651 99.9397 104.869 80.0232 91.3649C72.3446 86.1842 68.2653 75.0373 70.5689 63.6915C74.7634 43.3764 97.6649 29.9822 107.762 34.1586C108.54 34.4867 111.39 35.6601 112.35 38.3449C113.828 42.4417 109.375 45.8126 107.11 53.0716C104.652 60.9172 106.035 69.25 107.762 69.608C109.682 70.0157 112.888 62.717 120.816 56.0945C126.575 51.2817 130.913 49.9294 133.639 44.8382C136.269 39.8663 131.585 34.6259 133.179 34.1586C134.772 33.6912 136.26 39.4188 141.001 42.2627C144.965 44.6393 148.498 43.1477 153.709 42.9389C155.638 42.9246 157.564 43.0776 159.468 43.3963C159.468 43.3963 160.486 43.5355 162.098 43.8836C162.225 43.9262 162.363 43.9224 162.488 43.873C162.612 43.8236 162.717 43.7314 162.784 43.6118C162.852 43.4921 162.877 43.3523 162.857 43.2154C162.837 43.0786 162.773 42.9529 162.674 42.8594ZM103.798 105.942C104.669 104.734 105.96 103.924 107.398 103.685C108.021 103.591 108.656 103.631 109.264 103.802C109.871 103.973 110.438 104.272 110.93 104.68C112.801 106.509 112.283 110.079 110.632 112.127C109.096 114.017 106.073 115.26 103.971 113.848C103.386 113.378 102.913 112.775 102.59 112.085C102.267 111.395 102.102 110.637 102.109 109.87C102.171 108.386 102.775 106.982 103.798 105.942Z" fill="#290042"/>
</svg>
