<svg width="16" height="16" viewBox="0 0 16 16" fill="none" xmlns="http://www.w3.org/2000/svg">
<path fill-rule="evenodd" clip-rule="evenodd" d="M3 1.25C3 0.835786 2.66421 0.5 2.25 0.5C1.83579 0.5 1.5 0.835786 1.5 1.25V2H0.75C0.335786 2 0 2.33579 0 2.75C0 3.16421 0.335786 3.5 0.75 3.5H1.5V4.25C1.5 4.66421 1.83579 5 2.25 5C2.66421 5 3 4.66421 3 4.25V3.5H3.75C4.16421 3.5 4.5 3.16421 4.5 2.75C4.5 2.33579 4.16421 2 3.75 2H3V1.25ZM9 0.5C9.31871 0.5 9.60261 0.701422 9.70789 1.00224L11.314 5.59105C11.3369 5.6566 11.3861 5.70966 11.4497 5.7375L15.0506 7.31288C15.3236 7.43232 15.5 7.70203 15.5 8C15.5 8.29797 15.3236 8.56769 15.0506 8.68712L11.4497 10.2625C11.3861 10.2903 11.3369 10.3434 11.314 10.409L9.70789 14.9978C9.60261 15.2986 9.31871 15.5 9 15.5C8.68129 15.5 8.39739 15.2986 8.29211 14.9978L6.68602 10.409C6.66308 10.3434 6.6139 10.2903 6.55026 10.2625L2.94939 8.68712C2.6764 8.56769 2.5 8.29797 2.5 8C2.5 7.70203 2.6764 7.43232 2.94939 7.31288L6.55026 5.7375C6.6139 5.70966 6.66308 5.6566 6.68602 5.59105L8.29211 1.00224C8.39739 0.701422 8.68129 0.5 9 0.5ZM9 3.52032L8.10181 6.08657C7.9412 6.54547 7.59692 6.91686 7.15149 7.11173L5.12117 8L7.15149 8.88827C7.59692 9.08314 7.9412 9.45453 8.10181 9.91343L9 12.4797L9.89819 9.91343C10.0588 9.45453 10.4031 9.08314 10.8485 8.88827L12.8788 8L10.8485 7.11173C10.4031 6.91686 10.0588 6.54547 9.89819 6.08657L9 3.52032ZM3.25 11C3.66421 11 4 11.3358 4 11.75V12.5H4.75C5.16421 12.5 5.5 12.8358 5.5 13.25C5.5 13.6642 5.16421 14 4.75 14H4V14.75C4 15.1642 3.66421 15.5 3.25 15.5C2.83579 15.5 2.5 15.1642 2.5 14.75V14H1.75C1.33579 14 1 13.6642 1 13.25C1 12.8358 1.33579 12.5 1.75 12.5H2.5V11.75C2.5 11.3358 2.83579 11 3.25 11Z" fill="currentColor"/>
</svg>
