
<svg width="697" height="735" viewBox="0 0 697 735" fill="none" xmlns="http://www.w3.org/2000/svg">
<g clip-path="url(#clip0_4952_48237)">
<path d="M260.227 648.689H203.301C203.155 648.512 202.914 648.319 202.769 648.061C202.623 647.836 202.494 647.545 202.494 647.288C202.494 628.711 202.494 610.118 202.494 591.219H174.603C170.025 581.81 172.54 571.933 171.637 562.153H145.052V533.555C140.119 532.911 135.379 533.362 130.687 533.265C126.173 533.185 121.675 533.249 117.161 533.249C113.534 530.268 114.049 526.16 114.049 522.148C114.066 506.246 114.049 490.344 114.049 474.087H58.2675C57.8967 469.157 58.1385 464.468 58.0902 459.812C58.0418 455.043 58.0902 450.274 58.0902 445.182H1.32481C-0.0455602 437.352 -0.480853 354.892 0.679927 329.436H171.798C176.167 339.071 175.087 348.818 172.363 358.582C167.881 361.933 162.609 361.095 157.595 361.112C120.369 361.192 83.1276 361.128 45.902 361.176C41.4523 361.176 36.8737 360.58 31.2471 363.335C29.4898 378.883 30.0541 395.059 31.0053 411.767C49.5294 415.344 67.7311 410.752 84.4979 414.651C90.5275 423.109 85.9489 432.325 89.5763 440.139C94.5903 443.12 100.12 441.622 105.392 442.008C118.467 442.975 131.767 439.849 144.665 444.071C147.857 447.486 147.422 451.82 147.47 455.961C147.615 467.32 147.47 478.695 147.551 490.07C147.567 493.324 147.293 496.675 149.485 500.107C155.821 502.395 162.383 502.363 168.88 499.769C172.878 492.035 168.687 483.222 173.685 474.973C183.1 471.992 193.095 470.897 203.172 475.601C207.508 482.336 203.51 490.537 206.976 497.545C211.249 500.607 216.198 499.656 220.906 499.656C288.537 499.721 356.169 499.704 423.8 499.704C427.412 499.704 431.023 499.511 434.602 499.93C452.53 499.221 470.538 500.816 488.385 498.996C491.319 491.52 490.513 484.898 489.175 478.421C480.775 474.361 471.554 478.969 464.009 473.894C458.85 466.418 463.622 457.218 459.849 449.339C452.143 445.472 442.953 450.016 434.247 444.57C429.911 427.798 434.699 409.559 431.491 391.756C423.043 388.389 414.498 390.773 406.26 389.823C368.808 390.467 331.325 389.436 294.438 390.387C289.65 399.409 294.519 408.673 289.376 416.214C281.943 421.337 272.738 416.778 264.822 420.419C260.824 428.056 265.515 437.288 260.533 444.973C253.359 450.435 243.96 445.392 236.254 449.597C231.869 457.089 236.737 466.482 230.966 474.635C221.647 477.148 211.829 478.485 201.979 473.861C199.802 471.074 199.689 467.755 199.673 464.468C199.528 442.073 199.544 419.662 199.673 397.266C199.689 393.979 199.834 390.677 201.64 387.744C204.832 384.184 209.201 384.538 213.345 384.474C224.13 384.312 234.916 384.457 245.717 384.393C249.006 384.377 252.327 384.554 255.842 382.653C258.502 376.337 258.002 369.715 256.18 362.997C248.265 358.872 239.075 363.448 230.756 358.195C227.516 349.817 227.999 340.763 230.095 331.611C230.901 330.032 232.094 328.872 233.674 328.083C252.15 325.408 270.561 326.375 287.892 327.551C294.647 336.348 289.779 345.725 294.776 355.199C329.697 355.779 365.52 355.456 400.649 355.392C406.034 346.305 401.246 336.976 406.582 328.743C415.159 324.909 424.848 327.1 434.28 326.842C442.824 326.294 451.514 327.905 459.817 325.666C463.46 317.481 459.817 308.958 462.993 301.337C463.541 300.37 464.331 299.662 465.314 299.162C472.73 296.359 480.888 299.339 489.981 295.891C490.61 269.758 490.352 243.335 490.142 217.25C480.904 213.077 471.795 217.202 463.138 212.062C458.995 195.113 463.444 176.923 460.429 158.749C442.808 155.22 425.267 159.329 408.178 156.235C407.163 155.816 406.308 155.172 405.631 154.318C401.713 146.633 405.889 137.771 402.116 129.651C393.765 127.089 385.108 128.974 376.595 128.297C341.175 128.845 305.772 128.459 270.352 128.491C267.353 128.491 264.338 128.378 261.597 126.863C261.162 126.461 260.727 126.058 260.308 125.655V96.799C264.967 96.799 269.675 96.799 274.366 96.799C279.138 96.799 283.894 96.799 288.908 96.799V39.1997H260.501V10.5369L317.46 10.5369C317.283 10.3919 317.557 10.5369 317.718 10.7786C317.879 11.0042 318.04 11.2781 318.04 11.5358C318.04 39.1513 318.04 66.7668 318.04 93.7378C319.765 96.8957 322.119 96.799 324.586 96.7829C341.401 96.7346 358.232 96.7507 374.886 96.7507C375.676 95.9612 376.321 95.3167 377.272 94.3661V39.3124H349.881C348.608 38.0396 347.963 37.3951 347.124 36.5573V10.5208L405.889 10.5208C405.728 10.3758 405.986 10.5369 406.147 10.7786C406.308 11.0042 406.453 11.2781 406.453 11.5358C406.453 39.7474 406.453 67.9591 406.453 96.4929H435.118V125.462H492.98V183.287L521.951 183.287V327.631C517.985 331.321 513.019 330.032 508.392 330.338C504.878 330.58 501.25 329.935 497.478 331.82C493.189 339.957 498.526 349.93 493.592 358.228C489.513 361.74 484.516 360.66 479.808 360.983C475.987 361.24 471.957 360.274 468.071 362.997C466.185 369.184 466.524 375.628 467.878 382.266C475.89 387.486 486.144 381.155 493.786 387.438C496.639 392.078 495.736 397.266 495.93 402.277C496.397 415.086 494.979 427.927 496.849 440.671C498.622 445.376 502.766 443.845 506.135 444.103C511.439 444.522 516.953 443.313 521.757 445.843C527.094 453.093 522.837 461.665 526.626 470.123C542.329 471.702 558.596 471.074 574.057 470.494C577.475 466.337 576.862 462.615 576.959 459.087C577.443 444.022 579.264 442.218 594.612 442.121C604.237 442.057 613.862 442.121 623.471 442.105C627.066 442.105 630.677 442.218 634.401 440.591C639.012 433.179 634.143 423.899 638.754 416.165C646.154 410.413 655.876 415.714 664.791 410.977C665.888 395.397 665.613 379.366 664.888 362.803C655.231 359.581 645.848 361.82 636.723 360.967C602.206 361.53 567.705 361.16 533.188 361.16C529.883 361.16 526.562 360.983 523.692 358.969C519.532 349.124 519.291 339.28 523.789 329.452H695.246C697.374 331.998 697.019 335.091 697.019 338.072C697.051 370.811 697.051 403.55 697.019 436.273C697.019 439.253 697.374 442.331 695.246 444.892H668.499C667.661 454.269 668.499 463.759 668.064 473.475H610.67V500.848C608.639 504.683 606.22 504.441 603.802 504.441C587.583 504.409 571.348 504.425 555.13 504.425H550.97V533.217H523.789V562.073C523.789 569.887 523.902 577.685 523.708 585.499C523.66 587.352 522.644 589.173 522.048 591.09H493.334V648.528H464.412V676.675C457.56 680.204 450.482 679.35 443.534 679.382C431.297 679.431 419.044 679.382 406.502 679.382V706.144H377.885V735.032H347.141V706.611H318.202V679.495H263.129L260.308 676.675V648.722C263.21 646.079 266.837 645.854 270.448 645.854C315.461 645.902 360.473 645.451 405.47 646.047C413.789 645.419 422.237 646.982 430.604 644.871C434.989 637.041 430.281 627.889 434.796 619.978C442.147 614.226 451.788 619.398 460.075 615.435C462.235 608.894 462.138 602.255 459.768 594.635C441.905 592.669 423.929 594.409 406.066 593.636C349.478 594.312 292.874 593.297 236.592 594.184C233.416 601.869 233.835 608.233 235.69 614.71C243.364 619.382 252.714 614.581 261.082 620.091C263.645 629.21 265.257 638.942 260.324 648.706L260.227 648.689Z" fill="#050504"/>
<path d="M173.6 327.631V183.608H202.2V154.752H231.074V125.606H260.239C260.61 126.089 261.174 126.524 261.271 127.056C264.85 145.762 262.818 164.419 262.319 181.9C253.307 188.732 244.004 184.043 236.104 187.813C231.735 195.273 236.749 204.602 231.622 212.239C224.384 217.555 215.162 212.964 205.892 217.104C204.779 242.948 205.376 269.371 205.505 295.23C214.775 299.774 224.013 295.456 232.171 300.74C234.734 309.698 235.911 318.93 231.606 328.195C228.463 330.482 224.787 330.112 221.256 330.128C208.729 330.209 196.203 330.225 183.676 330.128C180.161 330.096 176.421 330.579 173.6 327.631V327.631Z" fill="#050504"/>
<path d="M466.605 248.087C467.475 263.683 467.314 279.295 466.669 294.907C466.572 297.066 465.605 298.951 464.186 300.579C456.835 306.024 447.726 301.223 439.746 304.687C435.425 312.356 441.003 321.975 435.312 329.435H406.792C406.002 333.72 406.55 338.135 406.454 342.501C406.357 346.964 406.421 351.427 406.421 355.6C405.519 356.518 404.874 357.147 403.987 358.049H291.504C291.037 357.517 290.247 356.615 289.054 355.262V329.435H233.159C232.562 328.839 231.966 328.242 231.353 327.646V300.869C226.758 300.224 222.035 300.691 217.359 300.611C212.603 300.514 207.831 300.579 202.785 300.579V212.319C207.074 212.029 211.781 212.254 216.44 212.206C221.213 212.174 225.985 212.206 231.047 212.206V183.656C235.98 182.995 240.704 183.446 245.379 183.366C250.151 183.285 254.907 183.35 260.244 183.35V125.622H377.547C383.028 132.969 378.111 142.088 381.739 150.095C389.332 154.365 398.957 148.79 406.421 154.494C410.855 163.967 410.581 173.489 406.728 183.044L406.647 183.124C402.73 186.766 397.764 185.912 393.056 186.137C389.493 186.314 385.834 185.734 380.707 188.538C379.998 214.027 380.417 240.466 380.449 266.728C388.236 269.95 394.62 269 400.618 267.872C404.245 263.844 403.568 259.478 403.584 255.369C403.681 235.552 403.584 215.75 403.665 195.933C403.681 191.47 403.213 186.83 406.647 183.124C416.191 178.645 425.736 179.95 436.134 182.657C440.906 200.428 435.957 218.683 439.262 235.987C444.792 239.306 450.37 237.824 455.642 238.371C461.736 239.016 466.234 241.545 466.605 248.087V248.087Z" fill="#FBE560"/>
<path d="M406.644 183.123C403.21 186.828 403.678 191.468 403.662 195.931C403.581 215.749 403.678 235.55 403.581 255.367C403.565 259.476 404.242 263.842 400.615 267.87C394.617 268.998 388.233 269.949 380.446 266.726C380.414 240.464 379.995 214.025 380.704 188.536C385.831 185.733 389.491 186.313 393.054 186.135C397.761 185.91 402.727 186.764 406.644 183.123V183.123Z" fill="#FBE560"/>
<path d="M202.473 473.731H230.992C231.766 469.461 231.234 465.031 231.331 460.664C231.428 456.201 231.347 451.738 231.347 446.534C233.249 445.97 235.087 444.988 236.941 444.939C244.422 444.762 251.919 444.859 260.028 444.859V416.18H288.935V387.13H406.415C409.704 390.884 409.237 395.508 409.253 399.955C409.333 419.112 409.253 438.285 409.317 457.442C409.317 461.276 408.785 465.24 411.139 469.252C418.507 472.957 427.696 468.575 435.999 473.795C438.691 483.092 440.223 492.807 435.29 502.571C358.146 502.571 280.986 502.571 203.843 502.571C203.585 502.571 203.327 502.377 202.473 502.039V475.519C202.005 475.116 201.86 474.714 202.005 474.311C202.166 473.908 202.311 473.715 202.473 473.715V473.731Z" fill="#FBE560"/>
<path d="M171.791 358.292H173.596C178.739 367.605 175.837 377.546 175.87 387.277C173.79 401.891 177.756 416.423 176.466 431.021C176.047 435.725 176.934 440.623 173.274 445.763C164.149 448.212 154.444 449.775 144.722 444.877H85.2804C84.9902 440.269 85.1998 435.564 85.1675 430.892C85.1192 426.123 85.1675 421.37 85.1675 416.311H27.8379V358.309H171.791V358.292Z" fill="#FEFEFE"/>
<path d="M260.22 648.691V619.867H234.087C233.168 618.949 232.523 618.304 231.62 617.402V590.979H406.414C406.946 591.704 407.752 592.332 407.881 593.202C410.235 610.958 410.235 628.713 407.881 646.468C407.768 647.338 406.946 647.966 406.414 648.691H260.22V648.691Z" fill="#FBE560"/>
<path d="M521.928 358.293H637.442C638.393 359.47 639.425 360.694 639.554 362.209C640.892 378.691 640.698 395.205 639.667 411.688C639.554 413.492 638.506 415.071 635.765 417.923C610.244 420.678 582.901 417.375 556.042 419.631C551.415 428.025 556.107 437.338 550.19 446.215C531.569 451.049 512.4 443.798 493.054 443.057V387.15C493.408 386.811 493.763 386.457 494.102 386.102C501.647 383.508 509.369 384.733 517.027 385.023C518.027 385.071 519.058 385.619 520.042 384.862C520.251 383.766 519.848 382.735 519.719 381.655C519.816 373.777 517.237 365.689 521.928 358.277V358.293Z" fill="#FEFEFE"/>
<path d="M464.164 562.104H202.601C202.311 557.496 202.521 552.807 202.489 548.119C202.44 543.35 202.489 538.581 202.489 533.231H464.196C468.501 542.85 468.501 552.469 464.196 562.088L464.164 562.104Z" fill="#FBE560"/>
<path d="M493.055 443.072C499.342 443.072 505.646 442.83 511.934 443.136C518.286 443.442 524.621 444.506 530.974 444.812C537.261 445.118 543.565 444.876 550.675 444.876C550.965 440.284 550.755 435.596 550.787 430.924C550.836 426.171 550.787 421.402 550.787 416.133H637.427V358.308H667.139C667.365 358.501 667.623 358.679 667.784 358.904C667.946 359.13 668.091 359.404 668.091 359.661C668.091 378.222 668.091 396.799 668.091 415.972H639.232V442.137C638.297 443.072 637.652 443.716 636.75 444.619H581.645C580.968 446.455 579.791 448.26 579.742 450.096C579.533 457.83 579.646 465.564 579.646 473.507H522.042V446.81H495.537C494.619 445.44 493.812 444.248 493.022 443.072H493.055Z" fill="#BDC9D8"/>
<path d="M464.167 300.58C464.167 283.228 464.167 265.875 464.167 248.523C464.167 245.929 464.957 243.013 461.088 241.144H435.486V183.335H406.435V154.479H463.216C463.442 154.672 463.7 154.85 463.861 155.075C464.022 155.301 464.167 155.575 464.167 155.832C464.167 174.409 464.167 192.986 464.167 211.885H492.074C493.445 219.812 493.832 274.108 492.735 300.58H464.167V300.58Z" fill="#F6AC35"/>
<path d="M435.293 502.591V474.009C430.682 473.381 425.958 473.848 421.267 473.751C416.511 473.671 411.739 473.735 406.402 473.735V387.151H434.326C434.535 387.344 434.793 387.521 434.97 387.763C435.132 387.989 435.277 388.279 435.277 388.536C435.277 407.097 435.277 425.674 435.277 444.557H464.006C464.312 449.487 464.103 454.176 464.135 458.848C464.183 463.617 464.135 468.37 464.135 473.429H492.558V502.591H435.261H435.293Z" fill="#F6AC35"/>
<path d="M144.713 444.877H173.587C173.587 431.698 174.184 418.905 173.265 406.241C172.942 401.811 171.653 397.251 171.878 392.675C171.959 390.822 172.991 389.002 173.603 387.165C182.648 382.654 191.934 384.007 201.253 386.005C201.656 386.392 202.075 386.778 202.478 387.165V475.538H173.716V501.574L171.153 504.136H144.729V444.861L144.713 444.877Z" fill="#BDC9D8"/>
<path d="M406.423 648.691V590.979H464.01V619.513H435.442C435.136 624.443 435.346 629.132 435.313 633.804C435.265 638.573 435.313 643.326 435.313 648.691H406.439H406.423Z" fill="#F6AC35"/>
<path d="M406.421 154.478H377.547V125.622H406.421V154.478Z" fill="#F6AC35"/>
<path d="M435.29 329.437V300.581H464.164V329.437H435.29Z" fill="#F6AC35"/>
<path d="M464.162 562.103V533.247H492.907C493.197 537.855 492.988 542.543 493.02 547.232C493.068 552.001 493.02 556.754 493.02 562.119H464.146L464.162 562.103Z" fill="#F6AC35"/>
<path d="M493.054 387.149V358.292H521.928V385.344C521.735 386.359 521.138 386.955 520.122 387.149H493.054Z" fill="#050504"/>
<path d="M175.405 358.292H202.474V387.149H173.6V358.292H175.405V358.292Z" fill="#050504"/>
<path d="M520.13 387.146C520.726 386.55 521.339 385.937 521.936 385.341C524.483 385.825 524.37 387.484 522.903 388.693C521.952 389.482 520.178 389.273 520.13 387.146Z" fill="#BDC9D8"/>
<path d="M273.242 261.159V282.652H294.749V304.145H402.266V282.652H423.773V261.159H273.242Z" fill="#ECF0F1"/>
<path d="M402.26 304.144H294.743V325.637H402.26V304.144Z" fill="#050504"/>
<path d="M423.773 282.651H402.267V304.144H423.773V282.651Z" fill="#050504"/>
<path d="M294.749 282.651H273.242V304.144H294.749V282.651Z" fill="#050504"/>
<path d="M251.731 239.662V282.648H273.238V261.155H423.769V282.648H445.259V239.662H251.731Z" fill="#050504"/>
<path d="M445.275 196.694H423.769V218.187H445.275V196.694Z" fill="#050504"/>
<path d="M380.752 196.693H359.245V218.186H380.752V196.693Z" fill="#050504"/>
<path d="M337.761 196.693H316.254V218.186H337.761V196.693Z" fill="#050504"/>
<path d="M273.238 196.694H251.731V218.187H273.238V196.694Z" fill="#050504"/>
<path d="M423.769 175.201H380.756V196.694H423.769V175.201Z" fill="#050504"/>
<path d="M316.256 175.201H273.242V196.694H316.256V175.201Z" fill="#050504"/>
</g>
<defs>
<clipPath id="clip0_4952_48237">
<rect width="697" height="735" fill="white"/>
</clipPath>
</defs>
</svg>
