<svg width="692" height="792" viewBox="0 0 692 792" fill="none" xmlns="http://www.w3.org/2000/svg">
<path d="M776.267 588.862C675.677 757.806 281.585 810.077 125.282 687.613C-31.0198 565.148 -213.362 250.397 -112.772 81.4534C-12.182 -87.4903 285.757 -210.311 583.576 -93.6043C959.882 118.99 876.857 419.918 776.267 588.862Z" fill="url(#paint0_radial)"/>
<path d="M354.839 658.3C208.862 679.441 -14.5742 499.292 -28.8924 369.65C-43.2106 240.007 23.0044 21.8834 168.981 0.742138C314.957 -20.3991 538.905 76.3511 630.57 274.142C710.441 551.549 500.815 637.159 354.839 658.3Z" fill="url(#paint1_radial)"/>
<defs>
<radialGradient id="paint0_radial" cx="0" cy="0" r="1" gradientUnits="userSpaceOnUse" gradientTransform="translate(360.517 285.975) rotate(122.661) scale(346.768 280.141)">
<stop stop-color="#F6EAFF"/>
<stop offset="0.0001" stop-color="#FFA9D2" stop-opacity="0.5"/>
<stop offset="0.951255" stop-color="#F7E6FF" stop-opacity="0"/>
</radialGradient>
<radialGradient id="paint1_radial" cx="0" cy="0" r="1" gradientUnits="userSpaceOnUse" gradientTransform="translate(304.137 323.11) rotate(173.423) scale(260.947 184.84)">
<stop stop-color="#F094FF" stop-opacity="0.5"/>
<stop offset="0.951255" stop-color="#9A5BFF" stop-opacity="0"/>
</radialGradient>
</defs>
</svg>
