<svg fill="none" height="280" viewBox="0 0 422 280" width="422" xmlns="http://www.w3.org/2000/svg" xmlns:xlink="http://www.w3.org/1999/xlink"><clipPath id="a"><path d="m0 0h422v280h-422z"/></clipPath><g clip-path="url(#a)"><path d="m422 11c-37.593 4.4071-63.74 51.243-62.618 70.3403-16.609-25.0598-54.86-35.1903-90.882-11.3403-41.97 27.7386-42.322 68.373-21.674 81.335-28.326 0-25.326 34.665-20.826 55.165-23-50.5-106.234-41.837-105-9-40.5-31-69.2743 19.038-64 32-29.7381-5.963-64.06727 47.576-46 73.5-133.5-56.611-154.247 89.773-151.666 113.623-2.581-29.812-31.534-25.492-42.644-19.875-13.241 6.654-34.788 41.997-27.044 65.847-18.404-21.258-65.985 1.728-36.359 31.627-22.22-6.221-38.043-4.58-40.287.778h709z" fill="#fff"/></g></svg>