<svg width="136" height="48" viewBox="0 0 136 48" fill="none" xmlns="http://www.w3.org/2000/svg">
<rect width="136" height="48" fill="white"/>
<path d="M20.3949 4C9.13133 4 0 12.9545 0 24.0001C0 35.0463 9.13133 44 20.3949 44C31.6596 44 40.79 35.0463 40.79 24.0001C40.79 12.9552 31.6596 4.00096 20.3946 4.00096L20.3949 4V4ZM29.7478 32.8459C29.3825 33.4334 28.5983 33.6197 27.9992 33.2591C23.2107 30.3907 17.1826 29.7411 10.0833 31.3317C9.39923 31.4846 8.71732 31.0642 8.56145 30.3931C8.40485 29.722 8.83178 29.0533 9.51759 28.9004C17.2866 27.1598 23.9506 27.9093 29.3265 31.1311C29.9256 31.4917 30.1156 32.2584 29.7478 32.8459V32.8459ZM32.2441 27.4001C31.7838 28.1338 30.8048 28.3655 30.0571 27.9141C24.575 24.6096 16.2184 23.6526 9.7341 25.5828C8.89315 25.8319 8.00496 25.3672 7.74973 24.5439C7.49644 23.7193 7.97062 22.8499 8.81011 22.5991C16.2169 20.3952 25.425 21.4628 31.7205 25.2566C32.4682 25.708 32.7044 26.6681 32.2441 27.4003V27.4001ZM32.4584 21.7293C25.8853 17.9006 15.0404 17.5486 8.76456 19.4165C7.75679 19.7162 6.69105 19.1583 6.38565 18.17C6.08025 17.1813 6.64868 16.1369 7.65718 15.8364C14.8614 13.6917 26.8375 14.1061 34.4053 18.5118C35.3137 19.0394 35.6108 20.1874 35.0726 21.0752C34.5368 21.9641 33.363 22.2571 32.4594 21.7293H32.4584ZM55.4877 22.463C51.9661 21.6395 51.3402 21.0615 51.3402 19.8471C51.3402 18.6998 52.441 17.9276 54.08 17.9276C55.6679 17.9276 57.2412 18.5139 58.8924 19.721C58.9411 19.7575 59.0044 19.7721 59.0653 19.7626C59.1286 19.7535 59.1822 19.7203 59.2188 19.6704L60.9382 17.2935C61.0088 17.1956 60.9893 17.0607 60.8943 16.9859C58.9289 15.44 56.7176 14.6884 54.1312 14.6884C50.3295 14.6884 47.6725 16.926 47.6725 20.1275C47.6725 23.5607 49.9642 24.7763 53.9242 25.7147C57.2923 26.4758 57.8622 27.1135 57.8622 28.2532C57.8622 29.5166 56.7127 30.3024 54.8618 30.3024C52.8063 30.3024 51.1283 29.6217 49.253 28.0311C49.2068 27.9905 49.1435 27.9738 49.085 27.9762C49.0217 27.9809 48.9657 28.0096 48.9267 28.055L46.9979 30.3048C46.9175 30.4003 46.9272 30.5388 47.0198 30.62C49.2019 32.5307 51.8857 33.5385 54.7839 33.5385C58.8802 33.5385 61.5275 31.3437 61.5275 27.9451C61.5348 25.0775 59.7838 23.4893 55.495 22.4661L55.4877 22.463V22.463ZM70.7967 19.0573C69.0213 19.0573 67.5649 19.7432 66.3618 21.1487V19.5667C66.3618 19.4418 66.2595 19.3401 66.1329 19.3401H62.979C62.8524 19.3401 62.7501 19.4418 62.7501 19.5667V37.1449C62.7501 37.269 62.8524 37.3717 62.979 37.3717H66.1329C66.2595 37.3717 66.3618 37.269 66.3618 37.1449V31.5968C67.5649 32.9176 69.0213 33.5648 70.7967 33.5648C74.0967 33.5648 77.4381 31.0738 77.4381 26.3118C77.4429 21.5488 74.1016 19.057 70.7991 19.057L70.7967 19.0573ZM73.7703 26.3118C73.7703 28.7356 72.2482 30.4289 70.0661 30.4289C67.9107 30.4289 66.2839 28.6592 66.2839 26.3118C66.2839 23.9641 67.9107 22.1948 70.0661 22.1948C72.2117 22.1946 73.7703 23.9256 73.7703 26.3115V26.3118ZM85.9985 19.0573C81.7488 19.0573 78.4196 22.2662 78.4196 26.3636C78.4196 30.417 81.7268 33.5911 85.9474 33.5911C90.2118 33.5911 93.5508 30.3931 93.5508 26.3118C93.5508 22.2442 90.2337 19.0578 85.9985 19.0578V19.0573V19.0573ZM85.9985 30.4528C83.7385 30.4528 82.0337 28.6712 82.0337 26.3106C82.0337 23.9392 83.68 22.2184 85.9474 22.2184C88.2221 22.2184 89.9366 23.9994 89.9366 26.3624C89.9366 28.7333 88.2805 30.4528 85.9985 30.4528V30.4528ZM102.625 19.3401H99.1547V15.8613C99.1547 15.7366 99.0524 15.6349 98.9257 15.6349H95.7719C95.6452 15.6349 95.5405 15.7366 95.5405 15.8613V19.3401H94.0257C93.899 19.3401 93.7967 19.4418 93.7967 19.5667V22.2242C93.7967 22.3488 93.899 22.4508 94.0257 22.4508H95.5405V29.3279C95.5405 32.1055 96.9506 33.5146 99.7343 33.5146C100.864 33.5146 101.802 33.2854 102.686 32.7934C102.759 32.7552 102.803 32.6787 102.803 32.5975V30.0659C102.803 29.9895 102.761 29.9155 102.693 29.8749C102.625 29.8319 102.54 29.8295 102.469 29.8653C101.863 30.1638 101.276 30.3024 100.618 30.3024C99.6076 30.3024 99.1547 29.851 99.1547 28.8431V22.452H102.625C102.752 22.452 102.854 22.3503 102.854 22.2254V19.5681C102.859 19.4432 102.757 19.3415 102.628 19.3415L102.625 19.3401V19.3401ZM114.714 19.3537V18.9264C114.714 17.6694 115.206 17.1089 116.307 17.1089C116.965 17.1089 117.493 17.2369 118.085 17.4304C118.158 17.4528 118.234 17.4416 118.292 17.3989C118.353 17.3561 118.387 17.2876 118.387 17.215V14.6093C118.387 14.5097 118.324 14.4216 118.224 14.3922C117.6 14.21 116.802 14.023 115.603 14.023C112.693 14.023 111.151 15.6313 111.151 18.6723V19.3267H109.637C109.51 19.3267 109.405 19.4284 109.405 19.5531V22.2242C109.405 22.3488 109.51 22.4508 109.637 22.4508H111.151V33.0561C111.151 33.1827 111.256 33.283 111.383 33.283H114.534C114.663 33.283 114.766 33.1827 114.766 33.0561V22.4515H117.71L122.22 33.0561C121.709 34.169 121.205 34.3911 120.518 34.3911C119.963 34.3911 119.376 34.2287 118.779 33.9063C118.723 33.8777 118.655 33.8729 118.597 33.8896C118.536 33.9111 118.485 33.9541 118.46 34.0114L117.391 36.3113C117.34 36.4212 117.384 36.5478 117.491 36.6051C118.606 37.1974 119.612 37.4506 120.857 37.4506C123.185 37.4506 124.473 36.3854 125.606 33.5242L131.076 19.6632C131.105 19.5935 131.095 19.5146 131.051 19.4528C131.01 19.3914 130.939 19.3544 130.864 19.3544H127.581C127.481 19.3544 127.393 19.4158 127.362 19.5063L123.998 28.9243L120.316 19.5001C120.282 19.4124 120.197 19.3544 120.102 19.3544H114.714V19.3537V19.3537ZM107.705 19.3401H104.552C104.425 19.3401 104.32 19.4418 104.32 19.5667V33.0561C104.32 33.1827 104.425 33.283 104.552 33.283H107.705C107.832 33.283 107.937 33.1827 107.937 33.0561V19.5677C107.937 19.4428 107.834 19.341 107.705 19.341V19.3401ZM106.147 13.1976C104.897 13.1976 103.884 14.1892 103.884 15.4142C103.884 16.6398 104.897 17.6327 106.147 17.6327C107.396 17.6327 108.407 16.6398 108.407 15.4142C108.407 14.1895 107.394 13.1976 106.147 13.1976ZM133.769 23.6775C132.522 23.6775 131.55 22.6947 131.55 21.5012C131.55 20.3078 132.534 19.3138 133.781 19.3138C135.028 19.3138 136 20.2963 136 21.4888C136 22.6823 135.016 23.6775 133.769 23.6775ZM133.781 19.5302C132.644 19.5302 131.784 20.4162 131.784 21.5012C131.784 22.5858 132.639 23.4599 133.769 23.4599C134.907 23.4599 135.766 22.5745 135.766 21.4888C135.766 20.4043 134.911 19.5302 133.781 19.5302V19.5302ZM134.273 21.7126L134.902 22.5743H134.371L133.806 21.7838H133.321V22.5743H132.878V20.2901H133.915C134.458 20.2901 134.814 20.5617 134.814 21.0188C134.816 21.3933 134.595 21.6221 134.276 21.7126H134.273ZM133.898 20.682H133.321V21.4045H133.898C134.186 21.4045 134.359 21.2662 134.359 21.0429C134.359 20.8079 134.186 20.682 133.898 20.682V20.682Z" fill="#24292E"/>
</svg>
