<svg fill="none" height="19" viewBox="0 0 19 19" width="19" xmlns="http://www.w3.org/2000/svg"><rect fill="#6f42c1" height="19" rx="4" width="19"/><path clip-rule="evenodd" d="m7.1398 5.69424v-.00331.00414c-.00055.16451-.06637.32209-.18299.43812-.11662.11604-.27451.18106-.43903.18079-.16451-.00027-.3222-.06582-.43843-.18225-.11624-.11643-.18152-.27422-.18152-.43873 0-.16452.06528-.32231.18152-.43874.11623-.11643.27392-.18197.43843-.18225.16452-.00027.32241.06475.43903.18078.11662.11605.18244.27362.18299.43814zm.37259 1.57316c.35668-.22488.62653-.56411.76542-.96223.1389-.39812.13863-.83159-.00076-1.22954-.1394-.39795-.40967-.73684-.76664-.96127-.35696-.22443-.7795-.32113-1.19855-.27428s-.80981.23447-1.1084.53218c-.29859.29773-.48736.68793-.53543 1.10684-.04807.4189.04739.84173.27078 1.19936.22338.35762.56148.62888.95902.76944v4.3519c-.41456.1464-.76399.4348-.9865.814-.22252.3792-.3038.8249-.22948 1.2583.07431.4333.29945.8265.6356 1.1098.33615.2834.76168.4389 1.20136.4389s.86521-.1555 1.20136-.4389c.33616-.2833.56128-.6765.6356-1.1098.07432-.4334-.00696-.8791-.22948-1.2583s-.57193-.6676-.98649-.814v-2.90211c.44567.49018.98899.88169 1.59502 1.14931.60604.2677 1.26138.4056 1.92388.4048h1.141c.1464.4146.4348.764.814.9865s.8249.3038 1.2583.2295c.4333-.0743.8265-.2995 1.1098-.6356.2834-.3362.4389-.7617.4389-1.20138s-.1555-.86521-.4389-1.20137c-.2833-.33615-.6765-.56128-1.1098-.63559-.4334-.07432-.8791.00696-1.2583.22948-.3792.22251-.6676.57193-.814.98649h-1.141c-.653.00005-1.29319-.1816-1.84886-.52465-.55565-.34305-1.0049-.83396-1.29745-1.41778zm6.04421 3.1844c.1647 0 .3227-.0654.4391-.1819.1165-.1164.1819-.27439.1819-.43908 0-.1647-.0654-.32265-.1819-.4391-.1164-.11646-.2744-.18189-.4391-.18189s-.3226.06543-.439.18189c-.1165.11645-.182.2744-.182.4391 0 .16469.0655.32268.182.43908.1164.1165.2743.1819.439.1819zm-7.03779 3.7259c.16469 0 .32265-.0654.4391-.1819.11646-.1164.18189-.2744.18189-.4391s-.06543-.3226-.18189-.4391c-.11645-.1165-.27441-.1819-.4391-.1819s-.32264.0654-.4391.1819-.18188.2744-.18188.4391.06542.3227.18188.4391c.11646.1165.27441.1819.4391.1819z" fill="#fff" fill-rule="evenodd"/></svg>