<svg height="240" viewBox="0 0 438 240" width="438" xmlns="http://www.w3.org/2000/svg"><g fill="none" fill-rule="evenodd" transform="translate(27 27)"><g stroke="#484f58"><path d="m21.91 122.699019h342m-342-40h342m-342-40h342"/><path d="m91.41 163.199019v-131m69 131v-131m68 131v-131m69 131v-131" stroke-dasharray="5"/><path d="m21.91 162.699019h342m-342.5.5v-131"/></g><path d="m22.41 56.199019 68.5 47.5 70-8.5 67.5-13 69-39.5 66.5 13.5m-325-51.00000001h12" stroke="#096bde" stroke-width="3"/><path d="m21.91 146.699019h69.5l68.5-12 68.5-29.5 68.5 17.5 66-7m-119-110.50000001h20" stroke="#8250df" stroke-dasharray="6" stroke-width="3"/><path d="m21.91 131.699019 69.5 6.5 68.5 13.5 68.5-20 68.5 11 64-10m-241-127.50000001h16.5" stroke="#1a7f37" stroke-dasharray="3" stroke-width="3"/><path d="m13.268 177.054019h.884c.87 0 1.397.435 1.397 1.143 0 .684-.572 1.143-1.382 1.143-.816 0-1.367-.42-1.421-1.075h-1.206c.059 1.275 1.108 2.11 2.642 2.11 1.523 0 2.656-.879 2.656-2.09 0-.962-.6-1.582-1.558-1.729v-.083c.747-.2 1.28-.761 1.284-1.611.005-1.011-.84-1.885-2.339-1.885-1.528 0-2.485.865-2.548 2.1h1.181c.054-.703.532-1.094 1.3-1.094.746 0 1.19.459 1.19 1.04 0 .64-.498 1.089-1.22 1.089h-.86zm5.203 4.654 2.53-8.911h-1.091l-2.534 8.911h1.094zm6.33-1.509h1.207v-1.353h.952v-1.04h-.952v-4.653h-1.778c-1.0025223 1.526044-1.9602639 3.08104-2.872 4.663v1.03h3.443zm-2.275-2.437c.7090172-1.221276 1.4516337-2.422734 2.227-3.603h.068v3.677h-2.295zm-14.795-52.387c1.538 0 2.569-1.011 2.569-2.486 0-1.416-.977-2.319-2.183-2.319-.718 0-1.235.244-1.548.679h-.083l.195-2.061h3.243v-1.035h-4.224l-.386 4.097h1.143c.24-.464.703-.742 1.304-.742.776 0 1.323.561 1.323 1.401 0 .864-.547 1.44-1.358 1.44-.717 0-1.26-.434-1.337-1.093h-1.177c.053 1.235 1.064 2.119 2.52 2.119zm-.146 38c1.684 0 2.685-1.363 2.685-3.697 0-2.338-1.015-3.701-2.685-3.701-1.675 0-2.69 1.363-2.69 3.692 0 2.339 1 3.706 2.69 3.706zm0-1.021c-.894 0-1.416-.927-1.416-2.685 0-1.743.532-2.666 1.416-2.666s1.41.918 1.41 2.666c0 1.762-.517 2.685-1.41 2.685zm-5.75-77.155h1.26v-7.046h-1.255l-1.84 1.294v1.187l1.752-1.24h.083zm5.75.176c1.684 0 2.685-1.362 2.685-3.697 0-2.338-1.015-3.7-2.685-3.7-1.675 0-2.69 1.362-2.69 3.69 0 2.34 1 3.707 2.69 3.707zm0-1.02c-.894 0-1.416-.928-1.416-2.686 0-1.743.532-2.666 1.416-2.666s1.41.918 1.41 2.666c0 1.762-.517 2.685-1.41 2.685zm-5.574-38.156h1.26v-7.046h-1.255l-1.841 1.294v1.187l1.753-1.24h.083zm5.72.176c1.538 0 2.569-1.011 2.569-2.486 0-1.416-.977-2.319-2.183-2.319-.718 0-1.235.244-1.548.679h-.083l.195-2.06h3.243v-1.036h-4.224l-.386 4.097h1.143c.24-.464.703-.742 1.304-.742.776 0 1.323.561 1.323 1.401 0 .864-.547 1.44-1.358 1.44-.717 0-1.26-.434-1.337-1.093h-1.177c.053 1.235 1.064 2.119 2.52 2.119zm48.808-44.65300001c.48 0 .873-.38.873-.86-.0043976-.47853242-.3944503-.86367039-.873-.86200541-.4762728.00053863-.8631594.38474777-.867.86100541 0 .48.392.861.867.861zm-.72 7.477h1.447v-6.404h-1.448v6.404zm2.985-4.576c0 .96.58 1.523 1.81 1.805l1.137.263c.61.14.885.375.885.738 0 .487-.51.82-1.242.82-.727 0-1.178-.292-1.319-.767h-1.435c.11 1.154 1.119 1.846 2.718 1.846 1.6 0 2.73-.815 2.73-2.04 0-.942-.567-1.464-1.792-1.745l-1.131-.252c-.644-.152-.95-.381-.95-.744 0-.475.499-.797 1.16-.797.68 0 1.108.293 1.214.744h1.365c-.105-1.154-1.06-1.822-2.584-1.822-1.512 0-2.566.802-2.566 1.95zm6.372 0c0 .96.58 1.523 1.81 1.805l1.137.263c.61.14.885.375.885.738 0 .487-.51.82-1.242.82-.727 0-1.178-.292-1.319-.767h-1.435c.111 1.154 1.119 1.846 2.718 1.846 1.6 0 2.731-.815 2.731-2.04 0-.942-.568-1.464-1.793-1.745l-1.13-.252c-.645-.152-.95-.381-.95-.744 0-.475.498-.797 1.16-.797.68 0 1.108.293 1.213.744h1.365c-.105-1.154-1.06-1.822-2.584-1.822-1.511 0-2.566.802-2.566 1.95zm12.214-1.828h-1.453v3.732c0 .967-.516 1.553-1.46 1.553-.866 0-1.27-.48-1.27-1.477v-3.808h-1.454v4.16c0 1.5.82 2.373 2.22 2.373.98 0 1.606-.416 1.917-1.149h.1v1.02h1.4zm5.839 4.652c-.211.48-.709.75-1.43.75-.955 0-1.57-.68-1.605-1.764v-.076h4.476v-.463c0-2.01-1.095-3.222-2.924-3.222-1.857 0-3.011 1.295-3.011 3.351 0 2.051 1.136 3.305 3.023 3.305 1.512 0 2.584-.727 2.848-1.881zm-1.489-3.645c.874 0 1.448.616 1.477 1.588h-3.017c.064-.96.673-1.588 1.54-1.588zm4.123.82c0 .962.58 1.524 1.81 1.806l1.137.263c.609.14.885.375.885.738 0 .487-.51.82-1.242.82-.727 0-1.178-.292-1.319-.767h-1.435c.111 1.154 1.119 1.846 2.718 1.846 1.6 0 2.731-.815 2.731-2.04 0-.942-.568-1.464-1.793-1.745l-1.131-.252c-.644-.152-.949-.381-.949-.744 0-.475.498-.797 1.16-.797.68 0 1.107.293 1.213.744h1.365c-.105-1.154-1.06-1.822-2.584-1.822-1.512 0-2.566.802-2.566 1.95zm61.258 4.682c.891 0 1.629-.416 1.992-1.119h.1v1.014h1.406v-8.883h-1.453v3.498h-.1c-.34-.703-1.066-1.125-1.945-1.125-1.617 0-2.637 1.278-2.637 3.305 0 2.033 1.014 3.31 2.637 3.31zm.451-5.402c.996 0 1.611.803 1.611 2.098 0 1.3-.609 2.097-1.611 2.097-.996 0-1.6-.785-1.6-2.097 0-1.307.61-2.098 1.6-2.098zm5.499-2.18c.481 0 .873-.38.873-.86-.003852-.47876339-.394226-.86421931-.873-.86200954-.476273.00054276-.863159.3847519-.867.86100954 0 .48.393.861.867.861zm-.72 7.477h1.447v-6.404h-1.447zm2.985-4.576c0 .96.58 1.523 1.811 1.805l1.136.263c.61.14.885.375.885.738 0 .487-.51.82-1.242.82-.727 0-1.178-.292-1.318-.767h-1.436c.111 1.154 1.119 1.846 2.719 1.846 1.599 0 2.73-.815 2.73-2.04 0-.942-.568-1.464-1.793-1.745l-1.131-.252c-.644-.152-.949-.381-.949-.744 0-.475.498-.797 1.16-.797.68 0 1.108.293 1.213.744h1.365c-.105-1.154-1.06-1.822-2.584-1.822-1.511 0-2.566.802-2.566 1.95zm12.173.31c-.152-1.324-1.148-2.261-2.795-2.261-1.928 0-3.059 1.236-3.059 3.31 0 2.098 1.137 3.346 3.065 3.346 1.623 0 2.631-.902 2.789-2.227h-1.383c-.152.674-.656 1.032-1.412 1.032-.99 0-1.588-.791-1.588-2.15 0-1.337.592-2.122 1.588-2.122.797 0 1.277.451 1.412 1.072zm6.847-2.138h-1.453v3.732c0 .967-.516 1.553-1.459 1.553-.868 0-1.272-.48-1.272-1.477v-3.808h-1.453v4.16c0 1.5.82 2.373 2.221 2.373.978 0 1.605-.416 1.916-1.149h.099v1.02h1.401zm1.515 1.828c0 .96.58 1.523 1.81 1.805l1.137.263c.609.14.885.375.885.738 0 .487-.51.82-1.243.82-.726 0-1.177-.292-1.318-.767h-1.436c.112 1.154 1.12 1.846 2.719 1.846 1.6 0 2.731-.815 2.731-2.04 0-.942-.569-1.464-1.793-1.745l-1.131-.252c-.645-.152-.949-.381-.949-.744 0-.475.498-.797 1.16-.797.679 0 1.107.293 1.213.744h1.365c-.106-1.154-1.061-1.822-2.584-1.822-1.512 0-2.566.802-2.566 1.95zm6.372 0c0 .96.58 1.523 1.81 1.805l1.137.263c.609.14.885.375.885.738 0 .487-.51.82-1.242.82-.727 0-1.178-.292-1.319-.767h-1.435c.111 1.154 1.119 1.846 2.718 1.846 1.6 0 2.731-.815 2.731-2.04 0-.942-.568-1.464-1.793-1.745l-1.131-.252c-.644-.152-.949-.381-.949-.744 0-.475.498-.797 1.16-.797.68 0 1.107.293 1.213.744h1.365c-.105-1.154-1.06-1.822-2.584-1.822-1.512 0-2.566.802-2.566 1.95zm7.374-2.9c.48 0 .873-.381.873-.862-.004944-.47814085-.394837-.86267441-.873-.86100545-.476497 0-.863702.38451937-.867.86100545 0 .48.392.861.867.861zm-.721 7.476h1.447v-6.404h-1.447zm5.898.129c1.916 0 3.082-1.254 3.082-3.334 0-2.068-1.172-3.322-3.082-3.322-1.905 0-3.082 1.26-3.082 3.322 0 2.08 1.16 3.334 3.082 3.334zm0-1.19c-1.014 0-1.594-.785-1.594-2.138 0-1.354.58-2.139 1.594-2.139 1.008 0 1.588.785 1.588 2.139 0 1.353-.575 2.138-1.588 2.138zm4.427 1.061h1.453v-3.732c0-.961.545-1.565 1.412-1.565.885 0 1.295.498 1.295 1.494v3.803h1.453v-4.143c0-1.523-.779-2.384-2.209-2.384-.955 0-1.6.433-1.904 1.148h-.1v-1.025h-1.4zm7.069-4.576c0 .96.58 1.523 1.811 1.805l1.136.263c.61.14.885.375.885.738 0 .487-.51.82-1.242.82-.727 0-1.178-.292-1.318-.767h-1.436c.111 1.154 1.119 1.846 2.719 1.846 1.599 0 2.73-.815 2.73-2.04 0-.942-.568-1.464-1.793-1.745l-1.131-.252c-.644-.152-.949-.381-.949-.744 0-.475.498-.797 1.16-.797.68 0 1.108.293 1.213.744h1.365c-.105-1.154-1.06-1.822-2.584-1.822-1.511 0-2.566.802-2.566 1.95zm69.003-1.934c-.879 0-1.623.44-1.992 1.166h-.1v-1.06h-1.4v8.53100001h1.453v-3.10000001h.099c.328.68 1.037 1.078 1.957 1.078 1.618 0 2.625-1.271 2.625-3.304 0-2.051-1.019-3.31-2.642-3.31zm-.457 5.408c-.99 0-1.606-.802-1.612-2.097.006-1.295.627-2.098 1.618-2.098.996 0 1.599.785 1.599 2.098 0 1.312-.597 2.097-1.605 2.097zm10.017-5.302h-1.454v3.732c0 .967-.515 1.553-1.459 1.553-.867 0-1.271-.48-1.271-1.477v-3.808h-1.453v4.16c0 1.5.82 2.373 2.22 2.373.979 0 1.606-.416 1.917-1.149h.099v1.02h1.401zm1.719 6.404h1.453v-8.883h-1.453zm3.232 0h1.453v-8.883h-1.453zm6.252 0h1.453v-3.72c0-.903.656-1.489 1.6-1.489.246 0 .633.041.744.082v-1.324c-.198704-.04081721-.401154-.06059296-.604-.059-.826 0-1.517.469-1.693 1.102h-.1v-.996h-1.4zm8.886-1.752c-.211.48-.709.75-1.43.75-.955 0-1.57-.68-1.605-1.764v-.076h4.476v-.463c0-2.01-1.095-3.222-2.923-3.222-1.858 0-3.012 1.295-3.012 3.351 0 2.051 1.137 3.305 3.023 3.305 1.512 0 2.584-.727 2.848-1.881zm-1.488-3.645c.873 0 1.447.616 1.476 1.588h-3.017c.064-.96.673-1.588 1.541-1.588zm6.595-1.113c-1.618 0-2.643 1.283-2.643 3.305 0 2.033 1.002 3.31 2.619 3.31.908 0 1.582-.386 1.951-1.078h.1v3.10000001h1.465v-8.53100001h-1.412v1.06h-.1c-.352-.709-1.113-1.166-1.98-1.166zm.433 5.408c-.996 0-1.588-.785-1.588-2.097 0-1.313.598-2.098 1.594-2.098.99 0 1.617.803 1.617 2.098 0 1.3-.621 2.097-1.623 2.097zm10.292-5.302h-1.453v3.732c0 .967-.516 1.553-1.459 1.553-.867 0-1.271-.48-1.271-1.477v-3.808h-1.453v4.16c0 1.5.82 2.373 2.22 2.373.979 0 1.606-.416 1.916-1.149h.1v1.02h1.4zm5.839 4.652c-.211.48-.709.75-1.429.75-.956 0-1.571-.68-1.606-1.764v-.076h4.477v-.463c0-2.01-1.096-3.222-2.924-3.222-1.858 0-3.012 1.295-3.012 3.351 0 2.051 1.137 3.305 3.023 3.305 1.512 0 2.584-.727 2.848-1.881zm-1.488-3.645c.873 0 1.447.616 1.476 1.588h-3.017c.064-.96.674-1.588 1.541-1.588zm4.122.82c0 .962.58 1.524 1.811 1.806l1.136.263c.61.14.885.375.885.738 0 .487-.51.82-1.242.82-.727 0-1.178-.292-1.318-.767h-1.436c.111 1.154 1.119 1.846 2.719 1.846 1.599 0 2.73-.815 2.73-2.04 0-.942-.568-1.464-1.793-1.745l-1.131-.252c-.644-.152-.949-.381-.949-.744 0-.475.498-.797 1.16-.797.68 0 1.108.293 1.213.744h1.365c-.105-1.154-1.06-1.822-2.583-1.822-1.512 0-2.567.802-2.567 1.95zm7.052-3.398v1.612h-1.014v1.13h1.014v3.534c0 1.236.586 1.728 2.057 1.728.281 0 .55-.023.761-.064v-1.113c-.175.017-.287.029-.492.029-.609 0-.879-.287-.879-.926v-3.187h1.371v-1.131h-1.371v-1.612zm3.923 3.399c0 .96.58 1.523 1.81 1.805l1.137.263c.61.14.885.375.885.738 0 .487-.51.82-1.242.82-.727 0-1.178-.292-1.319-.767h-1.435c.111 1.154 1.119 1.846 2.719 1.846 1.599 0 2.73-.815 2.73-2.04 0-.942-.568-1.464-1.793-1.745l-1.131-.252c-.644-.152-.949-.381-.949-.744 0-.475.498-.797 1.16-.797.68 0 1.108.293 1.213.744h1.365c-.105-1.154-1.06-1.822-2.584-1.822-1.511 0-2.566.802-2.566 1.95zm-256.954 172.43100001h.884c.869 0 1.397.435 1.397 1.143 0 .684-.572 1.143-1.382 1.143-.816 0-1.367-.42-1.421-1.075h-1.206c.059 1.275 1.108 2.11 2.641 2.11 1.524 0 2.657-.879 2.657-2.09 0-.962-.601-1.582-1.558-1.729v-.083c.747-.2 1.279-.761 1.284-1.611.005-1.011-.84-1.885-2.339-1.885-1.528 0-2.485.865-2.548 2.1h1.181c.054-.703.532-1.094 1.299-1.094.747 0 1.191.459 1.191 1.04 0 .64-.498 1.089-1.22 1.089h-.86zm5.203 4.654 2.529-8.911h-1.088l-2.535 8.911zm4.929-1.509h1.26v-7.046h-1.255l-1.841 1.294v1.187l1.753-1.241h.083zm5.75.176c1.685 0 2.686-1.363 2.686-3.697 0-2.338-1.016-3.701-2.686-3.701-1.675 0-2.69 1.363-2.69 3.692 0 2.339 1.001 3.706 2.69 3.706zm0-1.021c-.894 0-1.416-.927-1.416-2.685 0-1.743.532-2.666 1.416-2.666s1.411.918 1.411 2.666c0 1.762-.517 2.685-1.411 2.685zm53.118-2.3h.884c.869 0 1.397.435 1.397 1.143 0 .684-.572 1.143-1.382 1.143-.816 0-1.367-.42-1.421-1.075h-1.206c.058 1.275 1.108 2.11 2.641 2.11 1.524 0 2.657-.879 2.657-2.09 0-.962-.601-1.582-1.558-1.729v-.083c.747-.2 1.279-.761 1.284-1.611.005-1.011-.84-1.885-2.339-1.885-1.528 0-2.485.865-2.548 2.1h1.181c.054-.703.532-1.094 1.299-1.094.747 0 1.191.459 1.191 1.04 0 .64-.498 1.089-1.22 1.089h-.86zm5.203 4.654 2.529-8.911h-1.088l-2.535 8.911zm4.929-1.509h1.26v-7.046h-1.255l-1.841 1.294v1.187l1.753-1.241h.083zm3.47 0h1.318l3.013-5.996v-1.05h-4.903v1.03h3.633v.078zm54.398-3.145h.884c.869 0 1.397.435 1.397 1.143 0 .684-.572 1.143-1.382 1.143-.816 0-1.367-.42-1.421-1.075h-1.206c.058 1.275 1.108 2.11 2.641 2.11 1.524 0 2.657-.879 2.657-2.09 0-.962-.601-1.582-1.558-1.729v-.083c.747-.2 1.279-.761 1.284-1.611.005-1.011-.84-1.885-2.339-1.885-1.528 0-2.485.865-2.548 2.1h1.181c.054-.703.532-1.094 1.299-1.094.747 0 1.191.459 1.191 1.04 0 .64-.498 1.089-1.22 1.089h-.86zm5.203 4.654 2.529-8.911h-1.088l-2.535 8.911zm3.133-6.47h1.181c0-.742.488-1.25 1.255-1.25.737 0 1.177.493 1.177 1.133 0 .537-.215.874-1.104 1.772l-2.441 2.456v.85h4.892v-1.045h-3.183v-.083l1.514-1.489c1.211-1.187 1.567-1.758 1.567-2.578 0-1.172-.952-2.027-2.354-2.027-1.469 0-2.504.928-2.504 2.261zm7.888 1.816h.884c.869 0 1.396.435 1.396 1.143 0 .684-.571 1.143-1.382 1.143-.815 0-1.367-.42-1.421-1.075h-1.206c.059 1.275 1.109 2.11 2.642 2.11 1.523 0 2.656-.879 2.656-2.09 0-.962-.6-1.582-1.557-1.729v-.083c.747-.2 1.279-.761 1.284-1.611.005-1.011-.84-1.885-2.339-1.885-1.528 0-2.485.865-2.549 2.1h1.182c.053-.703.532-1.094 1.299-1.094.747 0 1.191.459 1.191 1.04 0 .64-.498 1.089-1.221 1.089h-.859zm52.776 0h.884c.869 0 1.397.435 1.397 1.143 0 .684-.572 1.143-1.382 1.143-.816 0-1.367-.42-1.421-1.075h-1.206c.058 1.275 1.108 2.11 2.641 2.11 1.524 0 2.657-.879 2.657-2.09 0-.962-.601-1.582-1.558-1.729v-.083c.747-.2 1.279-.761 1.284-1.611.005-1.011-.84-1.885-2.339-1.885-1.528 0-2.485.865-2.548 2.1h1.181c.054-.703.532-1.094 1.299-1.094.747 0 1.191.459 1.191 1.04 0 .64-.498 1.089-1.22 1.089h-.86zm5.203 4.654 2.529-8.911h-1.088l-2.535 8.911zm3.133-6.47h1.181c0-.742.488-1.25 1.255-1.25.737 0 1.177.493 1.177 1.133 0 .537-.215.874-1.104 1.772l-2.441 2.456v.85h4.892v-1.045h-3.183v-.083l1.514-1.489c1.211-1.187 1.567-1.758 1.567-2.578 0-1.172-.952-2.027-2.354-2.027-1.469 0-2.504.928-2.504 2.261zm8.728 5.132c1.792 0 2.856-1.401 2.856-3.779 0-2.334-1.133-3.614-2.817-3.614-1.533 0-2.617 1.031-2.617 2.471 0 1.353.976 2.339 2.319 2.339.825 0 1.494-.381 1.826-1.05h.083c-.015 1.655-.605 2.603-1.636 2.603-.605 0-1.089-.332-1.24-.87h-1.255c.205 1.148 1.192 1.9 2.481 1.9zm.044-3.555c-.821 0-1.387-.576-1.387-1.406 0-.796.596-1.406 1.392-1.406.795 0 1.391.62 1.391 1.43 0 .801-.581 1.382-1.396 1.382zm50.538 3.384h1.206v-1.353h.952v-1.04h-.952v-4.653h-1.777c-1.002221 1.526033-1.95963 3.08103-2.871 4.663v1.03h3.442zm-2.275-2.437c.708394-1.22144 1.450682-2.422906 2.226-3.603h.068v3.677h-2.294zm6.018 3.946 2.529-8.911h-1.089l-2.534 8.911zm6.33-1.509h1.206v-1.353h.953v-1.04h-.953v-4.653h-1.777c-1.002221 1.526033-1.95963 3.08103-2.871 4.663v1.03h3.442zm-2.275-2.437c.708727-1.22145 1.451348-2.422916 2.227-3.603h.068v3.677h-2.295z" fill="#8b949e" fill-rule="nonzero"/></g></svg>