<svg width="200" height="200" viewBox="0 0 200 200" fill="none" xmlns="http://www.w3.org/2000/svg">
<mask id="mask0_1905_1236" style="mask-type:alpha" maskUnits="userSpaceOnUse" x="32" y="38" width="136" height="124">
<rect x="32" y="38.4998" width="136" height="123.5" fill="white"/>
</mask>
<g mask="url(#mask0_1905_1236)">
<mask id="mask1_1905_1236" style="mask-type:luminance" maskUnits="userSpaceOnUse" x="100" y="132" width="42" height="43">
<rect width="29.424" height="29.424" transform="matrix(-0.70606 0.708152 0.70606 0.708152 120.775 132.507)" fill="white"/>
</mask>
<g mask="url(#mask1_1905_1236)">
<path fill-rule="evenodd" clip-rule="evenodd" d="M141.55 153.344C130.076 164.852 111.474 164.852 99.9999 153.344C88.5262 141.836 88.5262 123.178 99.9999 111.671C111.474 100.163 130.076 100.163 141.55 111.671C153.024 123.178 153.024 141.836 141.55 153.344Z" fill="#00B4EE"/>
</g>
<mask id="mask2_1905_1236" style="mask-type:luminance" maskUnits="userSpaceOnUse" x="37" y="111" width="43" height="43">
<rect width="29.424" height="29.424" transform="matrix(-0.70606 0.708152 -0.70606 -0.708152 79.2249 132.507)" fill="white"/>
</mask>
<g mask="url(#mask2_1905_1236)">
<path fill-rule="evenodd" clip-rule="evenodd" d="M58.4498 111.671C46.976 123.178 46.976 141.836 58.4498 153.344C69.9235 164.852 88.5262 164.852 99.9999 153.344C111.474 141.836 111.474 123.178 99.9999 111.671C88.5262 100.163 69.9235 100.163 58.4498 111.671Z" fill="#00C0FA"/>
</g>
<mask id="mask3_1905_1236" style="mask-type:luminance" maskUnits="userSpaceOnUse" x="58" y="132" width="42" height="43">
<rect width="29.424" height="29.424" transform="matrix(-0.70606 0.708152 0.70606 0.708152 79.2249 132.507)" fill="white"/>
</mask>
<g mask="url(#mask3_1905_1236)">
<path fill-rule="evenodd" clip-rule="evenodd" d="M99.9999 153.344C88.5262 164.852 69.9235 164.852 58.4498 153.344C46.976 141.836 46.976 123.178 58.4498 111.671C69.9235 100.163 88.5262 100.163 99.9999 111.671C111.474 123.178 111.474 141.836 99.9999 153.344Z" fill="#00B4EE"/>
</g>
<mask id="mask4_1905_1236" style="mask-type:luminance" maskUnits="userSpaceOnUse" x="79" y="69" width="42" height="43">
<rect width="29.424" height="29.424" transform="matrix(0.70606 -0.708152 -0.70606 -0.708152 100 111.671)" fill="white"/>
</mask>
<g mask="url(#mask4_1905_1236)">
<path fill-rule="evenodd" clip-rule="evenodd" d="M79.2249 90.8341C90.6987 79.3263 109.301 79.3263 120.775 90.8341C132.249 102.342 132.249 121 120.775 132.507C109.301 144.015 90.6987 144.015 79.2249 132.507C67.7512 121 67.7512 102.342 79.2249 90.8341Z" fill="#00E2FF"/>
</g>
<rect width="29.424" height="29.424" transform="matrix(-0.70606 0.708152 -0.70606 -0.708152 120.775 132.507)" fill="#00C0FA"/>
<rect width="29.424" height="29.424" transform="matrix(-0.70606 0.708152 -0.70606 -0.708152 141.55 111.671)" fill="#00CEFC"/>
<rect width="29.424" height="29.424" transform="matrix(-0.70606 0.708152 -0.70606 -0.708152 99.9999 111.671)" fill="#00CEFC"/>
<mask id="mask5_1905_1236" style="mask-type:luminance" maskUnits="userSpaceOnUse" x="120" y="111" width="43" height="43">
<rect width="29.424" height="29.424" transform="matrix(0.70606 -0.708152 0.70606 0.708152 120.775 132.507)" fill="white"/>
</mask>
<g mask="url(#mask5_1905_1236)">
<path fill-rule="evenodd" clip-rule="evenodd" d="M141.55 153.344C153.024 141.836 153.024 123.178 141.55 111.671C130.076 100.163 111.474 100.163 99.9999 111.671C88.5262 123.178 88.5262 141.836 99.9999 153.344C111.474 164.852 130.076 164.852 141.55 153.344Z" fill="#00C0FA"/>
</g>
<path fill-rule="evenodd" clip-rule="evenodd" d="M79.5269 71.8105C88.8148 71.8105 96.3441 64.3537 96.3441 55.1551C96.3441 45.9566 88.8148 38.4998 79.5269 38.4998C70.239 38.4998 62.7097 45.9566 62.7097 55.1551C62.7097 64.3537 70.239 71.8105 79.5269 71.8105Z" fill="#00CEFC"/>
<path fill-rule="evenodd" clip-rule="evenodd" d="M48.8172 99.3281C58.1051 99.3281 65.6344 91.8712 65.6344 82.6727C65.6344 73.4742 58.1051 66.0173 48.8172 66.0173C39.5293 66.0173 32 73.4742 32 82.6727C32 91.8712 39.5293 99.3281 48.8172 99.3281Z" fill="#00CEFC"/>
<path fill-rule="evenodd" clip-rule="evenodd" d="M120.473 71.8105C129.761 71.8105 137.29 64.3537 137.29 55.1551C137.29 45.9566 129.761 38.4998 120.473 38.4998C111.185 38.4998 103.656 45.9566 103.656 55.1551C103.656 64.3537 111.185 71.8105 120.473 71.8105Z" fill="#00CEFC"/>
<path fill-rule="evenodd" clip-rule="evenodd" d="M151.183 99.3281C160.471 99.3281 168 91.8712 168 82.6727C168 73.4742 160.471 66.0173 151.183 66.0173C141.895 66.0173 134.366 73.4742 134.366 82.6727C134.366 91.8712 141.895 99.3281 151.183 99.3281Z" fill="#00CEFC"/>
</g>
</svg>
