<?xml version="1.0" encoding="utf-8"?>
<!-- Generator: Adobe Illustrator 17.0.2, SVG Export Plug-In . SVG Version: 6.00 Build 0)  -->
<!DOCTYPE svg PUBLIC "-//W3C//DTD SVG 1.1//EN" "http://www.w3.org/Graphics/SVG/1.1/DTD/svg11.dtd">
<svg version="1.1" id="Layer_1" xmlns="http://www.w3.org/2000/svg" xmlns:xlink="http://www.w3.org/1999/xlink" x="0px" y="0px"
	 width="197.2px" height="42.2px" viewBox="0 0 197.2 42.2" style="enable-background:new 0 0 197.2 42.2;" xml:space="preserve">
<style type="text/css">
	.st0{fill:#F1F2F2;}
</style>
<g>
	<path class="st0" d="M14.4,6.2v25.5H7.6V6.2H0V0h22v6.2H14.4z"/>
	<path class="st0" d="M31.3,0v11.3c1.5-0.8,3.2-1.4,5.5-1.4c5.7,0,7.4,3,7.4,7.1v14.6h-6.8V18.1c0-1.6-0.5-2.6-2.4-2.6
		c-1.6,0-3.1,0.7-3.8,1.1v15.1h-6.8V0H31.3z"/>
	<path class="st0" d="M58.7,16.9c0-1-0.7-1.5-2.5-1.5c-2.7,0-5.7,0.8-7.6,1.6v-5.7c1.4-0.6,4.6-1.4,7.6-1.4c7.6,0,9,3.2,9,8v13.7
		h-4.1l-0.9-1.6c-1.5,1.4-3.7,2.2-6.2,2.2c-5.4,0-7.2-3.5-7.2-6.7c0-5.7,4.2-6.5,8-6.9l3.8-0.4V16.9z M55.8,22.3
		c-1.9,0.3-2.7,1.2-2.7,2.8c0,1.6,1,2.5,2.4,2.5c1.2,0,2.4-0.3,3-1v-4.7L55.8,22.3z"/>
	<path class="st0" d="M72.8,10.6l0.8,1.5c2.4-1.4,5-2.1,7.3-2.1c5.7,0,7.4,3,7.4,7.1v14.6h-6.8V18.1c0-1.6-0.5-2.6-2.4-2.6
		c-1.6,0-3.1,0.7-3.8,1.1v15.1h-6.8V10.6H72.8z"/>
	<path class="st0" d="M98.6,17.3l5.4-6.8h8.4l-8.2,8.6l8.8,12.5h-8.2l-4.9-8l-1.4,1.4v6.5H92V0h6.5V17.3z"/>
	<path class="st0" d="M128.9,10.6l3.5,12.4l3.5-12.4h7.3l-12.1,31.7h-7.4l5.5-11.9l-7.6-19.7H128.9z"/>
	<path class="st0" d="M144,21.1c0-6.6,2.1-11.1,9.9-11.1s9.9,4.6,9.9,11.1c0,6.6-2.1,11.1-9.9,11.1S144,27.7,144,21.1z M150.8,21.1
		c0,4.2,0.8,5.7,3.2,5.7s3.2-1.5,3.2-5.7c0-4.2-0.8-5.7-3.2-5.7S150.8,16.9,150.8,21.1z"/>
	<path class="st0" d="M182.2,31.7l-0.8-1.5c-2.4,1.4-5,2.1-7.3,2.1c-5.7,0-7.4-3-7.4-7.1V10.6h6.8v13.6c0,1.6,0.5,2.6,2.4,2.6
		c1.6,0,3.1-0.7,3.8-1.1V10.6h6.8v21.1H182.2z"/>
	<path class="st0" d="M193.2,24.2c2.2,0,4,1.8,4,4c0,2.3-1.8,4-4,4c-2.3,0-4-1.7-4-4C189.2,26,190.9,24.2,193.2,24.2z"/>
</g>
</svg>
