<svg version="1.1" id="Layer_3" xmlns="http://www.w3.org/2000/svg" x="0" y="0" viewBox="0 0 75.9 72.9" xml:space="preserve"><style>.st0{fill:#79b8ff}.st1{fill:#2188ff}</style><path class="st0" d="M10.2 7.6c0-.7.6-1.4 1.4-1.4h46c.7 0 1.4.6 1.4 1.4v21.6c0 .7.6 1.4 1.4 1.4.7 0 1.4-.6 1.4-1.4V7.6c0-2.2-1.8-4.1-4.1-4.1h-46c-2.2 0-4.1 1.8-4.1 4.1v21.6c0 .7.6 1.4 1.4 1.4.7 0 1.4-.6 1.4-1.4V7.6z"/><path class="st0" d="M15.7 16.1c0-.8.6-1.4 1.4-1.4h19.7c.8 0 1.4.6 1.4 1.4 0 .8-.6 1.4-1.4 1.4H17.1c-.8 0-1.4-.6-1.4-1.4zM40.8 16.1c0-.8.6-1.4 1.4-1.4h9.9c.8 0 1.4.6 1.4 1.4 0 .8-.6 1.4-1.4 1.4h-9.9c-.7 0-1.4-.6-1.4-1.4zM31.3 22.8c-.8 0-1.4.6-1.4 1.4 0 .8.6 1.4 1.4 1.4h20.8c.8 0 1.4-.6 1.4-1.4 0-.8-.6-1.4-1.4-1.4H31.3zM15.7 24.2c0-.8.6-1.4 1.4-1.4h8.8c.8 0 1.4.6 1.4 1.4 0 .8-.6 1.4-1.4 1.4h-8.8c-.8.1-1.4-.6-1.4-1.4z"/><path class="st1" d="M15.2 45.4c0-.7.6-1.4 1.4-1.4h30.7c.7 0 1.4.6 1.4 1.4 0 .7-.6 1.4-1.4 1.4H16.5c-.7 0-1.3-.7-1.3-1.4zM58.8 58.9c.7 0 1.4-.6 1.4-1.4v-4.1c0-.7-.6-1.4-1.4-1.4s-1.4.6-1.4 1.4v4.1c.1.8.7 1.4 1.4 1.4zM60.2 61.6c0-.7-.6-1.4-1.4-1.4s-1.4.6-1.4 1.4c0 .7.6 1.4 1.4 1.4s1.4-.7 1.4-1.4z"/><path d="M6 34.4c.8-.8 1.8-1.2 2.9-1.2l51.4.1c2.2 0 4 1.8 4 4.1v9.3c4 2 6.8 6.1 6.8 10.9 0 6.7-5.4 12.2-12.2 12.2-6.7 0-12.2-5.4-12.2-12.2H8.9c-2.2 0-4.1-1.8-4.1-4.1V37.3c0-1.1.5-2.1 1.2-2.9zm41 20.5c1.2-5.4 6.1-9.5 11.9-9.5.9 0 1.8.1 2.7.3v-8.3c0-.7-.6-1.4-1.3-1.4l-51.4-.1c-.4 0-.7.1-1 .4-.3.3-.4.6-.4 1v16.2c0 .7.6 1.4 1.4 1.4H47zm2.4 2.7c0-5.2 4.2-9.5 9.5-9.5s9.5 4.2 9.5 9.5-4.3 9.4-9.5 9.4-9.5-4.2-9.5-9.4z" fill-rule="evenodd" clip-rule="evenodd" fill="#2188ff"/></svg>