<?xml version="1.0" encoding="utf-8"?>
<!-- Generator: Adobe Illustrator 25.3.1, SVG Export Plug-In . SVG Version: 6.00 Build 0)  -->
<svg version="1.1" id="Layer_3" xmlns="http://www.w3.org/2000/svg" xmlns:xlink="http://www.w3.org/1999/xlink" x="0px" y="0px"
	 viewBox="0 0 75.9 72.9" style="enable-background:new 0 0 75.9 72.9;" xml:space="preserve">
<style type="text/css">
	.st0{fill:#79B8FF;}
	.st1{fill:#2188FF;}
	.st2{fill-rule:evenodd;clip-rule:evenodd;fill:#2188FF;}
</style>
<path class="st0" d="M10.2,7.6c0-0.7,0.6-1.4,1.4-1.4h46c0.7,0,1.4,0.6,1.4,1.4v21.6c0,0.7,0.6,1.4,1.4,1.4c0.7,0,1.4-0.6,1.4-1.4
	V7.6c0-2.2-1.8-4.1-4.1-4.1h-46c-2.2,0-4.1,1.8-4.1,4.1v21.6c0,0.7,0.6,1.4,1.4,1.4c0.7,0,1.4-0.6,1.4-1.4V7.6z"/>
<path class="st0" d="M15.7,16.1c0-0.8,0.6-1.4,1.4-1.4h19.7c0.8,0,1.4,0.6,1.4,1.4c0,0.8-0.6,1.4-1.4,1.4H17.1
	C16.3,17.5,15.7,16.9,15.7,16.1z"/>
<path class="st0" d="M40.8,16.1c0-0.8,0.6-1.4,1.4-1.4h9.9c0.8,0,1.4,0.6,1.4,1.4c0,0.8-0.6,1.4-1.4,1.4h-9.9
	C41.5,17.5,40.8,16.9,40.8,16.1z"/>
<path class="st0" d="M31.3,22.8c-0.8,0-1.4,0.6-1.4,1.4c0,0.8,0.6,1.4,1.4,1.4h20.8c0.8,0,1.4-0.6,1.4-1.4c0-0.8-0.6-1.4-1.4-1.4
	H31.3z"/>
<path class="st0" d="M15.7,24.2c0-0.8,0.6-1.4,1.4-1.4h8.8c0.8,0,1.4,0.6,1.4,1.4c0,0.8-0.6,1.4-1.4,1.4h-8.8
	C16.3,25.7,15.7,25,15.7,24.2z"/>
<path class="st1" d="M15.2,45.4c0-0.7,0.6-1.4,1.4-1.4h30.7c0.7,0,1.4,0.6,1.4,1.4c0,0.7-0.6,1.4-1.4,1.4H16.5
	C15.8,46.8,15.2,46.1,15.2,45.4z"/>
<path class="st1" d="M58.8,58.9c0.7,0,1.4-0.6,1.4-1.4v-4.1c0-0.7-0.6-1.4-1.4-1.4s-1.4,0.6-1.4,1.4v4.1
	C57.5,58.3,58.1,58.9,58.8,58.9z"/>
<path class="st1" d="M60.2,61.6c0-0.7-0.6-1.4-1.4-1.4s-1.4,0.6-1.4,1.4c0,0.7,0.6,1.4,1.4,1.4S60.2,62.3,60.2,61.6z"/>
<path class="st2" d="M6,34.4c0.8-0.8,1.8-1.2,2.9-1.2l51.4,0.1c2.2,0,4,1.8,4,4.1v9.3c4,2,6.8,6.1,6.8,10.9
	c0,6.7-5.4,12.2-12.2,12.2c-6.7,0-12.2-5.4-12.2-12.2H8.9c-2.2,0-4.1-1.8-4.1-4.1V37.3C4.8,36.2,5.3,35.2,6,34.4z M47,54.9
	c1.2-5.4,6.1-9.5,11.9-9.5c0.9,0,1.8,0.1,2.7,0.3v-8.3c0-0.7-0.6-1.4-1.3-1.4L8.9,35.9c-0.4,0-0.7,0.1-1,0.4c-0.3,0.3-0.4,0.6-0.4,1
	v16.2c0,0.7,0.6,1.4,1.4,1.4H47z M49.4,57.6c0-5.2,4.2-9.5,9.5-9.5s9.5,4.2,9.5,9.5S64.1,67,58.9,67S49.4,62.8,49.4,57.6z"/>
</svg>
