<svg fill="none" height="48" viewBox="0 0 91 48" width="91" xmlns="http://www.w3.org/2000/svg"><path clip-rule="evenodd" d="m6.83287 33.5057c-.68037-.7341-1.21277-1.618-1.59733-2.6517-.38456-1.0338-.57679-2.1797-.57679-3.4382v-19.4158h-4.65875v19.6854c0 1.8578.303168 3.5431.909602 5.0562.606338 1.5132 1.434648 2.8089 2.484648 3.8876 1.04999 1.0787 2.29241 1.9101 3.72696 2.4944 1.43465.5842 2.98009.8764 4.63669.8764 1.6269 0 3.1427-.2996 4.5478-.8988 1.405-.5994 2.6252-1.4533 3.6605-2.5619v2.9214h4.6144v-31.4607h-4.6588v19.4158c0 1.2585-.1922 2.397-.5768 3.4157-.3845 1.0187-.9244 1.8951-1.6195 2.6292-.6951.734-1.5085 1.3033-2.4403 1.7078-.9317.4046-1.93.6068-2.9949.6068-1.0945 0-2.1076-.1947-3.03935-.5842-.9317-.3895-1.73772-.9513-2.41808-1.6854zm25.77833-14.045v-11.4607h-4.4812v31.4606h4.4368v-2.8764c1.0353 1.0486 2.2407 1.8801 3.6162 2.4943 1.3754.6143 2.8617.9214 4.459.9214 1.6565 0 3.2093-.3146 4.6588-.9438 1.4494-.6292 2.7064-1.4831 3.7713-2.5618 1.0649-1.0786 1.908-2.3445 2.5291-3.7978.6212-1.4531.9317-3.0037.9317-4.6515 0-1.648-.3105-3.206-.9317-4.6743-.6211-1.4681-1.4642-2.7414-2.5291-3.8201-1.0649-1.0788-2.3219-1.9327-3.7713-2.5619-1.4495-.6292-3.0022-.9438-4.6588-.9438-1.5972 0-3.0762.3071-4.4368.9214-1.3607.6143-2.5587 1.4457-3.594 2.4944zm2.1741 14.2023c-.7099-.7191-1.2646-1.5581-1.6639-2.5169-.3992-.9588-.5989-1.9925-.5988-3.1011 0-1.1087.207-2.1499.6211-3.1237s.9762-1.8202 1.686-2.5393c.71-.719 1.5382-1.2808 2.4847-1.6853.9466-.4046 1.9523-.6068 3.0171-.6068s2.0704.2023 3.0171.6068c.9466.4044 1.7673.9663 2.4625 1.6853.6951.7191 1.2497 1.5655 1.6638 2.5393s.6212 2.015.6212 3.1237c0 1.1086-.2071 2.1423-.6212 3.1011s-.9687 1.7979-1.6638 2.5169c-.6953.7192-1.516 1.2884-2.4625 1.7079-.9466.4195-1.9522.6292-3.0171.6292-1.0945 0-2.1149-.2097-3.0615-.6292-.9465-.4195-1.7748-.9888-2.4847-1.7079zm20.2757-10.2474c.5916-1.4382 1.4051-2.7041 2.4403-3.7977 1.0352-1.0937 2.2629-1.9551 3.6827-2.5843s2.958-.9438 4.6144-.9438c1.6269 0 3.1354.2997 4.5257.8989 1.3902.5992 2.5881 1.4307 3.5938 2.4944 1.0058 1.0636 1.7897 2.3221 2.3516 3.7752.562 1.4533.843 3.0338.843 4.7417v1.4832h-18.4131c.1479.9288.4437 1.7902.8874 2.5841.4437.794.9982 1.4832 1.6638 2.0674.6655.5844 1.4198 1.0414 2.2628 1.3708.8431.3296 1.7377.4945 2.6844.4945 2.6918 0 4.8659-1.1237 6.5223-3.3709l3.2389 2.4269c-1.124 1.5281-2.5142 2.7267-4.1706 3.5956-1.6565.8688-3.52 1.3033-5.5905 1.3033-1.6861 0-3.2612-.2997-4.7254-.8989s-2.736-1.4382-3.8157-2.5169c-1.0796-1.0787-1.93-2.3446-2.5512-3.7977-.6211-1.4532-.9318-3.0338-.9318-4.7416-.0002-1.6179.2957-3.146.8872-4.5842zm6.2339-1.7754c-1.2571 1.0637-2.0927 2.4795-2.5068 4.2472h13.7989c-.3846-1.7677-1.2054-3.1835-2.4626-4.2472-1.2571-1.0636-2.7287-1.5954-4.4147-1.5954s-3.1576.5318-4.4148 1.5954zm22.7831 4.7867c0-1.7978.4733-3.221 1.4199-4.2697.9465-1.0487 2.1592-1.573 3.6382-1.5731h1.8634v-4.2247h-1.5528c-1.2424 0-2.3147.2697-3.2168.8091-.9022.5393-1.6343 1.2734-2.1963 2.2023v-2.8315h-4.4369v22.9214h4.4813z" fill="#8b949e" fill-rule="evenodd"/></svg>