<?xml version="1.0" encoding="utf-8"?>
<!-- Generator: Adobe Illustrator 25.4.1, SVG Export Plug-In . SVG Version: 6.00 Build 0)  -->
<svg version="1.1" id="Layer_1" xmlns="http://www.w3.org/2000/svg" xmlns:xlink="http://www.w3.org/1999/xlink" x="0px" y="0px"
	 viewBox="0 0 58 58" style="enable-background:new 0 0 58 58;" xml:space="preserve">
<style type="text/css">
	.st0-12505876-135982576-1342982350{fill:url(#SVGID_1_);}
	.st1-12505876-135982576-1342982351{fill:url(#SVGID_00000062159663381582819100000014201912184321235328_);}
	.st2-12505876-135982576-1342982352{fill:url(#SVGID_00000083089968622170755970000004557742263268766654_);}
	.st3-12505876-135982576-1342982353{fill:url(#SVGID_00000060734548138004510240000009874085617146023564_);}
	.st4-12505876-135982576-1342982354{fill:url(#SVGID_00000102534705512282387360000014064808296458092422_);}
	.st5-12505876-135982576-1342982355{fill:url(#SVGID_00000155111249960328590720000014437407525828890268_);}
	.st6-12505876-135982576-1342982356{fill:url(#SVGID_00000091001910640648628150000014566420296709339028_);}
	.st7-12505876-135982576-1342982357{fill:url(#SVGID_00000137839018260454836890000014188495175512898219_);}
	.st8-12505876-135982576-1342982358{fill:url(#SVGID_00000135677667227889168060000014472221018480261050_);}
	.st9-12505876-135982576-1342982359{fill:url(#SVGID_00000018933835341531502230000000831466172531715487_);}
	.st10-12505876-135982576-1342982360{fill:url(#SVGID_00000031885830684075510550000001299560876887742348_);}
</style>
<g>

		<linearGradient id="SVGID_1_" gradientUnits="userSpaceOnUse" x1="-11.1678" y1="-653.5328" x2="54.2422" y2="-718.9529" gradientTransform="matrix(1 0 0 -1 0 -652.72)">
		<stop  offset="0" style="stop-color:#005CA9"/>
		<stop  offset="1" style="stop-color:#E8308A"/>
	</linearGradient>
	<path class="st0-12505876-135982576-1342982350" d="M17,14L17,14c1.7,0,3,1.3,3,3v24c0,1.7-1.3,3-3,3l0,0c-1.7,0-3-1.3-3-3V17C14,15.3,15.3,14,17,14z"/>

		<linearGradient id="SVGID_00000140010220858681722250000014858928571469589926_" gradientUnits="userSpaceOnUse" x1="-17.2368" y1="-659.6118" x2="48.1632" y2="-725.0218" gradientTransform="matrix(1 0 0 -1 0 -652.72)">
		<stop  offset="0" style="stop-color:#005CA9"/>
		<stop  offset="1" style="stop-color:#E8308A"/>
	</linearGradient>
	<path style="fill:url(#SVGID_00000140010220858681722250000014858928571469589926_);" d="M8,17.2V41c0,1.7-1.3,3-3,3l0,0
		c-1.7,0-3-1.3-3-3V17.2c0-1.7,1.3-3,3-3l0,0C6.6,14.3,8,15.6,8,17.2z"/>

		<linearGradient id="SVGID_00000183953359367477865750000015551854185135263931_" gradientUnits="userSpaceOnUse" x1="0.8388" y1="-641.5262" x2="66.2588" y2="-706.9362" gradientTransform="matrix(1 0 0 -1 0 -652.72)">
		<stop  offset="0" style="stop-color:#005CA9"/>
		<stop  offset="1" style="stop-color:#E8308A"/>
	</linearGradient>
	<circle style="fill:url(#SVGID_00000183953359367477865750000015551854185135263931_);" cx="17" cy="5" r="3"/>

		<linearGradient id="SVGID_00000091000815568641984880000011302638113479897243_" gradientUnits="userSpaceOnUse" x1="-23.16" y1="-665.535" x2="42.25" y2="-730.945" gradientTransform="matrix(1 0 0 -1 0 -652.72)">
		<stop  offset="0" style="stop-color:#005CA9"/>
		<stop  offset="1" style="stop-color:#E8308A"/>
	</linearGradient>
	<circle style="fill:url(#SVGID_00000091000815568641984880000011302638113479897243_);" cx="17" cy="53" r="3"/>

		<linearGradient id="SVGID_00000153695876810495760860000009165249819607176606_" gradientUnits="userSpaceOnUse" x1="-11.1669" y1="-653.5319" x2="54.2431" y2="-718.952" gradientTransform="matrix(1 0 0 -1 0 -652.72)">
		<stop  offset="0" style="stop-color:#005CA9"/>
		<stop  offset="1" style="stop-color:#E8308A"/>
	</linearGradient>
	<path style="fill:url(#SVGID_00000153695876810495760860000009165249819607176606_);" d="M29,26L29,26c1.7,0,3,1.3,3,3v24
		c0,1.7-1.3,3-3,3l0,0c-1.7,0-3-1.3-3-3V29C26,27.3,27.3,26,29,26z"/>

		<linearGradient id="SVGID_00000126295420742958150510000000934883792434039177_" gradientUnits="userSpaceOnUse" x1="6.815" y1="-635.56" x2="72.225" y2="-700.97" gradientTransform="matrix(1 0 0 -1 0 -652.72)">
		<stop  offset="0" style="stop-color:#005CA9"/>
		<stop  offset="1" style="stop-color:#E8308A"/>
	</linearGradient>
	<circle style="fill:url(#SVGID_00000126295420742958150510000000934883792434039177_);" cx="29" cy="5" r="3"/>

		<linearGradient id="SVGID_00000018957786843451917760000016569495689333702562_" gradientUnits="userSpaceOnUse" x1="0.7979" y1="-641.5671" x2="66.2179" y2="-706.9771" gradientTransform="matrix(1 0 0 -1 0 -652.72)">
		<stop  offset="0" style="stop-color:#005CA9"/>
		<stop  offset="1" style="stop-color:#E8308A"/>
	</linearGradient>
	<circle style="fill:url(#SVGID_00000018957786843451917760000016569495689333702562_);" cx="29" cy="17" r="3"/>

		<linearGradient id="SVGID_00000151522527733397702570000012369370605997877416_" gradientUnits="userSpaceOnUse" x1="6.815" y1="-635.56" x2="72.225" y2="-700.97" gradientTransform="matrix(1 0 0 -1 0 -652.72)">
		<stop  offset="0" style="stop-color:#005CA9"/>
		<stop  offset="1" style="stop-color:#E8308A"/>
	</linearGradient>
	<circle style="fill:url(#SVGID_00000151522527733397702570000012369370605997877416_);" cx="41" cy="17" r="3"/>

		<linearGradient id="SVGID_00000043451852803472058150000006788635141134656426_" gradientUnits="userSpaceOnUse" x1="0.84" y1="-641.525" x2="66.25" y2="-706.935" gradientTransform="matrix(1 0 0 -1 0 -652.72)">
		<stop  offset="0" style="stop-color:#005CA9"/>
		<stop  offset="1" style="stop-color:#E8308A"/>
	</linearGradient>
	<circle style="fill:url(#SVGID_00000043451852803472058150000006788635141134656426_);" cx="41" cy="29" r="3"/>

		<linearGradient id="SVGID_00000126281056096415979700000002071547065017010837_" gradientUnits="userSpaceOnUse" x1="-5.17" y1="-647.535" x2="60.25" y2="-712.955" gradientTransform="matrix(1 0 0 -1 0 -652.72)">
		<stop  offset="0" style="stop-color:#005CA9"/>
		<stop  offset="1" style="stop-color:#E8308A"/>
	</linearGradient>
	<circle style="fill:url(#SVGID_00000126281056096415979700000002071547065017010837_);" cx="41" cy="41" r="3"/>

		<linearGradient id="SVGID_00000063595946047550955030000013716430832579879577_" gradientUnits="userSpaceOnUse" x1="6.835" y1="-635.54" x2="72.245" y2="-700.95" gradientTransform="matrix(1 0 0 -1 0 -652.72)">
		<stop  offset="0" style="stop-color:#005CA9"/>
		<stop  offset="1" style="stop-color:#E8308A"/>
	</linearGradient>
	<path style="fill:url(#SVGID_00000063595946047550955030000013716430832579879577_);" d="M53,14L53,14c1.7,0,3,1.3,3,3v24
		c0,1.7-1.3,3-3,3l0,0c-1.7,0-3-1.3-3-3V17C50,15.3,51.3,14,53,14z"/>
</g>
</svg>
