<svg xmlns="http://www.w3.org/2000/svg" width="200" height="200" viewBox="0 0 200 200"><g fill="none"><path fill="#292B68" d="M0 0h200v200H0z"/><path fill="#FFC432" d="M145.02 90.24c-.3 1.36 3.59-34.54-24.12-47.89v40.71h-6.12V33.94H85.25v49.12h-6.18V42.35c-30.53 14.7-24.12 47.89-24.12 47.89h-6.7v9.46h103.49v-9.46h-6.72z"/><g fill="#FFF"><path d="M151.72 127.83v-19.27h-29.65v5.09c0 12.15-9.94 22.09-22.09 22.09s-22.09-9.94-22.09-22.09v-5.09H48.24v19.27h12.04l3.88 8.65-8.13 7.17 14.88 15.82 8.5-8.57 9.21 3.95v11.21h22.71v-11.21l9.21-3.95 8.5 8.57 14.88-15.82-8.13-7.17 3.88-8.65h12.05z"/><path d="M122.06 109.26v-.69h-.03c.01.22.03.45.03.69zm-44.14-.7h-.03v.69c0-.23.02-.46.03-.69z"/></g></g></svg>