<svg fill="none" height="138" viewBox="0 0 138 138" width="138" xmlns="http://www.w3.org/2000/svg"><g stroke="#fff"><path d="m133.595 46.2019-.167-.4715-.471.1664-34.8827 12.3115-.4715.1664.1664.4715c1.1208 3.1756 1.7308 6.5929 1.7308 10.1538 0 16.8447-13.6553 30.5-30.5 30.5s-30.5-13.6553-30.5-30.5 13.6553-30.5 30.5-30.5h.5v-.5-37-.5h-.5c-14.5393 0-28.7015 4.62619-40.4372 13.2091-11.7356 8.5829-20.43596 20.6773-24.84188 34.533-4.405931 13.8557-4.288919 28.7539.3341 42.5386 4.62302 13.7843 13.51228 25.7413 25.38128 34.1383 11.869 8.398 26.1021 12.801 40.6396 12.573 14.5376-.229 28.6254-5.077 40.2251-13.843 11.599-8.766 20.108-20.996 24.296-34.919 4.188-13.9232 3.837-28.8177-1.002-42.5281z" fill="#ffea7f"/><path d="m69 .5h-.5v.5 37 .5h.5c13.2839 0 24.5855 8.4927 28.7691 20.3462l.1664.4715.4715-.1664 34.883-12.3115.471-.1664-.166-.4715c-4.717-13.3639-13.462-24.9359-25.031-33.1211-11.5693-8.18528-25.3922-12.5808-39.564-12.5808z" fill="#f9c513"/></g></svg>