<svg fill="none" height="138" viewBox="0 0 138 138" width="138" xmlns="http://www.w3.org/2000/svg"><g stroke="#fff"><path d="m69.5108 1.00008.0001-.5-.5-.000079c-10.4102-.001657-20.6837 2.369389-30.0403 6.933049-9.3565 4.56365-17.5498 11.19985-23.9573 19.40435-6.4076 8.2045-10.8609 17.7616-13.02159 27.945-2.16068 10.1835-1.9719244 20.7255.55196 30.825 2.52389 10.0996 7.31646 19.4916 14.01363 27.4606 6.6972 7.97 15.1229 14.309 24.6368 18.535 9.5139 4.225 19.8658 6.227 30.2692 5.853 10.4034-.375 20.5847-3.115 29.7707-8.014l.441-.235-.235-.441-17.4085-32.6425-.2354-.4416-.4414.2359c-4.2776 2.286-9.164 3.5822-14.3547 3.5822-16.8447 0-30.5-13.6553-30.5-30.5s13.6553-30.5 30.5-30.5h.0049.4999l.0001-.4999z" fill="#e6dcfd"/><path d="m135.891 56.7599.491-.0936-.093-.4912c-2.985-15.6583-11.337-29.7856-23.617-39.9483-12.281-10.16262-27.721-15.7242-43.6612-15.726739l-.5-.00008-.0001.500001-.0058 36.999918-.0001.5.5.0001c14.8899.0023 27.2878 10.675 29.9613 24.7881l.0932.4918.4917-.0937z" fill="#d1bcf9"/><path d="m98.8119 75.4728-.1055.4882.4881.106 36.1515 7.8487.488.106.107-.4886c1.954-9.0031 2.073-18.3081.348-27.358l-.094-.4912-.491.0936-36.3402 6.9263-.4907.0935.093.4907c.3505 1.8499.5339 3.7593.5339 5.712 0 2.2216-.2374 4.3871-.6881 6.4728z" fill="#b392f0"/><path d="m99.4067 75.0898-.4891-.1062-.1057.4892c-.9374 4.3377-2.7975 8.3323-5.3653 11.768l-.2996.4008.4011.2993 29.6529 22.1261.401.299.299-.401c5.856-7.849 9.962-16.8618 12.04-26.4318l.106-.4887-.489-.106z" fill="#8a63d2"/><path d="m94.1461 87.1394-.4004-.2988-.2991.4002c-2.4487 3.2764-5.5406 6.0441-9.0882 8.1159l-.4313.2519.2515.4316 18.6264 31.9638.252.432.432-.252c7.96-4.638 14.902-10.835 20.412-18.219l.299-.401-.401-.299z" fill="#6f42c1"/><path d="m85.0426 95.5367-.252-.4324-.4321.2524c-.3307.1931-.6654.3802-1.0038.5611l-.4406.2354.235.4408 17.4079 32.642.235.441.442-.235c.759-.405 1.511-.824 2.255-1.258l.432-.252-.252-.432z" fill="#5a32a3"/></g></svg>