<svg fill="none" height="138" viewBox="0 0 138 138" width="138" xmlns="http://www.w3.org/2000/svg"><g stroke="#fff"><path d="m69.4614.999716-.0003-.5-.5.000284c-12.5598.007139-24.876 3.46731-35.6018 10.0022-10.7259 6.5349-19.4486 15.893-25.21451 27.0511-5.7659 11.1582-8.353027 23.6868-7.478522 36.2161.874502 12.5294 5.176972 24.5771 12.437032 34.8256 7.26 10.249 17.1982 18.305 28.7278 23.287 11.5297 4.981 24.2071 6.697 36.6461 4.959 12.4391-1.737 24.1608-6.862 33.8838-14.812 9.723-7.951 17.073-18.421 21.247-30.2676l.166-.4716-.472-.1661-34.8893-12.2917-.4716-.1662-.1661.4716c-4.179 11.8621-15.485 20.3626-28.775 20.3626-16.8447 0-30.5-13.6553-30.5-30.5 0-16.8389 13.646-30.4906 30.4827-30.5l.5-.0003-.0003-.5z" fill="#e6dcfd"/><path d="m124.532 29.7519.407-.2916-.292-.4062c-6.346-8.8407-14.708-16.0422-24.392-21.00777-9.6835-4.9656-20.4111-7.552444-31.2939-7.546258l-.5.000284.0003.500004.0211 36.99994.0002.4997h.4998.0089.0086c10.2064 0 19.242 5.0128 24.7793 12.7129l.2916.4056.4059-.2913z" fill="#d1bcf9"/><path d="m136.235 58.8181.494-.0785-.078-.4938c-1.675-10.5323-5.785-20.5282-12.004-29.1917l-.292-.4062-.406.2916-30.0554 21.5753-.4065.2918.2921.4063c2.7169 3.778 4.5907 8.2021 5.347 12.9975l.078.4945.4944-.0786z" fill="#b392f0"/><path d="m99.2152 73.1866-.0679.4947.4946.0685 36.6461 5.0769.495.0686.069-.4952c.927-6.6913.859-13.4829-.201-20.1543l-.079-.4938-.494.0785-36.5364 5.8081-.4932.0784.0778.4933c.2461 1.5601.3739 3.1598.3739 4.7897 0 1.4205-.0971 2.8181-.2849 4.1866z" fill="#8a63d2"/><path d="m99.7791 72.7592-.4959-.0687-.0681.496c-.2554 1.8612-.6788 3.6687-1.2542 5.4068l-.1571.4746.4745.1572 35.1157 11.6319.474.1572.157-.4746c1.31-3.9522 2.256-8.0156 2.827-12.1396l.069-.4952-.496-.0687z" fill="#6f42c1"/><path d="m98.5928 78.2759-.4747-.1573-.1572.4747c-.0603.1822-.1223.3635-.1859.5441l-.1661.4716.4715.1662 34.8896 12.2917.472.1661.166-.4716c.143-.4059.282-.8132.417-1.2218l.158-.4746-.475-.1573z" fill="#5a32a3"/></g></svg>