<svg enable-background="new 0 0 138 138" viewBox="0 0 138 138" xmlns="http://www.w3.org/2000/svg"><g stroke="#fff"><path d="m69.6 1v-.5h-.5c-12.1 0-24.1 3.2-34.6 9.3s-19.1 14.9-25.1 25.5-9 22.5-8.9 34.7 3.6 24 9.8 34.4c6.3 10.4 15.2 18.9 25.8 24.8 10.7 5.8 22.7 8.7 34.8 8.4s24-3.9 34.3-10.3 18.7-15.5 24.4-26.2l.2-.4-.4-.2-32.7-17.5-.4-.2-.3.4c-5.1 9.7-15.3 16.3-27 16.3-16.8 0-30.5-13.7-30.5-30.5s13.7-30.5 30.5-30.5h.5v-.5z" fill="#e6dcfd"/><path d="m125.6 31.3.4-.3-.3-.4c-6.3-9.3-14.7-16.8-24.6-22.1-9.9-5.2-20.9-8-32-8h-.5v.5l-.1 37v.5h.5c10.5 0 19.7 5.3 25.2 13.4l.3.4.4-.3z" fill="#d1bcf9"/><path d="m136.6 61.5.5-.1-.1-.5c-1.3-10.9-5.2-21.3-11.3-30.4l-.3-.4-.4.3-30.6 20.8-.4.3.3.4c2.7 3.9 4.5 8.5 5 13.5l.1.5.5-.1z" fill="#b392f0"/><path d="m98.8 75.7-.1.5.5.1 36.1 8.1.5.1.1-.5c1.7-7.6 2.1-15.4 1.2-23.1l-.1-.5-.5.1-36.7 4.4-.5.1.1.5c.1 1.2.2 2.4.2 3.6-.1 2.2-.4 4.4-.8 6.6z" fill="#8a63d2"/><path d="m99.4 75.3-.5-.1-.1.5c-.5 2.4-1.4 4.7-2.4 6.8l-.3.5.4.2 33.1 16.4.4.2.2-.4c2.4-4.9 4.3-10.1 5.5-15.4l.1-.5-.5-.1z" fill="#6f42c1"/><path d="m97 82.3-.4-.2-.2.4c-.1.2-.2.5-.3.7l-.2.4.4.2 32.7 17.3.4.2.2-.4c.3-.5.5-1 .8-1.5l.2-.4-.4-.2z" fill="#5a32a3"/></g></svg>