<svg fill="none" height="230" viewBox="0 0 136 230" width="136" xmlns="http://www.w3.org/2000/svg"><path d="m14.1943 226h1.274v-4.032h4.844v-1.106h-4.844v-3.906h5.404v-1.162h-6.678zm7.2286-10.206 3.808 6.076v4.13h1.26v-4.13l3.836-6.076h-1.526l-1.568 2.632-1.302 2.24h-.098l-1.288-2.226-1.582-2.646zm13.0964 9.114c-.658 0-1.386.028-1.974.084.196-1.204 1.61-2.03 2.87-2.94 1.176-.868 2.212-1.82 2.212-3.402 0-1.68-1.204-2.87-3.066-2.87-1.946 0-3.262 1.246-3.192 3.108h1.218c-.07-1.218.63-2.016 1.904-2.016 1.12 0 1.862.644 1.862 1.806 0 1.19-.826 1.89-1.806 2.59-1.582 1.134-3.304 2.156-3.304 4.382v.35h6.51v-1.092zm8.3328 1.176c1.946 0 3.458-1.61 3.458-5.166 0-3.528-1.498-5.138-3.458-5.138-1.988 0-3.486 1.596-3.486 5.138 0 3.556 1.498 5.166 3.486 5.166zm-.028-1.092c-1.456 0-2.184-1.428-2.184-4.088 0-2.562.686-4.046 2.198-4.046 1.442 0 2.184 1.386 2.184 4.074 0 2.548-.686 4.06-2.198 4.06zm-.63-3.5h1.218v-1.12h-1.218z" fill="#707a84"/><path d="m91.3427 226h1.274v-4.032h4.844v-1.106h-4.844v-3.906h5.404v-1.162h-6.678zm7.2286-10.206 3.8077 6.076v4.13h1.26v-4.13l3.836-6.076h-1.526l-1.568 2.632-1.302 2.24h-.098l-1.288-2.226-1.582-2.646zm13.0967 9.114c-.658 0-1.386.028-1.974.084.196-1.204 1.61-2.03 2.87-2.94 1.176-.868 2.212-1.82 2.212-3.402 0-1.68-1.204-2.87-3.066-2.87-1.946 0-3.262 1.246-3.192 3.108h1.218c-.07-1.218.63-2.016 1.904-2.016 1.12 0 1.862.644 1.862 1.806 0 1.19-.826 1.89-1.806 2.59-1.582 1.134-3.304 2.156-3.304 4.382v.35h6.51v-1.092zm4.636-6.328h2.646v7.42h1.204v-10.094h-1.12c-.168 1.106-1.064 1.75-2.422 1.75h-.308z" fill="#707a84"/><path d="m0 132v73h60v-73z" fill="#eaeef2"/><path d="m76 55v150h60v-150z" fill="#bce5ff"/><g fill="#24292f"><path d="m93.5799 76.14c2.016 0 3.444-1.19 3.444-2.968 0-.994-.476-1.974-1.652-2.366v-.084c1.022-.448 1.498-1.288 1.498-2.268 0-1.708-1.442-2.674-3.206-2.674-1.96 0-3.346 1.246-3.332 3.192h1.498c.014-1.218.672-1.904 1.792-1.904.966 0 1.736.518 1.736 1.512 0 .91-.616 1.638-1.848 1.638h-.77v1.176h.826c1.19 0 1.946.658 1.946 1.722 0 1.05-.77 1.75-1.918 1.75-1.092 0-1.876-.63-1.834-1.946h-1.498c-.028 1.932 1.218 3.22 3.318 3.22zm5.1888-.14h1.7083v-1.904h-1.7083zm6.6773.14c2.422 0 3.682-1.484 3.682-5.082 0-3.08-.994-5.278-3.598-5.278-2.086 0-3.402 1.4-3.402 3.416 0 2.002 1.26 3.318 3.066 3.318 1.036 0 1.876-.448 2.338-1.316h.07c.14 2.31-.518 3.682-2.086 3.682-.938 0-1.596-.476-1.722-1.302h-1.47c.168 1.526 1.4 2.562 3.122 2.562zm.042-4.858c-1.106 0-1.862-.756-1.862-2.086 0-1.302.714-2.128 1.862-2.128s1.904.84 1.904 2.086c0 1.134-.658 2.128-1.904 2.128zm5.268-3.08c0 1.526 1.022 2.562 2.478 2.562 1.484 0 2.492-1.036 2.492-2.548s-.994-2.534-2.492-2.534c-1.47 0-2.478 1.022-2.478 2.52zm1.82 7.798h1.036l6.468-10.206h-1.036zm-.714-7.798c0-.924.56-1.568 1.372-1.568.84 0 1.4.644 1.4 1.568 0 .938-.56 1.596-1.4 1.596-.826 0-1.372-.658-1.372-1.596zm4.886 5.376c0 1.526 1.008 2.562 2.492 2.562 1.47 0 2.464-1.05 2.464-2.548s-.98-2.562-2.464-2.562c-1.498 0-2.492 1.064-2.492 2.548zm1.092 0c0-.924.56-1.582 1.4-1.582.812 0 1.386.658 1.386 1.582 0 .938-.574 1.596-1.386 1.596-.826 0-1.4-.658-1.4-1.596z"/><path d="m15.0304 146.776h2.646v7.224h1.442v-10.094h-1.344c-.154 1.106-1.05 1.764-2.408 1.764h-.336zm6.8018 7.224h1.708v-1.904h-1.708zm6.677.14c2.422 0 3.682-1.484 3.682-5.082 0-3.08-.994-5.278-3.598-5.278-2.086 0-3.402 1.4-3.402 3.416 0 2.002 1.26 3.318 3.066 3.318 1.036 0 1.876-.448 2.338-1.316h.07c.14 2.31-.518 3.682-2.086 3.682-.938 0-1.596-.476-1.722-1.302h-1.47c.168 1.526 1.4 2.562 3.122 2.562zm.042-4.858c-1.106 0-1.862-.756-1.862-2.086 0-1.302.714-2.128 1.862-2.128s1.904.84 1.904 2.086c0 1.134-.658 2.128-1.904 2.128zm5.2683-3.08c0 1.526 1.022 2.562 2.478 2.562 1.484 0 2.492-1.036 2.492-2.548s-.994-2.534-2.492-2.534c-1.47 0-2.478 1.022-2.478 2.52zm1.82 7.798h1.036l6.468-10.206h-1.036zm-.714-7.798c0-.924.56-1.568 1.372-1.568.84 0 1.4.644 1.4 1.568 0 .938-.56 1.596-1.4 1.596-.826 0-1.372-.658-1.372-1.596zm4.886 5.376c0 1.526 1.008 2.562 2.492 2.562 1.47 0 2.464-1.05 2.464-2.548s-.98-2.562-2.464-2.562c-1.498 0-2.492 1.064-2.492 2.548zm1.092 0c0-.924.56-1.582 1.4-1.582.812 0 1.386.658 1.386 1.582 0 .938-.574 1.596-1.386 1.596-.826 0-1.4-.658-1.4-1.596z"/></g></svg>